# Blender v3.0.1 OBJ File: 'rockerfeller_plaza.blend'
# www.blender.org
o geometryt000010000010000110010110000110000110100100000000st74_C
v 315.114014 -110.843689 1045.465820
v 315.114014 -110.843689 888.862244
v 316.573120 -111.623589 888.862244
v 316.573120 -111.623589 1045.465820
v 319.385193 -113.126686 888.862244
v 326.680725 -117.026382 888.862244
v 326.680725 -117.026382 1045.465820
v 319.385193 -113.126686 1045.465820
v 329.492798 -118.529488 1045.465820
v 329.492798 -118.529488 888.862244
v 330.951904 -119.309387 888.862244
v 330.951904 -119.309387 1045.465820
v 315.876831 -108.707687 1045.465820
v 315.876831 -108.707687 888.862244
v 315.089874 -110.162987 888.862244
v 315.089874 -110.162987 1045.465820
v 317.104614 -106.428986 888.862244
v 316.320465 -107.885788 888.862244
v 316.320465 -107.885788 1045.465820
v 317.104614 -106.428986 1045.465820
v 318.438354 -103.950989 888.862244
v 317.654236 -105.407883 888.862244
v 317.654236 -105.407883 1045.465820
v 318.438354 -103.950989 1045.465820
v 319.772095 -101.472984 888.862244
v 318.987976 -102.929886 888.862244
v 318.987976 -102.929886 1045.465820
v 319.772095 -101.472984 1045.465820
v 321.105865 -98.995033 888.862244
v 320.321716 -100.451889 888.862244
v 320.321716 -100.451889 1045.465820
v 321.105865 -98.995033 1045.465820
v 322.439606 -96.517059 888.862244
v 321.655457 -97.973907 888.862244
v 321.655457 -97.973907 1045.465820
v 322.439606 -96.517059 1045.465820
v 324.494843 -92.676468 888.862244
v 322.934204 -95.594269 888.862244
v 322.934204 -95.594269 916.465881
v 324.494843 -92.676468 916.465881
v 324.366974 -97.154907 916.465881
v 322.907471 -96.375748 916.465881
v 322.907471 -96.375748 1045.465820
v 324.366974 -97.154907 1045.465820
v 334.475037 -102.551086 916.465881
v 327.177460 -98.655289 916.465881
v 327.177460 -98.655289 1045.465820
v 334.475037 -102.551086 1045.465820
v 338.745056 -104.830688 916.465881
v 337.285522 -104.051483 916.465881
v 337.285522 -104.051483 1045.465820
v 338.745056 -104.830688 1045.465820
v 326.584442 -93.009033 916.465881
v 326.584442 -93.009033 888.862244
v 325.129333 -92.221649 888.862244
v 325.129333 -92.221649 916.465881
v 331.631714 -95.740242 888.862244
v 327.266418 -93.378075 888.862244
v 327.266418 -93.378075 916.465881
v 331.631714 -95.740242 916.465881
v 333.768799 -96.896675 888.862244
v 332.313721 -96.109283 888.862244
v 332.313721 -96.109283 916.465881
v 333.768799 -96.896675 916.465881
v 338.816101 -99.627884 888.862244
v 334.450806 -97.265717 888.862244
v 334.450806 -97.265717 916.465881
v 338.816101 -99.627884 916.465881
v 340.953186 -100.784286 888.862244
v 339.498077 -99.996925 888.862244
v 339.498077 -99.996925 916.465881
v 340.953186 -100.784286 916.465881
v 331.419678 -119.168182 1045.465820
v 331.419678 -119.168182 888.862244
v 332.203827 -117.711388 888.862244
v 332.203827 -117.711388 1045.465820
v 332.756104 -116.685287 1045.465820
v 332.756104 -116.685287 888.862244
v 333.540222 -115.228485 888.862244
v 333.540222 -115.228485 1045.465820
v 334.092499 -114.202385 888.862244
v 334.876648 -112.745583 888.862244
v 334.876648 -112.745583 1045.465820
v 334.092499 -114.202385 1045.465820
v 335.428925 -111.719589 888.862244
v 336.213074 -110.262688 888.862244
v 336.213074 -110.262688 1045.465820
v 335.428925 -111.719589 1045.465820
v 336.765320 -109.236687 1045.465820
v 336.765320 -109.236687 888.862244
v 337.549469 -107.779785 888.862244
v 337.549469 -107.779785 1045.465820
v 338.101746 -106.753784 888.862244
v 338.885895 -105.296883 888.862244
v 338.885895 -105.296883 1045.465820
v 338.101746 -106.753784 1045.465820
v 339.360474 -104.423088 888.862244
v 340.945557 -101.518486 888.862244
v 340.945557 -101.518486 916.465881
v 339.360474 -104.423088 916.465881
vt 0.000000 16.000000
vt 0.000000 0.000000
vt 0.250000 0.000000
vt 0.250000 16.000000
vt 0.000000 0.000000
vt 1.250000 0.000000
vt 1.250000 16.000000
vt 0.000000 16.000000
vt 0.000000 16.000000
vt 0.000000 0.000000
vt 0.250000 0.000000
vt 0.250000 16.000000
vt 0.000000 16.000000
vt 0.000000 0.000000
vt 0.250000 0.000000
vt 0.250000 16.000000
vt 0.000000 0.000000
vt 0.250000 0.000000
vt 0.250000 16.000000
vt 0.000000 16.000000
vt 0.000000 0.000000
vt 0.250000 0.000000
vt 0.250000 16.000000
vt 0.000000 16.000000
vt 0.000000 0.000000
vt 0.250000 0.000000
vt 0.250000 16.000000
vt 0.000000 16.000000
vt 0.000000 0.000000
vt 0.250000 0.000000
vt 0.250000 16.000000
vt 0.000000 16.000000
vt 0.000000 0.000000
vt 0.250000 0.000000
vt 0.250000 16.000000
vt 0.000000 16.000000
vt 0.000000 0.000000
vt 0.500000 0.000000
vt 0.500000 2.333330
vt 0.000000 2.333330
vt 0.000000 0.000000
vt 0.250000 0.000000
vt 0.250000 13.000000
vt 0.000000 13.000000
vt 0.000000 0.000000
vt 1.250000 0.000000
vt 1.250000 13.000000
vt 0.000000 13.000000
vt 0.000000 0.000000
vt 0.250000 0.000000
vt 0.250000 13.000000
vt 0.000000 13.000000
vt 0.000000 2.333330
vt 0.000000 0.000000
vt 0.250000 0.000000
vt 0.250000 2.333330
vt 0.000000 0.000000
vt 0.750000 0.000000
vt 0.750000 2.333330
vt 0.000000 2.333330
vt 0.000000 0.000000
vt 0.750000 0.000000
vt 0.750000 2.333330
vt 0.000000 2.333330
vt 0.000000 0.000000
vt 0.250000 0.000000
vt 0.250000 2.333330
vt 0.000000 2.333330
vt 0.000000 16.000000
vt 0.000000 0.000000
vt 0.250000 0.000000
vt 0.250000 16.000000
vt 0.000000 16.000000
vt 0.000000 0.000000
vt 0.250000 0.000000
vt 0.250000 16.000000
vt 0.000000 0.000000
vt 0.250000 0.000000
vt 0.250000 16.000000
vt 0.000000 16.000000
vt 0.000000 0.000000
vt 0.250000 0.000000
vt 0.250000 16.000000
vt 0.000000 16.000000
vt 0.000000 16.000000
vt 0.000000 0.000000
vt 0.250000 0.000000
vt 0.250000 16.000000
vt 0.000000 0.000000
vt 0.250000 0.000000
vt 0.250000 16.000000
vt 0.000000 16.000000
vt 0.000000 0.000000
vt 0.500000 0.000000
vt 0.500000 2.333330
vt 0.000000 2.333330
vt 0.000000 0.000000
vt 0.250000 0.000000
vt 0.250000 2.333330
vt 0.000000 2.333330
vn -0.4714 -0.8819 0.0000
vn -0.8796 0.4757 0.0000
vn -0.8796 0.4756 0.0000
vn -0.8806 0.4739 0.0000
vn -0.8805 0.4740 0.0000
vn -0.8818 0.4716 0.0000
vn 0.4709 0.8822 0.0000
vn 0.4710 0.8822 0.0000
vn 0.4710 0.8821 0.0000
vn 0.4759 0.8795 0.0000
vn 0.8805 -0.4740 0.0000
vn 0.8806 -0.4739 0.0000
vn 0.8778 -0.4790 0.0000
s off
f 1/1/1 2/2/1 3/3/1
f 1/1/1 3/3/1 4/4/1
f 5/5/1 6/6/1 7/7/1
f 8/8/1 5/5/1 7/7/1
f 9/9/1 10/10/1 11/11/1
f 9/9/1 11/11/1 12/12/1
f 13/13/2 14/14/2 15/15/2
f 13/13/3 15/15/3 16/16/3
f 17/17/4 18/18/4 19/19/4
f 20/20/5 17/17/5 19/19/5
f 21/21/4 22/22/4 23/23/4
f 24/24/4 21/21/4 23/23/4
f 25/25/4 26/26/4 27/27/4
f 28/28/4 25/25/4 27/27/4
f 29/29/5 30/30/5 31/31/5
f 32/32/4 29/29/4 31/31/4
f 33/33/5 34/34/5 35/35/5
f 36/36/4 33/33/4 35/35/4
f 37/37/6 38/38/6 39/39/6
f 40/40/6 37/37/6 39/39/6
f 41/41/7 42/42/7 43/43/7
f 44/44/7 41/41/7 43/43/7
f 45/45/7 46/46/7 47/47/7
f 48/48/7 45/45/7 47/47/7
f 49/49/8 50/50/8 51/51/8
f 52/52/9 49/49/9 51/51/9
f 53/53/10 54/54/10 55/55/10
f 53/53/10 55/55/10 56/56/10
f 57/57/10 58/58/10 59/59/10
f 60/60/10 57/57/10 59/59/10
f 65/61/10 66/62/10 67/63/10
f 68/64/10 65/61/10 67/63/10
f 69/65/10 70/66/10 71/67/10
f 72/68/10 69/65/10 71/67/10
f 73/69/11 74/70/11 75/71/11
f 73/69/11 75/71/11 76/72/11
f 77/73/11 78/74/11 79/75/11
f 77/73/12 79/75/12 80/76/12
f 81/77/11 82/78/11 83/79/11
f 84/80/12 81/77/12 83/79/12
f 85/81/11 86/82/11 87/83/11
f 88/84/12 85/81/12 87/83/12
f 89/85/11 90/86/11 91/87/11
f 89/85/12 91/87/12 92/88/12
f 93/89/12 94/90/12 95/91/12
f 96/92/11 93/89/11 95/91/11
f 97/93/13 98/94/13 99/95/13
f 100/96/13 97/93/13 99/95/13
s 1
f 61/97/10 62/98/10 63/99/10
f 64/100/10 61/97/10 63/99/10
