# Blender v3.0.1 OBJ File: 'rockerfeller_plaza.blend'
# www.blender.org
o geometryt000010000010000110010110000110000110100000000100st18_1
v 253.499908 -43.976982 95.181671
v 253.499908 -43.976982 65.967514
v 280.804169 -58.897072 65.967514
v 280.804169 -58.897072 95.181671
v 254.534882 -40.659451 95.181671
v 254.534882 -40.659451 65.967514
v 253.136520 -43.272072 65.967514
v 253.136520 -43.272072 95.181671
v 257.144806 -35.697384 95.181671
v 257.144806 -35.697384 65.967514
v 255.078079 -39.632652 65.967514
v 255.078079 -39.632652 95.181671
v 257.829407 -35.519451 95.181671
v 257.792877 -35.471893 273.181671
v 257.792877 -35.471893 95.181671
v 258.173767 -35.967842 95.181671
v 259.597870 -37.822041 95.181671
v 259.597870 -37.822041 273.181671
v 264.300934 -22.363705 93.392929
v 266.400208 -18.445684 65.967514
v 258.003113 -34.117752 65.967514
v 266.400208 -18.445684 93.392929
v 258.003113 -34.117752 273.181671
v 264.074707 -22.785894 170.181671
v 264.074707 -22.785894 95.181671
v 261.238220 -28.079865 273.181671
v 264.074707 -22.785894 273.181671
v 264.300934 -22.363705 95.181671
v 260.386841 -39.007122 95.181671
v 260.625336 -39.396984 95.181671
v 260.386841 -39.007122 170.181671
v 261.933258 -41.534943 170.181671
v 261.933258 -41.534943 95.181671
v 260.796814 -38.697094 273.181671
v 260.796814 -38.697094 170.181671
v 263.305237 -40.017414 170.181671
v 265.444183 -41.143261 170.181671
v 267.423981 -42.185341 170.181671
v 273.908081 -45.598274 170.181671
v 273.908081 -45.598274 273.181671
v 267.253113 -25.089754 295.181671
v 267.253113 -25.089754 273.181671
v 261.946045 -27.727974 273.181671
v 261.946045 -27.727974 295.181671
v 263.763245 -32.791733 273.181671
v 261.557831 -28.676304 295.181671
v 261.557831 -28.676304 273.181671
v 267.156616 -39.123962 295.181671
v 266.879578 -38.606964 273.181671
v 267.156616 -39.123962 273.181671
v 266.935822 -44.618362 95.181671
v 262.921570 -42.572403 170.181671
v 262.921570 -42.572403 95.181671
v 267.604523 -44.959183 95.181671
v 280.082703 -51.319004 95.181671
v 280.082703 -51.319004 170.181671
v 267.340607 -24.426245 95.181671
v 266.849884 -24.179764 95.181671
v 267.340607 -24.426245 273.181671
v 264.692566 -23.096155 273.181671
v 264.692566 -23.096155 95.181671
v 271.116577 -20.443094 95.181671
v 271.116577 -20.443094 65.967514
v 267.196991 -18.346745 65.967514
v 267.196991 -18.346745 95.181671
v 272.331268 -37.142342 273.181671
v 268.290802 -39.287872 295.181671
v 268.290802 -39.287872 273.181671
v 278.759644 -33.728813 295.181671
v 278.416992 -33.910751 273.181671
v 278.759644 -33.728813 273.181671
v 270.213348 -23.320004 95.181671
v 270.901794 -22.131645 118.813606
v 270.901794 -22.131645 95.181671
v 270.137878 -23.450254 95.181671
v 269.997925 -23.691833 95.181671
v 269.983124 -23.717384 95.181671
v 269.831299 -23.979435 95.181671
v 269.416321 -24.695755 95.181671
v 269.416321 -24.695755 295.181671
v 270.159058 -23.413694 202.078278
v 270.137878 -23.450254 170.181671
v 270.159058 -23.413694 133.112717
v 270.137878 -23.450254 295.181671
v 270.137878 -23.450254 273.181671
v 270.159058 -23.413694 270.360474
v 270.671661 -22.528864 202.078278
v 270.901794 -22.131645 171.423981
v 270.159058 -23.413694 171.043777
v 270.901794 -22.131645 171.043777
v 270.159058 -23.413694 170.181671
v 270.159058 -23.413694 168.757477
v 270.689148 -22.498693 133.112717
v 271.286407 -21.459484 127.545319
v 270.767456 -22.353195 127.545319
v 270.542389 -22.740795 142.653595
v 271.286407 -21.459484 169.618073
v 270.542389 -22.740795 169.618073
v 271.286407 -21.459484 185.799866
v 270.789429 -22.315365 185.799866
v 270.542389 -22.740795 218.649872
v 271.286407 -21.459484 273.181671
v 270.542389 -22.740795 273.181671
v 273.027466 -21.828314 295.181671
v 273.027466 -21.828314 273.181671
v 270.440979 -23.274454 273.181671
v 270.440979 -23.274454 295.181671
v 273.033905 -21.489374 273.181671
v 273.033905 -21.489374 65.967514
v 271.998749 -20.919615 65.967514
v 271.998749 -20.919615 273.181671
v 284.187134 -27.558884 273.181671
v 284.187134 -27.558884 65.967514
v 273.774902 -21.894434 65.967514
v 273.774902 -21.894434 273.181671
v 279.254578 -32.699821 295.181671
v 279.254578 -32.699821 273.181671
v 275.875610 -26.394474 273.181671
v 273.932831 -22.769175 273.181671
v 273.655762 -22.252174 295.181671
v 273.655762 -22.252174 273.181671
v 275.144043 -45.410744 273.181671
v 275.144043 -45.410744 170.181671
v 279.756470 -36.842873 170.181671
v 284.274353 -28.450634 273.181671
v 280.571869 -35.328232 170.181671
v 282.234222 -32.240292 170.181671
v 284.274353 -28.450634 170.181671
v 281.827698 -46.458443 95.181671
v 284.909760 -33.634483 101.431671
v 280.754944 -50.922123 95.181671
v 280.754944 -50.922123 170.181671
v 284.905487 -33.652241 101.181671
v 284.780334 -34.173084 95.181671
v 284.791260 -34.127571 95.181671
v 284.905487 -33.652241 95.181671
v 284.909760 -33.634483 101.181671
v 285.948456 -29.312584 101.431671
v 285.948456 -29.312584 170.181671
v 284.905487 -33.652241 170.181671
v 281.620728 -58.184902 95.181671
v 281.620728 -58.184902 65.967514
v 287.097595 -35.119701 65.967514
v 287.097595 -35.119701 95.181671
v 285.822449 -28.485394 170.181671
v 285.822449 -28.485394 65.967514
v 284.925018 -27.969524 65.967514
v 284.925018 -27.969524 170.181671
v 285.402435 -33.743221 95.181671
v 286.860382 -34.007313 95.181671
v 286.860382 -34.007313 101.181671
v 285.402435 -33.743221 101.181671
v 290.461700 -30.967384 101.181671
v 290.461700 -30.967384 65.967514
v 286.537903 -28.878935 65.967514
v 286.537903 -28.878935 101.181671
v 287.946716 -34.213512 65.967514
v 289.400513 -34.499462 65.967514
v 289.400513 -34.499462 101.181671
v 287.946716 -34.213512 101.181671
v 290.259583 -33.621784 101.181671
v 290.259583 -33.621784 65.967514
v 290.624664 -32.185802 65.967514
v 290.624664 -32.185802 101.181671
vt 0.000000 2.250000
vt 0.000000 0.000000
vt 3.500000 0.000000
vt 3.500000 2.250000
vt 0.000000 2.250000
vt 0.000000 0.000000
vt 0.333330 0.000000
vt 0.333330 2.250000
vt 0.000000 2.250000
vt 0.000000 0.000000
vt 0.500000 0.000000
vt 0.500000 2.250000
vt 0.006750 0.000000
vt 0.000000 14.000000
vt 0.000000 0.000000
vt 0.070340 0.000000
vt 0.333330 14.000000
vt 0.500000 2.250000
vt 0.000000 0.000000
vt 2.000000 0.000000
vt 0.000000 2.250000
vt 2.000000 17.000000
vt 0.553880 8.549811
vt 0.553880 2.396750
vt 1.229470 17.000000
vt 0.553880 17.000000
vt 0.500000 2.396750
vt 0.333330 6.000000
vt 0.051410 0.000000
vt 0.333330 0.000000
vt 0.000000 6.000000
vt 0.000000 7.750000
vt 0.000000 0.000000
vt 0.318860 0.000000
vt 0.590760 0.000000
vt 0.842430 0.000000
vt 1.666670 0.000000
vt 1.666670 7.750000
vt 0.000000 1.250000
vt 0.000000 0.000000
vt 0.666670 0.000000
vt 0.666670 1.250000
vt 1.333330 1.250000
vt 0.525210 0.000000
vt 1.267350 0.000000
vt 0.000000 1.250000
vt 1.333330 0.000000
vt 0.506820 0.000000
vt 0.000000 6.000000
vt 0.000000 0.000000
vt 0.591240 0.000000
vt 2.166670 0.000000
vt 2.166670 6.000000
vt 0.000000 2.250000
vt 0.000000 0.000000
vt 0.500000 0.000000
vt 0.500000 2.250000
vt 0.514600 0.000000
vt 0.000000 1.250000
vt 0.000000 0.000000
vt 1.333330 1.250000
vt 1.289690 0.000000
vt 1.333330 0.000000
vt 0.154490 0.000000
vt 0.000000 1.713310
vt 0.000000 0.000000
vt 0.171420 0.000000
vt 0.202820 0.000000
vt 0.206150 0.000000
vt 0.240210 0.000000
vt 0.333330 0.000000
vt 0.333330 14.500000
vt 0.166670 7.750000
vt 0.171420 5.437500
vt 0.166670 2.750000
vt 0.171420 14.500000
vt 0.171420 12.905000
vt 0.166670 12.700460
vt 0.051640 7.750000
vt 0.000000 5.527570
vt 0.166670 5.500000
vt 0.166670 5.437500
vt 0.166670 5.334250
vt 0.047720 2.750000
vt 0.000000 2.500000
vt 0.116250 2.500000
vt 0.166670 3.667070
vt 0.000000 5.750000
vt 0.166670 5.750000
vt 0.000000 7.000000
vt 0.111330 7.000000
vt 0.166670 9.537570
vt 0.000000 13.750000
vt 0.166670 13.750000
vt 0.000000 1.250000
vt 0.000000 0.000000
vt 0.333330 0.000000
vt 0.333330 1.250000
vt 0.000000 15.750000
vt 0.000000 0.000000
vt 0.166670 0.000000
vt 0.166670 15.750000
vt 0.000000 15.750000
vt 0.000000 0.000000
vt 1.333330 0.000000
vt 1.333330 15.750000
vt 0.000000 1.250000
vt 0.000000 0.000000
vt 0.804690 0.000000
vt 1.267350 0.000000
vt 1.333330 1.250000
vt 1.333330 0.000000
vt 0.000000 7.750000
vt 0.000000 0.000000
vt 1.094550 0.000000
vt 2.166670 7.750000
vt 1.288050 0.000000
vt 1.682540 0.000000
vt 2.166670 0.000000
vt 0.516400 0.000000
vt 2.000000 0.500000
vt 0.000000 0.000000
vt 0.000000 6.000000
vt 1.997950 0.480000
vt 1.937690 0.000000
vt 1.942950 0.000000
vt 1.997950 0.000000
vt 2.000000 0.480000
vt 2.500000 0.500000
vt 2.500000 6.000000
vt 1.997950 6.000000
vt 0.000000 2.250000
vt 0.000000 0.000000
vt 2.666670 0.000000
vt 2.666670 2.250000
vt 0.000000 8.500000
vt 0.000000 0.000000
vt 0.166670 0.000000
vt 0.166670 8.500000
vt 0.000000 0.000000
vt 0.166670 0.000000
vt 0.166670 0.500000
vt 0.000000 0.500000
vt 0.000000 2.750000
vt 0.000000 0.000000
vt 0.500000 0.000000
vt 0.500000 2.750000
vt 0.000000 0.000000
vt 0.166670 0.000000
vt 0.166670 2.750000
vt 0.000000 2.750000
vt 0.000000 2.750000
vt 0.000000 0.000000
vt 0.166670 0.000000
vt 0.166670 2.750000
vt 0.333330 0.000000
vt 0.000000 0.000000
vt 0.000000 0.000000
vt 0.000000 0.000000
vt 0.061770 0.000000
vt 0.000000 13.500000
vt 0.333330 13.500000
vt 0.333330 0.000000
vt 0.000000 5.500000
vn -0.4795 -0.8775 0.0000
vn -0.8817 0.4719 0.0000
vn -0.8853 0.4650 0.0000
vn -0.7928 -0.6095 0.0000
vn -0.7931 -0.6091 -0.0000
vn -0.8814 0.4723 0.0000
vn -0.8815 0.4723 0.0000
vn -0.8814 0.4724 0.0000
vn -0.8530 -0.5219 0.0000
vn -0.8530 -0.5218 0.0000
vn -0.4658 -0.8849 0.0000
vn -0.4451 0.8955 0.0000
vn -0.8814 -0.4723 -0.0000
vn -0.4541 -0.8910 0.0000
vn 0.4716 0.8818 0.0000
vn 0.4690 -0.8832 0.0000
vn -0.8653 0.5013 0.0000
vn -0.8648 0.5021 0.0000
vn -0.8653 0.5012 0.0000
vn -0.8656 0.5007 0.0000
vn -0.8650 0.5017 0.0000
vn -0.8648 0.5022 -0.0000
vn -0.4880 0.8728 0.0000
vn 0.4822 0.8761 0.0000
vn 0.4779 0.8784 0.0000
vn 0.8814 0.4723 0.0000
vn 0.8814 0.4724 0.0000
vn 0.8805 -0.4740 0.0000
vn 0.9723 -0.2337 -0.0000
vn 0.9721 -0.2346 -0.0000
vn 0.9723 -0.2336 0.0000
vn 0.9723 -0.2339 0.0000
vn 0.9729 -0.2310 0.0000
vn 0.4984 0.8670 0.0000
vn -0.1782 -0.9840 0.0000
vn 0.4698 0.8827 0.0000
vn 0.4698 0.8828 0.0000
vn -0.1930 -0.9812 0.0000
vn 0.9692 -0.2464 0.0000
vn 0.4488 0.8936 0.0000
vn 0.4489 0.8936 -0.0000
s off
f 1/1/1 2/2/1 3/3/1
f 1/1/1 3/3/1 4/4/1
f 5/5/2 6/6/2 7/7/2
f 5/5/2 7/7/2 8/8/2
f 9/9/3 10/10/3 11/11/3
f 9/9/3 11/11/3 12/12/3
f 13/13/4 14/14/4 15/15/4
f 16/16/5 14/14/5 13/13/5
f 18/17/5 14/14/5 16/16/5
f 19/18/6 20/19/6 21/20/6
f 22/21/7 20/19/7 19/18/7
f 23/22/6 24/23/6 21/20/6
f 24/23/6 25/24/6 21/20/6
f 25/24/6 19/18/6 21/20/6
f 26/25/6 24/23/6 23/22/6
f 27/26/6 24/23/6 26/25/6
f 28/27/8 19/18/8 25/24/8
f 32/28/9 30/29/9 33/30/9
f 31/31/10 30/29/10 32/28/10
f 34/32/11 35/33/11 36/34/11
f 34/32/11 36/34/11 37/35/11
f 38/36/11 34/32/11 37/35/11
f 39/37/11 40/38/11 38/36/11
f 38/36/11 40/38/11 34/32/11
f 41/39/12 42/40/12 43/41/12
f 41/39/12 43/41/12 44/42/12
f 48/43/13 45/44/13 49/45/13
f 46/46/13 45/44/13 48/43/13
f 50/47/13 48/43/13 49/45/13
f 51/48/14 52/49/14 53/50/14
f 52/49/14 51/48/14 54/51/14
f 55/52/14 56/53/14 54/51/14
f 54/51/14 56/53/14 52/49/14
f 62/54/15 63/55/15 64/56/15
f 62/54/15 64/56/15 65/57/15
f 66/58/16 67/59/16 68/60/16
f 69/61/16 66/58/16 70/62/16
f 67/59/16 66/58/16 69/61/16
f 71/63/16 69/61/16 70/62/16
f 72/64/17 73/65/17 74/66/17
f 73/65/17 75/67/17 76/68/17
f 77/69/18 73/65/18 76/68/18
f 73/65/17 78/70/17 79/71/17
f 79/71/17 80/72/17 81/73/17
f 79/71/17 81/73/17 82/74/17
f 82/74/17 83/75/17 79/71/17
f 83/75/17 73/65/17 79/71/17
f 84/76/17 85/77/17 80/72/17
f 85/77/19 86/78/19 80/72/19
f 81/73/17 80/72/17 86/78/17
f 81/73/17 87/79/17 88/80/17
f 89/81/17 81/73/17 88/80/17
f 82/74/20 81/73/20 89/81/20
f 91/82/21 82/74/21 89/81/21
f 82/74/21 92/83/21 83/75/21
f 73/65/17 83/75/17 93/84/17
f 94/85/22 95/86/22 96/87/22
f 97/88/22 94/85/22 96/87/22
f 98/89/22 97/88/22 96/87/22
f 99/90/22 100/91/22 101/92/22
f 102/93/22 99/90/22 101/92/22
f 103/94/18 102/93/18 101/92/18
f 104/95/23 105/96/23 106/97/23
f 104/95/23 106/97/23 107/98/23
f 108/99/24 109/100/24 110/101/24
f 108/99/24 110/101/24 111/102/24
f 112/103/25 113/104/25 114/105/25
f 112/103/25 114/105/25 115/106/25
f 116/107/26 117/108/26 118/109/26
f 119/110/26 120/111/26 118/109/26
f 120/111/26 116/107/26 118/109/26
f 121/112/27 120/111/27 119/110/27
f 122/113/28 123/114/28 124/115/28
f 125/116/28 124/115/28 126/117/28
f 122/113/28 124/115/28 125/116/28
f 127/118/28 125/116/28 126/117/28
f 125/116/28 127/118/28 128/119/28
f 129/120/29 130/121/29 131/122/29
f 130/121/29 132/123/29 131/122/29
f 133/124/29 129/120/29 134/125/29
f 133/124/29 130/121/29 129/120/29
f 135/126/30 133/124/30 134/125/30
f 135/126/31 136/127/31 133/124/31
f 137/128/32 130/121/32 133/124/32
f 138/129/29 139/130/29 130/121/29
f 130/121/29 139/130/29 140/131/29
f 130/121/29 140/131/29 132/123/29
f 141/132/33 142/133/33 143/134/33
f 141/132/33 143/134/33 144/135/33
f 145/136/34 146/137/34 147/138/34
f 145/136/34 147/138/34 148/139/34
f 149/140/35 150/141/35 151/142/35
f 152/143/35 149/140/35 151/142/35
f 153/144/36 154/145/36 155/146/36
f 153/144/37 155/146/37 156/147/37
f 157/148/38 158/149/38 159/150/38
f 160/151/38 157/148/38 159/150/38
f 161/152/39 162/153/39 163/154/39
f 161/152/39 163/154/39 164/155/39
s 1
f 17/156/5 18/17/5 16/16/5
f 29/157/10 30/29/10 31/31/10
f 45/44/13 46/46/13 47/158/13
f 57/159/40 58/160/40 59/161/41
f 60/162/41 58/160/40 61/163/40
f 59/161/41 58/160/40 60/162/41
f 73/65/17 72/64/17 75/67/17
f 77/69/19 78/70/19 73/65/19
f 88/80/17 90/164/17 89/81/17
