# Blender v3.0.1 OBJ File: 'rockerfeller_plaza.blend'
# www.blender.org
o geometryt000010000010000110010110000110000110100000010110st138_
v 1120.843018 -96.914276 189.236130
v 1121.689209 -97.204247 286.176605
v 1120.843018 -96.914276 286.176605
v 1117.052979 -95.615387 187.676605
v 1117.899048 -95.905357 189.236130
v 1121.689209 -97.204247 187.676605
v 1117.899048 -95.905357 286.176605
v 1117.052979 -95.615387 286.176605
v 1117.217285 -95.312035 189.236130
v 1117.052979 -95.615387 286.176605
v 1117.217285 -95.312035 286.176605
v 1117.958496 -93.943871 189.236130
v 1117.052979 -95.615387 187.676605
v 1117.958496 -93.943871 286.176605
v 1118.280518 -93.349304 286.176605
v 1118.280518 -93.349304 189.236130
v 1120.504028 -89.244797 189.236130
v 1120.504028 -89.244797 286.176605
v 1120.826050 -88.650238 286.176605
v 1120.826050 -88.650238 189.236130
v 1121.567261 -87.282066 189.236130
v 1121.567261 -87.282066 286.176605
v 1121.889404 -86.687508 286.176605
v 1121.889404 -86.687508 189.236130
v 1123.371582 -83.951164 189.236130
v 1123.371582 -83.951164 286.176605
v 1123.693726 -83.356606 286.176605
v 1123.693726 -83.356606 189.236130
v 1128.208008 -75.023277 187.676605
v 1124.434814 -81.988434 189.236130
v 1124.434814 -81.988434 286.176605
v 1124.756958 -81.393867 286.176605
v 1124.756958 -81.393867 189.236130
v 1126.980469 -77.289368 189.236130
v 1126.980469 -77.289368 286.176605
v 1127.302490 -76.694794 286.176605
v 1127.302490 -76.694794 189.236130
v 1128.043701 -75.326630 189.236130
v 1128.043701 -75.326630 286.176605
v 1128.208008 -75.023277 286.176605
v 1123.317383 -95.562225 189.236130
v 1123.849976 -95.025108 286.176605
v 1123.317383 -95.562225 286.176605
v 1121.689209 -97.204247 187.676605
v 1122.221802 -96.667130 189.236130
v 1123.849976 -95.025108 187.676605
v 1122.221802 -96.667130 286.176605
v 1121.689209 -97.204247 286.176605
v 1128.632935 -102.174179 189.236130
v 1128.824707 -102.460876 286.176605
v 1128.632935 -102.174179 286.176605
v 1127.767700 -100.880875 189.236130
v 1128.824707 -102.460876 187.676605
v 1127.767700 -100.880875 286.176605
v 1127.202637 -100.036278 286.176605
v 1127.202637 -100.036278 189.236130
v 1125.472168 -97.449730 189.236130
v 1125.472168 -97.449730 286.176605
v 1124.906982 -96.605125 286.176605
v 1124.906982 -96.605125 189.236130
v 1123.849976 -95.025108 187.676605
v 1124.041870 -95.311844 189.236130
v 1124.041870 -95.311844 286.176605
v 1123.849976 -95.025108 286.176605
v 1128.544800 -74.948524 189.236130
v 1128.208008 -75.023277 286.176605
v 1128.544800 -74.948524 286.176605
v 1130.063843 -74.611389 189.236130
v 1128.208008 -75.023277 187.676605
v 1130.063843 -74.611389 286.176605
v 1131.039551 -74.394844 286.176605
v 1131.039551 -74.394844 189.236130
v 1132.558594 -74.057709 189.236130
v 1135.390015 -73.429276 187.676605
v 1132.558594 -74.057709 286.176605
v 1133.534180 -73.841164 286.176605
v 1133.534180 -73.841164 189.236130
v 1135.053223 -73.504028 189.236130
v 1135.053223 -73.504028 286.176605
v 1135.390015 -73.429276 286.176605
v 1132.312988 -104.347679 189.236130
v 1133.063965 -104.753876 286.176605
v 1132.312988 -104.347679 286.176605
v 1128.824707 -102.460876 187.676605
v 1129.575684 -102.867081 189.236130
v 1133.063965 -104.753876 187.676605
v 1129.575684 -102.867081 286.176605
v 1128.824707 -102.460876 286.176605
v 1144.393311 -83.817230 189.236130
v 1144.557617 -83.513809 286.176605
v 1144.393311 -83.817230 286.176605
v 1143.652832 -85.185738 189.236130
v 1144.557617 -83.513809 187.676605
v 1143.652832 -85.185738 286.176605
v 1143.396484 -85.659508 286.176605
v 1143.396484 -85.659508 189.236130
v 1141.174805 -89.765030 189.236130
v 1141.174805 -89.765030 286.176605
v 1140.918457 -90.238785 286.176605
v 1140.918457 -90.238785 189.236130
v 1140.177979 -91.607300 189.236130
v 1140.177979 -91.607300 286.176605
v 1139.921509 -92.081070 286.176605
v 1139.921509 -92.081070 189.236130
v 1137.699951 -96.186577 189.236130
v 1137.699951 -96.186577 286.176605
v 1137.443604 -96.660347 286.176605
v 1137.443604 -96.660347 189.236130
v 1133.063965 -104.753876 187.676605
v 1136.703003 -98.028854 189.236130
v 1136.703003 -98.028854 286.176605
v 1136.446655 -98.502617 286.176605
v 1136.446655 -98.502617 189.236130
v 1134.225098 -102.608177 189.236130
v 1134.225098 -102.608177 286.176605
v 1133.968750 -103.081879 286.176605
v 1133.968750 -103.081879 189.236130
v 1133.228149 -104.450378 189.236130
v 1133.228149 -104.450378 286.176605
v 1133.063965 -104.753876 286.176605
v 1136.114136 -73.820137 189.236130
v 1135.390015 -73.429276 286.176605
v 1136.114136 -73.820137 286.176605
v 1140.221802 -76.037575 189.236130
v 1135.390015 -73.429276 187.676605
v 1140.221802 -76.037575 286.176605
v 1140.945923 -76.428436 286.176605
v 1140.945923 -76.428436 187.676605
v 1139.625122 -80.842987 189.236130
v 1138.797607 -80.394905 286.176605
v 1139.625122 -80.842987 286.176605
v 1143.729980 -83.065727 189.236130
v 1138.797607 -80.394905 187.676605
v 1143.729980 -83.065727 286.176605
v 1144.557617 -83.513809 286.176605
v 1144.557617 -83.513809 187.676605
v 1140.612793 -77.043457 189.236130
v 1140.945923 -76.428436 286.176605
v 1140.612793 -77.043457 286.176605
v 1138.797607 -80.394905 187.676605
v 1139.130737 -79.779884 189.236130
v 1140.945923 -76.428436 187.676605
v 1139.130737 -79.779884 286.176605
v 1138.797607 -80.394905 286.176605
vt 4.022550 1.824000
vt 4.920550 115.204697
vt 4.022550 115.204697
vt 0.000000 0.000000
vt 4.920550 0.000000
vt 0.898000 115.204697
vt 0.000000 115.204697
vt 0.898000 1.824000
vt 23.167110 1.824000
vt 23.513500 115.204697
vt 23.167110 115.204697
vt 21.604839 1.824000
vt 23.513500 0.000000
vt 21.604839 115.204697
vt 20.925930 115.204697
vt 20.925930 1.824000
vt 16.239120 1.824000
vt 16.239120 115.204697
vt 15.560200 115.204697
vt 15.560200 1.824000
vt 13.997930 1.824000
vt 13.997930 115.204697
vt 13.319020 115.204697
vt 13.319020 1.824000
vt 10.194480 1.824000
vt 10.194480 115.204697
vt 9.515561 115.204697
vt 9.515561 1.824000
vt 0.000000 0.000000
vt 7.953290 1.824000
vt 7.953290 115.204697
vt 7.274380 115.204697
vt 7.274380 1.824000
vt 2.587570 1.824000
vt 2.587570 115.204697
vt 1.908660 115.204697
vt 1.908660 1.824000
vt 0.346390 1.824000
vt 0.346390 115.204697
vt 0.000000 115.204697
vt 2.321740 1.824000
vt 3.081200 115.204697
vt 2.321740 115.204697
vt 0.000000 0.000000
vt 0.759460 1.824000
vt 3.081200 0.000000
vt 0.759460 115.204697
vt 0.000000 115.204697
vt 8.636011 1.824000
vt 8.982391 115.204697
vt 8.636011 115.204697
vt 7.073740 1.824000
vt 8.982391 0.000000
vt 7.073740 115.204697
vt 6.053470 115.204697
vt 6.053470 1.824000
vt 2.928930 1.824000
vt 2.928930 115.204697
vt 1.908660 115.204697
vt 1.908660 1.824000
vt 0.000000 0.000000
vt 0.346390 1.824000
vt 0.346390 115.204697
vt 0.000000 115.204697
vt 7.039940 1.824000
vt 7.386320 115.204697
vt 7.039940 115.204697
vt 5.477670 115.204697
vt 4.474300 115.204697
vt 5.477670 1.824000
vt 4.474300 1.824000
vt 2.912030 1.824000
vt 0.000000 0.000000
vt 7.386320 0.000000
vt 2.912030 115.204697
vt 1.908660 115.204697
vt 1.908660 1.824000
vt 0.346390 1.824000
vt 0.346390 115.204697
vt 0.000000 115.204697
vt 3.981750 1.824000
vt 4.838960 115.204697
vt 3.981750 115.204697
vt 0.000000 0.000000
vt 0.857210 1.824000
vt 4.838960 0.000000
vt 0.857210 115.204697
vt 0.000000 115.204697
vt 23.900980 1.824000
vt 24.247360 115.204697
vt 23.900980 115.204697
vt 22.338711 1.824000
vt 24.247360 0.000000
vt 22.338711 115.204697
vt 21.797859 115.204697
vt 21.797859 1.824000
vt 17.111050 1.824000
vt 17.111050 115.204697
vt 16.570200 115.204697
vt 16.570200 1.824000
vt 15.007930 1.824000
vt 15.007930 115.204697
vt 14.467090 115.204697
vt 14.467090 1.824000
vt 9.780281 1.824000
vt 9.780281 115.204697
vt 9.239431 115.204697
vt 9.239431 1.824000
vt 0.000000 0.000000
vt 7.677160 1.824000
vt 7.677160 115.204697
vt 7.136310 115.204697
vt 7.136310 1.824000
vt 2.449500 1.824000
vt 2.449500 115.204697
vt 1.908660 115.204697
vt 1.908660 1.824000
vt 0.346390 1.824000
vt 0.346390 115.204697
vt 0.000000 115.204697
vt 5.512950 1.824000
vt 6.339090 115.204697
vt 5.512950 115.204697
vt 0.826140 1.824000
vt 6.339090 0.000000
vt 0.826140 115.204697
vt 0.000000 115.204697
vt 0.000000 0.000000
vt 5.631630 1.824000
vt 6.576450 115.204697
vt 5.631630 115.204697
vt 0.944820 1.824000
vt 6.576450 0.000000
vt 0.944820 115.204697
vt 0.000000 115.204697
vt 0.000000 0.000000
vt 3.826790 1.824000
vt 4.529030 115.204697
vt 3.826790 115.204697
vt 0.000000 0.000000
vt 0.702240 1.824000
vt 4.529030 0.000000
vt 0.702240 115.204697
vt 0.000000 115.204697
vn -0.3242 -0.9460 0.0000
vn -0.3241 -0.9460 0.0000
vn -0.3243 -0.9460 0.0000
vn -0.8792 0.4765 0.0000
vn -0.8793 0.4763 -0.0000
vn -0.8793 0.4762 0.0000
vn -0.8793 0.4762 0.0001
vn -0.8792 0.4764 -0.0002
vn -0.8792 0.4764 -0.0005
vn -0.8793 0.4763 0.0003
vn -0.8791 0.4766 0.0000
vn -0.8791 0.4766 0.0005
vn -0.8793 0.4763 0.0001
vn -0.8793 0.4762 -0.0001
vn -0.8792 0.4764 0.0000
vn -0.8794 0.4761 0.0000
vn 0.7100 -0.7042 0.0000
vn 0.7102 -0.7040 0.0000
vn 0.7101 -0.7041 -0.0000
vn -0.8314 -0.5557 0.0000
vn -0.8312 -0.5560 0.0000
vn -0.8309 -0.5564 0.0000
vn -0.8311 -0.5561 0.0000
vn -0.8313 -0.5559 0.0000
vn -0.8311 -0.5562 0.0000
vn -0.8310 -0.5563 -0.0002
vn -0.8312 -0.5559 0.0001
vn -0.8310 -0.5563 0.0000
vn -0.2167 0.9762 0.0000
vn -0.2166 0.9762 0.0000
vn -0.2166 0.9763 0.0000
vn -0.2168 0.9762 0.0000
vn -0.4758 -0.8796 0.0000
vn -0.4757 -0.8796 0.0000
vn 0.8794 -0.4760 0.0000
vn 0.8795 -0.4759 0.0001
vn 0.8793 -0.4762 0.0000
vn 0.8796 -0.4758 0.0000
vn 0.8796 -0.4758 0.0001
vn 0.8795 -0.4759 0.0000
vn 0.8795 -0.4758 0.0002
vn 0.8795 -0.4759 0.0002
vn 0.8793 -0.4763 -0.0009
vn 0.8794 -0.4760 -0.0001
vn 0.8795 -0.4758 0.0000
vn 0.8794 -0.4761 0.0000
vn 0.8796 -0.4757 0.0000
vn 0.4750 0.8800 0.0000
vn 0.4762 0.8794 0.0000
vn 0.4762 0.8793 -0.0000
vn 0.4761 0.8794 0.0000
vn 0.8793 -0.4763 -0.0000
vn 0.8792 -0.4764 0.0000
vn 0.8792 -0.4765 0.0000
vn -0.8794 0.4761 -0.0002
vn 0.8795 -0.4758 -0.0001
s off
f 1/1/1 2/2/1 3/3/1
f 4/4/1 6/5/1 1/1/1
f 2/2/2 1/1/2 6/5/2
f 7/6/3 8/7/3 5/8/3
f 8/7/1 4/4/1 5/8/1
f 9/9/4 10/10/4 11/11/4
f 12/12/5 13/13/5 9/9/5
f 10/10/6 9/9/6 13/13/6
f 14/14/5 15/15/5 12/12/5
f 15/15/5 16/16/5 12/12/5
f 16/16/7 13/13/7 12/12/7
f 16/16/5 17/17/5 13/13/5
f 18/18/5 19/19/5 17/17/5
f 19/19/5 20/20/5 17/17/5
f 20/20/8 21/21/8 13/13/8
f 22/22/5 23/23/5 21/21/5
f 23/23/4 24/24/4 21/21/4
f 21/21/9 24/24/9 13/13/9
f 24/24/10 25/25/10 13/13/10
f 26/26/11 27/27/11 25/25/11
f 27/27/5 28/28/5 25/25/5
f 28/28/12 29/29/12 25/25/12
f 25/25/5 29/29/5 13/13/5
f 30/30/13 29/29/13 28/28/13
f 31/31/11 32/32/11 30/30/11
f 32/32/5 33/33/5 30/30/5
f 33/33/6 29/29/6 30/30/6
f 34/34/5 29/29/5 33/33/5
f 35/35/5 36/36/5 34/34/5
f 36/36/5 37/37/5 34/34/5
f 37/37/14 29/29/14 34/34/14
f 38/38/15 29/29/15 37/37/15
f 39/39/16 40/40/16 38/38/16
f 40/40/4 29/29/4 38/38/4
f 41/41/17 42/42/17 43/43/17
f 44/44/18 41/41/18 45/45/18
f 44/44/19 46/46/19 41/41/19
f 42/42/18 41/41/18 46/46/18
f 47/47/19 48/48/19 45/45/19
f 48/48/19 44/44/19 45/45/19
f 49/49/20 50/50/20 51/51/20
f 52/52/21 53/53/21 49/49/21
f 50/50/22 49/49/22 53/53/22
f 54/54/23 55/55/23 52/52/23
f 55/55/21 56/56/21 52/52/21
f 56/56/24 53/53/24 52/52/24
f 56/56/23 57/57/23 53/53/23
f 58/58/23 59/59/23 57/57/23
f 59/59/25 60/60/25 57/57/25
f 60/60/26 61/61/26 57/57/26
f 57/57/23 61/61/23 53/53/23
f 62/62/27 61/61/27 60/60/27
f 63/63/28 64/64/28 62/62/28
f 64/64/28 61/61/28 62/62/28
f 65/65/29 66/66/29 67/67/29
f 70/68/30 71/69/30 68/70/30
f 71/69/29 72/71/29 68/70/29
f 73/72/29 74/73/29 72/71/29
f 72/71/29 74/73/29 69/74/29
f 75/75/29 76/76/29 73/72/29
f 76/76/29 77/77/29 73/72/29
f 77/77/29 74/73/29 73/72/29
f 78/78/29 74/73/29 77/77/29
f 79/79/31 80/80/31 78/78/31
f 80/80/32 74/73/32 78/78/32
f 81/81/33 82/82/33 83/83/33
f 84/84/34 81/81/34 85/85/34
f 84/84/33 86/86/33 81/81/33
f 82/82/33 81/81/33 86/86/33
f 87/87/33 88/88/33 85/85/33
f 88/88/33 84/84/33 85/85/33
f 89/89/35 90/90/35 91/91/35
f 92/92/36 93/93/36 89/89/36
f 90/90/37 89/89/37 93/93/37
f 94/94/35 95/95/35 92/92/35
f 95/95/38 96/96/38 92/92/38
f 96/96/39 93/93/39 92/92/39
f 96/96/40 97/97/40 93/93/40
f 98/98/35 99/99/35 97/97/35
f 99/99/38 100/100/38 97/97/38
f 97/97/41 100/100/41 93/93/41
f 100/100/42 101/101/42 93/93/42
f 102/102/35 103/103/35 101/101/35
f 103/103/37 104/104/37 101/101/37
f 101/101/43 104/104/43 93/93/43
f 104/104/36 105/105/36 93/93/36
f 106/106/38 107/107/38 105/105/38
f 107/107/35 108/108/35 105/105/35
f 105/105/40 109/109/40 93/93/40
f 110/110/42 109/109/42 108/108/42
f 111/111/35 112/112/35 110/110/35
f 112/112/38 113/113/38 110/110/38
f 113/113/44 109/109/44 110/110/44
f 114/114/40 109/109/40 113/113/40
f 115/115/45 116/116/45 114/114/45
f 116/116/46 117/117/46 114/114/46
f 117/117/45 109/109/45 114/114/45
f 118/118/35 109/109/35 117/117/35
f 119/119/40 120/120/40 118/118/40
f 120/120/47 109/109/47 118/118/47
f 121/121/48 122/122/48 123/123/48
f 124/124/48 125/125/48 121/121/48
f 122/122/48 121/121/48 125/125/48
f 126/126/48 127/127/48 124/124/48
f 127/127/48 128/128/48 124/124/48
f 128/128/48 125/125/48 124/124/48
f 129/129/49 130/130/49 131/131/49
f 132/132/50 133/133/50 129/129/50
f 130/130/51 129/129/51 133/133/51
f 134/134/51 135/135/51 132/132/51
f 135/135/51 136/136/51 132/132/51
f 136/136/51 133/133/51 132/132/51
f 137/137/46 138/138/46 139/139/46
f 140/140/52 137/137/52 141/141/52
f 140/140/52 142/142/52 137/137/52
f 138/138/53 137/137/53 142/142/53
f 143/143/54 144/144/54 141/141/54
f 144/144/46 140/140/46 141/141/46
s 1
f 4/4/1 1/1/1 5/8/1
f 17/17/55 20/20/55 13/13/55
f 68/70/29 69/74/29 65/65/29
f 66/66/31 65/65/29 69/74/29
f 72/71/29 69/74/29 68/70/29
f 108/108/56 109/109/56 105/105/56
