# Blender v3.0.1 OBJ File: 'rockerfeller_plaza.blend'
# www.blender.org
o geometryt000010000010000110010110000110000110100100000000st66
v 342.153900 -260.376984 890.249390
v 342.457794 -260.540283 900.883484
v 342.153900 -260.376984 900.883484
v 340.693054 -259.591980 890.249390
v 342.457794 -260.540283 888.383484
v 340.693054 -259.591980 900.883484
v 337.952850 -258.119568 900.883484
v 337.952850 -258.119568 890.249390
v 336.188110 -257.171265 888.383484
v 336.492004 -257.334564 890.249390
v 336.492004 -257.334564 900.883484
v 336.188110 -257.171265 900.883484
v 336.351318 -256.867371 890.249390
v 336.188110 -257.171265 900.883484
v 336.351318 -256.867371 900.883484
v 337.920227 -253.945175 890.249390
v 336.188110 -257.171265 888.383484
v 337.920227 -253.945175 900.883484
v 338.243744 -253.342575 900.883484
v 338.243744 -253.342575 890.249390
v 339.028198 -251.881485 890.249390
v 339.028198 -251.881485 900.883484
v 339.351715 -251.278885 900.883484
v 339.351715 -251.278885 890.249390
v 340.136169 -249.817780 890.249390
v 340.136169 -249.817780 900.883484
v 340.459717 -249.215179 900.883484
v 340.459717 -249.215179 890.249390
v 341.244141 -247.754074 890.249390
v 341.244141 -247.754074 900.883484
v 341.567688 -247.151474 900.883484
v 341.567688 -247.151474 890.249390
v 342.352112 -245.690384 890.249390
v 342.352112 -245.690384 900.883484
v 342.675659 -245.087784 900.883484
v 342.675659 -245.087784 890.249390
v 343.460114 -243.626678 890.249390
v 349.947662 -231.543182 888.383484
v 343.460114 -243.626678 900.883484
v 343.783630 -243.024078 900.883484
v 343.783630 -243.024078 890.249390
v 344.568085 -241.562973 890.249390
v 344.568085 -241.562973 900.883484
v 344.891602 -240.960373 900.883484
v 344.891602 -240.960373 890.249390
v 345.676086 -239.499283 890.249390
v 345.676086 -239.499283 900.883484
v 345.999603 -238.896683 900.883484
v 345.999603 -238.896683 890.249390
v 346.784058 -237.435577 890.249390
v 346.784058 -237.435577 900.883484
v 347.107574 -236.832977 900.883484
v 347.107574 -236.832977 890.249390
v 347.892029 -235.371872 890.249390
v 347.892029 -235.371872 900.883484
v 348.215576 -234.769379 900.883484
v 348.215576 -234.769379 890.249390
v 349.784454 -231.847076 890.249390
v 349.784454 -231.847076 900.883484
v 349.947662 -231.543182 900.883484
v 356.056488 -235.217377 890.249390
v 356.219513 -234.913284 900.883484
v 356.056488 -235.217377 900.883484
v 354.489105 -238.140381 890.249390
v 356.219513 -234.913284 888.383484
v 354.489105 -238.140381 900.883484
v 354.165894 -238.743073 900.883484
v 354.165894 -238.743073 890.249390
v 353.614319 -239.771774 888.383484
v 353.382202 -240.204681 890.249390
v 353.382202 -240.204681 900.883484
v 353.058990 -240.807373 900.883484
v 353.058990 -240.807373 890.249390
v 352.275299 -242.268875 890.249390
v 352.275299 -242.268875 900.883484
v 351.952087 -242.871674 900.883484
v 351.952087 -242.871674 890.249390
v 351.168427 -244.333176 890.249390
v 351.168427 -244.333176 900.883484
v 350.845215 -244.935974 900.883484
v 350.845215 -244.935974 890.249390
v 350.061523 -246.397476 890.249390
v 350.061523 -246.397476 900.883484
v 349.738312 -247.000183 900.883484
v 349.738312 -247.000183 890.249390
v 348.954620 -248.461685 890.249390
v 348.954620 -248.461685 900.883484
v 348.631409 -249.064484 900.883484
v 348.631409 -249.064484 890.249390
v 347.847717 -250.525970 890.249390
v 347.847717 -250.525970 900.883484
v 347.524506 -251.128784 900.883484
v 347.524506 -251.128784 890.249390
v 342.473419 -260.548676 888.383484
v 346.740845 -252.590271 890.249390
v 346.740845 -252.590271 900.883484
v 346.417603 -253.192978 900.883484
v 346.417603 -253.192978 890.249390
v 345.633911 -254.654572 890.249390
v 345.633911 -254.654572 900.883484
v 345.310730 -255.257278 900.883484
v 345.310730 -255.257278 890.249390
v 344.527039 -256.718781 890.249390
v 344.527039 -256.718781 900.883484
v 344.203827 -257.321564 900.883484
v 344.203827 -257.321564 890.249390
v 342.636444 -260.244568 890.249390
v 342.636444 -260.244568 900.883484
v 342.473419 -260.548676 900.883484
v 350.251556 -231.706482 890.249390
v 349.947662 -231.543182 900.883484
v 350.251556 -231.706482 900.883484
v 351.712402 -232.491470 890.249390
v 349.947662 -231.543182 888.383484
v 351.712402 -232.491470 900.883484
v 354.452606 -233.963882 900.883484
v 354.452606 -233.963882 890.249390
v 355.913422 -234.748779 890.249390
v 356.217346 -234.912079 888.383484
v 355.913422 -234.748779 900.883484
v 356.217346 -234.912079 900.883484
vt 7.525010 2.073260
vt 7.908340 13.888890
vt 7.525010 13.888890
vt 5.682380 2.073260
vt 7.908340 0.000000
vt 5.682380 13.888890
vt 2.225970 13.888890
vt 2.225970 2.073260
vt 0.000000 0.000000
vt 0.383330 2.073260
vt 0.383330 13.888890
vt 0.000000 13.888890
vt 31.936939 2.073260
vt 32.320271 13.888890
vt 31.936939 13.888890
vt 28.251680 2.073260
vt 32.320271 0.000000
vt 28.251680 13.888890
vt 27.491739 13.888890
vt 27.491739 2.073260
vt 25.649111 2.073260
vt 25.649111 13.888890
vt 24.889170 13.888890
vt 24.889170 2.073260
vt 23.046539 2.073260
vt 23.046539 13.888890
vt 22.286600 13.888890
vt 22.286600 2.073260
vt 20.443960 2.073260
vt 20.443960 13.888890
vt 19.684019 13.888890
vt 19.684019 2.073260
vt 17.841391 2.073260
vt 17.841391 13.888890
vt 17.081450 13.888890
vt 17.081450 2.073260
vt 15.238820 2.073260
vt 0.000000 0.000000
vt 15.238820 13.888890
vt 14.478880 13.888890
vt 14.478880 2.073260
vt 12.636250 2.073260
vt 12.636250 13.888890
vt 11.876310 13.888890
vt 11.876310 2.073260
vt 10.033680 2.073260
vt 10.033680 13.888890
vt 9.273740 13.888890
vt 9.273740 2.073260
vt 7.431110 2.073260
vt 7.431110 13.888890
vt 6.671170 13.888890
vt 6.671170 2.073260
vt 4.828540 2.073260
vt 4.828540 13.888890
vt 4.068600 13.888890
vt 4.068600 2.073260
vt 0.383330 2.073260
vt 0.383330 13.888890
vt 0.000000 13.888890
vt 31.936939 2.073260
vt 32.320271 13.888890
vt 31.936939 13.888890
vt 28.251680 2.073260
vt 32.320271 0.000000
vt 27.491739 2.073260
vt 26.194830 0.000000
vt 25.649111 2.073260
vt 24.889170 2.073260
vt 23.046539 2.073260
vt 23.046539 13.888890
vt 22.286600 13.888890
vt 22.286600 2.073260
vt 20.443960 2.073260
vt 20.443960 13.888890
vt 19.684019 13.888890
vt 19.684019 2.073260
vt 17.841391 2.073260
vt 17.841391 13.888890
vt 17.081450 13.888890
vt 17.081450 2.073260
vt 15.238820 2.073260
vt 15.238820 13.888890
vt 14.478880 13.888890
vt 14.478880 2.073260
vt 12.636250 2.073260
vt 12.636250 13.888890
vt 11.876310 13.888890
vt 11.876310 2.073260
vt 0.000000 0.000000
vt 10.033680 2.073260
vt 10.033680 13.888890
vt 9.273740 13.888890
vt 9.273740 2.073260
vt 7.431110 2.073260
vt 7.431110 13.888890
vt 6.671170 13.888890
vt 6.671170 2.073260
vt 4.828540 2.073260
vt 4.828540 13.888890
vt 4.068600 13.888890
vt 4.068600 2.073260
vt 0.383330 2.073260
vt 0.383330 13.888890
vt 0.000000 13.888890
vt 7.524990 2.073260
vt 7.908320 13.888890
vt 7.524990 13.888890
vt 5.682350 2.073260
vt 7.908320 0.000000
vt 5.682350 13.888890
vt 2.225970 13.888890
vt 2.225970 2.073260
vt 0.383330 2.073260
vt 0.000000 0.000000
vt 0.383330 13.888890
vt 0.000000 13.888890
vt 28.251680 13.888890
vt 27.491739 13.888890
vt 25.649111 13.888890
vt 24.889170 13.888890
vn -0.4734 -0.8809 0.0000
vn -0.4733 -0.8809 0.0000
vn -0.8810 0.4731 0.0000
vn -0.8810 0.4730 0.0000
vn -0.8811 0.4730 0.0000
vn -0.8812 0.4728 0.0000
vn -0.8810 0.4731 0.0001
vn -0.8808 0.4734 0.0000
vn -0.8811 0.4730 0.0002
vn -0.8808 0.4734 -0.0002
vn -0.8810 0.4730 0.0002
vn -0.8810 0.4731 -0.0001
vn -0.8810 0.4732 -0.0001
vn -0.8810 0.4731 0.0002
vn -0.8810 0.4732 0.0000
vn 0.8813 -0.4725 0.0000
vn 0.8813 -0.4726 -0.0000
vn 0.8812 -0.4727 0.0000
vn 0.8814 -0.4724 0.0001
vn 0.8812 -0.4728 -0.0002
vn 0.8814 -0.4724 0.0000
vn 0.8810 -0.4731 0.0000
vn 0.8814 -0.4724 -0.0001
vn 0.8810 -0.4731 -0.0002
vn 0.8813 -0.4725 0.0004
vn 0.8812 -0.4727 -0.0001
vn 0.4733 0.8809 0.0000
vn 0.4734 0.8809 0.0000
s off
f 1/1/1 2/2/1 3/3/1
f 4/4/1 5/5/1 1/1/1
f 2/2/2 1/1/2 5/5/2
f 6/6/2 7/7/2 4/4/2
f 7/7/2 8/8/2 4/4/2
f 8/8/1 9/9/1 4/4/1
f 9/9/2 5/5/2 4/4/2
f 10/10/1 9/9/1 8/8/1
f 11/11/1 12/12/1 10/10/1
f 12/12/1 9/9/1 10/10/1
f 13/13/3 14/14/3 15/15/3
f 16/16/4 17/17/4 13/13/4
f 14/14/3 13/13/3 17/17/3
f 18/18/5 19/19/5 16/16/5
f 19/19/4 20/20/4 16/16/4
f 20/20/4 17/17/4 16/16/4
f 20/20/6 21/21/6 17/17/6
f 22/22/5 23/23/5 21/21/5
f 23/23/4 24/24/4 21/21/4
f 21/21/7 24/24/7 17/17/7
f 24/24/5 25/25/5 17/17/5
f 26/26/3 27/27/3 25/25/3
f 27/27/4 28/28/4 25/25/4
f 25/25/3 28/28/3 17/17/3
f 28/28/5 29/29/5 17/17/5
f 30/30/3 31/31/3 29/29/3
f 31/31/4 32/32/4 29/29/4
f 29/29/8 32/32/8 17/17/8
f 32/32/9 33/33/9 17/17/9
f 34/34/5 35/35/5 33/33/5
f 35/35/4 36/36/4 33/33/4
f 33/33/8 36/36/8 17/17/8
f 37/37/4 38/38/4 36/36/4
f 36/36/5 38/38/5 17/17/5
f 39/39/5 40/40/5 37/37/5
f 40/40/4 41/41/4 37/37/4
f 41/41/10 38/38/10 37/37/10
f 42/42/5 38/38/5 41/41/5
f 43/43/3 44/44/3 42/42/3
f 44/44/5 45/45/5 42/42/5
f 45/45/10 38/38/10 42/42/10
f 46/46/11 38/38/11 45/45/11
f 47/47/5 48/48/5 46/46/5
f 48/48/4 49/49/4 46/46/4
f 49/49/12 38/38/12 46/46/12
f 50/50/5 38/38/5 49/49/5
f 51/51/5 52/52/5 50/50/5
f 52/52/4 53/53/4 50/50/4
f 53/53/13 38/38/13 50/50/13
f 54/54/5 38/38/5 53/53/5
f 55/55/3 56/56/3 54/54/3
f 56/56/3 57/57/3 54/54/3
f 57/57/14 38/38/14 54/54/14
f 58/58/5 38/38/5 57/57/5
f 59/59/3 60/60/3 58/58/3
f 60/60/15 38/38/15 58/58/15
f 61/61/16 62/62/16 63/63/16
f 64/64/17 65/65/17 61/61/17
f 62/62/17 61/61/17 65/65/17
f 68/66/17 69/67/17 64/64/17
f 64/64/17 69/67/17 65/65/17
f 68/66/16 70/68/16 69/67/16
f 70/68/17 73/69/17 69/67/17
f 73/69/17 74/70/17 69/67/17
f 75/71/16 76/72/16 74/70/16
f 76/72/17 77/73/17 74/70/17
f 74/70/18 77/73/18 69/67/18
f 77/73/17 78/74/17 69/67/17
f 79/75/16 80/76/16 78/74/16
f 80/76/17 81/77/17 78/74/17
f 78/74/19 81/77/19 69/67/19
f 81/77/16 82/78/16 69/67/16
f 83/79/17 84/80/17 82/78/17
f 84/80/17 85/81/17 82/78/17
f 82/78/20 85/81/20 69/67/20
f 85/81/21 86/82/21 69/67/21
f 87/83/16 88/84/16 86/82/16
f 88/84/17 89/85/17 86/82/17
f 86/82/22 89/85/22 69/67/22
f 89/85/23 90/86/23 69/67/23
f 91/87/17 92/88/17 90/86/17
f 92/88/16 93/89/16 90/86/16
f 93/89/24 94/90/24 90/86/24
f 90/86/17 94/90/17 69/67/17
f 95/91/17 94/90/17 93/89/17
f 96/92/17 97/93/17 95/91/17
f 97/93/17 98/94/17 95/91/17
f 98/94/25 94/90/25 95/91/25
f 99/95/16 94/90/16 98/94/16
f 100/96/17 101/97/17 99/95/17
f 101/97/16 102/98/16 99/95/16
f 102/98/26 94/90/26 99/95/26
f 103/99/16 94/90/16 102/98/16
f 104/100/16 105/101/16 103/99/16
f 105/101/16 106/102/16 103/99/16
f 106/102/16 94/90/16 103/99/16
f 107/103/17 94/90/17 106/102/17
f 108/104/21 109/105/21 107/103/21
f 109/105/21 94/90/21 107/103/21
f 110/106/27 111/107/27 112/108/27
f 113/109/28 114/110/28 110/106/28
f 111/107/27 110/106/27 114/110/27
f 115/111/27 116/112/27 113/109/27
f 116/112/27 117/113/27 113/109/27
f 117/113/27 114/110/27 113/109/27
f 118/114/27 119/115/27 117/113/27
f 117/113/27 119/115/27 114/110/27
f 120/116/28 121/117/28 118/114/28
f 121/117/27 119/115/27 118/114/27
s 1
f 66/118/17 67/119/17 64/64/18
f 67/119/17 68/66/18 64/64/18
f 71/120/17 72/121/17 70/68/17
f 72/121/17 73/69/17 70/68/17
