# Blender v3.0.1 OBJ File: 'rockerfeller_plaza.blend'
# www.blender.org
o geometryt000010000010000110010110000110000110100000100100st9
v 357.640015 -230.452927 611.841492
v 356.796204 -232.014618 611.841492
v 356.796204 -232.014618 627.012573
v 357.640015 -230.452927 627.012573
v 356.133209 -233.967224 627.012573
v 356.133209 -233.967224 611.841492
v 360.819794 -236.496124 611.841492
v 360.819794 -236.496124 627.012573
v 362.420197 -237.359619 627.012573
v 362.420197 -237.359619 611.841492
v 363.982391 -238.202621 611.841492
v 363.982391 -238.202621 627.012573
v 365.582886 -239.066116 627.012573
v 365.582886 -239.066116 611.841492
v 367.144989 -239.909119 611.841492
v 367.144989 -239.909119 627.012573
v 368.745483 -240.772720 611.841492
v 370.307709 -241.615631 611.841492
v 370.307709 -241.615631 627.012573
v 368.745483 -240.772720 627.012573
v 371.908081 -242.479218 627.012573
v 371.908081 -242.479218 611.841492
v 376.594604 -245.008026 611.841492
v 376.594604 -245.008026 627.012573
v 363.597198 -231.356018 611.841492
v 358.910187 -228.827927 611.841492
v 358.910187 -228.827927 627.012573
v 363.597198 -231.356018 627.012573
v 366.760010 -233.062119 611.841492
v 365.197693 -232.219421 611.841492
v 365.197693 -232.219421 627.012573
v 366.760010 -233.062119 627.012573
v 369.099792 -234.324127 627.012573
v 369.922913 -234.768127 611.841492
v 368.360596 -233.925430 611.841492
v 369.922913 -234.768127 627.012573
v 368.360596 -233.925430 627.012573
v 373.085815 -236.474228 611.841492
v 371.523499 -235.631424 611.841492
v 371.523499 -235.631424 627.012573
v 373.085815 -236.474228 627.012573
v 379.373291 -239.865631 611.841492
v 374.686279 -237.337524 611.841492
v 374.686279 -237.337524 627.012573
v 379.373291 -239.865631 627.012573
v 377.864807 -243.383118 627.012573
v 377.864807 -243.383118 611.841492
v 378.708679 -241.821426 611.841492
v 378.708679 -241.821426 627.012573
vt 0.000000 0.000000
vt 0.333330 0.000000
vt 0.333330 4.000000
vt 0.000000 4.000000
vt 0.000000 4.000000
vt 0.000000 0.000000
vt 1.000000 0.000000
vt 1.000000 4.000000
vt 0.000000 4.000000
vt 0.000000 0.000000
vt 0.333330 0.000000
vt 0.333330 4.000000
vt 0.000000 4.000000
vt 0.000000 0.000000
vt 0.333330 0.000000
vt 0.333330 4.000000
vt 0.000000 0.000000
vt 0.333330 0.000000
vt 0.333330 4.000000
vt 0.000000 4.000000
vt 0.000000 4.000000
vt 0.000000 0.000000
vt 1.000000 0.000000
vt 1.000000 4.000000
vt 0.000000 0.000000
vt 1.000000 0.000000
vt 1.000000 4.000000
vt 0.000000 4.000000
vt 0.000000 0.000000
vt 0.333330 0.000000
vt 0.333330 4.000000
vt 0.000000 4.000000
vt 0.175620 4.000000
vt 0.000000 0.000000
vt 0.333330 0.000000
vt 0.000000 4.000000
vt 0.333330 4.000000
vt 0.000000 0.000000
vt 0.333330 0.000000
vt 0.333330 4.000000
vt 0.000000 4.000000
vt 0.000000 0.000000
vt 1.000000 0.000000
vt 1.000000 4.000000
vt 0.000000 4.000000
vt 0.000000 4.000000
vt 0.000000 0.000000
vt 0.333330 0.000000
vt 0.333330 4.000000
vn -0.8798 0.4754 0.0000
vn -0.8798 0.4753 0.0000
vn -0.4749 -0.8801 0.0000
vn -0.4749 -0.8800 0.0000
vn -0.4748 -0.8801 0.0000
vn 0.4747 0.8801 0.0000
vn 0.4748 0.8801 0.0000
vn 0.8798 -0.4754 0.0000
s off
f 1/1/1 2/2/1 3/3/1
f 4/4/2 1/1/2 3/3/2
f 5/5/3 6/6/3 7/7/3
f 5/5/4 7/7/4 8/8/4
f 9/9/4 10/10/4 11/11/4
f 9/9/4 11/11/4 12/12/4
f 13/13/4 14/14/4 15/15/4
f 13/13/4 15/15/4 16/16/4
f 17/17/3 18/18/3 19/19/3
f 20/20/5 17/17/5 19/19/5
f 21/21/3 22/22/3 23/23/3
f 21/21/3 23/23/3 24/24/3
f 25/25/6 26/26/6 27/27/6
f 28/28/6 25/25/6 27/27/6
f 29/29/6 30/30/6 31/31/6
f 32/32/6 29/29/6 31/31/6
f 33/33/6 34/34/6 35/35/6
f 36/36/6 34/34/6 33/33/6
f 33/33/6 35/35/6 37/37/6
f 38/38/7 39/39/7 40/40/7
f 41/41/7 38/38/7 40/40/7
f 42/42/6 43/43/6 44/44/6
f 45/45/6 42/42/6 44/44/6
f 46/46/8 47/47/8 48/48/8
f 46/46/8 48/48/8 49/49/8
