# Blender v3.0.1 OBJ File: 'rockerfeller_plaza.blend'
# www.blender.org
o geometryt000010000010000110010110000110000110100000100110st124
v 613.808350 -236.149109 657.944885
v 614.691406 -236.623001 735.432007
v 613.808350 -236.149109 735.432007
v 607.988647 -233.026215 657.331970
v 608.871704 -233.500107 657.944885
v 614.691406 -236.623001 657.331970
v 608.871704 -233.500107 735.432007
v 607.988647 -233.026215 735.432007
v 608.204834 -232.623901 657.944885
v 607.988647 -233.026215 735.432007
v 608.204834 -232.623901 735.432007
v 612.846130 -223.987915 657.944885
v 607.988647 -233.026215 657.331970
v 612.846130 -223.987915 735.432007
v 613.062317 -223.585709 735.432007
v 613.062317 -223.585709 657.331970
v 635.283447 -254.633911 657.944885
v 635.586670 -254.798401 735.432007
v 635.283447 -254.633911 735.432007
v 632.821411 -253.297607 657.944885
v 635.586670 -254.798401 657.331970
v 632.821411 -253.297607 735.432007
v 632.455444 -253.098816 735.432007
v 632.455444 -253.098816 657.944885
v 627.531555 -250.426208 657.944885
v 627.531555 -250.426208 735.432007
v 627.165405 -250.227509 735.432007
v 627.165405 -250.227509 657.944885
v 624.703552 -248.891205 657.944885
v 624.703552 -248.891205 735.432007
v 624.337402 -248.692505 735.432007
v 624.337402 -248.692505 657.944885
v 623.106506 -248.024414 657.944885
v 623.106506 -248.024414 735.432007
v 622.740417 -247.825714 735.432007
v 622.740417 -247.825714 657.944885
v 611.857300 -241.918411 657.331970
v 620.278564 -246.489410 657.944885
v 620.278564 -246.489410 735.432007
v 619.912415 -246.290604 735.432007
v 619.912415 -246.290604 657.944885
v 614.988647 -243.618011 657.944885
v 614.988647 -243.618011 735.432007
v 614.622559 -243.419312 735.432007
v 614.622559 -243.419312 657.944885
v 612.160645 -242.083008 657.944885
v 612.160645 -242.083008 735.432007
v 611.857300 -241.918411 735.432007
v 612.283020 -241.123001 657.944885
v 611.857300 -241.918411 735.432007
v 612.283020 -241.123001 735.432007
v 614.265747 -237.418411 657.944885
v 611.857300 -241.918411 657.331970
v 614.265747 -237.418411 735.432007
v 614.691406 -236.623001 735.432007
v 614.691406 -236.623001 657.331970
v 613.366211 -223.748901 657.944885
v 613.062317 -223.585709 735.432007
v 613.366211 -223.748901 735.432007
v 615.834106 -225.074203 657.944885
v 613.062317 -223.585709 657.331970
v 615.834106 -225.074203 735.432007
v 615.949707 -225.136215 735.432007
v 615.949707 -225.136215 657.944885
v 620.885437 -227.786713 657.944885
v 620.885437 -227.786713 735.432007
v 621.001038 -227.848816 735.432007
v 621.001038 -227.848816 657.944885
v 623.468933 -229.174011 657.944885
v 623.468933 -229.174011 735.432007
v 623.584412 -229.236115 735.432007
v 623.584412 -229.236115 657.944885
v 624.818420 -229.898712 657.944885
v 624.818420 -229.898712 735.432007
v 624.933960 -229.960815 735.432007
v 624.933960 -229.960815 657.944885
v 627.401855 -231.286011 657.944885
v 627.401855 -231.286011 735.432007
v 627.517456 -231.348114 735.432007
v 627.517456 -231.348114 657.944885
v 628.751343 -232.010712 657.944885
v 628.751343 -232.010712 735.432007
v 628.866943 -232.072708 735.432007
v 628.866943 -232.072708 657.944885
v 630.100830 -232.735413 657.944885
v 645.905396 -241.222412 657.331970
v 630.100830 -232.735413 735.432007
v 630.216431 -232.797409 735.432007
v 630.216431 -232.797409 657.944885
v 631.450317 -233.460007 657.944885
v 631.450317 -233.460007 735.432007
v 631.565918 -233.522110 735.432007
v 631.565918 -233.522110 657.944885
v 634.033813 -234.847305 657.944885
v 634.033813 -234.847305 735.432007
v 634.149353 -234.909409 735.432007
v 634.149353 -234.909409 657.944885
v 635.383301 -235.572006 657.944885
v 635.383301 -235.572006 735.432007
v 635.498840 -235.634109 735.432007
v 635.498840 -235.634109 657.944885
v 637.966736 -236.959305 657.944885
v 637.966736 -236.959305 735.432007
v 638.082336 -237.021408 735.432007
v 638.082336 -237.021408 657.944885
v 643.018066 -239.671906 657.944885
v 643.018066 -239.671906 735.432007
v 643.133667 -239.733902 735.432007
v 643.133667 -239.733902 657.944885
v 645.601562 -241.059204 657.944885
v 645.601562 -241.059204 735.432007
v 645.905396 -241.222412 735.432007
v 637.581909 -255.817001 657.944885
v 638.329712 -256.198700 735.432007
v 637.581909 -255.817001 735.432007
v 636.334412 -255.180206 657.944885
v 638.329712 -256.198700 657.331970
v 636.334412 -255.180206 735.432007
v 635.586670 -254.798401 735.432007
v 635.586670 -254.798401 657.331970
v 645.977112 -242.035309 657.944885
v 646.304626 -241.428711 735.432007
v 645.977112 -242.035309 735.432007
v 638.329712 -256.198700 657.331970
v 638.657349 -255.592010 657.944885
v 646.304626 -241.428711 657.331970
v 638.657349 -255.592010 735.432007
v 638.329712 -256.198700 735.432007
v 646.304626 -241.428711 657.331970
v 645.905396 -241.222412 657.331970
v 645.905396 -241.222412 735.432007
v 646.304626 -241.428711 735.432007
vt 7.155630 0.664050
vt 8.241500 84.615379
vt 7.155630 84.615379
vt 0.000000 0.000000
vt 1.085870 0.664050
vt 8.241500 0.000000
vt 1.085870 84.615379
vt 0.000000 84.615379
vt 11.116830 0.664050
vt 11.611570 84.615379
vt 11.116830 84.615379
vt 0.494740 0.664050
vt 11.611570 0.000000
vt 0.494740 84.615379
vt 0.000000 84.615379
vt 0.000000 0.000000
vt 25.391890 0.664050
vt 19.322121 0.664050
vt 29.251850 0.000000
vt 13.867200 0.664050
vt 0.000000 0.000000
vt 10.381020 0.664050
vt 13.415910 0.664050
vt 3.408660 0.664050
vt 3.859960 0.664050
vt 0.373780 0.664050
vt 0.000000 84.615379
vt 5.529760 0.664050
vt 6.507200 84.615379
vt 5.529760 84.615379
vt 0.977440 0.664050
vt 6.507200 0.000000
vt 0.977440 84.615379
vt 0.000000 84.615379
vt 0.000000 0.000000
vt 40.015160 0.664050
vt 40.388939 84.615379
vt 40.015160 84.615379
vt 36.980270 0.664050
vt 40.388939 0.000000
vt 36.980270 84.615379
vt 36.838161 84.615379
vt 36.838161 0.664050
vt 30.768391 0.664050
vt 30.768391 84.615379
vt 30.626280 84.615379
vt 30.626280 0.664050
vt 27.591400 0.664050
vt 22.754850 84.615379
vt 22.612740 84.615379
vt 22.754850 0.664050
vt 22.612740 0.664050
vt 21.095301 0.664050
vt 20.953190 0.664050
vt 0.000000 0.000000
vt 17.776199 0.664050
vt 19.293640 0.664050
vt 17.776199 84.615379
vt 17.634081 84.615379
vt 17.634081 0.664050
vt 9.762650 0.664050
vt 12.797540 0.664050
vt 9.762650 84.615379
vt 9.620540 84.615379
vt 9.620540 0.664050
vt 3.550780 0.664050
vt 0.373780 0.664050
vt 3.408660 0.664050
vt 0.373780 84.615379
vt 0.000000 84.615379
vt 2.427130 0.664050
vt 3.336820 84.615379
vt 2.427130 84.615379
vt 0.909690 0.664050
vt 3.336820 0.000000
vt 0.909690 84.615379
vt 0.000000 84.615379
vt 0.000000 0.000000
vt 17.438810 0.664050
vt 18.185770 84.615379
vt 17.438810 84.615379
vt 0.000000 0.000000
vt 18.185770 0.000000
vt 0.746950 84.615379
vt 0.000000 84.615379
vt 0.746950 0.664050
vt 0.000000 0.000000
vt 0.486830 0.000000
vt 0.486830 84.615379
vt 0.000000 84.615379
vt 28.878071 0.664050
vt 29.251850 84.615379
vt 28.878071 84.615379
vt 25.843180 0.664050
vt 25.843180 84.615379
vt 25.391890 84.615379
vt 19.322121 84.615379
vt 18.870819 84.615379
vt 18.870819 0.664050
vt 15.835940 0.664050
vt 15.835940 84.615379
vt 15.384650 84.615379
vt 15.384650 0.664050
vt 13.867200 84.615379
vt 13.415910 84.615379
vt 10.381020 84.615379
vt 9.929731 84.615379
vt 9.929731 0.664050
vt 3.859960 84.615379
vt 3.408660 84.615379
vt 0.373780 84.615379
vt 27.591400 84.615379
vt 27.449289 84.615379
vt 27.449289 0.664050
vt 25.931850 0.664050
vt 25.931850 84.615379
vt 25.789740 84.615379
vt 25.789740 0.664050
vt 21.095301 84.615379
vt 20.953190 84.615379
vt 19.435749 0.664050
vt 19.435749 84.615379
vt 19.293640 84.615379
vt 14.599200 0.664050
vt 14.599200 84.615379
vt 14.457090 84.615379
vt 14.457090 0.664050
vt 12.939650 0.664050
vt 12.939650 84.615379
vt 12.797540 84.615379
vt 3.550780 84.615379
vt 3.408660 84.615379
vn -0.4729 -0.8811 0.0000
vn -0.4728 -0.8812 -0.0001
vn -0.4729 -0.8811 0.0001
vn -0.4728 -0.8811 0.0000
vn -0.8809 0.4733 0.0000
vn -0.8808 0.4734 -0.0000
vn -0.8811 0.4729 0.0000
vn -0.4770 -0.8789 -0.0001
vn -0.4771 -0.8789 -0.0002
vn -0.4770 -0.8789 0.0000
vn -0.4771 -0.8789 0.0008
vn -0.4770 -0.8789 0.0001
vn -0.8817 0.4718 0.0000
vn -0.8817 0.4719 -0.0000
vn -0.8816 0.4720 0.0000
vn -0.8817 0.4718 0.0001
vn 0.4731 0.8810 0.0000
vn 0.4730 0.8811 0.0000
vn 0.4733 0.8809 0.0000
vn 0.4731 0.8810 -0.0001
vn 0.4734 0.8808 0.0000
vn 0.4732 0.8809 0.0001
vn 0.4724 0.8814 0.0000
vn 0.4723 0.8814 0.0006
vn 0.4732 0.8809 0.0002
vn -0.4546 -0.8907 0.0000
vn -0.4547 -0.8906 0.0000
vn -0.4543 -0.8908 -0.0000
vn -0.4548 -0.8906 0.0000
vn -0.4546 -0.8907 -0.0001
vn 0.8799 -0.4752 0.0000
vn 0.8799 -0.4751 -0.0000
vn 0.8800 -0.4750 0.0000
vn 0.4591 0.8884 0.0000
vn -0.8808 0.4734 -0.0001
vn -0.4769 -0.8789 -0.0001
vn -0.4772 -0.8788 0.0000
vn -0.4768 -0.8790 -0.0000
vn -0.4774 -0.8787 0.0000
vn -0.4769 -0.8790 0.0001
vn -0.4775 -0.8786 0.0013
vn -0.4770 -0.8789 -0.0002
vn -0.4772 -0.8788 0.0002
vn -0.4765 -0.8792 -0.0000
vn -0.4774 -0.8787 -0.0001
vn -0.4776 -0.8786 0.0001
vn -0.4771 -0.8789 -0.0001
vn -0.4776 -0.8786 -0.0006
vn -0.4779 -0.8784 -0.0010
vn -0.4767 -0.8791 -0.0000
vn -0.4771 -0.8788 0.0000
vn -0.4773 -0.8788 0.0001
vn -0.4775 -0.8786 0.0006
vn -0.4769 -0.8790 0.0000
vn 0.4728 0.8812 -0.0012
vn 0.4734 0.8808 0.0031
vn 0.4732 0.8809 -0.0000
vn 0.4733 0.8809 -0.0050
vn 0.4731 0.8810 0.0001
vn 0.4730 0.8811 -0.0004
vn 0.4731 0.8810 0.0040
vn 0.4728 0.8811 -0.0000
vn 0.4728 0.8812 -0.0015
vn 0.4728 0.8812 0.0000
vn 0.4739 0.8806 0.0020
vn 0.4743 0.8804 0.0030
vn 0.4732 0.8809 0.0023
vn 0.4732 0.8810 0.0000
vn 0.4729 0.8811 0.0000
vn 0.4738 0.8806 0.0040
vn 0.4737 0.8807 -0.0060
vn 0.4730 0.8811 -0.0002
vn 0.4737 0.8807 -0.0061
vn 0.4730 0.8811 -0.0003
vn 0.4733 0.8809 -0.0010
vn 0.4730 0.8811 -0.0001
vn 0.4729 0.8811 -0.0030
vn 0.4728 0.8812 0.0045
vn 0.4737 0.8807 0.0000
vn 0.4739 0.8806 -0.0000
vn 0.8799 -0.4751 -0.0001
s off
f 1/1/1 2/2/1 3/3/1
f 4/4/2 1/1/2 5/5/2
f 4/4/3 6/6/3 1/1/3
f 2/2/4 1/1/4 6/6/4
f 7/7/1 8/8/1 5/5/1
f 8/8/1 4/4/1 5/5/1
f 9/9/5 10/10/5 11/11/5
f 12/12/6 13/13/6 9/9/6
f 10/10/5 9/9/5 13/13/5
f 14/14/6 15/15/6 12/12/6
f 15/15/7 16/16/7 12/12/7
f 24/17/8 25/18/8 21/19/8
f 33/20/9 37/21/9 21/19/9
f 38/22/10 37/21/10 36/23/10
f 45/24/11 37/21/11 42/25/11
f 46/26/12 37/21/12 45/24/12
f 48/27/10 37/21/10 46/26/10
f 49/28/13 50/29/13 51/30/13
f 52/31/14 53/32/14 49/28/14
f 50/29/15 49/28/15 53/32/15
f 54/33/13 55/34/13 52/31/13
f 55/34/14 56/35/14 52/31/14
f 56/35/16 53/32/16 52/31/16
f 57/36/17 58/37/17 59/38/17
f 60/39/17 61/40/17 57/36/17
f 58/37/17 57/36/17 61/40/17
f 62/41/18 63/42/18 60/39/18
f 63/42/19 64/43/19 60/39/19
f 64/43/20 65/44/20 61/40/20
f 66/45/17 67/46/17 65/44/17
f 67/46/21 68/47/21 65/44/21
f 68/47/22 69/48/22 61/40/22
f 78/49/17 79/50/17 77/51/17
f 79/50/21 80/52/21 77/51/21
f 80/52/23 81/53/23 61/40/23
f 84/54/20 86/55/20 61/40/20
f 90/56/24 86/55/24 89/57/24
f 91/58/17 92/59/17 90/56/17
f 92/59/17 93/60/17 90/56/17
f 102/61/25 86/55/25 101/62/25
f 103/63/21 104/64/21 102/61/21
f 104/64/17 105/65/17 102/61/17
f 106/66/20 86/55/20 105/65/20
f 110/67/20 86/55/20 109/68/20
f 111/69/19 112/70/19 110/67/19
f 113/71/26 114/72/26 115/73/26
f 116/74/27 117/75/27 113/71/27
f 114/72/26 113/71/26 117/75/26
f 118/76/28 119/77/28 116/74/28
f 119/77/29 120/78/29 116/74/29
f 120/78/30 117/75/30 116/74/30
f 121/79/31 122/80/31 123/81/31
f 124/82/32 126/83/32 121/79/32
f 122/80/33 121/79/33 126/83/33
f 127/84/32 128/85/32 125/86/32
f 128/85/31 124/82/31 125/86/31
f 129/87/34 130/88/34 131/89/34
f 129/87/34 131/89/34 132/90/34
s 1
f 16/16/35 13/13/35 12/12/35
f 17/91/36 18/92/37 19/93/37
f 20/94/38 21/19/8 17/91/36
f 18/92/37 17/91/36 21/19/8
f 22/95/38 23/96/39 20/94/38
f 23/96/39 24/17/40 20/94/38
f 24/17/40 21/19/8 20/94/38
f 26/97/10 27/98/10 25/18/41
f 27/98/10 28/99/42 25/18/41
f 25/18/41 28/99/42 21/19/43
f 28/99/42 29/100/44 21/19/43
f 30/101/10 31/102/10 29/100/44
f 31/102/10 32/103/45 29/100/44
f 29/100/44 32/103/45 21/19/43
f 32/103/45 33/20/46 21/19/43
f 34/104/10 35/105/10 33/20/47
f 35/105/10 36/23/48 33/20/47
f 36/23/48 37/21/49 33/20/47
f 39/106/50 40/107/51 38/22/52
f 40/107/51 41/108/53 38/22/52
f 41/108/53 37/21/42 38/22/52
f 42/25/10 37/21/42 41/108/53
f 43/109/10 44/110/10 42/25/10
f 44/110/10 45/24/10 42/25/10
f 47/111/54 48/27/54 46/26/54
f 64/43/55 61/40/55 60/39/55
f 65/44/56 68/47/56 61/40/56
f 70/112/57 71/113/57 69/48/58
f 71/113/57 72/114/59 69/48/58
f 69/48/58 72/114/59 61/40/60
f 72/114/59 73/115/61 61/40/60
f 74/116/62 75/117/18 73/115/61
f 75/117/18 76/118/18 73/115/61
f 73/115/61 76/118/18 61/40/60
f 76/118/18 77/51/63 61/40/60
f 77/51/63 80/52/63 61/40/60
f 82/119/64 83/120/17 81/53/65
f 83/120/17 84/54/19 81/53/65
f 81/53/65 84/54/19 61/40/66
f 85/121/19 86/55/67 84/54/68
f 87/122/69 88/123/69 85/121/19
f 88/123/69 89/57/70 85/121/19
f 89/57/70 86/55/67 85/121/19
f 93/60/71 86/55/72 90/56/73
f 94/124/74 86/55/72 93/60/71
f 95/125/57 96/126/68 94/124/74
f 96/126/68 97/127/75 94/124/74
f 97/127/75 86/55/72 94/124/74
f 98/128/76 86/55/72 97/127/75
f 99/129/68 100/130/19 98/128/76
f 100/130/19 101/62/77 98/128/76
f 101/62/77 86/55/72 98/128/76
f 105/65/78 86/55/78 102/61/78
f 107/131/69 108/132/69 106/66/20
f 108/132/69 109/68/79 106/66/20
f 109/68/79 86/55/80 106/66/20
f 112/70/57 86/55/57 110/67/57
f 124/82/81 121/79/81 125/86/81
