# Blender v3.0.1 OBJ File: 'rockerfeller_plaza.blend'
# www.blender.org
o geometryt000010000010000110010110000110000110100100010010st83
v 1175.482300 -69.128960 1013.357910
v 1167.744019 -83.446693 1013.357910
v 1167.744019 -83.446693 1041.659790
v 1175.482300 -69.128960 1041.659790
v 1168.002319 -84.095680 1013.357910
v 1179.014160 -90.051689 1013.357910
v 1179.014160 -90.051689 1041.659790
v 1168.002319 -84.095680 1041.659790
v 1174.223267 -67.936584 1013.357910
v 1175.323730 -68.533371 1013.357910
v 1175.323730 -68.533371 1041.659790
v 1174.223267 -67.936584 1041.659790
v 1174.556274 -66.419220 1041.659790
v 1174.556274 -66.419220 1013.357910
v 1174.014526 -67.430931 1013.357910
v 1174.014526 -67.430931 1041.659790
v 1176.927368 -60.807758 1013.357910
v 1174.548828 -65.214584 1013.357910
v 1174.548828 -65.214584 1041.659790
v 1176.927368 -60.807758 1041.659790
v 1177.353027 -83.204521 1013.357910
v 1182.711548 -73.292862 1013.357910
v 1182.711548 -73.292862 1041.659790
v 1177.353027 -83.204521 1041.659790
v 1181.098877 -85.749092 1013.357910
v 1177.795166 -83.962593 1013.357910
v 1177.795166 -83.962593 1041.659790
v 1181.098877 -85.749092 1041.659790
v 1190.057129 -67.093971 1041.659790
v 1190.057129 -67.093971 1013.357910
v 1177.942993 -60.544476 1013.357910
v 1177.942993 -60.544476 1041.659790
v 1180.310059 -88.775932 1041.659790
v 1180.310059 -88.775932 1013.357910
v 1181.503540 -86.574814 1013.357910
v 1181.503540 -86.574814 1041.659790
v 1183.712524 -73.313492 1013.357910
v 1185.916992 -74.500893 1013.357910
v 1185.916992 -74.500893 1041.659790
v 1183.712524 -73.313492 1041.659790
v 1186.931885 -74.495720 1041.659790
v 1186.931885 -74.495720 1013.357910
v 1190.502563 -67.887054 1013.357910
v 1190.502563 -67.887054 1041.659790
vt 0.000000 0.000000
vt 3.250000 0.000000
vt 3.250000 4.000000
vt 0.000000 4.000000
vt 0.000000 0.000000
vt 2.500000 0.000000
vt 2.500000 4.000000
vt 0.000000 4.000000
vt 0.000000 0.000000
vt 0.250000 0.000000
vt 0.250000 4.000000
vt 0.000000 4.000000
vt 0.000000 4.000000
vt 0.000000 0.000000
vt 0.250000 0.000000
vt 0.250000 4.000000
vt 0.000000 0.000000
vt 1.000000 0.000000
vt 1.000000 4.000000
vt 0.000000 4.000000
vt 0.000000 0.000000
vt 2.250000 0.000000
vt 2.250000 4.000000
vt 0.000000 4.000000
vt 0.000000 0.000000
vt 0.750000 0.000000
vt 0.750000 4.000000
vt 0.000000 4.000000
vt 0.000000 4.000000
vt 0.000000 0.000000
vt 2.750000 0.000000
vt 2.750000 4.000000
vt 0.000000 4.000000
vt 0.000000 0.000000
vt 0.500000 0.000000
vt 0.500000 4.000000
vt 0.000000 0.000000
vt 0.500000 0.000000
vt 0.500000 4.000000
vt 0.000000 4.000000
vt 0.000000 4.000000
vt 0.000000 0.000000
vt 1.500000 0.000000
vt 1.500000 4.000000
vn -0.8797 0.4755 0.0000
vn -0.4758 -0.8796 0.0000
vn -0.4757 -0.8796 0.0000
vn -0.4767 -0.8791 0.0000
vn -0.4768 -0.8790 0.0000
vn -0.8815 0.4721 0.0000
vn -0.8800 0.4749 0.0000
vn -0.8800 0.4750 0.0000
vn 0.8797 -0.4756 0.0000
vn 0.4757 0.8796 0.0000
vn 0.4756 0.8796 0.0000
vn 0.4756 0.8797 0.0000
vn 0.8791 -0.4766 0.0000
vn 0.8791 -0.4767 0.0000
vn -0.4742 -0.8804 0.0000
vn 0.8798 -0.4754 0.0000
vn 0.8798 -0.4753 0.0000
s off
f 1/1/1 2/2/1 3/3/1
f 4/4/1 1/1/1 3/3/1
f 5/5/2 6/6/2 7/7/2
f 8/8/3 5/5/3 7/7/3
f 9/9/4 10/10/4 11/11/4
f 12/12/5 9/9/5 11/11/5
f 13/13/6 14/14/6 15/15/6
f 13/13/6 15/15/6 16/16/6
f 17/17/7 18/18/7 19/19/7
f 20/20/8 17/17/8 19/19/8
f 21/21/9 22/22/9 23/23/9
f 24/24/9 21/21/9 23/23/9
f 25/25/10 26/26/10 27/27/10
f 28/28/11 25/25/11 27/27/11
f 29/29/12 30/30/12 31/31/12
f 29/29/12 31/31/12 32/32/12
f 33/33/13 34/34/13 35/35/13
f 33/33/14 35/35/14 36/36/14
f 37/37/15 38/38/15 39/39/15
f 40/40/15 37/37/15 39/39/15
f 41/41/16 42/42/16 43/43/16
f 41/41/17 43/43/17 44/44/17
