# Blender v3.0.1 OBJ File: 'rockerfeller_plaza.blend'
# www.blender.org
o geometryt000010000010000110010110000110000100110110010010st8
v 143.288651 -127.497482 898.022705
v 143.288651 -127.497482 844.770691
v 129.673935 -153.017593 844.770691
v 129.673935 -153.017593 898.022705
v 129.890747 -153.833099 898.022705
v 129.890747 -153.833099 844.770691
v 148.371445 -163.690994 844.770691
v 148.371445 -163.690994 898.022705
v 162.560242 -137.092499 844.770691
v 144.085739 -127.223183 844.770691
v 144.085739 -127.223183 898.022705
v 162.560242 -137.092499 898.022705
v 149.166351 -163.422897 844.770691
v 162.779251 -137.901794 844.770691
v 162.779251 -137.901794 898.022705
v 149.166351 -163.422897 898.022705
vt 0.000000 5.333330
vt 0.000000 0.000000
vt 7.250000 0.000000
vt 7.250000 5.333330
vt 0.000000 5.333330
vt 0.000000 0.000000
vt 5.250000 0.000000
vt 5.250000 5.333330
vt 0.000000 0.000000
vt 5.250000 0.000000
vt 5.250000 5.333330
vt 0.000000 5.333330
vt 0.000000 0.000000
vt 7.250000 0.000000
vt 7.250000 5.333330
vt 0.000000 5.333330
vn -0.8823 0.4707 0.0000
vn -0.4706 -0.8823 0.0000
vn 0.4712 0.8820 0.0000
vn 0.8823 -0.4706 0.0000
s off
f 1/1/1 2/2/1 3/3/1
f 1/1/1 3/3/1 4/4/1
f 5/5/2 6/6/2 7/7/2
f 5/5/2 7/7/2 8/8/2
f 9/9/3 10/10/3 11/11/3
f 12/12/3 9/9/3 11/11/3
f 13/13/4 14/14/4 15/15/4
f 16/16/4 13/13/4 15/15/4
