# Blender v3.0.1 OBJ File: 'rockerfeller_plaza.blend'
# www.blender.org
o geometryt000010000010000110010110000110000110100000100100st77
v 458.857910 -203.230728 664.787720
v 458.231995 -202.895126 612.956543
v 463.410217 -205.671631 612.956543
v 458.231995 -202.895126 664.787720
v 463.410217 -205.671631 664.787720
v 459.374298 -199.784225 612.956543
v 457.984680 -202.372620 612.956543
v 457.984680 -202.372620 664.787720
v 459.374298 -199.784225 664.787720
v 460.854675 -197.026520 664.787720
v 460.854675 -197.026520 612.956543
v 459.465088 -199.614929 612.956543
v 459.465088 -199.614929 664.787720
v 461.640381 -195.563019 664.787720
v 461.640381 -195.563019 612.956543
v 460.945618 -196.857224 612.956543
v 460.945618 -196.857224 664.787720
v 462.425995 -194.099518 664.787720
v 462.425995 -194.099518 612.956543
v 461.731201 -195.393723 612.956543
v 461.731201 -195.393723 664.787720
v 463.211700 -192.636017 664.787720
v 463.211700 -192.636017 612.956543
v 462.516907 -193.930222 612.956543
v 462.516907 -193.930222 664.787720
v 466.776489 -185.995621 664.787720
v 466.776489 -185.995621 612.956543
v 463.302612 -192.466721 612.956543
v 463.302612 -192.466721 664.787720
v 467.562195 -184.532120 612.956543
v 466.867401 -185.826324 612.956543
v 466.867401 -185.826324 664.787720
v 467.562195 -184.532120 664.787720
v 468.347778 -183.068619 664.787720
v 468.347778 -183.068619 612.956543
v 467.653015 -184.362823 612.956543
v 467.653015 -184.362823 664.787720
v 469.133484 -181.605118 664.787720
v 469.133484 -181.605118 612.956543
v 468.438721 -182.899323 612.956543
v 468.438721 -182.899323 664.787720
v 470.613892 -178.847427 612.956543
v 469.224396 -181.435822 612.956543
v 469.224396 -181.435822 664.787720
v 470.613892 -178.847427 664.787720
v 472.094391 -176.089722 612.956543
v 470.704803 -178.678131 612.956543
v 470.704803 -178.678131 664.787720
v 472.094391 -176.089722 664.787720
v 464.122986 -206.056320 664.787720
v 464.122986 -206.056320 612.956543
v 466.711487 -207.445724 612.956543
v 466.711487 -207.445724 664.787720
v 467.002380 -207.601822 664.787720
v 467.002380 -207.601822 612.956543
v 469.590881 -208.991226 612.956543
v 469.590881 -208.991226 664.787720
v 469.881714 -209.147324 612.956543
v 471.175903 -209.842026 612.956543
v 471.175903 -209.842026 664.787720
v 469.881714 -209.147324 664.787720
v 471.466797 -209.998123 612.956543
v 472.760986 -210.692825 612.956543
v 472.760986 -210.692825 664.787720
v 471.466797 -209.998123 664.787720
v 473.051819 -210.848923 612.956543
v 474.346100 -211.543625 612.956543
v 474.346100 -211.543625 664.787720
v 473.051819 -210.848923 664.787720
v 474.636902 -211.699722 664.787720
v 474.636902 -211.699722 612.956543
v 475.931091 -212.394424 612.956543
v 475.931091 -212.394424 664.787720
v 476.221985 -212.550522 664.787720
v 476.221985 -212.550522 612.956543
v 477.516205 -213.245224 612.956543
v 477.516205 -213.245224 664.787720
v 477.807007 -213.401321 612.956543
v 480.395508 -214.790726 612.956543
v 480.395508 -214.790726 664.787720
v 477.807007 -213.401321 664.787720
v 480.686401 -214.946823 612.956543
v 483.274902 -216.336227 612.956543
v 483.274902 -216.336227 664.787720
v 480.686401 -214.946823 664.787720
v 475.149994 -177.338516 664.787720
v 475.149994 -177.338516 612.956543
v 472.561493 -175.948929 612.956543
v 472.561493 -175.948929 664.787720
v 477.922913 -178.827118 664.787720
v 477.922913 -178.827118 612.956543
v 475.334503 -177.437531 612.956543
v 475.334503 -177.437531 664.787720
v 479.401611 -179.620926 664.787720
v 479.401611 -179.620926 612.956543
v 478.107391 -178.926117 612.956543
v 478.107391 -178.926117 664.787720
v 480.880310 -180.414719 664.787720
v 480.880310 -180.414719 612.956543
v 479.586121 -179.720016 612.956543
v 479.586121 -179.720016 664.787720
v 482.359100 -181.208618 664.787720
v 482.359100 -181.208618 612.956543
v 481.064819 -180.513824 612.956543
v 481.064819 -180.513824 664.787720
v 487.720398 -184.086731 612.956543
v 482.543579 -181.307617 612.956543
v 482.543579 -181.307617 664.787720
v 487.720398 -184.086731 664.787720
v 489.199097 -184.880524 664.787720
v 489.199097 -184.880524 612.956543
v 487.904907 -184.185822 612.956543
v 487.904907 -184.185822 664.787720
v 490.677795 -185.674423 664.787720
v 490.677795 -185.674423 612.956543
v 489.383606 -184.979630 612.956543
v 489.383606 -184.979630 664.787720
v 492.156616 -186.468231 664.787720
v 492.156616 -186.468231 612.956543
v 490.862396 -185.773422 612.956543
v 490.862396 -185.773422 664.787720
v 494.929504 -187.956818 664.787720
v 494.929504 -187.956818 612.956543
v 492.341095 -186.567322 612.956543
v 492.341095 -186.567322 664.787720
v 497.702393 -189.445419 612.956543
v 495.114014 -188.055923 612.956543
v 495.114014 -188.055923 664.787720
v 497.702393 -189.445419 664.787720
v 483.741882 -216.195328 664.787720
v 483.741882 -216.195328 612.956543
v 485.130920 -213.606628 612.956543
v 485.130920 -213.606628 664.787720
v 485.221497 -213.437622 664.787720
v 485.221497 -213.437622 612.956543
v 486.610504 -210.848923 612.956543
v 486.610504 -210.848923 664.787720
v 486.701111 -210.679916 612.956543
v 487.395599 -209.385529 612.956543
v 487.395599 -209.385529 664.787720
v 486.701111 -210.679916 664.787720
v 487.486206 -209.216629 612.956543
v 488.180695 -207.922226 612.956543
v 488.180695 -207.922226 664.787720
v 487.486206 -209.216629 664.787720
v 488.271301 -207.753326 664.787720
v 488.271301 -207.753326 612.956543
v 488.965820 -206.458923 612.956543
v 488.965820 -206.458923 664.787720
v 489.056519 -206.289917 612.956543
v 492.528809 -199.818024 612.956543
v 492.528809 -199.818024 664.787720
v 489.056519 -206.289917 664.787720
v 492.619385 -199.649124 664.787720
v 492.619385 -199.649124 612.956543
v 493.313904 -198.354721 612.956543
v 493.313904 -198.354721 664.787720
v 493.404480 -198.185730 612.956543
v 494.098999 -196.891418 612.956543
v 494.098999 -196.891418 664.787720
v 493.404480 -198.185730 664.787720
v 494.189697 -196.722427 664.787720
v 494.189697 -196.722427 612.956543
v 494.884094 -195.428024 612.956543
v 494.884094 -195.428024 664.787720
v 494.974792 -195.259125 612.956543
v 496.363708 -192.670319 612.956543
v 496.363708 -192.670319 664.787720
v 494.974792 -195.259125 664.787720
v 496.454407 -192.501419 664.787720
v 496.454407 -192.501419 612.956543
v 497.843292 -189.912628 612.956543
v 497.843292 -189.912628 664.787720
vt 0.161170 12.000000
vt 0.000000 0.000000
vt 1.333330 0.000000
vt 0.000000 12.000000
vt 1.333330 12.000000
vt 0.000000 0.000000
vt 0.666670 0.000000
vt 0.666670 12.000000
vt 0.000000 12.000000
vt 0.000000 12.000000
vt 0.000000 0.000000
vt 0.666670 0.000000
vt 0.666670 12.000000
vt 0.000000 12.000000
vt 0.000000 0.000000
vt 0.333330 0.000000
vt 0.333330 12.000000
vt 0.000000 12.000000
vt 0.000000 0.000000
vt 0.333330 0.000000
vt 0.333330 12.000000
vt 0.000000 12.000000
vt 0.000000 0.000000
vt 0.333330 0.000000
vt 0.333330 12.000000
vt 0.000000 12.000000
vt 0.000000 0.000000
vt 1.666670 0.000000
vt 1.666670 12.000000
vt 0.000000 0.000000
vt 0.333330 0.000000
vt 0.333330 12.000000
vt 0.000000 12.000000
vt 0.000000 12.000000
vt 0.000000 0.000000
vt 0.333330 0.000000
vt 0.333330 12.000000
vt 0.000000 12.000000
vt 0.000000 0.000000
vt 0.333330 0.000000
vt 0.333330 12.000000
vt 0.000000 0.000000
vt 0.666670 0.000000
vt 0.666670 12.000000
vt 0.000000 12.000000
vt 0.000000 0.000000
vt 0.666670 0.000000
vt 0.666670 12.000000
vt 0.000000 12.000000
vt 0.000000 12.000000
vt 0.000000 0.000000
vt 0.666670 0.000000
vt 0.666670 12.000000
vt 0.000000 12.000000
vt 0.000000 0.000000
vt 0.666670 0.000000
vt 0.666670 12.000000
vt 0.000000 0.000000
vt 0.333330 0.000000
vt 0.333330 12.000000
vt 0.000000 12.000000
vt 0.000000 0.000000
vt 0.333330 0.000000
vt 0.333330 12.000000
vt 0.000000 12.000000
vt 0.000000 0.000000
vt 0.333330 0.000000
vt 0.333330 12.000000
vt 0.000000 12.000000
vt 0.000000 12.000000
vt 0.000000 0.000000
vt 0.333330 0.000000
vt 0.333330 12.000000
vt 0.000000 12.000000
vt 0.000000 0.000000
vt 0.333330 0.000000
vt 0.333330 12.000000
vt 0.000000 0.000000
vt 0.666670 0.000000
vt 0.666670 12.000000
vt 0.000000 12.000000
vt 0.000000 0.000000
vt 0.666670 0.000000
vt 0.666670 12.000000
vt 0.000000 12.000000
vt 0.000000 12.000000
vt 0.000000 0.000000
vt 0.666670 0.000000
vt 0.666670 12.000000
vt 0.000000 12.000000
vt 0.000000 0.000000
vt 0.333330 0.000000
vt 0.333330 12.000000
vt 0.000000 12.000000
vt 0.000000 0.000000
vt 0.333330 0.000000
vt 0.333330 12.000000
vt 0.000000 12.000000
vt 0.000000 0.000000
vt 0.333330 0.000000
vt 0.333330 12.000000
vt 0.000000 0.000000
vt 1.333330 0.000000
vt 1.333330 12.000000
vt 0.000000 12.000000
vt 0.000000 12.000000
vt 0.000000 0.000000
vt 0.333330 0.000000
vt 0.333330 12.000000
vt 0.000000 12.000000
vt 0.000000 0.000000
vt 0.333330 0.000000
vt 0.333330 12.000000
vt 0.000000 12.000000
vt 0.000000 0.000000
vt 0.333330 0.000000
vt 0.333330 12.000000
vt 0.000000 12.000000
vt 0.000000 0.000000
vt 0.666670 0.000000
vt 0.666670 12.000000
vt 0.000000 0.000000
vt 0.666670 0.000000
vt 0.666670 12.000000
vt 0.000000 12.000000
vt 0.000000 12.000000
vt 0.000000 0.000000
vt 0.666670 0.000000
vt 0.666670 12.000000
vt 0.000000 12.000000
vt 0.000000 0.000000
vt 0.666670 0.000000
vt 0.666670 12.000000
vt 0.000000 0.000000
vt 0.333330 0.000000
vt 0.333330 12.000000
vt 0.000000 12.000000
vt 0.000000 0.000000
vt 0.333330 0.000000
vt 0.333330 12.000000
vt 0.000000 12.000000
vt 0.000000 12.000000
vt 0.000000 0.000000
vt 0.333330 0.000000
vt 0.333330 12.000000
vt 0.000000 0.000000
vt 1.666670 0.000000
vt 1.666670 12.000000
vt 0.000000 12.000000
vt 0.000000 12.000000
vt 0.000000 0.000000
vt 0.333330 0.000000
vt 0.333330 12.000000
vt 0.000000 0.000000
vt 0.333330 0.000000
vt 0.333330 12.000000
vt 0.000000 12.000000
vt 0.000000 12.000000
vt 0.000000 0.000000
vt 0.333330 0.000000
vt 0.333330 12.000000
vt 0.000000 0.000000
vt 0.666670 0.000000
vt 0.666670 12.000000
vt 0.000000 12.000000
vt 0.000000 12.000000
vt 0.000000 0.000000
vt 0.666670 0.000000
vt 0.666670 12.000000
vt 0.000000 12.000000
vt 0.000000 0.000000
vt 0.666670 0.000000
vt 0.666670 12.000000
vn -0.4725 -0.8813 0.0000
vn -0.8811 0.4730 0.0000
vn -0.8810 0.4730 0.0000
vn -0.4729 -0.8811 0.0000
vn -0.4730 -0.8811 0.0000
vn 0.4730 0.8811 0.0000
vn 0.4729 0.8811 0.0000
vn 0.8812 -0.4728 0.0000
vn 0.8812 -0.4727 0.0000
vn 0.8811 -0.4728 0.0000
s off
f 1/1/1 2/2/1 3/3/1
f 4/4/1 2/2/1 1/1/1
f 1/1/1 3/3/1 5/5/1
f 6/6/2 7/7/2 8/8/2
f 9/9/2 6/6/2 8/8/2
f 10/10/2 11/11/2 12/12/2
f 10/10/2 12/12/2 13/13/2
f 14/14/2 15/15/2 16/16/2
f 14/14/2 16/16/2 17/17/2
f 18/18/2 19/19/2 20/20/2
f 18/18/2 20/20/2 21/21/2
f 22/22/2 23/23/2 24/24/2
f 22/22/3 24/24/3 25/25/3
f 26/26/2 27/27/2 28/28/2
f 26/26/2 28/28/2 29/29/2
f 30/30/2 31/31/2 32/32/2
f 33/33/3 30/30/3 32/32/3
f 34/34/2 35/35/2 36/36/2
f 34/34/2 36/36/2 37/37/2
f 38/38/2 39/39/2 40/40/2
f 38/38/2 40/40/2 41/41/2
f 42/42/2 43/43/2 44/44/2
f 45/45/2 42/42/2 44/44/2
f 46/46/2 47/47/2 48/48/2
f 49/49/2 46/46/2 48/48/2
f 50/50/4 51/51/4 52/52/4
f 50/50/4 52/52/4 53/53/4
f 54/54/4 55/55/4 56/56/4
f 54/54/4 56/56/4 57/57/4
f 58/58/5 59/59/5 60/60/5
f 61/61/4 58/58/4 60/60/4
f 62/62/5 63/63/5 64/64/5
f 65/65/5 62/62/5 64/64/5
f 66/66/4 67/67/4 68/68/4
f 69/69/4 66/66/4 68/68/4
f 70/70/4 71/71/4 72/72/4
f 70/70/5 72/72/5 73/73/5
f 74/74/5 75/75/5 76/76/5
f 74/74/4 76/76/4 77/77/4
f 78/78/4 79/79/4 80/80/4
f 81/81/4 78/78/4 80/80/4
f 82/82/4 83/83/4 84/84/4
f 85/85/4 82/82/4 84/84/4
f 86/86/6 87/87/6 88/88/6
f 86/86/6 88/88/6 89/89/6
f 94/90/6 95/91/6 96/92/6
f 94/90/6 96/92/6 97/93/6
f 98/94/6 99/95/6 100/96/6
f 98/94/6 100/96/6 101/97/6
f 102/98/6 103/99/6 104/100/6
f 102/98/6 104/100/6 105/101/6
f 106/102/6 107/103/6 108/104/6
f 109/105/6 106/102/6 108/104/6
f 110/106/7 111/107/7 112/108/7
f 110/106/6 112/108/6 113/109/6
f 114/110/6 115/111/6 116/112/6
f 114/110/6 116/112/6 117/113/6
f 118/114/6 119/115/6 120/116/6
f 118/114/6 120/116/6 121/117/6
f 122/118/6 123/119/6 124/120/6
f 122/118/6 124/120/6 125/121/6
f 126/122/6 127/123/6 128/124/6
f 129/125/6 126/122/6 128/124/6
f 130/126/8 131/127/8 132/128/8
f 130/126/8 132/128/8 133/129/8
f 134/130/8 135/131/8 136/132/8
f 134/130/8 136/132/8 137/133/8
f 138/134/8 139/135/8 140/136/8
f 141/137/8 138/134/8 140/136/8
f 142/138/8 143/139/8 144/140/8
f 145/141/9 142/138/9 144/140/9
f 146/142/8 147/143/8 148/144/8
f 146/142/8 148/144/8 149/145/8
f 150/146/8 151/147/8 152/148/8
f 153/149/8 150/146/8 152/148/8
f 154/150/8 155/151/8 156/152/8
f 154/150/8 156/152/8 157/153/8
f 158/154/8 159/155/8 160/156/8
f 161/157/10 158/154/10 160/156/10
f 162/158/9 163/159/9 164/160/9
f 162/158/9 164/160/9 165/161/9
f 166/162/8 167/163/8 168/164/8
f 169/165/8 166/162/8 168/164/8
f 170/166/8 171/167/8 172/168/8
f 170/166/9 172/168/9 173/169/9
s 1
f 90/170/6 91/171/6 92/172/6
f 90/170/6 92/172/6 93/173/6
