# Blender v3.0.1 OBJ File: 'rockerfeller_plaza.blend'
# www.blender.org
o geometryt000010000010000110010110000110000100110010010110st105_
v 85.238358 -176.779694 18.827370
v 90.626778 -179.936996 18.827370
v 82.848503 -177.429092 18.827370
v 91.780579 -165.113297 18.827370
v 91.188240 -181.040695 18.827370
v 91.913933 -182.475601 18.827370
v 91.225052 -162.332993 18.827370
v 91.493668 -163.662201 18.827370
v 90.191399 -178.787399 18.827370
v 86.213722 -176.446396 18.827370
v 91.980011 -166.298904 18.827370
v 101.302299 -173.430695 18.827370
v 98.196587 -171.722595 18.827370
v 101.727203 -173.664398 18.827370
v 102.121201 -173.881104 18.827370
v 100.164497 -168.175201 18.827370
v 98.037407 -152.128998 18.827370
v 98.640663 -152.466202 18.827370
v 100.428001 -167.700195 18.827370
v 99.922348 -168.611694 18.827370
v 102.586098 -174.136795 18.827370
v 103.514801 -174.647507 18.827370
v 110.046204 -175.182602 18.827370
v 103.390900 -188.748795 18.827370
v 99.160187 -151.405396 18.827370
v 104.368797 -164.923492 18.827370
v 102.529503 -163.912003 18.827370
v 98.971642 -150.430603 18.827370
v 121.004898 -145.423904 18.827370
v 107.279602 -135.246506 18.827370
v 104.756401 -165.136703 18.827370
v 107.847702 -166.836899 18.827370
v 103.044296 -169.520798 18.827370
v 103.016403 -169.216797 18.827370
v 102.983200 -168.854996 18.827370
v 103.314102 -172.460800 18.827370
v 103.340897 -172.752594 18.827370
v 103.369400 -173.063705 18.827370
v 103.408897 -173.493896 18.827370
v 104.771698 -188.433105 18.827370
v 104.725403 -172.465302 18.827370
v 106.426598 -169.398804 18.827370
v 107.014297 -170.676895 18.827370
v 104.977699 -172.010498 18.827370
v 106.465103 -169.329300 18.827370
v 114.455399 -177.607407 18.827370
v 110.522797 -191.563995 18.827370
v 105.125397 -171.744202 18.827370
v 105.244102 -171.530304 18.827370
v 105.897903 -170.351807 18.827370
v 105.935997 -170.283096 18.827370
v 105.977501 -170.208298 18.827370
v 108.560402 -171.524902 18.827370
v 108.374199 -135.011795 18.827370
v 109.174103 -134.835999 18.827370
v 111.245003 -173.003799 18.827370
v 117.267700 -129.579803 18.827370
v 113.310501 -127.549500 18.827370
v 117.360199 -179.150299 18.827370
v 118.667503 -129.452606 18.827370
v 120.109398 -129.313797 18.827370
v 128.375504 -133.858902 18.827370
v 121.676102 -145.793594 18.827370
v 97.162407 -151.650604 18.827370
v 110.025597 -192.369095 18.827370
v 112.914200 -193.967697 18.827370
v 120.248703 -180.737793 18.827370
v 115.654198 -175.428604 18.827370
v 113.122002 -126.574699 18.827370
v 121.509201 -129.186600 18.827370
v 129.563095 -133.634201 18.827370
v 122.551102 -146.272003 18.827370
v 124.572304 -165.555405 18.827370
v 121.609901 -171.440506 18.827370
v 132.174698 -169.641800 18.827370
v 129.034393 -175.473495 18.827370
v 126.849602 -148.620300 18.827370
v 132.174698 -151.411896 18.827370
v 98.675652 -148.924103 18.827370
v 106.125999 -135.492996 18.827370
v 112.402496 -124.218201 18.827370
v 133.844894 -135.993805 18.827370
v 82.848503 -177.429092 63.827370
v 85.238358 -176.779694 63.827370
v 86.008041 -175.407196 63.827370
v 89.992851 -179.565506 63.827370
v 91.780579 -165.113297 63.827370
v 90.626778 -179.936996 63.827370
v 91.096397 -180.860199 63.827370
v 91.188240 -181.040695 63.827370
v 91.795227 -182.240906 63.827370
v 91.225052 -162.332993 63.827370
v 91.462067 -163.505798 63.827370
v 91.493668 -163.662201 63.827370
v 91.733650 -164.875900 63.827370
v 91.913933 -182.475601 63.827370
v 86.513817 -175.918304 69.827370
v 85.238358 -176.779694 69.827370
v 86.213722 -176.446396 69.827370
v 89.984390 -178.665604 69.827370
v 91.980011 -166.298904 69.827370
v 90.191399 -178.787399 69.827370
v 90.604118 -179.877197 69.827370
v 90.626778 -179.936996 69.827370
v 91.916557 -165.921600 69.827370
v 91.780579 -165.113297 69.827370
v 91.969627 -166.237198 69.827370
v 91.980011 -166.298904 72.627373
v 86.213722 -176.446396 72.627373
v 90.191399 -178.787399 72.627373
v 90.626778 -179.936996 72.627373
v 101.302299 -173.430695 72.627373
v 98.196587 -171.722595 72.627373
v 101.727203 -173.664398 72.627373
v 91.188240 -181.040695 72.627373
v 91.913933 -182.475601 72.627373
v 102.121201 -173.881104 72.627373
v 100.164497 -168.175201 72.627373
v 91.493668 -163.662201 72.627373
v 91.780579 -165.113297 72.627373
v 98.037407 -152.128998 72.627373
v 98.640663 -152.466202 72.627373
v 100.428001 -167.700195 72.627373
v 99.922348 -168.611694 72.627373
v 102.586098 -174.136795 72.627373
v 103.216202 -174.483307 72.627373
v 103.514801 -174.647507 72.627373
v 103.390900 -188.748795 72.627373
v 110.046204 -175.182602 72.627373
v 98.439842 -171.284103 72.627373
v 104.368797 -164.923492 72.627373
v 99.160187 -151.405396 72.627373
v 102.529503 -163.912003 72.627373
v 102.828102 -164.076202 72.627373
v 121.004898 -145.423904 72.627373
v 98.971642 -150.430603 72.627373
v 107.279602 -135.246506 72.627373
v 104.756401 -165.136703 72.627373
v 107.847702 -166.836899 72.627373
v 104.771698 -188.433105 72.627373
v 104.725403 -172.465302 72.627373
v 107.014297 -170.676895 72.627373
v 104.977699 -172.010498 72.627373
v 114.455399 -177.607407 72.627373
v 110.522797 -191.563995 72.627373
v 105.125397 -171.744202 72.627373
v 105.244102 -171.530304 72.627373
v 105.897903 -170.351807 72.627373
v 105.935997 -170.283096 72.627373
v 105.977501 -170.208298 72.627373
v 106.426598 -169.398804 72.627373
v 106.465103 -169.329300 72.627373
v 107.604500 -167.275406 72.627373
v 108.560402 -171.524902 72.627373
v 108.374199 -135.011795 72.627373
v 109.174103 -134.835999 72.627373
v 111.245003 -173.003799 72.627373
v 113.310501 -127.549500 72.627373
v 117.267700 -129.579803 72.627373
v 117.360199 -179.150299 72.627373
v 118.667503 -129.452606 72.627373
v 120.109398 -129.313797 72.627373
v 128.375504 -133.858902 72.627373
v 121.676102 -145.793594 72.627373
v 91.834244 -163.061905 69.827370
v 91.225052 -162.332993 69.827370
v 91.493668 -163.662201 69.827370
v 98.037407 -152.128998 69.827370
v 97.162407 -151.650604 69.827370
v 97.265350 -151.706894 63.827370
v 98.971642 -150.430603 63.827370
v 97.162407 -151.650604 63.827370
v 98.936821 -150.253403 63.827370
v 98.675652 -148.924103 63.827370
v 98.037407 -152.128998 63.827370
v 98.108383 -152.168594 63.827370
v 99.160187 -151.405396 63.827370
v 99.129349 -151.246002 63.827370
v 98.136078 -152.184097 63.827370
v 98.640663 -152.466202 63.827370
v 98.725639 -152.292694 63.827370
v 102.529503 -163.912003 75.827370
v 98.196587 -171.722595 75.827370
v 103.514801 -174.647507 75.827370
v 107.847702 -166.836899 75.827370
v 99.404030 -149.640396 69.827370
v 98.675652 -148.924103 69.827370
v 98.971642 -150.430603 69.827370
v 101.615097 -145.599304 69.827370
v 107.279602 -135.246506 69.827370
v 106.125999 -135.492996 69.827370
v 104.699799 -188.449493 69.827370
v 103.390900 -188.748795 69.827370
v 110.025597 -192.369095 69.827370
v 104.771698 -188.433105 69.827370
v 110.223503 -191.401001 69.827370
v 110.522797 -191.563995 69.827370
v 112.402496 -124.218201 63.827370
v 106.125999 -135.492996 63.827370
v 106.261703 -135.464005 63.827370
v 107.279602 -135.246506 63.827370
v 107.458603 -135.208099 63.827370
v 113.122002 -126.574699 63.827370
v 108.374199 -135.011795 63.827370
v 108.932800 -134.019196 63.827370
v 113.774399 -126.913300 63.827370
v 118.667503 -129.452606 63.827370
v 118.903397 -129.429901 63.827370
v 120.109398 -129.313797 63.827370
v 120.274101 -129.298798 63.827370
v 121.509201 -129.186600 63.827370
v 107.094704 -170.720993 69.827370
v 121.676102 -145.793594 69.827370
v 107.014297 -170.676895 69.827370
v 120.276802 -146.738205 69.827370
v 108.560402 -171.524902 69.827370
v 122.551102 -146.272003 69.827370
v 121.641197 -145.774399 69.827370
v 121.004898 -145.423904 69.827370
v 121.509201 -129.186600 69.827370
v 120.109398 -129.313797 69.827370
v 120.539597 -129.550293 69.827370
v 128.375504 -133.858902 69.827370
v 129.563095 -133.634201 69.827370
v 128.026794 -134.479996 69.827370
v 109.389397 -134.456802 69.827370
v 108.374199 -135.011795 69.827370
v 108.415901 -135.002701 69.827370
v 113.310501 -127.549500 69.827370
v 113.122002 -126.574699 69.827370
v 109.174103 -134.835999 69.827370
v 113.516502 -127.655197 69.827370
v 117.267700 -129.579803 69.827370
v 117.340599 -129.573196 69.827370
v 117.713097 -129.539398 69.827370
v 118.667503 -129.452606 69.827370
v 124.572304 -165.555405 23.827370
v 109.931999 -169.049194 23.827370
v 108.560402 -171.524902 23.827370
v 110.981796 -172.858795 23.827370
v 111.358498 -166.474304 23.827370
v 110.995499 -172.866302 23.827370
v 111.245003 -173.003799 23.827370
v 121.609901 -171.440506 23.827370
v 115.164299 -175.159103 23.827370
v 122.551102 -146.272003 23.827370
v 117.090302 -179.006897 23.827370
v 114.588600 -177.365295 23.827370
v 114.455399 -177.607407 23.827370
v 117.360199 -179.150299 23.827370
v 115.654198 -175.428604 23.827370
v 132.174698 -169.641800 23.827370
v 129.034393 -175.473495 23.827370
v 123.410797 -146.741592 23.827370
v 126.849602 -148.620300 23.827370
v 132.174698 -151.411896 23.827370
v 110.269302 -191.974396 43.827370
v 110.025597 -192.369095 43.827370
v 112.914200 -193.967697 43.827370
v 110.522797 -191.563995 43.827370
v 120.248703 -180.737793 43.827370
v 113.700104 -185.795502 43.827370
v 117.360199 -179.150299 43.827370
v 111.048897 -173.360199 63.827370
v 110.046204 -175.182602 63.827370
v 110.767403 -175.579193 63.827370
v 111.245003 -173.003799 63.827370
v 114.455399 -177.607407 63.827370
v 115.654198 -175.428604 63.827370
v 125.599800 -140.777298 43.827370
v 122.551102 -146.272003 43.827370
v 126.849602 -148.620300 43.827370
v 125.988403 -140.076996 43.827370
v 129.563095 -133.634201 43.827370
v 133.844894 -135.993805 43.827370
vt 0.294590 0.167700
vt 0.298620 0.178490
vt 0.296530 0.162870
vt 0.271280 0.181160
vt 0.300450 0.179600
vt 0.302830 0.181030
vt 0.266400 0.180110
vt 0.268730 0.180620
vt 0.296670 0.177640
vt 0.293670 0.169680
vt 0.273370 0.181540
vt 0.283390 0.200160
vt 0.281270 0.193940
vt 0.283680 0.201010
vt 0.283950 0.201800
vt 0.274190 0.197990
vt 0.245660 0.194080
vt 0.246080 0.195290
vt 0.273240 0.198530
vt 0.275060 0.197490
vt 0.284260 0.202730
vt 0.284900 0.204590
vt 0.283800 0.217750
vt 0.310600 0.204010
vt 0.243990 0.196360
vt 0.266930 0.206540
vt 0.265680 0.202860
vt 0.242270 0.196000
vt 0.226160 0.240530
vt 0.212000 0.213100
vt 0.267200 0.207320
vt 0.269310 0.213510
vt 0.275720 0.203760
vt 0.275170 0.203710
vt 0.274530 0.203660
vt 0.280980 0.204240
vt 0.281510 0.204290
vt 0.282060 0.204340
vt 0.282830 0.204410
vt 0.309590 0.206810
vt 0.280540 0.207080
vt 0.274420 0.210580
vt 0.276560 0.211740
vt 0.279630 0.207600
vt 0.274280 0.210660
vt 0.286810 0.226580
vt 0.313450 0.218320
vt 0.279100 0.207910
vt 0.278680 0.208150
vt 0.276320 0.209500
vt 0.276190 0.209580
vt 0.276040 0.209660
vt 0.277610 0.214840
vt 0.211230 0.215310
vt 0.210650 0.216930
vt 0.279450 0.220210
vt 0.198510 0.233370
vt 0.196080 0.225440
vt 0.288690 0.232400
vt 0.197840 0.236190
vt 0.197130 0.239100
vt 0.202770 0.255660
vt 0.226620 0.241870
vt 0.245070 0.192320
vt 0.315080 0.217300
vt 0.317070 0.223090
vt 0.290660 0.238180
vt 0.282460 0.229040
vt 0.194360 0.225080
vt 0.196450 0.241930
vt 0.201980 0.258060
vt 0.227210 0.243630
vt 0.261660 0.247250
vt 0.273310 0.241140
vt 0.266680 0.262480
vt 0.278290 0.256020
vt 0.230120 0.252240
vt 0.233500 0.262910
vt 0.239630 0.195440
vt 0.212820 0.210770
vt 0.190300 0.223680
vt 0.204910 0.266630
vt 0.296530 0.162870
vt 0.294590 0.167700
vt 0.291850 0.169290
vt 0.298150 0.177220
vt 0.271280 0.181160
vt 0.298620 0.178490
vt 0.300150 0.179420
vt 0.300450 0.179600
vt 0.302440 0.180790
vt 0.266400 0.180110
vt 0.268460 0.180560
vt 0.268730 0.180620
vt 0.270860 0.181070
vt 0.302830 0.181030
vt 0.292620 0.170290
vt 0.294590 0.167700
vt 0.293670 0.169680
vt 0.296510 0.177230
vt 0.273370 0.181540
vt 0.296670 0.177640
vt 0.298520 0.178450
vt 0.298620 0.178490
vt 0.272710 0.181420
vt 0.271280 0.181160
vt 0.273270 0.181520
vt 0.273370 0.181540
vt 0.293670 0.169680
vt 0.296670 0.177640
vt 0.298620 0.178490
vt 0.283390 0.200160
vt 0.281270 0.193940
vt 0.283680 0.201010
vt 0.300450 0.179600
vt 0.302830 0.181030
vt 0.283950 0.201800
vt 0.274190 0.197990
vt 0.268730 0.180620
vt 0.271280 0.181160
vt 0.245660 0.194080
vt 0.246080 0.195290
vt 0.273240 0.198530
vt 0.275060 0.197490
vt 0.284260 0.202730
vt 0.284690 0.203990
vt 0.284900 0.204590
vt 0.310600 0.204010
vt 0.283800 0.217750
vt 0.280390 0.194440
vt 0.266930 0.206540
vt 0.243990 0.196360
vt 0.265680 0.202860
vt 0.265880 0.203460
vt 0.226160 0.240530
vt 0.242270 0.196000
vt 0.212000 0.213100
vt 0.267200 0.207320
vt 0.269310 0.213510
vt 0.309590 0.206810
vt 0.280540 0.207080
vt 0.276560 0.211740
vt 0.279630 0.207600
vt 0.286810 0.226580
vt 0.313450 0.218320
vt 0.279100 0.207910
vt 0.278680 0.208150
vt 0.276320 0.209500
vt 0.276190 0.209580
vt 0.276040 0.209660
vt 0.274420 0.210580
vt 0.274280 0.210660
vt 0.270180 0.213010
vt 0.277610 0.214840
vt 0.211230 0.215310
vt 0.210650 0.216930
vt 0.279450 0.220210
vt 0.196080 0.225440
vt 0.198510 0.233370
vt 0.288690 0.232400
vt 0.197840 0.236190
vt 0.197130 0.239100
vt 0.202770 0.255660
vt 0.226620 0.241870
vt 0.267530 0.181320
vt 0.266400 0.180110
vt 0.268730 0.180620
vt 0.245660 0.194080
vt 0.245070 0.192320
vt 0.245140 0.192530
vt 0.242270 0.196000
vt 0.245070 0.192320
vt 0.241960 0.195930
vt 0.239630 0.195440
vt 0.245660 0.194080
vt 0.245710 0.194220
vt 0.243990 0.196360
vt 0.243710 0.196300
vt 0.245730 0.194270
vt 0.246080 0.195290
vt 0.245740 0.195460
vt 0.265680 0.202860
vt 0.281270 0.193940
vt 0.284900 0.204590
vt 0.269310 0.213510
vt 0.240700 0.196890
vt 0.239630 0.195440
vt 0.242270 0.196000
vt 0.232640 0.201440
vt 0.212000 0.213100
vt 0.212820 0.210770
vt 0.309640 0.206660
vt 0.310600 0.204010
vt 0.315080 0.217300
vt 0.309590 0.206810
vt 0.313250 0.217730
vt 0.313450 0.218320
vt 0.190300 0.223680
vt 0.212820 0.210770
vt 0.212720 0.211040
vt 0.212000 0.213100
vt 0.211880 0.213460
vt 0.194360 0.225080
vt 0.211230 0.215310
vt 0.209240 0.216460
vt 0.194770 0.226390
vt 0.197840 0.236190
vt 0.197720 0.236670
vt 0.197130 0.239100
vt 0.197050 0.239430
vt 0.196450 0.241930
vt 0.276620 0.211900
vt 0.226620 0.241870
vt 0.276560 0.211740
vt 0.228780 0.239030
vt 0.277610 0.214840
vt 0.227210 0.243630
vt 0.226590 0.241800
vt 0.226160 0.240530
vt 0.196450 0.241930
vt 0.197130 0.239100
vt 0.197420 0.239960
vt 0.202770 0.255660
vt 0.201980 0.258060
vt 0.204010 0.254940
vt 0.209890 0.217370
vt 0.211230 0.215310
vt 0.211200 0.215400
vt 0.196080 0.225440
vt 0.194360 0.225080
vt 0.210650 0.216930
vt 0.196200 0.225850
vt 0.198510 0.233370
vt 0.198480 0.233510
vt 0.198300 0.234270
vt 0.197840 0.236190
vt 0.261660 0.247250
vt 0.272670 0.217660
vt 0.277610 0.214840
vt 0.279270 0.219690
vt 0.267530 0.220590
vt 0.279280 0.219710
vt 0.279450 0.220210
vt 0.273310 0.241140
vt 0.282130 0.228060
vt 0.227210 0.243630
vt 0.288510 0.231860
vt 0.286320 0.226850
vt 0.286810 0.226580
vt 0.288690 0.232400
vt 0.282460 0.229040
vt 0.266680 0.262480
vt 0.278290 0.256020
vt 0.227790 0.245350
vt 0.230120 0.252240
vt 0.233500 0.262910
vt 0.314280 0.217800
vt 0.315080 0.217300
vt 0.317070 0.223090
vt 0.313450 0.218320
vt 0.290660 0.238180
vt 0.301950 0.224860
vt 0.288690 0.232400
vt 0.280160 0.219810
vt 0.283800 0.217750
vt 0.284290 0.219190
vt 0.279450 0.220210
vt 0.286810 0.226580
vt 0.282460 0.229040
vt 0.216240 0.249900
vt 0.227210 0.243630
vt 0.230120 0.252240
vt 0.214840 0.250700
vt 0.201980 0.258060
vt 0.204910 0.266630
vn 0.0000 0.0000 -1.0000
vn 0.0000 0.0000 1.0000
vn 0.0000 0.0003 1.0000
vn 0.0001 0.0000 1.0000
vn -0.0002 0.0005 1.0000
vn -0.0002 0.0000 1.0000
vn -0.0002 -0.0005 1.0000
vn -0.0001 0.0000 1.0000
s off
f 1/1/1 2/2/1 3/3/1
f 4/4/1 1/1/1 3/3/1
f 3/3/1 2/2/1 5/5/1
f 3/3/1 5/5/1 6/6/1
f 7/7/1 8/8/1 3/3/1
f 8/8/1 4/4/1 3/3/1
f 9/9/1 10/10/1 11/11/1
f 9/9/1 12/12/1 2/2/1
f 13/13/1 9/9/1 11/11/1
f 12/12/1 9/9/1 13/13/1
f 2/2/1 14/14/1 5/5/1
f 14/14/1 2/2/1 12/12/1
f 6/6/1 5/5/1 15/15/1
f 15/15/1 5/5/1 14/14/1
f 16/16/1 4/4/1 8/8/1
f 8/8/1 17/17/1 18/18/1
f 19/19/1 8/8/1 18/18/1
f 8/8/1 19/19/1 16/16/1
f 20/20/1 11/11/1 4/4/1
f 4/4/1 16/16/1 20/20/1
f 21/21/1 6/6/1 15/15/1
f 22/22/1 6/6/1 21/21/1
f 6/6/1 23/23/1 24/24/1
f 23/23/1 6/6/1 22/22/1
f 11/11/1 20/20/1 13/13/1
f 13/13/1 20/20/1 12/12/1
f 25/25/1 26/26/1 18/18/1
f 19/19/1 18/18/1 27/27/1
f 26/26/1 27/27/1 18/18/1
f 28/28/1 29/29/1 25/25/1
f 30/30/1 29/29/1 28/28/1
f 26/26/1 25/25/1 31/31/1
f 25/25/1 32/32/1 31/31/1
f 29/29/1 32/32/1 25/25/1
f 33/33/1 20/20/1 16/16/1
f 12/12/1 20/20/1 33/33/1
f 34/34/1 16/16/1 19/19/1
f 16/16/1 34/34/1 33/33/1
f 19/19/1 27/27/1 35/35/1
f 19/19/1 35/35/1 34/34/1
f 12/12/1 36/36/1 14/14/1
f 36/36/1 12/12/1 33/33/1
f 14/14/1 37/37/1 15/15/1
f 37/37/1 14/14/1 36/36/1
f 15/15/1 38/38/1 21/21/1
f 15/15/1 37/37/1 38/38/1
f 21/21/1 38/38/1 39/39/1
f 21/21/1 39/39/1 22/22/1
f 24/24/1 23/23/1 40/40/1
f 22/22/1 41/41/1 23/23/1
f 42/42/1 26/26/1 31/31/1
f 43/43/1 41/41/1 44/44/1
f 43/43/1 23/23/1 41/41/1
f 31/31/1 45/45/1 42/42/1
f 45/45/1 31/31/1 32/32/1
f 40/40/1 23/23/1 46/46/1
f 40/40/1 46/46/1 47/47/1
f 48/48/1 43/43/1 44/44/1
f 49/49/1 43/43/1 48/48/1
f 43/43/1 49/49/1 50/50/1
f 43/43/1 50/50/1 51/51/1
f 51/51/1 52/52/1 43/43/1
f 43/43/1 52/52/1 42/42/1
f 45/45/1 43/43/1 42/42/1
f 32/32/1 43/43/1 45/45/1
f 29/29/1 43/43/1 32/32/1
f 43/43/1 53/53/1 23/23/1
f 54/54/1 29/29/1 30/30/1
f 55/55/1 29/29/1 54/54/1
f 53/53/1 56/56/1 23/23/1
f 57/57/1 55/55/1 58/58/1
f 57/57/1 29/29/1 55/55/1
f 47/47/1 46/46/1 59/59/1
f 60/60/1 29/29/1 57/57/1
f 61/61/1 29/29/1 60/60/1
f 62/62/1 29/29/1 61/61/1
f 62/62/1 63/63/1 29/29/1
f 9/9/1 1/1/1 10/10/1
f 11/11/1 10/10/1 1/1/1
f 2/2/1 1/1/1 9/9/1
f 1/1/1 4/4/1 11/11/1
f 17/17/1 8/8/1 7/7/1
f 64/64/1 17/17/1 7/7/1
f 65/65/1 47/47/1 66/66/1
f 66/66/1 47/47/1 67/67/1
f 47/47/1 59/59/1 67/67/1
f 23/23/1 56/56/1 46/46/1
f 56/56/1 68/68/1 46/46/1
f 58/58/1 55/55/1 54/54/1
f 58/58/1 54/54/1 69/69/1
f 69/69/1 57/57/1 58/58/1
f 69/69/1 60/60/1 57/57/1
f 61/61/1 70/70/1 62/62/1
f 70/70/1 71/71/1 62/62/1
f 62/62/1 72/72/1 63/63/1
f 62/62/1 71/71/1 72/72/1
f 43/43/1 63/63/1 53/53/1
f 29/29/1 63/63/1 43/43/1
f 63/63/1 72/72/1 53/53/1
f 53/53/1 73/73/1 56/56/1
f 72/72/1 73/73/1 53/53/1
f 74/74/1 68/68/1 56/56/1
f 73/73/1 74/74/1 56/56/1
f 46/46/1 68/68/1 59/59/1
f 59/59/1 68/68/1 74/74/1
f 75/75/1 74/74/1 73/73/1
f 75/75/1 76/76/1 74/74/1
f 72/72/1 77/77/1 73/73/1
f 78/78/1 73/73/1 77/77/1
f 64/64/1 28/28/1 17/17/1
f 64/64/1 79/79/1 28/28/1
f 25/25/1 18/18/1 17/17/1
f 17/17/1 28/28/1 25/25/1
f 26/26/1 35/35/1 27/27/1
f 51/51/1 34/34/1 35/35/1
f 26/26/1 52/52/1 35/35/1
f 51/51/1 35/35/1 52/52/1
f 50/50/1 33/33/1 34/34/1
f 50/50/1 34/34/1 51/51/1
f 36/36/1 33/33/1 49/49/1
f 50/50/1 49/49/1 33/33/1
f 37/37/1 36/36/1 48/48/1
f 36/36/1 49/49/1 48/48/1
f 37/37/1 44/44/1 38/38/1
f 37/37/1 48/48/1 44/44/1
f 41/41/1 39/39/1 38/38/1
f 38/38/1 44/44/1 41/41/1
f 39/39/1 41/41/1 22/22/1
f 42/42/1 52/52/1 26/26/1
f 30/30/1 28/28/1 79/79/1
f 80/80/1 30/30/1 79/79/1
f 24/24/1 40/40/1 65/65/1
f 40/40/1 47/47/1 65/65/1
f 30/30/1 80/80/1 81/81/1
f 54/54/1 30/30/1 69/69/1
f 30/30/1 81/81/1 69/69/1
f 69/69/1 81/81/1 60/60/1
f 81/81/1 61/61/1 60/60/1
f 70/70/1 61/61/1 81/81/1
f 71/71/1 77/77/1 72/72/1
f 71/71/1 82/82/1 77/77/1
f 83/83/2 84/84/2 85/85/2
f 86/86/2 84/84/2 83/83/2
f 83/83/2 85/85/2 87/87/2
f 88/88/2 86/86/2 83/83/2
f 89/89/2 88/88/2 83/83/2
f 90/90/2 89/89/2 83/83/2
f 91/91/2 90/90/2 83/83/2
f 92/92/2 83/83/2 93/93/2
f 93/93/2 83/83/2 94/94/2
f 83/83/2 95/95/2 94/94/2
f 83/83/2 87/87/2 95/95/2
f 96/96/2 91/91/2 83/83/2
f 97/97/2 98/98/2 99/99/2
f 99/99/2 98/98/2 100/100/2
f 101/101/2 98/98/2 97/97/2
f 100/100/3 98/98/3 102/102/3
f 102/102/2 98/98/2 103/103/2
f 103/103/4 98/98/4 104/104/4
f 105/105/2 106/106/2 98/98/2
f 107/107/2 105/105/2 98/98/2
f 101/101/2 107/107/2 98/98/2
f 108/108/2 109/109/2 110/110/2
f 110/110/2 111/111/2 112/112/2
f 108/108/2 110/110/2 113/113/2
f 113/113/2 110/110/2 112/112/2
f 114/114/2 111/111/2 115/115/2
f 112/112/2 111/111/2 114/114/2
f 116/116/2 117/117/2 115/115/2
f 117/117/2 114/114/2 115/115/2
f 118/118/2 119/119/2 120/120/2
f 121/121/2 119/119/2 122/122/2
f 123/123/2 122/122/2 119/119/2
f 123/123/2 119/119/2 118/118/2
f 108/108/2 124/124/2 120/120/2
f 124/124/2 118/118/2 120/120/2
f 116/116/2 125/125/2 117/117/2
f 125/125/2 116/116/2 126/126/2
f 126/126/2 116/116/2 127/127/2
f 116/116/2 128/128/2 129/129/2
f 127/127/2 116/116/2 129/129/2
f 108/108/2 113/113/2 130/130/2
f 108/108/2 130/130/2 124/124/2
f 131/131/2 132/132/2 122/122/2
f 123/123/2 133/133/2 122/122/2
f 134/134/2 122/122/2 133/133/2
f 131/131/2 122/122/2 134/134/2
f 135/135/2 136/136/2 132/132/2
f 137/137/2 136/136/2 135/135/2
f 138/138/2 132/132/2 131/131/2
f 138/138/2 139/139/2 132/132/2
f 139/139/2 135/135/2 132/132/2
f 129/129/2 128/128/2 140/140/2
f 129/129/2 141/141/2 127/127/2
f 141/141/2 142/142/2 143/143/2
f 142/142/2 141/141/2 129/129/2
f 129/129/2 140/140/2 144/144/2
f 140/140/2 145/145/2 144/144/2
f 142/142/2 146/146/2 143/143/2
f 147/147/2 146/146/2 142/142/2
f 148/148/2 147/147/2 142/142/2
f 148/148/2 142/142/2 149/149/2
f 142/142/2 150/150/2 149/149/2
f 142/142/2 151/151/2 150/150/2
f 142/142/4 152/152/4 151/151/4
f 142/142/2 153/153/2 152/152/2
f 142/142/2 139/139/2 153/153/2
f 142/142/2 135/135/2 139/139/2
f 154/154/2 142/142/2 129/129/2
f 155/155/2 137/137/2 135/135/2
f 156/156/2 155/155/2 135/135/2
f 129/129/2 157/157/2 154/154/2
f 158/158/2 156/156/2 159/159/2
f 156/156/2 135/135/2 159/159/2
f 145/145/2 160/160/2 144/144/2
f 135/135/2 161/161/2 159/159/2
f 161/161/2 135/135/2 162/162/2
f 135/135/2 163/163/2 162/162/2
f 135/135/2 164/164/2 163/163/2
f 165/165/2 166/166/2 167/167/2
f 168/168/2 166/166/2 165/165/2
f 168/168/2 169/169/2 166/166/2
f 170/170/2 171/171/2 172/172/2
f 173/173/2 174/174/2 172/172/2
f 171/171/2 173/173/2 172/172/2
f 175/175/2 171/171/2 170/170/2
f 176/176/2 177/177/2 175/175/2
f 178/178/2 171/171/2 175/175/2
f 177/177/2 178/178/2 175/175/2
f 179/179/5 177/177/5 176/176/5
f 180/180/2 181/181/2 179/179/2
f 181/181/2 177/177/2 179/179/2
f 182/182/2 183/183/2 184/184/2
f 182/182/2 184/184/2 185/185/2
f 186/186/2 187/187/2 188/188/2
f 189/189/2 187/187/2 186/186/2
f 190/190/2 187/187/2 189/189/2
f 190/190/2 191/191/2 187/187/2
f 192/192/2 193/193/2 194/194/2
f 195/195/2 192/192/2 194/194/2
f 195/195/2 194/194/2 196/196/2
f 196/196/2 194/194/2 197/197/2
f 198/198/2 199/199/2 200/200/2
f 198/198/2 200/200/2 201/201/2
f 202/202/2 203/203/2 201/201/2
f 203/203/2 198/198/2 201/201/2
f 204/204/2 205/205/2 202/202/2
f 205/205/2 203/203/2 202/202/2
f 206/206/2 198/198/2 203/203/2
f 207/207/2 198/198/2 206/206/2
f 208/208/2 198/198/2 207/207/2
f 209/209/2 198/198/2 208/208/2
f 210/210/2 198/198/2 209/209/2
f 211/211/2 198/198/2 210/210/2
f 212/212/2 213/213/2 214/214/2
f 213/213/2 215/215/2 214/214/2
f 216/216/2 213/213/2 212/212/2
f 217/217/2 213/213/2 216/216/2
f 218/218/2 219/219/2 215/215/2
f 213/213/2 218/218/2 215/215/2
f 220/220/2 221/221/2 222/222/2
f 220/220/2 222/222/2 223/223/2
f 224/224/2 220/220/2 223/223/2
f 213/213/2 217/217/2 225/225/2
f 225/225/6 217/217/6 223/223/6
f 217/217/2 224/224/2 223/223/2
f 226/226/7 227/227/7 228/228/7
f 229/229/2 227/227/2 226/226/2
f 229/229/2 230/230/2 227/227/2
f 226/226/2 228/228/2 231/231/2
f 232/232/8 230/230/8 229/229/8
f 233/233/2 230/230/2 232/232/2
f 234/234/2 230/230/2 233/233/2
f 235/235/2 230/230/2 234/234/2
f 236/236/2 230/230/2 235/235/2
f 237/237/2 238/238/2 239/239/2
f 237/237/2 239/239/2 240/240/2
f 237/237/2 241/241/2 238/238/2
f 237/237/3 240/240/3 242/242/3
f 237/237/2 242/242/2 243/243/2
f 244/244/2 243/243/2 245/245/2
f 244/244/2 237/237/2 243/243/2
f 237/237/2 246/246/2 241/241/2
f 247/247/2 248/248/2 249/249/2
f 250/250/2 251/251/2 248/248/2
f 250/250/4 248/248/4 247/247/4
f 244/244/2 245/245/2 251/251/2
f 251/251/2 250/250/2 244/244/2
f 252/252/2 237/237/2 244/244/2
f 253/253/2 252/252/2 244/244/2
f 237/237/2 254/254/2 246/246/2
f 237/237/2 255/255/2 254/254/2
f 237/237/2 256/256/2 255/255/2
f 257/257/2 258/258/2 259/259/2
f 260/260/2 257/257/2 259/259/2
f 261/261/2 260/260/2 259/259/2
f 262/262/2 260/260/2 261/261/2
f 263/263/2 262/262/2 261/261/2
f 264/264/2 265/265/2 266/266/2
f 267/267/2 264/264/2 266/266/2
f 267/267/2 266/266/2 268/268/2
f 267/267/2 268/268/2 269/269/2
f 270/270/2 271/271/2 272/272/2
f 273/273/2 270/270/2 272/272/2
f 274/274/2 273/273/2 272/272/2
f 275/275/2 274/274/2 272/272/2
