# Blender v3.0.1 OBJ File: 'rockerfeller_plaza.blend'
# www.blender.org
o geometryt000010000010000110010110000110000110100100000000st75_C
v 330.951904 -119.309387 888.862244
v 331.256165 -119.471985 1045.465820
v 330.951904 -119.309387 1045.465820
v 329.492798 -118.529488 888.862244
v 331.256165 -119.471985 888.465881
v 329.492798 -118.529488 1045.465820
v 326.680725 -117.026382 1045.465820
v 326.680725 -117.026382 888.862244
v 319.385193 -113.126686 888.862244
v 314.809753 -110.681084 888.465881
v 319.385193 -113.126686 1045.465820
v 316.573120 -111.623589 1045.465820
v 316.573120 -111.623589 888.862244
v 315.114014 -110.843689 888.862244
v 315.114014 -110.843689 1045.465820
v 314.809753 -110.681084 1045.465820
v 315.089874 -110.162987 888.862244
v 314.809753 -110.681084 1045.465820
v 315.089874 -110.162987 1045.465820
v 315.876831 -108.707687 888.862244
v 314.809753 -110.681084 888.465881
v 315.876831 -108.707687 1045.465820
v 316.156952 -108.189583 1045.465820
v 316.156952 -108.189583 888.465881
v 316.320465 -107.885788 1045.465820
v 316.320465 -107.885788 888.862244
v 316.156952 -108.189583 1045.465820
v 317.104614 -106.428986 888.862244
v 316.156952 -108.189583 888.465881
v 317.654236 -105.407883 1045.465820
v 317.104614 -106.428986 1045.465820
v 317.654236 -105.407883 888.862244
v 318.438354 -103.950989 888.862244
v 318.987976 -102.929886 1045.465820
v 318.438354 -103.950989 1045.465820
v 318.987976 -102.929886 888.862244
v 319.772095 -101.472984 888.862244
v 320.321716 -100.451889 1045.465820
v 319.772095 -101.472984 1045.465820
v 320.321716 -100.451889 888.862244
v 322.603119 -96.213264 888.465881
v 321.105865 -98.995033 888.862244
v 321.655457 -97.973907 1045.465820
v 321.105865 -98.995033 1045.465820
v 321.655457 -97.973907 888.862244
v 322.439606 -96.517059 888.862244
v 322.439606 -96.517059 1045.465820
v 322.603119 -96.213264 916.465881
v 322.603119 -96.213264 1045.465820
v 322.934204 -95.594269 888.862244
v 322.603119 -96.213264 916.465881
v 322.934204 -95.594269 916.465881
v 324.494843 -92.676468 888.862244
v 322.603119 -96.213264 888.465881
v 324.494843 -92.676468 916.465881
v 324.825928 -92.057457 916.465881
v 324.825928 -92.057457 888.465881
v 322.907471 -96.375748 1045.465820
v 322.907471 -96.375748 916.465881
v 322.603119 -96.213264 916.465881
v 322.603119 -96.213264 1045.465820
v 327.177460 -98.655289 1045.465820
v 327.177460 -98.655289 916.465881
v 324.366974 -97.154907 916.465881
v 324.366974 -97.154907 1045.465820
v 337.285522 -104.051483 1045.465820
v 337.285522 -104.051483 916.465881
v 336.116302 -103.427284 916.465881
v 334.475037 -102.551086 916.465881
v 334.475037 -102.551086 1045.465820
v 339.049408 -104.993088 1045.465820
v 339.049408 -104.993088 916.465881
v 338.745056 -104.830688 916.465881
v 338.745056 -104.830688 1045.465820
v 325.129333 -92.221649 888.862244
v 324.825928 -92.057457 916.465881
v 325.129333 -92.221649 916.465881
v 326.584442 -93.009033 888.862244
v 324.825928 -92.057457 888.465881
v 326.584442 -93.009033 916.465881
v 327.266418 -93.378075 916.465881
v 327.266418 -93.378075 888.862244
v 331.631714 -95.740242 888.862244
v 331.631714 -95.740242 916.465881
v 332.313721 -96.109283 916.465881
v 332.313721 -96.109283 888.862244
v 333.768799 -96.896675 888.862244
v 341.256592 -100.948486 888.465881
v 333.768799 -96.896675 916.465881
v 334.450806 -97.265717 916.465881
v 334.450806 -97.265717 888.862244
v 338.816101 -99.627884 888.862244
v 338.816101 -99.627884 916.465881
v 339.498077 -99.996925 916.465881
v 339.498077 -99.996925 888.862244
v 340.953186 -100.784286 888.862244
v 340.953186 -100.784286 916.465881
v 341.256592 -100.948486 916.465881
v 338.885895 -105.296883 1045.465820
v 338.885895 -105.296883 888.862244
v 339.049408 -104.993088 916.465881
v 339.049408 -104.993088 1045.465820
v 338.101746 -106.753784 888.862244
v 339.049408 -104.993088 888.465881
v 338.101746 -106.753784 1045.465820
v 337.549469 -107.779785 1045.465820
v 337.549469 -107.779785 888.862244
v 336.765320 -109.236687 888.862244
v 336.765320 -109.236687 1045.465820
v 336.213074 -110.262688 1045.465820
v 336.213074 -110.262688 888.862244
v 335.428925 -111.719589 888.862244
v 335.428925 -111.719589 1045.465820
v 334.876648 -112.745583 1045.465820
v 334.876648 -112.745583 888.862244
v 331.256165 -119.471985 888.465881
v 334.092499 -114.202385 888.862244
v 334.092499 -114.202385 1045.465820
v 333.540222 -115.228485 1045.465820
v 333.540222 -115.228485 888.862244
v 332.756104 -116.685287 888.862244
v 332.756104 -116.685287 1045.465820
v 332.203827 -117.711388 1045.465820
v 332.203827 -117.711388 888.862244
v 331.419678 -119.168182 888.862244
v 331.419678 -119.168182 1045.465820
v 331.256165 -119.471985 1045.465820
v 340.945557 -101.518486 888.862244
v 341.256592 -100.948486 916.465881
v 340.945557 -101.518486 916.465881
v 339.360474 -104.423088 888.862244
v 341.256592 -100.948486 888.465881
v 339.360474 -104.423088 916.465881
v 339.049408 -104.993088 916.465881
v 339.049408 -104.993088 888.465881
vt 20.337210 0.440400
vt 20.720539 174.444397
vt 20.337210 174.444397
vt 18.498911 0.440400
vt 20.720539 0.000000
vt 18.498911 174.444397
vt 14.956030 174.444397
vt 14.956030 0.440400
vt 5.764510 0.440400
vt 0.000000 0.000000
vt 5.764510 174.444397
vt 2.221640 174.444397
vt 2.221640 0.440400
vt 0.383330 0.440400
vt 0.383330 174.444397
vt 0.000000 174.444397
vt 2.492680 0.440400
vt 3.147050 174.444397
vt 2.492680 174.444397
vt 0.654370 0.440400
vt 3.147050 0.000000
vt 0.654370 174.444397
vt 0.000000 174.444397
vt 0.000000 0.000000
vt 14.728840 174.444397
vt 14.728840 0.440400
vt 15.112170 174.444397
vt 12.890540 0.440400
vt 15.112170 0.000000
vt 11.602040 174.444397
vt 12.890540 174.444397
vt 11.602040 0.440400
vt 9.763740 0.440400
vt 8.475240 174.444397
vt 9.763740 174.444397
vt 8.475240 0.440400
vt 6.636930 0.440400
vt 5.348440 174.444397
vt 6.636930 174.444397
vt 5.348440 0.440400
vt 0.000000 0.000000
vt 3.510130 0.440400
vt 2.221640 174.444397
vt 3.510130 174.444397
vt 2.221640 0.440400
vt 0.383330 0.440400
vt 0.383330 174.444397
vt 0.000000 31.111111
vt 0.000000 174.444397
vt 4.456590 0.440400
vt 5.236580 31.111111
vt 4.456590 31.111111
vt 0.779980 0.440400
vt 5.236580 0.000000
vt 0.779980 31.111111
vt 0.000000 31.111111
vt 0.000000 0.000000
vt 20.331240 143.333298
vt 20.331240 0.000000
vt 20.714569 0.000000
vt 20.714569 143.333298
vt 14.953050 143.333298
vt 14.953050 0.000000
vt 18.492941 0.000000
vt 18.492941 143.333298
vt 2.221640 143.333298
vt 2.221640 0.000000
vt 3.694320 0.000000
vt 5.761530 0.000000
vt 5.761530 143.333298
vt 0.000000 143.333298
vt 0.000000 0.000000
vt 0.383330 0.000000
vt 0.383330 143.333298
vt 20.374470 0.440400
vt 20.757799 31.111111
vt 20.374470 31.111111
vt 18.536160 0.440400
vt 20.757799 0.000000
vt 18.536160 31.111111
vt 17.674561 31.111111
vt 17.674561 0.440400
vt 12.159650 31.111111
vt 11.298050 31.111111
vt 12.159650 0.440400
vt 11.298050 0.440400
vt 9.459751 0.440400
vt 0.000000 0.000000
vt 9.459751 31.111111
vt 8.598151 31.111111
vt 8.598151 0.440400
vt 3.083240 31.111111
vt 2.221640 31.111111
vt 3.083240 0.440400
vt 2.221640 0.440400
vt 0.383330 0.440400
vt 0.383330 31.111111
vt 0.000000 31.111111
vt 17.886681 174.444397
vt 17.886681 0.440400
vt 18.270020 31.111111
vt 18.270020 174.444397
vt 16.048380 0.440400
vt 18.270020 0.000000
vt 16.048380 174.444397
vt 14.753670 174.444397
vt 14.753670 0.440400
vt 12.915370 0.440400
vt 12.915370 174.444397
vt 11.620660 174.444397
vt 11.620660 0.440400
vt 9.782361 0.440400
vt 9.782361 174.444397
vt 8.487661 174.444397
vt 8.487661 0.440400
vt 0.000000 0.000000
vt 6.649350 0.440400
vt 6.649350 174.444397
vt 5.354650 174.444397
vt 5.354650 0.440400
vt 3.516340 0.440400
vt 3.516340 174.444397
vt 2.221640 174.444397
vt 2.221640 0.440400
vt 0.383330 0.440400
vt 0.383330 174.444397
vt 0.000000 174.444397
vt 4.398120 0.440400
vt 5.119630 31.111111
vt 4.398120 31.111111
vt 0.721510 0.440400
vt 5.119630 0.000000
vt 0.721510 31.111111
vt 0.000000 31.111111
vt 0.000000 0.000000
vn -0.4713 -0.8820 0.0000
vn -0.4715 -0.8819 -0.0001
vn -0.4714 -0.8819 0.0000
vn -0.4713 -0.8820 -0.0001
vn -0.4717 -0.8818 0.0002
vn -0.4711 -0.8821 0.0001
vn -0.4715 -0.8819 0.0000
vn -0.8797 0.4756 0.0000
vn -0.8796 0.4757 -0.0001
vn -0.8796 0.4756 0.0000
vn -0.8796 0.4757 0.0000
vn -0.8797 0.4755 0.0000
vn -0.8805 0.4740 0.0000
vn -0.8807 0.4737 -0.0001
vn -0.8804 0.4741 0.0004
vn -0.8808 0.4734 -0.0003
vn -0.8804 0.4742 0.0001
vn -0.8803 0.4743 0.0003
vn -0.8806 0.4739 -0.0000
vn -0.8806 0.4739 -0.0001
vn -0.8818 0.4716 0.0000
vn -0.8818 0.4717 0.0000
vn 0.4710 0.8821 0.0000
vn 0.4709 0.8822 0.0000
vn 0.4710 0.8822 0.0000
vn 0.4712 0.8820 0.0000
vn 0.4759 0.8795 0.0000
vn 0.4760 0.8795 0.0000
vn 0.4759 0.8795 0.0001
vn 0.4764 0.8792 0.0000
vn 0.4752 0.8799 0.0002
vn 0.4764 0.8792 -0.0004
vn 0.4758 0.8796 -0.0000
vn 0.8806 -0.4739 0.0000
vn 0.8805 -0.4740 0.0000
vn 0.8806 -0.4739 -0.0002
vn 0.8804 -0.4742 0.0000
vn 0.8804 -0.4743 0.0002
vn 0.8808 -0.4735 -0.0001
vn 0.8805 -0.4740 -0.0001
vn 0.8805 -0.4741 -0.0001
vn 0.8803 -0.4744 0.0003
vn 0.8806 -0.4738 0.0000
vn 0.8806 -0.4739 -0.0001
vn 0.8778 -0.4790 0.0000
vn 0.8778 -0.4791 -0.0000
vn 0.4758 0.8795 0.0000
vn 0.4760 0.8794 0.0000
vn 0.8808 -0.4735 0.0003
s off
f 1/1/1 2/2/1 3/3/1
f 4/4/2 5/5/2 1/1/2
f 2/2/1 1/1/1 5/5/1
f 6/6/3 7/7/3 4/4/3
f 7/7/3 8/8/3 4/4/3
f 8/8/4 5/5/4 4/4/4
f 9/9/5 10/10/5 8/8/5
f 8/8/2 10/10/2 5/5/2
f 11/11/3 12/12/3 9/9/3
f 12/12/3 13/13/3 9/9/3
f 13/13/6 10/10/6 9/9/6
f 14/14/7 10/10/7 13/13/7
f 15/15/1 16/16/1 14/14/1
f 16/16/3 10/10/3 14/14/3
f 17/17/8 18/18/8 19/19/8
f 20/20/9 21/21/9 17/17/9
f 18/18/10 17/17/10 21/21/10
f 22/22/11 23/23/11 20/20/11
f 23/23/12 24/24/12 20/20/12
f 24/24/10 21/21/10 20/20/10
f 25/25/13 26/26/13 27/27/13
f 28/28/13 29/29/13 26/26/13
f 27/27/13 26/26/13 29/29/13
f 30/30/13 28/28/13 31/31/13
f 30/30/13 32/32/13 28/28/13
f 32/32/14 29/29/14 28/28/14
f 32/32/15 33/33/15 29/29/15
f 34/34/13 33/33/13 35/35/13
f 34/34/13 36/36/13 33/33/13
f 33/33/16 36/36/16 29/29/16
f 36/36/17 37/37/17 29/29/17
f 38/38/13 37/37/13 39/39/13
f 38/38/13 40/40/13 37/37/13
f 40/40/18 41/41/18 37/37/18
f 37/37/19 41/41/19 29/29/19
f 42/42/17 41/41/17 40/40/17
f 43/43/19 42/42/19 44/44/19
f 43/43/19 45/45/19 42/42/19
f 45/45/20 41/41/20 42/42/20
f 46/46/13 41/41/13 45/45/13
f 46/46/19 47/47/19 48/48/19
f 48/48/13 41/41/13 46/46/13
f 47/47/13 49/49/13 48/48/13
f 50/50/21 51/51/21 52/52/21
f 53/53/21 54/54/21 50/50/21
f 51/51/22 50/50/22 54/54/22
f 55/55/21 56/56/21 53/53/21
f 56/56/21 57/57/21 53/53/21
f 57/57/22 54/54/22 53/53/22
f 58/58/23 59/59/23 60/60/23
f 58/58/24 60/60/24 61/61/24
f 62/62/24 63/63/24 64/64/24
f 62/62/24 64/64/24 65/65/24
f 66/66/25 67/67/25 68/68/25
f 68/68/25 69/69/25 70/70/25
f 66/66/24 68/68/24 70/70/24
f 71/71/23 72/72/23 73/73/23
f 71/71/26 73/73/26 74/74/26
f 75/75/27 76/76/27 77/77/27
f 78/78/27 79/79/27 75/75/27
f 76/76/28 75/75/28 79/79/28
f 80/80/27 81/81/27 78/78/27
f 81/81/27 82/82/27 78/78/27
f 82/82/29 79/79/29 78/78/29
f 84/83/27 85/84/27 83/85/27
f 85/84/27 86/86/27 83/85/27
f 83/85/30 86/86/30 79/79/30
f 87/87/31 88/88/31 86/86/31
f 86/86/28 88/88/28 79/79/28
f 89/89/27 90/90/27 87/87/27
f 90/90/27 91/91/27 87/87/27
f 91/91/32 88/88/32 87/87/32
f 93/92/27 94/93/27 92/94/27
f 94/93/27 95/95/27 92/94/27
f 95/95/29 88/88/29 92/94/29
f 96/96/33 88/88/33 95/95/33
f 97/97/28 98/98/28 96/96/28
f 98/98/27 88/88/27 96/96/27
f 99/99/34 100/100/34 101/101/34
f 101/101/35 102/102/35 99/99/35
f 103/103/35 104/104/35 100/100/35
f 101/101/35 100/100/35 104/104/35
f 103/103/35 105/105/35 106/106/35
f 103/103/35 106/106/35 107/107/35
f 107/107/36 104/104/36 103/103/36
f 107/107/37 108/108/37 104/104/37
f 108/108/35 109/109/35 110/110/35
f 108/108/35 110/110/35 111/111/35
f 108/108/38 111/111/38 104/104/38
f 111/111/39 112/112/39 104/104/39
f 112/112/35 113/113/35 114/114/35
f 112/112/35 114/114/35 115/115/35
f 112/112/40 116/116/40 104/104/40
f 117/117/41 116/116/41 115/115/41
f 117/117/35 118/118/35 119/119/35
f 117/117/34 119/119/34 120/120/34
f 120/120/42 116/116/42 117/117/42
f 121/121/43 116/116/43 120/120/43
f 121/121/34 122/122/34 123/123/34
f 121/121/35 123/123/35 124/124/35
f 124/124/44 116/116/44 121/121/44
f 125/125/43 116/116/43 124/124/43
f 125/125/35 126/126/35 127/127/35
f 125/125/43 127/127/43 116/116/43
f 128/128/45 129/129/45 130/130/45
f 131/131/46 132/132/46 128/128/46
f 129/129/45 128/128/45 132/132/45
f 133/133/45 134/134/45 131/131/45
f 134/134/46 135/135/46 131/131/46
f 135/135/45 132/132/45 131/131/45
s 1
f 82/82/47 83/85/47 79/79/47
f 92/94/48 88/88/48 91/91/48
f 115/115/49 116/116/49 112/112/49
