# Blender v3.0.1 OBJ File: 'rockerfeller_plaza.blend'
# www.blender.org
o geometryt000010000010000110010110000110000100110010110110st63
v 156.753983 -257.913330 581.991760
v 156.753983 -257.913330 566.809937
v 156.076477 -259.212830 566.809937
v 156.076477 -259.212830 581.991760
v 156.337479 -260.185242 581.991760
v 156.337479 -260.185242 566.809937
v 158.935486 -261.542328 566.809937
v 158.935486 -261.542328 581.991760
v 158.612686 -254.352127 566.809937
v 157.256287 -256.950439 566.809937
v 157.256287 -256.950439 581.991760
v 158.612686 -254.352127 581.991760
v 160.846481 -250.073227 581.991760
v 160.846481 -250.073227 566.809937
v 158.811890 -253.970627 566.809937
v 158.811890 -253.970627 581.991760
v 161.723877 -248.392624 581.991760
v 161.723877 -248.392624 566.809937
v 161.045685 -249.691727 566.809937
v 161.045685 -249.691727 581.991760
v 163.279480 -245.412827 566.809937
v 161.922989 -248.011124 566.809937
v 161.922989 -248.011124 581.991760
v 163.279480 -245.412827 581.991760
v 164.156784 -243.732224 581.991760
v 164.156784 -243.732224 566.809937
v 163.478577 -245.031418 566.809937
v 163.478577 -245.031418 581.991760
v 166.390686 -239.453323 581.991760
v 166.390686 -239.453323 566.809937
v 164.355988 -243.350830 566.809937
v 164.355988 -243.350830 581.991760
v 167.946182 -236.473618 566.809937
v 166.589783 -239.071930 566.809937
v 166.589783 -239.071930 581.991760
v 167.946182 -236.473618 581.991760
v 159.698776 -261.551849 566.809937
v 161.055786 -258.953827 566.809937
v 161.055786 -258.953827 581.991760
v 159.698776 -261.551849 581.991760
v 161.369690 -258.352844 566.809937
v 163.405182 -254.455826 566.809937
v 163.405182 -254.455826 581.991760
v 161.369690 -258.352844 581.991760
v 163.719086 -253.854919 566.809937
v 164.397583 -252.555923 566.809937
v 164.397583 -252.555923 581.991760
v 163.719086 -253.854919 581.991760
v 164.711487 -251.954926 566.809937
v 166.746979 -248.057922 566.809937
v 166.746979 -248.057922 581.991760
v 164.711487 -251.954926 581.991760
v 167.060883 -247.457031 566.809937
v 167.739380 -246.158020 566.809937
v 167.739380 -246.158020 581.991760
v 167.060883 -247.457031 581.991760
v 168.053284 -245.557022 581.991760
v 168.053284 -245.557022 566.809937
v 170.088776 -241.660019 566.809937
v 170.088776 -241.660019 581.991760
v 170.402679 -241.059128 581.991760
v 170.402679 -241.059128 566.809937
v 171.759689 -238.461121 566.809937
v 171.759689 -238.461121 581.991760
v 171.312286 -237.838928 581.991760
v 171.312286 -237.838928 566.809937
v 168.713089 -236.484222 566.809937
v 168.713089 -236.484222 581.991760
vt 0.000000 5.000000
vt 0.000000 0.000000
vt 0.333330 0.000000
vt 0.333330 5.000000
vt 0.000000 0.000000
vt 0.666670 0.000000
vt 0.666670 5.000000
vt 0.000000 5.000000
vt 0.000000 5.000000
vt 0.000000 0.000000
vt 1.000000 0.000000
vt 1.000000 5.000000
vt 0.000000 5.000000
vt 0.000000 0.000000
vt 0.333330 0.000000
vt 0.333330 5.000000
vt 0.000000 0.000000
vt 0.666670 0.000000
vt 0.666670 5.000000
vt 0.000000 5.000000
vt 0.000000 5.000000
vt 0.000000 0.000000
vt 0.333330 0.000000
vt 0.333330 5.000000
vt 0.000000 5.000000
vt 0.000000 0.000000
vt 1.000000 0.000000
vt 1.000000 5.000000
vt 0.000000 0.000000
vt 0.666670 0.000000
vt 0.666670 5.000000
vt 0.000000 5.000000
vt 0.000000 0.000000
vt 0.666670 0.000000
vt 0.666670 5.000000
vt 0.000000 5.000000
vt 0.000000 0.000000
vt 0.333330 0.000000
vt 0.333330 5.000000
vt 0.000000 5.000000
vt 0.000000 0.000000
vt 0.333330 0.000000
vt 0.333330 5.000000
vt 0.000000 5.000000
vt 0.000000 5.000000
vt 0.000000 0.000000
vt 0.666670 0.000000
vt 0.666670 5.000000
vt 0.000000 5.000000
vt 0.000000 0.000000
vt 0.666670 0.000000
vt 0.666670 5.000000
vt 0.000000 5.000000
vt 0.000000 0.000000
vt 0.666670 0.000000
vt 0.666670 5.000000
vt 0.000000 0.000000
vt 1.000000 0.000000
vt 1.000000 5.000000
vt 0.000000 5.000000
vt 0.000000 0.000000
vt 1.000000 0.000000
vt 1.000000 5.000000
vt 0.000000 5.000000
vt 0.000000 5.000000
vt 0.000000 0.000000
vt 1.000000 0.000000
vt 1.000000 5.000000
vn -0.8867 0.4623 0.0000
vn -0.8865 0.4628 0.0000
vn 0.8864 -0.4630 0.0000
vn 0.4622 0.8868 0.0000
vn -0.4630 -0.8864 0.0000
s off
f 1/1/1 2/2/1 3/3/1
f 1/1/1 3/3/1 4/4/1
f 9/5/2 10/6/2 11/7/2
f 12/8/2 9/5/2 11/7/2
f 13/9/2 14/10/2 15/11/2
f 13/9/2 15/11/2 16/12/2
f 17/13/2 18/14/2 19/15/2
f 17/13/2 19/15/2 20/16/2
f 21/17/2 22/18/2 23/19/2
f 24/20/2 21/17/2 23/19/2
f 25/21/2 26/22/2 27/23/2
f 25/21/2 27/23/2 28/24/2
f 29/25/2 30/26/2 31/27/2
f 29/25/2 31/27/2 32/28/2
f 33/29/2 34/30/2 35/31/2
f 36/32/2 33/29/2 35/31/2
f 37/33/3 38/34/3 39/35/3
f 40/36/3 37/33/3 39/35/3
f 45/37/3 46/38/3 47/39/3
f 48/40/3 45/37/3 47/39/3
f 53/41/3 54/42/3 55/43/3
f 56/44/3 53/41/3 55/43/3
f 61/45/3 62/46/3 63/47/3
f 61/45/3 63/47/3 64/48/3
f 65/49/4 66/50/4 67/51/4
f 65/49/4 67/51/4 68/52/4
s 1
f 5/53/5 6/54/5 7/55/5
f 5/53/5 7/55/5 8/56/5
f 41/57/3 42/58/3 43/59/3
f 44/60/3 41/57/3 43/59/3
f 49/61/3 50/62/3 51/63/3
f 52/64/3 49/61/3 51/63/3
f 57/65/3 58/66/3 59/67/3
f 57/65/3 59/67/3 60/68/3
