# Blender v3.0.1 OBJ File: 'rockerfeller_plaza.blend'
# www.blender.org
o geometryt000010000010000110010110000110000110100000100110st114_
v 646.083496 -115.151917 677.181519
v 646.083496 -115.151917 659.547729
v 651.349121 -117.921219 659.547729
v 651.349121 -117.921219 677.181519
v 651.983643 -118.254814 659.547729
v 655.932861 -120.331818 659.547729
v 655.932861 -120.331818 677.181519
v 651.983643 -118.254814 677.181519
v 656.567261 -120.665520 677.181519
v 656.567261 -120.665520 659.547729
v 657.883667 -121.357819 659.547729
v 657.883667 -121.357819 677.181519
v 658.518127 -121.691513 677.181519
v 658.518127 -121.691513 659.547729
v 659.834534 -122.383820 659.547729
v 659.834534 -122.383820 677.181519
v 660.468994 -122.717514 659.547729
v 664.418213 -124.794518 659.547729
v 664.418213 -124.794518 677.181519
v 660.468994 -122.717514 677.181519
v 665.052734 -125.128113 677.181519
v 665.052734 -125.128113 659.547729
v 670.318359 -127.897415 659.547729
v 670.318359 -127.897415 677.181519
v 647.601013 -111.552612 674.899841
v 648.297546 -110.238419 659.547729
v 646.207825 -114.180916 659.547729
v 648.297546 -110.238419 687.181519
v 646.207825 -114.180916 674.899841
v 647.601013 -111.552612 687.181519
v 647.694031 -112.113914 687.181519
v 647.694031 -112.113914 677.181519
v 650.326721 -113.498917 677.181519
v 650.326721 -113.498917 687.181519
v 650.745544 -113.719215 687.181519
v 650.745544 -113.719215 677.181519
v 656.010742 -116.489220 677.181519
v 656.010742 -116.489220 687.181519
v 656.429626 -116.709518 687.181519
v 656.429626 -116.709518 677.181519
v 657.745911 -117.402016 677.181519
v 657.745911 -117.402016 687.181519
v 658.164734 -117.622314 677.181519
v 662.113770 -119.699814 677.181519
v 662.113770 -119.699814 687.181519
v 658.164734 -117.622314 687.181519
v 662.532532 -119.920113 687.181519
v 662.532532 -119.920113 677.181519
v 664.139404 -120.765518 677.181519
v 666.481445 -121.997620 687.181519
v 666.481445 -121.997620 677.181519
v 666.900330 -122.217918 687.181519
v 666.900330 -122.217918 677.181519
v 667.489624 -122.527916 677.181519
v 669.532959 -123.602913 687.181519
v 669.532959 -123.602913 677.181519
v 672.514832 -125.171616 682.181519
v 669.951721 -123.823219 677.181519
v 672.514832 -125.171616 677.181519
v 669.951721 -123.823219 687.181519
v 672.584412 -125.208214 677.181519
v 672.584412 -125.208214 682.181519
v 672.514832 -125.171616 687.181519
v 673.003235 -125.428513 677.181519
v 674.319519 -126.121017 677.181519
v 674.319519 -126.121017 680.514832
v 673.003235 -125.428513 680.514832
v 674.738342 -126.341415 680.514832
v 674.738342 -126.341415 677.181519
v 677.371033 -127.726318 677.181519
v 677.371033 -127.726318 680.514832
v 677.789795 -127.946716 680.514832
v 677.789795 -127.946716 677.181519
v 680.422424 -129.331604 677.181519
v 680.422424 -129.331604 680.514832
v 680.841309 -129.552002 680.514832
v 680.841309 -129.552002 677.181519
v 684.790222 -131.629410 677.181519
v 684.790222 -131.629410 680.514832
v 685.209045 -131.849808 680.514832
v 685.209045 -131.849808 677.181519
v 689.158020 -133.927216 677.181519
v 689.158020 -133.927216 680.514832
v 689.576843 -134.147507 677.181519
v 690.893127 -134.840012 677.181519
v 690.893127 -134.840012 680.514832
v 689.576843 -134.147507 680.514832
v 691.312012 -135.060410 680.514832
v 691.312012 -135.060410 677.181519
v 694.450195 -136.711304 677.181519
v 696.577209 -137.830307 680.514832
v 696.577209 -137.830307 677.181519
v 696.996155 -138.050613 677.181519
v 699.628723 -139.435608 677.181519
v 699.628723 -139.435608 680.514832
v 696.996155 -138.050613 680.514832
v 652.700439 -102.048218 692.181519
v 652.700439 -102.048218 659.547729
v 649.175049 -108.596313 659.547729
v 649.175049 -108.596313 692.181519
v 649.032654 -109.588715 687.181519
v 654.297852 -112.358719 687.181519
v 654.297852 -112.358719 692.181519
v 649.032654 -109.588715 692.181519
v 654.654114 -112.546219 692.181519
v 654.654114 -112.546219 687.181519
v 657.286743 -113.931213 687.181519
v 657.286743 -113.931213 692.181519
v 657.643066 -114.118713 687.181519
v 658.959351 -114.811218 687.181519
v 658.959351 -114.811218 692.181519
v 657.643066 -114.118713 692.181519
v 659.315735 -114.998718 692.181519
v 659.315735 -114.998718 687.181519
v 663.264648 -117.076218 687.181519
v 663.264648 -117.076218 692.181519
v 663.620911 -117.263718 692.181519
v 663.620911 -117.263718 687.181519
v 664.937256 -117.956215 687.181519
v 664.937256 -117.956215 692.181519
v 665.293640 -118.143715 692.181519
v 665.293640 -118.143715 687.181519
v 667.926270 -119.528717 687.181519
v 667.926270 -119.528717 692.181519
v 668.282532 -119.716217 692.181519
v 668.282532 -119.716217 687.181519
v 670.263611 -120.758514 687.181519
v 673.547729 -122.486313 692.181519
v 673.547729 -122.486313 687.181519
v 654.494751 -98.680534 677.181519
v 655.673096 -96.458679 659.547729
v 653.582397 -100.400719 659.547729
v 655.673096 -96.458679 677.181519
v 653.582397 -100.400719 687.181519
v 654.279297 -99.086678 677.970215
v 654.279297 -99.086678 687.181519
v 654.494751 -98.680534 677.970215
v 658.719238 -104.146118 687.181519
v 656.730347 -103.100113 687.181519
v 658.719238 -104.146118 692.181519
v 653.453552 -101.377014 692.181519
v 653.453552 -101.377014 687.181519
v 661.699524 -105.713417 687.181519
v 659.066711 -104.328819 687.181519
v 659.066711 -104.328819 692.181519
v 661.699524 -105.713417 692.181519
v 663.363403 -106.588318 692.181519
v 663.363403 -106.588318 687.181519
v 662.046997 -105.896118 687.181519
v 662.046997 -105.896118 692.181519
v 667.660217 -108.847916 692.181519
v 667.660217 -108.847916 687.181519
v 663.710938 -106.771118 687.181519
v 663.710938 -106.771118 692.181519
v 669.324097 -109.722916 692.181519
v 669.324097 -109.722916 687.181519
v 668.007629 -109.030617 687.181519
v 668.007629 -109.030617 692.181519
v 672.304443 -111.290215 692.181519
v 672.304443 -111.290215 687.181519
v 669.671509 -109.905617 687.181519
v 669.671509 -109.905617 692.181519
v 677.917603 -114.242020 687.181519
v 672.651917 -111.472916 687.181519
v 672.651917 -111.472916 692.181519
v 677.917603 -114.242020 692.181519
v 657.430237 -100.230820 687.181519
v 657.430237 -100.230820 677.181519
v 654.797852 -98.845406 677.181519
v 654.797852 -98.845406 687.181519
v 663.311768 -103.326118 687.181519
v 663.311768 -103.326118 677.181519
v 662.848755 -103.082413 677.181519
v 658.046936 -100.555313 687.181519
v 658.046936 -100.555313 677.181519
v 665.244629 -104.343315 677.181519
v 663.928467 -103.650719 677.181519
v 663.928467 -103.650719 687.181519
v 665.244629 -104.343315 687.181519
v 667.177551 -105.360619 687.181519
v 667.177551 -105.360619 677.181519
v 665.861328 -104.667915 677.181519
v 665.861328 -104.667915 687.181519
v 671.742798 -107.763214 687.181519
v 671.742798 -107.763214 677.181519
v 667.794250 -105.685120 677.181519
v 667.794250 -105.685120 687.181519
v 673.675720 -108.780518 687.181519
v 673.675720 -108.780518 677.181519
v 672.359497 -108.087814 677.181519
v 672.359497 -108.087814 687.181519
v 675.608643 -109.797714 687.181519
v 675.608643 -109.797714 677.181519
v 674.292419 -109.105019 677.181519
v 674.292419 -109.105019 687.181519
v 681.490112 -112.893013 677.181519
v 679.561157 -111.877914 677.181519
v 681.490112 -112.893013 680.422607
v 678.857727 -111.507713 680.514832
v 676.225342 -110.122314 677.181519
v 681.388916 -112.839813 680.514832
v 676.225342 -110.122314 687.181519
v 678.857727 -111.507713 687.181519
v 681.086914 -108.784813 677.181519
v 708.016418 -122.950813 659.547729
v 656.679443 -95.945374 659.547729
v 708.016418 -122.950813 677.181519
v 656.679443 -95.945374 677.181519
v 670.928955 -128.218704 659.547729
v 676.193420 -130.990005 659.547729
v 676.193420 -130.990005 677.181519
v 670.928955 -128.218704 677.181519
v 676.871521 -131.346909 659.547729
v 680.819946 -133.425308 659.547729
v 680.819946 -133.425308 677.181519
v 676.871521 -131.346909 677.181519
v 681.497925 -133.782303 659.547729
v 684.130249 -135.167908 659.547729
v 684.130249 -135.167908 677.181519
v 681.497925 -133.782303 677.181519
v 684.808228 -135.524811 677.181519
v 684.808228 -135.524811 659.547729
v 687.440552 -136.910416 659.547729
v 687.440552 -136.910416 677.181519
v 688.118652 -137.267410 677.181519
v 688.118652 -137.267410 659.547729
v 692.067017 -139.345810 659.547729
v 692.067017 -139.345810 677.181519
v 692.744995 -139.702713 677.181519
v 692.744995 -139.702713 659.547729
v 698.009644 -142.474014 659.547729
v 698.009644 -142.474014 677.181519
v 673.630005 -123.067719 682.181519
v 672.903442 -124.438416 685.514832
v 672.903442 -124.438416 682.181519
v 673.853027 -122.646919 682.181519
v 674.296631 -121.810120 685.514832
v 676.974426 -116.758118 682.181519
v 677.494629 -115.776619 682.181519
v 677.779419 -115.239319 685.514832
v 678.223022 -114.402618 682.181519
v 679.172607 -112.611015 682.181519
v 679.172607 -112.611015 685.514832
v 677.779419 -115.239319 692.181519
v 674.296631 -121.810120 692.181519
v 688.283569 -116.466415 682.181519
v 688.283569 -116.466415 677.181519
v 685.045044 -114.762718 677.181519
v 684.334595 -114.389015 677.829285
v 684.334595 -114.389015 682.181519
v 690.119019 -117.432014 677.181519
v 688.802734 -116.739517 677.181519
v 688.802734 -116.739517 682.181519
v 690.119019 -117.432014 682.181519
v 695.903442 -120.475014 682.181519
v 695.903442 -120.475014 677.181519
v 690.638123 -117.705116 677.181519
v 690.638123 -117.705116 682.181519
v 697.738953 -121.440613 682.181519
v 697.738953 -121.440613 677.181519
v 696.422607 -120.748116 677.181519
v 696.422607 -120.748116 682.181519
v 703.523315 -124.483620 677.181519
v 698.258057 -121.713715 677.181519
v 698.258057 -121.713715 682.181519
v 703.523315 -124.483620 682.181519
v 706.675110 -126.141617 682.181519
v 706.675110 -126.141617 677.181519
v 704.042419 -124.756714 677.181519
v 704.042419 -124.756714 682.181519
v 698.774719 -141.771713 677.181519
v 698.774719 -141.771713 659.547729
v 699.474243 -140.459106 659.547729
v 699.474243 -140.459106 677.181519
v 700.110107 -139.298813 659.547729
v 701.500366 -136.669006 659.547729
v 701.500366 -136.669006 682.181519
v 700.110107 -139.298813 682.181519
v 701.842834 -136.021103 682.181519
v 701.842834 -136.021103 659.547729
v 702.537964 -134.706207 659.547729
v 702.537964 -134.706207 682.181519
v 702.880432 -134.058411 659.547729
v 705.660828 -128.798615 659.547729
v 705.660828 -128.798615 682.181519
v 702.880432 -134.058411 682.181519
v 706.003235 -128.150803 659.547729
v 706.698364 -126.835915 659.547729
v 706.698364 -126.835915 682.181519
v 706.003235 -128.150803 682.181519
v 707.040833 -126.188019 659.547729
v 708.431030 -123.558212 659.547729
v 708.431030 -123.558212 677.181519
v 707.040833 -126.188019 677.181519
vt 0.000000 1.666670
vt 0.000000 0.000000
vt 1.333330 0.000000
vt 1.333330 1.666670
vt 0.000000 0.000000
vt 1.000000 0.000000
vt 1.000000 1.666670
vt 0.000000 1.666670
vt 0.000000 1.666670
vt 0.000000 0.000000
vt 0.333330 0.000000
vt 0.333330 1.666670
vt 0.000000 1.666670
vt 0.000000 0.000000
vt 0.333330 0.000000
vt 0.333330 1.666670
vt 0.000000 0.000000
vt 1.000000 0.000000
vt 1.000000 1.666670
vt 0.000000 1.666670
vt 0.000000 1.666670
vt 0.000000 0.000000
vt 1.333330 0.000000
vt 1.333330 1.666670
vt 0.333330 1.666670
vt 0.000000 0.000000
vt 1.000000 0.000000
vt 0.000000 3.000000
vt 1.000000 1.666670
vt 0.333330 3.000000
vt 0.000000 1.000000
vt 0.000000 0.000000
vt 0.666670 0.000000
vt 0.666670 1.000000
vt 0.000000 1.000000
vt 0.000000 0.000000
vt 1.333330 0.000000
vt 1.333330 1.000000
vt 0.000000 1.000000
vt 0.000000 0.000000
vt 0.333330 0.000000
vt 0.333330 1.000000
vt 0.000000 0.000000
vt 1.000000 0.000000
vt 1.000000 1.000000
vt 0.000000 1.000000
vt 0.000000 1.000000
vt 0.000000 0.000000
vt 0.406930 0.000000
vt 1.000000 1.000000
vt 1.000000 0.000000
vt 0.000000 1.000000
vt 0.000000 0.000000
vt 0.149230 0.000000
vt 0.666670 1.000000
vt 0.666670 0.000000
vt 0.649050 0.500000
vt 0.000000 0.000000
vt 0.649050 0.000000
vt 0.000000 1.000000
vt 0.649050 1.000000
vt 0.000000 0.000000
vt 0.333330 0.000000
vt 0.333330 0.333330
vt 0.000000 0.333330
vt 0.000000 0.333330
vt 0.000000 0.000000
vt 0.666670 0.000000
vt 0.666670 0.333330
vt 0.000000 0.333330
vt 0.000000 0.000000
vt 0.666670 0.000000
vt 0.666670 0.333330
vt 0.000000 0.333330
vt 0.000000 0.000000
vt 1.000000 0.000000
vt 1.000000 0.333330
vt 0.000000 0.333330
vt 0.000000 0.000000
vt 1.000000 0.000000
vt 1.000000 0.333330
vt 0.000000 0.000000
vt 0.333330 0.000000
vt 0.333330 0.333330
vt 0.000000 0.333330
vt 0.000000 0.333330
vt 0.000000 0.000000
vt 0.794690 0.000000
vt 1.333330 0.333330
vt 0.000000 0.000000
vt 0.666670 0.000000
vt 0.666670 0.333330
vt 0.000000 0.333330
vt 0.000000 0.000000
vt 1.333330 0.000000
vt 1.333330 0.333330
vt 0.000000 0.333330
vt 0.000000 0.333330
vt 0.000000 0.000000
vt 0.666670 0.000000
vt 0.666670 0.333330
vt 0.000000 0.000000
vt 0.333330 0.000000
vt 0.333330 0.333330
vt 0.000000 0.333330
vt 0.000000 0.333330
vt 0.000000 0.000000
vt 1.000000 0.000000
vt 1.000000 0.333330
vt 0.000000 0.333330
vt 0.000000 0.000000
vt 0.333330 0.000000
vt 0.333330 0.333330
vt 0.000000 0.333330
vt 0.000000 0.000000
vt 0.666670 0.000000
vt 0.666670 0.333330
vt 0.000000 0.333330
vt 0.000000 0.000000
vt 0.501690 0.000000
vt 1.333330 0.333330
vt 1.333330 0.000000
vt 0.563640 1.276250
vt 0.000000 0.000000
vt 1.000000 0.000000
vt 0.000000 1.276250
vt 1.000000 2.000000
vt 0.666670 1.333330
vt 0.666670 2.000000
vt 0.563640 1.333330
vt 0.000000 0.000000
vt 0.503620 0.000000
vt 0.000000 0.333330
vt 1.333330 0.333330
vt 1.333330 0.000000
vt 0.000000 0.000000
vt 0.666670 0.000000
vt 0.666670 0.333330
vt 0.000000 0.333330
vt 0.000000 0.333330
vt 0.000000 0.000000
vt 0.333330 0.000000
vt 0.333330 0.333330
vt 0.000000 0.333330
vt 0.000000 0.000000
vt 1.000000 0.000000
vt 1.000000 0.333330
vt 0.000000 0.333330
vt 0.000000 0.000000
vt 0.333330 0.000000
vt 0.333330 0.333330
vt 0.000000 0.333330
vt 0.000000 0.000000
vt 0.666670 0.000000
vt 0.666670 0.333330
vt 0.000000 0.000000
vt 1.333330 0.000000
vt 1.333330 0.333330
vt 0.000000 0.333330
vt 0.000000 1.000000
vt 0.000000 0.000000
vt 0.666670 0.000000
vt 0.666670 1.000000
vt 0.000000 1.000000
vt 0.000000 0.000000
vt 0.117260 0.000000
vt 1.333330 1.000000
vt 1.333330 0.000000
vt 0.000000 0.000000
vt 0.333330 0.000000
vt 0.333330 1.000000
vt 0.000000 1.000000
vt 0.000000 1.000000
vt 0.000000 0.000000
vt 0.333330 0.000000
vt 0.333330 1.000000
vt 0.000000 1.000000
vt 0.000000 0.000000
vt 1.000000 0.000000
vt 1.000000 1.000000
vt 0.000000 1.000000
vt 0.000000 0.000000
vt 0.333330 0.000000
vt 0.333330 1.000000
vt 0.000000 1.000000
vt 0.000000 0.000000
vt 0.333330 0.000000
vt 0.333330 1.000000
vt 0.000000 0.000000
vt 0.488520 0.000000
vt 0.000000 0.324110
vt 0.666670 0.333330
vt 1.333330 0.000000
vt 0.025630 0.333330
vt 1.333330 1.000000
vt 0.666670 1.000000
vt 6.819320 1.333330
vt 0.000000 0.000000
vt 13.000000 0.000000
vt 0.000000 1.333330
vt 13.000000 1.333330
vt 0.000000 0.000000
vt 1.333330 0.000000
vt 1.333330 1.666670
vt 0.000000 1.666670
vt 0.000000 0.000000
vt 1.000000 0.000000
vt 1.000000 1.666670
vt 0.000000 1.666670
vt 0.000000 0.000000
vt 0.666670 0.000000
vt 0.666670 1.666670
vt 0.000000 1.666670
vt 0.000000 1.666670
vt 0.000000 0.000000
vt 0.666670 0.000000
vt 0.666670 1.666670
vt 0.000000 1.666670
vt 0.000000 0.000000
vt 1.000000 0.000000
vt 1.000000 1.666670
vt 0.000000 1.666670
vt 0.000000 0.000000
vt 1.333330 0.000000
vt 1.333330 1.666670
vt 0.347690 0.000000
vt 0.000000 0.333330
vt 0.000000 0.000000
vt 0.454420 0.000000
vt 0.666670 0.333330
vt 1.948110 0.000000
vt 2.197050 0.000000
vt 2.333330 0.333330
vt 2.545580 0.000000
vt 3.000000 0.000000
vt 3.000000 0.333330
vt 2.333330 1.000000
vt 0.666670 1.000000
vt 0.000000 0.333330
vt 0.000000 0.000000
vt 0.820100 0.000000
vt 1.000000 0.043180
vt 1.000000 0.333330
vt 0.000000 0.000000
vt 0.333330 0.000000
vt 0.333330 0.333330
vt 0.000000 0.333330
vt 0.000000 0.333330
vt 0.000000 0.000000
vt 1.333330 0.000000
vt 1.333330 0.333330
vt 0.000000 0.333330
vt 0.000000 0.000000
vt 0.333330 0.000000
vt 0.333330 0.333330
vt 0.000000 0.000000
vt 1.333330 0.000000
vt 1.333330 0.333330
vt 0.000000 0.333330
vt 0.000000 0.333330
vt 0.000000 0.000000
vt 0.666670 0.000000
vt 0.666670 0.333330
vt 0.000000 1.666670
vt 0.000000 0.000000
vt 0.333330 0.000000
vt 0.333330 1.666670
vt 0.000000 0.000000
vt 0.666670 0.000000
vt 0.666670 1.666670
vt 0.000000 1.666670
vt 0.000000 1.666670
vt 0.000000 0.000000
vt 0.333330 0.000000
vt 0.333330 1.666670
vt 0.000000 0.000000
vt 1.333330 0.000000
vt 1.333330 1.666670
vt 0.000000 1.666670
vt 0.000000 0.000000
vt 0.333330 0.000000
vt 0.333330 1.666670
vt 0.000000 1.666670
vt 0.000000 0.000000
vt 0.666670 0.000000
vt 0.666670 1.298490
vt 0.000000 1.298490
vt 0.666670 0.000000
vt 0.666670 0.500000
vt 1.333330 0.000000
vt 0.000000 2.666670
vt 0.000000 0.000000
vt 1.666670 0.000000
vt 1.666670 2.666670
vn -0.4655 -0.8851 0.0000
vn -0.8836 0.4683 0.0000
vn -0.8835 0.4683 0.0000
vn -0.4656 -0.8850 0.0000
vn -0.4655 -0.8850 0.0000
vn -0.8835 0.4685 0.0000
vn -0.8834 0.4685 0.0000
vn -0.8834 0.4687 -0.0000
vn -0.8834 0.4686 0.0000
vn 0.4655 0.8851 0.0000
vn 0.4654 0.8851 0.0000
vn 0.4657 0.8849 0.0000
vn 0.4658 0.8849 0.0000
vn 0.4657 0.8850 0.0000
vn 0.4654 0.8851 0.0002
vn 0.4656 0.8850 0.0000
vn -0.4658 -0.8849 0.0000
vn 0.8835 -0.4683 0.0000
vn 0.8836 -0.4682 -0.0000
vn 0.8836 -0.4683 -0.0000
vn 0.8835 -0.4684 0.0000
vn 0.4655 0.8850 0.0000
vn 0.8825 -0.4703 0.0000
vn 0.8841 -0.4674 0.0000
vn 0.8840 -0.4674 0.0000
vn 0.8841 -0.4673 0.0000
vn -0.4661 -0.8847 -0.0000
vn -0.4653 -0.8852 0.0000
vn -0.8805 0.4740 0.0000
s off
f 1/1/1 2/2/1 3/3/1
f 1/1/1 3/3/1 4/4/1
f 5/5/1 6/6/1 7/7/1
f 8/8/1 5/5/1 7/7/1
f 9/9/1 10/10/1 11/11/1
f 9/9/1 11/11/1 12/12/1
f 13/13/1 14/14/1 15/15/1
f 13/13/1 15/15/1 16/16/1
f 17/17/1 18/18/1 19/19/1
f 20/20/1 17/17/1 19/19/1
f 21/21/1 22/22/1 23/23/1
f 21/21/1 23/23/1 24/24/1
f 25/25/2 26/26/2 27/27/2
f 28/28/2 26/26/2 25/25/2
f 25/25/3 27/27/3 29/29/3
f 30/30/2 28/28/2 25/25/2
f 31/31/4 32/32/4 33/33/4
f 31/31/4 33/33/4 34/34/4
f 35/35/4 36/36/4 37/37/4
f 35/35/4 37/37/4 38/38/4
f 39/39/4 40/40/4 41/41/4
f 39/39/4 41/41/4 42/42/4
f 43/43/4 44/44/4 45/45/4
f 46/46/4 43/43/4 45/45/4
f 47/47/4 48/48/4 49/49/4
f 50/50/4 49/49/4 51/51/4
f 50/50/4 47/47/4 49/49/4
f 52/52/4 53/53/4 54/54/4
f 55/55/4 54/54/4 56/56/4
f 55/55/4 52/52/4 54/54/4
f 57/57/4 58/58/4 59/59/4
f 60/60/4 58/58/4 57/57/4
f 63/61/4 60/60/4 57/57/4
f 64/62/4 65/63/4 66/64/4
f 67/65/4 64/62/4 66/64/4
f 68/66/5 69/67/5 70/68/5
f 68/66/4 70/68/4 71/69/4
f 72/70/4 73/71/4 74/72/4
f 72/70/4 74/72/4 75/73/4
f 76/74/4 77/75/4 78/76/4
f 76/74/4 78/76/4 79/77/4
f 80/78/4 81/79/4 82/80/4
f 80/78/4 82/80/4 83/81/4
f 84/82/4 85/83/4 86/84/4
f 87/85/4 84/82/4 86/84/4
f 88/86/4 89/87/4 90/88/4
f 91/89/4 88/86/4 90/88/4
f 93/90/4 94/91/4 95/92/4
f 96/93/4 93/90/4 95/92/4
f 101/94/4 102/95/4 103/96/4
f 104/97/4 101/94/4 103/96/4
f 105/98/4 106/99/4 107/100/4
f 105/98/4 107/100/4 108/101/4
f 109/102/4 110/103/4 111/104/4
f 112/105/4 109/102/4 111/104/4
f 113/106/4 114/107/4 115/108/4
f 113/106/4 115/108/4 116/109/4
f 117/110/4 118/111/4 119/112/4
f 117/110/4 119/112/4 120/113/4
f 121/114/4 122/115/4 123/116/4
f 121/114/4 123/116/4 124/117/4
f 125/118/4 126/119/4 127/120/4
f 128/121/4 127/120/4 129/122/4
f 128/121/4 125/118/4 127/120/4
f 130/123/6 131/124/6 132/125/6
f 133/126/7 131/124/7 130/123/7
f 134/127/6 135/128/6 132/125/6
f 135/128/8 130/123/8 132/125/8
f 136/129/6 135/128/6 134/127/6
f 135/128/9 137/130/9 130/123/9
f 138/131/10 139/132/10 140/133/10
f 141/134/11 139/132/11 142/135/11
f 140/133/11 139/132/11 141/134/11
f 143/136/10 144/137/10 145/138/10
f 146/139/10 143/136/10 145/138/10
f 147/140/11 148/141/11 149/142/11
f 147/140/11 149/142/11 150/143/11
f 151/144/11 152/145/11 153/146/11
f 151/144/11 153/146/11 154/147/11
f 155/148/10 156/149/10 157/150/10
f 155/148/11 157/150/11 158/151/11
f 159/152/11 160/153/11 161/154/11
f 159/152/11 161/154/11 162/155/11
f 163/156/11 164/157/11 165/158/11
f 166/159/10 163/156/10 165/158/10
f 167/160/12 168/161/12 169/162/12
f 167/160/12 169/162/12 170/163/12
f 171/164/13 172/165/13 173/166/13
f 174/167/12 173/166/12 175/168/12
f 174/167/12 171/164/12 173/166/12
f 176/169/12 177/170/12 178/171/12
f 179/172/14 176/169/14 178/171/14
f 180/173/12 181/174/12 182/175/12
f 180/173/12 182/175/12 183/176/12
f 184/177/12 185/178/12 186/179/12
f 184/177/12 186/179/12 187/180/12
f 188/181/12 189/182/12 190/183/12
f 188/181/12 190/183/12 191/184/12
f 192/185/13 193/186/13 194/187/13
f 192/185/12 194/187/12 195/188/12
f 196/189/12 197/190/12 198/191/12
f 199/192/12 197/190/12 200/193/12
f 201/194/12 197/190/12 199/192/12
f 198/191/15 197/190/15 201/194/15
f 202/195/12 199/192/12 200/193/12
f 202/195/12 203/196/12 199/192/12
f 204/197/16 205/198/16 206/199/16
f 207/200/16 205/198/16 204/197/16
f 204/197/16 206/199/16 208/201/16
f 209/202/17 210/203/17 211/204/17
f 212/205/17 209/202/17 211/204/17
f 213/206/17 214/207/17 215/208/17
f 216/209/17 213/206/17 215/208/17
f 217/210/17 218/211/17 219/212/17
f 220/213/17 217/210/17 219/212/17
f 221/214/17 222/215/17 223/216/17
f 221/214/17 223/216/17 224/217/17
f 225/218/17 226/219/17 227/220/17
f 225/218/17 227/220/17 228/221/17
f 229/222/17 230/223/17 231/224/17
f 229/222/17 231/224/17 232/225/17
f 233/226/18 234/227/18 235/228/18
f 233/226/19 236/229/19 237/230/19
f 233/226/18 237/230/18 234/227/18
f 237/230/20 236/229/20 238/231/20
f 238/231/20 239/232/20 240/233/20
f 238/231/18 240/233/18 237/230/18
f 240/233/21 239/232/21 241/234/21
f 241/234/20 242/235/20 243/236/20
f 241/234/18 243/236/18 240/233/18
f 244/237/20 237/230/20 240/233/20
f 237/230/20 244/237/20 245/238/20
f 246/239/16 247/240/16 248/241/16
f 249/242/22 246/239/22 248/241/22
f 250/243/16 246/239/16 249/242/16
f 251/244/16 252/245/16 253/246/16
f 254/247/16 251/244/16 253/246/16
f 255/248/16 256/249/16 257/250/16
f 255/248/16 257/250/16 258/251/16
f 259/252/16 260/253/16 261/254/16
f 259/252/16 261/254/16 262/255/16
f 263/256/16 264/257/16 265/258/16
f 266/259/16 263/256/16 265/258/16
f 267/260/16 268/261/16 269/262/16
f 267/260/22 269/262/22 270/263/22
f 271/264/23 272/265/23 273/266/23
f 271/264/23 273/266/23 274/267/23
f 275/268/24 276/269/24 277/270/24
f 278/271/24 275/268/24 277/270/24
f 279/272/25 280/273/25 281/274/25
f 279/272/26 281/274/26 282/275/26
f 283/276/26 284/277/26 285/278/26
f 286/279/26 283/276/26 285/278/26
f 287/280/26 288/281/26 289/282/26
f 290/283/24 287/280/24 289/282/24
f 291/284/26 292/285/26 293/286/26
f 294/287/24 291/284/24 293/286/24
s 1
f 61/288/27 57/57/4 59/59/17
f 62/289/28 57/57/4 61/288/27
f 91/89/4 90/88/4 92/290/4
f 97/291/29 98/292/29 99/293/29
f 97/291/29 99/293/29 100/294/29
