# Blender v3.0.1 OBJ File: 'rockerfeller_plaza.blend'
# www.blender.org
o geometryt000010000010000110010110000110000110100100000000st111
v 464.228943 -111.342682 888.714050
v 464.065552 -111.646484 905.104370
v 464.228943 -111.342682 905.104370
v 465.786316 -108.447189 888.714050
v 464.065552 -111.646484 888.604370
v 465.786316 -108.447189 905.104370
v 466.331024 -107.434288 905.104370
v 466.331024 -107.434288 888.714050
v 467.888428 -104.538788 888.714050
v 467.888428 -104.538788 905.104370
v 468.433136 -103.525887 905.104370
v 468.433136 -103.525887 888.714050
v 469.211823 -102.078087 888.714050
v 469.211823 -102.078087 905.104370
v 469.756531 -101.065285 905.104370
v 469.756531 -101.065285 888.714050
v 472.092529 -96.721977 888.714050
v 472.092529 -96.721977 905.104370
v 472.637329 -95.709114 905.104370
v 472.637329 -95.709114 888.714050
v 477.783630 -86.140732 888.604370
v 473.416016 -94.261353 888.714050
v 473.416016 -94.261353 905.104370
v 473.960724 -93.248482 905.104370
v 473.960724 -93.248482 888.714050
v 475.518127 -90.352966 888.714050
v 475.518127 -90.352966 905.104370
v 476.062836 -89.340096 905.104370
v 476.062836 -89.340096 888.714050
v 477.620117 -86.444572 888.714050
v 477.620117 -86.444572 905.104370
v 477.783630 -86.140732 905.104370
v 467.845123 -113.680885 888.714050
v 468.729614 -114.156982 905.104370
v 467.845123 -113.680885 905.104370
v 464.950012 -112.122589 888.714050
v 468.729614 -114.156982 888.604370
v 464.950012 -112.122589 905.104370
v 464.065552 -111.646484 905.104370
v 464.065552 -111.646484 888.604370
v 482.284241 -88.954994 888.714050
v 482.447632 -88.651154 905.104370
v 482.284241 -88.954994 905.104370
v 480.726837 -91.850525 888.714050
v 482.447632 -88.651154 888.604370
v 480.726837 -91.850525 905.104370
v 480.182129 -92.863388 905.104370
v 480.182129 -92.863388 888.714050
v 478.624817 -95.758919 888.714050
v 478.624817 -95.758919 905.104370
v 478.080017 -96.771782 905.104370
v 478.080017 -96.771782 888.714050
v 477.301331 -98.219543 888.714050
v 477.301331 -98.219543 905.104370
v 476.756622 -99.232407 905.104370
v 476.756622 -99.232407 888.714050
v 474.420624 -103.575684 888.714050
v 468.729614 -114.156982 888.604370
v 474.420624 -103.575684 905.104370
v 473.875824 -104.588585 905.104370
v 473.875824 -104.588585 888.714050
v 473.097229 -106.036285 888.714050
v 473.097229 -106.036285 905.104370
v 472.552429 -107.049187 905.104370
v 472.552429 -107.049187 888.714050
v 470.995117 -109.944687 888.714050
v 470.995117 -109.944687 905.104370
v 470.450317 -110.957588 905.104370
v 470.450317 -110.957588 888.714050
v 468.893036 -113.853088 888.714050
v 468.893036 -113.853088 905.104370
v 468.729614 -114.156982 905.104370
v 478.668152 -86.616814 888.714050
v 477.783630 -86.140732 905.104370
v 478.668152 -86.616814 905.104370
v 482.447632 -88.651154 888.604370
v 481.563110 -88.175079 888.714050
v 477.783630 -86.140732 888.604370
v 481.563110 -88.175079 905.104370
v 482.447632 -88.651154 905.104370
vt 153.848495 0.589830
vt 155.703400 88.709679
vt 153.848495 88.709679
vt 136.172394 0.589830
vt 155.703400 0.000000
vt 136.172394 88.709679
vt 129.989304 88.709679
vt 129.989304 0.589830
vt 112.313202 88.709679
vt 106.129997 88.709679
vt 112.313202 0.589830
vt 106.129997 0.589830
vt 97.291931 0.589830
vt 97.291931 88.709679
vt 91.108772 88.709679
vt 91.108772 0.589830
vt 64.594597 0.589830
vt 64.594597 88.709679
vt 58.411442 88.709679
vt 58.411442 0.589830
vt 0.000000 0.000000
vt 49.573391 88.709679
vt 43.390228 88.709679
vt 49.573391 0.589830
vt 43.390228 0.589830
vt 25.714109 88.709679
vt 19.530951 88.709679
vt 25.714109 0.589830
vt 19.530951 0.589830
vt 1.854840 88.709679
vt 0.000000 88.709679
vt 1.854840 0.589830
vt 23.076630 0.589830
vt 28.477150 88.709679
vt 23.076630 88.709679
vt 5.400520 0.589830
vt 28.477150 0.000000
vt 5.400520 88.709679
vt 0.000000 88.709679
vt 0.000000 0.000000
vt 153.848602 0.589830
vt 155.703400 88.709679
vt 153.848602 88.709679
vt 136.172394 0.589830
vt 155.703400 0.000000
vt 136.172394 88.709679
vt 129.989304 88.709679
vt 129.989304 0.589830
vt 112.313202 0.589830
vt 112.313202 88.709679
vt 106.129997 88.709679
vt 106.129997 0.589830
vt 97.291946 88.709679
vt 91.108780 88.709679
vt 97.291946 0.589830
vt 91.108780 0.589830
vt 0.000000 0.000000
vt 64.594612 88.709679
vt 58.411449 88.709679
vt 64.594612 0.589830
vt 58.411449 0.589830
vt 49.573391 88.709679
vt 43.390228 88.709679
vt 49.573391 0.589830
vt 43.390228 0.589830
vt 25.714121 0.589830
vt 25.714121 88.709679
vt 19.530951 88.709679
vt 19.530951 0.589830
vt 1.854840 0.589830
vt 1.854840 88.709679
vt 0.000000 88.709679
vt 23.076590 0.589830
vt 28.477070 88.709679
vt 23.076590 88.709679
vt 0.000000 0.000000
vt 5.400480 0.589830
vt 28.477070 0.000000
vt 5.400480 88.709679
vt 0.000000 88.709679
vn -0.8807 0.4736 0.0000
vn -0.8807 0.4738 -0.0001
vn -0.8807 0.4737 0.0000
vn -0.8824 0.4705 0.0000
vn -0.8816 0.4720 0.0000
vn -0.8807 0.4738 -0.0005
vn -0.8806 0.4738 0.0000
vn -0.4740 -0.8805 0.0000
vn -0.4742 -0.8804 0.0001
vn -0.4737 -0.8807 -0.0002
vn 0.8808 -0.4736 0.0000
vn 0.8809 -0.4733 -0.0003
vn 0.8807 -0.4736 0.0000
vn 0.8807 -0.4737 0.0000
vn 0.8812 -0.4728 0.0000
vn 0.8804 -0.4743 0.0000
vn 0.8812 -0.4728 0.0003
vn 0.8809 -0.4733 0.0002
vn 0.8808 -0.4735 0.0000
vn 0.4740 0.8805 0.0000
vn 0.4744 0.8803 -0.0002
vn 0.4738 0.8806 -0.0001
vn 0.4739 0.8806 0.0000
vn -0.8806 0.4739 -0.0004
vn -0.8808 0.4734 -0.0010
vn -0.8811 0.4730 -0.0019
vn -0.8811 0.4729 -0.0014
vn -0.8811 0.4729 0.0010
vn -0.8776 0.4794 0.0001
vn -0.8806 0.4738 -0.0002
vn -0.8824 0.4706 0.0007
vn -0.8794 0.4762 0.0004
vn -0.8812 0.4728 -0.0005
vn -0.8811 0.4729 0.0002
vn -0.8806 0.4739 -0.0003
vn 0.8802 -0.4746 0.0008
vn 0.8811 -0.4729 -0.0005
vn 0.8824 -0.4705 -0.0010
vn 0.8808 -0.4734 -0.0005
vn 0.8776 -0.4793 0.0001
vn 0.8776 -0.4794 0.0000
vn 0.8808 -0.4735 0.0005
vn 0.8807 -0.4737 -0.0006
vn 0.8811 -0.4729 -0.0019
vn 0.8800 -0.4750 -0.0013
vn 0.8811 -0.4729 0.0001
s off
f 1/1/1 2/2/1 3/3/1
f 4/4/2 5/5/2 1/1/2
f 2/2/3 1/1/3 5/5/3
f 6/6/1 7/7/1 4/4/1
f 7/7/1 8/8/1 4/4/1
f 10/9/1 11/10/1 9/11/1
f 11/10/3 12/12/3 9/11/3
f 12/12/4 13/13/4 5/5/4
f 14/14/3 15/15/3 13/13/3
f 15/15/3 16/16/3 13/13/3
f 16/16/5 17/17/5 5/5/5
f 18/18/3 19/19/3 17/17/3
f 19/19/3 20/20/3 17/17/3
f 17/17/6 21/21/6 5/5/6
f 23/22/1 24/23/1 22/24/1
f 24/23/1 25/25/1 22/24/1
f 27/26/1 28/27/1 26/28/1
f 28/27/3 29/29/3 26/28/3
f 31/30/7 32/31/7 30/32/7
f 32/31/7 21/21/7 30/32/7
f 33/33/8 34/34/8 35/35/8
f 36/36/9 37/37/9 33/33/9
f 34/34/8 33/33/8 37/37/8
f 38/38/8 39/39/8 36/36/8
f 39/39/8 40/40/8 36/36/8
f 40/40/10 37/37/10 36/36/10
f 41/41/11 42/42/11 43/43/11
f 44/44/12 45/45/12 41/41/12
f 42/42/13 41/41/13 45/45/13
f 46/46/14 47/47/14 44/44/14
f 47/47/13 48/48/13 44/44/13
f 48/48/15 49/49/15 45/45/15
f 50/50/14 51/51/14 49/49/14
f 51/51/14 52/52/14 49/49/14
f 54/53/13 55/54/13 53/55/13
f 55/54/14 56/56/14 53/55/14
f 56/56/16 58/57/16 45/45/16
f 59/58/14 60/59/14 57/60/14
f 60/59/14 61/61/14 57/60/14
f 63/62/14 64/63/14 62/64/14
f 64/63/14 65/65/14 62/64/14
f 66/66/17 58/57/17 65/65/17
f 67/67/14 68/68/14 66/66/14
f 68/68/14 69/69/14 66/66/14
f 70/70/18 58/57/18 69/69/18
f 71/71/19 72/72/19 70/70/19
f 72/72/14 58/57/14 70/70/14
f 73/73/20 74/74/20 75/75/20
f 76/76/21 73/73/21 77/77/21
f 76/76/22 78/78/22 73/73/22
f 74/74/23 73/73/23 78/78/23
f 79/79/20 80/80/20 77/77/20
f 80/80/23 76/76/23 77/77/23
s 1
f 8/8/24 5/5/25 4/4/26
f 8/8/24 9/11/27 5/5/25
f 9/11/27 12/12/27 5/5/25
f 13/13/28 16/16/28 5/5/28
f 20/20/29 21/21/30 17/17/29
f 22/24/31 21/21/30 20/20/29
f 25/25/32 21/21/30 22/24/31
f 26/28/33 21/21/30 25/25/32
f 29/29/34 21/21/30 26/28/33
f 30/32/35 21/21/30 29/29/34
f 48/48/36 45/45/36 44/44/36
f 49/49/37 52/52/38 45/45/39
f 52/52/38 53/55/40 45/45/39
f 53/55/40 56/56/41 45/45/39
f 57/60/42 58/57/43 56/56/42
f 61/61/44 58/57/43 57/60/42
f 62/64/45 58/57/43 61/61/44
f 65/65/37 58/57/43 62/64/45
f 69/69/46 58/57/46 66/66/46
