# Blender v3.0.1 OBJ File: 'rockerfeller_plaza.blend'
# www.blender.org
o geometryt000010000010000110010110000110000110100000010100st141
v 764.813538 -192.927887 146.913452
v 767.895569 -187.207581 146.913452
v 772.737732 -189.815689 146.913452
v 764.408630 -193.676392 146.913452
v 777.183228 -181.570389 146.913452
v 783.210388 -195.311279 146.913452
v 784.244629 -204.369781 146.913452
v 772.349487 -178.962189 146.913452
v 776.439636 -171.375992 146.913452
v 796.267151 -182.069382 146.913452
v 787.606384 -187.166489 146.913452
v 795.069031 -184.292786 146.913452
v 792.193665 -189.633179 146.913452
v 787.797791 -197.789078 146.913452
v 787.492126 -198.358887 146.913452
v 772.737732 -189.815689 178.513443
v 764.408630 -193.676392 178.513443
v 784.244629 -204.369781 178.513443
v 764.813538 -192.927887 178.513443
v 783.210388 -195.311279 178.513443
v 787.492126 -198.358887 178.513443
v 787.797791 -197.789078 178.513443
v 787.606384 -187.166489 178.513443
v 777.183228 -181.570389 178.513443
v 795.069031 -184.292786 178.513443
v 792.193665 -189.633179 178.513443
v 796.267151 -182.069382 178.513443
v 776.439636 -171.375992 178.513443
v 772.349487 -178.962189 178.513443
v 767.895569 -187.207581 178.513443
vt 0.345000 0.034090
vt 0.333610 0.040440
vt 0.336810 0.050140
vt 0.346490 0.033260
vt 0.320390 0.059290
vt 0.343480 0.071120
vt 0.359640 0.072990
vt 0.317180 0.049610
vt 0.302080 0.058030
vt 0.315230 0.097750
vt 0.327260 0.080170
vt 0.319660 0.095280
vt 0.330290 0.089360
vt 0.346530 0.080310
vt 0.347670 0.079680
vt 0.336810 0.050140
vt 0.346490 0.033260
vt 0.359640 0.072990
vt 0.345000 0.034090
vt 0.343480 0.071120
vt 0.347670 0.079680
vt 0.346530 0.080310
vt 0.327260 0.080170
vt 0.320390 0.059290
vt 0.319660 0.095280
vt 0.330290 0.089360
vt 0.315230 0.097750
vt 0.302080 0.058030
vt 0.317180 0.049610
vt 0.333610 0.040440
vn 0.0000 0.0000 -1.0000
vn 0.0000 0.0000 1.0000
s off
f 1/1/1 2/2/1 3/3/1
f 3/3/1 4/4/1 1/1/1
f 3/3/1 5/5/1 6/6/1
f 3/3/1 6/6/1 7/7/1
f 3/3/1 7/7/1 4/4/1
f 8/8/1 9/9/1 5/5/1
f 9/9/1 10/10/1 5/5/1
f 5/5/1 10/10/1 11/11/1
f 6/6/1 5/5/1 11/11/1
f 11/11/1 10/10/1 12/12/1
f 11/11/1 12/12/1 13/13/1
f 6/6/1 14/14/1 15/15/1
f 6/6/1 15/15/1 7/7/1
f 16/16/2 17/17/2 18/18/2
f 19/19/2 17/17/2 16/16/2
f 20/20/2 18/18/2 21/21/2
f 20/20/2 16/16/2 18/18/2
f 22/22/2 20/20/2 21/21/2
f 23/23/2 24/24/2 20/20/2
f 24/24/2 16/16/2 20/20/2
f 25/25/2 23/23/2 26/26/2
f 25/25/2 27/27/2 23/23/2
f 23/23/2 27/27/2 24/24/2
f 27/27/2 28/28/2 24/24/2
f 28/28/2 29/29/2 24/24/2
f 30/30/2 19/19/2 16/16/2
