# Blender v3.0.1 OBJ File: 'rockerfeller_plaza.blend'
# www.blender.org
o geometryt000010000010000110010110000110000100110110010010st67
v 93.728233 -138.819397 854.035645
v 93.728233 -138.819397 843.559143
v 95.226280 -139.616394 843.559143
v 95.226280 -139.616394 854.035645
v 97.074585 -140.599594 854.035645
v 97.074585 -140.599594 843.559143
v 98.572624 -141.396591 843.559143
v 98.572624 -141.396591 854.035645
v 94.381638 -136.854187 854.035645
v 94.381638 -136.854187 843.559143
v 93.583275 -138.351486 843.559143
v 93.583275 -138.351486 854.035645
v 97.389160 -131.213791 854.035645
v 97.389160 -131.213791 843.559143
v 94.994080 -135.705597 843.559143
v 94.994080 -135.705597 854.035645
v 98.799957 -128.567886 843.559143
v 98.001595 -130.065201 843.559143
v 98.001595 -130.065201 854.035645
v 98.799957 -128.567886 854.035645
v 101.306564 -123.866882 854.035645
v 103.404198 -119.932884 843.559143
v 99.412399 -127.419289 843.559143
v 103.404198 -119.932884 854.035645
v 99.412399 -127.419289 854.035645
v 104.814995 -117.286987 843.559143
v 104.016640 -118.784286 843.559143
v 104.016640 -118.784286 854.035645
v 104.814995 -117.286987 854.035645
v 107.822525 -111.646484 854.035645
v 107.822525 -111.646484 843.559143
v 105.427437 -116.138382 843.559143
v 105.427437 -116.138382 854.035645
v 109.233330 -109.000587 843.559143
v 108.434959 -110.497887 843.559143
v 108.434959 -110.497887 854.035645
v 109.233330 -109.000587 854.035645
v 99.039490 -141.254196 843.559143
v 99.837608 -139.756790 843.559143
v 99.837608 -139.756790 854.035645
v 99.039490 -141.254196 854.035645
v 100.311798 -138.867096 843.559143
v 102.706169 -134.374893 843.559143
v 102.706169 -134.374893 854.035645
v 100.311798 -138.867096 854.035645
v 103.180359 -133.485199 843.559143
v 103.978477 -131.987793 843.559143
v 103.978477 -131.987793 854.035645
v 103.180359 -133.485199 854.035645
v 102.901634 -130.629196 854.035645
v 102.901634 -130.629196 843.559143
v 103.701103 -129.132492 843.559143
v 103.701103 -129.132492 854.035645
v 105.041115 -126.623886 854.035645
v 105.041115 -126.623886 843.559143
v 105.840584 -125.127182 843.559143
v 105.840584 -125.127182 854.035645
v 106.308060 -124.984184 843.559143
v 107.422554 -125.574089 843.559143
v 107.422554 -125.574089 854.035645
v 106.308060 -124.984184 854.035645
v 107.889938 -125.431084 843.559143
v 108.688950 -123.934189 843.559143
v 108.688950 -123.934189 854.035645
v 107.889938 -125.431084 854.035645
v 109.191345 -122.992989 843.559143
v 109.990334 -121.495987 843.559143
v 109.990334 -121.495987 854.035645
v 109.191345 -122.992989 854.035645
v 110.492737 -120.554787 843.559143
v 111.291733 -119.057785 843.559143
v 111.291733 -119.057785 854.035645
v 110.492737 -120.554787 854.035645
v 112.996338 -110.612984 843.559143
v 110.000740 -109.018288 843.559143
v 110.000740 -109.018288 854.035645
v 112.996338 -110.612984 854.035645
v 111.149635 -118.591286 854.035645
v 111.149635 -118.591286 843.559143
v 110.187233 -118.078888 843.559143
v 110.187233 -118.078888 854.035645
v 110.044838 -117.612282 843.559143
v 110.842438 -116.114586 843.559143
v 110.842438 -116.114586 854.035645
v 110.044838 -117.612282 854.035645
v 111.343033 -115.174683 854.035645
v 111.343033 -115.174683 843.559143
v 112.140640 -113.676987 843.559143
v 112.140640 -113.676987 854.035645
v 112.641235 -112.737083 843.559143
v 113.438835 -111.239388 843.559143
v 113.438835 -111.239388 854.035645
v 112.641235 -112.737083 854.035645
vt 0.000000 1.000000
vt 0.000000 0.000000
vt 0.250000 0.000000
vt 0.250000 1.000000
vt 0.000000 1.000000
vt 0.000000 0.000000
vt 0.250000 0.000000
vt 0.250000 1.000000
vt 0.000000 1.000000
vt 0.000000 0.000000
vt 0.250000 0.000000
vt 0.250000 1.000000
vt 0.000000 1.000000
vt 0.000000 0.000000
vt 0.750000 0.000000
vt 0.750000 1.000000
vt 0.000000 0.000000
vt 0.250000 0.000000
vt 0.250000 1.000000
vt 0.000000 1.000000
vt 0.656860 1.000000
vt 0.000000 0.000000
vt 1.250000 0.000000
vt 0.000000 1.000000
vt 1.250000 1.000000
vt 0.000000 0.000000
vt 0.250000 0.000000
vt 0.250000 1.000000
vt 0.000000 1.000000
vt 0.000000 1.000000
vt 0.000000 0.000000
vt 0.750000 0.000000
vt 0.750000 1.000000
vt 0.000000 0.000000
vt 0.250000 0.000000
vt 0.250000 1.000000
vt 0.000000 1.000000
vt 0.000000 0.000000
vt 0.250000 0.000000
vt 0.250000 1.000000
vt 0.000000 1.000000
vt 0.000000 0.000000
vt 0.750000 0.000000
vt 0.750000 1.000000
vt 0.000000 1.000000
vt 0.000000 0.000000
vt 0.250000 0.000000
vt 0.250000 1.000000
vt 0.000000 1.000000
vt 0.000000 1.000000
vt 0.000000 0.000000
vt 0.250000 0.000000
vt 0.250000 1.000000
vt 0.000000 1.000000
vt 0.000000 0.000000
vt 0.250000 0.000000
vt 0.250000 1.000000
vt 0.000000 0.000000
vt 0.250000 0.000000
vt 0.250000 1.000000
vt 0.000000 1.000000
vt 0.000000 0.000000
vt 0.250000 0.000000
vt 0.250000 1.000000
vt 0.000000 1.000000
vt 0.000000 0.000000
vt 0.250000 0.000000
vt 0.250000 1.000000
vt 0.000000 1.000000
vt 0.000000 0.000000
vt 0.250000 0.000000
vt 0.250000 1.000000
vt 0.000000 1.000000
vt 0.000000 0.000000
vt 0.500000 0.000000
vt 0.500000 1.000000
vt 0.000000 1.000000
vt 0.000000 1.000000
vt 0.000000 0.000000
vt 0.250000 0.000000
vt 0.250000 1.000000
vt 0.000000 0.000000
vt 0.250000 0.000000
vt 0.250000 1.000000
vt 0.000000 1.000000
vt 0.000000 1.000000
vt 0.000000 0.000000
vt 0.250000 0.000000
vt 0.250000 1.000000
vt 0.000000 0.000000
vt 0.250000 0.000000
vt 0.250000 1.000000
vt 0.000000 1.000000
vn -0.4697 -0.8828 0.0000
vn -0.8824 0.4705 0.0000
vn 0.8825 -0.4704 0.0000
vn 0.8820 -0.4712 0.0000
vn 0.8821 -0.4712 0.0000
vn 0.8821 -0.4711 0.0000
vn -0.4678 -0.8838 0.0000
vn 0.8822 -0.4709 0.0000
vn 0.4699 0.8827 0.0000
vn 0.4700 0.8827 0.0000
vn 0.8826 -0.4701 0.0000
vn 0.8826 -0.4700 0.0000
s off
f 1/1/1 2/2/1 3/3/1
f 1/1/1 3/3/1 4/4/1
f 5/5/1 6/6/1 7/7/1
f 5/5/1 7/7/1 8/8/1
f 9/9/2 10/10/2 11/11/2
f 9/9/2 11/11/2 12/12/2
f 13/13/2 14/14/2 15/15/2
f 13/13/2 15/15/2 16/16/2
f 17/17/2 18/18/2 19/19/2
f 20/20/2 17/17/2 19/19/2
f 21/21/2 22/22/2 23/23/2
f 24/24/2 22/22/2 21/21/2
f 21/21/2 23/23/2 25/25/2
f 26/26/2 27/27/2 28/28/2
f 29/29/2 26/26/2 28/28/2
f 30/30/2 31/31/2 32/32/2
f 30/30/2 32/32/2 33/33/2
f 34/34/2 35/35/2 36/36/2
f 37/37/2 34/34/2 36/36/2
f 38/38/3 39/39/3 40/40/3
f 41/41/3 38/38/3 40/40/3
f 42/42/3 43/43/3 44/44/3
f 45/45/3 42/42/3 44/44/3
f 46/46/3 47/47/3 48/48/3
f 49/49/3 46/46/3 48/48/3
f 50/50/4 51/51/4 52/52/4
f 50/50/5 52/52/5 53/53/5
f 54/54/4 55/55/4 56/56/4
f 54/54/6 56/56/6 57/57/6
f 58/58/7 59/59/7 60/60/7
f 61/61/7 58/58/7 60/60/7
f 62/62/8 63/63/8 64/64/8
f 65/65/8 62/62/8 64/64/8
f 66/66/8 67/67/8 68/68/8
f 69/69/8 66/66/8 68/68/8
f 70/70/8 71/71/8 72/72/8
f 73/73/8 70/70/8 72/72/8
f 74/74/9 75/75/9 76/76/9
f 77/77/9 74/74/9 76/76/9
f 78/78/9 79/79/9 80/80/9
f 78/78/10 80/80/10 81/81/10
f 82/82/11 83/83/11 84/84/11
f 85/85/12 82/82/12 84/84/12
f 86/86/11 87/87/11 88/88/11
f 86/86/12 88/88/12 89/89/12
f 90/90/11 91/91/11 92/92/11
f 93/93/11 90/90/11 92/92/11
