# Blender v3.0.1 OBJ File: 'rockerfeller_plaza.blend'
# www.blender.org
o geometryt000010000010000110010110000110000110100000110010st113
v 1077.391602 -174.290833 462.411194
v 1054.103760 -157.288132 462.411194
v 1055.244385 -155.198746 462.411194
v 1052.252930 -160.718246 462.411194
v 1059.440308 -147.289246 462.411194
v 1062.862061 -141.020844 462.411194
v 1080.274536 -143.625946 462.411194
v 1065.713013 -135.769333 462.411194
v 1090.860107 -149.341843 462.411194
v 1054.103760 -157.288132 548.411194
v 1052.252930 -160.718246 548.411194
v 1077.391602 -174.290833 548.411194
v 1080.274536 -143.625946 548.411194
v 1090.860107 -149.341843 548.411194
v 1059.440308 -147.289246 548.411194
v 1055.244385 -155.198746 548.411194
v 1065.713013 -135.769333 548.411194
v 1062.862061 -141.020844 548.411194
vt 0.291740 0.157050
vt 0.268200 0.110510
vt 0.264040 0.112860
vt 0.275030 0.106700
vt 0.248310 0.121500
vt 0.235820 0.128550
vt 0.235020 0.163580
vt 0.225350 0.134420
vt 0.242060 0.184780
vt 0.268200 0.110510
vt 0.275030 0.106700
vt 0.291740 0.157050
vt 0.235020 0.163580
vt 0.242060 0.184780
vt 0.248310 0.121500
vt 0.264040 0.112860
vt 0.225350 0.134420
vt 0.235820 0.128550
vn -0.0000 0.0000 -1.0000
vn -0.0000 0.0000 1.0000
s off
f 1/1/1 2/2/1 3/3/1
f 4/4/1 2/2/1 1/1/1
f 5/5/1 1/1/1 3/3/1
f 6/6/1 7/7/1 5/5/1
f 7/7/1 1/1/1 5/5/1
f 8/8/1 7/7/1 6/6/1
f 9/9/1 1/1/1 7/7/1
f 10/10/2 11/11/2 12/12/2
f 13/13/2 12/12/2 14/14/2
f 13/13/2 15/15/2 12/12/2
f 15/15/2 16/16/2 12/12/2
f 16/16/2 10/10/2 12/12/2
f 17/17/2 18/18/2 13/13/2
f 18/18/2 15/15/2 13/13/2
