# Blender v3.0.1 OBJ File: 'rockerfeller_plaza.blend'
# www.blender.org
o geometryt000010000010000110010110000110000110100100000010st53
v 589.390015 -143.429184 930.361267
v 586.517456 -141.797272 930.361267
v 595.880920 -134.605179 930.361267
v 593.890076 -128.211182 930.361267
v 590.690308 -144.169083 930.361267
v 596.234863 -129.471771 930.361267
v 598.455200 -135.996277 930.361267
v 607.150391 -119.985580 930.361267
v 605.475586 -112.455582 930.361267
v 613.264404 -120.858177 930.361267
v 638.294556 -130.136978 930.361267
v 612.247681 -122.724075 930.361267
v 636.525696 -133.388275 930.361267
v 604.401428 -108.659981 930.361267
v 639.667175 -127.656281 930.361267
v 591.378418 -144.538483 930.361267
v 593.646851 -145.766678 930.361267
v 595.677368 -146.864380 930.361267
v 597.444031 -147.776382 930.361267
v 609.693359 -125.218475 930.361267
v 614.765198 -127.946075 930.361267
v 616.054565 -125.566376 930.361267
v 635.178467 -135.868683 930.361267
v 603.866516 -143.227478 930.361267
v 600.212830 -149.198578 930.361267
v 600.611938 -149.393784 930.361267
v 611.247375 -129.630173 930.361267
v 615.733093 -132.042679 930.361267
v 620.559082 -130.321182 930.361267
v 618.740601 -133.661880 930.361267
v 634.228699 -137.678284 930.361267
v 608.343750 -145.640076 930.361267
v 612.812561 -148.052780 930.361267
v 615.038574 -149.259277 930.361267
v 626.429565 -147.983185 930.361267
v 623.313660 -153.737076 930.361267
v 632.410278 -141.030182 930.361267
v 628.128784 -148.907074 930.361267
v 589.390015 -143.429184 970.361267
v 595.880920 -134.605179 970.361267
v 586.517456 -141.797272 970.361267
v 593.890076 -128.211182 970.361267
v 590.690308 -144.169083 970.361267
v 591.728394 -142.256271 970.361267
v 596.234863 -129.471771 970.361267
v 596.395752 -134.883377 970.361267
v 598.455200 -135.996277 970.361267
v 600.194214 -132.794174 970.361267
v 607.150391 -119.985580 970.361267
v 605.475586 -112.455582 970.361267
v 613.264404 -120.858177 970.361267
v 638.294556 -130.136978 970.361267
v 608.169800 -120.533279 970.361267
v 612.247681 -122.724075 970.361267
v 612.451050 -122.350876 970.361267
v 617.916687 -123.364182 970.361267
v 636.525696 -133.388275 970.361267
v 590.690308 -144.169083 980.361267
v 591.378418 -144.538483 980.361267
v 595.880920 -134.605179 980.361267
v 593.646851 -145.766678 980.361267
v 598.455200 -135.996277 980.361267
v 595.677368 -146.864380 980.361267
v 597.444031 -147.776382 980.361267
v 598.756470 -145.359482 980.361267
v 609.693359 -125.218475 980.361267
v 607.150391 -119.985580 980.361267
v 612.247681 -122.724075 980.361267
v 610.236755 -125.510681 980.361267
v 614.765198 -127.946075 980.361267
v 616.054565 -125.566376 980.361267
v 613.264404 -120.858177 980.361267
v 614.903381 -127.691177 980.361267
v 636.525696 -133.388275 980.361267
v 618.103577 -126.670181 980.361267
v 635.178467 -135.868683 980.361267
v 597.620972 -126.919380 964.361267
v 593.890076 -128.211182 964.361267
v 594.241821 -128.400284 964.361267
v 605.475586 -112.455582 964.361267
v 604.401428 -108.659981 964.361267
v 596.234863 -129.471771 964.361267
v 639.667175 -127.656281 964.361267
v 610.398376 -115.107780 964.361267
v 638.294556 -130.136978 964.361267
v 597.444031 -147.776382 986.361267
v 600.212830 -149.198578 986.361267
v 603.866516 -143.227478 986.361267
v 609.693359 -125.218475 986.361267
v 600.611938 -149.393784 986.361267
v 604.580811 -141.911575 986.361267
v 611.247375 -129.630173 986.361267
v 614.765198 -127.946075 986.361267
v 611.681458 -129.863678 986.361267
v 615.733093 -132.042679 986.361267
v 620.559082 -130.321182 986.361267
v 616.054565 -125.566376 986.361267
v 616.024170 -132.199371 986.361267
v 616.334595 -132.366470 986.361267
v 635.178467 -135.868683 986.361267
v 618.740601 -133.661880 986.361267
v 618.916565 -133.338577 986.361267
v 621.881958 -131.033173 986.361267
v 634.228699 -137.678284 986.361267
v 611.247375 -129.630173 992.361267
v 603.866516 -143.227478 992.361267
v 608.343750 -145.640076 992.361267
v 609.188293 -144.086075 992.361267
v 615.733093 -132.042679 992.361267
v 612.812561 -148.052780 1000.361267
v 618.740601 -133.661880 1000.361267
v 608.343750 -145.640076 1000.361267
v 615.733093 -132.042679 1000.361267
v 615.038574 -149.259277 1000.361267
v 626.429565 -147.983185 1000.361267
v 623.313660 -153.737076 1000.361267
v 632.410278 -141.030182 1000.361267
v 628.128784 -148.907074 1000.361267
v 620.559082 -130.321182 992.361267
v 618.740601 -133.661880 992.361267
v 620.302856 -134.503983 992.361267
v 632.410278 -141.030182 992.361267
v 634.228699 -137.678284 992.361267
vt 0.234690 0.163310
vt 0.232630 0.157560
vt 0.216570 0.176600
vt 0.205570 0.172740
vt 0.235620 0.165910
vt 0.207120 0.177430
vt 0.218280 0.181750
vt 0.186380 0.199650
vt 0.173220 0.196460
vt 0.186030 0.211960
vt 0.194950 0.262190
vt 0.189750 0.209860
vt 0.201430 0.258550
vt 0.166650 0.194380
vt 0.190000 0.265010
vt 0.236070 0.167290
vt 0.237590 0.171830
vt 0.238940 0.175900
vt 0.240040 0.179440
vt 0.195100 0.204660
vt 0.198450 0.214820
vt 0.193710 0.217470
vt 0.206370 0.255770
vt 0.229720 0.192490
vt 0.241740 0.184990
vt 0.241970 0.185790
vt 0.202630 0.207690
vt 0.205590 0.216670
vt 0.200930 0.226440
vt 0.207580 0.222690
vt 0.209970 0.253810
vt 0.232690 0.201460
vt 0.235650 0.210410
vt 0.237140 0.214870
vt 0.231200 0.237850
vt 0.242660 0.231440
vt 0.216650 0.250070
vt 0.232340 0.241260
vt 0.234690 0.163310
vt 0.216570 0.176600
vt 0.232630 0.157560
vt 0.205570 0.172740
vt 0.235620 0.165910
vt 0.231810 0.168050
vt 0.207120 0.177430
vt 0.216910 0.177630
vt 0.218280 0.181750
vt 0.211900 0.185330
vt 0.186380 0.199650
vt 0.173220 0.196460
vt 0.186030 0.211960
vt 0.194950 0.262190
vt 0.187060 0.201700
vt 0.189750 0.209860
vt 0.189000 0.210280
vt 0.189110 0.221270
vt 0.201430 0.258550
vt 0.235620 0.165910
vt 0.236070 0.167290
vt 0.216570 0.176600
vt 0.237590 0.171830
vt 0.218280 0.181750
vt 0.238940 0.175900
vt 0.240040 0.179440
vt 0.235220 0.182140
vt 0.195100 0.204660
vt 0.186380 0.199650
vt 0.189750 0.209860
vt 0.195460 0.205750
vt 0.198450 0.214820
vt 0.193710 0.217470
vt 0.186030 0.211960
vt 0.197940 0.215100
vt 0.201430 0.258550
vt 0.195070 0.221570
vt 0.206370 0.255770
vt 0.202030 0.180290
vt 0.205570 0.172740
vt 0.205800 0.173440
vt 0.173220 0.196460
vt 0.166650 0.194380
vt 0.207120 0.177430
vt 0.190000 0.265010
vt 0.176480 0.206320
vt 0.194950 0.262190
vt 0.240040 0.179440
vt 0.241740 0.184990
vt 0.229720 0.192490
vt 0.195100 0.204660
vt 0.241970 0.185790
vt 0.227100 0.193960
vt 0.202630 0.207690
vt 0.198450 0.214820
vt 0.202920 0.208560
vt 0.205590 0.216670
vt 0.200930 0.226440
vt 0.193710 0.217470
vt 0.205790 0.217250
vt 0.205990 0.217870
vt 0.206370 0.255770
vt 0.207580 0.222690
vt 0.206940 0.223060
vt 0.201800 0.229090
vt 0.209970 0.253810
vt 0.202630 0.207690
vt 0.229720 0.192490
vt 0.232690 0.201460
vt 0.229590 0.203200
vt 0.205590 0.216670
vt 0.235650 0.210410
vt 0.207580 0.222690
vt 0.232690 0.201460
vt 0.205590 0.216670
vt 0.237140 0.214870
vt 0.231200 0.237850
vt 0.242660 0.231440
vt 0.216650 0.250070
vt 0.232340 0.241260
vt 0.200930 0.226440
vt 0.207580 0.222690
vt 0.208620 0.225820
vt 0.216650 0.250070
vt 0.209970 0.253810
vn 0.0000 0.0000 -1.0000
vn -0.0001 0.0000 -1.0000
vn 0.0001 0.0000 -1.0000
vn 0.0000 0.0000 1.0000
vn -0.0004 0.0000 1.0000
vn 0.0001 0.0000 1.0000
vn -0.0001 0.0000 1.0000
s off
f 1/1/1 2/2/1 3/3/1
f 3/3/1 2/2/1 4/4/1
f 5/5/1 1/1/1 3/3/1
f 6/6/1 3/3/1 4/4/1
f 7/7/1 3/3/1 6/6/1
f 8/8/1 7/7/1 6/6/1
f 6/6/1 9/9/1 8/8/1
f 8/8/1 9/9/1 10/10/1
f 9/9/1 11/11/1 10/10/1
f 12/12/1 8/8/1 10/10/1
f 11/11/1 13/13/1 10/10/1
f 6/6/1 4/4/1 9/9/1
f 4/4/1 14/14/1 9/9/1
f 14/14/1 15/15/1 9/9/1
f 15/15/1 11/11/1 9/9/1
f 16/16/1 5/5/1 3/3/1
f 7/7/1 17/17/1 16/16/1
f 7/7/1 16/16/1 3/3/1
f 7/7/2 18/18/2 17/17/2
f 7/7/1 19/19/1 18/18/1
f 20/20/1 19/19/1 7/7/1
f 7/7/1 8/8/1 20/20/1
f 20/20/1 8/8/1 12/12/1
f 21/21/1 20/20/1 12/12/1
f 12/12/1 10/10/1 22/22/1
f 21/21/1 12/12/1 22/22/1
f 22/22/1 10/10/1 13/13/1
f 13/13/1 23/23/1 22/22/1
f 24/24/1 25/25/1 19/19/1
f 24/24/1 19/19/1 20/20/1
f 26/26/1 25/25/1 24/24/1
f 24/24/1 20/20/1 27/27/1
f 27/27/1 20/20/1 21/21/1
f 28/28/1 27/27/1 21/21/1
f 28/28/1 21/21/1 29/29/1
f 21/21/3 22/22/3 29/29/3
f 30/30/1 28/28/1 29/29/1
f 29/29/1 22/22/1 23/23/1
f 23/23/1 31/31/1 29/29/1
f 27/27/1 32/32/1 24/24/1
f 27/27/1 28/28/1 32/32/1
f 30/30/1 33/33/1 32/32/1
f 30/30/1 32/32/1 28/28/1
f 30/30/1 34/34/1 33/33/1
f 35/35/1 34/34/1 30/30/1
f 36/36/1 34/34/1 35/35/1
f 35/35/1 30/30/1 37/37/1
f 37/37/1 38/38/1 35/35/1
f 30/30/1 29/29/1 37/37/1
f 29/29/1 31/31/1 37/37/1
f 39/39/4 40/40/4 41/41/4
f 41/41/4 40/40/4 42/42/4
f 43/43/4 44/44/4 39/39/4
f 44/44/4 40/40/4 39/39/4
f 42/42/4 40/40/4 45/45/4
f 40/40/5 46/46/5 45/45/5
f 46/46/6 47/47/6 45/45/6
f 47/47/4 48/48/4 45/45/4
f 48/48/4 49/49/4 45/45/4
f 50/50/4 45/45/4 49/49/4
f 51/51/4 50/50/4 49/49/4
f 52/52/4 50/50/4 51/51/4
f 53/53/4 51/51/4 49/49/4
f 54/54/4 55/55/4 53/53/4
f 55/55/4 51/51/4 53/53/4
f 56/56/4 52/52/4 51/51/4
f 57/57/4 52/52/4 56/56/4
f 58/58/4 59/59/4 60/60/4
f 59/59/4 61/61/4 62/62/4
f 60/60/6 59/59/6 62/62/6
f 61/61/4 63/63/4 62/62/4
f 63/63/4 64/64/4 62/62/4
f 64/64/4 65/65/4 62/62/4
f 65/65/4 66/66/4 62/62/4
f 67/67/4 62/62/4 66/66/4
f 66/66/4 68/68/4 67/67/4
f 69/69/4 68/68/4 66/66/4
f 70/70/4 68/68/4 69/69/4
f 71/71/4 72/72/4 68/68/4
f 73/73/4 68/68/4 70/70/4
f 71/71/4 68/68/4 73/73/4
f 74/74/4 72/72/4 71/71/4
f 75/75/4 74/74/4 71/71/4
f 76/76/4 74/74/4 75/75/4
f 77/77/4 78/78/4 79/79/4
f 80/80/4 78/78/4 77/77/4
f 80/80/7 81/81/7 78/78/7
f 77/77/4 79/79/4 82/82/4
f 83/83/4 81/81/4 80/80/4
f 84/84/4 83/83/4 80/80/4
f 85/85/4 83/83/4 84/84/4
f 86/86/4 87/87/4 88/88/4
f 86/86/4 88/88/4 89/89/4
f 87/87/4 90/90/4 88/88/4
f 88/88/4 91/91/4 89/89/4
f 91/91/4 92/92/4 89/89/4
f 92/92/4 93/93/4 89/89/4
f 94/94/4 93/93/4 92/92/4
f 95/95/4 93/93/4 94/94/4
f 95/95/4 96/96/4 93/93/4
f 96/96/4 97/97/4 93/93/4
f 98/98/4 96/96/4 95/95/4
f 99/99/4 96/96/4 98/98/4
f 100/100/4 97/97/4 96/96/4
f 101/101/4 102/102/4 99/99/4
f 102/102/4 96/96/4 99/99/4
f 103/103/4 100/100/4 96/96/4
f 104/104/4 100/100/4 103/103/4
f 105/105/4 106/106/4 107/107/4
f 108/108/4 105/105/4 107/107/4
f 109/109/4 105/105/4 108/108/4
f 110/110/4 111/111/4 112/112/4
f 111/111/4 113/113/4 112/112/4
f 114/114/4 111/111/4 110/110/4
f 115/115/4 111/111/4 114/114/4
f 116/116/4 115/115/4 114/114/4
f 117/117/4 111/111/4 115/115/4
f 118/118/4 117/117/4 115/115/4
f 119/119/7 120/120/7 121/121/7
f 119/119/4 121/121/4 122/122/4
f 119/119/4 122/122/4 123/123/4
