# Blender v3.0.1 OBJ File: 'rockerfeller_plaza.blend'
# www.blender.org
o geometryt000010000010000110010110000110000110100000010110st133
v 1260.784180 -298.990356 187.233276
v 1295.947998 -317.984772 187.233276
v 1281.329468 -344.857269 187.233276
v 1231.982300 -352.419159 187.233276
v 1283.454468 -346.097961 187.233276
v 1280.006470 -352.255768 187.233276
v 1281.595215 -353.114166 187.233276
v 1281.173584 -353.885162 187.233276
v 1270.859375 -372.757965 187.233276
v 1270.586670 -373.249664 187.233276
v 1231.982300 -352.419159 460.233337
v 1270.586670 -373.249664 460.233337
v 1270.859375 -372.757965 460.233337
v 1280.006470 -352.255768 460.233337
v 1281.329468 -344.857269 460.233337
v 1260.784180 -298.990356 460.233337
v 1281.173584 -353.885162 460.233337
v 1281.595215 -353.114166 460.233337
v 1283.454468 -346.097961 460.233337
v 1295.947998 -317.984772 460.233337
vt 0.459330 0.530240
vt 0.482720 0.600660
vt 0.536270 0.570560
vt 0.565720 0.470920
vt 0.537850 0.574810
vt 0.550150 0.567720
vt 0.551210 0.570900
vt 0.552750 0.570030
vt 0.590370 0.548800
vt 0.591350 0.548240
vt 0.565720 0.470920
vt 0.591350 0.548240
vt 0.590370 0.548800
vt 0.550150 0.567720
vt 0.536270 0.570560
vt 0.459330 0.530240
vt 0.552750 0.570030
vt 0.551210 0.570900
vt 0.537850 0.574810
vt 0.482720 0.600660
vn 0.0000 0.0000 -1.0000
vn -0.0000 0.0000 1.0000
vn 0.0001 0.0000 1.0000
s off
f 1/1/1 2/2/1 3/3/1
f 3/3/1 4/4/1 1/1/1
f 5/5/1 6/6/1 3/3/1
f 6/6/1 4/4/1 3/3/1
f 7/7/1 8/8/1 6/6/1
f 8/8/1 9/9/1 6/6/1
f 6/6/1 9/9/1 4/4/1
f 9/9/1 10/10/1 4/4/1
f 11/11/2 12/12/2 13/13/2
f 14/14/2 11/11/2 13/13/2
f 15/15/2 11/11/2 14/14/2
f 16/16/2 11/11/2 15/15/2
f 17/17/3 14/14/3 13/13/3
f 18/18/2 14/14/2 17/17/2
f 19/19/2 15/15/2 14/14/2
f 20/20/2 16/16/2 15/15/2
