# Blender v3.0.1 OBJ File: 'rockerfeller_plaza.blend'
# www.blender.org
o geometryt000010000010000110010110000110000100110010110110st57_O
v 172.613785 -267.234344 567.238220
v 170.614777 -271.062134 567.238220
v 170.614777 -271.062134 582.316956
v 172.613785 -267.234344 582.316956
v 174.732986 -263.176453 567.238220
v 172.733978 -267.004150 567.238220
v 172.733978 -267.004150 582.316956
v 174.732986 -263.176453 582.316956
v 176.185883 -260.394348 582.316956
v 176.185883 -260.394348 567.238220
v 174.853180 -262.946228 567.238220
v 174.853180 -262.946228 582.316956
v 176.972382 -258.888245 582.316956
v 176.972382 -258.888245 567.238220
v 176.306076 -260.164154 567.238220
v 176.306076 -260.164154 582.316956
v 177.758987 -257.382141 567.238220
v 177.092590 -258.658051 567.238220
v 177.092590 -258.658051 582.316956
v 177.758987 -257.382141 582.316956
v 178.545486 -255.876022 582.316956
v 178.545486 -255.876022 567.238220
v 177.879181 -257.151947 567.238220
v 177.879181 -257.151947 582.316956
v 179.998383 -253.093918 567.238220
v 178.665680 -255.645828 567.238220
v 178.665680 -255.645828 582.316956
v 179.998383 -253.093918 582.316956
v 182.117584 -249.035919 582.316956
v 182.117584 -249.035919 567.238220
v 180.118576 -252.863724 567.238220
v 180.118576 -252.863724 582.316956
v 184.236679 -244.978027 567.238220
v 182.237778 -248.805817 567.238220
v 182.237778 -248.805817 582.316956
v 184.236679 -244.978027 582.316956
v 171.268677 -271.793030 582.316956
v 171.268677 -271.793030 567.238220
v 173.820389 -273.126038 567.238220
v 173.820389 -273.126038 582.316956
v 174.793686 -273.245331 567.238220
v 176.792679 -269.417542 567.238220
v 176.792679 -269.417542 582.316956
v 174.793686 -273.245331 582.316956
v 176.912888 -269.187347 567.238220
v 178.911880 -265.359528 567.238220
v 178.911880 -265.359528 582.316956
v 176.912888 -269.187347 582.316956
v 179.032089 -265.129333 582.316956
v 179.032089 -265.129333 567.238220
v 180.364685 -262.577545 567.238220
v 180.364685 -262.577545 582.316956
v 180.484879 -262.347351 567.238220
v 181.151276 -261.071442 567.238220
v 181.151276 -261.071442 582.316956
v 180.484879 -262.347351 582.316956
v 181.271484 -260.841248 567.238220
v 181.937790 -259.565247 567.238220
v 181.937790 -259.565247 582.316956
v 181.271484 -260.841248 582.316956
v 182.057983 -259.335144 567.238220
v 182.724289 -258.059143 567.238220
v 182.724289 -258.059143 582.316956
v 182.057983 -259.335144 582.316956
v 182.844482 -257.828949 567.238220
v 184.177185 -255.277130 567.238220
v 184.177185 -255.277130 582.316956
v 182.844482 -257.828949 582.316956
v 184.297379 -255.046921 567.238220
v 186.296387 -251.219116 567.238220
v 186.296387 -251.219116 582.316956
v 184.297379 -255.046921 582.316956
v 186.416580 -250.988922 567.238220
v 188.415588 -247.161118 567.238220
v 188.415588 -247.161118 582.316956
v 186.416580 -250.988922 582.316956
v 186.169586 -245.558121 582.316956
v 186.169586 -245.558121 567.238220
v 184.881989 -244.914719 567.238220
v 184.881989 -244.914719 582.316956
v 188.245987 -246.674530 567.238220
v 186.984390 -245.981522 567.238220
v 186.984390 -245.981522 582.316956
v 188.245987 -246.674530 582.316956
vt 0.000000 0.000000
vt 1.000000 0.000000
vt 1.000000 1.333330
vt 0.000000 1.333330
vt 0.000000 0.000000
vt 1.000000 0.000000
vt 1.000000 1.333330
vt 0.000000 1.333330
vt 0.000000 1.333330
vt 0.000000 0.000000
vt 0.666670 0.000000
vt 0.666670 1.333330
vt 0.000000 1.333330
vt 0.000000 0.000000
vt 0.333330 0.000000
vt 0.333330 1.333330
vt 0.000000 0.000000
vt 0.333330 0.000000
vt 0.333330 1.333330
vt 0.000000 1.333330
vt 0.000000 1.333330
vt 0.000000 0.000000
vt 0.333330 0.000000
vt 0.333330 1.333330
vt 0.000000 0.000000
vt 0.666670 0.000000
vt 0.666670 1.333330
vt 0.000000 1.333330
vt 0.000000 1.333330
vt 0.000000 0.000000
vt 1.000000 0.000000
vt 1.000000 1.333330
vt 0.000000 0.000000
vt 1.000000 0.000000
vt 1.000000 1.333330
vt 0.000000 1.333330
vt 0.000000 1.333330
vt 0.000000 0.000000
vt 0.666670 0.000000
vt 0.666670 1.333330
vt 0.000000 0.000000
vt 1.000000 0.000000
vt 1.000000 1.333330
vt 0.000000 1.333330
vt 0.000000 1.333330
vt 0.000000 0.000000
vt 0.666670 0.000000
vt 0.666670 1.333330
vt 0.000000 0.000000
vt 0.333330 0.000000
vt 0.333330 1.333330
vt 0.000000 1.333330
vt 0.000000 0.000000
vt 0.333330 0.000000
vt 0.333330 1.333330
vt 0.000000 1.333330
vt 0.000000 0.000000
vt 0.333330 0.000000
vt 0.333330 1.333330
vt 0.000000 1.333330
vt 0.000000 0.000000
vt 0.666670 0.000000
vt 0.666670 1.333330
vt 0.000000 1.333330
vt 0.000000 0.000000
vt 1.000000 0.000000
vt 1.000000 1.333330
vt 0.000000 1.333330
vt 0.000000 0.000000
vt 1.000000 0.000000
vt 1.000000 1.333330
vt 0.000000 1.333330
vt 0.000000 1.333330
vt 0.000000 0.000000
vt 0.333330 0.000000
vt 0.333330 1.333330
vt 0.000000 0.000000
vt 0.333330 0.000000
vt 0.333330 1.333330
vt 0.000000 1.333330
vt 0.000000 0.000000
vt 1.000000 0.000000
vt 1.000000 1.333330
vt 0.000000 1.333330
vn -0.8864 0.4629 0.0000
vn -0.4630 -0.8863 0.0000
vn 0.8864 -0.4629 0.0000
vn 0.8864 -0.4630 0.0000
vn 0.4470 0.8945 0.0000
vn 0.4815 0.8765 0.0000
s off
f 1/1/1 2/2/1 3/3/1
f 4/4/1 1/1/1 3/3/1
f 5/5/1 6/6/1 7/7/1
f 8/8/1 5/5/1 7/7/1
f 9/9/1 10/10/1 11/11/1
f 9/9/1 11/11/1 12/12/1
f 13/13/1 14/14/1 15/15/1
f 13/13/1 15/15/1 16/16/1
f 17/17/1 18/18/1 19/19/1
f 20/20/1 17/17/1 19/19/1
f 21/21/1 22/22/1 23/23/1
f 21/21/1 23/23/1 24/24/1
f 25/25/1 26/26/1 27/27/1
f 28/28/1 25/25/1 27/27/1
f 29/29/1 30/30/1 31/31/1
f 29/29/1 31/31/1 32/32/1
f 33/33/1 34/34/1 35/35/1
f 36/36/1 33/33/1 35/35/1
f 37/37/2 38/38/2 39/39/2
f 37/37/2 39/39/2 40/40/2
f 45/41/3 46/42/3 47/43/3
f 48/44/3 45/41/3 47/43/3
f 49/45/3 50/46/3 51/47/3
f 49/45/3 51/47/3 52/48/3
f 53/49/3 54/50/3 55/51/3
f 56/52/4 53/49/4 55/51/4
f 57/53/3 58/54/3 59/55/3
f 60/56/3 57/53/3 59/55/3
f 61/57/3 62/58/3 63/59/3
f 64/60/3 61/57/3 63/59/3
f 65/61/3 66/62/3 67/63/3
f 68/64/3 65/61/3 67/63/3
f 69/65/3 70/66/3 71/67/3
f 72/68/3 69/65/3 71/67/3
f 73/69/3 74/70/3 75/71/3
f 76/72/3 73/69/3 75/71/3
f 77/73/5 78/74/5 79/75/5
f 77/73/5 79/75/5 80/76/5
f 81/77/6 82/78/6 83/79/6
f 84/80/6 81/77/6 83/79/6
s 1
f 41/81/3 42/82/3 43/83/3
f 44/84/3 41/81/3 43/83/3
