# Blender v3.0.1 OBJ File: 'rockerfeller_plaza.blend'
# www.blender.org
o geometryt000010000010000110010110000110000110100000110110st44_S
v 1132.290527 -132.631607 739.105835
v 1118.233276 -158.520111 739.105835
v 1117.103271 -157.900513 739.105835
v 1119.367676 -125.610802 739.105835
v 1104.855713 -180.459305 739.105835
v 1095.526611 -160.950806 739.105835
v 1098.618896 -155.385712 739.105835
v 1103.169800 -183.554413 739.105835
v 1072.556763 -166.870605 739.105835
v 1081.515259 -150.378815 739.105835
v 1084.420410 -154.785812 739.105835
v 1090.156250 -157.971603 739.105835
v 1078.422729 -148.705307 739.105835
v 1080.141724 -145.543213 739.105835
v 1087.512695 -149.220612 739.105835
v 1060.200928 -134.707504 739.105835
v 1063.448608 -128.718704 739.105835
v 1082.003784 -112.758598 739.105835
v 1096.574951 -120.681702 739.105835
v 1062.021362 -127.947205 739.105835
v 1073.897095 -106.081100 739.105835
v 1082.962524 -111.004402 739.105835
v 1099.103760 -116.022400 739.105835
v 1099.911011 -116.468201 739.105835
v 1101.406860 -113.719498 739.105835
v 1120.268555 -123.957100 739.105835
v 1119.367676 -125.610802 780.705811
v 1120.268555 -123.957100 780.705811
v 1101.406860 -113.719498 780.705811
v 1099.911011 -116.468201 780.705811
v 1096.574951 -120.681702 780.705811
v 1098.618896 -155.385712 780.705811
v 1117.103271 -157.900513 780.705811
v 1132.290527 -132.631607 780.705811
v 1099.103760 -116.022400 780.705811
v 1082.003784 -112.758598 780.705811
v 1080.141724 -145.543213 780.705811
v 1087.512695 -149.220612 780.705811
v 1073.897095 -106.081100 780.705811
v 1082.962524 -111.004402 780.705811
v 1063.448608 -128.718704 780.705811
v 1062.021362 -127.947205 780.705811
v 1060.200928 -134.707504 780.705811
v 1078.422729 -148.705307 780.705811
v 1081.515259 -150.378815 780.705811
v 1072.556763 -166.870605 780.705811
v 1084.420410 -154.785812 780.705811
v 1103.169800 -183.554413 780.705811
v 1095.526611 -160.950806 780.705811
v 1090.156250 -157.971603 780.705811
v 1104.855713 -180.459305 780.705811
v 1118.233276 -158.520111 780.705811
vt 0.199490 0.262180
vt 0.251070 0.233240
vt 0.250300 0.230980
vt 0.190820 0.236300
vt 0.295240 0.205760
vt 0.262710 0.187420
vt 0.251600 0.193780
vt 0.301410 0.202290
vt 0.280790 0.140990
vt 0.247930 0.159430
vt 0.255020 0.165180
vt 0.259000 0.176670
vt 0.245870 0.153240
vt 0.239570 0.156780
vt 0.243910 0.171550
vt 0.226190 0.116840
vt 0.214260 0.123530
vt 0.179320 0.161300
vt 0.189100 0.190480
vt 0.213310 0.120670
vt 0.169740 0.145120
vt 0.175820 0.163280
vt 0.179820 0.195690
vt 0.180370 0.197310
vt 0.174900 0.200390
vt 0.187530 0.238160
vt 0.190820 0.236300
vt 0.187530 0.238160
vt 0.174900 0.200390
vt 0.180370 0.197310
vt 0.189100 0.190480
vt 0.251600 0.193780
vt 0.250300 0.230980
vt 0.199490 0.262180
vt 0.179820 0.195690
vt 0.179320 0.161300
vt 0.239570 0.156780
vt 0.243910 0.171550
vt 0.169740 0.145120
vt 0.175820 0.163280
vt 0.214260 0.123530
vt 0.213310 0.120670
vt 0.226190 0.116840
vt 0.245870 0.153240
vt 0.247930 0.159430
vt 0.280790 0.140990
vt 0.255020 0.165180
vt 0.301410 0.202290
vt 0.262710 0.187420
vt 0.259000 0.176670
vt 0.295240 0.205760
vt 0.251070 0.233240
vn -0.0001 0.0000 -1.0000
vn 0.0000 0.0000 -1.0000
vn 0.0000 0.0000 1.0000
vn 0.0001 0.0000 1.0000
s off
f 1/1/1 2/2/1 3/3/1
f 3/3/2 4/4/2 1/1/2
f 3/3/2 5/5/2 6/6/2
f 3/3/2 6/6/2 7/7/2
f 3/3/2 7/7/2 4/4/2
f 6/6/2 5/5/2 8/8/2
f 9/9/2 6/6/2 8/8/2
f 9/9/2 10/10/2 11/11/2
f 12/12/2 9/9/2 11/11/2
f 12/12/2 6/6/2 9/9/2
f 10/10/2 13/13/2 14/14/2
f 15/15/2 10/10/2 14/14/2
f 15/15/2 11/11/2 10/10/2
f 14/14/2 16/16/2 17/17/2
f 14/14/2 17/17/2 18/18/2
f 14/14/2 18/18/2 19/19/2
f 19/19/2 15/15/2 14/14/2
f 17/17/2 20/20/2 21/21/2
f 18/18/2 17/17/2 21/21/2
f 22/22/2 18/18/2 21/21/2
f 19/19/2 23/23/2 24/24/2
f 4/4/2 19/19/2 24/24/2
f 4/4/2 7/7/2 19/19/2
f 19/19/2 7/7/2 15/15/2
f 4/4/2 24/24/2 25/25/2
f 4/4/2 25/25/2 26/26/2
f 27/27/3 28/28/3 29/29/3
f 30/30/3 27/27/3 29/29/3
f 31/31/3 27/27/3 30/30/3
f 31/31/3 32/32/3 27/27/3
f 32/32/3 33/33/3 27/27/3
f 33/33/3 34/34/3 27/27/3
f 31/31/3 30/30/3 35/35/3
f 36/36/3 37/37/3 31/31/3
f 37/37/3 38/38/3 31/31/3
f 38/38/3 32/32/3 31/31/3
f 39/39/3 36/36/3 40/40/3
f 39/39/3 41/41/3 36/36/3
f 36/36/3 41/41/3 37/37/3
f 42/42/3 41/41/3 39/39/3
f 41/41/3 43/43/3 37/37/3
f 44/44/3 45/45/3 37/37/3
f 37/37/3 45/45/3 38/38/3
f 45/45/3 46/46/3 47/47/3
f 38/38/3 45/45/3 47/47/3
f 46/46/3 48/48/3 49/49/3
f 46/46/3 49/49/3 50/50/3
f 46/46/3 50/50/3 47/47/3
f 49/49/3 48/48/3 51/51/3
f 49/49/3 51/51/3 33/33/3
f 33/33/4 52/52/4 34/34/4
f 49/49/3 33/33/3 32/32/3
