# Blender v3.0.1 OBJ File: 'rockerfeller_plaza.blend'
# www.blender.org
o geometryt000010000010000110010110000110000100110110010010st85
v 60.920799 -120.700584 843.002563
v 60.758682 -121.005188 858.219849
v 60.920799 -120.700584 858.219849
v 63.260620 -116.305588 843.002563
v 60.758682 -121.005188 841.919800
v 63.260620 -116.305588 858.219849
v 63.699139 -115.481789 858.219849
v 63.699139 -115.481789 843.002563
v 65.259018 -112.551788 843.002563
v 65.259018 -112.551788 858.219849
v 65.697540 -111.728088 858.219849
v 65.697540 -111.728088 843.002563
v 67.257416 -108.797989 843.002563
v 67.257416 -108.797989 858.219849
v 67.695938 -107.974289 858.219849
v 67.695938 -107.974289 843.002563
v 68.475876 -106.509285 843.002563
v 68.475876 -106.509285 858.219849
v 68.914398 -105.685585 858.219849
v 68.914398 -105.685585 843.002563
v 69.694336 -104.220589 843.002563
v 76.631607 -91.189758 841.919800
v 69.694336 -104.220589 858.219849
v 70.132858 -103.396889 858.219849
v 70.132858 -103.396889 843.002563
v 71.692741 -100.466789 843.002563
v 71.692741 -100.466789 858.219849
v 72.131256 -99.643105 858.219849
v 72.131256 -99.643105 843.002563
v 73.691139 -96.713066 843.002563
v 73.691139 -96.713066 858.219849
v 74.129654 -95.889359 858.219849
v 74.129654 -95.889359 843.002563
v 76.469475 -91.494286 843.002563
v 76.469475 -91.494286 858.219849
v 76.631607 -91.189758 858.219849
v 71.403870 -126.678185 843.002563
v 71.708328 -126.840385 858.219849
v 71.403870 -126.678185 858.219849
v 67.009796 -124.336487 843.002563
v 71.708328 -126.840385 841.919800
v 67.009796 -124.336487 858.219849
v 65.457207 -123.509087 858.219849
v 65.457207 -123.509087 843.002563
v 60.758682 -121.005188 841.919800
v 61.063141 -121.167389 843.002563
v 61.063141 -121.167389 858.219849
v 60.758682 -121.005188 858.219849
v 87.436020 -97.351425 843.002563
v 87.598366 -97.047012 858.219849
v 87.436020 -97.351425 858.219849
v 85.092888 -101.744682 843.002563
v 87.598366 -97.047012 841.919800
v 85.092888 -101.744682 858.219849
v 84.654503 -102.566689 858.219849
v 84.654503 -102.566689 843.002563
v 83.092430 -105.495583 843.002563
v 83.092430 -105.495583 858.219849
v 82.654045 -106.317482 858.219849
v 82.654045 -106.317482 843.002563
v 81.091957 -109.246384 843.002563
v 81.091957 -109.246384 858.219849
v 80.653580 -110.068283 858.219849
v 80.653580 -110.068283 843.002563
v 79.872536 -111.532784 843.002563
v 79.872536 -111.532784 858.219849
v 79.434158 -112.354683 858.219849
v 79.434158 -112.354683 843.002563
v 78.653114 -113.819084 843.002563
v 71.708328 -126.840385 841.919800
v 78.653114 -113.819084 858.219849
v 78.214737 -114.641083 858.219849
v 78.214737 -114.641083 843.002563
v 76.652657 -117.569984 843.002563
v 76.652657 -117.569984 858.219849
v 76.214279 -118.391884 858.219849
v 76.214279 -118.391884 843.002563
v 74.652184 -121.320786 843.002563
v 74.652184 -121.320786 858.219849
v 74.213814 -122.142685 858.219849
v 74.213814 -122.142685 843.002563
v 71.870689 -126.535988 843.002563
v 71.870689 -126.535988 858.219849
v 71.708328 -126.840385 858.219849
v 76.935913 -91.352287 843.002563
v 76.631607 -91.189758 858.219849
v 76.935913 -91.352287 858.219849
v 81.327858 -93.697983 843.002563
v 76.631607 -91.189758 841.919800
v 81.327858 -93.697983 858.219849
v 82.902115 -94.538788 858.219849
v 82.902115 -94.538788 843.002563
v 87.294060 -96.884483 843.002563
v 87.598366 -97.047012 841.919800
v 87.294060 -96.884483 858.219849
v 87.598366 -97.047012 858.219849
vt 59.807362 1.936910
vt 60.424530 29.159210
vt 59.807362 29.159210
vt 50.900219 1.936910
vt 60.424530 0.000000
vt 50.900219 29.159210
vt 49.230869 29.159210
vt 49.230869 1.936910
vt 43.292782 1.936910
vt 43.292782 29.159210
vt 41.623428 29.159210
vt 41.623428 1.936910
vt 35.685329 1.936910
vt 35.685329 29.159210
vt 34.015991 29.159210
vt 34.015991 1.936910
vt 31.046940 1.936910
vt 31.046940 29.159210
vt 29.377590 29.159210
vt 29.377590 1.936910
vt 26.408550 1.936910
vt 0.000000 0.000000
vt 26.408550 29.159210
vt 24.739201 29.159210
vt 24.739201 1.936910
vt 18.801109 1.936910
vt 18.801109 29.159210
vt 17.131760 29.159210
vt 17.131760 1.936910
vt 11.193660 29.159210
vt 9.524320 29.159210
vt 11.193660 1.936910
vt 9.524320 1.936910
vt 0.617170 29.159210
vt 0.000000 29.159210
vt 0.617170 1.936910
vt 21.578671 1.936910
vt 22.195841 29.159210
vt 21.578671 29.159210
vt 12.671530 1.936910
vt 22.195841 0.000000
vt 12.671530 29.159210
vt 9.524320 29.159210
vt 9.524320 1.936910
vt 0.000000 0.000000
vt 0.617170 1.936910
vt 0.617170 29.159210
vt 0.000000 29.159210
vt 59.787048 1.936910
vt 60.404221 29.159210
vt 59.787048 29.159210
vt 50.879910 1.936910
vt 60.404221 0.000000
vt 50.879910 29.159210
vt 49.213459 29.159210
vt 49.213459 1.936910
vt 43.275372 1.936910
vt 43.275372 29.159210
vt 41.608921 29.159210
vt 41.608921 1.936910
vt 35.670830 1.936910
vt 35.670830 29.159210
vt 34.004379 29.159210
vt 34.004379 1.936910
vt 31.035330 1.936910
vt 31.035330 29.159210
vt 29.368891 29.159210
vt 29.368891 1.936910
vt 26.399839 1.936910
vt 0.000000 0.000000
vt 26.399839 29.159210
vt 24.733400 29.159210
vt 24.733400 1.936910
vt 18.795300 1.936910
vt 18.795300 29.159210
vt 17.128860 29.159210
vt 17.128860 1.936910
vt 11.190760 1.936910
vt 11.190760 29.159210
vt 9.524320 29.159210
vt 9.524320 1.936910
vt 0.617170 1.936910
vt 0.617170 29.159210
vt 0.000000 29.159210
vt 21.624180 1.936910
vt 22.241360 29.159210
vt 21.624180 29.159210
vt 12.717040 1.936910
vt 22.241360 0.000000
vt 12.717040 29.159210
vt 9.524320 29.159210
vt 9.524320 1.936910
vt 0.617170 1.936910
vt 0.000000 0.000000
vt 0.617170 29.159210
vt 0.000000 29.159210
vn -0.8828 0.4698 0.0000
vn -0.8827 0.4699 -0.0000
vn -0.8828 0.4698 0.0002
vn -0.8827 0.4700 0.0002
vn -0.8829 0.4696 -0.0001
vn -0.8827 0.4700 0.0001
vn -0.8829 0.4696 -0.0002
vn -0.8827 0.4700 -0.0001
vn -0.8824 0.4705 0.0000
vn -0.8829 0.4696 0.0001
vn -0.8824 0.4704 0.0001
vn -0.8828 0.4698 0.0004
vn -0.8826 0.4701 -0.0001
vn -0.8827 0.4700 0.0000
vn -0.4702 -0.8826 0.0000
vn -0.4703 -0.8825 -0.0000
vn 0.8823 -0.4706 0.0000
vn 0.8824 -0.4706 -0.0000
vn 0.8824 -0.4705 0.0000
vn 0.8824 -0.4705 0.0002
vn 0.8823 -0.4707 0.0001
vn 0.8823 -0.4708 0.0000
vn 0.8825 -0.4703 0.0003
vn 0.8821 -0.4710 0.0003
vn 0.8825 -0.4703 0.0001
vn 0.8824 -0.4705 0.0001
vn 0.8825 -0.4704 0.0001
vn 0.8824 -0.4705 -0.0001
vn 0.8823 -0.4707 -0.0001
vn 0.8823 -0.4707 -0.0003
vn 0.4711 0.8821 0.0000
vn 0.4710 0.8821 -0.0000
s off
f 1/1/1 2/2/1 3/3/1
f 4/4/2 5/5/2 1/1/2
f 2/2/1 1/1/1 5/5/1
f 6/6/2 7/7/2 4/4/2
f 7/7/2 8/8/2 4/4/2
f 8/8/3 5/5/3 4/4/3
f 8/8/4 9/9/4 5/5/4
f 10/10/2 11/11/2 9/9/2
f 11/11/2 12/12/2 9/9/2
f 9/9/5 12/12/5 5/5/5
f 12/12/6 13/13/6 5/5/6
f 14/14/2 15/15/2 13/13/2
f 15/15/2 16/16/2 13/13/2
f 13/13/7 16/16/7 5/5/7
f 16/16/8 17/17/8 5/5/8
f 18/18/2 19/19/2 17/17/2
f 19/19/2 20/20/2 17/17/2
f 17/17/9 20/20/9 5/5/9
f 21/21/10 22/22/10 20/20/10
f 20/20/2 22/22/2 5/5/2
f 23/23/2 24/24/2 21/21/2
f 24/24/2 25/25/2 21/21/2
f 25/25/11 22/22/11 21/21/11
f 26/26/12 22/22/12 25/25/12
f 27/27/2 28/28/2 26/26/2
f 28/28/2 29/29/2 26/26/2
f 29/29/13 22/22/13 26/26/13
f 31/30/2 32/31/2 30/32/2
f 32/31/2 33/33/2 30/32/2
f 33/33/8 22/22/8 30/32/8
f 35/34/2 36/35/2 34/36/2
f 36/35/14 22/22/14 34/36/14
f 37/37/15 38/38/15 39/39/15
f 40/40/16 41/41/16 37/37/16
f 38/38/15 37/37/15 41/41/15
f 42/42/16 43/43/16 40/40/16
f 43/43/16 44/44/16 40/40/16
f 44/44/16 45/45/16 40/40/16
f 45/45/16 41/41/16 40/40/16
f 46/46/16 45/45/16 44/44/16
f 47/47/15 48/48/15 46/46/15
f 48/48/15 45/45/15 46/46/15
f 49/49/17 50/50/17 51/51/17
f 52/52/18 53/53/18 49/49/18
f 50/50/19 49/49/19 53/53/19
f 54/54/18 55/55/18 52/52/18
f 55/55/18 56/56/18 52/52/18
f 56/56/20 53/53/20 52/52/20
f 56/56/17 57/57/17 53/53/17
f 58/58/17 59/59/17 57/57/17
f 59/59/17 60/60/17 57/57/17
f 57/57/21 60/60/21 53/53/21
f 60/60/22 61/61/22 53/53/22
f 62/62/17 63/63/17 61/61/17
f 63/63/17 64/64/17 61/61/17
f 61/61/23 64/64/23 53/53/23
f 64/64/24 65/65/24 53/53/24
f 66/66/17 67/67/17 65/65/17
f 67/67/17 68/68/17 65/65/17
f 65/65/25 68/68/25 53/53/25
f 69/69/26 70/70/26 68/68/26
f 68/68/17 70/70/17 53/53/17
f 71/71/18 72/72/18 69/69/18
f 72/72/18 73/73/18 69/69/18
f 73/73/27 70/70/27 69/69/27
f 74/74/28 70/70/28 73/73/28
f 75/75/17 76/76/17 74/74/17
f 76/76/17 77/77/17 74/74/17
f 77/77/29 70/70/29 74/74/29
f 78/78/17 70/70/17 77/77/17
f 79/79/17 80/80/17 78/78/17
f 80/80/17 81/81/17 78/78/17
f 81/81/30 70/70/30 78/78/30
f 82/82/17 70/70/17 81/81/17
f 83/83/17 84/84/17 82/82/17
f 84/84/17 70/70/17 82/82/17
f 85/85/31 86/86/31 87/87/31
f 88/88/31 89/89/31 85/85/31
f 86/86/31 85/85/31 89/89/31
f 90/90/31 91/91/31 88/88/31
f 91/91/31 92/92/31 88/88/31
f 92/92/32 89/89/32 88/88/32
f 93/93/31 94/94/31 92/92/31
f 92/92/31 94/94/31 89/89/31
f 95/95/31 96/96/31 93/93/31
f 96/96/31 94/94/31 93/93/31
s 1
f 30/32/14 22/22/14 29/29/14
f 34/36/2 22/22/2 33/33/2
