# Blender v3.0.1 OBJ File: 'rockerfeller_plaza.blend'
# www.blender.org
o geometryt000010000010000110010110000110000110100100000010st39
v 630.371704 -188.202774 966.926514
v 632.256348 -184.642075 930.846802
v 629.172791 -190.467682 930.846802
v 631.292786 -186.462479 966.926514
v 631.902405 -185.310883 966.926514
v 632.256348 -184.642075 966.926514
v 629.674805 -189.519272 966.926514
v 629.172791 -190.467682 966.926514
v 629.574402 -191.579178 930.846802
v 635.411743 -194.640381 930.846802
v 635.411743 -194.640381 966.926514
v 629.574402 -191.579178 966.926514
v 633.384888 -182.508972 966.926514
v 633.666260 -181.975571 930.846802
v 633.051147 -183.141571 930.846802
v 633.666260 -181.975571 966.926514
v 633.051147 -183.141571 966.926514
v 638.471313 -172.878571 966.926514
v 638.528198 -172.770981 930.846802
v 634.828186 -179.761871 930.846802
v 638.528198 -172.770981 966.926514
v 634.828186 -179.761871 966.926514
v 638.047974 -191.502777 966.926514
v 636.411682 -194.603271 930.846802
v 640.103394 -187.607971 930.846802
v 636.411682 -194.603271 966.926514
v 640.103394 -187.607971 966.926514
v 642.342285 -165.564178 966.926514
v 642.342285 -165.564178 930.846802
v 639.259399 -171.390182 930.846802
v 639.259399 -171.390182 966.926514
v 640.495850 -186.862671 966.926514
v 640.495850 -186.862671 930.846802
v 641.728516 -184.531982 930.846802
v 641.728516 -184.531982 966.926514
v 641.892700 -184.221573 966.926514
v 641.892700 -184.221573 930.846802
v 644.358093 -179.560272 930.846802
v 644.358093 -179.560272 966.926514
v 644.522278 -179.249771 966.926514
v 644.522278 -179.249771 930.846802
v 645.138672 -178.084473 930.846802
v 645.138672 -178.084473 966.926514
v 645.302856 -177.773972 930.846802
v 645.919189 -176.608673 930.846802
v 645.919189 -176.608673 966.926514
v 645.302856 -177.773972 966.926514
v 647.430481 -173.751282 966.926514
v 646.083374 -176.298172 930.846802
v 648.548767 -171.636871 930.846802
v 646.083374 -176.298172 966.926514
v 648.548767 -171.636871 966.926514
v 648.713013 -171.326385 966.926514
v 648.713013 -171.326385 930.846802
v 649.945557 -168.995773 930.846802
v 649.945557 -168.995773 966.926514
v 649.339111 -168.288071 930.846802
v 643.501709 -165.226883 930.846802
v 643.501709 -165.226883 966.926514
v 649.339111 -168.288071 966.926514
vt 1.018680 4.000000
vt 0.000000 0.000000
vt 1.666670 0.000000
vt 0.520790 4.000000
vt 0.191330 4.000000
vt 0.000000 4.000000
vt 1.395330 4.000000
vt 1.666670 4.000000
vt 0.000000 0.000000
vt 1.666670 0.000000
vt 1.666670 4.000000
vt 0.000000 4.000000
vt 0.152510 4.000000
vt 0.000000 0.000000
vt 0.333330 0.000000
vt 0.000000 4.000000
vt 0.333330 4.000000
vt 0.030790 4.000000
vt 0.000000 0.000000
vt 2.000000 0.000000
vt 0.000000 4.000000
vt 2.000000 4.000000
vt 0.886450 4.000000
vt 0.000000 0.000000
vt 2.000000 0.000000
vt 0.000000 4.000000
vt 2.000000 4.000000
vt 0.000000 4.000000
vt 0.000000 0.000000
vt 1.666670 0.000000
vt 1.666670 4.000000
vt 0.000000 4.000000
vt 0.000000 0.000000
vt 0.666670 0.000000
vt 0.666670 4.000000
vt 0.000000 4.000000
vt 0.000000 0.000000
vt 1.333330 0.000000
vt 1.333330 4.000000
vt 0.000000 4.000000
vt 0.000000 0.000000
vt 0.333330 0.000000
vt 0.333330 4.000000
vt 0.000000 0.000000
vt 0.333330 0.000000
vt 0.333330 4.000000
vt 0.000000 4.000000
vt 0.728530 4.000000
vt 0.000000 0.000000
vt 1.333330 0.000000
vt 0.000000 4.000000
vt 1.333330 4.000000
vt 0.000000 4.000000
vt 0.000000 0.000000
vt 0.666670 0.000000
vt 0.666670 4.000000
vt 0.000000 0.000000
vt 1.666670 0.000000
vt 1.666670 4.000000
vt 0.000000 4.000000
vn -0.8838 0.4678 0.0000
vn -0.8839 0.4678 -0.0000
vn -0.4644 -0.8856 0.0000
vn -0.8845 0.4666 0.0000
vn -0.8844 0.4667 0.0000
vn 0.8844 -0.4667 -0.0000
vn 0.8844 -0.4668 0.0000
vn -0.8839 0.4677 0.0000
vn 0.8840 -0.4675 0.0000
vn 0.8840 -0.4676 0.0000
vn 0.8839 -0.4676 0.0000
vn 0.4644 0.8856 0.0000
s off
f 1/1/1 2/2/1 3/3/1
f 4/4/2 2/2/2 1/1/2
f 5/5/1 2/2/1 4/4/1
f 6/6/1 2/2/1 5/5/1
f 7/7/1 3/3/1 8/8/1
f 7/7/1 1/1/1 3/3/1
f 9/9/3 10/10/3 11/11/3
f 12/12/3 9/9/3 11/11/3
f 13/13/4 14/14/4 15/15/4
f 16/16/4 14/14/4 13/13/4
f 13/13/5 15/15/5 17/17/5
f 18/18/1 19/19/1 20/20/1
f 21/21/1 19/19/1 18/18/1
f 18/18/1 20/20/1 22/22/1
f 23/23/6 24/24/6 25/25/6
f 26/26/7 24/24/7 23/23/7
f 23/23/6 25/25/6 27/27/6
f 28/28/8 29/29/8 30/30/8
f 28/28/8 30/30/8 31/31/8
f 32/32/9 33/33/9 34/34/9
f 32/32/9 34/34/9 35/35/9
f 36/36/9 37/37/9 38/38/9
f 36/36/9 38/38/9 39/39/9
f 40/40/10 41/41/10 42/42/10
f 40/40/11 42/42/11 43/43/11
f 44/44/10 45/45/10 46/46/10
f 47/47/9 44/44/9 46/46/9
f 48/48/9 49/49/9 50/50/9
f 51/51/10 49/49/10 48/48/10
f 48/48/9 50/50/9 52/52/9
f 53/53/9 54/54/9 55/55/9
f 53/53/9 55/55/9 56/56/9
f 57/57/12 58/58/12 59/59/12
f 60/60/12 57/57/12 59/59/12
