# Blender v3.0.1 OBJ File: 'rockerfeller_plaza.blend'
# www.blender.org
o geometryt000010000010000110010110000110000110100000100010st30
v 712.773682 -152.777054 404.440277
v 712.773682 -152.777054 383.139648
v 714.157349 -153.527451 383.139648
v 714.157349 -153.527451 404.440277
v 714.640564 -153.789551 383.139648
v 716.024292 -154.539948 383.139648
v 716.024292 -154.539948 404.440277
v 714.640564 -153.789551 404.440277
v 716.507446 -154.802048 383.139648
v 720.658447 -157.053162 383.139648
v 720.658447 -157.053162 404.440277
v 716.507446 -154.802048 404.440277
v 721.141663 -157.315262 383.139648
v 722.525391 -158.065659 383.139648
v 722.525391 -158.065659 404.440277
v 721.141663 -157.315262 404.440277
v 723.008606 -158.327652 404.440277
v 723.008606 -158.327652 383.139648
v 724.392273 -159.078049 383.139648
v 724.392273 -159.078049 404.440277
v 713.189209 -151.305054 404.440277
v 713.394775 -150.930847 383.139648
v 712.636597 -152.310257 383.139648
v 713.394775 -150.930847 404.440277
v 712.636597 -152.310257 404.440277
v 714.460449 -148.991852 383.139648
v 713.702393 -150.371262 383.139648
v 713.702393 -150.371262 404.440277
v 714.460449 -148.991852 404.440277
v 718.558899 -141.535156 404.440277
v 718.558899 -141.535156 383.139648
v 714.768066 -148.432251 383.139648
v 714.768066 -148.432251 404.440277
v 719.624695 -139.596161 404.440277
v 719.624695 -139.596161 383.139648
v 718.866455 -140.975555 383.139648
v 718.866455 -140.975555 404.440277
v 722.870361 -133.690857 404.440277
v 723.723083 -132.139557 383.139648
v 719.932251 -139.036560 383.139648
v 723.723083 -132.139557 404.440277
v 719.932251 -139.036560 404.440277
v 724.788818 -130.200562 404.440277
v 724.788818 -130.200562 383.139648
v 724.030701 -131.579956 383.139648
v 724.030701 -131.579956 404.440277
v 725.854614 -128.261459 383.139648
v 725.096375 -129.640854 383.139648
v 725.096375 -129.640854 404.440277
v 725.854614 -128.261459 404.440277
v 724.344666 -159.886658 383.139648
v 723.591797 -161.268860 383.139648
v 723.591797 -161.268860 404.440277
v 724.344666 -159.886658 404.440277
v 723.630615 -162.122849 383.139648
v 726.402222 -163.615662 383.139648
v 726.402222 -163.615662 404.440277
v 723.630615 -162.122849 404.440277
v 727.710876 -128.885056 383.139648
v 726.330383 -128.128860 383.139648
v 726.330383 -128.128860 404.440277
v 727.710876 -128.885056 404.440277
v 729.559998 -129.898056 383.139648
v 728.179565 -129.141861 383.139648
v 728.179565 -129.141861 404.440277
v 729.559998 -129.898056 404.440277
v 731.409180 -130.911057 404.440277
v 731.409180 -130.911057 383.139648
v 730.028687 -130.154861 383.139648
v 730.028687 -130.154861 404.440277
v 740.160706 -135.705353 383.139648
v 731.877869 -131.167847 383.139648
v 731.877869 -131.167847 404.440277
v 740.160706 -135.705353 404.440277
v 742.009766 -136.718353 404.440277
v 742.009766 -136.718353 383.139648
v 740.629395 -135.962158 383.139648
v 740.629395 -135.962158 404.440277
v 743.859009 -137.731354 404.440277
v 743.859009 -137.731354 383.139648
v 742.478516 -136.975159 383.139648
v 742.478516 -136.975159 404.440277
v 745.708069 -138.744354 383.139648
v 744.327698 -137.988159 383.139648
v 744.327698 -137.988159 404.440277
v 745.708069 -138.744354 404.440277
v 726.958008 -163.523148 383.139648
v 727.715576 -162.143448 383.139648
v 727.715576 -162.143448 404.440277
v 726.958008 -163.523148 404.440277
v 728.089478 -161.462448 404.440277
v 728.089478 -161.462448 383.139648
v 728.847107 -160.082748 383.139648
v 728.847107 -160.082748 404.440277
v 729.220947 -159.401855 383.139648
v 730.736206 -156.642349 383.139648
v 730.736206 -156.642349 404.440277
v 729.220947 -159.401855 404.440277
v 731.110107 -155.961456 383.139648
v 734.898071 -149.062851 383.139648
v 734.898071 -149.062851 404.440277
v 731.110107 -155.961456 404.440277
v 735.272095 -148.381851 404.440277
v 735.272095 -148.381851 383.139648
v 736.787292 -145.622452 383.139648
v 736.787292 -145.622452 404.440277
v 737.161194 -144.941452 404.440277
v 737.161194 -144.941452 383.139648
v 737.918762 -143.561752 383.139648
v 737.918762 -143.561752 404.440277
v 738.292664 -142.880859 383.139648
v 739.050293 -141.501053 383.139648
v 739.050293 -141.501053 404.440277
v 738.292664 -142.880859 404.440277
v 739.966980 -141.608047 404.440277
v 739.966980 -141.608047 383.139648
v 742.730713 -143.115448 383.139648
v 742.730713 -143.115448 404.440277
v 743.989380 -142.597748 404.440277
v 743.989380 -142.597748 383.139648
v 745.502502 -139.837158 383.139648
v 745.502502 -139.837158 404.440277
vt 0.000000 1.666670
vt 0.000000 0.000000
vt 0.250000 0.000000
vt 0.250000 1.666670
vt 0.000000 0.000000
vt 0.250000 0.000000
vt 0.250000 1.666670
vt 0.000000 1.666670
vt 0.000000 0.000000
vt 0.750000 0.000000
vt 0.750000 1.666670
vt 0.000000 1.666670
vt 0.000000 0.000000
vt 0.250000 0.000000
vt 0.250000 1.666670
vt 0.000000 1.666670
vt 0.000000 1.666670
vt 0.000000 0.000000
vt 0.250000 0.000000
vt 0.250000 1.666670
vt 0.067810 1.666670
vt 0.000000 0.000000
vt 0.250000 0.000000
vt 0.000000 1.666670
vt 0.250000 1.666670
vt 0.000000 0.000000
vt 0.250000 0.000000
vt 0.250000 1.666670
vt 0.000000 1.666670
vt 0.000000 1.666670
vt 0.000000 0.000000
vt 1.250000 0.000000
vt 1.250000 1.666670
vt 0.000000 1.666670
vt 0.000000 0.000000
vt 0.250000 0.000000
vt 0.250000 1.666670
vt 0.281160 1.666670
vt 0.000000 0.000000
vt 1.250000 0.000000
vt 0.000000 1.666670
vt 1.250000 1.666670
vt 0.000000 1.666670
vt 0.000000 0.000000
vt 0.250000 0.000000
vt 0.250000 1.666670
vt 0.000000 0.000000
vt 0.250000 0.000000
vt 0.250000 1.666670
vt 0.000000 1.666670
vt 0.000000 0.000000
vt 0.250000 0.000000
vt 0.250000 1.666670
vt 0.000000 1.666670
vt 0.000000 0.000000
vt 0.500000 0.000000
vt 0.500000 1.666670
vt 0.000000 1.666670
vt 0.000000 0.000000
vt 0.250000 0.000000
vt 0.250000 1.666670
vt 0.000000 1.666670
vt 0.000000 0.000000
vt 0.250000 0.000000
vt 0.250000 1.666670
vt 0.000000 1.666670
vt 0.000000 1.666670
vt 0.000000 0.000000
vt 0.250000 0.000000
vt 0.250000 1.666670
vt 0.000000 0.000000
vt 1.500000 0.000000
vt 1.500000 1.666670
vt 0.000000 1.666670
vt 0.000000 1.666670
vt 0.000000 0.000000
vt 0.250000 0.000000
vt 0.250000 1.666670
vt 0.000000 1.666670
vt 0.000000 0.000000
vt 0.250000 0.000000
vt 0.250000 1.666670
vt 0.000000 0.000000
vt 0.250000 0.000000
vt 0.250000 1.666670
vt 0.000000 1.666670
vt 0.000000 0.000000
vt 0.250000 0.000000
vt 0.250000 1.666670
vt 0.000000 1.666670
vt 0.000000 1.666670
vt 0.000000 0.000000
vt 0.250000 0.000000
vt 0.250000 1.666670
vt 0.000000 0.000000
vt 0.500000 0.000000
vt 0.500000 1.666670
vt 0.000000 1.666670
vt 0.000000 0.000000
vt 1.250000 0.000000
vt 1.250000 1.666670
vt 0.000000 1.666670
vt 0.000000 1.666670
vt 0.000000 0.000000
vt 0.500000 0.000000
vt 0.500000 1.666670
vt 0.000000 1.666670
vt 0.000000 0.000000
vt 0.250000 0.000000
vt 0.250000 1.666670
vt 0.000000 0.000000
vt 0.250000 0.000000
vt 0.250000 1.666670
vt 0.000000 1.666670
vt 0.000000 1.666670
vt 0.000000 0.000000
vt 0.500000 0.000000
vt 0.500000 1.666670
vt 0.000000 1.666670
vt 0.000000 0.000000
vt 0.500000 0.000000
vt 0.500000 1.666670
vn -0.4767 -0.8790 0.0000
vn -0.4767 -0.8791 0.0000
vn -0.8764 0.4816 0.0000
vn -0.8765 0.4815 0.0000
vn -0.8763 0.4818 0.0000
vn -0.8764 0.4817 0.0000
vn -0.8763 0.4817 0.0000
vn -0.8781 0.4784 0.0000
vn -0.8782 0.4783 0.0000
vn -0.4742 -0.8804 0.0000
vn 0.4804 0.8770 0.0000
vn 0.4805 0.8770 0.0000
vn 0.8766 -0.4813 0.0000
vn 0.8765 -0.4813 0.0000
vn 0.8765 -0.4814 0.0000
vn -0.4788 -0.8779 0.0000
vn 0.8769 -0.4807 0.0000
vn 0.8769 -0.4806 0.0000
s off
f 1/1/1 2/2/1 3/3/1
f 1/1/2 3/3/2 4/4/2
f 5/5/2 6/6/2 7/7/2
f 8/8/1 5/5/1 7/7/1
f 9/9/2 10/10/2 11/11/2
f 12/12/2 9/9/2 11/11/2
f 13/13/2 14/14/2 15/15/2
f 16/16/1 13/13/1 15/15/1
f 17/17/1 18/18/1 19/19/1
f 17/17/1 19/19/1 20/20/1
f 21/21/3 22/22/3 23/23/3
f 24/24/4 22/22/4 21/21/4
f 21/21/5 23/23/5 25/25/5
f 26/26/3 27/27/3 28/28/3
f 29/29/3 26/26/3 28/28/3
f 30/30/6 31/31/6 32/32/6
f 30/30/6 32/32/6 33/33/6
f 34/34/6 35/35/6 36/36/6
f 34/34/7 36/36/7 37/37/7
f 38/38/7 39/39/7 40/40/7
f 41/41/7 39/39/7 38/38/7
f 38/38/6 40/40/6 42/42/6
f 43/43/3 44/44/3 45/45/3
f 43/43/6 45/45/6 46/46/6
f 47/47/6 48/48/6 49/49/6
f 50/50/7 47/47/7 49/49/7
f 51/51/8 52/52/8 53/53/8
f 54/54/9 51/51/9 53/53/9
f 55/55/10 56/56/10 57/57/10
f 58/58/10 55/55/10 57/57/10
f 59/59/11 60/60/11 61/61/11
f 62/62/11 59/59/11 61/61/11
f 63/63/12 64/64/12 65/65/12
f 66/66/11 63/63/11 65/65/11
f 67/67/11 68/68/11 69/69/11
f 67/67/11 69/69/11 70/70/11
f 71/71/12 72/72/12 73/73/12
f 74/74/11 71/71/11 73/73/11
f 75/75/12 76/76/12 77/77/12
f 75/75/12 77/77/12 78/78/12
f 79/79/11 80/80/11 81/81/11
f 79/79/11 81/81/11 82/82/11
f 83/83/11 84/84/11 85/85/11
f 86/86/12 83/83/12 85/85/12
f 87/87/13 88/88/13 89/89/13
f 90/90/13 87/87/13 89/89/13
f 91/91/13 92/92/13 93/93/13
f 91/91/14 93/93/14 94/94/14
f 95/95/13 96/96/13 97/97/13
f 98/98/14 95/95/14 97/97/14
f 99/99/13 100/100/13 101/101/13
f 102/102/14 99/99/14 101/101/14
f 103/103/13 104/104/13 105/105/13
f 103/103/14 105/105/14 106/106/14
f 107/107/13 108/108/13 109/109/13
f 107/107/13 109/109/13 110/110/13
f 111/111/13 112/112/13 113/113/13
f 114/114/15 111/111/15 113/113/15
f 115/115/16 116/116/16 117/117/16
f 115/115/16 117/117/16 118/118/16
f 119/119/17 120/120/17 121/121/17
f 119/119/18 121/121/18 122/122/18
