# Blender v3.0.1 OBJ File: 'rockerfeller_plaza.blend'
# www.blender.org
o geometryt000010000010000110010110000110000110100000010100st181
v 795.106567 -306.206268 149.624725
v 797.204773 -302.262665 149.624725
v 800.865906 -304.207275 149.624725
v 802.110107 -310.276764 149.624725
v 813.789612 -309.940674 149.624725
v 815.696777 -306.382874 149.624725
v 812.769165 -281.808380 149.624725
v 814.305420 -310.214783 149.624725
v 834.949341 -321.184662 149.624725
v 832.240356 -326.323364 149.624725
v 823.232544 -292.324768 149.624725
v 823.257812 -292.277557 149.624725
v 844.409058 -303.521576 149.624725
v 846.398743 -299.679169 149.624725
v 840.897827 -310.079559 149.624725
v 797.204773 -302.262665 174.624725
v 795.106567 -306.206268 174.624725
v 800.865906 -304.207275 174.624725
v 802.110107 -310.276764 174.624725
v 813.789612 -309.940674 174.624725
v 815.696777 -306.382874 174.624725
v 812.769165 -281.808380 174.624725
v 814.305420 -310.214783 174.624725
v 828.903687 -317.972076 174.624725
v 834.949341 -321.184662 174.624725
v 832.240356 -326.323364 174.624725
v 816.494812 -304.894073 174.624725
v 823.232544 -292.324768 174.624725
v 823.257812 -292.277557 174.624725
v 829.301025 -295.490173 174.624725
v 844.409058 -303.521576 174.624725
v 846.398743 -299.679169 174.624725
v 823.257812 -292.277557 184.624725
v 813.789612 -309.940674 184.624725
v 840.897827 -310.079559 184.624725
v 834.949341 -321.184662 184.624725
v 844.409058 -303.521576 184.624725
vt 0.541500 0.092490
vt 0.533660 0.096810
vt 0.536030 0.104140
vt 0.546680 0.106510
vt 0.542360 0.130060
vt 0.535280 0.133990
vt 0.491490 0.128660
vt 0.542690 0.131090
vt 0.556090 0.172440
vt 0.566300 0.166860
vt 0.507300 0.149510
vt 0.507200 0.149560
vt 0.520940 0.191930
vt 0.513310 0.196030
vt 0.533990 0.184690
vt 0.533660 0.096810
vt 0.541500 0.092490
vt 0.536030 0.104140
vt 0.546680 0.106510
vt 0.542360 0.130060
vt 0.535280 0.133990
vt 0.491490 0.128660
vt 0.542690 0.131090
vt 0.552170 0.160330
vt 0.556090 0.172440
vt 0.566300 0.166860
vt 0.532310 0.135630
vt 0.507300 0.149510
vt 0.507200 0.149560
vt 0.511130 0.161660
vt 0.520940 0.191930
vt 0.513310 0.196030
vt 0.507200 0.149560
vt 0.542360 0.130060
vt 0.533990 0.184690
vt 0.556090 0.172440
vt 0.520940 0.191930
vn -0.0000 0.0000 -1.0000
vn 0.0001 0.0000 -1.0000
vn 0.0000 0.0000 1.0000
s off
f 1/1/1 2/2/1 3/3/1
f 4/4/1 1/1/1 3/3/1
f 3/3/1 5/5/1 4/4/1
f 6/6/1 3/3/1 7/7/1
f 3/3/1 6/6/1 5/5/1
f 4/4/1 5/5/1 8/8/1
f 8/8/1 9/9/1 4/4/1
f 10/10/1 4/4/1 9/9/1
f 11/11/1 6/6/1 7/7/1
f 7/7/2 12/12/2 11/11/2
f 7/7/1 13/13/1 12/12/1
f 14/14/1 13/13/1 7/7/1
f 5/5/1 6/6/1 15/15/1
f 8/8/1 15/15/1 9/9/1
f 12/12/1 15/15/1 11/11/1
f 8/8/1 5/5/1 15/15/1
f 15/15/1 6/6/1 11/11/1
f 13/13/1 15/15/1 12/12/1
f 16/16/3 17/17/3 18/18/3
f 18/18/3 17/17/3 19/19/3
f 20/20/3 18/18/3 19/19/3
f 21/21/3 22/22/3 18/18/3
f 21/21/3 18/18/3 20/20/3
f 23/23/3 20/20/3 19/19/3
f 24/24/3 23/23/3 19/19/3
f 25/25/3 24/24/3 19/19/3
f 25/25/3 19/19/3 26/26/3
f 21/21/3 27/27/3 22/22/3
f 28/28/3 22/22/3 27/27/3
f 28/28/3 29/29/3 22/22/3
f 29/29/3 30/30/3 22/22/3
f 22/22/3 30/30/3 31/31/3
f 31/31/3 32/32/3 22/22/3
f 33/33/3 34/34/3 35/35/3
f 34/34/3 36/36/3 35/35/3
f 37/37/3 33/33/3 35/35/3
