# Blender v3.0.1 OBJ File: 'rockerfeller_plaza.blend'
# www.blender.org
o geometryt000010000010000110010110000110000110100000100100st30
v 451.896301 -232.117523 630.299255
v 451.896301 -232.117523 612.066467
v 451.180695 -233.450424 612.066467
v 451.180695 -233.450424 630.299255
v 453.468018 -229.189728 630.299255
v 453.468018 -229.189728 612.066467
v 452.036896 -231.855621 612.066467
v 452.036896 -231.855621 630.299255
v 454.324097 -227.594925 612.066467
v 453.608582 -228.927826 612.066467
v 453.608582 -228.927826 630.299255
v 454.324097 -227.594925 630.299255
v 456.611389 -223.334122 612.066467
v 454.464783 -227.332916 612.066467
v 454.464783 -227.332916 630.299255
v 456.611389 -223.334122 630.299255
v 458.183105 -220.406326 630.299255
v 458.183105 -220.406326 612.066467
v 456.752014 -223.072220 612.066467
v 456.752014 -223.072220 630.299255
v 460.470276 -216.145630 612.066467
v 458.323700 -220.144424 612.066467
v 458.323700 -220.144424 630.299255
v 460.470276 -216.145630 630.299255
v 460.889893 -215.364120 630.299255
v 461.326477 -214.550827 612.066467
v 460.610992 -215.883728 612.066467
v 461.326477 -214.550827 630.299255
v 460.610992 -215.883728 630.299255
v 462.898193 -211.623016 630.299255
v 462.898193 -211.623016 612.066467
v 461.467102 -214.288818 612.066467
v 461.467102 -214.288818 630.299255
v 463.754395 -210.028122 630.299255
v 463.754395 -210.028122 612.066467
v 463.038818 -211.361023 612.066467
v 463.038818 -211.361023 630.299255
v 451.603882 -234.069717 612.066467
v 456.933594 -236.935730 612.066467
v 456.933594 -236.935730 630.299255
v 451.603882 -234.069717 630.299255
v 457.685608 -236.948425 630.299255
v 457.685608 -236.948425 612.066467
v 458.401093 -235.615524 612.066467
v 458.401093 -235.615524 630.299255
v 458.541687 -235.353531 630.299255
v 458.541687 -235.353531 612.066467
v 459.972717 -232.687622 612.066467
v 459.972717 -232.687622 630.299255
v 460.113281 -232.425720 630.299255
v 460.113281 -232.425720 612.066467
v 460.828796 -231.092728 612.066467
v 460.828796 -231.092728 630.299255
v 460.969391 -230.830826 612.066467
v 463.115906 -226.831924 612.066467
v 463.115906 -226.831924 630.299255
v 460.969391 -230.830826 630.299255
v 463.256500 -226.570023 630.299255
v 463.256500 -226.570023 612.066467
v 464.687500 -223.904129 612.066467
v 464.687500 -223.904129 630.299255
v 464.828094 -223.642120 612.066467
v 466.974609 -219.643326 612.066467
v 466.974609 -219.643326 630.299255
v 464.828094 -223.642120 630.299255
v 467.115204 -219.381317 630.299255
v 467.115204 -219.381317 612.066467
v 467.830688 -218.048416 612.066467
v 467.830688 -218.048416 630.299255
v 467.971313 -217.786423 612.066467
v 469.402283 -215.120529 612.066467
v 469.402283 -215.120529 630.299255
v 467.971313 -217.786423 630.299255
v 469.542908 -214.858627 612.066467
v 470.258392 -213.525620 612.066467
v 470.258392 -213.525620 630.299255
v 469.542908 -214.858627 630.299255
v 469.832703 -212.905029 612.066467
v 464.503113 -210.039017 612.066467
v 464.503113 -210.039017 630.299255
v 469.832703 -212.905029 630.299255
vt 0.000000 1.500000
vt 0.000000 0.000000
vt 0.062500 0.000000
vt 0.062500 1.500000
vt 0.000000 0.000000
vt 0.062500 0.000000
vt 0.062500 1.500000
vt 0.000000 1.500000
vt 0.038140 1.500000
vt 0.000000 0.000000
vt 0.062500 0.000000
vt 0.000000 1.500000
vt 0.062500 1.500000
vt 0.000000 1.500000
vt 0.000000 0.000000
vt 0.125000 0.000000
vt 0.125000 1.500000
vt 0.000000 1.500000
vt 0.000000 0.000000
vt 0.062500 0.000000
vt 0.062500 1.500000
vt 0.000000 0.000000
vt 0.250000 0.000000
vt 0.250000 1.500000
vt 0.000000 1.500000
vt 0.000000 1.500000
vt 0.000000 0.000000
vt 0.062500 0.000000
vt 0.062500 1.500000
vt 0.000000 1.500000
vt 0.000000 0.000000
vt 0.125000 0.000000
vt 0.125000 1.500000
vt 0.000000 1.500000
vt 0.000000 0.000000
vt 0.062500 0.000000
vt 0.062500 1.500000
vt 0.000000 0.000000
vt 0.187500 0.000000
vt 0.187500 1.500000
vt 0.000000 1.500000
vt 0.000000 1.500000
vt 0.000000 0.000000
vt 0.125000 0.000000
vt 0.125000 1.500000
vt 0.000000 0.000000
vt 0.187500 0.000000
vt 0.187500 1.500000
vt 0.000000 1.500000
vt 0.000000 1.500000
vt 0.000000 0.000000
vt 0.062500 0.000000
vt 0.062500 1.500000
vt 0.000000 0.000000
vt 0.125000 0.000000
vt 0.125000 1.500000
vt 0.000000 1.500000
vt 0.000000 0.000000
vt 0.062500 0.000000
vt 0.062500 1.500000
vt 0.000000 1.500000
vt 0.000000 0.000000
vt 0.250000 0.000000
vt 0.250000 1.500000
vt 0.000000 1.500000
vt 0.000000 1.500000
vt 0.000000 0.000000
vt 0.125000 0.000000
vt 0.125000 1.500000
vt 0.000000 0.000000
vt 0.187500 0.000000
vt 0.187500 1.500000
vt 0.000000 1.500000
vt 0.000000 1.500000
vt 0.000000 0.000000
vt 0.125000 0.000000
vt 0.125000 1.500000
vt 0.000000 0.000000
vt 0.187500 0.000000
vt 0.187500 1.500000
vt 0.000000 1.500000
vn -0.8811 0.4730 0.0000
vn -0.8811 0.4729 0.0000
vn -0.8811 0.4728 0.0000
vn -0.4736 -0.8807 0.0000
vn 0.8811 -0.4729 0.0000
vn 0.8811 -0.4730 0.0000
vn 0.4736 0.8807 0.0000
s off
f 1/1/1 2/2/1 3/3/1
f 1/1/1 3/3/1 4/4/1
f 9/5/1 10/6/1 11/7/1
f 12/8/2 9/5/2 11/7/2
f 25/9/1 26/10/1 27/11/1
f 28/12/2 26/10/2 25/9/2
f 25/9/3 27/11/3 29/13/3
f 30/14/1 31/15/1 32/16/1
f 30/14/1 32/16/1 33/17/1
f 34/18/1 35/19/1 36/20/1
f 34/18/1 36/20/1 37/21/1
f 38/22/4 39/23/4 40/24/4
f 41/25/4 38/22/4 40/24/4
f 42/26/5 43/27/5 44/28/5
f 42/26/5 44/28/5 45/29/5
f 46/30/6 47/31/6 48/32/6
f 46/30/6 48/32/6 49/33/6
f 50/34/5 51/35/5 52/36/5
f 50/34/5 52/36/5 53/37/5
f 54/38/5 55/39/5 56/40/5
f 57/41/6 54/38/6 56/40/6
f 58/42/5 59/43/5 60/44/5
f 58/42/6 60/44/6 61/45/6
f 62/46/6 63/47/6 64/48/6
f 65/49/6 62/46/6 64/48/6
f 66/50/5 67/51/5 68/52/5
f 66/50/5 68/52/5 69/53/5
f 70/54/6 71/55/6 72/56/6
f 73/57/5 70/54/5 72/56/5
f 74/58/6 75/59/6 76/60/6
f 77/61/5 74/58/5 76/60/5
f 78/62/7 79/63/7 80/64/7
f 81/65/7 78/62/7 80/64/7
s 1
f 5/66/1 6/67/1 7/68/1
f 5/66/1 7/68/1 8/69/1
f 13/70/1 14/71/1 15/72/1
f 16/73/1 13/70/1 15/72/1
f 17/74/1 18/75/1 19/76/1
f 17/74/1 19/76/1 20/77/1
f 21/78/1 22/79/1 23/80/1
f 24/81/1 21/78/1 23/80/1
