# Blender v3.0.1 OBJ File: 'rockerfeller_plaza.blend'
# www.blender.org
o geometryt000010000010000110010110000110000100110010110110st168
v 41.399292 -99.766182 565.591064
v 44.548664 -93.967712 565.591064
v 60.757683 -102.762024 565.591064
v 59.069523 -109.354027 565.591064
v 41.399292 -99.766182 580.191101
v 59.069523 -109.354027 580.191101
v 60.757683 -102.762024 580.191101
v 44.548664 -93.967712 580.191101
vt 0.170400 0.068290
vt 0.158840 0.074780
vt 0.169690 0.107240
vt 0.182220 0.103690
vt 0.170400 0.068290
vt 0.182220 0.103690
vt 0.169690 0.107240
vt 0.158840 0.074780
vn 0.0000 0.0000 -1.0000
vn 0.0000 0.0000 1.0000
s off
f 1/1/1 2/2/1 3/3/1
f 1/1/1 3/3/1 4/4/1
f 5/5/2 6/6/2 7/7/2
f 8/8/2 5/5/2 7/7/2
