# Blender v3.0.1 OBJ File: 'rockerfeller_plaza.blend'
# www.blender.org
o geometryt000010000010000110010110000110000110100100000000st146
v 474.816437 -151.289871 888.525146
v 474.652832 -151.593674 927.098816
v 474.816437 -151.289871 927.098816
v 476.687317 -147.815582 888.525146
v 474.652832 -151.593674 888.198792
v 476.687317 -147.815582 927.098816
v 476.824219 -147.561371 927.098816
v 476.824219 -147.561371 888.525146
v 477.447815 -146.403275 888.525146
v 477.447815 -146.403275 927.098816
v 477.584717 -146.149185 927.098816
v 477.584717 -146.149185 888.525146
v 480.079346 -141.516785 888.525146
v 480.079346 -141.516785 927.098816
v 480.216248 -141.262573 927.098816
v 480.216248 -141.262573 888.525146
v 480.839844 -140.104477 888.525146
v 480.839844 -140.104477 927.098816
v 480.976746 -139.850372 927.098816
v 480.976746 -139.850372 888.525146
v 482.847626 -136.376083 888.525146
v 487.709412 -127.347984 888.198792
v 482.847626 -136.376083 927.098816
v 482.984528 -136.121872 927.098816
v 482.984528 -136.121872 888.525146
v 483.608215 -134.963776 888.525146
v 483.608215 -134.963776 927.098816
v 483.745026 -134.709671 927.098816
v 483.745026 -134.709671 888.525146
v 486.239624 -130.077179 888.525146
v 486.239624 -130.077179 927.098816
v 486.376526 -129.823074 927.098816
v 486.376526 -129.823074 888.525146
v 487.000244 -128.664978 888.525146
v 487.000244 -128.664978 927.098816
v 487.137024 -128.410873 927.098816
v 487.137024 -128.410873 888.525146
v 489.008026 -124.936485 888.525146
v 489.008026 -124.936485 927.098816
v 489.171631 -124.632782 927.098816
v 489.171631 -124.632782 888.198792
v 485.569733 -157.465378 888.525146
v 486.044617 -157.720779 927.098816
v 485.569733 -157.465378 927.098816
v 475.143921 -151.857773 888.525146
v 486.044617 -157.720779 888.198792
v 475.143921 -151.857773 927.098816
v 474.669128 -151.602371 927.098816
v 474.669128 -151.602371 888.198792
v 488.973328 -152.325073 888.525146
v 489.392151 -151.553482 927.098816
v 488.973328 -152.325073 927.098816
v 486.463440 -156.949173 888.525146
v 489.392151 -151.553482 888.198792
v 486.463440 -156.949173 927.098816
v 486.044617 -157.720779 927.098816
v 486.044617 -157.720779 888.198792
v 489.568634 -124.846489 888.525146
v 489.172241 -124.633087 927.098816
v 489.568634 -124.846489 927.098816
v 492.281525 -126.306686 888.198792
v 491.885132 -126.093285 888.525146
v 489.172241 -124.633087 888.198792
v 491.885132 -126.093285 927.098816
v 492.281525 -126.306686 927.098816
v 492.141235 -146.394272 888.525146
v 492.416138 -145.878372 927.098816
v 492.141235 -146.394272 927.098816
v 489.392151 -151.553482 888.198792
v 489.667023 -151.037582 888.525146
v 492.416138 -145.878372 888.198792
v 489.667023 -151.037582 927.098816
v 489.392151 -151.553482 927.098816
v 491.862122 -127.085182 888.525146
v 492.281525 -126.306686 927.098816
v 491.862122 -127.085182 927.098816
v 490.818848 -129.021576 888.198792
v 491.238220 -128.243073 888.525146
v 492.281525 -126.306686 888.198792
v 491.238220 -128.243073 927.098816
v 490.818848 -129.021576 927.098816
v 491.478333 -129.377075 888.525146
v 490.818848 -129.021576 927.098816
v 491.478333 -129.377075 927.098816
v 499.085022 -133.477371 888.198792
v 498.425537 -133.121872 888.525146
v 490.818848 -129.021576 888.198792
v 498.425537 -133.121872 927.098816
v 499.085022 -133.477371 927.098816
v 498.857117 -133.881073 888.525146
v 499.076324 -133.472672 927.098816
v 498.857117 -133.881073 927.098816
v 492.635315 -145.470078 888.525146
v 497.595428 -136.231171 888.198792
v 499.076324 -133.472672 888.198792
v 492.635315 -145.470078 927.098816
v 492.416138 -145.878372 927.098816
v 492.416138 -145.878372 888.198792
vt 12.110650 0.128530
vt 12.248650 15.320990
vt 12.110650 15.320990
vt 10.532220 0.128530
vt 12.248650 0.000000
vt 10.532220 15.320990
vt 10.416760 15.320990
vt 10.416760 0.128530
vt 9.890621 15.320990
vt 9.775160 15.320990
vt 9.890621 0.128530
vt 9.775160 0.128530
vt 7.670600 0.128530
vt 7.670600 15.320990
vt 7.555140 15.320990
vt 7.555140 0.128530
vt 7.029000 15.320990
vt 6.913540 15.320990
vt 7.029000 0.128530
vt 6.913540 0.128530
vt 1.233530 0.000000
vt 5.335110 15.320990
vt 5.219650 15.320990
vt 5.335110 0.128530
vt 5.219650 0.128530
vt 4.693510 15.320990
vt 4.578050 15.320990
vt 4.693510 0.128530
vt 4.578050 0.128530
vt 2.473480 0.128530
vt 2.473480 15.320990
vt 2.358030 15.320990
vt 2.358030 0.128530
vt 1.831880 0.128530
vt 1.831880 15.320990
vt 1.716430 15.320990
vt 1.716430 0.128530
vt 0.138000 0.128530
vt 0.138000 15.320990
vt 0.000000 15.320990
vt 0.000000 0.000000
vt 4.950950 0.128530
vt 5.166620 15.320990
vt 4.950950 15.320990
vt 0.215670 0.128530
vt 5.166620 0.000000
vt 0.215670 15.320990
vt 0.000000 15.320990
vt 0.000000 0.000000
vt 2.455740 0.128530
vt 2.806900 15.320990
vt 2.455740 15.320990
vt 0.351170 0.128530
vt 2.806900 0.000000
vt 0.351170 15.320990
vt 0.000000 15.320990
vt 0.000000 0.000000
vt 1.232380 0.128530
vt 1.412470 15.320990
vt 1.232380 15.320990
vt 0.000000 0.000000
vt 0.180090 0.128530
vt 1.412470 0.000000
vt 0.180090 15.320990
vt 0.000000 15.320990
vt 2.338380 0.128530
vt 2.572190 15.320990
vt 2.338380 15.320990
vt 0.000000 0.000000
vt 0.233810 0.128530
vt 2.572190 0.000000
vt 0.233810 15.320990
vt 0.000000 15.320990
vt 0.879840 0.128530
vt 1.233530 15.320990
vt 0.879840 15.320990
vt 0.000000 0.000000
vt 0.353700 0.128530
vt 1.233530 0.000000
vt 0.353700 15.320990
vt 0.000000 15.320990
vt 3.456570 0.128530
vt 3.756290 15.320990
vt 3.456570 15.320990
vt 0.000000 0.000000
vt 0.299720 0.128530
vt 3.756290 0.000000
vt 0.299720 15.320990
vt 0.000000 15.320990
vt 5.446800 0.128530
vt 5.632180 15.320990
vt 5.446800 15.320990
vt 0.185380 0.128530
vt 4.379830 0.000000
vt 5.632180 0.000000
vt 0.185380 15.320990
vt 0.000000 15.320990
vt 0.000000 0.000000
vn -0.8804 0.4742 0.0000
vn -0.8805 0.4741 0.0001
vn -0.8805 0.4741 0.0000
vn -0.8817 0.4718 -0.0006
vn -0.8803 0.4744 0.0000
vn -0.8804 0.4742 0.0001
vn -0.8803 0.4743 0.0000
vn -0.8804 0.4743 0.0000
vn -0.8784 0.4780 -0.0000
vn -0.8806 0.4738 0.0000
vn -0.8804 0.4742 0.0002
vn -0.8805 0.4740 -0.0000
vn -0.8803 0.4744 0.0004
vn -0.8805 0.4741 -0.0002
vn -0.4737 -0.8807 0.0000
vn -0.4738 -0.8806 -0.0000
vn -0.4736 -0.8808 -0.0001
vn 0.8789 -0.4771 0.0000
vn 0.8789 -0.4770 0.0001
vn 0.8789 -0.4770 0.0000
vn 0.4740 0.8805 0.0000
vn 0.4740 0.8805 -0.0001
vn 0.4740 0.8805 0.0001
vn 0.4741 0.8805 0.0000
vn 0.8825 -0.4703 0.0000
vn 0.8826 -0.4702 0.0001
vn 0.8826 -0.4702 0.0000
vn 0.8825 -0.4702 0.0000
vn 0.8804 -0.4742 0.0000
vn 0.8804 -0.4743 -0.0001
vn 0.8803 -0.4744 -0.0000
vn 0.8804 -0.4743 0.0000
vn 0.4745 0.8802 0.0000
vn 0.4747 0.8802 0.0000
vn 0.4745 0.8803 0.0000
vn 0.8811 -0.4730 0.0000
vn 0.8811 -0.4729 0.0000
vn 0.8810 -0.4732 -0.0001
vn 0.8811 -0.4730 0.0001
vn -0.8805 0.4741 0.0003
vn -0.8813 0.4725 0.0004
vn -0.8806 0.4739 0.0003
vn -0.8806 0.4739 -0.0000
vn -0.8792 0.4764 -0.0004
vn -0.8806 0.4740 -0.0005
vn -0.8830 0.4695 0.0019
vn -0.8830 0.4694 0.0019
vn -0.8806 0.4738 -0.0004
vn -0.8805 0.4741 0.0002
vn -0.8806 0.4738 0.0013
vn -0.8806 0.4738 -0.0010
vn -0.8806 0.4738 0.0001
vn -0.4738 -0.8807 0.0000
vn 0.4744 0.8803 -0.0000
s off
f 1/1/1 2/2/1 3/3/1
f 4/4/2 5/5/2 1/1/2
f 2/2/3 1/1/3 5/5/3
f 6/6/1 7/7/1 4/4/1
f 7/7/1 8/8/1 4/4/1
f 4/4/4 8/8/4 5/5/4
f 10/9/3 11/10/3 9/11/3
f 11/10/5 12/12/5 9/11/5
f 5/5/6 12/12/6 13/13/6
f 14/14/1 15/15/1 13/13/1
f 15/15/1 16/16/1 13/13/1
f 18/17/7 19/18/7 17/19/7
f 19/18/3 20/20/3 17/19/3
f 5/5/8 20/20/8 22/21/8
f 23/22/1 24/23/1 21/24/1
f 24/23/1 25/25/1 21/24/1
f 21/24/9 25/25/9 22/21/9
f 27/26/7 28/27/7 26/28/7
f 28/27/10 29/29/10 26/28/10
f 29/29/11 30/30/11 22/21/11
f 31/31/12 32/32/12 30/30/12
f 32/32/7 33/33/7 30/30/7
f 33/33/13 34/34/13 22/21/13
f 35/35/3 36/36/3 34/34/3
f 36/36/10 37/37/10 34/34/10
f 37/37/12 38/38/12 22/21/12
f 39/39/5 40/40/5 38/38/5
f 40/40/1 41/41/1 38/38/1
f 38/38/14 41/41/14 22/21/14
f 42/42/15 43/43/15 44/44/15
f 45/45/16 46/46/16 42/42/16
f 43/43/15 42/42/15 46/46/15
f 47/47/15 48/48/15 45/45/15
f 49/49/17 46/46/17 45/45/17
f 50/50/18 51/51/18 52/52/18
f 53/53/19 54/54/19 50/50/19
f 51/51/20 50/50/20 54/54/20
f 55/55/18 56/56/18 53/53/18
f 56/56/18 57/57/18 53/53/18
f 57/57/18 54/54/18 53/53/18
f 58/58/21 59/59/21 60/60/21
f 61/61/22 58/58/22 62/62/22
f 61/61/23 63/63/23 58/58/23
f 59/59/24 58/58/24 63/63/24
f 64/64/24 65/65/24 62/62/24
f 65/65/21 61/61/21 62/62/21
f 66/66/25 67/67/25 68/68/25
f 69/69/26 66/66/26 70/70/26
f 69/69/27 71/71/27 66/66/27
f 67/67/28 66/66/28 71/71/28
f 72/72/27 73/73/27 70/70/27
f 73/73/28 69/69/28 70/70/28
f 74/74/29 75/75/29 76/76/29
f 77/77/30 74/74/30 78/78/30
f 77/77/31 79/79/31 74/74/31
f 75/75/32 74/74/32 79/79/32
f 80/80/32 81/81/32 78/78/32
f 81/81/29 77/77/29 78/78/29
f 82/82/33 83/83/33 84/84/33
f 85/85/34 82/82/34 86/86/34
f 83/83/35 82/82/35 87/87/35
f 88/88/33 89/89/33 86/86/33
f 89/89/35 85/85/35 86/86/35
f 90/90/36 91/91/36 92/92/36
f 90/90/37 93/93/37 94/94/37
f 94/94/38 95/95/38 90/90/38
f 91/91/37 90/90/37 95/95/37
f 96/96/37 97/97/37 93/93/37
f 97/97/36 98/98/36 93/93/36
f 98/98/39 94/94/39 93/93/39
s 1
f 8/8/40 9/11/41 5/5/42
f 5/5/42 9/11/41 12/12/41
f 5/5/43 13/13/44 16/16/45
f 5/5/43 16/16/45 17/19/46
f 5/5/43 17/19/46 20/20/47
f 20/20/48 21/24/48 22/21/48
f 25/25/6 26/28/1 22/21/49
f 26/28/1 29/29/50 22/21/49
f 30/30/51 33/33/51 22/21/51
f 34/34/52 37/37/52 22/21/52
f 48/48/53 49/49/53 45/45/53
f 85/85/54 87/87/54 82/82/54
