# Blender v3.0.1 OBJ File: 'rockerfeller_plaza.blend'
# www.blender.org
o geometryt000010000010000110010110000110000110100000100110st28
v 698.214844 -320.825897 656.790283
v 698.518311 -320.990021 681.539429
v 698.214844 -320.825897 681.539429
v 696.451111 -319.872314 656.790283
v 698.518311 -320.990021 656.439392
v 696.451111 -319.872314 681.539429
v 694.213501 -318.662506 681.539429
v 694.213501 -318.662506 656.790283
v 692.449951 -317.708923 656.790283
v 692.146423 -317.544800 656.439392
v 692.449951 -317.708923 681.539429
v 692.146423 -317.544800 681.539429
v 692.307739 -317.239807 656.790283
v 692.143738 -317.543396 681.539429
v 692.307739 -317.239807 681.539429
v 694.213257 -313.711609 656.790283
v 693.531738 -314.973419 656.439392
v 692.523926 -316.839508 656.439392
v 692.143738 -317.543396 656.439392
v 694.213257 -313.711609 681.539429
v 694.594727 -313.005310 681.539429
v 695.577515 -311.185608 656.790283
v 694.594727 -313.005310 656.439392
v 693.967041 -314.167511 656.439392
v 695.577515 -311.185608 681.539429
v 696.530212 -309.421509 656.790283
v 696.530212 -309.421509 681.539429
v 697.894531 -306.895508 681.539429
v 697.894531 -306.895508 656.790283
v 699.800049 -303.367310 656.790283
v 699.800049 -303.367310 681.539429
v 701.164246 -300.841309 681.539429
v 701.164246 -300.841309 656.790283
v 705.550720 -292.719513 656.439392
v 702.117065 -299.077209 656.790283
v 702.117065 -299.077209 681.539429
v 703.481201 -296.551300 681.539429
v 703.481201 -296.551300 656.790283
v 705.386841 -293.023010 656.790283
v 705.386841 -293.023010 681.539429
v 705.550720 -292.719513 681.539429
v 711.767029 -296.457001 656.790283
v 711.930908 -296.153412 681.539429
v 711.767029 -296.457001 681.539429
v 709.861633 -299.985321 656.790283
v 711.930908 -296.153412 656.439392
v 709.861633 -299.985321 681.539429
v 708.495850 -302.514404 681.539429
v 708.495850 -302.514404 656.790283
v 707.543152 -304.278503 656.790283
v 707.543152 -304.278503 681.539429
v 706.177368 -306.807495 681.539429
v 706.177368 -306.807495 656.790283
v 704.271912 -310.335907 656.790283
v 704.271912 -310.335907 681.539429
v 702.906128 -312.864899 681.539429
v 702.906128 -312.864899 656.790283
v 698.518311 -320.990021 656.439392
v 701.953430 -314.629120 656.790283
v 701.953430 -314.629120 681.539429
v 700.587769 -317.158112 681.539429
v 700.587769 -317.158112 656.790283
v 698.682251 -320.686401 656.790283
v 698.682251 -320.686401 681.539429
v 698.518311 -320.990021 681.539429
v 705.854553 -292.882996 656.790283
v 705.550720 -292.719513 681.539429
v 705.854553 -292.882996 681.539429
v 707.619995 -293.833221 656.790283
v 705.550720 -292.719513 656.439392
v 707.619995 -293.833221 681.539429
v 709.861633 -295.039703 681.539429
v 709.861633 -295.039703 656.790283
v 711.627136 -295.989899 656.790283
v 711.930908 -296.153412 656.439392
v 711.627136 -295.989899 681.539429
v 711.930908 -296.153412 681.539429
vt 2.759460 0.138190
vt 2.897460 9.885781
vt 2.759460 9.885781
vt 1.957480 0.138190
vt 2.897460 0.000000
vt 1.957480 9.885781
vt 0.939990 9.885781
vt 0.939990 0.138190
vt 0.138000 0.138190
vt 0.000000 0.000000
vt 0.138000 9.885781
vt 0.000000 9.885781
vt 11.147200 0.138190
vt 11.285200 9.885781
vt 11.147200 9.885781
vt 9.543220 0.138190
vt 10.116890 0.000000
vt 10.965210 0.000000
vt 11.285200 0.000000
vt 9.543220 9.885781
vt 9.222150 9.885781
vt 8.394901 0.138190
vt 9.222150 0.000000
vt 9.750491 0.000000
vt 8.394901 9.885781
vt 7.592910 0.138190
vt 7.592910 9.885781
vt 6.444590 9.885781
vt 6.444590 0.138190
vt 4.840610 0.138190
vt 4.840610 9.885781
vt 3.692290 9.885781
vt 3.692290 0.138190
vt 0.000000 0.000000
vt 2.890300 0.138190
vt 2.890300 9.885781
vt 1.741980 9.885781
vt 1.741980 0.138190
vt 0.138000 0.138190
vt 0.138000 9.885781
vt 0.000000 9.885781
vt 11.152720 0.138190
vt 11.290720 9.885781
vt 11.152720 9.885781
vt 9.548750 0.138190
vt 11.290720 0.000000
vt 9.548750 9.885781
vt 8.399041 9.885781
vt 8.399041 0.138190
vt 7.597050 0.138190
vt 7.597050 9.885781
vt 6.447350 9.885781
vt 6.447350 0.138190
vt 4.843370 9.885781
vt 3.693670 9.885781
vt 4.843370 0.138190
vt 3.693670 0.138190
vt 0.000000 0.000000
vt 2.891680 0.138190
vt 2.891680 9.885781
vt 1.741980 9.885781
vt 1.741980 0.138190
vt 0.138000 0.138190
vt 0.138000 9.885781
vt 0.000000 9.885781
vt 2.760260 0.138190
vt 2.898260 9.885781
vt 2.760260 9.885781
vt 1.958270 0.138190
vt 2.898260 0.000000
vt 1.958270 9.885781
vt 0.939990 9.885781
vt 0.939990 0.138190
vt 0.138000 0.138190
vt 0.000000 0.000000
vt 0.138000 9.885781
vt 0.000000 9.885781
vn -0.4757 -0.8796 0.0000
vn -0.4755 -0.8797 -0.0001
vn -0.4756 -0.8797 0.0000
vn -0.4756 -0.8796 0.0000
vn -0.4755 -0.8797 0.0001
vn -0.4755 -0.8797 0.0000
vn -0.4756 -0.8796 -0.0002
vn -0.8797 0.4756 0.0000
vn -0.8798 0.4753 0.0000
vn -0.8799 0.4751 0.0001
vn -0.8798 0.4753 0.0001
vn -0.8800 0.4749 0.0000
vn -0.8799 0.4752 0.0000
vn -0.8799 0.4752 -0.0001
vn -0.8799 0.4751 0.0002
vn -0.8797 0.4755 -0.0005
vn -0.8798 0.4754 0.0000
vn -0.8799 0.4751 0.0010
vn -0.8797 0.4755 -0.0004
vn -0.8800 0.4750 0.0000
vn -0.8797 0.4755 0.0000
vn 0.8798 -0.4753 0.0000
vn 0.8798 -0.4753 -0.0001
vn 0.8799 -0.4752 0.0000
vn 0.8799 -0.4752 0.0003
vn 0.8796 -0.4757 -0.0000
vn 0.8799 -0.4751 -0.0001
vn 0.8799 -0.4752 0.0008
vn 0.8799 -0.4751 0.0000
vn 0.8800 -0.4750 -0.0001
vn 0.8798 -0.4753 0.0002
vn 0.8797 -0.4755 0.0000
vn 0.8800 -0.4749 0.0000
vn 0.4738 0.8806 0.0000
vn 0.4740 0.8805 -0.0002
vn 0.4742 0.8804 -0.0000
vn 0.4739 0.8806 0.0000
vn 0.4738 0.8806 0.0001
vn 0.4740 0.8805 0.0000
vn 0.4741 0.8805 0.0000
vn -0.8797 0.4754 0.0001
vn 0.8800 -0.4750 0.0000
vn 0.8800 -0.4750 0.0002
vn 0.8796 -0.4757 -0.0007
vn 0.8796 -0.4757 -0.0006
vn 0.8799 -0.4751 -0.0007
s off
f 1/1/1 2/2/1 3/3/1
f 4/4/2 5/5/2 1/1/2
f 2/2/1 1/1/1 5/5/1
f 6/6/3 7/7/3 4/4/3
f 7/7/4 8/8/4 4/4/4
f 8/8/5 5/5/5 4/4/5
f 9/9/6 10/10/6 8/8/6
f 8/8/7 10/10/7 5/5/7
f 11/11/1 12/12/1 9/9/1
f 13/13/8 14/14/8 15/15/8
f 16/16/9 17/17/9 13/13/9
f 17/17/10 18/18/10 13/13/10
f 18/18/11 19/19/11 13/13/11
f 14/14/12 13/13/12 19/19/12
f 20/20/13 21/21/13 16/16/13
f 21/21/13 22/22/13 16/16/13
f 22/22/9 23/23/9 16/16/9
f 16/16/14 23/23/14 24/24/14
f 16/16/9 24/24/9 17/17/9
f 21/21/13 25/25/13 22/22/13
f 22/22/15 26/26/15 23/23/15
f 27/27/9 28/28/9 26/26/9
f 28/28/13 29/29/13 26/26/13
f 26/26/16 29/29/16 23/23/16
f 29/29/17 30/30/17 23/23/17
f 31/31/13 32/32/13 30/30/13
f 32/32/13 33/33/13 30/30/13
f 30/30/14 34/34/14 23/23/14
f 35/35/18 34/34/18 33/33/18
f 36/36/13 37/37/13 35/35/13
f 37/37/13 38/38/13 35/35/13
f 38/38/19 34/34/19 35/35/19
f 39/39/11 34/34/11 38/38/11
f 40/40/20 41/41/20 39/39/20
f 41/41/21 34/34/21 39/39/21
f 42/42/22 43/43/22 44/44/22
f 45/45/23 46/46/23 42/42/23
f 47/47/24 48/48/24 45/45/24
f 48/48/24 49/49/24 45/45/24
f 49/49/25 46/46/25 45/45/25
f 49/49/26 50/50/26 46/46/26
f 51/51/24 52/52/24 50/50/24
f 52/52/24 53/53/24 50/50/24
f 55/54/24 56/55/24 54/56/24
f 56/55/24 57/57/24 54/56/24
f 54/56/27 58/58/27 46/46/27
f 59/59/28 58/58/28 57/57/28
f 60/60/29 61/61/29 59/59/29
f 61/61/24 62/62/24 59/59/24
f 62/62/30 58/58/30 59/59/30
f 63/63/31 58/58/31 62/62/31
f 64/64/32 65/65/32 63/63/32
f 65/65/33 58/58/33 63/63/33
f 66/66/34 67/67/34 68/68/34
f 69/69/35 70/70/35 66/66/35
f 67/67/36 66/66/36 70/70/36
f 71/71/37 72/72/37 69/69/37
f 72/72/37 73/73/37 69/69/37
f 73/73/38 70/70/38 69/69/38
f 74/74/37 75/75/37 73/73/37
f 73/73/39 75/75/39 70/70/39
f 76/76/37 77/77/37 74/74/37
f 77/77/40 75/75/40 74/74/40
s 1
f 12/12/3 10/10/3 9/9/3
f 33/33/41 34/34/41 30/30/41
f 43/43/42 42/42/42 46/46/42
f 50/50/43 53/53/44 46/46/23
f 53/53/44 54/56/45 46/46/23
f 57/57/46 58/58/46 54/56/46
