# Blender v3.0.1 OBJ File: 'rockerfeller_plaza.blend'
# www.blender.org
o geometryt000010000010000110010110000110000110100100010010st99_7
v 1205.449097 -131.201660 1013.236938
v 1206.336304 -131.681061 1183.531494
v 1205.449097 -131.201660 1183.531494
v 1188.196533 -121.879364 1009.531494
v 1189.083740 -122.358765 1013.236938
v 1206.336304 -131.681061 1009.531494
v 1189.083740 -122.358765 1183.531494
v 1188.196533 -121.879364 1183.531494
v 1188.652222 -121.053864 1013.236938
v 1188.196533 -121.879364 1183.531494
v 1188.652222 -121.053864 1183.531494
v 1197.406128 -105.195763 1009.531494
v 1196.950439 -106.021263 1013.236938
v 1188.196533 -121.879364 1009.531494
v 1196.950439 -106.021263 1183.531494
v 1197.406128 -105.195763 1183.531494
v 1197.761475 -104.541962 1013.236938
v 1197.407471 -105.196465 1183.531494
v 1197.761475 -104.541962 1183.531494
v 1205.931519 -89.439415 1013.236938
v 1203.377930 -94.159836 1009.531494
v 1200.157959 -100.111961 1009.531494
v 1197.407471 -105.196465 1009.531494
v 1205.931519 -89.439415 1183.531494
v 1206.285522 -88.784943 1183.531494
v 1206.285522 -88.784943 1009.531494
v 1207.093140 -89.221611 1013.236938
v 1206.281128 -88.782555 1183.531494
v 1207.093140 -89.221611 1183.531494
v 1223.456055 -98.069260 1013.236938
v 1206.281128 -88.782555 1009.531494
v 1223.456055 -98.069260 1183.531494
v 1224.268066 -98.508324 1183.531494
v 1224.268066 -98.508324 1009.531494
v 1224.104004 -98.811813 1013.236938
v 1224.268066 -98.508324 1183.531494
v 1224.104004 -98.811813 1183.531494
v 1223.423584 -100.070564 1013.236938
v 1224.268066 -98.508324 1009.531494
v 1223.423584 -100.070564 1183.531494
v 1223.317383 -100.266861 1183.531494
v 1223.317383 -100.266861 1013.236938
v 1221.956543 -102.784363 1013.236938
v 1221.956543 -102.784363 1183.531494
v 1221.850464 -102.980659 1183.531494
v 1221.850464 -102.980659 1013.236938
v 1220.489502 -105.498161 1013.236938
v 1220.489502 -105.498161 1183.531494
v 1220.383423 -105.694466 1183.531494
v 1220.383423 -105.694466 1013.236938
v 1219.022705 -108.212059 1013.236938
v 1219.022705 -108.212059 1183.531494
v 1218.916504 -108.408264 1183.531494
v 1218.916504 -108.408264 1013.236938
v 1216.875244 -112.184563 1013.236938
v 1216.875244 -112.184563 1183.531494
v 1216.769165 -112.380859 1183.531494
v 1216.769165 -112.380859 1013.236938
v 1216.088745 -113.639664 1013.236938
v 1216.088745 -113.639664 1183.531494
v 1215.982666 -113.835960 1183.531494
v 1215.982666 -113.835960 1013.236938
v 1214.621704 -116.353462 1013.236938
v 1206.336304 -131.681061 1009.531494
v 1214.621704 -116.353462 1183.531494
v 1214.515625 -116.549759 1183.531494
v 1214.515625 -116.549759 1013.236938
v 1213.835205 -117.808464 1013.236938
v 1213.835205 -117.808464 1183.531494
v 1213.729126 -118.004761 1183.531494
v 1213.729126 -118.004761 1013.236938
v 1211.687866 -121.781059 1013.236938
v 1211.687866 -121.781059 1183.531494
v 1211.581787 -121.977364 1183.531494
v 1211.581787 -121.977364 1013.236938
v 1210.220825 -124.494865 1013.236938
v 1210.220825 -124.494865 1183.531494
v 1210.114746 -124.691162 1183.531494
v 1210.114746 -124.691162 1013.236938
v 1208.753906 -127.208664 1013.236938
v 1208.753906 -127.208664 1183.531494
v 1208.647705 -127.404961 1183.531494
v 1208.647705 -127.404961 1013.236938
v 1207.286987 -129.922562 1013.236938
v 1207.286987 -129.922562 1183.531494
v 1207.180786 -130.118759 1183.531494
v 1207.180786 -130.118759 1013.236938
v 1206.500366 -131.377563 1013.236938
v 1206.500366 -131.377563 1183.531494
v 1206.336304 -131.681061 1183.531494
vt 22.962709 4.338950
vt 24.143520 203.747101
vt 22.962709 203.747101
vt 0.000000 0.000000
vt 1.180810 4.338950
vt 24.143520 0.000000
vt 1.180810 203.747101
vt 0.000000 203.747101
vt 21.210501 4.338950
vt 22.314650 203.747101
vt 21.210501 203.747101
vt 0.000000 0.000000
vt 1.104140 4.338950
vt 22.314650 0.000000
vt 1.104140 203.747101
vt 0.000000 203.747101
vt 20.977671 4.338950
vt 21.848980 203.747101
vt 20.977671 203.747101
vt 0.871310 4.338950
vt 7.155700 0.000000
vt 15.079940 0.000000
vt 21.848980 0.000000
vt 0.871310 203.747101
vt 0.000000 203.747101
vt 0.000000 0.000000
vt 22.862801 4.338950
vt 23.943701 203.747101
vt 22.862801 203.747101
vt 1.080900 4.338950
vt 23.943701 0.000000
vt 0.000000 203.747101
vt 0.000000 0.000000
vt 43.751881 4.338950
vt 44.155869 203.747101
vt 43.751881 203.747101
vt 42.076351 4.338950
vt 44.155869 0.000000
vt 42.076351 203.747101
vt 41.815090 203.747101
vt 41.815090 4.338950
vt 38.464031 4.338950
vt 38.464031 203.747101
vt 38.202770 203.747101
vt 38.202770 4.338950
vt 34.851700 4.338950
vt 34.851700 203.747101
vt 34.590439 203.747101
vt 34.590439 4.338950
vt 31.239380 4.338950
vt 31.239380 203.747101
vt 30.978121 203.747101
vt 30.978121 4.338950
vt 25.951521 4.338950
vt 25.951521 203.747101
vt 25.690260 203.747101
vt 25.690260 4.338950
vt 24.014730 4.338950
vt 24.014730 203.747101
vt 23.753460 203.747101
vt 23.753460 4.338950
vt 20.402399 4.338950
vt 0.000000 0.000000
vt 20.402399 203.747101
vt 20.141140 203.747101
vt 20.141140 4.338950
vt 18.465611 4.338950
vt 18.465611 203.747101
vt 18.204340 203.747101
vt 18.204340 4.338950
vt 13.177750 4.338950
vt 13.177750 203.747101
vt 12.916490 203.747101
vt 12.916490 4.338950
vt 9.565430 4.338950
vt 9.565430 203.747101
vt 9.304161 203.747101
vt 9.304161 4.338950
vt 5.953100 4.338950
vt 5.953100 203.747101
vt 5.691840 203.747101
vt 5.691840 4.338950
vt 2.340780 4.338950
vt 2.340780 203.747101
vt 2.079510 203.747101
vt 2.079510 4.338950
vt 0.403980 4.338950
vt 0.403980 203.747101
vt 0.000000 203.747101
vt 1.080900 203.747101
vn -0.4754 -0.8798 0.0000
vn -0.4754 -0.8797 0.0000
vn -0.8754 0.4834 0.0000
vn -0.8755 0.4833 0.0000
vn -0.8756 0.4831 0.0000
vn -0.8755 0.4832 0.0000
vn -0.8795 0.4759 0.0000
vn -0.8795 0.4758 -0.0000
vn -0.8796 0.4758 0.0000
vn -0.8796 0.4757 0.0000
vn 0.4756 0.8796 0.0000
vn 0.4757 0.8796 0.0000
vn 0.8797 -0.4755 0.0000
vn 0.8797 -0.4756 0.0000
vn 0.8798 -0.4754 0.0000
vn 0.8794 -0.4760 0.0000
vn 0.8795 -0.4759 -0.0002
vn 0.8801 -0.4747 0.0000
vn 0.8793 -0.4763 0.0001
vn 0.8795 -0.4759 0.0000
vn 0.8797 -0.4755 0.0001
vn 0.8793 -0.4762 0.0000
vn 0.8798 -0.4753 0.0001
vn 0.8797 -0.4755 -0.0003
vn 0.8798 -0.4753 0.0012
vn 0.8797 -0.4755 0.0002
vn 0.8803 -0.4745 -0.0000
vn 0.8796 -0.4757 0.0000
vn 0.8803 -0.4744 -0.0006
vn 0.8793 -0.4763 0.0004
vn 0.8801 -0.4749 -0.0002
vn 0.8798 -0.4754 -0.0001
vn 0.8794 -0.4762 0.0003
vn -0.8797 0.4756 0.0000
vn 0.8799 -0.4751 -0.0011
vn 0.8791 -0.4767 0.0004
s off
f 1/1/1 2/2/1 3/3/1
f 4/4/1 1/1/1 5/5/1
f 4/4/1 6/6/1 1/1/1
f 2/2/1 1/1/1 6/6/1
f 7/7/1 8/8/1 5/5/1
f 8/8/2 4/4/2 5/5/2
f 9/9/3 10/10/3 11/11/3
f 12/12/4 9/9/4 13/13/4
f 12/12/4 14/14/4 9/9/4
f 10/10/5 9/9/5 14/14/5
f 15/15/6 16/16/6 13/13/6
f 16/16/3 12/12/3 13/13/3
f 17/17/7 18/18/7 19/19/7
f 20/20/8 21/21/8 17/17/8
f 21/21/9 22/22/9 17/17/9
f 22/22/8 23/23/8 17/17/8
f 24/24/10 25/25/10 20/20/10
f 25/25/9 26/26/9 20/20/9
f 26/26/9 21/21/9 20/20/9
f 27/27/11 28/28/11 29/29/11
f 30/30/11 31/31/11 27/27/11
f 28/28/12 27/27/12 31/31/12
f 33/32/12 34/33/12 30/30/12
f 34/33/11 31/31/11 30/30/11
f 35/34/13 36/35/13 37/36/13
f 38/37/14 39/38/14 35/34/14
f 36/35/15 35/34/15 39/38/15
f 40/39/16 41/40/16 38/37/16
f 41/40/15 42/41/15 38/37/15
f 42/41/17 39/38/17 38/37/17
f 42/41/13 43/42/13 39/38/13
f 44/43/18 45/44/18 43/42/18
f 45/44/16 46/45/16 43/42/16
f 43/42/19 46/45/19 39/38/19
f 46/45/13 47/46/13 39/38/13
f 48/47/18 49/48/18 47/46/18
f 49/48/16 50/49/16 47/46/16
f 47/46/20 50/49/20 39/38/20
f 50/49/21 51/50/21 39/38/21
f 52/51/22 53/52/22 51/50/22
f 53/52/22 54/53/22 51/50/22
f 54/53/13 55/54/13 39/38/13
f 56/55/15 57/56/15 55/54/15
f 57/56/15 58/57/15 55/54/15
f 55/54/23 58/57/23 39/38/23
f 58/57/24 59/58/24 39/38/24
f 60/59/16 61/60/16 59/58/16
f 61/60/18 62/61/18 59/58/18
f 59/58/25 62/61/25 39/38/25
f 63/62/26 64/63/26 62/61/26
f 62/61/13 64/63/13 39/38/13
f 65/64/16 66/65/16 63/62/16
f 66/65/18 67/66/18 63/62/18
f 67/66/27 64/63/27 63/62/27
f 68/67/28 64/63/28 67/66/28
f 69/68/15 70/69/15 68/67/15
f 70/69/15 71/70/15 68/67/15
f 71/70/29 64/63/29 68/67/29
f 72/71/14 64/63/14 71/70/14
f 73/72/16 74/73/16 72/71/16
f 74/73/18 75/74/18 72/71/18
f 75/74/30 64/63/30 72/71/30
f 76/75/21 64/63/21 75/74/21
f 77/76/16 78/77/16 76/75/16
f 78/77/18 79/78/18 76/75/18
f 79/78/31 64/63/31 76/75/31
f 80/79/13 64/63/13 79/78/13
f 81/80/15 82/81/15 80/79/15
f 82/81/16 83/82/16 80/79/16
f 84/83/32 64/63/32 83/82/32
f 85/84/22 86/85/22 84/83/22
f 86/85/22 87/86/22 84/83/22
f 87/86/33 64/63/33 84/83/33
f 88/87/13 64/63/13 87/86/13
f 89/88/13 90/89/13 88/87/13
f 90/89/15 64/63/15 88/87/15
s 1
f 18/18/34 17/17/34 23/23/34
f 32/90/11 33/32/11 30/30/11
f 51/50/35 54/53/35 39/38/35
f 83/82/36 64/63/36 80/79/36
