# Blender v3.0.1 OBJ File: 'rockerfeller_plaza.blend'
# www.blender.org
o geometryt000010000010000110010110000110000100110110010010st33_N
v 146.652451 -70.251976 877.695618
v 146.652451 -70.251976 843.212708
v 148.043350 -71.001602 843.212708
v 148.043350 -71.001602 877.695618
v 148.809647 -71.414604 877.695618
v 148.809647 -71.414604 843.212708
v 150.200546 -72.164246 843.212708
v 150.200546 -72.164246 877.695618
v 150.966843 -72.577248 877.695618
v 150.966843 -72.577248 843.212708
v 152.357742 -73.326874 843.212708
v 152.357742 -73.326874 877.695618
v 153.124039 -73.739876 843.212708
v 154.514847 -74.489517 843.212708
v 154.514847 -74.489517 877.695618
v 153.124039 -73.739876 877.695618
v 147.638245 -67.708595 877.695618
v 149.068542 -65.060402 843.212708
v 146.815948 -69.231064 843.212708
v 149.068542 -65.060402 877.695618
v 146.815948 -69.231064 877.695618
v 153.334946 -59.497799 877.695618
v 153.334946 -59.497799 843.212708
v 151.085037 -63.669899 843.212708
v 151.085037 -63.669899 877.695618
v 156.559448 -53.518608 843.212708
v 154.309540 -57.690708 843.212708
v 154.309540 -57.690708 877.695618
v 156.559448 -53.518608 877.695618
v 154.984344 -74.350639 843.212708
v 155.620148 -73.190407 843.212708
v 155.620148 -73.190407 877.695618
v 154.984344 -74.350639 877.695618
v 155.950546 -72.584663 877.695618
v 155.950546 -72.584663 843.212708
v 158.212646 -68.419136 843.212708
v 158.212646 -68.419136 877.695618
v 158.692749 -67.534935 843.212708
v 159.446838 -66.146423 843.212708
v 159.446838 -66.146423 877.695618
v 158.692749 -67.534935 877.695618
v 159.926941 -65.262222 843.212708
v 160.681046 -63.873718 843.212708
v 160.681046 -63.873718 877.695618
v 159.926941 -65.262222 877.695618
v 161.161148 -62.989521 843.212708
v 161.915237 -61.601009 843.212708
v 161.915237 -61.601009 877.695618
v 161.161148 -62.989521 877.695618
v 163.705841 -58.303638 877.695618
v 162.395340 -60.716808 843.212708
v 164.657440 -56.551281 843.212708
v 162.395340 -60.716808 877.695618
v 164.657440 -56.551281 877.695618
v 158.952240 -46.759750 843.212708
v 156.697739 -50.929398 843.212708
v 156.697739 -50.929398 877.695618
v 158.952240 -46.759750 877.695618
v 161.134842 -46.770409 843.212708
v 159.744446 -46.019901 843.212708
v 159.744446 -46.019901 877.695618
v 161.134842 -46.770409 877.695618
v 163.314941 -47.947159 843.212708
v 161.924545 -47.196648 843.212708
v 161.924545 -47.196648 877.695618
v 163.314941 -47.947159 877.695618
v 165.495041 -49.123909 877.695618
v 165.495041 -49.123909 843.212708
v 164.104538 -48.373390 843.212708
v 164.104538 -48.373390 877.695618
v 167.675049 -50.300648 843.212708
v 166.284637 -49.550140 843.212708
v 166.284637 -49.550140 877.695618
v 167.675049 -50.300648 877.695618
v 165.107437 -55.735329 877.695618
v 165.107437 -55.735329 843.212708
v 165.856750 -54.344261 843.212708
v 165.856750 -54.344261 877.695618
v 166.677048 -52.838840 877.695618
v 166.677048 -52.838840 843.212708
v 167.436646 -51.453339 843.212708
v 167.436646 -51.453339 877.695618
vt 0.000000 2.250000
vt 0.000000 0.000000
vt 0.062500 0.000000
vt 0.062500 2.250000
vt 0.000000 2.250000
vt 0.000000 0.000000
vt 0.062500 0.000000
vt 0.062500 2.250000
vt 0.000000 2.250000
vt 0.000000 0.000000
vt 0.062500 0.000000
vt 0.062500 2.250000
vt 0.000000 0.000000
vt 0.062500 0.000000
vt 0.062500 2.250000
vt 0.000000 2.250000
vt 0.119050 2.250000
vt 0.000000 0.000000
vt 0.187500 0.000000
vt 0.000000 2.250000
vt 0.187500 2.250000
vt 0.000000 2.250000
vt 0.000000 0.000000
vt 0.187500 0.000000
vt 0.187500 2.250000
vt 0.000000 0.000000
vt 0.187500 0.000000
vt 0.187500 2.250000
vt 0.000000 2.250000
vt 0.000000 0.000000
vt 0.062500 0.000000
vt 0.062500 2.250000
vt 0.000000 2.250000
vt 0.000000 0.000000
vt 0.062500 0.000000
vt 0.062500 2.250000
vt 0.000000 2.250000
vt 0.000000 0.000000
vt 0.062500 0.000000
vt 0.062500 2.250000
vt 0.000000 2.250000
vt 0.000000 0.000000
vt 0.062500 0.000000
vt 0.062500 2.250000
vt 0.000000 2.250000
vt 0.000000 2.250000
vt 0.000000 0.000000
vt 0.108620 2.250000
vt 0.187500 0.000000
vt 0.187500 2.250000
vt 0.000000 0.000000
vt 0.187500 0.000000
vt 0.187500 2.250000
vt 0.000000 2.250000
vt 0.000000 0.000000
vt 0.062500 0.000000
vt 0.062500 2.250000
vt 0.000000 2.250000
vt 0.000000 0.000000
vt 0.062500 0.000000
vt 0.062500 2.250000
vt 0.000000 2.250000
vt 0.000000 2.250000
vt 0.000000 0.000000
vt 0.062500 0.000000
vt 0.062500 2.250000
vt 0.000000 0.000000
vt 0.062500 0.000000
vt 0.062500 2.250000
vt 0.000000 2.250000
vt 0.000000 2.250000
vt 0.000000 0.000000
vt 0.062500 0.000000
vt 0.062500 2.250000
vt 0.000000 2.250000
vt 0.000000 0.000000
vt 0.062500 0.000000
vt 0.062500 2.250000
vt 0.000000 2.250000
vt 0.000000 0.000000
vt 0.187500 0.000000
vt 0.187500 2.250000
vn -0.4744 -0.8803 0.0000
vn -0.4745 -0.8803 0.0000
vn -0.8799 0.4752 0.0000
vn -0.8802 0.4747 0.0000
vn 0.8770 -0.4806 0.0000
vn 0.8788 -0.4772 0.0000
vn 0.8788 -0.4773 0.0000
vn -0.8797 0.4756 0.0000
vn -0.8796 0.4756 0.0000
vn 0.4750 0.8800 0.0000
vn 0.8804 -0.4742 0.0000
vn 0.8804 -0.4743 0.0000
vn 0.8769 -0.4807 0.0000
s off
f 1/1/1 2/2/1 3/3/1
f 1/1/1 3/3/1 4/4/1
f 5/5/1 6/6/1 7/7/1
f 5/5/1 7/7/1 8/8/1
f 9/9/1 10/10/1 11/11/1
f 9/9/1 11/11/1 12/12/1
f 13/13/2 14/14/2 15/15/2
f 16/16/2 13/13/2 15/15/2
f 17/17/3 18/18/3 19/19/3
f 20/20/3 18/18/3 17/17/3
f 17/17/3 19/19/3 21/21/3
f 22/22/4 23/23/4 24/24/4
f 22/22/4 24/24/4 25/25/4
f 26/26/4 27/27/4 28/28/4
f 29/29/4 26/26/4 28/28/4
f 30/30/5 31/31/5 32/32/5
f 33/33/5 30/30/5 32/32/5
f 38/34/6 39/35/6 40/36/6
f 41/37/6 38/34/6 40/36/6
f 42/38/7 43/39/7 44/40/7
f 45/41/7 42/38/7 44/40/7
f 46/42/6 47/43/6 48/44/6
f 49/45/7 46/42/7 48/44/7
f 53/46/6 51/47/6 50/48/6
f 50/48/6 52/49/6 54/50/6
f 55/51/8 56/52/8 57/53/8
f 58/54/9 55/51/9 57/53/9
f 59/55/10 60/56/10 61/57/10
f 62/58/10 59/55/10 61/57/10
f 63/59/10 64/60/10 65/61/10
f 66/62/10 63/59/10 65/61/10
f 67/63/10 68/64/10 69/65/10
f 67/63/10 69/65/10 70/66/10
f 71/67/10 72/68/10 73/69/10
f 74/70/10 71/67/10 73/69/10
f 75/71/11 76/72/11 77/73/11
f 75/71/12 77/73/12 78/74/12
f 79/75/13 80/76/13 81/77/13
f 79/75/13 81/77/13 82/78/13
s 1
f 34/79/6 35/80/6 36/81/6
f 34/79/6 36/81/6 37/82/6
f 50/48/6 51/47/6 52/49/6
