# Blender v3.0.1 OBJ File: 'rockerfeller_plaza.blend'
# www.blender.org
o geometryt000010000010000110010110000110000110100100000000st172_
v 354.127686 -176.586777 917.424683
v 354.127686 -176.586777 889.934509
v 358.110168 -178.764572 889.934509
v 358.110168 -178.764572 917.424683
v 355.922668 -172.001877 889.934509
v 353.767792 -175.996780 889.934509
v 353.767792 -175.996780 916.828369
v 355.922668 -172.001877 916.828369
v 357.701263 -168.704575 916.828369
v 357.701263 -168.704575 889.934509
v 356.264679 -171.367874 889.934509
v 356.264679 -171.367874 916.828369
v 359.479828 -165.407272 916.828369
v 359.479828 -165.407272 889.934509
v 358.043274 -168.070572 889.934509
v 358.043274 -168.070572 916.828369
v 360.540131 -163.441681 963.892578
v 360.540131 -163.441681 889.934509
v 359.821838 -164.773285 889.934509
v 359.821838 -164.773285 963.892578
v 362.318726 -160.144272 889.934509
v 360.882233 -162.807571 889.934509
v 360.882233 -162.807571 963.892578
v 362.318726 -160.144272 963.892578
v 364.097321 -156.846985 889.934509
v 362.660828 -159.510284 889.934509
v 362.660828 -159.510284 987.424683
v 364.097321 -156.846985 987.424683
v 366.594238 -152.218079 987.424683
v 366.594238 -152.218079 889.934509
v 364.439423 -156.212982 889.934509
v 364.439423 -156.212982 987.424683
v 356.460541 -137.675385 960.424683
v 356.460541 -137.675385 889.934509
v 360.413239 -139.906570 889.934509
v 360.413239 -139.906570 960.424683
v 357.018219 -135.856873 889.934509
v 356.298126 -137.187576 889.934509
v 356.298126 -137.187576 960.424683
v 357.018219 -135.856873 960.424683
v 358.686646 -132.774078 889.934509
v 357.246368 -135.435379 889.934509
v 357.246368 -135.435379 960.424683
v 358.686646 -132.774078 960.424683
v 360.354919 -129.691177 889.934509
v 358.914734 -132.352478 889.934509
v 358.914734 -132.352478 960.424683
v 360.354919 -129.691177 960.424683
v 362.023315 -126.608284 889.934509
v 360.583130 -129.269577 889.934509
v 360.583130 -129.269577 960.424683
v 362.023315 -126.608284 960.424683
v 363.691620 -123.525482 889.934509
v 362.251434 -126.186684 889.934509
v 362.251434 -126.186684 960.424683
v 363.691620 -123.525482 960.424683
v 364.639923 -121.773186 889.934509
v 363.919830 -123.103882 889.934509
v 363.919830 -123.103882 960.424683
v 364.639923 -121.773186 960.424683
v 359.104034 -179.302078 917.424683
v 359.104034 -179.302078 889.934509
v 363.107819 -181.440277 889.934509
v 363.107819 -181.440277 917.424683
v 360.113342 -165.498077 965.424683
v 360.113342 -165.498077 917.424683
v 360.496216 -165.718582 917.424683
v 361.424530 -166.253082 965.424683
v 361.424530 -166.253082 917.424683
v 361.044434 -140.253174 980.424683
v 361.044434 -140.253174 889.934509
v 363.703918 -141.696579 889.934509
v 363.703918 -141.696579 980.424683
v 364.854736 -142.321182 980.424683
v 364.854736 -142.321182 889.934509
v 366.184448 -143.042877 889.934509
v 366.184448 -143.042877 980.424683
v 367.434631 -143.721481 980.424683
v 367.335236 -143.667480 889.934509
v 369.994720 -145.110977 889.934509
v 367.335236 -143.667480 980.424683
v 369.994720 -145.110977 987.424683
v 367.434631 -143.721481 987.424683
v 361.624237 -138.456985 980.424683
v 361.624237 -138.456985 960.424683
v 361.287323 -139.079483 960.424683
v 360.904114 -139.787582 980.424683
v 360.904114 -139.787582 960.424683
v 363.121338 -135.690781 960.424683
v 362.401245 -137.021484 960.424683
v 362.401245 -137.021484 980.424683
v 363.121338 -135.690781 980.424683
v 362.405731 -161.244980 965.424683
v 363.727112 -161.981873 965.424683
v 363.727112 -161.981873 987.424683
v 362.405731 -161.244980 987.424683
v 363.209717 -133.231476 980.424683
v 363.209717 -133.231476 960.424683
v 363.095123 -133.443283 960.424683
v 362.489746 -134.562180 980.424683
v 362.489746 -134.562180 960.424683
v 364.474915 -130.893280 980.424683
v 364.474915 -130.893280 960.424683
v 363.754944 -132.223984 960.424683
v 363.754944 -132.223984 980.424683
v 365.740112 -128.554977 980.424683
v 365.740112 -128.554977 960.424683
v 365.020142 -129.885681 960.424683
v 365.020142 -129.885681 980.424683
v 363.742249 -181.388077 917.424683
v 363.742249 -181.388077 889.934509
v 365.183044 -178.726974 889.934509
v 365.183044 -178.726974 917.424683
v 365.374817 -178.372574 917.424683
v 365.374817 -178.372574 889.934509
v 366.095215 -177.042084 889.934509
v 366.095215 -177.042084 917.424683
v 366.287140 -176.687683 917.424683
v 366.287140 -176.687683 889.934509
v 368.448242 -172.696182 889.934509
v 368.448242 -172.696182 917.424683
v 368.640137 -172.341675 917.424683
v 368.640137 -172.341675 889.934509
v 369.360413 -171.011185 889.934509
v 369.360413 -171.011185 917.424683
v 369.552338 -170.656784 917.424683
v 369.552338 -170.656784 889.934509
v 370.993042 -167.995773 889.934509
v 370.993042 -167.995773 917.424683
v 371.847137 -125.547188 897.424683
v 371.310425 -125.236389 897.424683
v 371.847137 -125.547188 960.424683
v 365.300140 -121.756989 960.424683
v 365.300140 -121.756989 897.424683
v 368.218445 -122.263985 897.424683
v 368.218445 -122.263985 889.934509
v 365.554443 -120.828888 889.934509
v 365.554443 -120.828888 897.424683
v 372.592926 -124.620682 897.424683
v 372.592926 -124.620682 889.934509
v 369.928925 -123.185486 889.934509
v 369.928925 -123.185486 897.424683
v 369.192535 -130.087784 960.424683
v 366.750427 -128.724075 960.424683
v 369.192535 -130.087784 980.424683
v 366.550537 -128.612381 980.424683
v 366.550537 -128.612381 960.424683
v 369.041321 -140.757980 986.924683
v 369.034241 -140.770874 986.924683
v 369.041321 -140.757980 987.424683
v 369.021637 -140.794281 986.924683
v 369.021637 -140.794281 987.424683
v 369.021637 -140.794281 980.424683
v 367.599915 -143.418671 980.424683
v 367.599915 -143.418671 987.424683
v 370.767731 -128.819077 960.424683
v 370.077148 -130.030380 960.424683
v 370.767731 -128.819077 980.424683
v 370.018341 -130.133484 980.424683
v 370.018341 -130.133484 960.424683
v 384.290344 -142.964981 990.224670
v 384.290344 -142.964981 986.924683
v 381.624329 -141.533371 986.924683
v 381.624329 -141.533371 990.224670
v 374.989838 -125.173286 889.934509
v 373.502319 -124.896889 889.934509
v 373.502319 -124.896889 897.424683
v 374.989838 -125.173286 897.424683
v 377.644226 -125.873085 897.424683
v 377.644226 -125.873085 889.934509
v 376.189819 -125.456184 889.934509
v 376.189819 -125.456184 897.424683
v 381.472412 -127.397087 897.424683
v 381.472412 -127.397087 889.934509
v 380.094025 -126.773483 889.934509
v 380.094025 -126.773483 897.424683
v 380.832428 -150.921082 889.934509
v 383.491211 -152.365875 889.934509
v 383.491211 -152.365875 978.189880
v 380.832428 -150.921082 978.189880
v 381.912231 -150.899475 990.224670
v 381.912231 -150.899475 980.424683
v 385.379822 -144.499374 980.424683
v 385.516022 -144.247971 990.224670
v 385.516022 -144.247971 980.424683
v 383.885925 -128.709076 889.934509
v 382.572327 -127.958282 889.934509
v 382.572327 -127.958282 897.424683
v 383.885925 -128.709076 897.424683
v 384.846741 -153.109985 889.934509
v 387.497009 -154.570374 889.934509
v 387.497009 -154.570374 960.424683
v 384.846741 -153.109985 960.424683
v 384.573639 -151.732483 960.424683
v 386.000427 -149.107376 960.424683
v 384.573639 -151.732483 980.424683
v 386.018616 -149.073776 980.424683
v 386.018616 -149.073776 960.424683
v 386.160950 -130.241379 889.934509
v 384.924225 -129.369781 889.934509
v 384.924225 -129.369781 897.424683
v 386.160950 -130.241379 897.424683
v 388.284332 -131.988983 889.934509
v 387.137146 -131.002472 889.934509
v 387.137146 -131.002472 897.424683
v 388.284332 -131.988983 897.424683
v 387.368134 -148.196182 960.424683
v 388.091736 -146.867371 960.424683
v 388.091736 -146.867371 980.424683
v 387.368134 -148.196182 980.424683
v 388.742615 -145.671982 980.424683
v 388.742615 -145.671982 960.424683
v 389.466125 -144.343277 960.424683
v 389.466125 -144.343277 980.424683
v 390.117126 -143.147873 980.424683
v 390.117126 -143.147873 960.424683
v 390.187927 -143.017883 960.424683
v 390.840637 -141.819077 980.424683
v 390.840637 -141.819077 960.424683
v 388.545624 -139.557373 960.424683
v 389.264832 -138.233582 960.424683
v 388.545624 -139.557373 980.424683
v 389.267944 -138.227875 980.424683
v 389.267944 -138.227875 960.424683
v 390.308350 -141.140976 960.424683
v 388.975952 -140.424072 960.424683
v 388.975952 -140.424072 980.424683
v 390.308350 -141.140976 980.424683
v 388.624329 -154.367371 960.424683
v 388.624329 -154.367371 889.934509
v 390.768433 -150.366776 889.934509
v 390.768433 -150.366776 960.424683
v 390.233215 -133.926682 897.424683
v 390.233215 -133.926682 889.934509
v 389.183044 -132.837585 889.934509
v 389.183044 -132.837585 897.424683
v 392.295837 -135.253082 889.934509
v 390.964539 -134.534180 889.934509
v 390.964539 -134.534180 897.424683
v 392.295837 -135.253082 897.424683
v 394.707947 -136.555679 889.934509
v 393.376648 -135.836777 889.934509
v 393.376648 -135.836777 897.424683
v 394.707947 -136.555679 897.424683
v 397.119934 -137.858185 889.934509
v 395.788635 -137.139282 889.934509
v 395.788635 -137.139282 897.424683
v 397.119934 -137.858185 897.424683
v 396.465210 -138.730072 897.424683
v 396.063110 -138.516281 897.424683
v 396.465210 -138.730072 960.424683
v 391.121735 -135.888580 960.424683
v 391.121735 -135.888580 897.424683
v 391.273010 -149.426880 889.934509
v 391.990631 -148.094879 889.934509
v 391.990631 -148.094879 960.424683
v 391.273010 -149.426880 960.424683
v 392.200226 -147.705872 889.934509
v 392.917725 -146.373871 889.934509
v 392.917725 -146.373871 960.424683
v 392.200226 -147.705872 960.424683
v 393.127319 -145.984879 960.424683
v 393.127319 -145.984879 889.934509
v 394.562531 -143.320877 889.934509
v 394.562531 -143.320877 960.424683
v 394.772034 -142.931885 960.424683
v 394.772034 -142.931885 889.934509
v 395.489624 -141.599884 889.934509
v 395.489624 -141.599884 960.424683
v 395.699219 -141.210876 960.424683
v 395.699219 -141.210876 889.934509
v 396.416809 -139.878876 889.934509
v 396.416809 -139.878876 960.424683
vt 0.000000 0.875000
vt 0.000000 0.000000
vt 0.375000 0.000000
vt 0.375000 0.875000
vt 0.000000 0.000000
vt 0.375000 0.000000
vt 0.375000 1.000000
vt 0.000000 1.000000
vt 0.000000 1.000000
vt 0.000000 0.000000
vt 0.250000 0.000000
vt 0.250000 1.000000
vt 0.000000 1.000000
vt 0.000000 0.000000
vt 0.250000 0.000000
vt 0.250000 1.000000
vt 0.000000 2.750000
vt 0.000000 0.000000
vt 0.125000 0.000000
vt 0.125000 2.750000
vt 0.000000 0.000000
vt 0.250000 0.000000
vt 0.250000 2.750000
vt 0.000000 2.750000
vt 0.000000 0.000000
vt 0.250000 0.000000
vt 0.250000 3.625000
vt 0.000000 3.625000
vt 0.000000 3.625000
vt 0.000000 0.000000
vt 0.375000 0.000000
vt 0.375000 3.625000
vt 0.000000 2.000000
vt 0.000000 0.000000
vt 0.375000 0.000000
vt 0.375000 2.000000
vt 0.000000 0.000000
vt 0.125000 0.000000
vt 0.125000 2.000000
vt 0.000000 2.000000
vt 0.000000 0.000000
vt 0.250000 0.000000
vt 0.250000 2.000000
vt 0.000000 2.000000
vt 0.000000 0.000000
vt 0.250000 0.000000
vt 0.250000 2.000000
vt 0.000000 2.000000
vt 0.000000 0.000000
vt 0.250000 0.000000
vt 0.250000 2.000000
vt 0.000000 2.000000
vt 0.000000 0.000000
vt 0.250000 0.000000
vt 0.250000 2.000000
vt 0.000000 2.000000
vt 0.000000 0.000000
vt 0.125000 0.000000
vt 0.125000 2.000000
vt 0.000000 2.000000
vt 0.000000 0.875000
vt 0.000000 0.000000
vt 0.375000 0.000000
vt 0.375000 0.875000
vt 0.125000 1.875000
vt 0.000000 1.875000
vt 0.036510 0.000000
vt 0.000000 3.480740
vt 0.000000 0.000000
vt 0.250000 0.000000
vt 0.250000 3.480740
vt 0.000000 3.480740
vt 0.000000 0.000000
vt 0.125000 0.000000
vt 0.125000 3.480740
vt 0.009350 3.480740
vt 0.000000 0.000000
vt 0.250000 0.000000
vt 0.250000 3.750000
vt 0.009350 3.750000
vt 0.000000 0.625000
vt 0.000000 0.000000
vt 0.058480 0.000000
vt 0.125000 0.625000
vt 0.125000 0.000000
vt 0.000000 0.000000
vt 0.125000 0.000000
vt 0.125000 0.625000
vt 0.000000 0.625000
vt 0.000000 0.000000
vt 0.125000 0.000000
vt 0.125000 0.750000
vt 0.000000 0.750000
vt 0.000000 0.875000
vt 0.000000 0.000000
vt 0.250000 0.000000
vt 0.250000 0.875000
vt 0.000000 0.875000
vt 0.000000 0.000000
vt 0.125000 0.000000
vt 0.125000 0.875000
vt 0.000000 0.875000
vt 0.000000 0.000000
vt 0.375000 0.000000
vt 0.375000 0.875000
vt 0.000000 0.875000
vt 0.000000 0.000000
vt 0.125000 0.000000
vt 0.125000 0.875000
vt 0.000000 0.875000
vt 0.000000 0.000000
vt 0.250000 0.000000
vt 0.250000 0.875000
vt 0.625000 1.875000
vt 0.051240 0.000000
vt 0.625000 0.000000
vt 0.000000 1.875000
vt 0.000000 0.250000
vt 0.000000 0.000000
vt 0.250000 0.000000
vt 0.250000 0.250000
vt 0.000000 0.250000
vt 0.000000 0.000000
vt 0.250000 0.000000
vt 0.250000 0.250000
vt 0.000000 0.000000
vt 0.231080 0.000000
vt 0.000000 0.625000
vt 0.250000 0.625000
vt 0.250000 0.000000
vt 0.003410 0.232140
vt 0.003410 0.000000
vt 0.250000 0.000000
vt 0.250000 0.250000
vt 0.003410 0.250000
vt 0.000000 0.000000
vt 0.115200 0.000000
vt 0.000000 0.625000
vt 0.125000 0.625000
vt 0.125000 0.000000
vt 0.000000 0.125000
vt 0.000000 0.000000
vt 0.250000 0.000000
vt 0.250000 0.125000
vt 0.000000 0.000000
vt 0.125000 0.000000
vt 0.125000 0.250000
vt 0.000000 0.250000
vt 0.000000 0.250000
vt 0.000000 0.000000
vt 0.125000 0.000000
vt 0.125000 0.250000
vt 0.000000 0.250000
vt 0.000000 0.000000
vt 0.125000 0.000000
vt 0.125000 0.250000
vt 0.000000 0.375000
vt 0.000000 0.000000
vt 0.601380 0.000000
vt 0.625000 0.375000
vt 0.625000 0.000000
vt 0.000000 0.000000
vt 0.125000 0.000000
vt 0.125000 0.250000
vt 0.000000 0.250000
vt 0.000000 0.000000
vt 0.250000 0.000000
vt 0.250000 2.500000
vt 0.000000 2.500000
vt 0.000000 0.000000
vt 0.246840 0.000000
vt 0.000000 0.625000
vt 0.250000 0.625000
vt 0.000000 0.000000
vt 0.125000 0.000000
vt 0.125000 0.625000
vt 0.000000 0.625000
vt 0.000000 0.625000
vt 0.000000 0.000000
vt 0.125000 0.000000
vt 0.125000 0.625000
vt 0.000000 0.625000
vt 0.000000 0.000000
vt 0.012230 0.000000
vt 0.125000 0.625000
vt 0.125000 0.000000
vt 0.000000 0.000000
vt 0.124460 0.000000
vt 0.000000 0.625000
vt 0.125000 0.625000
vt 0.125000 0.000000
vt 0.000000 0.000000
vt 0.125000 0.000000
vt 0.125000 0.625000
vt 0.000000 0.625000
vt 0.000000 2.500000
vt 0.000000 0.000000
vt 0.375000 0.000000
vt 0.375000 2.500000
vt 0.000000 0.000000
vt 0.037630 0.000000
vt 0.000000 2.250000
vt 0.500000 2.250000
vt 0.500000 0.000000
vt 0.000000 0.000000
vt 0.125000 0.000000
vt 0.125000 2.500000
vt 0.000000 2.500000
vt 0.000000 0.000000
vt 0.125000 0.000000
vt 0.125000 2.500000
vt 0.000000 2.500000
vt 0.000000 2.500000
vt 0.000000 0.000000
vt 0.250000 0.000000
vt 0.250000 2.500000
vt 0.000000 2.500000
vt 0.000000 0.000000
vt 0.125000 0.000000
vt 0.125000 2.500000
vt 0.000000 2.500000
vt 0.000000 0.000000
vt 0.125000 0.000000
vt 0.125000 2.500000
vt 0.000000 0.000000
vt 0.125000 0.000000
vt 0.000000 3.480740
vt 0.000000 0.625000
vt 0.000000 0.000000
vt 0.019890 0.000000
vt 0.125000 0.625000
vt 0.125000 0.000000
vt 0.000000 0.625000
vt 0.000000 0.000000
vt 0.125000 0.000000
vt 0.125000 0.625000
vt 0.000000 0.625000
vt 0.000000 0.000000
vt 0.125000 0.000000
vt 0.125000 0.625000
vt 0.000000 0.000000
vt 0.000000 0.232140
vt 0.001220 0.232140
vt 0.000000 0.250000
vt 0.000000 0.000000
vt 0.250000 0.000000
vt 0.250000 2.750000
vt 0.000000 2.750000
vt 0.250000 0.000000
vt 0.000000 0.000000
vt 0.125000 0.000000
vt 0.125000 0.250000
vt 0.000000 0.250000
vt 0.000000 0.000000
vt 0.125000 0.000000
vt 0.125000 0.250000
vt 0.000000 0.250000
vt 0.000000 0.250000
vt 0.000000 0.000000
vt 0.125000 0.000000
vt 0.125000 0.250000
vt 0.000000 0.000000
vt 0.125000 0.000000
vt 0.125000 0.250000
vt 0.000000 0.250000
vt 0.000000 0.000000
vt 0.125000 0.000000
vt 0.125000 0.250000
vt 0.000000 0.250000
vt 0.000000 0.000000
vt 0.125000 0.000000
vt 0.125000 0.250000
vt 0.000000 0.250000
vn -0.4798 -0.8774 0.0000
vn -0.8801 0.4747 0.0000
vn -0.8801 0.4748 0.0000
vn -0.4916 -0.8708 0.0000
vn -0.8795 0.4759 0.0000
vn -0.8795 0.4760 0.0000
vn -0.4711 -0.8821 0.0000
vn -0.4990 -0.8666 0.0000
vn -0.4770 -0.8789 0.0000
vn -0.4870 -0.8734 0.0000
vn -0.4871 -0.8734 0.0000
vn 0.8794 -0.4761 0.0000
vn 0.8794 -0.4762 0.0000
vn 0.5010 0.8654 0.0000
vn 0.4743 0.8804 0.0000
vn 0.4876 0.8731 0.0000
vn 0.4878 0.8730 0.0000
vn -0.8793 0.4763 0.0000
vn -0.8793 0.4762 0.0000
vn -0.8687 0.4953 0.0000
vn -0.8689 0.4949 0.0000
vn 0.4731 0.8810 0.0000
vn 0.1827 0.9832 0.0000
vn 0.2756 0.9613 0.0000
vn 0.4122 0.9111 0.0000
vn 0.8792 -0.4764 0.0000
vn 0.8793 -0.4763 0.0000
vn 0.4962 0.8682 0.0000
vn -0.4826 -0.8758 0.0000
vn 0.8786 -0.4776 0.0000
vn 0.8786 -0.4775 0.0000
vn 0.8782 -0.4783 0.0000
vn 0.8782 -0.4782 0.0000
vn 0.8783 -0.4782 0.0000
vn 0.8787 -0.4774 0.0000
vn 0.8767 -0.4811 -0.0000
vn 0.4738 0.8806 0.0000
vn 0.8814 -0.4724 0.0000
vn 0.4695 0.8830 0.0000
vn 0.4695 0.8829 0.0000
vn 0.8804 -0.4743 0.0000
vn 0.8804 -0.4742 0.0000
vn -0.4987 -0.8668 0.0000
vn -0.4772 -0.8788 0.0000
vn -0.8795 0.4758 -0.0000
vn -0.8794 0.4760 0.0000
vn 0.5009 0.8655 0.0000
vn -0.8792 0.4765 0.0000
vn -0.8798 0.4754 -0.0001
vn -0.8788 0.4772 -0.0000
vn -0.8797 0.4755 -0.0000
vn -0.4775 -0.8787 0.0000
vn -0.4775 -0.8786 0.0000
vn 0.8790 -0.4769 0.0000
vn 0.5761 0.8174 0.0000
vn 0.6520 0.7582 0.0000
vn 0.7199 0.6941 0.0000
vn 0.4751 0.8799 0.0000
vn 0.4752 0.8799 0.0000
s off
f 1/1/1 2/2/1 3/3/1
f 1/1/1 3/3/1 4/4/1
f 5/5/2 6/6/2 7/7/2
f 8/8/3 5/5/3 7/7/3
f 9/9/2 10/10/2 11/11/2
f 9/9/3 11/11/3 12/12/3
f 13/13/2 14/14/2 15/15/2
f 13/13/2 15/15/2 16/16/2
f 17/17/3 18/18/3 19/19/3
f 17/17/2 19/19/2 20/20/2
f 21/21/2 22/22/2 23/23/2
f 24/24/2 21/21/2 23/23/2
f 25/25/2 26/26/2 27/27/2
f 28/28/2 25/25/2 27/27/2
f 29/29/2 30/30/2 31/31/2
f 29/29/2 31/31/2 32/32/2
f 33/33/4 34/34/4 35/35/4
f 33/33/4 35/35/4 36/36/4
f 37/37/5 38/38/5 39/39/5
f 40/40/5 37/37/5 39/39/5
f 41/41/5 42/42/5 43/43/5
f 44/44/6 41/41/6 43/43/6
f 45/45/5 46/46/5 47/47/5
f 48/48/5 45/45/5 47/47/5
f 49/49/5 50/50/5 51/51/5
f 52/52/5 49/49/5 51/51/5
f 53/53/6 54/54/6 55/55/6
f 56/56/6 53/53/6 55/55/6
f 57/57/5 58/58/5 59/59/5
f 60/60/5 57/57/5 59/59/5
f 61/61/7 62/62/7 63/63/7
f 61/61/7 63/63/7 64/64/7
f 68/65/8 65/66/8 67/67/8
f 70/68/9 71/69/9 72/70/9
f 70/68/9 72/70/9 73/71/9
f 74/72/9 75/73/9 76/74/9
f 74/72/9 76/74/9 77/75/9
f 78/76/9 79/77/9 80/78/9
f 82/79/9 78/76/9 80/78/9
f 83/80/9 78/76/9 82/79/9
f 84/81/6 85/82/6 86/83/6
f 87/84/5 86/83/5 88/85/5
f 87/84/6 84/81/6 86/83/6
f 89/86/5 90/87/5 91/88/5
f 92/89/5 89/86/5 91/88/5
f 93/90/10 94/91/10 95/92/10
f 96/93/11 93/90/11 95/92/11
f 110/94/12 111/95/12 112/96/12
f 110/94/12 112/96/12 113/97/12
f 114/98/13 115/99/13 116/100/13
f 114/98/12 116/100/12 117/101/12
f 118/102/12 119/103/12 120/104/12
f 118/102/12 120/104/12 121/105/12
f 122/106/12 123/107/12 124/108/12
f 122/106/12 124/108/12 125/109/12
f 126/110/12 127/111/12 128/112/12
f 126/110/12 128/112/12 129/113/12
f 133/114/14 131/115/14 134/116/14
f 132/117/14 131/115/14 133/114/14
f 135/118/15 136/119/15 137/120/15
f 135/118/15 137/120/15 138/121/15
f 139/122/15 140/123/15 141/124/15
f 139/122/15 141/124/15 142/125/15
f 143/126/16 144/127/16 145/128/16
f 146/129/17 144/127/17 147/130/17
f 145/128/16 144/127/16 146/129/16
f 151/131/18 153/132/18 154/133/18
f 151/131/18 154/133/18 155/134/18
f 155/134/19 152/135/19 151/131/19
f 156/136/20 157/137/20 158/138/20
f 159/139/21 157/137/21 160/140/21
f 158/138/20 157/137/20 159/139/20
f 161/141/22 162/142/22 163/143/22
f 161/141/22 163/143/22 164/144/22
f 165/145/23 166/146/23 167/147/23
f 168/148/23 165/145/23 167/147/23
f 169/149/24 170/150/24 171/151/24
f 169/149/24 171/151/24 172/152/24
f 173/153/25 174/154/25 175/155/25
f 173/153/25 175/155/25 176/156/25
f 181/157/26 182/158/26 183/159/26
f 184/160/27 183/159/27 185/161/27
f 184/160/26 181/157/26 183/159/26
f 186/162/28 187/163/28 188/164/28
f 189/165/28 186/162/28 188/164/28
f 190/166/29 191/167/29 192/168/29
f 193/169/29 190/166/29 192/168/29
f 194/170/30 195/171/30 196/172/30
f 196/172/31 195/171/31 197/173/31
f 207/174/32 208/175/32 209/176/32
f 210/177/33 207/174/33 209/176/33
f 211/178/33 212/179/33 213/180/33
f 211/178/33 213/180/33 214/181/33
f 215/182/32 216/183/32 217/184/32
f 218/185/34 217/184/34 219/186/34
f 218/185/34 215/182/34 217/184/34
f 220/187/35 221/188/35 222/189/35
f 223/190/36 221/188/36 224/191/36
f 225/192/37 226/193/37 227/194/37
f 228/195/37 225/192/37 227/194/37
f 229/196/38 230/197/38 231/198/38
f 229/196/38 231/198/38 232/199/38
f 249/200/39 250/201/39 251/202/39
f 252/203/40 250/201/40 253/204/40
f 251/202/40 250/201/40 252/203/40
f 254/205/41 255/206/41 256/207/41
f 257/208/41 254/205/41 256/207/41
f 258/209/42 259/210/42 260/211/42
f 261/212/42 258/209/42 260/211/42
f 262/213/41 263/214/41 264/215/41
f 262/213/41 264/215/41 265/216/41
f 266/217/41 267/218/41 268/219/41
f 266/217/41 268/219/41 269/220/41
f 270/221/41 271/222/41 272/223/41
f 270/221/41 272/223/41 273/224/41
s 1
f 65/66/43 66/225/43 67/67/43
f 68/65/8 67/67/8 69/226/8
f 81/227/44 79/77/44 78/76/44
f 97/228/45 98/229/46 99/230/5
f 100/231/45 99/230/5 101/232/5
f 100/231/45 97/228/45 99/230/5
f 102/233/5 103/234/45 104/235/45
f 102/233/5 104/235/45 105/236/5
f 106/237/5 107/238/5 108/239/5
f 106/237/5 108/239/5 109/240/5
f 130/241/47 131/115/47 132/117/47
f 148/242/5 149/243/48 150/244/49
f 151/131/50 152/135/51 149/243/48
f 150/244/49 149/243/48 152/135/51
f 177/245/52 178/246/52 179/247/53
f 180/248/53 177/245/52 179/247/53
f 197/173/54 195/171/54 198/249/54
f 199/250/55 200/251/55 201/252/55
f 202/253/55 199/250/55 201/252/55
f 203/254/56 204/255/56 205/256/56
f 206/257/56 203/254/56 205/256/56
f 222/189/35 221/188/35 223/190/35
f 233/258/57 234/259/57 235/260/57
f 233/258/57 235/260/57 236/261/57
f 237/262/58 238/263/58 239/264/59
f 240/265/59 237/262/58 239/264/59
f 241/266/58 242/267/58 243/268/59
f 244/269/59 241/266/58 243/268/59
f 245/270/58 246/271/58 247/272/59
f 248/273/59 245/270/58 247/272/59
