# Blender v3.0.1 OBJ File: 'rockerfeller_plaza.blend'
# www.blender.org
o geometryt000010000010000110010110000110000110100100000010st35
v 682.543091 -283.954071 930.191040
v 687.318176 -286.562988 930.191040
v 675.177979 -297.462463 930.191040
v 704.822388 -300.547791 930.191040
v 709.698242 -298.759064 930.191040
v 699.325378 -310.626068 930.191040
v 707.830200 -302.189178 930.191040
v 699.325378 -310.626068 986.691040
v 687.318176 -286.562988 986.691040
v 675.177979 -297.462463 986.691040
v 682.543091 -283.954071 986.691040
v 704.822388 -300.547791 986.691040
v 707.830200 -302.189178 986.691040
v 709.698242 -298.759064 986.691040
vt 0.460760 0.347760
vt 0.463990 0.357320
vt 0.487680 0.332600
vt 0.483870 0.392270
vt 0.479070 0.402140
vt 0.503960 0.380950
vt 0.485900 0.398290
vt 0.503960 0.380950
vt 0.463990 0.357320
vt 0.487680 0.332600
vt 0.460760 0.347760
vt 0.483870 0.392270
vt 0.485900 0.398290
vt 0.479070 0.402140
vn 0.0000 0.0000 -1.0000
vn -0.0000 0.0000 1.0000
s off
f 1/1/1 2/2/1 3/3/1
f 4/4/1 2/2/1 5/5/1
f 6/6/1 2/2/1 4/4/1
f 3/3/1 2/2/1 6/6/1
f 7/7/1 4/4/1 5/5/1
f 8/8/2 9/9/2 10/10/2
f 9/9/2 11/11/2 10/10/2
f 9/9/2 8/8/2 12/12/2
f 13/13/2 14/14/2 12/12/2
f 14/14/2 9/9/2 12/12/2
