# Blender v3.0.1 OBJ File: 'rockerfeller_plaza.blend'
# www.blender.org
o geometryt000010000010000110010110000110000110100100000010st71
v 570.035095 -301.348969 931.385986
v 569.870667 -301.652283 960.133362
v 570.035095 -301.348969 960.133362
v 570.960754 -299.641571 931.385986
v 569.870667 -301.652283 930.733398
v 570.960754 -299.641571 960.133362
v 572.744080 -296.352386 960.133362
v 572.744080 -296.352386 931.385986
v 575.521057 -291.230377 931.385986
v 575.521057 -291.230377 960.133362
v 577.304321 -287.941193 960.133362
v 577.304321 -287.941193 931.385986
v 580.081299 -282.819092 931.385986
v 582.954712 -277.519287 930.733398
v 580.081299 -282.819092 960.133362
v 581.864624 -279.529877 960.133362
v 581.864624 -279.529877 931.385986
v 582.790283 -277.822571 931.385986
v 582.790283 -277.822571 960.133362
v 582.954712 -277.519287 960.133362
v 575.684998 -304.813568 931.385986
v 575.988098 -304.978363 960.133362
v 575.684998 -304.813568 960.133362
v 573.978760 -303.885864 931.385986
v 575.988098 -304.978363 930.733398
v 573.978760 -303.885864 960.133362
v 571.880005 -302.744781 960.133362
v 571.880005 -302.744781 931.385986
v 569.870667 -301.652283 930.733398
v 570.173767 -301.817078 931.385986
v 570.173767 -301.817078 960.133362
v 569.870667 -301.652283 960.133362
v 588.874084 -281.127075 931.385986
v 589.038086 -280.823578 960.133362
v 588.874084 -281.127075 960.133362
v 587.950928 -282.835785 931.385986
v 589.038086 -280.823578 930.733398
v 587.950928 -282.835785 960.133362
v 586.171997 -286.128479 960.133362
v 586.171997 -286.128479 931.385986
v 583.402588 -291.254578 931.385986
v 583.402588 -291.254578 960.133362
v 581.623596 -294.547363 960.133362
v 581.623596 -294.547363 931.385986
v 575.988098 -304.978363 930.733398
v 578.854187 -299.673492 931.385986
v 578.854187 -299.673492 960.133362
v 577.075256 -302.966187 960.133362
v 577.075256 -302.966187 931.385986
v 576.152100 -304.674866 931.385986
v 576.152100 -304.674866 960.133362
v 575.988098 -304.978363 960.133362
v 583.257874 -277.683868 931.385986
v 582.954712 -277.519287 960.133362
v 583.257874 -277.683868 960.133362
v 584.964478 -278.610870 931.385986
v 582.954712 -277.519287 930.733398
v 584.964478 -278.610870 960.133362
v 587.028320 -279.731873 960.133362
v 587.028320 -279.731873 931.385986
v 589.038086 -280.823578 930.733398
v 588.734924 -280.658875 931.385986
v 588.734924 -280.658875 960.133362
v 589.038086 -280.823578 960.133362
vt 17.431940 0.419670
vt 17.653811 18.906750
vt 17.431940 18.906750
vt 16.182989 0.419670
vt 17.653811 0.000000
vt 16.182989 18.906750
vt 13.776850 18.906750
vt 13.776850 0.419670
vt 10.029970 0.419670
vt 10.029970 18.906750
vt 7.623830 18.906750
vt 7.623830 0.419670
vt 3.876960 0.419670
vt 0.000000 0.000000
vt 3.876960 18.906750
vt 1.470820 18.906750
vt 1.470820 0.419670
vt 0.221860 0.419670
vt 0.221860 18.906750
vt 0.000000 18.906750
vt 4.256060 0.419670
vt 4.477930 18.906750
vt 4.256060 18.906750
vt 3.007110 0.419670
vt 4.477930 0.000000
vt 3.007110 18.906750
vt 1.470820 18.906750
vt 1.470820 0.419670
vt 0.000000 0.000000
vt 0.221860 0.419670
vt 0.221860 18.906750
vt 0.000000 18.906750
vt 17.433870 0.419670
vt 17.655729 18.906750
vt 17.433870 18.906750
vt 16.184910 0.419670
vt 17.655729 0.000000
vt 16.184910 18.906750
vt 13.778130 18.906750
vt 13.778130 0.419670
vt 10.031260 0.419670
vt 10.031260 18.906750
vt 7.624480 18.906750
vt 7.624480 0.419670
vt 0.000000 0.000000
vt 3.877600 0.419670
vt 3.877600 18.906750
vt 1.470820 18.906750
vt 1.470820 0.419670
vt 0.221860 0.419670
vt 0.221860 18.906750
vt 0.000000 18.906750
vt 4.230130 0.419670
vt 4.451990 18.906750
vt 4.230130 18.906750
vt 2.981170 0.419670
vt 4.451990 0.000000
vt 2.981170 18.906750
vt 1.470820 18.906750
vt 1.470820 0.419670
vt 0.000000 0.000000
vt 0.221860 0.419670
vt 0.221860 18.906750
vt 0.000000 18.906750
vn -0.8791 0.4766 0.0000
vn -0.8790 0.4769 0.0000
vn -0.8792 0.4765 -0.0000
vn -0.8792 0.4765 -0.0001
vn -0.8789 0.4770 0.0002
vn -0.8791 0.4767 0.0000
vn -0.4778 -0.8785 0.0000
vn -0.4776 -0.8786 -0.0000
vn -0.4777 -0.8785 0.0000
vn -0.4776 -0.8786 -0.0001
vn 0.8798 -0.4754 0.0000
vn 0.8798 -0.4753 0.0000
vn 0.8798 -0.4753 0.0001
vn 0.8800 -0.4751 -0.0002
vn 0.8798 -0.4753 -0.0001
vn 0.8796 -0.4757 0.0000
vn 0.8799 -0.4751 0.0000
vn 0.4773 0.8787 0.0000
vn 0.4773 0.8787 0.0003
vn 0.4772 0.8788 -0.0002
vn 0.4773 0.8787 -0.0002
vn 0.4773 0.8788 0.0001
vn 0.4774 0.8787 0.0000
s off
f 1/1/1 2/2/1 3/3/1
f 4/4/1 5/5/1 1/1/1
f 2/2/2 1/1/2 5/5/2
f 6/6/1 7/7/1 4/4/1
f 7/7/1 8/8/1 4/4/1
f 8/8/3 5/5/3 4/4/3
f 8/8/4 9/9/4 5/5/4
f 10/10/1 11/11/1 9/9/1
f 11/11/1 12/12/1 9/9/1
f 9/9/5 12/12/5 5/5/5
f 13/13/4 14/14/4 12/12/4
f 12/12/1 14/14/1 5/5/1
f 15/15/1 16/16/1 13/13/1
f 16/16/1 17/17/1 13/13/1
f 17/17/1 14/14/1 13/13/1
f 18/18/1 14/14/1 17/17/1
f 19/19/1 20/20/1 18/18/1
f 20/20/6 14/14/6 18/18/6
f 21/21/7 22/22/7 23/23/7
f 24/24/8 25/25/8 21/21/8
f 22/22/8 21/21/8 25/25/8
f 26/26/9 27/27/9 24/24/9
f 27/27/8 28/28/8 24/24/8
f 28/28/9 29/29/9 24/24/9
f 29/29/10 25/25/10 24/24/10
f 30/30/8 29/29/8 28/28/8
f 31/31/8 32/32/8 30/30/8
f 32/32/8 29/29/8 30/30/8
f 33/33/11 34/34/11 35/35/11
f 36/36/12 37/37/12 33/33/12
f 34/34/12 33/33/12 37/37/12
f 38/38/12 39/39/12 36/36/12
f 39/39/12 40/40/12 36/36/12
f 40/40/11 37/37/11 36/36/11
f 40/40/13 41/41/13 37/37/13
f 42/42/12 43/43/12 41/41/12
f 43/43/12 44/44/12 41/41/12
f 44/44/14 45/45/14 41/41/14
f 41/41/11 45/45/11 37/37/11
f 46/46/15 45/45/15 44/44/15
f 47/47/12 48/48/12 46/46/12
f 48/48/12 49/49/12 46/46/12
f 49/49/11 45/45/11 46/46/11
f 50/50/11 45/45/11 49/49/11
f 51/51/16 52/52/16 50/50/16
f 52/52/17 45/45/17 50/50/17
f 53/53/18 54/54/18 55/55/18
f 56/56/19 57/57/19 53/53/19
f 58/58/18 59/59/18 56/56/18
f 59/59/18 60/60/18 56/56/18
f 60/60/20 61/61/20 56/56/20
f 61/61/21 57/57/21 56/56/21
f 62/62/22 61/61/22 60/60/22
f 63/63/23 64/64/23 62/62/23
f 64/64/23 61/61/23 62/62/23
s 1
f 54/54/23 53/53/23 57/57/23
