# Blender v3.0.1 OBJ File: 'rockerfeller_plaza.blend'
# www.blender.org
o geometryt000010000010000110010110000110000110100000110100st51
v 892.901245 -44.461849 701.621155
v 905.516479 -51.197948 701.621155
v 897.767334 -65.721382 701.621155
v 885.143860 -58.996460 701.621155
v 892.901245 -44.461849 721.121155
v 885.143860 -58.996460 721.121155
v 897.767334 -65.721382 721.121155
v 905.516479 -51.197948 721.121155
vt 0.036130 0.282800
vt 0.044370 0.308070
vt 0.073270 0.292110
vt 0.065040 0.266830
vt 0.036130 0.282800
vt 0.065040 0.266830
vt 0.073270 0.292110
vt 0.044370 0.308070
vn 0.0000 0.0000 -1.0000
vn -0.0000 0.0000 1.0000
s off
f 1/1/1 2/2/1 3/3/1
f 4/4/1 1/1/1 3/3/1
f 5/5/2 6/6/2 7/7/2
f 5/5/2 7/7/2 8/8/2
