# Blender v3.0.1 OBJ File: 'rockerfeller_plaza.blend'
# www.blender.org
o geometryt000010000010000110010110000110000110100000010100st1
v 812.442688 -169.723587 149.781754
v 812.746643 -169.886688 178.467361
v 812.442688 -169.723587 178.467361
v 808.055908 -167.368484 149.781754
v 812.746643 -169.886688 146.767365
v 808.055908 -167.368484 178.467361
v 806.363342 -166.459778 178.467361
v 806.363342 -166.459778 149.781754
v 804.901062 -165.674789 149.781754
v 804.901062 -165.674789 178.467361
v 803.208496 -164.766083 178.467361
v 803.208496 -164.766083 149.781754
v 798.517822 -162.247787 146.767365
v 798.821777 -162.410980 149.781754
v 798.821777 -162.410980 178.467361
v 798.517822 -162.247787 178.467361
v 798.696167 -161.951981 149.781754
v 798.533203 -162.256088 178.467361
v 798.696167 -161.951981 178.467361
v 799.480103 -160.489182 149.781754
v 798.533203 -162.256088 146.767365
v 799.480103 -160.489182 178.467361
v 799.907043 -159.692490 178.467361
v 799.907043 -159.692490 149.781754
v 802.258911 -155.303986 149.781754
v 803.177856 -153.589188 146.767365
v 802.258911 -155.303986 178.467361
v 802.685852 -154.507278 178.467361
v 802.685852 -154.507278 149.781754
v 803.469788 -153.044479 149.781754
v 803.469788 -153.044479 178.467361
v 803.632751 -152.740387 178.467361
v 803.632751 -152.740387 146.767365
v 803.936035 -152.903687 149.781754
v 803.632263 -152.740082 178.467361
v 803.936035 -152.903687 178.467361
v 805.367249 -153.674179 149.781754
v 803.632263 -152.740082 146.767365
v 805.367249 -153.674179 178.467361
v 805.671021 -153.837692 178.467361
v 805.671021 -153.837692 146.767365
v 805.834351 -153.533783 149.781754
v 805.671021 -153.837692 178.467361
v 805.834351 -153.533783 178.467361
v 806.619995 -152.071884 149.781754
v 805.671021 -153.837692 146.767365
v 806.619995 -152.071884 178.467361
v 807.293457 -150.818680 178.467361
v 807.293457 -150.818680 149.781754
v 809.650391 -146.432892 149.781754
v 809.650391 -146.432892 178.467361
v 810.323914 -145.179688 178.467361
v 810.323914 -145.179688 149.781754
v 811.272827 -143.413879 146.767365
v 811.109558 -143.717789 149.781754
v 811.109558 -143.717789 178.467361
v 811.272827 -143.413879 178.467361
v 812.640564 -144.152878 146.767365
v 811.272827 -143.413879 146.767365
v 811.272827 -143.413879 178.467361
v 812.640564 -144.152878 178.467361
v 812.814453 -143.828491 149.781754
v 812.640564 -144.152878 178.467361
v 812.814453 -143.828491 178.467361
v 813.772461 -142.041382 146.767365
v 813.598572 -142.365784 149.781754
v 812.640564 -144.152878 146.767365
v 813.598572 -142.365784 178.467361
v 813.772461 -142.041382 178.467361
v 816.958618 -162.075378 149.781754
v 817.122375 -161.771683 178.467361
v 816.958618 -162.075378 178.467361
v 816.170959 -163.536179 149.781754
v 816.742737 -162.475784 146.767365
v 817.122375 -161.771683 146.767365
v 816.170959 -163.536179 178.467361
v 815.722229 -164.368378 178.467361
v 815.722229 -164.368378 149.781754
v 814.146851 -167.289978 149.781754
v 814.146851 -167.289978 178.467361
v 813.698059 -168.122284 178.467361
v 813.698059 -168.122284 149.781754
v 812.746643 -169.886688 146.767365
v 812.910400 -169.583084 149.781754
v 812.910400 -169.583084 178.467361
v 812.746643 -169.886688 178.467361
v 814.753906 -142.570984 149.781754
v 813.772461 -142.041382 178.467361
v 814.753906 -142.570984 178.467361
v 817.195984 -143.888779 146.767365
v 816.214478 -143.359192 149.781754
v 813.772461 -142.041382 146.767365
v 816.214478 -143.359192 178.467361
v 817.195984 -143.888779 178.467361
v 816.930420 -154.996185 149.781754
v 817.094116 -154.692490 178.467361
v 816.930420 -154.996185 178.467361
v 816.143188 -156.457291 149.781754
v 817.094116 -154.692490 146.767365
v 816.143188 -156.457291 178.467361
v 815.095215 -158.402283 178.467361
v 815.095215 -158.402283 149.781754
v 814.307922 -159.863281 149.781754
v 814.144287 -160.167084 146.767365
v 814.307922 -159.863281 178.467361
v 814.144287 -160.167084 178.467361
v 814.896118 -160.572189 149.781754
v 814.144287 -160.167084 178.467361
v 814.896118 -160.572189 178.467361
v 817.109070 -161.764481 146.767365
v 816.357178 -161.359390 149.781754
v 814.144287 -160.167084 146.767365
v 816.357178 -161.359390 178.467361
v 817.109070 -161.764481 178.467361
v 819.451721 -155.960281 149.781754
v 820.347656 -156.441986 178.467361
v 819.451721 -155.960281 178.467361
v 817.094116 -154.692490 146.767365
v 817.989990 -155.174286 149.781754
v 820.347656 -156.441986 146.767365
v 817.989990 -155.174286 178.467361
v 817.094116 -154.692490 178.467361
v 817.358948 -143.584778 149.781754
v 817.195984 -143.888779 178.467361
v 817.358948 -143.584778 178.467361
v 817.925232 -142.528290 149.781754
v 817.195984 -143.888779 146.767365
v 817.925232 -142.528290 178.467361
v 818.088257 -142.224182 178.467361
v 818.088257 -142.224182 146.767365
v 818.392151 -142.387390 149.781754
v 818.088257 -142.224182 178.467361
v 818.392151 -142.387390 178.467361
v 819.854248 -143.172684 149.781754
v 818.088257 -142.224182 146.767365
v 819.854248 -143.172684 178.467361
v 821.201111 -143.896088 178.467361
v 821.201111 -143.896088 149.781754
v 822.663208 -144.681381 149.781754
v 822.663208 -144.681381 178.467361
v 824.010010 -145.404785 178.467361
v 824.010010 -145.404785 149.781754
v 825.776062 -146.353378 146.767365
v 825.472107 -146.190079 149.781754
v 825.472107 -146.190079 178.467361
v 825.776062 -146.353378 178.467361
v 825.612610 -146.657181 149.781754
v 825.776062 -146.353378 178.467361
v 825.612610 -146.657181 178.467361
v 824.826172 -148.118683 149.781754
v 825.776062 -146.353378 146.767365
v 824.826172 -148.118683 178.467361
v 824.241455 -149.205383 178.467361
v 824.241455 -149.205383 149.781754
v 821.882263 -153.589981 149.781754
v 820.347656 -156.441986 146.767365
v 821.882263 -153.589981 178.467361
v 821.297485 -154.676682 178.467361
v 821.297485 -154.676682 149.781754
v 820.511108 -156.138184 149.781754
v 820.511108 -156.138184 178.467361
v 820.347656 -156.441986 178.467361
vt 84.971519 16.206440
vt 86.826347 170.430099
vt 84.971519 170.430099
vt 58.202961 16.206440
vt 86.826347 0.000000
vt 58.202961 170.430099
vt 47.874599 170.430099
vt 47.874599 16.206440
vt 38.951752 16.206440
vt 38.951752 170.430099
vt 28.623390 170.430099
vt 28.623390 16.206440
vt 0.000000 0.000000
vt 1.854840 16.206440
vt 1.854840 170.430099
vt 0.000000 170.430099
vt 56.188141 16.206440
vt 58.042980 170.430099
vt 56.188141 170.430099
vt 47.265289 16.206440
vt 58.042980 0.000000
vt 47.265289 170.430099
vt 42.405769 170.430099
vt 42.405769 16.206440
vt 15.637220 16.206440
vt 5.177480 0.000000
vt 15.637220 170.430099
vt 10.777690 170.430099
vt 10.777690 16.206440
vt 1.854840 16.206440
vt 1.854840 170.430099
vt 0.000000 170.430099
vt 0.000000 0.000000
vt 10.593780 16.206440
vt 12.448620 170.430099
vt 10.593780 170.430099
vt 1.854840 16.206440
vt 12.448620 0.000000
vt 1.854840 170.430099
vt 0.000000 170.430099
vt 0.000000 0.000000
vt 61.766899 16.206440
vt 63.621738 170.430099
vt 61.766899 170.430099
vt 52.844051 16.206440
vt 63.621738 0.000000
vt 52.844051 170.430099
vt 45.195148 170.430099
vt 45.195148 16.206440
vt 18.426600 16.206440
vt 18.426600 170.430099
vt 10.777690 170.430099
vt 10.777690 16.206440
vt 0.000000 0.000000
vt 1.854840 16.206440
vt 1.854840 170.430099
vt 0.000000 170.430099
vt 0.000000 0.000000
vt 8.358060 0.000000
vt 8.358060 170.430099
vt 0.000000 170.430099
vt 1.978800 170.430099
vt 0.000000 170.430099
vt 1.978800 16.206440
vt 0.000000 0.000000
vt 47.712990 16.206440
vt 49.567829 170.430099
vt 47.712990 170.430099
vt 38.790131 16.206440
vt 45.267010 0.000000
vt 49.567829 0.000000
vt 38.790131 170.430099
vt 33.706760 170.430099
vt 33.706760 16.206440
vt 15.861060 16.206440
vt 15.861060 170.430099
vt 10.777690 170.430099
vt 10.777690 16.206440
vt 0.000000 0.000000
vt 1.854840 16.206440
vt 1.854840 170.430099
vt 0.000000 170.430099
vt 14.918910 16.206440
vt 20.914980 170.430099
vt 14.918910 170.430099
vt 0.000000 0.000000
vt 5.996060 16.206440
vt 20.914980 0.000000
vt 5.996060 170.430099
vt 0.000000 170.430099
vt 31.578791 16.206440
vt 33.433632 170.430099
vt 31.578791 170.430099
vt 22.655939 16.206440
vt 33.433632 0.000000
vt 22.655939 170.430099
vt 10.777690 170.430099
vt 10.777690 16.206440
vt 1.854840 16.206440
vt 0.000000 0.000000
vt 1.854840 170.430099
vt 0.000000 170.430099
vt 13.514480 16.206440
vt 18.106119 170.430099
vt 13.514480 170.430099
vt 0.000000 0.000000
vt 4.591630 16.206440
vt 18.106119 0.000000
vt 4.591630 170.430099
vt 0.000000 170.430099
vt 14.391800 16.206440
vt 19.860750 170.430099
vt 14.391800 170.430099
vt 0.000000 0.000000
vt 5.468950 16.206440
vt 19.860750 0.000000
vt 5.468950 170.430099
vt 0.000000 170.430099
vt 1.854840 16.206440
vt 10.154320 0.000000
vt 8.299481 16.206440
vt 10.154320 170.430099
vt 1.854840 170.430099
vt 0.000000 170.430099
vt 0.000000 0.000000
vt 45.062119 16.206440
vt 46.916962 170.430099
vt 45.062119 170.430099
vt 36.139271 16.206440
vt 46.916962 0.000000
vt 36.139271 170.430099
vt 27.919901 170.430099
vt 27.919901 16.206440
vt 18.997049 16.206440
vt 18.997049 170.430099
vt 10.777690 170.430099
vt 10.777690 16.206440
vt 0.000000 0.000000
vt 1.854840 16.206440
vt 1.854840 170.430099
vt 0.000000 170.430099
vt 59.738781 16.206440
vt 61.593620 170.430099
vt 59.738781 170.430099
vt 50.815929 16.206440
vt 61.593620 0.000000
vt 50.815929 170.430099
vt 44.181080 170.430099
vt 44.181080 16.206440
vt 17.412531 16.206440
vt 0.000000 0.000000
vt 17.412531 170.430099
vt 10.777690 170.430099
vt 10.777690 16.206440
vt 1.854840 16.206440
vt 1.854840 170.430099
vt 0.000000 170.430099
vt 10.901660 16.206440
vt 12.880460 170.430099
vt 10.901660 170.430099
vt 12.880460 0.000000
vt 8.299481 170.430099
vn -0.4728 -0.8811 0.0000
vn -0.4730 -0.8811 -0.0000
vn -0.4728 -0.8812 0.0000
vn -0.4730 -0.8810 0.0000
vn -0.8814 0.4724 0.0000
vn -0.8814 0.4723 -0.0000
vn 0.4741 0.8805 0.0000
vn 0.4740 0.8805 0.0000
vn 0.4739 0.8806 0.0000
vn -0.8809 0.4733 0.0000
vn -0.8809 0.4734 0.0000
vn -0.8808 0.4734 0.0000
vn -0.8808 0.4735 0.0000
vn 0.4754 0.8798 0.0000
vn 0.4753 0.8798 0.0000
vn -0.8815 0.4722 0.0000
vn 0.8801 -0.4747 0.0000
vn 0.8802 -0.4746 -0.0000
vn 0.8803 -0.4745 0.0000
vn 0.8802 -0.4745 0.0000
vn 0.8802 -0.4747 0.0000
vn 0.8801 -0.4749 0.0000
vn 0.8803 -0.4744 0.0000
vn 0.4749 0.8800 0.0000
vn 0.4749 0.8801 0.0000
vn 0.8803 -0.4743 0.0000
vn 0.8804 -0.4743 0.0000
vn 0.8804 -0.4742 0.0000
vn 0.4744 0.8803 0.0000
vn 0.4743 0.8804 0.0000
vn 0.4743 0.8803 0.0000
vn -0.4736 -0.8808 0.0000
vn -0.4736 -0.8807 -0.0000
vn -0.8812 0.4727 0.0000
vn -0.8813 0.4725 0.0000
vn 0.4732 0.8809 0.0000
vn 0.4732 0.8810 -0.0000
vn 0.4731 0.8810 -0.0000
vn 0.4733 0.8809 0.0000
vn 0.8805 -0.4740 0.0000
vn 0.8806 -0.4738 -0.0000
vn 0.8806 -0.4739 0.0000
vn 0.8807 -0.4737 0.0000
vn 0.4742 0.8804 0.0000
vn -0.8813 0.4726 -0.0000
vn -0.4735 -0.8808 0.0000
vn 0.4730 0.8811 0.0000
vn 0.4729 0.8811 0.0000
s off
f 1/1/1 2/2/1 3/3/1
f 4/4/2 5/5/2 1/1/2
f 2/2/3 1/1/3 5/5/3
f 6/6/4 7/7/4 4/4/4
f 7/7/4 8/8/4 4/4/4
f 8/8/2 5/5/2 4/4/2
f 8/8/2 9/9/2 5/5/2
f 10/10/4 11/11/4 9/9/4
f 11/11/2 12/12/2 9/9/2
f 12/12/2 13/13/2 9/9/2
f 9/9/2 13/13/2 5/5/2
f 14/14/2 13/13/2 12/12/2
f 15/15/4 16/16/4 14/14/4
f 16/16/2 13/13/2 14/14/2
f 17/17/5 18/18/5 19/19/5
f 20/20/6 21/21/6 17/17/6
f 22/22/5 23/23/5 20/20/5
f 23/23/6 24/24/6 20/20/6
f 20/20/5 24/24/5 21/21/5
f 24/24/5 25/25/5 26/26/5
f 24/24/5 26/26/5 21/21/5
f 27/27/6 28/28/6 25/25/6
f 28/28/6 29/29/6 25/25/6
f 25/25/5 29/29/5 26/26/5
f 29/29/6 30/30/6 26/26/6
f 31/31/5 32/32/5 30/30/5
f 32/32/6 33/33/6 30/30/6
f 30/30/6 33/33/6 26/26/6
f 34/34/7 35/35/7 36/36/7
f 37/37/8 38/38/8 34/34/8
f 39/39/9 40/40/9 37/37/9
f 40/40/8 41/41/8 37/37/8
f 41/41/8 38/38/8 37/37/8
f 42/42/10 43/43/10 44/44/10
f 45/45/11 46/46/11 42/42/11
f 43/43/10 42/42/10 46/46/10
f 47/47/12 48/48/12 45/45/12
f 48/48/10 49/49/10 45/45/10
f 49/49/12 46/46/12 45/45/12
f 49/49/11 50/50/11 46/46/11
f 51/51/12 52/52/12 50/50/12
f 52/52/12 53/53/12 50/50/12
f 53/53/10 54/54/10 50/50/10
f 50/50/11 54/54/11 46/46/11
f 55/55/13 54/54/13 53/53/13
f 56/56/10 57/57/10 55/55/10
f 57/57/10 54/54/10 55/55/10
f 58/58/14 59/59/14 60/60/14
f 58/58/15 60/60/15 61/61/15
f 68/62/5 69/63/5 66/64/5
f 69/63/16 65/65/16 66/64/16
f 70/66/17 71/67/17 72/68/17
f 73/69/18 74/70/18 70/66/18
f 74/70/19 75/71/19 70/66/19
f 71/67/19 70/66/19 75/71/19
f 76/72/18 77/73/18 73/69/18
f 77/73/18 78/74/18 73/69/18
f 78/74/17 74/70/17 73/69/17
f 78/74/18 79/75/18 74/70/18
f 80/76/20 81/77/20 79/75/20
f 81/77/18 82/78/18 79/75/18
f 82/78/21 83/79/21 79/75/21
f 79/75/18 83/79/18 74/70/18
f 84/80/18 83/79/18 82/78/18
f 85/81/22 86/82/22 84/80/22
f 86/82/23 83/79/23 84/80/23
f 87/83/24 88/84/24 89/85/24
f 90/86/24 87/83/24 91/87/24
f 90/86/24 92/88/24 87/83/24
f 88/84/25 87/83/25 92/88/25
f 93/89/24 94/90/24 91/87/24
f 94/90/25 90/86/25 91/87/25
f 95/91/23 96/92/23 97/93/23
f 98/94/26 99/95/26 95/91/26
f 96/92/23 95/91/23 99/95/23
f 100/96/26 101/97/26 98/94/26
f 101/97/26 102/98/26 98/94/26
f 102/98/27 99/95/27 98/94/27
f 103/99/23 104/100/23 102/98/23
f 102/98/26 104/100/26 99/95/26
f 105/101/27 106/102/27 103/99/27
f 106/102/28 104/100/28 103/99/28
f 107/103/29 108/104/29 109/105/29
f 110/106/30 107/103/30 111/107/30
f 110/106/31 112/108/31 107/103/31
f 108/104/30 107/103/30 112/108/30
f 113/109/30 114/110/30 111/107/30
f 114/110/30 110/106/30 111/107/30
f 115/111/32 116/112/32 117/113/32
f 118/114/33 115/111/33 119/115/33
f 118/114/33 120/116/33 115/111/33
f 121/117/33 122/118/33 119/115/33
f 126/119/5 127/120/5 123/121/5
f 124/122/34 123/121/34 127/120/34
f 128/123/5 129/124/5 126/119/5
f 129/124/35 130/125/35 126/119/35
f 130/125/5 127/120/5 126/119/5
f 131/126/36 132/127/36 133/128/36
f 134/129/37 135/130/37 131/126/37
f 136/131/37 137/132/37 134/129/37
f 137/132/37 138/133/37 134/129/37
f 138/133/37 135/130/37 134/129/37
f 138/133/38 139/134/38 135/130/38
f 140/135/37 141/136/37 139/134/37
f 141/136/37 142/137/37 139/134/37
f 142/137/37 143/138/37 139/134/37
f 139/134/37 143/138/37 135/130/37
f 144/139/37 143/138/37 142/137/37
f 145/140/39 146/141/39 144/139/39
f 147/142/40 148/143/40 149/144/40
f 150/145/41 151/146/41 147/142/41
f 152/147/41 153/148/41 150/145/41
f 153/148/41 154/149/41 150/145/41
f 154/149/42 151/146/42 150/145/42
f 155/150/41 156/151/41 154/149/41
f 154/149/41 156/151/41 151/146/41
f 157/152/41 158/153/41 155/150/41
f 158/153/41 159/154/41 155/150/41
f 159/154/42 156/151/42 155/150/42
f 160/155/42 156/151/42 159/154/42
f 161/156/43 162/157/43 160/155/43
f 162/157/42 156/151/42 160/155/42
s 1
f 18/18/5 17/17/5 21/21/5
f 35/35/44 34/34/44 38/38/44
f 62/158/45 63/159/16 64/160/16
f 65/65/35 62/158/45 66/64/45
f 65/65/35 67/161/5 62/158/45
f 63/159/16 62/158/45 67/161/5
f 116/112/46 115/111/46 120/116/46
f 122/118/33 118/114/33 119/115/33
f 123/121/16 124/122/16 125/162/16
f 132/127/47 131/126/47 135/130/47
f 146/141/48 143/138/48 144/139/48
f 148/143/41 147/142/41 151/146/41
