# Blender v3.0.1 OBJ File: 'rockerfeller_plaza.blend'
# www.blender.org
o geometryt000010000010000110010110000110000110100100000000st59
v 447.077637 -67.146225 887.997498
v 457.662720 -72.829742 887.997498
v 454.976929 -77.812546 887.997498
v 446.316528 -93.933662 887.997498
v 442.903442 -100.268288 887.997498
v 435.266052 -96.160324 887.997498
v 432.326538 -94.573532 887.997498
v 446.316528 -93.933662 904.597473
v 447.077637 -67.146225 904.597473
v 432.326538 -94.573532 904.597473
v 454.976929 -77.812546 904.597473
v 457.662720 -72.829742 904.597473
v 435.266052 -96.160324 904.597473
v 442.903442 -100.268288 904.597473
vt 0.062100 0.379290
vt 0.069080 0.400490
vt 0.079000 0.394960
vt 0.111090 0.377130
vt 0.123700 0.370100
vt 0.118650 0.354800
vt 0.116700 0.348910
vt 0.111090 0.377130
vt 0.062100 0.379290
vt 0.116700 0.348910
vt 0.079000 0.394960
vt 0.069080 0.400490
vt 0.118650 0.354800
vt 0.123700 0.370100
vn 0.0000 0.0000 -1.0000
vn 0.0000 0.0000 1.0000
s off
f 1/1/1 2/2/1 3/3/1
f 4/4/1 1/1/1 3/3/1
f 5/5/1 6/6/1 4/4/1
f 6/6/1 7/7/1 4/4/1
f 7/7/1 1/1/1 4/4/1
f 8/8/2 9/9/2 10/10/2
f 11/11/2 9/9/2 8/8/2
f 12/12/2 9/9/2 11/11/2
f 8/8/2 10/10/2 13/13/2
f 14/14/2 8/8/2 13/13/2
