# Blender v3.0.1 OBJ File: 'rockerfeller_plaza.blend'
# www.blender.org
o geometryt000010000010000110010110000110000110100000100100st144
v 466.276978 -172.580124 612.123779
v 453.254211 -196.856522 612.123779
v 451.181305 -195.737122 612.123779
v 460.661804 -169.570023 612.123779
v 449.776611 -198.362427 612.123779
v 446.225708 -196.460831 612.123779
v 451.181305 -195.737122 628.423767
v 460.661804 -169.570023 628.423767
v 446.225708 -196.460831 628.423767
v 466.276978 -172.580124 628.423767
v 449.776611 -198.362427 628.423767
v 453.254211 -196.856522 628.423767
vt 0.246830 0.421960
vt 0.295150 0.395140
vt 0.293770 0.390990
vt 0.243140 0.410710
vt 0.298990 0.388100
vt 0.296660 0.380990
vt 0.293770 0.390990
vt 0.243140 0.410710
vt 0.296660 0.380990
vt 0.246830 0.421960
vt 0.298990 0.388100
vt 0.295150 0.395140
vn -0.0000 0.0000 -1.0000
vn -0.0000 0.0000 1.0000
s off
f 1/1/1 2/2/1 3/3/1
f 3/3/1 4/4/1 1/1/1
f 5/5/1 6/6/1 3/3/1
f 6/6/1 4/4/1 3/3/1
f 7/7/2 8/8/2 9/9/2
f 10/10/2 8/8/2 7/7/2
f 7/7/2 9/9/2 11/11/2
f 12/12/2 10/10/2 7/7/2
