# Blender v3.0.1 OBJ File: 'rockerfeller_plaza.blend'
# www.blender.org
o geometryt000010000010000110010110000110000100110010010110st144
v 51.778091 -234.501907 35.351280
v 51.778091 -234.501907 19.632259
v 48.932968 -239.768494 19.632259
v 48.932968 -239.768494 35.351280
v 48.824402 -240.695404 35.351280
v 48.824402 -240.695404 19.632259
v 51.458351 -242.116699 19.632259
v 51.458351 -242.116699 35.351280
v 51.630341 -242.209503 19.632259
v 52.947319 -242.920197 19.632259
v 52.947319 -242.920197 35.351280
v 51.630341 -242.209503 35.351280
v 53.119301 -243.013000 19.632259
v 55.753262 -244.434402 19.632259
v 55.753262 -244.434402 35.351280
v 53.119301 -243.013000 35.351280
v 55.925240 -244.527206 35.351280
v 55.925240 -244.527206 19.632259
v 57.242222 -245.237793 19.632259
v 57.242222 -245.237793 35.351280
v 57.414211 -245.330597 19.632259
v 58.731178 -246.041306 19.632259
v 58.731178 -246.041306 35.351280
v 57.414211 -245.330597 35.351280
v 58.903172 -246.134094 35.351280
v 58.903172 -246.134094 19.632259
v 60.220150 -246.844803 19.632259
v 60.220150 -246.844803 35.351280
v 60.392139 -246.937607 35.351280
v 60.392139 -246.937607 19.632259
v 61.709110 -247.648300 19.632259
v 61.709110 -247.648300 35.351280
v 61.881100 -247.741104 19.632259
v 63.198078 -248.451797 19.632259
v 63.198078 -248.451797 35.351280
v 61.881100 -247.741104 35.351280
v 65.242989 -249.555298 35.351280
v 63.370060 -248.544601 19.632259
v 66.004021 -249.965897 19.632259
v 63.370060 -248.544601 35.351280
v 66.004021 -249.965897 35.351280
v 66.176003 -250.058701 19.632259
v 67.492981 -250.769394 19.632259
v 67.492981 -250.769394 35.351280
v 66.176003 -250.058701 35.351280
v 67.664970 -250.862198 35.351280
v 67.664970 -250.862198 19.632259
v 70.298920 -252.283600 19.632259
v 70.298920 -252.283600 35.351280
v 55.125771 -235.327896 19.632259
v 52.493679 -233.903198 19.632259
v 52.493679 -233.903198 35.351280
v 55.125771 -235.327896 35.351280
v 56.613041 -236.132996 35.351280
v 56.613041 -236.132996 19.632259
v 55.296989 -235.420593 19.632259
v 55.296989 -235.420593 35.351280
v 59.416351 -237.650497 35.351280
v 59.416351 -237.650497 19.632259
v 56.784248 -236.225693 19.632259
v 56.784248 -236.225693 35.351280
v 60.903610 -238.455597 19.632259
v 59.587559 -237.743195 19.632259
v 59.587559 -237.743195 35.351280
v 60.903610 -238.455597 35.351280
v 62.390869 -239.260605 35.351280
v 62.390869 -239.260605 19.632259
v 61.074821 -238.548203 19.632259
v 61.074821 -238.548203 35.351280
v 63.878132 -240.065704 35.351280
v 63.878132 -240.065704 19.632259
v 62.562092 -239.353302 19.632259
v 62.562092 -239.353302 35.351280
v 65.365402 -240.870804 35.351280
v 65.365402 -240.870804 19.632259
v 64.049347 -240.158401 19.632259
v 64.049347 -240.158401 35.351280
v 66.852661 -241.675903 19.632259
v 65.536613 -240.963501 19.632259
v 65.536613 -240.963501 35.351280
v 66.852661 -241.675903 35.351280
v 69.655968 -243.193298 35.351280
v 69.655968 -243.193298 19.632259
v 67.023872 -241.768494 19.632259
v 67.023872 -241.768494 35.351280
v 70.757973 -243.789902 35.351280
v 71.143227 -243.998398 19.632259
v 69.827179 -243.285995 19.632259
v 71.143227 -243.998398 35.351280
v 69.827179 -243.285995 35.351280
v 73.946541 -245.515900 35.351280
v 73.946541 -245.515900 19.632259
v 71.314453 -244.091095 19.632259
v 71.314453 -244.091095 35.351280
v 71.008728 -251.693802 35.351280
v 71.008728 -251.693802 19.632259
v 73.848801 -246.424393 19.632259
v 73.848801 -246.424393 35.351280
vt 0.000000 1.250000
vt 0.000000 0.000000
vt 1.333330 0.000000
vt 1.333330 1.250000
vt 0.000000 1.250000
vt 0.000000 0.000000
vt 0.666670 0.000000
vt 0.666670 1.250000
vt 0.000000 0.000000
vt 0.333330 0.000000
vt 0.333330 1.250000
vt 0.000000 1.250000
vt 0.000000 0.000000
vt 0.666670 0.000000
vt 0.666670 1.250000
vt 0.000000 1.250000
vt 0.000000 1.250000
vt 0.000000 0.000000
vt 0.333330 0.000000
vt 0.333330 1.250000
vt 0.000000 0.000000
vt 0.333330 0.000000
vt 0.333330 1.250000
vt 0.000000 1.250000
vt 0.000000 1.250000
vt 0.000000 0.000000
vt 0.333330 0.000000
vt 0.333330 1.250000
vt 0.000000 1.250000
vt 0.000000 0.000000
vt 0.333330 0.000000
vt 0.333330 1.250000
vt 0.000000 0.000000
vt 0.333330 0.000000
vt 0.333330 1.250000
vt 0.000000 1.250000
vt 0.474050 1.250000
vt 0.000000 0.000000
vt 0.666670 0.000000
vt 0.000000 1.250000
vt 0.666670 1.250000
vt 0.000000 0.000000
vt 0.333330 0.000000
vt 0.333330 1.250000
vt 0.000000 1.250000
vt 0.000000 1.250000
vt 0.000000 0.000000
vt 0.666670 0.000000
vt 0.666670 1.250000
vt 0.000000 0.000000
vt 0.666670 0.000000
vt 0.666670 1.250000
vt 0.000000 1.250000
vt 0.000000 1.250000
vt 0.000000 0.000000
vt 0.333330 0.000000
vt 0.333330 1.250000
vt 0.000000 1.250000
vt 0.000000 0.000000
vt 0.666670 0.000000
vt 0.666670 1.250000
vt 0.000000 0.000000
vt 0.333330 0.000000
vt 0.333330 1.250000
vt 0.000000 1.250000
vt 0.000000 1.250000
vt 0.000000 0.000000
vt 0.333330 0.000000
vt 0.333330 1.250000
vt 0.000000 1.250000
vt 0.000000 0.000000
vt 0.333330 0.000000
vt 0.333330 1.250000
vt 0.000000 1.250000
vt 0.000000 0.000000
vt 0.333330 0.000000
vt 0.333330 1.250000
vt 0.000000 0.000000
vt 0.333330 0.000000
vt 0.333330 1.250000
vt 0.000000 1.250000
vt 0.000000 1.250000
vt 0.000000 0.000000
vt 0.666670 0.000000
vt 0.666670 1.250000
vt 0.097580 1.250000
vt 0.000000 0.000000
vt 0.333330 0.000000
vt 0.000000 1.250000
vt 0.333330 1.250000
vt 0.000000 1.250000
vt 0.000000 0.000000
vt 0.666670 0.000000
vt 0.666670 1.250000
vt 0.000000 1.250000
vt 0.000000 0.000000
vt 1.333330 0.000000
vt 1.333330 1.250000
vn -0.8798 0.4753 0.0000
vn -0.4749 -0.8801 0.0000
vn -0.4749 -0.8800 0.0000
vn -0.4748 -0.8801 0.0000
vn 0.4760 0.8794 0.0000
vn 0.4761 0.8794 0.0000
vn 0.4760 0.8795 0.0000
vn 0.8803 -0.4745 0.0000
vn 0.8803 -0.4744 0.0000
s off
f 1/1/1 2/2/1 3/3/1
f 1/1/1 3/3/1 4/4/1
f 5/5/2 6/6/2 7/7/2
f 5/5/2 7/7/2 8/8/2
f 9/9/3 10/10/3 11/11/3
f 12/12/3 9/9/3 11/11/3
f 13/13/3 14/14/3 15/15/3
f 16/16/3 13/13/3 15/15/3
f 17/17/4 18/18/4 19/19/4
f 17/17/4 19/19/4 20/20/4
f 21/21/3 22/22/3 23/23/3
f 24/24/3 21/21/3 23/23/3
f 25/25/3 26/26/3 27/27/3
f 25/25/3 27/27/3 28/28/3
f 29/29/3 30/30/3 31/31/3
f 29/29/3 31/31/3 32/32/3
f 33/33/3 34/34/3 35/35/3
f 36/36/3 33/33/3 35/35/3
f 37/37/2 38/38/2 39/39/2
f 40/40/3 38/38/3 37/37/3
f 37/37/4 39/39/4 41/41/4
f 42/42/3 43/43/3 44/44/3
f 45/45/3 42/42/3 44/44/3
f 46/46/3 47/47/3 48/48/3
f 46/46/3 48/48/3 49/49/3
f 50/50/5 51/51/5 52/52/5
f 53/53/5 50/50/5 52/52/5
f 54/54/5 55/55/5 56/56/5
f 54/54/5 56/56/5 57/57/5
f 58/58/5 59/59/5 60/60/5
f 58/58/5 60/60/5 61/61/5
f 62/62/5 63/63/5 64/64/5
f 65/65/5 62/62/5 64/64/5
f 66/66/5 67/67/5 68/68/5
f 66/66/5 68/68/5 69/69/5
f 70/70/5 71/71/5 72/72/5
f 70/70/6 72/72/6 73/73/6
f 74/74/5 75/75/5 76/76/5
f 74/74/5 76/76/5 77/77/5
f 78/78/5 79/79/5 80/80/5
f 81/81/5 78/78/5 80/80/5
f 82/82/5 83/83/5 84/84/5
f 82/82/5 84/84/5 85/85/5
f 86/86/5 87/87/5 88/88/5
f 89/89/7 87/87/7 86/86/7
f 86/86/6 88/88/6 90/90/6
f 91/91/5 92/92/5 93/93/5
f 91/91/6 93/93/6 94/94/6
f 95/95/8 96/96/8 97/97/8
f 95/95/9 97/97/9 98/98/9
