# Blender v3.0.1 OBJ File: 'rockerfeller_plaza.blend'
# www.blender.org
o geometryt000010000010000110010110000110000110100000100100st103
v 344.439117 -338.583099 791.125671
v 344.439117 -338.583099 787.125671
v 344.275635 -338.886902 787.125671
v 344.275635 -338.886902 791.125671
v 346.815674 -334.167114 791.125671
v 346.815674 -334.167114 787.125671
v 346.406799 -334.926910 787.125671
v 346.406799 -334.926910 791.125671
v 349.192200 -329.751221 791.125671
v 349.192200 -329.751221 787.125671
v 348.783325 -330.510895 787.125671
v 348.783325 -330.510895 791.125671
v 350.912842 -326.554016 791.125671
v 350.912842 -326.554016 787.125671
v 350.503998 -327.313721 787.125671
v 350.503998 -327.313721 791.125671
v 352.633484 -323.356812 791.125671
v 352.633484 -323.356812 787.125671
v 352.224640 -324.116516 787.125671
v 352.224640 -324.116516 791.125671
v 354.354156 -320.159607 791.125671
v 354.354156 -320.159607 787.125671
v 353.945282 -320.919312 787.125671
v 353.945282 -320.919312 791.125671
v 356.730713 -315.743622 791.125671
v 356.730713 -315.743622 787.125671
v 356.321808 -316.503418 787.125671
v 356.321808 -316.503418 791.125671
v 358.861908 -311.783600 791.125671
v 358.861908 -311.783600 787.125671
v 358.698395 -312.087402 787.125671
v 358.698395 -312.087402 791.125671
v 344.275635 -338.886902 791.125671
v 344.275635 -338.886902 787.125671
v 344.579956 -339.049408 787.125671
v 344.579956 -339.049408 791.125671
v 345.800781 -339.701416 791.125671
v 345.800781 -339.701416 787.125671
v 346.615387 -340.136505 787.125671
v 346.615387 -340.136505 791.125671
v 350.277893 -342.092407 791.125671
v 350.277893 -342.092407 787.125671
v 351.092529 -342.527496 787.125671
v 351.092529 -342.527496 791.125671
v 352.313354 -343.179504 791.125671
v 352.313354 -343.179504 787.125671
v 352.617676 -343.342010 787.125671
v 352.617676 -343.342010 791.125671
v 352.617676 -343.342010 791.125671
v 352.617676 -343.342010 787.125671
v 352.781311 -343.038300 787.125671
v 352.781311 -343.038300 791.125671
v 354.750488 -339.382904 791.125671
v 354.750488 -339.382904 787.125671
v 355.159180 -338.624115 787.125671
v 355.159180 -338.624115 791.125671
v 357.128387 -334.968719 791.125671
v 357.128387 -334.968719 787.125671
v 357.537201 -334.210022 787.125671
v 357.537201 -334.210022 791.125671
v 358.849915 -331.773102 791.125671
v 358.849915 -331.773102 787.125671
v 359.258698 -331.014404 787.125671
v 359.258698 -331.014404 791.125671
v 360.571503 -328.577423 791.125671
v 360.571503 -328.577423 787.125671
v 360.980194 -327.818695 787.125671
v 360.980194 -327.818695 791.125671
v 362.292999 -325.381714 791.125671
v 362.292999 -325.381714 787.125671
v 362.701691 -324.623016 787.125671
v 362.701691 -324.623016 791.125671
v 364.670898 -320.967621 791.125671
v 364.670898 -320.967621 787.125671
v 365.079712 -320.208923 787.125671
v 365.079712 -320.208923 791.125671
v 367.048889 -316.553497 791.125671
v 367.048889 -316.553497 787.125671
v 367.212494 -316.249695 787.125671
v 367.212494 -316.249695 791.125671
v 359.166107 -311.946320 791.125671
v 359.166107 -311.946320 787.125671
v 358.861908 -311.783600 787.125671
v 358.861908 -311.783600 791.125671
v 361.206482 -313.037598 791.125671
v 361.206482 -313.037598 787.125671
v 360.386505 -312.599121 787.125671
v 360.386505 -312.599121 791.125671
v 365.687805 -315.434296 791.125671
v 365.687805 -315.434296 787.125671
v 364.867798 -314.995819 787.125671
v 364.867798 -314.995819 791.125671
v 367.212494 -316.249695 791.125671
v 367.212494 -316.249695 787.125671
v 366.908295 -316.087006 787.125671
v 366.908295 -316.087006 791.125671
vt 12.173590 1.575420
vt 12.173590 0.000000
vt 12.311590 0.000000
vt 12.311590 1.575420
vt 10.167660 1.575420
vt 10.167660 0.000000
vt 10.512760 0.000000
vt 10.512760 1.575420
vt 8.161730 1.575420
vt 8.161730 0.000000
vt 8.506831 0.000000
vt 8.506831 1.575420
vt 6.709400 1.575420
vt 6.709400 0.000000
vt 7.054510 0.000000
vt 7.054510 1.575420
vt 5.257080 1.575420
vt 5.257080 0.000000
vt 5.602180 0.000000
vt 5.602180 1.575420
vt 3.804760 1.575420
vt 3.804760 0.000000
vt 4.149860 0.000000
vt 4.149860 1.575420
vt 1.798830 1.575420
vt 1.798830 0.000000
vt 2.143930 0.000000
vt 2.143930 1.575420
vt 0.000000 1.575420
vt 0.000000 0.000000
vt 0.138000 0.000000
vt 0.138000 1.575420
vt 0.000000 1.575420
vt 0.000000 0.000000
vt 0.138000 0.000000
vt 0.138000 1.575420
vt 0.691610 1.575420
vt 0.691610 0.000000
vt 1.061020 0.000000
vt 1.061020 1.575420
vt 2.721850 1.575420
vt 2.721850 0.000000
vt 3.091260 0.000000
vt 3.091260 1.575420
vt 3.644870 1.575420
vt 3.644870 0.000000
vt 3.782870 0.000000
vt 3.782870 1.575420
vt 0.000000 1.575420
vt 0.000000 0.000000
vt 0.138000 0.000000
vt 0.138000 1.575420
vt 1.798830 1.575420
vt 1.798830 0.000000
vt 2.143560 0.000000
vt 2.143560 1.575420
vt 3.804390 1.575420
vt 3.804390 0.000000
vt 4.149110 0.000000
vt 4.149110 1.575420
vt 5.256330 1.575420
vt 5.256330 0.000000
vt 5.601060 0.000000
vt 5.601060 1.575420
vt 6.708280 1.575420
vt 6.708280 0.000000
vt 7.053010 0.000000
vt 7.053010 1.575420
vt 8.160230 1.575420
vt 8.160230 0.000000
vt 8.504950 0.000000
vt 8.504950 1.575420
vt 10.165780 1.575420
vt 10.165780 0.000000
vt 10.510510 0.000000
vt 10.510510 1.575420
vt 12.171340 1.575420
vt 12.171340 0.000000
vt 12.309340 0.000000
vt 12.309340 1.575420
vt 3.649960 1.575420
vt 3.649960 0.000000
vt 3.787960 0.000000
vt 3.787960 1.575420
vt 2.724390 1.575420
vt 2.724390 0.000000
vt 3.096350 0.000000
vt 3.096350 1.575420
vt 0.691610 1.575420
vt 0.691610 0.000000
vt 1.063570 0.000000
vt 1.063570 1.575420
vt 0.000000 1.575420
vt 0.000000 0.000000
vt 0.138000 0.000000
vt 0.138000 1.575420
vn -0.8806 0.4739 0.0000
vn -0.8806 0.4738 0.0000
vn -0.4710 -0.8821 0.0000
vn -0.4713 -0.8820 -0.0000
vn -0.4711 -0.8821 0.0000
vn 0.8804 -0.4743 0.0000
vn 0.8804 -0.4742 0.0000
vn 0.8803 -0.4744 0.0000
vn 0.8805 -0.4741 0.0000
vn 0.4717 0.8818 0.0000
vn 0.4716 0.8818 0.0000
vn 0.4715 0.8818 0.0000
s off
f 1/1/1 2/2/1 3/3/1
f 1/1/2 3/3/2 4/4/2
f 5/5/1 6/6/1 7/7/1
f 5/5/1 7/7/1 8/8/1
f 9/9/1 10/10/1 11/11/1
f 9/9/1 11/11/1 12/12/1
f 13/13/1 14/14/1 15/15/1
f 13/13/1 15/15/1 16/16/1
f 17/17/1 18/18/1 19/19/1
f 17/17/1 19/19/1 20/20/1
f 21/21/1 22/22/1 23/23/1
f 21/21/1 23/23/1 24/24/1
f 25/25/1 26/26/1 27/27/1
f 25/25/1 27/27/1 28/28/1
f 29/29/1 30/30/1 31/31/1
f 29/29/1 31/31/1 32/32/1
f 33/33/3 34/34/3 35/35/3
f 33/33/4 35/35/4 36/36/4
f 37/37/5 38/38/5 39/39/5
f 37/37/5 39/39/5 40/40/5
f 41/41/5 42/42/5 43/43/5
f 41/41/5 43/43/5 44/44/5
f 45/45/3 46/46/3 47/47/3
f 45/45/4 47/47/4 48/48/4
f 49/49/6 50/50/6 51/51/6
f 49/49/6 51/51/6 52/52/6
f 53/53/7 54/54/7 55/55/7
f 53/53/7 55/55/7 56/56/7
f 57/57/8 58/58/8 59/59/8
f 57/57/8 59/59/8 60/60/8
f 61/61/8 62/62/8 63/63/8
f 61/61/6 63/63/6 64/64/6
f 65/65/7 66/66/7 67/67/7
f 65/65/7 67/67/7 68/68/7
f 69/69/7 70/70/7 71/71/7
f 69/69/7 71/71/7 72/72/7
f 73/73/8 74/74/8 75/75/8
f 73/73/8 75/75/8 76/76/8
f 77/77/9 78/78/9 79/79/9
f 77/77/7 79/79/7 80/80/7
f 81/81/10 82/82/10 83/83/10
f 81/81/10 83/83/10 84/84/10
f 85/85/11 86/86/11 87/87/11
f 85/85/12 87/87/12 88/88/12
f 89/89/12 90/90/12 91/91/12
f 89/89/12 91/91/12 92/92/12
f 93/93/11 94/94/11 95/95/11
f 93/93/11 95/95/11 96/96/11
