# Blender v3.0.1 OBJ File: 'rockerfeller_plaza.blend'
# www.blender.org
o geometryt000010000010000110010110000110000100110010010110st163
v 172.079193 -135.242294 20.820869
v 172.797897 -135.631607 40.733330
v 172.079193 -135.242294 40.733330
v 158.727295 -128.009796 20.820869
v 172.797897 -135.631607 20.333330
v 158.727295 -128.009796 40.733330
v 158.008606 -127.620499 40.733330
v 158.008606 -127.620499 20.333330
v 158.353699 -126.984001 20.820869
v 158.008606 -127.620499 40.733330
v 158.353699 -126.984001 40.733330
v 172.571304 -100.762100 20.333330
v 172.226196 -101.398598 20.820869
v 158.008606 -127.620499 20.333330
v 172.226196 -101.398598 40.733330
v 172.571304 -100.762100 40.733330
v 173.255493 -101.132698 20.820869
v 172.571304 -100.762100 40.733330
v 173.255493 -101.132698 40.733330
v 177.705994 -103.543701 20.820869
v 172.571304 -100.762100 20.333330
v 177.705994 -103.543701 40.733330
v 178.390198 -103.914398 40.733330
v 178.390198 -103.914398 20.333330
v 172.797897 -135.631607 20.333330
v 173.409500 -134.503204 40.733330
v 172.797897 -135.631607 40.733330
v 173.409500 -134.503204 20.333330
v 177.597198 -136.771301 20.820869
v 178.446793 -137.231506 40.733330
v 177.597198 -136.771301 40.733330
v 173.409500 -134.503204 20.333330
v 174.259094 -134.963394 20.820869
v 178.446793 -137.231506 20.333330
v 174.259094 -134.963394 40.733330
v 173.409500 -134.503204 40.733330
v 178.089600 -104.467400 20.820869
v 178.390198 -103.914398 40.733330
v 178.089600 -104.467400 40.733330
v 176.880707 -106.690804 20.820869
v 178.390198 -103.914398 20.333330
v 176.880707 -106.690804 40.733330
v 176.580093 -107.243797 40.733330
v 176.580093 -107.243797 20.333330
v 177.248505 -107.606201 20.820869
v 176.580093 -107.243797 40.733330
v 177.248505 -107.606201 40.733330
v 187.260605 -113.033798 20.820869
v 176.580093 -107.243797 20.333330
v 187.260605 -113.033798 40.733330
v 187.929001 -113.396202 40.733330
v 187.929001 -113.396202 20.333330
v 187.436996 -143.577393 20.820869
v 188.139496 -143.958298 40.733330
v 187.436996 -143.577393 40.733330
v 177.835403 -138.371002 20.333330
v 178.537903 -138.751999 20.820869
v 188.139496 -143.958298 20.333330
v 178.537903 -138.751999 40.733330
v 177.835403 -138.371002 40.733330
v 178.446793 -137.231506 20.333330
v 177.835403 -138.371002 20.333330
v 177.835403 -138.371002 40.733330
v 178.446793 -137.231506 40.733330
v 188.227600 -112.844498 20.820869
v 187.929001 -113.396202 40.733330
v 188.227600 -112.844498 40.733330
v 189.730698 -110.066902 20.333330
v 189.432098 -110.618698 20.820869
v 187.929001 -113.396202 20.333330
v 189.432098 -110.618698 40.733330
v 189.730698 -110.066902 40.733330
v 202.354797 -117.729500 20.820869
v 202.702103 -117.088699 40.733330
v 202.354797 -117.729500 40.733330
v 188.139496 -143.958298 20.333330
v 188.486801 -143.317398 20.820869
v 202.702103 -117.088699 20.333330
v 188.486801 -143.317398 40.733330
v 188.139496 -143.958298 40.733330
v 190.095901 -110.264603 20.820869
v 189.730698 -110.066902 40.733330
v 190.095901 -110.264603 40.733330
v 202.702103 -117.088699 20.333330
v 202.336899 -116.890999 20.820869
v 189.730698 -110.066902 20.333330
v 202.336899 -116.890999 40.733330
v 202.702103 -117.088699 40.733330
vt 6.400900 0.192020
vt 6.727850 8.034661
vt 6.400900 8.034661
vt 0.326960 0.192020
vt 6.727850 0.000000
vt 0.326960 8.034661
vt 0.000000 8.034661
vt 0.000000 0.000000
vt 11.931340 0.192020
vt 12.220950 8.034661
vt 11.931340 8.034661
vt 0.000000 0.000000
vt 0.289610 0.192020
vt 12.220950 0.000000
vt 0.289610 8.034661
vt 0.000000 8.034661
vt 2.335890 0.192020
vt 2.647140 8.034661
vt 2.335890 8.034661
vt 0.311240 0.192020
vt 2.647140 0.000000
vt 0.311240 8.034661
vt 0.000000 8.034661
vt 0.000000 0.000000
vt 0.000000 0.000000
vt 0.513400 8.034661
vt 0.000000 8.034661
vt 0.513400 0.000000
vt 1.905000 0.192020
vt 2.291510 8.034661
vt 1.905000 8.034661
vt 0.000000 0.000000
vt 0.386510 0.192020
vt 2.291510 0.000000
vt 0.386510 8.034661
vt 0.000000 8.034661
vt 1.264100 0.192020
vt 1.515870 8.034661
vt 1.264100 8.034661
vt 0.251770 0.192020
vt 1.515870 0.000000
vt 0.251770 8.034661
vt 0.000000 8.034661
vt 0.000000 0.000000
vt 4.859600 0.192020
vt 5.163740 8.034661
vt 4.859600 8.034661
vt 0.304140 0.192020
vt 5.163740 0.000000
vt 0.304140 8.034661
vt 0.000000 8.034661
vt 0.000000 0.000000
vt 4.368940 0.192020
vt 4.688580 8.034661
vt 4.368940 8.034661
vt 0.000000 0.000000
vt 0.319640 0.192020
vt 4.688580 0.000000
vt 0.319640 8.034661
vt 0.000000 8.034661
vt 0.000000 0.000000
vt 1.263270 0.192020
vt 0.250950 0.192020
vt 1.514220 0.000000
vt 1.514220 8.034661
vt 0.250950 8.034661
vt 0.000000 8.034661
vt 11.933280 0.192020
vt 12.224840 8.034661
vt 11.933280 8.034661
vt 0.000000 0.000000
vt 0.291560 0.192020
vt 12.224840 0.000000
vt 0.000000 8.034661
vt 5.733880 0.192020
vt 5.899990 8.034661
vt 5.733880 8.034661
vt 0.000000 0.000000
vt 5.899990 0.000000
vt 0.166100 8.034661
vt 0.000000 8.034661
vt 0.166100 0.192020
vt 0.000000 0.000000
vt 0.517280 0.000000
vt 0.517280 8.034661
vt 0.000000 8.034661
vt 1.263270 8.034661
vt 0.291560 8.034661
vn -0.4763 -0.8793 0.0000
vn -0.4763 -0.8793 0.0001
vn -0.8791 0.4766 0.0000
vn -0.8791 0.4767 0.0000
vn 0.4763 0.8793 0.0000
vn 0.4763 0.8793 -0.0001
vn 0.4764 0.8793 0.0000
vn 0.4764 0.8792 0.0000
vn 0.8792 -0.4765 0.0000
vn -0.4763 -0.8793 0.0002
vn -0.4762 -0.8793 -0.0004
vn 0.8786 -0.4776 0.0000
vn 0.8785 -0.4777 -0.0001
vn 0.8786 -0.4776 0.0001
vn 0.4766 0.8791 0.0000
vn 0.4766 0.8791 0.0001
vn 0.4767 0.8791 0.0000
vn 0.4766 0.8791 -0.0001
vn -0.4767 -0.8791 0.0000
vn -0.4767 -0.8791 0.0002
vn -0.4767 -0.8791 -0.0001
vn -0.4767 -0.8790 0.0000
vn -0.8795 0.4759 0.0000
vn -0.8795 0.4759 0.0001
vn -0.8794 0.4760 0.0000
vn 0.8792 -0.4765 0.0001
vn 0.8792 -0.4764 0.0000
vn 0.4761 0.8794 0.0000
vn 0.4760 0.8794 0.0000
vn -0.8812 0.4728 0.0000
vn -0.8795 0.4760 0.0000
s off
f 1/1/1 2/2/1 3/3/1
f 4/4/2 5/5/2 1/1/2
f 2/2/1 1/1/1 5/5/1
f 6/6/1 7/7/1 4/4/1
f 7/7/1 8/8/1 4/4/1
f 8/8/1 5/5/1 4/4/1
f 9/9/3 10/10/3 11/11/3
f 12/12/3 9/9/3 13/13/3
f 12/12/3 14/14/3 9/9/3
f 10/10/3 9/9/3 14/14/3
f 15/15/3 16/16/3 13/13/3
f 16/16/4 12/12/4 13/13/4
f 17/17/5 18/18/5 19/19/5
f 20/20/6 21/21/6 17/17/6
f 18/18/5 17/17/5 21/21/5
f 22/22/7 23/23/7 20/20/7
f 23/23/8 24/24/8 20/20/8
f 24/24/5 21/21/5 20/20/5
f 25/25/9 26/26/9 27/27/9
f 25/25/9 28/28/9 26/26/9
f 29/29/1 30/30/1 31/31/1
f 32/32/10 29/29/10 33/33/10
f 32/32/11 34/34/11 29/29/11
f 30/30/1 29/29/1 34/34/1
f 35/35/1 36/36/1 33/33/1
f 36/36/1 32/32/1 33/33/1
f 37/37/12 38/38/12 39/39/12
f 40/40/13 41/41/13 37/37/13
f 38/38/12 37/37/12 41/41/12
f 42/42/12 43/43/12 40/40/12
f 43/43/12 44/44/12 40/40/12
f 44/44/14 41/41/14 40/40/14
f 45/45/15 46/46/15 47/47/15
f 48/48/16 49/49/16 45/45/16
f 46/46/15 45/45/15 49/49/15
f 50/50/15 51/51/15 48/48/15
f 51/51/17 52/52/17 48/48/17
f 52/52/18 49/49/18 48/48/18
f 53/53/19 54/54/19 55/55/19
f 56/56/20 53/53/20 57/57/20
f 56/56/21 58/58/21 53/53/21
f 54/54/19 53/53/19 58/58/19
f 59/59/22 60/60/22 57/57/22
f 60/60/22 56/56/22 57/57/22
f 68/61/23 65/62/23 69/63/23
f 68/61/24 70/64/24 65/62/24
f 66/65/25 65/62/25 70/64/25
f 71/66/23 72/67/23 69/63/23
f 72/67/23 68/61/23 69/63/23
f 73/68/9 74/69/9 75/70/9
f 76/71/26 73/68/26 77/72/26
f 76/71/9 78/73/9 73/68/9
f 74/69/9 73/68/9 78/73/9
f 80/74/27 76/71/27 77/72/27
f 81/75/28 82/76/28 83/77/28
f 84/78/28 86/79/28 81/75/28
f 87/80/29 88/81/29 85/82/29
f 88/81/29 84/78/29 85/82/29
s 1
f 61/83/30 62/84/30 63/85/30
f 61/83/30 63/85/30 64/86/30
f 65/62/31 66/65/31 67/87/31
f 79/88/9 80/74/9 77/72/9
f 84/78/28 81/75/28 85/82/28
f 82/76/28 81/75/28 86/79/28
