# Blender v3.0.1 OBJ File: 'rockerfeller_plaza.blend'
# www.blender.org
o geometryt000010000010000110010110000110000110100100000010st149
v 528.849121 -120.372276 931.709473
v 528.685730 -120.676178 968.499023
v 528.849121 -120.372276 968.499023
v 529.642700 -118.896675 931.709473
v 528.685730 -120.676178 931.299011
v 529.642700 -118.896675 968.499023
v 530.087402 -118.069778 968.499023
v 530.087402 -118.069778 931.709473
v 531.674500 -115.118675 931.709473
v 531.674500 -115.118675 968.499023
v 532.119202 -114.291679 968.499023
v 532.119202 -114.291679 931.709473
v 532.912781 -112.816177 931.709473
v 532.912781 -112.816177 968.499023
v 533.357483 -111.989182 968.499023
v 533.357483 -111.989182 931.709473
v 536.346252 -106.431679 931.299011
v 534.944580 -109.038078 931.709473
v 534.944580 -109.038078 968.499023
v 535.389282 -108.211182 968.499023
v 535.389282 -108.211182 931.709473
v 536.182861 -106.735580 931.709473
v 536.182861 -106.735580 968.499023
v 536.346252 -106.431679 968.499023
v 555.209229 -134.889481 931.709473
v 555.513306 -135.052475 968.499023
v 555.209229 -134.889481 968.499023
v 553.732483 -134.098175 931.709473
v 555.513306 -135.052475 931.299011
v 553.732483 -134.098175 968.499023
v 552.854797 -133.627777 968.499023
v 552.854797 -133.627777 931.709473
v 552.812866 -133.605377 931.299011
v 549.901306 -132.045074 931.709473
v 549.901306 -132.045074 968.499023
v 549.359436 -131.754776 968.499023
v 549.023560 -131.574783 931.709473
v 549.359436 -131.754776 931.299011
v 549.023560 -131.574783 968.499023
v 547.546814 -130.783371 931.709473
v 547.546814 -130.783371 968.499023
v 546.669128 -130.313080 968.499023
v 546.669128 -130.313080 931.709473
v 543.715637 -128.730377 931.709473
v 543.715637 -128.730377 968.499023
v 542.837891 -128.259979 968.499023
v 542.837891 -128.259979 931.709473
v 541.361145 -127.468575 931.709473
v 541.361145 -127.468575 968.499023
v 540.483459 -126.998276 968.499023
v 540.483459 -126.998276 931.709473
v 537.529968 -125.415581 931.709473
v 528.685730 -120.676178 931.299011
v 537.529968 -125.415581 968.499023
v 536.652222 -124.945175 968.499023
v 536.652222 -124.945175 931.709473
v 535.175476 -124.153877 931.709473
v 535.175476 -124.153877 968.499023
v 534.297729 -123.683479 968.499023
v 534.297729 -123.683479 931.709473
v 531.344299 -122.100777 931.709473
v 531.344299 -122.100777 968.499023
v 530.466553 -121.630478 968.499023
v 530.466553 -121.630478 931.709473
v 528.989807 -120.839081 931.709473
v 528.989807 -120.839081 968.499023
v 528.685730 -120.676178 968.499023
v 536.650085 -106.595177 931.709473
v 536.346252 -106.431679 968.499023
v 536.650085 -106.595177 968.499023
v 538.125610 -107.388779 931.709473
v 536.346252 -106.431679 931.299011
v 538.125610 -107.388779 968.499023
v 539.003418 -107.860878 968.499023
v 539.003418 -107.860878 931.709473
v 541.954529 -109.448074 931.709473
v 541.954529 -109.448074 968.499023
v 542.832336 -109.920280 968.499023
v 542.832336 -109.920280 931.709473
v 544.307861 -110.713875 931.709473
v 544.307861 -110.713875 968.499023
v 545.185669 -111.185974 968.499023
v 545.185669 -111.185974 931.709473
v 548.136719 -112.773277 931.709473
v 548.136719 -112.773277 968.499023
v 549.014526 -113.245377 968.499023
v 549.014526 -113.245377 931.709473
v 550.490051 -114.038979 931.709473
v 563.158325 -120.852577 931.299011
v 550.490051 -114.038979 968.499023
v 551.367859 -114.511078 968.499023
v 551.367859 -114.511078 931.709473
v 554.318970 -116.098381 931.709473
v 554.318970 -116.098381 968.499023
v 555.196777 -116.570480 968.499023
v 555.196777 -116.570480 931.709473
v 556.672302 -117.364075 931.709473
v 556.672302 -117.364075 968.499023
v 557.550110 -117.836182 968.499023
v 557.550110 -117.836182 931.709473
v 560.501160 -119.423477 931.709473
v 560.501160 -119.423477 968.499023
v 561.378967 -119.895576 968.499023
v 561.378967 -119.895576 931.709473
v 562.854492 -120.689178 931.709473
v 562.854492 -120.689178 968.499023
v 563.158325 -120.852577 968.499023
v 562.994812 -121.156380 931.709473
v 563.158325 -120.852577 968.499023
v 562.994812 -121.156380 968.499023
v 562.200562 -122.631577 931.709473
v 563.158325 -120.852577 931.299011
v 562.200562 -122.631577 968.499023
v 561.755005 -123.459274 968.499023
v 561.755005 -123.459274 931.709473
v 560.166565 -126.409676 931.709473
v 560.166565 -126.409676 968.499023
v 559.720947 -127.237274 968.499023
v 559.720947 -127.237274 931.709473
v 558.926758 -128.712479 931.709473
v 558.926758 -128.712479 968.499023
v 558.481201 -129.540176 968.499023
v 558.481201 -129.540176 931.709473
v 555.489380 -135.097183 931.299011
v 556.892700 -132.490585 931.709473
v 556.892700 -132.490585 968.499023
v 556.447144 -133.318176 968.499023
v 556.447144 -133.318176 931.709473
v 555.652954 -134.793381 931.709473
v 555.652954 -134.793381 968.499023
v 555.489380 -135.097183 968.499023
vt 20.293159 0.526270
vt 20.735470 47.692310
vt 20.293159 47.692310
vt 18.145189 0.526270
vt 20.735470 0.000000
vt 18.145189 47.692310
vt 16.941420 47.692310
vt 16.941420 0.526270
vt 12.645490 0.526270
vt 12.645490 47.692310
vt 11.441720 47.692310
vt 11.441720 0.526270
vt 9.293750 0.526270
vt 9.293750 47.692310
vt 8.089981 47.692310
vt 8.089981 0.526270
vt 0.000000 0.000000
vt 3.794040 0.526270
vt 3.794040 47.692310
vt 2.590280 47.692310
vt 2.590280 0.526270
vt 0.442310 0.526270
vt 0.442310 47.692310
vt 0.000000 47.692310
vt 36.431278 0.526270
vt 39.021561 0.000000
vt 38.579250 0.526270
vt 39.021561 47.692310
vt 35.154610 0.526270
vt 35.093639 0.000000
vt 30.070539 47.692310
vt 29.582001 0.526270
vt 30.858669 0.526270
vt 30.070539 0.000000
vt 29.582001 47.692310
vt 27.434040 0.526270
vt 27.434040 47.692310
vt 26.157370 47.692310
vt 26.157370 0.526270
vt 18.436790 47.692310
vt 17.160120 47.692310
vt 18.436790 0.526270
vt 17.160120 0.526270
vt 12.864190 0.526270
vt 0.000000 0.000000
vt 12.864190 47.692310
vt 11.587520 47.692310
vt 11.587520 0.526270
vt 9.439551 47.692310
vt 8.162880 47.692310
vt 9.439551 0.526270
vt 8.162880 0.526270
vt 3.866940 0.526270
vt 3.866940 47.692310
vt 2.590280 47.692310
vt 2.590280 0.526270
vt 0.442310 0.526270
vt 0.442310 47.692310
vt 0.000000 47.692310
vt 36.440750 0.526270
vt 39.031021 0.000000
vt 38.588711 0.526270
vt 39.031021 47.692310
vt 36.440750 47.692310
vt 35.162899 47.692310
vt 35.162899 0.526270
vt 30.866961 0.526270
vt 30.866961 47.692310
vt 29.589109 47.692310
vt 29.589109 0.526270
vt 27.441139 0.526270
vt 27.441139 47.692310
vt 26.163290 47.692310
vt 26.163290 0.526270
vt 21.867350 47.692310
vt 20.589500 47.692310
vt 21.867350 0.526270
vt 20.589500 0.526270
vt 18.441530 0.526270
vt 0.000000 0.000000
vt 18.441530 47.692310
vt 17.163679 47.692310
vt 17.163679 0.526270
vt 12.867740 47.692310
vt 11.589890 47.692310
vt 12.867740 0.526270
vt 11.589890 0.526270
vt 9.441921 0.526270
vt 9.441921 47.692310
vt 8.164071 47.692310
vt 8.164071 0.526270
vt 3.868130 0.526270
vt 3.868130 47.692310
vt 2.590280 47.692310
vt 2.590280 0.526270
vt 0.442310 0.526270
vt 0.442310 47.692310
vt 0.000000 47.692310
vt 20.298410 0.526270
vt 20.740721 47.692310
vt 20.298410 47.692310
vt 18.150440 0.526270
vt 20.740721 0.000000
vt 18.150440 47.692310
vt 16.945360 47.692310
vt 16.945360 0.526270
vt 12.649420 0.526270
vt 12.649420 47.692310
vt 11.444340 47.692310
vt 11.444340 0.526270
vt 9.296370 0.526270
vt 9.296370 47.692310
vt 8.091291 47.692310
vt 8.091291 0.526270
vt 0.000000 0.000000
vt 3.795360 0.526270
vt 2.590280 0.526270
vt 0.442310 0.526270
vt 0.442310 47.692310
vt 0.000000 47.692310
vt 38.579250 47.692310
vt 36.431278 47.692310
vt 35.154610 47.692310
vt 30.858669 47.692310
vt 21.861429 0.526270
vt 21.861429 47.692310
vt 20.584761 47.692310
vt 20.584761 0.526270
vt 38.588711 47.692310
vt 3.795360 47.692310
vt 2.590280 47.692310
vn -0.8809 0.4733 0.0000
vn -0.8808 0.4736 -0.0001
vn -0.8807 0.4737 0.0000
vn -0.8807 0.4736 0.0000
vn -0.8807 0.4738 -0.0001
vn -0.8808 0.4735 -0.0001
vn -0.8808 0.4736 0.0000
vn -0.8810 0.4732 0.0005
vn -0.8806 0.4738 -0.0008
vn -0.8807 0.4736 0.0001
vn -0.8808 0.4735 0.0000
vn -0.8806 0.4738 0.0001
vn -0.8808 0.4736 0.0001
vn -0.4723 -0.8815 0.0001
vn -0.4722 -0.8815 0.0000
vn -0.4722 -0.8815 -0.0003
vn -0.4723 -0.8814 -0.0000
vn -0.4723 -0.8814 0.0001
vn -0.4723 -0.8815 0.0000
vn -0.4724 -0.8814 0.0000
vn -0.4722 -0.8815 -0.0002
vn -0.4721 -0.8816 -0.0001
vn -0.4723 -0.8814 -0.0002
vn -0.4727 -0.8812 0.0000
vn 0.4736 0.8807 -0.0002
vn 0.4736 0.8808 0.0000
vn 0.4737 0.8807 0.0000
vn 0.4736 0.8807 0.0002
vn 0.4738 0.8807 0.0000
vn 0.4737 0.8807 -0.0005
vn 0.4736 0.8807 0.0000
vn 0.4742 0.8804 0.0000
vn 0.4738 0.8806 0.0002
vn 0.4736 0.8807 -0.0004
vn 0.8807 -0.4737 0.0000
vn 0.8804 -0.4742 -0.0001
vn 0.8805 -0.4740 0.0000
vn 0.8806 -0.4739 0.0003
vn 0.8805 -0.4740 -0.0002
vn 0.8805 -0.4741 0.0000
vn 0.8805 -0.4740 -0.0006
vn 0.8805 -0.4741 0.0004
vn 0.8806 -0.4738 0.0002
vn 0.8806 -0.4738 -0.0003
vn 0.8805 -0.4741 -0.0001
vn 0.8804 -0.4742 0.0000
vn -0.8810 0.4732 -0.0002
vn -0.4725 -0.8814 -0.0001
vn -0.4725 -0.8813 -0.0001
vn -0.4721 -0.8816 -0.0000
vn -0.4722 -0.8815 0.0001
vn -0.4722 -0.8815 0.0002
vn -0.4720 -0.8816 0.0004
vn -0.4722 -0.8815 -0.0001
vn -0.4730 -0.8811 -0.0001
vn -0.4725 -0.8814 -0.0004
vn -0.4725 -0.8814 0.0001
vn -0.4728 -0.8812 -0.0001
vn -0.4722 -0.8815 0.0003
vn -0.4728 -0.8811 -0.0001
vn -0.4723 -0.8815 0.0003
vn -0.4719 -0.8816 0.0000
vn 0.4736 0.8807 0.0004
vn 0.4738 0.8807 0.0003
vn 0.4747 0.8802 0.0001
vn 0.4738 0.8806 -0.0000
vn 0.4728 0.8811 -0.0005
vn 0.4748 0.8801 -0.0004
vn 0.4736 0.8808 -0.0002
vn 0.4748 0.8801 -0.0003
vn 0.4736 0.8808 -0.0001
vn 0.4729 0.8811 0.0003
vn 0.8806 -0.4739 -0.0003
s off
f 1/1/1 2/2/1 3/3/1
f 4/4/2 5/5/2 1/1/2
f 2/2/3 1/1/3 5/5/3
f 6/6/3 7/7/3 4/4/3
f 7/7/4 8/8/4 4/4/4
f 8/8/5 5/5/5 4/4/5
f 8/8/6 9/9/6 5/5/6
f 10/10/7 11/11/7 9/9/7
f 11/11/7 12/12/7 9/9/7
f 9/9/8 12/12/8 5/5/8
f 12/12/9 13/13/9 5/5/9
f 14/14/3 15/15/3 13/13/3
f 15/15/7 16/16/7 13/13/7
f 13/13/10 17/17/10 5/5/10
f 18/18/11 17/17/11 16/16/11
f 19/19/4 20/20/4 18/18/4
f 20/20/4 21/21/4 18/18/4
f 21/21/12 17/17/12 18/18/12
f 22/22/13 17/17/13 21/21/13
f 23/23/4 24/24/4 22/22/4
f 24/24/3 17/17/3 22/22/3
f 28/25/14 29/26/14 25/27/14
f 26/28/15 25/27/15 29/26/15
f 28/25/16 32/29/16 33/30/16
f 36/31/17 37/32/17 34/33/17
f 34/33/18 37/32/18 38/34/18
f 36/31/19 39/35/19 37/32/19
f 37/32/17 40/36/17 38/34/17
f 41/37/17 42/38/17 40/36/17
f 42/38/19 43/39/19 40/36/19
f 49/40/17 50/41/17 48/42/17
f 50/41/17 51/43/17 48/42/17
f 52/44/15 53/45/15 51/43/15
f 54/46/20 55/47/20 52/44/20
f 55/47/20 56/48/20 52/44/20
f 58/49/17 59/50/17 57/51/17
f 59/50/20 60/52/20 57/51/20
f 61/53/21 53/45/21 60/52/21
f 62/54/19 63/55/19 61/53/19
f 63/55/17 64/56/17 61/53/17
f 64/56/22 53/45/22 61/53/22
f 65/57/23 53/45/23 64/56/23
f 66/58/15 67/59/15 65/57/15
f 67/59/24 53/45/24 65/57/24
f 71/60/25 72/61/25 68/62/25
f 69/63/26 68/62/26 72/61/26
f 73/64/27 74/65/27 71/60/27
f 74/65/27 75/66/27 71/60/27
f 75/66/28 76/67/28 72/61/28
f 77/68/29 78/69/29 76/67/29
f 78/69/27 79/70/27 76/67/27
f 79/70/30 80/71/30 72/61/30
f 81/72/27 82/73/27 80/71/27
f 82/73/31 83/74/31 80/71/31
f 85/75/31 86/76/31 84/77/31
f 86/76/27 87/78/27 84/77/27
f 88/79/32 89/80/32 87/78/32
f 87/78/33 89/80/33 72/61/33
f 90/81/31 91/82/31 88/79/31
f 91/82/27 92/83/27 88/79/27
f 94/84/27 95/85/27 93/86/27
f 95/85/27 96/87/27 93/86/27
f 97/88/34 89/80/34 96/87/34
f 98/89/27 99/90/27 97/88/27
f 99/90/27 100/91/27 97/88/27
f 100/91/29 89/80/29 97/88/29
f 101/92/31 89/80/31 100/91/31
f 102/93/27 103/94/27 101/92/27
f 103/94/31 104/95/31 101/92/31
f 105/96/29 89/80/29 104/95/29
f 106/97/27 107/98/27 105/96/27
f 107/98/31 89/80/31 105/96/31
f 108/99/35 109/100/35 110/101/35
f 111/102/36 112/103/36 108/99/36
f 113/104/37 114/105/37 111/102/37
f 114/105/37 115/106/37 111/102/37
f 115/106/38 112/103/38 111/102/38
f 115/106/39 116/107/39 112/103/39
f 117/108/40 118/109/40 116/107/40
f 118/109/37 119/110/37 116/107/37
f 116/107/41 119/110/41 112/103/41
f 119/110/42 120/111/42 112/103/42
f 121/112/37 122/113/37 120/111/37
f 122/113/37 123/114/37 120/111/37
f 120/111/37 124/115/37 112/103/37
f 125/116/43 124/115/43 123/114/43
f 128/117/44 124/115/44 125/116/44
f 129/118/45 124/115/45 128/117/45
f 130/119/46 131/120/46 129/118/46
s 1
f 16/16/47 17/17/47 13/13/47
f 25/27/20 26/28/20 27/121/20
f 30/122/20 31/123/20 28/25/20
f 31/123/20 32/29/20 28/25/20
f 28/25/17 33/30/17 29/26/17
f 32/29/16 34/33/48 33/30/21
f 35/124/19 36/31/19 34/33/19
f 33/30/21 34/33/48 38/34/49
f 40/36/50 43/39/51 38/34/52
f 43/39/51 44/125/53 38/34/52
f 45/126/17 46/127/17 44/125/53
f 46/127/17 47/128/54 44/125/53
f 44/125/53 47/128/54 38/34/52
f 47/128/54 48/42/55 38/34/52
f 48/42/55 51/43/56 38/34/52
f 51/43/56 53/45/57 38/34/52
f 56/48/58 53/45/59 52/44/60
f 57/51/61 53/45/59 56/48/58
f 60/52/62 53/45/59 57/51/61
f 68/62/31 69/63/31 70/129/31
f 75/66/63 72/61/63 71/60/63
f 76/67/64 79/70/64 72/61/64
f 80/71/65 83/74/31 72/61/66
f 83/74/31 84/77/67 72/61/66
f 84/77/67 87/78/67 72/61/66
f 92/83/68 89/80/69 88/79/70
f 93/86/71 89/80/69 92/83/68
f 96/87/72 89/80/69 93/86/71
f 104/95/27 89/80/27 101/92/27
f 109/100/40 108/99/40 112/103/40
f 123/114/73 124/115/73 120/111/73
f 126/130/37 127/131/37 125/116/37
f 127/131/37 128/117/37 125/116/37
f 131/120/40 124/115/40 129/118/40
