# Blender v3.0.1 OBJ File: 'rockerfeller_plaza.blend'
# www.blender.org
o geometryt000010000010000110010110000110000110100000100110st150
v 548.102539 -173.060104 656.352356
v 535.129333 -197.236206 656.352356
v 531.843384 -190.535416 656.352356
v 541.973999 -171.654816 656.352356
v 542.759033 -170.191315 656.352356
v 529.297607 -197.392914 656.352356
v 533.757690 -199.794601 656.352356
v 528.414185 -196.925705 656.352356
v 541.973999 -171.654816 674.452332
v 548.102539 -173.060104 674.452332
v 542.759033 -170.191315 674.452332
v 531.843384 -190.535416 674.452332
v 528.414185 -196.925705 674.452332
v 529.297607 -197.392914 674.452332
v 535.129333 -197.236206 674.452332
v 533.757690 -199.794601 674.452332
vt 0.300720 0.085860
vt 0.348840 0.059140
vt 0.337690 0.052670
vt 0.300110 0.073540
vt 0.297200 0.075150
vt 0.350980 0.047380
vt 0.353930 0.056320
vt 0.350410 0.045610
vt 0.300110 0.073540
vt 0.300720 0.085860
vt 0.297200 0.075150
vt 0.337690 0.052670
vt 0.350410 0.045610
vt 0.350980 0.047380
vt 0.348840 0.059140
vt 0.353930 0.056320
vn -0.0000 0.0000 -1.0000
vn -0.0000 0.0000 1.0000
s off
f 1/1/1 2/2/1 3/3/1
f 1/1/1 3/3/1 4/4/1
f 1/1/1 4/4/1 5/5/1
f 6/6/1 2/2/1 7/7/1
f 3/3/1 2/2/1 6/6/1
f 8/8/1 3/3/1 6/6/1
f 9/9/2 10/10/2 11/11/2
f 9/9/2 12/12/2 10/10/2
f 13/13/2 14/14/2 12/12/2
f 14/14/2 15/15/2 12/12/2
f 10/10/2 12/12/2 15/15/2
f 14/14/2 16/16/2 15/15/2
