# Blender v3.0.1 OBJ File: 'rockerfeller_plaza.blend'
# www.blender.org
o geometryt000010000010000110010110000110000110100000010100st172
v 793.265869 -123.062584 147.195877
v 806.461060 -98.539177 147.195877
v 813.605225 -102.385986 147.195877
v 800.079773 -127.534988 147.195877
v 794.273621 -125.504387 147.195877
v 792.481140 -124.537186 147.195877
v 799.625366 -128.384079 147.195877
v 799.481018 -128.308090 147.195877
v 793.265869 -123.062584 165.795868
v 792.481140 -124.537186 165.795868
v 794.273621 -125.504387 165.795868
v 799.481018 -128.308090 165.795868
v 800.079773 -127.534988 165.795868
v 799.625366 -128.384079 165.795868
v 813.605225 -102.385986 165.795868
v 806.461060 -98.539177 165.795868
vt 0.208810 0.093080
vt 0.159980 0.120260
vt 0.164710 0.134570
vt 0.214780 0.106710
vt 0.212930 0.095060
vt 0.211740 0.091470
vt 0.216470 0.105780
vt 0.216380 0.105490
vt 0.208810 0.093080
vt 0.211740 0.091470
vt 0.212930 0.095060
vt 0.216380 0.105490
vt 0.214780 0.106710
vt 0.216470 0.105780
vt 0.164710 0.134570
vt 0.159980 0.120260
vn 0.0000 0.0000 -1.0000
vn 0.0000 0.0000 1.0000
vn -0.0002 0.0000 1.0000
s off
f 1/1/1 2/2/1 3/3/1
f 4/4/1 1/1/1 3/3/1
f 5/5/1 1/1/1 4/4/1
f 6/6/1 1/1/1 5/5/1
f 7/7/1 8/8/1 4/4/1
f 8/8/1 5/5/1 4/4/1
f 9/9/2 10/10/2 11/11/2
f 12/12/2 13/13/2 11/11/2
f 13/13/2 9/9/2 11/11/2
f 14/14/3 13/13/3 12/12/3
f 13/13/2 15/15/2 9/9/2
f 9/9/2 15/15/2 16/16/2
