# Blender v3.0.1 OBJ File: 'rockerfeller_plaza.blend'
# www.blender.org
o geometryt000010000010000110010110000110000110100000000110st105
v 748.040771 -219.454285 106.512619
v 744.050598 -226.853485 106.512619
v 744.050598 -226.853485 127.131302
v 748.040771 -219.454285 127.131302
v 744.438232 -227.903488 106.512619
v 746.553101 -229.041992 106.512619
v 746.553101 -229.041992 127.131302
v 744.438232 -227.903488 127.131302
v 747.023621 -218.059280 127.131302
v 747.023621 -218.059280 106.512619
v 748.079102 -218.632187 106.512619
v 748.079102 -218.632187 127.131302
v 754.043945 -204.289978 127.131302
v 754.404541 -203.621185 106.512619
v 746.994324 -217.362686 106.512619
v 754.404541 -203.621185 127.131302
v 746.994324 -217.362686 127.131302
v 747.643616 -228.784683 127.131302
v 747.643616 -228.784683 106.512619
v 759.559021 -206.557388 106.512619
v 759.559021 -206.557388 127.131302
v 759.445618 -205.652191 127.131302
v 759.445618 -205.652191 106.512619
v 755.214600 -203.377487 106.512619
v 755.214600 -203.377487 127.131302
vt 0.000000 0.000000
vt 2.333330 0.000000
vt 2.333330 6.000000
vt 0.000000 6.000000
vt 0.000000 0.000000
vt 0.666670 0.000000
vt 0.666670 6.000000
vt 0.000000 6.000000
vt 0.000000 6.000000
vt 0.000000 0.000000
vt 0.333330 0.000000
vt 0.333330 6.000000
vt 0.210910 6.000000
vt 0.000000 0.000000
vt 4.333330 0.000000
vt 0.000000 6.000000
vt 4.333330 6.000000
vt 0.000000 6.000000
vt 0.000000 0.000000
vt 1.333330 0.000000
vt 1.333330 6.000000
vt 0.000000 6.000000
vt 0.000000 0.000000
vt 7.000000 0.000000
vt 7.000000 6.000000
vn -0.8802 0.4746 0.0000
vn -0.8802 0.4747 0.0000
vn -0.4740 -0.8805 0.0000
vn -0.4770 -0.8789 0.0000
vn -0.4771 -0.8789 0.0000
vn 0.4735 0.8808 0.0000
vn 0.8813 -0.4725 0.0000
s off
f 1/1/1 2/2/1 3/3/1
f 4/4/2 1/1/2 3/3/2
f 5/5/3 6/6/3 7/7/3
f 8/8/3 5/5/3 7/7/3
f 9/9/4 10/10/4 11/11/4
f 9/9/5 11/11/5 12/12/5
f 13/13/1 14/14/1 15/15/1
f 16/16/1 14/14/1 13/13/1
f 13/13/2 15/15/2 17/17/2
f 22/18/6 23/19/6 24/20/6
f 22/18/6 24/20/6 25/21/6
s 1
f 18/22/7 19/23/7 20/24/7
f 18/22/7 20/24/7 21/25/7
