# Blender v3.0.1 OBJ File: 'rockerfeller_plaza.blend'
# www.blender.org
o geometryt000010000010000110010110000110000110100000010110st130_
v 1157.466064 -279.027466 188.994507
v 1157.301758 -279.330872 341.614624
v 1157.466064 -279.027466 341.614624
v 1159.040771 -276.119659 188.994507
v 1157.301758 -279.330872 188.614578
v 1159.040771 -276.119659 341.614624
v 1159.737061 -274.833862 341.614624
v 1159.737061 -274.833862 188.994507
v 1161.311890 -271.926056 188.994507
v 1161.311890 -271.926056 341.614624
v 1162.008179 -270.640259 341.614624
v 1162.008179 -270.640259 188.994507
v 1164.370239 -266.278473 188.994507
v 1169.076660 -257.587860 188.614578
v 1164.370239 -266.278473 341.614624
v 1165.066528 -264.992767 341.614624
v 1165.066528 -264.992767 188.994507
v 1166.641357 -262.084869 188.994507
v 1166.641357 -262.084869 341.614624
v 1167.337646 -260.799164 341.614624
v 1167.337646 -260.799164 188.994507
v 1168.912354 -257.891266 188.994507
v 1168.912354 -257.891266 341.614624
v 1169.076660 -257.587860 341.614624
v 1157.999512 -282.642761 188.994507
v 1158.356567 -284.336761 341.614624
v 1157.999512 -282.642761 341.614624
v 1157.658691 -281.024872 188.994507
v 1158.356567 -284.336761 188.614578
v 1157.658691 -281.024872 341.614624
v 1157.301758 -279.330872 341.614624
v 1157.301758 -279.330872 188.614578
v 1179.479492 -295.778656 188.994507
v 1179.782715 -295.942963 341.614624
v 1179.479492 -295.778656 341.614624
v 1176.571777 -294.203583 188.994507
v 1179.782715 -295.942963 188.614578
v 1176.571777 -294.203583 341.614624
v 1175.364990 -293.549866 341.614624
v 1175.364990 -293.549866 188.994507
v 1172.457275 -291.974884 188.994507
v 1172.457275 -291.974884 341.614624
v 1171.250488 -291.321167 341.614624
v 1171.250488 -291.321167 188.994507
v 1166.888916 -288.958557 188.994507
v 1166.888916 -288.958557 341.614624
v 1165.682007 -288.304871 341.614624
v 1165.682007 -288.304871 188.994507
v 1158.356567 -284.336761 188.614578
v 1162.774414 -286.729767 188.994507
v 1162.774414 -286.729767 341.614624
v 1161.567505 -286.076080 341.614624
v 1161.567505 -286.076080 188.994507
v 1158.659912 -284.501068 188.994507
v 1158.659912 -284.501068 341.614624
v 1158.356567 -284.336761 341.614624
v 1162.096436 -280.029663 341.614624
v 1162.368408 -281.333160 341.614624
v 1162.096436 -280.029663 344.614624
v 1162.373779 -281.358673 344.614624
v 1162.373779 -281.358673 341.614624
v 1162.260620 -279.726257 344.614624
v 1162.260620 -279.726257 341.614624
v 1162.096436 -280.029663 341.614624
v 1162.096436 -280.029663 344.614624
v 1165.092285 -274.494476 344.614624
v 1165.092285 -274.494476 341.614624
v 1164.621704 -275.363861 341.614624
v 1164.621704 -275.363861 344.614624
v 1166.349854 -272.170959 344.614624
v 1166.349854 -272.170959 341.614624
v 1165.879272 -273.040375 341.614624
v 1165.879272 -273.040375 344.614624
v 1168.394409 -268.393372 344.614624
v 1168.394409 -268.393372 341.614624
v 1167.923828 -269.262756 341.614624
v 1167.923828 -269.262756 344.614624
v 1169.652100 -266.069855 344.614624
v 1169.652100 -266.069855 341.614624
v 1169.181396 -266.939270 341.614624
v 1169.181396 -266.939270 344.614624
v 1172.177246 -261.404083 344.614624
v 1172.177246 -261.404083 341.614624
v 1172.013062 -261.707458 341.614624
v 1172.013062 -261.707458 344.614624
v 1162.373779 -281.358673 344.614624
v 1162.373779 -281.358673 341.614624
v 1162.677002 -281.523071 341.614624
v 1162.677002 -281.523071 344.614624
v 1167.038208 -283.886169 344.614624
v 1167.038208 -283.886169 341.614624
v 1167.769897 -284.282562 341.614624
v 1167.769897 -284.282562 344.614624
v 1169.223633 -285.070282 344.614624
v 1169.223633 -285.070282 341.614624
v 1169.955200 -285.466675 341.614624
v 1169.955200 -285.466675 344.614624
v 1172.862671 -287.042175 344.614624
v 1172.862671 -287.042175 341.614624
v 1173.594238 -287.438568 341.614624
v 1173.594238 -287.438568 344.614624
v 1175.048096 -288.226257 344.614624
v 1175.048096 -288.226257 341.614624
v 1175.779663 -288.622681 341.614624
v 1175.779663 -288.622681 344.614624
v 1180.140869 -290.985779 344.614624
v 1180.140869 -290.985779 341.614624
v 1180.444092 -291.150177 341.614624
v 1180.444092 -291.150177 344.614624
v 1170.293579 -257.234375 188.994507
v 1169.076660 -257.587860 341.614624
v 1170.293579 -257.234375 341.614624
v 1173.098145 -256.419464 188.614578
v 1171.881226 -256.773071 188.994507
v 1169.076660 -257.587860 188.614578
v 1171.881226 -256.773071 341.614624
v 1173.098145 -256.419464 341.614624
v 1172.185303 -261.401672 341.614624
v 1172.177246 -261.404083 341.614624
v 1172.177246 -261.404083 344.614624
v 1172.589478 -261.277161 344.614624
v 1172.589478 -261.277161 341.614624
v 1172.893555 -261.440155 344.614624
v 1172.893555 -261.440155 341.614624
v 1172.589478 -261.277161 341.614624
v 1172.589478 -261.277161 344.614624
v 1178.227295 -264.299774 344.614624
v 1178.227295 -264.299774 341.614624
v 1177.265137 -263.783875 341.614624
v 1177.265137 -263.783875 344.614624
v 1180.646851 -265.596863 344.614624
v 1180.646851 -265.596863 341.614624
v 1179.684692 -265.081055 341.614624
v 1179.684692 -265.081055 344.614624
v 1184.523438 -267.675262 344.614624
v 1184.523438 -267.675262 341.614624
v 1183.561279 -267.159454 341.614624
v 1183.561279 -267.159454 344.614624
v 1186.942993 -268.972473 344.614624
v 1186.942993 -268.972473 341.614624
v 1185.980713 -268.456573 341.614624
v 1185.980713 -268.456573 344.614624
v 1191.618652 -271.479279 344.614624
v 1191.618652 -271.479279 341.614624
v 1191.314575 -271.316162 341.614624
v 1191.314575 -271.316162 344.614624
v 1173.402222 -256.582367 188.994507
v 1173.098145 -256.419464 341.614624
v 1173.402222 -256.582367 341.614624
v 1176.317017 -258.144257 188.994507
v 1173.098145 -256.419464 188.614578
v 1176.317017 -258.144257 341.614624
v 1177.778809 -258.927460 341.614624
v 1177.778809 -258.927460 188.994507
v 1180.693604 -260.489380 188.994507
v 1180.693604 -260.489380 341.614624
v 1182.155396 -261.272583 341.614624
v 1182.155396 -261.272583 188.994507
v 1186.527588 -263.615356 188.994507
v 1195.584717 -268.468475 188.614578
v 1186.527588 -263.615356 341.614624
v 1187.989380 -264.398560 341.614624
v 1187.989380 -264.398560 188.994507
v 1190.904175 -265.960358 188.994507
v 1190.904175 -265.960358 341.614624
v 1192.365845 -266.743683 341.614624
v 1192.365845 -266.743683 188.994507
v 1195.280640 -268.305481 188.994507
v 1195.280640 -268.305481 341.614624
v 1195.584717 -268.468475 341.614624
v 1182.761841 -295.276276 188.994507
v 1184.127319 -294.970581 341.614624
v 1182.761841 -295.276276 341.614624
v 1181.148315 -295.637360 188.994507
v 1184.127319 -294.970581 188.614578
v 1181.148315 -295.637360 341.614624
v 1179.782715 -295.942963 341.614624
v 1179.782715 -295.942963 188.614578
v 1180.444092 -291.150177 341.614624
v 1181.112915 -290.989868 341.614624
v 1180.444092 -291.150177 344.614624
v 1181.126099 -290.986755 344.614624
v 1181.126099 -290.986755 341.614624
v 1181.126099 -290.986755 344.614624
v 1181.126099 -290.986755 341.614624
v 1181.292358 -290.684479 341.614624
v 1181.292358 -290.684479 344.614624
v 1183.683716 -286.338684 344.614624
v 1183.683716 -286.338684 341.614624
v 1184.248779 -285.311981 341.614624
v 1184.248779 -285.311981 344.614624
v 1185.045898 -283.863373 344.614624
v 1185.045898 -283.863373 341.614624
v 1185.610840 -282.836578 341.614624
v 1185.610840 -282.836578 344.614624
v 1187.205078 -279.939362 344.614624
v 1187.205078 -279.939362 341.614624
v 1187.770020 -278.912659 341.614624
v 1187.770020 -278.912659 344.614624
v 1188.567139 -277.464081 344.614624
v 1188.567139 -277.464081 341.614624
v 1189.132202 -276.437378 341.614624
v 1189.132202 -276.437378 344.614624
v 1191.523438 -272.091461 344.614624
v 1191.523438 -272.091461 341.614624
v 1191.689697 -271.789276 341.614624
v 1191.689697 -271.789276 344.614624
v 1196.343262 -272.767761 188.994507
v 1196.509521 -272.465576 341.614624
v 1196.343262 -272.767761 341.614624
v 1194.749146 -275.665070 188.994507
v 1196.509521 -272.465576 188.614578
v 1194.749146 -275.665070 341.614624
v 1193.928711 -277.156464 341.614624
v 1193.928711 -277.156464 188.994507
v 1192.334595 -280.053772 188.994507
v 1192.334595 -280.053772 341.614624
v 1191.514038 -281.545074 341.614624
v 1191.514038 -281.545074 188.994507
v 1189.122925 -285.891083 188.994507
v 1189.122925 -285.891083 341.614624
v 1188.302368 -287.382355 341.614624
v 1188.302368 -287.382355 188.994507
v 1184.127319 -294.970581 188.614578
v 1186.708374 -290.279663 188.994507
v 1186.708374 -290.279663 341.614624
v 1185.887695 -291.771057 341.614624
v 1185.887695 -291.771057 188.994507
v 1184.293701 -294.668365 188.994507
v 1184.293701 -294.668365 341.614624
v 1184.127319 -294.970581 341.614624
v 1191.619995 -271.485168 341.614624
v 1191.618652 -271.479279 341.614624
v 1191.618652 -271.479279 344.614624
v 1191.689697 -271.789276 344.614624
v 1191.689697 -271.789276 341.614624
v 1195.860840 -269.661560 188.994507
v 1195.584717 -268.468475 341.614624
v 1195.860840 -269.661560 341.614624
v 1196.233521 -271.272461 188.994507
v 1195.584717 -268.468475 188.614578
v 1196.233521 -271.272461 341.614624
v 1196.509521 -272.465576 341.614624
v 1196.509521 -272.465576 188.614578
vt 9.752640 0.149640
vt 9.890641 60.259941
vt 9.752640 60.259941
vt 8.429890 0.149640
vt 9.890641 0.000000
vt 8.429890 60.259941
vt 7.845010 60.259941
vt 7.845010 0.149640
vt 6.522260 0.149640
vt 6.522260 60.259941
vt 5.937380 60.259941
vt 5.937380 0.149640
vt 0.000000 0.000000
vt 3.953260 60.259941
vt 3.368380 60.259941
vt 3.953260 0.149640
vt 3.368380 0.149640
vt 2.045630 0.149640
vt 2.045630 60.259941
vt 1.460750 60.259941
vt 1.460750 0.149640
vt 0.138000 0.149640
vt 0.138000 60.259941
vt 0.000000 60.259941
vt 1.353850 0.149640
vt 2.046320 60.259941
vt 1.353850 60.259941
vt 0.692470 0.149640
vt 2.046320 0.000000
vt 0.692470 60.259941
vt 0.000000 60.259941
vt 0.000000 0.000000
vt 9.609121 0.149640
vt 9.747120 60.259941
vt 9.609121 60.259941
vt 8.286371 0.149640
vt 9.747120 0.000000
vt 8.286371 60.259941
vt 7.737370 60.259941
vt 7.737370 0.149640
vt 6.414620 60.259941
vt 5.865620 60.259941
vt 6.414620 0.149640
vt 5.865620 0.149640
vt 3.881500 0.149640
vt 3.881500 60.259941
vt 3.332500 60.259941
vt 3.332500 0.149640
vt 0.000000 0.000000
vt 2.009750 60.259941
vt 1.460750 60.259941
vt 2.009750 0.149640
vt 1.460750 0.149640
vt 0.138000 0.149640
vt 0.138000 60.259941
vt 0.000000 60.259941
vt 0.000000 0.000000
vt 0.532610 0.000000
vt 0.000000 1.181570
vt 0.543060 1.181570
vt 8.333460 1.181570
vt 8.333460 0.000000
vt 8.471461 0.000000
vt 8.471461 1.181570
vt 5.953910 1.181570
vt 5.953910 0.000000
vt 6.349340 0.000000
vt 6.349340 1.181570
vt 4.897110 1.181570
vt 4.897110 0.000000
vt 5.292540 0.000000
vt 5.292540 1.181570
vt 2.122120 1.181570
vt 2.122120 0.000000
vt 2.517550 0.000000
vt 2.517550 1.181570
vt 0.000000 1.181570
vt 0.000000 0.000000
vt 0.138000 0.000000
vt 0.138000 1.181570
vt 0.000000 1.181570
vt 0.000000 0.000000
vt 0.138000 0.000000
vt 0.138000 1.181570
vt 2.122120 1.181570
vt 2.122120 0.000000
vt 2.454960 0.000000
vt 2.454960 1.181570
vt 3.116340 1.181570
vt 3.116340 0.000000
vt 3.449170 0.000000
vt 3.449170 1.181570
vt 4.771920 1.181570
vt 4.771920 0.000000
vt 5.104760 0.000000
vt 5.104760 1.181570
vt 5.766140 1.181570
vt 5.766140 0.000000
vt 6.098970 0.000000
vt 6.098970 1.181570
vt 8.083101 1.181570
vt 8.083101 0.000000
vt 8.221100 0.000000
vt 8.221100 1.181570
vt 1.168250 0.149640
vt 1.675120 60.259941
vt 1.168250 60.259941
vt 0.000000 0.000000
vt 0.506870 0.149640
vt 1.675120 0.000000
vt 0.506870 60.259941
vt 0.000000 60.259941
vt 8.498600 1.181570
vt 8.498600 0.000000
vt 8.636600 0.000000
vt 8.636600 1.181570
vt 6.077760 1.181570
vt 6.077760 0.000000
vt 6.514470 0.000000
vt 6.514470 1.181570
vt 4.979670 1.181570
vt 4.979670 0.000000
vt 5.416390 0.000000
vt 5.416390 1.181570
vt 3.220210 1.181570
vt 3.220210 0.000000
vt 3.656920 0.000000
vt 3.656920 1.181570
vt 2.122120 1.181570
vt 2.122120 0.000000
vt 2.558840 0.000000
vt 2.558840 1.181570
vt 0.000000 1.181570
vt 0.000000 0.000000
vt 0.138000 0.000000
vt 0.138000 1.181570
vt 10.066520 0.149640
vt 10.204520 60.259941
vt 10.066520 60.259941
vt 10.204520 0.000000
vt 8.743770 60.259941
vt 8.080420 60.259941
vt 8.743770 0.149640
vt 8.080420 0.149640
vt 6.757670 60.259941
vt 6.094320 60.259941
vt 6.757670 0.149640
vt 6.094320 0.149640
vt 4.110200 0.149640
vt 0.000000 0.000000
vt 4.110200 60.259941
vt 3.446850 60.259941
vt 3.446850 0.149640
vt 2.124100 60.259941
vt 1.460750 60.259941
vt 2.124100 0.149640
vt 1.460750 0.149640
vt 0.138000 60.259941
vt 0.000000 60.259941
vt 0.138000 0.149640
vt 1.221100 0.149640
vt 1.780840 60.259941
vt 1.221100 60.259941
vt 0.559730 0.149640
vt 1.780840 0.000000
vt 0.559730 60.259941
vt 0.000000 60.259941
vt 0.000000 0.000000
vt 0.000000 0.000000
vt 0.275080 0.000000
vt 0.000000 1.181570
vt 0.280470 1.181570
vt 0.000000 1.181570
vt 0.000000 0.000000
vt 0.138000 0.000000
vt 0.138000 1.181570
vt 2.122120 1.181570
vt 2.122120 0.000000
vt 2.590890 0.000000
vt 2.590890 1.181570
vt 3.252260 1.181570
vt 3.252260 0.000000
vt 3.721030 0.000000
vt 3.721030 1.181570
vt 5.043770 1.181570
vt 5.043770 0.000000
vt 5.512540 0.000000
vt 5.512540 1.181570
vt 6.173910 1.181570
vt 6.173910 0.000000
vt 6.642680 0.000000
vt 6.642680 1.181570
vt 8.626800 1.181570
vt 8.626800 0.000000
vt 8.764801 0.000000
vt 8.764801 1.181570
vt 10.136600 0.149640
vt 10.274600 60.259941
vt 10.136600 60.259941
vt 8.813851 0.149640
vt 10.274600 0.000000
vt 8.813851 60.259941
vt 8.132981 60.259941
vt 8.132981 0.149640
vt 6.810230 0.149640
vt 6.810230 60.259941
vt 6.129360 60.259941
vt 6.129360 0.149640
vt 4.145240 0.149640
vt 4.145240 60.259941
vt 3.464370 60.259941
vt 3.464370 0.149640
vt 0.000000 0.000000
vt 2.141620 60.259941
vt 1.460750 60.259941
vt 2.141620 0.149640
vt 1.460750 0.149640
vt 0.138000 0.149640
vt 0.138000 60.259941
vt 0.000000 60.259941
vt 1.151220 0.149640
vt 1.641070 60.259941
vt 1.151220 60.259941
vt 0.489850 0.149640
vt 1.641070 0.000000
vt 0.489850 60.259941
vt 0.000000 60.259941
vt 0.000000 0.000000
vt 0.543060 0.000000
vt 3.178930 1.181570
vt 3.178930 0.000000
vt 3.574360 0.000000
vt 3.574360 1.181570
vt 0.169190 0.000000
vt 0.172510 0.000000
vt 0.172510 1.181570
vt 0.000000 1.181570
vt 0.000000 0.000000
vt 0.280470 0.000000
vt 0.124790 0.000000
vt 0.127240 0.000000
vt 0.127240 1.181570
vt 0.000000 1.181570
vt 0.000000 0.000000
vn -0.8792 0.4765 0.0000
vn -0.8793 0.4762 -0.0001
vn -0.8794 0.4761 0.0000
vn -0.8793 0.4762 0.0000
vn -0.8793 0.4762 -0.0002
vn -0.8793 0.4763 0.0009
vn -0.8793 0.4762 0.0001
vn -0.8794 0.4762 0.0000
vn -0.8793 0.4763 0.0000
vn -0.8794 0.4762 0.0004
vn -0.8793 0.4763 0.0001
vn -0.8794 0.4760 0.0000
vn -0.9785 -0.2063 0.0000
vn -0.9785 -0.2062 -0.0000
vn -0.4764 -0.8792 0.0000
vn -0.4763 -0.8793 0.0001
vn -0.4767 -0.8791 0.0000
vn -0.4764 -0.8793 0.0000
vn -0.4763 -0.8793 0.0000
vn -0.4763 -0.8793 -0.0002
vn -0.4763 -0.8793 0.0016
vn -0.4763 -0.8793 -0.0003
vn -0.4762 -0.8793 0.0000
vn -0.4763 -0.8793 -0.0014
vn -0.4763 -0.8793 0.0002
vn -0.4763 -0.8793 -0.0005
vn -0.4762 -0.8794 0.0000
vn -0.9789 -0.2042 0.0000
vn -0.9789 -0.2043 0.0000
vn -0.8796 0.4757 0.0000
vn -0.8795 0.4759 0.0000
vn -0.8795 0.4760 0.0000
vn -0.8792 0.4764 0.0000
vn -0.4766 -0.8791 0.0000
vn -0.4765 -0.8792 0.0000
vn -0.2789 0.9603 0.0000
vn -0.2790 0.9603 -0.0001
vn -0.2790 0.9603 -0.0003
vn -0.2790 0.9603 0.0000
vn 0.4723 0.8814 0.0000
vn 0.4727 0.8812 0.0000
vn 0.4726 0.8813 0.0000
vn 0.4725 0.8813 0.0000
vn 0.4725 0.8814 0.0000
vn 0.4730 0.8811 0.0000
vn 0.4719 0.8816 0.0000
vn 0.4723 0.8815 0.0000
vn 0.4722 0.8815 0.0000
vn 0.4723 0.8814 -0.0001
vn 0.4724 0.8814 0.0000
vn 0.2185 -0.9758 0.0000
vn 0.2184 -0.9759 -0.0005
vn 0.2184 -0.9759 0.0000
vn 0.2184 -0.9759 0.0001
vn 0.2330 -0.9725 0.0000
vn 0.2331 -0.9725 -0.0000
vn 0.8763 -0.4818 0.0000
vn 0.8761 -0.4822 0.0000
vn 0.8761 -0.4821 0.0000
vn 0.8760 -0.4822 0.0000
vn 0.8762 -0.4819 0.0000
vn 0.8762 -0.4820 -0.0001
vn 0.8762 -0.4820 0.0000
vn 0.8761 -0.4821 0.0005
vn 0.8762 -0.4820 -0.0004
vn 0.8761 -0.4821 -0.0017
vn 0.8761 -0.4821 0.0003
vn 0.8761 -0.4821 0.0001
vn 0.8762 -0.4819 0.0002
vn 0.8761 -0.4821 -0.0003
vn 0.8759 -0.4825 0.0000
vn 0.8760 -0.4823 0.0000
vn 0.9742 0.2255 0.0000
vn 0.9743 0.2254 0.0000
vn 0.9743 0.2253 0.0000
vn 0.9743 0.2254 -0.0001
vn -0.8794 0.4761 -0.0004
vn -0.8794 0.4762 0.0002
vn -0.4764 -0.8792 -0.0002
vn -0.4762 -0.8793 0.0001
vn -0.9792 -0.2031 -0.0000
vn -0.2791 0.9603 0.0000
vn -0.2904 0.9569 -0.0000
vn -0.2864 0.9581 0.0000
vn -0.2948 0.9556 0.0001
vn -0.2947 0.9556 0.0000
vn -0.2944 0.9557 0.0000
vn 0.4723 0.8814 0.0002
vn 0.4724 0.8814 -0.0001
vn 0.4723 0.8814 -0.0002
vn 0.4725 0.8813 0.0008
vn 0.4725 0.8813 -0.0004
vn 0.4723 0.8814 -0.0006
vn 0.4723 0.8815 0.0001
vn 0.2276 -0.9738 0.0000
vn 0.8761 -0.4821 -0.0004
vn 0.8761 -0.4821 -0.0001
vn 0.9717 0.2363 0.0000
vn 0.9685 0.2490 0.0000
vn 0.9748 0.2230 0.0000
vn 0.9748 0.2232 0.0000
vn 0.9746 0.2238 0.0000
s off
f 1/1/1 2/2/1 3/3/1
f 4/4/2 5/5/2 1/1/2
f 2/2/3 1/1/3 5/5/3
f 6/6/4 7/7/4 4/4/4
f 7/7/3 8/8/3 4/4/3
f 8/8/3 5/5/3 4/4/3
f 8/8/5 9/9/5 5/5/5
f 10/10/3 11/11/3 9/9/3
f 11/11/4 12/12/4 9/9/4
f 9/9/6 12/12/6 5/5/6
f 12/12/7 14/13/7 5/5/7
f 15/14/8 16/15/8 13/16/8
f 16/15/9 17/17/9 13/16/9
f 17/17/10 14/13/10 13/16/10
f 18/18/11 14/13/11 17/17/11
f 19/19/9 20/20/9 18/18/9
f 20/20/8 21/21/8 18/18/8
f 22/22/4 14/13/4 21/21/4
f 23/23/12 24/24/12 22/22/12
f 25/25/13 26/26/13 27/27/13
f 28/28/14 29/29/14 25/25/14
f 26/26/13 25/25/13 29/29/13
f 30/30/14 31/31/14 28/28/14
f 31/31/14 32/32/14 28/28/14
f 32/32/14 29/29/14 28/28/14
f 33/33/15 34/34/15 35/35/15
f 36/36/16 37/37/16 33/33/16
f 34/34/17 33/33/17 37/37/17
f 38/38/18 39/39/18 36/36/18
f 39/39/19 40/40/19 36/36/19
f 40/40/20 37/37/20 36/36/20
f 42/41/18 43/42/18 41/43/18
f 43/42/19 44/44/19 41/43/19
f 41/43/21 44/44/21 37/37/21
f 44/44/22 45/45/22 37/37/22
f 46/46/23 47/47/23 45/45/23
f 47/47/19 48/48/19 45/45/19
f 48/48/24 49/49/24 45/45/24
f 45/45/25 49/49/25 37/37/25
f 51/50/23 52/51/23 50/52/23
f 52/51/19 53/53/19 50/52/19
f 53/53/26 49/49/26 50/52/26
f 54/54/19 49/49/19 53/53/19
f 55/55/15 56/56/15 54/54/15
f 56/56/27 49/49/27 54/54/27
f 57/57/28 58/58/28 59/59/28
f 58/58/29 60/60/29 59/59/29
f 62/61/12 63/62/12 64/63/12
f 62/61/30 64/63/30 65/64/30
f 66/65/3 67/66/3 68/67/3
f 66/65/31 68/67/31 69/68/31
f 70/69/3 71/70/3 72/71/3
f 70/69/32 72/71/32 73/72/32
f 78/73/3 79/74/3 80/75/3
f 78/73/3 80/75/3 81/76/3
f 82/77/30 83/78/30 84/79/30
f 82/77/33 84/79/33 85/80/33
f 86/81/19 87/82/19 88/83/19
f 86/81/34 88/83/34 89/84/34
f 90/85/15 91/86/15 92/87/15
f 90/85/15 92/87/15 93/88/15
f 94/89/35 95/90/35 96/91/35
f 94/89/19 96/91/19 97/92/19
f 98/93/19 99/94/19 100/95/19
f 98/93/35 100/95/35 101/96/35
f 102/97/35 103/98/35 104/99/35
f 102/97/15 104/99/15 105/100/15
f 106/101/34 107/102/34 108/103/34
f 106/101/19 108/103/19 109/104/19
f 110/105/36 111/106/36 112/107/36
f 113/108/37 110/105/37 114/109/37
f 113/108/38 115/110/38 110/105/38
f 111/106/39 110/105/39 115/110/39
f 116/111/39 117/112/39 114/109/39
f 123/113/40 124/114/40 125/115/40
f 123/113/41 125/115/41 126/116/41
f 127/117/42 128/118/42 129/119/42
f 127/117/43 129/119/43 130/120/43
f 131/121/43 132/122/43 133/123/43
f 131/121/43 133/123/43 134/124/43
f 135/125/44 136/126/44 137/127/44
f 135/125/43 137/127/43 138/128/43
f 139/129/43 140/130/43 141/131/43
f 139/129/44 141/131/44 142/132/44
f 143/133/42 144/134/42 145/135/42
f 143/133/45 145/135/45 146/136/45
f 147/137/43 148/138/43 149/139/43
f 148/138/46 147/137/46 151/140/46
f 152/141/47 153/142/47 150/143/47
f 153/142/47 154/144/47 150/143/47
f 156/145/48 157/146/48 155/147/48
f 157/146/40 158/148/40 155/147/40
f 159/149/40 160/150/40 158/148/40
f 158/148/49 160/150/49 151/140/49
f 161/151/47 162/152/47 159/149/47
f 162/152/47 163/153/47 159/149/47
f 165/154/50 166/155/50 164/156/50
f 166/155/40 167/157/40 164/156/40
f 169/158/41 170/159/41 168/160/41
f 171/161/51 172/162/51 173/163/51
f 174/164/52 175/165/52 171/161/52
f 172/162/51 171/161/51 175/165/51
f 176/166/53 177/167/53 174/164/53
f 177/167/53 178/168/53 174/164/53
f 178/168/54 175/165/54 174/164/54
f 179/169/55 180/170/55 181/171/55
f 180/170/56 182/172/56 181/171/56
f 184/173/57 185/174/57 186/175/57
f 184/173/57 186/175/57 187/176/57
f 188/177/58 189/178/58 190/179/58
f 188/177/59 190/179/59 191/180/59
f 192/181/59 193/182/59 194/183/59
f 192/181/59 194/183/59 195/184/59
f 196/185/59 197/186/59 198/187/59
f 196/185/59 198/187/59 199/188/59
f 200/189/59 201/190/59 202/191/59
f 200/189/58 202/191/58 203/192/58
f 204/193/60 205/194/60 206/195/60
f 204/193/61 206/195/61 207/196/61
f 208/197/59 209/198/59 210/199/59
f 211/200/62 212/201/62 208/197/62
f 209/198/58 208/197/58 212/201/58
f 213/202/63 214/203/63 211/200/63
f 214/203/61 215/204/61 211/200/61
f 215/204/64 212/201/64 211/200/64
f 215/204/65 216/205/65 212/201/65
f 217/206/59 218/207/59 216/205/59
f 218/207/63 219/208/63 216/205/63
f 216/205/66 219/208/66 212/201/66
f 219/208/67 220/209/67 212/201/67
f 221/210/63 222/211/63 220/209/63
f 222/211/59 223/212/59 220/209/59
f 220/209/68 224/213/68 212/201/68
f 226/214/59 227/215/59 225/216/59
f 227/215/58 228/217/58 225/216/58
f 228/217/69 224/213/69 225/216/69
f 229/218/70 224/213/70 228/217/70
f 230/219/71 231/220/71 229/218/71
f 231/220/72 224/213/72 229/218/72
f 237/221/73 238/222/73 239/223/73
f 240/224/74 241/225/74 237/221/74
f 238/222/74 237/221/74 241/225/74
f 242/226/73 243/227/73 240/224/73
f 243/227/75 244/228/75 240/224/75
f 244/228/76 241/225/76 240/224/76
s 1
f 13/16/77 14/13/77 12/12/77
f 21/21/78 14/13/78 18/18/78
f 24/24/8 14/13/8 22/22/8
f 40/40/79 41/43/79 37/37/79
f 50/52/80 49/49/80 48/48/80
f 58/58/81 61/229/81 60/60/81
f 74/230/3 75/231/31 76/232/31
f 74/230/3 76/232/31 77/233/3
f 117/112/82 113/108/82 114/109/82
f 118/234/83 119/235/84 120/236/85
f 118/234/83 120/236/85 121/237/86
f 122/238/87 118/234/83 121/237/86
f 150/143/88 151/140/88 147/137/89
f 154/144/90 151/140/88 150/143/88
f 154/144/90 155/147/91 151/140/88
f 155/147/91 158/148/91 151/140/88
f 163/153/92 160/150/40 159/149/92
f 164/156/93 160/150/40 163/153/92
f 167/157/94 160/150/40 164/156/93
f 168/160/40 160/150/40 167/157/94
f 170/159/48 160/150/40 168/160/40
f 180/170/95 183/239/95 182/172/95
f 223/212/96 224/213/68 220/209/96
f 225/216/97 224/213/68 223/212/96
f 232/240/98 233/241/99 234/242/100
f 232/240/98 234/242/100 235/243/101
f 236/244/102 232/240/98 235/243/101
