# Blender v3.0.1 OBJ File: 'rockerfeller_plaza.blend'
# www.blender.org
o geometryt000010000010000110010110000110000100110010010110st111
v 137.875305 -246.436600 18.611130
v 143.260895 -249.349701 18.611130
v 131.123398 -258.949310 18.611130
v 141.843704 -264.742706 18.611130
v 148.595596 -252.229996 18.611130
v 143.260895 -249.349701 27.911131
v 131.123398 -258.949310 27.911131
v 141.843704 -264.742706 27.911131
v 137.875305 -246.436600 27.911131
v 148.595596 -252.229996 27.911131
vt 0.404610 0.272180
vt 0.408200 0.282970
vt 0.429530 0.258280
vt 0.436660 0.279750
vt 0.411740 0.293650
vt 0.408200 0.282970
vt 0.429530 0.258280
vt 0.436660 0.279750
vt 0.404610 0.272180
vt 0.411740 0.293650
vn 0.0000 0.0000 -1.0000
vn -0.0000 0.0000 1.0000
s off
f 1/1/1 2/2/1 3/3/1
f 4/4/1 2/2/1 5/5/1
f 3/3/1 2/2/1 4/4/1
f 6/6/2 7/7/2 8/8/2
f 9/9/2 7/7/2 6/6/2
f 6/6/2 8/8/2 10/10/2
