# Blender v3.0.1 OBJ File: 'rockerfeller_plaza.blend'
# www.blender.org
o geometryt000010000010000110010110000110000110100000010110st51
v 1185.912354 -90.646957 209.019348
v 1185.912354 -90.646957 188.423294
v 1178.954224 -103.471077 188.423294
v 1178.954224 -103.471077 209.019348
v 1179.187866 -104.159676 188.423294
v 1182.685181 -106.057777 188.423294
v 1182.685181 -106.057777 209.019348
v 1179.187866 -104.159676 209.019348
v 1182.841553 -106.142677 209.019348
v 1182.841553 -106.142677 188.423294
v 1185.172974 -107.408073 188.423294
v 1185.172974 -107.408073 209.019348
v 1185.329346 -107.492973 209.019348
v 1185.329346 -107.492973 188.423294
v 1187.660889 -108.758377 188.423294
v 1187.660889 -108.758377 209.019348
v 1187.817261 -108.843277 209.019348
v 1187.817261 -108.843277 188.423294
v 1190.148682 -110.108681 188.423294
v 1190.148682 -110.108681 209.019348
v 1190.305176 -110.193581 209.019348
v 1190.305176 -110.193581 188.423294
v 1191.470825 -110.826279 188.423294
v 1191.470825 -110.826279 209.019348
v 1191.627197 -110.911179 188.423294
v 1192.793091 -111.543877 188.423294
v 1192.793091 -111.543877 209.019348
v 1191.627197 -110.911179 209.019348
v 1192.949341 -111.628777 209.019348
v 1192.949341 -111.628777 188.423294
v 1194.115112 -112.261475 188.423294
v 1194.115112 -112.261475 209.019348
v 1194.271484 -112.346375 209.019348
v 1194.271484 -112.346375 188.423294
v 1196.603027 -113.611778 188.423294
v 1196.603027 -113.611778 209.019348
v 1196.759399 -113.696678 209.019348
v 1196.759399 -113.696678 188.423294
v 1199.090820 -114.962074 188.423294
v 1199.090820 -114.962074 209.019348
v 1199.247314 -115.046974 188.423294
v 1201.578735 -116.312378 188.423294
v 1201.578735 -116.312378 209.019348
v 1199.247314 -115.046974 209.019348
v 1201.735107 -116.397278 188.423294
v 1205.232300 -118.295380 188.423294
v 1205.232300 -118.295380 209.019348
v 1201.735107 -116.397278 209.019348
v 1207.699097 -101.928177 188.423294
v 1186.718994 -90.533539 188.423294
v 1186.718994 -90.533539 209.019348
v 1207.699097 -101.928177 209.019348
v 1205.765015 -118.038277 209.019348
v 1205.765015 -118.038277 188.423294
v 1207.033203 -115.708275 188.423294
v 1207.033203 -115.708275 209.019348
v 1207.515869 -114.819878 188.423294
v 1211.942505 -106.658379 188.423294
v 1211.942505 -106.658379 209.019348
v 1207.515869 -114.819878 209.019348
v 1211.603516 -105.869774 209.019348
v 1211.603516 -105.869774 188.423294
v 1208.106934 -103.970276 188.423294
v 1208.106934 -103.970276 209.019348
vt 0.000000 1.250000
vt 0.000000 0.000000
vt 2.750000 0.000000
vt 2.750000 1.250000
vt 0.000000 0.000000
vt 0.750000 0.000000
vt 0.750000 1.250000
vt 0.000000 1.250000
vt 0.000000 1.250000
vt 0.000000 0.000000
vt 0.500000 0.000000
vt 0.500000 1.250000
vt 0.000000 1.250000
vt 0.000000 0.000000
vt 0.500000 0.000000
vt 0.500000 1.250000
vt 0.000000 1.250000
vt 0.000000 0.000000
vt 0.500000 0.000000
vt 0.500000 1.250000
vt 0.000000 1.250000
vt 0.000000 0.000000
vt 0.250000 0.000000
vt 0.250000 1.250000
vt 0.000000 0.000000
vt 0.250000 0.000000
vt 0.250000 1.250000
vt 0.000000 1.250000
vt 0.000000 1.250000
vt 0.000000 0.000000
vt 0.250000 0.000000
vt 0.250000 1.250000
vt 0.000000 1.250000
vt 0.000000 0.000000
vt 0.500000 0.000000
vt 0.500000 1.250000
vt 0.000000 1.250000
vt 0.000000 0.000000
vt 0.500000 0.000000
vt 0.500000 1.250000
vt 0.000000 0.000000
vt 0.500000 0.000000
vt 0.500000 1.250000
vt 0.000000 1.250000
vt 0.000000 0.000000
vt 0.750000 0.000000
vt 0.750000 1.250000
vt 0.000000 1.250000
vt 0.000000 0.000000
vt 4.500000 0.000000
vt 4.500000 1.250000
vt 0.000000 1.250000
vt 0.000000 1.250000
vt 0.000000 0.000000
vt 0.500000 0.000000
vt 0.500000 1.250000
vt 0.000000 0.000000
vt 1.750000 0.000000
vt 1.750000 1.250000
vt 0.000000 1.250000
vt 0.000000 1.250000
vt 0.000000 0.000000
vt 0.750000 0.000000
vt 0.750000 1.250000
vn -0.8790 0.4769 0.0000
vn -0.4770 -0.8789 0.0000
vn -0.4771 -0.8788 0.0000
vn -0.4769 -0.8789 0.0000
vn 0.4773 0.8788 0.0000
vn 0.8783 -0.4781 0.0000
vn 0.8783 -0.4780 0.0000
vn 0.8790 -0.4768 0.0000
vn 0.4774 0.8787 0.0000
s off
f 1/1/1 2/2/1 3/3/1
f 1/1/1 3/3/1 4/4/1
f 5/5/2 6/6/2 7/7/2
f 8/8/2 5/5/2 7/7/2
f 9/9/2 10/10/2 11/11/2
f 9/9/2 11/11/2 12/12/2
f 13/13/2 14/14/2 15/15/2
f 13/13/2 15/15/2 16/16/2
f 17/17/2 18/18/2 19/19/2
f 17/17/2 19/19/2 20/20/2
f 21/21/3 22/22/3 23/23/3
f 21/21/2 23/23/2 24/24/2
f 25/25/2 26/26/2 27/27/2
f 28/28/4 25/25/4 27/27/4
f 29/29/2 30/30/2 31/31/2
f 29/29/2 31/31/2 32/32/2
f 33/33/2 34/34/2 35/35/2
f 33/33/2 35/35/2 36/36/2
f 37/37/2 38/38/2 39/39/2
f 37/37/2 39/39/2 40/40/2
f 41/41/2 42/42/2 43/43/2
f 44/44/2 41/41/2 43/43/2
f 45/45/2 46/46/2 47/47/2
f 48/48/2 45/45/2 47/47/2
f 49/49/5 50/50/5 51/51/5
f 52/52/5 49/49/5 51/51/5
f 53/53/6 54/54/6 55/55/6
f 53/53/7 55/55/7 56/56/7
f 57/57/8 58/58/8 59/59/8
f 60/60/8 57/57/8 59/59/8
f 61/61/9 62/62/9 63/63/9
f 61/61/9 63/63/9 64/64/9
