# Blender v3.0.1 OBJ File: 'rockerfeller_plaza.blend'
# www.blender.org
o geometryt000010000010000110010110000110000110100100000000st19_I
v 338.632965 -169.771179 889.914246
v 339.391907 -170.181473 931.252808
v 338.632965 -169.771179 931.252808
v 333.742249 -167.127274 889.252808
v 334.501160 -167.537582 889.914246
v 339.391907 -170.181473 889.252808
v 334.501160 -167.537582 931.252808
v 333.742249 -167.127274 931.252808
v 333.906189 -166.823685 889.914246
v 333.742249 -167.127274 931.252808
v 333.906189 -166.823685 931.252808
v 335.394318 -164.068680 889.914246
v 333.742249 -167.127274 889.252808
v 335.394318 -164.068680 931.252808
v 336.875580 -161.326279 931.252808
v 336.875580 -161.326279 889.914246
v 338.363708 -158.571182 889.914246
v 338.527649 -158.267685 889.252808
v 338.363708 -158.571182 931.252808
v 338.527649 -158.267685 931.252808
v 338.866730 -158.203979 889.914246
v 338.527649 -158.267685 931.252808
v 338.866730 -158.203979 931.252808
v 340.016602 -157.988174 889.914246
v 338.527649 -158.267685 889.252808
v 340.016602 -157.988174 931.252808
v 340.355682 -157.924484 931.252808
v 340.355682 -157.924484 889.252808
v 352.655670 -177.332184 889.914246
v 352.959351 -177.495880 931.252808
v 352.655670 -177.332184 931.252808
v 349.899445 -175.846176 889.914246
v 352.959351 -177.495880 889.252808
v 349.899445 -175.846176 931.252808
v 349.254395 -175.498474 931.252808
v 349.254395 -175.498474 889.914246
v 346.498138 -174.012573 889.914246
v 346.498138 -174.012573 931.252808
v 345.853088 -173.664780 931.252808
v 345.853088 -173.664780 889.914246
v 343.096863 -172.178879 889.914246
v 339.391907 -170.181473 889.252808
v 343.096863 -172.178879 931.252808
v 342.451813 -171.831085 931.252808
v 342.451813 -171.831085 889.914246
v 339.695587 -170.345184 889.914246
v 339.695587 -170.345184 931.252808
v 339.391907 -170.181473 931.252808
v 340.519440 -157.620880 889.914246
v 340.355682 -157.924484 931.252808
v 340.519440 -157.620880 931.252808
v 341.262604 -156.242874 889.914246
v 340.355682 -157.924484 889.252808
v 341.262604 -156.242874 931.252808
v 341.707275 -155.418274 931.252808
v 341.707275 -155.418274 889.914246
v 342.450439 -154.040283 889.914246
v 342.450439 -154.040283 931.252808
v 342.895111 -153.215683 931.252808
v 342.895111 -153.215683 889.914246
v 343.802063 -151.534073 889.252808
v 343.638275 -151.837677 889.914246
v 343.638275 -151.837677 931.252808
v 343.802063 -151.534073 931.252808
v 343.137482 -149.718872 889.914246
v 342.974030 -150.022675 931.252808
v 343.137482 -149.718872 931.252808
v 344.621002 -146.961273 889.914246
v 342.974030 -150.022675 889.252808
v 344.621002 -146.961273 931.252808
v 345.888916 -144.604477 931.252808
v 345.888916 -144.604477 889.914246
v 347.372437 -141.846985 889.914246
v 347.535889 -141.543182 889.252808
v 347.372437 -141.846985 931.252808
v 347.535889 -141.543182 931.252808
v 343.636292 -151.231476 889.914246
v 343.802063 -151.534073 931.252808
v 343.636292 -151.231476 931.252808
v 342.974030 -150.022675 889.252808
v 343.139801 -150.325180 889.914246
v 343.802063 -151.534073 889.252808
v 343.139801 -150.325180 931.252808
v 342.974030 -150.022675 931.252808
v 347.839539 -141.706985 889.914246
v 347.535889 -141.543182 931.252808
v 347.839539 -141.706985 931.252808
v 350.595276 -143.193771 889.914246
v 347.535889 -141.543182 889.252808
v 350.595276 -143.193771 931.252808
v 351.458557 -143.659576 931.252808
v 351.458557 -143.659576 889.914246
v 354.214294 -145.146484 889.914246
v 354.214294 -145.146484 931.252808
v 355.077637 -145.612274 931.252808
v 355.077637 -145.612274 889.914246
v 359.211243 -147.842575 889.914246
v 366.752930 -151.911682 889.252808
v 359.211243 -147.842575 931.252808
v 360.074524 -148.308380 931.252808
v 360.074524 -148.308380 889.914246
v 362.830322 -149.795181 889.914246
v 362.830322 -149.795181 931.252808
v 363.693634 -150.260971 931.252808
v 363.693634 -150.260971 889.914246
v 366.449341 -151.747879 889.914246
v 366.449341 -151.747879 931.252808
v 366.752930 -151.911682 931.252808
v 366.588623 -152.214981 889.914246
v 366.752319 -151.911377 931.252808
v 366.588623 -152.214981 931.252808
v 365.102020 -154.970871 889.914246
v 366.752319 -151.911377 889.252808
v 365.102020 -154.970871 931.252808
v 364.715027 -155.688385 931.252808
v 364.715027 -155.688385 889.914246
v 361.876831 -160.949982 889.252808
v 363.228424 -158.444275 889.914246
v 363.228424 -158.444275 931.252808
v 362.841431 -159.161774 931.252808
v 362.841431 -159.161774 889.914246
v 361.354828 -161.917679 889.914246
v 361.354828 -161.917679 931.252808
v 360.967834 -162.635071 931.252808
v 360.967834 -162.635071 889.914246
v 359.586914 -165.195084 889.252808
v 358.737915 -166.768982 889.914246
v 358.737915 -166.768982 931.252808
v 358.350922 -167.486374 931.252808
v 358.350922 -167.486374 889.914246
v 356.864380 -170.242279 889.914246
v 356.864380 -170.242279 931.252808
v 356.477356 -170.959778 931.252808
v 356.477356 -170.959778 889.914246
v 354.990784 -173.715683 889.914246
v 353.598206 -176.297272 889.252808
v 354.990784 -173.715683 931.252808
v 354.603790 -174.433075 931.252808
v 354.603790 -174.433075 889.914246
v 353.117218 -177.188980 889.914246
v 353.117218 -177.188980 931.252808
v 352.953430 -177.492676 931.252808
v 352.953430 -177.492676 889.252808
vt 4.711550 0.560520
vt 5.442680 35.593220
vt 4.711550 35.593220
vt 0.000000 0.000000
vt 0.731130 0.560520
vt 5.442680 0.000000
vt 0.731130 35.593220
vt 0.000000 35.593220
vt 8.241001 0.560520
vt 8.533370 35.593220
vt 8.241001 35.593220
vt 5.587380 0.560520
vt 8.533370 0.000000
vt 5.587380 35.593220
vt 2.945990 35.593220
vt 2.945990 0.560520
vt 0.292370 0.560520
vt 0.000000 0.000000
vt 0.292370 35.593220
vt 0.000000 35.593220
vt 1.283870 0.560520
vt 1.576240 35.593220
vt 1.283870 35.593220
vt 0.292370 0.560520
vt 1.576240 0.000000
vt 0.292370 35.593220
vt 0.000000 35.593220
vt 0.000000 0.000000
vt 12.769930 0.560520
vt 13.062310 35.593220
vt 12.769930 35.593220
vt 10.116320 0.560520
vt 13.062310 0.000000
vt 10.116320 35.593220
vt 9.495290 35.593220
vt 9.495290 0.560520
vt 6.841670 0.560520
vt 6.841670 35.593220
vt 6.220640 35.593220
vt 6.220640 0.560520
vt 3.567020 0.560520
vt 0.000000 0.000000
vt 3.567020 35.593220
vt 2.945990 35.593220
vt 2.945990 0.560520
vt 0.292370 0.560520
vt 0.292370 35.593220
vt 0.000000 35.593220
vt 5.860620 0.560520
vt 6.153000 35.593220
vt 5.860620 35.593220
vt 4.533810 0.560520
vt 6.153000 0.000000
vt 4.533810 35.593220
vt 3.739900 35.593220
vt 3.739900 0.560520
vt 2.413090 35.593220
vt 1.619180 35.593220
vt 2.413090 0.560520
vt 1.619180 0.560520
vt 0.000000 0.000000
vt 0.292370 0.560520
vt 0.292370 35.593220
vt 0.000000 35.593220
vt 7.867580 0.560520
vt 8.159951 35.593220
vt 7.867580 35.593220
vt 5.213960 0.560520
vt 8.159951 0.000000
vt 5.213960 35.593220
vt 2.945990 35.593220
vt 2.945990 0.560520
vt 0.292370 0.560520
vt 0.000000 0.000000
vt 0.292370 35.593220
vt 0.000000 35.593220
vt 1.168090 0.560520
vt 1.460460 35.593220
vt 1.168090 35.593220
vt 0.000000 0.000000
vt 0.292370 0.560520
vt 1.460460 0.000000
vt 0.292370 35.593220
vt 0.000000 35.593220
vt 18.212570 0.560520
vt 18.504940 35.593220
vt 18.212570 35.593220
vt 15.558950 0.560520
vt 18.504940 0.000000
vt 15.558950 35.593220
vt 14.727620 35.593220
vt 14.727620 0.560520
vt 12.074010 0.560520
vt 12.074010 35.593220
vt 11.242680 35.593220
vt 11.242680 0.560520
vt 7.262260 0.560520
vt 0.000000 0.000000
vt 7.262260 35.593220
vt 6.430930 35.593220
vt 6.430930 0.560520
vt 3.777310 0.560520
vt 3.777310 35.593220
vt 2.945990 35.593220
vt 2.945990 0.560520
vt 0.292370 0.560520
vt 0.292370 35.593220
vt 0.000000 35.593220
vt 24.339540 0.560520
vt 24.631920 35.593220
vt 24.339540 35.593220
vt 21.685930 0.560520
vt 24.631920 0.000000
vt 21.685930 35.593220
vt 20.995090 35.593220
vt 20.995090 0.560520
vt 15.928740 0.000000
vt 18.341471 0.560520
vt 17.650631 0.560520
vt 14.997010 0.560520
vt 14.997010 35.593220
vt 14.306170 35.593220
vt 14.306170 0.560520
vt 11.841190 0.000000
vt 10.325750 35.593220
vt 9.634910 35.593220
vt 10.325750 0.560520
vt 9.634910 0.560520
vt 6.981290 0.560520
vt 6.981290 35.593220
vt 6.290450 35.593220
vt 6.290450 0.560520
vt 3.636830 0.560520
vt 1.150980 0.000000
vt 3.636830 35.593220
vt 2.945990 35.593220
vt 2.945990 0.560520
vt 0.292370 0.560520
vt 0.292370 35.593220
vt 0.000000 35.593220
vt 0.000000 0.000000
vt 18.341471 35.593220
vt 17.650631 35.593220
vn -0.4755 -0.8797 0.0000
vn -0.4755 -0.8797 -0.0001
vn -0.4756 -0.8797 0.0000
vn -0.8799 0.4752 0.0000
vn -0.8798 0.4753 -0.0001
vn -0.8799 0.4751 0.0000
vn -0.8798 0.4753 -0.0000
vn -0.1842 0.9829 0.0000
vn -0.1845 0.9828 -0.0001
vn -0.1846 0.9828 0.0000
vn -0.4745 -0.8802 0.0000
vn -0.4746 -0.8802 -0.0000
vn -0.4745 -0.8803 0.0000
vn -0.4744 -0.8803 0.0000
vn -0.4744 -0.8803 -0.0001
vn -0.4749 -0.8801 0.0000
vn -0.4746 -0.8802 0.0001
vn -0.8801 0.4747 0.0000
vn -0.8802 0.4746 0.0000
vn -0.8802 0.4747 0.0000
vn -0.8802 0.4747 0.0001
vn -0.8802 0.4746 -0.0001
vn -0.8801 0.4747 -0.0001
vn -0.8800 0.4749 0.0000
vn -0.8806 0.4738 0.0000
vn -0.8807 0.4737 0.0000
vn -0.8807 0.4738 0.0000
vn -0.8807 0.4736 0.0000
vn -0.8806 0.4739 -0.0001
vn -0.8770 -0.4805 0.0000
vn -0.8770 -0.4805 0.0001
vn -0.8770 -0.4804 0.0000
vn -0.8769 -0.4806 0.0000
vn -0.8770 -0.4806 0.0000
vn 0.4748 0.8801 0.0000
vn 0.4749 0.8800 -0.0000
vn 0.4749 0.8801 0.0000
vn 0.4748 0.8801 0.0001
vn 0.4748 0.8801 0.0003
vn 0.4748 0.8801 0.0004
vn 0.4749 0.8800 -0.0003
vn 0.4749 0.8801 0.0003
vn 0.8802 -0.4746 0.0000
vn 0.8801 -0.4747 -0.0001
vn 0.8800 -0.4750 -0.0000
vn 0.8801 -0.4748 0.0000
vn 0.8802 -0.4747 0.0000
vn 0.8799 -0.4751 0.0001
vn 0.8801 -0.4748 -0.0001
vn 0.8802 -0.4746 0.0002
vn 0.8801 -0.4747 0.0000
vn 0.8801 -0.4748 0.0001
vn 0.8803 -0.4744 -0.0007
vn 0.8802 -0.4747 0.0004
vn -0.1845 0.9828 0.0000
vn -0.4749 -0.8800 0.0005
vn -0.4744 -0.8803 0.0001
vn 0.8802 -0.4747 0.0001
vn 0.8801 -0.4748 -0.0005
s off
f 1/1/1 2/2/1 3/3/1
f 4/4/2 1/1/2 5/5/2
f 4/4/1 6/6/1 1/1/1
f 2/2/3 1/1/3 6/6/3
f 7/7/3 8/8/3 5/5/3
f 8/8/3 4/4/3 5/5/3
f 9/9/4 10/10/4 11/11/4
f 12/12/5 13/13/5 9/9/5
f 10/10/6 9/9/6 13/13/6
f 14/14/4 15/15/4 12/12/4
f 15/15/4 16/16/4 12/12/4
f 16/16/4 13/13/4 12/12/4
f 17/17/7 18/18/7 16/16/7
f 16/16/7 18/18/7 13/13/7
f 19/19/7 20/20/7 17/17/7
f 20/20/7 18/18/7 17/17/7
f 21/21/8 22/22/8 23/23/8
f 24/24/9 25/25/9 21/21/9
f 26/26/10 27/27/10 24/24/10
f 27/27/10 28/28/10 24/24/10
f 29/29/11 30/30/11 31/31/11
f 32/32/12 33/33/12 29/29/12
f 30/30/13 29/29/13 33/33/13
f 34/34/13 35/35/13 32/32/13
f 35/35/13 36/36/13 32/32/13
f 36/36/14 37/37/14 33/33/14
f 38/38/12 39/39/12 37/37/12
f 39/39/12 40/40/12 37/37/12
f 41/41/15 42/42/15 40/40/15
f 40/40/11 42/42/11 33/33/11
f 43/43/12 44/44/12 41/41/12
f 44/44/12 45/45/12 41/41/12
f 45/45/16 42/42/16 41/41/16
f 46/46/17 42/42/17 45/45/17
f 47/47/12 48/48/12 46/46/12
f 48/48/13 42/42/13 46/46/13
f 49/49/18 50/50/18 51/51/18
f 52/52/18 53/53/18 49/49/18
f 50/50/18 49/49/18 53/53/18
f 54/54/19 55/55/19 52/52/19
f 55/55/20 56/56/20 52/52/20
f 56/56/21 53/53/21 52/52/21
f 58/57/20 59/58/20 57/59/20
f 59/58/19 60/60/19 57/59/19
f 60/60/22 61/61/22 57/59/22
f 57/59/18 61/61/18 53/53/18
f 62/62/23 61/61/23 60/60/23
f 63/63/18 64/64/18 62/62/18
f 64/64/24 61/61/24 62/62/24
f 65/65/25 66/66/25 67/67/25
f 68/68/26 69/69/26 65/65/26
f 66/66/25 65/65/25 69/69/25
f 70/70/27 71/71/27 68/68/27
f 71/71/25 72/72/25 68/68/25
f 72/72/28 69/69/28 68/68/28
f 73/73/25 74/74/25 72/72/25
f 72/72/29 74/74/29 69/69/29
f 75/75/25 76/76/25 73/73/25
f 76/76/25 74/74/25 73/73/25
f 77/77/30 78/78/30 79/79/30
f 80/80/31 77/77/31 81/81/31
f 80/80/32 82/82/32 77/77/32
f 78/78/30 77/77/30 82/82/30
f 83/83/33 84/84/33 81/81/33
f 84/84/34 80/80/34 81/81/34
f 85/85/35 86/86/35 87/87/35
f 88/88/36 89/89/36 85/85/36
f 86/86/35 85/85/35 89/89/35
f 90/90/37 91/91/37 88/88/37
f 91/91/37 92/92/37 88/88/37
f 92/92/38 89/89/38 88/88/38
f 92/92/39 93/93/39 89/89/39
f 94/94/35 95/95/35 93/93/35
f 95/95/35 96/96/35 93/93/35
f 93/93/40 96/96/40 89/89/40
f 97/97/36 98/98/36 96/96/36
f 96/96/35 98/98/35 89/89/35
f 99/99/37 100/100/37 97/97/37
f 100/100/37 101/101/37 97/97/37
f 101/101/41 98/98/41 97/97/41
f 102/102/42 98/98/42 101/101/42
f 103/103/35 104/104/35 102/102/35
f 104/104/35 105/105/35 102/102/35
f 105/105/39 98/98/39 102/102/39
f 106/106/36 98/98/36 105/105/36
f 107/107/37 108/108/37 106/106/37
f 108/108/35 98/98/35 106/106/35
f 109/109/43 110/110/43 111/111/43
f 112/112/44 113/113/44 109/109/44
f 110/110/45 109/109/45 113/113/45
f 114/114/46 115/115/46 112/112/46
f 115/115/47 116/116/47 112/112/47
f 112/112/48 116/116/48 113/113/48
f 113/113/49 116/116/49 117/117/49
f 117/117/50 118/118/50 121/119/50
f 122/120/51 117/117/51 121/119/51
f 123/121/46 124/122/46 122/120/46
f 124/122/51 125/123/51 122/120/51
f 125/123/46 117/117/46 122/120/46
f 126/124/46 117/117/46 125/123/46
f 128/125/46 129/126/46 127/127/46
f 129/126/46 130/128/46 127/127/46
f 126/124/47 127/127/47 130/128/47
f 126/124/52 130/128/52 131/129/52
f 132/130/46 133/131/46 131/129/46
f 133/131/51 134/132/51 131/129/51
f 126/124/53 131/129/53 134/132/53
f 134/132/54 135/133/54 136/134/54
f 137/135/51 138/136/51 135/133/51
f 138/136/46 139/137/46 135/133/46
f 139/137/47 140/138/47 136/134/47
f 141/139/43 142/140/43 140/138/43
f 142/140/46 143/141/46 140/138/46
f 140/138/46 143/141/46 136/134/46
s 1
f 22/22/10 21/21/10 25/25/10
f 28/28/55 25/25/55 24/24/55
f 36/36/56 33/33/56 32/32/56
f 37/37/57 40/40/57 33/33/57
f 56/56/22 57/59/22 53/53/22
f 117/117/58 116/116/58 118/118/58
f 119/142/46 120/143/46 118/118/47
f 120/143/46 121/119/47 118/118/47
f 126/124/46 125/123/46 127/127/46
f 126/124/46 134/132/46 136/134/46
f 135/133/59 139/137/59 136/134/59
