# Blender v3.0.1 OBJ File: 'rockerfeller_plaza.blend'
# www.blender.org
o geometryt000010000010000110010110000110000110100000000110st115
v 706.531189 -246.234680 107.222954
v 706.835022 -246.398285 143.088272
v 706.531189 -246.234680 143.088272
v 705.043396 -245.433380 107.222954
v 706.835022 -246.398285 104.988274
v 705.043396 -245.433380 143.088272
v 704.390381 -245.081680 143.088272
v 704.390381 -245.081680 107.222954
v 702.902588 -244.280380 107.222954
v 702.902588 -244.280380 143.088272
v 702.249634 -243.928680 143.088272
v 702.249634 -243.928680 107.222954
v 699.273987 -242.326080 107.222954
v 699.273987 -242.326080 143.088272
v 698.620972 -241.974380 143.088272
v 698.620972 -241.974380 107.222954
v 697.133179 -241.173080 107.222954
v 697.133179 -241.173080 143.088272
v 696.480225 -240.821487 143.088272
v 696.480225 -240.821487 107.222954
v 694.992432 -240.020187 107.222954
v 686.778442 -235.596283 104.988274
v 694.992432 -240.020187 143.088272
v 694.339417 -239.668488 143.088272
v 694.339417 -239.668488 107.222954
v 691.363708 -238.065887 107.222954
v 691.363708 -238.065887 143.088272
v 690.710693 -237.714188 143.088272
v 690.710693 -237.714188 107.222954
v 689.222900 -236.912888 107.222954
v 689.222900 -236.912888 143.088272
v 688.569885 -236.561188 143.088272
v 688.569885 -236.561188 107.222954
v 687.082092 -235.759888 107.222954
v 687.082092 -235.759888 143.088272
v 686.778442 -235.596283 143.088272
v 686.940491 -235.291779 107.222954
v 686.776611 -235.595383 143.088272
v 686.940491 -235.291779 143.088272
v 687.743103 -233.804688 107.222954
v 686.776611 -235.595383 104.988274
v 687.743103 -233.804688 143.088272
v 688.257996 -232.850586 143.088272
v 688.257996 -232.850586 107.222954
v 689.001099 -231.473679 104.988274
v 689.060608 -231.363480 107.222954
v 689.060608 -231.363480 143.088272
v 689.575500 -230.409378 143.088272
v 689.575500 -230.409378 107.222954
v 690.378113 -228.922287 107.222954
v 690.378113 -228.922287 143.088272
v 690.893127 -227.968185 143.088272
v 690.893127 -227.968185 107.222954
v 691.859497 -226.177490 104.988274
v 691.695679 -226.481079 107.222954
v 691.695679 -226.481079 143.088272
v 691.859497 -226.177490 143.088272
v 692.695679 -226.626083 107.222954
v 691.860291 -226.177887 143.088272
v 692.695679 -226.626083 143.088272
v 695.020325 -227.872986 104.988274
v 694.184814 -227.424881 107.222954
v 691.860291 -226.177887 104.988274
v 694.184814 -227.424881 143.088272
v 695.020325 -227.872986 143.088272
v 695.183899 -227.569290 107.222954
v 695.020325 -227.872986 143.088272
v 695.183899 -227.569290 143.088272
v 695.985413 -226.081589 107.222954
v 695.020325 -227.872986 104.988274
v 695.985413 -226.081589 143.088272
v 696.469604 -225.182678 143.088272
v 696.469604 -225.182678 107.222954
v 697.271118 -223.694992 107.222954
v 697.271118 -223.694992 143.088272
v 697.755371 -222.796082 143.088272
v 697.755371 -222.796082 107.222954
v 698.556824 -221.308380 107.222954
v 701.291870 -216.231384 104.988274
v 698.556824 -221.308380 143.088272
v 699.041138 -220.409485 143.088272
v 699.041138 -220.409485 107.222954
v 699.842529 -218.921783 107.222954
v 699.842529 -218.921783 143.088272
v 700.326782 -218.022888 143.088272
v 700.326782 -218.022888 107.222954
v 701.128174 -216.535080 107.222954
v 701.128174 -216.535080 143.088272
v 701.291870 -216.231384 143.088272
v 701.595581 -216.394989 107.222954
v 701.291870 -216.231384 143.088272
v 701.595581 -216.394989 143.088272
v 703.083374 -217.196289 107.222954
v 701.291870 -216.231384 104.988274
v 703.083374 -217.196289 143.088272
v 703.603699 -217.476578 143.088272
v 703.603699 -217.476578 107.222954
v 705.091492 -218.277878 107.222954
v 705.091492 -218.277878 143.088272
v 705.611938 -218.558090 143.088272
v 705.611938 -218.558090 107.222954
v 707.099731 -219.359390 107.222954
v 707.099731 -219.359390 143.088272
v 707.619995 -219.639679 143.088272
v 707.619995 -219.639679 107.222954
v 709.107788 -220.440979 107.222954
v 709.107788 -220.440979 143.088272
v 709.628113 -220.721283 143.088272
v 709.628113 -220.721283 107.222954
v 715.436035 -223.849289 104.988274
v 711.116028 -221.522583 107.222954
v 711.116028 -221.522583 143.088272
v 711.636292 -221.802780 143.088272
v 711.636292 -221.802780 107.222954
v 713.124084 -222.604080 107.222954
v 713.124084 -222.604080 143.088272
v 713.644409 -222.884384 143.088272
v 713.644409 -222.884384 107.222954
v 715.132202 -223.685684 107.222954
v 715.132202 -223.685684 143.088272
v 715.436035 -223.849289 143.088272
v 711.711792 -237.328583 107.222954
v 711.875183 -237.024780 143.088272
v 711.711792 -237.328583 143.088272
v 710.911499 -238.816986 107.222954
v 711.875183 -237.024780 104.988274
v 710.911499 -238.816986 143.088272
v 710.407410 -239.754379 143.088272
v 710.407410 -239.754379 107.222954
v 709.607117 -241.242783 107.222954
v 709.607117 -241.242783 143.088272
v 709.103027 -242.180283 143.088272
v 709.103027 -242.180283 107.222954
v 708.302734 -243.668579 107.222954
v 706.835022 -246.398285 104.988274
v 708.302734 -243.668579 143.088272
v 707.798706 -244.606079 143.088272
v 707.798706 -244.606079 107.222954
v 706.998413 -246.094391 107.222954
v 706.998413 -246.094391 143.088272
v 706.835022 -246.398285 143.088272
v 709.764099 -235.884079 107.222954
v 709.139709 -235.546692 143.088272
v 709.764099 -235.884079 143.088272
v 711.875183 -237.024780 104.988274
v 711.250793 -236.687378 107.222954
v 709.139709 -235.546692 104.988274
v 711.250793 -236.687378 143.088272
v 711.875183 -237.024780 143.088272
v 715.272400 -224.153091 107.222954
v 715.436035 -223.849289 143.088272
v 715.272400 -224.153091 143.088272
v 714.471497 -225.641083 107.222954
v 715.436035 -223.849289 104.988274
v 714.471497 -225.641083 143.088272
v 713.980408 -226.553482 143.088272
v 713.980408 -226.553482 107.222954
v 713.179443 -228.041489 107.222954
v 713.179443 -228.041489 143.088272
v 712.688293 -228.953979 143.088272
v 712.688293 -228.953979 107.222954
v 711.887390 -230.441986 107.222954
v 709.139709 -235.546692 104.988274
v 711.887390 -230.441986 143.088272
v 711.396240 -231.354492 143.088272
v 711.396240 -231.354492 107.222954
v 710.595337 -232.842484 107.222954
v 710.595337 -232.842484 143.088272
v 710.104187 -233.754883 143.088272
v 710.104187 -233.754883 107.222954
v 709.303223 -235.242889 107.222954
v 709.303223 -235.242889 143.088272
v 709.139709 -235.546692 143.088272
vt 8.298251 0.880140
vt 9.112191 0.000000
vt 8.974190 0.880140
vt 9.112191 15.005910
vt 8.298251 15.005910
vt 8.001570 15.005910
vt 8.001570 0.880140
vt 7.325620 0.880140
vt 7.325620 15.005910
vt 7.028950 15.005910
vt 7.028950 0.880140
vt 5.677060 0.880140
vt 5.677060 15.005910
vt 5.380380 15.005910
vt 5.380380 0.880140
vt 4.704430 0.880140
vt 4.704430 15.005910
vt 4.407760 15.005910
vt 4.407760 0.880140
vt 3.731810 0.880140
vt 0.000000 0.000000
vt 3.731810 15.005910
vt 3.435140 15.005910
vt 3.435140 0.880140
vt 2.083240 0.880140
vt 2.083240 15.005910
vt 1.786570 15.005910
vt 1.786570 0.880140
vt 1.110620 0.880140
vt 1.110620 15.005910
vt 0.813950 15.005910
vt 0.813950 0.880140
vt 0.138000 0.880140
vt 0.138000 15.005910
vt 0.000000 15.005910
vt 4.142790 0.880140
vt 4.280790 15.005910
vt 4.142790 15.005910
vt 3.466840 0.880140
vt 4.280790 0.000000
vt 3.466840 15.005910
vt 3.033170 15.005910
vt 3.033170 0.880140
vt 2.407320 0.000000
vt 2.357230 0.880140
vt 2.357230 15.005910
vt 1.923560 15.005910
vt 1.923560 0.880140
vt 1.247610 0.880140
vt 1.247610 15.005910
vt 0.813950 15.005910
vt 0.813950 0.880140
vt 0.000000 0.000000
vt 0.138000 0.880140
vt 0.138000 15.005910
vt 0.000000 15.005910
vt 1.055170 0.880140
vt 1.434400 15.005910
vt 1.055170 15.005910
vt 0.000000 0.000000
vt 0.379220 0.880140
vt 1.434400 0.000000
vt 0.379220 15.005910
vt 0.000000 15.005910
vt 5.151390 0.880140
vt 5.289390 15.005910
vt 5.151390 15.005910
vt 4.475440 0.880140
vt 5.289390 0.000000
vt 4.475440 15.005910
vt 4.067030 15.005910
vt 4.067030 0.880140
vt 3.391080 0.880140
vt 3.391080 15.005910
vt 2.982670 15.005910
vt 2.982670 0.880140
vt 2.306720 0.880140
vt 0.000000 0.000000
vt 2.306720 15.005910
vt 1.898310 15.005910
vt 1.898310 0.880140
vt 1.222360 0.880140
vt 1.222360 15.005910
vt 0.813950 15.005910
vt 0.813950 0.880140
vt 0.138000 0.880140
vt 0.138000 15.005910
vt 0.000000 15.005910
vt 6.288040 0.880140
vt 6.426040 15.005910
vt 6.288040 15.005910
vt 5.612090 0.880140
vt 6.426040 0.000000
vt 5.612090 15.005910
vt 5.375690 15.005910
vt 5.375690 0.880140
vt 4.699740 0.880140
vt 4.699740 15.005910
vt 4.463340 15.005910
vt 4.463340 0.880140
vt 3.787390 0.880140
vt 3.787390 15.005910
vt 3.550990 15.005910
vt 3.550990 0.880140
vt 2.875050 0.880140
vt 2.875050 15.005910
vt 2.638640 15.005910
vt 2.638640 0.880140
vt 0.000000 0.000000
vt 1.962700 0.880140
vt 1.962700 15.005910
vt 1.726300 15.005910
vt 1.726300 0.880140
vt 1.050350 0.880140
vt 1.050350 15.005910
vt 0.813950 15.005910
vt 0.813950 0.880140
vt 0.138000 0.880140
vt 0.138000 15.005910
vt 0.000000 15.005910
vt 4.119070 0.880140
vt 4.257070 15.005910
vt 4.119070 15.005910
vt 3.443120 0.880140
vt 4.257070 0.000000
vt 3.443120 15.005910
vt 3.017360 15.005910
vt 3.017360 0.880140
vt 2.341410 0.880140
vt 2.341410 15.005910
vt 1.915660 15.005910
vt 1.915660 0.880140
vt 1.239710 0.880140
vt 0.000000 0.000000
vt 1.239710 15.005910
vt 0.813950 15.005910
vt 0.813950 0.880140
vt 0.138000 0.880140
vt 0.138000 15.005910
vt 0.000000 15.005910
vt 0.959820 0.880140
vt 1.243680 15.005910
vt 0.959820 15.005910
vt 0.000000 0.000000
vt 0.283870 0.880140
vt 1.243680 0.000000
vt 0.283870 15.005910
vt 0.000000 15.005910
vt 5.175720 0.880140
vt 5.313720 15.005910
vt 5.175720 15.005910
vt 4.499770 0.880140
vt 5.313720 0.000000
vt 4.499770 15.005910
vt 4.085280 15.005910
vt 4.085280 0.880140
vt 3.409330 0.880140
vt 3.409330 15.005910
vt 2.994830 15.005910
vt 2.994830 0.880140
vt 2.318890 0.880140
vt 0.000000 0.000000
vt 2.318890 15.005910
vt 1.904390 15.005910
vt 1.904390 0.880140
vt 1.228440 0.880140
vt 1.228440 15.005910
vt 0.813950 15.005910
vt 0.813950 0.880140
vt 0.138000 0.880140
vt 0.138000 15.005910
vt 0.000000 15.005910
vt 8.974190 15.005910
vn -0.4742 -0.8804 -0.0000
vn -0.4743 -0.8804 0.0000
vn -0.4742 -0.8804 -0.0001
vn -0.4743 -0.8804 -0.0001
vn -0.4742 -0.8804 0.0001
vn -0.4740 -0.8805 0.0000
vn -0.4741 -0.8805 0.0000
vn -0.4741 -0.8804 -0.0001
vn -0.4745 -0.8803 0.0000
vn -0.8799 0.4751 0.0000
vn -0.8800 0.4750 0.0000
vn -0.8801 0.4749 0.0000
vn -0.8800 0.4749 -0.0000
vn -0.8799 0.4751 0.0001
vn -0.8801 0.4748 0.0000
vn 0.4727 0.8812 0.0000
vn 0.4728 0.8812 0.0000
vn 0.4726 0.8813 0.0000
vn -0.8804 0.4742 0.0000
vn -0.8804 0.4743 -0.0000
vn -0.8804 0.4743 0.0001
vn -0.8804 0.4743 -0.0001
vn -0.8804 0.4742 0.0001
vn -0.8803 0.4743 0.0000
vn -0.8804 0.4743 -0.0002
vn -0.8803 0.4745 0.0000
vn -0.8805 0.4740 0.0000
vn 0.4742 0.8804 0.0000
vn 0.4743 0.8804 0.0000
vn 0.4741 0.8805 0.0000
vn 0.4740 0.8805 0.0000
vn 0.4744 0.8803 0.0000
vn 0.4742 0.8804 -0.0004
vn 0.4742 0.8804 0.0001
vn 0.4742 0.8804 -0.0001
vn 0.4741 0.8804 0.0000
vn 0.8807 -0.4736 0.0000
vn 0.8808 -0.4736 0.0000
vn 0.8807 -0.4738 0.0000
vn 0.8808 -0.4736 0.0001
vn 0.8808 -0.4734 -0.0001
vn 0.8809 -0.4733 0.0000
vn 0.8807 -0.4737 0.0000
vn 0.4754 0.8798 0.0000
vn 0.8803 -0.4744 0.0000
vn 0.8805 -0.4740 0.0000
vn 0.8806 -0.4740 0.0000
vn 0.8806 -0.4739 0.0001
vn 0.8806 -0.4739 0.0000
vn 0.8805 -0.4741 0.0001
vn 0.8805 -0.4740 -0.0001
vn 0.8805 -0.4741 0.0000
vn 0.8806 -0.4738 0.0000
vn -0.4742 -0.8804 0.0003
vn -0.8801 0.4747 0.0000
vn 0.4741 0.8805 -0.0003
s off
f 4/1/1 5/2/1 1/3/1
f 2/4/2 1/3/2 5/2/2
f 6/5/1 7/6/1 4/1/1
f 7/6/1 8/7/1 4/1/1
f 8/7/3 9/8/3 5/2/3
f 10/9/1 11/10/1 9/8/1
f 11/10/1 12/11/1 9/8/1
f 9/8/4 12/11/4 5/2/4
f 12/11/5 13/12/5 5/2/5
f 14/13/1 15/14/1 13/12/1
f 15/14/1 16/15/1 13/12/1
f 13/12/2 16/15/2 5/2/2
f 16/15/3 17/16/3 5/2/3
f 18/17/6 19/18/6 17/16/6
f 19/18/7 20/19/7 17/16/7
f 21/20/1 22/21/1 20/19/1
f 20/19/1 22/21/1 5/2/1
f 23/22/1 24/23/1 21/20/1
f 24/23/1 25/24/1 21/20/1
f 25/24/2 22/21/2 21/20/2
f 26/25/8 22/21/8 25/24/8
f 27/26/1 28/27/1 26/25/1
f 28/27/1 29/28/1 26/25/1
f 29/28/1 22/21/1 26/25/1
f 30/29/1 22/21/1 29/28/1
f 31/30/1 32/31/1 30/29/1
f 32/31/1 33/32/1 30/29/1
f 34/33/1 22/21/1 33/32/1
f 35/34/9 36/35/9 34/33/9
f 36/35/1 22/21/1 34/33/1
f 37/36/10 38/37/10 39/38/10
f 40/39/11 41/40/11 37/36/11
f 42/41/11 43/42/11 40/39/11
f 43/42/12 44/43/12 40/39/12
f 44/43/13 45/44/13 40/39/13
f 40/39/13 45/44/13 41/40/13
f 44/43/11 46/45/11 45/44/11
f 47/46/12 48/47/12 46/45/12
f 48/47/11 49/48/11 46/45/11
f 46/45/13 49/48/13 45/44/13
f 49/48/13 50/49/13 45/44/13
f 51/50/11 52/51/11 50/49/11
f 52/51/11 53/52/11 50/49/11
f 53/52/14 54/53/14 50/49/14
f 50/49/11 54/53/11 45/44/11
f 55/54/12 54/53/12 53/52/12
f 56/55/10 57/56/10 55/54/10
f 57/56/15 54/53/15 55/54/15
f 58/57/16 59/58/16 60/59/16
f 61/60/16 58/57/16 62/61/16
f 61/60/16 63/62/16 58/57/16
f 59/58/17 58/57/17 63/62/17
f 64/63/16 65/64/16 62/61/16
f 65/64/18 61/60/18 62/61/18
f 66/65/19 67/66/19 68/67/19
f 69/68/20 70/69/20 66/65/20
f 71/70/20 72/71/20 69/68/20
f 72/71/19 73/72/19 69/68/19
f 73/72/21 70/69/21 69/68/21
f 73/72/22 74/73/22 70/69/22
f 75/74/20 76/75/20 74/73/20
f 76/75/20 77/76/20 74/73/20
f 74/73/23 77/76/23 70/69/23
f 78/77/19 79/78/19 77/76/19
f 77/76/20 79/78/20 70/69/20
f 80/79/20 81/80/20 78/77/20
f 81/80/24 82/81/24 78/77/24
f 82/81/25 79/78/25 78/77/25
f 83/82/19 79/78/19 82/81/19
f 84/83/24 85/84/24 83/82/24
f 85/84/20 86/85/20 83/82/20
f 86/85/20 79/78/20 83/82/20
f 87/86/19 79/78/19 86/85/19
f 88/87/26 89/88/26 87/86/26
f 89/88/27 79/78/27 87/86/27
f 90/89/28 91/90/28 92/91/28
f 93/92/28 94/93/28 90/89/28
f 91/90/29 90/89/29 94/93/29
f 95/94/29 96/95/29 93/92/29
f 96/95/28 97/96/28 93/92/28
f 97/96/29 94/93/29 93/92/29
f 97/96/28 98/97/28 94/93/28
f 99/98/30 100/99/30 98/97/30
f 100/99/31 101/100/31 98/97/31
f 98/97/28 101/100/28 94/93/28
f 101/100/28 102/101/28 94/93/28
f 103/102/29 104/103/29 102/101/29
f 104/103/32 105/104/32 102/101/32
f 102/101/33 105/104/33 94/93/33
f 105/104/34 106/105/34 94/93/34
f 107/106/29 108/107/29 106/105/29
f 108/107/28 109/108/28 106/105/28
f 106/105/28 110/109/28 94/93/28
f 111/110/35 110/109/35 109/108/35
f 112/111/28 113/112/28 111/110/28
f 113/112/28 114/113/28 111/110/28
f 114/113/28 110/109/28 111/110/28
f 115/114/28 110/109/28 114/113/28
f 116/115/28 117/116/28 115/114/28
f 117/116/31 118/117/31 115/114/31
f 118/117/34 110/109/34 115/114/34
f 119/118/28 110/109/28 118/117/28
f 120/119/30 121/120/30 119/118/30
f 121/120/36 110/109/36 119/118/36
f 122/121/37 123/122/37 124/123/37
f 125/124/38 126/125/38 122/121/38
f 123/122/39 122/121/39 126/125/39
f 127/126/37 128/127/37 125/124/37
f 128/127/37 129/128/37 125/124/37
f 129/128/37 126/125/37 125/124/37
f 129/128/40 130/129/40 126/125/40
f 131/130/38 132/131/38 130/129/38
f 132/131/37 133/132/37 130/129/37
f 130/129/38 133/132/38 126/125/38
f 134/133/38 135/134/38 133/132/38
f 133/132/37 135/134/37 126/125/37
f 136/135/38 137/136/38 134/133/38
f 137/136/38 138/137/38 134/133/38
f 138/137/41 135/134/41 134/133/41
f 139/138/37 135/134/37 138/137/37
f 140/139/42 141/140/42 139/138/42
f 141/140/43 135/134/43 139/138/43
f 142/141/44 143/142/44 144/143/44
f 145/144/44 142/141/44 146/145/44
f 145/144/44 147/146/44 142/141/44
f 143/142/44 142/141/44 147/146/44
f 148/147/44 149/148/44 146/145/44
f 149/148/44 145/144/44 146/145/44
f 150/149/45 151/150/45 152/151/45
f 153/152/46 154/153/46 150/149/46
f 151/150/46 150/149/46 154/153/46
f 155/154/47 156/155/47 153/152/47
f 156/155/47 157/156/47 153/152/47
f 157/156/48 154/153/48 153/152/48
f 157/156/46 158/157/46 154/153/46
f 159/158/46 160/159/46 158/157/46
f 160/159/49 161/160/49 158/157/49
f 158/157/50 161/160/50 154/153/50
f 162/161/46 163/162/46 161/160/46
f 161/160/46 163/162/46 154/153/46
f 164/163/49 165/164/49 162/161/49
f 165/164/46 166/165/46 162/161/46
f 166/165/51 163/162/51 162/161/51
f 167/166/49 163/162/49 166/165/49
f 168/167/46 169/168/46 167/166/46
f 169/168/47 170/169/47 167/166/47
f 170/169/46 163/162/46 167/166/46
f 171/170/46 163/162/46 170/169/46
f 172/171/52 173/172/52 171/170/52
f 173/172/53 163/162/53 171/170/53
s 1
f 1/3/1 2/4/1 3/173/1
f 8/7/7 5/2/7 4/1/7
f 17/16/54 20/19/54 5/2/54
f 33/32/1 22/21/1 30/29/1
f 38/37/55 37/36/55 41/40/55
f 67/66/19 66/65/19 70/69/19
f 109/108/56 110/109/56 106/105/56
