# Blender v3.0.1 OBJ File: 'rockerfeller_plaza.blend'
# www.blender.org
o geometryt000010000010000110010110000110000110100000100000st20_U
v 447.562744 -142.535858 339.483063
v 447.898926 -142.713760 385.664673
v 447.562744 -142.535858 385.664673
v 395.478821 -114.960556 339.483063
v 447.898926 -142.713760 337.664673
v 395.478821 -114.960556 385.664673
v 395.142639 -114.782555 385.664673
v 395.142639 -114.782555 337.664673
v 395.521240 -114.084152 339.483063
v 395.142639 -114.782555 385.664673
v 395.521240 -114.084152 385.664673
v 398.731140 -108.162956 339.483063
v 395.142639 -114.782555 337.664673
v 398.731140 -108.162956 385.664673
v 399.109741 -107.464554 385.664673
v 399.109741 -107.464554 337.664673
v 399.472656 -106.781258 402.664673
v 399.472656 -106.781258 339.483063
v 399.109741 -107.464554 385.664673
v 399.109741 -107.464554 402.664673
v 417.209839 -73.381424 337.664673
v 416.846924 -74.064713 339.483063
v 399.109741 -107.464554 337.664673
v 416.846924 -74.064713 402.664673
v 417.209839 -73.381424 385.664673
v 417.209839 -73.381424 402.664673
v 455.246033 -137.041061 402.664673
v 455.246033 -137.041061 339.483063
v 456.264038 -137.576553 385.664673
v 456.264038 -137.576553 402.664673
v 451.864441 -135.262558 337.664673
v 452.265533 -135.473450 339.483063
v 456.264038 -137.576553 337.664673
v 452.265533 -135.473450 386.869263
v 451.864441 -135.262558 385.664673
v 400.106842 -108.039856 386.869263
v 400.106842 -108.039856 402.664673
v 399.088837 -107.504356 402.664673
v 399.088837 -107.504356 385.664673
v 417.647949 -72.572205 339.483063
v 417.209839 -73.381424 385.664673
v 417.647949 -72.572205 385.664673
v 421.292419 -65.839996 337.664673
v 420.854431 -66.649216 339.483063
v 417.209839 -73.381424 337.664673
v 420.854431 -66.649216 385.664673
v 421.292419 -65.839996 385.664673
v 417.198029 -73.403862 402.664673
v 418.215820 -73.939568 402.664673
v 418.215820 -73.939568 386.869263
v 470.366333 -101.388756 386.869263
v 444.428040 -87.736214 385.664673
v 417.198029 -73.403862 385.664673
v 470.366333 -101.388756 339.483063
v 469.947449 -101.168251 385.664673
v 454.182831 -92.870621 385.664673
v 469.947449 -101.168251 337.664673
v 473.346313 -102.957253 339.483063
v 473.346313 -102.957253 402.664673
v 474.364136 -103.492950 385.664673
v 474.364136 -103.492950 337.664673
v 474.364136 -103.492950 402.664673
v 422.322449 -66.376526 339.483063
v 421.292419 -65.839996 385.664673
v 422.322449 -66.376526 385.664673
v 453.682831 -82.712173 339.483063
v 421.292419 -65.839996 337.664673
v 453.682831 -82.712173 385.664673
v 454.712830 -83.248703 385.664673
v 454.712830 -83.248703 337.664673
v 451.463837 -136.015350 339.483063
v 451.864441 -135.262558 385.664673
v 451.463837 -136.015350 385.664673
v 448.299622 -141.960953 339.483063
v 451.864441 -135.262558 337.664673
v 448.299622 -141.960953 385.664673
v 447.898926 -142.713760 385.664673
v 447.898926 -142.713760 337.664673
v 455.066650 -139.821655 502.664673
v 455.066650 -139.821655 339.483063
v 454.661438 -140.581360 502.664673
v 455.859039 -138.335953 339.483063
v 454.661438 -140.581360 337.664673
v 455.859039 -138.335953 502.664673
v 456.264221 -137.576157 402.664673
v 456.264221 -137.576157 385.664673
v 456.264221 -137.576157 337.664673
v 456.264221 -137.576157 502.664673
v 500.028137 -164.553848 339.483063
v 500.732727 -164.926056 502.664673
v 500.028137 -164.553848 502.664673
v 455.365936 -140.953552 339.483063
v 500.732727 -164.926056 337.664673
v 455.365936 -140.953552 502.664673
v 454.661438 -140.581360 502.664673
v 454.661438 -140.581360 337.664673
v 455.443939 -83.645065 339.483063
v 454.712830 -83.248703 385.664673
v 455.443939 -83.645065 385.664673
v 473.937622 -93.672394 337.664673
v 473.206635 -93.276031 339.483063
v 454.712830 -83.248703 337.664673
v 473.206635 -93.276031 385.664673
v 473.937622 -93.672394 385.664673
v 456.627014 -136.892853 502.664673
v 456.627014 -136.892853 402.664673
v 456.264221 -137.576157 402.664673
v 456.264221 -137.576157 502.664673
v 474.364136 -103.492950 502.664673
v 474.364136 -103.492950 402.664673
v 474.001221 -104.176254 402.664673
v 474.001221 -104.176254 502.664673
v 473.524933 -94.447701 339.483063
v 473.937622 -93.672394 385.664673
v 473.524933 -94.447701 385.664673
v 469.947449 -101.168358 337.664673
v 470.360138 -100.393051 339.483063
v 473.937622 -93.672394 337.664673
v 470.360138 -100.393051 385.664673
v 469.947449 -101.168358 385.664673
v 474.801239 -102.676651 502.664673
v 474.801239 -102.676651 339.483063
v 474.364136 -103.492950 402.664673
v 474.364136 -103.492950 502.664673
v 476.033142 -100.376053 337.664673
v 475.596039 -101.192253 339.483063
v 474.364136 -103.492950 337.664673
v 474.364136 -103.492950 385.664673
v 475.596039 -101.192253 502.664673
v 476.033142 -100.376053 502.664673
v 476.749756 -100.754654 339.483063
v 476.033142 -100.376053 502.664673
v 476.749756 -100.754654 502.664673
v 521.413147 -124.352852 339.483063
v 476.033142 -100.376053 337.664673
v 521.413147 -124.352852 502.664673
v 522.129761 -124.731453 502.664673
v 522.129761 -124.731453 337.664673
v 521.717163 -125.506454 339.483063
v 522.129761 -124.731453 502.664673
v 521.717163 -125.506454 502.664673
v 501.145233 -164.151047 339.483063
v 522.129761 -124.731453 337.664673
v 501.145233 -164.151047 502.664673
v 500.732727 -164.926056 502.664673
v 500.732727 -164.926056 337.664673
vt 51.532299 1.579840
vt 51.862782 41.702869
vt 51.532299 41.702869
vt 0.330480 1.579840
vt 51.862782 0.000000
vt 0.330480 41.702869
vt 0.000000 41.702869
vt 0.000000 0.000000
vt 6.541860 1.579840
vt 7.232090 41.702869
vt 6.541860 41.702869
vt 0.690230 1.579840
vt 7.232090 0.000000
vt 0.690230 41.702869
vt 0.000000 41.702869
vt 0.000000 0.000000
vt 32.856159 56.472630
vt 32.856159 1.579840
vt 33.528320 41.702869
vt 33.528320 56.472630
vt 0.000000 0.000000
vt 0.672160 1.579840
vt 33.528320 0.000000
vt 0.672160 56.472630
vt 0.000000 41.702869
vt 0.000000 56.472630
vt 55.126980 56.472630
vt 55.126980 1.579840
vt 56.126320 41.702869
vt 56.126320 56.472630
vt 51.807480 0.000000
vt 52.201160 1.579840
vt 56.126320 0.000000
vt 52.201160 42.749439
vt 51.807480 41.702869
vt 0.999340 42.749439
vt 0.999340 56.472630
vt 0.000000 56.472630
vt 0.000000 41.702869
vt 6.651100 1.579840
vt 7.450570 41.702869
vt 6.651100 41.702869
vt 0.000000 0.000000
vt 0.799470 1.579840
vt 7.450570 0.000000
vt 0.799470 41.702869
vt 0.000000 41.702869
vt 56.126129 56.472630
vt 55.126881 56.472630
vt 55.126881 42.749439
vt 3.925070 42.749439
vt 29.391529 41.702869
vt 56.126129 41.702869
vt 3.925070 1.579840
vt 4.336310 41.702869
vt 19.814150 41.702869
vt 4.336310 0.000000
vt 0.999250 1.579840
vt 0.999250 56.472630
vt 0.000000 41.702869
vt 0.000000 0.000000
vt 0.000000 56.472630
vt 31.730089 1.579840
vt 32.739101 41.702869
vt 31.730089 41.702869
vt 1.009010 1.579840
vt 32.739101 0.000000
vt 1.009010 41.702869
vt 0.000000 41.702869
vt 0.000000 0.000000
vt 6.592530 1.579840
vt 7.333420 41.702869
vt 6.592530 41.702869
vt 0.740890 1.579840
vt 7.333420 0.000000
vt 0.740890 41.702869
vt 0.000000 41.702869
vt 0.000000 0.000000
vt 2.210970 143.353607
vt 2.210970 1.579840
vt 2.959030 143.353607
vt 0.748060 1.579840
vt 2.959030 0.000000
vt 0.748060 143.353607
vt 0.000000 56.472630
vt 0.000000 41.702869
vt 0.000000 0.000000
vt 0.000000 143.353607
vt 44.579559 1.579840
vt 45.271851 143.353607
vt 44.579559 143.353607
vt 0.692290 1.579840
vt 45.271851 0.000000
vt 0.692290 143.353607
vt 0.000000 143.353607
vt 0.000000 0.000000
vt 18.277370 1.579840
vt 18.999840 41.702869
vt 18.277370 41.702869
vt 0.000000 0.000000
vt 0.722470 1.579840
vt 18.999840 0.000000
vt 0.722470 41.702869
vt 0.000000 41.702869
vt 32.856178 86.880966
vt 32.856178 0.000000
vt 33.528358 0.000000
vt 33.528358 86.880966
vt 0.000000 86.880966
vt 0.000000 0.000000
vt 0.672180 0.000000
vt 0.672180 86.880966
vt 6.614730 1.579840
vt 7.377820 41.702869
vt 6.614730 41.702869
vt 0.000000 0.000000
vt 0.763090 1.579840
vt 7.377820 0.000000
vt 0.763090 41.702869
vt 0.000000 41.702869
vt 2.267360 143.353607
vt 2.267360 1.579840
vt 3.071810 56.472630
vt 3.071810 143.353607
vt 0.000000 0.000000
vt 3.071810 0.000000
vt 3.071810 41.702869
vt 0.804450 1.579840
vt 0.804450 143.353607
vt 0.000000 143.353607
vt 44.591431 1.579840
vt 45.295601 143.353607
vt 44.591431 143.353607
vt 0.704170 1.579840
vt 45.295601 0.000000
vt 0.704170 143.353607
vt 0.000000 143.353607
vt 0.000000 0.000000
vt 38.798470 1.579840
vt 39.561298 143.353607
vt 38.798470 143.353607
vt 0.762830 1.579840
vt 39.561298 0.000000
vt 0.762830 143.353607
vt 0.000000 143.353607
vt 0.000000 0.000000
vn -0.4680 -0.8837 -0.0000
vn -0.4679 -0.8838 -0.0000
vn -0.4682 -0.8836 0.0000
vn -0.8791 0.4766 0.0000
vn -0.8792 0.4765 0.0000
vn -0.8832 0.4691 0.0000
vn -0.8832 0.4690 0.0000
vn -0.8831 0.4691 0.0000
vn -0.4655 -0.8850 0.0000
vn -0.4655 -0.8851 0.0000
vn -0.4654 -0.8851 0.0000
vn -0.4653 -0.8851 0.0000
vn -0.4655 -0.8851 0.0001
vn -0.4656 -0.8850 0.0000
vn -0.4655 -0.8850 -0.0001
vn -0.8794 0.4761 0.0000
vn -0.8795 0.4759 0.0000
vn 0.4657 0.8849 0.0000
vn 0.4658 0.8849 0.0000
vn 0.4620 0.8869 0.0000
vn 0.8828 -0.4698 0.0000
vn 0.8827 -0.4699 0.0000
vn -0.8823 0.4706 0.0000
vn -0.8824 0.4706 0.0000
vn -0.8824 0.4704 0.0000
vn -0.8824 0.4705 0.0000
vn -0.4671 -0.8842 0.0000
vn -0.4672 -0.8841 -0.0000
vn -0.4672 -0.8842 0.0000
vn 0.4766 0.8791 0.0000
vn 0.4767 0.8791 -0.0000
vn -0.8816 0.4720 0.0000
vn -0.8816 0.4721 0.0000
vn -0.8815 0.4721 0.0000
vn -0.8817 0.4718 0.0000
vn 0.4671 0.8842 0.0000
vn 0.4672 0.8842 -0.0000
vn 0.8827 -0.4700 0.0000
s off
f 1/1/1 2/2/1 3/3/1
f 4/4/2 5/5/2 1/1/2
f 2/2/3 1/1/3 5/5/3
f 6/6/2 7/7/2 4/4/2
f 7/7/1 8/8/1 4/4/1
f 8/8/2 5/5/2 4/4/2
f 9/9/4 10/10/4 11/11/4
f 12/12/4 13/13/4 9/9/4
f 10/10/4 9/9/4 13/13/4
f 14/14/4 15/15/4 12/12/4
f 15/15/5 16/16/5 12/12/5
f 16/16/4 13/13/4 12/12/4
f 17/17/6 18/18/6 19/19/6
f 19/19/7 20/20/7 17/17/7
f 21/21/7 18/18/7 22/22/7
f 21/21/7 23/23/7 18/18/7
f 19/19/6 18/18/6 23/23/6
f 22/22/6 24/24/6 25/25/6
f 25/25/7 21/21/7 22/22/7
f 24/24/8 26/26/8 25/25/8
f 27/27/9 28/28/9 29/29/9
f 27/27/9 29/29/9 30/30/9
f 31/31/9 28/28/9 32/32/9
f 31/31/10 33/33/10 28/28/10
f 28/28/9 33/33/9 29/29/9
f 32/32/11 34/34/11 35/35/11
f 35/35/12 31/31/12 32/32/12
f 34/34/13 36/36/13 35/35/13
f 37/37/14 38/38/14 36/36/14
f 38/38/9 39/39/9 36/36/9
f 39/39/15 35/35/15 36/36/15
f 40/40/16 41/41/16 42/42/16
f 43/43/16 40/40/16 44/44/16
f 43/43/16 45/45/16 40/40/16
f 41/41/16 40/40/16 45/45/16
f 46/46/16 47/47/16 44/44/16
f 47/47/17 43/43/17 44/44/17
f 48/48/18 49/49/18 50/50/18
f 50/50/19 51/51/19 52/52/19
f 53/53/18 50/50/18 52/52/18
f 48/48/19 50/50/19 53/53/19
f 51/51/19 54/54/19 55/55/19
f 55/55/19 56/56/19 51/51/19
f 52/52/19 51/51/19 56/56/19
f 57/57/19 54/54/19 58/58/19
f 57/57/19 55/55/19 54/54/19
f 58/58/18 59/59/18 60/60/18
f 61/61/18 58/58/18 60/60/18
f 61/61/19 57/57/19 58/58/19
f 60/60/19 59/59/19 62/62/19
f 63/63/20 64/64/20 65/65/20
f 66/66/20 67/67/20 63/63/20
f 64/64/20 63/63/20 67/67/20
f 68/68/20 69/69/20 66/66/20
f 69/69/20 70/70/20 66/66/20
f 70/70/20 67/67/20 66/66/20
f 71/71/21 72/72/21 73/73/21
f 74/74/21 75/75/21 71/71/21
f 72/72/21 71/71/21 75/75/21
f 76/76/22 77/77/22 74/74/22
f 77/77/21 78/78/21 74/74/21
f 78/78/21 75/75/21 74/74/21
f 79/79/23 80/80/23 81/81/23
f 82/82/23 83/83/23 80/80/23
f 81/81/24 80/80/24 83/83/24
f 82/82/24 84/84/24 85/85/24
f 82/82/25 85/85/25 86/86/25
f 86/86/24 87/87/24 82/82/24
f 87/87/23 83/83/23 82/82/23
f 84/84/26 88/88/26 85/85/26
f 89/89/27 90/90/27 91/91/27
f 92/92/28 93/93/28 89/89/28
f 90/90/27 89/89/27 93/93/27
f 94/94/29 95/95/29 92/92/29
f 95/95/27 96/96/27 92/92/27
f 96/96/29 93/93/29 92/92/29
f 97/97/30 98/98/30 99/99/30
f 100/100/31 97/97/31 101/101/31
f 100/100/30 102/102/30 97/97/30
f 98/98/30 97/97/30 102/102/30
f 103/103/30 104/104/30 101/101/30
f 104/104/31 100/100/31 101/101/31
f 105/105/7 106/106/7 107/107/7
f 105/105/7 107/107/7 108/108/7
f 109/109/7 110/110/7 111/111/7
f 109/109/8 111/111/8 112/112/8
f 113/113/21 114/114/21 115/115/21
f 116/116/22 113/113/22 117/117/22
f 116/116/22 118/118/22 113/113/22
f 114/114/22 113/113/22 118/118/22
f 119/119/22 120/120/22 117/117/22
f 120/120/22 116/116/22 117/117/22
f 121/121/32 122/122/32 123/123/32
f 123/123/33 124/124/33 121/121/33
f 125/125/32 127/126/32 122/122/32
f 128/127/34 122/122/34 127/126/34
f 123/123/35 122/122/35 128/127/35
f 126/128/32 129/129/32 130/130/32
f 126/128/34 130/130/34 125/125/34
f 131/131/36 132/132/36 133/133/36
f 134/134/37 135/135/37 131/131/37
f 132/132/37 131/131/37 135/135/37
f 136/136/36 137/137/36 134/134/36
f 137/137/36 138/138/36 134/134/36
f 138/138/37 135/135/37 134/134/37
f 139/139/22 140/140/22 141/141/22
f 142/142/22 143/143/22 139/139/22
f 140/140/38 139/139/38 143/143/38
f 144/144/22 145/145/22 142/142/22
f 145/145/21 146/146/21 142/142/21
f 146/146/22 143/143/22 142/142/22
s 1
f 125/125/32 122/122/32 126/128/32
