# Blender v3.0.1 OBJ File: 'rockerfeller_plaza.blend'
# www.blender.org
o geometryt000010000010000110010110000110000110100000100110st132
v 523.015564 -267.021423 714.953186
v 522.856934 -267.900421 714.953186
v 522.856934 -267.900421 717.953186
v 523.015564 -267.021423 717.953186
v 522.856934 -267.900421 714.953186
v 523.052673 -268.764099 714.953186
v 523.052673 -268.764099 717.953186
v 522.856934 -267.900421 717.953186
v 523.496521 -266.272003 714.953186
v 523.015564 -267.021423 714.953186
v 523.015564 -267.021423 717.953186
v 523.496521 -266.272003 717.953186
v 523.052673 -268.764099 714.953186
v 523.567810 -269.501923 714.953186
v 523.567810 -269.501923 717.953186
v 523.052673 -268.764099 717.953186
v 523.549683 -266.234894 714.953186
v 523.496521 -266.272003 714.953186
v 523.496521 -266.272003 717.953186
v 524.225037 -265.763916 714.953186
v 524.225037 -265.763916 717.953186
v 523.567810 -269.501923 714.953186
v 524.316162 -269.970612 717.953186
v 523.567810 -269.501923 717.953186
v 524.316162 -269.970612 714.953186
v 525.100891 -265.576111 714.953186
v 524.225037 -265.763916 714.953186
v 524.225037 -265.763916 717.953186
v 525.100891 -265.576111 717.953186
v 524.316162 -269.970612 714.953186
v 525.195984 -270.126923 717.953186
v 524.316162 -269.970612 717.953186
v 525.195984 -270.126923 714.953186
v 525.980591 -265.721313 714.953186
v 525.100891 -265.576111 714.953186
v 525.100891 -265.576111 717.953186
v 525.980591 -265.721313 717.953186
v 525.195984 -270.126923 714.953186
v 526.071838 -269.939117 714.953186
v 526.071838 -269.939117 717.953186
v 525.195984 -270.126923 717.953186
v 526.737488 -266.201019 714.953186
v 525.980591 -265.721313 714.953186
v 525.980591 -265.721313 717.953186
v 526.737488 -266.201019 717.953186
v 526.071838 -269.939117 714.953186
v 526.492615 -269.645599 714.953186
v 526.800415 -269.431000 717.953186
v 526.800415 -269.431000 714.953186
v 526.071838 -269.939117 717.953186
v 527.244202 -266.938995 714.953186
v 526.737488 -266.201019 714.953186
v 526.737488 -266.201019 717.953186
v 527.244202 -266.938995 717.953186
v 526.800415 -269.431000 714.953186
v 527.281311 -268.681610 714.953186
v 527.281311 -268.681610 717.953186
v 526.800415 -269.431000 717.953186
v 527.439941 -267.802704 714.953186
v 527.244202 -266.938995 714.953186
v 527.244202 -266.938995 717.953186
v 527.439941 -267.802704 717.953186
v 527.281311 -268.681610 714.953186
v 527.439941 -267.802704 717.953186
v 527.281311 -268.681610 717.953186
v 527.439941 -267.802704 714.953186
vt 0.000000 0.000000
vt 0.460850 0.000000
vt 0.460850 1.547990
vt 0.000000 1.547990
vt 0.000000 0.000000
vt 0.456970 0.000000
vt 0.456970 1.547990
vt 0.000000 1.547990
vt 0.000000 0.000000
vt 0.459490 0.000000
vt 0.459490 1.547990
vt 0.000000 1.547990
vt 0.000000 0.000000
vt 0.464330 0.000000
vt 0.464330 1.547990
vt 0.000000 1.547990
vt 0.424870 0.000000
vt 0.458320 0.000000
vt 0.458320 1.547990
vt 0.000000 0.000000
vt 0.000000 0.000000
vt 0.455640 1.547990
vt 0.000000 1.547990
vt 0.455640 0.000000
vt 0.000000 0.000000
vt 0.462190 0.000000
vt 0.462190 1.547990
vt 0.000000 1.547990
vt 0.000000 0.000000
vt 0.461090 1.547990
vt 0.000000 1.547990
vt 0.461090 0.000000
vt 0.000000 0.000000
vt 0.460060 0.000000
vt 0.460060 1.547990
vt 0.000000 1.547990
vt 0.000000 0.000000
vt 0.462190 0.000000
vt 0.462190 1.547990
vt 0.000000 1.547990
vt 0.000000 0.000000
vt 0.462410 0.000000
vt 0.462410 1.547990
vt 0.000000 1.547990
vt 0.000000 0.000000
vt 0.264720 0.000000
vt 0.458320 1.547990
vt 0.458320 0.000000
vt 0.000000 1.547990
vt 0.000000 0.000000
vt 0.461900 0.000000
vt 0.461900 1.547990
vt 0.000000 1.547990
vt 0.000000 0.000000
vt 0.459490 0.000000
vt 0.459490 1.547990
vt 0.000000 1.547990
vt 0.000000 0.000000
vt 0.456970 0.000000
vt 0.456970 1.547990
vt 0.000000 1.547990
vt 0.000000 0.000000
vt 0.460850 1.547990
vt 0.000000 1.547990
vt 0.460850 0.000000
vt 0.000000 1.547990
vn -0.9841 0.1777 0.0000
vn -0.9841 0.1775 0.0000
vn -0.9753 -0.2209 0.0000
vn -0.9753 -0.2211 0.0000
vn -0.8416 0.5401 0.0000
vn -0.8199 -0.5725 0.0000
vn -0.5723 0.8201 0.0000
vn -0.5720 0.8203 0.0000
vn -0.5307 -0.8475 0.0000
vn -0.5308 -0.8475 0.0000
vn -0.2097 0.9778 0.0000
vn -0.1749 -0.9846 0.0000
vn 0.1629 0.9867 0.0000
vn 0.1629 0.9866 0.0000
vn 0.2097 -0.9778 0.0000
vn 0.5354 0.8446 0.0000
vn 0.5353 0.8447 0.0000
vn 0.5722 -0.8201 -0.0000
vn 0.5718 -0.8204 0.0000
vn 0.5720 -0.8202 0.0000
vn 0.8243 0.5661 0.0000
vn 0.8244 0.5661 0.0000
vn 0.8416 -0.5401 0.0000
vn 0.9753 0.2209 0.0000
vn 0.9753 0.2211 0.0000
vn 0.9841 -0.1775 0.0000
vn 0.9841 -0.1777 0.0000
vn -0.5721 0.8202 0.0000
s off
f 1/1/1 2/2/1 3/3/1
f 1/1/2 3/3/2 4/4/2
f 5/5/3 6/6/3 7/7/3
f 5/5/4 7/7/4 8/8/4
f 9/9/5 10/10/5 11/11/5
f 9/9/5 11/11/5 12/12/5
f 13/13/6 14/14/6 15/15/6
f 13/13/6 15/15/6 16/16/6
f 17/17/7 18/18/7 19/19/7
f 20/20/8 17/17/8 19/19/8
f 22/21/9 23/22/9 24/23/9
f 22/21/10 25/24/10 23/22/10
f 26/25/11 27/26/11 28/27/11
f 26/25/11 28/27/11 29/28/11
f 30/29/12 31/30/12 32/31/12
f 30/29/12 33/32/12 31/30/12
f 34/33/13 35/34/13 36/35/13
f 34/33/14 36/35/14 37/36/14
f 38/37/15 39/38/15 40/39/15
f 38/37/15 40/39/15 41/40/15
f 42/41/16 43/42/16 44/43/16
f 42/41/17 44/43/17 45/44/17
f 46/45/18 47/46/18 48/47/18
f 47/46/19 49/48/19 48/47/19
f 46/45/20 48/47/20 50/49/20
f 51/50/21 52/51/21 53/52/21
f 51/50/22 53/52/22 54/53/22
f 55/54/23 56/55/23 57/56/23
f 55/54/23 57/56/23 58/57/23
f 59/58/24 60/59/24 61/60/24
f 59/58/25 61/60/25 62/61/25
f 63/62/26 64/63/26 65/64/26
f 63/62/27 66/65/27 64/63/27
s 1
f 20/20/28 19/19/28 21/66/28
