# Blender v3.0.1 OBJ File: 'rockerfeller_plaza.blend'
# www.blender.org
o geometryt000010000010000110010110000110000110100000110000st65
v 925.068054 -100.846443 426.491821
v 925.372742 -101.008347 485.364319
v 925.068054 -100.846443 485.364319
v 921.471741 -98.935844 426.491821
v 925.372742 -101.008347 421.664307
v 921.471741 -98.935844 485.364319
v 921.304871 -98.847160 485.364319
v 921.304871 -98.847160 426.491821
v 918.907349 -97.573387 426.491821
v 918.907349 -97.573387 485.364319
v 918.740356 -97.484695 485.364319
v 918.740356 -97.484695 426.491821
v 914.678223 -95.326553 421.664307
v 915.144043 -95.574043 426.491821
v 915.144043 -95.574043 485.364319
v 914.977173 -95.485359 485.364319
v 914.977173 -95.485359 426.491821
v 912.579529 -94.211586 426.491821
v 912.579529 -94.211586 485.364319
v 912.412659 -94.122894 485.364319
v 912.412659 -94.122894 426.491821
v 910.015015 -92.849136 426.491821
v 910.015015 -92.849136 485.364319
v 909.848145 -92.760437 485.364319
v 909.848145 -92.760437 426.491821
v 908.649353 -92.123558 426.491821
v 908.649353 -92.123558 485.364319
v 908.482422 -92.034866 485.364319
v 908.482422 -92.034866 426.491821
v 907.283630 -91.397980 426.491821
v 907.283630 -91.397980 485.364319
v 907.116760 -91.309288 485.364319
v 907.116760 -91.309288 426.491821
v 904.719116 -90.035530 426.491821
v 904.719116 -90.035530 485.364319
v 904.552246 -89.946823 485.364319
v 904.552246 -89.946823 426.491821
v 902.154785 -88.673065 426.491821
v 902.154785 -88.673065 485.364319
v 901.987732 -88.584366 485.364319
v 901.987732 -88.584366 426.491821
v 891.759033 -83.150055 421.664307
v 898.391479 -86.673729 426.491821
v 898.391479 -86.673729 485.364319
v 898.224548 -86.585030 485.364319
v 898.224548 -86.585030 426.491821
v 895.826965 -85.311264 426.491821
v 895.826965 -85.311264 485.364319
v 895.660034 -85.222565 485.364319
v 895.660034 -85.222565 426.491821
v 892.063721 -83.311928 426.491821
v 892.063721 -83.311928 485.364319
v 891.759033 -83.150055 485.364319
v 892.072754 -82.559883 426.491821
v 891.759033 -83.150055 485.364319
v 892.072754 -82.559883 485.364319
v 897.169739 -72.970795 426.491821
v 891.759033 -83.150055 421.664307
v 897.169739 -72.970795 485.364319
v 897.483521 -72.380638 485.364319
v 897.483521 -72.380638 421.664307
v 897.788330 -72.542183 426.491821
v 897.483521 -72.380638 485.364319
v 897.788330 -72.542183 485.364319
v 901.386658 -74.449120 426.491821
v 897.483521 -72.380638 421.664307
v 901.386658 -74.449120 485.364319
v 901.518372 -74.518944 485.364319
v 901.518372 -74.518944 426.491821
v 903.917236 -75.790237 426.491821
v 903.917236 -75.790237 485.364319
v 904.048950 -75.860054 485.364319
v 904.048950 -75.860054 426.491821
v 907.647217 -77.766998 426.491821
v 907.647217 -77.766998 485.364319
v 907.779053 -77.836830 485.364319
v 907.779053 -77.836830 426.491821
v 910.177856 -79.108109 426.491821
v 910.177856 -79.108109 485.364319
v 910.309631 -79.177940 485.364319
v 910.309631 -79.177940 426.491821
v 911.509033 -79.813583 426.491821
v 924.228882 -86.554527 421.664307
v 911.509033 -79.813583 485.364319
v 911.640869 -79.883408 485.364319
v 911.640869 -79.883408 426.491821
v 912.840271 -80.519058 426.491821
v 912.840271 -80.519058 485.364319
v 912.972046 -80.588890 485.364319
v 912.972046 -80.588890 426.491821
v 914.171448 -81.224525 426.491821
v 914.171448 -81.224525 485.364319
v 914.303162 -81.294357 485.364319
v 914.303162 -81.294357 426.491821
v 916.702026 -82.565643 426.491821
v 916.702026 -82.565643 485.364319
v 916.833862 -82.635468 485.364319
v 916.833862 -82.635468 426.491821
v 920.432068 -84.542404 426.491821
v 920.432068 -84.542404 485.364319
v 920.563843 -84.612236 485.364319
v 920.563843 -84.612236 426.491821
v 922.962646 -85.883514 426.491821
v 922.962646 -85.883514 485.364319
v 923.094482 -85.953346 485.364319
v 923.094482 -85.953346 426.491821
v 926.692749 -87.860275 426.491821
v 926.692749 -87.860275 485.364319
v 926.997559 -88.021835 485.364319
v 926.997559 -88.021835 421.664307
v 923.407471 -96.848854 426.491821
v 922.549255 -96.390755 485.364319
v 923.407471 -96.848854 485.364319
v 926.660767 -98.585388 421.664307
v 925.802429 -98.127289 426.491821
v 922.549255 -96.390755 421.664307
v 925.802429 -98.127289 485.364319
v 926.660767 -98.585388 485.364319
v 926.678467 -88.622238 426.491821
v 926.985046 -88.045547 485.364319
v 926.678467 -88.622238 485.364319
v 922.855774 -95.814079 426.491821
v 926.985046 -88.045547 421.664307
v 922.855774 -95.814079 485.364319
v 922.549255 -96.390755 485.364319
v 922.549255 -96.390755 421.664307
v 926.334961 -99.198196 426.491821
v 926.660767 -98.585388 485.364319
v 926.334961 -99.198196 485.364319
v 925.372070 -101.009644 421.664307
v 925.697876 -100.396843 426.491821
v 926.660767 -98.585388 421.664307
v 925.697876 -100.396843 485.364319
v 925.372070 -101.009644 485.364319
vt 37.869591 5.646250
vt 38.215981 74.502922
vt 37.869591 74.502922
vt 33.780891 5.646250
vt 38.215981 0.000000
vt 33.780891 74.502922
vt 33.591091 74.502922
vt 33.591091 5.646250
vt 30.865290 5.646250
vt 30.865290 74.502922
vt 30.675489 74.502922
vt 30.675489 5.646250
vt 26.057159 0.000000
vt 26.586790 5.646250
vt 26.586790 74.502922
vt 26.396990 74.502922
vt 26.396990 5.646250
vt 23.671190 5.646250
vt 23.671190 74.502922
vt 23.481390 74.502922
vt 23.481390 5.646250
vt 20.755590 5.646250
vt 20.755590 74.502922
vt 20.565790 74.502922
vt 20.565790 5.646250
vt 19.202890 5.646250
vt 19.202890 74.502922
vt 19.013090 74.502922
vt 19.013090 5.646250
vt 17.650190 5.646250
vt 17.650190 74.502922
vt 17.460390 74.502922
vt 17.460390 5.646250
vt 14.734590 5.646250
vt 14.544790 5.646250
vt 11.818990 5.646250
vt 11.818990 74.502922
vt 11.629180 74.502922
vt 11.629180 5.646250
vt 0.000000 0.000000
vt 7.540490 5.646250
vt 7.540490 74.502922
vt 7.350680 74.502922
vt 7.350680 5.646250
vt 4.624890 5.646250
vt 4.624890 74.502922
vt 4.435080 74.502922
vt 4.435080 5.646250
vt 0.346390 5.646250
vt 0.346390 74.502922
vt 0.000000 74.502922
vt 11.574240 5.646250
vt 12.245290 74.502922
vt 11.574240 74.502922
vt 0.671050 5.646250
vt 12.245290 0.000000
vt 0.671050 74.502922
vt 0.000000 74.502922
vt 0.000000 0.000000
vt 33.190269 5.646250
vt 33.536659 74.502922
vt 33.190269 74.502922
vt 29.101570 5.646250
vt 33.536659 0.000000
vt 29.101570 74.502922
vt 28.951851 74.502922
vt 28.951851 5.646250
vt 26.226049 5.646250
vt 26.226049 74.502922
vt 26.076330 74.502922
vt 26.076330 5.646250
vt 21.987631 5.646250
vt 21.987631 74.502922
vt 21.837919 74.502922
vt 21.837919 5.646250
vt 19.112120 74.502922
vt 18.962400 74.502922
vt 19.112120 5.646250
vt 18.962400 5.646250
vt 17.599501 5.646250
vt 3.146090 0.000000
vt 17.449780 5.646250
vt 16.086880 5.646250
vt 16.086880 74.502922
vt 15.937160 74.502922
vt 15.937160 5.646250
vt 14.574260 5.646250
vt 14.574260 74.502922
vt 14.424540 74.502922
vt 14.424540 5.646250
vt 11.698740 5.646250
vt 11.698740 74.502922
vt 11.549020 74.502922
vt 11.549020 5.646250
vt 7.460320 5.646250
vt 7.460320 74.502922
vt 7.310600 74.502922
vt 7.310600 5.646250
vt 4.584800 5.646250
vt 4.584800 74.502922
vt 4.435080 74.502922
vt 4.435080 5.646250
vt 0.346390 5.646250
vt 0.000000 74.502922
vt 0.000000 0.000000
vt 3.702540 5.646250
vt 4.679280 74.502922
vt 3.702540 74.502922
vt 0.000000 0.000000
vt 0.976740 5.646250
vt 4.679280 0.000000
vt 0.976740 74.502922
vt 0.000000 74.502922
vt 8.833110 5.646250
vt 9.488821 74.502922
vt 8.833110 74.502922
vt 0.655710 5.646250
vt 9.488821 0.000000
vt 0.655710 74.502922
vt 0.000000 74.502922
vt 0.000000 0.000000
vt 2.059690 5.646250
vt 2.756470 74.502922
vt 2.059690 74.502922
vt 0.000000 0.000000
vt 0.696790 5.646250
vt 2.756470 0.000000
vt 0.696790 74.502922
vt 0.000000 74.502922
vt 14.734590 74.502922
vt 14.544790 74.502922
vt 17.599501 74.502922
vt 17.449780 74.502922
vt 0.346390 74.502922
vn -0.4692 -0.8831 0.0000
vn -0.4693 -0.8831 0.0000
vn -0.4691 -0.8831 0.0000
vn -0.4694 -0.8830 0.0000
vn -0.4692 -0.8831 0.0001
vn -0.4689 -0.8833 0.0000
vn -0.4695 -0.8830 0.0002
vn -0.4695 -0.8829 0.0000
vn -0.4688 -0.8833 -0.0001
vn -0.4688 -0.8833 0.0000
vn -0.4693 -0.8830 -0.0003
vn -0.4693 -0.8830 0.0000
vn -0.4687 -0.8834 -0.0004
vn -0.4686 -0.8834 0.0000
vn -0.4689 -0.8833 -0.0005
vn -0.4689 -0.8832 0.0000
vn -0.4691 -0.8832 0.0000
vn -0.4693 -0.8830 0.0003
vn -0.4692 -0.8831 -0.0003
vn -0.8830 0.4694 0.0000
vn -0.8830 0.4693 0.0000
vn -0.8829 0.4695 0.0000
vn 0.4683 0.8836 0.0000
vn 0.4682 0.8836 0.0000
vn 0.4686 0.8834 0.0000
vn 0.4683 0.8836 0.0002
vn 0.4685 0.8834 0.0000
vn 0.4679 0.8838 -0.0002
vn 0.4679 0.8838 0.0000
vn 0.4684 0.8835 0.0004
vn 0.4683 0.8835 -0.0003
vn 0.4684 0.8835 0.0000
vn 0.4683 0.8835 0.0005
vn 0.4680 0.8838 0.0000
vn 0.4678 0.8838 0.0000
vn 0.4681 0.8837 -0.0002
vn 0.4684 0.8835 0.0001
vn 0.4680 0.8837 -0.0001
vn 0.4709 0.8822 0.0000
vn 0.4708 0.8822 0.0000
vn 0.8829 -0.4695 0.0000
vn 0.8830 -0.4693 0.0000
vn 0.8831 -0.4693 0.0000
vn 0.8830 -0.4694 0.0000
vn 0.8830 -0.4695 0.0000
vn -0.4693 -0.8831 -0.0001
vn -0.4691 -0.8831 0.0001
vn -0.4692 -0.8831 -0.0004
vn 0.4681 0.8837 -0.0001
vn 0.4679 0.8838 -0.0004
vn 0.4680 0.8837 -0.0007
vn 0.4686 0.8834 -0.0002
s off
f 1/1/1 2/2/1 3/3/1
f 4/4/1 5/5/1 1/1/1
f 2/2/2 1/1/2 5/5/2
f 6/6/3 7/7/3 4/4/3
f 7/7/4 8/8/4 4/4/4
f 4/4/5 8/8/5 5/5/5
f 8/8/1 9/9/1 5/5/1
f 10/10/6 11/11/6 9/9/6
f 11/11/1 12/12/1 9/9/1
f 9/9/7 12/12/7 13/13/7
f 5/5/1 9/9/1 13/13/1
f 12/12/1 14/14/1 13/13/1
f 15/15/3 16/16/3 14/14/3
f 16/16/4 17/17/4 14/14/4
f 14/14/2 17/17/2 13/13/2
f 17/17/1 18/18/1 13/13/1
f 19/19/8 20/20/8 18/18/8
f 20/20/1 21/21/1 18/18/1
f 18/18/9 21/21/9 13/13/9
f 21/21/1 22/22/1 13/13/1
f 23/23/8 24/24/8 22/22/8
f 24/24/10 25/25/10 22/22/10
f 22/22/11 25/25/11 13/13/11
f 25/25/1 26/26/1 13/13/1
f 27/27/1 28/28/1 26/26/1
f 28/28/1 29/29/1 26/26/1
f 26/26/12 29/29/12 13/13/12
f 29/29/1 30/30/1 13/13/1
f 31/31/1 32/32/1 30/30/1
f 32/32/8 33/33/8 30/30/8
f 30/30/13 33/33/13 13/13/13
f 33/33/1 34/34/1 13/13/1
f 37/35/1 38/36/1 13/13/1
f 39/37/1 40/38/1 38/36/1
f 40/38/14 41/39/14 38/36/14
f 41/39/15 42/40/15 38/36/15
f 38/36/1 42/40/1 13/13/1
f 43/41/1 42/40/1 41/39/1
f 44/42/16 45/43/16 43/41/16
f 45/43/17 46/44/17 43/41/17
f 46/44/18 42/40/18 43/41/18
f 47/45/1 42/40/1 46/44/1
f 48/46/1 49/47/1 47/45/1
f 49/47/16 50/48/16 47/45/16
f 50/48/19 42/40/19 47/45/19
f 51/49/1 42/40/1 50/48/1
f 52/50/1 53/51/1 51/49/1
f 53/51/1 42/40/1 51/49/1
f 54/52/20 55/53/20 56/54/20
f 57/55/21 58/56/21 54/52/21
f 55/53/21 54/52/21 58/56/21
f 59/57/22 60/58/22 57/55/22
f 60/58/21 61/59/21 57/55/21
f 61/59/20 58/56/20 57/55/20
f 62/60/23 63/61/23 64/62/23
f 65/63/23 66/64/23 62/60/23
f 63/61/24 62/60/24 66/64/24
f 67/65/24 68/66/24 65/63/24
f 68/66/25 69/67/25 65/63/25
f 65/63/26 69/67/26 66/64/26
f 69/67/23 70/68/23 66/64/23
f 71/69/27 72/70/27 70/68/27
f 72/70/24 73/71/24 70/68/24
f 66/64/28 70/68/28 73/71/28
f 66/64/23 73/71/23 74/72/23
f 75/73/29 76/74/29 74/72/29
f 76/74/23 77/75/23 74/72/23
f 66/64/30 74/72/30 77/75/30
f 79/76/23 80/77/23 78/78/23
f 80/77/23 81/79/23 78/78/23
f 66/64/31 78/78/31 81/79/31
f 81/79/23 82/80/23 83/81/23
f 66/64/23 81/79/23 83/81/23
f 86/82/32 87/83/32 83/81/32
f 88/84/25 89/85/25 87/83/25
f 89/85/29 90/86/29 87/83/29
f 87/83/33 90/86/33 83/81/33
f 90/86/24 91/87/24 83/81/24
f 92/88/23 93/89/23 91/87/23
f 93/89/34 94/90/34 91/87/34
f 94/90/24 95/91/24 83/81/24
f 96/92/24 97/93/24 95/91/24
f 97/93/35 98/94/35 95/91/35
f 95/91/36 98/94/36 83/81/36
f 98/94/23 99/95/23 83/81/23
f 100/96/23 101/97/23 99/95/23
f 101/97/29 102/98/29 99/95/29
f 99/95/37 102/98/37 83/81/37
f 102/98/23 103/99/23 83/81/23
f 104/100/23 105/101/23 103/99/23
f 105/101/29 106/102/29 103/99/29
f 103/99/38 106/102/38 83/81/38
f 106/102/23 107/103/23 83/81/23
f 109/104/23 110/105/23 107/103/23
f 107/103/23 110/105/23 83/81/23
f 111/106/39 112/107/39 113/108/39
f 114/109/39 111/106/39 115/110/39
f 114/109/39 116/111/39 111/106/39
f 112/107/39 111/106/39 116/111/39
f 117/112/39 118/113/39 115/110/39
f 118/113/40 114/109/40 115/110/40
f 119/114/41 120/115/41 121/116/41
f 122/117/42 123/118/42 119/114/42
f 120/115/43 119/114/43 123/118/43
f 124/119/44 125/120/44 122/117/44
f 125/120/42 126/121/42 122/117/42
f 126/121/44 123/118/44 122/117/44
f 127/122/44 128/123/44 129/124/44
f 130/125/42 127/122/42 131/126/42
f 130/125/44 132/127/44 127/122/44
f 128/123/44 127/122/44 132/127/44
f 133/128/44 134/129/44 131/126/44
f 134/129/45 130/125/45 131/126/45
s 1
f 35/130/16 36/131/16 34/34/46
f 36/131/16 37/35/47 34/34/46
f 34/34/46 37/35/47 13/13/48
f 66/64/23 77/75/23 78/78/23
f 84/132/35 85/133/35 82/80/49
f 85/133/35 86/82/50 82/80/49
f 82/80/49 86/82/50 83/81/51
f 91/87/52 94/90/52 83/81/52
f 108/134/23 109/104/23 107/103/23
