# Blender v3.0.1 OBJ File: 'rockerfeller_plaza.blend'
# www.blender.org
o geometryt000010000010000110010110000110000110100000010100st233
v 871.566650 -43.066700 147.166611
v 860.249390 -63.894840 147.166611
v 860.249390 -63.894840 186.180374
v 871.566650 -43.066700 186.180374
v 860.321106 -64.815048 147.166611
v 864.110229 -66.868645 147.166611
v 864.110229 -66.868645 186.180374
v 860.321106 -64.815048 186.180374
v 864.267090 -67.634178 186.180374
v 864.267090 -67.634178 147.166611
v 863.754211 -68.581741 147.166611
v 863.754211 -68.581741 186.180374
v 864.787842 -69.822304 186.180374
v 864.011108 -69.400085 147.166611
v 869.691040 -72.487602 147.166611
v 864.011108 -69.400085 186.180374
v 869.691040 -72.487602 186.180374
v 869.353149 -75.415756 147.166611
v 870.299927 -75.929993 147.166611
v 870.299927 -75.929993 186.180374
v 869.353149 -75.415756 186.180374
v 869.836121 -73.509346 147.166611
v 869.321594 -74.456001 147.166611
v 869.321594 -74.456001 186.180374
v 869.836121 -73.509346 186.180374
v 871.004211 -75.651917 147.166611
v 884.895325 -50.091049 147.166611
v 884.895325 -50.091049 186.180374
v 871.004211 -75.651917 186.180374
v 884.707642 -49.328331 186.180374
v 884.707642 -49.328331 147.166611
v 872.401428 -42.638512 147.166611
v 872.401428 -42.638512 186.180374
vt 0.000000 0.000000
vt 5.500000 0.000000
vt 5.500000 4.000000
vt 0.000000 4.000000
vt 0.000000 0.000000
vt 1.000000 0.000000
vt 1.000000 4.000000
vt 0.000000 4.000000
vt 0.000000 4.000000
vt 0.000000 0.000000
vt 0.250000 0.000000
vt 0.250000 4.000000
vt 0.205120 4.000000
vt 0.000000 0.000000
vt 1.500000 0.000000
vt 0.000000 4.000000
vt 1.500000 4.000000
vt 0.000000 0.000000
vt 0.250000 0.000000
vt 0.250000 4.000000
vt 0.000000 4.000000
vt 0.000000 0.000000
vt 6.750000 0.000000
vt 6.750000 4.000000
vt 0.000000 4.000000
vt 0.000000 4.000000
vt 0.000000 0.000000
vt 3.250000 0.000000
vt 3.250000 4.000000
vt 0.000000 0.000000
vt 0.250000 0.000000
vt 0.250000 4.000000
vt 0.000000 4.000000
vn -0.8787 0.4774 0.0000
vn -0.4765 -0.8792 0.0000
vn -0.8794 0.4761 0.0000
vn -0.8795 0.4760 0.0000
vn -0.4776 -0.8786 0.0000
vn -0.8786 0.4775 0.0000
vn -0.8786 0.4776 0.0000
vn 0.8786 -0.4775 0.0000
vn 0.4776 0.8786 0.0000
vn -0.4773 -0.8787 0.0000
s off
f 1/1/1 2/2/1 3/3/1
f 4/4/1 1/1/1 3/3/1
f 5/5/2 6/6/2 7/7/2
f 8/8/2 5/5/2 7/7/2
f 9/9/3 10/10/3 11/11/3
f 9/9/4 11/11/4 12/12/4
f 13/13/5 14/14/5 15/15/5
f 16/16/5 14/14/5 13/13/5
f 13/13/5 15/15/5 17/17/5
f 22/18/6 23/19/6 24/20/6
f 25/21/7 22/18/7 24/20/7
f 26/22/8 27/23/8 28/24/8
f 29/25/8 26/22/8 28/24/8
f 30/26/9 31/27/9 32/28/9
f 30/26/9 32/28/9 33/29/9
s 1
f 18/30/10 19/31/10 20/32/10
f 21/33/10 18/30/10 20/32/10
