# Blender v3.0.1 OBJ File: 'rockerfeller_plaza.blend'
# www.blender.org
o geometryt000010000010000110010110000110000110100100000000st122
v 430.131348 -184.375183 888.465088
v 429.904327 -184.796280 917.048096
v 430.131348 -184.375183 917.048096
v 445.044739 -156.709381 886.948120
v 444.817810 -157.130371 888.465088
v 429.904327 -184.796280 886.948120
v 444.817810 -157.130371 917.048096
v 445.044739 -156.709381 917.048096
v 435.992615 -188.080780 888.465088
v 436.632935 -188.426285 917.048096
v 435.992615 -188.080780 917.048096
v 430.544617 -185.141678 888.465088
v 436.632935 -188.426285 886.948120
v 430.544617 -185.141678 917.048096
v 429.904327 -184.796280 917.048096
v 429.904327 -184.796280 886.948120
v 451.546448 -160.760376 888.465088
v 451.773315 -160.339371 917.048096
v 451.546448 -160.760376 917.048096
v 436.632935 -188.426285 886.948120
v 436.859924 -188.005173 888.465088
v 451.773315 -160.339371 886.948120
v 436.859924 -188.005173 917.048096
v 436.632935 -188.426285 917.048096
v 445.685120 -157.054779 888.465088
v 445.044739 -156.709381 917.048096
v 445.685120 -157.054779 917.048096
v 451.133026 -159.993973 888.465088
v 445.044739 -156.709381 886.948120
v 451.133026 -159.993973 917.048096
v 451.773315 -160.339371 917.048096
v 451.773315 -160.339371 886.948120
vt 56.224380 2.713690
vt 57.080021 53.846149
vt 56.224380 53.846149
vt 0.000000 0.000000
vt 0.855650 2.713690
vt 57.080021 0.000000
vt 0.855650 53.846149
vt 0.000000 53.846149
vt 12.375270 2.713690
vt 13.676790 53.846149
vt 12.375270 53.846149
vt 1.301520 2.713690
vt 13.676790 0.000000
vt 1.301520 53.846149
vt 0.000000 53.846149
vt 0.000000 0.000000
vt 0.000000 0.000000
vt 56.224380 2.713690
vt 0.855650 2.713690
vt 57.080029 0.000000
vt 57.080029 53.846149
vt 0.855650 53.846149
vt 0.000000 53.846149
vt 12.375250 2.713690
vt 13.676750 53.846149
vt 12.375250 53.846149
vt 1.301500 2.713690
vt 13.676750 0.000000
vt 1.301500 53.846149
vt 0.000000 53.846149
vt 0.000000 0.000000
vt 56.224380 53.846149
vn -0.8802 0.4745 0.0000
vn -0.8802 0.4746 0.0000
vn -0.8803 0.4745 0.0000
vn -0.4749 -0.8801 0.0000
vn -0.4748 -0.8801 0.0000
vn -0.4749 -0.8800 0.0000
vn -0.4747 -0.8801 0.0000
vn 0.8803 -0.4745 -0.0000
vn 0.8803 -0.4744 0.0000
vn 0.4747 0.8801 0.0000
vn 0.4748 0.8801 -0.0001
vn 0.4748 0.8801 0.0000
s off
f 1/1/1 2/2/1 3/3/1
f 4/4/1 1/1/1 5/5/1
f 4/4/1 6/6/1 1/1/1
f 2/2/2 1/1/2 6/6/2
f 7/7/3 8/8/3 5/5/3
f 8/8/2 4/4/2 5/5/2
f 9/9/4 10/10/4 11/11/4
f 12/12/5 13/13/5 9/9/5
f 10/10/6 9/9/6 13/13/6
f 14/14/5 15/15/5 12/12/5
f 15/15/7 16/16/7 12/12/7
f 20/17/8 17/18/8 21/19/8
f 20/17/8 22/20/8 17/18/8
f 18/21/9 17/18/9 22/20/9
f 23/22/8 24/23/8 21/19/8
f 24/23/8 20/17/8 21/19/8
f 25/24/10 26/25/10 27/26/10
f 28/27/11 29/28/11 25/24/11
f 26/25/10 25/24/10 29/28/10
f 30/29/12 31/30/12 28/27/12
f 31/30/12 32/31/12 28/27/12
f 32/31/12 29/28/12 28/27/12
s 1
f 16/16/5 13/13/5 12/12/5
f 17/18/9 18/21/9 19/32/9
