# Blender v3.0.1 OBJ File: 'rockerfeller_plaza.blend'
# www.blender.org
o geometryt000010000010000110010110000110000110100000000110st41_L
v 606.970703 -65.513588 107.016014
v 606.164307 -67.001816 107.016014
v 606.164307 -67.001816 115.571556
v 606.970703 -65.513588 115.571556
v 608.071594 -63.482018 115.571556
v 608.071594 -63.482018 107.016014
v 607.265198 -64.970238 107.016014
v 607.265198 -64.970238 115.571556
v 609.172424 -61.450439 115.571556
v 609.172424 -61.450439 107.016014
v 608.366028 -62.938667 107.016014
v 608.366028 -62.938667 115.571556
v 610.273315 -59.418869 107.016014
v 609.466919 -60.907089 107.016014
v 609.466919 -60.907089 115.571556
v 610.273315 -59.418869 115.571556
v 606.300415 -67.474808 115.571556
v 606.300415 -67.474808 107.016014
v 612.266785 -70.675537 107.016014
v 612.266785 -70.675537 115.571556
v 620.276917 -74.972641 107.016014
v 626.243286 -78.173378 107.016014
v 626.243286 -78.173378 115.571556
v 620.276917 -74.972641 115.571556
v 612.140808 -55.957378 194.971558
v 612.140808 -55.957378 107.016014
v 611.337402 -57.447220 107.016014
v 611.337402 -57.447220 194.971558
v 610.741577 -59.278759 115.571556
v 612.232910 -60.079548 115.571556
v 612.232910 -60.079548 194.971558
v 610.741577 -59.278759 194.971558
v 613.860474 -60.953579 115.571556
v 616.843140 -62.555168 115.571556
v 616.843140 -62.555168 194.971558
v 613.860474 -60.953579 194.971558
v 618.470703 -63.429188 194.971558
v 618.470703 -63.429188 115.571556
v 622.944519 -65.831573 115.571556
v 622.944519 -65.831573 194.971558
v 624.572083 -66.705597 115.571556
v 627.554688 -68.307182 115.571556
v 627.554688 -68.307182 194.971558
v 624.572083 -66.705597 194.971558
v 629.182312 -69.181213 194.971558
v 629.182312 -69.181213 115.571556
v 630.673584 -69.982002 115.571556
v 630.673584 -69.982002 194.971558
v 616.491394 -47.910538 114.520287
v 618.105530 -44.934738 107.016014
v 613.263306 -53.862129 107.016014
v 618.105530 -44.934738 114.520287
v 613.263306 -53.862129 204.571564
v 615.785217 -49.212639 204.571564
v 616.491394 -47.910538 204.571564
v 613.344482 -54.452190 204.571564
v 613.344482 -54.452190 194.971558
v 614.836121 -55.252510 194.971558
v 614.836121 -55.252510 204.571564
v 616.834412 -56.324780 194.971558
v 618.098694 -57.003159 194.971558
v 616.834412 -56.324780 204.571564
v 618.325928 -57.125107 204.571564
v 618.325928 -57.125107 194.971558
v 618.620789 -48.258438 204.571564
v 618.620789 -48.258438 115.571556
v 617.129272 -47.458118 115.571556
v 617.129272 -47.458118 204.571564
v 622.110718 -50.131027 115.571556
v 621.750610 -49.937820 115.571556
v 622.110718 -50.131027 204.571564
v 620.619202 -49.330708 204.571564
v 620.619202 -49.330708 115.571556
v 621.624207 -46.277729 115.571556
v 621.624207 -46.277729 107.571556
v 618.641724 -44.676140 107.571556
v 618.641724 -44.676140 115.571556
v 623.406372 -47.234768 107.571556
v 621.915222 -46.433979 107.571556
v 621.915222 -46.433979 115.571556
v 623.406372 -47.234768 115.571556
v 625.188599 -48.191807 115.571556
v 625.188599 -48.191807 107.571556
v 623.697388 -47.391010 107.571556
v 623.697388 -47.391010 115.571556
v 628.462097 -49.949638 107.571556
v 625.479614 -48.348049 107.571556
v 625.479614 -48.348049 115.571556
v 628.462097 -49.949638 115.571556
v 631.735596 -51.707470 107.571556
v 628.753113 -50.105877 107.571556
v 628.753113 -50.105877 115.571556
v 631.735596 -51.707470 115.571556
v 633.517883 -52.664509 107.571556
v 632.030884 -51.866039 107.571556
v 633.517883 -52.664509 115.571556
v 632.026611 -51.863708 115.571556
v 632.026611 -51.863708 107.571556
v 635.300110 -53.621548 115.571556
v 635.300110 -53.621548 107.571556
v 633.808838 -52.820747 107.571556
v 633.808838 -52.820747 115.571556
v 638.573608 -55.379379 115.571556
v 638.573608 -55.379379 107.571556
v 635.591003 -53.777790 107.571556
v 635.591003 -53.777790 115.571556
v 618.794128 -56.984798 194.971558
v 619.599731 -55.496120 194.971558
v 619.599731 -55.496120 204.571564
v 618.794128 -56.984798 204.571564
v 620.119507 -54.535530 194.971558
v 620.925110 -53.046848 194.971558
v 620.925110 -53.046848 204.571564
v 620.119507 -54.535530 204.571564
v 621.444885 -52.086258 194.971558
v 622.054993 -50.958939 194.971558
v 621.444885 -52.086258 204.571564
v 622.250488 -50.597580 204.571564
v 622.250488 -50.597580 194.971558
v 624.431213 -50.825447 127.786934
v 624.431213 -50.825447 115.571556
v 622.940002 -50.024509 115.571556
v 622.940002 -50.024509 127.786934
v 629.218140 -53.396519 115.571556
v 628.835999 -53.191319 115.571556
v 629.218140 -53.396519 127.786934
v 626.235718 -51.794647 127.786934
v 626.235718 -51.794647 115.571556
v 634.004883 -55.967590 115.571556
v 631.022522 -54.365719 115.571556
v 631.022522 -54.365719 194.971558
v 634.004883 -55.967590 194.971558
v 637.300537 -57.737728 194.971558
v 637.300537 -57.737728 115.571556
v 636.576294 -57.348709 115.571556
v 635.809326 -56.936787 194.971558
v 635.809326 -56.936787 115.571556
v 623.406799 -48.441170 192.571564
v 623.406799 -48.441170 128.571564
v 622.802124 -49.555347 128.571564
v 622.802124 -49.555347 192.571564
v 625.365723 -49.103718 128.571564
v 623.875183 -48.301468 128.571564
v 623.875183 -48.301468 192.571564
v 625.365723 -49.103718 192.571564
v 627.880188 -50.457138 128.571564
v 626.389709 -49.654888 128.571564
v 626.389709 -49.654888 192.571564
v 627.880188 -50.457138 192.571564
v 630.394592 -51.810558 128.571564
v 628.904175 -51.008308 128.571564
v 628.904175 -51.008308 192.571564
v 630.394592 -51.810558 192.571564
v 626.714600 -78.032486 107.016014
v 627.519714 -76.543541 107.016014
v 627.519714 -76.543541 115.571556
v 626.714600 -78.032486 115.571556
v 628.019226 -75.619774 115.571556
v 627.812988 -76.001144 107.016014
v 628.618103 -74.512207 107.016014
v 627.812988 -76.001144 115.571556
v 628.618103 -74.512207 115.571556
v 628.911377 -73.969795 107.016014
v 629.716492 -72.480858 107.016014
v 629.716492 -72.480858 115.571556
v 628.911377 -73.969795 115.571556
v 630.009827 -71.938454 107.016014
v 630.814941 -70.449516 107.016014
v 630.814941 -70.449516 115.571556
v 630.009827 -71.938454 115.571556
v 629.936401 -53.390759 192.571564
v 629.936401 -53.390759 128.571564
v 630.535034 -52.277920 128.571564
v 630.535034 -52.277920 192.571564
v 631.131226 -69.836082 194.971558
v 631.131226 -69.836082 107.016014
v 631.937683 -68.347916 107.016014
v 631.937683 -68.347916 194.971558
v 632.592407 -67.139877 107.016014
v 634.205383 -64.163513 107.016014
v 634.205383 -64.163513 194.971558
v 632.592407 -67.139877 194.971558
v 634.860107 -62.955490 107.016014
v 637.279724 -58.490948 107.016014
v 637.279724 -58.490948 194.971558
v 634.860107 -62.955490 194.971558
v 637.934387 -57.282917 107.016014
v 638.740906 -55.794739 107.016014
v 638.740906 -55.794739 115.011963
v 637.934387 -57.282917 115.011963
vt 0.000000 0.000000
vt 0.333330 0.000000
vt 0.333330 0.500000
vt 0.000000 0.500000
vt 0.000000 0.500000
vt 0.000000 0.000000
vt 0.333330 0.000000
vt 0.333330 0.500000
vt 0.000000 0.500000
vt 0.000000 0.000000
vt 0.333330 0.000000
vt 0.333330 0.500000
vt 0.000000 0.000000
vt 0.333330 0.000000
vt 0.333330 0.500000
vt 0.000000 0.500000
vt 0.000000 0.500000
vt 0.000000 0.000000
vt 1.333330 0.000000
vt 1.333330 0.500000
vt 0.000000 0.000000
vt 1.333330 0.000000
vt 1.333330 0.500000
vt 0.000000 0.500000
vt 0.000000 7.250000
vt 0.000000 0.000000
vt 0.333330 0.000000
vt 0.333330 7.250000
vt 0.000000 0.000000
vt 0.333330 0.000000
vt 0.333330 6.500000
vt 0.000000 6.500000
vt 0.000000 0.000000
vt 0.666670 0.000000
vt 0.666670 6.500000
vt 0.000000 6.500000
vt 0.000000 6.500000
vt 0.000000 0.000000
vt 1.000000 0.000000
vt 1.000000 6.500000
vt 0.000000 0.000000
vt 0.666670 0.000000
vt 0.666670 6.500000
vt 0.000000 6.500000
vt 0.000000 6.500000
vt 0.000000 0.000000
vt 0.333330 0.000000
vt 0.333330 6.500000
vt 0.666670 0.500000
vt 0.000000 0.000000
vt 2.000000 0.000000
vt 0.000000 0.500000
vt 2.000000 6.500000
vt 0.958380 6.500000
vt 0.666670 6.500000
vt 0.000000 0.750000
vt 0.000000 0.000000
vt 0.333330 0.000000
vt 0.333330 0.750000
vt 0.000000 0.750000
vt 0.282540 0.000000
vt 0.333330 0.750000
vt 0.000000 7.250000
vt 0.000000 0.000000
vt 0.333330 0.000000
vt 0.333330 7.250000
vt 0.333330 7.250000
vt 0.080470 0.000000
vt 0.333330 0.000000
vt 0.000000 7.250000
vt 0.000000 0.500000
vt 0.000000 0.000000
vt 0.666670 0.000000
vt 0.666670 0.500000
vt 0.000000 0.000000
vt 0.333330 0.000000
vt 0.333330 0.500000
vt 0.000000 0.500000
vt 0.000000 0.500000
vt 0.000000 0.000000
vt 0.333330 0.000000
vt 0.333330 0.500000
vt 0.000000 0.000000
vt 0.666670 0.000000
vt 0.666670 0.500000
vt 0.000000 0.500000
vt 0.000000 0.000000
vt 0.666670 0.000000
vt 0.666670 0.500000
vt 0.000000 0.500000
vt 0.000000 0.000000
vt 0.332370 0.000000
vt 0.000000 0.500000
vt 0.333330 0.500000
vt 0.000000 0.500000
vt 0.000000 0.000000
vt 0.333330 0.000000
vt 0.333330 0.500000
vt 0.000000 0.500000
vt 0.000000 0.000000
vt 0.666670 0.000000
vt 0.666670 0.500000
vt 0.000000 0.000000
vt 0.333330 0.000000
vt 0.333330 0.750000
vt 0.000000 0.750000
vt 0.000000 0.000000
vt 0.333330 0.000000
vt 0.333330 0.750000
vt 0.000000 0.750000
vt 0.000000 0.000000
vt 0.252420 0.000000
vt 0.000000 0.750000
vt 0.333330 0.750000
vt 0.333330 0.000000
vt 0.000000 1.000000
vt 0.000000 0.000000
vt 0.333330 0.000000
vt 0.333330 1.000000
vt 0.000000 0.000000
vt 0.085400 0.000000
vt 0.000000 1.000000
vt 0.666670 1.000000
vt 0.666670 0.000000
vt 0.000000 0.000000
vt 0.666670 0.000000
vt 0.666670 6.500000
vt 0.000000 6.500000
vt 0.000000 6.500000
vt 0.000000 0.000000
vt 0.161900 0.000000
vt 0.333330 6.500000
vt 0.333330 0.000000
vt 0.000000 2.000000
vt 0.000000 0.000000
vt 0.333330 0.000000
vt 0.333330 2.000000
vt 0.000000 0.000000
vt 0.333330 0.000000
vt 0.333330 2.000000
vt 0.000000 2.000000
vt 0.000000 0.000000
vt 0.333330 0.000000
vt 0.333330 2.000000
vt 0.000000 2.000000
vt 0.000000 0.000000
vt 0.333330 0.000000
vt 0.333330 2.000000
vt 0.000000 2.000000
vt 0.000000 0.000000
vt 0.333330 0.000000
vt 0.333330 0.500000
vt 0.000000 0.500000
vt 0.085380 0.500000
vt 0.000000 0.000000
vt 0.333330 0.000000
vt 0.000000 0.500000
vt 0.333330 0.500000
vt 0.000000 0.000000
vt 0.333330 0.000000
vt 0.333330 0.500000
vt 0.000000 0.500000
vt 0.000000 0.000000
vt 0.333330 0.000000
vt 0.333330 0.500000
vt 0.000000 0.500000
vt 0.000000 2.000000
vt 0.000000 0.000000
vt 0.333330 0.000000
vt 0.333330 2.000000
vt 0.000000 5.500000
vt 0.000000 0.000000
vt 0.333330 0.000000
vt 0.333330 5.500000
vt 0.000000 0.000000
vt 0.666670 0.000000
vt 0.666670 5.500000
vt 0.000000 5.500000
vt 0.000000 0.000000
vt 1.000000 0.000000
vt 1.000000 5.500000
vt 0.000000 5.500000
vt 0.000000 0.000000
vt 0.333330 0.000000
vt 0.333330 0.500000
vt 0.000000 0.500000
vt 0.000000 0.000000
vt 0.333330 0.000000
vt 0.000000 0.000000
vt 0.333330 0.000000
vn -0.8792 0.4764 0.0000
vn -0.4727 -0.8812 0.0000
vn -0.8802 0.4746 0.0000
vn -0.8802 0.4747 0.0000
vn -0.4731 -0.8810 0.0000
vn -0.8790 0.4768 -0.0000
vn -0.8791 0.4767 0.0000
vn -0.4728 -0.8812 0.0000
vn 0.4728 0.8812 0.0000
vn 0.4728 0.8811 0.0000
vn 0.4731 0.8810 0.0000
vn 0.8795 -0.4760 0.0000
vn 0.8795 -0.4759 0.0000
vn 0.8794 -0.4760 0.0000
vn 0.4732 0.8810 0.0000
vn -0.8789 0.4770 0.0000
vn 0.4739 0.8806 0.0000
vn 0.4740 0.8805 0.0000
vn 0.8797 -0.4756 0.0000
vn 0.8796 -0.4757 0.0000
vn 0.8807 -0.4737 0.0000
vn 0.8792 -0.4764 0.0000
vn 0.8792 -0.4765 0.0000
vn -0.4725 -0.8813 0.0000
vn 0.4727 0.8812 0.0000
vn 0.4750 0.8800 0.0000
s off
f 1/1/1 2/2/1 3/3/1
f 4/4/1 1/1/1 3/3/1
f 5/5/1 6/6/1 7/7/1
f 5/5/1 7/7/1 8/8/1
f 9/9/1 10/10/1 11/11/1
f 9/9/1 11/11/1 12/12/1
f 13/13/1 14/14/1 15/15/1
f 16/16/1 13/13/1 15/15/1
f 17/17/2 18/18/2 19/19/2
f 17/17/2 19/19/2 20/20/2
f 21/21/2 22/22/2 23/23/2
f 24/24/2 21/21/2 23/23/2
f 25/25/3 26/26/3 27/27/3
f 25/25/4 27/27/4 28/28/4
f 29/29/5 30/30/5 31/31/5
f 32/32/5 29/29/5 31/31/5
f 33/33/5 34/34/5 35/35/5
f 36/36/5 33/33/5 35/35/5
f 37/37/5 38/38/5 39/39/5
f 37/37/5 39/39/5 40/40/5
f 41/41/5 42/42/5 43/43/5
f 44/44/5 41/41/5 43/43/5
f 45/45/5 46/46/5 47/47/5
f 45/45/5 47/47/5 48/48/5
f 49/49/6 50/50/6 51/51/6
f 52/52/6 50/50/6 49/49/6
f 53/53/6 49/49/6 51/51/6
f 54/54/6 49/49/6 53/53/6
f 54/54/7 55/55/7 49/49/7
f 56/56/8 57/57/8 58/58/8
f 56/56/8 58/58/8 59/59/8
f 62/60/8 61/61/8 63/62/8
f 65/63/9 66/64/9 67/65/9
f 65/63/10 67/65/10 68/66/10
f 72/67/9 70/68/9 73/69/9
f 71/70/10 70/68/10 72/67/10
f 74/71/11 75/72/11 76/73/11
f 74/71/11 76/73/11 77/74/11
f 78/75/11 79/76/11 80/77/11
f 81/78/11 78/75/11 80/77/11
f 82/79/11 83/80/11 84/81/11
f 82/79/11 84/81/11 85/82/11
f 86/83/11 87/84/11 88/85/11
f 89/86/11 86/83/11 88/85/11
f 90/87/11 91/88/11 92/89/11
f 93/90/11 90/87/11 92/89/11
f 94/91/11 95/92/11 96/93/11
f 96/93/11 95/92/11 97/94/11
f 99/95/11 100/96/11 101/97/11
f 99/95/11 101/97/11 102/98/11
f 103/99/11 104/100/11 105/101/11
f 103/99/11 105/101/11 106/102/11
f 107/103/12 108/104/12 109/105/12
f 110/106/13 107/103/13 109/105/13
f 111/107/13 112/108/13 113/109/13
f 114/110/12 111/107/12 113/109/12
f 115/111/14 116/112/14 117/113/14
f 118/114/13 116/112/13 119/115/13
f 117/113/13 116/112/13 118/114/13
f 120/116/15 121/117/15 122/118/15
f 120/116/15 122/118/15 123/119/15
f 124/120/15 125/121/15 126/122/15
f 127/123/15 125/121/15 128/124/15
f 126/122/15 125/121/15 127/123/15
f 129/125/15 130/126/15 131/127/15
f 132/128/15 129/125/15 131/127/15
f 133/129/15 134/130/15 135/131/15
f 136/132/11 135/131/11 137/133/11
f 136/132/15 133/129/15 135/131/15
f 138/134/16 139/135/16 140/136/16
f 138/134/16 140/136/16 141/137/16
f 142/138/17 143/139/17 144/140/17
f 145/141/18 142/138/18 144/140/18
f 146/142/18 147/143/18 148/144/18
f 149/145/18 146/142/18 148/144/18
f 150/146/18 151/147/18 152/148/18
f 153/149/18 150/146/18 152/148/18
f 154/150/19 155/151/19 156/152/19
f 157/153/20 154/150/20 156/152/20
f 158/154/19 159/155/19 160/156/19
f 161/157/13 159/155/13 158/154/13
f 158/154/19 160/156/19 162/158/19
f 163/159/19 164/160/19 165/161/19
f 166/162/20 163/159/20 165/161/20
f 167/163/20 168/164/20 169/165/20
f 170/166/19 167/163/19 169/165/19
f 171/167/21 172/168/21 173/169/21
f 171/167/21 173/169/21 174/170/21
f 175/171/22 176/172/22 177/173/22
f 175/171/23 177/173/23 178/174/23
f 179/175/23 180/176/23 181/177/23
f 182/178/23 179/175/23 181/177/23
f 183/179/23 184/180/23 185/181/23
f 186/182/23 183/179/23 185/181/23
f 187/183/22 188/184/22 189/185/22
f 190/186/23 187/183/23 189/185/23
s 1
f 60/187/8 61/61/8 62/60/8
f 63/62/24 61/61/24 64/188/24
f 69/189/25 70/68/25 71/70/25
f 97/94/26 95/92/26 98/190/26
