# Blender v3.0.1 OBJ File: 'rockerfeller_plaza.blend'
# www.blender.org
o geometryt000010000010000110010110000110000110100000000100st114
v 484.847412 -79.517319 65.866318
v 484.682922 -79.820595 117.217323
v 484.847412 -79.517319 117.217323
v 485.728729 -77.892212 65.866318
v 484.682922 -79.820595 62.517326
v 485.728729 -77.892212 117.217323
v 486.975830 -75.592819 117.217323
v 486.975830 -75.592819 65.866318
v 488.021729 -73.664444 62.517326
v 487.857239 -73.967712 65.866318
v 487.857239 -73.967712 117.217323
v 488.021729 -73.664444 117.217323
v 511.265808 -94.209740 65.866318
v 511.569214 -94.373970 117.217323
v 511.265808 -94.209740 117.217323
v 509.640015 -93.329689 65.866318
v 511.569214 -94.373970 62.517326
v 509.640015 -93.329689 117.217323
v 508.240723 -92.572296 117.217323
v 508.240723 -92.572296 65.866318
v 503.363220 -89.932144 65.866318
v 503.363220 -89.932144 117.217323
v 501.964050 -89.174751 117.217323
v 501.964050 -89.174751 65.866318
v 500.338226 -88.294701 65.866318
v 500.338226 -88.294701 117.217323
v 498.939026 -87.537300 117.217323
v 498.939026 -87.537300 65.866318
v 497.313110 -86.657249 65.866318
v 484.682922 -79.820595 62.517326
v 497.313110 -86.657249 117.217323
v 495.913940 -85.899864 117.217323
v 495.913940 -85.899864 65.866318
v 494.288147 -85.019814 65.866318
v 494.288147 -85.019814 117.217323
v 492.888824 -84.262413 117.217323
v 492.888824 -84.262413 65.866318
v 488.011414 -81.622261 65.866318
v 488.011414 -81.622261 117.217323
v 486.612122 -80.864876 117.217323
v 486.612122 -80.864876 65.866318
v 484.986328 -79.984825 65.866318
v 484.986328 -79.984825 117.217323
v 484.682922 -79.820595 117.217323
v 488.325134 -73.828705 65.866318
v 488.021729 -73.664444 117.217323
v 488.325134 -73.828705 117.217323
v 489.950806 -74.708939 65.866318
v 488.021729 -73.664444 62.517326
v 489.950806 -74.708939 117.217323
v 492.616638 -76.152344 117.217323
v 492.616638 -76.152344 65.866318
v 494.545715 -77.196846 62.517326
v 494.242432 -77.032570 65.866318
v 494.242432 -77.032570 117.217323
v 494.545715 -77.196846 117.217323
v 492.069824 -66.177094 65.866318
v 491.905640 -66.480545 117.217323
v 492.069824 -66.177094 117.217323
v 492.949432 -64.551010 65.866318
v 491.905640 -66.480545 62.517326
v 492.949432 -64.551010 117.217323
v 493.620911 -63.309563 117.217323
v 493.620911 -63.309563 65.866318
v 494.264130 -62.120434 62.517326
v 494.500549 -61.683483 65.866318
v 494.500549 -61.683483 117.217323
v 495.172028 -60.442024 117.217323
v 495.172028 -60.442024 65.866318
v 496.051636 -58.815941 65.866318
v 496.215820 -58.512493 62.517326
v 496.051636 -58.815941 117.217323
v 496.215820 -58.512493 117.217323
v 498.134735 -69.848740 65.866318
v 498.438110 -70.012840 117.217323
v 498.134735 -69.848740 117.217323
v 496.508423 -68.969406 65.866318
v 498.438110 -70.012840 62.517326
v 496.508423 -68.969406 117.217323
v 493.835327 -67.523979 117.217323
v 493.835327 -67.523979 65.866318
v 491.905640 -66.480545 62.517326
v 492.209106 -66.644646 65.866318
v 492.209106 -66.644646 117.217323
v 491.905640 -66.480545 117.217323
v 494.710144 -76.893501 65.866318
v 494.545715 -77.196846 117.217323
v 494.710144 -76.893501 117.217323
v 495.590820 -75.268036 65.866318
v 494.545715 -77.196846 62.517326
v 495.590820 -75.268036 117.217323
v 496.051636 -74.417572 117.217323
v 496.051636 -74.417572 65.866318
v 496.932312 -72.792099 65.866318
v 496.932312 -72.792099 117.217323
v 497.393127 -71.941650 117.217323
v 497.393127 -71.941650 65.866318
v 498.438110 -70.012840 62.517326
v 498.273834 -70.316185 65.866318
v 498.273834 -70.316185 117.217323
v 498.438110 -70.012840 117.217323
v 496.522827 -58.678761 65.866318
v 496.219421 -58.514492 117.217323
v 496.522827 -58.678761 117.217323
v 498.148529 -59.559032 65.866318
v 496.219421 -58.514492 62.517326
v 498.148529 -59.559032 117.217323
v 499.546631 -60.316021 117.217323
v 499.546631 -60.316021 65.866318
v 504.423706 -62.956821 65.866318
v 504.423706 -62.956821 117.217323
v 505.821716 -63.713814 117.217323
v 505.821716 -63.713814 65.866318
v 507.447510 -64.594086 65.866318
v 507.447510 -64.594086 117.217323
v 508.845520 -65.351074 117.217323
v 508.845520 -65.351074 65.866318
v 510.471252 -66.231346 65.866318
v 523.097351 -73.067924 62.517326
v 510.471252 -66.231346 117.217323
v 511.869202 -66.988335 117.217323
v 511.869202 -66.988335 65.866318
v 513.495056 -67.868599 65.866318
v 513.495056 -67.868599 117.217323
v 514.893005 -68.625595 117.217323
v 514.893005 -68.625595 65.866318
v 519.770142 -71.266396 65.866318
v 519.770142 -71.266396 117.217323
v 521.168213 -72.023392 117.217323
v 521.168213 -72.023392 65.866318
v 522.793945 -72.903656 65.866318
v 522.793945 -72.903656 117.217323
v 523.097351 -73.067924 117.217323
v 512.957031 -77.894814 65.866318
v 513.121399 -77.591515 117.217323
v 512.957031 -77.894814 117.217323
v 512.075928 -79.520065 65.866318
v 513.121399 -77.591515 62.517326
v 512.075928 -79.520065 117.217323
v 511.059753 -81.394554 117.217323
v 511.059753 -81.394554 65.866318
v 510.014099 -83.323105 62.517326
v 510.178528 -83.019806 65.866318
v 510.178528 -83.019806 117.217323
v 510.014099 -83.323105 117.217323
v 510.317627 -83.487236 65.866318
v 510.014099 -83.323105 117.217323
v 510.317627 -83.487236 117.217323
v 511.943726 -84.366745 65.866318
v 510.014099 -83.323105 62.517326
v 511.943726 -84.366745 117.217323
v 513.912048 -85.431351 117.217323
v 513.912048 -85.431351 65.866318
v 515.538147 -86.310875 65.866318
v 515.841614 -86.475006 62.517326
v 515.538147 -86.310875 117.217323
v 515.841614 -86.475006 117.217323
v 515.677429 -86.778450 65.866318
v 515.841614 -86.475006 117.217323
v 515.677429 -86.778450 117.217323
v 514.797913 -88.404564 65.866318
v 515.841614 -86.475006 62.517326
v 514.797913 -88.404564 117.217323
v 514.145142 -89.611435 117.217323
v 514.145142 -89.611435 65.866318
v 513.265625 -91.237541 65.866318
v 511.569214 -94.373970 62.517326
v 513.265625 -91.237541 117.217323
v 512.612915 -92.444405 117.217323
v 512.612915 -92.444405 65.866318
v 511.733337 -94.070511 65.866318
v 511.733337 -94.070511 117.217323
v 511.569214 -94.373970 117.217323
v 518.645508 -80.579285 65.866318
v 518.948914 -80.743416 117.217323
v 518.645508 -80.579285 117.217323
v 517.019348 -79.699760 65.866318
v 518.948914 -80.743416 62.517326
v 517.019348 -79.699760 117.217323
v 515.051025 -78.635162 117.217323
v 515.051025 -78.635162 65.866318
v 513.424927 -77.755646 65.866318
v 513.121399 -77.591515 62.517326
v 513.424927 -77.755646 117.217323
v 513.121399 -77.591515 117.217323
v 522.933228 -73.371429 65.866318
v 523.097351 -73.067924 117.217323
v 522.933228 -73.371429 117.217323
v 522.054199 -74.997826 65.866318
v 523.097351 -73.067924 62.517326
v 522.054199 -74.997826 117.217323
v 521.462646 -76.092476 117.217323
v 521.462646 -76.092476 65.866318
v 520.583618 -77.718864 65.866318
v 518.948914 -80.743416 62.517326
v 520.583618 -77.718864 117.217323
v 519.992004 -78.813515 117.217323
v 519.992004 -78.813515 65.866318
v 519.112915 -80.439903 65.866318
v 519.112915 -80.439903 117.217323
v 518.948914 -80.743416 117.217323
vt 8.536231 4.293590
vt 8.978541 70.128197
vt 8.536231 70.128197
vt 6.166060 4.293590
vt 8.978541 0.000000
vt 6.166060 70.128197
vt 2.812480 70.128197
vt 2.812480 4.293590
vt 0.000000 0.000000
vt 0.442310 4.293590
vt 0.442310 70.128197
vt 0.000000 70.128197
vt 38.753120 4.293590
vt 39.195431 70.128197
vt 38.753120 70.128197
vt 36.382961 4.293590
vt 39.195431 0.000000
vt 36.382961 70.128197
vt 34.343128 70.128197
vt 34.343128 4.293590
vt 27.232620 4.293590
vt 27.232620 70.128197
vt 25.192801 70.128197
vt 25.192801 4.293590
vt 18.412630 4.293590
vt 0.000000 0.000000
vt 20.782801 4.293590
vt 18.412630 70.128197
vt 16.372801 70.128197
vt 16.372801 4.293590
vt 14.002640 4.293590
vt 4.852300 4.293590
vt 11.962810 4.293590
vt 4.852300 70.128197
vt 2.812480 70.128197
vt 2.812480 4.293590
vt 0.442310 4.293590
vt 0.442310 70.128197
vt 0.000000 70.128197
vt 9.069211 4.293590
vt 9.511510 70.128197
vt 9.069211 70.128197
vt 6.699040 4.293590
vt 9.511510 0.000000
vt 6.699040 70.128197
vt 2.812480 70.128197
vt 2.812480 4.293590
vt 0.000000 0.000000
vt 0.442310 4.293590
vt 0.442310 70.128197
vt 0.000000 70.128197
vt 11.171900 4.293590
vt 11.614210 70.128197
vt 11.171900 70.128197
vt 8.801731 4.293590
vt 11.614210 0.000000
vt 8.801731 70.128197
vt 6.992190 70.128197
vt 6.992190 4.293590
vt 5.258920 0.000000
vt 4.622020 4.293590
vt 4.622020 70.128197
vt 2.812480 70.128197
vt 2.812480 4.293590
vt 0.442310 4.293590
vt 0.000000 0.000000
vt 0.442310 70.128197
vt 0.000000 70.128197
vt 6.708490 4.293590
vt 9.520960 0.000000
vt 9.078660 4.293590
vt 9.520960 70.128197
vt 6.708490 70.128197
vt 2.812480 70.128197
vt 2.812480 4.293590
vt 0.000000 0.000000
vt 0.442310 4.293590
vt 0.442310 70.128197
vt 0.000000 70.128197
vt 10.032970 4.293590
vt 10.475270 70.128197
vt 10.032970 70.128197
vt 7.662800 4.293590
vt 10.475270 0.000000
vt 7.662800 70.128197
vt 6.422720 70.128197
vt 6.422720 4.293590
vt 4.052550 4.293590
vt 4.052550 70.128197
vt 2.812480 70.128197
vt 2.812480 4.293590
vt 0.000000 0.000000
vt 0.442310 4.293590
vt 0.442310 70.128197
vt 0.000000 70.128197
vt 38.743580 4.293590
vt 39.185890 70.128197
vt 38.743580 70.128197
vt 36.373421 4.293590
vt 39.185890 0.000000
vt 36.373421 70.128197
vt 34.335178 70.128197
vt 34.335178 4.293590
vt 27.224670 4.293590
vt 27.224670 70.128197
vt 25.186440 70.128197
vt 25.186440 4.293590
vt 22.816271 4.293590
vt 22.816271 70.128197
vt 20.778030 70.128197
vt 20.778030 4.293590
vt 18.407860 4.293590
vt 0.000000 0.000000
vt 18.407860 70.128197
vt 16.369619 70.128197
vt 16.369619 4.293590
vt 13.999460 4.293590
vt 13.999460 70.128197
vt 11.961220 70.128197
vt 11.961220 4.293590
vt 4.850710 4.293590
vt 4.850710 70.128197
vt 2.812480 70.128197
vt 2.812480 4.293590
vt 0.442310 4.293590
vt 0.442310 70.128197
vt 0.000000 70.128197
vt 5.546130 4.293590
vt 8.358600 0.000000
vt 7.916290 4.293590
vt 5.546130 70.128197
vt 2.812480 70.128197
vt 2.812480 4.293590
vt 0.000000 0.000000
vt 0.442310 4.293590
vt 0.442310 70.128197
vt 0.000000 70.128197
vt 8.051590 4.293590
vt 8.493901 70.128197
vt 8.051590 70.128197
vt 5.681420 4.293590
vt 8.493901 0.000000
vt 5.681420 70.128197
vt 2.812480 70.128197
vt 2.812480 4.293590
vt 0.442310 4.293590
vt 0.000000 0.000000
vt 0.442310 70.128197
vt 0.000000 70.128197
vt 11.070980 4.293590
vt 11.513290 70.128197
vt 11.070980 70.128197
vt 8.700811 4.293590
vt 11.513290 0.000000
vt 8.700811 70.128197
vt 6.941730 70.128197
vt 6.941730 4.293590
vt 4.571560 4.293590
vt 0.000000 0.000000
vt 4.571560 70.128197
vt 2.812480 70.128197
vt 2.812480 4.293590
vt 0.442310 4.293590
vt 0.442310 70.128197
vt 0.000000 70.128197
vt 8.051590 4.293590
vt 8.493890 70.128197
vt 8.051590 70.128197
vt 5.681420 4.293590
vt 8.493890 0.000000
vt 5.681420 70.128197
vt 2.812480 70.128197
vt 2.812480 4.293590
vt 0.442310 4.293590
vt 0.000000 0.000000
vt 0.442310 70.128197
vt 0.000000 70.128197
vt 10.743310 4.293590
vt 11.185620 70.128197
vt 10.743310 70.128197
vt 8.373141 4.293590
vt 11.185620 0.000000
vt 8.373141 70.128197
vt 6.777890 70.128197
vt 6.777890 4.293590
vt 4.407730 4.293590
vt 0.000000 0.000000
vt 4.407730 70.128197
vt 2.812480 70.128197
vt 2.812480 4.293590
vt 0.442310 4.293590
vt 0.442310 70.128197
vt 0.000000 70.128197
vt 22.822630 4.293590
vt 22.822630 70.128197
vt 20.782801 70.128197
vt 14.002640 70.128197
vt 11.962810 70.128197
vt 9.078660 70.128197
vt 8.358600 70.128197
vt 7.916290 70.128197
vn -0.8791 0.4767 0.0000
vn -0.8790 0.4768 0.0000
vn -0.8790 0.4767 0.0000
vn -0.8790 0.4769 0.0000
vn -0.4761 -0.8794 0.0000
vn -0.4760 -0.8794 0.0000
vn -0.4760 -0.8794 -0.0001
vn 0.4761 0.8794 0.0000
vn 0.4763 0.8793 0.0000
vn -0.8797 0.4756 -0.0000
vn -0.8796 0.4758 0.0000
vn -0.8797 0.4755 0.0000
vn -0.8796 0.4757 0.0000
vn -0.8795 0.4758 -0.0000
vn -0.4756 -0.8797 0.0000
vn -0.4758 -0.8795 0.0000
vn -0.4756 -0.8796 0.0000
vn -0.4757 -0.8796 0.0000
vn -0.8791 0.4766 0.0000
vn -0.8792 0.4764 0.0000
vn -0.8792 0.4765 0.0000
vn -0.8793 0.4764 0.0000
vn -0.8794 0.4761 0.0000
vn 0.4762 0.8794 -0.0000
vn 0.4761 0.8794 0.0001
vn 0.4762 0.8793 0.0001
vn 0.4761 0.8794 -0.0001
vn 0.4762 0.8793 0.0000
vn 0.4760 0.8795 0.0000
vn 0.8791 -0.4766 -0.0000
vn 0.8791 -0.4767 0.0000
vn 0.8792 -0.4765 0.0000
vn 0.4759 0.8795 -0.0000
vn 0.4757 0.8796 -0.0000
vn 0.4758 0.8796 0.0000
vn 0.8798 -0.4754 -0.0000
vn 0.8796 -0.4757 0.0000
vn 0.8796 -0.4758 0.0000
vn -0.4758 -0.8796 0.0000
vn -0.4759 -0.8795 0.0000
vn 0.8797 -0.4756 0.0000
vn 0.8795 -0.4758 0.0000
vn 0.8797 -0.4754 0.0000
vn 0.8797 -0.4755 -0.0000
vn -0.4754 -0.8798 -0.0000
vn 0.8793 -0.4763 0.0000
vn 0.8795 -0.4760 0.0000
vn 0.8797 -0.4754 0.0001
vn 0.8798 -0.4753 0.0000
s off
f 1/1/1 2/2/1 3/3/1
f 4/4/1 5/5/1 1/1/1
f 2/2/2 1/1/2 5/5/2
f 6/6/2 7/7/2 4/4/2
f 7/7/2 8/8/2 4/4/2
f 8/8/2 9/9/2 4/4/2
f 9/9/2 5/5/2 4/4/2
f 10/10/3 9/9/3 8/8/3
f 11/11/4 12/12/4 10/10/4
f 12/12/3 9/9/3 10/10/3
f 13/13/5 14/14/5 15/15/5
f 16/16/5 17/17/5 13/13/5
f 14/14/6 13/13/6 17/17/6
f 18/18/6 19/19/6 16/16/6
f 19/19/6 20/20/6 16/16/6
f 20/20/6 17/17/6 16/16/6
f 20/20/6 21/21/6 17/17/6
f 22/22/5 23/23/5 21/21/5
f 23/23/5 24/24/5 21/21/5
f 21/21/7 24/24/7 17/17/7
f 29/25/7 30/26/7 28/27/7
f 28/27/6 30/26/6 17/17/6
f 31/28/6 32/29/6 29/25/6
f 32/29/6 33/30/6 29/25/6
f 33/30/6 30/26/6 29/25/6
f 34/31/6 30/26/6 33/30/6
f 38/32/6 30/26/6 37/33/6
f 39/34/6 40/35/6 38/32/6
f 40/35/6 41/36/6 38/32/6
f 41/36/6 30/26/6 38/32/6
f 42/37/5 30/26/5 41/36/5
f 43/38/5 44/39/5 42/37/5
f 44/39/6 30/26/6 42/37/6
f 45/40/8 46/41/8 47/42/8
f 48/43/8 49/44/8 45/40/8
f 46/41/8 45/40/8 49/44/8
f 50/45/8 51/46/8 48/43/8
f 51/46/8 52/47/8 48/43/8
f 52/47/8 53/48/8 48/43/8
f 53/48/8 49/44/8 48/43/8
f 54/49/8 53/48/8 52/47/8
f 55/50/9 56/51/9 54/49/9
f 56/51/9 53/48/9 54/49/9
f 57/52/10 58/53/10 59/54/10
f 60/55/11 61/56/11 57/52/11
f 58/53/12 57/52/12 61/56/12
f 62/57/13 63/58/13 60/55/13
f 63/58/13 64/59/13 60/55/13
f 64/59/11 65/60/11 60/55/11
f 60/55/11 65/60/11 61/56/11
f 64/59/11 66/61/11 65/60/11
f 67/62/11 68/63/11 66/61/11
f 68/63/13 69/64/13 66/61/13
f 66/61/11 69/64/11 65/60/11
f 70/65/14 71/66/14 69/64/14
f 69/64/11 71/66/11 65/60/11
f 72/67/10 73/68/10 70/65/10
f 73/68/11 71/66/11 70/65/11
f 77/69/15 78/70/15 74/71/15
f 75/72/16 74/71/16 78/70/16
f 79/73/17 80/74/17 77/69/17
f 80/74/17 81/75/17 77/69/17
f 81/75/17 82/76/17 77/69/17
f 82/76/17 78/70/17 77/69/17
f 83/77/17 82/76/17 81/75/17
f 84/78/18 85/79/18 83/77/18
f 85/79/17 82/76/17 83/77/17
f 86/80/19 87/81/19 88/82/19
f 89/83/20 90/84/20 86/80/20
f 87/81/21 86/80/21 90/84/21
f 91/85/22 92/86/22 89/83/22
f 92/86/20 93/87/20 89/83/20
f 93/87/20 90/84/20 89/83/20
f 93/87/20 94/88/20 90/84/20
f 95/89/22 96/90/22 94/88/22
f 96/90/20 97/91/20 94/88/20
f 97/91/20 98/92/20 94/88/20
f 94/88/20 98/92/20 90/84/20
f 99/93/20 98/92/20 97/91/20
f 100/94/23 101/95/23 99/93/23
f 101/95/21 98/92/21 99/93/21
f 102/96/8 103/97/8 104/98/8
f 105/99/24 106/100/24 102/96/24
f 103/97/8 102/96/8 106/100/8
f 107/101/8 108/102/8 105/99/8
f 108/102/8 109/103/8 105/99/8
f 109/103/8 106/100/8 105/99/8
f 109/103/24 110/104/24 106/100/24
f 111/105/24 112/106/24 110/104/24
f 112/106/24 113/107/24 110/104/24
f 110/104/24 113/107/24 106/100/24
f 113/107/25 114/108/25 106/100/25
f 115/109/24 116/110/24 114/108/24
f 116/110/24 117/111/24 114/108/24
f 114/108/24 117/111/24 106/100/24
f 118/112/8 119/113/8 117/111/8
f 117/111/8 119/113/8 106/100/8
f 120/114/24 121/115/24 118/112/24
f 121/115/24 122/116/24 118/112/24
f 122/116/26 119/113/26 118/112/26
f 123/117/27 119/113/27 122/116/27
f 124/118/28 125/119/28 123/117/28
f 125/119/28 126/120/28 123/117/28
f 126/120/26 119/113/26 123/117/26
f 127/121/24 119/113/24 126/120/24
f 128/122/8 129/123/8 127/121/8
f 129/123/8 130/124/8 127/121/8
f 130/124/8 119/113/8 127/121/8
f 131/125/8 119/113/8 130/124/8
f 132/126/29 133/127/29 131/125/29
f 133/127/28 119/113/28 131/125/28
f 137/128/30 138/129/30 134/130/30
f 139/131/30 140/132/30 137/128/30
f 140/132/30 141/133/30 137/128/30
f 141/133/30 142/134/30 137/128/30
f 142/134/30 138/129/30 137/128/30
f 143/135/31 142/134/31 141/133/31
f 144/136/32 145/137/32 143/135/32
f 145/137/30 142/134/30 143/135/30
f 146/138/33 147/139/33 148/140/33
f 149/141/34 150/142/34 146/138/34
f 147/139/34 146/138/34 150/142/34
f 151/143/34 152/144/34 149/141/34
f 152/144/34 153/145/34 149/141/34
f 153/145/34 150/142/34 149/141/34
f 154/146/34 155/147/34 153/145/34
f 153/145/34 155/147/34 150/142/34
f 156/148/35 157/149/35 154/146/35
f 158/150/36 159/151/36 160/152/36
f 161/153/37 162/154/37 158/150/37
f 163/155/37 164/156/37 161/153/37
f 164/156/38 165/157/38 161/153/38
f 165/157/37 162/154/37 161/153/37
f 166/158/38 167/159/38 165/157/38
f 165/157/38 167/159/38 162/154/38
f 168/160/37 169/161/37 166/158/37
f 169/161/37 170/162/37 166/158/37
f 171/163/38 167/159/38 170/162/38
f 172/164/38 173/165/38 171/163/38
f 173/165/37 167/159/37 171/163/37
f 174/166/39 175/167/39 176/168/39
f 177/169/18 178/170/18 174/166/18
f 175/167/40 174/166/40 178/170/40
f 179/171/18 180/172/18 177/169/18
f 180/172/39 181/173/39 177/169/39
f 181/173/39 178/170/39 177/169/39
f 182/174/39 183/175/39 181/173/39
f 181/173/18 183/175/18 178/170/18
f 184/176/18 185/177/18 182/174/18
f 185/177/15 183/175/15 182/174/15
f 186/178/41 187/179/41 188/180/41
f 189/181/36 190/182/36 186/178/36
f 187/179/42 186/178/42 190/182/42
f 191/183/36 192/184/36 189/181/36
f 192/184/43 193/185/43 189/181/43
f 194/186/44 195/187/44 193/185/44
f 193/185/44 195/187/44 190/182/44
f 196/188/36 197/189/36 194/186/36
f 197/189/44 198/190/44 194/186/44
f 198/190/36 195/187/36 194/186/36
f 199/191/44 195/187/44 198/190/44
f 200/192/41 201/193/41 199/191/41
s 1
f 24/24/6 25/194/6 17/17/6
f 26/195/6 27/196/6 25/194/6
f 27/196/6 28/27/5 25/194/6
f 25/194/6 28/27/5 17/17/6
f 35/197/6 36/198/6 34/31/6
f 36/198/6 37/33/7 34/31/6
f 37/33/7 30/26/7 34/31/6
f 74/71/45 75/72/45 76/199/45
f 134/130/32 135/200/46 136/201/46
f 135/200/46 134/130/32 138/129/32
f 157/149/34 155/147/34 154/146/34
f 159/151/47 158/150/47 162/154/47
f 170/162/37 167/159/37 166/158/37
f 193/185/48 190/182/48 189/181/48
f 201/193/49 195/187/49 199/191/49
