# Blender v3.0.1 OBJ File: 'rockerfeller_plaza.blend'
# www.blender.org
o geometryt000010000010000110010110000110000110100000100100st98_1
v 352.474304 -240.026321 611.497803
v 341.980652 -263.318420 611.497803
v 339.672546 -263.755920 611.497803
v 362.396698 -275.915710 611.497803
v 354.079834 -240.884720 611.497803
v 363.090790 -274.619812 611.497803
v 347.955688 -261.683594 611.497803
v 358.030090 -243.003830 611.497803
v 369.677094 -273.277710 611.497803
v 368.470001 -275.478821 611.497803
v 367.618591 -277.042999 611.497803
v 351.474304 -260.799103 611.497803
v 360.400085 -244.264221 611.497803
v 370.834595 -271.177002 611.497803
v 395.536194 -292.228912 611.497803
v 396.387695 -290.675812 611.497803
v 397.594696 -288.474609 611.497803
v 398.752319 -286.373901 611.497803
v 362.610107 -257.927612 611.497803
v 367.875488 -248.252029 611.497803
v 372.371399 -268.294800 611.497803
v 374.512207 -264.350922 611.497803
v 377.400604 -271.000916 611.497803
v 400.091400 -283.915894 611.497803
v 400.322998 -283.502411 611.497803
v 376.719208 -253.023224 611.497803
v 381.169800 -264.062714 611.497803
v 379.533081 -267.068207 611.497803
v 380.356384 -250.716125 611.497803
v 378.512787 -249.716125 611.497803
v 402.843811 -262.845215 611.497803
v 397.413086 -272.822601 611.497803
v 402.385803 -279.392914 611.497803
v 406.921692 -265.051605 611.497803
v 404.022491 -276.387421 611.497803
v 409.138916 -266.968811 611.497803
v 409.444794 -266.410095 611.497803
v 403.055420 -278.163818 611.497803
v 339.672546 -263.755920 661.497803
v 341.980652 -263.318420 661.497803
v 352.474304 -240.026321 661.497803
v 362.396698 -275.915710 661.497803
v 343.080566 -261.279022 661.497803
v 361.171692 -273.592407 661.497803
v 354.079834 -240.884720 661.497803
v 363.090790 -274.619812 661.497803
v 341.980652 -263.318420 666.497803
v 347.955688 -261.683594 666.497803
v 354.079834 -240.884720 666.497803
v 363.090790 -274.619812 666.497803
v 349.505585 -258.809814 666.497803
v 366.335297 -271.494019 666.497803
v 358.030090 -243.003830 666.497803
v 369.677094 -273.277710 666.497803
v 367.618591 -277.042999 666.497803
v 368.470001 -275.478821 666.497803
v 347.955688 -261.683594 676.497803
v 351.474304 -260.799103 676.497803
v 358.030090 -243.003830 676.497803
v 369.677094 -273.277710 676.497803
v 352.111847 -259.618011 676.497803
v 369.451691 -270.435822 676.497803
v 360.400085 -244.264221 676.497803
v 370.834595 -271.177002 676.497803
v 351.474304 -260.799103 681.497803
v 362.610107 -257.927612 681.497803
v 360.400085 -244.264221 681.497803
v 370.834595 -271.177002 681.497803
v 363.180206 -256.879913 681.497803
v 367.875488 -248.252029 681.497803
v 372.371399 -268.294800 681.497803
v 373.223389 -263.655396 681.497803
v 374.512207 -264.350922 681.497803
v 367.875488 -248.252029 689.997803
v 362.610107 -257.927612 689.997803
v 376.719208 -253.023224 689.997803
v 374.512207 -264.350922 689.997803
v 381.169800 -264.062714 689.997803
v 379.533081 -267.068207 689.997803
v 380.356384 -250.716125 689.997803
v 378.512787 -249.716125 689.997803
v 402.843811 -262.845215 689.997803
v 397.413086 -272.822601 689.997803
v 368.160400 -276.047607 646.497803
v 367.618591 -277.042999 646.497803
v 395.536194 -292.228912 646.497803
v 368.470001 -275.478821 646.497803
v 392.898010 -288.776123 646.497803
v 396.387695 -290.675812 646.497803
v 368.771790 -274.928619 651.497803
v 368.470001 -275.478821 651.497803
v 396.387695 -290.675812 651.497803
v 369.347900 -273.878021 651.497803
v 369.542999 -273.522308 651.497803
v 369.677094 -273.277710 651.497803
v 394.492798 -286.786102 651.497803
v 397.594696 -288.474609 651.497803
v 369.908600 -272.857605 656.497803
v 369.677094 -273.277710 656.497803
v 397.594696 -288.474609 656.497803
v 370.478394 -271.823395 656.497803
v 370.718811 -271.387115 656.497803
v 370.834595 -271.177002 656.497803
v 395.960510 -284.854309 656.497803
v 398.752319 -286.373901 656.497803
v 376.239990 -270.376404 661.497803
v 371.141998 -270.600616 661.497803
v 370.834595 -271.177002 661.497803
v 376.943390 -270.754913 661.497803
v 377.400604 -271.000916 661.497803
v 398.752319 -286.373901 661.497803
v 371.932312 -269.118317 661.497803
v 372.016785 -268.960022 661.497803
v 372.371399 -268.294800 661.497803
v 398.239105 -282.365906 661.497803
v 400.091400 -283.915894 661.497803
v 400.322998 -283.502411 661.497803
v 374.359314 -264.632599 676.497803
v 372.371399 -268.294800 676.497803
v 377.400604 -271.000916 676.497803
v 374.512207 -264.350922 676.497803
v 378.669617 -266.600922 676.497803
v 379.533081 -267.068207 676.497803
v 379.205017 -267.673218 666.497803
v 377.400604 -271.000916 666.497803
v 402.385803 -279.392914 666.497803
v 400.322998 -283.502411 666.497803
v 379.533081 -267.068207 666.497803
v 398.869995 -277.496796 666.497803
v 394.619598 -271.316101 676.497803
v 380.888306 -264.579620 676.497803
v 396.252808 -272.196899 676.497803
v 397.413086 -272.822601 676.497803
v 402.385803 -279.392914 676.497803
v 381.169800 -264.062714 676.497803
v 403.055420 -278.163818 676.497803
v 403.550415 -276.132721 676.497803
v 404.022491 -276.387421 676.497803
v 406.921692 -265.051605 681.497803
v 402.255798 -263.925598 681.497803
v 397.413086 -272.822601 681.497803
v 404.022491 -276.387421 681.497803
v 402.843811 -262.845215 681.497803
v 409.138916 -266.968811 681.497803
v 409.444794 -266.410095 681.497803
vt 0.405740 0.191010
vt 0.451460 0.169310
vt 0.452990 0.164650
vt 0.467890 0.210170
vt 0.406790 0.194220
vt 0.465310 0.211600
vt 0.446580 0.181390
vt 0.409390 0.202140
vt 0.460770 0.224900
vt 0.465160 0.222420
vt 0.468280 0.220670
vt 0.443860 0.188510
vt 0.410930 0.206880
vt 0.456580 0.227290
vt 0.487040 0.276580
vt 0.483940 0.278330
vt 0.479550 0.280820
vt 0.475360 0.283200
vt 0.435090 0.211020
vt 0.415810 0.221860
vt 0.450850 0.230450
vt 0.442990 0.234860
vt 0.454180 0.240520
vt 0.470460 0.285960
vt 0.469640 0.286430
vt 0.421680 0.239570
vt 0.440350 0.248280
vt 0.446340 0.244910
vt 0.416330 0.246960
vt 0.415090 0.243260
vt 0.431250 0.292000
vt 0.451130 0.280820
vt 0.461500 0.290690
vt 0.433960 0.300160
vt 0.455510 0.294050
vt 0.436750 0.304590
vt 0.435630 0.305220
vt 0.459050 0.292060
vt 0.452990 0.164650
vt 0.451460 0.169310
vt 0.405740 0.191010
vt 0.467890 0.210170
vt 0.447400 0.171580
vt 0.464050 0.207750
vt 0.406790 0.194220
vt 0.465310 0.211600
vt 0.451460 0.169310
vt 0.446580 0.181390
vt 0.406790 0.194220
vt 0.465310 0.211600
vt 0.440860 0.184590
vt 0.458590 0.218210
vt 0.409390 0.202140
vt 0.460770 0.224900
vt 0.468280 0.220670
vt 0.465160 0.222420
vt 0.446580 0.181390
vt 0.443860 0.188510
vt 0.409390 0.202140
vt 0.460770 0.224900
vt 0.441500 0.189820
vt 0.455670 0.224520
vt 0.410930 0.206880
vt 0.456580 0.227290
vt 0.443860 0.188510
vt 0.435090 0.211020
vt 0.410930 0.206880
vt 0.456580 0.227290
vt 0.433000 0.212190
vt 0.415810 0.221860
vt 0.450850 0.230450
vt 0.442140 0.232280
vt 0.442990 0.234860
vt 0.415810 0.221860
vt 0.435090 0.211020
vt 0.421680 0.239570
vt 0.442990 0.234860
vt 0.440350 0.248280
vt 0.446340 0.244910
vt 0.416330 0.246960
vt 0.415090 0.243260
vt 0.431250 0.292000
vt 0.451130 0.280820
vt 0.466300 0.221780
vt 0.468280 0.220670
vt 0.487040 0.276580
vt 0.465160 0.222420
vt 0.481590 0.271340
vt 0.483940 0.278330
vt 0.464070 0.223040
vt 0.465160 0.222420
vt 0.483940 0.278330
vt 0.461970 0.224230
vt 0.461260 0.224630
vt 0.460770 0.224900
vt 0.477460 0.274600
vt 0.479550 0.280820
vt 0.459940 0.225380
vt 0.460770 0.224900
vt 0.479550 0.280820
vt 0.457870 0.226550
vt 0.457000 0.227050
vt 0.456580 0.227290
vt 0.473480 0.277610
vt 0.475360 0.283200
vt 0.453410 0.238200
vt 0.455440 0.227920
vt 0.456580 0.227290
vt 0.453870 0.239610
vt 0.454180 0.240520
vt 0.475360 0.283200
vt 0.452490 0.229550
vt 0.452170 0.229720
vt 0.450850 0.230450
vt 0.468230 0.282260
vt 0.470460 0.285960
vt 0.469640 0.286430
vt 0.443550 0.234540
vt 0.450850 0.230450
vt 0.454180 0.240520
vt 0.442990 0.234860
vt 0.445770 0.243180
vt 0.446340 0.244910
vt 0.447550 0.244240
vt 0.454180 0.240520
vt 0.461500 0.290690
vt 0.469640 0.286430
vt 0.446340 0.244910
vt 0.459170 0.283640
vt 0.449270 0.275220
vt 0.441380 0.247700
vt 0.450360 0.278490
vt 0.451130 0.280820
vt 0.461500 0.290690
vt 0.440350 0.248280
vt 0.459050 0.292060
vt 0.455200 0.293110
vt 0.455510 0.294050
vt 0.433960 0.300160
vt 0.433400 0.290790
vt 0.451130 0.280820
vt 0.455510 0.294050
vt 0.431250 0.292000
vt 0.436750 0.304590
vt 0.435630 0.305220
vn 0.0000 0.0000 -1.0000
vn -0.0001 0.0000 -1.0000
vn 0.0000 0.0000 1.0000
vn -0.0005 0.0000 1.0000
vn 0.0001 0.0000 1.0000
vn -0.0001 0.0000 1.0000
vn 0.0003 0.0000 1.0000
vn 0.0005 0.0000 1.0000
vn 0.0004 0.0000 1.0000
s off
f 1/1/1 2/2/1 3/3/1
f 2/2/1 4/4/1 3/3/1
f 1/1/1 5/5/1 2/2/1
f 2/2/1 6/6/1 4/4/1
f 5/5/1 7/7/1 2/2/1
f 7/7/1 6/6/1 2/2/1
f 5/5/1 8/8/1 7/7/1
f 9/9/1 6/6/1 7/7/1
f 6/6/1 10/10/1 11/11/1
f 9/9/1 10/10/1 6/6/1
f 8/8/1 12/12/1 7/7/1
f 12/12/1 9/9/1 7/7/1
f 8/8/1 13/13/1 12/12/1
f 12/12/1 14/14/1 9/9/1
f 11/11/1 10/10/1 15/15/1
f 10/10/1 16/16/1 15/15/1
f 10/10/1 9/9/1 16/16/1
f 9/9/1 17/17/1 16/16/1
f 9/9/1 14/14/1 17/17/1
f 14/14/1 18/18/1 17/17/1
f 19/19/1 12/12/1 13/13/1
f 12/12/1 19/19/1 14/14/1
f 20/20/1 19/19/1 13/13/1
f 19/19/1 21/21/1 14/14/1
f 22/22/1 21/21/1 19/19/1
f 14/14/1 21/21/1 23/23/1
f 18/18/1 14/14/1 23/23/1
f 24/24/1 18/18/1 23/23/1
f 24/24/1 23/23/1 25/25/1
f 19/19/1 20/20/1 26/26/1
f 22/22/1 19/19/1 26/26/1
f 27/27/1 22/22/1 26/26/1
f 27/27/1 28/28/1 22/22/1
f 29/29/1 26/26/1 30/30/1
f 27/27/1 26/26/1 29/29/1
f 31/31/1 27/27/1 29/29/1
f 31/31/1 32/32/1 27/27/1
f 21/21/1 22/22/1 23/23/1
f 22/22/1 28/28/1 23/23/1
f 23/23/1 28/28/1 33/33/1
f 23/23/1 33/33/1 25/25/1
f 31/31/1 34/34/1 32/32/1
f 32/32/1 34/34/1 35/35/1
f 35/35/1 34/34/1 36/36/1
f 36/36/2 34/34/2 37/37/2
f 28/28/1 27/27/1 32/32/1
f 33/33/1 28/28/1 32/32/1
f 38/38/1 33/33/1 32/32/1
f 38/38/1 32/32/1 35/35/1
f 39/39/3 40/40/3 41/41/3
f 42/42/3 40/40/3 39/39/3
f 40/40/4 43/43/4 41/41/4
f 44/44/3 40/40/3 42/42/3
f 43/43/3 45/45/3 41/41/3
f 46/46/3 44/44/3 42/42/3
f 47/47/3 48/48/3 49/49/3
f 50/50/3 48/48/3 47/47/3
f 48/48/3 51/51/3 49/49/3
f 52/52/3 48/48/3 50/50/3
f 51/51/3 53/53/3 49/49/3
f 54/54/3 52/52/3 50/50/3
f 55/55/3 56/56/3 50/50/3
f 56/56/3 54/54/3 50/50/3
f 57/57/3 58/58/3 59/59/3
f 60/60/3 58/58/3 57/57/3
f 58/58/3 61/61/3 59/59/3
f 62/62/3 58/58/3 60/60/3
f 61/61/3 63/63/3 59/59/3
f 64/64/3 62/62/3 60/60/3
f 65/65/3 66/66/3 67/67/3
f 68/68/3 66/66/3 65/65/3
f 66/66/3 69/69/3 67/67/3
f 69/69/3 70/70/3 67/67/3
f 71/71/3 66/66/3 68/68/3
f 71/71/3 72/72/3 66/66/3
f 71/71/3 73/73/3 72/72/3
f 74/74/3 75/75/3 76/76/3
f 76/76/3 75/75/3 77/77/3
f 78/78/3 76/76/3 77/77/3
f 78/78/3 77/77/3 79/79/3
f 80/80/3 81/81/3 76/76/3
f 80/80/3 76/76/3 78/78/3
f 80/80/3 78/78/3 82/82/3
f 82/82/3 78/78/3 83/83/3
f 84/84/3 85/85/3 86/86/3
f 87/87/3 84/84/3 86/86/3
f 87/87/3 86/86/3 88/88/3
f 88/88/3 86/86/3 89/89/3
f 90/90/3 91/91/3 92/92/3
f 93/93/3 90/90/3 92/92/3
f 94/94/3 93/93/3 92/92/3
f 95/95/3 94/94/3 92/92/3
f 95/95/3 92/92/3 96/96/3
f 96/96/3 92/92/3 97/97/3
f 98/98/3 99/99/3 100/100/3
f 101/101/5 98/98/5 100/100/5
f 102/102/6 101/101/6 100/100/6
f 103/103/7 102/102/7 100/100/7
f 103/103/3 100/100/3 104/104/3
f 104/104/3 100/100/3 105/105/3
f 106/106/3 107/107/3 108/108/3
f 109/109/3 106/106/3 108/108/3
f 110/110/3 109/109/3 108/108/3
f 111/111/3 110/110/3 108/108/3
f 106/106/3 112/112/3 107/107/3
f 106/106/6 113/113/6 112/112/6
f 106/106/3 114/114/3 113/113/3
f 115/115/3 110/110/3 116/116/3
f 110/110/3 111/111/3 116/116/3
f 117/117/3 115/115/3 116/116/3
f 118/118/3 119/119/3 120/120/3
f 121/121/8 118/118/8 120/120/8
f 121/121/3 120/120/3 122/122/3
f 122/122/3 120/120/3 123/123/3
f 124/124/3 125/125/3 126/126/3
f 125/125/3 127/127/3 126/126/3
f 128/128/3 124/124/3 129/129/3
f 129/129/9 124/124/9 126/126/9
f 130/130/3 131/131/3 123/123/3
f 130/130/3 123/123/3 132/132/3
f 132/132/3 123/123/3 133/133/3
f 133/133/3 123/123/3 134/134/3
f 135/135/6 131/131/6 130/130/6
f 133/133/3 134/134/3 136/136/3
f 137/137/3 133/133/3 136/136/3
f 138/138/3 137/137/3 136/136/3
f 139/139/3 140/140/3 141/141/3
f 142/142/3 139/139/3 141/141/3
f 139/139/3 143/143/3 140/140/3
f 139/139/3 142/142/3 144/144/3
f 145/145/3 139/139/3 144/144/3
