# Blender v3.0.1 OBJ File: 'rockerfeller_plaza.blend'
# www.blender.org
o geometryt000010000010000110010110000110000110100000100100st26
v 468.650696 -299.861908 612.053345
v 464.138977 -295.928619 612.053345
v 469.270294 -298.700104 612.053345
v 463.675476 -309.079010 612.053345
v 455.377991 -324.452118 612.053345
v 450.238220 -321.680695 612.053345
v 463.675476 -309.079010 633.653320
v 464.138977 -295.928619 633.653320
v 450.238220 -321.680695 633.653320
v 468.650696 -299.861908 633.653320
v 469.270294 -298.700104 633.653320
v 455.377991 -324.452118 633.653320
vt 0.477680 0.423770
vt 0.471960 0.414760
vt 0.475370 0.425040
vt 0.496030 0.413520
vt 0.526640 0.396440
vt 0.523230 0.386140
vt 0.496030 0.413520
vt 0.471960 0.414760
vt 0.523230 0.386140
vt 0.477680 0.423770
vt 0.475370 0.425040
vt 0.526640 0.396440
vn 0.0000 0.0000 -1.0000
vn -0.0000 0.0000 1.0000
s off
f 1/1/1 2/2/1 3/3/1
f 1/1/1 4/4/1 2/2/1
f 5/5/1 6/6/1 4/4/1
f 6/6/1 2/2/1 4/4/1
f 7/7/2 8/8/2 9/9/2
f 10/10/2 8/8/2 7/7/2
f 11/11/2 8/8/2 10/10/2
f 7/7/2 9/9/2 12/12/2
