# Blender v3.0.1 OBJ File: 'rockerfeller_plaza.blend'
# www.blender.org
o geometryt000010000010000110010110000110000110100000010100st79
v 766.485168 -141.298386 149.514175
v 765.059387 -143.950684 149.514175
v 765.059387 -143.950684 163.331970
v 766.485168 -141.298386 163.331970
v 768.073120 -138.344482 149.514175
v 766.647339 -140.996689 149.514175
v 766.647339 -140.996689 163.331970
v 768.073120 -138.344482 163.331970
v 771.086853 -132.738190 163.331970
v 771.086853 -132.738190 149.514175
v 768.235291 -138.042786 149.514175
v 768.235291 -138.042786 163.331970
v 771.961914 -131.110382 163.331970
v 771.961914 -131.110382 149.514175
v 771.249023 -132.436478 149.514175
v 771.249023 -132.436478 163.331970
v 772.836975 -129.482590 163.331970
v 772.836975 -129.482590 149.514175
v 772.124084 -130.808685 149.514175
v 772.124084 -130.808685 163.331970
v 775.850708 -123.876282 163.331970
v 775.850708 -123.876282 149.514175
v 772.999146 -129.180878 149.514175
v 772.999146 -129.180878 163.331970
v 777.438599 -120.922386 163.331970
v 777.438599 -120.922386 149.514175
v 776.012817 -123.574585 149.514175
v 776.012817 -123.574585 163.331970
v 779.026550 -117.968384 149.514175
v 777.600769 -120.620682 149.514175
v 777.600769 -120.620682 163.331970
v 779.026550 -117.968384 163.331970
v 765.395325 -144.522690 163.331970
v 765.395325 -144.522690 149.514175
v 769.374695 -146.659592 149.514175
v 769.374695 -146.659592 163.331970
v 770.582581 -145.607086 149.514175
v 772.007751 -142.954483 149.514175
v 772.007751 -142.954483 163.331970
v 770.582581 -145.607086 163.331970
v 772.224304 -142.551483 163.331970
v 772.224304 -142.551483 149.514175
v 773.649536 -139.898880 149.514175
v 773.649536 -139.898880 163.331970
v 773.866089 -139.495789 163.331970
v 773.866089 -139.495789 149.514175
v 776.716492 -134.190582 149.514175
v 776.716492 -134.190582 163.331970
v 776.933044 -133.787491 163.331970
v 776.933044 -133.787491 149.514175
v 777.645630 -132.461182 149.514175
v 777.645630 -132.461182 163.331970
v 777.862244 -132.058182 163.331970
v 777.862244 -132.058182 149.514175
v 780.712585 -126.752983 149.514175
v 780.712585 -126.752983 163.331970
v 780.929199 -126.349884 163.331970
v 780.929199 -126.349884 149.514175
v 782.354370 -123.697289 149.514175
v 782.354370 -123.697289 163.331970
v 782.570923 -123.294182 149.514175
v 783.996155 -120.641586 149.514175
v 783.996155 -120.641586 163.331970
v 782.570923 -123.294182 163.331970
v 783.663574 -120.070984 163.331970
v 783.663574 -120.070984 149.514175
v 779.685730 -117.931183 149.514175
v 779.685730 -117.931183 163.331970
vt 0.000000 0.000000
vt 2.000000 0.000000
vt 2.000000 4.000000
vt 0.000000 4.000000
vt 0.000000 4.000000
vt 0.000000 0.000000
vt 4.000000 0.000000
vt 4.000000 4.000000
vt 0.000000 4.000000
vt 0.000000 0.000000
vt 1.000000 0.000000
vt 1.000000 4.000000
vt 0.000000 4.000000
vt 0.000000 0.000000
vt 1.000000 0.000000
vt 1.000000 4.000000
vt 0.000000 4.000000
vt 0.000000 0.000000
vt 4.000000 0.000000
vt 4.000000 4.000000
vt 0.000000 0.000000
vt 2.000000 0.000000
vt 2.000000 4.000000
vt 0.000000 4.000000
vt 0.000000 4.000000
vt 0.000000 0.000000
vt 3.000000 0.000000
vt 3.000000 4.000000
vt 0.000000 0.000000
vt 2.000000 0.000000
vt 2.000000 4.000000
vt 0.000000 4.000000
vt 0.000000 4.000000
vt 0.000000 0.000000
vt 2.000000 0.000000
vt 2.000000 4.000000
vt 0.000000 4.000000
vt 0.000000 0.000000
vt 4.000000 0.000000
vt 4.000000 4.000000
vt 0.000000 4.000000
vt 0.000000 0.000000
vt 1.000000 0.000000
vt 1.000000 4.000000
vt 0.000000 4.000000
vt 0.000000 0.000000
vt 4.000000 0.000000
vt 4.000000 4.000000
vt 0.000000 4.000000
vt 0.000000 0.000000
vt 2.000000 0.000000
vt 2.000000 4.000000
vt 0.000000 0.000000
vt 2.000000 0.000000
vt 2.000000 4.000000
vt 0.000000 4.000000
vt 0.000000 4.000000
vt 0.000000 0.000000
vt 3.000000 0.000000
vt 3.000000 4.000000
vt 0.000000 0.000000
vt 2.000000 0.000000
vt 2.000000 4.000000
vt 0.000000 4.000000
vt 0.000000 4.000000
vt 0.000000 0.000000
vt 2.000000 0.000000
vt 2.000000 4.000000
vn -0.8808 0.4735 0.0000
vn -0.4731 -0.8810 0.0000
vn 0.8809 -0.4733 0.0000
vn 0.4737 0.8807 0.0000
s off
f 1/1/1 2/2/1 3/3/1
f 4/4/1 1/1/1 3/3/1
f 9/5/1 10/6/1 11/7/1
f 9/5/1 11/7/1 12/8/1
f 13/9/1 14/10/1 15/11/1
f 13/9/1 15/11/1 16/12/1
f 17/13/1 18/14/1 19/15/1
f 17/13/1 19/15/1 20/16/1
f 21/17/1 22/18/1 23/19/1
f 21/17/1 23/19/1 24/20/1
f 29/21/1 30/22/1 31/23/1
f 32/24/1 29/21/1 31/23/1
f 33/25/2 34/26/2 35/27/2
f 33/25/2 35/27/2 36/28/2
f 37/29/3 38/30/3 39/31/3
f 40/32/3 37/29/3 39/31/3
f 41/33/3 42/34/3 43/35/3
f 41/33/3 43/35/3 44/36/3
f 45/37/3 46/38/3 47/39/3
f 45/37/3 47/39/3 48/40/3
f 49/41/3 50/42/3 51/43/3
f 49/41/3 51/43/3 52/44/3
f 53/45/3 54/46/3 55/47/3
f 53/45/3 55/47/3 56/48/3
f 57/49/3 58/50/3 59/51/3
f 57/49/3 59/51/3 60/52/3
f 61/53/3 62/54/3 63/55/3
f 64/56/3 61/53/3 63/55/3
f 65/57/4 66/58/4 67/59/4
f 65/57/4 67/59/4 68/60/4
s 1
f 5/61/1 6/62/1 7/63/1
f 8/64/1 5/61/1 7/63/1
f 25/65/1 26/66/1 27/67/1
f 25/65/1 27/67/1 28/68/1
