# Blender v3.0.1 OBJ File: 'rockerfeller_plaza.blend'
# www.blender.org
o geometryt000010000010000110010110000110000110100000110100st90
v 803.035522 -198.362701 700.746033
v 802.874817 -198.668015 753.356934
v 803.035522 -198.362701 753.356934
v 803.971130 -196.585510 700.746033
v 802.874817 -198.668015 700.156921
v 803.971130 -196.585510 753.356934
v 804.702942 -195.195404 753.356934
v 804.702942 -195.195404 700.746033
v 805.638550 -193.418213 700.746033
v 805.638550 -193.418213 753.356934
v 806.370361 -192.028015 753.356934
v 806.370361 -192.028015 700.746033
v 808.241516 -188.473602 700.746033
v 811.737061 -181.833603 700.156921
v 808.241516 -188.473602 753.356934
v 808.973328 -187.083405 753.356934
v 808.973328 -187.083405 700.746033
v 809.908936 -185.306213 700.746033
v 809.908936 -185.306213 753.356934
v 810.640747 -183.916107 753.356934
v 810.640747 -183.916107 700.746033
v 811.576355 -182.138916 700.746033
v 811.576355 -182.138916 753.356934
v 811.737061 -181.833603 753.356934
v 813.479614 -204.383408 700.746033
v 813.783325 -204.547104 753.356934
v 813.479614 -204.383408 753.356934
v 811.711548 -203.430603 700.746033
v 813.783325 -204.547104 700.156921
v 811.711548 -203.430603 753.356934
v 810.097107 -202.560501 753.356934
v 810.097107 -202.560501 700.746033
v 806.561035 -200.654709 700.746033
v 806.561035 -200.654709 753.356934
v 804.946533 -199.784607 753.356934
v 804.946533 -199.784607 700.746033
v 802.874817 -198.668015 700.156921
v 803.178528 -198.831711 700.746033
v 803.178528 -198.831711 753.356934
v 802.874817 -198.668015 753.356934
v 812.040710 -181.997314 700.746033
v 811.737061 -181.833603 753.356934
v 812.040710 -181.997314 753.356934
v 813.808472 -182.950714 700.746033
v 811.737061 -181.833603 700.156921
v 813.808472 -182.950714 753.356934
v 815.558716 -183.894714 753.356934
v 815.558716 -183.894714 700.746033
v 817.326477 -184.848114 700.746033
v 817.326477 -184.848114 753.356934
v 819.076721 -185.792114 753.356934
v 819.076721 -185.792114 700.746033
v 822.612183 -187.699005 700.746033
v 829.951904 -191.657501 700.156921
v 822.612183 -187.699005 753.356934
v 824.362488 -188.642914 753.356934
v 824.362488 -188.642914 700.746033
v 826.130249 -189.596405 700.746033
v 826.130249 -189.596405 753.356934
v 827.880493 -190.540314 753.356934
v 827.880493 -190.540314 700.746033
v 829.648254 -191.493805 700.746033
v 829.648254 -191.493805 753.356934
v 829.951904 -191.657501 753.356934
v 813.783325 -204.547104 700.156921
v 814.485779 -203.251114 700.156921
v 814.485779 -203.251114 753.356934
v 813.783325 -204.547104 753.356934
v 821.318481 -206.934311 700.746033
v 821.622192 -207.098007 753.356934
v 821.318481 -206.934311 753.356934
v 819.550537 -205.981308 700.746033
v 821.622192 -207.098007 700.156921
v 819.550537 -205.981308 753.356934
v 816.557434 -204.367813 753.356934
v 816.557434 -204.367813 700.746033
v 814.789490 -203.414810 700.746033
v 814.485779 -203.251114 700.156921
v 814.789490 -203.414810 753.356934
v 814.485779 -203.251114 753.356934
v 829.788086 -191.961212 700.746033
v 829.951904 -191.657501 753.356934
v 829.788086 -191.961212 753.356934
v 828.834473 -193.728806 700.746033
v 829.951904 -191.657501 700.156921
v 828.834473 -193.728806 753.356934
v 827.217468 -196.726303 753.356934
v 827.217468 -196.726303 700.746033
v 824.356689 -202.029205 700.746033
v 821.622192 -207.098007 700.156921
v 824.356689 -202.029205 753.356934
v 822.739624 -205.026703 753.356934
v 822.739624 -205.026703 700.746033
v 821.786011 -206.794403 700.746033
v 821.786011 -206.794403 753.356934
v 821.622192 -207.098007 753.356934
vt 20.238001 0.638250
vt 20.611780 57.638142
vt 20.238001 57.638142
vt 18.061991 0.638250
vt 20.611780 0.000000
vt 18.061991 57.638142
vt 16.359949 57.638142
vt 16.359949 0.638250
vt 14.183940 0.638250
vt 14.183940 57.638142
vt 12.481900 57.638142
vt 12.481900 0.638250
vt 8.129880 0.638250
vt 0.000000 0.000000
vt 8.129880 57.638142
vt 6.427840 57.638142
vt 6.427840 0.638250
vt 4.251830 0.638250
vt 4.251830 57.638142
vt 2.549790 57.638142
vt 2.549790 0.638250
vt 0.373780 0.638250
vt 0.373780 57.638142
vt 0.000000 57.638142
vt 13.051870 0.638250
vt 13.425660 57.638142
vt 13.051870 57.638142
vt 10.875860 0.638250
vt 13.425660 0.000000
vt 10.875860 57.638142
vt 8.888840 57.638142
vt 8.888840 0.638250
vt 4.536810 0.638250
vt 4.536810 57.638142
vt 2.549790 57.638142
vt 2.549790 0.638250
vt 0.000000 0.000000
vt 0.373780 0.638250
vt 0.373780 57.638142
vt 0.000000 57.638142
vt 22.047880 0.638250
vt 22.421659 57.638142
vt 22.047880 57.638142
vt 19.871870 0.638250
vt 22.421659 0.000000
vt 19.871870 57.638142
vt 17.717360 57.638142
vt 17.717360 0.638250
vt 15.541350 0.638250
vt 15.541350 57.638142
vt 13.386840 57.638142
vt 13.386840 0.638250
vt 0.000000 0.000000
vt 9.034820 57.638142
vt 6.880310 57.638142
vt 9.034820 0.638250
vt 6.880310 0.638250
vt 4.704300 0.638250
vt 4.704300 57.638142
vt 2.549790 57.638142
vt 2.549790 0.638250
vt 0.373780 0.638250
vt 0.373780 57.638142
vt 0.000000 57.638142
vt 0.000000 0.000000
vt 1.597170 0.000000
vt 1.597170 57.638142
vt 0.000000 57.638142
vt 8.409800 0.638250
vt 8.783580 57.638142
vt 8.409800 57.638142
vt 6.233780 0.638250
vt 8.783580 0.000000
vt 6.233780 57.638142
vt 2.549790 57.638142
vt 2.549790 0.638250
vt 0.373780 0.638250
vt 0.000000 0.000000
vt 0.000000 57.638142
vt 18.633829 0.638250
vt 19.007610 57.638142
vt 18.633829 57.638142
vt 16.457821 0.638250
vt 19.007610 0.000000
vt 16.457821 57.638142
vt 12.767820 57.638142
vt 12.767820 0.638250
vt 6.239790 0.638250
vt 0.000000 0.000000
vt 6.239790 57.638142
vt 2.549790 57.638142
vt 2.549790 0.638250
vt 0.373780 0.638250
vt 0.373780 57.638142
vt 0.000000 57.638142
vt 0.373780 57.638142
vn -0.8849 0.4657 0.0000
vn -0.8849 0.4659 -0.0001
vn -0.8848 0.4659 0.0000
vn -0.8849 0.4658 0.0000
vn -0.8848 0.4659 -0.0001
vn -0.8848 0.4660 0.0003
vn -0.8850 0.4657 -0.0001
vn -0.8849 0.4659 0.0000
vn -0.8847 0.4661 0.0001
vn -0.8849 0.4659 0.0001
vn -0.8850 0.4657 0.0000
vn -0.8848 0.4659 0.0001
vn -0.8848 0.4660 0.0000
vn -0.4745 -0.8803 0.0000
vn -0.4744 -0.8803 0.0000
vn -0.4740 -0.8805 0.0000
vn -0.4745 -0.8803 -0.0001
vn -0.4744 -0.8803 0.0004
vn -0.4743 -0.8803 -0.0002
vn 0.4750 0.8800 -0.0000
vn 0.4747 0.8801 -0.0001
vn 0.4745 0.8802 0.0000
vn 0.4747 0.8802 0.0000
vn 0.4747 0.8801 0.0000
vn 0.4746 0.8802 -0.0002
vn 0.4746 0.8802 0.0000
vn 0.4747 0.8801 -0.0002
vn 0.4746 0.8802 0.0002
vn 0.4746 0.8802 -0.0001
vn 0.4748 0.8801 0.0002
vn 0.8791 -0.4766 0.0000
vn 0.8792 -0.4765 0.0000
vn -0.4746 -0.8802 -0.0000
vn -0.4743 -0.8804 0.0000
vn -0.4745 -0.8802 0.0000
vn -0.4746 -0.8802 0.0001
vn -0.4745 -0.8803 0.0001
vn 0.8800 -0.4750 -0.0000
vn 0.8801 -0.4748 -0.0001
vn 0.8801 -0.4747 0.0000
vn 0.8801 -0.4748 0.0000
vn 0.8801 -0.4747 0.0001
vn 0.8801 -0.4747 -0.0001
vn 0.4746 0.8802 0.0004
vn 0.4747 0.8801 -0.0004
vn 0.4743 0.8803 0.0000
s off
f 1/1/1 2/2/1 3/3/1
f 4/4/2 5/5/2 1/1/2
f 2/2/3 1/1/3 5/5/3
f 6/6/4 7/7/4 4/4/4
f 7/7/3 8/8/3 4/4/3
f 8/8/4 5/5/4 4/4/4
f 8/8/5 9/9/5 5/5/5
f 10/10/4 11/11/4 9/9/4
f 11/11/4 12/12/4 9/9/4
f 9/9/6 12/12/6 5/5/6
f 13/13/7 14/14/7 12/12/7
f 12/12/4 14/14/4 5/5/4
f 15/15/8 16/16/8 13/13/8
f 16/16/4 17/17/4 13/13/4
f 17/17/9 14/14/9 13/13/9
f 18/18/10 14/14/10 17/17/10
f 19/19/4 20/20/4 18/18/4
f 20/20/4 21/21/4 18/18/4
f 21/21/11 14/14/11 18/18/11
f 22/22/12 14/14/12 21/21/12
f 23/23/13 24/24/13 22/22/13
f 24/24/11 14/14/11 22/22/11
f 25/25/14 26/26/14 27/27/14
f 28/28/15 29/29/15 25/25/15
f 26/26/16 25/25/16 29/29/16
f 30/30/15 31/31/15 28/28/15
f 31/31/15 32/32/15 28/28/15
f 32/32/17 29/29/17 28/28/17
f 32/32/18 33/33/18 29/29/18
f 34/34/15 35/35/15 33/33/15
f 35/35/15 36/36/15 33/33/15
f 36/36/19 37/37/19 33/33/19
f 38/38/14 37/37/14 36/36/14
f 39/39/14 40/40/14 38/38/14
f 40/40/15 37/37/15 38/38/15
f 41/41/20 42/42/20 43/43/20
f 44/44/21 45/45/21 41/41/21
f 42/42/22 41/41/22 45/45/22
f 46/46/23 47/47/23 44/44/23
f 47/47/24 48/48/24 44/44/24
f 48/48/25 45/45/25 44/44/25
f 48/48/26 49/49/26 45/45/26
f 50/50/23 51/51/23 49/49/23
f 51/51/24 52/52/24 49/49/24
f 49/49/27 52/52/27 45/45/27
f 52/52/23 54/53/23 45/45/23
f 55/54/23 56/55/23 53/56/23
f 56/55/23 57/57/23 53/56/23
f 58/58/28 54/53/28 57/57/28
f 59/59/23 60/60/23 58/58/23
f 60/60/23 61/61/23 58/58/23
f 61/61/29 54/53/29 58/58/29
f 62/62/30 54/53/30 61/61/30
f 63/63/23 64/64/23 62/62/23
f 65/65/31 66/66/31 67/67/31
f 65/65/32 67/67/32 68/68/32
f 69/69/14 70/70/14 71/71/14
f 72/72/33 73/73/33 69/69/33
f 70/70/34 69/69/34 73/73/34
f 74/74/14 75/75/14 72/72/14
f 75/75/35 76/76/35 72/72/35
f 76/76/17 73/73/17 72/72/17
f 77/77/36 78/78/36 76/76/36
f 76/76/37 78/78/37 73/73/37
f 80/79/15 78/78/15 77/77/15
f 81/80/38 82/81/38 83/82/38
f 84/83/39 85/84/39 81/80/39
f 82/81/38 81/80/38 85/84/38
f 86/85/40 87/86/40 84/83/40
f 87/86/41 88/87/41 84/83/41
f 88/87/42 85/84/42 84/83/42
f 89/88/41 90/89/41 88/87/41
f 88/87/39 90/89/39 85/84/39
f 91/90/41 92/91/41 89/88/41
f 92/91/41 93/92/41 89/88/41
f 93/92/43 90/89/43 89/88/43
f 94/93/39 90/89/39 93/92/39
f 95/94/41 96/95/41 94/93/41
f 96/95/41 90/89/41 94/93/41
s 1
f 33/33/15 37/37/15 29/29/15
f 53/56/44 54/53/23 52/52/29
f 57/57/45 54/53/23 53/56/44
f 64/64/46 54/53/46 62/62/46
f 79/96/14 80/79/14 77/77/14
