# Blender v3.0.1 OBJ File: 'rockerfeller_plaza.blend'
# www.blender.org
o geometryt000010000010000110010110000110000110100100000010st45
v 584.811340 -305.531464 931.017578
v 583.212402 -308.489685 931.017578
v 583.212402 -308.489685 949.535461
v 584.811340 -305.531464 949.535461
v 587.835449 -299.936676 949.535461
v 587.835449 -299.936676 931.017578
v 585.437012 -304.373993 931.017578
v 585.437012 -304.373993 949.535461
v 589.260559 -297.300079 931.017578
v 588.461060 -298.779175 931.017578
v 588.461060 -298.779175 949.535461
v 589.260559 -297.300079 949.535461
v 590.685669 -294.663483 949.535461
v 590.685669 -294.663483 931.017578
v 589.886230 -296.142487 931.017578
v 589.886230 -296.142487 949.535461
v 593.709778 -289.068573 949.535461
v 593.709778 -289.068573 931.017578
v 591.311340 -293.505890 931.017578
v 591.311340 -293.505890 949.535461
v 595.934387 -284.952881 949.535461
v 595.934387 -284.952881 931.017578
v 594.335449 -287.911072 931.017578
v 594.335449 -287.911072 949.535461
v 583.351807 -308.957275 949.535461
v 583.351807 -308.957275 931.017578
v 584.830688 -309.757172 931.017578
v 584.830688 -309.757172 949.535461
v 585.664856 -310.208282 931.017578
v 587.143738 -311.008087 931.017578
v 587.143738 -311.008087 949.535461
v 585.664856 -310.208282 949.535461
v 587.977905 -311.459290 931.017578
v 589.456787 -312.259064 931.017578
v 589.456787 -312.259064 949.535461
v 587.977905 -311.459290 949.535461
v 589.924500 -312.119873 931.017578
v 591.525269 -309.162567 931.017578
v 591.525269 -309.162567 949.535461
v 589.924500 -312.119873 949.535461
v 592.138367 -308.030090 949.535461
v 592.138367 -308.030090 931.017578
v 594.539490 -303.594177 931.017578
v 594.539490 -303.594177 949.535461
v 595.152588 -302.461578 931.017578
v 595.953003 -300.982971 931.017578
v 595.953003 -300.982971 949.535461
v 595.152588 -302.461578 949.535461
v 596.566040 -299.850372 931.017578
v 597.366455 -298.371765 931.017578
v 597.366455 -298.371765 949.535461
v 596.566040 -299.850372 949.535461
v 599.699036 -294.062592 949.535461
v 597.979492 -297.239288 931.017578
v 600.380676 -292.803375 931.017578
v 597.979492 -297.239288 949.535461
v 600.380676 -292.803375 949.535461
v 601.403870 -290.913177 949.535461
v 600.993774 -291.670776 931.017578
v 602.594482 -288.713593 931.017578
v 600.993774 -291.670776 949.535461
v 602.594482 -288.713593 949.535461
v 597.862854 -285.645782 949.535461
v 597.862854 -285.645782 931.017578
v 596.398865 -284.819092 931.017578
v 596.398865 -284.819092 949.535461
v 600.153320 -286.939270 931.017578
v 598.689331 -286.112488 931.017578
v 598.689331 -286.112488 949.535461
v 600.153320 -286.939270 949.535461
v 602.443848 -288.232666 949.535461
v 602.443848 -288.232666 931.017578
v 600.979797 -287.405975 931.017578
v 600.979797 -287.405975 949.535461
vt 0.000000 0.000000
vt 0.666670 0.000000
vt 0.666670 1.250000
vt 0.000000 1.250000
vt 0.000000 1.250000
vt 0.000000 0.000000
vt 1.000000 0.000000
vt 1.000000 1.250000
vt 0.000000 0.000000
vt 0.333330 0.000000
vt 0.333330 1.250000
vt 0.000000 1.250000
vt 0.000000 1.250000
vt 0.000000 0.000000
vt 0.333330 0.000000
vt 0.333330 1.250000
vt 0.000000 1.250000
vt 0.000000 0.000000
vt 1.000000 0.000000
vt 1.000000 1.250000
vt 0.000000 1.250000
vt 0.000000 0.000000
vt 0.666670 0.000000
vt 0.666670 1.250000
vt 0.000000 1.250000
vt 0.000000 0.000000
vt 0.333330 0.000000
vt 0.333330 1.250000
vt 0.000000 0.000000
vt 0.333330 0.000000
vt 0.333330 1.250000
vt 0.000000 1.250000
vt 0.000000 0.000000
vt 0.333330 0.000000
vt 0.333330 1.250000
vt 0.000000 1.250000
vt 0.000000 0.000000
vt 0.666670 0.000000
vt 0.666670 1.250000
vt 0.000000 1.250000
vt 0.000000 1.250000
vt 0.000000 0.000000
vt 1.000000 0.000000
vt 1.000000 1.250000
vt 0.000000 0.000000
vt 0.333330 0.000000
vt 0.333330 1.250000
vt 0.000000 1.250000
vt 0.000000 0.000000
vt 0.333330 0.000000
vt 0.333330 1.250000
vt 0.000000 1.250000
vt 0.716130 1.250000
vt 0.000000 0.000000
vt 1.000000 0.000000
vt 0.000000 1.250000
vt 1.000000 1.250000
vt 0.170800 1.250000
vt 0.000000 0.000000
vt 0.666670 0.000000
vt 0.000000 1.250000
vt 0.666670 1.250000
vt 0.000000 1.250000
vt 0.000000 0.000000
vt 0.333330 0.000000
vt 0.333330 1.250000
vt 0.000000 0.000000
vt 0.333330 0.000000
vt 0.333330 1.250000
vt 0.000000 1.250000
vt 0.000000 1.250000
vt 0.000000 0.000000
vt 0.333330 0.000000
vt 0.333330 1.250000
vn -0.8797 0.4755 0.0000
vn -0.4757 -0.8796 0.0000
vn -0.4758 -0.8796 0.0000
vn 0.8794 -0.4760 0.0000
vn 0.8794 -0.4761 0.0000
vn 0.4917 0.8708 0.0000
vn 0.4918 0.8707 0.0000
vn 0.4917 0.8707 0.0000
s off
f 1/1/1 2/2/1 3/3/1
f 4/4/1 1/1/1 3/3/1
f 5/5/1 6/6/1 7/7/1
f 5/5/1 7/7/1 8/8/1
f 9/9/1 10/10/1 11/11/1
f 12/12/1 9/9/1 11/11/1
f 13/13/1 14/14/1 15/15/1
f 13/13/1 15/15/1 16/16/1
f 17/17/1 18/18/1 19/19/1
f 17/17/1 19/19/1 20/20/1
f 21/21/1 22/22/1 23/23/1
f 21/21/1 23/23/1 24/24/1
f 25/25/2 26/26/2 27/27/2
f 25/25/3 27/27/3 28/28/3
f 29/29/2 30/30/2 31/31/2
f 32/32/2 29/29/2 31/31/2
f 33/33/2 34/34/2 35/35/2
f 36/36/2 33/33/2 35/35/2
f 37/37/4 38/38/4 39/39/4
f 40/40/4 37/37/4 39/39/4
f 41/41/4 42/42/4 43/43/4
f 41/41/4 43/43/4 44/44/4
f 45/45/5 46/46/5 47/47/5
f 48/48/5 45/45/5 47/47/5
f 49/49/4 50/50/4 51/51/4
f 52/52/5 49/49/5 51/51/5
f 53/53/4 54/54/4 55/55/4
f 56/56/4 54/54/4 53/53/4
f 53/53/5 55/55/5 57/57/5
f 58/58/4 59/59/4 60/60/4
f 61/61/5 59/59/5 58/58/5
f 58/58/4 60/60/4 62/62/4
f 63/63/6 64/64/6 65/65/6
f 63/63/6 65/65/6 66/66/6
f 67/67/7 68/68/7 69/69/7
f 70/70/8 67/67/8 69/69/8
f 71/71/6 72/72/6 73/73/6
f 71/71/6 73/73/6 74/74/6
