# Blender v3.0.1 OBJ File: 'rockerfeller_plaza.blend'
# www.blender.org
o geometryt000010000010000110010110000110000110100000000100st58
v 253.804672 -135.708405 70.332985
v 253.804672 -135.708405 65.051895
v 252.028412 -134.817703 65.051895
v 252.028412 -134.817703 70.332985
v 255.112183 -133.821304 70.332985
v 255.112183 -133.821304 65.051895
v 254.286865 -135.564301 65.051895
v 254.286865 -135.564301 70.332985
vt 0.000000 0.250000
vt 0.000000 0.000000
vt 0.062500 0.000000
vt 0.062500 0.250000
vt 0.000000 0.250000
vt 0.000000 0.000000
vt 0.062500 0.000000
vt 0.062500 0.250000
vn 0.4482 0.8939 0.0000
vn -0.9038 0.4280 0.0000
s off
f 1/1/1 2/2/1 3/3/1
f 1/1/1 3/3/1 4/4/1
f 5/5/2 6/6/2 7/7/2
f 5/5/2 7/7/2 8/8/2
