# Blender v3.0.1 OBJ File: 'rockerfeller_plaza.blend'
# www.blender.org
o geometryt000010000010000110010110000110000110100000010100st129
v 864.281128 -104.658981 145.211868
v 874.652405 -85.564163 145.211868
v 887.607788 -92.596077 145.211868
v 876.468018 -113.098785 145.211868
v 863.512451 -106.055786 145.211868
v 864.281128 -104.658981 169.111862
v 863.512451 -106.055786 169.111862
v 876.468018 -113.098785 169.111862
v 887.607788 -92.596077 169.111862
v 874.652405 -85.564163 169.111862
vt 0.152730 0.236660
vt 0.114690 0.258010
vt 0.123360 0.283960
vt 0.164220 0.261020
vt 0.155520 0.235080
vt 0.152730 0.236660
vt 0.155520 0.235080
vt 0.164220 0.261020
vt 0.123360 0.283960
vt 0.114690 0.258010
vn 0.0000 0.0000 -1.0000
vn 0.0000 0.0000 1.0000
s off
f 1/1/1 2/2/1 3/3/1
f 4/4/1 1/1/1 3/3/1
f 5/5/1 1/1/1 4/4/1
f 6/6/2 7/7/2 8/8/2
f 9/9/2 6/6/2 8/8/2
f 10/10/2 6/6/2 9/9/2
