# Blender v3.0.1 OBJ File: 'rockerfeller_plaza.blend'
# www.blender.org
o geometryt000010000010000110010110000110000100110010010110st98_2
v 170.851196 -190.421204 20.864180
v 171.155106 -190.584503 225.156494
v 170.851196 -190.421204 225.156494
v 168.046494 -188.913696 20.864180
v 171.155106 -190.584503 19.156481
v 168.046494 -188.913696 225.156494
v 167.599106 -188.673294 225.156494
v 167.599106 -188.673294 20.864180
v 166.196701 -187.919601 20.864180
v 166.196701 -187.919601 225.156494
v 165.749405 -187.679092 225.156494
v 165.749405 -187.679092 20.864180
v 161.542297 -185.417892 20.864180
v 161.542297 -185.417892 225.156494
v 161.094894 -185.177505 225.156494
v 161.094894 -185.177505 20.864180
v 159.692596 -184.423706 20.864180
v 159.692596 -184.423706 225.156494
v 159.245193 -184.183304 225.156494
v 159.245193 -184.183304 20.864180
v 156.440506 -182.675797 20.864180
v 156.440506 -182.675797 225.156494
v 155.993103 -182.435394 225.156494
v 155.993103 -182.435394 20.864180
v 154.590698 -181.681595 20.864180
v 154.590698 -181.681595 225.156494
v 154.143295 -181.441193 225.156494
v 154.143295 -181.441193 20.864180
v 139.428696 -173.532501 19.156481
v 151.338593 -179.933701 20.864180
v 151.338593 -179.933701 225.156494
v 150.891296 -179.693298 225.156494
v 150.891296 -179.693298 20.864180
v 149.488907 -178.939499 20.864180
v 149.488907 -178.939499 225.156494
v 149.041504 -178.699097 225.156494
v 149.041504 -178.699097 20.864180
v 144.834503 -176.437897 20.864180
v 144.834503 -176.437897 225.156494
v 144.387100 -176.197403 225.156494
v 144.387100 -176.197403 20.864180
v 142.984695 -175.443695 20.864180
v 142.984695 -175.443695 225.156494
v 142.537292 -175.203201 225.156494
v 142.537292 -175.203201 20.864180
v 139.732605 -173.695801 20.864180
v 139.732605 -173.695801 225.156494
v 139.428696 -173.532501 225.156494
v 139.593094 -173.229095 20.864180
v 139.428696 -173.532501 225.156494
v 139.593094 -173.229095 225.156494
v 141.110107 -170.429504 20.864180
v 139.428696 -173.532501 19.156481
v 141.110107 -170.429504 225.156494
v 141.471298 -169.762894 225.156494
v 141.471298 -169.762894 20.864180
v 142.229797 -168.363098 20.864180
v 142.229797 -168.363098 225.156494
v 142.591003 -167.696503 225.156494
v 142.591003 -167.696503 20.864180
v 144.866501 -163.497101 20.864180
v 144.866501 -163.497101 225.156494
v 145.227707 -162.830505 225.156494
v 145.227707 -162.830505 20.864180
v 145.986206 -161.430695 20.864180
v 145.986206 -161.430695 225.156494
v 146.347397 -160.764099 225.156494
v 146.347397 -160.764099 20.864180
v 147.105896 -159.364304 20.864180
v 147.105896 -159.364304 225.156494
v 147.467102 -158.697693 225.156494
v 147.467102 -158.697693 20.864180
v 154.024506 -146.595993 19.156481
v 148.225601 -157.297897 20.864180
v 148.225601 -157.297897 225.156494
v 148.586807 -156.631302 225.156494
v 148.586807 -156.631302 20.864180
v 150.862198 -152.431900 20.864180
v 150.862198 -152.431900 225.156494
v 151.223495 -151.765305 225.156494
v 151.223495 -151.765305 20.864180
v 151.981903 -150.365494 20.864180
v 151.981903 -150.365494 225.156494
v 152.343201 -149.698898 225.156494
v 152.343201 -149.698898 20.864180
v 153.860107 -146.899307 20.864180
v 153.860107 -146.899307 225.156494
v 154.024506 -146.595993 225.156494
v 154.328400 -146.759293 20.864180
v 154.024506 -146.595993 225.156494
v 154.328400 -146.759293 225.156494
v 157.133102 -148.266800 20.864180
v 154.024506 -146.595993 19.156481
v 157.133102 -148.266800 225.156494
v 157.580505 -148.507202 225.156494
v 157.580505 -148.507202 20.864180
v 158.982803 -149.260895 20.864180
v 158.982803 -149.260895 225.156494
v 159.430206 -149.501404 225.156494
v 159.430206 -149.501404 20.864180
v 163.637299 -151.762604 20.864180
v 163.637299 -151.762604 225.156494
v 164.084595 -152.003006 225.156494
v 164.084595 -152.003006 20.864180
v 165.487000 -152.756805 20.864180
v 165.487000 -152.756805 225.156494
v 165.934402 -152.997192 225.156494
v 165.934402 -152.997192 20.864180
v 168.739105 -154.504700 20.864180
v 168.739105 -154.504700 225.156494
v 169.186401 -154.745102 225.156494
v 169.186401 -154.745102 20.864180
v 170.588806 -155.498901 20.864180
v 170.588806 -155.498901 225.156494
v 171.036194 -155.739304 225.156494
v 171.036194 -155.739304 20.864180
v 185.750702 -163.647995 19.156481
v 173.840897 -157.246796 20.864180
v 173.840897 -157.246796 225.156494
v 174.288193 -157.487198 225.156494
v 174.288193 -157.487198 20.864180
v 175.690598 -158.240906 20.864180
v 175.690598 -158.240906 225.156494
v 176.138000 -158.481400 225.156494
v 176.138000 -158.481400 20.864180
v 180.345001 -160.742599 20.864180
v 180.345001 -160.742599 225.156494
v 180.792404 -160.983002 225.156494
v 180.792404 -160.983002 20.864180
v 182.194794 -161.736801 20.864180
v 182.194794 -161.736801 225.156494
v 182.642105 -161.977203 225.156494
v 182.642105 -161.977203 20.864180
v 185.446899 -163.484695 20.864180
v 185.446899 -163.484695 225.156494
v 185.750702 -163.647995 225.156494
v 185.586395 -163.951294 20.864180
v 185.750702 -163.647995 225.156494
v 185.586395 -163.951294 225.156494
v 184.069397 -166.750900 20.864180
v 185.750702 -163.647995 19.156481
v 184.069397 -166.750900 225.156494
v 183.708206 -167.417496 225.156494
v 183.708206 -167.417496 20.864180
v 182.949707 -168.817307 20.864180
v 182.949707 -168.817307 225.156494
v 182.588501 -169.483994 225.156494
v 182.588501 -169.483994 20.864180
v 180.313095 -173.683304 20.864180
v 180.313095 -173.683304 225.156494
v 179.951797 -174.350006 225.156494
v 179.951797 -174.350006 20.864180
v 179.193405 -175.749695 20.864180
v 179.193405 -175.749695 225.156494
v 178.832108 -176.416397 225.156494
v 178.832108 -176.416397 20.864180
v 178.073700 -177.816193 20.864180
v 178.073700 -177.816193 225.156494
v 177.712494 -178.482803 225.156494
v 177.712494 -178.482803 20.864180
v 171.155106 -190.584503 19.156481
v 176.953995 -179.882599 20.864180
v 176.953995 -179.882599 225.156494
v 176.592804 -180.549194 225.156494
v 176.592804 -180.549194 20.864180
v 174.317307 -184.748596 20.864180
v 174.317307 -184.748596 225.156494
v 173.956100 -185.415207 225.156494
v 173.956100 -185.415207 20.864180
v 173.197601 -186.815002 20.864180
v 173.197601 -186.815002 225.156494
v 172.836395 -187.481598 225.156494
v 172.836395 -187.481598 20.864180
v 171.319397 -190.281204 20.864180
v 171.319397 -190.281204 225.156494
v 171.155106 -190.584503 225.156494
vt 14.269410 0.672590
vt 14.407410 81.134308
vt 14.269410 81.134308
vt 12.995740 0.672590
vt 14.407410 0.000000
vt 12.792580 0.672590
vt 12.155750 0.672590
vt 12.155750 81.134308
vt 11.952590 81.134308
vt 11.952590 0.672590
vt 10.042100 0.672590
vt 10.042100 81.134308
vt 9.838940 81.134308
vt 9.838940 0.672590
vt 9.202100 81.134308
vt 8.998941 81.134308
vt 9.202100 0.672590
vt 8.998941 0.672590
vt 7.725280 81.134308
vt 7.522120 81.134308
vt 7.725280 0.672590
vt 7.522120 0.672590
vt 6.885290 0.672590
vt 6.885290 81.134308
vt 6.682130 81.134308
vt 6.682130 0.672590
vt 5.408460 0.672590
vt 0.000000 0.000000
vt 5.408460 81.134308
vt 5.205300 81.134308
vt 5.205300 0.672590
vt 4.568470 0.672590
vt 4.568470 81.134308
vt 4.365310 81.134308
vt 4.365310 0.672590
vt 2.454820 0.672590
vt 2.454820 81.134308
vt 2.251660 81.134308
vt 2.251660 0.672590
vt 1.614820 0.672590
vt 1.614820 81.134308
vt 1.411660 81.134308
vt 1.411660 0.672590
vt 0.138000 0.672590
vt 0.138000 81.134308
vt 0.000000 81.134308
vt 10.843030 0.672590
vt 12.254700 0.000000
vt 12.116700 0.672590
vt 12.254700 81.134308
vt 10.539750 0.672590
vt 9.902920 0.672590
vt 9.902920 81.134308
vt 9.599651 81.134308
vt 9.599651 0.672590
vt 7.689150 0.672590
vt 7.689150 81.134308
vt 7.385870 81.134308
vt 7.385870 0.672590
vt 6.749040 0.672590
vt 6.749040 81.134308
vt 6.445760 81.134308
vt 6.445760 0.672590
vt 5.808930 0.672590
vt 5.808930 81.134308
vt 5.505650 81.134308
vt 5.505650 0.672590
vt 0.000000 0.000000
vt 4.868820 0.672590
vt 4.868820 81.134308
vt 4.565540 81.134308
vt 4.565540 0.672590
vt 1.714940 0.672590
vt 2.351770 0.672590
vt 1.411660 0.672590
vt 0.138000 81.134308
vt 0.000000 81.134308
vt 0.138000 0.672590
vt 14.269370 0.672590
vt 14.407370 81.134308
vt 14.269370 81.134308
vt 12.995700 0.672590
vt 14.407370 0.000000
vt 12.995700 81.134308
vt 12.792550 81.134308
vt 12.792550 0.672590
vt 12.155720 0.672590
vt 12.155720 81.134308
vt 11.952560 81.134308
vt 11.952560 0.672590
vt 10.042060 0.672590
vt 10.042060 81.134308
vt 9.838911 81.134308
vt 9.838911 0.672590
vt 9.202080 0.672590
vt 9.202080 81.134308
vt 8.998921 81.134308
vt 8.998921 0.672590
vt 7.725260 81.134308
vt 7.522100 81.134308
vt 7.725260 0.672590
vt 7.522100 0.672590
vt 6.885270 0.672590
vt 6.885270 81.134308
vt 6.682110 81.134308
vt 6.682110 0.672590
vt 0.000000 0.000000
vt 5.408450 0.672590
vt 5.408450 81.134308
vt 5.205290 81.134308
vt 5.205290 0.672590
vt 4.568460 0.672590
vt 4.568460 81.134308
vt 4.365300 81.134308
vt 4.365300 0.672590
vt 2.454810 0.672590
vt 2.454810 81.134308
vt 2.251650 81.134308
vt 2.251650 0.672590
vt 1.614820 0.672590
vt 1.614820 81.134308
vt 1.411660 81.134308
vt 1.411660 0.672590
vt 0.138000 0.672590
vt 0.138000 81.134308
vt 0.000000 81.134308
vt 12.116700 0.672590
vt 12.254700 81.134308
vt 12.116700 81.134308
vt 10.843040 0.672590
vt 12.254700 0.000000
vt 10.843040 81.134308
vt 10.539760 81.134308
vt 10.539760 0.672590
vt 9.902931 0.672590
vt 9.902931 81.134308
vt 9.599651 81.134308
vt 9.599651 0.672590
vt 7.689160 0.672590
vt 7.689160 81.134308
vt 7.385880 81.134308
vt 7.385880 0.672590
vt 6.749050 0.672590
vt 6.749050 81.134308
vt 6.445770 81.134308
vt 6.445770 0.672590
vt 5.808940 0.672590
vt 5.505660 0.672590
vt 0.000000 0.000000
vt 4.868830 0.672590
vt 4.868830 81.134308
vt 4.565550 81.134308
vt 4.565550 0.672590
vt 2.655050 0.672590
vt 2.351770 0.672590
vt 1.714940 0.672590
vt 1.714940 81.134308
vt 1.411660 81.134308
vt 1.411660 0.672590
vt 0.138000 0.672590
vt 0.138000 81.134308
vt 0.000000 81.134308
vt 12.995740 81.134308
vt 12.792580 81.134308
vt 12.116700 81.134308
vt 10.843030 81.134308
vt 10.539750 81.134308
vt 2.655050 0.672590
vt 2.655050 81.134308
vt 2.351770 81.134308
vt 1.714940 81.134308
vt 1.411660 81.134308
vt 5.808940 81.134308
vt 5.505660 81.134308
vt 2.655050 81.134308
vt 2.351770 81.134308
vn -0.4733 -0.8809 0.0000
vn -0.4734 -0.8808 -0.0000
vn -0.4734 -0.8809 0.0004
vn -0.4734 -0.8809 0.0000
vn -0.4732 -0.8810 -0.0000
vn -0.4734 -0.8808 0.0002
vn -0.4734 -0.8808 -0.0006
vn -0.4734 -0.8809 -0.0002
vn -0.4734 -0.8808 0.0001
vn -0.4735 -0.8808 0.0000
vn -0.4735 -0.8808 -0.0003
vn -0.8792 0.4764 0.0000
vn -0.8792 0.4764 -0.0001
vn -0.8792 0.4764 0.0001
vn -0.8792 0.4764 -0.0002
vn -0.8794 0.4761 -0.0000
vn -0.8792 0.4765 0.0000
vn 0.4734 0.8809 0.0000
vn 0.4734 0.8808 -0.0000
vn 0.4733 0.8809 0.0000
vn 0.4733 0.8809 0.0002
vn 0.4735 0.8808 0.0000
vn 0.4735 0.8808 -0.0006
vn 0.4734 0.8808 -0.0003
vn 0.4734 0.8808 -0.0002
vn 0.4735 0.8808 -0.0001
vn 0.4734 0.8808 0.0001
vn 0.4734 0.8809 -0.0001
vn 0.8793 -0.4763 0.0000
vn 0.8792 -0.4764 -0.0000
vn 0.8793 -0.4764 0.0000
vn 0.8792 -0.4764 0.0002
vn 0.8792 -0.4765 0.0000
vn 0.8792 -0.4764 -0.0005
vn 0.8792 -0.4764 -0.0006
vn 0.8792 -0.4764 0.0003
vn 0.8792 -0.4764 -0.0002
vn 0.8791 -0.4766 0.0000
vn -0.4735 -0.8808 0.0002
vn -0.4735 -0.8808 0.0008
vn -0.4734 -0.8808 -0.0003
vn -0.4734 -0.8808 -0.0001
vn -0.4734 -0.8809 -0.0005
vn -0.4734 -0.8808 -0.0005
vn -0.8793 0.4762 -0.0000
vn -0.8792 0.4765 0.0002
vn 0.4733 0.8809 -0.0005
vn 0.4734 0.8808 -0.0001
vn 0.4734 0.8808 0.0002
s off
f 1/1/1 2/2/1 3/3/1
f 4/4/2 5/5/2 1/1/2
f 2/2/1 1/1/1 5/5/1
f 8/6/3 5/5/3 4/4/3
f 8/6/4 9/7/4 5/5/4
f 10/8/5 11/9/5 9/7/5
f 11/9/1 12/10/1 9/7/1
f 12/10/2 13/11/2 5/5/2
f 14/12/1 15/13/1 13/11/1
f 15/13/1 16/14/1 13/11/1
f 18/15/1 19/16/1 17/17/1
f 19/16/1 20/18/1 17/17/1
f 22/19/1 23/20/1 21/21/1
f 23/20/1 24/22/1 21/21/1
f 24/22/6 25/23/6 5/5/6
f 26/24/1 27/25/1 25/23/1
f 27/25/1 28/26/1 25/23/1
f 30/27/6 29/28/6 28/26/6
f 31/29/2 32/30/2 30/27/2
f 32/30/2 33/31/2 30/27/2
f 33/31/7 29/28/7 30/27/7
f 34/32/8 29/28/8 33/31/8
f 35/33/1 36/34/1 34/32/1
f 36/34/1 37/35/1 34/32/1
f 38/36/9 29/28/9 37/35/9
f 39/37/10 40/38/10 38/36/10
f 40/38/2 41/39/2 38/36/2
f 41/39/11 29/28/11 38/36/11
f 42/40/2 29/28/2 41/39/2
f 43/41/10 44/42/10 42/40/10
f 44/42/10 45/43/10 42/40/10
f 46/44/2 29/28/2 45/43/2
f 47/45/4 48/46/4 46/44/4
f 48/46/1 29/28/1 46/44/1
f 52/47/12 53/48/12 49/49/12
f 50/50/12 49/49/12 53/48/12
f 56/51/12 53/48/12 52/47/12
f 56/51/12 57/52/12 53/48/12
f 58/53/12 59/54/12 57/52/12
f 59/54/12 60/55/12 57/52/12
f 57/52/13 60/55/13 53/48/13
f 60/55/12 61/56/12 53/48/12
f 62/57/12 63/58/12 61/56/12
f 63/58/12 64/59/12 61/56/12
f 61/56/13 64/59/13 53/48/13
f 64/59/12 65/60/12 53/48/12
f 66/61/12 67/62/12 65/60/12
f 67/62/12 68/63/12 65/60/12
f 65/60/13 68/63/13 53/48/13
f 68/63/12 69/64/12 53/48/12
f 70/65/12 71/66/12 69/64/12
f 71/66/12 72/67/12 69/64/12
f 72/67/12 73/68/12 69/64/12
f 69/64/12 73/68/12 53/48/12
f 74/69/12 73/68/12 72/67/12
f 75/70/12 76/71/12 74/69/12
f 76/71/12 77/72/12 74/69/12
f 77/72/14 73/68/14 74/69/14
f 82/73/15 73/68/15 81/74/15
f 85/75/13 73/68/13 82/73/13
f 87/76/16 88/77/16 86/78/16
f 88/77/17 73/68/17 86/78/17
f 89/79/18 90/80/18 91/81/18
f 92/82/19 93/83/19 89/79/19
f 90/80/18 89/79/18 93/83/18
f 94/84/20 95/85/20 92/82/20
f 95/85/20 96/86/20 92/82/20
f 96/86/21 93/83/21 92/82/21
f 96/86/19 97/87/19 93/83/19
f 98/88/22 99/89/22 97/87/22
f 99/89/22 100/90/22 97/87/22
f 97/87/23 100/90/23 93/83/23
f 100/90/19 101/91/19 93/83/19
f 102/92/19 103/93/19 101/91/19
f 103/93/19 104/94/19 101/91/19
f 101/91/24 104/94/24 93/83/24
f 104/94/22 105/95/22 93/83/22
f 106/96/20 107/97/20 105/95/20
f 107/97/20 108/98/20 105/95/20
f 110/99/19 111/100/19 109/101/19
f 111/100/19 112/102/19 109/101/19
f 109/101/19 112/102/19 93/83/19
f 112/102/25 113/103/25 93/83/25
f 114/104/20 115/105/20 113/103/20
f 115/105/20 116/106/20 113/103/20
f 113/103/19 117/107/19 93/83/19
f 118/108/19 117/107/19 116/106/19
f 119/109/19 120/110/19 118/108/19
f 120/110/19 121/111/19 118/108/19
f 121/111/26 117/107/26 118/108/26
f 122/112/25 117/107/25 121/111/25
f 123/113/19 124/114/19 122/112/19
f 124/114/22 125/115/22 122/112/22
f 125/115/22 117/107/22 122/112/22
f 126/116/27 117/107/27 125/115/27
f 127/117/20 128/118/20 126/116/20
f 128/118/20 129/119/20 126/116/20
f 129/119/26 117/107/26 126/116/26
f 130/120/27 117/107/27 129/119/27
f 131/121/19 132/122/19 130/120/19
f 132/122/19 133/123/19 130/120/19
f 133/123/28 117/107/28 130/120/28
f 134/124/19 117/107/19 133/123/19
f 135/125/19 136/126/19 134/124/19
f 136/126/22 117/107/22 134/124/22
f 137/127/29 138/128/29 139/129/29
f 140/130/30 141/131/30 137/127/30
f 138/128/30 137/127/30 141/131/30
f 142/132/30 143/133/30 140/130/30
f 143/133/30 144/134/30 140/130/30
f 144/134/30 141/131/30 140/130/30
f 144/134/30 145/135/30 141/131/30
f 146/136/31 147/137/31 145/135/31
f 147/137/30 148/138/30 145/135/30
f 145/135/32 148/138/32 141/131/32
f 148/138/30 149/139/30 141/131/30
f 150/140/30 151/141/30 149/139/30
f 151/141/33 152/142/33 149/139/33
f 149/139/34 152/142/34 141/131/34
f 152/142/32 153/143/32 141/131/32
f 154/144/33 155/145/33 153/143/33
f 155/145/33 156/146/33 153/143/33
f 153/143/35 156/146/35 141/131/35
f 156/146/36 157/147/36 141/131/36
f 160/148/30 161/149/30 157/147/30
f 157/147/30 161/149/30 141/131/30
f 162/150/37 161/149/37 160/148/37
f 163/151/30 164/152/30 162/150/30
f 164/152/30 165/153/30 162/150/30
f 165/153/37 161/149/37 162/150/37
f 166/154/30 161/149/30 165/153/30
f 169/155/30 161/149/30 166/154/30
f 170/156/30 161/149/30 169/155/30
f 171/157/30 172/158/30 170/156/30
f 172/158/30 173/159/30 170/156/30
f 173/159/30 161/149/30 170/156/30
f 174/160/30 161/149/30 173/159/30
f 175/161/29 176/162/29 174/160/29
f 176/162/38 161/149/38 174/160/38
s 1
f 6/163/1 7/164/1 4/4/1
f 7/164/1 8/6/1 4/4/1
f 9/7/39 12/10/39 5/5/39
f 13/11/40 16/14/6 5/5/9
f 16/14/6 17/17/41 5/5/9
f 17/17/41 20/18/42 5/5/9
f 20/18/42 21/21/43 5/5/9
f 21/21/43 24/22/43 5/5/9
f 28/26/2 29/28/2 25/23/2
f 25/23/2 29/28/2 5/5/2
f 37/35/44 29/28/44 34/32/44
f 45/43/10 29/28/10 42/40/10
f 49/49/12 50/50/12 51/165/12
f 54/166/12 55/167/12 52/47/12
f 55/167/12 56/51/12 52/47/12
f 78/168/12 73/68/12 77/72/13
f 79/169/45 80/170/45 78/168/12
f 80/170/45 81/74/46 78/168/12
f 81/74/46 73/68/12 78/168/12
f 83/171/45 84/172/17 82/73/17
f 84/172/17 85/75/45 82/73/17
f 86/78/12 73/68/12 85/75/12
f 105/95/47 108/98/48 93/83/48
f 108/98/48 109/101/49 93/83/48
f 116/106/22 117/107/22 113/103/22
f 158/173/30 159/174/30 157/147/30
f 159/174/30 160/148/30 157/147/30
f 167/175/30 168/176/30 166/154/30
f 168/176/30 169/155/30 166/154/30
