# Blender v3.0.1 OBJ File: 'rockerfeller_plaza.blend'
# www.blender.org
o geometryt000010000010000110010110000110000110100000100110st137
v 725.691162 -222.320511 659.002441
v 725.994934 -222.484116 682.589233
v 725.691162 -222.320511 682.589233
v 720.135132 -219.328110 659.002441
v 722.503418 -220.603607 658.089233
v 725.994934 -222.484116 658.089233
v 720.135132 -219.328110 682.589233
v 719.651428 -219.067612 682.589233
v 719.651428 -219.067612 659.002441
v 718.262451 -218.319504 659.002441
v 718.262451 -218.319504 682.589233
v 717.778809 -218.059006 682.589233
v 717.778809 -218.059006 659.002441
v 715.000732 -216.562805 659.002441
v 715.000732 -216.562805 682.589233
v 714.517151 -216.302307 682.589233
v 714.517151 -216.302307 659.002441
v 710.350037 -214.058014 659.002441
v 710.350037 -214.058014 682.589233
v 709.866455 -213.797516 682.589233
v 709.866455 -213.797516 659.002441
v 698.872253 -207.876114 658.089233
v 707.088440 -212.301208 659.002441
v 707.088440 -212.301208 682.589233
v 706.604736 -212.040802 682.589233
v 706.604736 -212.040802 659.002441
v 705.215698 -211.292709 659.002441
v 705.215698 -211.292709 682.589233
v 704.732117 -211.032211 682.589233
v 704.732117 -211.032211 659.002441
v 699.176025 -208.039703 659.002441
v 699.176025 -208.039703 682.589233
v 698.872253 -207.876114 682.589233
v 699.376465 -206.939713 659.002441
v 698.872253 -207.876114 682.589233
v 699.376465 -206.939713 682.589233
v 702.367615 -201.383011 659.002441
v 698.872253 -207.876114 658.089233
v 702.367615 -201.383011 682.589233
v 702.871704 -200.446609 682.589233
v 702.871704 -200.446609 658.089233
v 703.175415 -200.610214 659.002441
v 702.871704 -200.446609 682.589233
v 703.175415 -200.610214 682.589233
v 708.730530 -203.604416 659.002441
v 702.871704 -200.446609 658.089233
v 708.730530 -203.604416 682.589233
v 709.214111 -203.865112 682.589233
v 709.214111 -203.865112 659.002441
v 710.602905 -204.613602 659.002441
v 710.602905 -204.613602 682.589233
v 711.086426 -204.874313 682.589233
v 711.086426 -204.874313 659.002441
v 713.864014 -206.371414 659.002441
v 713.864014 -206.371414 682.589233
v 714.347656 -206.632004 682.589233
v 714.347656 -206.632004 659.002441
v 718.513916 -208.877716 659.002441
v 718.513916 -208.877716 682.589233
v 718.997559 -209.138306 682.589233
v 718.997559 -209.138306 659.002441
v 729.989746 -215.063110 658.089233
v 721.775024 -210.635406 659.002441
v 721.775024 -210.635406 682.589233
v 722.258667 -210.896011 682.589233
v 722.258667 -210.896011 659.002441
v 723.647339 -211.644608 659.002441
v 723.647339 -211.644608 682.589233
v 724.130920 -211.905212 682.589233
v 724.130920 -211.905212 659.002441
v 729.686035 -214.899414 659.002441
v 729.686035 -214.899414 682.589233
v 729.989746 -215.063110 682.589233
v 729.485596 -215.999603 659.002441
v 729.989746 -215.063110 682.589233
v 729.485596 -215.999603 682.589233
v 726.494324 -221.556305 659.002441
v 729.989746 -215.063110 658.089233
v 726.494324 -221.556305 682.589233
v 725.990234 -222.492706 682.589233
v 725.990234 -222.492706 658.089233
vt 33.845921 1.014680
vt 34.229252 27.222219
vt 33.845921 27.222219
vt 26.834061 1.014680
vt 29.823000 0.000000
vt 34.229252 0.000000
vt 26.834061 27.222219
vt 26.223700 27.222219
vt 26.223700 1.014680
vt 24.470730 1.014680
vt 24.470730 27.222219
vt 23.860371 27.222219
vt 23.860371 1.014680
vt 20.354441 1.014680
vt 20.354441 27.222219
vt 19.744070 27.222219
vt 19.744070 1.014680
vt 14.485180 1.014680
vt 14.485180 27.222219
vt 13.874810 27.222219
vt 13.874810 1.014680
vt 0.000000 0.000000
vt 10.368890 1.014680
vt 10.368890 27.222219
vt 9.758521 27.222219
vt 9.758521 1.014680
vt 8.005560 1.014680
vt 8.005560 27.222219
vt 7.395190 27.222219
vt 7.395190 1.014680
vt 0.383330 1.014680
vt 0.383330 27.222219
vt 0.000000 27.222219
vt 8.193540 1.014680
vt 9.375221 27.222219
vt 8.193540 27.222219
vt 1.181680 1.014680
vt 9.375221 0.000000
vt 1.181680 27.222219
vt 0.000000 27.222219
vt 0.000000 0.000000
vt 33.845901 1.014680
vt 34.229229 27.222219
vt 33.845901 27.222219
vt 26.834040 1.014680
vt 34.229229 0.000000
vt 26.834040 27.222219
vt 26.223680 27.222219
vt 26.223680 1.014680
vt 24.470711 1.014680
vt 24.470711 27.222219
vt 23.860350 27.222219
vt 23.860350 1.014680
vt 20.354420 1.014680
vt 20.354420 27.222219
vt 19.744061 27.222219
vt 19.744061 1.014680
vt 14.485170 1.014680
vt 14.485170 27.222219
vt 13.874810 27.222219
vt 13.874810 1.014680
vt 0.000000 0.000000
vt 10.368880 1.014680
vt 10.368880 27.222219
vt 9.758521 27.222219
vt 9.758521 1.014680
vt 8.005551 1.014680
vt 8.005551 27.222219
vt 7.395190 27.222219
vt 7.395190 1.014680
vt 0.383330 1.014680
vt 0.383330 27.222219
vt 0.000000 27.222219
vt 8.193540 1.014680
vt 9.375230 27.222219
vt 8.193540 27.222219
vt 1.181690 1.014680
vt 9.375230 0.000000
vt 1.181690 27.222219
vt 0.000000 27.222219
vt 0.000000 0.000000
vn -0.4742 -0.8804 0.0000
vn -0.4740 -0.8805 0.0000
vn -0.4742 -0.8804 -0.0002
vn -0.4741 -0.8805 0.0000
vn -0.4740 -0.8805 0.0005
vn -0.4743 -0.8804 0.0000
vn -0.4744 -0.8803 0.0000
vn -0.4742 -0.8804 0.0001
vn -0.4749 -0.8800 0.0010
vn -0.4741 -0.8805 0.0005
vn -0.4741 -0.8805 -0.0002
vn -0.4748 -0.8801 0.0002
vn -0.8805 0.4740 0.0000
vn -0.8805 0.4740 0.0001
vn -0.8805 0.4741 0.0000
vn -0.8806 0.4739 0.0000
vn 0.4742 0.8804 0.0000
vn 0.4744 0.8803 -0.0001
vn 0.4743 0.8803 0.0000
vn 0.4745 0.8802 0.0000
vn 0.4745 0.8803 0.0002
vn 0.4743 0.8804 -0.0000
vn 0.4741 0.8805 -0.0000
vn 0.4745 0.8803 0.0000
vn 0.4744 0.8803 0.0000
vn 0.4747 0.8802 -0.0005
vn 0.4745 0.8803 0.0005
vn 0.4746 0.8802 0.0000
vn 0.8805 -0.4740 0.0000
vn 0.8806 -0.4739 0.0000
vn -0.4739 -0.8806 -0.0006
vn -0.4743 -0.8804 -0.0010
vn 0.4750 0.8800 -0.0006
vn 0.4740 0.8805 0.0002
vn 0.4742 0.8804 0.0005
vn 0.4742 0.8804 -0.0005
vn 0.4742 0.8804 -0.0006
vn 0.4750 0.8800 0.0003
s off
f 1/1/1 2/2/1 3/3/1
f 4/4/1 5/5/1 1/1/1
f 5/5/1 6/6/1 1/1/1
f 2/2/1 1/1/1 6/6/1
f 7/7/1 8/8/1 4/4/1
f 8/8/2 9/9/2 4/4/2
f 9/9/2 5/5/2 4/4/2
f 9/9/3 10/10/3 5/5/3
f 11/11/4 12/12/4 10/10/4
f 12/12/1 13/13/1 10/10/1
f 10/10/5 13/13/5 5/5/5
f 13/13/6 14/14/6 5/5/6
f 15/15/4 16/16/4 14/14/4
f 16/16/7 17/17/7 14/14/7
f 17/17/8 18/18/8 5/5/8
f 19/19/1 20/20/1 18/18/1
f 20/20/1 21/21/1 18/18/1
f 21/21/9 22/22/9 18/18/9
f 18/18/1 22/22/1 5/5/1
f 23/23/10 22/22/10 21/21/10
f 24/24/2 25/25/2 23/23/2
f 25/25/4 26/26/4 23/23/4
f 27/27/11 22/22/11 26/26/11
f 28/28/1 29/29/1 27/27/1
f 29/29/1 30/30/1 27/27/1
f 30/30/12 22/22/12 27/27/12
f 31/31/1 22/22/1 30/30/1
f 32/32/1 33/33/1 31/31/1
f 33/33/4 22/22/4 31/31/4
f 34/34/13 35/35/13 36/36/13
f 37/37/14 38/38/14 34/34/14
f 35/35/15 34/34/15 38/38/15
f 39/39/16 40/40/16 37/37/16
f 40/40/15 41/41/15 37/37/15
f 41/41/13 38/38/13 37/37/13
f 42/42/17 43/43/17 44/44/17
f 45/45/18 46/46/18 42/42/18
f 43/43/19 42/42/19 46/46/19
f 47/47/20 48/48/20 45/45/20
f 48/48/20 49/49/20 45/45/20
f 49/49/21 50/50/21 46/46/21
f 51/51/22 52/52/22 50/50/22
f 52/52/23 53/53/23 50/50/23
f 53/53/24 54/54/24 46/46/24
f 55/55/25 56/56/25 54/54/25
f 56/56/22 57/57/22 54/54/22
f 57/57/26 58/58/26 46/46/26
f 59/59/22 60/60/22 58/58/22
f 60/60/25 61/61/25 58/58/25
f 58/58/24 62/62/24 46/46/24
f 63/63/21 62/62/21 61/61/21
f 64/64/25 65/65/25 63/63/25
f 65/65/22 66/66/22 63/63/22
f 67/67/27 62/62/27 66/66/27
f 68/68/25 69/69/25 67/67/25
f 69/69/25 70/70/25 67/67/25
f 71/71/25 62/62/25 70/70/25
f 72/72/25 73/73/25 71/71/25
f 73/73/28 62/62/28 71/71/28
f 74/74/29 75/75/29 76/76/29
f 77/77/29 78/78/29 74/74/29
f 75/75/29 74/74/29 78/78/29
f 79/79/30 80/80/30 77/77/30
f 80/80/29 81/81/29 77/77/29
f 81/81/29 78/78/29 77/77/29
s 1
f 14/14/31 17/17/31 5/5/31
f 26/26/32 22/22/32 23/23/32
f 49/49/33 46/46/33 45/45/33
f 50/50/34 53/53/34 46/46/34
f 54/54/35 57/57/35 46/46/35
f 61/61/36 62/62/36 58/58/36
f 66/66/37 62/62/37 63/63/37
f 70/70/38 62/62/38 67/67/38
