# Blender v3.0.1 OBJ File: 'rockerfeller_plaza.blend'
# www.blender.org
o geometryt000010000010000110010110000110000110100000010100st218
v 873.677307 -134.419586 146.532013
v 860.591003 -158.742783 146.532013
v 860.591003 -158.742783 162.565216
v 873.677307 -134.419586 162.565216
v 860.906494 -159.567184 162.565216
v 860.906494 -159.567184 146.532013
v 866.745728 -162.704880 146.532013
v 866.745728 -162.704880 162.565216
v 867.608032 -162.515778 162.565216
v 867.608032 -162.515778 146.532013
v 880.686707 -138.188583 146.532013
v 880.686707 -138.188583 162.565216
v 880.373535 -137.367386 146.532013
v 874.536011 -134.226578 146.532013
v 874.536011 -134.226578 162.565216
v 880.373535 -137.367386 162.565216
vt 0.000000 0.000000
vt 4.166670 0.000000
vt 4.166670 0.800000
vt 0.000000 0.800000
vt 0.000000 0.800000
vt 0.000000 0.000000
vt 1.000000 0.000000
vt 1.000000 0.800000
vt 0.000000 0.800000
vt 0.000000 0.000000
vt 4.166670 0.000000
vt 4.166670 0.800000
vt 0.000000 0.000000
vt 1.000000 0.000000
vt 1.000000 0.800000
vt 0.000000 0.800000
vn -0.8806 0.4738 0.0000
vn -0.4733 -0.8809 0.0000
vn 0.8808 -0.4735 0.0000
vn 0.4738 0.8806 0.0000
s off
f 1/1/1 2/2/1 3/3/1
f 4/4/1 1/1/1 3/3/1
f 5/5/2 6/6/2 7/7/2
f 5/5/2 7/7/2 8/8/2
f 9/9/3 10/10/3 11/11/3
f 9/9/3 11/11/3 12/12/3
f 13/13/4 14/14/4 15/15/4
f 16/16/4 13/13/4 15/15/4
