# Blender v3.0.1 OBJ File: 'rockerfeller_plaza.blend'
# www.blender.org
o geometryt000010000010000110010110000110000100110010110110st23
v 36.373634 -109.028023 565.304077
v 41.399292 -99.766182 565.304077
v 59.069523 -109.354027 565.304077
v 56.613884 -118.930321 565.304077
v 32.042355 -117.016220 565.304077
v 54.045193 -128.952026 565.304077
v 32.042355 -117.016220 579.204041
v 54.045193 -128.952026 579.204041
v 56.613884 -118.930321 579.204041
v 36.373634 -109.028023 579.204041
v 59.069523 -109.354027 579.204041
v 41.399292 -99.766182 579.204041
vt 0.188850 0.057950
vt 0.170400 0.068290
vt 0.182220 0.103690
vt 0.200430 0.098520
vt 0.204760 0.049030
vt 0.219480 0.093100
vt 0.204760 0.049030
vt 0.219480 0.093100
vt 0.200430 0.098520
vt 0.188850 0.057950
vt 0.182220 0.103690
vt 0.170400 0.068290
vn 0.0000 0.0000 -1.0000
vn 0.0000 0.0000 1.0000
s off
f 1/1/1 2/2/1 3/3/1
f 4/4/1 1/1/1 3/3/1
f 5/5/1 1/1/1 4/4/1
f 6/6/1 5/5/1 4/4/1
f 7/7/2 8/8/2 9/9/2
f 9/9/2 10/10/2 7/7/2
f 9/9/2 11/11/2 10/10/2
f 11/11/2 12/12/2 10/10/2
