# Blender v3.0.1 OBJ File: 'rockerfeller_plaza.blend'
# www.blender.org
o geometryt000010000010000110010110000110000110100000100110st152
v 739.511047 -310.662811 657.058044
v 739.347046 -310.966309 680.612915
v 739.511047 -310.662811 680.612915
v 740.990723 -307.923523 657.058044
v 739.347046 -310.966309 656.512878
v 740.990723 -307.923523 680.612915
v 741.160522 -307.609222 680.612915
v 741.160522 -307.609222 657.058044
v 742.640137 -304.869904 657.058044
v 742.640137 -304.869904 680.612915
v 742.809937 -304.555511 680.612915
v 742.809937 -304.555511 657.058044
v 744.289612 -301.816223 657.058044
v 744.289612 -301.816223 680.612915
v 744.459412 -301.501923 680.612915
v 744.459412 -301.501923 657.058044
v 745.199219 -300.132202 657.058044
v 745.199219 -300.132202 680.612915
v 745.369141 -299.817902 680.612915
v 745.369141 -299.817902 657.058044
v 746.108948 -298.448212 657.058044
v 746.108948 -298.448212 680.612915
v 746.278748 -298.133911 680.612915
v 746.278748 -298.133911 657.058044
v 747.018555 -296.764221 657.058044
v 753.040649 -285.615723 656.512878
v 747.018555 -296.764221 680.612915
v 747.188354 -296.449799 680.612915
v 747.188354 -296.449799 657.058044
v 747.928223 -295.080200 657.058044
v 747.928223 -295.080200 680.612915
v 748.098022 -294.765808 680.612915
v 748.098022 -294.765808 657.058044
v 749.577637 -292.026611 657.058044
v 749.577637 -292.026611 680.612915
v 749.747559 -291.712219 680.612915
v 749.747559 -291.712219 657.058044
v 751.227112 -288.972900 657.058044
v 751.227112 -288.972900 680.612915
v 751.396912 -288.658600 680.612915
v 751.396912 -288.658600 657.058044
v 752.876648 -285.919312 657.058044
v 752.876648 -285.919312 680.612915
v 753.040649 -285.615723 680.612915
v 744.400757 -313.695007 657.058044
v 745.345154 -314.204895 680.612915
v 744.400757 -313.695007 680.612915
v 740.291443 -311.476196 657.058044
v 745.345154 -314.204895 656.512878
v 740.291443 -311.476196 680.612915
v 739.347046 -310.966309 680.612915
v 739.347046 -310.966309 656.512878
v 758.874756 -289.168915 657.058044
v 759.038696 -288.865417 680.612915
v 758.874756 -289.168915 680.612915
v 757.394531 -291.907898 657.058044
v 759.038696 -288.865417 656.512878
v 757.394531 -291.907898 680.612915
v 757.225220 -292.221313 680.612915
v 757.225220 -292.221313 657.058044
v 755.744995 -294.960297 657.058044
v 755.744995 -294.960297 680.612915
v 755.575623 -295.273712 680.612915
v 755.575623 -295.273712 657.058044
v 754.095520 -298.012695 657.058044
v 754.095520 -298.012695 680.612915
v 753.926147 -298.326111 680.612915
v 753.926147 -298.326111 657.058044
v 753.186035 -299.695618 657.058044
v 753.186035 -299.695618 680.612915
v 753.016724 -300.009003 680.612915
v 753.016724 -300.009003 657.058044
v 752.276611 -301.378510 657.058044
v 752.276611 -301.378510 680.612915
v 752.107239 -301.691803 680.612915
v 752.107239 -301.691803 657.058044
v 745.345154 -314.204895 656.512878
v 751.367126 -303.061310 657.058044
v 751.367126 -303.061310 680.612915
v 751.197815 -303.374695 680.612915
v 751.197815 -303.374695 657.058044
v 750.457764 -304.744202 657.058044
v 750.457764 -304.744202 680.612915
v 750.288330 -305.057617 680.612915
v 750.288330 -305.057617 657.058044
v 748.808228 -307.796600 657.058044
v 748.808228 -307.796600 680.612915
v 748.638855 -308.110016 680.612915
v 748.638855 -308.110016 657.058044
v 747.158630 -310.848999 657.058044
v 747.158630 -310.848999 680.612915
v 746.989319 -311.162415 680.612915
v 746.989319 -311.162415 657.058044
v 745.509155 -313.901398 657.058044
v 745.509155 -313.901398 680.612915
v 745.345154 -314.204895 680.612915
v 753.986633 -286.128296 657.058044
v 753.040649 -285.615723 680.612915
v 753.986633 -286.128296 680.612915
v 758.092712 -288.352905 657.058044
v 753.040649 -285.615723 656.512878
v 758.092712 -288.352905 680.612915
v 759.038696 -288.865417 680.612915
v 759.038696 -288.865417 656.512878
vt 153.051605 2.930850
vt 154.906403 129.569901
vt 153.051605 129.569901
vt 136.313095 2.930850
vt 154.906403 0.000000
vt 136.313095 129.569901
vt 134.392105 129.569901
vt 134.392105 2.930850
vt 117.653603 129.569901
vt 115.732697 129.569901
vt 117.653603 2.930850
vt 115.732697 2.930850
vt 98.994171 129.569901
vt 97.073189 129.569901
vt 98.994171 2.930850
vt 97.073189 2.930850
vt 88.703941 129.569901
vt 86.782959 129.569901
vt 88.703941 2.930850
vt 86.782959 2.930850
vt 78.413712 129.569901
vt 76.492737 129.569901
vt 78.413712 2.930850
vt 76.492737 2.930850
vt 0.000000 0.000000
vt 68.123489 129.569901
vt 66.202507 129.569901
vt 68.123489 2.930850
vt 66.202507 2.930850
vt 57.833260 129.569901
vt 55.912281 129.569901
vt 57.833260 2.930850
vt 55.912281 2.930850
vt 39.173790 2.930850
vt 39.173790 129.569901
vt 37.252811 129.569901
vt 37.252811 2.930850
vt 20.514311 129.569901
vt 18.593330 129.569901
vt 20.514311 2.930850
vt 18.593330 2.930850
vt 1.854840 129.569901
vt 0.000000 129.569901
vt 1.854840 2.930850
vt 30.877871 2.930850
vt 36.647991 129.569901
vt 30.877871 129.569901
vt 5.770120 2.930850
vt 36.647991 0.000000
vt 5.770120 129.569901
vt 0.000000 129.569901
vt 0.000000 0.000000
vt 152.999405 2.930850
vt 154.854294 129.569901
vt 152.999405 129.569901
vt 136.261002 2.930850
vt 154.854294 0.000000
vt 136.261002 129.569901
vt 134.345795 129.569901
vt 134.345795 2.930850
vt 117.607300 2.930850
vt 117.607300 129.569901
vt 115.692101 129.569901
vt 115.692101 2.930850
vt 98.953598 2.930850
vt 98.953598 129.569901
vt 97.038406 129.569901
vt 97.038406 2.930850
vt 88.669167 2.930850
vt 88.669167 129.569901
vt 86.753990 129.569901
vt 86.753990 2.930850
vt 78.384750 2.930850
vt 78.384750 129.569901
vt 76.469551 129.569901
vt 76.469551 2.930850
vt 0.000000 0.000000
vt 68.100311 129.569901
vt 66.185120 129.569901
vt 68.100311 2.930850
vt 66.185120 2.930850
vt 57.815868 2.930850
vt 57.815868 129.569901
vt 55.900688 129.569901
vt 55.900688 2.930850
vt 39.162201 129.569901
vt 37.247009 129.569901
vt 39.162201 2.930850
vt 37.247009 2.930850
vt 20.508520 2.930850
vt 20.508520 129.569901
vt 18.593330 129.569901
vt 18.593330 2.930850
vt 1.854840 2.930850
vt 1.854840 129.569901
vt 0.000000 129.569901
vt 30.892321 2.930850
vt 36.676899 129.569901
vt 30.892321 129.569901
vt 5.784580 2.930850
vt 36.676899 0.000000
vt 5.784580 129.569901
vt 0.000000 129.569901
vt 0.000000 0.000000
vn -0.8798 0.4754 0.0000
vn -0.8799 0.4752 0.0001
vn -0.8797 0.4755 0.0000
vn -0.8800 0.4750 0.0000
vn -0.8795 0.4758 -0.0003
vn -0.8799 0.4752 0.0000
vn -0.8800 0.4749 0.0000
vn -0.8798 0.4753 -0.0000
vn -0.8796 0.4757 0.0000
vn -0.8798 0.4753 0.0001
vn -0.8796 0.4756 0.0000
vn -0.8798 0.4753 0.0002
vn -0.8799 0.4751 0.0000
vn -0.4751 -0.8799 0.0000
vn -0.4750 -0.8800 0.0000
vn -0.4752 -0.8799 0.0000
vn 0.8800 -0.4751 0.0000
vn 0.8797 -0.4754 -0.0001
vn 0.8797 -0.4755 0.0000
vn 0.8798 -0.4753 0.0000
vn 0.8797 -0.4754 -0.0002
vn 0.8798 -0.4754 0.0001
vn 0.8796 -0.4757 0.0000
vn 0.8796 -0.4757 -0.0006
vn 0.8796 -0.4757 0.0001
vn 0.8798 -0.4754 -0.0001
vn 0.8796 -0.4757 -0.0003
vn 0.8800 -0.4751 -0.0025
vn 0.8797 -0.4754 0.0003
vn 0.8797 -0.4756 0.0000
vn 0.8798 -0.4754 0.0000
vn 0.8799 -0.4752 0.0000
vn 0.4765 0.8792 0.0000
vn 0.4764 0.8792 0.0001
vn 0.4763 0.8793 0.0000
vn 0.4764 0.8792 0.0000
vn -0.8798 0.4753 -0.0001
vn -0.8793 0.4763 -0.0012
vn -0.8794 0.4760 -0.0000
vn -0.8799 0.4751 0.0006
vn -0.8793 0.4763 0.0000
vn -0.8802 0.4747 -0.0006
vn -0.8805 0.4740 0.0000
vn -0.8796 0.4756 -0.0002
vn -0.8797 0.4755 -0.0001
vn -0.8793 0.4762 -0.0000
vn -0.8799 0.4751 -0.0006
vn -0.8792 0.4764 0.0013
vn -0.8794 0.4762 0.0006
vn -0.8793 0.4762 0.0006
vn -0.8798 0.4753 -0.0004
vn -0.8800 0.4750 -0.0007
vn 0.8794 -0.4760 -0.0012
vn 0.8798 -0.4753 0.0019
vn 0.8797 -0.4754 0.0050
vn 0.8798 -0.4754 -0.0025
vn 0.8788 -0.4772 -0.0025
vn 0.8796 -0.4758 -0.0002
vn 0.8796 -0.4757 0.0006
vn 0.8799 -0.4751 -0.0013
vn 0.8797 -0.4754 0.0061
vn 0.8797 -0.4755 0.0001
vn 0.8797 -0.4754 0.0063
vn 0.8797 -0.4755 -0.0001
vn 0.8798 -0.4753 0.0006
s off
f 1/1/1 2/2/1 3/3/1
f 4/4/2 5/5/2 1/1/2
f 2/2/3 1/1/3 5/5/3
f 6/6/4 7/7/4 4/4/4
f 7/7/1 8/8/1 4/4/1
f 8/8/5 5/5/5 4/4/5
f 10/9/6 11/10/6 9/11/6
f 11/10/7 12/12/7 9/11/7
f 14/13/1 15/14/1 13/15/1
f 15/14/1 16/16/1 13/15/1
f 18/17/8 19/18/8 17/19/8
f 19/18/9 20/20/9 17/19/9
f 22/21/1 23/22/1 21/23/1
f 23/22/7 24/24/7 21/23/7
f 24/24/10 26/25/10 5/5/10
f 27/26/6 28/27/6 25/28/6
f 28/27/11 29/29/11 25/28/11
f 31/30/6 32/31/6 30/32/6
f 32/31/6 33/33/6 30/32/6
f 34/34/12 26/25/12 33/33/12
f 35/35/6 36/36/6 34/34/6
f 36/36/8 37/37/8 34/34/8
f 39/38/1 40/39/1 38/40/1
f 40/39/1 41/41/1 38/40/1
f 43/42/8 44/43/8 42/44/8
f 44/43/13 26/25/13 42/44/13
f 45/45/14 46/46/14 47/47/14
f 48/48/14 49/49/14 45/45/14
f 46/46/15 45/45/15 49/49/15
f 50/50/14 51/51/14 48/48/14
f 51/51/14 52/52/14 48/48/14
f 52/52/16 49/49/16 48/48/16
f 53/53/17 54/54/17 55/55/17
f 56/56/18 57/57/18 53/53/18
f 54/54/19 53/53/19 57/57/19
f 58/58/20 59/59/20 56/56/20
f 59/59/20 60/60/20 56/56/20
f 60/60/21 61/61/21 57/57/21
f 62/62/20 63/63/20 61/61/20
f 63/63/20 64/64/20 61/61/20
f 64/64/22 65/65/22 57/57/22
f 66/66/20 67/67/20 65/65/20
f 67/67/23 68/68/23 65/65/23
f 68/68/24 69/69/24 57/57/24
f 70/70/20 71/71/20 69/69/20
f 71/71/20 72/72/20 69/69/20
f 72/72/25 73/73/25 57/57/25
f 74/74/19 75/75/19 73/73/19
f 75/75/19 76/76/19 73/73/19
f 73/73/26 77/77/26 57/57/26
f 79/78/20 80/79/20 78/80/20
f 80/79/20 81/81/20 78/80/20
f 82/82/27 77/77/27 81/81/27
f 83/83/23 84/84/23 82/82/23
f 84/84/20 85/85/20 82/82/20
f 87/86/20 88/87/20 86/88/20
f 88/87/20 89/89/20 86/88/20
f 89/89/28 77/77/28 86/88/28
f 90/90/29 77/77/29 89/89/29
f 91/91/20 92/92/20 90/90/20
f 92/92/30 93/93/30 90/90/30
f 94/94/19 77/77/19 93/93/19
f 95/95/31 96/96/31 94/94/31
f 96/96/32 77/77/32 94/94/32
f 97/97/33 98/98/33 99/99/33
f 100/100/34 101/101/34 97/97/34
f 98/98/35 97/97/35 101/101/35
f 102/102/36 103/103/36 100/100/36
f 103/103/35 104/104/35 100/100/35
f 104/104/35 101/101/35 100/100/35
s 1
f 8/8/37 9/11/38 5/5/12
f 9/11/38 12/12/13 5/5/12
f 12/12/13 13/15/39 5/5/12
f 13/15/39 16/16/40 5/5/12
f 16/16/40 17/19/41 5/5/12
f 17/19/41 20/20/42 5/5/12
f 20/20/42 21/23/43 5/5/12
f 21/23/43 24/24/43 5/5/12
f 25/28/44 26/25/45 24/24/44
f 29/29/46 26/25/45 25/28/44
f 30/32/47 26/25/45 29/29/46
f 33/33/48 26/25/45 30/32/47
f 37/37/49 26/25/8 34/34/50
f 38/40/51 26/25/8 37/37/49
f 41/41/52 26/25/8 38/40/51
f 42/44/8 26/25/8 41/41/52
f 60/60/53 57/57/53 56/56/53
f 61/61/54 64/64/54 57/57/54
f 65/65/55 68/68/55 57/57/55
f 69/69/56 72/72/56 57/57/56
f 76/76/57 77/77/58 73/73/57
f 78/80/59 77/77/58 76/76/57
f 81/81/60 77/77/58 78/80/59
f 85/85/61 77/77/62 82/82/63
f 86/88/64 77/77/62 85/85/61
f 93/93/65 77/77/65 90/90/65
