# Blender v3.0.1 OBJ File: 'rockerfeller_plaza.blend'
# www.blender.org
o geometryt000010000010000110010110000110000110100000110010st14_T
v 1026.205078 -111.984138 478.943512
v 1042.031738 -113.658638 481.943512
v 1028.111084 -108.433136 480.941925
v 1050.328125 -118.141342 481.943512
v 1047.444092 -123.459740 478.943512
v 1050.187622 -118.400436 481.797333
v 1029.671021 -106.980141 481.943512
v 1029.066284 -106.653442 481.943512
v 1030.284790 -107.311737 481.943512
v 1030.880371 -107.633636 481.943512
v 1031.430054 -107.930542 481.943512
v 1047.444092 -123.459740 478.943512
v 1029.671021 -106.980141 481.943512
v 1029.202637 -106.399437 481.800537
v 1029.066284 -106.653442 481.943512
v 1030.284790 -107.311737 481.943512
v 1053.212158 -112.822937 478.943512
v 1033.114624 -101.996941 478.957825
v 1031.914062 -101.348038 478.957733
v 1033.120483 -102.000038 478.957825
v 1034.337646 -102.659637 478.958679
v 1034.343872 -102.662941 478.958679
v 1035.527466 -103.301041 478.958008
v 1035.533203 -103.304138 478.958008
v 1036.633789 -103.888741 478.953644
v 1036.637451 -103.890739 478.953613
v 1030.880371 -107.633636 481.943512
v 1031.430054 -107.930542 481.943512
v 1042.031738 -113.658638 481.943512
v 1051.289551 -116.368538 480.943512
v 1050.328125 -118.141342 481.943512
v 1031.914062 -101.348038 464.343506
v 1033.120483 -102.000038 464.343506
v 1026.205078 -111.984138 464.343506
v 1034.343872 -102.662941 464.343506
v 1035.533203 -103.304138 464.343506
v 1036.637451 -103.890739 464.343506
v 1047.444092 -123.459740 464.343506
v 1053.212158 -112.822937 464.343506
v 1026.205078 -111.984138 478.943512
v 1047.444092 -123.459740 478.943512
v 1047.444092 -123.459740 478.943512
vt 0.194630 0.055350
vt 0.192650 0.087210
vt 0.187570 0.059280
vt 0.198170 0.103830
vt 0.208760 0.097890
vt 0.198680 0.103540
vt 0.184430 0.062450
vt 0.184020 0.061240
vt 0.185230 0.064880
vt 0.184830 0.063680
vt 0.185600 0.065980
vt 0.184430 0.062450
vt 0.183520 0.061520
vt 0.184020 0.061240
vt 0.184830 0.063680
vt 0.187570 0.109760
vt 0.174260 0.069510
vt 0.173460 0.067110
vt 0.175080 0.071960
vt 0.174270 0.069520
vt 0.175870 0.074340
vt 0.175080 0.071970
vt 0.175870 0.074360
vt 0.176590 0.076560
vt 0.176590 0.076570
vt 0.185230 0.064880
vt 0.185600 0.065980
vt 0.192650 0.087210
vt 0.194640 0.105810
vt 0.198170 0.103830
vt 0.173460 0.067110
vt 0.174270 0.069520
vt 0.194630 0.055350
vt 0.175080 0.071970
vt 0.175870 0.074360
vt 0.176590 0.076570
vt 0.208760 0.097890
vt 0.187570 0.109760
vt 0.208760 0.097890
vn -0.2112 -0.3908 0.8959
vn -0.2112 -0.3909 0.8959
vn -0.2111 -0.3910 0.8958
vn -0.2112 -0.3906 0.8960
vn 0.2112 0.3909 0.8959
vn 0.2115 0.3909 0.8958
vn 0.2112 0.3908 0.8959
vn 0.2111 0.3905 0.8960
vn 0.2112 0.3910 0.8958
vn 0.0000 0.0000 -1.0000
vn -0.0001 0.0000 -1.0000
vn -0.2467 -0.1295 0.9604
vn 0.0000 0.0000 0.9746
vn -0.2229 -0.0196 0.9746
vn 0.2089 0.3925 0.8957
vn 0.2089 0.3924 0.8957
vn 0.2089 0.3899 0.8969
vn 0.2127 0.3944 0.8940
vn 0.2182 0.3926 0.8934
s off
f 1/1/1 2/2/1 3/3/1
f 1/1/1 4/4/1 2/2/1
f 1/1/1 5/5/1 6/6/1
f 1/1/2 6/6/2 4/4/2
f 3/3/3 7/7/3 8/8/3
f 3/3/4 10/9/4 9/10/4
f 3/3/2 11/11/2 10/9/2
f 3/3/2 2/2/2 11/11/2
f 13/12/5 14/13/5 15/14/5
f 16/15/6 14/13/6 13/12/6
f 17/16/5 14/13/5 16/15/5
f 18/17/5 19/18/5 14/13/5
f 21/19/7 20/20/7 14/13/7
f 14/13/7 23/21/7 22/22/7
f 24/23/7 14/13/7 25/24/7
f 17/16/7 26/25/7 14/13/7
f 17/16/8 16/15/8 27/26/8
f 17/16/9 27/26/9 28/27/9
f 29/28/5 17/16/5 28/27/5
f 30/29/7 29/28/7 31/30/7
f 30/29/7 17/16/7 29/28/7
f 32/31/10 33/32/10 34/33/10
f 35/34/11 34/33/11 33/32/11
f 36/35/10 34/33/10 35/34/10
f 34/33/10 36/35/10 37/36/10
f 34/33/10 37/36/10 38/37/10
f 38/37/10 37/36/10 39/38/10
s 1
f 3/3/2 9/10/2 7/7/2
f 6/6/12 5/5/13 12/39/14
f 20/20/15 18/17/15 14/13/16
f 22/22/17 21/19/17 14/13/17
f 14/13/18 24/23/18 23/21/18
f 14/13/19 26/25/19 25/24/19
