# Blender v3.0.1 OBJ File: 'rockerfeller_plaza.blend'
# www.blender.org
o geometryt000010000010000110010110000110000110100100010010st65
v 1215.170044 -199.645569 1007.468933
v 1202.619141 -229.480057 1007.468933
v 1198.478271 -230.583267 1007.468933
v 1229.131958 -246.999664 1007.468933
v 1217.922729 -201.123169 1007.468933
v 1230.528564 -244.418655 1007.468933
v 1212.967651 -224.962357 1007.468933
v 1219.238647 -201.740662 1007.468933
v 1223.988892 -204.371658 1007.468933
v 1231.892212 -241.915756 1007.468933
v 1233.652344 -238.653259 1007.468933
v 1236.289185 -237.445557 1007.468933
v 1265.589600 -255.809357 1007.468933
v 1238.447998 -233.623260 1007.468933
v 1268.762695 -249.921265 1007.468933
v 1241.599731 -251.138962 1007.468933
v 1240.492310 -253.183670 1007.468933
v 1263.829590 -259.071869 1007.468933
v 1262.152466 -262.200165 1007.468933
v 1237.835205 -217.365662 1007.468933
v 1240.282471 -212.951569 1007.468933
v 1239.712158 -231.276962 1007.468933
v 1249.576904 -226.542755 1007.468933
v 1250.775024 -224.319366 1007.468933
v 1248.293457 -235.894867 1007.468933
v 1252.499634 -228.118362 1007.468933
v 1270.026855 -247.574966 1007.468933
v 1261.062012 -264.244690 1007.468933
v 1270.709473 -240.261658 1007.468933
v 1272.899414 -236.216965 1007.468933
v 1273.117676 -241.876556 1007.468933
v 1273.249878 -241.630768 1007.468933
v 1198.478271 -230.583267 1047.468872
v 1202.619141 -229.480057 1047.468872
v 1215.170044 -199.645569 1047.468872
v 1229.131958 -246.999664 1047.468872
v 1203.686890 -227.501663 1047.468872
v 1228.581299 -243.376465 1047.468872
v 1217.922729 -201.123169 1047.468872
v 1230.528564 -244.418655 1047.468872
v 1217.922729 -201.123169 1050.468872
v 1202.619141 -229.480057 1050.468872
v 1212.967651 -224.962357 1050.468872
v 1230.528564 -244.418655 1050.468872
v 1219.238647 -201.740662 1050.468872
v 1219.143188 -213.424866 1050.468872
v 1223.221436 -230.450867 1050.468872
v 1233.652344 -238.653259 1050.468872
v 1231.892212 -241.915756 1050.468872
v 1223.988892 -204.371658 1050.468872
v 1236.289185 -237.445557 1050.468872
v 1265.589600 -255.809357 1050.468872
v 1237.238281 -235.764969 1050.468872
v 1268.762695 -249.921265 1050.468872
v 1238.447998 -233.623260 1050.468872
v 1259.138916 -244.747360 1050.468872
v 1223.988892 -204.371658 1105.268921
v 1212.967651 -224.962357 1105.268921
v 1237.835205 -217.365662 1105.268921
v 1236.289185 -237.445557 1105.268921
v 1238.447998 -233.623260 1105.268921
v 1240.282471 -212.951569 1105.268921
v 1239.712158 -231.276962 1105.268921
v 1249.576904 -226.542755 1105.268921
v 1250.775024 -224.319366 1105.268921
v 1248.293457 -235.894867 1105.268921
v 1252.499634 -228.118362 1105.268921
v 1241.599731 -251.138962 1042.468872
v 1230.354004 -244.741257 1042.468872
v 1229.131958 -246.999664 1042.468872
v 1240.492310 -253.183670 1042.468872
v 1230.528564 -244.418655 1042.468872
v 1231.638550 -242.381470 1042.468872
v 1231.892212 -241.915756 1042.468872
v 1259.837402 -256.927368 1042.468872
v 1263.829590 -259.071869 1042.468872
v 1262.152466 -262.200165 1042.468872
v 1233.529541 -238.880859 1047.468872
v 1231.892212 -241.915756 1047.468872
v 1263.829590 -259.071869 1047.468872
v 1233.652344 -238.653259 1047.468872
v 1263.361450 -254.612457 1047.468872
v 1265.589600 -255.809357 1047.468872
v 1245.239990 -234.251663 1070.468872
v 1238.909302 -232.766968 1070.468872
v 1238.447998 -233.623260 1070.468872
v 1248.293457 -235.894867 1070.468872
v 1268.762695 -249.921265 1070.468872
v 1239.262329 -232.111862 1070.468872
v 1239.712158 -231.276962 1070.468872
v 1267.853516 -246.406967 1070.468872
v 1270.026855 -247.574966 1070.468872
v 1259.216309 -260.620087 1037.468872
v 1241.441528 -251.431061 1037.468872
v 1240.492310 -253.183670 1037.468872
v 1262.152466 -262.200165 1037.468872
v 1261.062012 -264.244690 1037.468872
v 1241.599731 -251.138962 1037.468872
v 1248.293457 -235.894867 1077.468872
v 1270.709473 -240.261658 1077.468872
v 1251.304077 -230.328857 1077.468872
v 1270.026855 -247.574966 1077.468872
v 1249.576904 -226.542755 1077.468872
v 1250.407593 -226.990662 1077.468872
v 1250.434448 -224.951370 1077.468872
v 1250.775024 -224.319366 1077.468872
v 1252.499634 -228.118362 1077.468872
v 1272.899414 -236.216965 1077.468872
v 1273.117676 -241.876556 1077.468872
v 1273.249878 -241.630768 1077.468872
vt 0.296100 0.421140
vt 0.354370 0.395140
vt 0.357700 0.386770
vt 0.377820 0.448160
vt 0.297910 0.426650
vt 0.372680 0.451030
vt 0.342860 0.416100
vt 0.298620 0.429290
vt 0.301890 0.438800
vt 0.367690 0.453840
vt 0.361200 0.457460
vt 0.358160 0.462810
vt 0.382260 0.521420
vt 0.350520 0.467250
vt 0.370540 0.527960
vt 0.381390 0.473190
vt 0.385460 0.470910
vt 0.388760 0.517800
vt 0.394980 0.514340
vt 0.321130 0.466400
vt 0.312320 0.471430
vt 0.345850 0.469850
vt 0.334100 0.489840
vt 0.329670 0.492310
vt 0.351520 0.487040
vt 0.336040 0.495700
vt 0.365870 0.530560
vt 0.399050 0.512100
vt 0.352340 0.532110
vt 0.344290 0.536620
vt 0.354520 0.536920
vt 0.354030 0.537200
vt 0.357700 0.386770
vt 0.354370 0.395140
vt 0.296100 0.421140
vt 0.377820 0.448160
vt 0.350430 0.397340
vt 0.371400 0.447130
vt 0.297910 0.426650
vt 0.372680 0.451030
vt 0.297910 0.426650
vt 0.354370 0.395140
vt 0.342860 0.416100
vt 0.372680 0.451030
vt 0.298620 0.429290
vt 0.319910 0.428820
vt 0.349590 0.436640
vt 0.361200 0.457460
vt 0.367690 0.453840
vt 0.301890 0.438800
vt 0.358160 0.462810
vt 0.382260 0.521420
vt 0.354800 0.464760
vt 0.370540 0.527960
vt 0.350520 0.467250
vt 0.364180 0.508680
vt 0.301890 0.438800
vt 0.342860 0.416100
vt 0.321130 0.466400
vt 0.358160 0.462810
vt 0.350520 0.467250
vt 0.312320 0.471430
vt 0.345850 0.469850
vt 0.334100 0.489840
vt 0.329670 0.492310
vt 0.351520 0.487040
vt 0.336040 0.495700
vt 0.381390 0.473190
vt 0.373320 0.450670
vt 0.377820 0.448160
vt 0.385460 0.470910
vt 0.372680 0.451030
vt 0.368620 0.453320
vt 0.367690 0.453840
vt 0.386120 0.509800
vt 0.388760 0.517800
vt 0.394980 0.514340
vt 0.361650 0.457210
vt 0.367690 0.453840
vt 0.388760 0.517800
vt 0.361200 0.457460
vt 0.380790 0.516960
vt 0.382260 0.521420
vt 0.349510 0.480920
vt 0.348820 0.468200
vt 0.350520 0.467250
vt 0.351520 0.487040
vt 0.370540 0.527960
vt 0.347510 0.468920
vt 0.345850 0.469850
vt 0.364430 0.526210
vt 0.365870 0.530560
vt 0.393040 0.508460
vt 0.381970 0.472860
vt 0.385460 0.470910
vt 0.394980 0.514340
vt 0.399050 0.512100
vt 0.381390 0.473190
vt 0.351520 0.487040
vt 0.352340 0.532110
vt 0.340440 0.493230
vt 0.365870 0.530560
vt 0.334100 0.489840
vt 0.334650 0.491510
vt 0.330930 0.491610
vt 0.329670 0.492310
vt 0.336040 0.495700
vt 0.344290 0.536620
vt 0.354520 0.536920
vt 0.354030 0.537200
vn 0.0000 0.0000 -1.0000
vn 0.0001 0.0000 -1.0000
vn 0.0002 0.0000 -1.0000
vn 0.0000 0.0000 1.0000
vn -0.0006 0.0000 1.0000
vn -0.0002 0.0000 1.0000
vn 0.0003 0.0000 1.0000
s off
f 1/1/1 2/2/1 3/3/1
f 2/2/1 4/4/1 3/3/1
f 1/1/1 5/5/1 2/2/1
f 2/2/1 6/6/1 4/4/1
f 7/7/1 2/2/1 5/5/1
f 7/7/1 6/6/1 2/2/1
f 7/7/2 5/5/2 8/8/2
f 7/7/1 8/8/1 9/9/1
f 10/10/1 6/6/1 7/7/1
f 11/11/1 10/10/1 7/7/1
f 7/7/1 12/12/1 11/11/1
f 13/13/1 11/11/1 12/12/1
f 12/12/1 14/14/1 15/15/1
f 13/13/1 12/12/1 15/15/1
f 4/4/1 6/6/1 16/16/1
f 17/17/1 4/4/1 16/16/1
f 16/16/1 6/6/1 10/10/1
f 16/16/1 10/10/1 18/18/1
f 19/19/1 16/16/1 18/18/1
f 10/10/1 11/11/1 18/18/1
f 11/11/1 13/13/1 18/18/1
f 20/20/1 7/7/1 9/9/1
f 14/14/1 12/12/1 7/7/1
f 14/14/1 7/7/1 20/20/1
f 20/20/1 9/9/1 21/21/1
f 22/22/1 14/14/1 20/20/1
f 22/22/1 20/20/1 23/23/1
f 23/23/1 20/20/1 24/24/1
f 23/23/1 25/25/1 22/22/1
f 25/25/1 23/23/1 26/26/1
f 22/22/1 25/25/1 14/14/1
f 14/14/1 25/25/1 15/15/1
f 15/15/1 25/25/1 27/27/1
f 17/17/1 16/16/1 19/19/1
f 17/17/1 19/19/1 28/28/1
f 25/25/1 26/26/1 29/29/1
f 25/25/1 29/29/1 27/27/1
f 24/24/1 26/26/1 23/23/1
f 24/24/1 30/30/1 26/26/1
f 29/29/1 26/26/1 30/30/1
f 27/27/1 29/29/1 31/31/1
f 29/29/3 32/32/3 31/31/3
f 33/33/4 34/34/4 35/35/4
f 36/36/4 34/34/4 33/33/4
f 34/34/5 37/37/5 35/35/5
f 38/38/4 34/34/4 36/36/4
f 37/37/4 39/39/4 35/35/4
f 40/40/4 38/38/4 36/36/4
f 41/41/4 42/42/4 43/43/4
f 42/42/4 44/44/4 43/43/4
f 45/45/4 41/41/4 43/43/4
f 46/46/4 45/45/4 43/43/4
f 47/47/4 43/43/4 48/48/4
f 43/43/4 44/44/4 49/49/4
f 43/43/4 49/49/4 48/48/4
f 50/50/4 45/45/4 46/46/4
f 51/51/4 47/47/4 48/48/4
f 48/48/4 52/52/4 51/51/4
f 53/53/4 51/51/4 54/54/4
f 54/54/4 51/51/4 52/52/4
f 55/55/4 53/53/4 56/56/4
f 56/56/4 53/53/4 54/54/4
f 57/57/4 58/58/4 59/59/4
f 58/58/4 60/60/4 61/61/4
f 59/59/4 58/58/4 61/61/4
f 62/62/4 57/57/4 59/59/4
f 59/59/4 61/61/4 63/63/4
f 59/59/4 63/63/4 64/64/4
f 64/64/4 65/65/4 59/59/4
f 63/63/4 66/66/4 64/64/4
f 67/67/4 64/64/4 66/66/4
f 68/68/4 69/69/4 70/70/4
f 70/70/4 71/71/4 68/68/4
f 68/68/6 72/72/6 69/69/6
f 73/73/4 72/72/4 68/68/4
f 74/74/7 73/73/7 68/68/7
f 75/75/4 74/74/4 68/68/4
f 76/76/4 75/75/4 68/68/4
f 77/77/4 76/76/4 68/68/4
f 78/78/4 79/79/4 80/80/4
f 81/81/4 78/78/4 80/80/4
f 81/81/4 80/80/4 82/82/4
f 82/82/4 80/80/4 83/83/4
f 84/84/4 85/85/4 86/86/4
f 84/84/4 86/86/4 87/87/4
f 87/87/4 86/86/4 88/88/4
f 84/84/4 89/89/4 85/85/4
f 90/90/4 89/89/4 84/84/4
f 87/87/4 88/88/4 91/91/4
f 91/91/4 88/88/4 92/92/4
f 93/93/4 94/94/4 95/95/4
f 93/93/4 95/95/4 96/96/4
f 95/95/4 97/97/4 96/96/4
f 98/98/4 94/94/4 93/93/4
f 99/99/4 100/100/4 101/101/4
f 102/102/4 100/100/4 99/99/4
f 103/103/4 104/104/4 105/105/4
f 105/105/4 104/104/4 106/106/4
f 104/104/4 107/107/4 106/106/4
f 106/106/4 107/107/4 108/108/4
f 101/101/4 100/100/4 107/107/4
f 107/107/4 100/100/4 108/108/4
f 109/109/4 100/100/4 102/102/4
f 109/109/4 110/110/4 100/100/4
