# Blender v3.0.1 OBJ File: 'rockerfeller_plaza.blend'
# www.blender.org
o geometryt000010000010000110010110000110000100110010110010st36
v 181.445206 -297.234772 308.719116
v 181.445206 -297.234772 291.398224
v 180.708313 -298.600281 291.398224
v 180.708313 -298.600281 308.719116
v 182.784805 -294.752167 308.719116
v 182.784805 -294.752167 291.398224
v 182.048004 -296.117767 291.398224
v 182.048004 -296.117767 308.719116
v 184.124512 -292.269684 308.719116
v 184.124512 -292.269684 291.398224
v 183.387604 -293.635162 291.398224
v 183.387604 -293.635162 308.719116
v 180.848114 -299.067780 308.719116
v 180.848114 -299.067780 291.398224
v 183.578705 -300.542358 291.398224
v 183.578705 -300.542358 308.719116
v 184.038208 -300.790466 308.719116
v 184.038208 -300.790466 291.398224
v 185.403610 -301.527771 291.398224
v 185.403610 -301.527771 308.719116
v 185.863113 -301.775879 308.719116
v 185.863113 -301.775879 291.398224
v 187.228409 -302.513184 291.398224
v 187.228409 -302.513184 308.719116
v 187.687912 -302.761261 308.719116
v 187.687912 -302.761261 291.398224
v 189.053207 -303.498474 291.398224
v 189.053207 -303.498474 308.719116
v 189.512711 -303.746674 308.719116
v 189.512711 -303.746674 291.398224
v 192.243408 -305.221161 291.398224
v 192.243408 -305.221161 308.719116
v 192.702911 -305.469269 308.719116
v 192.702911 -305.469269 291.398224
v 195.433609 -306.943878 291.398224
v 195.433609 -306.943878 308.719116
v 198.405212 -308.548462 308.719116
v 195.893112 -307.191956 291.398224
v 198.623810 -308.666473 291.398224
v 195.893112 -307.191956 308.719116
v 198.623810 -308.666473 308.719116
v 199.083206 -308.914673 308.719116
v 199.083206 -308.914673 291.398224
v 200.448608 -309.651855 291.398224
v 200.448608 -309.651855 308.719116
v 200.908112 -309.899963 308.719116
v 200.908112 -309.899963 291.398224
v 202.273407 -310.637268 291.398224
v 202.273407 -310.637268 308.719116
v 203.260712 -311.170380 308.719116
v 202.732910 -310.885376 291.398224
v 204.098312 -311.622681 291.398224
v 202.732910 -310.885376 308.719116
v 204.098312 -311.622681 308.719116
v 204.557800 -311.870758 308.719116
v 204.557800 -311.870758 291.398224
v 207.288406 -313.345367 291.398224
v 207.288406 -313.345367 308.719116
v 187.321213 -293.607056 291.398224
v 184.591812 -292.130157 291.398224
v 184.591812 -292.130157 308.719116
v 187.321213 -293.607056 308.719116
v 189.145706 -294.594177 291.398224
v 187.781006 -293.855774 291.398224
v 187.781006 -293.855774 308.719116
v 189.145706 -294.594177 308.719116
v 190.970200 -295.581360 291.398224
v 189.605499 -294.842957 291.398224
v 189.605499 -294.842957 308.719116
v 190.970200 -295.581360 308.719116
v 192.794708 -296.568481 291.398224
v 191.429901 -295.830078 291.398224
v 191.429901 -295.830078 308.719116
v 192.794708 -296.568481 308.719116
v 195.983902 -298.294067 308.719116
v 195.983902 -298.294067 291.398224
v 193.254410 -296.817261 291.398224
v 193.254410 -296.817261 308.719116
v 199.173111 -300.019684 308.719116
v 199.173111 -300.019684 291.398224
v 196.443604 -298.542877 291.398224
v 196.443604 -298.542877 308.719116
v 202.362305 -301.745270 291.398224
v 199.632904 -300.268372 291.398224
v 199.632904 -300.268372 308.719116
v 202.362305 -301.745270 308.719116
v 204.186813 -302.732361 308.719116
v 204.186813 -302.732361 291.398224
v 202.822113 -301.993958 291.398224
v 202.822113 -301.993958 308.719116
v 206.011307 -303.719574 291.398224
v 204.646606 -302.981171 291.398224
v 204.646606 -302.981171 308.719116
v 206.011307 -303.719574 308.719116
v 207.835800 -304.706665 308.719116
v 207.835800 -304.706665 291.398224
v 206.471008 -303.968262 291.398224
v 206.471008 -303.968262 308.719116
v 211.025009 -306.432281 308.719116
v 211.025009 -306.432281 291.398224
v 208.295502 -304.955475 291.398224
v 208.295502 -304.955475 308.719116
v 207.748505 -313.219666 291.398224
v 208.486313 -311.854675 291.398224
v 208.486313 -311.854675 308.719116
v 207.748505 -313.219666 308.719116
v 209.087509 -310.742371 291.398224
v 209.825302 -309.377258 291.398224
v 209.825302 -309.377258 308.719116
v 209.087509 -310.742371 308.719116
v 210.426605 -308.264984 308.719116
v 210.426605 -308.264984 291.398224
v 211.164413 -306.899963 291.398224
v 211.164413 -306.899963 308.719116
vt 0.000000 2.000000
vt 0.000000 0.000000
vt 0.250000 0.000000
vt 0.250000 2.000000
vt 0.000000 2.000000
vt 0.000000 0.000000
vt 0.250000 0.000000
vt 0.250000 2.000000
vt 0.000000 2.000000
vt 0.000000 0.000000
vt 0.250000 0.000000
vt 0.250000 2.000000
vt 0.000000 2.000000
vt 0.000000 0.000000
vt 0.250000 0.000000
vt 0.250000 2.000000
vt 0.000000 2.000000
vt 0.000000 0.000000
vt 0.250000 0.000000
vt 0.250000 2.000000
vt 0.000000 2.000000
vt 0.000000 0.000000
vt 0.500000 0.000000
vt 0.500000 2.000000
vt 0.000000 2.000000
vt 0.000000 0.000000
vt 0.500000 0.000000
vt 0.500000 2.000000
vt 0.459980 2.000000
vt 0.000000 0.000000
vt 0.500000 0.000000
vt 0.500000 2.000000
vt 0.000000 2.000000
vt 0.000000 0.000000
vt 0.250000 0.000000
vt 0.250000 2.000000
vt 0.000000 2.000000
vt 0.000000 0.000000
vt 0.250000 0.000000
vt 0.250000 2.000000
vt 0.096630 2.000000
vt 0.000000 0.000000
vt 0.250000 0.000000
vt 0.000000 2.000000
vt 0.250000 2.000000
vt 0.000000 2.000000
vt 0.000000 0.000000
vt 0.500000 0.000000
vt 0.500000 2.000000
vt 0.000000 0.000000
vt 0.500000 0.000000
vt 0.500000 2.000000
vt 0.000000 2.000000
vt 0.000000 0.000000
vt 0.250000 0.000000
vt 0.250000 2.000000
vt 0.000000 2.000000
vt 0.000000 0.000000
vt 0.250000 0.000000
vt 0.250000 2.000000
vt 0.000000 2.000000
vt 0.000000 0.000000
vt 0.250000 0.000000
vt 0.250000 2.000000
vt 0.000000 2.000000
vt 0.000000 2.000000
vt 0.000000 0.000000
vt 0.500000 0.000000
vt 0.500000 2.000000
vt 0.000000 2.000000
vt 0.000000 0.000000
vt 0.500000 0.000000
vt 0.500000 2.000000
vt 0.000000 0.000000
vt 0.500000 0.000000
vt 0.500000 2.000000
vt 0.000000 2.000000
vt 0.000000 2.000000
vt 0.000000 0.000000
vt 0.250000 0.000000
vt 0.250000 2.000000
vt 0.000000 0.000000
vt 0.250000 0.000000
vt 0.250000 2.000000
vt 0.000000 2.000000
vt 0.000000 2.000000
vt 0.000000 0.000000
vt 0.250000 0.000000
vt 0.250000 2.000000
vt 0.000000 2.000000
vt 0.000000 0.000000
vt 0.500000 0.000000
vt 0.500000 2.000000
vt 0.000000 0.000000
vt 0.250000 0.000000
vt 0.250000 2.000000
vt 0.000000 2.000000
vt 0.000000 0.000000
vt 0.250000 0.000000
vt 0.250000 2.000000
vt 0.000000 2.000000
vt 0.000000 2.000000
vt 0.000000 0.000000
vt 0.250000 0.000000
vt 0.250000 2.000000
vt 0.000000 2.000000
vt 0.000000 0.000000
vt 0.250000 0.000000
vt 0.250000 2.000000
vt 0.000000 2.000000
vt 0.000000 0.000000
vt 0.500000 0.000000
vt 0.500000 2.000000
vt 0.000000 2.000000
vn -0.8801 0.4748 0.0000
vn -0.8800 0.4749 0.0000
vn -0.4751 -0.8799 0.0000
vn -0.4752 -0.8799 0.0000
vn 0.4759 0.8795 0.0000
vn 0.8797 -0.4755 0.0000
s off
f 5/1/1 6/2/1 7/3/1
f 5/1/1 7/3/1 8/4/1
f 9/5/2 10/6/2 11/7/2
f 9/5/2 11/7/2 12/8/2
f 17/9/3 18/10/3 19/11/3
f 17/9/3 19/11/3 20/12/3
f 21/13/4 22/14/4 23/15/4
f 21/13/4 23/15/4 24/16/4
f 25/17/3 26/18/3 27/19/3
f 25/17/3 27/19/3 28/20/3
f 29/21/3 30/22/3 31/23/3
f 29/21/3 31/23/3 32/24/3
f 33/25/4 34/26/4 35/27/4
f 33/25/4 35/27/4 36/28/4
f 37/29/3 38/30/3 39/31/3
f 37/29/3 39/31/3 41/32/3
f 42/33/3 43/34/3 44/35/3
f 42/33/3 44/35/3 45/36/3
f 46/37/4 47/38/4 48/39/4
f 46/37/4 48/39/4 49/40/4
f 50/41/4 51/42/4 52/43/4
f 53/44/3 51/42/3 50/41/3
f 50/41/3 52/43/3 54/45/3
f 55/46/4 56/47/4 57/48/4
f 55/46/4 57/48/4 58/49/4
f 59/50/5 60/51/5 61/52/5
f 62/53/5 59/50/5 61/52/5
f 63/54/5 64/55/5 65/56/5
f 66/57/5 63/54/5 65/56/5
f 67/58/5 68/59/5 69/60/5
f 70/61/5 67/58/5 69/60/5
f 71/62/5 72/63/5 73/64/5
f 74/65/5 71/62/5 73/64/5
f 75/66/5 76/67/5 77/68/5
f 75/66/5 77/68/5 78/69/5
f 79/70/5 80/71/5 81/72/5
f 79/70/5 81/72/5 82/73/5
f 83/74/5 84/75/5 85/76/5
f 86/77/5 83/74/5 85/76/5
f 87/78/5 88/79/5 89/80/5
f 87/78/5 89/80/5 90/81/5
f 91/82/5 92/83/5 93/84/5
f 94/85/5 91/82/5 93/84/5
f 95/86/5 96/87/5 97/88/5
f 95/86/5 97/88/5 98/89/5
f 99/90/5 100/91/5 101/92/5
f 99/90/5 101/92/5 102/93/5
f 103/94/6 104/95/6 105/96/6
f 106/97/6 103/94/6 105/96/6
f 107/98/6 108/99/6 109/100/6
f 110/101/6 107/98/6 109/100/6
f 111/102/6 112/103/6 113/104/6
f 111/102/6 113/104/6 114/105/6
s 1
f 1/106/2 2/107/2 3/108/2
f 1/106/2 3/108/2 4/109/2
f 13/110/4 14/111/4 15/112/4
f 13/110/4 15/112/4 16/113/4
f 40/114/3 38/30/3 37/29/3
