# Blender v3.0.1 OBJ File: 'rockerfeller_plaza.blend'
# www.blender.org
o geometryt000010000010000110010110000110000110100000000100st95
v 341.589233 -150.838104 62.735054
v 335.672363 -161.076401 62.735054
v 335.017456 -159.196594 62.735054
v 342.579071 -166.303101 62.735054
v 335.036224 -162.271698 62.735054
v 326.405731 -143.797806 62.735054
v 321.919312 -152.187607 62.735054
v 339.911530 -151.024094 62.735054
v 343.249817 -147.721298 62.735054
v 349.907623 -152.595703 62.735054
v 342.280792 -145.689697 62.735054
v 341.652863 -146.862793 62.735054
v 338.563416 -134.508499 62.735054
v 329.811401 -139.028702 62.735054
v 342.290649 -131.989395 62.735054
v 333.628296 -131.867905 62.735054
v 340.438934 -131.000595 62.735054
v 343.026001 -130.615295 62.735054
v 365.328613 -127.003593 62.735054
v 340.846313 -111.544792 62.735054
v 333.402191 -125.475594 62.735054
v 366.320221 -125.160294 62.735054
v 351.258240 -153.323807 62.735054
v 342.579071 -166.303101 108.935059
v 335.672363 -161.076401 108.935059
v 335.036224 -162.271698 108.935059
v 341.589233 -150.838104 108.935059
v 349.907623 -152.595703 108.935059
v 351.258240 -153.323807 108.935059
v 365.328613 -127.003593 108.935059
v 342.290649 -131.989395 108.935059
v 342.280792 -145.689697 108.935059
v 343.249817 -147.721298 108.935059
v 366.320221 -125.160294 108.935059
v 340.846313 -111.544792 108.935059
v 343.026001 -130.615295 108.935059
v 333.402191 -125.475594 108.935059
v 338.563416 -134.508499 108.935059
v 340.438934 -131.000595 108.935059
v 333.628296 -131.867905 108.935059
v 329.811401 -139.028702 108.935059
v 341.652863 -146.862793 108.935059
v 339.911530 -151.024094 108.935059
v 335.017456 -159.196594 108.935059
v 326.405731 -143.797806 108.935059
v 321.919312 -152.187607 108.935059
vt 0.244900 0.184030
vt 0.265420 0.171870
vt 0.262200 0.170590
vt 0.272730 0.185660
vt 0.267790 0.170550
vt 0.236920 0.153590
vt 0.253610 0.144350
vt 0.245770 0.180650
vt 0.238700 0.187450
vt 0.245460 0.200760
vt 0.235310 0.185550
vt 0.237650 0.184250
vt 0.216150 0.178310
vt 0.227160 0.160570
vt 0.210380 0.185890
vt 0.212910 0.168430
vt 0.209170 0.182180
vt 0.207650 0.187400
vt 0.193980 0.232440
vt 0.173630 0.183450
vt 0.201350 0.168120
vt 0.190310 0.234480
vt 0.246350 0.203460
vt 0.272730 0.185660
vt 0.265420 0.171870
vt 0.267790 0.170550
vt 0.244900 0.184030
vt 0.245460 0.200760
vt 0.246350 0.203460
vt 0.193980 0.232440
vt 0.210380 0.185890
vt 0.235310 0.185550
vt 0.238700 0.187450
vt 0.190310 0.234480
vt 0.173630 0.183450
vt 0.207650 0.187400
vt 0.201350 0.168120
vt 0.216150 0.178310
vt 0.209170 0.182180
vt 0.212910 0.168430
vt 0.227160 0.160570
vt 0.237650 0.184250
vt 0.245770 0.180650
vt 0.262200 0.170590
vt 0.236920 0.153590
vt 0.253610 0.144350
vn 0.0000 0.0000 -1.0000
vn 0.0000 0.0000 1.0000
s off
f 1/1/1 2/2/1 3/3/1
f 4/4/1 2/2/1 1/1/1
f 2/2/1 4/4/1 5/5/1
f 6/6/1 3/3/1 7/7/1
f 8/8/1 3/3/1 6/6/1
f 1/1/1 3/3/1 8/8/1
f 9/9/1 10/10/1 1/1/1
f 10/10/1 4/4/1 1/1/1
f 11/11/1 9/9/1 12/12/1
f 9/9/1 11/11/1 10/10/1
f 13/13/1 11/11/1 14/14/1
f 13/13/1 15/15/1 11/11/1
f 10/10/1 11/11/1 15/15/1
f 16/16/1 13/13/1 14/14/1
f 13/13/1 17/17/1 15/15/1
f 15/15/1 18/18/1 19/19/1
f 10/10/1 15/15/1 19/19/1
f 20/20/1 18/18/1 21/21/1
f 18/18/1 20/20/1 19/19/1
f 22/22/1 19/19/1 20/20/1
f 10/10/1 19/19/1 23/23/1
f 24/24/2 25/25/2 26/26/2
f 27/27/2 24/24/2 28/28/2
f 24/24/2 27/27/2 25/25/2
f 29/29/2 30/30/2 28/28/2
f 28/28/2 30/30/2 31/31/2
f 32/32/2 28/28/2 31/31/2
f 28/28/2 32/32/2 33/33/2
f 33/33/2 27/27/2 28/28/2
f 30/30/2 34/34/2 35/35/2
f 36/36/2 30/30/2 35/35/2
f 31/31/2 30/30/2 36/36/2
f 36/36/2 35/35/2 37/37/2
f 38/38/2 31/31/2 39/39/2
f 38/38/2 32/32/2 31/31/2
f 38/38/2 40/40/2 41/41/2
f 41/41/2 32/32/2 38/38/2
f 33/33/2 32/32/2 42/42/2
f 43/43/2 44/44/2 27/27/2
f 27/27/2 44/44/2 25/25/2
f 43/43/2 45/45/2 44/44/2
f 44/44/2 45/45/2 46/46/2
