# Blender v3.0.1 OBJ File: 'rockerfeller_plaza.blend'
# www.blender.org
o geometryt000010000010000110010110000110000110100000100010st9_Ba
v 698.909912 -113.126152 432.529633
v 698.909912 -113.126152 383.181091
v 709.782288 -119.080055 383.181091
v 709.782288 -119.080055 432.529633
v 709.214600 -92.799797 383.181091
v 698.733704 -111.792755 383.181091
v 698.733704 -111.792755 432.529633
v 709.214600 -92.799797 432.529633
v 716.598389 -94.846870 432.529633
v 716.904663 -94.291733 567.529663
v 716.904663 -94.291733 432.529633
v 714.210083 -99.175797 432.529633
v 713.427185 -100.594955 432.529633
v 710.047791 -106.720253 432.529633
v 706.425659 -113.285751 432.529633
v 706.425659 -113.285751 567.529663
v 706.991455 -114.302452 567.529663
v 706.991455 -114.302452 432.529633
v 710.367920 -116.151054 432.529633
v 715.409790 -118.911552 432.529633
v 724.034485 -123.633652 432.529633
v 729.217773 -126.471558 432.529633
v 739.610291 -132.161453 567.529663
v 730.362671 -127.098351 432.529633
v 739.610291 -132.161453 432.529633
v 712.908997 -86.132126 383.181091
v 709.904175 -91.552986 383.181091
v 709.904175 -91.552986 432.529633
v 712.908997 -86.132126 432.529633
v 711.456299 -119.995956 432.529633
v 711.456299 -119.995956 383.181091
v 725.051758 -127.429352 383.181091
v 725.051758 -127.429352 432.529633
v 760.220703 -111.212456 383.181091
v 714.010254 -85.912926 383.181091
v 714.010254 -85.912926 432.529633
v 760.220703 -111.212456 432.529633
v 742.270020 -107.472557 432.529633
v 750.688293 -112.081551 567.529663
v 750.688293 -112.081551 432.529633
v 718.069458 -94.222588 567.529663
v 725.037354 -98.037537 432.529633
v 718.069458 -94.222588 432.529633
v 726.506714 -128.225357 432.529633
v 726.506714 -128.225357 383.181091
v 745.531799 -138.647751 383.181091
v 745.531799 -138.647751 432.529633
v 743.469666 -127.208252 432.529633
v 740.775146 -132.092361 567.529663
v 740.775146 -132.092361 432.529633
v 745.158691 -124.146751 432.529633
v 748.971863 -117.235054 432.529633
v 751.254089 -113.098251 567.529663
v 751.254089 -113.098251 432.529633
v 746.514771 -137.992859 432.529633
v 746.514771 -137.992859 383.181091
v 754.723694 -123.055450 383.181091
v 754.723694 -123.055450 432.529633
v 755.499878 -121.640358 432.529633
v 755.499878 -121.640358 383.181091
v 760.700317 -112.121857 383.181091
v 760.700317 -112.121857 432.529633
vt 0.000000 4.000000
vt 0.000000 0.000000
vt 1.333330 0.000000
vt 1.333330 4.000000
vt 0.000000 0.000000
vt 2.333330 0.000000
vt 2.333330 4.000000
vt 0.000000 4.000000
vt 0.068200 0.000000
vt 0.000000 8.500000
vt 0.000000 0.000000
vt 0.599990 0.000000
vt 0.774320 0.000000
vt 1.526790 0.000000
vt 2.333330 0.000000
vt 2.333330 8.500000
vt 0.000000 8.500000
vt 0.000000 0.000000
vt 0.414040 0.000000
vt 1.032320 0.000000
vt 2.089960 0.000000
vt 2.725590 0.000000
vt 4.000000 8.500000
vt 2.865980 0.000000
vt 4.000000 0.000000
vt 0.000000 0.000000
vt 0.666670 0.000000
vt 0.666670 4.000000
vt 0.000000 4.000000
vt 0.000000 4.000000
vt 0.000000 0.000000
vt 1.666670 0.000000
vt 1.666670 4.000000
vt 0.000000 0.000000
vt 5.666670 0.000000
vt 5.666670 4.000000
vt 0.000000 4.000000
vt 4.000000 8.500000
vt 1.032330 0.000000
vt 3.145540 0.000000
vt 0.000000 4.000000
vt 0.000000 0.000000
vt 2.333330 0.000000
vt 2.333330 4.000000
vt 0.599990 0.000000
vt 0.000000 8.500000
vt 0.000000 0.000000
vt 2.333330 8.500000
vt 0.976070 0.000000
vt 1.825150 0.000000
vt 2.333330 0.000000
vt 0.000000 4.000000
vt 0.000000 0.000000
vt 1.833330 0.000000
vt 1.833330 4.000000
vt 0.000000 4.000000
vt 0.000000 0.000000
vt 1.166670 0.000000
vt 1.166670 4.000000
vt 0.000000 8.500000
vt 0.000000 0.000000
vt 4.000000 0.000000
vn -0.4803 -0.8771 0.0000
vn -0.8755 0.4832 0.0000
vn -0.8755 0.4831 0.0000
vn -0.8756 0.4830 0.0000
vn -0.8756 0.4831 -0.0000
vn -0.4802 -0.8771 0.0000
vn -0.8746 0.4848 0.0000
vn -0.4797 -0.8774 0.0000
vn 0.4802 0.8771 0.0000
vn -0.4805 -0.8770 0.0000
vn 0.8756 -0.4831 0.0000
vn 0.8764 -0.4816 0.0000
vn 0.8776 -0.4795 0.0000
vn 0.8756 -0.4830 0.0000
s off
f 1/1/1 2/2/1 3/3/1
f 1/1/1 3/3/1 4/4/1
f 5/5/2 6/6/2 7/7/2
f 8/8/3 5/5/3 7/7/3
f 9/9/4 10/10/4 11/11/4
f 12/12/5 10/10/5 9/9/5
f 13/13/5 10/10/5 12/12/5
f 13/13/5 14/14/5 10/10/5
f 15/15/5 16/16/5 14/14/5
f 10/10/5 14/14/5 16/16/5
f 17/17/6 18/18/6 19/19/6
f 17/17/6 19/19/6 20/20/6
f 21/21/6 17/17/6 20/20/6
f 22/22/6 23/23/6 21/21/6
f 21/21/6 23/23/6 17/17/6
f 23/23/6 22/22/6 24/24/6
f 25/25/6 23/23/6 24/24/6
f 26/26/7 27/27/7 28/28/7
f 29/29/7 26/26/7 28/28/7
f 30/30/8 31/31/8 32/32/8
f 30/30/8 32/32/8 33/33/8
f 34/34/9 35/35/9 36/36/9
f 37/37/9 34/34/9 36/36/9
f 41/38/9 38/39/9 42/40/9
f 44/41/10 45/42/10 46/43/10
f 44/41/10 46/43/10 47/44/10
f 48/45/11 49/46/11 50/47/11
f 53/48/11 49/46/11 51/49/11
f 52/50/11 54/51/11 53/48/11
f 55/52/12 56/53/12 57/54/12
f 55/52/12 57/54/12 58/55/12
f 59/56/13 60/57/13 61/58/13
f 59/56/13 61/58/13 62/59/13
s 1
f 38/39/9 39/60/9 40/61/9
f 41/38/9 39/60/9 38/39/9
f 43/62/9 41/38/9 42/40/9
f 48/45/14 51/49/14 49/46/14
f 51/49/11 52/50/11 53/48/11
