# Blender v3.0.1 OBJ File: 'rockerfeller_plaza.blend'
# www.blender.org
o geometryt000010000010000110010110000110000110100100000000st205
v 352.475555 -105.958687 888.677917
v 357.683289 -108.762688 888.677917
v 344.550842 -133.117874 888.677917
v 339.368835 -130.346878 888.677917
v 352.475555 -105.958687 895.877930
v 339.368835 -130.346878 895.877930
v 344.550842 -133.117874 895.877930
v 357.683289 -108.762688 895.877930
vt 0.162800 0.187710
vt 0.166250 0.198140
vt 0.214740 0.171100
vt 0.211340 0.160720
vt 0.162800 0.187710
vt 0.211340 0.160720
vt 0.214740 0.171100
vt 0.166250 0.198140
vn 0.0000 0.0000 -1.0000
vn -0.0000 0.0000 1.0000
s off
f 1/1/1 2/2/1 3/3/1
f 1/1/1 3/3/1 4/4/1
f 5/5/2 6/6/2 7/7/2
f 8/8/2 5/5/2 7/7/2
