# Blender v3.0.1 OBJ File: 'rockerfeller_plaza.blend'
# www.blender.org
o geometryt000010000010000110010110000110000100110010110010st89_1
v 133.768204 -261.742279 378.894287
v 133.768204 -261.742279 374.894287
v 134.071213 -261.907257 374.894287
v 134.071213 -261.907257 378.894287
v 135.411407 -262.637360 378.894287
v 135.411407 -262.637360 374.894287
v 136.470810 -263.214478 374.894287
v 136.470810 -263.214478 378.894287
v 137.811005 -263.944458 378.894287
v 137.811005 -263.944458 374.894287
v 138.870514 -264.521576 374.894287
v 138.870514 -264.521576 378.894287
v 140.210709 -265.251678 378.894287
v 140.210709 -265.251678 374.894287
v 140.513611 -265.416656 374.894287
v 140.513611 -265.416656 378.894287
v 133.917709 -261.431274 378.894287
v 133.917709 -261.431274 374.894287
v 133.768204 -261.742279 374.894287
v 133.768204 -261.742279 378.894287
v 135.876007 -257.355377 378.894287
v 135.876007 -257.355377 374.894287
v 134.578613 -260.055664 374.894287
v 134.578613 -260.055664 378.894287
v 136.686401 -255.668869 378.894287
v 136.686401 -255.668869 374.894287
v 136.537003 -255.979767 374.894287
v 136.537003 -255.979767 378.894287
v 136.988907 -255.834763 378.894287
v 136.988907 -255.834763 374.894287
v 136.686401 -255.668869 374.894287
v 136.686401 -255.668869 378.894287
v 143.376205 -259.338470 378.894287
v 143.376205 -259.338470 374.894287
v 142.341110 -258.770660 374.894287
v 142.341110 -258.770660 378.894287
v 147.087402 -261.374268 378.894287
v 147.087402 -261.374268 374.894287
v 146.052307 -260.806458 374.894287
v 146.052307 -260.806458 378.894287
v 149.460602 -262.676056 378.894287
v 149.460602 -262.676056 374.894287
v 148.425507 -262.108276 374.894287
v 148.425507 -262.108276 378.894287
v 153.171814 -264.711884 378.894287
v 153.171814 -264.711884 374.894287
v 152.136703 -264.144073 374.894287
v 152.136703 -264.144073 378.894287
v 158.826508 -267.813782 378.894287
v 158.826508 -267.813782 374.894287
v 158.524002 -267.647766 374.894287
v 158.524002 -267.647766 378.894287
v 136.827606 -272.242859 383.494293
v 136.827606 -272.242859 374.894287
v 136.949203 -272.307983 374.894287
v 137.526001 -272.616882 374.894287
v 137.526001 -272.616882 383.494293
v 142.907700 -275.498474 383.494293
v 142.907700 -275.498474 374.894287
v 142.976608 -275.535461 374.894287
v 143.334305 -275.726959 374.894287
v 143.606201 -275.872467 374.894287
v 143.606201 -275.872467 383.494293
v 137.253006 -271.409576 383.494293
v 137.253006 -271.409576 374.894287
v 137.150314 -271.598267 374.894287
v 136.806000 -272.231079 374.894287
v 136.806000 -272.231079 383.494293
v 140.513611 -265.416656 378.894287
v 140.513611 -265.416656 374.894287
v 140.512314 -265.419159 374.894287
v 140.511810 -265.420074 374.894287
v 140.447113 -265.539062 374.894287
v 140.170502 -266.047272 374.894287
v 140.170502 -266.047272 379.194305
v 140.899902 -264.706665 379.194305
v 140.555008 -265.340668 378.894287
v 141.346909 -263.885162 383.494293
v 140.899902 -264.706665 383.494293
v 141.346909 -263.885162 378.894287
v 141.338913 -263.899872 378.894287
v 142.045502 -264.260773 383.494293
v 142.045502 -264.260773 378.894287
v 141.684906 -264.066864 378.894287
v 141.348511 -263.886078 378.894287
v 141.348511 -263.886078 383.494293
v 148.118912 -267.526855 383.494293
v 148.118912 -267.526855 378.894287
v 148.053802 -267.491974 378.894287
v 147.421906 -267.152161 378.894287
v 147.421906 -267.152161 383.494293
v 143.606201 -275.872467 383.494293
v 143.606201 -275.872467 374.894287
v 143.671906 -275.750977 374.894287
v 144.047607 -275.055756 374.894287
v 144.047607 -275.055756 383.494293
v 146.950302 -269.685455 374.894287
v 147.009308 -269.576355 374.894287
v 147.266006 -269.101379 378.894287
v 146.950302 -269.685455 379.194305
v 147.264999 -269.103271 374.894287
v 147.266006 -269.101379 374.894287
v 147.274200 -269.086182 378.894287
v 148.075104 -267.604370 378.894287
v 147.676010 -268.342865 379.194305
v 148.117401 -267.526184 378.894287
v 148.117401 -267.526184 383.494293
v 147.676010 -268.342865 383.494293
v 147.267609 -269.102173 378.894287
v 147.267609 -269.102173 374.894287
v 147.570404 -269.267456 374.894287
v 147.570404 -269.267456 378.894287
v 148.910110 -269.998474 378.894287
v 148.910110 -269.998474 374.894287
v 149.751007 -270.457367 374.894287
v 149.751007 -270.457367 378.894287
v 151.090714 -271.188354 378.894287
v 151.090714 -271.188354 374.894287
v 151.931610 -271.647278 374.894287
v 151.931610 -271.647278 378.894287
v 153.271210 -272.378265 378.894287
v 153.271210 -272.378265 374.894287
v 154.112106 -272.837158 374.894287
v 154.112106 -272.837158 378.894287
v 155.451813 -273.568268 378.894287
v 155.451813 -273.568268 374.894287
v 155.754608 -273.733459 374.894287
v 155.754608 -273.733459 378.894287
v 155.754608 -273.733459 378.894287
v 155.754608 -273.733459 374.894287
v 155.913513 -273.427277 374.894287
v 155.913513 -273.427277 378.894287
v 156.616501 -272.072662 378.894287
v 156.616501 -272.072662 374.894287
v 157.964600 -269.474579 374.894287
v 157.964600 -269.474579 378.894287
v 158.667603 -268.119965 378.894287
v 158.667603 -268.119965 374.894287
v 158.826508 -267.813782 374.894287
v 158.826508 -267.813782 378.894287
vt 0.000000 1.575420
vt 0.000000 0.000000
vt 0.138000 0.000000
vt 0.138000 1.575420
vt 0.748460 1.575420
vt 0.748460 0.000000
vt 1.231020 0.000000
vt 1.231020 1.575420
vt 1.841480 1.575420
vt 1.841480 0.000000
vt 2.324050 0.000000
vt 2.324050 1.575420
vt 2.934510 1.575420
vt 2.934510 0.000000
vt 3.072510 0.000000
vt 3.072510 1.575420
vt 2.557230 1.575420
vt 2.557230 0.000000
vt 2.695230 0.000000
vt 2.695230 1.575420
vt 0.748460 1.575420
vt 0.748460 0.000000
vt 1.946770 0.000000
vt 1.946770 1.575420
vt 0.000000 1.575420
vt 0.000000 0.000000
vt 0.138000 0.000000
vt 0.138000 1.575420
vt 9.962961 1.575420
vt 9.962961 0.000000
vt 10.100960 0.000000
vt 10.100960 1.575420
vt 7.048870 1.575420
vt 7.048870 0.000000
vt 7.521120 0.000000
vt 7.521120 1.575420
vt 5.355710 1.575420
vt 5.355710 0.000000
vt 5.827950 0.000000
vt 5.827950 1.575420
vt 4.273010 1.575420
vt 4.273010 0.000000
vt 4.745250 0.000000
vt 4.745250 1.575420
vt 2.579840 1.575420
vt 2.579840 0.000000
vt 3.052080 0.000000
vt 3.052080 1.575420
vt 0.000000 1.575420
vt 0.000000 0.000000
vt 0.138000 0.000000
vt 0.138000 1.575420
vt 0.000000 3.387160
vt 0.000000 0.000000
vt 0.055220 0.000000
vt 0.316930 0.000000
vt 0.316930 3.387160
vt 2.758770 3.387160
vt 2.790050 0.000000
vt 2.952350 0.000000
vt 3.075700 0.000000
vt 3.075700 3.387160
vt 3.426410 3.387160
vt 3.426410 0.000000
vt 3.512330 0.000000
vt 3.800520 0.000000
vt 3.800520 3.387160
vt 0.697430 1.575420
vt 0.698980 0.000000
vt 0.753130 0.000000
vt 0.984570 0.000000
vt 0.984570 1.693580
vt 0.374110 1.693580
vt 0.662780 1.575420
vt 0.000000 3.387160
vt 0.374110 3.387160
vt 0.000000 1.575420
vt 0.006700 1.575420
vt 2.922140 0.000000
vt 3.074890 0.000000
vt 3.074890 1.811740
vt 2.758360 1.811740
vt 0.029530 0.000000
vt 0.316520 0.000000
vt 0.316520 1.811740
vt 0.000000 1.811740
vt 0.000000 3.387160
vt 0.000000 0.000000
vt 0.055270 0.000000
vt 0.371360 0.000000
vt 0.371360 3.387160
vt 2.813200 0.000000
vt 2.862800 0.000000
vt 3.078780 1.575420
vt 2.813200 1.693580
vt 3.085660 1.575420
vt 3.759430 1.575420
vt 3.423660 1.693580
vt 3.795010 1.575420
vt 3.795010 3.387160
vt 3.423660 3.387160
vt 0.000000 1.575420
vt 0.000000 0.000000
vt 0.138000 0.000000
vt 0.138000 1.575420
vt 0.748460 1.575420
vt 0.748460 0.000000
vt 1.131640 0.000000
vt 1.131640 1.575420
vt 2.735740 1.575420
vt 2.735740 0.000000
vt 3.118920 0.000000
vt 3.118920 1.575420
vt 3.729380 1.575420
vt 3.729380 0.000000
vt 3.867380 0.000000
vt 3.867380 1.575420
vt 0.000000 1.575420
vt 0.000000 0.000000
vt 0.138000 0.000000
vt 0.138000 1.575420
vt 0.748460 1.575420
vt 0.748460 0.000000
vt 1.919260 0.000000
vt 1.919260 1.575420
vt 2.529720 1.575420
vt 2.529720 0.000000
vt 2.667720 0.000000
vt 2.667720 1.575420
vt 2.758770 0.000000
vt 0.697430 0.000000
vt 0.698540 0.000000
vt 2.758360 0.000000
vt 0.000000 0.000000
vt 3.077900 0.000000
vt 3.078780 0.000000
vt 1.742100 1.575420
vt 1.742100 0.000000
vt 2.125280 0.000000
vt 2.125280 1.575420
vn -0.4782 -0.8783 0.0000
vn -0.4784 -0.8781 0.0000
vn -0.4784 -0.8782 0.0000
vn -0.4783 -0.8782 0.0000
vn -0.9013 0.4333 0.0000
vn -0.9014 0.4331 0.0000
vn -0.9013 0.4332 0.0000
vn 0.4808 0.8768 0.0000
vn 0.4809 0.8768 0.0000
vn 0.4809 0.8767 0.0000
vn 0.4811 0.8766 0.0000
vn 0.4811 0.8767 0.0000
vn -0.4722 -0.8815 0.0000
vn -0.4721 -0.8815 0.0000
vn -0.4720 -0.8816 0.0000
vn -0.4718 -0.8817 0.0000
vn -0.8783 0.4781 0.0000
vn -0.8784 0.4779 0.0000
vn -0.8784 0.4780 0.0000
vn -0.8785 0.4777 -0.0000
vn -0.8784 0.4779 0.0001
vn -0.8784 0.4780 -0.0001
vn 0.4734 0.8808 0.0000
vn 0.4739 0.8806 -0.0000
vn 0.4736 0.8807 0.0000
vn 0.4735 0.8808 -0.0000
vn 0.8797 -0.4755 0.0000
vn 0.8798 -0.4754 0.0000
vn 0.8796 -0.4758 0.0001
vn 0.8797 -0.4755 -0.0002
vn 0.8797 -0.4755 -0.0001
vn 0.8797 -0.4754 0.0000
vn -0.4787 -0.8780 0.0000
vn -0.4791 -0.8777 0.0000
vn -0.4790 -0.8778 0.0000
vn -0.4793 -0.8776 -0.0000
vn -0.4789 -0.8779 0.0000
vn 0.8876 -0.4606 0.0000
vn -0.4724 -0.8814 0.0000
vn -0.8779 0.4788 0.0000
vn -0.8807 0.4737 0.0000
vn -0.8765 0.4814 -0.0000
vn -0.8722 0.4891 0.0000
vn -0.8781 0.4784 -0.0005
vn -0.8812 0.4728 -0.0060
vn -0.8812 0.4727 -0.0060
vn 0.4738 0.8806 0.0000
vn 0.8810 -0.4731 0.0000
vn 0.8800 -0.4750 0.0009
vn -0.4791 -0.8778 0.0000
s off
f 1/1/1 2/2/1 3/3/1
f 1/1/1 3/3/1 4/4/1
f 5/5/2 6/6/2 7/7/2
f 5/5/3 7/7/3 8/8/3
f 9/9/4 10/10/4 11/11/4
f 9/9/4 11/11/4 12/12/4
f 13/13/4 14/14/4 15/15/4
f 13/13/4 15/15/4 16/16/4
f 17/17/5 18/18/5 19/19/5
f 17/17/5 19/19/5 20/20/5
f 21/21/6 22/22/6 23/23/6
f 21/21/6 23/23/6 24/24/6
f 25/25/7 26/26/7 27/27/7
f 25/25/6 27/27/6 28/28/6
f 29/29/8 30/30/8 31/31/8
f 29/29/9 31/31/9 32/32/9
f 33/33/10 34/34/10 35/35/10
f 33/33/10 35/35/10 36/36/10
f 37/37/10 38/38/10 39/39/10
f 37/37/10 39/39/10 40/40/10
f 41/41/9 42/42/9 43/43/9
f 41/41/9 43/43/9 44/44/9
f 45/45/10 46/46/10 47/47/10
f 45/45/9 47/47/9 48/48/9
f 49/49/11 50/50/11 51/51/11
f 49/49/12 51/51/12 52/52/12
f 53/53/13 54/54/13 55/55/13
f 55/55/14 56/56/14 57/57/14
f 53/53/14 55/55/14 57/57/14
f 58/58/15 60/59/15 61/60/15
f 61/60/16 62/61/16 63/62/16
f 58/58/15 61/60/15 63/62/15
f 64/63/17 65/64/17 66/65/17
f 66/65/18 67/66/18 68/67/18
f 64/63/19 66/65/19 68/67/19
f 69/68/20 72/69/20 73/70/20
f 69/68/17 73/70/17 74/71/17
f 69/68/18 74/71/18 75/72/18
f 76/73/21 77/74/21 75/72/21
f 78/75/19 76/73/19 79/76/19
f 78/75/18 80/77/18 76/73/18
f 76/73/22 81/78/22 77/74/22
f 84/79/23 85/80/23 86/81/23
f 82/82/24 84/79/24 86/81/24
f 89/83/25 90/84/25 91/85/25
f 87/86/26 89/83/26 91/85/26
f 92/87/27 93/88/27 94/89/27
f 94/89/28 95/90/28 96/91/28
f 92/87/27 94/89/27 96/91/27
f 97/92/29 98/93/29 99/94/29
f 100/95/27 97/92/27 99/94/27
f 103/96/30 104/97/30 105/98/30
f 103/96/31 105/98/31 100/95/31
f 106/99/27 107/100/27 105/98/27
f 105/98/32 107/100/32 108/101/32
f 109/102/33 110/103/33 111/104/33
f 109/102/34 111/104/34 112/105/34
f 113/106/35 114/107/35 115/108/35
f 113/106/35 115/108/35 116/109/35
f 121/110/35 122/111/35 123/112/35
f 121/110/35 123/112/35 124/113/35
f 125/114/36 126/115/36 127/116/36
f 125/114/37 127/116/37 128/117/37
f 129/118/38 130/119/38 131/120/38
f 129/118/38 131/120/38 132/121/38
f 133/122/38 134/123/38 135/124/38
f 133/122/38 135/124/38 136/125/38
f 137/126/38 138/127/38 139/128/38
f 137/126/38 139/128/38 140/129/38
s 1
f 58/58/39 59/130/39 60/59/39
f 69/68/40 70/131/41 71/132/42
f 69/68/40 71/132/42 72/69/43
f 77/74/44 69/68/44 75/72/44
f 80/77/45 81/78/46 76/73/46
f 82/82/25 83/133/25 84/79/25
f 87/86/47 88/134/47 89/83/47
f 98/93/27 101/135/27 99/94/28
f 101/135/27 102/136/27 99/94/28
f 103/96/48 100/95/48 99/94/48
f 105/98/49 104/97/49 106/99/49
f 117/137/50 118/138/35 119/139/50
f 117/137/50 119/139/50 120/140/50
