# Blender v3.0.1 OBJ File: 'rockerfeller_plaza.blend'
# www.blender.org
o geometryt000010000010000110010110000110000110100100010010st48
v 1047.859741 -293.174988 1012.938232
v 1047.111938 -294.569672 1012.938232
v 1047.111938 -294.569672 1030.146362
v 1047.859741 -293.174988 1030.146362
v 1049.654785 -289.826965 1030.146362
v 1049.654785 -289.826965 1012.938232
v 1048.159302 -292.616272 1012.938232
v 1048.159302 -292.616272 1030.146362
v 1052.197632 -285.084167 1030.146362
v 1052.197632 -285.084167 1012.938232
v 1049.954346 -289.268280 1012.938232
v 1049.954346 -289.268280 1030.146362
v 1053.244995 -283.130768 1012.938232
v 1052.497192 -284.525482 1012.938232
v 1052.497192 -284.525482 1030.146362
v 1053.244995 -283.130768 1030.146362
v 1054.292236 -281.177368 1030.146362
v 1054.292236 -281.177368 1012.938232
v 1053.544556 -282.572083 1012.938232
v 1053.544556 -282.572083 1030.146362
v 1055.339600 -279.223969 1030.146362
v 1055.339600 -279.223969 1012.938232
v 1054.591797 -280.618683 1012.938232
v 1054.591797 -280.618683 1030.146362
v 1057.882446 -274.481293 1012.938232
v 1055.639160 -278.665283 1012.938232
v 1055.639160 -278.665283 1030.146362
v 1057.882446 -274.481293 1030.146362
v 1059.677490 -271.133179 1012.938232
v 1058.182007 -273.922577 1012.938232
v 1058.182007 -273.922577 1030.146362
v 1059.677490 -271.133179 1030.146362
v 1060.724854 -269.179779 1012.938232
v 1059.977051 -270.574463 1012.938232
v 1059.977051 -270.574463 1030.146362
v 1060.724854 -269.179779 1030.146362
v 1047.809082 -295.333588 1012.938232
v 1050.600220 -296.825867 1012.938232
v 1050.600220 -296.825867 1030.146362
v 1047.809082 -295.333588 1030.146362
v 1051.623291 -296.981689 1012.938232
v 1052.371338 -295.587067 1012.938232
v 1052.371338 -295.587067 1030.146362
v 1051.623291 -296.981689 1030.146362
v 1052.670410 -295.029572 1030.146362
v 1052.670410 -295.029572 1012.938232
v 1054.166504 -292.240479 1012.938232
v 1054.166504 -292.240479 1030.146362
v 1054.465576 -291.682892 1012.938232
v 1056.709595 -287.499176 1012.938232
v 1056.709595 -287.499176 1030.146362
v 1054.465576 -291.682892 1030.146362
v 1057.008667 -286.941681 1012.938232
v 1057.756714 -285.547089 1012.938232
v 1057.756714 -285.547089 1030.146362
v 1057.008667 -286.941681 1030.146362
v 1058.055786 -284.989471 1030.146362
v 1058.055786 -284.989471 1012.938232
v 1058.803833 -283.594971 1012.938232
v 1058.803833 -283.594971 1030.146362
v 1059.102905 -283.037384 1030.146362
v 1059.102905 -283.037384 1012.938232
v 1059.850830 -281.642883 1012.938232
v 1059.850830 -281.642883 1030.146362
v 1060.149902 -281.085266 1012.938232
v 1062.394043 -276.901581 1012.938232
v 1062.394043 -276.901581 1030.146362
v 1060.149902 -281.085266 1030.146362
v 1062.693115 -276.344086 1012.938232
v 1064.189087 -273.554993 1012.938232
v 1064.189087 -273.554993 1030.146362
v 1062.693115 -276.344086 1030.146362
v 1064.488159 -272.997375 1012.938232
v 1065.236206 -271.602783 1012.938232
v 1065.236206 -271.602783 1030.146362
v 1064.488159 -272.997375 1030.146362
v 1064.537720 -270.836090 1012.938232
v 1061.749390 -269.338470 1012.938232
v 1061.749390 -269.338470 1030.146362
v 1064.537720 -270.836090 1030.146362
vt 0.000000 0.000000
vt 0.250000 0.000000
vt 0.250000 1.250000
vt 0.000000 1.250000
vt 0.000000 1.250000
vt 0.000000 0.000000
vt 0.500000 0.000000
vt 0.500000 1.250000
vt 0.000000 1.250000
vt 0.000000 0.000000
vt 0.750000 0.000000
vt 0.750000 1.250000
vt 0.000000 0.000000
vt 0.250000 0.000000
vt 0.250000 1.250000
vt 0.000000 1.250000
vt 0.000000 1.250000
vt 0.000000 0.000000
vt 0.250000 0.000000
vt 0.250000 1.250000
vt 0.000000 1.250000
vt 0.000000 0.000000
vt 0.250000 0.000000
vt 0.250000 1.250000
vt 0.000000 0.000000
vt 0.750000 0.000000
vt 0.750000 1.250000
vt 0.000000 1.250000
vt 0.000000 0.000000
vt 0.500000 0.000000
vt 0.500000 1.250000
vt 0.000000 1.250000
vt 0.000000 0.000000
vt 0.250000 0.000000
vt 0.250000 1.250000
vt 0.000000 1.250000
vt 0.000000 0.000000
vt 0.500000 0.000000
vt 0.500000 1.250000
vt 0.000000 1.250000
vt 0.000000 0.000000
vt 0.250000 0.000000
vt 0.250000 1.250000
vt 0.000000 1.250000
vt 0.000000 1.250000
vt 0.000000 0.000000
vt 0.500000 0.000000
vt 0.500000 1.250000
vt 0.000000 0.000000
vt 0.750000 0.000000
vt 0.750000 1.250000
vt 0.000000 1.250000
vt 0.000000 0.000000
vt 0.250000 0.000000
vt 0.250000 1.250000
vt 0.000000 1.250000
vt 0.000000 1.250000
vt 0.000000 0.000000
vt 0.250000 0.000000
vt 0.250000 1.250000
vt 0.000000 0.000000
vt 0.750000 0.000000
vt 0.750000 1.250000
vt 0.000000 1.250000
vt 0.000000 0.000000
vt 0.500000 0.000000
vt 0.500000 1.250000
vt 0.000000 1.250000
vt 0.000000 0.000000
vt 0.250000 0.000000
vt 0.250000 1.250000
vt 0.000000 1.250000
vt 0.000000 0.000000
vt 0.500000 0.000000
vt 0.500000 1.250000
vt 0.000000 1.250000
vt 0.000000 1.250000
vt 0.000000 0.000000
vt 0.250000 0.000000
vt 0.250000 1.250000
vn -0.8813 0.4725 0.0000
vn -0.8813 0.4726 0.0000
vn -0.8814 0.4724 0.0000
vn -0.4715 -0.8819 0.0000
vn 0.8813 -0.4726 0.0000
vn 0.8812 -0.4727 0.0000
vn 0.8812 -0.4728 0.0000
vn 0.4732 0.8810 0.0000
s off
f 1/1/1 2/2/1 3/3/1
f 4/4/2 1/1/2 3/3/2
f 5/5/1 6/6/1 7/7/1
f 5/5/1 7/7/1 8/8/1
f 9/9/1 10/10/1 11/11/1
f 9/9/1 11/11/1 12/12/1
f 13/13/2 14/14/2 15/15/2
f 16/16/1 13/13/1 15/15/1
f 17/17/1 18/18/1 19/19/1
f 17/17/1 19/19/1 20/20/1
f 21/21/2 22/22/2 23/23/2
f 21/21/1 23/23/1 24/24/1
f 25/25/1 26/26/1 27/27/1
f 28/28/1 25/25/1 27/27/1
f 29/29/3 30/30/3 31/31/3
f 32/32/2 29/29/2 31/31/2
f 33/33/1 34/34/1 35/35/1
f 36/36/2 33/33/2 35/35/2
f 37/37/4 38/38/4 39/39/4
f 40/40/4 37/37/4 39/39/4
f 41/41/5 42/42/5 43/43/5
f 44/44/5 41/41/5 43/43/5
f 45/45/6 46/46/6 47/47/6
f 45/45/6 47/47/6 48/48/6
f 49/49/5 50/50/5 51/51/5
f 52/52/6 49/49/6 51/51/6
f 53/53/7 54/54/7 55/55/7
f 56/56/5 53/53/5 55/55/5
f 61/57/6 62/58/6 63/59/6
f 61/57/6 63/59/6 64/60/6
f 65/61/6 66/62/6 67/63/6
f 68/64/6 65/61/6 67/63/6
f 69/65/5 70/66/5 71/67/5
f 72/68/6 69/65/6 71/67/6
f 73/69/5 74/70/5 75/71/5
f 76/72/7 73/69/7 75/71/7
f 77/73/8 78/74/8 79/75/8
f 80/76/8 77/73/8 79/75/8
s 1
f 57/77/6 58/78/6 59/79/6
f 57/77/6 59/79/6 60/80/6
