# Blender v3.0.1 OBJ File: 'rockerfeller_plaza.blend'
# www.blender.org
o geometryt000010000010000110010110000110000110100000010100st20
v 930.009521 -143.160187 146.917526
v 937.339355 -129.640778 146.917526
v 970.675415 -147.714279 146.917526
v 963.329224 -161.267288 146.917526
v 930.009521 -143.160187 197.817535
v 963.329224 -161.267288 197.817535
v 970.675415 -147.714279 197.817535
v 937.339355 -129.640778 197.817535
vt 0.201900 0.368240
vt 0.174960 0.383330
vt 0.197250 0.450100
vt 0.224250 0.434970
vt 0.201900 0.368240
vt 0.224250 0.434970
vt 0.197250 0.450100
vt 0.174960 0.383330
vn 0.0000 0.0000 -1.0000
vn -0.0000 0.0000 1.0000
s off
f 1/1/1 2/2/1 3/3/1
f 1/1/1 3/3/1 4/4/1
f 5/5/2 6/6/2 7/7/2
f 8/8/2 5/5/2 7/7/2
