# Blender v3.0.1 OBJ File: 'rockerfeller_plaza.blend'
# www.blender.org
o geometryt000010000010000110010110000110000100110010010110st125_
v 232.382095 -71.936119 21.331961
v 235.413696 -66.205528 21.331961
v 239.847702 -75.868607 21.331961
v 242.887497 -70.126831 21.331961
v 247.151703 -79.703049 21.331961
v 250.191696 -73.972359 21.331961
v 245.417007 -50.213379 21.331961
v 244.296005 -49.626862 21.331961
v 251.677002 -53.549210 21.331961
v 257.784393 -77.958870 21.331961
v 261.238190 -71.512840 21.331961
v 258.972595 -57.394840 21.331961
v 264.072205 -66.217522 21.331961
v 266.617096 -61.469559 21.331961
v 257.478302 -78.495331 21.331961
v 254.744598 -83.700661 21.331961
v 235.413696 -66.205528 78.331963
v 232.382095 -71.936119 78.331963
v 239.847702 -75.868607 78.331963
v 241.044205 -73.608551 78.331963
v 239.945694 -68.583344 78.331963
v 242.887497 -70.126831 78.331963
v 257.784393 -77.958870 115.332001
v 261.238190 -71.512840 115.332001
v 250.191696 -73.972359 115.332001
v 257.104309 -60.921970 115.332001
v 258.128296 -58.988831 115.332001
v 258.972595 -57.394840 115.332001
v 264.072205 -66.217522 115.332001
v 266.617096 -61.469559 115.332001
v 244.296005 -49.626862 115.332001
v 235.413696 -66.205528 115.332001
v 245.417007 -50.213379 115.332001
v 242.887497 -70.126831 115.332001
v 243.732697 -68.532822 115.332001
v 251.677002 -53.549210 115.332001
v 239.847702 -75.868607 115.332001
v 247.151703 -79.703049 115.332001
v 249.489304 -73.602600 115.332001
v 251.677002 -53.549210 125.332001
v 242.887497 -70.126831 125.332001
v 250.191696 -73.972359 125.332001
v 258.972595 -57.394840 125.332001
v 257.478302 -78.495331 78.331963
v 248.995102 -76.228058 78.331963
v 247.151703 -79.703049 78.331963
v 254.744598 -83.700661 78.331963
v 250.191696 -73.972359 78.331963
v 254.795807 -76.389709 78.331963
v 257.784393 -77.958870 78.331963
vt 0.057010 0.466760
vt 0.045620 0.473000
vt 0.061790 0.481710
vt 0.050380 0.487980
vt 0.066450 0.496350
vt 0.055050 0.502610
vt 0.013330 0.493540
vt 0.012620 0.491290
vt 0.017410 0.506080
vt 0.059890 0.517820
vt 0.047060 0.524930
vt 0.022090 0.520700
vt 0.036520 0.530770
vt 0.027080 0.536010
vt 0.060960 0.517190
vt 0.071310 0.511560
vt 0.045620 0.473000
vt 0.057010 0.466760
vt 0.061790 0.481710
vt 0.057300 0.484180
vt 0.048500 0.482080
vt 0.050380 0.487980
vt 0.059890 0.517820
vt 0.047060 0.524930
vt 0.055050 0.502610
vt 0.029100 0.516850
vt 0.025260 0.518960
vt 0.022090 0.520700
vt 0.036520 0.530770
vt 0.027080 0.536010
vt 0.012620 0.491290
vt 0.045620 0.473000
vt 0.013330 0.493540
vt 0.050380 0.487980
vt 0.047210 0.489720
vt 0.017410 0.506080
vt 0.061790 0.481710
vt 0.066450 0.496350
vt 0.054600 0.501200
vt 0.017410 0.506080
vt 0.050380 0.487980
vt 0.055050 0.502610
vt 0.022090 0.520700
vt 0.060960 0.517190
vt 0.059540 0.500140
vt 0.066450 0.496350
vt 0.071310 0.511560
vt 0.055050 0.502610
vt 0.057990 0.511830
vt 0.059890 0.517820
vn 0.0000 0.0000 -1.0000
vn -0.0000 0.0000 1.0000
s off
f 1/1/1 2/2/1 3/3/1
f 2/2/1 4/4/1 3/3/1
f 3/3/1 4/4/1 5/5/1
f 4/4/1 6/6/1 5/5/1
f 4/4/1 2/2/1 7/7/1
f 2/2/1 8/8/1 7/7/1
f 4/4/1 7/7/1 9/9/1
f 10/10/1 6/6/1 11/11/1
f 6/6/1 12/12/1 11/11/1
f 11/11/1 12/12/1 13/13/1
f 12/12/1 14/14/1 13/13/1
f 9/9/1 6/6/1 4/4/1
f 9/9/1 12/12/1 6/6/1
f 15/15/1 5/5/1 6/6/1
f 16/16/1 5/5/1 15/15/1
f 6/6/1 10/10/1 15/15/1
f 17/17/2 18/18/2 19/19/2
f 17/17/2 19/19/2 20/20/2
f 17/17/2 20/20/2 21/21/2
f 21/21/2 20/20/2 22/22/2
f 23/23/2 24/24/2 25/25/2
f 24/24/2 26/26/2 25/25/2
f 24/24/2 27/27/2 26/26/2
f 24/24/2 28/28/2 27/27/2
f 29/29/2 28/28/2 24/24/2
f 30/30/2 28/28/2 29/29/2
f 31/31/2 32/32/2 33/33/2
f 32/32/2 34/34/2 33/33/2
f 34/34/2 35/35/2 33/33/2
f 35/35/2 36/36/2 33/33/2
f 34/34/2 37/37/2 38/38/2
f 34/34/2 38/38/2 39/39/2
f 25/25/2 39/39/2 38/38/2
f 40/40/2 41/41/2 42/42/2
f 43/43/2 40/40/2 42/42/2
f 44/44/2 45/45/2 46/46/2
f 46/46/2 47/47/2 44/44/2
f 44/44/2 48/48/2 45/45/2
f 49/49/2 48/48/2 44/44/2
f 50/50/2 49/49/2 44/44/2
