# Blender v3.0.1 OBJ File: 'rockerfeller_plaza.blend'
# www.blender.org
o geometryt000010000010000110010110000110000100110010110010st9
v 182.959900 -172.253876 292.868225
v 185.924713 -173.830872 292.868225
v 185.924713 -173.830872 304.411255
v 182.959900 -172.253876 304.411255
v 186.713913 -174.250671 292.868225
v 188.196304 -175.039169 292.868225
v 188.196304 -175.039169 304.411255
v 186.713913 -174.250671 304.411255
v 188.985611 -175.458969 292.868225
v 191.950409 -177.035965 292.868225
v 191.950409 -177.035965 304.411255
v 188.985611 -175.458969 304.411255
v 192.739700 -177.455765 304.411255
v 192.739700 -177.455765 292.868225
v 197.186905 -179.821167 292.868225
v 197.186905 -179.821167 304.411255
v 197.976105 -180.240967 292.868225
v 200.940903 -181.817963 292.868225
v 200.940903 -181.817963 304.411255
v 197.976105 -180.240967 304.411255
v 201.730209 -182.237762 304.411255
v 201.730209 -182.237762 292.868225
v 203.212601 -183.026169 292.868225
v 203.212601 -183.026169 304.411255
v 204.001907 -183.446075 304.411255
v 204.001907 -183.446075 292.868225
v 206.966614 -185.022964 292.868225
v 206.966614 -185.022964 304.411255
v 184.393509 -168.822067 304.411255
v 184.393509 -168.822067 292.868225
v 182.817200 -171.787262 292.868225
v 182.817200 -171.787262 304.411255
v 185.447205 -166.839966 292.868225
v 184.659103 -168.322571 292.868225
v 184.659103 -168.322571 304.411255
v 185.447205 -166.839966 304.411255
v 186.500900 -164.857773 292.868225
v 185.712708 -166.340363 292.868225
v 185.712708 -166.340363 304.411255
v 186.500900 -164.857773 304.411255
v 188.342712 -161.393066 304.411255
v 188.342712 -161.393066 292.868225
v 186.766403 -164.358276 292.868225
v 186.766403 -164.358276 304.411255
v 190.292908 -162.036469 292.868225
v 188.809509 -161.250076 292.868225
v 188.809509 -161.250076 304.411255
v 190.292908 -162.036469 304.411255
v 193.262207 -163.610474 292.868225
v 191.778702 -162.824066 292.868225
v 191.778702 -162.824066 304.411255
v 193.262207 -163.610474 304.411255
v 196.835800 -165.512177 292.868225
v 193.871506 -163.934174 292.868225
v 193.871506 -163.934174 304.411255
v 196.835800 -165.512177 304.411255
v 199.348709 -166.849976 304.411255
v 199.348709 -166.849976 292.868225
v 197.866608 -166.060974 292.868225
v 197.866608 -166.060974 304.411255
v 206.308014 -170.554871 292.868225
v 200.379608 -167.398773 292.868225
v 200.379608 -167.398773 304.411255
v 206.308014 -170.554871 304.411255
v 208.820908 -171.892563 292.868225
v 207.338806 -171.103577 292.868225
v 207.338806 -171.103577 304.411255
v 208.820908 -171.892563 304.411255
v 212.816010 -174.019363 304.411255
v 212.816010 -174.019363 292.868225
v 209.851807 -172.441376 292.868225
v 209.851807 -172.441376 304.411255
v 207.433212 -184.880371 292.868225
v 209.009399 -181.915176 292.868225
v 209.009399 -181.915176 304.411255
v 207.433212 -184.880371 304.411255
v 209.275009 -181.415665 292.868225
v 210.063110 -179.933075 292.868225
v 210.063110 -179.933075 304.411255
v 209.275009 -181.415665 304.411255
v 210.328705 -179.433472 304.411255
v 210.328705 -179.433472 292.868225
v 211.116806 -177.950867 292.868225
v 211.116806 -177.950867 304.411255
v 211.382401 -177.451263 304.411255
v 211.382401 -177.451263 292.868225
v 212.958603 -174.486176 292.868225
v 212.958603 -174.486176 304.411255
vt 0.000000 0.000000
vt 0.666670 0.000000
vt 0.666670 3.000000
vt 0.000000 3.000000
vt 0.000000 0.000000
vt 0.666670 0.000000
vt 0.666670 3.000000
vt 0.000000 3.000000
vt 0.000000 3.000000
vt 0.000000 0.000000
vt 1.000000 0.000000
vt 1.000000 3.000000
vt 0.000000 0.000000
vt 0.666670 0.000000
vt 0.666670 3.000000
vt 0.000000 3.000000
vt 0.000000 3.000000
vt 0.000000 0.000000
vt 0.333330 0.000000
vt 0.333330 3.000000
vt 0.000000 3.000000
vt 0.000000 0.000000
vt 0.666670 0.000000
vt 0.666670 3.000000
vt 0.000000 3.000000
vt 0.000000 0.000000
vt 0.666670 0.000000
vt 0.666670 3.000000
vt 0.000000 0.000000
vt 0.333330 0.000000
vt 0.333330 3.000000
vt 0.000000 3.000000
vt 0.000000 0.000000
vt 0.333330 0.000000
vt 0.333330 3.000000
vt 0.000000 3.000000
vt 0.000000 3.000000
vt 0.000000 0.000000
vt 0.666670 0.000000
vt 0.666670 3.000000
vt 0.000000 0.000000
vt 0.333330 0.000000
vt 0.333330 3.000000
vt 0.000000 3.000000
vt 0.000000 0.000000
vt 0.333330 0.000000
vt 0.333330 3.000000
vt 0.000000 3.000000
vt 0.000000 0.000000
vt 0.666670 0.000000
vt 0.666670 3.000000
vt 0.000000 3.000000
vt 0.000000 3.000000
vt 0.000000 0.000000
vt 0.333330 0.000000
vt 0.333330 3.000000
vt 0.000000 0.000000
vt 1.333330 0.000000
vt 1.333330 3.000000
vt 0.000000 3.000000
vt 0.000000 0.000000
vt 0.333330 0.000000
vt 0.333330 3.000000
vt 0.000000 3.000000
vt 0.000000 3.000000
vt 0.000000 0.000000
vt 0.666670 0.000000
vt 0.666670 3.000000
vt 0.000000 0.000000
vt 0.666670 0.000000
vt 0.666670 3.000000
vt 0.000000 3.000000
vt 0.000000 0.000000
vt 0.333330 0.000000
vt 0.333330 3.000000
vt 0.000000 3.000000
vt 0.000000 3.000000
vt 0.000000 0.000000
vt 0.333330 0.000000
vt 0.333330 3.000000
vt 0.000000 3.000000
vt 0.000000 0.000000
vt 0.666670 0.000000
vt 0.666670 3.000000
vt 0.000000 0.000000
vt 0.333330 0.000000
vt 0.333330 3.000000
vt 0.000000 3.000000
vn -0.4696 -0.8829 0.0000
vn -0.8830 0.4694 0.0000
vn 0.4684 0.8835 0.0000
vn 0.4699 0.8827 0.0000
vn 0.8830 -0.4694 0.0000
s off
f 1/1/1 2/2/1 3/3/1
f 4/4/1 1/1/1 3/3/1
f 9/5/1 10/6/1 11/7/1
f 12/8/1 9/5/1 11/7/1
f 13/9/1 14/10/1 15/11/1
f 13/9/1 15/11/1 16/12/1
f 17/13/1 18/14/1 19/15/1
f 20/16/1 17/13/1 19/15/1
f 21/17/1 22/18/1 23/19/1
f 21/17/1 23/19/1 24/20/1
f 25/21/1 26/22/1 27/23/1
f 25/21/1 27/23/1 28/24/1
f 29/25/2 30/26/2 31/27/2
f 29/25/2 31/27/2 32/28/2
f 33/29/2 34/30/2 35/31/2
f 36/32/2 33/29/2 35/31/2
f 37/33/2 38/34/2 39/35/2
f 40/36/2 37/33/2 39/35/2
f 41/37/2 42/38/2 43/39/2
f 41/37/2 43/39/2 44/40/2
f 45/41/3 46/42/3 47/43/3
f 48/44/3 45/41/3 47/43/3
f 49/45/3 50/46/3 51/47/3
f 52/48/3 49/45/3 51/47/3
f 53/49/4 54/50/4 55/51/4
f 56/52/4 53/49/4 55/51/4
f 57/53/4 58/54/4 59/55/4
f 57/53/4 59/55/4 60/56/4
f 61/57/4 62/58/4 63/59/4
f 64/60/4 61/57/4 63/59/4
f 65/61/4 66/62/4 67/63/4
f 68/64/4 65/61/4 67/63/4
f 69/65/4 70/66/4 71/67/4
f 69/65/4 71/67/4 72/68/4
f 73/69/5 74/70/5 75/71/5
f 76/72/5 73/69/5 75/71/5
f 77/73/5 78/74/5 79/75/5
f 80/76/5 77/73/5 79/75/5
f 81/77/5 82/78/5 83/79/5
f 81/77/5 83/79/5 84/80/5
f 85/81/5 86/82/5 87/83/5
f 85/81/5 87/83/5 88/84/5
s 1
f 5/85/1 6/86/1 7/87/1
f 8/88/1 5/85/1 7/87/1
