# Blender v3.0.1 OBJ File: 'rockerfeller_plaza.blend'
# www.blender.org
o geometryt000010000010000110010110000110000100110010110010st72
v 190.766708 -321.943573 291.331818
v 191.070114 -322.107758 344.672974
v 190.766708 -321.943573 344.672974
v 185.016708 -318.832062 291.331818
v 191.070114 -322.107758 290.772980
v 185.016708 -318.832062 344.672974
v 183.579208 -318.054169 344.672974
v 183.579208 -318.054169 291.331818
v 180.704208 -316.498383 291.331818
v 173.213303 -312.444672 290.772980
v 180.704208 -316.498383 344.672974
v 179.266708 -315.720459 344.672974
v 179.266708 -315.720459 291.331818
v 173.516708 -312.608856 291.331818
v 173.516708 -312.608856 344.672974
v 173.213303 -312.444672 344.672974
v 173.377502 -312.141266 291.331818
v 173.213303 -312.444672 344.672974
v 173.377502 -312.141266 344.672974
v 174.155701 -310.703979 291.331818
v 173.213303 -312.444672 290.772980
v 174.155701 -310.703979 344.672974
v 175.322510 -308.548981 344.672974
v 175.322510 -308.548981 291.331818
v 178.435303 -302.799683 291.331818
v 178.435303 -302.799683 344.672974
v 179.602005 -300.644562 344.672974
v 179.602005 -300.644562 291.331818
v 180.544510 -298.903870 290.772980
v 180.380203 -299.207275 291.331818
v 180.380203 -299.207275 344.672974
v 180.544510 -298.903870 344.672974
v 180.848007 -299.067963 291.331818
v 180.544510 -298.903870 344.672974
v 180.848007 -299.067963 344.672974
v 186.599503 -302.176758 291.331818
v 180.544510 -298.903870 290.772980
v 186.599503 -302.176758 344.672974
v 188.753906 -303.341278 344.672974
v 188.753906 -303.341278 291.331818
v 190.191803 -304.118469 291.331818
v 198.401199 -308.555878 290.772980
v 190.191803 -304.118469 344.672974
v 192.346207 -305.282959 344.672974
v 192.346207 -305.282959 291.331818
v 198.097702 -308.391785 291.331818
v 198.097702 -308.391785 344.672974
v 198.401199 -308.555878 344.672974
v 198.237000 -308.859283 291.331818
v 198.401199 -308.555878 344.672974
v 198.237000 -308.859283 344.672974
v 197.459412 -310.296875 291.331818
v 198.401199 -308.555878 290.772980
v 197.459412 -310.296875 344.672974
v 196.679901 -311.737762 344.672974
v 196.679901 -311.737762 291.331818
v 192.791504 -318.925873 291.331818
v 192.791504 -318.925873 344.672974
v 192.012009 -320.366760 344.672974
v 192.012009 -320.366760 291.331818
v 191.070114 -322.107758 290.772980
v 191.234314 -321.804382 291.331818
v 191.234314 -321.804382 344.672974
v 191.070114 -322.107758 344.672974
vt 107.305199 3.004510
vt 109.160004 289.785004
vt 107.305199 289.785004
vt 72.155228 3.004510
vt 109.160004 0.000000
vt 63.367519 3.004510
vt 45.792530 3.004510
vt 0.000000 0.000000
vt 45.792530 289.785004
vt 37.004810 289.785004
vt 37.004810 3.004510
vt 1.854840 3.004510
vt 1.854840 289.785004
vt 0.000000 289.785004
vt 80.930328 3.004510
vt 82.785156 289.785004
vt 80.930328 289.785004
vt 72.142838 3.004510
vt 82.785156 0.000000
vt 72.142838 289.785004
vt 58.967571 289.785004
vt 58.967571 3.004510
vt 23.817600 3.004510
vt 23.817600 289.785004
vt 10.642330 289.785004
vt 10.642330 3.004510
vt 0.000000 0.000000
vt 1.854840 3.004510
vt 1.854840 289.785004
vt 0.000000 289.785004
vt 107.276100 3.004510
vt 109.130898 289.785004
vt 107.276100 289.785004
vt 72.126091 3.004510
vt 109.130898 0.000000
vt 72.126091 289.785004
vt 58.959190 289.785004
vt 58.959190 3.004510
vt 50.171700 3.004510
vt 0.000000 0.000000
vt 37.004810 3.004510
vt 1.854840 289.785004
vt 0.000000 289.785004
vt 1.854840 3.004510
vt 80.982521 3.004510
vt 82.837357 289.785004
vt 80.982521 289.785004
vt 72.195030 3.004510
vt 82.837357 0.000000
vt 72.195030 289.785004
vt 63.387409 289.785004
vt 63.387409 3.004510
vt 19.449940 3.004510
vt 19.449940 289.785004
vt 10.642330 289.785004
vt 10.642330 3.004510
vt 0.000000 0.000000
vt 1.854840 289.785004
vt 0.000000 289.785004
vt 1.854840 3.004510
vt 72.155228 289.785004
vt 63.367519 289.785004
vt 50.171700 289.785004
vt 37.004810 289.785004
vn -0.4759 -0.8795 0.0000
vn -0.4759 -0.8795 -0.0003
vn -0.8795 0.4759 0.0000
vn -0.8794 0.4761 0.0002
vn -0.8795 0.4760 0.0000
vn -0.8794 0.4761 0.0000
vn -0.8794 0.4761 -0.0001
vn -0.8794 0.4761 0.0001
vn -0.8794 0.4762 0.0000
vn 0.4756 0.8797 0.0000
vn 0.4755 0.8797 0.0001
vn 0.4751 0.8799 -0.0000
vn 0.4755 0.8797 0.0000
vn 0.4757 0.8796 -0.0001
vn 0.4754 0.8798 0.0000
vn 0.4752 0.8799 -0.0000
vn 0.8795 -0.4759 0.0000
vn 0.8796 -0.4758 0.0002
vn 0.8794 -0.4760 0.0000
vn 0.8795 -0.4758 0.0000
vn 0.8795 -0.4758 -0.0002
vn 0.8796 -0.4758 0.0001
vn 0.8796 -0.4758 0.0003
vn 0.8795 -0.4760 0.0000
vn -0.4759 -0.8795 -0.0001
vn -0.8794 0.4761 -0.0003
vn 0.4755 0.8797 0.0002
vn 0.4755 0.8797 0.0003
vn 0.8796 -0.4758 -0.0001
s off
f 1/1/1 2/2/1 3/3/1
f 4/4/1 5/5/1 1/1/1
f 2/2/1 1/1/1 5/5/1
f 8/6/2 5/5/2 4/4/2
f 9/7/1 10/8/1 8/6/1
f 11/9/1 12/10/1 9/7/1
f 12/10/1 13/11/1 9/7/1
f 14/12/1 10/8/1 13/11/1
f 15/13/1 16/14/1 14/12/1
f 16/14/1 10/8/1 14/12/1
f 17/15/3 18/16/3 19/17/3
f 20/18/4 21/19/4 17/15/4
f 18/16/5 17/15/5 21/19/5
f 22/20/6 23/21/6 20/18/6
f 23/21/6 24/22/6 20/18/6
f 24/22/4 21/19/4 20/18/4
f 24/22/7 25/23/7 21/19/7
f 26/24/6 27/25/6 25/23/6
f 27/25/6 28/26/6 25/23/6
f 25/23/8 29/27/8 21/19/8
f 30/28/7 29/27/7 28/26/7
f 31/29/9 32/30/9 30/28/9
f 32/30/3 29/27/3 30/28/3
f 33/31/10 34/32/10 35/33/10
f 36/34/11 37/35/11 33/31/11
f 34/32/12 33/31/12 37/35/12
f 38/36/13 39/37/13 36/34/13
f 39/37/13 40/38/13 36/34/13
f 41/39/14 42/40/14 40/38/14
f 40/38/11 42/40/11 37/35/11
f 45/41/15 42/40/15 41/39/15
f 47/42/16 48/43/16 46/44/16
f 48/43/16 42/40/16 46/44/16
f 49/45/17 50/46/17 51/47/17
f 52/48/18 53/49/18 49/45/18
f 50/46/19 49/45/19 53/49/19
f 54/50/20 55/51/20 52/48/20
f 55/51/20 56/52/20 52/48/20
f 56/52/21 53/49/21 52/48/21
f 56/52/22 57/53/22 53/49/22
f 58/54/20 59/55/20 57/53/20
f 59/55/20 60/56/20 57/53/20
f 60/56/20 61/57/20 57/53/20
f 57/53/23 61/57/23 53/49/23
f 63/58/24 64/59/24 62/60/24
f 64/59/19 61/57/19 62/60/19
s 1
f 6/61/1 7/62/1 4/4/1
f 7/62/1 8/6/1 4/4/1
f 8/6/25 10/8/25 5/5/25
f 13/11/2 10/8/2 9/7/2
f 28/26/26 29/27/26 25/23/26
f 40/38/27 37/35/27 36/34/27
f 43/63/13 44/64/13 41/39/13
f 44/64/13 45/41/13 41/39/13
f 46/44/28 42/40/28 45/41/28
f 62/60/29 61/57/29 60/56/29
