# Blender v3.0.1 OBJ File: 'rockerfeller_plaza.blend'
# www.blender.org
o geometryt000010000010000110010110000110000100110010110110st125
v 104.342422 -164.129425 566.019714
v 103.632202 -165.446823 566.019714
v 103.632202 -165.446823 622.536804
v 104.342422 -164.129425 622.536804
v 105.286865 -162.377426 566.019714
v 104.576653 -163.694824 566.019714
v 104.576653 -163.694824 622.536804
v 105.286865 -162.377426 622.536804
v 106.231316 -160.625427 622.536804
v 106.231316 -160.625427 566.019714
v 105.521103 -161.942917 566.019714
v 105.521103 -161.942917 622.536804
v 109.306381 -154.921021 622.536804
v 109.306381 -154.921021 566.019714
v 106.465584 -160.190918 566.019714
v 106.465584 -160.190918 622.536804
v 110.250885 -153.169022 566.019714
v 109.540680 -154.486526 566.019714
v 109.540680 -154.486526 622.536804
v 110.250885 -153.169022 622.536804
v 111.195282 -151.417023 566.019714
v 110.485085 -152.734528 566.019714
v 110.485085 -152.734528 622.536804
v 111.195282 -151.417023 622.536804
v 112.139786 -149.665024 622.536804
v 112.139786 -149.665024 566.019714
v 111.429482 -150.982529 566.019714
v 111.429482 -150.982529 622.536804
v 104.409225 -166.251129 622.536804
v 104.409225 -166.251129 566.019714
v 105.726624 -166.961426 566.019714
v 105.726624 -166.961426 622.536804
v 106.063286 -167.142929 622.536804
v 106.063286 -167.142929 566.019714
v 107.380684 -167.853317 566.019714
v 107.380684 -167.853317 622.536804
v 107.717384 -168.034821 622.536804
v 107.717384 -168.034821 566.019714
v 109.034782 -168.745117 566.019714
v 109.034782 -168.745117 622.536804
v 109.371384 -168.926620 566.019714
v 114.640984 -171.768021 566.019714
v 114.640984 -171.768021 622.536804
v 109.371384 -168.926620 622.536804
v 114.977684 -171.949524 622.536804
v 114.977684 -171.949524 566.019714
v 120.247284 -174.790924 566.019714
v 120.247284 -174.790924 622.536804
v 120.583984 -174.972427 622.536804
v 120.583984 -174.972427 566.019714
v 121.901382 -175.682724 566.019714
v 121.901382 -175.682724 622.536804
v 122.237984 -175.864319 622.536804
v 122.237984 -175.864319 566.019714
v 123.555481 -176.574631 566.019714
v 123.555481 -176.574631 622.536804
v 123.892082 -176.756119 622.536804
v 123.892082 -176.756119 566.019714
v 125.209480 -177.466522 566.019714
v 125.209480 -177.466522 622.536804
v 115.268883 -151.014618 622.536804
v 116.200287 -151.534729 566.019714
v 113.586784 -150.075317 566.019714
v 116.200287 -151.534729 622.536804
v 113.586784 -150.075317 622.536804
v 118.609085 -152.840622 566.019714
v 117.289383 -152.134521 566.019714
v 117.289383 -152.134521 622.536804
v 118.609085 -152.840622 622.536804
v 120.122581 -153.650330 622.536804
v 120.122581 -153.650330 566.019714
v 118.802887 -152.944229 566.019714
v 118.802887 -152.944229 622.536804
v 121.635986 -154.460129 566.019714
v 120.316284 -153.754028 566.019714
v 120.316284 -153.754028 622.536804
v 121.635986 -154.460129 622.536804
v 123.149483 -155.269928 566.019714
v 121.829781 -154.563828 566.019714
v 121.829781 -154.563828 622.536804
v 123.149483 -155.269928 622.536804
v 127.302284 -157.491821 622.536804
v 127.302284 -157.491821 566.019714
v 123.343185 -155.373520 566.019714
v 123.343185 -155.373520 622.536804
v 128.815689 -158.301620 566.019714
v 127.496086 -157.595520 566.019714
v 127.496086 -157.595520 622.536804
v 128.815689 -158.301620 622.536804
v 130.329193 -159.111420 622.536804
v 130.329193 -159.111420 566.019714
v 129.009491 -158.405319 566.019714
v 129.009491 -158.405319 622.536804
v 131.842590 -159.921127 622.536804
v 131.842590 -159.921127 566.019714
v 130.522888 -159.215027 566.019714
v 130.522888 -159.215027 622.536804
v 133.356094 -160.730927 566.019714
v 132.036392 -160.024826 566.019714
v 132.036392 -160.024826 622.536804
v 133.356094 -160.730927 622.536804
v 125.147385 -178.308823 622.536804
v 125.147385 -178.308823 566.019714
v 120.176285 -187.531418 566.019714
v 120.176285 -187.531418 622.536804
v 120.114182 -188.373718 566.019714
v 121.431686 -189.083923 566.019714
v 121.431686 -189.083923 622.536804
v 120.114182 -188.373718 622.536804
v 121.668587 -189.211624 622.536804
v 121.668587 -189.211624 566.019714
v 122.986084 -189.921829 566.019714
v 122.986084 -189.921829 622.536804
v 123.222885 -190.049423 622.536804
v 123.222885 -190.049423 566.019714
v 124.540382 -190.759628 566.019714
v 124.540382 -190.759628 622.536804
v 124.777283 -190.887329 622.536804
v 124.777283 -190.887329 566.019714
v 130.047180 -193.728119 566.019714
v 130.047180 -193.728119 622.536804
v 130.284088 -193.855820 566.019714
v 132.918991 -195.276123 566.019714
v 132.918991 -195.276123 622.536804
v 130.284088 -193.855820 622.536804
v 133.155884 -195.403824 566.019714
v 135.790787 -196.824219 566.019714
v 135.790787 -196.824219 622.536804
v 133.155884 -195.403824 622.536804
v 136.027679 -196.951920 566.019714
v 141.297577 -199.792725 566.019714
v 141.297577 -199.792725 622.536804
v 136.027679 -196.951920 622.536804
v 141.534485 -199.920319 622.536804
v 141.534485 -199.920319 566.019714
v 142.851990 -200.630524 566.019714
v 142.851990 -200.630524 622.536804
v 143.088776 -200.758224 622.536804
v 143.088776 -200.758224 566.019714
v 144.406281 -201.468430 566.019714
v 144.406281 -201.468430 622.536804
v 144.643188 -201.596130 566.019714
v 145.960587 -202.306320 566.019714
v 145.960587 -202.306320 622.536804
v 144.643188 -201.596130 622.536804
v 135.283676 -161.763428 566.019714
v 133.966080 -161.053421 566.019714
v 133.966080 -161.053421 622.536804
v 135.283676 -161.763428 622.536804
v 136.750290 -162.553818 566.019714
v 135.432678 -161.843826 566.019714
v 135.432678 -161.843826 622.536804
v 136.750290 -162.553818 622.536804
v 138.216888 -163.344116 566.019714
v 136.899384 -162.634125 566.019714
v 136.899384 -162.634125 622.536804
v 138.216888 -163.344116 622.536804
v 143.636276 -166.264526 566.019714
v 138.365982 -163.424423 566.019714
v 138.365982 -163.424423 622.536804
v 143.636276 -166.264526 622.536804
v 145.952576 -167.512619 622.536804
v 146.420486 -167.764816 566.019714
v 143.785385 -166.344818 566.019714
v 146.420486 -167.764816 622.536804
v 143.785385 -166.344818 622.536804
v 147.887177 -168.555130 566.019714
v 146.569580 -167.845123 566.019714
v 146.569580 -167.845123 622.536804
v 147.887177 -168.555130 622.536804
v 150.671387 -170.055527 622.536804
v 150.671387 -170.055527 566.019714
v 148.036179 -168.635529 566.019714
v 148.036179 -168.635529 622.536804
v 156.090683 -172.975922 622.536804
v 156.090683 -172.975922 566.019714
v 150.820389 -170.135818 566.019714
v 150.820389 -170.135818 622.536804
v 157.557388 -173.766220 566.019714
v 156.239777 -173.056229 566.019714
v 156.239777 -173.056229 622.536804
v 157.557388 -173.766220 622.536804
v 159.023987 -174.556519 566.019714
v 157.706390 -173.846527 566.019714
v 157.706390 -173.846527 622.536804
v 159.023987 -174.556519 622.536804
v 160.490585 -175.346924 622.536804
v 160.490585 -175.346924 566.019714
v 159.173080 -174.636917 566.019714
v 159.173080 -174.636917 622.536804
v 146.427979 -202.166321 622.536804
v 146.427979 -202.166321 566.019714
v 147.138077 -200.848724 566.019714
v 147.138077 -200.848724 622.536804
v 147.295883 -200.556030 622.536804
v 147.295883 -200.556030 566.019714
v 148.005981 -199.238419 566.019714
v 148.005981 -199.238419 622.536804
v 148.163788 -198.945724 566.019714
v 148.873886 -197.628128 566.019714
v 148.873886 -197.628128 622.536804
v 148.163788 -198.945724 622.536804
v 149.031677 -197.335419 622.536804
v 149.031677 -197.335419 566.019714
v 151.871979 -192.065231 566.019714
v 151.871979 -192.065231 622.536804
v 152.029785 -191.772522 566.019714
v 153.449982 -189.137421 566.019714
v 153.449982 -189.137421 622.536804
v 152.029785 -191.772522 622.536804
v 153.607788 -188.844727 566.019714
v 155.027985 -186.209625 566.019714
v 155.027985 -186.209625 622.536804
v 153.607788 -188.844727 622.536804
v 155.185776 -185.916824 622.536804
v 155.185776 -185.916824 566.019714
v 158.026184 -180.646729 566.019714
v 158.026184 -180.646729 622.536804
v 158.183990 -180.353928 566.019714
v 158.894089 -179.036423 566.019714
v 158.894089 -179.036423 622.536804
v 158.183990 -180.353928 622.536804
v 159.051788 -178.743622 622.536804
v 159.051788 -178.743622 566.019714
v 159.761887 -177.426117 566.019714
v 159.761887 -177.426117 622.536804
v 159.919678 -177.133331 566.019714
v 160.629776 -175.815826 566.019714
v 160.629776 -175.815826 622.536804
v 159.919678 -177.133331 622.536804
vt 0.000000 4.500000
vt 0.000000 0.000000
vt 0.250000 0.000000
vt 0.250000 4.500000
vt 0.000000 4.500000
vt 0.000000 0.000000
vt 1.000000 0.000000
vt 1.000000 4.500000
vt 0.000000 0.000000
vt 0.250000 0.000000
vt 0.250000 4.500000
vt 0.000000 4.500000
vt 0.000000 0.000000
vt 0.250000 0.000000
vt 0.250000 4.500000
vt 0.000000 4.500000
vt 0.000000 4.500000
vt 0.000000 0.000000
vt 0.250000 0.000000
vt 0.250000 4.500000
vt 0.000000 4.500000
vt 0.000000 0.000000
vt 0.250000 0.000000
vt 0.250000 4.500000
vt 0.000000 4.500000
vt 0.000000 0.000000
vt 0.250000 0.000000
vt 0.250000 4.500000
vt 0.000000 4.500000
vt 0.000000 0.000000
vt 0.250000 0.000000
vt 0.250000 4.500000
vt 0.178190 4.500000
vt 0.000000 0.000000
vt 0.500000 0.000000
vt 0.000000 4.500000
vt 0.500000 4.500000
vt 0.000000 0.000000
vt 0.250000 0.000000
vt 0.250000 4.500000
vt 0.000000 4.500000
vt 0.000000 4.500000
vt 0.000000 0.000000
vt 0.250000 0.000000
vt 0.250000 4.500000
vt 0.000000 0.000000
vt 0.250000 0.000000
vt 0.250000 4.500000
vt 0.000000 4.500000
vt 0.000000 0.000000
vt 0.250000 0.000000
vt 0.250000 4.500000
vt 0.000000 4.500000
vt 0.000000 4.500000
vt 0.000000 0.000000
vt 0.750000 0.000000
vt 0.750000 4.500000
vt 0.000000 0.000000
vt 0.250000 0.000000
vt 0.250000 4.500000
vt 0.000000 4.500000
vt 0.000000 4.500000
vt 0.000000 0.000000
vt 0.250000 0.000000
vt 0.250000 4.500000
vt 0.000000 4.500000
vt 0.000000 0.000000
vt 0.250000 0.000000
vt 0.250000 4.500000
vt 0.000000 0.000000
vt 0.250000 0.000000
vt 0.250000 4.500000
vt 0.000000 4.500000
vt 0.000000 4.500000
vt 0.000000 0.000000
vt 1.750000 0.000000
vt 1.750000 4.500000
vt 0.000000 0.000000
vt 0.250000 0.000000
vt 0.250000 4.500000
vt 0.000000 4.500000
vt 0.000000 4.500000
vt 0.000000 0.000000
vt 0.250000 0.000000
vt 0.250000 4.500000
vt 0.000000 4.500000
vt 0.000000 0.000000
vt 0.250000 0.000000
vt 0.250000 4.500000
vt 0.000000 4.500000
vt 0.000000 0.000000
vt 1.000000 0.000000
vt 1.000000 4.500000
vt 0.000000 0.000000
vt 0.500000 0.000000
vt 0.500000 4.500000
vt 0.000000 4.500000
vt 0.000000 0.000000
vt 0.500000 0.000000
vt 0.500000 4.500000
vt 0.000000 4.500000
vt 0.000000 0.000000
vt 1.000000 0.000000
vt 1.000000 4.500000
vt 0.000000 4.500000
vt 0.000000 4.500000
vt 0.000000 0.000000
vt 0.250000 0.000000
vt 0.250000 4.500000
vt 0.000000 4.500000
vt 0.000000 0.000000
vt 0.250000 0.000000
vt 0.250000 4.500000
vt 0.000000 0.000000
vt 0.250000 0.000000
vt 0.250000 4.500000
vt 0.000000 4.500000
vt 0.000000 0.000000
vt 0.250000 0.000000
vt 0.250000 4.500000
vt 0.000000 4.500000
vt 0.000000 0.000000
vt 0.250000 0.000000
vt 0.250000 4.500000
vt 0.000000 4.500000
vt 0.000000 0.000000
vt 0.250000 0.000000
vt 0.250000 4.500000
vt 0.000000 4.500000
vt 0.000000 0.000000
vt 1.000000 0.000000
vt 1.000000 4.500000
vt 0.000000 4.500000
vt 0.088790 4.500000
vt 0.000000 0.000000
vt 0.500000 0.000000
vt 0.000000 4.500000
vt 0.500000 4.500000
vt 0.000000 0.000000
vt 0.250000 0.000000
vt 0.250000 4.500000
vt 0.000000 4.500000
vt 0.000000 4.500000
vt 0.000000 0.000000
vt 0.500000 0.000000
vt 0.500000 4.500000
vt 0.000000 4.500000
vt 0.000000 0.000000
vt 1.000000 0.000000
vt 1.000000 4.500000
vt 0.000000 0.000000
vt 0.250000 0.000000
vt 0.250000 4.500000
vt 0.000000 4.500000
vt 0.000000 0.000000
vt 0.250000 0.000000
vt 0.250000 4.500000
vt 0.000000 4.500000
vt 0.000000 4.500000
vt 0.000000 0.000000
vt 0.250000 0.000000
vt 0.250000 4.500000
vt 0.000000 4.500000
vt 0.000000 0.000000
vt 0.250000 0.000000
vt 0.250000 4.500000
vt 0.000000 4.500000
vt 0.000000 0.000000
vt 0.250000 0.000000
vt 0.250000 4.500000
vt 0.000000 0.000000
vt 0.250000 0.000000
vt 0.250000 4.500000
vt 0.000000 4.500000
vt 0.000000 4.500000
vt 0.000000 0.000000
vt 1.000000 0.000000
vt 1.000000 4.500000
vt 0.000000 0.000000
vt 0.500000 0.000000
vt 0.500000 4.500000
vt 0.000000 4.500000
vt 0.000000 0.000000
vt 0.500000 0.000000
vt 0.500000 4.500000
vt 0.000000 4.500000
vt 0.000000 4.500000
vt 0.000000 0.000000
vt 1.000000 0.000000
vt 1.000000 4.500000
vt 0.000000 0.000000
vt 0.250000 0.000000
vt 0.250000 4.500000
vt 0.000000 4.500000
vt 0.000000 4.500000
vt 0.000000 0.000000
vt 0.250000 0.000000
vt 0.250000 4.500000
vt 0.000000 0.000000
vt 0.250000 0.000000
vt 0.250000 4.500000
vt 0.000000 4.500000
vt 0.000000 0.000000
vt 0.250000 0.000000
vt 0.250000 4.500000
vt 0.000000 4.500000
vt 0.000000 0.000000
vt 0.250000 0.000000
vt 0.250000 4.500000
vt 0.000000 4.500000
vt 0.000000 4.500000
vt 0.000000 0.000000
vt 0.250000 0.000000
vt 0.250000 4.500000
vt 0.000000 4.500000
vt 0.000000 0.000000
vt 0.250000 0.000000
vt 0.250000 4.500000
vt 0.000000 0.000000
vt 1.000000 0.000000
vt 1.000000 4.500000
vt 0.000000 4.500000
vt 0.000000 4.500000
vt 0.000000 0.000000
vt 1.000000 0.000000
vt 1.000000 4.500000
vt 0.000000 4.500000
vt 0.000000 0.000000
vt 0.250000 0.000000
vt 0.250000 4.500000
vn -0.8802 0.4745 0.0000
vn -0.8803 0.4745 0.0000
vn -0.8802 0.4746 0.0000
vn -0.4746 -0.8802 0.0000
vn 0.4875 0.8731 0.0000
vn 0.4718 0.8817 0.0000
vn -0.4745 -0.8803 0.0000
vn -0.4745 -0.8802 0.0000
vn 0.4744 0.8803 0.0000
vn 0.4745 0.8803 0.0000
vn 0.8803 -0.4744 0.0000
vn 0.8803 -0.4745 0.0000
s off
f 9/1/1 10/2/1 11/3/1
f 9/1/2 11/3/2 12/4/2
f 13/5/2 14/6/2 15/7/2
f 13/5/2 15/7/2 16/8/2
f 17/9/2 18/10/2 19/11/2
f 20/12/2 17/9/2 19/11/2
f 21/13/2 22/14/2 23/15/2
f 24/16/2 21/13/2 23/15/2
f 25/17/3 26/18/3 27/19/3
f 25/17/3 27/19/3 28/20/3
f 33/21/4 34/22/4 35/23/4
f 33/21/4 35/23/4 36/24/4
f 53/25/4 54/26/4 55/27/4
f 53/25/4 55/27/4 56/28/4
f 57/29/4 58/30/4 59/31/4
f 57/29/4 59/31/4 60/32/4
f 61/33/5 62/34/5 63/35/5
f 64/36/5 62/34/5 61/33/5
f 61/33/5 63/35/5 65/37/5
f 66/38/6 67/39/6 68/40/6
f 69/41/6 66/38/6 68/40/6
f 70/42/6 71/43/6 72/44/6
f 70/42/6 72/44/6 73/45/6
f 74/46/6 75/47/6 76/48/6
f 77/49/6 74/46/6 76/48/6
f 78/50/6 79/51/6 80/52/6
f 81/53/6 78/50/6 80/52/6
f 82/54/6 83/55/6 84/56/6
f 82/54/6 84/56/6 85/57/6
f 86/58/6 87/59/6 88/60/6
f 89/61/6 86/58/6 88/60/6
f 90/62/6 91/63/6 92/64/6
f 90/62/6 92/64/6 93/65/6
f 94/66/6 95/67/6 96/68/6
f 94/66/6 96/68/6 97/69/6
f 98/70/6 99/71/6 100/72/6
f 101/73/6 98/70/6 100/72/6
f 102/74/2 103/75/2 104/76/2
f 102/74/2 104/76/2 105/77/2
f 106/78/7 107/79/7 108/80/7
f 109/81/7 106/78/7 108/80/7
f 110/82/7 111/83/7 112/84/7
f 110/82/7 112/84/7 113/85/7
f 114/86/7 115/87/7 116/88/7
f 114/86/7 116/88/7 117/89/7
f 118/90/7 119/91/7 120/92/7
f 118/90/7 120/92/7 121/93/7
f 122/94/7 123/95/7 124/96/7
f 125/97/7 122/94/7 124/96/7
f 126/98/8 127/99/8 128/100/8
f 129/101/8 126/98/8 128/100/8
f 130/102/7 131/103/7 132/104/7
f 133/105/8 130/102/8 132/104/8
f 134/106/7 135/107/7 136/108/7
f 134/106/7 136/108/7 137/109/7
f 138/110/7 139/111/7 140/112/7
f 138/110/7 140/112/7 141/113/7
f 142/114/8 143/115/8 144/116/8
f 145/117/8 142/114/8 144/116/8
f 146/118/9 147/119/9 148/120/9
f 149/121/9 146/118/9 148/120/9
f 150/122/9 151/123/9 152/124/9
f 153/125/9 150/122/9 152/124/9
f 154/126/9 155/127/9 156/128/9
f 157/129/9 154/126/9 156/128/9
f 158/130/9 159/131/9 160/132/9
f 161/133/9 158/130/9 160/132/9
f 162/134/9 163/135/9 164/136/9
f 165/137/10 163/135/10 162/134/10
f 162/134/9 164/136/9 166/138/9
f 167/139/9 168/140/9 169/141/9
f 170/142/9 167/139/9 169/141/9
f 171/143/9 172/144/9 173/145/9
f 171/143/9 173/145/9 174/146/9
f 175/147/9 176/148/9 177/149/9
f 175/147/9 177/149/9 178/150/9
f 179/151/9 180/152/9 181/153/9
f 182/154/9 179/151/9 181/153/9
f 183/155/9 184/156/9 185/157/9
f 186/158/9 183/155/9 185/157/9
f 187/159/9 188/160/9 189/161/9
f 187/159/9 189/161/9 190/162/9
f 191/163/11 192/164/11 193/165/11
f 191/163/11 193/165/11 194/166/11
f 195/167/11 196/168/11 197/169/11
f 195/167/11 197/169/11 198/170/11
f 199/171/11 200/172/11 201/173/11
f 202/174/11 199/171/11 201/173/11
f 203/175/11 204/176/11 205/177/11
f 203/175/11 205/177/11 206/178/11
f 207/179/11 208/180/11 209/181/11
f 210/182/11 207/179/11 209/181/11
f 211/183/11 212/184/11 213/185/11
f 214/186/11 211/183/11 213/185/11
f 215/187/11 216/188/11 217/189/11
f 215/187/11 217/189/11 218/190/11
f 219/191/11 220/192/11 221/193/11
f 222/194/11 219/191/11 221/193/11
f 223/195/11 224/196/11 225/197/11
f 223/195/12 225/197/12 226/198/12
f 227/199/11 228/200/11 229/201/11
f 230/202/11 227/199/11 229/201/11
s 1
f 1/203/1 2/204/1 3/205/1
f 4/206/1 1/203/1 3/205/1
f 5/207/1 6/208/1 7/209/1
f 8/210/1 5/207/1 7/209/1
f 29/211/4 30/212/4 31/213/4
f 29/211/4 31/213/4 32/214/4
f 37/215/4 38/216/4 39/217/4
f 37/215/4 39/217/4 40/218/4
f 41/219/4 42/220/4 43/221/4
f 44/222/4 41/219/4 43/221/4
f 45/223/4 46/224/4 47/225/4
f 45/223/4 47/225/4 48/226/4
f 49/227/4 50/228/4 51/229/4
f 49/227/4 51/229/4 52/230/4
