# Blender v3.0.1 OBJ File: 'rockerfeller_plaza.blend'
# www.blender.org
o geometryt000010000010000110010110000110000110100100000010st96
v 527.045959 -19.564878 931.495483
v 538.800903 -19.117357 931.495483
v 525.594360 -43.573708 931.495483
v 529.888916 -14.302677 931.495483
v 516.682495 -38.770107 931.495483
v 538.800903 -19.117357 966.895447
v 529.888916 -14.302677 966.895447
v 527.045959 -19.564878 966.895447
v 525.594360 -43.573708 966.895447
v 516.682495 -38.770107 966.895447
vt 0.029130 0.040560
vt 0.024580 0.064260
vt 0.073280 0.037070
vt 0.018650 0.046410
vt 0.067370 0.019220
vt 0.024580 0.064260
vt 0.018650 0.046410
vt 0.029130 0.040560
vt 0.073280 0.037070
vt 0.067370 0.019220
vn 0.0000 0.0000 -1.0000
vn 0.0000 0.0000 1.0000
s off
f 1/1/1 2/2/1 3/3/1
f 4/4/1 2/2/1 1/1/1
f 1/1/1 3/3/1 5/5/1
f 6/6/2 7/7/2 8/8/2
f 9/9/2 8/8/2 10/10/2
f 9/9/2 6/6/2 8/8/2
