# Blender v3.0.1 OBJ File: 'rockerfeller_plaza.blend'
# www.blender.org
o geometryt000010000010000110010110000110000110100000110010st13_T
v 1033.120483 -102.000038 478.943512
v 1033.114624 -101.996941 478.957825
v 1033.120483 -102.000038 478.957825
v 1031.914062 -101.348038 478.943512
v 1031.914062 -101.348038 478.957733
v 1034.343872 -102.662941 478.943512
v 1034.337646 -102.659637 478.958679
v 1034.343872 -102.662941 478.958679
v 1033.120483 -102.000038 478.943512
v 1033.120483 -102.000038 478.957825
v 1035.533203 -103.304138 478.943512
v 1035.527466 -103.301041 478.958008
v 1035.533203 -103.304138 478.958008
v 1034.343872 -102.662941 478.943512
v 1034.343872 -102.662941 478.958679
v 1036.637451 -103.890739 478.943512
v 1036.633789 -103.888741 478.953644
v 1036.637451 -103.890739 478.953613
v 1035.533203 -103.304138 478.943512
v 1035.533203 -103.304138 478.958008
v 1053.212158 -112.822937 478.943512
v 1036.637451 -103.890739 478.943512
v 1036.637451 -103.890739 478.953613
v 1050.187622 -118.400436 481.797333
v 1047.444092 -123.459740 478.943512
v 1051.289551 -116.368538 480.943512
v 1050.328125 -118.141342 481.943512
v 1053.212158 -112.822937 478.943512
v 1051.289551 -116.368538 480.943512
v 1028.111084 -108.433136 480.941925
v 1029.066284 -106.653442 481.943512
v 1029.202637 -106.399437 481.800537
v 1031.914062 -101.348038 478.957733
v 1031.914062 -101.348038 478.943512
v 1026.205078 -111.984138 478.943512
v 1026.368164 -111.680138 466.596527
v 1026.205078 -111.984138 478.943512
v 1026.368164 -111.680138 478.943512
v 1027.895264 -108.835236 466.596527
v 1026.205078 -111.984138 464.343506
v 1027.895264 -108.835236 478.943512
v 1028.296021 -108.088539 478.943512
v 1028.296021 -108.088539 466.596527
v 1029.822998 -105.243637 466.596527
v 1029.822998 -105.243637 478.943512
v 1030.223877 -104.496841 478.943512
v 1030.223877 -104.496841 466.596527
v 1031.914062 -101.348038 464.343506
v 1031.750854 -101.652039 466.596527
v 1031.750854 -101.652039 478.943512
v 1031.914062 -101.348038 478.943512
v 1047.140625 -123.295738 466.596527
v 1047.444092 -123.459740 478.943512
v 1047.140625 -123.295738 478.943512
v 1044.299927 -121.760941 466.596527
v 1047.444092 -123.459740 464.343506
v 1044.299927 -121.760941 478.943512
v 1043.582397 -121.373138 478.943512
v 1043.582397 -121.373138 466.596527
v 1040.741699 -119.838341 466.596527
v 1040.741699 -119.838341 478.943512
v 1040.024048 -119.450638 478.943512
v 1040.024048 -119.450638 466.596527
v 1037.183350 -117.915840 466.596527
v 1037.183350 -117.915840 478.943512
v 1036.465820 -117.528038 478.943512
v 1036.465820 -117.528038 466.596527
v 1033.625122 -115.993240 466.596527
v 1026.205078 -111.984138 464.343506
v 1033.625122 -115.993240 478.943512
v 1032.907471 -115.605537 478.943512
v 1032.907471 -115.605537 466.596527
v 1030.066895 -114.070740 466.596527
v 1030.066895 -114.070740 478.943512
v 1029.349243 -113.682938 478.943512
v 1029.349243 -113.682938 466.596527
v 1026.508545 -112.148140 466.596527
v 1026.508545 -112.148140 478.943512
v 1026.205078 -111.984138 478.943512
v 1032.302002 -101.561035 466.596527
v 1031.912476 -101.350838 478.943512
v 1032.302002 -101.561035 478.943512
v 1035.143433 -103.094437 466.596527
v 1033.119263 -102.002136 464.343506
v 1031.912476 -101.350838 464.343506
v 1035.143433 -103.094437 478.943512
v 1035.532837 -103.304642 478.943512
v 1035.532837 -103.304642 464.343506
v 1034.343872 -102.662941 464.343506
v 1036.637451 -103.890739 464.343506
v 1035.533203 -103.304138 464.343506
v 1035.533203 -103.304138 478.943512
v 1036.637451 -103.890739 478.943512
v 1036.941162 -104.054337 466.596527
v 1036.637451 -103.890739 478.943512
v 1036.941162 -104.054337 478.943512
v 1039.783569 -105.586136 466.596527
v 1036.637451 -103.890739 464.343506
v 1039.783569 -105.586136 478.943512
v 1040.577759 -106.014137 478.943512
v 1040.577759 -106.014137 466.596527
v 1043.420044 -107.545837 466.596527
v 1043.420044 -107.545837 478.943512
v 1044.214233 -107.973839 478.943512
v 1044.214233 -107.973839 466.596527
v 1045.635498 -108.739738 466.596527
v 1045.635498 -108.739738 478.943512
v 1046.429688 -109.167740 478.943512
v 1046.429688 -109.167740 466.596527
v 1053.212158 -112.822937 464.343506
v 1049.271973 -110.699440 466.596527
v 1049.271973 -110.699440 478.943512
v 1050.066162 -111.127441 478.943512
v 1050.066162 -111.127441 466.596527
v 1052.908447 -112.659241 466.596527
v 1052.908447 -112.659241 478.943512
v 1053.212158 -112.822937 478.943512
v 1053.047729 -113.126137 466.596527
v 1053.212158 -112.822937 478.943512
v 1053.047729 -113.126137 478.943512
v 1051.508545 -115.964539 466.596527
v 1053.212158 -112.822937 464.343506
v 1051.508545 -115.964539 478.943512
v 1051.097778 -116.722137 478.943512
v 1051.097778 -116.722137 466.596527
v 1049.558594 -119.560440 466.596527
v 1047.444092 -123.459740 464.343506
v 1049.558594 -119.560440 478.943512
v 1049.147705 -120.318138 478.943512
v 1049.147705 -120.318138 466.596527
v 1047.608643 -123.156441 466.596527
v 1047.608643 -123.156441 478.943512
v 1047.444092 -123.459740 478.943512
v 1047.444092 -123.459740 478.943512
vt 0.007090 0.015520
vt 1.485710 0.000000
vt 1.485710 0.015420
vt 0.007080 0.015720
vt 1.463880 0.000000
vt 1.463880 0.016430
vt 0.004580 0.010980
vt 1.354760 0.000000
vt 1.354760 0.015720
vt 0.000000 0.000000
vt 20.399019 0.000000
vt 20.399019 0.010970
vt 6.235410 3.091910
vt 0.000000 0.000000
vt 8.739690 2.166850
vt 6.554770 3.250270
vt 13.109550 0.000000
vt 8.739701 2.166850
vt 8.712090 2.165130
vt 6.523700 3.250270
vt 6.211330 3.095380
vt 0.000000 0.015420
vt 0.000000 0.000000
vt 13.078490 0.000000
vt 9.206550 2.440990
vt 13.078490 0.000000
vt 12.704710 2.440990
vt 13.078490 15.817990
vt 8.288320 2.440990
vt 4.790160 2.440990
vt 4.790160 15.817990
vt 3.871940 15.817990
vt 3.871940 2.440990
vt 0.000000 0.000000
vt 0.373780 2.440990
vt 0.373780 15.817990
vt 0.000000 15.817990
vt 25.781151 2.440990
vt 26.154930 15.817990
vt 25.781151 15.817990
vt 22.283001 2.440990
vt 26.154930 0.000000
vt 22.283001 15.817990
vt 21.399309 15.817990
vt 21.399309 2.440990
vt 17.901150 2.440990
vt 17.901150 15.817990
vt 17.017469 15.817990
vt 17.017469 2.440990
vt 13.519310 2.440990
vt 13.519310 15.817990
vt 12.635620 15.817990
vt 12.635620 2.440990
vt 9.137471 2.440990
vt 0.000000 0.000000
vt 9.137471 15.817990
vt 8.253781 15.817990
vt 8.253781 2.440990
vt 4.755620 2.440990
vt 4.755620 15.817990
vt 3.871940 15.817990
vt 3.871940 2.440990
vt 0.373780 2.440990
vt 0.373780 15.817990
vt 0.000000 15.817990
vt 3.977640 2.440990
vt 4.457130 15.817990
vt 3.977640 15.817990
vt 0.479490 2.440990
vt 2.971420 0.000000
vt 4.457130 0.000000
vt 0.479490 15.817990
vt 0.000000 15.817990
vt 0.000000 0.000000
vt 1.463880 0.000000
vt 0.000000 0.000000
vt 1.354760 0.000000
vt 1.354760 15.817990
vt 0.000000 15.817990
vt 20.025240 2.440990
vt 20.399019 15.817990
vt 20.025240 15.817990
vt 16.527090 2.440990
vt 20.399019 0.000000
vt 16.527090 15.817990
vt 15.549650 15.817990
vt 15.549650 2.440990
vt 12.051490 2.440990
vt 12.051490 15.817990
vt 11.074050 15.817990
vt 11.074050 2.440990
vt 9.324971 2.440990
vt 9.324971 15.817990
vt 8.347531 15.817990
vt 8.347531 2.440990
vt 0.000000 0.000000
vt 4.849380 2.440990
vt 4.849380 15.817990
vt 3.871940 15.817990
vt 3.871940 2.440990
vt 0.373780 2.440990
vt 0.373780 15.817990
vt 0.000000 15.817990
vt 12.735770 2.440990
vt 13.109550 15.817990
vt 12.735770 15.817990
vt 9.237610 2.440990
vt 13.109550 0.000000
vt 9.237610 15.817990
vt 8.303851 15.817990
vt 8.303851 2.440990
vt 4.805690 2.440990
vt 0.000000 0.000000
vt 4.805690 15.817990
vt 3.871940 15.817990
vt 3.871940 2.440990
vt 0.373780 2.440990
vt 0.373780 15.817990
vt 0.000000 15.817990
vt 0.000000 15.817990
vt 0.000000 0.000000
vt 0.000000 0.015520
vt 0.000000 0.000000
vt 0.007620 0.016420
vt 0.000000 0.016430
vt 1.507540 0.000000
vt 1.507540 0.015520
vt 0.000000 0.000000
vt 0.000000 0.015720
vt 0.000000 0.000000
vt 0.000000 0.010970
vt 12.704710 15.817990
vt 9.206550 15.817990
vt 8.288320 15.817990
vn 0.4749 0.8800 0.0000
vn 0.4755 0.8797 0.0000
vn 0.4669 0.8843 0.0000
vn 0.4728 0.8811 0.0000
vn 0.8791 -0.4767 0.0000
vn 0.8790 -0.4769 0.0000
vn -0.8811 0.4728 -0.0001
vn -0.8811 0.4729 -0.0000
vn -0.8812 0.4727 0.0000
vn -0.8811 0.4730 -0.0000
vn -0.8813 0.4726 0.0000
vn -0.8810 0.4731 0.0000
vn -0.8808 0.4735 0.0000
vn -0.4753 -0.8798 0.0000
vn -0.4754 -0.8798 0.0000
vn -0.4755 -0.8797 0.0000
vn -0.4754 -0.8798 -0.0002
vn -0.4753 -0.8798 0.0001
vn -0.4752 -0.8799 0.0000
vn -0.4754 -0.8798 0.0002
vn -0.4754 -0.8798 -0.0008
vn -0.4754 -0.8798 0.0001
vn 0.4748 0.8801 0.0000
vn 0.4750 0.8800 0.0000
vn 0.4691 0.8831 0.0000
vn 0.4692 0.8831 0.0000
vn 0.4742 0.8804 0.0000
vn 0.4744 0.8803 -0.0000
vn 0.4745 0.8802 -0.0000
vn 0.4745 0.8803 0.0000
vn 0.4743 0.8804 -0.0000
vn 0.4746 0.8802 -0.0001
vn 0.4743 0.8803 0.0000
vn 0.4745 0.8803 -0.0001
vn 0.4744 0.8803 -0.0001
vn 0.4746 0.8802 0.0000
vn 0.8793 -0.4762 0.0000
vn 0.8791 -0.4766 0.0000
vn 0.8790 -0.4768 -0.0000
vn 0.8792 -0.4765 0.0000
vn 0.8792 -0.4765 0.0001
vn 0.4734 0.8809 0.0014
vn 0.4727 0.8812 0.0012
vn 0.4672 0.8841 -0.0000
vn 0.4757 0.8796 0.0020
vn 0.4766 0.8791 0.0007
vn 0.4764 0.8792 0.0007
vn 0.4732 0.8809 0.0011
vn 0.4721 0.8815 0.0010
vn 0.4648 0.8854 0.0000
vn 0.4765 0.8792 0.0011
vn 0.4725 0.8813 -0.0032
vn 0.4731 0.8810 -0.0027
vn 0.4760 0.8794 0.0000
vn 0.4713 0.8820 -0.0042
vn -0.8811 0.4728 0.0000
vn -0.0000 -0.0000 -0.0320
vn -0.8854 0.4638 -0.0320
vn -0.0168 0.0091 0.9998
s off
f 2/1/1 4/2/1 5/3/1
f 12/4/2 14/5/2 15/6/2
f 17/7/3 19/8/3 20/9/3
f 21/10/4 22/11/4 23/12/4
f 24/13/5 25/14/5 26/15/5
f 26/15/6 27/16/6 24/13/6
f 25/14/5 28/17/5 29/18/5
f 30/19/7 31/20/7 32/21/7
f 33/22/8 30/19/8 32/21/8
f 34/23/9 30/19/9 33/22/9
f 34/23/8 35/24/8 30/19/8
f 39/25/10 40/26/10 36/27/10
f 37/28/11 36/27/11 40/26/11
f 43/29/10 44/30/10 40/26/10
f 45/31/8 46/32/8 44/30/8
f 46/32/8 47/33/8 44/30/8
f 47/33/12 48/34/12 44/30/12
f 44/30/8 48/34/8 40/26/8
f 49/35/8 48/34/8 47/33/8
f 50/36/13 51/37/13 49/35/13
f 51/37/11 48/34/11 49/35/11
f 52/38/14 53/39/14 54/40/14
f 55/41/15 56/42/15 52/38/15
f 53/39/16 52/38/16 56/42/16
f 57/43/16 58/44/16 55/41/16
f 58/44/16 59/45/16 55/41/16
f 59/45/17 56/42/17 55/41/17
f 59/45/18 60/46/18 56/42/18
f 61/47/19 62/48/19 60/46/19
f 62/48/15 63/49/15 60/46/15
f 60/46/20 63/49/20 56/42/20
f 63/49/18 64/50/18 56/42/18
f 65/51/16 66/52/16 64/50/16
f 66/52/16 67/53/16 64/50/16
f 64/50/21 67/53/21 56/42/21
f 68/54/14 69/55/14 67/53/14
f 67/53/15 69/55/15 56/42/15
f 70/56/15 71/57/15 68/54/15
f 71/57/14 72/58/14 68/54/14
f 72/58/17 69/55/17 68/54/17
f 73/59/14 69/55/14 72/58/14
f 74/60/14 75/61/14 73/59/14
f 75/61/16 76/62/16 73/59/16
f 76/62/22 69/55/22 73/59/22
f 77/63/15 69/55/15 76/62/15
f 78/64/16 79/65/16 77/63/16
f 79/65/15 69/55/15 77/63/15
f 80/66/23 81/67/23 82/68/23
f 83/69/1 84/70/1 80/66/1
f 84/70/23 85/71/23 80/66/23
f 81/67/24 80/66/24 85/71/24
f 86/72/24 87/73/24 83/69/24
f 87/73/24 88/74/24 83/69/24
f 88/74/1 89/75/1 83/69/1
f 83/69/1 89/75/1 84/70/1
f 90/76/25 91/77/25 92/78/25
f 90/76/26 92/78/26 93/79/26
f 94/80/27 95/81/27 96/82/27
f 97/83/28 98/84/28 94/80/28
f 95/81/29 94/80/29 98/84/29
f 99/85/30 100/86/30 97/83/30
f 100/86/28 101/87/28 97/83/28
f 101/87/31 98/84/31 97/83/31
f 101/87/28 102/88/28 98/84/28
f 103/89/30 104/90/30 102/88/30
f 104/90/28 105/91/28 102/88/28
f 102/88/32 105/91/32 98/84/32
f 105/91/33 106/92/33 98/84/33
f 107/93/28 108/94/28 106/92/28
f 108/94/28 109/95/28 106/92/28
f 109/95/34 110/96/34 106/92/34
f 106/92/28 110/96/28 98/84/28
f 111/97/35 110/96/35 109/95/35
f 112/98/28 113/99/28 111/97/28
f 113/99/28 114/100/28 111/97/28
f 114/100/28 110/96/28 111/97/28
f 115/101/28 110/96/28 114/100/28
f 116/102/36 117/103/36 115/101/36
f 117/103/31 110/96/31 115/101/31
f 118/104/37 119/105/37 120/106/37
f 121/107/38 122/108/38 118/104/38
f 119/105/39 118/104/39 122/108/39
f 123/109/40 124/110/40 121/107/40
f 124/110/5 125/111/5 121/107/5
f 125/111/41 122/108/41 121/107/41
f 126/112/5 127/113/5 125/111/5
f 125/111/5 127/113/5 122/108/5
f 128/114/38 129/115/38 126/112/38
f 129/115/39 130/116/39 126/112/39
f 130/116/5 127/113/5 126/112/5
f 131/117/5 127/113/5 130/116/5
f 132/118/39 133/119/39 131/117/39
f 134/120/5 127/113/5 131/117/5
s 1
f 1/121/42 2/1/43 3/122/44
f 1/121/42 4/2/45 2/1/43
f 6/123/46 7/124/47 8/125/2
f 7/124/47 9/126/30 10/127/28
f 6/123/46 9/126/30 7/124/47
f 11/128/48 12/4/49 13/129/50
f 11/128/48 14/5/51 12/4/49
f 16/130/52 17/7/53 18/131/54
f 16/130/52 19/8/55 17/7/53
f 36/27/9 37/28/9 38/132/9
f 41/133/10 42/134/10 39/25/8
f 42/134/10 43/29/56 39/25/8
f 43/29/56 40/26/8 39/25/8
f 133/119/57 134/120/58 131/117/59
