# Blender v3.0.1 OBJ File: 'rockerfeller_plaza.blend'
# www.blender.org
o geometryt000010000010000110010110000110000110100000010100st221
v 756.973145 -102.775085 163.987686
v 756.973145 -102.775085 148.753021
v 756.196777 -104.219086 148.753021
v 756.196777 -104.219086 163.987686
v 759.936707 -97.263046 163.987686
v 759.936707 -97.263046 148.753021
v 757.607666 -101.594986 148.753021
v 757.607666 -101.594986 163.987686
v 762.900269 -91.750961 148.753021
v 760.571228 -96.082932 148.753021
v 760.571228 -96.082932 163.987686
v 762.900269 -91.750961 163.987686
v 765.863892 -86.238884 148.753021
v 763.534790 -90.570854 148.753021
v 763.534790 -90.570854 163.987686
v 765.863892 -86.238884 163.987686
v 768.827454 -80.726807 148.753021
v 766.498352 -85.058777 148.753021
v 766.498352 -85.058777 163.987686
v 768.827454 -80.726807 163.987686
v 770.238281 -78.102692 148.753021
v 769.461914 -79.546684 148.753021
v 769.461914 -79.546684 163.987686
v 770.238281 -78.102692 163.987686
v 756.997253 -105.040482 148.753021
v 759.886108 -106.591682 148.753021
v 759.886108 -106.591682 163.987686
v 756.997253 -105.040482 163.987686
v 761.013306 -106.805283 148.753021
v 761.789673 -105.361282 148.753021
v 761.789673 -105.361282 163.987686
v 761.013306 -106.805283 163.987686
v 762.424133 -104.181183 163.987686
v 762.424133 -104.181183 148.753021
v 764.753235 -99.849228 148.753021
v 764.753235 -99.849228 163.987686
v 765.387756 -98.669113 163.987686
v 765.387756 -98.669113 148.753021
v 767.716797 -94.337143 148.753021
v 767.716797 -94.337143 163.987686
v 768.351318 -93.157028 148.753021
v 770.680359 -88.825058 148.753021
v 770.680359 -88.825058 163.987686
v 768.351318 -93.157028 163.987686
v 771.314880 -87.644943 148.753021
v 773.643921 -83.312973 148.753021
v 773.643921 -83.312973 163.987686
v 771.314880 -87.644943 163.987686
v 774.278442 -82.132866 163.987686
v 774.278442 -82.132866 148.753021
v 775.054810 -80.688873 148.753021
v 775.054810 -80.688873 163.987686
v 774.254333 -79.867485 148.753021
v 771.365479 -78.316353 148.753021
v 771.365479 -78.316353 163.987686
v 774.254333 -79.867485 163.987686
vt 0.000000 0.800000
vt 0.000000 0.000000
vt 0.166670 0.000000
vt 0.166670 0.800000
vt 0.000000 0.800000
vt 0.000000 0.000000
vt 0.500000 0.000000
vt 0.500000 0.800000
vt 0.000000 0.000000
vt 0.500000 0.000000
vt 0.500000 0.800000
vt 0.000000 0.800000
vt 0.000000 0.000000
vt 0.500000 0.000000
vt 0.500000 0.800000
vt 0.000000 0.800000
vt 0.000000 0.000000
vt 0.500000 0.000000
vt 0.500000 0.800000
vt 0.000000 0.800000
vt 0.000000 0.000000
vt 0.166670 0.000000
vt 0.166670 0.800000
vt 0.000000 0.800000
vt 0.000000 0.000000
vt 0.333330 0.000000
vt 0.333330 0.800000
vt 0.000000 0.800000
vt 0.000000 0.000000
vt 0.166670 0.000000
vt 0.166670 0.800000
vt 0.000000 0.800000
vt 0.000000 0.800000
vt 0.000000 0.000000
vt 0.500000 0.000000
vt 0.500000 0.800000
vt 0.000000 0.800000
vt 0.000000 0.000000
vt 0.500000 0.000000
vt 0.500000 0.800000
vt 0.000000 0.000000
vt 0.500000 0.000000
vt 0.500000 0.800000
vt 0.000000 0.800000
vt 0.000000 0.000000
vt 0.500000 0.000000
vt 0.500000 0.800000
vt 0.000000 0.800000
vt 0.000000 0.800000
vt 0.000000 0.000000
vt 0.166670 0.000000
vt 0.166670 0.800000
vt 0.000000 0.000000
vt 0.333330 0.000000
vt 0.333330 0.800000
vt 0.000000 0.800000
vn -0.8808 0.4736 0.0000
vn -0.8808 0.4735 0.0000
vn -0.4731 -0.8810 0.0000
vn 0.8808 -0.4736 0.0000
vn 0.8808 -0.4735 0.0000
vn 0.4731 0.8810 0.0000
s off
f 1/1/1 2/2/1 3/3/1
f 1/1/1 3/3/1 4/4/1
f 5/5/2 6/6/2 7/7/2
f 5/5/2 7/7/2 8/8/2
f 9/9/2 10/10/2 11/11/2
f 12/12/1 9/9/1 11/11/1
f 13/13/1 14/14/1 15/15/1
f 16/16/2 13/13/2 15/15/2
f 17/17/2 18/18/2 19/19/2
f 20/20/1 17/17/1 19/19/1
f 21/21/1 22/22/1 23/23/1
f 24/24/1 21/21/1 23/23/1
f 25/25/3 26/26/3 27/27/3
f 28/28/3 25/25/3 27/27/3
f 29/29/4 30/30/4 31/31/4
f 32/32/4 29/29/4 31/31/4
f 33/33/5 34/34/5 35/35/5
f 33/33/5 35/35/5 36/36/5
f 37/37/5 38/38/5 39/39/5
f 37/37/5 39/39/5 40/40/5
f 41/41/5 42/42/5 43/43/5
f 44/44/5 41/41/5 43/43/5
f 45/45/5 46/46/5 47/47/5
f 48/48/5 45/45/5 47/47/5
f 49/49/5 50/50/5 51/51/5
f 49/49/4 51/51/4 52/52/4
f 53/53/6 54/54/6 55/55/6
f 56/56/6 53/53/6 55/55/6
