# Blender v3.0.1 OBJ File: 'rockerfeller_plaza.blend'
# www.blender.org
o geometryt000010000010000110010110000110000110100000000110st70_A
v 580.734619 -63.452377 204.209076
v 580.734619 -63.452377 193.609070
v 589.537720 -68.082787 193.609070
v 589.800354 -68.220963 204.209076
v 589.800354 -68.220963 193.609070
v 585.786621 -51.804398 193.609070
v 589.247192 -45.275570 204.209076
v 589.247192 -45.275570 193.609070
v 580.337952 -62.083778 204.209076
v 583.669067 -55.799297 193.609070
v 582.803467 -57.432350 193.609070
v 580.897278 -61.028637 193.609070
v 580.868286 -61.083260 193.609070
v 580.655334 -61.485069 193.609070
v 580.429504 -61.911087 193.609070
v 580.337952 -62.083778 193.609070
v 599.671204 -49.598629 193.609070
v 590.868164 -44.968227 193.609070
v 599.671204 -49.598629 204.209076
v 590.605469 -44.830048 204.209076
v 590.605469 -44.830048 193.609070
v 592.802612 -64.673836 193.609070
v 591.158630 -67.775444 204.209076
v 591.158630 -67.775444 193.609070
v 594.538208 -61.399540 193.609070
v 595.625061 -59.349079 193.609070
v 599.508606 -52.022358 193.609070
v 600.067932 -50.967228 204.209076
v 599.646179 -51.762680 193.609070
v 599.762085 -51.544018 193.609070
v 600.067932 -50.967228 193.609070
vt 0.000000 1.000000
vt 0.000000 0.000000
vt 1.699290 0.000000
vt 1.750000 1.000000
vt 1.750000 0.000000
vt 1.262400 0.000000
vt 0.000000 1.000000
vt 0.000000 0.000000
vt 3.250000 1.000000
vt 2.034850 0.000000
vt 2.350610 0.000000
vt 3.045980 0.000000
vt 3.056540 0.000000
vt 3.134230 0.000000
vt 3.216610 0.000000
vt 3.250000 0.000000
vt 0.000000 0.000000
vt 1.699290 0.000000
vt 0.000000 1.000000
vt 1.750000 1.000000
vt 0.599720 0.000000
vt 0.000000 1.000000
vt 0.000000 0.000000
vt 1.232830 0.000000
vt 1.629300 0.000000
vt 3.250000 1.000000
vt 3.045980 0.000000
vt 3.096190 0.000000
vt 3.138470 0.000000
vt 3.250000 0.000000
vt 1.750000 0.000000
vn -0.4655 -0.8850 0.0000
vn -0.4657 -0.8849 0.0000
vn -0.8836 0.4683 0.0000
vn -0.8835 0.4684 -0.0000
vn -0.8837 0.4680 0.0001
vn -0.8835 0.4685 0.0000
vn 0.4655 0.8850 0.0000
vn 0.8836 -0.4683 0.0000
vn 0.8835 -0.4683 -0.0000
vn 0.8837 -0.4681 -0.0000
vn 0.8834 -0.4686 -0.0000
vn 0.8835 -0.4684 0.0000
vn 0.4655 0.8851 0.0000
s off
f 1/1/1 2/2/1 3/3/1
f 4/4/2 3/3/2 5/5/2
f 4/4/1 1/1/1 3/3/1
f 6/6/3 7/7/3 8/8/3
f 9/9/3 6/6/3 10/10/3
f 6/6/3 9/9/3 7/7/3
f 11/11/4 9/9/4 10/10/4
f 11/11/3 12/12/3 9/9/3
f 12/12/5 13/13/5 9/9/5
f 9/9/4 13/13/4 14/14/4
f 9/9/3 14/14/3 15/15/3
f 16/16/6 9/9/6 15/15/6
f 17/17/7 18/18/7 19/19/7
f 19/19/7 18/18/7 20/20/7
f 22/21/8 23/22/8 24/23/8
f 22/21/9 25/24/9 23/22/9
f 26/25/8 23/22/8 25/24/8
f 23/22/8 26/25/8 28/26/8
f 28/26/10 27/27/10 29/28/10
f 30/29/11 28/26/11 29/28/11
f 31/30/12 28/26/12 30/29/12
s 1
f 20/20/13 18/18/13 21/31/13
f 26/25/8 27/27/8 28/26/8
