# Blender v3.0.1 OBJ File: 'rockerfeller_plaza.blend'
# www.blender.org
o geometryt000010000010000110010110000110000110100000110010st81_P
v 1107.730835 -41.033310 601.882996
v 1110.253784 -42.416149 601.882996
v 1110.253784 -42.416149 604.882996
v 1107.730835 -41.033310 604.882996
v 1110.481201 -42.540810 601.882996
v 1110.493652 -42.547661 601.882996
v 1110.481201 -42.540810 604.882996
v 1113.004150 -43.923649 604.882996
v 1113.004150 -43.923649 601.882996
v 1113.231567 -44.048309 604.882996
v 1113.231567 -44.048309 601.882996
v 1114.493042 -44.739731 601.882996
v 1114.493042 -44.739731 604.882996
v 1114.720459 -44.864388 601.882996
v 1115.981934 -45.555809 601.882996
v 1115.981934 -45.555809 604.882996
v 1114.720459 -44.864388 604.882996
v 1116.209351 -45.680458 604.882996
v 1116.209351 -45.680458 601.882996
v 1117.470825 -46.371880 601.882996
v 1117.470825 -46.371880 604.882996
v 1117.698242 -46.496540 601.882996
v 1120.221191 -47.879379 601.882996
v 1120.221191 -47.879379 604.882996
v 1117.698242 -46.496540 604.882996
v 1120.448608 -48.004040 604.882996
v 1120.448608 -48.004040 601.882996
v 1122.943970 -49.371758 601.882996
v 1122.971436 -49.386879 604.882996
v 1122.971436 -49.386879 601.882996
v 1110.799561 -41.443871 590.882996
v 1109.514648 -40.739597 590.882996
v 1110.799561 -41.443871 604.882996
v 1108.276611 -40.061020 604.882996
v 1108.276611 -40.061020 590.882996
v 1113.549927 -42.951370 590.882996
v 1111.026978 -41.568520 590.882996
v 1111.026978 -41.568520 604.882996
v 1113.549927 -42.951370 604.882996
v 1115.038818 -43.767441 590.882996
v 1114.796631 -43.634670 590.882996
v 1115.038818 -43.767441 604.882996
v 1113.777344 -43.076019 604.882996
v 1113.777344 -43.076019 590.882996
v 1116.527710 -44.583519 604.882996
v 1116.527710 -44.583519 590.882996
v 1115.266235 -43.892097 590.882996
v 1115.266235 -43.892097 604.882996
v 1118.016602 -45.399597 604.882996
v 1118.016602 -45.399597 590.882996
v 1116.755127 -44.708179 590.882996
v 1116.755127 -44.708179 604.882996
v 1120.766968 -46.907101 590.882996
v 1118.244019 -45.524250 590.882996
v 1118.244019 -45.524250 604.882996
v 1120.766968 -46.907101 604.882996
v 1123.517334 -48.414600 604.882996
v 1123.517334 -48.414600 590.882996
v 1120.994385 -47.031750 590.882996
v 1120.994385 -47.031750 604.882996
v 1110.799561 -41.443871 589.882996
v 1110.799561 -41.443871 583.882996
v 1110.284912 -41.161789 583.882996
v 1108.276611 -40.061020 583.882996
v 1109.624756 -40.799908 589.882996
v 1108.276611 -40.061020 589.882996
v 1113.549927 -42.951370 583.882996
v 1111.026978 -41.568520 583.882996
v 1111.026978 -41.568520 589.882996
v 1113.549927 -42.951370 589.882996
v 1114.152100 -43.281399 589.882996
v 1115.038818 -43.767441 583.882996
v 1113.777344 -43.076019 583.882996
v 1115.038818 -43.767441 589.882996
v 1113.777344 -43.076019 589.882996
v 1116.527710 -44.583519 583.882996
v 1115.266235 -43.892097 583.882996
v 1115.266235 -43.892097 589.882996
v 1116.527710 -44.583519 589.882996
v 1118.016602 -45.399597 583.882996
v 1116.755127 -44.708179 583.882996
v 1116.755127 -44.708179 589.882996
v 1118.016602 -45.399597 589.882996
v 1120.766968 -46.907101 589.882996
v 1120.766968 -46.907101 583.882996
v 1118.244019 -45.524250 583.882996
v 1118.244019 -45.524250 589.882996
v 1123.517334 -48.414600 583.882996
v 1120.994385 -47.031750 583.882996
v 1120.994385 -47.031750 589.882996
v 1123.517334 -48.414600 589.882996
vt 0.000000 0.000000
vt 0.500000 0.000000
vt 0.500000 0.250000
vt 0.000000 0.250000
vt 0.000000 0.000000
vt 0.002480 0.000000
vt 0.000000 0.250000
vt 0.500000 0.250000
vt 0.500000 0.000000
vt 0.000000 0.250000
vt 0.000000 0.000000
vt 0.250000 0.000000
vt 0.250000 0.250000
vt 0.000000 0.000000
vt 0.250000 0.000000
vt 0.250000 0.250000
vt 0.000000 0.250000
vt 0.000000 0.250000
vt 0.000000 0.000000
vt 0.250000 0.000000
vt 0.250000 0.250000
vt 0.000000 0.000000
vt 0.500000 0.000000
vt 0.500000 0.250000
vt 0.000000 0.250000
vt 0.000000 0.250000
vt 0.000000 0.000000
vt 0.494530 0.000000
vt 0.500000 0.250000
vt 0.000000 0.000000
vt 0.254650 0.000000
vt 0.000000 1.000000
vt 0.500000 1.000000
vt 0.500000 0.000000
vt 0.000000 0.000000
vt 0.500000 0.000000
vt 0.500000 1.000000
vt 0.000000 1.000000
vt 0.000000 0.000000
vt 0.048010 0.000000
vt 0.000000 1.000000
vt 0.250000 1.000000
vt 0.250000 0.000000
vt 0.000000 1.000000
vt 0.000000 0.000000
vt 0.250000 0.000000
vt 0.250000 1.000000
vt 0.000000 1.000000
vt 0.000000 0.000000
vt 0.250000 0.000000
vt 0.250000 1.000000
vt 0.000000 0.000000
vt 0.500000 0.000000
vt 0.500000 1.000000
vt 0.000000 1.000000
vt 0.000000 1.000000
vt 0.000000 0.000000
vt 0.500000 0.000000
vt 0.500000 1.000000
vt 0.500000 0.000000
vt 0.232840 0.500000
vt 0.101990 0.000000
vt 0.000000 0.500000
vt 0.500000 0.500000
vt 0.000000 0.000000
vt 0.500000 0.000000
vt 0.500000 0.500000
vt 0.000000 0.500000
vt 0.175740 0.500000
vt 0.000000 0.000000
vt 0.250000 0.000000
vt 0.000000 0.500000
vt 0.250000 0.500000
vt 0.000000 0.000000
vt 0.250000 0.000000
vt 0.250000 0.500000
vt 0.000000 0.500000
vt 0.000000 0.000000
vt 0.250000 0.000000
vt 0.250000 0.500000
vt 0.000000 0.500000
vt 0.000000 0.500000
vt 0.000000 0.000000
vt 0.500000 0.000000
vt 0.500000 0.500000
vt 0.000000 0.000000
vt 0.500000 0.000000
vt 0.500000 0.500000
vt 0.000000 0.500000
vt 0.500000 0.000000
vt 0.000000 0.000000
vn -0.4807 -0.8769 0.0000
vn -0.4806 -0.8769 0.0000
vn -0.4797 -0.8774 0.0000
vn 0.4807 0.8769 0.0000
vn 0.4806 0.8769 0.0000
vn -0.4826 -0.8758 -0.0000
s off
f 1/1/1 2/2/1 3/3/1
f 4/4/2 1/1/2 3/3/2
f 5/5/3 6/6/3 7/7/3
f 8/8/2 6/6/2 9/9/2
f 7/7/1 6/6/1 8/8/1
f 10/10/1 11/11/1 12/12/1
f 10/10/1 12/12/1 13/13/1
f 14/14/1 15/15/1 16/16/1
f 17/17/2 14/14/2 16/16/2
f 18/18/2 19/19/2 20/20/2
f 18/18/2 20/20/2 21/21/2
f 22/22/2 23/23/2 24/24/2
f 25/25/2 22/22/2 24/24/2
f 26/26/2 27/27/2 28/28/2
f 29/29/2 26/26/2 28/28/2
f 31/30/4 32/31/4 33/32/4
f 34/33/4 32/31/4 35/34/4
f 33/32/4 32/31/4 34/33/4
f 36/35/4 37/36/4 38/37/4
f 39/38/5 36/35/5 38/37/5
f 40/39/4 41/40/4 42/41/4
f 43/42/5 41/40/5 44/43/5
f 42/41/4 41/40/4 43/42/4
f 45/44/4 46/45/4 47/46/4
f 45/44/4 47/46/4 48/47/4
f 49/48/5 50/49/5 51/50/5
f 49/48/4 51/50/4 52/51/4
f 53/52/5 54/53/5 55/54/5
f 56/55/4 53/52/4 55/54/4
f 57/56/4 58/57/4 59/58/4
f 57/56/4 59/58/4 60/59/4
f 64/60/5 65/61/5 63/62/5
f 65/61/4 61/63/4 63/62/4
f 66/64/5 65/61/5 64/60/5
f 67/65/4 68/66/4 69/67/4
f 70/68/5 67/65/5 69/67/5
f 71/69/5 72/70/5 73/71/5
f 74/72/4 72/70/4 71/69/4
f 71/69/4 73/71/4 75/73/4
f 76/74/4 77/75/4 78/76/4
f 79/77/4 76/74/4 78/76/4
f 80/78/5 81/79/5 82/80/5
f 83/81/4 80/78/4 82/80/4
f 84/82/4 85/83/4 86/84/4
f 84/82/5 86/84/5 87/85/5
f 88/86/5 89/87/5 90/88/5
f 91/89/5 88/86/5 90/88/5
s 1
f 29/29/6 28/28/6 30/90/6
f 61/63/5 62/91/5 63/62/5
