# Blender v3.0.1 OBJ File: 'rockerfeller_plaza.blend'
# www.blender.org
o geometryt000010000010000110010110000110000100110010110110st60
v 154.464981 -252.095627 582.013184
v 154.464981 -252.095627 566.635132
v 153.069077 -254.767319 566.635132
v 153.069077 -254.767319 582.013184
v 156.131683 -248.905426 582.013184
v 156.131683 -248.905426 566.635132
v 154.735779 -251.577225 566.635132
v 154.735779 -251.577225 582.013184
v 157.100479 -247.051117 582.013184
v 157.100479 -247.051117 566.635132
v 156.402481 -248.387024 566.635132
v 156.402481 -248.387024 582.013184
v 159.465088 -242.525024 582.013184
v 159.465088 -242.525024 566.635132
v 157.371277 -246.532730 566.635132
v 157.371277 -246.532730 582.013184
v 160.433884 -240.670731 582.013184
v 160.433884 -240.670731 566.635132
v 159.735977 -242.006622 566.635132
v 159.735977 -242.006622 582.013184
v 162.100586 -237.480530 582.013184
v 162.100586 -237.480530 566.635132
v 160.704788 -240.152328 566.635132
v 160.704788 -240.152328 582.013184
v 163.767288 -234.290421 566.635132
v 162.371490 -236.962128 566.635132
v 162.371490 -236.962128 582.013184
v 163.767288 -234.290421 582.013184
v 153.666489 -255.467926 566.635132
v 156.339478 -256.861542 566.635132
v 156.339478 -256.861542 582.013184
v 153.666489 -255.467926 582.013184
v 157.256287 -256.950439 566.635132
v 158.651276 -254.278229 566.635132
v 158.651276 -254.278229 582.013184
v 157.256287 -256.950439 582.013184
v 158.921677 -253.760330 566.635132
v 160.316681 -251.088120 566.635132
v 160.316681 -251.088120 582.013184
v 158.921677 -253.760330 582.013184
v 160.587082 -250.570129 566.635132
v 161.284576 -249.234024 566.635132
v 161.284576 -249.234024 582.013184
v 160.587082 -250.570129 582.013184
v 161.554977 -248.716125 566.635132
v 163.647476 -244.707825 566.635132
v 163.647476 -244.707825 582.013184
v 161.554977 -248.716125 582.013184
v 163.917877 -244.189926 566.635132
v 164.615387 -242.853821 566.635132
v 164.615387 -242.853821 582.013184
v 163.917877 -244.189926 582.013184
v 164.885788 -242.335922 566.635132
v 166.280777 -239.663727 566.635132
v 166.280777 -239.663727 582.013184
v 164.885788 -242.335922 582.013184
v 166.551178 -239.145828 582.013184
v 166.551178 -239.145828 566.635132
v 167.946182 -236.473618 566.635132
v 167.946182 -236.473618 582.013184
v 167.352386 -235.774124 566.635132
v 164.680588 -234.378220 566.635132
v 164.680588 -234.378220 582.013184
v 167.352386 -235.774124 582.013184
vt 0.000000 1.333330
vt 0.000000 0.000000
vt 0.500000 0.000000
vt 0.500000 1.333330
vt 0.000000 1.333330
vt 0.000000 0.000000
vt 0.500000 0.000000
vt 0.500000 1.333330
vt 0.000000 1.333330
vt 0.000000 0.000000
vt 0.250000 0.000000
vt 0.250000 1.333330
vt 0.000000 1.333330
vt 0.000000 0.000000
vt 0.750000 0.000000
vt 0.750000 1.333330
vt 0.000000 1.333330
vt 0.000000 0.000000
vt 0.250000 0.000000
vt 0.250000 1.333330
vt 0.000000 1.333330
vt 0.000000 0.000000
vt 0.500000 0.000000
vt 0.500000 1.333330
vt 0.000000 0.000000
vt 0.500000 0.000000
vt 0.500000 1.333330
vt 0.000000 1.333330
vt 0.000000 0.000000
vt 0.500000 0.000000
vt 0.500000 1.333330
vt 0.000000 1.333330
vt 0.000000 0.000000
vt 0.500000 0.000000
vt 0.500000 1.333330
vt 0.000000 1.333330
vt 0.000000 0.000000
vt 0.500000 0.000000
vt 0.500000 1.333330
vt 0.000000 1.333330
vt 0.000000 0.000000
vt 0.250000 0.000000
vt 0.250000 1.333330
vt 0.000000 1.333330
vt 0.000000 0.000000
vt 0.750000 0.000000
vt 0.750000 1.333330
vt 0.000000 1.333330
vt 0.000000 0.000000
vt 0.250000 0.000000
vt 0.250000 1.333330
vt 0.000000 1.333330
vt 0.000000 0.000000
vt 0.500000 0.000000
vt 0.500000 1.333330
vt 0.000000 1.333330
vt 0.000000 1.333330
vt 0.000000 0.000000
vt 0.500000 0.000000
vt 0.500000 1.333330
vt 0.000000 0.000000
vt 0.500000 0.000000
vt 0.500000 1.333330
vt 0.000000 1.333330
vn -0.8863 0.4631 0.0000
vn -0.8863 0.4630 0.0000
vn -0.4623 -0.8867 0.0000
vn 0.8865 -0.4628 0.0000
vn 0.4631 0.8863 0.0000
s off
f 1/1/1 2/2/1 3/3/1
f 1/1/1 3/3/1 4/4/1
f 5/5/1 6/6/1 7/7/1
f 5/5/1 7/7/1 8/8/1
f 9/9/1 10/10/1 11/11/1
f 9/9/1 11/11/1 12/12/1
f 13/13/1 14/14/1 15/15/1
f 13/13/1 15/15/1 16/16/1
f 17/17/2 18/18/2 19/19/2
f 17/17/2 19/19/2 20/20/2
f 21/21/2 22/22/2 23/23/2
f 21/21/2 23/23/2 24/24/2
f 25/25/1 26/26/1 27/27/1
f 28/28/2 25/25/2 27/27/2
f 29/29/3 30/30/3 31/31/3
f 32/32/3 29/29/3 31/31/3
f 33/33/4 34/34/4 35/35/4
f 36/36/4 33/33/4 35/35/4
f 37/37/4 38/38/4 39/39/4
f 40/40/4 37/37/4 39/39/4
f 41/41/4 42/42/4 43/43/4
f 44/44/4 41/41/4 43/43/4
f 45/45/4 46/46/4 47/47/4
f 48/48/4 45/45/4 47/47/4
f 49/49/4 50/50/4 51/51/4
f 52/52/4 49/49/4 51/51/4
f 53/53/4 54/54/4 55/55/4
f 56/56/4 53/53/4 55/55/4
f 57/57/4 58/58/4 59/59/4
f 57/57/4 59/59/4 60/60/4
f 61/61/5 62/62/5 63/63/5
f 64/64/5 61/61/5 63/63/5
