# Blender v3.0.1 OBJ File: 'rockerfeller_plaza.blend'
# www.blender.org
o geometryt000010000010000110010110000110000100110110010010st94_M
v 85.689995 -71.909409 887.254028
v 85.689995 -71.909409 843.123840
v 85.364067 -72.481422 862.254028
v 85.364067 -72.481422 887.254028
v 86.419960 -70.628296 843.123840
v 85.364067 -72.481422 842.254028
v 86.419960 -70.628296 887.254028
v 86.745880 -70.056267 887.254028
v 86.745880 -70.056267 842.254028
v 85.364067 -72.481422 887.254028
v 85.364067 -72.481422 862.254028
v 85.999947 -72.824905 862.254028
v 85.999947 -72.824905 887.254028
v 93.783844 -77.029427 862.254028
v 94.581253 -77.460144 862.254028
v 94.581253 -77.460144 872.254028
v 93.783844 -77.029427 874.754028
v 109.176476 -85.343849 872.254028
v 116.474136 -89.285698 872.254028
v 115.838234 -88.942223 874.754028
v 116.474136 -89.285698 887.254028
v 115.838234 -88.942223 887.254028
v 87.259354 -69.108368 942.254089
v 87.259354 -69.108368 843.123840
v 86.745880 -70.056267 887.254028
v 86.745880 -70.056267 942.254089
v 92.175499 -60.033039 843.123840
v 86.745880 -70.056267 842.254028
v 92.175499 -60.033039 942.254089
v 92.688980 -59.085140 862.254028
v 92.688980 -59.085140 842.254028
v 92.688980 -59.085140 942.254089
v 86.745880 -70.056267 887.254028
v 87.319473 -70.379364 887.254028
v 86.745880 -70.056267 942.254089
v 88.020523 -70.774269 942.254089
v 88.020523 -70.774269 887.254028
v 87.424065 -71.758163 957.254089
v 87.424065 -71.758163 887.254028
v 88.343506 -72.253944 887.254028
v 88.343506 -72.253944 957.254089
v 90.939156 -73.653572 957.254089
v 90.939156 -73.653572 887.254028
v 91.858597 -74.149368 887.254028
v 91.858597 -74.149368 957.254089
v 87.787125 -71.159279 887.254028
v 87.424065 -71.758163 887.254028
v 87.424065 -71.758163 957.254089
v 88.020523 -70.774269 942.254089
v 88.020523 -70.774269 957.254089
v 88.020523 -70.774269 887.254028
v 88.184875 -70.469193 942.254089
v 88.020523 -70.774269 942.254089
v 88.020523 -70.774269 957.254089
v 88.184875 -70.469193 984.254089
v 88.020523 -70.774269 984.254089
v 89.747879 -67.567955 984.254089
v 89.747879 -67.567955 942.254089
v 89.583527 -67.873024 942.254089
v 89.583527 -67.873024 984.254089
v 88.020523 -70.774269 984.254089
v 88.020523 -70.774269 957.254089
v 88.917458 -71.255905 957.254089
v 88.917458 -71.255905 984.254089
v 91.515533 -72.651016 957.254089
v 91.577377 -72.684227 957.254089
v 92.412468 -73.132652 972.254089
v 91.515533 -72.651016 984.254089
v 92.412468 -73.132652 957.254089
v 92.412468 -73.132652 984.254089
v 90.092407 -66.935493 984.254089
v 90.092407 -66.935493 942.254089
v 89.747879 -67.567955 942.254089
v 89.747879 -67.567955 984.254089
v 91.847633 -63.713398 984.254089
v 91.847633 -63.713398 942.254089
v 91.503105 -64.345856 942.254089
v 91.503105 -64.345856 984.254089
v 92.196907 -63.901119 984.254089
v 92.196907 -63.901119 942.254089
v 91.847633 -63.713398 942.254089
v 91.847633 -63.713398 984.254089
v 95.143730 -65.484932 984.254089
v 95.143730 -65.484932 942.254089
v 94.794456 -65.297203 942.254089
v 94.794456 -65.297203 984.254089
v 91.858597 -74.149368 957.254089
v 91.858597 -74.149368 887.254028
v 92.803314 -74.659698 887.254028
v 92.803314 -74.659698 972.254089
v 91.858597 -74.149368 972.254089
v 112.262733 -85.171516 972.254089
v 112.262733 -85.171516 887.254028
v 113.207535 -85.681854 887.254028
v 113.207535 -85.681854 972.254089
v 91.858597 -74.149368 972.254089
v 91.922508 -74.032043 957.254089
v 91.858597 -74.149368 957.254089
v 92.412468 -73.132652 972.254089
v 92.412468 -73.132652 957.254089
v 92.408043 -73.140884 984.254089
v 92.408043 -73.140884 972.254089
v 92.777557 -73.339577 972.254089
v 92.777557 -73.339577 984.254089
v 117.451736 -86.607132 984.254089
v 117.451736 -86.607132 887.254028
v 117.821236 -86.805824 887.254028
v 117.821236 -86.805824 984.254089
v 93.034790 -59.271118 942.254089
v 93.034790 -59.271118 862.254028
v 92.688980 -59.085140 862.254028
v 92.688980 -59.085140 942.254089
v 97.276344 -61.552280 942.254089
v 97.276344 -61.552280 862.254028
v 96.930534 -61.366310 862.254028
v 96.930534 -61.366310 942.254089
v 95.143730 -65.484932 984.254089
v 95.774506 -64.321754 942.254089
v 95.143730 -65.484932 942.254089
v 95.216263 -65.351166 984.254089
v 95.570259 -64.698402 959.854065
v 95.825584 -64.227554 942.254089
v 97.485916 -61.167408 893.023254
v 97.485916 -61.167408 862.254028
v 97.276344 -61.552280 862.254028
v 97.276344 -61.552280 942.254089
v 97.968193 -60.281700 893.023254
v 98.400604 -59.487591 862.254028
v 98.191040 -59.872459 862.254028
v 98.191040 -59.872459 877.166626
v 98.484718 -59.333118 862.856079
v 98.490479 -59.322548 862.254028
v 98.483749 -59.334919 862.254028
v 97.276344 -61.552280 984.254089
v 97.324150 -61.464500 984.254089
v 99.002426 -59.144501 941.554077
v 99.002426 -59.144501 862.254028
v 98.681679 -58.971409 862.254028
v 98.681679 -58.971409 984.254089
v 98.809105 -59.040180 984.254089
v 99.897354 -59.627430 941.554077
v 101.218796 -60.340508 889.704041
v 100.300026 -59.844719 889.704041
v 100.300026 -59.844719 925.754028
v 101.903046 -60.709751 862.856079
v 101.918388 -60.718029 862.254028
v 101.900436 -60.708351 862.254028
v 101.597633 -60.544941 862.254028
v 101.597633 -60.544941 874.839539
v 102.635948 -60.609329 984.254089
v 102.635948 -60.609329 862.254028
v 102.428108 -60.993088 862.254028
v 102.428108 -60.993088 984.254089
v 107.056900 -52.446339 984.254089
v 107.056900 -52.446339 862.254028
v 106.849068 -52.830090 862.254028
v 106.849068 -52.830090 984.254089
v 108.042366 -52.978951 842.254028
v 107.056900 -52.446339 842.254028
v 107.056900 -52.446339 862.254028
v 107.056900 -52.446339 984.254089
v 108.042366 -52.978951 984.254089
v 108.579880 -53.268299 984.254089
v 108.579880 -53.268299 843.123840
v 108.042366 -52.978951 984.254089
v 120.802139 -59.847919 842.254028
v 120.264633 -59.558571 843.123840
v 108.042366 -52.978951 842.254028
v 120.264633 -59.558571 984.254089
v 120.802139 -59.847919 862.254028
v 120.802139 -59.847919 984.254089
v 113.207535 -85.681854 887.254028
v 113.404938 -85.318314 887.254028
v 113.207535 -85.681854 972.254089
v 113.777840 -84.631645 972.254089
v 113.777840 -84.631645 887.254028
v 117.499733 -87.397629 887.254028
v 117.499733 -87.397629 843.123840
v 117.821533 -86.805305 887.254028
v 116.795937 -88.693268 843.123840
v 117.821533 -86.805305 842.254028
v 116.795937 -88.693268 887.254028
v 116.474136 -89.285583 872.254028
v 116.474136 -89.285583 842.254028
v 116.474136 -89.285583 887.254028
v 127.453835 -69.046127 984.254089
v 127.453835 -69.046127 843.123840
v 127.947334 -68.136314 862.254028
v 127.947334 -68.136314 984.254089
v 118.315033 -85.895493 843.123840
v 127.947334 -68.136314 842.254028
v 118.315033 -85.895493 984.254089
v 117.821533 -86.805305 887.254028
v 117.821533 -86.805305 842.254028
v 117.821533 -86.805305 984.254089
v 119.544838 -63.617550 984.254089
v 119.544838 -63.617550 862.254028
v 118.934036 -63.289021 862.254028
v 118.934036 -63.289021 984.254089
v 127.947334 -68.136314 984.254089
v 127.947334 -68.136314 862.254028
v 127.336433 -67.807793 862.254028
v 127.336433 -67.807793 984.254089
v 118.934036 -63.289021 984.254089
v 118.934036 -63.289021 862.254028
v 119.164536 -62.864300 862.254028
v 119.164536 -62.864300 984.254089
v 120.571533 -60.272640 984.254089
v 120.571533 -60.272640 862.254028
v 120.802139 -59.847919 862.254028
v 120.802139 -59.847919 984.254089
vt 2.128580 33.532040
vt 2.128580 0.648140
vt 2.785630 14.903130
vt 2.785630 33.532040
vt 0.657050 0.648140
vt 2.785630 0.000000
vt 0.657050 33.532040
vt 0.000000 33.532040
vt 0.000000 0.000000
vt 0.000000 18.628910
vt 0.000000 0.000000
vt 0.721270 0.000000
vt 0.721270 18.628910
vt 9.550480 0.000000
vt 10.454970 0.000000
vt 10.454970 7.451560
vt 9.550480 9.314460
vt 27.010210 7.451560
vt 35.287830 7.451560
vt 34.566559 9.314460
vt 35.287830 18.628910
vt 34.566559 18.628910
vt 11.376630 74.515648
vt 11.376630 0.648140
vt 12.452520 33.532040
vt 12.452520 74.515648
vt 1.075890 0.648140
vt 12.452520 0.000000
vt 1.075890 74.515648
vt 0.000000 14.903130
vt 0.000000 0.000000
vt 0.000000 74.515648
vt 0.000000 0.000000
vt 0.657020 0.000000
vt 0.000000 40.983608
vt 1.460040 40.983608
vt 1.460040 0.000000
vt 0.000000 52.160950
vt 0.000000 0.000000
vt 1.042510 0.000000
vt 1.042510 52.160950
vt 3.985580 52.160950
vt 3.985580 0.000000
vt 5.028090 0.000000
vt 5.028090 52.160950
vt 1.148280 52.160950
vt 0.000000 40.983608
vt 0.449330 0.000000
vt 0.000000 0.000000
vt 3.288900 0.000000
vt 3.634740 0.000000
vt 3.634740 11.177350
vt 3.288900 31.296570
vt 3.634740 31.296570
vt 0.000000 31.296570
vt 0.000000 0.000000
vt 0.345840 0.000000
vt 0.345840 31.296570
vt 0.000000 20.119221
vt 0.000000 0.000000
vt 1.016040 0.000000
vt 1.016040 20.119221
vt 3.959100 20.119221
vt 3.959100 0.000000
vt 4.975140 11.177350
vt 4.029160 0.000000
vt 4.975140 0.000000
vt 3.661840 31.296570
vt 3.661840 0.000000
vt 4.380610 0.000000
vt 4.380610 31.296570
vt 0.000000 31.296570
vt 0.000000 0.000000
vt 0.718770 0.000000
vt 0.718770 31.296570
vt 3.338800 31.296570
vt 3.338800 0.000000
vt 3.734530 0.000000
vt 3.734530 31.296570
vt 0.000000 31.296570
vt 0.000000 0.000000
vt 0.395730 0.000000
vt 0.395730 31.296570
vt 0.000000 52.160950
vt 0.000000 0.000000
vt 1.071610 0.000000
vt 1.071610 63.338299
vt 0.000000 63.338299
vt 23.144621 63.338299
vt 23.144621 0.000000
vt 24.216230 0.000000
vt 24.216230 63.338299
vt 1.155480 11.177350
vt 1.022150 0.000000
vt 1.155480 0.000000
vt 0.000000 11.177350
vt 0.000000 0.000000
vt 28.377859 72.280182
vt 28.377859 0.000000
vt 28.796570 0.000000
vt 28.796570 72.280182
vt 4.806460 59.612518
vt 4.806460 0.000000
vt 5.198320 0.000000
vt 5.198320 59.612518
vt 0.000000 59.612518
vt 0.000000 0.000000
vt 0.391860 0.000000
vt 0.391860 59.612518
vt 1.427510 31.296570
vt 0.106950 0.000000
vt 1.427510 0.000000
vt 1.275640 31.296570
vt 0.534560 13.114750
vt 0.000000 0.000000
vt 1.908890 22.927891
vt 1.908890 0.000000
vt 2.346250 0.000000
vt 2.346250 59.612518
vt 0.902400 22.927891
vt 0.000000 0.000000
vt 0.437360 0.000000
vt 0.437360 11.112230
vt 2.434040 90.909088
vt 0.012010 0.448620
vt 2.533790 90.909088
vt 3.306810 59.090912
vt 3.306810 0.000000
vt 3.670560 0.000000
vt 3.670560 90.909088
vt 3.526050 90.909088
vt 2.291930 59.090912
vt 0.793360 20.454550
vt 1.835280 20.454550
vt 1.835280 47.317440
vt 0.017400 0.448620
vt 0.000000 0.000000
vt 0.020350 0.000000
vt 0.363750 0.000000
vt 0.363750 9.378170
vt 9.264760 90.909088
vt 9.264760 0.000000
vt 9.700310 0.000000
vt 9.700310 90.909088
vt 0.000000 90.909088
vt 0.000000 0.000000
vt 0.435550 0.000000
vt 0.435550 90.909088
vt 0.000000 0.000000
vt 1.117950 0.000000
vt 1.117950 14.903130
vt 1.117950 105.812202
vt 0.000000 105.812202
vt 13.853030 105.812202
vt 13.853030 0.648140
vt 14.462260 105.812202
vt 0.000000 0.000000
vt 0.609230 0.648140
vt 14.462260 0.000000
vt 0.609230 105.812202
vt 0.000000 14.903130
vt 0.000000 0.000000
vt 0.412860 0.000000
vt 0.000000 63.338299
vt 1.192710 63.338299
vt 1.192710 0.000000
vt 2.144270 33.532040
vt 2.144270 0.648140
vt 2.817000 33.532040
vt 0.672740 0.648140
vt 2.817000 0.000000
vt 0.672740 33.532040
vt 0.000000 22.354691
vt 0.000000 0.000000
vt 0.000000 33.532040
vt 20.162889 105.812202
vt 20.162889 0.648140
vt 21.195841 14.903130
vt 21.195841 105.812202
vt 1.032950 0.648140
vt 21.195841 0.000000
vt 1.032950 105.812202
vt 0.000000 33.532040
vt 0.000000 0.000000
vt 0.000000 105.812202
vt 9.521440 90.909088
vt 9.521440 0.000000
vt 10.213670 0.000000
vt 10.213670 90.909088
vt 0.000000 90.909088
vt 0.000000 0.000000
vt 0.692230 0.000000
vt 0.692230 90.909088
vt 0.000000 90.909088
vt 0.000000 0.000000
vt 0.482310 0.000000
vt 0.482310 90.909088
vt 3.425370 90.909088
vt 3.425370 0.000000
vt 3.907680 0.000000
vt 3.907680 90.909088
vt 1.148280 0.000000
vt 0.000000 52.160950
vt 4.975140 20.119221
vt 0.000000 72.280182
vt 0.000000 63.338299
vt 0.418710 63.338299
vt 0.418710 72.280182
vt 0.000000 0.000000
vt 0.014050 0.000000
vt 0.000000 105.812202
vn -0.8689 0.4951 0.0000
vn -0.8688 0.4951 0.0000
vn -0.8689 0.4950 0.0000
vn -0.4753 -0.8798 0.0000
vn -0.4752 -0.8799 0.0000
vn -0.8793 0.4763 0.0000
vn -0.4908 -0.8713 0.0000
vn -0.4746 -0.8802 0.0000
vn -0.8551 0.5184 0.0000
vn -0.8804 0.4743 0.0000
vn -0.4731 -0.8810 0.0000
vn -0.8782 0.4784 0.0000
vn 0.4734 0.8808 0.0000
vn -0.4753 -0.8799 0.0000
vn -0.8781 0.4784 0.0000
vn -0.4736 -0.8808 0.0000
vn -0.4736 -0.8807 0.0000
vn 0.4736 0.8807 0.0000
vn -0.8791 0.4767 0.0000
vn -0.8791 0.4766 0.0000
vn -0.8790 0.4767 0.0000
vn -0.8782 0.4782 0.0000
vn 0.4749 0.8800 0.0000
vn 0.4750 0.8800 0.0000
vn 0.4742 0.8804 0.0000
vn -0.8793 0.4762 0.0000
vn 0.4755 0.8797 0.0000
vn 0.4740 0.8805 0.0000
vn 0.8788 -0.4772 0.0000
vn 0.8787 -0.4774 0.0000
vn 0.8787 -0.4773 -0.0000
vn 0.8790 -0.4768 0.0000
vn 0.8790 -0.4767 -0.0000
vn 0.4737 0.8807 0.0000
vn 0.8789 -0.4770 0.0000
vn 0.8788 -0.4771 0.0000
vn -0.8784 0.4779 -0.0000
vn -0.8786 0.4776 -0.0000
vn -0.8788 0.4771 -0.0000
s off
f 1/1/1 2/2/1 3/3/1
f 3/3/2 4/4/2 1/1/2
f 5/5/2 6/6/2 2/2/2
f 3/3/1 2/2/1 6/6/1
f 5/5/3 7/7/3 8/8/3
f 5/5/1 8/8/1 9/9/1
f 9/9/3 6/6/3 5/5/3
f 10/10/4 11/11/4 12/12/4
f 10/10/4 12/12/4 13/13/4
f 14/14/4 15/15/4 16/16/4
f 17/17/5 14/14/5 16/16/5
f 18/18/5 17/17/5 16/16/5
f 18/18/5 19/19/5 20/20/5
f 20/20/4 17/17/4 18/18/4
f 20/20/5 19/19/5 21/21/5
f 20/20/5 21/21/5 22/22/5
f 23/23/6 24/24/6 25/25/6
f 25/25/6 26/26/6 23/23/6
f 27/27/6 28/28/6 24/24/6
f 24/24/6 28/28/6 25/25/6
f 27/27/6 29/29/6 30/30/6
f 30/30/6 31/31/6 27/27/6
f 31/31/6 28/28/6 27/27/6
f 30/30/6 29/29/6 32/32/6
f 33/33/7 34/34/7 35/35/7
f 34/34/7 36/36/7 35/35/7
f 36/36/7 34/34/7 37/37/7
f 38/38/8 39/39/8 40/40/8
f 38/38/8 40/40/8 41/41/8
f 42/42/8 43/43/8 44/44/8
f 42/42/8 44/44/8 45/45/8
f 48/46/9 49/47/9 46/48/9
f 49/47/9 51/49/9 46/48/9
f 52/50/10 53/51/10 54/52/10
f 55/53/10 52/50/10 54/52/10
f 56/54/10 55/53/10 54/52/10
f 57/55/10 58/56/10 59/57/10
f 57/55/10 59/57/10 60/58/10
f 61/59/11 62/60/11 63/61/11
f 61/59/11 63/61/11 64/62/11
f 68/63/11 65/64/11 67/65/11
f 66/66/11 69/67/11 67/65/11
f 71/68/12 72/69/12 73/70/12
f 71/68/12 73/70/12 74/71/12
f 75/72/12 76/73/12 77/74/12
f 75/72/12 77/74/12 78/75/12
f 79/76/13 80/77/13 81/78/13
f 79/76/13 81/78/13 82/79/13
f 83/80/13 84/81/13 85/82/13
f 83/80/13 85/82/13 86/83/13
f 87/84/4 88/85/4 89/86/4
f 90/87/4 87/84/4 89/86/4
f 91/88/4 87/84/4 90/87/4
f 92/89/14 93/90/14 94/91/14
f 92/89/4 94/91/4 95/92/4
f 96/93/15 97/94/15 98/95/15
f 97/94/12 96/93/12 99/96/12
f 100/97/15 97/94/15 99/96/15
f 105/98/16 106/99/16 107/100/16
f 105/98/17 107/100/17 108/101/17
f 109/102/18 110/103/18 111/104/18
f 109/102/18 111/104/18 112/105/18
f 113/106/18 114/107/18 115/108/18
f 113/106/18 115/108/18 116/109/18
f 117/110/19 118/111/19 119/112/19
f 120/113/19 121/114/19 117/110/19
f 117/110/20 121/114/20 118/111/20
f 121/114/21 122/115/21 118/111/21
f 123/116/22 124/117/22 125/118/22
f 123/116/22 125/118/22 126/119/22
f 127/120/22 123/116/22 126/119/22
f 128/121/22 129/122/22 130/123/22
f 135/124/22 131/125/22 134/126/22
f 136/127/23 137/128/23 138/129/23
f 139/130/23 136/127/23 138/129/23
f 139/130/24 140/131/24 136/127/24
f 140/131/23 141/132/23 136/127/23
f 142/133/23 143/134/23 144/135/23
f 145/136/25 146/137/25 147/138/25
f 145/136/23 147/138/23 148/139/23
f 145/136/23 148/139/23 149/140/23
f 150/141/26 151/142/26 152/143/26
f 150/141/26 152/143/26 153/144/26
f 154/145/26 155/146/26 156/147/26
f 154/145/6 156/147/6 157/148/6
f 158/149/27 159/150/27 160/151/27
f 158/149/27 160/151/27 161/152/27
f 158/149/27 161/152/27 162/153/27
f 163/154/28 164/155/28 165/156/28
f 166/157/28 164/155/28 167/158/28
f 166/157/28 168/159/28 164/155/28
f 167/158/28 169/160/28 170/161/28
f 172/162/29 173/163/29 174/164/29
f 173/163/29 175/165/29 174/164/29
f 175/165/29 173/163/29 176/166/29
f 177/167/30 178/168/30 179/169/30
f 180/170/30 181/171/30 178/168/30
f 179/169/30 178/168/30 181/171/30
f 180/170/30 182/172/30 183/173/30
f 183/173/30 184/174/30 180/170/30
f 184/174/31 181/171/31 180/170/31
f 182/172/30 185/175/30 183/173/30
f 186/176/32 187/177/32 188/178/32
f 186/176/32 188/178/32 189/179/32
f 190/180/32 191/181/32 187/177/32
f 187/177/32 191/181/32 188/178/32
f 190/180/32 192/182/32 193/183/32
f 193/183/32 194/184/32 190/180/32
f 194/184/33 191/181/33 190/180/33
f 192/182/32 195/185/32 193/183/32
f 196/186/34 197/187/34 198/188/34
f 196/186/34 198/188/34 199/189/34
f 200/190/18 201/191/18 202/192/18
f 200/190/18 202/192/18 203/193/18
f 204/194/35 205/195/35 206/196/35
f 204/194/35 206/196/35 207/197/35
f 208/198/29 209/199/29 210/200/29
f 208/198/36 210/200/36 211/201/36
s 1
f 46/48/9 47/202/9 48/46/9
f 49/47/9 48/46/9 50/203/9
f 65/64/11 66/66/11 67/65/11
f 70/204/11 68/63/11 67/65/11
f 101/205/17 102/206/16 103/207/16
f 101/205/17 103/207/16 104/208/17
f 131/125/37 132/209/38 133/210/39
f 134/126/37 131/125/37 133/210/39
f 165/156/28 164/155/28 168/159/28
f 170/161/28 166/157/28 167/158/28
f 169/160/28 171/211/28 170/161/28
