# Blender v3.0.1 OBJ File: 'rockerfeller_plaza.blend'
# www.blender.org
o geometryt000010000010000110010110000110000110100000100100st2
v 420.613800 -180.604431 611.821228
v 418.872314 -179.669922 611.821228
v 419.459198 -178.597229 611.821228
v 427.638977 -168.365921 611.821228
v 427.154205 -186.224030 611.821228
v 419.737793 -182.235519 611.821228
v 425.540710 -167.235626 611.821228
v 430.076691 -163.819031 611.821228
v 455.224915 -166.646622 611.821228
v 439.676880 -190.841431 611.821228
v 429.311798 -187.375717 611.821228
v 427.986816 -162.688629 611.821228
v 428.838196 -161.124420 611.821228
v 430.779419 -157.449326 611.821228
v 432.424103 -154.410324 611.821228
v 441.664703 -191.906326 611.821228
v 438.800903 -192.472519 611.821228
v 427.154205 -186.224030 671.821228
v 420.613800 -180.604431 671.821228
v 419.737793 -182.235519 671.821228
v 429.311798 -187.375717 671.821228
v 427.638977 -168.365921 671.821228
v 438.800903 -192.472519 671.821228
v 439.676880 -190.841431 671.821228
v 441.664703 -191.906326 671.821228
v 455.224915 -166.646622 671.821228
v 432.424103 -154.410324 671.821228
v 430.076691 -163.819031 671.821228
v 430.779419 -157.449326 671.821228
v 428.838196 -161.124420 671.821228
v 427.986816 -162.688629 671.821228
v 425.540710 -167.235626 671.821228
v 419.459198 -178.597229 671.821228
v 418.872314 -179.669922 671.821228
vt 0.275950 0.329740
vt 0.274810 0.326250
vt 0.272670 0.327460
vt 0.251450 0.344180
vt 0.284100 0.342790
vt 0.279200 0.327930
vt 0.250060 0.339980
vt 0.242400 0.349200
vt 0.239550 0.399820
vt 0.288520 0.367920
vt 0.285510 0.347110
vt 0.241010 0.345020
vt 0.237890 0.346770
vt 0.230590 0.350770
vt 0.224530 0.354150
vt 0.289820 0.371900
vt 0.291770 0.366120
vt 0.284100 0.342790
vt 0.275950 0.329740
vt 0.279200 0.327930
vt 0.285510 0.347110
vt 0.251450 0.344180
vt 0.291770 0.366120
vt 0.288520 0.367920
vt 0.289820 0.371900
vt 0.239550 0.399820
vt 0.224530 0.354150
vt 0.242400 0.349200
vt 0.230590 0.350770
vt 0.237890 0.346770
vt 0.241010 0.345020
vt 0.250060 0.339980
vt 0.272670 0.327460
vt 0.274810 0.326250
vn -0.0001 0.0000 -1.0000
vn 0.0000 0.0000 -1.0000
vn 0.0001 0.0000 -1.0000
vn -0.0000 0.0000 1.0000
vn 0.0001 0.0000 1.0000
s off
f 1/1/1 2/2/1 3/3/1
f 3/3/2 4/4/2 1/1/2
f 1/1/2 4/4/2 5/5/2
f 1/1/2 5/5/2 6/6/2
f 7/7/2 4/4/2 3/3/2
f 8/8/2 9/9/2 4/4/2
f 4/4/2 9/9/2 10/10/2
f 10/10/2 11/11/2 4/4/2
f 5/5/2 4/4/2 11/11/2
f 12/12/3 13/13/3 8/8/3
f 13/13/2 14/14/2 8/8/2
f 14/14/2 15/15/2 8/8/2
f 15/15/2 9/9/2 8/8/2
f 10/10/2 9/9/2 16/16/2
f 11/11/2 10/10/2 17/17/2
f 18/18/4 19/19/4 20/20/4
f 18/18/4 21/21/4 22/22/4
f 18/18/4 22/22/4 19/19/4
f 23/23/4 24/24/4 21/21/4
f 22/22/4 21/21/4 24/24/4
f 25/25/4 26/26/4 24/24/4
f 26/26/4 22/22/4 24/24/4
f 26/26/4 27/27/4 28/28/4
f 26/26/4 28/28/4 22/22/4
f 29/29/4 28/28/4 27/27/4
f 29/29/4 30/30/4 28/28/4
f 31/31/4 28/28/4 30/30/4
f 22/22/4 32/32/4 33/33/4
f 19/19/4 22/22/4 33/33/4
f 19/19/5 33/33/5 34/34/5
