# Blender v3.0.1 OBJ File: 'rockerfeller_plaza.blend'
# www.blender.org
o geometryt000010000010000110010110000110000110100100000010st59
v 662.628601 -117.966080 980.340210
v 662.628601 -117.966080 931.656189
v 688.307251 -131.627884 931.656189
v 688.307251 -131.627884 980.340210
v 663.305786 -115.412178 978.629700
v 664.067871 -113.987274 931.656189
v 662.543579 -116.837074 931.656189
v 664.067871 -113.987274 985.340210
v 662.543579 -116.837074 978.629700
v 663.305786 -115.412178 985.340210
v 663.727661 -115.921478 980.340210
v 687.510559 -128.574783 980.340210
v 663.727661 -115.921478 985.340210
v 689.406250 -129.583374 985.340210
v 689.406250 -129.583374 980.340210
v 665.523071 -111.276482 990.340210
v 665.523071 -111.276482 931.656189
v 664.759644 -112.700775 931.656189
v 664.759644 -112.700775 990.340210
v 665.057861 -113.430275 985.340210
v 689.043457 -126.191376 985.340210
v 665.057861 -113.430275 990.340210
v 690.736450 -127.092079 990.340210
v 690.736450 -127.092079 985.340210
v 667.556763 -107.456276 1000.340210
v 667.556763 -107.456276 931.656189
v 666.039062 -110.309677 931.656189
v 666.039062 -110.309677 1000.340210
v 666.297302 -111.117676 990.340210
v 688.690552 -123.031578 990.340210
v 666.297302 -111.117676 1000.340210
v 691.975952 -124.779480 1000.340210
v 691.975952 -124.779480 990.340210
v 673.081787 -97.146858 1010.340210
v 675.742371 -92.182137 931.656189
v 668.109497 -106.425079 931.656189
v 675.742371 -92.182137 1010.340210
v 668.109497 -106.425079 1010.340210
v 668.567200 -107.322678 1010.340210
v 668.567200 -107.322678 1000.340210
v 691.591064 -119.557678 1000.340210
v 694.252502 -120.971977 1010.340210
v 694.252502 -120.971977 1000.340210
v 680.688293 -94.149315 931.656189
v 676.404907 -91.879181 931.656189
v 676.404907 -91.879181 1010.340210
v 680.688293 -94.149315 1010.340210
v 702.822388 -105.917877 1010.340210
v 702.822388 -105.917877 931.656189
v 681.420776 -94.538147 931.656189
v 681.420776 -94.538147 1010.340210
v 688.657776 -133.206482 931.656189
v 725.719177 -152.996475 931.656189
v 725.719177 -152.996475 985.340210
v 688.657776 -133.206482 985.340210
v 688.843384 -131.913177 985.340210
v 689.151978 -131.334976 981.210693
v 688.427612 -132.692474 981.210693
v 689.151978 -131.334976 985.340210
v 688.427612 -132.692474 985.340210
v 690.139893 -131.469574 990.340210
v 690.139893 -131.469574 985.340210
v 722.215271 -148.528473 985.340210
v 724.380859 -149.680176 990.340210
v 724.380859 -149.680176 985.340210
v 690.988159 -127.910278 990.340210
v 690.988159 -127.910278 985.340210
v 690.227051 -129.335785 985.340210
v 690.227051 -129.335785 990.340210
v 692.274048 -125.508980 990.340210
v 691.510742 -126.933174 990.340210
v 691.510742 -126.933174 1000.340210
v 692.274048 -125.508980 1000.340210
v 692.066589 -127.799477 1000.340210
v 692.066589 -127.799477 990.340210
v 718.316284 -141.755371 990.340210
v 722.029663 -143.729584 1000.340210
v 722.029663 -143.729584 990.340210
v 694.980347 -121.369476 1000.340210
v 694.456360 -122.343376 1000.340210
v 694.456360 -122.343376 1015.340210
v 694.980347 -121.369476 1015.340210
v 694.815186 -122.924774 1000.340210
v 715.131592 -133.722275 1000.340210
v 694.815186 -122.924774 1015.340210
v 719.072998 -135.816971 1015.340210
v 719.072998 -135.816971 1000.340210
v 702.890869 -106.608780 1010.340210
v 700.526672 -111.019875 1010.340210
v 700.032166 -111.942375 1022.340210
v 702.890869 -106.608780 1025.340210
v 697.678589 -116.333778 1015.340210
v 700.440674 -111.180275 1010.340210
v 700.348877 -111.351578 1010.340210
v 700.216370 -111.598679 1010.340210
v 700.032166 -111.942375 1010.340210
v 697.985596 -115.760979 1010.340210
v 697.547302 -116.578674 1013.340210
v 697.916565 -115.889679 1010.340210
v 697.817017 -116.075378 1010.340210
v 697.678589 -116.333778 1010.340210
v 695.257202 -120.851379 1010.340210
v 695.257202 -120.851379 1013.340210
v 697.547302 -116.578674 1015.340210
v 697.678589 -116.333778 1019.340210
v 699.837402 -112.305878 1022.340210
v 697.678589 -116.333778 1022.340210
v 700.032166 -111.942375 1025.340210
v 703.196045 -119.266281 1015.340210
v 698.559692 -116.802078 1022.340210
v 698.559692 -116.802078 1015.340210
v 707.121094 -121.352478 1018.840210
v 706.854370 -121.210777 1015.340210
v 707.163696 -121.375175 1015.340210
v 707.610107 -121.612381 1015.340210
v 708.062256 -121.852776 1015.340210
v 713.329773 -124.652481 1015.340210
v 715.682495 -125.902977 1015.340210
v 715.682495 -125.902977 1018.840210
v 707.121094 -121.352478 1022.340210
v 700.801514 -112.350281 1022.340210
v 702.759277 -113.388275 1022.340210
v 700.801514 -112.350281 1025.340210
v 705.084595 -114.621178 1025.340210
v 705.084595 -114.621178 1022.340210
v 705.203674 -102.363075 931.656189
v 703.656006 -105.200279 931.656189
v 703.656006 -105.200279 1025.340210
v 705.203674 -102.363075 1025.340210
v 707.597778 -97.813148 1022.340210
v 707.597778 -97.813148 931.656189
v 706.103516 -100.678879 931.656189
v 706.103516 -100.678879 1022.340210
v 710.724182 -104.130676 1022.340210
v 708.228699 -102.807281 1022.340210
v 710.724182 -104.130676 1025.340210
v 706.441406 -101.859375 1025.340210
v 706.441406 -101.859375 1022.340210
v 706.374878 -114.052078 1022.340210
v 708.484375 -110.109177 1022.340210
v 706.374878 -114.052078 1025.340210
v 710.948792 -105.503075 1025.340210
v 710.948792 -105.503075 1022.340210
v 708.468201 -120.009682 1019.340210
v 707.819702 -121.220978 1022.340210
v 707.819702 -121.220978 1019.340210
v 714.374878 -108.978180 1019.340210
v 717.251099 -103.606377 1019.340210
v 717.735596 -102.701477 1022.340210
v 717.608887 -102.938179 1019.340210
v 717.735596 -102.701477 1019.340210
v 709.767944 -93.732185 931.656189
v 708.244995 -96.582741 931.656189
v 708.244995 -96.582741 1015.340210
v 709.767944 -93.732185 1015.340210
v 726.014771 -106.598076 1018.840210
v 726.014771 -106.598076 1015.340210
v 722.922974 -104.955078 1015.340210
v 720.843262 -103.849976 1015.340210
v 718.347656 -102.523781 1015.340210
v 717.453003 -102.048378 1018.840210
v 717.945190 -102.309975 1015.340210
v 712.175781 -99.244118 1015.340210
v 708.891174 -97.498711 1022.340210
v 711.212585 -98.732262 1015.340210
v 708.891174 -97.498711 1015.340210
v 717.453003 -102.048378 1022.340210
v 712.807983 -88.012016 1000.340210
v 712.807983 -88.012016 931.656189
v 710.533691 -92.293221 931.656189
v 710.533691 -92.293221 1000.340210
v 715.090088 -95.988197 1015.340210
v 715.090088 -95.988197 1000.340210
v 711.045044 -93.838348 1000.340210
v 710.809387 -93.713058 1015.340210
v 710.809387 -93.713058 1000.340210
v 716.156616 -81.744011 977.765076
v 716.920593 -80.320091 931.656189
v 713.864685 -86.015770 931.656189
v 716.920593 -80.320091 977.765076
v 713.864685 -86.015770 990.340210
v 715.288086 -83.362740 990.340210
v 715.288086 -83.362740 985.340210
v 716.156616 -81.744011 985.340210
v 719.361084 -90.227402 990.340210
v 714.242065 -87.501740 990.340210
v 719.361084 -90.227402 1000.340210
v 713.655762 -87.189560 1000.340210
v 713.655762 -87.189560 990.340210
v 721.319397 -86.574150 985.340210
v 715.822571 -83.647369 985.340210
v 721.319397 -86.574150 990.340210
v 715.614075 -83.536308 990.340210
v 715.614075 -83.536308 985.340210
v 716.964172 -94.412186 1015.340210
v 716.964172 -94.412186 1000.340210
v 716.202271 -95.837219 1000.340210
v 716.202271 -95.837219 1015.340210
v 722.324158 -84.695656 985.340210
v 722.324158 -84.695656 980.340210
v 716.871216 -81.796127 980.340210
v 716.617065 -81.661041 985.340210
v 716.617065 -81.661041 980.340210
v 718.231384 -123.256577 1015.340210
v 716.773499 -125.979378 1019.340210
v 716.773499 -125.979378 1015.340210
v 726.689392 -107.459877 1019.340210
v 726.435181 -107.934776 1015.340210
v 726.689392 -107.459877 1015.340210
v 736.257996 -103.924179 1015.340210
v 736.257996 -103.924179 1000.340210
v 720.700073 -95.655685 1000.340210
v 717.707886 -94.065445 1015.340210
v 717.707886 -94.065445 1000.340210
v 723.486206 -82.520485 980.340210
v 723.486206 -82.520485 931.656189
v 717.776672 -79.490387 931.656189
v 717.776672 -79.490387 980.340210
v 720.138550 -135.084885 1015.340210
v 720.138550 -135.084885 1000.340210
v 733.675964 -109.791779 1000.340210
v 736.151794 -105.166077 1015.340210
v 736.151794 -105.166077 1000.340210
v 720.665405 -88.556999 1000.340210
v 720.665405 -88.556999 990.340210
v 719.903687 -89.982109 990.340210
v 719.903687 -89.982109 1000.340210
v 745.445557 -101.210480 1000.340210
v 745.445557 -101.210480 990.340210
v 724.439880 -90.031601 990.340210
v 721.194946 -88.304756 1000.340210
v 721.194946 -88.304756 990.340210
v 722.484497 -85.171669 990.340210
v 722.484497 -85.171669 985.340210
v 721.802856 -86.440727 985.340210
v 721.802856 -86.440727 990.340210
v 723.604858 -83.064896 985.340210
v 723.604858 -83.064896 980.340210
v 722.847168 -84.492149 980.340210
v 722.847168 -84.492149 985.340210
v 751.517273 -100.224579 985.340210
v 725.081543 -86.162392 985.340210
v 751.517273 -100.224579 990.340210
v 722.984375 -85.046791 990.340210
v 722.984375 -85.046791 985.340210
v 723.218750 -143.414276 1000.340210
v 723.218750 -143.414276 990.340210
v 742.477295 -107.485077 990.340210
v 745.357544 -102.111481 1000.340210
v 745.357544 -102.111481 990.340210
v 754.301270 -99.014595 985.340210
v 754.301270 -99.014595 931.656189
v 724.383545 -82.999428 931.656189
v 724.383545 -82.999428 985.340210
v 731.916382 -137.580078 990.340210
v 725.541687 -149.467682 986.427979
v 732.414673 -136.650879 986.427979
v 725.541687 -149.467682 990.340210
v 745.202271 -112.804581 985.340210
v 732.414673 -136.650879 931.656189
v 745.202271 -112.804581 990.340210
v 745.202271 -112.804581 931.656189
v 745.397095 -112.441277 985.340210
v 745.397095 -112.441277 986.427979
v 751.506470 -101.048576 986.427979
v 751.506470 -101.048576 990.340210
v 726.561401 -152.360275 985.340210
v 726.561401 -152.360275 931.656189
v 733.386658 -139.517975 931.656189
v 733.386658 -139.517975 985.340210
v 733.536377 -138.501480 931.656189
v 732.223877 -137.754776 931.656189
v 732.223877 -137.754776 985.340210
v 733.536377 -138.501480 985.340210
v 745.506104 -112.968178 985.340210
v 745.506104 -112.968178 931.656189
v 746.776062 -113.651680 931.656189
v 746.776062 -113.651680 985.340210
v 747.533386 -112.972778 931.656189
v 754.427063 -100.167076 931.656189
v 754.427063 -100.167076 985.340210
v 747.533386 -112.972778 985.340210
vt 0.000000 3.000000
vt 0.000000 0.000000
vt 3.000000 0.000000
vt 3.000000 3.000000
vt 0.166670 3.500000
vt 0.000000 0.000000
vt 0.333330 0.000000
vt 0.000000 4.000000
vt 0.333330 3.500000
vt 0.166670 4.000000
vt 0.000000 0.000000
vt 2.778530 0.000000
vt 0.000000 0.250000
vt 3.000000 0.250000
vt 3.000000 0.000000
vt 0.000000 4.750000
vt 0.000000 0.000000
vt 0.166670 0.000000
vt 0.166670 4.750000
vt 0.000000 0.000000
vt 2.802200 0.000000
vt 0.000000 0.250000
vt 3.000000 0.250000
vt 3.000000 0.000000
vt 0.000000 5.500000
vt 0.000000 0.000000
vt 0.333330 0.000000
vt 0.333330 5.500000
vt 0.000000 0.000000
vt 2.616170 0.000000
vt 0.000000 0.750000
vt 3.000000 0.750000
vt 3.000000 0.000000
vt 0.580960 6.500000
vt 0.000000 0.000000
vt 1.666670 0.000000
vt 0.000000 6.500000
vt 1.666670 6.500000
vt 0.000000 0.750000
vt 0.000000 0.000000
vt 2.689150 0.000000
vt 3.000000 0.750000
vt 3.000000 0.000000
vt 0.000000 0.000000
vt 0.500000 0.000000
vt 0.500000 6.500000
vt 0.000000 6.500000
vt 0.000000 6.500000
vt 0.000000 0.000000
vt 2.500000 0.000000
vt 2.500000 6.500000
vt 0.000000 0.000000
vt 4.333330 0.000000
vt 4.333330 3.250000
vt 0.000000 3.250000
vt 0.070990 3.250000
vt 0.000000 3.000000
vt 0.166670 3.000000
vt 0.000000 3.250000
vt 0.166670 3.250000
vt 0.000000 0.250000
vt 0.000000 0.000000
vt 3.747020 0.000000
vt 4.000000 0.250000
vt 4.000000 0.000000
vt 0.000000 0.250000
vt 0.000000 0.000000
vt 0.166670 0.000000
vt 0.166670 0.250000
vt 0.000000 0.000000
vt 0.166670 0.000000
vt 0.166670 0.750000
vt 0.000000 0.750000
vt 0.000000 0.750000
vt 0.000000 0.000000
vt 3.066240 0.000000
vt 3.500000 0.750000
vt 3.500000 0.000000
vt 0.000000 0.000000
vt 0.166670 0.000000
vt 0.166670 1.000000
vt 0.000000 1.000000
vt 0.000000 0.000000
vt 0.516180 0.000000
vt 0.624140 1.000000
vt 0.000000 1.250000
vt 1.138010 0.416670
vt 0.534950 0.000000
vt 0.554990 0.000000
vt 0.583920 0.000000
vt 0.624140 0.000000
vt 1.070980 0.000000
vt 1.166670 0.250000
vt 1.086040 0.000000
vt 1.107780 0.000000
vt 1.138010 0.000000
vt 1.666670 0.000000
vt 1.666670 0.250000
vt 1.166670 0.416670
vt 1.138010 0.750000
vt 0.666670 1.000000
vt 1.138010 1.000000
vt 0.624140 1.250000
vt 0.541540 0.000000
vt 0.000000 0.500000
vt 0.000000 0.000000
vt 1.000000 0.250000
vt 0.968850 0.000000
vt 1.004970 0.000000
vt 1.057110 0.000000
vt 1.109930 0.000000
vt 1.725190 0.000000
vt 2.000000 0.000000
vt 2.000000 0.250000
vt 1.000000 0.500000
vt 0.000000 0.000000
vt 0.228550 0.000000
vt 0.000000 0.250000
vt 0.500000 0.250000
vt 0.500000 0.000000
vt 0.000000 0.000000
vt 0.333330 0.000000
vt 0.333330 6.500000
vt 0.000000 6.500000
vt 0.000000 6.750000
vt 0.000000 0.000000
vt 0.333330 0.000000
vt 0.333330 6.750000
vt 0.000000 0.000000
vt 0.291340 0.000000
vt 0.000000 0.250000
vt 0.500000 0.250000
vt 0.500000 0.000000
vt 0.000000 0.000000
vt 0.461210 0.000000
vt 0.000000 0.250000
vt 1.000000 0.250000
vt 1.000000 0.000000
vt 0.141720 0.000000
vt 0.000000 0.250000
vt 0.000000 0.000000
vt 2.060790 0.000000
vt 2.166670 0.250000
vt 1.432330 0.000000
vt 2.138970 0.000000
vt 2.166670 0.000000
vt 0.000000 0.000000
vt 0.333330 0.000000
vt 0.333330 6.250000
vt 0.000000 6.250000
vt 0.000000 0.250000
vt 0.000000 0.000000
vt 0.361120 0.000000
vt 0.604030 0.000000
vt 0.895510 0.000000
vt 1.000000 0.250000
vt 0.942510 0.000000
vt 1.616370 0.000000
vt 2.000000 0.500000
vt 1.728870 0.000000
vt 2.000000 0.000000
vt 0.000000 5.500000
vt 0.000000 0.000000
vt 0.500000 0.000000
vt 0.500000 5.500000
vt 0.500000 1.000000
vt 0.000000 1.000000
vt 0.472470 0.000000
vt 0.166670 2.750000
vt 0.000000 0.000000
vt 0.666670 0.000000
vt 0.000000 2.750000
vt 0.666670 3.500000
vt 0.356140 3.500000
vt 0.356140 3.201790
vt 0.166670 3.201790
vt 0.000000 0.000000
vt 0.598160 0.000000
vt 0.000000 0.750000
vt 0.666670 0.750000
vt 0.666670 0.000000
vt 0.000000 0.000000
vt 0.642290 0.000000
vt 0.000000 0.250000
vt 0.666670 0.250000
vt 0.666670 0.000000
vt 0.000000 1.000000
vt 0.000000 0.000000
vt 0.166670 0.000000
vt 0.166670 1.000000
vt 0.666670 0.250000
vt 0.636990 0.000000
vt 0.666670 0.000000
vt 0.318550 0.000000
vt 0.000000 0.250000
vt 0.000000 0.000000
vt 2.166670 0.250000
vt 2.166670 0.000000
vt 2.111110 0.000000
vt 0.000000 1.000000
vt 0.000000 0.000000
vt 1.817180 0.000000
vt 2.166670 1.000000
vt 2.166670 0.000000
vt 0.000000 2.750000
vt 0.000000 0.000000
vt 0.666670 0.000000
vt 0.666670 2.750000
vt 0.000000 1.000000
vt 0.000000 0.000000
vt 2.958870 0.000000
vt 3.500000 1.000000
vt 3.500000 0.000000
vt 0.000000 0.750000
vt 0.000000 0.000000
vt 0.166670 0.000000
vt 0.166670 0.750000
vt 0.000000 0.750000
vt 0.000000 0.000000
vt 2.454220 0.000000
vt 2.833330 0.750000
vt 2.833330 0.000000
vt 0.000000 0.250000
vt 0.000000 0.000000
vt 0.166670 0.000000
vt 0.166670 0.250000
vt 0.000000 0.250000
vt 0.000000 0.000000
vt 0.166670 0.000000
vt 0.166670 0.250000
vt 0.000000 0.000000
vt 3.088320 0.000000
vt 0.000000 0.250000
vt 3.333330 0.250000
vt 0.000000 0.750000
vt 0.000000 0.000000
vt 4.204500 0.000000
vt 0.000000 4.250000
vt 0.000000 0.000000
vt 3.500000 0.000000
vt 3.500000 4.250000
vt 1.391250 3.750000
vt 0.000000 3.500000
vt 1.500000 3.500000
vt 0.000000 3.750000
vt 4.290810 3.430490
vt 1.500000 0.000000
vt 4.290810 3.750000
vt 4.290810 0.000000
vt 4.333330 3.430490
vt 4.333330 3.500000
vt 5.666670 3.500000
vt 5.666670 3.750000
vt 0.000000 3.250000
vt 0.000000 0.000000
vt 1.500000 0.000000
vt 1.500000 3.250000
vt 0.000000 0.000000
vt 0.166670 0.000000
vt 0.166670 3.250000
vt 0.000000 3.250000
vt 0.000000 4.250000
vt 0.000000 0.000000
vt 0.166670 0.000000
vt 0.166670 4.250000
vt 0.000000 0.000000
vt 1.500000 0.000000
vt 1.500000 4.250000
vt 0.000000 4.250000
vt 0.000000 0.000000
vt 2.372980 0.000000
vt 0.000000 1.000000
vt 2.833330 1.000000
vt 2.833330 0.000000
vt 1.000000 0.500000
vt 0.000000 0.000000
vt 0.500000 0.000000
vt 0.000000 0.250000
vt 0.000000 0.000000
vt 3.333330 0.000000
vt 4.833330 0.750000
vt 4.833330 0.000000
vn -0.4697 -0.8828 0.0000
vn -0.8818 0.4716 0.0000
vn -0.8818 0.4717 0.0000
vn -0.8814 0.4725 0.0000
vn -0.8814 0.4724 0.0000
vn -0.8829 0.4696 0.0000
vn -0.8814 0.4723 0.0000
vn -0.4693 -0.8831 0.0000
vn 0.4683 0.8836 0.0000
vn 0.4695 0.8829 0.0000
vn -0.4710 -0.8821 0.0000
vn -0.8823 0.4708 -0.0000
vn -0.8822 0.4709 0.0000
vn -0.8823 0.4707 0.0000
vn -0.4696 -0.8829 0.0000
vn -0.4695 -0.8829 0.0000
vn -0.8821 0.4710 0.0000
vn -0.4694 -0.8830 0.0000
vn -0.8806 0.4738 0.0000
vn -0.8812 0.4727 0.0002
vn -0.8812 0.4728 -0.0001
vn -0.8815 0.4722 0.0003
vn -0.8813 0.4725 0.0000
vn -0.8813 0.4726 0.0001
vn -0.8812 0.4727 0.0000
vn -0.8816 0.4721 0.0001
vn -0.4693 -0.8830 0.0000
vn -0.4692 -0.8831 0.0000
vn -0.4684 -0.8835 0.0000
vn -0.8779 0.4789 0.0000
vn -0.8867 0.4624 0.0000
vn 0.4685 0.8835 0.0000
vn 0.8817 -0.4717 0.0000
vn 0.8817 -0.4718 0.0000
vn 0.8816 -0.4719 0.0000
vn 0.8816 -0.4720 0.0000
vn 0.8815 -0.4722 0.0000
vn -0.8820 0.4712 0.0000
vn 0.4693 0.8831 0.0000
vn 0.4692 0.8831 0.0000
vn 0.4691 0.8831 -0.0000
vn -0.8831 0.4691 0.0000
vn 0.4693 0.8830 -0.0000
vn -0.8812 0.4728 0.0000
vn 0.4700 0.8827 0.0000
vn 0.4701 0.8826 0.0000
vn -0.8819 0.4715 0.0000
vn -0.8818 0.4715 0.0000
vn 0.4694 0.8830 0.0000
vn 0.8814 -0.4723 -0.0000
vn 0.4688 0.8833 0.0000
vn 0.8817 -0.4719 0.0000
vn -0.8819 0.4714 0.0000
vn 0.4698 0.8828 0.0000
vn -0.8810 0.4732 0.0000
vn -0.8832 0.4689 0.0000
vn 0.4696 0.8829 0.0000
vn 0.8814 -0.4724 0.0000
vn 0.4719 0.8816 0.0000
vn 0.8813 -0.4726 0.0000
vn 0.8812 -0.4728 0.0000
vn 0.8830 -0.4693 0.0000
vn 0.4945 0.8692 0.0000
vn -0.4739 -0.8806 0.0000
vn -0.4740 -0.8806 0.0000
vn 0.8805 -0.4740 0.0000
vn 0.4685 0.8834 -0.0000
vn 0.8816 -0.4721 -0.0000
s off
f 1/1/1 2/2/1 3/3/1
f 1/1/1 3/3/1 4/4/1
f 5/5/2 6/6/2 7/7/2
f 8/8/2 6/6/2 5/5/2
f 5/5/3 7/7/3 9/9/3
f 10/10/2 8/8/2 5/5/2
f 11/11/1 12/12/1 13/13/1
f 14/14/1 12/12/1 15/15/1
f 13/13/1 12/12/1 14/14/1
f 16/16/4 17/17/4 18/18/4
f 16/16/5 18/18/5 19/19/5
f 20/20/1 21/21/1 22/22/1
f 23/23/1 21/21/1 24/24/1
f 22/22/1 21/21/1 23/23/1
f 25/25/6 26/26/6 27/27/6
f 25/25/6 27/27/6 28/28/6
f 29/29/1 30/30/1 31/31/1
f 32/32/1 30/30/1 33/33/1
f 31/31/1 30/30/1 32/32/1
f 34/34/5 35/35/5 36/36/5
f 37/37/7 35/35/7 34/34/7
f 34/34/7 36/36/7 38/38/7
f 39/39/8 40/40/8 41/41/8
f 42/42/8 41/41/8 43/43/8
f 42/42/8 39/39/8 41/41/8
f 44/44/9 45/45/9 46/46/9
f 47/47/9 44/44/9 46/46/9
f 48/48/10 49/49/10 50/50/10
f 48/48/10 50/50/10 51/51/10
f 52/52/11 53/53/11 54/54/11
f 55/55/11 52/52/11 54/54/11
f 56/56/12 57/57/12 58/58/12
f 59/59/13 57/57/13 56/56/13
f 56/56/14 58/58/14 60/60/14
f 61/61/15 62/62/15 63/63/15
f 64/64/16 63/63/16 65/65/16
f 66/66/17 67/67/17 68/68/17
f 66/66/17 68/68/17 69/69/17
f 70/70/5 71/71/5 72/72/5
f 73/73/5 70/70/5 72/72/5
f 74/74/18 75/75/18 76/76/18
f 77/77/18 76/76/18 78/78/18
f 77/77/18 74/74/18 76/76/18
f 79/79/19 80/80/19 81/81/19
f 82/82/19 79/79/19 81/81/19
f 88/83/5 89/84/5 90/85/5
f 88/83/5 90/85/5 91/86/5
f 92/87/20 89/84/20 93/88/20
f 90/85/5 89/84/5 92/87/5
f 94/89/21 92/87/21 93/88/21
f 92/87/22 94/89/22 95/90/22
f 92/87/23 95/90/23 96/91/23
f 97/92/5 98/93/5 96/91/5
f 96/91/5 98/93/5 92/87/5
f 97/92/24 99/94/24 98/93/24
f 99/94/25 100/95/25 98/93/25
f 98/93/7 100/95/7 101/96/7
f 102/97/5 98/93/5 101/96/5
f 103/98/5 98/93/5 102/97/5
f 92/87/7 98/93/7 104/99/7
f 105/100/5 106/101/5 92/87/5
f 106/101/26 90/85/26 92/87/26
f 106/101/5 105/100/5 107/102/5
f 91/86/5 90/85/5 108/103/5
f 109/104/27 110/105/27 111/106/27
f 112/107/27 109/104/27 113/108/27
f 109/104/27 112/107/27 110/105/27
f 113/108/18 114/109/18 112/107/18
f 114/109/28 115/110/28 112/107/28
f 115/110/18 116/111/18 112/107/18
f 112/107/27 116/111/27 117/112/27
f 118/113/27 119/114/27 117/112/27
f 112/107/27 117/112/27 119/114/27
f 110/105/27 112/107/27 120/115/27
f 121/116/29 122/117/29 123/118/29
f 124/119/29 122/117/29 125/120/29
f 123/118/29 122/117/29 124/119/29
f 126/121/30 127/122/30 128/123/30
f 129/124/30 126/121/30 128/123/30
f 130/125/31 131/126/31 132/127/31
f 130/125/31 132/127/31 133/128/31
f 134/129/32 135/130/32 136/131/32
f 137/132/32 135/130/32 138/133/32
f 139/134/33 140/135/33 141/136/33
f 142/137/34 140/135/34 143/138/34
f 141/136/34 140/135/34 142/137/34
f 144/139/35 145/140/35 146/141/35
f 148/142/36 149/143/36 147/144/36
f 149/143/36 145/140/36 147/144/36
f 148/142/36 150/145/36 149/143/36
f 149/143/37 150/145/37 151/146/37
f 152/147/38 153/148/38 154/149/38
f 155/150/38 152/147/38 154/149/38
f 156/151/39 157/152/39 158/153/39
f 159/154/40 156/151/40 158/153/40
f 160/155/39 161/156/39 159/154/39
f 161/156/39 156/151/39 159/154/39
f 160/155/41 162/157/41 161/156/41
f 163/158/40 161/156/40 162/157/40
f 164/159/39 163/158/39 165/160/39
f 163/158/39 164/159/39 161/156/39
f 166/161/40 164/159/40 165/160/40
f 168/162/42 169/163/42 170/164/42
f 168/162/42 170/164/42 171/165/42
f 175/166/43 172/167/43 174/168/43
f 177/169/44 178/170/44 179/171/44
f 180/172/44 178/170/44 177/169/44
f 181/173/44 177/169/44 179/171/44
f 182/174/44 183/175/44 181/173/44
f 181/173/44 183/175/44 177/169/44
f 184/176/44 177/169/44 183/175/44
f 185/177/45 186/178/45 187/179/45
f 188/180/45 186/178/45 189/181/45
f 187/179/45 186/178/45 188/180/45
f 190/182/45 191/183/45 192/184/45
f 193/185/46 191/183/46 194/186/46
f 192/184/45 191/183/45 193/185/45
f 195/187/47 196/188/47 197/189/47
f 195/187/48 197/189/48 198/190/48
f 202/191/49 201/192/49 203/193/49
f 204/194/36 205/195/36 206/196/36
f 205/195/36 204/194/36 207/197/36
f 209/198/50 207/197/50 208/199/50
f 210/200/43 211/201/43 212/202/43
f 213/203/43 212/202/43 214/204/43
f 213/203/43 210/200/43 212/202/43
f 215/205/51 216/206/51 217/207/51
f 215/205/51 217/207/51 218/208/51
f 219/209/52 220/210/52 221/211/52
f 222/212/52 221/211/52 223/213/52
f 222/212/52 219/209/52 221/211/52
f 224/214/53 225/215/53 226/216/53
f 224/214/53 226/216/53 227/217/53
f 228/218/54 229/219/54 230/220/54
f 231/221/54 230/220/54 232/222/54
f 233/223/55 234/224/55 235/225/55
f 233/223/55 235/225/55 236/226/55
f 237/227/56 238/228/56 239/229/56
f 237/227/56 239/229/56 240/230/56
f 241/231/57 242/232/57 243/233/57
f 243/233/57 242/232/57 244/234/57
f 246/235/58 247/236/58 248/237/58
f 251/238/59 252/239/59 253/240/59
f 251/238/59 253/240/59 254/241/59
f 255/242/60 256/243/60 257/244/60
f 258/245/60 256/243/60 255/242/60
f 259/246/60 257/244/60 260/247/60
f 259/246/60 261/248/60 257/244/60
f 261/248/60 255/242/60 257/244/60
f 262/249/60 259/246/60 260/247/60
f 263/250/60 264/251/60 259/246/60
f 264/251/61 261/248/61 259/246/61
f 265/252/60 266/253/60 264/251/60
f 266/253/60 261/248/60 264/251/60
f 267/254/62 268/255/62 269/256/62
f 267/254/62 269/256/62 270/257/62
f 271/258/63 272/259/63 273/260/63
f 274/261/63 271/258/63 273/260/63
f 275/262/64 276/263/64 277/264/64
f 275/262/65 277/264/65 278/265/65
f 279/266/66 280/267/66 281/268/66
f 282/269/66 279/266/66 281/268/66
s 1
f 64/64/15 61/61/15 63/63/15
f 83/270/27 84/271/27 85/272/27
f 86/273/27 84/271/27 87/274/27
f 85/272/27 84/271/27 86/273/27
f 136/131/67 135/130/67 137/132/67
f 145/140/68 144/139/68 147/144/68
f 161/156/39 164/159/39 167/275/39
f 172/167/43 173/276/43 174/168/43
f 175/166/49 174/168/49 176/277/49
f 199/278/10 200/279/10 201/192/10
f 202/191/10 199/278/10 201/192/10
f 207/197/36 204/194/36 208/199/36
f 231/221/54 228/218/54 230/220/54
f 244/234/57 242/232/57 245/280/57
f 249/281/58 248/237/58 250/282/58
f 249/281/58 246/235/58 248/237/58
