# Blender v3.0.1 OBJ File: 'rockerfeller_plaza.blend'
# www.blender.org
o geometryt000010000010000110010110000110000110100100000010st139
v 581.207886 -31.736757 954.913696
v 581.207886 -31.736757 932.238464
v 584.260376 -33.384068 932.238464
v 584.260376 -33.384068 954.913696
v 586.744019 -34.724346 954.913696
v 586.744019 -34.724346 932.238464
v 591.322815 -37.195316 932.238464
v 591.322815 -37.195316 954.913696
v 593.806396 -38.535599 932.238464
v 598.385254 -41.006557 932.238464
v 598.385254 -41.006557 954.913696
v 593.806396 -38.535599 954.913696
v 600.868835 -42.346836 954.913696
v 600.868835 -42.346836 932.238464
v 603.921387 -43.994148 932.238464
v 603.921387 -43.994148 954.913696
v 581.891541 -29.742908 932.238464
v 581.068054 -31.269278 932.238464
v 581.068054 -31.269278 954.913696
v 581.891541 -29.742908 954.913696
v 583.175415 -27.363049 954.913696
v 583.175415 -27.363049 932.238464
v 582.351929 -28.889427 932.238464
v 582.351929 -28.889427 954.913696
v 584.459351 -24.983198 932.238464
v 583.635864 -26.509579 932.238464
v 583.635864 -26.509579 954.913696
v 584.459351 -24.983198 954.913696
v 587.979248 -26.490719 932.238464
v 584.926758 -24.843409 932.238464
v 584.926758 -24.843409 954.913696
v 587.979248 -26.490719 954.913696
v 595.041687 -30.301968 932.238464
v 590.462891 -27.830997 932.238464
v 590.462891 -27.830997 954.913696
v 595.041687 -30.301968 954.913696
v 602.104065 -34.113209 954.913696
v 602.104065 -34.113209 932.238464
v 597.525269 -31.642239 932.238464
v 597.525269 -31.642239 954.913696
v 607.640198 -37.100788 932.238464
v 604.587646 -35.453480 932.238464
v 604.587646 -35.453480 954.913696
v 607.640198 -37.100788 954.913696
v 604.388794 -43.854359 932.238464
v 605.212219 -42.327988 932.238464
v 605.212219 -42.327988 954.913696
v 604.388794 -43.854359 954.913696
v 605.672668 -41.474506 932.238464
v 606.496155 -39.948128 932.238464
v 606.496155 -39.948128 954.913696
v 605.672668 -41.474506 954.913696
v 606.956604 -39.094646 932.238464
v 607.779968 -37.568268 932.238464
v 607.779968 -37.568268 954.913696
v 606.956604 -39.094646 954.913696
vt 0.000000 5.000000
vt 0.000000 0.000000
vt 0.666670 0.000000
vt 0.666670 5.000000
vt 0.000000 5.000000
vt 0.000000 0.000000
vt 1.000000 0.000000
vt 1.000000 5.000000
vt 0.000000 0.000000
vt 1.000000 0.000000
vt 1.000000 5.000000
vt 0.000000 5.000000
vt 0.000000 5.000000
vt 0.000000 0.000000
vt 0.666670 0.000000
vt 0.666670 5.000000
vt 0.000000 0.000000
vt 0.333330 0.000000
vt 0.333330 5.000000
vt 0.000000 5.000000
vt 0.000000 5.000000
vt 0.000000 0.000000
vt 0.333330 0.000000
vt 0.333330 5.000000
vt 0.000000 0.000000
vt 0.333330 0.000000
vt 0.333330 5.000000
vt 0.000000 5.000000
vt 0.000000 0.000000
vt 1.000000 0.000000
vt 1.000000 5.000000
vt 0.000000 5.000000
vt 0.000000 5.000000
vt 0.000000 0.000000
vt 1.000000 0.000000
vt 1.000000 5.000000
vt 0.000000 0.000000
vt 0.666670 0.000000
vt 0.666670 5.000000
vt 0.000000 5.000000
vt 0.000000 0.000000
vt 0.333330 0.000000
vt 0.333330 5.000000
vt 0.000000 5.000000
vt 0.000000 0.000000
vt 0.333330 0.000000
vt 0.333330 5.000000
vt 0.000000 5.000000
vt 0.000000 0.000000
vt 0.333330 0.000000
vt 0.333330 5.000000
vt 0.000000 5.000000
vt 0.000000 0.000000
vt 0.666670 0.000000
vt 0.666670 5.000000
vt 0.000000 5.000000
vn -0.4749 -0.8800 0.0000
vn -0.8801 0.4748 0.0000
vn 0.4749 0.8800 0.0000
vn 0.8801 -0.4748 0.0000
s off
f 1/1/1 2/2/1 3/3/1
f 1/1/1 3/3/1 4/4/1
f 5/5/1 6/6/1 7/7/1
f 5/5/1 7/7/1 8/8/1
f 9/9/1 10/10/1 11/11/1
f 12/12/1 9/9/1 11/11/1
f 13/13/1 14/14/1 15/15/1
f 13/13/1 15/15/1 16/16/1
f 17/17/2 18/18/2 19/19/2
f 20/20/2 17/17/2 19/19/2
f 21/21/2 22/22/2 23/23/2
f 21/21/2 23/23/2 24/24/2
f 25/25/2 26/26/2 27/27/2
f 28/28/2 25/25/2 27/27/2
f 33/29/3 34/30/3 35/31/3
f 36/32/3 33/29/3 35/31/3
f 37/33/3 38/34/3 39/35/3
f 37/33/3 39/35/3 40/36/3
f 41/37/3 42/38/3 43/39/3
f 44/40/3 41/37/3 43/39/3
f 45/41/4 46/42/4 47/43/4
f 48/44/4 45/41/4 47/43/4
f 49/45/4 50/46/4 51/47/4
f 52/48/4 49/45/4 51/47/4
f 53/49/4 54/50/4 55/51/4
f 56/52/4 53/49/4 55/51/4
s 1
f 29/53/3 30/54/3 31/55/3
f 32/56/3 29/53/3 31/55/3
