# Blender v3.0.1 OBJ File: 'rockerfeller_plaza.blend'
# www.blender.org
o geometryt000010000010000110010110000110000110100000110100st83
v 780.483887 -144.195007 701.121704
v 781.773987 -141.892914 701.121704
v 785.911133 -140.479111 701.121704
v 789.735901 -149.205307 701.121704
v 782.525574 -140.463104 701.121704
v 784.866943 -136.361206 701.121704
v 792.513306 -144.132507 701.121704
v 790.072266 -126.652710 701.121704
v 794.752991 -129.140503 701.121704
v 792.242554 -133.943802 701.121704
v 793.902710 -134.831909 701.121704
v 808.672607 -142.733505 701.121704
v 805.182251 -151.123505 701.121704
v 797.000366 -124.951012 701.121704
v 800.375732 -123.368408 701.121704
v 807.071838 -137.544113 701.121704
v 809.123718 -142.694412 701.121704
v 797.519470 -123.856911 701.121704
v 803.100159 -118.096306 701.121704
v 820.580383 -130.093811 701.121704
v 812.441284 -140.106308 701.121704
v 805.176941 -110.134010 701.121704
v 800.537964 -107.601311 701.121704
v 806.097046 -97.821976 701.121704
v 802.886902 -114.290710 701.121704
v 802.308105 -115.330009 701.121704
v 817.693298 -115.891411 701.121704
v 823.455872 -119.584511 701.121704
v 810.253967 -96.663269 701.121704
v 807.715515 -105.574707 701.121704
v 813.810608 -108.882507 701.121704
v 824.758423 -114.823906 701.121704
v 809.810669 -143.342316 701.121704
v 809.730225 -150.193314 701.121704
v 814.002441 -142.272003 701.121704
v 811.865662 -140.814407 701.121704
v 829.415710 -106.620506 701.121704
v 826.150146 -119.781509 701.121704
v 830.587646 -111.558411 701.121704
v 792.328186 -122.463005 701.121704
v 798.247925 -111.758011 701.121704
v 802.471191 -156.095612 701.121704
v 805.647949 -157.757202 701.121704
v 809.489685 -142.662704 701.121704
v 810.429260 -142.581406 701.121704
v 823.709229 -118.658707 701.121704
v 808.567139 -93.185730 701.121704
v 809.218079 -91.812561 701.121704
v 810.176636 -90.036118 701.121704
v 835.016846 -103.346611 701.121704
v 781.773987 -141.892914 709.121704
v 780.483887 -144.195007 709.121704
v 785.911133 -140.479111 709.121704
v 789.735901 -149.205307 709.121704
v 782.525574 -140.463104 709.121704
v 784.866943 -136.361206 709.121704
v 784.920105 -136.571106 709.121704
v 786.247559 -140.665314 709.121704
v 792.513306 -144.132507 709.121704
v 806.097046 -97.821976 858.121704
v 805.176941 -110.134010 858.121704
v 810.253967 -96.663269 858.121704
v 805.384766 -109.760712 858.121704
v 807.715515 -105.574707 858.121704
v 809.110840 -106.331909 858.121704
v 813.810608 -108.882507 858.121704
v 829.415710 -106.620506 858.121704
v 824.758423 -114.823906 858.121704
v 824.872375 -115.229805 858.121704
v 800.537964 -107.601311 858.121704
v 826.150146 -119.781509 858.121704
v 830.587646 -111.558411 858.121704
v 784.866943 -136.361206 858.121704
v 792.448059 -133.550507 858.121704
v 794.752991 -129.140503 858.121704
v 792.513306 -144.132507 858.121704
v 792.242554 -133.943802 858.121704
v 793.902710 -134.831909 858.121704
v 808.372375 -142.572815 858.121704
v 808.672607 -142.733505 858.121704
v 805.182251 -151.123505 858.121704
v 809.810669 -143.342316 858.121704
v 785.911133 -140.479111 858.121704
v 814.002441 -142.272003 858.121704
v 809.730225 -150.193314 858.121704
v 790.072266 -126.652710 858.121704
v 813.659241 -142.359604 858.121704
v 792.328186 -122.463005 796.121704
v 790.072266 -126.652710 796.121704
v 791.920715 -127.635109 796.121704
v 794.752991 -129.140503 796.121704
v 795.640503 -127.486008 796.121704
v 795.751831 -127.278511 796.121704
v 797.000366 -124.951012 796.121704
v 794.752991 -129.140503 872.121704
v 792.242554 -133.943802 872.121704
v 809.810669 -143.342316 872.121704
v 797.000366 -124.951012 872.121704
v 800.375732 -123.368408 872.121704
v 797.519470 -123.856911 872.121704
v 820.580383 -130.093811 872.121704
v 803.100159 -118.096306 872.121704
v 802.886902 -114.290710 872.121704
v 802.308105 -115.330009 872.121704
v 805.176941 -110.134010 872.121704
v 824.758423 -114.823906 872.121704
v 807.715515 -105.574707 872.121704
v 814.002441 -142.272003 872.121704
v 826.150146 -119.781509 872.121704
v 794.295410 -123.510605 756.121704
v 797.519470 -123.856911 756.121704
v 792.328186 -122.463005 756.121704
v 798.247925 -111.758011 756.121704
v 797.000366 -124.951012 756.121704
v 797.337646 -124.240211 756.121704
v 797.352539 -124.208809 756.121704
v 802.308105 -115.330009 756.121704
v 799.375122 -123.539505 756.121704
v 802.145752 -119.943207 756.121704
v 802.223877 -119.792007 756.121704
v 803.100159 -118.096306 756.121704
v 802.562866 -116.219810 756.121704
v 802.585571 -116.299110 756.121704
v 800.933655 -113.224312 756.121704
v 799.457031 -123.525505 756.121704
v 800.375732 -123.368408 756.121704
v 802.684143 -114.654808 756.121704
v 802.700745 -114.625008 756.121704
v 802.886902 -114.290710 756.121704
v 800.537964 -107.601311 796.121704
v 798.247925 -111.758011 796.121704
v 802.886902 -114.290710 796.121704
v 803.344971 -109.133812 796.121704
v 803.791260 -112.649208 796.121704
v 803.904724 -112.443306 796.121704
v 805.176941 -110.134010 796.121704
v 805.182251 -151.123505 709.121704
v 802.471191 -156.095612 709.121704
v 805.647949 -157.757202 709.121704
v 805.414001 -151.076111 709.121704
v 809.730225 -150.193314 709.121704
v 809.459656 -96.884682 731.121704
v 808.567139 -93.185730 731.121704
v 806.097046 -97.821976 731.121704
v 810.253967 -96.663269 731.121704
v 809.218079 -91.812561 731.121704
v 810.176636 -90.036118 731.121704
v 825.754211 -104.717812 731.121704
v 829.415710 -106.620506 731.121704
v 835.016846 -103.346611 731.121704
v 830.363708 -110.614906 731.121704
v 830.587646 -111.558411 731.121704
vt 0.253350 0.053880
vt 0.248750 0.056530
vt 0.244860 0.064910
vt 0.259530 0.072410
vt 0.245910 0.058080
vt 0.237700 0.062900
vt 0.249410 0.078130
vt 0.218380 0.073620
vt 0.221420 0.082990
vt 0.230960 0.077820
vt 0.232050 0.081150
vt 0.241730 0.110730
vt 0.258100 0.103500
vt 0.213080 0.087620
vt 0.209130 0.094460
vt 0.232790 0.107620
vt 0.241510 0.111640
vt 0.210930 0.088690
vt 0.198670 0.100080
vt 0.214940 0.135030
vt 0.235750 0.118390
vt 0.183520 0.104450
vt 0.180390 0.095160
vt 0.160820 0.106590
vt 0.191810 0.099740
vt 0.193890 0.098550
vt 0.190020 0.129540
vt 0.194910 0.141070
vt 0.157390 0.115000
vt 0.174420 0.109670
vt 0.178500 0.121880
vt 0.185830 0.143810
vt 0.242470 0.113010
vt 0.254970 0.112690
vt 0.239190 0.121480
vt 0.237220 0.117210
vt 0.169420 0.153390
vt 0.194410 0.146490
vt 0.178030 0.155630
vt 0.210040 0.078260
vt 0.188680 0.090450
vt 0.268010 0.097920
vt 0.270030 0.104280
vt 0.241340 0.112380
vt 0.240890 0.114270
vt 0.193140 0.141600
vt 0.151600 0.111680
vt 0.148900 0.113030
vt 0.145360 0.115000
vt 0.161680 0.164750
vt 0.248750 0.056530
vt 0.253350 0.053880
vt 0.244860 0.064910
vt 0.259530 0.072410
vt 0.245910 0.058080
vt 0.237700 0.062900
vt 0.238070 0.063000
vt 0.245090 0.065580
vt 0.249410 0.078130
vt 0.160820 0.106590
vt 0.183520 0.104450
vt 0.157390 0.115000
vt 0.182780 0.104880
vt 0.174420 0.109670
vt 0.175350 0.112470
vt 0.178500 0.121880
vt 0.169420 0.153390
vt 0.185830 0.143810
vt 0.186530 0.144030
vt 0.180390 0.095160
vt 0.194410 0.146490
vt 0.178030 0.155630
vt 0.237700 0.062900
vt 0.230180 0.078240
vt 0.221420 0.082990
vt 0.249410 0.078130
vt 0.230960 0.077820
vt 0.232050 0.081150
vt 0.241530 0.110130
vt 0.241730 0.110730
vt 0.258100 0.103500
vt 0.242470 0.113010
vt 0.244860 0.064910
vt 0.239190 0.121480
vt 0.254970 0.112690
vt 0.218380 0.073620
vt 0.239460 0.120790
vt 0.210040 0.078260
vt 0.218380 0.073620
vt 0.219580 0.077320
vt 0.221420 0.082990
vt 0.218130 0.084820
vt 0.217710 0.085050
vt 0.213080 0.087620
vt 0.221420 0.082990
vt 0.230960 0.077820
vt 0.242470 0.113010
vt 0.213080 0.087620
vt 0.209130 0.094460
vt 0.210930 0.088690
vt 0.214940 0.135030
vt 0.198670 0.100080
vt 0.191810 0.099740
vt 0.193890 0.098550
vt 0.183520 0.104450
vt 0.185830 0.143810
vt 0.174420 0.109670
vt 0.239190 0.121480
vt 0.194410 0.146490
vt 0.211320 0.082200
vt 0.210930 0.088690
vt 0.210040 0.078260
vt 0.188680 0.090450
vt 0.213080 0.087620
vt 0.211680 0.088320
vt 0.211620 0.088350
vt 0.193890 0.098550
vt 0.209760 0.092440
vt 0.202330 0.098110
vt 0.202030 0.098270
vt 0.198670 0.100080
vt 0.195430 0.099040
vt 0.195560 0.099080
vt 0.190490 0.095820
vt 0.209710 0.092610
vt 0.209130 0.094460
vt 0.192540 0.099320
vt 0.192480 0.099350
vt 0.191810 0.099740
vt 0.180390 0.095160
vt 0.188680 0.090450
vt 0.191810 0.099740
vt 0.182280 0.100780
vt 0.188540 0.101600
vt 0.188130 0.101830
vt 0.183520 0.104450
vt 0.258100 0.103500
vt 0.268010 0.097920
vt 0.270030 0.104280
vt 0.257940 0.103970
vt 0.254970 0.112690
vt 0.158050 0.113390
vt 0.151600 0.111680
vt 0.160820 0.106590
vt 0.157390 0.115000
vt 0.148900 0.113030
vt 0.145360 0.115000
vt 0.167120 0.146050
vt 0.169420 0.153390
vt 0.161680 0.164750
vt 0.176390 0.155200
vt 0.178030 0.155630
vn -0.0000 0.0000 -1.0000
vn 0.0003 0.0000 -1.0000
vn 0.0001 0.0000 -1.0000
vn -0.0001 0.0000 -1.0000
vn -0.0003 0.0000 -1.0000
vn 0.0002 0.0000 -1.0000
vn 0.0000 0.0000 1.0000
vn 0.0007 0.0000 1.0000
vn 0.0001 0.0000 1.0000
vn -0.0003 0.0000 1.0000
vn -0.0022 0.0000 1.0000
vn -0.0001 0.0000 1.0000
vn -0.0011 0.0000 1.0000
vn -0.0012 0.0003 1.0000
vn 0.0002 0.0000 1.0000
vn 0.0032 0.0000 1.0000
vn -0.0002 0.0000 1.0000
s off
f 1/1/1 2/2/1 3/3/1
f 4/4/1 1/1/1 3/3/1
f 3/3/1 2/2/1 5/5/1
f 3/3/1 5/5/1 6/6/1
f 7/7/1 4/4/1 3/3/1
f 6/6/1 7/7/1 3/3/1
f 6/6/1 8/8/1 9/9/1
f 6/6/1 10/10/1 7/7/1
f 9/9/1 10/10/1 6/6/1
f 7/7/1 10/10/1 11/11/1
f 10/10/1 9/9/1 11/11/1
f 7/7/1 11/11/1 12/12/1
f 13/13/1 7/7/1 12/12/1
f 11/11/1 9/9/1 12/12/1
f 9/9/1 14/14/1 15/15/1
f 16/16/1 9/9/1 15/15/1
f 12/12/2 9/9/2 17/17/2
f 18/18/1 15/15/1 14/14/1
f 19/19/1 20/20/1 15/15/1
f 15/15/1 21/21/1 16/16/1
f 20/20/1 21/21/1 15/15/1
f 22/22/1 23/23/1 24/24/1
f 25/25/3 19/19/3 26/26/3
f 22/22/4 19/19/4 25/25/4
f 27/27/1 19/19/1 22/22/1
f 19/19/1 28/28/1 20/20/1
f 22/22/1 24/24/1 29/29/1
f 22/22/1 29/29/1 30/30/1
f 22/22/1 30/30/1 31/31/1
f 32/32/1 27/27/1 22/22/1
f 33/33/1 13/13/1 12/12/1
f 34/34/1 13/13/1 35/35/1
f 33/33/1 35/35/1 13/13/1
f 21/21/1 36/36/1 16/16/1
f 30/30/1 29/29/1 31/31/1
f 12/12/1 17/17/1 33/33/1
f 29/29/1 37/37/1 31/31/1
f 35/35/1 36/36/1 21/21/1
f 20/20/1 35/35/1 21/21/1
f 37/37/1 32/32/1 31/31/1
f 38/38/1 20/20/1 28/28/1
f 32/32/1 37/37/1 38/38/1
f 38/38/1 37/37/1 39/39/1
f 8/8/1 40/40/1 9/9/1
f 40/40/1 14/14/1 9/9/1
f 41/41/1 23/23/1 25/25/1
f 23/23/1 22/22/1 25/25/1
f 14/14/1 40/40/1 18/18/1
f 40/40/1 41/41/1 18/18/1
f 18/18/1 41/41/1 26/26/1
f 19/19/1 15/15/1 18/18/1
f 18/18/1 26/26/1 19/19/1
f 41/41/1 25/25/1 26/26/1
f 42/42/1 13/13/1 43/43/1
f 13/13/1 34/34/1 43/43/1
f 17/17/1 9/9/1 16/16/1
f 28/28/1 19/19/1 27/27/1
f 31/31/1 32/32/1 22/22/1
f 17/17/5 16/16/5 44/44/5
f 45/45/3 44/44/3 16/16/3
f 45/45/1 16/16/1 36/36/1
f 17/17/6 44/44/6 33/33/6
f 33/33/1 44/44/1 45/45/1
f 33/33/1 45/45/1 35/35/1
f 45/45/1 36/36/1 35/35/1
f 28/28/1 27/27/1 46/46/1
f 46/46/1 27/27/1 32/32/1
f 38/38/1 28/28/1 46/46/1
f 38/38/1 46/46/1 32/32/1
f 24/24/1 47/47/1 29/29/1
f 29/29/1 47/47/1 48/48/1
f 49/49/3 29/29/3 48/48/3
f 49/49/1 37/37/1 29/29/1
f 50/50/1 37/37/1 49/49/1
f 39/39/1 37/37/1 50/50/1
f 51/51/7 52/52/7 53/53/7
f 53/53/7 52/52/7 54/54/7
f 55/55/7 51/51/7 53/53/7
f 56/56/8 55/55/8 57/57/8
f 57/57/7 55/55/7 53/53/7
f 53/53/7 54/54/7 58/58/7
f 58/58/7 54/54/7 59/59/7
f 60/60/7 61/61/7 62/62/7
f 63/63/9 64/64/9 62/62/9
f 64/64/7 65/65/7 62/62/7
f 65/65/7 66/66/7 62/62/7
f 66/66/7 67/67/7 62/62/7
f 68/68/7 67/67/7 66/66/7
f 69/69/10 67/67/10 68/68/10
f 70/70/7 61/61/7 60/60/7
f 71/71/7 67/67/7 69/69/7
f 61/61/11 63/63/11 62/62/11
f 72/72/7 67/67/7 71/71/7
f 73/73/7 74/74/7 75/75/7
f 73/73/7 76/76/7 77/77/7
f 78/78/7 77/77/7 76/76/7
f 78/78/7 76/76/7 79/79/7
f 79/79/7 76/76/7 80/80/7
f 80/80/7 76/76/7 81/81/7
f 82/82/7 80/80/7 81/81/7
f 73/73/7 83/83/7 76/76/7
f 84/84/7 81/81/7 85/85/7
f 73/73/7 75/75/7 86/86/7
f 81/81/7 87/87/7 82/82/7
f 73/73/12 77/77/12 74/74/12
f 84/84/7 87/87/7 81/81/7
f 88/88/7 89/89/7 90/90/7
f 88/88/7 90/90/7 91/91/7
f 88/88/7 91/91/7 92/92/7
f 88/88/9 92/92/9 93/93/9
f 88/88/7 93/93/7 94/94/7
f 95/95/7 96/96/7 97/97/7
f 98/98/7 95/95/7 99/99/7
f 99/99/7 95/95/7 97/97/7
f 100/100/9 98/98/9 99/99/9
f 101/101/7 102/102/7 99/99/7
f 101/101/7 99/99/7 97/97/7
f 103/103/7 104/104/7 102/102/7
f 102/102/7 105/105/7 103/103/7
f 106/106/7 105/105/7 102/102/7
f 101/101/7 106/106/7 102/102/7
f 106/106/7 107/107/7 105/105/7
f 101/101/7 97/97/7 108/108/7
f 109/109/7 106/106/7 101/101/7
f 110/110/7 111/111/7 112/112/7
f 112/112/7 111/111/7 113/113/7
f 114/114/7 115/115/7 110/110/7
f 115/115/13 116/116/13 110/110/13
f 116/116/9 111/111/9 110/110/9
f 111/111/7 117/117/7 113/113/7
f 118/118/7 119/119/7 111/111/7
f 119/119/14 120/120/14 111/111/14
f 120/120/7 121/121/7 111/111/7
f 111/111/7 122/122/7 117/117/7
f 111/111/15 123/123/15 122/122/15
f 111/111/7 121/121/7 123/123/7
f 117/117/7 124/124/7 113/113/7
f 125/125/7 119/119/7 118/118/7
f 126/126/7 119/119/7 125/125/7
f 117/117/7 127/127/7 124/124/7
f 127/127/16 128/128/16 124/124/16
f 128/128/12 129/129/12 124/124/12
f 130/130/7 131/131/7 132/132/7
f 130/130/12 132/132/12 133/133/12
f 133/133/9 132/132/9 134/134/9
f 133/133/12 134/134/12 135/135/12
f 133/133/7 135/135/7 136/136/7
f 137/137/7 138/138/7 139/139/7
f 137/137/7 139/139/7 140/140/7
f 140/140/7 139/139/7 141/141/7
f 142/142/7 143/143/7 144/144/7
f 145/145/7 146/146/7 143/143/7
f 145/145/17 143/143/17 142/142/17
f 146/146/7 145/145/7 147/147/7
f 148/148/7 147/147/7 145/145/7
f 149/149/7 147/147/7 148/148/7
f 150/150/7 147/147/7 149/149/7
f 151/151/7 150/150/7 149/149/7
f 152/152/7 150/150/7 151/151/7
