# Blender v3.0.1 OBJ File: 'rockerfeller_plaza.blend'
# www.blender.org
o geometryt000010000010000110010110000110000110100000100010st26
v 671.365173 -222.692459 388.605499
v 671.365173 -222.692459 383.575348
v 694.001099 -234.705948 383.575348
v 694.001099 -234.705948 388.605499
v 671.335815 -220.249359 388.605499
v 672.467590 -218.136154 383.575348
v 670.854370 -221.148148 383.575348
v 672.467590 -218.136154 388.605499
v 670.854370 -221.148148 388.605499
v 695.578186 -234.269760 383.575348
v 697.192505 -231.258362 383.575348
v 697.192505 -231.258362 388.605499
v 695.578186 -234.269760 388.605499
v 708.582153 -179.816147 388.105499
v 717.119202 -184.244751 383.575348
v 700.437500 -175.591156 383.575348
v 717.119202 -184.244751 388.105499
v 700.437500 -175.591156 388.105499
vt 0.000000 0.250000
vt 0.000000 0.000000
vt 2.500000 0.000000
vt 2.500000 0.250000
vt 0.233860 0.250000
vt 0.000000 0.000000
vt 0.333330 0.000000
vt 0.000000 0.250000
vt 0.333330 0.250000
vt 0.000000 0.000000
vt 0.333330 0.000000
vt 0.333330 0.250000
vt 0.000000 0.250000
vt 0.938220 0.250000
vt 0.000000 0.000000
vt 1.833330 0.000000
vt 0.000000 0.250000
vt 1.833330 0.250000
vn -0.4688 -0.8833 0.0000
vn -0.8815 0.4721 0.0000
vn -0.8815 0.4722 0.0000
vn 0.8814 -0.4725 0.0000
vn 0.8813 -0.4725 0.0000
vn 0.4605 0.8877 -0.0000
s off
f 1/1/1 2/2/1 3/3/1
f 1/1/1 3/3/1 4/4/1
f 5/5/2 6/6/2 7/7/2
f 8/8/2 6/6/2 5/5/2
f 5/5/3 7/7/3 9/9/3
f 10/10/4 11/11/4 12/12/4
f 13/13/5 10/10/5 12/12/5
f 14/14/6 15/15/6 16/16/6
f 17/17/6 15/15/6 14/14/6
f 14/14/6 16/16/6 18/18/6
