# Blender v3.0.1 OBJ File: 'rockerfeller_plaza.blend'
# www.blender.org
o geometryt000010000010000110010110000110000110100000100100st110
v 386.611206 -199.197723 611.358032
v 387.437592 -199.641418 635.491150
v 386.611206 -199.197723 635.491150
v 378.103699 -194.629623 611.358032
v 387.437592 -199.641418 610.491150
v 378.103699 -194.629623 635.491150
v 377.277405 -194.186020 635.491150
v 377.277405 -194.186020 610.491150
v 377.630615 -193.526123 611.358032
v 377.277405 -194.186020 635.491150
v 377.630615 -193.526123 635.491150
v 388.046204 -174.066620 611.358032
v 377.277405 -194.186020 610.491150
v 388.046204 -174.066620 635.491150
v 388.399414 -173.406723 635.491150
v 388.399414 -173.406723 610.491150
v 384.625305 -183.553619 642.191162
v 384.625305 -183.553619 635.491150
v 384.929901 -183.715622 635.491150
v 384.929901 -183.715622 642.191162
v 386.147705 -184.363724 642.191162
v 386.147705 -184.363724 635.491150
v 387.249817 -184.950119 635.491150
v 387.249817 -184.950119 642.191162
v 390.903198 -186.894226 642.191162
v 390.903198 -186.894226 635.491150
v 391.646118 -187.289627 635.491150
v 392.005310 -187.480728 635.491150
v 392.005310 -187.480728 642.191162
v 393.223083 -188.128723 642.191162
v 393.223083 -188.128723 635.491150
v 393.527710 -188.290817 635.491150
v 393.527710 -188.290817 642.191162
v 384.788513 -183.249619 642.191162
v 384.788513 -183.249619 635.491150
v 384.625305 -183.553619 635.491150
v 384.625305 -183.553619 642.191162
v 385.857300 -181.258728 642.191162
v 385.857300 -181.258728 635.491150
v 385.697693 -181.555923 635.491150
v 385.440979 -182.034225 635.491150
v 385.440979 -182.034225 642.191162
v 388.883392 -175.621628 642.191162
v 388.883392 -175.621628 635.491150
v 388.467102 -176.397018 635.491150
v 388.467102 -176.397018 642.191162
v 389.699097 -174.102219 642.191162
v 389.699097 -174.102219 635.491150
v 389.535889 -174.406128 635.491150
v 389.535889 -174.406128 642.191162
v 398.421997 -179.165924 642.191162
v 398.421997 -179.165924 611.358032
v 398.584991 -178.861923 635.491150
v 398.584991 -178.861923 642.191162
v 395.813782 -184.028625 611.358032
v 398.584991 -178.861923 610.491150
v 395.227997 -185.120728 642.191162
v 395.813782 -184.028625 642.191162
v 395.227997 -185.120728 611.358032
v 393.527710 -188.290817 610.491150
v 394.575989 -186.336426 611.358032
v 393.990112 -187.428619 642.191162
v 394.575989 -186.336426 642.191162
v 393.990112 -187.428619 611.358032
v 392.033997 -191.075531 611.358032
v 392.033997 -191.075531 634.482849
v 391.448181 -192.167725 634.482849
v 391.448181 -192.167725 611.358032
v 393.338104 -188.644226 634.482849
v 393.338104 -188.644226 635.491150
v 387.439209 -199.642227 635.491150
v 390.210388 -194.475616 634.482849
v 390.796204 -193.383423 634.482849
v 387.439209 -199.642227 610.491150
v 387.602203 -199.338226 634.482849
v 390.210388 -194.475616 611.358032
v 387.602203 -199.338226 611.358032
v 390.796204 -193.383423 611.358032
v 389.698120 -174.103928 635.491150
v 389.698120 -174.103928 642.191162
v 391.058594 -174.834320 642.191162
v 389.918793 -174.222427 634.482849
v 388.703308 -173.569931 634.482849
v 388.399414 -173.406723 635.491150
v 391.058594 -174.834320 611.358032
v 394.654205 -176.764526 610.491150
v 395.920288 -177.444229 611.358032
v 391.403992 -175.019730 610.491150
v 389.698120 -174.103928 610.491150
v 389.918793 -174.222427 611.358032
v 397.060120 -178.056122 642.191162
v 395.920288 -177.444229 642.191162
v 397.060120 -178.056122 611.358032
v 398.579498 -178.871719 610.491150
v 398.275513 -178.708527 611.358032
v 398.275513 -178.708527 642.191162
v 398.579498 -178.871719 635.491150
v 398.579498 -178.871719 642.191162
v 388.399414 -173.406723 610.491150
v 388.703308 -173.569931 611.358032
vt 56.958321 4.660440
vt 62.000751 134.408600
vt 56.958321 134.408600
vt 5.042430 4.660440
vt 62.000751 0.000000
vt 5.042430 134.408600
vt 0.000000 134.408600
vt 0.000000 0.000000
vt 122.688698 4.660440
vt 126.712502 134.408600
vt 122.688698 134.408600
vt 4.023820 4.660440
vt 126.712502 0.000000
vt 4.023820 134.408600
vt 0.000000 134.408600
vt 0.000000 0.000000
vt 0.000000 36.021511
vt 0.000000 0.000000
vt 1.854840 0.000000
vt 1.854840 36.021511
vt 9.271390 36.021511
vt 9.271390 0.000000
vt 15.983580 0.000000
vt 15.983580 36.021511
vt 38.233250 36.021511
vt 38.233250 0.000000
vt 42.757759 0.000000
vt 44.945438 0.000000
vt 44.945438 36.021511
vt 52.362000 36.021511
vt 52.362000 0.000000
vt 54.216839 0.000000
vt 54.216839 36.021511
vt 55.818062 36.021511
vt 55.818062 0.000000
vt 57.672901 0.000000
vt 57.672901 36.021511
vt 43.669559 36.021511
vt 43.669559 0.000000
vt 45.483360 0.000000
vt 48.401508 0.000000
vt 48.401508 36.021511
vt 9.271390 36.021511
vt 9.271390 0.000000
vt 14.003340 0.000000
vt 14.003340 36.021511
vt 0.000000 36.021511
vt 0.000000 0.000000
vt 1.854840 0.000000
vt 1.854840 36.021511
vt 124.923401 170.430099
vt 124.923401 4.660440
vt 126.778297 134.408600
vt 126.778297 170.430099
vt 95.257187 4.660440
vt 126.778297 0.000000
vt 88.593849 170.430099
vt 95.257187 170.430099
vt 88.593849 4.660440
vt 69.253708 0.000000
vt 81.177299 4.660440
vt 74.513962 170.430099
vt 81.177299 170.430099
vt 74.513962 4.660440
vt 52.264290 4.660440
vt 45.600960 4.660440
vt 67.097397 128.987701
vt 67.097397 134.408600
vt 52.264290 128.987701
vt 45.600960 128.987701
vt 0.000000 134.408600
vt 31.521061 128.987701
vt 38.184399 128.987701
vt 0.000000 0.000000
vt 1.854840 128.987701
vt 31.521061 4.660440
vt 1.854840 4.660440
vt 38.184399 4.660440
vt 54.194630 134.408600
vt 54.194630 170.430099
vt 45.893028 170.430099
vt 52.848431 128.987701
vt 60.264992 128.987701
vt 62.119831 134.408600
vt 45.893028 4.660440
vt 23.952490 0.000000
vt 16.226801 4.660440
vt 43.785358 0.000000
vt 54.194630 0.000000
vt 52.848431 4.660440
vt 9.271390 170.430099
vt 16.226801 170.430099
vt 9.271390 4.660440
vt 0.000000 0.000000
vt 1.854840 4.660440
vt 1.854840 170.430099
vt 0.000000 134.408600
vt 0.000000 170.430099
vt 62.119831 0.000000
vt 60.264992 4.660440
vn -0.4730 -0.8810 0.0000
vn -0.4731 -0.8810 -0.0000
vn -0.4730 -0.8811 0.0000
vn -0.8816 0.4720 0.0000
vn -0.8817 0.4719 0.0000
vn -0.8817 0.4718 0.0000
vn -0.8816 0.4719 0.0000
vn -0.4695 -0.8829 0.0000
vn -0.4697 -0.8828 0.0000
vn -0.4698 -0.8828 0.0000
vn -0.8811 0.4729 0.0000
vn -0.8810 0.4731 0.0000
vn -0.8811 0.4730 0.0000
vn -0.8810 0.4732 0.0000
vn -0.8810 0.4730 0.0000
vn 0.8812 -0.4728 -0.0000
vn 0.8813 -0.4726 0.0000
vn 0.8813 -0.4726 -0.0001
vn 0.8813 -0.4725 0.0000
vn 0.8812 -0.4727 0.0000
vn 0.8813 -0.4726 0.0001
vn 0.8812 -0.4727 0.0001
vn 0.8812 -0.4727 0.0003
vn 0.8813 -0.4726 -0.0002
vn 0.8812 -0.4727 -0.0001
vn 0.8811 -0.4729 0.0000
vn 0.4730 0.8811 0.0000
vn 0.4730 0.8811 0.0001
vn 0.4730 0.8811 -0.0001
vn 0.4729 0.8811 0.0001
vn 0.4730 0.8810 0.0000
vn 0.4729 0.8811 0.0000
vn 0.4731 0.8810 0.0000
vn 0.4733 0.8809 0.0000
vn -0.4730 -0.8811 0.0001
vn 0.8813 -0.4726 0.0004
s off
f 1/1/1 2/2/1 3/3/1
f 4/4/2 5/5/2 1/1/2
f 2/2/2 1/1/2 5/5/2
f 6/6/3 7/7/3 4/4/3
f 7/7/3 8/8/3 4/4/3
f 9/9/4 10/10/4 11/11/4
f 12/12/5 13/13/5 9/9/5
f 10/10/6 9/9/6 13/13/6
f 14/14/5 15/15/5 12/12/5
f 15/15/7 16/16/7 12/12/7
f 16/16/7 13/13/7 12/12/7
f 17/17/8 18/18/8 19/19/8
f 17/17/8 19/19/8 20/20/8
f 21/21/9 22/22/9 23/23/9
f 21/21/9 23/23/9 24/24/9
f 25/25/10 26/26/10 27/27/10
f 27/27/9 28/28/9 29/29/9
f 25/25/10 27/27/10 29/29/10
f 30/30/9 31/31/9 32/32/9
f 30/30/9 32/32/9 33/33/9
f 34/34/11 35/35/11 36/36/11
f 34/34/12 36/36/12 37/37/12
f 38/38/12 39/39/12 40/40/12
f 40/40/13 41/41/13 42/42/13
f 38/38/13 40/40/13 42/42/13
f 43/43/13 44/44/13 45/45/13
f 43/43/13 45/45/13 46/46/13
f 47/47/14 48/48/14 49/49/14
f 47/47/15 49/49/15 50/50/15
f 51/51/16 52/52/16 53/53/16
f 53/53/17 54/54/17 51/51/17
f 55/55/18 56/56/18 52/52/18
f 53/53/19 52/52/19 56/56/19
f 57/57/20 55/55/20 58/58/20
f 57/57/20 59/59/20 55/55/20
f 59/59/21 60/60/21 55/55/21
f 55/55/20 60/60/20 56/56/20
f 59/59/18 61/61/18 60/60/18
f 62/62/20 61/61/20 63/63/20
f 62/62/20 64/64/20 61/61/20
f 61/61/22 64/64/22 60/60/22
f 64/64/20 65/65/20 60/60/20
f 65/65/22 68/66/22 60/60/22
f 69/67/20 70/68/20 66/69/20
f 70/68/23 67/70/23 66/69/23
f 70/68/20 71/71/20 72/72/20
f 70/68/17 72/72/17 73/73/17
f 70/68/24 73/73/24 67/70/24
f 74/74/19 75/75/19 71/71/19
f 75/75/25 72/72/25 71/71/25
f 60/60/20 76/76/20 74/74/20
f 76/76/21 77/77/21 74/74/21
f 76/76/26 60/60/26 78/78/26
f 79/79/27 80/80/27 81/81/27
f 81/81/27 82/82/27 79/79/27
f 79/79/27 82/82/27 83/83/27
f 84/84/27 79/79/27 83/83/27
f 81/81/27 85/85/27 82/82/27
f 86/86/28 85/85/28 87/87/28
f 88/88/27 85/85/27 86/86/27
f 89/89/27 85/85/27 88/88/27
f 89/89/28 90/90/28 85/85/28
f 82/82/27 85/85/27 90/90/27
f 91/91/27 87/87/27 92/92/27
f 91/91/27 93/93/27 87/87/27
f 93/93/27 86/86/27 87/87/27
f 94/94/29 93/93/29 95/95/29
f 94/94/30 86/86/30 93/93/30
f 95/95/31 96/96/31 97/97/31
f 94/94/27 95/95/27 97/97/27
f 96/96/32 98/98/32 97/97/32
f 89/89/28 99/99/28 100/100/28
f 89/89/28 100/100/28 90/90/28
f 99/99/33 84/84/33 83/83/33
f 99/99/34 83/83/34 100/100/34
s 1
f 8/8/35 5/5/35 4/4/35
f 66/69/20 67/70/20 65/65/20
f 65/65/20 67/70/20 68/66/20
f 77/77/17 75/75/17 74/74/17
f 60/60/36 68/66/36 78/78/36
f 76/76/20 78/78/20 72/72/20
f 78/78/20 73/73/20 72/72/20
