# Blender v3.0.1 OBJ File: 'rockerfeller_plaza.blend'
# www.blender.org
o geometryt000010000010000110010110000110000110100000110000st70
v 839.915894 -180.157532 426.888336
v 845.539856 -183.205032 426.888336
v 845.539856 -183.205032 455.171967
v 839.915894 -180.157532 455.171967
v 846.384216 -183.662643 455.171967
v 846.384216 -183.662643 426.888336
v 849.196228 -185.186432 426.888336
v 849.196228 -185.186432 455.171967
v 850.040527 -185.643936 426.888336
v 852.852539 -187.167740 426.888336
v 852.852539 -187.167740 455.171967
v 850.040527 -185.643936 455.171967
v 853.696960 -187.625244 426.888336
v 856.508850 -189.149033 426.888336
v 856.508850 -189.149033 455.171967
v 853.696960 -187.625244 455.171967
v 857.353271 -189.606644 455.171967
v 857.353271 -189.606644 426.888336
v 860.165283 -191.130341 426.888336
v 860.165283 -191.130341 455.171967
v 861.009644 -191.587936 426.888336
v 863.821533 -193.111740 426.888336
v 863.821533 -193.111740 455.171967
v 861.009644 -191.587936 455.171967
v 864.665955 -193.569244 455.171967
v 864.665955 -193.569244 426.888336
v 867.477966 -195.093033 426.888336
v 867.477966 -195.093033 455.171967
v 868.322266 -195.550644 426.888336
v 873.946228 -198.598145 426.888336
v 873.946228 -198.598145 455.171967
v 868.322266 -195.550644 455.171967
v 840.538818 -178.283844 426.888336
v 839.776978 -179.689835 426.888336
v 839.776978 -179.689835 455.171967
v 840.538818 -178.283844 455.171967
v 845.310486 -169.478333 455.171967
v 845.310486 -169.478333 426.888336
v 841.501038 -176.508240 426.888336
v 841.501038 -176.508240 455.171967
v 847.034546 -166.296844 426.888336
v 846.272644 -167.702835 426.888336
v 846.272644 -167.702835 455.171967
v 847.034546 -166.296844 455.171967
v 843.988159 -176.076233 459.171967
v 843.988159 -176.076233 455.171967
v 842.453247 -178.882141 455.171967
v 842.453247 -178.882141 459.171967
v 845.001526 -174.223740 459.171967
v 845.001526 -174.223740 455.171967
v 844.234070 -175.626740 455.171967
v 844.234070 -175.626740 459.171967
v 846.014893 -172.371338 455.171967
v 845.247437 -173.774338 455.171967
v 845.247437 -173.774338 459.171967
v 846.014893 -172.371338 459.171967
v 847.028198 -170.518936 459.171967
v 847.028198 -170.518936 455.171967
v 846.260742 -171.921844 455.171967
v 846.260742 -171.921844 459.171967
v 848.809021 -167.263535 459.171967
v 848.809021 -167.263535 455.171967
v 847.274109 -170.069443 455.171967
v 847.274109 -170.069443 459.171967
v 842.590088 -179.350845 455.171967
v 845.393738 -180.889938 455.171967
v 845.393738 -180.889938 459.171967
v 842.590088 -179.350845 459.171967
v 845.951111 -181.195938 459.171967
v 845.951111 -181.195938 455.171967
v 847.352905 -181.965439 455.171967
v 847.352905 -181.965439 459.171967
v 847.910339 -182.271439 455.171967
v 849.312134 -183.041046 455.171967
v 849.312134 -183.041046 459.171967
v 847.910339 -182.271439 459.171967
v 849.869568 -183.347046 455.171967
v 851.271362 -184.116531 455.171967
v 851.271362 -184.116531 459.171967
v 849.869568 -183.347046 459.171967
v 851.828735 -184.422546 459.171967
v 851.828735 -184.422546 455.171967
v 856.034180 -186.731232 455.171967
v 856.034180 -186.731232 459.171967
v 856.591553 -187.037231 455.171967
v 860.796936 -189.345840 455.171967
v 860.796936 -189.345840 459.171967
v 856.591553 -187.037231 459.171967
v 861.354370 -189.651840 455.171967
v 865.559753 -191.960541 455.171967
v 865.559753 -191.960541 459.171967
v 861.354370 -189.651840 459.171967
v 866.117126 -192.266541 455.171967
v 867.518921 -193.036041 455.171967
v 867.518921 -193.036041 459.171967
v 866.117126 -192.266541 459.171967
v 868.076355 -193.342041 459.171967
v 868.076355 -193.342041 455.171967
v 869.478149 -194.111542 455.171967
v 869.478149 -194.111542 459.171967
v 870.035522 -194.417542 459.171967
v 870.035522 -194.417542 455.171967
v 871.437378 -195.187134 455.171967
v 871.437378 -195.187134 459.171967
v 871.994751 -195.493134 459.171967
v 871.994751 -195.493134 455.171967
v 872.217346 -195.615341 455.171967
v 874.798462 -197.032242 459.171967
v 874.798462 -197.032242 455.171967
v 848.671631 -166.795837 455.171967
v 848.671631 -166.795837 426.888336
v 847.501892 -166.158539 426.888336
v 847.501892 -166.158539 455.171967
v 852.090149 -168.648438 459.171967
v 852.090149 -168.648438 426.888336
v 849.277954 -167.125244 426.888336
v 849.277954 -167.125244 459.171967
v 854.253845 -169.820541 459.171967
v 854.253845 -169.820541 426.888336
v 852.847778 -169.058838 426.888336
v 852.847778 -169.058838 459.171967
v 856.417664 -170.992538 459.171967
v 856.417664 -170.992538 426.888336
v 855.011475 -170.230835 426.888336
v 855.011475 -170.230835 459.171967
v 859.987427 -172.926132 426.888336
v 857.175232 -171.402832 426.888336
v 857.175232 -171.402832 459.171967
v 859.987427 -172.926132 459.171967
v 862.216125 -176.990936 426.888336
v 859.404236 -175.467041 426.888336
v 859.404236 -175.467041 459.171967
v 862.216125 -176.990936 459.171967
v 864.129456 -178.027939 459.171967
v 864.129456 -178.027939 426.888336
v 862.723572 -177.265945 426.888336
v 862.723572 -177.265945 459.171967
v 866.042725 -179.064941 426.888336
v 864.636719 -178.302933 426.888336
v 864.636719 -178.302933 459.171967
v 866.042725 -179.064941 459.171967
v 867.956055 -180.101837 426.888336
v 866.550049 -179.339844 426.888336
v 866.550049 -179.339844 459.171967
v 867.956055 -180.101837 459.171967
v 871.275269 -181.900833 426.888336
v 868.463379 -180.376846 426.888336
v 868.463379 -180.376846 459.171967
v 871.275269 -181.900833 459.171967
v 873.188538 -182.937744 426.888336
v 871.782532 -182.175842 426.888336
v 871.782532 -182.175842 459.171967
v 873.188538 -182.937744 459.171967
v 875.101746 -183.974731 459.171967
v 875.101746 -183.974731 426.888336
v 873.695862 -183.212738 426.888336
v 873.695862 -183.212738 459.171967
v 877.015015 -185.011734 459.171967
v 877.015015 -185.011734 426.888336
v 875.609131 -184.249741 426.888336
v 875.609131 -184.249741 459.171967
v 880.334229 -186.810638 426.888336
v 877.522461 -185.286636 426.888336
v 877.522461 -185.286636 459.171967
v 880.334229 -186.810638 459.171967
v 859.317139 -174.900742 426.888336
v 860.074646 -173.492340 426.888336
v 860.074646 -173.492340 459.171967
v 859.317139 -174.900742 459.171967
v 869.375671 -186.158142 459.171967
v 868.373962 -187.992645 459.171967
v 869.375671 -186.158142 463.071960
v 867.076477 -190.368744 463.071960
v 867.076477 -190.368744 459.171967
v 866.894470 -191.523743 459.171967
v 873.615173 -195.165146 459.171967
v 866.894470 -191.523743 463.071960
v 873.924561 -195.332840 463.071960
v 873.924561 -195.332840 459.171967
v 877.280273 -189.187439 459.171967
v 870.250122 -185.378342 459.171967
v 870.250122 -185.378342 463.071960
v 877.280273 -189.187439 463.071960
v 874.414429 -198.459442 455.171967
v 874.414429 -198.459442 426.888336
v 874.935974 -197.501236 426.888336
v 874.935974 -197.501236 455.171967
v 874.799072 -194.553040 463.071960
v 874.799072 -194.553040 459.171967
v 877.098267 -190.342438 459.171967
v 877.098267 -190.342438 463.071960
v 875.265137 -196.894836 459.171967
v 875.265137 -196.894836 426.888336
v 876.788269 -194.082535 426.888336
v 876.788269 -194.082535 459.171967
v 877.488464 -192.789734 426.888336
v 878.250061 -191.383545 426.888336
v 878.250061 -191.383545 459.171967
v 877.488464 -192.789734 459.171967
v 878.950134 -190.090744 426.888336
v 880.473389 -187.278442 426.888336
v 880.473389 -187.278442 459.171967
v 878.950134 -190.090744 459.171967
vt 0.000000 0.000000
vt 1.333330 0.000000
vt 1.333330 7.000000
vt 0.000000 7.000000
vt 0.000000 7.000000
vt 0.000000 0.000000
vt 0.666670 0.000000
vt 0.666670 7.000000
vt 0.000000 0.000000
vt 0.666670 0.000000
vt 0.666670 7.000000
vt 0.000000 7.000000
vt 0.000000 0.000000
vt 0.666670 0.000000
vt 0.666670 7.000000
vt 0.000000 7.000000
vt 0.000000 7.000000
vt 0.000000 0.000000
vt 0.666670 0.000000
vt 0.666670 7.000000
vt 0.000000 0.000000
vt 0.666670 0.000000
vt 0.666670 7.000000
vt 0.000000 7.000000
vt 0.000000 7.000000
vt 0.000000 0.000000
vt 0.666670 0.000000
vt 0.666670 7.000000
vt 0.000000 0.000000
vt 1.333330 0.000000
vt 1.333330 7.000000
vt 0.000000 7.000000
vt 0.000000 0.000000
vt 0.333330 0.000000
vt 0.333330 7.000000
vt 0.000000 7.000000
vt 0.000000 7.000000
vt 0.000000 0.000000
vt 1.666670 0.000000
vt 1.666670 7.000000
vt 0.000000 0.000000
vt 0.333330 0.000000
vt 0.333330 7.000000
vt 0.000000 7.000000
vt 0.000000 1.000000
vt 0.000000 0.000000
vt 0.666670 0.000000
vt 0.666670 1.000000
vt 0.000000 1.000000
vt 0.000000 0.000000
vt 0.333330 0.000000
vt 0.333330 1.000000
vt 0.000000 0.000000
vt 0.333330 0.000000
vt 0.333330 1.000000
vt 0.000000 1.000000
vt 0.000000 1.000000
vt 0.000000 0.000000
vt 0.333330 0.000000
vt 0.333330 1.000000
vt 0.000000 1.000000
vt 0.000000 0.000000
vt 0.666670 0.000000
vt 0.666670 1.000000
vt 0.000000 0.000000
vt 0.666670 0.000000
vt 0.666670 1.000000
vt 0.000000 1.000000
vt 0.000000 1.000000
vt 0.000000 0.000000
vt 0.333330 0.000000
vt 0.333330 1.000000
vt 0.000000 0.000000
vt 0.333330 0.000000
vt 0.333330 1.000000
vt 0.000000 1.000000
vt 0.000000 0.000000
vt 0.333330 0.000000
vt 0.333330 1.000000
vt 0.000000 1.000000
vt 0.000000 1.000000
vt 0.000000 0.000000
vt 1.000000 0.000000
vt 1.000000 1.000000
vt 0.000000 0.000000
vt 1.000000 0.000000
vt 1.000000 1.000000
vt 0.000000 1.000000
vt 0.000000 0.000000
vt 1.000000 0.000000
vt 1.000000 1.000000
vt 0.000000 1.000000
vt 0.000000 0.000000
vt 0.333330 0.000000
vt 0.333330 1.000000
vt 0.000000 1.000000
vt 0.000000 1.000000
vt 0.000000 0.000000
vt 0.333330 0.000000
vt 0.333330 1.000000
vt 0.000000 1.000000
vt 0.000000 0.000000
vt 0.333330 0.000000
vt 0.333330 1.000000
vt 0.000000 1.000000
vt 0.000000 0.000000
vt 0.052920 0.000000
vt 0.666670 1.000000
vt 0.666670 0.000000
vt 0.000000 7.000000
vt 0.000000 0.000000
vt 0.333330 0.000000
vt 0.333330 7.000000
vt 0.000000 8.000000
vt 0.000000 0.000000
vt 0.666670 0.000000
vt 0.666670 8.000000
vt 0.000000 8.000000
vt 0.000000 0.000000
vt 0.333330 0.000000
vt 0.333330 8.000000
vt 0.000000 8.000000
vt 0.000000 0.000000
vt 0.333330 0.000000
vt 0.333330 8.000000
vt 0.000000 0.000000
vt 0.666670 0.000000
vt 0.666670 8.000000
vt 0.000000 8.000000
vt 0.000000 8.000000
vt 0.000000 0.000000
vt 0.333330 0.000000
vt 0.333330 8.000000
vt 0.000000 0.000000
vt 0.666670 0.000000
vt 0.666670 8.000000
vt 0.000000 8.000000
vt 0.000000 8.000000
vt 0.000000 0.000000
vt 0.333330 0.000000
vt 0.333330 8.000000
vt 0.000000 0.000000
vt 0.435670 0.000000
vt 0.000000 1.000000
vt 1.000000 1.000000
vt 1.000000 0.000000
vt 0.000000 0.000000
vt 1.593320 0.000000
vt 0.000000 1.000000
vt 1.666670 1.000000
vt 1.666670 0.000000
vt 0.000000 0.000000
vt 1.666670 0.000000
vt 1.666670 1.000000
vt 0.000000 1.000000
vt 0.000000 1.000000
vt 0.000000 0.000000
vt 1.000000 0.000000
vt 1.000000 1.000000
vt 0.000000 0.000000
vt 0.333330 0.000000
vt 0.333330 8.000000
vt 0.000000 8.000000
vt 0.000000 0.000000
vt 0.666670 0.000000
vt 0.666670 8.000000
vt 0.000000 8.000000
vt 0.000000 0.000000
vt 0.666670 0.000000
vt 0.666670 8.000000
vt 0.000000 8.000000
vt 0.000000 0.000000
vt 0.333330 0.000000
vt 0.333330 8.000000
vt 0.000000 8.000000
vt 0.000000 0.000000
vt 0.333330 0.000000
vt 0.333330 8.000000
vt 0.000000 8.000000
vt 0.000000 0.000000
vt 0.333330 0.000000
vt 0.333330 8.000000
vt 0.000000 8.000000
vt 0.000000 8.000000
vt 0.000000 0.000000
vt 0.333330 0.000000
vt 0.333330 8.000000
vt 0.000000 0.000000
vt 0.666670 0.000000
vt 0.666670 8.000000
vt 0.000000 8.000000
vt 0.000000 0.000000
vt 0.333330 0.000000
vt 0.333330 8.000000
vt 0.000000 8.000000
vt 0.000000 7.000000
vt 0.000000 0.000000
vt 0.333330 0.000000
vt 0.333330 7.000000
vt 0.000000 8.000000
vt 0.000000 0.000000
vt 0.666670 0.000000
vt 0.666670 8.000000
vn -0.4764 -0.8792 0.0000
vn -0.8792 0.4764 0.0000
vn -0.8792 0.4765 0.0000
vn -0.8773 0.4799 0.0000
vn -0.4812 -0.8766 0.0000
vn -0.4813 -0.8766 0.0000
vn 0.4784 0.8781 0.0000
vn 0.4763 0.8793 0.0000
vn 0.4765 0.8792 0.0000
vn -0.8777 0.4793 0.0000
vn -0.8777 0.4792 0.0000
vn -0.4765 -0.8792 0.0000
vn 0.4764 0.8792 0.0000
vn 0.8777 -0.4793 0.0000
vn 0.8793 -0.4762 0.0000
vn 0.8793 -0.4763 0.0000
vn 0.8807 -0.4737 0.0000
vn 0.8783 -0.4781 0.0000
vn 0.8784 -0.4779 0.0000
s off
f 1/1/1 2/2/1 3/3/1
f 4/4/1 1/1/1 3/3/1
f 5/5/1 6/6/1 7/7/1
f 5/5/1 7/7/1 8/8/1
f 9/9/1 10/10/1 11/11/1
f 12/12/1 9/9/1 11/11/1
f 13/13/1 14/14/1 15/15/1
f 16/16/1 13/13/1 15/15/1
f 17/17/1 18/18/1 19/19/1
f 17/17/1 19/19/1 20/20/1
f 21/21/1 22/22/1 23/23/1
f 24/24/1 21/21/1 23/23/1
f 25/25/1 26/26/1 27/27/1
f 25/25/1 27/27/1 28/28/1
f 29/29/1 30/30/1 31/31/1
f 32/32/1 29/29/1 31/31/1
f 33/33/2 34/34/2 35/35/2
f 36/36/2 33/33/2 35/35/2
f 37/37/2 38/38/2 39/39/2
f 37/37/2 39/39/2 40/40/2
f 41/41/2 42/42/2 43/43/2
f 44/44/3 41/41/3 43/43/3
f 45/45/4 46/46/4 47/47/4
f 45/45/4 47/47/4 48/48/4
f 49/49/4 50/50/4 51/51/4
f 49/49/4 51/51/4 52/52/4
f 53/53/4 54/54/4 55/55/4
f 56/56/4 53/53/4 55/55/4
f 57/57/4 58/58/4 59/59/4
f 57/57/4 59/59/4 60/60/4
f 61/61/4 62/62/4 63/63/4
f 61/61/4 63/63/4 64/64/4
f 65/65/5 66/66/5 67/67/5
f 68/68/5 65/65/5 67/67/5
f 69/69/5 70/70/5 71/71/5
f 69/69/5 71/71/5 72/72/5
f 73/73/5 74/74/5 75/75/5
f 76/76/6 73/73/6 75/75/6
f 77/77/5 78/78/5 79/79/5
f 80/80/5 77/77/5 79/79/5
f 81/81/5 82/82/5 83/83/5
f 81/81/5 83/83/5 84/84/5
f 85/85/5 86/86/5 87/87/5
f 88/88/5 85/85/5 87/87/5
f 89/89/5 90/90/5 91/91/5
f 92/92/5 89/89/5 91/91/5
f 93/93/5 94/94/5 95/95/5
f 96/96/5 93/93/5 95/95/5
f 97/97/5 98/98/5 99/99/5
f 97/97/5 99/99/5 100/100/5
f 101/101/5 102/102/5 103/103/5
f 101/101/5 103/103/5 104/104/5
f 105/105/5 106/106/5 107/107/5
f 108/108/5 107/107/5 109/109/5
f 108/108/5 105/105/5 107/107/5
f 110/110/7 111/111/7 112/112/7
f 110/110/7 112/112/7 113/113/7
f 114/114/8 115/115/8 116/116/8
f 114/114/8 116/116/8 117/117/8
f 118/118/8 119/119/8 120/120/8
f 118/118/8 120/120/8 121/121/8
f 122/122/8 123/123/8 124/124/8
f 122/122/8 124/124/8 125/125/8
f 126/126/8 127/127/8 128/128/8
f 129/129/8 126/126/8 128/128/8
f 134/130/9 135/131/9 136/132/9
f 134/130/9 136/132/9 137/133/9
f 146/134/9 147/135/9 148/136/9
f 149/137/9 146/134/9 148/136/9
f 154/138/9 155/139/9 156/140/9
f 154/138/9 156/140/9 157/141/9
f 170/142/10 171/143/10 172/144/10
f 173/145/11 171/143/11 174/146/11
f 172/144/10 171/143/10 173/145/10
f 175/147/1 176/148/1 177/149/1
f 178/150/12 176/148/12 179/151/12
f 177/149/1 176/148/1 178/150/1
f 180/152/13 181/153/13 182/154/13
f 183/155/13 180/152/13 182/154/13
f 188/156/14 189/157/14 190/158/14
f 188/156/14 190/158/14 191/159/14
f 196/160/15 197/161/15 198/162/15
f 199/163/15 196/160/15 198/162/15
f 200/164/15 201/165/15 202/166/15
f 203/167/16 200/164/16 202/166/16
s 1
f 130/168/9 131/169/9 132/170/9
f 133/171/9 130/168/9 132/170/9
f 138/172/9 139/173/9 140/174/9
f 141/175/9 138/172/9 140/174/9
f 142/176/9 143/177/9 144/178/9
f 145/179/9 142/176/9 144/178/9
f 150/180/13 151/181/13 152/182/13
f 153/183/13 150/180/13 152/182/13
f 158/184/9 159/185/9 160/186/9
f 158/184/9 160/186/9 161/187/9
f 162/188/9 163/189/9 164/190/9
f 165/191/9 162/188/9 164/190/9
f 166/192/17 167/193/17 168/194/17
f 169/195/17 166/192/17 168/194/17
f 184/196/18 185/197/19 186/198/19
f 184/196/18 186/198/19 187/199/18
f 192/200/15 193/201/16 194/202/16
f 192/200/15 194/202/16 195/203/15
