# Blender v3.0.1 OBJ File: 'rockerfeller_plaza.blend'
# www.blender.org
o geometryt000010000010000110010110000110000110100100000010st8
v 765.879639 -49.958008 931.199463
v 752.467102 -74.783562 931.199463
v 747.964172 -72.349136 931.199463
v 761.376892 -47.523598 931.199463
v 765.879639 -49.958008 937.999451
v 761.376892 -47.523598 937.999451
v 747.964172 -72.349136 937.999451
v 752.467102 -74.783562 937.999451
vt 0.008500 0.521210
vt 0.057940 0.493600
vt 0.054940 0.484580
vt 0.005500 0.512190
vt 0.008500 0.521210
vt 0.005500 0.512190
vt 0.054940 0.484580
vt 0.057940 0.493600
vn 0.0000 0.0000 -1.0000
vn 0.0000 0.0000 1.0000
s off
f 1/1/1 2/2/1 3/3/1
f 4/4/1 1/1/1 3/3/1
f 5/5/2 6/6/2 7/7/2
f 5/5/2 7/7/2 8/8/2
