# Blender v3.0.1 OBJ File: 'rockerfeller_plaza.blend'
# www.blender.org
o geometryt000010000010000110010110000110000110100100000010st44
v 627.910095 -65.553947 931.160889
v 642.188477 -38.919987 931.160889
v 634.969666 -69.335358 931.160889
v 642.965271 -73.738701 931.160889
v 654.077271 -79.693367 931.160889
v 695.422363 -67.598938 931.160889
v 672.746216 -83.550514 931.160889
v 670.181274 -88.043488 931.160889
v 693.307068 -71.542679 931.160889
v 683.738647 -89.395508 931.160889
v 632.284363 -62.028027 961.160889
v 627.910095 -65.553947 961.160889
v 634.969666 -69.335358 961.160889
v 642.188477 -38.919987 961.160889
v 636.208374 -64.116165 961.160889
v 640.216553 -47.228138 961.160889
v 642.965271 -73.738701 961.160889
v 642.829163 -67.639351 961.160889
v 641.852905 -44.175259 961.160889
v 642.311157 -44.419029 961.160889
v 644.063660 -45.351208 961.160889
v 668.569580 -58.385948 961.160889
v 695.422363 -67.598938 961.160889
v 651.982788 -72.510368 961.160889
v 654.077271 -79.693367 961.160889
v 658.907776 -76.195427 961.160889
v 661.437866 -77.540199 961.160889
v 672.746216 -83.550514 961.160889
v 670.181274 -88.043488 961.160889
v 689.273804 -69.397560 961.160889
v 691.319214 -70.485374 961.160889
v 693.307068 -71.542679 961.160889
v 658.907776 -76.195427 1074.160889
v 641.852905 -44.175259 1074.160889
v 632.284363 -62.028027 1074.160889
v 668.569580 -58.385948 1074.160889
v 658.907776 -76.195427 1079.160889
v 672.746216 -83.550514 1079.160889
v 668.569580 -58.385948 1079.160889
v 693.307068 -71.542679 1079.160889
v 683.738647 -89.395508 1079.160889
vt 0.080740 0.242770
vt 0.027740 0.272170
vt 0.085380 0.256910
vt 0.090850 0.272920
vt 0.098150 0.295180
vt 0.063000 0.378790
vt 0.099240 0.332720
vt 0.108230 0.327440
vt 0.070850 0.374440
vt 0.106380 0.354730
vt 0.072940 0.251670
vt 0.080740 0.242770
vt 0.085380 0.256910
vt 0.027740 0.272170
vt 0.075490 0.259530
vt 0.043490 0.268010
vt 0.090850 0.272920
vt 0.079790 0.272790
vt 0.037410 0.271370
vt 0.037710 0.272290
vt 0.038850 0.275800
vt 0.054770 0.324890
vt 0.063000 0.378790
vt 0.085750 0.291130
vt 0.098150 0.295180
vt 0.090250 0.305000
vt 0.091890 0.310070
vt 0.099240 0.332720
vt 0.108230 0.327440
vt 0.068230 0.366360
vt 0.069560 0.370460
vt 0.070850 0.374440
vt 0.090250 0.305000
vt 0.037410 0.271370
vt 0.072940 0.251670
vt 0.054770 0.324890
vt 0.090250 0.305000
vt 0.099240 0.332720
vt 0.054770 0.324890
vt 0.070850 0.374440
vt 0.106380 0.354730
vn 0.0000 0.0000 -1.0000
vn 0.0000 0.0000 1.0000
vn 0.0001 0.0000 1.0000
s off
f 1/1/1 2/2/1 3/3/1
f 3/3/1 2/2/1 4/4/1
f 4/4/1 2/2/1 5/5/1
f 2/2/1 6/6/1 5/5/1
f 5/5/1 7/7/1 8/8/1
f 6/6/1 7/7/1 5/5/1
f 7/7/1 9/9/1 10/10/1
f 6/6/1 9/9/1 7/7/1
f 11/11/2 12/12/2 13/13/2
f 14/14/2 12/12/2 11/11/2
f 13/13/2 15/15/2 11/11/2
f 14/14/2 11/11/2 16/16/2
f 15/15/2 13/13/2 17/17/2
f 18/18/2 15/15/2 17/17/2
f 19/19/3 14/14/3 16/16/3
f 14/14/2 19/19/2 20/20/2
f 14/14/2 20/20/2 21/21/2
f 14/14/2 21/21/2 22/22/2
f 22/22/2 23/23/2 14/14/2
f 18/18/2 17/17/2 24/24/2
f 24/24/2 17/17/2 25/25/2
f 24/24/2 25/25/2 26/26/2
f 26/26/2 25/25/2 27/27/2
f 25/25/2 28/28/2 27/27/2
f 25/25/2 29/29/2 28/28/2
f 30/30/2 23/23/2 22/22/2
f 23/23/2 30/30/2 31/31/2
f 23/23/2 31/31/2 32/32/2
f 33/33/2 34/34/2 35/35/2
f 33/33/2 36/36/2 34/34/2
f 37/37/2 38/38/2 39/39/2
f 39/39/2 38/38/2 40/40/2
f 40/40/2 38/38/2 41/41/2
