# Blender v3.0.1 OBJ File: 'rockerfeller_plaza.blend'
# www.blender.org
o geometryt000010000010000110010110000110000110100000010100st32
v 918.780334 -67.840324 144.216644
v 904.335022 -94.421341 144.216644
v 897.835938 -90.889008 144.216644
v 912.018005 -64.166748 144.216644
v 897.581055 -90.747658 144.216644
v 912.018005 -64.166748 190.916656
v 897.581055 -90.747658 190.916656
v 897.835938 -90.889008 190.916656
v 918.780334 -67.840324 190.916656
v 904.335022 -94.421341 190.916656
vt 0.068400 0.347380
vt 0.121370 0.317630
vt 0.117000 0.304620
vt 0.063870 0.333830
vt 0.116830 0.304110
vt 0.063870 0.333830
vt 0.116830 0.304110
vt 0.117000 0.304620
vt 0.068400 0.347380
vt 0.121370 0.317630
vn 0.0000 0.0000 -1.0000
vn -0.0001 0.0000 1.0000
vn 0.0000 0.0000 1.0000
s off
f 1/1/1 2/2/1 3/3/1
f 4/4/1 1/1/1 3/3/1
f 5/5/1 4/4/1 3/3/1
f 6/6/2 7/7/2 8/8/2
f 9/9/3 6/6/3 8/8/3
f 10/10/3 9/9/3 8/8/3
