# Blender v3.0.1 OBJ File: 'rockerfeller_plaza.blend'
# www.blender.org
o geometryt000010000010000110010110000110000100110010110010st44
v 156.789902 -234.086563 291.239594
v 161.632004 -236.706070 291.239594
v 158.979202 -241.632874 291.239594
v 148.467712 -249.526169 291.239594
v 153.309814 -252.145767 291.239594
v 158.979202 -241.632874 303.539612
v 156.789902 -234.086563 303.539612
v 148.467712 -249.526169 303.539612
v 161.632004 -236.706070 303.539612
v 153.309814 -252.145767 303.539612
vt 0.377120 0.304170
vt 0.380350 0.313870
vt 0.390150 0.308410
vt 0.407860 0.287040
vt 0.411090 0.296730
vt 0.390150 0.308410
vt 0.377120 0.304170
vt 0.407860 0.287040
vt 0.380350 0.313870
vt 0.411090 0.296730
vn -0.0000 0.0000 -1.0000
vn -0.0000 0.0000 1.0000
s off
f 1/1/1 2/2/1 3/3/1
f 4/4/1 3/3/1 5/5/1
f 4/4/1 1/1/1 3/3/1
f 6/6/2 7/7/2 8/8/2
f 9/9/2 7/7/2 6/6/2
f 6/6/2 8/8/2 10/10/2
