# Blender v3.0.1 OBJ File: 'rockerfeller_plaza.blend'
# www.blender.org
o geometryt000010000010000110010110000110000110100100000000st134
v 401.766937 -167.303879 888.825562
v 402.070526 -167.467575 935.128967
v 401.766937 -167.303879 935.128967
v 395.216034 -163.771271 888.825562
v 398.442810 -165.511383 887.128967
v 402.070526 -167.467575 887.128967
v 395.216034 -163.771271 935.128967
v 393.021637 -162.587982 935.128967
v 393.021637 -162.587982 888.825562
v 386.470825 -159.055481 888.825562
v 386.167114 -158.891785 887.128967
v 386.470825 -159.055481 935.128967
v 386.167114 -158.891785 935.128967
v 386.513611 -158.255081 888.825562
v 386.167114 -158.891785 935.128967
v 386.513611 -158.255081 935.128967
v 387.936829 -155.640274 888.825562
v 386.167114 -158.891785 887.128967
v 387.936829 -155.640274 935.128967
v 388.283325 -155.003571 935.128967
v 388.283325 -155.003571 887.128967
v 388.641632 -154.335083 888.825562
v 388.283325 -155.003571 935.128967
v 388.641632 -154.335083 935.128967
v 390.751129 -150.399185 888.825562
v 388.283325 -155.003571 887.128967
v 390.751129 -150.399185 935.128967
v 391.109436 -149.730576 935.128967
v 391.109436 -149.730576 887.128967
v 391.749146 -150.076385 888.825562
v 391.109436 -149.730576 935.128967
v 391.749146 -150.076385 935.128967
v 395.677551 -152.199783 888.825562
v 391.109436 -149.730576 887.128967
v 395.677551 -152.199783 935.128967
v 396.317322 -152.545578 935.128967
v 396.317322 -152.545578 887.128967
v 396.581909 -152.054474 888.825562
v 396.317322 -152.545578 935.128967
v 396.581909 -152.054474 935.128967
v 401.523743 -142.881271 888.825562
v 396.317322 -152.545578 887.128967
v 401.523743 -142.881271 935.128967
v 401.788330 -142.390182 935.128967
v 401.788330 -142.390182 887.128967
v 401.148529 -142.044373 888.825562
v 401.788330 -142.390182 935.128967
v 401.148529 -142.044373 935.128967
v 396.580444 -139.575180 887.128967
v 397.220123 -139.920975 888.825562
v 401.788330 -142.390182 887.128967
v 397.220123 -139.920975 935.128967
v 396.580444 -139.575180 935.128967
v 396.919525 -138.971680 887.128967
v 396.580444 -139.575180 887.128967
v 396.580444 -139.575180 935.128967
v 396.919525 -138.971680 935.128967
v 397.423523 -138.022171 887.128967
v 396.919525 -138.971680 887.128967
v 396.919525 -138.971680 935.128967
v 397.423523 -138.022171 935.128967
v 397.823730 -137.278885 888.825562
v 397.423523 -138.022171 935.128967
v 397.823730 -137.278885 935.128967
v 399.940613 -133.346985 888.825562
v 397.423523 -138.022171 887.128967
v 399.940613 -133.346985 935.128967
v 400.340820 -132.603683 935.128967
v 400.340820 -132.603683 887.128967
v 400.644409 -132.767380 888.825562
v 400.340820 -132.603683 935.128967
v 400.644409 -132.767380 935.128967
v 407.195526 -136.299576 888.825562
v 400.340820 -132.603683 887.128967
v 407.195526 -136.299576 935.128967
v 409.389923 -137.482773 935.128967
v 409.389923 -137.482773 888.825562
v 415.940918 -141.014984 888.825562
v 416.244537 -141.178680 887.128967
v 415.940918 -141.014984 935.128967
v 416.244537 -141.178680 935.128967
v 416.080811 -141.482376 888.825562
v 416.244537 -141.178680 935.128967
v 416.080811 -141.482376 935.128967
v 412.548737 -148.033478 888.825562
v 416.244537 -141.178680 887.128967
v 412.548737 -148.033478 935.128967
v 412.242523 -148.601273 935.128967
v 412.242523 -148.601273 888.825562
v 410.829712 -151.221771 888.825562
v 410.829712 -151.221771 935.128967
v 410.523529 -151.789581 935.128967
v 410.523529 -151.789581 888.825562
v 409.817139 -153.099777 888.825562
v 409.817139 -153.099777 935.128967
v 409.510925 -153.667679 935.128967
v 409.510925 -153.667679 888.825562
v 408.804535 -154.977875 888.825562
v 408.804535 -154.977875 935.128967
v 408.498413 -155.545776 935.128967
v 408.498413 -155.545776 888.825562
v 402.070923 -167.466782 887.128967
v 407.791931 -156.855972 888.825562
v 407.791931 -156.855972 935.128967
v 407.485840 -157.423782 935.128967
v 407.485840 -157.423782 888.825562
v 406.072937 -160.044281 888.825562
v 406.072937 -160.044281 935.128967
v 405.766846 -160.612076 935.128967
v 405.766846 -160.612076 888.825562
v 402.234741 -167.163177 888.825562
v 402.234741 -167.163177 935.128967
v 402.070923 -167.466782 935.128967
vt 7.089310 0.668210
vt 7.227310 18.905081
vt 7.089310 18.905081
vt 4.112270 0.668210
vt 5.578710 0.000000
vt 7.227310 0.000000
vt 4.112270 18.905081
vt 3.115040 18.905081
vt 3.115040 0.668210
vt 0.138000 0.668210
vt 0.000000 0.000000
vt 0.138000 18.905081
vt 0.000000 18.905081
vt 1.480750 0.668210
vt 1.770680 18.905081
vt 1.480750 18.905081
vt 0.289930 0.668210
vt 1.770680 0.000000
vt 0.289930 18.905081
vt 0.000000 18.905081
vt 0.000000 0.000000
vt 2.089640 0.668210
vt 2.393060 18.905081
vt 2.089640 18.905081
vt 0.303420 0.668210
vt 2.393060 0.000000
vt 0.303420 18.905081
vt 0.000000 18.905081
vt 0.000000 0.000000
vt 2.077110 0.668210
vt 2.368000 18.905081
vt 2.077110 18.905081
vt 0.290890 0.668210
vt 2.368000 0.000000
vt 0.290890 18.905081
vt 0.000000 18.905081
vt 0.000000 0.000000
vt 4.391000 0.668210
vt 4.614150 18.905081
vt 4.391000 18.905081
vt 4.614150 0.000000
vt 0.223150 18.905081
vt 0.000000 18.905081
vt 0.223150 0.668210
vt 0.000000 0.000000
vt 2.077110 0.668210
vt 2.368000 18.905081
vt 2.077110 18.905081
vt 0.000000 0.000000
vt 0.290890 0.668210
vt 2.368000 0.000000
vt 0.290890 18.905081
vt 0.000000 18.905081
vt 0.000000 0.000000
vt 0.276890 0.000000
vt 0.276890 18.905081
vt 0.000000 18.905081
vt 0.000000 0.000000
vt 0.430000 0.000000
vt 0.430000 18.905081
vt 0.000000 18.905081
vt 2.123880 0.668210
vt 2.461550 18.905081
vt 2.123880 18.905081
vt 0.337660 0.668210
vt 2.461550 0.000000
vt 0.337660 18.905081
vt 0.000000 18.905081
vt 0.000000 0.000000
vt 7.089290 0.668210
vt 7.227290 18.905081
vt 7.089290 18.905081
vt 4.112260 0.668210
vt 7.227290 0.000000
vt 4.112260 18.905081
vt 3.115040 18.905081
vt 3.115040 0.668210
vt 0.138000 0.668210
vt 0.000000 0.000000
vt 0.138000 18.905081
vt 0.000000 18.905081
vt 11.808250 0.668210
vt 11.946250 18.905081
vt 11.808250 18.905081
vt 8.831211 0.668210
vt 11.946250 0.000000
vt 8.831211 18.905081
vt 8.573161 18.905081
vt 8.573161 0.668210
vt 7.382340 0.668210
vt 7.382340 18.905081
vt 7.124290 18.905081
vt 7.124290 0.668210
vt 6.528880 0.668210
vt 6.528880 18.905081
vt 6.270830 18.905081
vt 6.270830 0.668210
vt 5.675420 0.668210
vt 0.000000 0.000000
vt 4.821960 18.905081
vt 4.563910 18.905081
vt 4.821960 0.668210
vt 4.563910 0.668210
vt 3.373090 18.905081
vt 3.115040 18.905081
vt 3.373090 0.668210
vt 3.115040 0.668210
vt 0.138000 0.668210
vt 0.138000 18.905081
vt 0.000000 18.905081
vt 5.675420 18.905081
vt 5.417370 18.905081
vt 5.417370 0.668210
vn -0.4746 -0.8802 0.0000
vn -0.4747 -0.8802 0.0000
vn -0.4746 -0.8802 0.0001
vn -0.4745 -0.8803 0.0000
vn -0.4744 -0.8803 0.0000
vn -0.8784 0.4780 0.0000
vn -0.8783 0.4781 -0.0000
vn -0.8783 0.4780 0.0000
vn -0.8813 0.4725 0.0000
vn -0.8814 0.4724 -0.0000
vn 0.4755 0.8797 0.0000
vn 0.4756 0.8797 0.0000
vn -0.8803 0.4744 0.0000
vn -0.8803 0.4743 0.0000
vn -0.8804 0.4743 -0.0000
vn -0.4755 -0.8797 0.0000
vn -0.4756 -0.8797 0.0000
vn -0.8718 0.4899 0.0000
vn -0.8718 0.4898 0.0000
vn -0.8833 0.4688 0.0000
vn -0.8805 0.4741 0.0000
vn -0.8805 0.4740 0.0000
vn 0.4746 0.8802 0.0000
vn 0.4746 0.8802 -0.0001
vn 0.4745 0.8802 0.0000
vn 0.8803 -0.4744 0.0000
vn 0.8802 -0.4746 -0.0000
vn 0.8800 -0.4750 0.0000
vn 0.8801 -0.4747 0.0000
vn 0.8803 -0.4745 -0.0002
vn 0.8802 -0.4747 0.0000
vn 0.8804 -0.4743 0.0000
vn 0.8801 -0.4748 -0.0005
vn 0.8802 -0.4746 -0.0002
vn 0.8802 -0.4745 -0.0000
vn 0.8803 -0.4745 0.0000
vn 0.8801 -0.4747 -0.0001
vn 0.8802 -0.4746 -0.0001
vn 0.8801 -0.4748 0.0000
vn 0.8801 -0.4748 -0.0001
vn 0.8802 -0.4747 0.0001
vn 0.8802 -0.4745 -0.0001
vn 0.8798 -0.4754 -0.0003
s off
f 1/1/1 2/2/1 3/3/1
f 4/4/1 5/5/1 1/1/1
f 5/5/1 6/6/1 1/1/1
f 2/2/2 1/1/2 6/6/2
f 7/7/1 8/8/1 4/4/1
f 8/8/1 9/9/1 4/4/1
f 9/9/3 5/5/3 4/4/3
f 10/10/1 11/11/1 9/9/1
f 9/9/1 11/11/1 5/5/1
f 12/12/4 13/13/4 10/10/4
f 13/13/5 11/11/5 10/10/5
f 14/14/6 15/15/6 16/16/6
f 17/17/7 18/18/7 14/14/7
f 15/15/8 14/14/8 18/18/8
f 19/19/6 20/20/6 17/17/6
f 20/20/6 21/21/6 17/17/6
f 21/21/8 18/18/8 17/17/8
f 22/22/9 23/23/9 24/24/9
f 25/25/10 26/26/10 22/22/10
f 23/23/10 22/22/10 26/26/10
f 27/27/10 28/28/10 25/25/10
f 28/28/10 29/29/10 25/25/10
f 29/29/10 26/26/10 25/25/10
f 30/30/11 31/31/11 32/32/11
f 33/33/11 34/34/11 30/30/11
f 31/31/12 30/30/12 34/34/12
f 35/35/11 36/36/11 33/33/11
f 36/36/11 37/37/11 33/33/11
f 37/37/11 34/34/11 33/33/11
f 38/38/13 39/39/13 40/40/13
f 39/39/14 38/38/14 42/41/14
f 43/42/13 44/43/13 41/44/13
f 45/45/15 42/41/15 41/44/15
f 46/46/16 47/47/16 48/48/16
f 49/49/16 46/46/16 50/50/16
f 49/49/16 51/51/16 46/46/16
f 47/47/16 46/46/16 51/51/16
f 52/52/16 53/53/16 50/50/16
f 53/53/17 49/49/17 50/50/17
f 54/54/18 55/55/18 56/56/18
f 54/54/19 56/56/19 57/57/19
f 58/58/20 59/59/20 60/60/20
f 58/58/20 60/60/20 61/61/20
f 62/62/21 63/63/21 64/64/21
f 65/65/22 66/66/22 62/62/22
f 63/63/21 62/62/21 66/66/21
f 67/67/21 68/68/21 65/65/21
f 68/68/22 69/69/22 65/65/22
f 69/69/21 66/66/21 65/65/21
f 70/70/23 71/71/23 72/72/23
f 73/73/23 74/74/23 70/70/23
f 71/71/23 70/70/23 74/74/23
f 75/75/23 76/76/23 73/73/23
f 76/76/23 77/77/23 73/73/23
f 77/77/24 74/74/24 73/73/24
f 78/78/23 79/79/23 77/77/23
f 77/77/23 79/79/23 74/74/23
f 80/80/23 81/81/23 78/78/23
f 81/81/25 79/79/25 78/78/25
f 82/82/26 83/83/26 84/84/26
f 85/85/27 86/86/27 82/82/27
f 83/83/28 82/82/28 86/86/28
f 87/87/29 88/88/29 85/85/29
f 88/88/26 89/89/26 85/85/26
f 89/89/30 90/90/30 86/86/30
f 91/91/27 92/92/27 90/90/27
f 92/92/31 93/93/31 90/90/31
f 93/93/32 94/94/32 86/86/32
f 95/95/27 96/96/27 94/94/27
f 96/96/27 97/97/27 94/94/27
f 94/94/33 97/97/33 86/86/33
f 97/97/34 98/98/34 86/86/34
f 98/98/35 102/99/35 86/86/35
f 104/100/36 105/101/36 103/102/36
f 105/101/36 106/103/36 103/102/36
f 108/104/27 109/105/27 107/106/27
f 109/105/36 110/107/36 107/106/36
f 110/107/37 102/99/37 107/106/37
f 111/108/38 102/99/38 110/107/38
f 112/109/36 113/110/36 111/108/36
f 113/110/39 102/99/39 111/108/39
s 1
f 41/44/15 42/41/15 38/38/15
f 44/43/15 45/45/15 41/44/15
f 89/89/40 86/86/40 85/85/40
f 90/90/41 93/93/41 86/86/41
f 99/111/35 100/112/35 98/98/42
f 100/112/35 101/113/40 98/98/42
f 101/113/40 102/99/38 98/98/42
f 103/102/27 102/99/38 101/113/40
f 106/103/43 102/99/38 103/102/27
f 107/106/36 102/99/38 106/103/43
