# Blender v3.0.1 OBJ File: 'rockerfeller_plaza.blend'
# www.blender.org
o geometryt000010000010000110010110000110000110100100000010st93
v 686.591064 -187.883682 930.407349
v 678.694885 -176.795578 930.407349
v 701.023804 -160.714874 930.407349
v 685.043091 -152.096878 930.407349
v 678.595581 -183.491470 930.407349
v 675.876953 -182.035385 930.407349
v 673.308472 -173.894073 930.407349
v 685.043091 -152.096878 987.707336
v 673.308472 -173.894073 987.707336
v 678.694885 -176.795578 987.707336
v 701.023804 -160.714874 987.707336
v 675.876953 -182.035385 987.707336
v 678.595581 -183.491470 987.707336
v 686.591064 -187.883682 987.707336
vt 0.284670 0.358170
vt 0.267010 0.342520
vt 0.230650 0.387900
vt 0.220050 0.355890
vt 0.279220 0.342160
vt 0.277440 0.336710
vt 0.263440 0.331730
vt 0.220050 0.355890
vt 0.263440 0.331730
vt 0.267010 0.342520
vt 0.230650 0.387900
vt 0.277440 0.336710
vt 0.279220 0.342160
vt 0.284670 0.358170
vn 0.0000 0.0000 -1.0000
vn -0.0001 0.0000 -1.0000
vn -0.0000 0.0000 1.0000
s off
f 1/1/1 2/2/1 3/3/1
f 2/2/1 4/4/1 3/3/1
f 2/2/1 1/1/1 5/5/1
f 6/6/2 2/2/2 5/5/2
f 2/2/1 7/7/1 4/4/1
f 8/8/3 9/9/3 10/10/3
f 10/10/3 11/11/3 8/8/3
f 12/12/3 13/13/3 10/10/3
f 13/13/3 14/14/3 10/10/3
f 10/10/3 14/14/3 11/11/3
