# Blender v3.0.1 OBJ File: 'rockerfeller_plaza.blend'
# www.blender.org
o geometryt000010000010000110010110000110000100110110010010st63
v 129.875443 -93.333527 843.581482
v 127.660240 -97.436493 843.581482
v 127.660240 -97.436493 912.866028
v 129.875443 -93.333527 912.866028
v 130.926636 -91.386574 843.581482
v 130.188248 -92.754227 843.581482
v 130.188248 -92.754227 912.866028
v 130.926636 -91.386574 912.866028
v 132.716248 -88.071968 843.581482
v 131.239441 -90.807274 843.581482
v 131.239441 -90.807274 912.866028
v 132.716248 -88.071968 912.866028
v 134.505844 -84.757355 912.866028
v 134.505844 -84.757355 843.581482
v 133.029037 -87.492668 843.581482
v 133.029037 -87.492668 912.866028
v 136.295441 -81.442734 843.581482
v 134.818634 -84.178047 843.581482
v 134.818634 -84.178047 912.866028
v 136.295441 -81.442734 912.866028
v 138.085037 -78.128128 912.866028
v 138.085037 -78.128128 843.581482
v 136.608139 -80.863434 843.581482
v 136.608139 -80.863434 912.866028
v 139.136139 -76.181175 843.581482
v 138.397751 -77.548828 843.581482
v 138.397751 -77.548828 912.866028
v 139.136139 -76.181175 912.866028
v 141.664139 -71.498909 912.866028
v 141.664139 -71.498909 843.581482
v 139.448944 -75.601875 843.581482
v 139.448944 -75.601875 912.866028
v 128.189545 -98.114906 912.866028
v 128.189545 -98.114906 843.581482
v 132.291138 -100.332687 843.581482
v 132.291138 -100.332687 912.866028
v 133.207047 -100.295288 843.581482
v 135.423141 -96.192787 843.581482
v 135.423141 -96.192787 912.866028
v 133.207047 -100.295288 912.866028
v 135.972443 -95.956673 912.866028
v 135.972443 -95.956673 843.581482
v 140.076645 -98.169579 843.581482
v 140.076645 -98.169579 912.866028
v 138.612137 -103.741882 912.866028
v 138.612137 -103.741882 843.581482
v 142.716248 -105.955185 843.581482
v 142.716248 -105.955185 912.866028
v 140.180542 -98.757858 843.581482
v 137.964447 -102.860382 843.581482
v 137.964447 -102.860382 912.866028
v 140.180542 -98.757858 912.866028
v 144.867050 -72.841003 912.866028
v 146.232849 -73.577728 843.581482
v 142.129044 -71.364166 843.581482
v 146.232849 -73.577728 912.866028
v 142.129044 -71.364166 912.866028
v 148.052246 -74.559067 843.581482
v 146.684341 -73.821213 843.581482
v 146.684341 -73.821213 912.866028
v 148.052246 -74.559067 912.866028
v 151.239639 -76.278267 843.581482
v 148.503738 -74.802567 843.581482
v 148.503738 -74.802567 912.866028
v 151.239639 -76.278267 912.866028
v 153.059052 -77.259613 843.581482
v 151.691040 -76.521767 843.581482
v 151.691040 -76.521767 912.866028
v 153.059052 -77.259613 912.866028
v 157.614349 -79.716667 843.581482
v 153.510437 -77.503113 843.581482
v 153.510437 -77.503113 912.866028
v 157.614349 -79.716667 912.866028
v 143.741547 -106.116188 843.581482
v 145.958145 -102.013885 843.581482
v 145.958145 -102.013885 912.866028
v 143.741547 -106.116188 912.866028
v 146.271149 -101.434685 843.581482
v 147.009949 -100.067284 843.581482
v 147.009949 -100.067284 912.866028
v 146.271149 -101.434685 912.866028
v 147.663437 -98.857803 912.866028
v 147.322937 -99.488098 843.581482
v 148.800644 -96.753265 843.581482
v 147.322937 -99.488098 912.866028
v 148.800644 -96.753265 912.866028
v 149.113541 -96.174065 912.866028
v 149.113541 -96.174065 843.581482
v 150.591339 -93.439232 843.581482
v 150.591339 -93.439232 912.866028
v 150.904251 -92.860039 843.581482
v 152.381943 -90.125206 843.581482
v 152.381943 -90.125206 912.866028
v 150.904251 -92.860039 912.866028
v 153.506943 -88.043167 912.866028
v 152.694946 -89.546005 843.581482
v 154.172638 -86.811165 843.581482
v 152.694946 -89.546005 912.866028
v 154.172638 -86.811165 912.866028
v 154.485550 -86.231964 843.581482
v 155.224442 -84.864555 843.581482
v 155.224442 -84.864555 912.866028
v 154.485550 -86.231964 912.866028
v 157.133148 -81.332146 912.866028
v 155.537445 -84.285355 843.581482
v 157.753937 -80.183105 843.581482
v 155.537445 -84.285355 912.866028
v 157.753937 -80.183105 912.866028
vt 0.000000 0.000000
vt 1.000000 0.000000
vt 1.000000 5.750000
vt 0.000000 5.750000
vt 0.000000 0.000000
vt 0.333330 0.000000
vt 0.333330 5.750000
vt 0.000000 5.750000
vt 0.000000 0.000000
vt 0.666670 0.000000
vt 0.666670 5.750000
vt 0.000000 5.750000
vt 0.000000 5.750000
vt 0.000000 0.000000
vt 0.666670 0.000000
vt 0.666670 5.750000
vt 0.000000 0.000000
vt 0.666670 0.000000
vt 0.666670 5.750000
vt 0.000000 5.750000
vt 0.000000 5.750000
vt 0.000000 0.000000
vt 0.666670 0.000000
vt 0.666670 5.750000
vt 0.000000 0.000000
vt 0.333330 0.000000
vt 0.333330 5.750000
vt 0.000000 5.750000
vt 0.000000 5.750000
vt 0.000000 0.000000
vt 1.000000 0.000000
vt 1.000000 5.750000
vt 0.000000 5.750000
vt 0.000000 0.000000
vt 1.000000 0.000000
vt 1.000000 5.750000
vt 0.000000 0.000000
vt 1.000000 0.000000
vt 1.000000 5.750000
vt 0.000000 5.750000
vt 0.000000 5.750000
vt 0.000000 0.000000
vt 1.000000 0.000000
vt 1.000000 5.750000
vt 0.000000 5.750000
vt 0.000000 0.000000
vt 1.000000 0.000000
vt 1.000000 5.750000
vt 0.000000 0.000000
vt 1.000000 0.000000
vt 1.000000 5.750000
vt 0.000000 5.750000
vt 0.332820 5.750000
vt 0.000000 0.000000
vt 1.000000 0.000000
vt 0.000000 5.750000
vt 1.000000 5.750000
vt 0.000000 0.000000
vt 0.333330 0.000000
vt 0.333330 5.750000
vt 0.000000 5.750000
vt 0.000000 0.000000
vt 0.666670 0.000000
vt 0.666670 5.750000
vt 0.000000 5.750000
vt 0.000000 0.000000
vt 0.333330 0.000000
vt 0.333330 5.750000
vt 0.000000 5.750000
vt 0.000000 0.000000
vt 1.000000 0.000000
vt 1.000000 5.750000
vt 0.000000 5.750000
vt 0.000000 0.000000
vt 1.000000 0.000000
vt 1.000000 5.750000
vt 0.000000 5.750000
vt 0.000000 0.000000
vt 0.333330 0.000000
vt 0.333330 5.750000
vt 0.000000 5.750000
vt 0.153650 5.750000
vt 0.000000 0.000000
vt 0.666670 0.000000
vt 0.000000 5.750000
vt 0.666670 5.750000
vt 0.000000 5.750000
vt 0.000000 0.000000
vt 0.666670 0.000000
vt 0.666670 5.750000
vt 0.000000 0.000000
vt 0.666670 0.000000
vt 0.666670 5.750000
vt 0.000000 5.750000
vt 0.366340 5.750000
vt 0.000000 0.000000
vt 0.666670 0.000000
vt 0.000000 5.750000
vt 0.666670 5.750000
vt 0.000000 0.000000
vt 0.333330 0.000000
vt 0.333330 5.750000
vt 0.000000 5.750000
vt 0.719900 5.750000
vt 0.000000 0.000000
vt 1.000000 0.000000
vt 0.000000 5.750000
vt 1.000000 5.750000
vn -0.8799 0.4751 0.0000
vn -0.4756 -0.8796 0.0000
vn 0.8798 -0.4753 0.0000
vn -0.4746 -0.8802 0.0000
vn -0.4747 -0.8802 0.0000
vn -0.8798 0.4753 0.0000
vn 0.4747 0.8801 -0.0000
vn 0.8798 -0.4754 0.0000
s off
f 1/1/1 2/2/1 3/3/1
f 4/4/1 1/1/1 3/3/1
f 5/5/1 6/6/1 7/7/1
f 8/8/1 5/5/1 7/7/1
f 9/9/1 10/10/1 11/11/1
f 12/12/1 9/9/1 11/11/1
f 13/13/1 14/14/1 15/15/1
f 13/13/1 15/15/1 16/16/1
f 17/17/1 18/18/1 19/19/1
f 20/20/1 17/17/1 19/19/1
f 21/21/1 22/22/1 23/23/1
f 21/21/1 23/23/1 24/24/1
f 25/25/1 26/26/1 27/27/1
f 28/28/1 25/25/1 27/27/1
f 29/29/1 30/30/1 31/31/1
f 29/29/1 31/31/1 32/32/1
f 33/33/2 34/34/2 35/35/2
f 33/33/2 35/35/2 36/36/2
f 37/37/3 38/38/3 39/39/3
f 40/40/3 37/37/3 39/39/3
f 41/41/4 42/42/4 43/43/4
f 41/41/4 43/43/4 44/44/4
f 45/45/5 46/46/5 47/47/5
f 45/45/5 47/47/5 48/48/5
f 49/49/6 50/50/6 51/51/6
f 52/52/6 49/49/6 51/51/6
f 53/53/7 54/54/7 55/55/7
f 56/56/7 54/54/7 53/53/7
f 53/53/7 55/55/7 57/57/7
f 58/58/7 59/59/7 60/60/7
f 61/61/7 58/58/7 60/60/7
f 62/62/7 63/63/7 64/64/7
f 65/65/7 62/62/7 64/64/7
f 66/66/7 67/67/7 68/68/7
f 69/69/7 66/66/7 68/68/7
f 70/70/7 71/71/7 72/72/7
f 73/73/7 70/70/7 72/72/7
f 74/74/8 75/75/8 76/76/8
f 77/77/8 74/74/8 76/76/8
f 78/78/8 79/79/8 80/80/8
f 81/81/8 78/78/8 80/80/8
f 82/82/8 83/83/8 84/84/8
f 85/85/3 83/83/3 82/82/3
f 82/82/8 84/84/8 86/86/8
f 87/87/8 88/88/8 89/89/8
f 87/87/8 89/89/8 90/90/8
f 91/91/8 92/92/8 93/93/8
f 94/94/8 91/91/8 93/93/8
f 95/95/8 96/96/8 97/97/8
f 98/98/8 96/96/8 95/95/8
f 95/95/8 97/97/8 99/99/8
f 100/100/8 101/101/8 102/102/8
f 103/103/8 100/100/8 102/102/8
f 104/104/8 105/105/8 106/106/8
f 107/107/8 105/105/8 104/104/8
f 104/104/3 106/106/3 108/108/3
