# Blender v3.0.1 OBJ File: 'rockerfeller_plaza.blend'
# www.blender.org
o geometryt000010000010000110010110000110000110100000010100st23
v 843.490601 -117.769188 144.220444
v 829.163757 -144.404190 144.220444
v 823.599609 -141.415985 144.220444
v 837.926392 -114.769882 144.220444
v 843.490601 -117.769188 163.120453
v 837.926392 -114.769882 163.120453
v 823.599609 -141.415985 163.120453
v 829.163757 -144.404190 163.120453
vt 0.183200 0.194440
vt 0.236230 0.164940
vt 0.232560 0.153790
vt 0.179520 0.183300
vt 0.183200 0.194440
vt 0.179520 0.183300
vt 0.232560 0.153790
vt 0.236230 0.164940
vn -0.0000 0.0000 -1.0000
vn 0.0000 0.0000 1.0000
s off
f 1/1/1 2/2/1 3/3/1
f 4/4/1 1/1/1 3/3/1
f 5/5/2 6/6/2 7/7/2
f 5/5/2 7/7/2 8/8/2
