# Blender v3.0.1 OBJ File: 'rockerfeller_plaza.blend'
# www.blender.org
o geometryt000010000010000110010110000110000110100000100110st143
v 535.292480 -196.932205 657.150024
v 535.129333 -197.236206 719.279175
v 535.292480 -196.932205 719.279175
v 536.757385 -194.202301 657.150024
v 535.129333 -197.236206 656.079163
v 536.757385 -194.202301 719.279175
v 536.964905 -193.815613 719.279175
v 536.964905 -193.815613 657.150024
v 537.697327 -192.450607 657.150024
v 537.697327 -192.450607 719.279175
v 537.904846 -192.063904 719.279175
v 537.904846 -192.063904 657.150024
v 538.637329 -190.699005 657.150024
v 538.637329 -190.699005 719.279175
v 538.844849 -190.312302 719.279175
v 538.844849 -190.312302 657.150024
v 541.042175 -186.217407 657.150024
v 541.042175 -186.217407 719.279175
v 541.249695 -185.830704 719.279175
v 541.249695 -185.830704 657.150024
v 541.982178 -184.465714 657.150024
v 541.982178 -184.465714 719.279175
v 542.189636 -184.079010 719.279175
v 542.189636 -184.079010 657.150024
v 548.102539 -173.060104 656.079163
v 544.387024 -179.984116 657.150024
v 544.387024 -179.984116 719.279175
v 544.594543 -179.597412 719.279175
v 544.594543 -179.597412 657.150024
v 545.327026 -178.232407 657.150024
v 545.327026 -178.232407 719.279175
v 545.534485 -177.845703 719.279175
v 545.534485 -177.845703 657.150024
v 546.266968 -176.480804 657.150024
v 546.266968 -176.480804 719.279175
v 546.474487 -176.094101 719.279175
v 546.474487 -176.094101 657.150024
v 547.939392 -173.364105 657.150024
v 547.939392 -173.364105 719.279175
v 548.102539 -173.060104 719.279175
v 537.128662 -198.308716 657.150024
v 537.762878 -198.648911 719.279175
v 537.128662 -198.308716 719.279175
v 535.129333 -197.236206 656.079163
v 535.763550 -197.576416 657.150024
v 537.762878 -198.648911 656.079163
v 535.763550 -197.576416 719.279175
v 535.129333 -197.236206 719.279175
v 536.391174 -201.207306 656.079163
v 537.758850 -201.935211 719.279175
v 536.391174 -201.207306 719.279175
v 537.758850 -201.935211 656.079163
v 536.711060 -200.610703 657.150024
v 536.391174 -201.207306 719.279175
v 536.711060 -200.610703 719.279175
v 537.442993 -199.245514 657.150024
v 536.391174 -201.207306 656.079163
v 537.442993 -199.245514 719.279175
v 537.762878 -198.648911 719.279175
v 537.762878 -198.648911 656.079163
v 545.047302 -206.064514 657.150024
v 545.602539 -206.362610 719.279175
v 545.047302 -206.064514 719.279175
v 537.667969 -202.102814 656.079163
v 538.223145 -202.400909 657.150024
v 545.602539 -206.362610 656.079163
v 538.223145 -202.400909 719.279175
v 537.667969 -202.102814 719.279175
v 537.758850 -201.935211 656.079163
v 537.667969 -202.102814 656.079163
v 537.667969 -202.102814 719.279175
v 537.758850 -201.935211 719.279175
v 550.698792 -209.023804 657.150024
v 551.675598 -209.533905 719.279175
v 550.698792 -209.023804 719.279175
v 546.579346 -206.872711 657.150024
v 551.675598 -209.533905 656.079163
v 546.579346 -206.872711 719.279175
v 545.602539 -206.362610 719.279175
v 545.602539 -206.362610 656.079163
v 548.406006 -173.224213 657.150024
v 548.102539 -173.060104 719.279175
v 548.406006 -173.224213 719.279175
v 551.131409 -174.697601 657.150024
v 548.102539 -173.060104 656.079163
v 551.131409 -174.697601 719.279175
v 551.504028 -174.899002 719.279175
v 551.504028 -174.899002 657.150024
v 552.866699 -175.635712 657.150024
v 552.866699 -175.635712 719.279175
v 553.239319 -175.837112 719.279175
v 553.239319 -175.837112 657.150024
v 554.602051 -176.573807 657.150024
v 554.602051 -176.573807 719.279175
v 554.974609 -176.775208 719.279175
v 554.974609 -176.775208 657.150024
v 559.062744 -178.985306 657.150024
v 565.934814 -182.700409 656.079163
v 559.062744 -178.985306 719.279175
v 559.435303 -179.186707 719.279175
v 559.435303 -179.186707 657.150024
v 560.798035 -179.923401 657.150024
v 560.798035 -179.923401 719.279175
v 561.170654 -180.124908 719.279175
v 561.170654 -180.124908 657.150024
v 562.533325 -180.861511 657.150024
v 562.533325 -180.861511 719.279175
v 562.905945 -181.063004 719.279175
v 562.905945 -181.063004 657.150024
v 565.631348 -182.536407 657.150024
v 565.631348 -182.536407 719.279175
v 565.934814 -182.700409 719.279175
v 555.624146 -202.060211 657.150024
v 555.954529 -201.435013 719.279175
v 555.624146 -202.060211 719.279175
v 551.675598 -209.533905 656.079163
v 552.005981 -208.908615 657.150024
v 555.954529 -201.435013 656.079163
v 552.005981 -208.908615 719.279175
v 551.675598 -209.533905 719.279175
v 558.408813 -196.906113 657.150024
v 558.648865 -196.463104 719.279175
v 558.408813 -196.906113 719.279175
v 556.194580 -200.992004 657.150024
v 558.648865 -196.463104 656.079163
v 556.194580 -200.992004 719.279175
v 555.954529 -201.435013 719.279175
v 555.954529 -201.435013 656.079163
v 563.418640 -187.638702 657.150024
v 563.582703 -187.335205 719.279175
v 563.418640 -187.638702 719.279175
v 561.945496 -190.364212 657.150024
v 563.582703 -187.335205 656.079163
v 561.945496 -190.364212 719.279175
v 561.484070 -191.217804 719.279175
v 561.484070 -191.217804 657.150024
v 560.747498 -192.580505 657.150024
v 560.747498 -192.580505 719.279175
v 560.286133 -193.434113 719.279175
v 560.286133 -193.434113 657.150024
v 558.648865 -196.463104 656.079163
v 558.812927 -196.159607 657.150024
v 558.812927 -196.159607 719.279175
v 558.648865 -196.463104 719.279175
v 565.459839 -183.636414 657.150024
v 565.934814 -182.700409 719.279175
v 565.459839 -183.636414 719.279175
v 564.057739 -186.399216 657.150024
v 565.934814 -182.700409 656.079163
v 564.057739 -186.399216 719.279175
v 563.582703 -187.335205 719.279175
v 563.582703 -187.335205 656.079163
vt 145.655701 5.757290
vt 147.510605 339.785004
vt 145.655701 339.785004
vt 128.998993 5.757290
vt 147.510605 0.000000
vt 128.998993 339.785004
vt 126.639603 339.785004
vt 126.639603 5.757290
vt 118.311203 5.757290
vt 118.311203 339.785004
vt 115.951797 339.785004
vt 115.951797 5.757290
vt 107.623398 5.757290
vt 107.623398 339.785004
vt 105.264099 339.785004
vt 105.264099 5.757290
vt 80.278870 5.757290
vt 80.278870 339.785004
vt 77.919487 339.785004
vt 77.919487 5.757290
vt 69.591110 5.757290
vt 69.591110 339.785004
vt 67.231720 339.785004
vt 67.231720 5.757290
vt 0.000000 0.000000
vt 42.246552 5.757290
vt 42.246552 339.785004
vt 39.887169 339.785004
vt 39.887169 5.757290
vt 31.558769 5.757290
vt 31.558769 339.785004
vt 29.199390 339.785004
vt 29.199390 5.757290
vt 20.871000 5.757290
vt 20.871000 339.785004
vt 18.511620 339.785004
vt 18.511620 5.757290
vt 1.854840 5.757290
vt 1.854840 339.785004
vt 0.000000 339.785004
vt 16.067141 339.785004
vt 12.197760 5.757290
vt 16.067141 0.000000
vt 3.869370 339.785004
vt 0.000000 339.785004
vt 3.869370 5.757290
vt 0.000000 0.000000
vt 0.000000 0.000000
vt 8.329710 339.785004
vt 0.000000 339.785004
vt 8.329710 0.000000
vt 11.967620 5.757290
vt 15.606850 339.785004
vt 11.967620 339.785004
vt 15.606850 0.000000
vt 3.639230 339.785004
vt 0.000000 339.785004
vt 3.639230 5.757290
vt 0.000000 0.000000
vt 45.030010 5.757290
vt 48.418060 339.785004
vt 45.030010 339.785004
vt 0.000000 0.000000
vt 3.388050 5.757290
vt 48.418060 0.000000
vt 3.388050 339.785004
vt 0.000000 339.785004
vt 0.000000 0.000000
vt 1.025070 0.000000
vt 1.025070 339.785004
vt 0.000000 339.785004
vt 30.909809 5.757290
vt 36.834450 339.785004
vt 30.909809 339.785004
vt 5.924640 5.757290
vt 36.834450 0.000000
vt 5.924640 339.785004
vt 0.000000 339.785004
vt 0.000000 0.000000
vt 107.130798 5.757290
vt 108.985703 339.785004
vt 107.130798 339.785004
vt 90.474060 5.757290
vt 108.985703 0.000000
vt 90.474060 339.785004
vt 88.196770 339.785004
vt 88.196770 5.757290
vt 79.868378 5.757290
vt 79.868378 339.785004
vt 77.591087 339.785004
vt 77.591087 5.757290
vt 69.262711 5.757290
vt 69.262711 339.785004
vt 66.985420 339.785004
vt 66.985420 5.757290
vt 42.000252 5.757290
vt 0.000000 0.000000
vt 42.000252 339.785004
vt 39.722969 339.785004
vt 39.722969 5.757290
vt 31.394581 5.757290
vt 31.394581 339.785004
vt 29.117290 339.785004
vt 29.117290 5.757290
vt 20.788900 5.757290
vt 20.788900 339.785004
vt 18.511620 339.785004
vt 18.511620 5.757290
vt 1.854840 5.757290
vt 1.854840 339.785004
vt 0.000000 339.785004
vt 45.443951 5.757290
vt 49.245949 339.785004
vt 45.443951 339.785004
vt 49.245949 0.000000
vt 27.694111 5.757290
vt 30.403040 339.785004
vt 27.694111 339.785004
vt 2.708940 5.757290
vt 30.403040 0.000000
vt 2.708940 339.785004
vt 0.000000 339.785004
vt 0.000000 0.000000
vt 53.930199 5.757290
vt 55.785042 339.785004
vt 53.930199 339.785004
vt 55.785042 0.000000
vt 37.273418 339.785004
vt 32.056721 339.785004
vt 37.273418 5.757290
vt 32.056721 5.757290
vt 23.728319 5.757290
vt 23.728319 339.785004
vt 18.511620 339.785004
vt 18.511620 5.757290
vt 0.000000 0.000000
vt 1.854840 5.757290
vt 1.854840 339.785004
vt 0.000000 339.785004
vt 22.300100 5.757290
vt 27.943430 339.785004
vt 22.300100 339.785004
vt 5.643320 5.757290
vt 27.943430 0.000000
vt 5.643320 339.785004
vt 0.000000 339.785004
vt 0.000000 0.000000
vt 12.197760 339.785004
vt 0.000000 0.000000
vt 3.802000 5.757290
vt 3.802000 339.785004
vt 0.000000 339.785004
vn -0.8812 0.4728 0.0000
vn -0.8811 0.4729 0.0000
vn -0.8811 0.4729 0.0001
vn -0.8814 0.4724 0.0000
vn -0.8810 0.4731 -0.0001
vn -0.8811 0.4730 0.0000
vn -0.8812 0.4728 -0.0003
vn -0.8810 0.4731 0.0000
vn -0.8813 0.4726 0.0000
vn -0.8811 0.4730 -0.0016
vn -0.8806 0.4739 0.0005
vn -0.8815 0.4722 -0.0005
vn -0.8811 0.4730 0.0001
vn -0.8811 0.4728 -0.0000
vn -0.8810 0.4730 0.0000
vn -0.8812 0.4727 0.0000
vn -0.4727 -0.8812 0.0000
vn -0.4698 -0.8828 0.0000
vn -0.4730 -0.8811 0.0000
vn -0.4729 -0.8811 0.0000
vn -0.4731 -0.8810 -0.0000
vn -0.4730 -0.8810 0.0000
vn -0.8791 0.4766 0.0000
vn -0.8789 0.4771 0.0000
vn -0.4629 -0.8864 0.0000
vn -0.4628 -0.8864 0.0000
vn 0.4756 0.8797 0.0000
vn 0.4757 0.8796 0.0000
vn 0.4755 0.8797 0.0000
vn 0.4752 0.8799 0.0003
vn 0.4754 0.8798 0.0000
vn 0.4759 0.8795 -0.0005
vn 0.4756 0.8796 0.0000
vn 0.4759 0.8795 -0.0001
vn 0.4754 0.8798 -0.0001
vn 0.4758 0.8795 0.0000
vn 0.4755 0.8797 0.0002
vn 0.4752 0.8799 -0.0000
vn 0.4754 0.8797 0.0000
vn 0.8842 -0.4672 0.0000
vn 0.8841 -0.4672 0.0000
vn 0.8792 -0.4764 0.0000
vn 0.8792 -0.4765 -0.0000
vn 0.8793 -0.4764 0.0000
vn 0.8791 -0.4766 0.0000
vn 0.8798 -0.4753 0.0000
vn 0.8796 -0.4756 0.0000
vn 0.8797 -0.4755 0.0000
vn 0.8797 -0.4756 0.0000
vn 0.8797 -0.4755 -0.0001
vn 0.8797 -0.4755 -0.0002
vn 0.8796 -0.4757 0.0000
vn 0.8918 -0.4525 0.0000
vn 0.8917 -0.4526 -0.0001
vn 0.8917 -0.4527 0.0000
vn 0.8917 -0.4526 -0.0000
vn -0.8813 0.4725 0.0000
vn 0.4754 0.8798 0.0002
vn 0.4756 0.8797 0.0001
vn 0.8842 -0.4671 0.0001
vn 0.8842 -0.4671 0.0000
s off
f 1/1/1 2/2/1 3/3/1
f 4/4/2 5/5/2 1/1/2
f 2/2/2 1/1/2 5/5/2
f 6/6/1 7/7/1 4/4/1
f 7/7/1 8/8/1 4/4/1
f 8/8/1 5/5/1 4/4/1
f 8/8/3 9/9/3 5/5/3
f 10/10/1 11/11/1 9/9/1
f 11/11/1 12/12/1 9/9/1
f 9/9/4 12/12/4 5/5/4
f 12/12/5 13/13/5 5/5/5
f 14/14/6 15/15/6 13/13/6
f 15/15/1 16/16/1 13/13/1
f 13/13/7 16/16/7 5/5/7
f 16/16/3 17/17/3 5/5/3
f 18/18/1 19/19/1 17/17/1
f 19/19/1 20/20/1 17/17/1
f 17/17/1 20/20/1 5/5/1
f 20/20/8 21/21/8 5/5/8
f 22/22/6 23/23/6 21/21/6
f 23/23/9 24/24/9 21/21/9
f 24/24/10 25/25/10 21/21/10
f 21/21/1 25/25/1 5/5/1
f 26/26/1 25/25/1 24/24/1
f 27/27/1 28/28/1 26/26/1
f 28/28/1 29/29/1 26/26/1
f 29/29/11 25/25/11 26/26/11
f 30/30/1 25/25/1 29/29/1
f 31/31/6 32/32/6 30/30/6
f 32/32/9 33/33/9 30/30/9
f 33/33/12 25/25/12 30/30/12
f 34/34/3 25/25/3 33/33/3
f 35/35/6 36/36/6 34/34/6
f 36/36/1 37/37/1 34/34/1
f 37/37/13 25/25/13 34/34/13
f 38/38/14 25/25/14 37/37/14
f 39/39/15 40/40/15 38/38/15
f 40/40/16 25/25/16 38/38/16
f 42/41/17 41/42/17 46/43/17
f 47/44/17 48/45/17 45/46/17
f 48/45/17 44/47/17 45/46/17
f 49/48/18 50/49/18 51/50/18
f 49/48/18 52/51/18 50/49/18
f 53/52/4 54/53/4 55/54/4
f 54/53/9 53/52/9 57/55/9
f 58/56/9 59/57/9 56/58/9
f 59/57/9 60/59/9 56/58/9
f 61/60/19 62/61/19 63/62/19
f 64/63/20 61/60/20 65/64/20
f 64/63/21 66/65/21 61/60/21
f 62/61/22 61/60/22 66/65/22
f 67/66/21 68/67/21 65/64/21
f 68/67/19 64/63/19 65/64/19
f 69/68/23 70/69/23 71/70/23
f 69/68/24 71/70/24 72/71/24
f 73/72/25 74/73/25 75/74/25
f 76/75/26 77/76/26 73/72/26
f 74/73/25 73/72/25 77/76/25
f 78/77/25 79/78/25 76/75/25
f 79/78/25 80/79/25 76/75/25
f 80/79/25 77/76/25 76/75/25
f 81/80/27 82/81/27 83/82/27
f 84/83/27 85/84/27 81/80/27
f 82/81/28 81/80/28 85/84/28
f 86/85/29 87/86/29 84/83/29
f 87/86/29 88/87/29 84/83/29
f 88/87/30 85/84/30 84/83/30
f 88/87/28 89/88/28 85/84/28
f 90/89/29 91/90/29 89/88/29
f 91/90/31 92/91/31 89/88/31
f 92/91/31 93/92/31 85/84/31
f 94/93/29 95/94/29 93/92/29
f 95/94/29 96/95/29 93/92/29
f 93/92/32 96/95/32 85/84/32
f 97/96/27 98/97/27 96/95/27
f 96/95/27 98/97/27 85/84/27
f 99/98/29 100/99/29 97/96/29
f 100/99/33 101/100/33 97/96/33
f 101/100/34 98/97/34 97/96/34
f 102/101/35 98/97/35 101/100/35
f 103/102/27 104/103/27 102/101/27
f 104/103/36 105/104/36 102/101/36
f 106/105/37 98/97/37 105/104/37
f 107/106/36 108/107/36 106/105/36
f 108/107/27 109/108/27 106/105/27
f 109/108/38 98/97/38 106/105/38
f 110/109/27 98/97/27 109/108/27
f 111/110/29 112/111/29 110/109/29
f 112/111/39 98/97/39 110/109/39
f 113/112/40 114/113/40 115/114/40
f 114/113/41 113/112/41 118/115/41
f 121/116/42 122/117/42 123/118/42
f 124/119/43 125/120/43 121/116/43
f 122/117/44 121/116/44 125/120/44
f 126/121/42 127/122/42 124/119/42
f 127/122/45 128/123/45 124/119/45
f 128/123/42 125/120/42 124/119/42
f 129/124/46 130/125/46 131/126/46
f 130/125/47 129/124/47 133/127/47
f 134/128/48 135/129/48 132/130/48
f 135/129/49 136/131/49 132/130/49
f 136/131/50 133/127/50 132/130/50
f 136/131/48 137/132/48 133/127/48
f 138/133/48 139/134/48 137/132/48
f 139/134/48 140/135/48 137/132/48
f 140/135/51 141/136/51 137/132/51
f 137/132/48 141/136/48 133/127/48
f 142/137/48 141/136/48 140/135/48
f 143/138/49 144/139/49 142/137/49
f 144/139/52 141/136/52 142/137/52
f 145/140/53 146/141/53 147/142/53
f 148/143/54 149/144/54 145/140/54
f 146/141/53 145/140/53 149/144/53
f 150/145/55 151/146/55 148/143/55
f 151/146/53 152/147/53 148/143/53
f 152/147/56 149/144/56 148/143/56
s 1
f 41/42/17 42/41/17 43/148/17
f 44/47/17 41/42/17 45/46/17
f 44/47/17 46/43/17 41/42/17
f 56/58/57 57/55/57 53/52/9
f 60/59/4 57/55/57 56/58/57
f 89/88/58 92/91/58 85/84/58
f 105/104/59 98/97/59 102/101/59
f 116/149/40 113/112/60 117/150/40
f 116/149/40 118/115/60 113/112/60
f 119/151/61 120/152/61 117/150/40
f 120/152/61 116/149/40 117/150/40
f 132/130/48 133/127/48 129/124/48
