# Blender v3.0.1 OBJ File: 'rockerfeller_plaza.blend'
# www.blender.org
o geometryt000010000010000110010110000110000110100000110100st1
v 851.962402 -228.762711 711.470032
v 850.963806 -228.223816 761.470032
v 850.963806 -228.223816 711.470032
v 851.962402 -228.762711 761.470032
v 853.329041 -229.500214 761.470032
v 852.815369 -229.223007 768.470032
v 848.471985 -226.879211 765.470032
v 853.329041 -229.500214 771.470032
v 852.815369 -229.223007 771.470032
v 848.471985 -226.879211 768.470032
v 846.863647 -226.011307 761.470032
v 846.560059 -225.847412 765.470032
v 846.560059 -225.847412 711.470032
v 846.863647 -226.011307 711.470032
v 858.795959 -232.450302 771.470032
v 858.795959 -232.450302 711.470032
v 859.794556 -232.989212 711.470032
v 859.794556 -232.989212 771.470032
v 863.894653 -235.201813 771.470032
v 863.894653 -235.201813 711.470032
v 864.198242 -235.365616 711.470032
v 864.198242 -235.365616 771.470032
v 846.725464 -225.544708 765.470032
v 846.725464 -225.544708 711.470032
v 846.560059 -225.847412 711.470032
v 846.560059 -225.847412 765.470032
v 847.719666 -223.725006 765.470032
v 847.719666 -223.725006 711.470032
v 847.470093 -224.181808 711.470032
v 847.470093 -224.181808 765.470032
v 849.458435 -220.542404 765.470032
v 849.458435 -220.542404 711.470032
v 849.208862 -220.999207 711.470032
v 849.208862 -220.999207 765.470032
v 850.452637 -218.722610 765.470032
v 850.452637 -218.722610 711.470032
v 850.203064 -219.179504 711.470032
v 850.203064 -219.179504 765.470032
v 853.680664 -212.814316 765.470032
v 853.680664 -212.814316 711.470032
v 853.431030 -213.271103 711.470032
v 853.431030 -213.271103 765.470032
v 854.674866 -210.994614 765.470032
v 854.674866 -210.994614 711.470032
v 854.425232 -211.451416 711.470032
v 854.425232 -211.451416 765.470032
v 856.389648 -207.855911 711.470032
v 856.413635 -207.812012 750.041443
v 856.413635 -207.812012 711.470032
v 856.164062 -208.268814 711.470032
v 856.164062 -208.268814 757.755737
v 855.419434 -209.631714 757.755737
v 855.529175 -209.430908 759.470032
v 856.389648 -207.855911 759.470032
v 856.389648 -207.855911 753.470032
v 855.419434 -209.631714 765.470032
v 855.529175 -209.430908 765.470032
v 857.323669 -206.146301 753.470032
v 857.158264 -206.449112 750.041443
v 857.323669 -206.146301 711.470032
v 857.158264 -206.449112 711.470032
v 848.895813 -226.103012 765.470032
v 848.471619 -226.879807 765.470032
v 848.471619 -226.879807 768.470032
v 856.530640 -212.119705 768.470032
v 856.530640 -212.119705 765.470032
v 852.813049 -229.227310 771.470032
v 853.219360 -228.490906 768.470032
v 852.813049 -229.227310 768.470032
v 856.876526 -221.863510 768.470032
v 860.939941 -214.499710 771.470032
v 860.939941 -214.499710 768.470032
v 855.855164 -209.612610 765.470032
v 855.855164 -209.612610 759.470032
v 855.586548 -209.467316 759.470032
v 855.551636 -209.448502 759.470032
v 855.551636 -209.448502 765.470032
v 857.545532 -210.526703 765.470032
v 857.545532 -210.526703 759.470032
v 857.221252 -210.351303 759.470032
v 857.221252 -210.351303 765.470032
v 860.794556 -212.283401 762.470032
v 860.794556 -212.283401 759.470032
v 860.277771 -212.004013 759.470032
v 860.277771 -212.004013 765.470032
v 860.794556 -212.283401 765.470032
v 866.715027 -215.484909 765.470032
v 861.141541 -212.471115 762.470032
v 861.086548 -212.441406 762.470032
v 860.803345 -212.288315 762.470032
v 866.715027 -215.484909 762.470032
v 868.405518 -216.398911 765.470032
v 868.405518 -216.398911 759.470032
v 868.081177 -216.223602 759.470032
v 868.081177 -216.223602 765.470032
v 871.462036 -218.051712 765.470032
v 871.462036 -218.051712 759.470032
v 871.137756 -217.876312 759.470032
v 871.137756 -217.876312 765.470032
v 873.131653 -218.954514 765.470032
v 873.131653 -218.954514 759.470032
v 872.828125 -218.790405 759.470032
v 872.828125 -218.790405 765.470032
v 856.428467 -229.027603 778.170044
v 856.428467 -229.027603 771.470032
v 856.200928 -229.443115 771.470032
v 856.200928 -229.443115 778.170044
v 859.639648 -223.163513 778.170044
v 859.639648 -223.163513 771.470032
v 859.412170 -223.579010 771.470032
v 859.412170 -223.579010 778.170044
v 856.200928 -229.443115 778.170044
v 856.200928 -229.443115 771.470032
v 856.975647 -229.863510 771.470032
v 856.975647 -229.863510 778.170044
v 862.435547 -232.826614 778.170044
v 862.435547 -232.826614 771.470032
v 862.506165 -232.865005 771.470032
v 863.210266 -233.247101 771.470032
v 863.210266 -233.247101 778.170044
v 861.655029 -210.706207 759.470032
v 861.655029 -210.706207 762.470032
v 867.899536 -214.086304 762.470032
v 867.899536 -214.086304 759.470032
v 865.818054 -212.959610 756.470032
v 862.389771 -211.103912 756.470032
v 862.045349 -210.917511 756.470032
v 861.655029 -210.706207 756.470032
v 856.413574 -207.868912 759.470032
v 873.982727 -217.379211 759.470032
v 867.899536 -214.086304 756.470032
v 873.982727 -217.379211 753.470032
v 868.659912 -214.497910 753.470032
v 867.899536 -214.086304 753.470032
v 857.068726 -208.223602 753.470032
v 861.655029 -210.706207 753.470032
v 856.413574 -207.868912 753.470032
v 860.939941 -214.499710 768.470032
v 860.939941 -214.499710 771.470032
v 861.507751 -214.806702 765.470032
v 860.939941 -214.499710 765.470032
v 856.764648 -212.241409 765.470032
v 856.532654 -212.116013 768.470032
v 856.532654 -212.116013 765.470032
v 857.651062 -206.323303 748.970032
v 857.651062 -206.323303 711.470032
v 857.347534 -206.159409 711.470032
v 857.347534 -206.159409 753.470032
v 862.586914 -208.989410 753.470032
v 859.913452 -207.545303 748.970032
v 859.017578 -207.061401 748.970032
v 863.542114 -209.505310 756.470032
v 862.586914 -208.989410 756.470032
v 862.646240 -209.021408 748.970032
v 863.542114 -209.505310 711.470032
v 862.646240 -209.021408 711.470032
v 859.913452 -207.545303 711.470032
v 859.017578 -207.061401 711.470032
v 867.170959 -211.465302 756.470032
v 867.170959 -211.465302 711.470032
v 866.275024 -210.981415 711.470032
v 866.275024 -210.981415 756.470032
v 868.840942 -212.367401 753.470032
v 868.840942 -212.367401 711.470032
v 868.537354 -212.203415 711.470032
v 868.537354 -212.203415 756.470032
v 868.840942 -212.367401 756.470032
v 860.416260 -223.586212 778.170044
v 860.416260 -223.586212 771.470032
v 860.343750 -223.546707 771.470032
v 860.164551 -223.449203 771.470032
v 859.639648 -223.163513 771.470032
v 859.639648 -223.163513 778.170044
v 866.649170 -226.978607 778.170044
v 866.649170 -226.978607 771.470032
v 865.872559 -226.555908 771.470032
v 865.872559 -226.555908 778.170044
v 860.795837 -212.280914 762.470032
v 860.846436 -212.188202 759.470032
v 860.795837 -212.280914 759.470032
v 861.655518 -210.705414 762.470032
v 861.655518 -210.705414 759.470032
v 861.804565 -214.965408 771.470032
v 861.804565 -214.965408 765.470032
v 861.508728 -214.805008 765.470032
v 860.941345 -214.497101 771.470032
v 872.223267 -220.617706 768.470032
v 872.223267 -220.617706 765.470032
v 866.910522 -217.735504 765.470032
v 866.615356 -217.575409 768.470032
v 866.615356 -217.575409 765.470032
v 865.899780 -217.187103 765.470032
v 865.899780 -217.187103 771.470032
v 866.615356 -217.575409 771.470032
v 861.655518 -210.705414 756.470032
v 861.717773 -210.590714 753.470032
v 861.655518 -210.705414 753.470032
v 862.589478 -208.984802 756.470032
v 862.589478 -208.984802 753.470032
v 863.210266 -233.247101 778.170044
v 863.210266 -233.247101 771.470032
v 863.435730 -232.836014 771.470032
v 863.435730 -232.836014 778.170044
v 866.423645 -227.389709 778.170044
v 866.423645 -227.389709 771.470032
v 866.649170 -226.978607 771.470032
v 866.649170 -226.978607 778.170044
v 864.197449 -235.367203 771.470032
v 864.197449 -235.367203 711.470032
v 864.486328 -234.835815 711.470032
v 864.486328 -234.835815 771.470032
v 870.421265 -223.920914 771.470032
v 870.421265 -223.920914 711.470032
v 870.710144 -223.389603 711.470032
v 870.710144 -223.389603 771.470032
v 865.846680 -218.983215 771.470032
v 865.846680 -218.983215 768.470032
v 866.576965 -217.645706 768.470032
v 866.615356 -217.575409 771.470032
v 866.615356 -217.575409 768.470032
v 865.846680 -218.983215 771.470032
v 866.017944 -219.076004 768.470032
v 865.846680 -218.983215 768.470032
v 866.073364 -219.106003 768.470032
v 866.127441 -219.135406 768.470032
v 871.462524 -222.026306 771.470032
v 871.462524 -222.026306 768.470032
v 867.040466 -215.660812 762.470032
v 867.040466 -215.660812 759.470032
v 867.849426 -214.178009 759.470032
v 867.900024 -214.085403 762.470032
v 867.900024 -214.085403 759.470032
v 867.900024 -214.085403 756.470032
v 867.900024 -214.085403 753.470032
v 868.779541 -212.479309 753.470032
v 868.842346 -212.364609 756.470032
v 868.842346 -212.364609 753.470032
v 869.150330 -212.530716 753.470032
v 869.150330 -212.530716 711.470032
v 868.842346 -212.364609 711.470032
v 868.842346 -212.364609 753.470032
v 874.925415 -215.646515 753.470032
v 874.925415 -215.646515 711.470032
v 874.617432 -215.480301 711.470032
v 874.617432 -215.480301 753.470032
v 870.710144 -223.389603 711.470032
v 871.462524 -222.026306 771.470032
v 870.710144 -223.389603 771.470032
v 871.462524 -222.026306 711.470032
v 871.462524 -222.026306 768.470032
v 871.462524 -222.026306 711.470032
v 872.222839 -220.618515 768.470032
v 871.462524 -222.026306 768.470032
v 872.222839 -220.618515 711.470032
v 872.222839 -220.618515 765.470032
v 872.222839 -220.618515 765.470032
v 872.222839 -220.618515 711.470032
v 872.388123 -220.315704 711.470032
v 872.388123 -220.315704 765.470032
v 872.966675 -219.256516 711.470032
v 873.132080 -218.953705 711.470032
v 873.132080 -218.953705 759.470032
v 872.966675 -219.256516 765.470032
v 873.132080 -218.953705 765.470032
v 874.399536 -216.617905 751.470032
v 874.399536 -216.617905 711.470032
v 874.926331 -215.647003 711.470032
v 874.926331 -215.647003 753.470032
v 873.986023 -217.379913 753.470032
v 873.132080 -218.953705 759.470032
v 873.986023 -217.379913 759.470032
v 873.658813 -217.982803 751.470032
v 873.132080 -218.953705 711.470032
v 873.658813 -217.982803 711.470032
vt 10.981620 0.000000
vt 8.951781 89.445427
vt 8.951781 0.000000
vt 10.981620 89.445427
vt 13.759820 89.445427
vt 12.715510 101.967796
vt 3.886490 96.601067
vt 13.759820 107.334503
vt 12.715510 107.334503
vt 3.886490 101.967796
vt 0.617170 89.445427
vt 0.000000 96.601067
vt 0.000000 0.000000
vt 0.617170 0.000000
vt 24.872629 107.334503
vt 24.872629 0.000000
vt 26.902470 0.000000
vt 26.902470 107.334503
vt 35.237080 107.334503
vt 35.237080 0.000000
vt 35.854252 0.000000
vt 35.854252 107.334503
vt 39.543270 96.601067
vt 39.543270 0.000000
vt 40.160450 0.000000
vt 40.160450 96.601067
vt 35.833790 96.601067
vt 35.833790 0.000000
vt 36.765072 0.000000
vt 36.765072 96.601067
vt 29.346109 96.601067
vt 29.346109 0.000000
vt 30.277390 0.000000
vt 30.277390 96.601067
vt 25.636629 96.601067
vt 25.636629 0.000000
vt 26.567909 0.000000
vt 26.567909 96.601067
vt 13.592540 96.601067
vt 13.592540 0.000000
vt 14.523820 0.000000
vt 14.523820 96.601067
vt 9.883061 96.601067
vt 9.883061 0.000000
vt 10.814340 0.000000
vt 10.814340 96.601067
vt 3.484910 0.000000
vt 3.395380 69.000771
vt 3.395380 0.000000
vt 4.326650 0.000000
vt 4.326650 82.800919
vt 7.104860 82.800919
vt 6.695480 85.867630
vt 3.484910 85.867630
vt 3.484910 75.134171
vt 7.104860 96.601067
vt 6.695480 96.601067
vt 0.000000 75.134171
vt 0.617170 69.000771
vt 0.000000 0.000000
vt 0.617170 0.000000
vt 28.500589 0.000000
vt 30.083950 0.000000
vt 30.083950 5.366730
vt 30.091431 5.366730
vt 28.586861 0.000000
vt 30.091431 0.000000
vt 15.045710 0.000000
vt 0.000000 5.366730
vt 0.000000 0.000000
vt 35.134960 10.733450
vt 35.134960 0.000000
vt 35.681229 0.000000
vt 35.752140 10.733450
vt 31.697170 10.733450
vt 31.697170 0.000000
vt 32.356758 0.000000
vt 32.356758 10.733450
vt 25.089809 5.366730
vt 25.089809 0.000000
vt 26.140760 0.000000
vt 26.140760 10.733450
vt 25.089809 10.733450
vt 13.049170 10.733450
vt 24.384130 5.366730
vt 25.071751 5.366730
vt 24.495920 5.366730
vt 13.049170 5.366730
vt 9.611371 10.733450
vt 9.611371 0.000000
vt 10.270970 0.000000
vt 10.270970 10.733450
vt 3.395380 10.733450
vt 3.395380 0.000000
vt 4.054970 0.000000
vt 4.054970 10.733450
vt 0.000000 10.733450
vt 0.000000 0.000000
vt 0.617170 0.000000
vt 0.617170 10.733450
vt 11.960240 11.985680
vt 11.960240 0.000000
vt 12.807660 0.000000
vt 12.807660 11.985680
vt 0.000000 11.985680
vt 0.000000 0.000000
vt 0.847430 0.000000
vt 0.847430 11.985680
vt 0.000000 11.985680
vt 0.000000 0.000000
vt 1.576880 0.000000
vt 1.576880 11.985680
vt 12.833500 0.000000
vt 14.266580 0.000000
vt 14.266580 11.985680
vt 12.689690 11.985680
vt 25.076611 10.733450
vt 25.076611 16.100180
vt 12.374320 16.100180
vt 12.374320 10.733450
vt 16.608419 5.366730
vt 23.582220 5.366730
vt 24.282721 5.366730
vt 25.076611 5.366730
vt 35.738930 10.733450
vt 0.000000 10.733450
vt 12.374320 5.366730
vt 0.000000 0.000000
vt 10.827530 0.000000
vt 12.374320 0.000000
vt 34.406139 0.000000
vt 25.076611 0.000000
vt 35.738930 0.000000
vt 1.154780 5.366730
vt 1.154780 10.733450
vt 0.000000 0.000000
vt 1.154780 0.000000
vt 9.646551 0.000000
vt 10.118320 5.366730
vt 10.118320 0.000000
vt 22.750990 67.084091
vt 22.750990 0.000000
vt 23.368170 0.000000
vt 23.368170 75.134171
vt 12.715490 75.134171
vt 18.151251 67.084091
vt 19.972790 67.084091
vt 10.773320 80.500900
vt 12.594850 67.084091
vt 10.773320 0.000000
vt 12.594850 0.000000
vt 18.151251 0.000000
vt 19.972790 0.000000
vt 3.395380 80.500900
vt 3.395380 0.000000
vt 5.216910 0.000000
vt 5.216910 80.500900
vt 0.000000 75.134171
vt 0.000000 0.000000
vt 0.617170 0.000000
vt 0.617170 80.500900
vt 0.000000 80.500900
vt 12.694530 11.985680
vt 12.694530 0.000000
vt 12.842210 0.000000
vt 13.207200 0.000000
vt 14.276260 0.000000
vt 14.276260 11.985680
vt 0.000000 11.985680
vt 0.000000 0.000000
vt 1.581720 0.000000
vt 1.581720 11.985680
vt 3.210570 5.366730
vt 3.021710 0.000000
vt 3.210570 0.000000
vt 0.000000 5.366730
vt 0.000000 0.000000
vt 21.204220 10.733450
vt 21.204220 0.000000
vt 21.806250 0.000000
vt 22.961029 10.733450
vt 0.000000 5.366730
vt 0.000000 0.000000
vt 10.812550 0.000000
vt 11.413250 5.366730
vt 11.413250 0.000000
vt 12.869610 0.000000
vt 12.869610 10.733450
vt 11.413250 10.733450
vt 3.502240 5.366730
vt 3.268760 0.000000
vt 3.502240 0.000000
vt 0.000000 5.366730
vt 0.000000 0.000000
vt 0.000000 11.985680
vt 0.000000 0.000000
vt 0.838780 0.000000
vt 0.838780 11.985680
vt 11.951580 11.985680
vt 11.951580 0.000000
vt 12.790360 0.000000
vt 12.790360 11.985680
vt 0.000000 107.334503
vt 0.000000 0.000000
vt 1.081980 0.000000
vt 1.081980 107.334503
vt 23.307600 107.334503
vt 23.307600 0.000000
vt 24.389580 0.000000
vt 24.389580 107.334503
vt 0.000000 5.366730
vt 0.000000 0.000000
vt 2.726020 0.000000
vt 2.869490 5.366730
vt 2.869490 0.000000
vt 11.426440 5.366730
vt 11.077900 0.000000
vt 11.426440 0.000000
vt 10.855120 0.000000
vt 0.000000 5.366730
vt 0.000000 0.000000
vt 3.210570 5.366730
vt 0.000000 5.366730
vt 3.021710 0.000000
vt 0.000000 5.366730
vt 0.000000 0.000000
vt 3.275650 0.000000
vt 3.509620 5.366730
vt 3.509620 0.000000
vt 11.738740 75.134171
vt 11.738740 0.000000
vt 12.364670 0.000000
vt 12.364670 75.134171
vt 0.000000 75.134171
vt 0.000000 0.000000
vt 0.625930 0.000000
vt 0.625930 75.134171
vt 0.000000 0.000000
vt 2.785470 107.334503
vt 0.000000 107.334503
vt 2.785470 0.000000
vt 2.785470 101.967796
vt 0.000000 0.000000
vt 2.862130 101.967796
vt 0.000000 101.967796
vt 2.862130 0.000000
vt 2.862130 96.601067
vt 0.000000 96.601067
vt 0.000000 0.000000
vt 0.617170 0.000000
vt 0.617170 96.601067
vt 2.776290 0.000000
vt 3.393470 0.000000
vt 3.393470 85.867630
vt 2.776290 96.601067
vt 3.393470 96.601067
vt 4.754180 71.556351
vt 4.754180 0.000000
vt 6.730150 0.000000
vt 6.730150 75.134171
vt 3.203210 75.134171
vt 0.000000 85.867630
vt 3.203210 85.867630
vt 1.975970 71.556351
vt 0.000000 0.000000
vt 1.975970 0.000000
vt 0.000000 5.366730
vt 0.000000 0.000000
vt 35.752140 0.000000
vt 12.689690 0.000000
vt 12.715490 80.500900
vt 10.965260 0.000000
vt 0.000000 0.000000
vt 3.210570 0.000000
vn -0.4749 -0.8800 0.0000
vn -0.4749 -0.8801 -0.0000
vn -0.4750 -0.8800 0.0000
vn -0.4748 -0.8801 0.0000
vn -0.8776 0.4794 0.0000
vn -0.8774 0.4797 0.0000
vn -0.8775 0.4797 0.0000
vn -0.8777 0.4792 0.0000
vn -0.8775 0.4796 0.0000
vn -0.8776 0.4795 0.0000
vn -0.8768 0.4808 0.0000
vn -0.8775 0.4795 0.0000
vn -0.8778 0.4791 0.0000
vn -0.8755 0.4832 0.0000
vn -0.8756 0.4831 -0.0000
vn 0.4758 0.8795 0.0000
vn 0.4756 0.8797 0.0000
vn 0.4754 0.8798 -0.0000
vn 0.4756 0.8796 0.0000
vn 0.4755 0.8797 0.0000
vn 0.4757 0.8796 -0.0000
vn 0.4759 0.8795 0.0001
vn 0.4754 0.8797 0.0000
vn 0.4753 0.8798 0.0000
vn 0.4758 0.8796 0.0000
vn -0.8771 0.4803 0.0000
vn -0.8772 0.4801 0.0000
vn -0.4770 -0.8789 0.0000
vn -0.4769 -0.8789 0.0000
vn 0.4760 0.8794 0.0000
vn 0.4761 0.8794 -0.0000
vn 0.4761 0.8794 -0.0001
vn 0.4759 0.8795 0.0000
vn 0.4760 0.8795 0.0000
vn 0.4751 0.8799 0.0000
vn 0.4752 0.8799 0.0000
vn 0.4785 0.8781 0.0000
vn 0.4778 0.8785 0.0000
vn 0.4781 0.8783 0.0000
vn -0.8778 0.4790 -0.0000
vn 0.4769 0.8790 -0.0000
vn 0.4768 0.8790 0.0000
vn -0.8784 0.4779 0.0000
vn -0.8789 0.4771 0.0000
vn 0.8769 -0.4807 0.0000
vn 0.8768 -0.4809 0.0000
vn 0.8766 -0.4811 0.0000
vn 0.8785 -0.4777 0.0000
vn 0.8786 -0.4775 0.0000
vn 0.8786 -0.4776 0.0000
vn 0.8777 -0.4792 0.0000
vn 0.8776 -0.4793 -0.0000
vn 0.8775 -0.4795 0.0000
vn 0.4767 0.8790 -0.0000
vn 0.4764 0.8792 0.0000
vn 0.8778 -0.4789 -0.0000
vn 0.8771 -0.4803 0.0000
vn 0.8765 -0.4814 0.0000
vn 0.4749 0.8801 0.0000
vn 0.4746 0.8802 0.0000
vn 0.8755 -0.4832 0.0000
vn 0.8760 -0.4823 0.0000
vn 0.8799 -0.4752 0.0000
vn 0.8799 -0.4753 0.0000
vn 0.8798 -0.4754 0.0000
vn 0.8778 -0.4790 0.0000
vn 0.8777 -0.4793 0.0000
vn 0.8775 -0.4796 0.0000
vn 0.8789 -0.4770 0.0000
vn 0.8790 -0.4769 0.0000
vn 0.8790 -0.4768 0.0000
vn -0.8755 0.4831 0.0000
vn 0.4742 0.8804 -0.0000
vn 0.4762 0.8793 -0.0000
vn -0.4772 -0.8788 0.0000
vn 0.4763 0.8793 0.0000
vn 0.4766 0.8791 -0.0000
vn 0.8777 -0.4791 0.0000
s off
f 1/1/1 2/2/1 3/3/1
f 2/2/1 1/1/1 4/4/1
f 5/5/1 6/6/1 4/4/1
f 6/6/2 7/7/2 4/4/2
f 4/4/1 7/7/1 2/2/1
f 5/5/1 8/8/1 6/6/1
f 6/6/1 8/8/1 9/9/1
f 6/6/1 10/10/1 7/7/1
f 11/11/1 7/7/1 12/12/1
f 2/2/1 7/7/1 11/11/1
f 11/11/1 12/12/1 13/13/1
f 14/14/3 11/11/3 13/13/3
f 15/15/1 16/16/1 17/17/1
f 15/15/3 17/17/3 18/18/3
f 19/19/1 20/20/1 21/21/1
f 19/19/4 21/21/4 22/22/4
f 23/23/5 24/24/5 25/25/5
f 23/23/6 25/25/6 26/26/6
f 27/27/7 28/28/7 29/29/7
f 27/27/8 29/29/8 30/30/8
f 31/31/5 32/32/5 33/33/5
f 31/31/5 33/33/5 34/34/5
f 35/35/8 36/36/8 37/37/8
f 35/35/9 37/37/9 38/38/9
f 39/39/6 40/40/6 41/41/6
f 39/39/10 41/41/10 42/42/10
f 43/43/5 44/44/5 45/45/5
f 43/43/7 45/45/7 46/46/7
f 47/47/11 48/48/11 49/49/11
f 50/50/8 48/48/8 47/47/8
f 50/50/9 51/51/9 48/48/9
f 52/52/12 53/53/12 51/51/12
f 53/53/10 54/54/10 51/51/10
f 54/54/10 55/55/10 51/51/10
f 48/48/9 51/51/9 55/55/9
f 52/52/8 56/56/8 53/53/8
f 53/53/5 56/56/5 57/57/5
f 55/55/10 58/58/10 59/59/10
f 55/55/12 59/59/12 48/48/12
f 59/59/6 58/58/6 60/60/6
f 59/59/13 60/60/13 61/61/13
f 62/62/5 63/63/5 64/64/5
f 67/65/14 68/66/14 69/67/14
f 70/68/15 67/65/15 71/69/15
f 70/68/14 71/69/14 72/70/14
f 73/71/16 74/72/16 75/73/16
f 73/71/17 75/73/17 77/74/17
f 78/75/18 79/76/18 80/77/18
f 78/75/19 80/77/19 81/78/19
f 82/79/20 83/80/20 84/81/20
f 85/82/17 82/79/17 84/81/17
f 85/82/20 86/83/20 82/79/20
f 87/84/21 88/85/21 86/83/21
f 90/86/22 86/83/22 89/87/22
f 87/84/21 91/88/21 88/85/21
f 92/89/23 93/90/23 94/91/23
f 92/89/19 94/91/19 95/92/19
f 96/93/16 97/94/16 98/95/16
f 96/93/24 98/95/24 99/96/24
f 100/97/18 101/98/18 102/99/18
f 100/97/25 102/99/25 103/100/25
f 104/101/26 105/102/26 106/103/26
f 104/101/26 106/103/26 107/104/26
f 108/105/26 109/106/26 110/107/26
f 108/105/27 110/107/27 111/108/27
f 112/109/28 113/110/28 114/111/28
f 112/109/28 114/111/28 115/112/28
f 118/113/29 119/114/29 120/115/29
f 116/116/28 118/113/28 120/115/28
f 121/117/30 122/118/30 123/119/30
f 124/120/30 121/117/30 123/119/30
f 124/120/31 125/121/31 121/117/31
f 126/122/30 121/117/30 125/121/30
f 127/123/32 121/117/32 126/122/32
f 128/124/33 121/117/33 127/123/33
f 128/124/30 129/125/30 121/117/30
f 130/126/31 131/127/31 124/120/31
f 131/127/34 125/121/34 124/120/34
f 130/126/30 132/128/30 131/127/30
f 132/128/30 133/129/30 131/127/30
f 133/129/31 134/130/31 131/127/31
f 135/131/30 128/124/30 136/132/30
f 135/131/30 129/125/30 128/124/30
f 137/133/31 129/125/31 135/131/31
f 138/134/20 139/135/20 140/136/20
f 141/137/17 138/134/17 140/136/17
f 142/138/21 138/134/21 141/137/21
f 143/139/21 138/134/21 142/138/21
f 144/140/24 143/139/24 142/138/24
f 145/141/35 146/142/35 147/143/35
f 145/141/24 147/143/24 148/144/24
f 149/145/36 150/146/36 148/144/36
f 150/146/24 151/147/24 148/144/24
f 152/148/36 154/149/36 149/145/36
f 149/145/36 154/149/36 150/146/36
f 152/148/24 155/150/24 154/149/24
f 155/150/24 156/151/24 154/149/24
f 150/146/24 157/152/24 158/153/24
f 150/146/24 158/153/24 151/147/24
f 159/154/24 160/155/24 161/156/24
f 159/154/36 161/156/36 162/157/36
f 163/158/24 164/159/24 165/160/24
f 166/161/36 163/158/36 165/160/36
f 167/162/35 163/158/35 166/161/35
f 168/163/37 169/164/37 170/165/37
f 168/163/38 170/165/38 171/166/38
f 171/166/39 172/167/39 173/168/39
f 168/163/39 171/166/39 173/168/39
f 174/169/39 175/170/39 176/171/39
f 174/169/39 176/171/39 177/172/39
f 178/173/8 179/174/8 180/175/8
f 179/174/40 178/173/40 181/176/40
f 182/177/40 179/174/40 181/176/40
f 183/178/41 184/179/41 185/180/41
f 183/178/41 185/180/41 186/181/41
f 187/182/41 188/183/41 189/184/41
f 190/185/41 189/184/41 191/186/41
f 190/185/42 187/182/42 189/184/42
f 190/185/41 191/186/41 192/187/41
f 193/188/41 190/185/41 192/187/41
f 194/189/41 190/185/41 193/188/41
f 195/190/43 196/191/43 197/192/43
f 196/191/44 195/190/44 198/193/44
f 199/194/44 196/191/44 198/193/44
f 200/195/45 201/196/45 202/197/45
f 200/195/46 202/197/46 203/198/46
f 204/199/46 205/200/46 206/201/46
f 204/199/47 206/201/47 207/202/47
f 208/203/48 209/204/48 210/205/48
f 208/203/49 210/205/49 211/206/49
f 212/207/50 213/208/50 214/209/50
f 212/207/48 214/209/48 215/210/48
f 216/211/51 217/212/51 218/213/51
f 219/214/52 216/211/52 218/213/52
f 219/214/53 218/213/53 220/215/53
f 221/216/54 222/217/54 223/218/54
f 225/219/55 226/220/55 227/221/55
f 231/222/56 228/223/56 230/224/56
f 233/225/57 234/226/57 235/227/57
f 236/228/57 233/225/57 235/227/57
f 237/229/58 236/228/58 235/227/58
f 238/230/59 239/231/59 240/232/59
f 238/230/60 240/232/60 241/233/60
f 242/234/59 243/235/59 244/236/59
f 242/234/35 244/236/35 245/237/35
f 246/238/61 247/239/61 248/240/61
f 246/238/61 249/241/61 250/242/61
f 246/238/62 250/242/62 247/239/62
f 251/243/63 252/244/63 253/245/63
f 251/243/64 254/246/64 255/247/64
f 251/243/65 255/247/65 252/244/65
f 256/248/66 257/249/66 258/250/66
f 256/248/66 258/250/66 259/251/66
f 260/252/67 261/253/67 262/254/67
f 263/255/68 260/252/68 262/254/68
f 264/256/67 263/255/67 262/254/67
f 265/257/69 266/258/69 267/259/69
f 265/257/70 267/259/70 268/260/70
f 269/261/69 265/257/69 268/260/69
f 270/262/70 269/261/70 271/263/70
f 270/262/69 272/264/69 269/261/69
f 269/261/69 272/264/69 265/257/69
f 270/262/71 273/265/71 272/264/71
f 272/264/70 273/265/70 274/266/70
s 1
f 64/64/8 65/267/8 62/62/8
f 65/267/8 66/268/8 62/62/8
f 70/68/72 68/66/72 67/65/72
f 75/73/73 76/269/73 77/74/73
f 86/83/74 88/85/74 89/87/74
f 82/79/36 86/83/36 90/86/36
f 116/116/75 117/270/75 118/113/75
f 151/147/36 145/141/36 148/144/36
f 152/148/36 149/145/36 153/271/36
f 224/272/76 222/217/20 221/216/55
f 225/219/77 224/272/76 221/216/55
f 225/219/77 221/216/55 226/220/55
f 228/223/66 229/273/66 230/224/66
f 231/222/78 230/224/78 232/274/78
