# Blender v3.0.1 OBJ File: 'rockerfeller_plaza.blend'
# www.blender.org
o geometryt000010000010000110010110000110000110100000000110st101
v 759.376465 -247.173691 104.920425
v 776.069214 -256.160614 104.920425
v 770.277344 -266.941803 104.920425
v 768.313110 -277.312012 104.920425
v 773.080688 -268.452301 104.920425
v 764.339905 -276.825500 104.920425
v 763.415039 -277.147095 104.920425
v 753.336426 -258.390808 104.920425
v 767.619019 -278.596893 104.920425
v 748.438416 -269.094910 104.920425
v 748.263611 -267.853485 104.920425
v 745.247803 -266.223297 104.920425
v 750.329285 -256.782715 104.920425
v 770.277344 -266.941803 153.720428
v 759.376465 -247.173691 153.720428
v 753.336426 -258.390808 153.720428
v 776.069214 -256.160614 153.720428
v 745.247803 -266.223297 153.720428
v 750.329285 -256.782715 153.720428
v 748.263611 -267.853485 153.720428
v 748.438416 -269.094910 153.720428
v 763.415039 -277.147095 153.720428
v 764.339905 -276.825500 153.720428
v 767.619019 -278.596893 153.720428
v 768.313110 -277.312012 153.720428
v 773.080688 -268.452301 153.720428
vt 0.366400 0.522880
vt 0.377440 0.556310
vt 0.398900 0.544390
vt 0.418400 0.540180
vt 0.400760 0.550000
vt 0.418780 0.532190
vt 0.419660 0.530310
vt 0.388730 0.510440
vt 0.420960 0.538750
vt 0.409770 0.500320
vt 0.407560 0.499990
vt 0.405560 0.493950
vt 0.386760 0.504420
vt 0.398900 0.544390
vt 0.366400 0.522880
vt 0.388730 0.510440
vt 0.377440 0.556310
vt 0.405560 0.493950
vt 0.386760 0.504420
vt 0.407560 0.499990
vt 0.409770 0.500320
vt 0.419660 0.530310
vt 0.418780 0.532190
vt 0.420960 0.538750
vt 0.418400 0.540180
vt 0.400760 0.550000
vn 0.0000 0.0000 -1.0000
vn 0.0000 0.0000 1.0000
s off
f 1/1/1 2/2/1 3/3/1
f 4/4/1 3/3/1 5/5/1
f 6/6/1 3/3/1 4/4/1
f 7/7/1 3/3/1 6/6/1
f 7/7/1 8/8/1 3/3/1
f 8/8/1 1/1/1 3/3/1
f 9/9/1 6/6/1 4/4/1
f 7/7/1 10/10/1 8/8/1
f 8/8/1 10/10/1 11/11/1
f 11/11/1 12/12/1 8/8/1
f 12/12/1 13/13/1 8/8/1
f 14/14/2 15/15/2 16/16/2
f 17/17/2 15/15/2 14/14/2
f 18/18/2 16/16/2 19/19/2
f 20/20/2 16/16/2 18/18/2
f 21/21/2 16/16/2 20/20/2
f 21/21/2 22/22/2 16/16/2
f 22/22/2 14/14/2 16/16/2
f 22/22/2 23/23/2 14/14/2
f 24/24/2 25/25/2 23/23/2
f 23/23/2 25/25/2 14/14/2
f 14/14/2 25/25/2 26/26/2
