# Blender v3.0.1 OBJ File: 'rockerfeller_plaza.blend'
# www.blender.org
o geometryt000010000010000110010110000110000100110010010110st7
v 65.299057 -62.791870 21.284531
v 65.603851 -62.953510 30.316351
v 65.299057 -62.791870 30.316351
v 61.807678 -60.940289 21.284531
v 65.603851 -62.953510 20.516350
v 61.807678 -60.940289 30.316351
v 61.629490 -60.845798 30.316351
v 61.629490 -60.845798 21.284531
v 59.301910 -59.611408 21.284531
v 59.301910 -59.611408 30.316351
v 59.123718 -59.516911 30.316351
v 59.123718 -59.516911 21.284531
v 57.959930 -58.899719 21.284531
v 57.959930 -58.899719 30.316351
v 57.781738 -58.805222 30.316351
v 57.781738 -58.805222 21.284531
v 56.617950 -58.188030 21.284531
v 56.617950 -58.188030 30.316351
v 56.439758 -58.093540 30.316351
v 56.439758 -58.093540 21.284531
v 55.275970 -57.476341 21.284531
v 55.275970 -57.476341 30.316351
v 55.097778 -57.381851 30.316351
v 55.097778 -57.381851 21.284531
v 51.606411 -55.530270 21.284531
v 41.100342 -49.958611 20.516350
v 51.606411 -55.530270 30.316351
v 51.428219 -55.435768 30.316351
v 51.428219 -55.435768 21.284531
v 50.264431 -54.818581 21.284531
v 50.264431 -54.818581 30.316351
v 50.086239 -54.724079 30.316351
v 50.086239 -54.724079 21.284531
v 48.922451 -54.106892 21.284531
v 48.922451 -54.106892 30.316351
v 48.744259 -54.012390 30.316351
v 48.744259 -54.012390 21.284531
v 47.580471 -53.395199 21.284531
v 47.580471 -53.395199 30.316351
v 47.402279 -53.300701 30.316351
v 47.402279 -53.300701 21.284531
v 45.074699 -52.066319 21.284531
v 45.074699 -52.066319 30.316351
v 44.896511 -51.971821 30.316351
v 44.896511 -51.971821 21.284531
v 41.405128 -50.120251 21.284531
v 41.405128 -50.120251 30.316351
v 41.100342 -49.958611 30.316351
v 41.567421 -49.077770 21.284531
v 41.100342 -49.958611 30.316351
v 41.567421 -49.077770 30.316351
v 46.354439 -40.050171 20.516350
v 45.887360 -40.931000 21.284531
v 41.100342 -49.958611 20.516350
v 45.887360 -40.931000 30.316351
v 46.354439 -40.050171 30.316351
v 46.775021 -40.273418 21.284531
v 46.354439 -40.050171 30.316351
v 46.775021 -40.273418 30.316351
v 54.919922 -44.596882 21.284531
v 46.354439 -40.050171 20.516350
v 54.919922 -44.596882 30.316351
v 55.340511 -44.820129 30.316351
v 55.340511 -44.820129 20.516350
v 54.968658 -45.512772 20.516350
v 55.340511 -44.820129 20.516350
v 55.340511 -44.820129 30.316351
v 54.968658 -45.512772 30.316351
v 55.442982 -45.764011 21.284531
v 54.968658 -45.512772 30.316351
v 55.442982 -45.764011 30.316351
v 61.263531 -48.846981 21.284531
v 54.968658 -45.512772 20.516350
v 61.263531 -48.846981 30.316351
v 61.737850 -49.098221 30.316351
v 61.737850 -49.098221 20.516350
v 62.101261 -48.405682 20.516350
v 61.737850 -49.098221 20.516350
v 61.737850 -49.098221 30.316351
v 62.101261 -48.405682 30.316351
v 62.987461 -48.875198 21.284531
v 62.101261 -48.405682 30.316351
v 62.987461 -48.875198 30.316351
v 70.857918 -53.045052 20.516350
v 69.971718 -52.575531 21.284531
v 62.101261 -48.405682 20.516350
v 69.971718 -52.575531 30.316351
v 70.857918 -53.045052 30.316351
v 70.390846 -53.925892 21.284531
v 70.857918 -53.045052 30.316351
v 70.390846 -53.925892 30.316351
v 66.070923 -62.072670 21.284531
v 70.857918 -53.045052 20.516350
v 66.070923 -62.072670 30.316351
v 65.603851 -62.953510 30.316351
v 65.603851 -62.953510 20.516350
vt 147.263794 4.129980
vt 149.118607 52.688171
vt 147.263794 52.688171
vt 126.016602 4.129980
vt 149.118607 0.000000
vt 126.016602 52.688171
vt 124.932297 52.688171
vt 124.932297 4.129980
vt 110.767502 4.129980
vt 110.767502 52.688171
vt 109.683098 52.688171
vt 109.683098 4.129980
vt 102.600800 4.129980
vt 102.600800 52.688171
vt 101.516403 52.688171
vt 101.516403 4.129980
vt 94.433998 4.129980
vt 94.433998 52.688171
vt 93.349632 52.688171
vt 93.349632 4.129980
vt 86.267250 4.129980
vt 86.267250 52.688171
vt 85.182877 52.688171
vt 85.182877 4.129980
vt 63.935730 4.129980
vt 0.000000 0.000000
vt 63.935730 52.688171
vt 62.851372 52.688171
vt 62.851372 4.129980
vt 55.768990 4.129980
vt 55.768990 52.688171
vt 54.684620 52.688171
vt 54.684620 4.129980
vt 47.602230 4.129980
vt 47.602230 52.688171
vt 46.517872 52.688171
vt 46.517872 4.129980
vt 39.435490 4.129980
vt 39.435490 52.688171
vt 38.351120 52.688171
vt 38.351120 4.129980
vt 24.186350 4.129980
vt 24.186350 52.688171
vt 23.101990 52.688171
vt 23.101990 4.129980
vt 1.854840 4.129980
vt 1.854840 52.688171
vt 0.000000 52.688171
vt 54.936970 4.129980
vt 60.297260 52.688171
vt 54.936970 52.688171
vt 0.000000 0.000000
vt 5.360290 4.129980
vt 60.297260 0.000000
vt 5.360290 52.688171
vt 0.000000 52.688171
vt 52.136700 4.129980
vt 54.696720 52.688171
vt 52.136700 52.688171
vt 2.560020 4.129980
vt 54.696720 0.000000
vt 2.560020 52.688171
vt 0.000000 52.688171
vt 0.000000 0.000000
vt 4.226570 0.000000
vt 4.226570 52.688171
vt 0.000000 52.688171
vt 38.297680 4.129980
vt 41.183441 52.688171
vt 38.297680 52.688171
vt 2.885770 4.129980
vt 41.183441 0.000000
vt 2.885770 52.688171
vt 0.000000 52.688171
vt 0.000000 0.000000
vt 0.000000 0.000000
vt 4.204840 0.000000
vt 4.204840 52.688171
vt 0.000000 52.688171
vt 0.000000 0.000000
vt 53.278160 0.000000
vt 47.886230 4.129980
vt 53.278160 52.688171
vt 5.391930 52.688171
vt 0.000000 52.688171
vt 5.391930 4.129980
vt 54.936989 4.129980
vt 60.297291 52.688171
vt 54.936989 52.688171
vt 5.360310 4.129980
vt 60.297291 0.000000
vt 5.360310 52.688171
vt 0.000000 52.688171
vt 0.000000 0.000000
vt 0.000000 0.000000
vt 47.886230 52.688171
vn -0.4685 -0.8835 0.0000
vn -0.4685 -0.8835 0.0002
vn -0.4685 -0.8834 -0.0000
vn -0.4684 -0.8835 0.0001
vn -0.4685 -0.8835 -0.0001
vn -0.4685 -0.8835 -0.0003
vn -0.4686 -0.8834 -0.0008
vn -0.4685 -0.8835 0.0001
vn -0.4686 -0.8834 -0.0004
vn -0.4685 -0.8835 0.0004
vn -0.4684 -0.8835 0.0003
vn -0.8835 0.4685 0.0000
vn 0.4688 0.8833 0.0000
vn 0.4689 0.8833 -0.0000
vn 0.8811 -0.4730 0.0000
vn 0.4681 0.8837 0.0000
vn -0.8855 0.4647 0.0000
vn 0.4682 0.8836 0.0000
vn 0.8835 -0.4685 0.0000
vn -0.4684 -0.8835 0.0005
s off
f 1/1/1 2/2/1 3/3/1
f 4/4/1 5/5/1 1/1/1
f 2/2/1 1/1/1 5/5/1
f 6/6/1 7/7/1 4/4/1
f 7/7/1 8/8/1 4/4/1
f 8/8/2 5/5/2 4/4/2
f 8/8/3 9/9/3 5/5/3
f 10/10/1 11/11/1 9/9/1
f 11/11/1 12/12/1 9/9/1
f 9/9/4 12/12/4 5/5/4
f 12/12/5 13/13/5 5/5/5
f 14/14/1 15/15/1 13/13/1
f 15/15/1 16/16/1 13/13/1
f 13/13/6 16/16/6 5/5/6
f 16/16/1 17/17/1 5/5/1
f 18/18/1 19/19/1 17/17/1
f 19/19/1 20/20/1 17/17/1
f 20/20/3 21/21/3 5/5/3
f 22/22/1 23/23/1 21/21/1
f 23/23/1 24/24/1 21/21/1
f 25/25/1 26/26/1 24/24/1
f 24/24/1 26/26/1 5/5/1
f 27/27/3 28/28/3 25/25/3
f 28/28/1 29/29/1 25/25/1
f 29/29/7 26/26/7 25/25/7
f 30/30/8 26/26/8 29/29/8
f 31/31/3 32/32/3 30/30/3
f 32/32/1 33/33/1 30/30/1
f 33/33/9 26/26/9 30/30/9
f 34/34/5 26/26/5 33/33/5
f 35/35/1 36/36/1 34/34/1
f 36/36/3 37/37/3 34/34/3
f 37/37/10 26/26/10 34/34/10
f 38/38/8 26/26/8 37/37/8
f 39/39/1 40/40/1 38/38/1
f 40/40/1 41/41/1 38/38/1
f 41/41/11 26/26/11 38/38/11
f 42/42/1 26/26/1 41/41/1
f 43/43/1 44/44/1 42/42/1
f 44/44/3 45/45/3 42/42/3
f 45/45/1 26/26/1 42/42/1
f 46/46/1 26/26/1 45/45/1
f 47/47/1 48/48/1 46/46/1
f 48/48/3 26/26/3 46/46/3
f 49/49/12 50/50/12 51/51/12
f 52/52/12 49/49/12 53/53/12
f 52/52/12 54/54/12 49/49/12
f 50/50/12 49/49/12 54/54/12
f 55/55/12 56/56/12 53/53/12
f 56/56/12 52/52/12 53/53/12
f 57/57/13 58/58/13 59/59/13
f 60/60/14 61/61/14 57/57/14
f 58/58/14 57/57/14 61/61/14
f 62/62/13 63/63/13 60/60/13
f 65/64/15 66/65/15 67/66/15
f 65/64/15 67/66/15 68/67/15
f 69/68/16 70/69/16 71/70/16
f 72/71/16 73/72/16 69/68/16
f 70/69/16 69/68/16 73/72/16
f 74/73/16 75/74/16 72/71/16
f 75/74/16 76/75/16 72/71/16
f 76/75/16 73/72/16 72/71/16
f 77/76/17 78/77/17 79/78/17
f 77/76/17 79/78/17 80/79/17
f 84/80/18 86/81/18 81/82/18
f 82/83/18 81/82/18 86/81/18
f 87/84/18 88/85/18 85/86/18
f 89/87/19 90/88/19 91/89/19
f 92/90/19 93/91/19 89/87/19
f 90/88/19 89/87/19 93/91/19
f 94/92/19 95/93/19 92/90/19
f 95/93/19 96/94/19 92/90/19
f 96/94/19 93/91/19 92/90/19
s 1
f 17/17/1 20/20/1 5/5/1
f 21/21/20 24/24/20 5/5/20
f 63/63/13 64/95/14 60/60/13
f 64/95/14 61/61/14 60/60/13
f 81/82/18 82/83/18 83/96/18
f 84/80/18 81/82/18 85/86/18
f 88/85/18 84/80/18 85/86/18
