# Blender v3.0.1 OBJ File: 'rockerfeller_plaza.blend'
# www.blender.org
o geometryt000010000010000110010110000110000110100000110000st52
v 918.426514 -255.145737 423.221527
v 893.211914 -253.852646 423.221527
v 903.259949 -235.227844 423.221527
v 914.170959 -263.033630 423.221527
v 912.733032 -265.681732 423.221527
v 892.666443 -254.858139 423.221527
v 922.483643 -247.615433 423.221527
v 923.326538 -246.062439 423.221527
v 921.417664 -249.593033 423.221527
v 920.483948 -251.324738 423.221527
v 919.401672 -253.346939 423.221527
v 893.211914 -253.852646 484.621521
v 892.666443 -254.858139 484.621521
v 912.733032 -265.681732 484.621521
v 914.170959 -263.033630 484.621521
v 918.426514 -255.145737 484.621521
v 919.401672 -253.346939 484.621521
v 903.259949 -235.227844 484.621521
v 920.483948 -251.324738 484.621521
v 921.417664 -249.593033 484.621521
v 922.483643 -247.615433 484.621521
v 923.326538 -246.062439 484.621521
vt 0.410380 0.335770
vt 0.416040 0.284980
vt 0.378950 0.305670
vt 0.426080 0.327010
vt 0.431360 0.324050
vt 0.418040 0.283860
vt 0.395380 0.344130
vt 0.392290 0.345860
vt 0.399320 0.341930
vt 0.402770 0.340010
vt 0.406790 0.337780
vt 0.416040 0.284980
vt 0.418040 0.283860
vt 0.431360 0.324050
vt 0.426080 0.327010
vt 0.410380 0.335770
vt 0.406790 0.337780
vt 0.378950 0.305670
vt 0.402770 0.340010
vt 0.399320 0.341930
vt 0.395380 0.344130
vt 0.392290 0.345860
vn 0.0000 0.0000 -1.0000
vn 0.0000 0.0000 1.0000
s off
f 1/1/1 2/2/1 3/3/1
f 4/4/1 2/2/1 1/1/1
f 5/5/1 2/2/1 4/4/1
f 6/6/1 2/2/1 5/5/1
f 7/7/1 3/3/1 8/8/1
f 7/7/1 9/9/1 3/3/1
f 9/9/1 10/10/1 3/3/1
f 10/10/1 11/11/1 3/3/1
f 11/11/1 1/1/1 3/3/1
f 12/12/2 13/13/2 14/14/2
f 12/12/2 14/14/2 15/15/2
f 16/16/2 12/12/2 15/15/2
f 17/17/2 18/18/2 16/16/2
f 18/18/2 12/12/2 16/16/2
f 19/19/2 18/18/2 17/17/2
f 20/20/2 18/18/2 19/19/2
f 21/21/2 18/18/2 20/20/2
f 22/22/2 18/18/2 21/21/2
