# Blender v3.0.1 OBJ File: 'rockerfeller_plaza.blend'
# www.blender.org
o geometryt000010000010000110010110000110000110100000000110st18
v 740.149292 -131.402191 120.745300
v 740.149292 -131.402191 104.852692
v 738.709229 -134.081192 104.852692
v 738.709229 -134.081192 120.745300
v 741.683716 -128.547592 120.745300
v 741.683716 -128.547592 104.852692
v 740.243713 -131.226486 104.852692
v 740.243713 -131.226486 120.745300
v 742.498108 -127.032387 120.745300
v 742.498108 -127.032387 104.852692
v 741.778076 -128.371887 104.852692
v 741.778076 -128.371887 120.745300
v 743.312500 -125.517288 104.852692
v 742.592529 -126.856781 104.852692
v 742.592529 -126.856781 120.745300
v 743.312500 -125.517288 120.745300
v 744.127014 -124.002182 120.745300
v 744.127014 -124.002182 104.852692
v 743.406921 -125.341682 104.852692
v 743.406921 -125.341682 120.745300
v 744.941406 -122.487083 120.745300
v 744.941406 -122.487083 104.852692
v 744.221436 -123.826584 104.852692
v 744.221436 -123.826584 120.745300
v 745.755798 -120.971886 104.852692
v 745.035828 -122.311386 104.852692
v 745.035828 -122.311386 120.745300
v 745.755798 -120.971886 120.745300
v 746.570190 -119.456787 104.852692
v 745.850220 -120.796288 104.852692
v 745.850220 -120.796288 120.745300
v 746.570190 -119.456787 120.745300
v 747.384644 -117.941689 120.745300
v 747.384644 -117.941689 104.852692
v 746.664612 -119.281181 104.852692
v 746.664612 -119.281181 120.745300
v 748.919006 -115.087082 104.852692
v 747.479004 -117.766083 104.852692
v 747.479004 -117.766083 120.745300
v 748.919006 -115.087082 120.745300
v 750.453491 -112.232483 104.852692
v 749.013489 -114.911484 104.852692
v 749.013489 -114.911484 120.745300
v 750.453491 -112.232483 120.745300
v 739.311218 -134.795578 104.852692
v 741.991394 -136.233292 104.852692
v 741.991394 -136.233292 120.745300
v 739.311218 -134.795578 120.745300
v 742.921387 -136.340683 120.745300
v 742.921387 -136.340683 104.852692
v 744.362122 -133.661987 104.852692
v 744.362122 -133.661987 120.745300
v 744.455994 -133.487289 120.745300
v 744.455994 -133.487289 104.852692
v 745.896729 -130.808578 104.852692
v 745.896729 -130.808578 120.745300
v 745.990723 -130.633881 104.852692
v 746.710999 -129.294479 104.852692
v 746.710999 -129.294479 120.745300
v 745.990723 -130.633881 120.745300
v 746.804993 -129.119781 120.745300
v 746.804993 -129.119781 104.852692
v 747.525269 -127.780388 104.852692
v 747.525269 -127.780388 120.745300
v 747.619324 -127.605682 104.852692
v 748.339600 -126.266388 104.852692
v 748.339600 -126.266388 120.745300
v 747.619324 -127.605682 120.745300
v 748.433594 -126.091583 120.745300
v 748.433594 -126.091583 104.852692
v 749.153931 -124.752281 104.852692
v 749.153931 -124.752281 120.745300
v 749.247925 -124.577484 120.745300
v 749.247925 -124.577484 104.852692
v 749.968201 -123.238182 104.852692
v 749.968201 -123.238182 120.745300
v 750.062195 -123.063484 120.745300
v 750.062195 -123.063484 104.852692
v 750.782471 -121.724083 104.852692
v 750.782471 -121.724083 120.745300
v 750.876526 -121.549385 104.852692
v 751.596802 -120.209984 104.852692
v 751.596802 -120.209984 120.745300
v 750.876526 -121.549385 120.745300
v 751.690796 -120.035286 120.745300
v 751.690796 -120.035286 104.852692
v 753.131409 -117.356583 104.852692
v 753.131409 -117.356583 120.745300
v 753.225403 -117.181885 120.745300
v 753.225403 -117.181885 104.852692
v 754.666016 -114.503181 104.852692
v 754.666016 -114.503181 120.745300
v 754.061279 -113.785286 104.852692
v 751.384033 -112.342087 104.852692
v 751.384033 -112.342087 120.745300
v 754.061279 -113.785286 120.745300
vt 0.000000 1.666670
vt 0.000000 0.000000
vt 0.666670 0.000000
vt 0.666670 1.666670
vt 0.000000 1.666670
vt 0.000000 0.000000
vt 0.666670 0.000000
vt 0.666670 1.666670
vt 0.000000 1.666670
vt 0.000000 0.000000
vt 0.333330 0.000000
vt 0.333330 1.666670
vt 0.000000 0.000000
vt 0.333330 0.000000
vt 0.333330 1.666670
vt 0.000000 1.666670
vt 0.000000 1.666670
vt 0.000000 0.000000
vt 0.333330 0.000000
vt 0.333330 1.666670
vt 0.000000 1.666670
vt 0.000000 0.000000
vt 0.333330 0.000000
vt 0.333330 1.666670
vt 0.000000 0.000000
vt 0.333330 0.000000
vt 0.333330 1.666670
vt 0.000000 1.666670
vt 0.000000 0.000000
vt 0.333330 0.000000
vt 0.333330 1.666670
vt 0.000000 1.666670
vt 0.000000 1.666670
vt 0.000000 0.000000
vt 0.333330 0.000000
vt 0.333330 1.666670
vt 0.000000 0.000000
vt 0.666670 0.000000
vt 0.666670 1.666670
vt 0.000000 1.666670
vt 0.000000 0.000000
vt 0.666670 0.000000
vt 0.666670 1.666670
vt 0.000000 1.666670
vt 0.000000 0.000000
vt 0.666670 0.000000
vt 0.666670 1.666670
vt 0.000000 1.666670
vt 0.000000 1.666670
vt 0.000000 0.000000
vt 0.666670 0.000000
vt 0.666670 1.666670
vt 0.000000 1.666670
vt 0.000000 0.000000
vt 0.666670 0.000000
vt 0.666670 1.666670
vt 0.000000 0.000000
vt 0.333330 0.000000
vt 0.333330 1.666670
vt 0.000000 1.666670
vt 0.000000 1.666670
vt 0.000000 0.000000
vt 0.333330 0.000000
vt 0.333330 1.666670
vt 0.000000 0.000000
vt 0.333330 0.000000
vt 0.333330 1.666670
vt 0.000000 1.666670
vt 0.000000 1.666670
vt 0.000000 0.000000
vt 0.333330 0.000000
vt 0.333330 1.666670
vt 0.000000 1.666670
vt 0.000000 0.000000
vt 0.333330 0.000000
vt 0.333330 1.666670
vt 0.000000 1.666670
vt 0.000000 0.000000
vt 0.333330 0.000000
vt 0.333330 1.666670
vt 0.000000 0.000000
vt 0.333330 0.000000
vt 0.333330 1.666670
vt 0.000000 1.666670
vt 0.000000 1.666670
vt 0.000000 0.000000
vt 0.666670 0.000000
vt 0.666670 1.666670
vt 0.000000 1.666670
vt 0.000000 0.000000
vt 0.666670 0.000000
vt 0.666670 1.666670
vt 0.000000 0.000000
vt 0.666670 0.000000
vt 0.666670 1.666670
vt 0.000000 1.666670
vn -0.8808 0.4735 0.0000
vn -0.8808 0.4734 0.0000
vn -0.4727 -0.8812 0.0000
vn 0.8807 -0.4737 0.0000
vn 0.8807 -0.4736 0.0000
vn 0.8808 -0.4736 0.0000
vn 0.4745 0.8803 0.0000
s off
f 1/1/1 2/2/1 3/3/1
f 1/1/1 3/3/1 4/4/1
f 5/5/1 6/6/1 7/7/1
f 5/5/1 7/7/1 8/8/1
f 9/9/1 10/10/1 11/11/1
f 9/9/2 11/11/2 12/12/2
f 13/13/2 14/14/2 15/15/2
f 16/16/1 13/13/1 15/15/1
f 17/17/1 18/18/1 19/19/1
f 17/17/1 19/19/1 20/20/1
f 21/21/1 22/22/1 23/23/1
f 21/21/2 23/23/2 24/24/2
f 25/25/1 26/26/1 27/27/1
f 28/28/2 25/25/2 27/27/2
f 29/29/2 30/30/2 31/31/2
f 32/32/1 29/29/1 31/31/1
f 33/33/2 34/34/2 35/35/2
f 33/33/1 35/35/1 36/36/1
f 37/37/2 38/38/2 39/39/2
f 40/40/1 37/37/1 39/39/1
f 41/41/1 42/42/1 43/43/1
f 44/44/2 41/41/2 43/43/2
f 45/45/3 46/46/3 47/47/3
f 48/48/3 45/45/3 47/47/3
f 49/49/4 50/50/4 51/51/4
f 49/49/4 51/51/4 52/52/4
f 53/53/4 54/54/4 55/55/4
f 53/53/4 55/55/4 56/56/4
f 57/57/5 58/58/5 59/59/5
f 60/60/5 57/57/5 59/59/5
f 61/61/5 62/62/5 63/63/5
f 61/61/5 63/63/5 64/64/5
f 65/65/5 66/66/5 67/67/5
f 68/68/4 65/65/4 67/67/4
f 69/69/4 70/70/4 71/71/4
f 69/69/4 71/71/4 72/72/4
f 73/73/4 74/74/4 75/75/4
f 73/73/4 75/75/4 76/76/4
f 77/77/5 78/78/5 79/79/5
f 77/77/6 79/79/6 80/80/6
f 81/81/5 82/82/5 83/83/5
f 84/84/5 81/81/5 83/83/5
f 85/85/5 86/86/5 87/87/5
f 85/85/5 87/87/5 88/88/5
f 89/89/5 90/90/5 91/91/5
f 89/89/5 91/91/5 92/92/5
f 93/93/7 94/94/7 95/95/7
f 96/96/7 93/93/7 95/95/7
