# Blender v3.0.1 OBJ File: 'rockerfeller_plaza.blend'
# www.blender.org
o geometryt000010000010000110010110000110000110100100000000st141
v 484.116425 -177.782776 888.264282
v 492.901031 -182.521271 888.264282
v 478.423645 -209.534683 888.264282
v 469.554535 -204.786072 888.264282
v 484.116425 -177.782776 906.764282
v 469.554535 -204.786072 906.764282
v 478.423645 -209.534683 906.764282
v 492.901031 -182.521271 906.764282
vt 0.251640 0.451350
vt 0.257460 0.468940
vt 0.311220 0.439130
vt 0.305400 0.421370
vt 0.251640 0.451350
vt 0.305400 0.421370
vt 0.311220 0.439130
vt 0.257460 0.468940
vn -0.0000 0.0000 -1.0000
vn 0.0000 0.0000 1.0000
s off
f 1/1/1 2/2/1 3/3/1
f 1/1/1 3/3/1 4/4/1
f 5/5/2 6/6/2 7/7/2
f 8/8/2 5/5/2 7/7/2
