# Blender v3.0.1 OBJ File: 'rockerfeller_plaza.blend'
# www.blender.org
o geometryt000010000010000110010110000110000100110010110110st146
v 138.962280 -252.588028 566.316772
v 138.802582 -252.893829 588.457031
v 138.962280 -252.588028 588.457031
v 140.522186 -249.600525 566.316772
v 138.802582 -252.893829 565.356995
v 140.522186 -249.600525 588.457031
v 140.857376 -248.958618 588.457031
v 140.857376 -248.958618 566.316772
v 141.637283 -247.464920 566.316772
v 141.637283 -247.464920 588.457031
v 141.972488 -246.823029 588.457031
v 141.972488 -246.823029 566.316772
v 143.532379 -243.835526 566.316772
v 143.532379 -243.835526 588.457031
v 143.867584 -243.193619 588.457031
v 143.867584 -243.193619 566.316772
v 144.647476 -241.699921 566.316772
v 144.647476 -241.699921 588.457031
v 144.982681 -241.058029 588.457031
v 144.982681 -241.058029 566.316772
v 145.762680 -239.564224 566.316772
v 151.942780 -227.728424 565.356995
v 145.762680 -239.564224 588.457031
v 146.097778 -238.922424 588.457031
v 146.097778 -238.922424 566.316772
v 146.877777 -237.428619 566.316772
v 146.877777 -237.428619 588.457031
v 147.212891 -236.786819 588.457031
v 147.212891 -236.786819 566.316772
v 148.772888 -233.799225 566.316772
v 148.772888 -233.799225 588.457031
v 149.107986 -233.157425 588.457031
v 149.107986 -233.157425 566.316772
v 149.887985 -231.663620 566.316772
v 149.887985 -231.663620 588.457031
v 150.223083 -231.021820 588.457031
v 150.223083 -231.021820 566.316772
v 151.783081 -228.034225 566.316772
v 151.783081 -228.034225 588.457031
v 151.942780 -227.728424 588.457031
v 144.484680 -255.862228 566.316772
v 144.790482 -256.022034 588.457031
v 144.484680 -255.862228 588.457031
v 142.991089 -255.082031 566.316772
v 144.790482 -256.022034 565.356995
v 142.991089 -255.082031 588.457031
v 140.601990 -253.833923 588.457031
v 140.601990 -253.833923 566.316772
v 138.802582 -252.893829 565.356995
v 139.108383 -253.053619 566.316772
v 139.108383 -253.053619 588.457031
v 138.802582 -252.893829 588.457031
v 147.670181 -250.508331 566.316772
v 147.829880 -250.202530 588.457031
v 147.670181 -250.508331 588.457031
v 146.889984 -252.002029 566.316772
v 147.829880 -250.202530 565.356995
v 146.889984 -252.002029 588.457031
v 145.730377 -254.222519 588.457031
v 145.730377 -254.222519 566.316772
v 144.790482 -256.022034 565.356995
v 144.950180 -255.716217 566.316772
v 144.950180 -255.716217 588.457031
v 144.790482 -256.022034 588.457031
v 149.570679 -251.107727 566.316772
v 149.876785 -251.266922 588.457031
v 149.570679 -251.107727 588.457031
v 148.135986 -250.361725 566.316772
v 149.876785 -251.266922 565.356995
v 148.135986 -250.361725 588.457031
v 147.829880 -250.202530 588.457031
v 147.829880 -250.202530 565.356995
v 159.826279 -232.226517 566.316772
v 159.985977 -231.920822 588.457031
v 159.826279 -232.226517 588.457031
v 158.265381 -235.213623 566.316772
v 159.985977 -231.920822 565.356995
v 158.265381 -235.213623 588.457031
v 157.868286 -235.973526 588.457031
v 157.868286 -235.973526 566.316772
v 157.087891 -237.467026 566.316772
v 157.087891 -237.467026 588.457031
v 156.690781 -238.226822 588.457031
v 156.690781 -238.226822 566.316772
v 155.129883 -241.213928 566.316772
v 155.129883 -241.213928 588.457031
v 154.732880 -241.973724 588.457031
v 154.732880 -241.973724 566.316772
v 149.876785 -251.266922 565.356995
v 153.171982 -244.960831 566.316772
v 153.171982 -244.960831 588.457031
v 152.774887 -245.720718 588.457031
v 152.774887 -245.720718 566.316772
v 151.994476 -247.214218 566.316772
v 151.994476 -247.214218 588.457031
v 151.597382 -247.974030 588.457031
v 151.597382 -247.974030 566.316772
v 150.036484 -250.961121 566.316772
v 150.036484 -250.961121 588.457031
v 149.876785 -251.266922 588.457031
v 152.248688 -227.887924 566.316772
v 151.942780 -227.728424 588.457031
v 152.248688 -227.887924 588.457031
v 153.743088 -228.666824 566.316772
v 151.942780 -227.728424 565.356995
v 153.743088 -228.666824 588.457031
v 155.217178 -229.435226 588.457031
v 155.217178 -229.435226 566.316772
v 156.711578 -230.214020 566.316772
v 159.985977 -231.920822 565.356995
v 156.711578 -230.214020 588.457031
v 158.185776 -230.982422 588.457031
v 158.185776 -230.982422 566.316772
v 159.680084 -231.761322 566.316772
v 159.680084 -231.761322 588.457031
v 159.985977 -231.920822 588.457031
vt 150.776794 5.160230
vt 152.631699 124.193604
vt 150.776794 124.193604
vt 132.656998 5.160230
vt 152.631699 0.000000
vt 132.656998 124.193604
vt 128.764099 124.193604
vt 128.764099 5.160230
vt 119.704201 124.193604
vt 115.811302 124.193604
vt 119.704201 5.160230
vt 115.811302 5.160230
vt 97.691467 5.160230
vt 84.738670 124.193604
vt 80.845787 124.193604
vt 84.738670 5.160230
vt 80.845787 5.160230
vt 0.000000 0.000000
vt 36.820358 5.160230
vt 54.940201 5.160230
vt 23.867559 5.160230
vt 32.927479 5.160230
vt 19.974680 5.160230
vt 1.854840 5.160230
vt 1.854840 124.193604
vt 0.000000 124.193604
vt 34.466621 5.160230
vt 36.321449 124.193604
vt 34.466621 124.193604
vt 25.406700 5.160230
vt 36.321449 0.000000
vt 25.406700 124.193604
vt 10.914760 124.193604
vt 10.914760 5.160230
vt 0.000000 0.000000
vt 1.854840 5.160230
vt 1.854840 124.193604
vt 0.000000 124.193604
vt 33.442669 5.160230
vt 35.297501 124.193604
vt 33.442669 124.193604
vt 24.382740 5.160230
vt 35.297501 0.000000
vt 24.382740 124.193604
vt 10.914760 124.193604
vt 10.914760 5.160230
vt 0.000000 0.000000
vt 1.854840 5.160230
vt 1.854840 124.193604
vt 0.000000 124.193604
vt 10.548710 5.160230
vt 12.403550 124.193604
vt 10.548710 124.193604
vt 1.854840 5.160230
vt 12.403550 0.000000
vt 1.854840 124.193604
vt 0.000000 124.193604
vt 0.000000 0.000000
vt 115.500801 5.160230
vt 117.355698 124.193604
vt 115.500801 124.193604
vt 97.380981 5.160230
vt 117.355698 0.000000
vt 97.380981 124.193604
vt 92.771629 124.193604
vt 92.771629 5.160230
vt 83.711708 5.160230
vt 83.711708 124.193604
vt 79.102348 124.193604
vt 79.102348 5.160230
vt 60.982510 5.160230
vt 60.982510 124.193604
vt 56.373150 124.193604
vt 56.373150 5.160230
vt 0.000000 0.000000
vt 38.253311 5.160230
vt 38.253311 124.193604
vt 33.643959 124.193604
vt 33.643959 5.160230
vt 24.584040 5.160230
vt 24.584040 124.193604
vt 19.974680 124.193604
vt 19.974680 5.160230
vt 1.854840 5.160230
vt 1.854840 124.193604
vt 0.000000 124.193604
vt 46.910019 5.160230
vt 48.764858 124.193604
vt 46.910019 124.193604
vt 37.850109 5.160230
vt 48.764858 0.000000
vt 37.850109 124.193604
vt 28.912390 124.193604
vt 28.912390 5.160230
vt 19.852470 5.160230
vt 0.000000 0.000000
vt 19.852470 124.193604
vt 10.914760 124.193604
vt 10.914760 5.160230
vt 1.854840 5.160230
vt 1.854840 124.193604
vt 0.000000 124.193604
vt 97.691467 124.193604
vt 93.798592 124.193604
vt 93.798592 5.160230
vt 71.785881 5.160230
vt 71.785881 124.193604
vt 67.892998 124.193604
vt 67.892998 5.160230
vt 58.833080 5.160230
vt 58.833080 124.193604
vt 54.940201 124.193604
vt 36.820358 124.193604
vt 32.927479 124.193604
vt 23.867559 124.193604
vt 19.974680 124.193604
vn -0.8864 0.4629 0.0000
vn -0.8864 0.4628 0.0000
vn -0.8863 0.4630 0.0003
vn -0.8864 0.4629 0.0002
vn -0.8865 0.4628 -0.0000
vn -0.8864 0.4629 0.0001
vn -0.8864 0.4629 -0.0001
vn -0.4632 -0.8863 0.0000
vn -0.4630 -0.8864 0.0001
vn -0.4631 -0.8863 0.0000
vn -0.4630 -0.8863 0.0000
vn -0.4631 -0.8863 -0.0001
vn 0.8864 -0.4629 0.0000
vn 0.8864 -0.4630 -0.0000
vn 0.8864 -0.4629 -0.0002
vn 0.8864 -0.4630 0.0001
vn -0.4614 -0.8872 0.0000
vn -0.4613 -0.8872 0.0000
vn 0.8863 -0.4630 0.0000
vn 0.8863 -0.4632 -0.0000
vn 0.8863 -0.4631 0.0000
vn 0.8863 -0.4631 -0.0001
vn 0.8863 -0.4632 0.0001
vn 0.8862 -0.4632 0.0000
vn 0.8863 -0.4631 0.0001
vn 0.8861 -0.4634 -0.0003
vn 0.8864 -0.4630 -0.0003
vn 0.8863 -0.4632 -0.0002
vn 0.4623 0.8867 0.0000
vn 0.4622 0.8868 0.0000
vn 0.4620 0.8869 -0.0000
vn 0.4622 0.8868 0.0001
vn 0.4622 0.8868 -0.0001
vn 0.4624 0.8867 0.0000
vn -0.8864 0.4628 0.0001
vn -0.8865 0.4628 0.0002
vn -0.8863 0.4632 -0.0001
vn -0.8864 0.4629 0.0003
vn -0.8863 0.4631 0.0002
vn -0.8862 0.4633 -0.0000
vn -0.8862 0.4633 0.0001
vn -0.8863 0.4631 -0.0002
vn -0.8865 0.4628 -0.0001
vn -0.8865 0.4627 -0.0002
s off
f 1/1/1 2/2/1 3/3/1
f 4/4/1 5/5/1 1/1/1
f 2/2/1 1/1/1 5/5/1
f 6/6/1 7/7/1 4/4/1
f 7/7/2 8/8/2 4/4/2
f 10/9/1 11/10/1 9/11/1
f 11/10/1 12/12/1 9/11/1
f 9/11/3 12/12/3 5/5/3
f 12/12/4 13/13/4 5/5/4
f 18/14/1 19/15/1 17/16/1
f 19/15/1 20/17/1 17/16/1
f 20/17/5 22/18/5 5/5/5
f 30/19/6 22/18/6 29/20/6
f 34/21/7 22/18/7 33/22/7
f 37/23/3 22/18/3 34/21/3
f 38/24/1 22/18/1 37/23/1
f 39/25/1 40/26/1 38/24/1
f 40/26/1 22/18/1 38/24/1
f 41/27/8 42/28/8 43/29/8
f 44/30/9 45/31/9 41/27/9
f 42/28/10 41/27/10 45/31/10
f 46/32/11 47/33/11 44/30/11
f 47/33/11 48/34/11 44/30/11
f 48/34/12 49/35/12 44/30/12
f 49/35/11 45/31/11 44/30/11
f 50/36/11 49/35/11 48/34/11
f 51/37/10 52/38/10 50/36/10
f 52/38/10 49/35/10 50/36/10
f 53/39/13 54/40/13 55/41/13
f 56/42/14 57/43/14 53/39/14
f 54/40/13 53/39/13 57/43/13
f 58/44/13 59/45/13 56/42/13
f 59/45/13 60/46/13 56/42/13
f 60/46/15 61/47/15 56/42/15
f 61/47/13 57/43/13 56/42/13
f 62/48/16 61/47/16 60/46/16
f 63/49/13 64/50/13 62/48/13
f 64/50/13 61/47/13 62/48/13
f 65/51/17 66/52/17 67/53/17
f 68/54/18 69/55/18 65/51/18
f 66/52/17 65/51/17 69/55/17
f 70/56/17 71/57/17 68/54/17
f 71/57/17 72/58/17 68/54/17
f 72/58/17 69/55/17 68/54/17
f 73/59/19 74/60/19 75/61/19
f 76/62/20 77/63/20 73/59/20
f 74/60/19 73/59/19 77/63/19
f 78/64/21 79/65/21 76/62/21
f 79/65/21 80/66/21 76/62/21
f 80/66/22 77/63/22 76/62/22
f 80/66/23 81/67/23 77/63/23
f 82/68/20 83/69/20 81/67/20
f 83/69/24 84/70/24 81/67/24
f 84/70/25 85/71/25 77/63/25
f 86/72/21 87/73/21 85/71/21
f 87/73/21 88/74/21 85/71/21
f 88/74/26 89/75/26 85/71/26
f 85/71/21 89/75/21 77/63/21
f 90/76/21 89/75/21 88/74/21
f 91/77/20 92/78/20 90/76/20
f 92/78/21 93/79/21 90/76/21
f 93/79/25 89/75/25 90/76/25
f 94/80/20 89/75/20 93/79/20
f 95/81/20 96/82/20 94/80/20
f 96/82/20 97/83/20 94/80/20
f 97/83/27 89/75/27 94/80/27
f 98/84/28 89/75/28 97/83/28
f 99/85/13 100/86/13 98/84/13
f 100/86/13 89/75/13 98/84/13
f 101/87/29 102/88/29 103/89/29
f 104/90/30 105/91/30 101/87/30
f 102/88/31 101/87/31 105/91/31
f 106/92/30 107/93/30 104/90/30
f 107/93/30 108/94/30 104/90/30
f 108/94/30 105/91/30 104/90/30
f 109/95/29 110/96/29 108/94/29
f 108/94/32 110/96/32 105/91/32
f 111/97/30 112/98/30 109/95/30
f 112/98/30 113/99/30 109/95/30
f 113/99/33 110/96/33 109/95/33
f 114/100/33 110/96/33 113/99/33
f 115/101/29 116/102/29 114/100/29
f 116/102/34 110/96/34 114/100/34
s 1
f 8/8/35 5/5/2 4/4/36
f 8/8/35 9/11/35 5/5/2
f 14/103/1 15/104/1 13/13/37
f 15/104/1 16/105/38 13/13/37
f 13/13/37 16/105/38 5/5/39
f 16/105/38 17/16/40 5/5/39
f 17/16/40 20/17/41 5/5/39
f 21/106/6 22/18/1 20/17/4
f 23/107/2 24/108/2 21/106/6
f 24/108/2 25/109/42 21/106/6
f 25/109/42 22/18/1 21/106/6
f 26/110/1 22/18/1 25/109/42
f 27/111/2 28/112/2 26/110/1
f 28/112/2 29/20/5 26/110/1
f 29/20/5 22/18/1 26/110/1
f 31/113/5 32/114/5 30/19/2
f 32/114/5 33/22/43 30/19/2
f 33/22/43 22/18/44 30/19/2
f 35/115/2 36/116/2 34/21/5
f 36/116/2 37/23/5 34/21/5
f 81/67/27 84/70/27 77/63/27
