# Blender v3.0.1 OBJ File: 'rockerfeller_plaza.blend'
# www.blender.org
o geometryt000010000010000110010110000110000100110010110110st55
v 148.306885 -254.277924 566.519653
v 147.605576 -255.623016 581.422668
v 148.306885 -254.277924 581.422668
v 149.175385 -252.612030 566.519653
v 147.605576 -255.623016 565.722656
v 149.175385 -252.612030 581.422668
v 149.876785 -251.266922 581.422668
v 149.876785 -251.266922 565.722656
v 150.408279 -257.090729 566.519653
v 151.546585 -257.686829 581.422668
v 150.408279 -257.090729 581.422668
v 147.605576 -255.623016 565.722656
v 148.743988 -256.219238 566.519653
v 151.546585 -257.686829 565.722656
v 148.743988 -256.219238 581.422668
v 147.605576 -255.623016 581.422668
v 150.036484 -250.961121 566.519653
v 149.876785 -251.266922 581.422668
v 150.036484 -250.961121 581.422668
v 150.906586 -249.296021 566.519653
v 149.876785 -251.266922 565.722656
v 150.906586 -249.296021 581.422668
v 151.831390 -247.526230 581.422668
v 151.831390 -247.526230 566.519653
v 152.701477 -245.861221 566.519653
v 152.701477 -245.861221 581.422668
v 153.626282 -244.091431 581.422668
v 153.626282 -244.091431 566.519653
v 156.236481 -239.096222 566.519653
v 156.236481 -239.096222 581.422668
v 157.161285 -237.326431 581.422668
v 157.161285 -237.326431 566.519653
v 159.985977 -231.920822 565.722656
v 158.031387 -235.661423 566.519653
v 158.031387 -235.661423 581.422668
v 158.956177 -233.891617 581.422668
v 158.956177 -233.891617 566.519653
v 159.826279 -232.226517 566.519653
v 159.826279 -232.226517 581.422668
v 159.985977 -231.920822 581.422668
v 152.662277 -255.547028 566.519653
v 152.909378 -255.073120 581.422668
v 152.662277 -255.547028 581.422668
v 151.546585 -257.686829 565.722656
v 151.793686 -257.212952 566.519653
v 152.909378 -255.073120 565.722656
v 151.793686 -257.212952 581.422668
v 151.546585 -257.686829 581.422668
v 163.767288 -234.290421 566.519653
v 163.927078 -233.984619 581.422668
v 163.767288 -234.290421 581.422668
v 162.897385 -235.955521 566.519653
v 163.927078 -233.984619 565.722656
v 162.897385 -235.955521 581.422668
v 161.962677 -237.744522 581.422668
v 161.962677 -237.744522 566.519653
v 161.092789 -239.409622 566.519653
v 161.092789 -239.409622 581.422668
v 160.158081 -241.198624 581.422668
v 160.158081 -241.198624 566.519653
v 156.678284 -247.859131 566.519653
v 152.909378 -255.073120 565.722656
v 156.678284 -247.859131 581.422668
v 155.743683 -249.648117 581.422668
v 155.743683 -249.648117 566.519653
v 154.873688 -251.313217 566.519653
v 154.873688 -251.313217 581.422668
v 153.939087 -253.102219 581.422668
v 153.939087 -253.102219 566.519653
v 153.069077 -254.767319 566.519653
v 153.069077 -254.767319 581.422668
v 152.909378 -255.073120 581.422668
v 161.124390 -232.516922 566.519653
v 159.985977 -231.920822 581.422668
v 161.124390 -232.516922 581.422668
v 162.788681 -233.388428 566.519653
v 159.985977 -231.920822 565.722656
v 162.788681 -233.388428 581.422668
v 163.927078 -233.984619 581.422668
v 163.927078 -233.984619 565.722656
vt 1.358270 0.313900
vt 1.965070 6.183540
vt 1.358270 6.183540
vt 0.606800 0.313900
vt 1.965070 0.000000
vt 0.606800 6.183540
vt 0.000000 6.183540
vt 0.000000 0.000000
vt 1.265480 0.313900
vt 1.779500 6.183540
vt 1.265480 6.183540
vt 0.000000 0.000000
vt 0.514010 0.313900
vt 1.779500 0.000000
vt 0.514010 6.183540
vt 0.000000 6.183540
vt 8.593260 0.313900
vt 8.731261 6.183540
vt 8.593260 6.183540
vt 7.841790 0.313900
vt 8.731261 0.000000
vt 7.841790 6.183540
vt 7.043050 6.183540
vt 7.043050 0.313900
vt 6.291580 0.313900
vt 6.291580 6.183540
vt 5.492840 6.183540
vt 5.492840 0.313900
vt 3.238420 0.313900
vt 3.238420 6.183540
vt 2.439680 6.183540
vt 2.439680 0.313900
vt 0.000000 0.000000
vt 1.688210 0.313900
vt 1.688210 6.183540
vt 0.889470 6.183540
vt 0.889470 0.313900
vt 0.138000 0.313900
vt 0.138000 6.183540
vt 0.000000 6.183540
vt 0.965260 0.313900
vt 1.179040 6.183540
vt 0.965260 6.183540
vt 0.000000 0.000000
vt 0.213780 0.313900
vt 1.179040 0.000000
vt 0.213780 6.183540
vt 0.000000 6.183540
vt 9.379290 0.313900
vt 9.517291 6.183540
vt 9.379290 6.183540
vt 8.627820 0.313900
vt 9.517291 0.000000
vt 8.627820 6.183540
vt 7.820440 6.183540
vt 7.820440 0.313900
vt 7.068970 0.313900
vt 7.068970 6.183540
vt 6.261590 6.183540
vt 6.261590 0.313900
vt 3.255700 0.313900
vt 0.000000 0.000000
vt 3.255700 6.183540
vt 2.448320 6.183540
vt 2.448320 0.313900
vt 1.696850 0.313900
vt 1.696850 6.183540
vt 0.889470 6.183540
vt 0.889470 0.313900
vt 0.138000 0.313900
vt 0.138000 6.183540
vt 0.000000 6.183540
vt 1.265480 0.313900
vt 1.779490 6.183540
vt 1.265480 6.183540
vt 0.514010 0.313900
vt 1.779490 0.000000
vt 0.514010 6.183540
vt 0.000000 6.183540
vt 0.000000 0.000000
vn -0.8867 0.4623 0.0000
vn -0.8867 0.4623 0.0001
vn -0.8867 0.4624 0.0000
vn -0.8867 0.4623 -0.0001
vn -0.4639 -0.8859 0.0000
vn -0.4639 -0.8859 -0.0001
vn -0.4640 -0.8859 0.0000
vn -0.8862 0.4633 0.0000
vn -0.8863 0.4631 0.0002
vn -0.8863 0.4632 0.0000
vn -0.8863 0.4631 0.0000
vn -0.8862 0.4632 -0.0001
vn -0.8863 0.4631 -0.0002
vn -0.8863 0.4631 0.0001
vn -0.8863 0.4631 -0.0001
vn -0.8863 0.4632 -0.0002
vn -0.8863 0.4630 0.0000
vn -0.8864 0.4630 0.0000
vn 0.8867 -0.4623 0.0000
vn 0.8867 -0.4624 -0.0000
vn 0.8863 -0.4631 0.0000
vn 0.8863 -0.4630 0.0000
vn 0.8863 -0.4630 -0.0001
vn 0.8863 -0.4630 0.0002
vn 0.8863 -0.4631 -0.0002
vn 0.8863 -0.4631 0.0001
vn 0.8863 -0.4630 -0.0002
vn 0.8863 -0.4631 0.0002
vn 0.8864 -0.4629 0.0000
vn 0.4639 0.8859 0.0000
vn 0.4639 0.8859 -0.0001
s off
f 1/1/1 2/2/1 3/3/1
f 4/4/2 5/5/2 1/1/2
f 2/2/1 1/1/1 5/5/1
f 6/6/3 7/7/3 4/4/3
f 7/7/3 8/8/3 4/4/3
f 8/8/4 5/5/4 4/4/4
f 9/9/5 10/10/5 11/11/5
f 12/12/6 9/9/6 13/13/6
f 12/12/5 14/14/5 9/9/5
f 10/10/5 9/9/5 14/14/5
f 15/15/7 16/16/7 13/13/7
f 16/16/7 12/12/7 13/13/7
f 17/17/8 18/18/8 19/19/8
f 20/20/9 21/21/9 17/17/9
f 18/18/10 17/17/10 21/21/10
f 22/22/11 23/23/11 20/20/11
f 23/23/11 24/24/11 20/20/11
f 24/24/12 21/21/12 20/20/12
f 24/24/13 25/25/13 21/21/13
f 26/26/11 27/27/11 25/25/11
f 27/27/11 28/28/11 25/25/11
f 25/25/12 28/28/12 21/21/12
f 28/28/11 29/29/11 21/21/11
f 30/30/11 31/31/11 29/29/11
f 31/31/11 32/32/11 29/29/11
f 32/32/14 33/33/14 29/29/14
f 29/29/15 33/33/15 21/21/15
f 34/34/16 33/33/16 32/32/16
f 35/35/11 36/36/11 34/34/11
f 36/36/11 37/37/11 34/34/11
f 37/37/11 33/33/11 34/34/11
f 38/38/10 33/33/10 37/37/10
f 39/39/17 40/40/17 38/38/17
f 40/40/18 33/33/18 38/38/18
f 41/41/19 42/42/19 43/43/19
f 44/44/19 41/41/19 45/45/19
f 44/44/20 46/46/20 41/41/20
f 42/42/20 41/41/20 46/46/20
f 47/47/20 48/48/20 45/45/20
f 48/48/20 44/44/20 45/45/20
f 49/49/21 50/50/21 51/51/21
f 52/52/22 53/53/22 49/49/22
f 50/50/21 49/49/21 53/53/21
f 54/54/21 55/55/21 52/52/21
f 55/55/21 56/56/21 52/52/21
f 56/56/23 53/53/23 52/52/23
f 56/56/24 57/57/24 53/53/24
f 58/58/21 59/59/21 57/57/21
f 59/59/21 60/60/21 57/57/21
f 57/57/25 60/60/25 53/53/25
f 61/61/26 62/62/26 60/60/26
f 60/60/26 62/62/26 53/53/26
f 63/63/22 64/64/22 61/61/22
f 64/64/22 65/65/22 61/61/22
f 65/65/27 62/62/27 61/61/27
f 66/66/28 62/62/28 65/65/28
f 67/67/22 68/68/22 66/66/22
f 68/68/22 69/69/22 66/66/22
f 69/69/21 62/62/21 66/66/21
f 70/70/26 62/62/26 69/69/26
f 71/71/29 72/72/29 70/70/29
f 72/72/29 62/62/29 70/70/29
f 73/73/30 74/74/30 75/75/30
f 76/76/30 77/77/30 73/73/30
f 74/74/30 73/73/30 77/77/30
f 78/78/30 79/79/30 76/76/30
f 79/79/30 80/80/30 76/76/30
f 80/80/31 77/77/31 76/76/31
