# Blender v3.0.1 OBJ File: 'rockerfeller_plaza.blend'
# www.blender.org
o geometryt000010000010000110010110000110000110100000000100st8
v 375.471527 -41.598412 63.876854
v 372.034821 -48.044304 63.876854
v 370.616333 -47.294712 63.876854
v 366.960632 -37.056461 63.876854
v 367.485138 -53.159733 63.876854
v 365.480621 -52.094982 63.876854
v 361.790436 -46.164803 63.876854
v 363.946625 -42.109661 63.876854
v 364.836243 -53.301502 63.876854
v 359.061737 -52.524754 63.876854
v 366.934235 -54.420681 63.876854
v 365.439026 -57.235813 63.876854
v 366.458313 -57.779091 63.876854
v 360.675232 -68.626495 63.876854
v 352.741730 -64.388695 63.876854
v 358.013123 -53.092033 63.876854
v 355.176239 -51.581753 63.876854
v 354.721130 -50.920891 63.876854
v 358.868622 -44.611092 63.876854
v 348.690125 -62.226364 63.876854
v 347.559174 -47.695534 63.876854
v 351.245911 -46.054031 63.876854
v 351.890320 -44.847511 63.876854
v 340.654877 -57.945312 63.876854
v 341.348816 -56.638302 63.876854
v 346.437988 -47.097923 63.876854
v 349.054535 -44.891521 63.876854
v 349.911224 -43.793552 63.876854
v 353.042328 -37.917431 63.876854
v 351.708832 -37.211262 63.876854
v 355.153931 -30.754185 63.876854
v 363.800842 -35.372284 63.876854
v 361.033142 -40.555851 63.876854
v 362.876343 -39.357624 63.876854
v 363.843018 -37.547832 63.876854
v 363.929535 -39.911613 63.876854
v 364.896118 -38.101833 63.876854
v 366.960632 -37.056461 91.276855
v 364.896118 -38.101833 91.276855
v 363.929535 -39.911613 91.276855
v 363.946625 -42.109661 91.276855
v 370.616333 -47.294712 91.276855
v 375.471527 -41.598412 91.276855
v 361.790436 -46.164803 91.276855
v 358.868622 -44.611092 91.276855
v 359.061737 -52.524754 91.276855
v 365.480621 -52.094982 91.276855
v 361.033142 -40.555851 91.276855
v 353.042328 -37.917431 91.276855
v 351.890320 -44.847511 91.276855
v 354.721130 -50.920891 91.276855
v 362.876343 -39.357624 91.276855
v 363.800842 -35.372284 91.276855
v 363.843018 -37.547832 91.276855
v 355.153931 -30.754185 91.276855
v 351.708832 -37.211262 91.276855
v 349.911224 -43.793552 91.276855
v 351.245911 -46.054031 91.276855
v 349.054535 -44.891521 91.276855
v 347.559174 -47.695534 91.276855
v 346.437988 -47.097923 91.276855
v 341.348816 -56.638302 91.276855
v 348.690125 -62.226364 91.276855
v 340.654877 -57.945312 91.276855
v 355.176239 -51.581753 91.276855
v 358.013123 -53.092033 91.276855
v 352.741730 -64.388695 91.276855
v 365.439026 -57.235813 91.276855
v 364.836243 -53.301502 91.276855
v 360.675232 -68.626495 91.276855
v 366.458313 -57.779091 91.276855
v 366.934235 -54.420681 91.276855
v 367.485138 -53.159733 91.276855
v 372.034821 -48.044304 91.276855
vt 0.035340 0.254880
vt 0.048160 0.247810
vt 0.047250 0.244960
vt 0.029780 0.237840
vt 0.058920 0.238520
vt 0.057610 0.234500
vt 0.048000 0.227200
vt 0.039930 0.231640
vt 0.060020 0.233170
vt 0.060440 0.221550
vt 0.061390 0.237380
vt 0.066980 0.234300
vt 0.067650 0.236340
vt 0.089230 0.224430
vt 0.084040 0.208530
vt 0.061800 0.219420
vt 0.059960 0.213740
vt 0.058900 0.212840
vt 0.046100 0.221350
vt 0.081390 0.200420
vt 0.055310 0.198480
vt 0.051150 0.205950
vt 0.048750 0.207270
vt 0.076160 0.184320
vt 0.073560 0.185750
vt 0.054580 0.196230
vt 0.049730 0.201560
vt 0.047460 0.203310
vt 0.035770 0.209760
vt 0.034910 0.207090
vt 0.022060 0.214180
vt 0.027720 0.231510
vt 0.038030 0.225800
vt 0.035260 0.229550
vt 0.031660 0.231540
vt 0.035940 0.231660
vt 0.032340 0.233650
vt 0.029780 0.237840
vt 0.032340 0.233650
vt 0.035940 0.231660
vt 0.039930 0.231640
vt 0.047250 0.244960
vt 0.035340 0.254880
vt 0.048000 0.227200
vt 0.046100 0.221350
vt 0.060440 0.221550
vt 0.057610 0.234500
vt 0.038030 0.225800
vt 0.035770 0.209760
vt 0.048750 0.207270
vt 0.058900 0.212840
vt 0.035260 0.229550
vt 0.027720 0.231510
vt 0.031660 0.231540
vt 0.022060 0.214180
vt 0.034910 0.207090
vt 0.047460 0.203310
vt 0.051150 0.205950
vt 0.049730 0.201560
vt 0.055310 0.198480
vt 0.054580 0.196230
vt 0.073560 0.185750
vt 0.081390 0.200420
vt 0.076160 0.184320
vt 0.059960 0.213740
vt 0.061800 0.219420
vt 0.084040 0.208530
vt 0.066980 0.234300
vt 0.060020 0.233170
vt 0.089230 0.224430
vt 0.067650 0.236340
vt 0.061390 0.237380
vt 0.058920 0.238520
vt 0.048160 0.247810
vn -0.0000 0.0000 -1.0000
vn 0.0000 0.0000 1.0000
s off
f 1/1/1 2/2/1 3/3/1
f 3/3/1 4/4/1 1/1/1
f 5/5/1 6/6/1 3/3/1
f 3/3/1 6/6/1 7/7/1
f 7/7/1 8/8/1 3/3/1
f 3/3/1 8/8/1 4/4/1
f 6/6/1 9/9/1 10/10/1
f 7/7/1 6/6/1 10/10/1
f 11/11/1 12/12/1 9/9/1
f 9/9/1 12/12/1 10/10/1
f 13/13/1 14/14/1 12/12/1
f 12/12/1 14/14/1 15/15/1
f 15/15/1 10/10/1 12/12/1
f 10/10/1 16/16/1 17/17/1
f 18/18/1 10/10/1 17/17/1
f 10/10/1 18/18/1 19/19/1
f 10/10/1 19/19/1 7/7/1
f 18/18/1 20/20/1 21/21/1
f 22/22/1 18/18/1 21/21/1
f 22/22/1 23/23/1 18/18/1
f 19/19/1 18/18/1 23/23/1
f 20/20/1 24/24/1 25/25/1
f 20/20/1 25/25/1 21/21/1
f 21/21/1 25/25/1 26/26/1
f 22/22/1 21/21/1 27/27/1
f 23/23/1 28/28/1 29/29/1
f 23/23/1 29/29/1 19/19/1
f 29/29/1 30/30/1 31/31/1
f 32/32/1 29/29/1 31/31/1
f 32/32/1 33/33/1 29/29/1
f 19/19/1 29/29/1 33/33/1
f 34/34/1 32/32/1 35/35/1
f 33/33/1 32/32/1 34/34/1
f 4/4/1 8/8/1 36/36/1
f 37/37/1 4/4/1 36/36/1
f 38/38/2 39/39/2 40/40/2
f 41/41/2 38/38/2 40/40/2
f 41/41/2 42/42/2 38/38/2
f 42/42/2 43/43/2 38/38/2
f 41/41/2 44/44/2 42/42/2
f 45/45/2 46/46/2 44/44/2
f 47/47/2 44/44/2 46/46/2
f 47/47/2 42/42/2 44/44/2
f 48/48/2 49/49/2 45/45/2
f 49/49/2 50/50/2 45/45/2
f 45/45/2 50/50/2 51/51/2
f 45/45/2 51/51/2 46/46/2
f 52/52/2 53/53/2 48/48/2
f 48/48/2 53/53/2 49/49/2
f 52/52/2 54/54/2 53/53/2
f 53/53/2 55/55/2 49/49/2
f 49/49/2 55/55/2 56/56/2
f 49/49/2 57/57/2 50/50/2
f 51/51/2 50/50/2 58/58/2
f 59/59/2 60/60/2 58/58/2
f 58/58/2 60/60/2 51/51/2
f 61/61/2 62/62/2 60/60/2
f 63/63/2 60/60/2 62/62/2
f 51/51/2 60/60/2 63/63/2
f 62/62/2 64/64/2 63/63/2
f 46/46/2 51/51/2 65/65/2
f 46/46/2 65/65/2 66/66/2
f 46/46/2 67/67/2 68/68/2
f 68/68/2 69/69/2 46/46/2
f 69/69/2 47/47/2 46/46/2
f 68/68/2 67/67/2 70/70/2
f 71/71/2 68/68/2 70/70/2
f 68/68/2 72/72/2 69/69/2
f 42/42/2 47/47/2 73/73/2
f 42/42/2 74/74/2 43/43/2
