# Blender v3.0.1 OBJ File: 'rockerfeller_plaza.blend'
# www.blender.org
o geometryt000010000010000110010110000110000100110010110010st35
v 29.985186 -45.705292 294.220062
v 33.654472 -38.890511 294.220062
v 41.819954 -43.481243 294.220062
v 34.572155 -56.932133 294.220062
v 26.349125 -52.475281 294.220062
v 29.985186 -45.705292 301.320038
v 26.349125 -52.475281 301.320038
v 34.572155 -56.932133 301.320038
v 41.819954 -43.481243 301.320038
v 33.654472 -38.890511 301.320038
vt 0.074650 0.052960
vt 0.061080 0.060520
vt 0.066840 0.076870
vt 0.093620 0.061950
vt 0.088120 0.045480
vt 0.074650 0.052960
vt 0.088120 0.045480
vt 0.093620 0.061950
vt 0.066840 0.076870
vt 0.061080 0.060520
vn 0.0000 0.0000 -1.0000
vn 0.0000 0.0000 1.0000
s off
f 1/1/1 2/2/1 3/3/1
f 4/4/1 1/1/1 3/3/1
f 5/5/1 1/1/1 4/4/1
f 6/6/2 7/7/2 8/8/2
f 6/6/2 8/8/2 9/9/2
f 10/10/2 6/6/2 9/9/2
