# Blender v3.0.1 OBJ File: 'rockerfeller_plaza.blend'
# www.blender.org
o geometryt000010000010000110010110000110000110100000110000st81
v 751.463806 -182.353546 426.837097
v 763.430115 -160.253738 426.837097
v 766.823181 -190.612137 426.837097
v 792.104248 -175.906631 426.837097
v 780.407410 -197.947845 426.837097
v 764.657898 -194.600937 426.837097
v 789.480835 -207.933945 426.837097
v 803.485474 -181.824646 426.837097
v 751.463806 -182.353546 576.837036
v 766.823181 -190.612137 576.837036
v 763.430115 -160.253738 576.837036
v 792.104248 -175.906631 576.837036
v 780.407410 -197.947845 576.837036
v 766.823181 -190.612137 456.837097
v 764.657898 -194.600937 456.837097
v 769.540039 -192.079346 456.837097
v 780.407410 -197.947845 456.837097
v 789.480835 -207.933945 456.837097
v 782.746765 -193.539536 456.837097
v 803.485474 -181.824646 456.837097
v 792.104248 -175.906631 456.837097
vt 0.331000 0.000960
vt 0.286980 0.025600
vt 0.341150 0.031730
vt 0.306350 0.083030
vt 0.350180 0.058930
vt 0.349100 0.027270
vt 0.365460 0.076990
vt 0.313500 0.105830
vt 0.331000 0.000960
vt 0.341150 0.031730
vt 0.286980 0.025600
vt 0.306350 0.083030
vt 0.350180 0.058930
vt 0.341150 0.031730
vt 0.349100 0.027270
vt 0.342950 0.037170
vt 0.350180 0.058930
vt 0.365460 0.076990
vt 0.341410 0.063750
vt 0.313500 0.105830
vt 0.306350 0.083030
vn 0.0000 0.0000 -1.0000
vn 0.0000 0.0000 1.0000
s off
f 1/1/1 2/2/1 3/3/1
f 3/3/1 2/2/1 4/4/1
f 3/3/1 4/4/1 5/5/1
f 6/6/1 3/3/1 5/5/1
f 6/6/1 5/5/1 7/7/1
f 7/7/1 5/5/1 8/8/1
f 8/8/1 5/5/1 4/4/1
f 9/9/2 10/10/2 11/11/2
f 11/11/2 10/10/2 12/12/2
f 12/12/2 10/10/2 13/13/2
f 14/14/2 15/15/2 16/16/2
f 16/16/2 15/15/2 17/17/2
f 17/17/2 15/15/2 18/18/2
f 19/19/2 17/17/2 20/20/2
f 20/20/2 17/17/2 18/18/2
f 21/21/2 19/19/2 20/20/2
