# Blender v3.0.1 OBJ File: 'rockerfeller_plaza.blend'
# www.blender.org
o geometryt000010000010000110010110000110000110100000010100st229
v 900.702393 -117.323387 144.404373
v 903.036316 -128.509384 144.404373
v 898.842712 -120.720184 144.404373
v 896.520203 -124.966187 144.404373
v 901.818420 -115.300781 144.404373
v 907.694824 -104.551788 144.404373
v 917.638916 -101.648987 144.404373
v 911.199341 -98.149254 144.404373
v 916.848755 -101.214088 144.404373
v 898.842712 -120.720184 163.304367
v 896.520203 -124.966187 163.304367
v 903.036316 -128.509384 163.304367
v 917.638916 -101.648987 163.304367
v 901.818420 -115.300781 163.304367
v 900.702393 -117.323387 163.304367
v 916.848755 -101.214088 163.304367
v 907.694824 -104.551788 163.304367
v 911.199341 -98.149254 163.304367
vt 0.164200 0.309770
vt 0.183810 0.314210
vt 0.170970 0.305940
vt 0.179440 0.301160
vt 0.160160 0.312070
vt 0.138730 0.324170
vt 0.130290 0.344280
vt 0.125970 0.331380
vt 0.129750 0.342700
vt 0.170970 0.305940
vt 0.179440 0.301160
vt 0.183810 0.314210
vt 0.130290 0.344280
vt 0.160160 0.312070
vt 0.164200 0.309770
vt 0.129750 0.342700
vt 0.138730 0.324170
vt 0.125970 0.331380
vn 0.0000 0.0000 -1.0000
vn -0.0000 0.0000 1.0000
s off
f 1/1/1 2/2/1 3/3/1
f 2/2/1 4/4/1 3/3/1
f 1/1/1 5/5/1 2/2/1
f 6/6/1 7/7/1 5/5/1
f 5/5/1 7/7/1 2/2/1
f 6/6/1 8/8/1 9/9/1
f 6/6/1 9/9/1 7/7/1
f 10/10/2 11/11/2 12/12/2
f 13/13/2 14/14/2 12/12/2
f 14/14/2 15/15/2 12/12/2
f 15/15/2 10/10/2 12/12/2
f 16/16/2 17/17/2 13/13/2
f 13/13/2 17/17/2 14/14/2
f 18/18/2 17/17/2 16/16/2
