# Blender v3.0.1 OBJ File: 'rockerfeller_plaza.blend'
# www.blender.org
o geometryt000010000010000110010110000110000110100000010100st2
v 803.177856 -153.589188 146.767365
v 803.632263 -152.740082 146.767365
v 805.671021 -153.837692 146.767365
v 798.517822 -162.247787 146.767365
v 811.272827 -143.413879 146.767365
v 812.640564 -144.152878 146.767365
v 817.094116 -154.692490 146.767365
v 814.144287 -160.167084 146.767365
v 813.772461 -142.041382 146.767365
v 817.195984 -143.888779 146.767365
v 818.088257 -142.224182 146.767365
v 825.776062 -146.353378 146.767365
v 820.347656 -156.441986 146.767365
v 817.109070 -161.764481 146.767365
v 816.728943 -162.468384 146.767365
v 812.746643 -169.886688 146.767365
v 812.746643 -169.886688 178.467361
v 814.144287 -160.167084 178.467361
v 798.517822 -162.247787 178.467361
v 805.671021 -153.837692 178.467361
v 803.177856 -153.589188 178.467361
v 816.728943 -162.468384 178.467361
v 817.109070 -161.764481 178.467361
v 817.094116 -154.692490 178.467361
v 820.347656 -156.441986 178.467361
v 825.776062 -146.353378 178.467361
v 817.195984 -143.888779 178.467361
v 812.640564 -144.152878 178.467361
v 818.088257 -142.224182 178.467361
v 813.772461 -142.041382 178.467361
v 811.272827 -143.413879 178.467361
v 803.632263 -152.740082 178.467361
vt 0.261210 0.112340
vt 0.259520 0.113280
vt 0.260870 0.117360
vt 0.278450 0.102750
vt 0.240120 0.128900
vt 0.241030 0.131640
vt 0.258790 0.140370
vt 0.269690 0.134290
vt 0.236820 0.133970
vt 0.239100 0.140830
vt 0.235780 0.142670
vt 0.240850 0.158060
vt 0.260940 0.146890
vt 0.271660 0.140230
vt 0.273060 0.139450
vt 0.287820 0.131250
vt 0.287820 0.131250
vt 0.269690 0.134290
vt 0.278450 0.102750
vt 0.260870 0.117360
vt 0.261210 0.112340
vt 0.273060 0.139450
vt 0.271660 0.140230
vt 0.258790 0.140370
vt 0.260940 0.146890
vt 0.240850 0.158060
vt 0.239100 0.140830
vt 0.241030 0.131640
vt 0.235780 0.142670
vt 0.236820 0.133970
vt 0.240120 0.128900
vt 0.259520 0.113280
vn 0.0000 0.0000 -1.0000
vn -0.0000 0.0000 1.0000
s off
f 1/1/1 2/2/1 3/3/1
f 3/3/1 4/4/1 1/1/1
f 5/5/1 6/6/1 3/3/1
f 6/6/1 7/7/1 3/3/1
f 7/7/1 8/8/1 3/3/1
f 3/3/1 8/8/1 4/4/1
f 9/9/1 10/10/1 6/6/1
f 6/6/1 10/10/1 7/7/1
f 11/11/1 12/12/1 10/10/1
f 7/7/1 10/10/1 12/12/1
f 7/7/1 12/12/1 13/13/1
f 14/14/1 15/15/1 8/8/1
f 8/8/1 15/15/1 16/16/1
f 4/4/1 8/8/1 16/16/1
f 17/17/2 18/18/2 19/19/2
f 18/18/2 20/20/2 19/19/2
f 20/20/2 21/21/2 19/19/2
f 18/18/2 17/17/2 22/22/2
f 23/23/2 18/18/2 22/22/2
f 18/18/2 24/24/2 20/20/2
f 25/25/2 26/26/2 24/24/2
f 24/24/2 26/26/2 27/27/2
f 24/24/2 27/27/2 28/28/2
f 20/20/2 24/24/2 28/28/2
f 27/27/2 26/26/2 29/29/2
f 28/28/2 27/27/2 30/30/2
f 31/31/2 20/20/2 28/28/2
f 20/20/2 32/32/2 21/21/2
