# Blender v3.0.1 OBJ File: 'rockerfeller_plaza.blend'
# www.blender.org
o geometryt000010000010000110010110000110000110100000000100st84_1
v 439.231812 -325.091187 64.012344
v 438.717529 -326.014191 88.192993
v 439.231812 -325.091187 88.192993
v 440.824524 -322.232788 64.012344
v 438.717529 -326.014191 63.192993
v 440.824524 -322.232788 88.192993
v 441.338928 -321.309692 88.192993
v 441.338928 -321.309692 63.192993
v 463.923126 -340.111389 64.012344
v 464.854034 -340.631989 88.192993
v 463.923126 -340.111389 88.192993
v 438.717529 -326.014191 63.192993
v 439.648438 -326.534790 64.012344
v 464.854034 -340.631989 63.192993
v 439.648438 -326.534790 88.192993
v 438.717529 -326.014191 88.192993
v 441.599030 -320.837097 108.192993
v 441.599030 -320.837097 64.012344
v 441.338928 -321.309692 88.192993
v 441.338928 -321.309692 108.192993
v 445.543030 -313.670288 64.012344
v 441.338928 -321.309692 63.192993
v 445.543030 -313.670288 108.192993
v 445.803131 -313.197601 108.192993
v 445.803131 -313.197601 63.192993
v 522.896545 -365.236115 64.012344
v 523.789307 -365.717010 108.192993
v 522.896545 -365.236115 108.192993
v 467.647430 -335.481415 63.192993
v 468.158813 -335.756805 64.012344
v 523.789307 -365.717010 63.192993
v 468.158813 -335.756805 89.258438
v 467.647430 -335.481415 88.192993
v 442.230408 -321.792908 89.258438
v 455.954224 -329.183899 88.192993
v 442.230408 -321.792908 108.192993
v 441.337646 -321.312103 108.192993
v 441.337646 -321.312103 88.192993
v 446.007935 -312.837311 128.192993
v 446.007935 -312.837311 64.012344
v 445.803131 -313.197601 108.192993
v 445.803131 -313.197601 128.192993
v 447.829926 -309.632507 63.192993
v 447.625122 -309.992706 64.012344
v 445.803131 -313.197601 63.192993
v 447.625122 -309.992706 128.192993
v 447.829926 -309.632507 128.192993
v 537.342224 -362.501801 249.192963
v 537.342224 -362.501801 64.012344
v 538.134155 -362.928406 249.192963
v 528.127014 -357.538208 63.192993
v 528.699707 -357.846710 64.012344
v 538.134155 -362.928406 63.192993
v 528.699707 -357.846710 109.278725
v 528.127014 -357.538208 108.192993
v 446.595825 -313.622894 109.278725
v 485.714844 -334.693695 108.192993
v 446.595825 -313.622894 125.739227
v 445.803833 -313.196289 108.192993
v 454.925323 -318.109406 108.192993
v 458.979309 -320.292999 108.192993
v 468.117615 -325.215210 108.192993
v 472.179138 -327.402802 108.192993
v 459.559631 -320.605591 125.739227
v 458.979309 -320.292999 128.192993
v 445.803833 -313.196289 128.192993
v 459.559631 -320.605591 150.429977
v 472.523315 -327.588287 150.429977
v 472.179138 -327.402802 153.192978
v 458.979309 -320.292999 153.192978
v 472.523315 -327.588287 249.192963
v 472.179138 -327.402802 249.192963
v 448.166016 -309.014099 128.192993
v 448.166016 -309.014099 64.012344
v 447.830322 -309.632690 128.192993
v 460.651733 -286.006287 64.012344
v 450.443237 -304.817902 63.192993
v 447.830322 -309.632690 63.192993
v 460.651733 -286.006287 128.192993
v 460.987427 -285.387695 108.192993
v 460.987427 -285.387695 63.192993
v 460.987427 -285.387695 128.192993
v 459.514343 -319.313202 153.192978
v 459.514343 -319.313202 128.192993
v 458.978638 -320.294312 128.192993
v 458.978638 -320.294312 153.192978
v 474.162933 -292.484406 153.192978
v 474.162933 -292.484406 128.192993
v 473.627136 -293.465515 128.192993
v 473.627136 -293.465515 153.192978
v 461.291138 -284.818695 108.192993
v 461.291138 -284.818695 64.012344
v 460.986023 -285.386993 108.192993
v 467.482330 -273.286896 64.012344
v 465.226227 -277.489197 63.192993
v 460.986023 -285.386993 63.192993
v 467.482330 -273.286896 87.801926
v 467.787415 -272.718597 88.192993
v 467.787415 -272.718597 63.192993
v 465.160645 -277.611298 87.801926
v 465.226227 -277.489197 88.192993
v 465.160645 -277.611298 108.192993
v 465.226227 -277.489197 108.192993
v 474.161224 -292.487396 128.192993
v 474.161224 -292.487396 153.192978
v 474.744751 -292.801605 150.429977
v 474.744751 -292.801605 125.739227
v 461.780212 -285.820099 125.739227
v 460.985107 -285.391998 128.192993
v 487.361633 -299.595886 153.192978
v 487.361633 -299.595886 249.192963
v 487.709106 -299.782990 249.192963
v 487.709106 -299.782990 150.429977
v 461.780212 -285.820099 109.278725
v 460.985107 -285.391998 108.192993
v 542.447998 -329.260101 109.278725
v 504.286743 -308.710114 108.192993
v 487.361633 -299.595886 108.192993
v 478.222931 -294.674591 108.192993
v 474.161224 -292.487396 108.192993
v 465.039307 -287.575195 108.192993
v 542.447998 -329.260101 64.012344
v 542.368225 -329.217102 108.192993
v 529.060120 -322.050690 108.192993
v 514.864929 -314.406494 108.192993
v 552.531555 -334.690094 64.012344
v 542.368225 -329.217102 63.192993
v 552.531555 -334.690094 249.192963
v 553.326599 -335.118286 249.192963
v 553.326599 -335.118286 63.192993
v 467.420715 -335.899414 64.012344
v 467.647430 -335.481415 88.192993
v 467.420715 -335.899414 88.192993
v 465.080750 -340.213989 64.012344
v 467.647430 -335.481415 63.192993
v 465.080750 -340.213989 88.192993
v 464.854034 -340.631989 88.192993
v 464.854034 -340.631989 63.192993
v 465.562927 -277.670593 108.192993
v 465.562927 -277.670593 88.192993
v 465.226227 -277.489197 88.192993
v 465.226227 -277.489197 108.192993
v 491.823608 -291.824005 108.192993
v 491.823608 -291.824005 88.192993
v 491.486938 -291.642487 88.192993
v 491.486938 -291.642487 108.192993
v 468.133850 -272.904602 64.012344
v 467.787720 -272.718689 88.192993
v 468.133850 -272.904602 88.192993
v 494.080750 -286.833893 64.012344
v 467.787720 -272.718689 63.192993
v 494.080750 -286.833893 88.192993
v 494.426941 -287.019714 88.192993
v 494.426941 -287.019714 63.192993
v 472.715332 -326.420593 249.192963
v 472.715332 -326.420593 153.192978
v 472.179626 -327.401794 153.192978
v 472.179626 -327.401794 249.192963
v 487.363831 -299.591797 249.192963
v 487.363831 -299.591797 153.192978
v 486.828125 -300.572998 153.192978
v 486.828125 -300.572998 249.192963
v 493.904724 -287.983398 64.012344
v 494.426941 -287.019714 88.192993
v 493.904724 -287.983398 88.192993
v 491.823608 -291.824005 63.192993
v 492.345825 -290.860291 64.012344
v 494.426941 -287.019714 63.192993
v 492.345825 -290.860291 88.192993
v 491.823608 -291.824005 88.192993
v 492.582520 -292.232605 108.192993
v 492.582520 -292.232605 64.012344
v 491.823608 -291.824005 88.192993
v 491.823608 -291.824005 108.192993
v 546.640930 -321.340302 63.192993
v 545.882019 -320.931702 64.012344
v 491.823608 -291.824005 63.192993
v 545.882019 -320.931702 108.192993
v 546.640930 -321.340302 108.192993
v 527.875122 -358.013214 64.012344
v 528.127136 -357.537994 108.192993
v 527.875122 -358.013214 108.192993
v 523.790222 -365.715302 63.192993
v 524.042358 -365.240112 64.012344
v 528.127136 -357.537994 63.192993
v 524.042358 -365.240112 108.192993
v 523.790222 -365.715302 108.192993
v 552.789734 -336.101105 64.012344
v 553.326599 -335.118195 249.192963
v 552.789734 -336.101105 249.192963
v 538.134155 -362.928406 63.192993
v 538.671143 -361.945496 64.012344
v 553.326599 -335.118195 63.192993
v 538.671143 -361.945496 249.192963
v 538.134155 -362.928406 249.192963
v 546.454834 -321.683411 64.012344
v 546.640930 -321.340302 108.192993
v 546.454834 -321.683411 108.192993
v 542.368225 -329.217102 63.192993
v 542.554321 -328.873993 64.012344
v 546.640930 -321.340302 63.192993
v 542.554321 -328.873993 108.192993
v 542.368225 -329.217102 108.192993
vt 4.320200 0.610540
vt 5.374770 18.628910
vt 4.320200 18.628910
vt 1.054570 0.610540
vt 5.374770 0.000000
vt 1.054570 18.628910
vt 0.000000 18.628910
vt 0.000000 0.000000
vt 28.822321 0.610540
vt 29.886789 18.628910
vt 28.822321 18.628910
vt 0.000000 0.000000
vt 1.064470 0.610540
vt 29.886789 0.000000
vt 1.064470 18.628910
vt 0.000000 18.628910
vt 8.702481 33.532040
vt 8.702481 0.610540
vt 9.240880 18.628910
vt 9.240880 33.532040
vt 0.538400 0.610540
vt 9.240880 0.000000
vt 0.538400 33.532040
vt 0.000000 33.532040
vt 0.000000 0.000000
vt 92.449738 0.610540
vt 93.461830 33.532040
vt 92.449738 33.532040
vt 29.823099 0.000000
vt 30.402760 0.610540
vt 93.461830 0.000000
vt 30.402760 19.422831
vt 29.823099 18.628910
vt 1.012090 19.422831
vt 16.568390 18.628910
vt 1.012090 33.532040
vt 0.000000 33.532040
vt 0.000000 18.628910
vt 3.679230 48.435169
vt 3.679230 0.610540
vt 4.092820 33.532040
vt 4.092820 48.435169
vt 0.000000 0.000000
vt 0.413600 0.610540
vt 4.092820 0.000000
vt 0.413600 48.435169
vt 0.000000 48.435169
vt 93.319000 0.000000
vt 103.765099 0.610540
vt 93.968201 0.610540
vt 104.662804 0.000000
vt 104.662804 138.599106
vt 93.968201 34.341080
vt 93.319000 33.532040
vt 0.897720 34.341080
vt 45.241901 33.532040
vt 0.897720 46.606731
vt 0.000000 33.532040
vt 10.339840 33.532040
vt 14.935330 33.532040
vt 25.294201 33.532040
vt 29.898140 33.532040
vt 15.593060 46.606731
vt 14.935330 48.435169
vt 0.000000 48.435169
vt 15.593060 65.005211
vt 30.288389 65.005211
vt 29.898140 67.064087
vt 14.935330 67.064087
vt 30.288389 138.599106
vt 29.898140 138.599106
vt 26.827440 48.435169
vt 26.827440 0.610540
vt 27.529831 48.435169
vt 0.702400 0.610540
vt 22.062740 0.000000
vt 27.529831 0.000000
vt 0.000000 33.532040
vt 0.000000 0.000000
vt 0.702400 48.435169
vt 0.000000 48.435169
vt 30.506321 18.628910
vt 30.506321 0.000000
vt 31.621969 0.000000
vt 31.621969 18.628910
vt 0.000000 18.628910
vt 0.000000 0.000000
vt 1.115650 0.000000
vt 1.115650 18.628910
vt 13.706250 33.532040
vt 13.706250 0.610540
vt 14.349980 33.532040
vt 0.643730 0.610540
vt 5.403810 0.000000
vt 14.349980 0.000000
vt 0.643730 18.337500
vt 0.000000 18.628910
vt 0.000000 0.000000
vt 5.542170 18.337500
vt 5.403810 18.628910
vt 5.542170 33.532040
vt 89.734589 48.435169
vt 89.734589 67.064087
vt 89.073280 65.005211
vt 89.073280 46.606731
vt 103.768600 46.606731
vt 104.669899 48.435169
vt 74.771820 67.064087
vt 74.771820 138.599106
vt 74.377937 138.599106
vt 74.377937 65.005211
vt 103.768600 34.341080
vt 104.669899 33.532040
vt 55.587090 33.532040
vt 74.771820 33.532040
vt 85.130661 33.532040
vt 89.734589 33.532040
vt 100.074402 33.532040
vt 27.506210 33.532040
vt 12.330970 34.341080
vt 12.421440 33.532040
vt 43.596630 33.532040
vt 0.901260 0.610540
vt 12.421440 0.000000
vt 12.330970 0.610540
vt 0.901260 138.599106
vt 0.000000 138.599106
vt 0.000000 0.000000
vt 0.474610 0.610540
vt 5.847660 0.000000
vt 5.373050 0.610540
vt 0.000000 0.000000
vt 0.000000 14.903130
vt 0.000000 0.000000
vt 0.381690 0.000000
vt 0.381690 14.903130
vt 0.392070 0.610540
vt 30.174810 0.000000
vt 29.782740 0.610540
vt 0.392070 18.628910
vt 0.000000 18.628910
vt 0.000000 0.000000
vt 30.506330 71.535019
vt 30.506330 0.000000
vt 31.621981 0.000000
vt 31.621981 71.535019
vt 0.000000 71.535019
vt 0.000000 0.000000
vt 1.115660 0.000000
vt 1.115660 71.535019
vt 4.359470 0.610540
vt 5.453310 18.628910
vt 4.359470 18.628910
vt 0.000000 0.000000
vt 1.093840 0.610540
vt 5.453310 0.000000
vt 1.093840 18.628910
vt 0.000000 18.628910
vt 61.274342 33.532040
vt 61.274342 0.610540
vt 62.134521 18.628910
vt 62.134521 33.532040
vt 0.000000 0.000000
vt 0.860180 0.610540
vt 62.134521 0.000000
vt 0.860180 33.532040
vt 0.000000 33.532040
vt 8.700870 0.610540
vt 9.237661 33.532040
vt 8.700870 33.532040
vt 0.000000 0.000000
vt 0.536790 0.610540
vt 9.237661 0.000000
vt 0.536790 33.532040
vt 0.000000 33.532040
vt 30.508410 0.610540
vt 31.626150 138.599106
vt 30.508410 138.599106
vt 0.000000 0.000000
vt 31.626150 0.000000
vt 1.117740 138.599106
vt 0.000000 138.599106
vt 1.117740 0.610540
vt 8.553610 0.610540
vt 8.943150 33.532040
vt 8.553610 33.532040
vt 0.000000 0.000000
vt 0.389530 0.610540
vt 8.943150 0.000000
vt 0.389530 33.532040
vt 0.000000 33.532040
vt 103.765099 138.599106
vt 5.403810 33.532040
vt 5.847660 18.628910
vt 5.373050 18.628910
vt 0.474610 18.628910
vt 0.000000 18.628910
vt 29.772360 14.903130
vt 29.772360 0.000000
vt 30.154051 0.000000
vt 30.154051 14.903130
vt 30.174810 18.628910
vt 29.782740 18.628910
vn -0.8736 0.4867 0.0000
vn -0.8735 0.4867 0.0000
vn -0.8735 0.4868 0.0000
vn -0.8735 0.4868 -0.0001
vn -0.4881 -0.8728 0.0000
vn -0.4881 -0.8728 0.0001
vn -0.4881 -0.8728 -0.0001
vn -0.8761 0.4821 0.0000
vn -0.8760 0.4822 0.0000
vn -0.8761 0.4822 0.0000
vn -0.8762 0.4820 0.0000
vn -0.4742 -0.8804 0.0000
vn -0.4742 -0.8804 0.0001
vn -0.4741 -0.8804 0.0000
vn -0.4741 -0.8805 0.0000
vn -0.8693 0.4943 0.0000
vn -0.8694 0.4941 0.0000
vn -0.8693 0.4942 -0.0000
vn -0.4742 -0.8804 -0.0001
vn -0.4740 -0.8805 0.0000
vn -0.8789 0.4770 0.0000
vn -0.8789 0.4770 -0.0001
vn -0.8790 0.4769 0.0000
vn -0.8777 0.4792 0.0000
vn -0.8776 0.4793 0.0000
vn -0.8777 0.4793 0.0000
vn -0.8810 0.4730 0.0000
vn -0.8811 0.4730 -0.0000
vn -0.8810 0.4731 0.0000
vn -0.8811 0.4730 0.0001
vn -0.8811 0.4730 -0.0001
vn -0.8812 0.4728 0.0000
vn 0.4741 0.8805 0.0000
vn 0.4742 0.8804 0.0000
vn 0.4741 0.8805 -0.0002
vn 0.4741 0.8805 0.0001
vn 0.4741 0.8805 -0.0001
vn 0.8790 -0.4767 0.0000
vn 0.4745 0.8802 0.0000
vn 0.4730 0.8811 -0.0002
vn 0.4729 0.8811 0.0000
vn 0.4730 0.8811 0.0001
vn 0.8792 -0.4764 0.0000
vn 0.8792 -0.4765 0.0000
vn 0.4740 0.8805 0.0000
vn 0.8835 -0.4685 0.0000
vn 0.8834 -0.4685 -0.0001
vn 0.8834 -0.4685 -0.0000
vn 0.8833 -0.4687 0.0000
vn 0.8836 -0.4683 0.0000
vn 0.8776 -0.4794 0.0000
vn 0.8776 -0.4794 -0.0001
vn 0.8791 -0.4766 0.0000
vn 0.8790 -0.4768 0.0000
vn 0.8789 -0.4770 0.0000
vn 0.8789 -0.4769 0.0000
vn -0.4743 -0.8804 0.0000
vn 0.4737 0.8807 0.0000
vn 0.4749 0.8801 0.0000
vn 0.8790 -0.4769 0.0000
vn 0.8791 -0.4767 0.0000
vn 0.4747 0.8801 -0.0000
vn 0.4748 0.8801 0.0000
vn 0.4732 0.8810 0.0000
s off
f 1/1/1 2/2/1 3/3/1
f 4/4/2 5/5/2 1/1/2
f 2/2/1 1/1/1 5/5/1
f 6/6/3 7/7/3 4/4/3
f 7/7/3 8/8/3 4/4/3
f 8/8/4 5/5/4 4/4/4
f 9/9/5 10/10/5 11/11/5
f 12/12/6 9/9/6 13/13/6
f 12/12/7 14/14/7 9/9/7
f 10/10/5 9/9/5 14/14/5
f 15/15/5 16/16/5 13/13/5
f 16/16/5 12/12/5 13/13/5
f 17/17/8 18/18/8 19/19/8
f 19/19/9 20/20/9 17/17/9
f 21/21/8 22/22/8 18/18/8
f 19/19/10 18/18/10 22/22/10
f 21/21/8 23/23/8 24/24/8
f 24/24/11 25/25/11 21/21/11
f 25/25/8 22/22/8 21/21/8
f 26/26/12 27/27/12 28/28/12
f 29/29/12 26/26/12 30/30/12
f 29/29/13 31/31/13 26/26/13
f 27/27/12 26/26/12 31/31/12
f 32/32/14 33/33/14 30/30/14
f 33/33/15 29/29/15 30/30/15
f 32/32/12 34/34/12 35/35/12
f 32/32/12 35/35/12 33/33/12
f 36/36/12 37/37/12 34/34/12
f 37/37/14 38/38/14 34/34/14
f 35/35/12 34/34/12 38/38/12
f 39/39/16 40/40/16 41/41/16
f 41/41/17 42/42/17 39/39/17
f 43/43/18 40/40/18 44/44/18
f 43/43/18 45/45/18 40/40/18
f 41/41/17 40/40/17 45/45/17
f 44/44/16 46/46/16 47/47/16
f 44/44/16 47/47/16 43/43/16
f 51/48/12 49/49/12 52/50/12
f 51/48/12 53/51/12 49/49/12
f 50/52/12 49/49/12 53/51/12
f 52/50/12 54/53/12 55/54/12
f 55/54/12 51/48/12 52/50/12
f 54/53/12 56/55/12 57/56/12
f 55/54/12 54/53/12 57/56/12
f 58/57/12 59/58/12 56/55/12
f 59/58/12 60/59/12 56/55/12
f 61/60/12 56/55/12 60/59/12
f 62/61/19 56/55/19 61/60/19
f 57/56/13 56/55/13 63/62/13
f 64/63/12 65/64/12 58/57/12
f 65/64/12 66/65/12 58/57/12
f 58/57/12 66/65/12 59/58/12
f 64/63/12 67/66/12 65/64/12
f 67/66/12 68/67/12 69/68/12
f 67/66/12 69/68/12 70/69/12
f 70/69/12 65/64/12 67/66/12
f 68/67/20 71/70/20 69/68/20
f 69/68/20 71/70/20 72/71/20
f 73/72/21 74/73/21 75/74/21
f 74/73/22 76/75/22 77/76/22
f 77/76/21 78/77/21 74/73/21
f 75/74/21 74/73/21 78/77/21
f 80/78/23 81/79/23 76/75/23
f 81/79/21 77/76/21 76/75/21
f 79/80/23 82/81/23 80/78/23
f 83/82/24 84/83/24 85/84/24
f 83/82/24 85/84/24 86/85/24
f 87/86/25 88/87/25 89/88/25
f 87/86/26 89/88/26 90/89/26
f 91/90/27 92/91/27 93/92/27
f 92/91/27 94/93/27 95/94/27
f 95/94/28 96/95/28 92/91/28
f 93/92/29 92/91/29 96/95/29
f 97/96/28 98/97/28 94/93/28
f 98/97/28 99/98/28 94/93/28
f 99/98/28 95/94/28 94/93/28
f 100/99/30 101/100/30 97/96/30
f 101/100/31 98/97/31 97/96/31
f 100/99/32 102/101/32 101/100/32
f 104/102/33 105/103/33 106/104/33
f 107/105/33 108/106/33 104/102/33
f 109/107/33 104/102/33 108/106/33
f 110/108/33 106/104/33 105/103/33
f 111/109/34 112/110/34 110/108/34
f 112/110/33 113/111/33 110/108/33
f 113/111/33 106/104/33 110/108/33
f 114/112/33 115/113/33 108/106/33
f 115/113/33 109/107/33 108/106/33
f 114/112/35 117/114/35 118/115/35
f 114/112/36 118/115/36 119/116/36
f 114/112/37 119/116/37 120/117/37
f 114/112/33 120/117/33 121/118/33
f 121/118/37 115/113/37 114/112/37
f 124/119/33 116/120/33 123/121/33
f 125/122/33 116/120/33 124/119/33
f 117/114/33 116/120/33 125/122/33
f 126/123/33 127/124/33 122/125/33
f 126/123/34 128/126/34 129/127/34
f 126/123/34 129/127/34 130/128/34
f 126/123/33 130/128/33 127/124/33
f 134/129/38 135/130/38 131/131/38
f 138/132/38 135/130/38 134/129/38
f 143/133/33 144/134/33 145/135/33
f 143/133/39 145/135/39 146/136/39
f 150/137/40 151/138/40 147/139/40
f 152/140/41 153/141/41 150/137/41
f 153/141/41 154/142/41 150/137/41
f 154/142/42 151/138/42 150/137/42
f 155/143/24 156/144/24 157/145/24
f 155/143/24 157/145/24 158/146/24
f 159/147/24 160/148/24 161/149/24
f 159/147/24 161/149/24 162/150/24
f 163/151/43 164/152/43 165/153/43
f 166/154/43 163/151/43 167/155/43
f 166/154/43 168/156/43 163/151/43
f 164/152/44 163/151/44 168/156/44
f 169/157/43 170/158/43 167/155/43
f 171/159/33 172/160/33 173/161/33
f 173/161/33 174/162/33 171/159/33
f 175/163/36 172/160/36 176/164/36
f 175/163/37 177/165/37 172/160/37
f 173/161/33 172/160/33 177/165/33
f 178/166/33 179/167/33 176/164/33
f 179/167/45 175/163/45 176/164/45
f 180/168/46 181/169/46 182/170/46
f 183/171/47 180/168/47 184/172/47
f 183/171/48 185/173/48 180/168/48
f 181/169/48 180/168/48 185/173/48
f 186/174/49 187/175/49 184/172/49
f 187/175/50 183/171/50 184/172/50
f 188/176/51 189/177/51 190/178/51
f 191/179/52 193/180/52 188/176/52
f 189/177/51 188/176/51 193/180/51
f 194/181/51 195/182/51 192/183/51
f 195/182/51 191/179/51 192/183/51
f 196/184/53 197/185/53 198/186/53
f 199/187/54 196/184/54 200/188/54
f 199/187/54 201/189/54 196/184/54
f 197/185/55 196/184/55 201/189/55
f 202/190/53 203/191/53 200/188/53
f 203/191/56 199/187/56 200/188/56
s 1
f 48/192/57 49/49/57 50/52/57
f 63/62/13 56/55/13 62/61/13
f 76/75/21 79/80/21 80/78/21
f 101/100/28 102/101/28 103/193/28
f 106/104/34 107/105/34 104/102/34
f 114/112/33 116/120/33 117/114/33
f 116/120/58 122/125/59 123/121/58
f 127/124/59 123/121/58 122/125/59
f 131/131/60 132/194/61 133/195/61
f 132/194/61 131/131/60 135/130/60
f 136/196/61 137/197/61 134/129/60
f 137/197/61 138/132/60 134/129/60
f 139/198/62 140/199/62 141/200/62
f 139/198/62 141/200/62 142/201/63
f 147/139/64 148/202/64 149/203/64
f 148/202/64 147/139/64 151/138/41
f 170/158/43 166/154/43 167/155/43
f 191/179/51 188/176/51 192/183/51
