# Blender v3.0.1 OBJ File: 'rockerfeller_plaza.blend'
# www.blender.org
o geometryt000010000010000110010110000110000100110010110010st73
v 180.544510 -298.903870 290.772980
v 198.401199 -308.555878 290.772980
v 191.070114 -322.107758 290.772980
v 173.213303 -312.444672 290.772980
v 180.544510 -298.903870 344.672974
v 173.213303 -312.444672 344.672974
v 191.070114 -322.107758 344.672974
v 198.401199 -308.555878 344.672974
vt 0.487510 0.350540
vt 0.499400 0.386310
vt 0.526390 0.371210
vt 0.514480 0.335450
vt 0.487510 0.350540
vt 0.514480 0.335450
vt 0.526390 0.371210
vt 0.499400 0.386310
vn 0.0000 0.0000 -1.0000
vn 0.0000 0.0000 1.0000
s off
f 1/1/1 2/2/1 3/3/1
f 4/4/1 1/1/1 3/3/1
f 5/5/2 6/6/2 7/7/2
f 5/5/2 7/7/2 8/8/2
