# Blender v3.0.1 OBJ File: 'rockerfeller_plaza.blend'
# www.blender.org
o geometryt000010000010000110010110000110000110100000100110st148
v 531.842407 -190.534805 674.452332
v 542.500427 -170.666107 656.936340
v 528.669739 -196.449310 656.936340
v 541.970947 -171.653107 674.452332
v 542.500427 -170.666107 674.452332
v 528.669739 -196.449310 674.452332
v 529.981995 -197.761414 674.452332
v 529.981995 -197.761414 656.936340
v 533.073303 -199.426102 656.936340
v 533.073303 -199.426102 674.452332
v 535.129333 -197.236206 674.452332
v 534.012695 -199.317902 656.936340
v 547.843689 -173.534805 656.936340
v 534.012695 -199.317902 674.452332
v 547.843689 -173.534805 674.452332
v 547.493042 -172.732910 674.452332
v 547.493042 -172.732910 656.936340
v 543.368530 -170.518509 656.936340
v 543.368530 -170.518509 674.452332
vt 4.816300 1.666670
vt 0.000000 0.000000
vt 6.250000 0.000000
vt 0.239270 1.666670
vt 0.000000 1.666670
vt 6.250000 1.666670
vt 0.000000 1.666670
vt 0.000000 0.000000
vt 0.750000 0.000000
vt 0.750000 1.666670
vt 0.504610 1.666670
vt 0.000000 0.000000
vt 6.250000 0.000000
vt 6.250000 1.666670
vt 0.000000 1.666670
vt 0.000000 0.000000
vt 1.000000 0.000000
vt 1.000000 1.666670
vt 0.000000 1.666670
vn -0.8812 0.4727 0.0000
vn -0.4741 -0.8805 0.0000
vn 0.8812 -0.4727 0.0000
vn 0.4730 0.8811 0.0000
vn 0.4730 0.8810 0.0000
s off
f 1/1/1 2/2/1 3/3/1
f 4/4/1 2/2/1 1/1/1
f 5/5/1 2/2/1 4/4/1
f 1/1/1 3/3/1 6/6/1
f 7/7/2 8/8/2 9/9/2
f 7/7/2 9/9/2 10/10/2
f 11/11/3 12/12/3 13/13/3
f 11/11/3 13/13/3 15/14/3
f 16/15/4 17/16/4 18/17/4
f 16/15/5 18/17/5 19/18/5
s 1
f 14/19/3 12/12/3 11/11/3
