# Blender v3.0.1 OBJ File: 'rockerfeller_plaza.blend'
# www.blender.org
o geometryt000010000010000110010110000110000100110110010010st38_T
v 158.922043 -67.119858 972.705811
v 155.950638 -72.584747 972.705811
v 155.950638 -72.584747 979.705811
v 158.922043 -67.119858 979.705811
v 160.120941 -64.914642 972.705811
v 159.378143 -66.280869 972.705811
v 159.378143 -66.280869 979.705811
v 160.120941 -64.914642 979.705811
v 163.548447 -58.610771 972.705811
v 160.577148 -64.075668 972.705811
v 160.577148 -64.075668 979.705811
v 163.548447 -58.610771 979.705811
v 156.089539 -73.051697 979.705811
v 156.089539 -73.051697 972.705811
v 157.458038 -73.790268 972.705811
v 157.458038 -73.790268 979.705811
v 158.205139 -74.193459 979.705811
v 158.205139 -74.193459 972.705811
v 165.047745 -77.886299 972.705811
v 165.047745 -77.886299 979.705811
v 165.794846 -78.289497 972.705811
v 167.163437 -79.028069 972.705811
v 167.163437 -79.028069 979.705811
v 165.794846 -78.289497 979.705811
v 169.491440 -61.424999 979.705811
v 169.491440 -61.424999 972.705811
v 164.016846 -58.471478 972.705811
v 164.016846 -58.471478 979.705811
v 177.312546 -65.644485 972.705811
v 170.469345 -61.952591 972.705811
v 170.469345 -61.952591 979.705811
v 177.312546 -65.644485 979.705811
v 181.027649 -67.648834 979.705811
v 181.027649 -67.648834 972.705811
v 178.290451 -66.172073 972.705811
v 178.290451 -66.172073 979.705811
v 188.848740 -71.868317 972.705811
v 182.005539 -68.176414 972.705811
v 182.005539 -68.176414 979.705811
v 188.848740 -71.868317 979.705811
v 195.301147 -75.349426 972.705811
v 189.826645 -72.395905 972.705811
v 189.826645 -72.395905 979.705811
v 195.301147 -75.349426 979.705811
v 167.770737 -79.355583 979.705811
v 167.770737 -79.355583 972.705811
v 173.246552 -82.306686 972.705811
v 173.246552 -82.306686 979.705811
v 174.086639 -82.759453 972.705811
v 179.562546 -85.710556 972.705811
v 179.562546 -85.710556 979.705811
v 174.086639 -82.759453 979.705811
v 180.402649 -86.163315 972.705811
v 185.878540 -89.114418 972.705811
v 185.878540 -89.114418 979.705811
v 180.402649 -86.163315 979.705811
v 184.436340 -92.517906 972.705811
v 183.878052 -93.523674 972.705811
v 183.878052 -93.523674 979.705811
v 184.436340 -92.517906 979.705811
v 185.760941 -90.062202 979.705811
v 185.760941 -90.062202 972.705811
v 185.024948 -91.432137 972.705811
v 185.024948 -91.432137 979.705811
v 185.555237 -94.820045 972.705811
v 186.925339 -95.555824 972.705811
v 186.925339 -95.555824 979.705811
v 185.555237 -94.820045 979.705811
v 187.481247 -95.854385 979.705811
v 187.481247 -95.854385 972.705811
v 188.851242 -96.590172 972.705811
v 188.851242 -96.590172 979.705811
v 189.407242 -96.888733 979.705811
v 189.407242 -96.888733 972.705811
v 190.777237 -97.624519 972.705811
v 190.777237 -97.624519 979.705811
v 191.333145 -97.923088 972.705811
v 192.703247 -98.658867 972.705811
v 192.703247 -98.658867 979.705811
v 191.333145 -97.923088 979.705811
v 193.259140 -98.957428 972.705811
v 193.335648 -98.998528 972.705811
v 193.259140 -98.957428 979.705811
v 194.629150 -99.693207 979.705811
v 194.629150 -99.693207 972.705811
v 193.335648 -98.998528 979.705811
v 195.096237 -99.553284 972.705811
v 195.628845 -98.563354 972.705811
v 195.628845 -98.563354 979.705811
v 195.096237 -99.553284 979.705811
v 197.278442 -76.412872 979.705811
v 197.278442 -76.412872 972.705811
v 195.908646 -75.676582 972.705811
v 195.908646 -75.676582 979.705811
v 199.205246 -77.448586 972.705811
v 197.835449 -76.712288 972.705811
v 197.835449 -76.712288 979.705811
v 199.205246 -77.448586 979.705811
v 201.131943 -78.484283 972.705811
v 199.762146 -77.747986 972.705811
v 199.762146 -77.747986 979.705811
v 201.131943 -78.484283 979.705811
v 203.058640 -79.519989 979.705811
v 203.058640 -79.519989 972.705811
v 201.688950 -78.783699 972.705811
v 201.688950 -78.783699 979.705811
v 204.985443 -80.555695 972.705811
v 203.615646 -79.819397 972.705811
v 203.615646 -79.819397 979.705811
v 204.985443 -80.555695 979.705811
v 195.950150 -97.952675 979.705811
v 195.950150 -97.952675 972.705811
v 198.515350 -93.218369 972.705811
v 198.913544 -92.483475 972.705811
v 198.515350 -93.218369 979.705811
v 198.913544 -92.483475 979.705811
v 199.425751 -91.538162 972.705811
v 201.648239 -87.436264 972.705811
v 201.648239 -87.436264 979.705811
v 199.425751 -91.538162 979.705811
v 202.908737 -85.109787 979.705811
v 202.160446 -86.490959 972.705811
v 202.908737 -85.109787 972.705811
v 202.160446 -86.490959 979.705811
v 203.907944 -83.265785 972.705811
v 203.907944 -83.265785 979.705811
v 205.123840 -81.021759 972.705811
v 205.123840 -81.021759 979.705811
vt 0.000000 0.000000
vt 1.000000 0.000000
vt 1.000000 0.666670
vt 0.000000 0.666670
vt 0.000000 0.000000
vt 0.250000 0.000000
vt 0.250000 0.666670
vt 0.000000 0.666670
vt 0.000000 0.000000
vt 1.000000 0.000000
vt 1.000000 0.666670
vt 0.000000 0.666670
vt 0.000000 0.666670
vt 0.000000 0.000000
vt 0.250000 0.000000
vt 0.250000 0.666670
vt 0.000000 0.666670
vt 0.000000 0.000000
vt 1.250000 0.000000
vt 1.250000 0.666670
vt 0.000000 0.000000
vt 0.250000 0.000000
vt 0.250000 0.666670
vt 0.000000 0.666670
vt 0.000000 0.666670
vt 0.000000 0.000000
vt 1.000000 0.000000
vt 1.000000 0.666670
vt 0.000000 0.000000
vt 1.250000 0.000000
vt 1.250000 0.666670
vt 0.000000 0.666670
vt 0.000000 0.666670
vt 0.000000 0.000000
vt 0.500000 0.000000
vt 0.500000 0.666670
vt 0.000000 0.000000
vt 1.250000 0.000000
vt 1.250000 0.666670
vt 0.000000 0.666670
vt 0.000000 0.000000
vt 1.000000 0.000000
vt 1.000000 0.666670
vt 0.000000 0.666670
vt 0.000000 0.666670
vt 0.000000 0.000000
vt 1.000000 0.000000
vt 1.000000 0.666670
vt 0.000000 0.000000
vt 1.000000 0.000000
vt 1.000000 0.666670
vt 0.000000 0.666670
vt 0.000000 0.000000
vt 0.250000 0.000000
vt 0.250000 0.666670
vt 0.000000 0.666670
vt 0.000000 0.666670
vt 0.000000 0.000000
vt 0.250000 0.000000
vt 0.250000 0.666670
vt 0.000000 0.000000
vt 0.250000 0.000000
vt 0.250000 0.666670
vt 0.000000 0.666670
vt 0.000000 0.666670
vt 0.000000 0.000000
vt 0.250000 0.000000
vt 0.250000 0.666670
vt 0.000000 0.666670
vt 0.000000 0.000000
vt 0.250000 0.000000
vt 0.250000 0.666670
vt 0.000000 0.000000
vt 0.250000 0.000000
vt 0.250000 0.666670
vt 0.000000 0.666670
vt 0.250000 0.666670
vt 0.013960 0.000000
vt 0.250000 0.000000
vt 0.013960 0.666670
vt 0.000000 0.000000
vt 0.250000 0.000000
vt 0.250000 0.666670
vt 0.000000 0.666670
vt 0.000000 0.666670
vt 0.000000 0.000000
vt 0.250000 0.000000
vt 0.250000 0.666670
vt 0.000000 0.000000
vt 0.250000 0.000000
vt 0.250000 0.666670
vt 0.000000 0.666670
vt 0.000000 0.000000
vt 0.250000 0.000000
vt 0.250000 0.666670
vt 0.000000 0.666670
vt 0.000000 0.666670
vt 0.000000 0.000000
vt 0.250000 0.000000
vt 0.250000 0.666670
vt 0.000000 0.000000
vt 0.250000 0.000000
vt 0.250000 0.666670
vt 0.000000 0.666670
vt 0.000000 0.666670
vt 0.000000 0.000000
vt 0.865630 0.000000
vt 1.000000 0.000000
vt 0.865630 0.666670
vt 1.000000 0.666670
vt 0.000000 0.000000
vt 0.750000 0.000000
vt 0.750000 0.666670
vt 0.000000 0.666670
vt 0.252540 0.666670
vt 0.000000 0.000000
vt 0.252540 0.000000
vt 0.000000 0.666670
vt 0.589700 0.000000
vt 0.589700 0.666670
vt 1.000000 0.000000
vt 1.000000 0.666670
vt 0.000000 0.000000
vt 1.000000 0.000000
vt 1.000000 0.666670
vt 0.000000 0.666670
vt 0.000000 0.000000
vt 0.000000 0.666670
vn -0.8785 0.4777 0.0000
vn -0.8786 0.4776 0.0000
vn -0.4749 -0.8800 0.0000
vn 0.4748 0.8801 0.0000
vn -0.4744 -0.8803 0.0000
vn -0.8743 0.4853 0.0000
vn -0.8809 0.4733 0.0000
vn -0.4731 -0.8810 0.0000
vn -0.4732 -0.8810 0.0000
vn 0.8806 -0.4738 0.0000
vn 0.4735 0.8808 0.0000
vn 0.4734 0.8808 0.0000
vn 0.8792 -0.4764 0.0000
vn 0.8793 -0.4764 0.0000
vn -0.4733 -0.8809 0.0000
s off
f 1/1/1 2/2/1 3/3/1
f 4/4/1 1/1/1 3/3/1
f 5/5/1 6/6/1 7/7/1
f 8/8/2 5/5/2 7/7/2
f 9/9/1 10/10/1 11/11/1
f 12/12/1 9/9/1 11/11/1
f 13/13/3 14/14/3 15/15/3
f 13/13/3 15/15/3 16/16/3
f 17/17/3 18/18/3 19/19/3
f 17/17/3 19/19/3 20/20/3
f 21/21/3 22/22/3 23/23/3
f 24/24/3 21/21/3 23/23/3
f 25/25/4 26/26/4 27/27/4
f 25/25/4 27/27/4 28/28/4
f 29/29/4 30/30/4 31/31/4
f 32/32/4 29/29/4 31/31/4
f 33/33/4 34/34/4 35/35/4
f 33/33/4 35/35/4 36/36/4
f 37/37/4 38/38/4 39/39/4
f 40/40/4 37/37/4 39/39/4
f 41/41/4 42/42/4 43/43/4
f 44/44/4 41/41/4 43/43/4
f 45/45/5 46/46/5 47/47/5
f 45/45/5 47/47/5 48/48/5
f 49/49/5 50/50/5 51/51/5
f 52/52/5 49/49/5 51/51/5
f 57/53/6 58/54/6 59/55/6
f 60/56/6 57/53/6 59/55/6
f 61/57/7 62/58/7 63/59/7
f 61/57/7 63/59/7 64/60/7
f 65/61/8 66/62/8 67/63/8
f 68/64/8 65/61/8 67/63/8
f 69/65/9 70/66/9 71/67/9
f 69/65/8 71/67/8 72/68/8
f 73/69/9 74/70/9 75/71/9
f 73/69/8 75/71/8 76/72/8
f 77/73/8 78/74/8 79/75/8
f 80/76/8 77/73/8 79/75/8
f 84/77/8 82/78/8 85/79/8
f 86/80/8 82/78/8 84/77/8
f 87/81/10 88/82/10 89/83/10
f 90/84/10 87/81/10 89/83/10
f 91/85/11 92/86/11 93/87/11
f 91/85/11 93/87/11 94/88/11
f 95/89/11 96/90/11 97/91/11
f 98/92/11 95/89/11 97/91/11
f 99/93/12 100/94/12 101/95/12
f 102/96/11 99/93/11 101/95/11
f 103/97/11 104/98/11 105/99/11
f 103/97/11 105/99/11 106/100/11
f 107/101/11 108/102/11 109/103/11
f 110/104/11 107/101/11 109/103/11
f 111/105/13 112/106/13 113/107/13
f 114/108/13 115/109/13 113/107/13
f 115/109/13 111/105/13 113/107/13
f 116/110/13 115/109/13 114/108/13
f 117/111/13 118/112/13 119/113/13
f 120/114/13 117/111/13 119/113/13
f 121/115/14 122/116/14 123/117/14
f 124/118/14 122/116/14 121/115/14
f 125/119/13 126/120/13 123/117/13
f 126/120/13 121/115/13 123/117/13
f 127/121/13 126/120/13 125/119/13
f 127/121/13 128/122/13 126/120/13
s 1
f 53/123/5 54/124/5 55/125/5
f 56/126/5 53/123/5 55/125/5
f 81/127/9 82/78/9 83/128/15
f 83/128/15 82/78/9 86/80/15
