# Blender v3.0.1 OBJ File: 'rockerfeller_plaza.blend'
# www.blender.org
o geometryt000010000010000110010110000110000110100100000000st169_
v 369.951111 -145.924683 987.424683
v 369.951111 -145.924683 889.934509
v 367.099640 -151.262772 889.934509
v 367.099640 -151.262772 987.424683
v 369.434937 -136.397980 986.924683
v 369.434937 -136.397980 980.424683
v 369.038239 -137.858078 980.424683
v 369.038239 -137.858078 986.924683
v 370.577942 -134.326584 986.924683
v 370.577942 -134.326584 980.424683
v 369.778442 -135.611084 980.424683
v 369.778442 -135.611084 986.924683
v 372.246521 -132.656570 986.924683
v 372.246521 -132.656570 980.424683
v 371.341034 -133.474976 980.424683
v 371.124023 -133.671082 986.924683
v 371.124023 -133.671082 980.424683
v 371.995819 -126.498688 960.424683
v 371.294739 -127.839485 960.424683
v 371.294739 -127.839485 965.424683
v 371.995819 -126.498688 965.424683
v 373.434448 -128.848480 980.424683
v 373.434448 -128.848480 965.424683
v 371.935730 -128.640884 965.424683
v 371.935730 -128.640884 980.424683
v 371.592438 -166.884872 889.934509
v 373.027924 -164.220978 889.934509
v 373.027924 -164.220978 965.424683
v 371.592438 -166.884872 965.424683
v 374.439331 -126.061089 897.424683
v 372.935120 -125.898384 897.424683
v 372.935120 -125.898384 965.424683
v 374.439331 -126.061089 965.424683
v 374.328125 -131.526978 986.924683
v 374.328125 -131.526978 980.424683
v 373.397644 -131.971771 980.424683
v 372.963135 -132.179474 986.924683
v 372.963135 -132.179474 980.424683
v 373.683533 -163.001984 889.934509
v 377.969330 -154.999374 889.934509
v 377.969330 -154.999374 987.424683
v 373.683533 -163.001984 987.424683
v 376.851227 -129.639984 965.424683
v 375.390442 -129.246185 965.424683
v 375.390442 -129.246185 980.424683
v 376.851227 -129.639984 980.424683
v 376.397217 -131.062180 980.424683
v 376.642334 -131.022079 986.924683
v 376.642334 -131.022079 980.424683
v 376.172241 -131.099075 980.424683
v 375.271545 -131.246582 980.424683
v 375.149231 -131.266678 986.924683
v 375.149231 -131.266678 980.424683
v 377.455322 -126.780182 965.424683
v 377.455322 -126.780182 897.424683
v 375.994720 -126.385483 897.424683
v 375.994720 -126.385483 965.424683
v 379.001434 -131.193375 986.924683
v 379.001434 -131.193375 980.424683
v 378.268616 -131.102585 980.424683
v 377.499939 -131.007385 986.924683
v 377.499939 -131.007385 980.424683
v 380.137512 -130.866776 980.424683
v 380.137512 -130.866776 965.424683
v 378.740845 -130.284973 965.424683
v 378.740845 -130.284973 980.424683
v 378.526825 -153.941284 889.934509
v 379.925629 -151.257980 889.934509
v 379.925629 -151.257980 987.424683
v 378.526825 -153.941284 987.424683
v 380.742737 -127.998283 897.424683
v 379.343933 -127.421783 897.424683
v 379.343933 -127.421783 965.424683
v 380.742737 -127.998283 965.424683
v 381.223419 -132.017471 980.424683
v 379.834229 -131.418274 980.424683
v 379.834229 -131.418274 986.924683
v 381.223419 -132.017471 986.924683
v 383.242126 -132.496384 965.424683
v 381.927917 -131.746475 965.424683
v 381.927917 -131.746475 980.424683
v 383.242126 -132.496384 980.424683
v 383.117523 -133.432373 986.924683
v 383.117523 -133.432373 980.424683
v 381.953522 -132.465881 980.424683
v 381.953522 -132.465881 986.924683
v 383.844727 -129.633072 897.424683
v 382.533630 -128.878082 897.424683
v 382.533630 -128.878082 965.424683
v 383.844727 -129.633072 965.424683
v 384.536438 -135.317673 986.924683
v 384.536438 -135.317673 980.424683
v 384.471436 -135.221176 980.424683
v 384.107239 -134.681473 980.424683
v 383.715942 -134.101379 980.424683
v 383.690338 -134.063385 986.924683
v 383.690338 -134.063385 980.424683
v 386.109924 -134.510071 965.424683
v 384.904938 -133.595078 965.424683
v 384.904938 -133.595078 980.424683
v 386.109924 -134.510071 980.424683
v 386.714722 -131.648972 897.424683
v 385.508423 -130.735672 897.424683
v 385.508423 -130.735672 965.424683
v 386.714722 -131.648972 965.424683
v 385.362640 -137.525879 980.424683
v 384.905640 -136.083572 980.424683
v 384.905640 -136.083572 986.924683
v 385.362640 -137.525879 986.924683
v 385.034332 -142.190475 980.424683
v 385.434814 -140.731476 980.424683
v 385.434814 -140.731476 986.924683
v 385.034332 -142.190475 986.924683
v 385.536743 -139.888077 986.924683
v 385.536743 -139.888077 980.424683
v 385.511047 -138.731171 980.424683
v 385.503113 -138.375381 986.924683
v 385.503113 -138.375381 980.424683
v 388.292236 -136.484482 980.424683
v 388.292236 -136.484482 965.424683
v 387.215820 -135.421082 965.424683
v 387.215820 -135.421082 980.424683
v 389.303436 -134.012085 965.424683
v 389.303436 -134.012085 897.424683
v 388.224121 -132.951782 897.424683
v 388.224121 -132.951782 965.424683
v 389.740723 -137.356674 965.424683
v 389.740723 -137.356674 960.424683
v 390.461609 -136.026474 960.424683
v 390.461609 -136.026474 965.424683
vt 0.000000 7.250000
vt 0.000000 0.000000
vt 0.666670 0.000000
vt 0.666670 7.250000
vt 0.000000 0.500000
vt 0.000000 0.000000
vt 0.166670 0.000000
vt 0.166670 0.500000
vt 0.000000 0.500000
vt 0.000000 0.000000
vt 0.166670 0.000000
vt 0.166670 0.500000
vt 0.000000 0.500000
vt 0.000000 0.000000
vt 0.134450 0.000000
vt 0.166670 0.500000
vt 0.166670 0.000000
vt 0.000000 0.000000
vt 0.166670 0.000000
vt 0.166670 0.250000
vt 0.000000 0.250000
vt 0.000000 1.000000
vt 0.000000 0.000000
vt 0.166670 0.000000
vt 0.166670 1.000000
vt 0.000000 0.000000
vt 0.333330 0.000000
vt 0.333330 5.750000
vt 0.000000 5.750000
vt 0.000000 0.000000
vt 0.166670 0.000000
vt 0.166670 5.500000
vt 0.000000 5.500000
vt 0.000000 0.500000
vt 0.000000 0.000000
vt 0.113610 0.000000
vt 0.166670 0.500000
vt 0.166670 0.000000
vt 0.000000 0.000000
vt 0.166670 0.000000
vt 0.166670 1.000000
vt 0.000000 1.000000
vt 0.027350 0.000000
vt 0.000000 0.500000
vt 0.000000 0.000000
vt 0.052470 0.000000
vt 0.153010 0.000000
vt 0.166670 0.500000
vt 0.166670 0.000000
vt 0.000000 5.500000
vt 0.000000 0.000000
vt 0.166670 0.000000
vt 0.166670 5.500000
vt 0.000000 0.500000
vt 0.000000 0.000000
vt 0.081330 0.000000
vt 0.166670 0.500000
vt 0.166670 0.000000
vt 0.000000 1.000000
vt 0.000000 0.000000
vt 0.166670 0.000000
vt 0.166670 1.000000
vt 0.000000 0.000000
vt 0.333330 0.000000
vt 0.333330 7.250000
vt 0.000000 7.250000
vt 0.000000 0.000000
vt 0.166670 0.000000
vt 0.166670 5.500000
vt 0.000000 5.500000
vt 0.000000 0.000000
vt 0.166670 0.000000
vt 0.166670 0.500000
vt 0.000000 0.500000
vt 0.000000 0.000000
vt 0.166670 0.000000
vt 0.166670 1.000000
vt 0.000000 1.000000
vt 0.000000 0.500000
vt 0.000000 0.000000
vt 0.166670 0.000000
vt 0.166670 0.500000
vt 0.000000 0.000000
vt 0.166670 0.000000
vt 0.166670 5.500000
vt 0.000000 5.500000
vt 0.084540 0.000000
vt 0.000000 0.500000
vt 0.012820 0.000000
vt 0.161620 0.000000
vt 0.166670 0.500000
vt 0.000000 0.000000
vt 0.166670 0.000000
vt 0.166670 1.000000
vt 0.000000 1.000000
vt 0.000000 0.000000
vt 0.166670 0.000000
vt 0.166670 5.500000
vt 0.000000 5.500000
vt 0.000000 0.000000
vt 0.166670 0.000000
vt 0.166670 0.500000
vt 0.000000 0.500000
vt 0.000000 0.000000
vt 0.166670 0.000000
vt 0.166670 0.500000
vt 0.000000 0.500000
vt 0.000000 0.500000
vt 0.000000 0.000000
vt 0.127470 0.000000
vt 0.166670 0.500000
vt 0.166670 0.000000
vt 0.000000 1.000000
vt 0.000000 0.000000
vt 0.166670 0.000000
vt 0.166670 1.000000
vt 0.000000 5.500000
vt 0.000000 0.000000
vt 0.166670 0.000000
vt 0.166670 5.500000
vt 0.000000 0.250000
vt 0.000000 0.000000
vt 0.166670 0.000000
vt 0.166670 0.250000
vt 0.000000 0.000000
vt 1.000000 0.000000
vt 1.000000 7.250000
vt 0.000000 7.250000
vt 0.000000 0.000000
vt 0.166670 0.000000
vn -0.8820 0.4712 0.0000
vn -0.9650 0.2622 0.0000
vn -0.8490 0.5284 0.0000
vn -0.6705 0.7419 0.0000
vn -0.6704 0.7420 0.0000
vn -0.8862 0.4634 0.0000
vn 0.1372 0.9905 0.0000
vn 0.8803 -0.4744 0.0000
vn 0.1075 0.9942 0.0000
vn -0.4313 0.9022 0.0000
vn -0.4312 0.9022 0.0000
vn 0.2603 0.9655 0.0000
vn -0.1614 0.9869 0.0000
vn -0.1616 0.9869 -0.0000
vn -0.1617 0.9868 0.0000
vn -0.1615 0.9869 0.0000
vn 0.2609 0.9654 0.0000
vn 0.1229 0.9924 0.0000
vn 0.3845 0.9231 0.0000
vn 0.8867 -0.4623 0.0000
vn 0.3810 0.9246 0.0000
vn 0.3811 0.9246 0.0000
vn 0.3961 0.9182 0.0000
vn 0.4956 0.8685 0.0000
vn 0.6388 0.7694 0.0000
vn 0.4990 0.8666 0.0000
vn 0.8289 0.5593 0.0000
vn 0.8290 0.5593 0.0000
vn 0.8290 0.5592 -0.0000
vn 0.6047 0.7964 0.0000
vn 0.6048 0.7964 0.0000
vn 0.6036 0.7973 0.0000
vn 0.9533 0.3021 0.0000
vn 0.9533 0.3020 0.0000
vn 0.9643 -0.2647 0.0000
vn 0.9998 0.0222 0.0000
vn 0.7028 0.7114 0.0000
vn 0.7008 0.7133 0.0000
vn 0.7008 0.7134 0.0000
vn 0.8792 -0.4765 0.0000
vn 0.8815 -0.4721 0.0000
vn 0.8291 0.5591 0.0000
vn 0.8295 0.5584 0.0000
s off
f 1/1/1 2/2/1 3/3/1
f 1/1/1 3/3/1 4/4/1
f 5/5/2 6/6/2 7/7/2
f 5/5/2 7/7/2 8/8/2
f 9/9/3 10/10/3 11/11/3
f 9/9/3 11/11/3 12/12/3
f 13/13/4 14/14/4 15/15/4
f 16/16/5 15/15/5 17/17/5
f 16/16/4 13/13/4 15/15/4
f 18/18/6 19/19/6 20/20/6
f 21/21/6 18/18/6 20/20/6
f 22/22/7 23/23/7 24/24/7
f 22/22/7 24/24/7 25/25/7
f 26/26/8 27/27/8 28/28/8
f 29/29/8 26/26/8 28/28/8
f 30/30/9 31/31/9 32/32/9
f 33/33/9 30/30/9 32/32/9
f 34/34/10 35/35/10 36/36/10
f 37/37/11 36/36/11 38/38/11
f 43/39/12 44/40/12 45/41/12
f 46/42/12 43/39/12 45/41/12
f 47/43/13 48/44/13 49/45/13
f 48/44/14 47/43/14 50/46/14
f 51/47/14 52/48/14 50/46/14
f 52/48/15 48/44/15 50/46/15
f 51/47/16 53/49/16 52/48/16
f 54/50/17 55/51/17 56/52/17
f 54/50/17 56/52/17 57/53/17
f 58/54/18 59/55/18 60/56/18
f 61/57/18 60/56/18 62/58/18
f 61/57/18 58/54/18 60/56/18
f 63/59/19 64/60/19 65/61/19
f 63/59/19 65/61/19 66/62/19
f 67/63/20 68/64/20 69/65/20
f 70/66/20 67/63/20 69/65/20
f 71/67/21 72/68/21 73/69/21
f 74/70/22 71/67/22 73/69/22
f 75/71/23 76/72/23 77/73/23
f 78/74/23 75/71/23 77/73/23
f 79/75/24 80/76/24 81/77/24
f 82/78/24 79/75/24 81/77/24
f 83/79/25 84/80/25 85/81/25
f 83/79/25 85/81/25 86/82/25
f 87/83/26 88/84/26 89/85/26
f 90/86/26 87/83/26 89/85/26
f 94/87/27 91/88/27 93/89/27
f 95/90/28 96/91/28 94/87/28
f 96/91/29 91/88/29 94/87/29
f 98/92/30 99/93/30 100/94/30
f 101/95/31 98/92/31 100/94/31
f 102/96/32 103/97/32 104/98/32
f 105/99/32 102/96/32 104/98/32
f 106/100/33 107/101/33 108/102/33
f 109/103/34 106/100/34 108/102/34
f 110/104/35 111/105/35 112/106/35
f 113/107/35 110/104/35 112/106/35
f 114/108/36 115/109/36 116/110/36
f 117/111/36 116/110/36 118/112/36
f 117/111/36 114/108/36 116/110/36
f 119/113/37 120/114/37 121/115/37
f 119/113/37 121/115/37 122/116/37
f 123/117/38 124/118/38 125/119/38
f 123/117/39 125/119/39 126/120/39
f 127/121/40 128/122/40 129/123/40
f 127/121/40 129/123/40 130/124/40
s 1
f 37/37/10 34/34/10 36/36/10
f 39/125/41 40/126/41 41/127/41
f 42/128/41 39/125/41 41/127/41
f 91/88/42 92/129/42 93/89/42
f 95/90/43 97/130/43 96/91/43
