# Blender v3.0.1 OBJ File: 'rockerfeller_plaza.blend'
# www.blender.org
o geometryt000010000010000110010110000110000110100100000000st145
v 476.687317 -147.815582 927.098816
v 476.687317 -147.815582 888.525146
v 474.816437 -151.289871 888.525146
v 474.816437 -151.289871 927.098816
v 477.447815 -146.403275 888.525146
v 476.824219 -147.561371 888.525146
v 476.824219 -147.561371 927.098816
v 477.447815 -146.403275 927.098816
v 480.079346 -141.516785 888.525146
v 477.584717 -146.149185 888.525146
v 477.584717 -146.149185 927.098816
v 480.079346 -141.516785 927.098816
v 480.839844 -140.104477 888.525146
v 480.216248 -141.262573 888.525146
v 480.216248 -141.262573 927.098816
v 480.839844 -140.104477 927.098816
v 482.847626 -136.376083 888.525146
v 480.976746 -139.850372 888.525146
v 480.976746 -139.850372 927.098816
v 482.847626 -136.376083 927.098816
v 483.608215 -134.963776 888.525146
v 482.984528 -136.121872 888.525146
v 482.984528 -136.121872 927.098816
v 483.608215 -134.963776 927.098816
v 486.239624 -130.077179 927.098816
v 486.239624 -130.077179 888.525146
v 483.745026 -134.709671 888.525146
v 483.745026 -134.709671 927.098816
v 487.000244 -128.664978 927.098816
v 487.000244 -128.664978 888.525146
v 486.376526 -129.823074 888.525146
v 486.376526 -129.823074 927.098816
v 487.709412 -127.347984 927.098816
v 489.008026 -124.936485 888.525146
v 487.137024 -128.410873 888.525146
v 489.008026 -124.936485 927.098816
v 487.137024 -128.410873 927.098816
v 475.143921 -151.857773 888.525146
v 485.569733 -157.465378 888.525146
v 485.569733 -157.465378 927.098816
v 475.143921 -151.857773 927.098816
v 486.463440 -156.949173 927.098816
v 486.463440 -156.949173 888.525146
v 488.973328 -152.325073 888.525146
v 488.973328 -152.325073 927.098816
v 491.885132 -126.093285 927.098816
v 491.885132 -126.093285 888.525146
v 489.568634 -124.846489 888.525146
v 489.568634 -124.846489 927.098816
v 489.667023 -151.037582 927.098816
v 489.667023 -151.037582 888.525146
v 492.141235 -146.394272 888.525146
v 492.141235 -146.394272 927.098816
v 491.238220 -128.243073 888.525146
v 491.862122 -127.085182 888.525146
v 491.862122 -127.085182 927.098816
v 491.238220 -128.243073 927.098816
v 498.425537 -133.121872 888.525146
v 491.478333 -129.377075 888.525146
v 491.478333 -129.377075 927.098816
v 498.425537 -133.121872 927.098816
v 497.595428 -136.231171 927.098816
v 492.635315 -145.470078 888.525146
v 498.857117 -133.881073 888.525146
v 492.635315 -145.470078 927.098816
v 498.857117 -133.881073 927.098816
vt 0.000000 2.000000
vt 0.000000 0.000000
vt 0.187500 0.000000
vt 0.187500 2.000000
vt 0.000000 0.000000
vt 0.062500 0.000000
vt 0.062500 2.000000
vt 0.000000 2.000000
vt 0.000000 0.000000
vt 0.250000 0.000000
vt 0.250000 2.000000
vt 0.000000 2.000000
vt 0.000000 0.000000
vt 0.062500 0.000000
vt 0.062500 2.000000
vt 0.000000 2.000000
vt 0.000000 0.000000
vt 0.187500 0.000000
vt 0.187500 2.000000
vt 0.000000 2.000000
vt 0.000000 0.000000
vt 0.062500 0.000000
vt 0.062500 2.000000
vt 0.000000 2.000000
vt 0.000000 2.000000
vt 0.000000 0.000000
vt 0.250000 0.000000
vt 0.250000 2.000000
vt 0.000000 2.000000
vt 0.000000 0.000000
vt 0.062500 0.000000
vt 0.062500 2.000000
vt 0.130140 2.000000
vt 0.000000 0.000000
vt 0.187500 0.000000
vt 0.000000 2.000000
vt 0.187500 2.000000
vt 0.000000 0.000000
vt 0.562500 0.000000
vt 0.562500 2.000000
vt 0.000000 2.000000
vt 0.000000 2.000000
vt 0.000000 0.000000
vt 0.250000 0.000000
vt 0.250000 2.000000
vt 0.000000 2.000000
vt 0.000000 0.000000
vt 0.125000 0.000000
vt 0.125000 2.000000
vt 0.000000 2.000000
vt 0.000000 0.000000
vt 0.250000 0.000000
vt 0.250000 2.000000
vt 0.000000 0.000000
vt 0.062500 0.000000
vt 0.062500 2.000000
vt 0.000000 2.000000
vt 0.000000 0.000000
vt 0.375000 0.000000
vt 0.375000 2.000000
vt 0.000000 2.000000
vt 0.000000 2.000000
vt 0.000000 0.000000
vt 0.498260 2.000000
vt 0.625000 0.000000
vt 0.625000 2.000000
vn -0.8805 0.4741 0.0000
vn -0.8804 0.4742 0.0000
vn -0.8804 0.4741 0.0000
vn -0.4737 -0.8807 0.0000
vn 0.8789 -0.4770 0.0000
vn 0.4739 0.8806 0.0000
vn 0.8825 -0.4703 0.0000
vn 0.8803 -0.4744 0.0000
vn 0.4745 0.8803 0.0000
vn 0.8811 -0.4730 0.0000
vn 0.8810 -0.4730 0.0000
s off
f 1/1/1 2/2/1 3/3/1
f 1/1/1 3/3/1 4/4/1
f 5/5/1 6/6/1 7/7/1
f 8/8/1 5/5/1 7/7/1
f 9/9/1 10/10/1 11/11/1
f 12/12/1 9/9/1 11/11/1
f 13/13/1 14/14/1 15/15/1
f 16/16/1 13/13/1 15/15/1
f 17/17/1 18/18/1 19/19/1
f 20/20/1 17/17/1 19/19/1
f 21/21/2 22/22/2 23/23/2
f 24/24/1 21/21/1 23/23/1
f 25/25/1 26/26/1 27/27/1
f 25/25/1 27/27/1 28/28/1
f 29/29/2 30/30/2 31/31/2
f 29/29/2 31/31/2 32/32/2
f 33/33/1 34/34/1 35/35/1
f 36/36/3 34/34/3 33/33/3
f 33/33/1 35/35/1 37/37/1
f 38/38/4 39/39/4 40/40/4
f 41/41/4 38/38/4 40/40/4
f 42/42/5 43/43/5 44/44/5
f 42/42/5 44/44/5 45/45/5
f 46/46/6 47/47/6 48/48/6
f 46/46/6 48/48/6 49/49/6
f 50/50/7 51/51/7 52/52/7
f 50/50/7 52/52/7 53/53/7
f 54/54/8 55/55/8 56/56/8
f 57/57/8 54/54/8 56/56/8
f 58/58/9 59/59/9 60/60/9
f 61/61/9 58/58/9 60/60/9
f 65/62/10 63/63/10 62/64/10
f 62/64/11 64/65/11 66/66/11
s 1
f 62/64/10 63/63/10 64/65/10
