# Blender v3.0.1 OBJ File: 'rockerfeller_plaza.blend'
# www.blender.org
o geometryt000010000010000110010110000110000110100000010100st166
v 857.810730 -101.150284 162.392090
v 857.810730 -101.150284 150.892090
v 859.697815 -102.173584 150.892090
v 863.776917 -104.385582 162.392090
v 863.776917 -104.385582 150.892090
v 858.749634 -98.215454 162.392090
v 858.749634 -98.215454 148.536545
v 857.821838 -99.918251 148.536545
v 857.821838 -99.918251 162.392090
v 869.943909 -77.597267 148.536545
v 859.304321 -97.195824 148.536545
v 859.304321 -97.195824 162.392090
v 869.943909 -77.597267 162.392090
v 874.652405 -85.564163 162.392090
v 864.481934 -104.327988 148.536545
v 876.956726 -81.312782 148.536545
v 864.481934 -104.327988 162.392090
v 876.956726 -81.312782 162.392090
v 876.635498 -80.698692 148.536545
v 870.669189 -77.463348 148.536545
v 870.669189 -77.463348 162.392090
v 876.635498 -80.698692 162.392090
vt 0.000000 1.000000
vt 0.000000 0.000000
vt 0.553520 0.000000
vt 1.750000 1.000000
vt 1.750000 0.000000
vt 0.000000 1.333330
vt 0.000000 0.000000
vt 0.500000 0.000000
vt 0.500000 1.333330
vt 0.000000 0.000000
vt 5.750000 0.000000
vt 5.750000 1.333330
vt 0.000000 1.333330
vt 5.503140 1.333330
vt 0.000000 0.000000
vt 6.750000 0.000000
vt 0.000000 1.333330
vt 6.750000 1.333330
vt 0.000000 0.000000
vt 1.750000 0.000000
vt 1.750000 1.333330
vt 0.000000 1.333330
vn -0.4767 -0.8791 0.0000
vn -0.8781 0.4784 0.0000
vn -0.8781 0.4785 0.0000
vn -0.8788 0.4771 0.0000
vn 0.8792 -0.4765 -0.0000
vn 0.4767 0.8791 0.0000
s off
f 1/1/1 2/2/1 3/3/1
f 4/4/1 3/3/1 5/5/1
f 6/6/2 7/7/2 8/8/2
f 6/6/3 8/8/3 9/9/3
f 10/10/4 11/11/4 12/12/4
f 13/13/4 10/10/4 12/12/4
f 14/14/5 15/15/5 16/16/5
f 17/17/5 15/15/5 14/14/5
f 14/14/5 16/16/5 18/18/5
f 19/19/6 20/20/6 21/21/6
f 22/22/6 19/19/6 21/21/6
s 1
f 4/4/1 1/1/1 3/3/1
