# Blender v3.0.1 OBJ File: 'rockerfeller_plaza.blend'
# www.blender.org
o geometryt000010000010000110010110000110000100110010010110st29_N
v 101.401100 -237.832596 16.867491
v 100.339401 -237.267593 16.867491
v 112.033600 -215.616104 16.867491
v 135.372406 -227.114395 16.867491
v 137.875305 -246.436600 16.867491
v 131.123398 -258.949310 16.867491
v 99.285439 -241.753998 16.867491
v 112.504799 -214.755798 16.867491
v 145.395905 -232.516205 16.867491
v 145.106796 -233.063507 16.867491
v 131.123398 -258.949310 43.167480
v 101.401100 -237.832596 43.167480
v 99.285439 -241.753998 43.167480
v 137.875305 -246.436600 43.167480
v 145.106796 -233.063507 43.167480
v 135.372406 -227.114395 43.167480
v 145.395905 -232.516205 43.167480
v 112.504799 -214.755798 43.167480
v 112.033600 -215.616104 43.167480
v 100.339401 -237.267593 43.167480
vt 0.400550 0.198860
vt 0.399860 0.196730
vt 0.356740 0.220810
vt 0.370240 0.267590
vt 0.404610 0.272180
vt 0.429530 0.258280
vt 0.408360 0.194500
vt 0.355030 0.221780
vt 0.376890 0.287660
vt 0.377970 0.287070
vt 0.429530 0.258280
vt 0.400550 0.198860
vt 0.408360 0.194500
vt 0.404610 0.272180
vt 0.377970 0.287070
vt 0.370240 0.267590
vt 0.376890 0.287660
vt 0.355030 0.221780
vt 0.356740 0.220810
vt 0.399860 0.196730
vn 0.0000 0.0000 -1.0000
vn 0.0000 0.0000 1.0000
s off
f 1/1/1 2/2/1 3/3/1
f 4/4/1 1/1/1 3/3/1
f 5/5/1 1/1/1 4/4/1
f 6/6/1 1/1/1 5/5/1
f 7/7/1 1/1/1 6/6/1
f 8/8/1 4/4/1 3/3/1
f 9/9/1 10/10/1 4/4/1
f 10/10/1 5/5/1 4/4/1
f 11/11/2 12/12/2 13/13/2
f 12/12/2 11/11/2 14/14/2
f 15/15/2 16/16/2 14/14/2
f 14/14/2 16/16/2 12/12/2
f 15/15/2 17/17/2 16/16/2
f 16/16/2 18/18/2 19/19/2
f 12/12/2 16/16/2 19/19/2
f 12/12/2 19/19/2 20/20/2
