# Blender v3.0.1 OBJ File: 'rockerfeller_plaza.blend'
# www.blender.org
o geometryt000010000010000110010110000110000110100100000000st42
v 275.443390 -108.862183 889.063416
v 279.495026 -111.067589 889.063416
v 279.495026 -111.067589 920.872375
v 275.443390 -108.862183 920.872375
v 275.845093 -106.937386 920.872375
v 275.845093 -106.937386 889.063416
v 275.124542 -108.295784 889.063416
v 275.124542 -108.295784 920.872375
v 277.461761 -103.889587 920.872375
v 277.461761 -103.889587 889.063416
v 276.020691 -106.606384 889.063416
v 276.020691 -106.606384 920.872375
v 278.357880 -102.200089 889.063416
v 277.637360 -103.558487 889.063416
v 277.637360 -103.558487 920.872375
v 278.357880 -102.200089 920.872375
v 280.695099 -97.793839 889.063416
v 278.533478 -101.869087 889.063416
v 278.533478 -101.869087 920.872375
v 280.695099 -97.793839 920.872375
v 281.591217 -96.104378 889.063416
v 280.870697 -97.462776 889.063416
v 280.870697 -97.462776 920.872375
v 281.591217 -96.104378 920.872375
v 283.207886 -93.056503 889.063416
v 281.766846 -95.773323 889.063416
v 281.766846 -95.773323 920.872375
v 283.207886 -93.056503 920.872375
v 284.104034 -91.367043 889.063416
v 283.383484 -92.725456 889.063416
v 283.383484 -92.725456 920.872375
v 284.104034 -91.367043 920.872375
v 280.279907 -111.491585 889.063416
v 281.636597 -112.215286 889.063416
v 281.636597 -112.215286 920.872375
v 280.279907 -111.491585 920.872375
v 281.981201 -112.399185 889.063416
v 284.694580 -113.846687 889.063416
v 284.694580 -113.846687 920.872375
v 281.981201 -112.399185 920.872375
v 285.039154 -114.030487 889.063416
v 286.395844 -114.754288 889.063416
v 286.395844 -114.754288 920.872375
v 285.039154 -114.030487 920.872375
v 286.740417 -114.938087 920.872375
v 286.740417 -114.938087 889.063416
v 290.810486 -117.109383 889.063416
v 290.810486 -117.109383 920.872375
v 291.155090 -117.293182 889.063416
v 292.511780 -118.016983 889.063416
v 292.511780 -118.016983 920.872375
v 291.155090 -117.293182 920.872375
v 292.856354 -118.200783 889.063416
v 295.569733 -119.648285 889.063416
v 295.569733 -119.648285 920.872375
v 292.856354 -118.200783 920.872375
v 295.914307 -119.832184 920.872375
v 295.914307 -119.832184 889.063416
v 297.270996 -120.555885 889.063416
v 297.270996 -120.555885 920.872375
v 297.615601 -120.739784 889.063416
v 301.685638 -122.910988 889.063416
v 301.685638 -122.910988 920.872375
v 297.615601 -120.739784 920.872375
v 302.030243 -123.094887 920.872375
v 302.030243 -123.094887 889.063416
v 303.386932 -123.818588 889.063416
v 303.386932 -123.818588 920.872375
v 303.731506 -124.002487 920.872375
v 303.731506 -124.002487 889.063416
v 306.444885 -125.449989 889.063416
v 306.444885 -125.449989 920.872375
v 306.789459 -125.633789 889.063416
v 308.146149 -126.357582 889.063416
v 308.146149 -126.357582 920.872375
v 306.789459 -125.633789 920.872375
v 285.924316 -91.953033 889.063416
v 284.569641 -91.225502 889.063416
v 284.569641 -91.225502 920.872375
v 285.924316 -91.953033 920.872375
v 288.869934 -93.534996 920.872375
v 288.869934 -93.534996 889.063416
v 286.160583 -92.079926 889.063416
v 286.160583 -92.079926 920.872375
v 290.460876 -94.389412 889.063416
v 289.106201 -93.661888 889.063416
v 289.106201 -93.661888 920.872375
v 290.460876 -94.389412 920.872375
v 294.761169 -96.698906 920.872375
v 294.761169 -96.698906 889.063416
v 290.697144 -94.516304 889.063416
v 290.697144 -94.516304 920.872375
v 296.352112 -97.553337 920.872375
v 296.352112 -97.553337 889.063416
v 294.997437 -96.825798 889.063416
v 294.997437 -96.825798 920.872375
v 299.297729 -99.135284 889.063416
v 296.588379 -97.680229 889.063416
v 296.588379 -97.680229 920.872375
v 299.297729 -99.135284 920.872375
v 300.888672 -99.989716 889.063416
v 299.533997 -99.262177 889.063416
v 299.533997 -99.262177 920.872375
v 300.888672 -99.989716 920.872375
v 303.834290 -101.571686 920.872375
v 303.834290 -101.571686 889.063416
v 301.124939 -100.116585 889.063416
v 301.124939 -100.116585 920.872375
v 305.425232 -102.426086 889.063416
v 304.070557 -101.698586 889.063416
v 304.070557 -101.698586 920.872375
v 305.425232 -102.426086 920.872375
v 309.725525 -104.735588 920.872375
v 309.725525 -104.735588 889.063416
v 305.661499 -102.552986 889.063416
v 305.661499 -102.552986 920.872375
v 311.316467 -105.589989 889.063416
v 309.961792 -104.862488 889.063416
v 309.961792 -104.862488 920.872375
v 311.316467 -105.589989 920.872375
v 314.262085 -107.171982 889.063416
v 311.552734 -105.716888 889.063416
v 311.552734 -105.716888 920.872375
v 314.262085 -107.171982 920.872375
v 315.853027 -108.026382 920.872375
v 315.853027 -108.026382 889.063416
v 314.498352 -107.298889 889.063416
v 314.498352 -107.298889 920.872375
v 308.834351 -125.805183 920.872375
v 308.834351 -125.805183 889.063416
v 311.744202 -120.386383 889.063416
v 311.744202 -120.386383 920.872375
v 310.709442 -118.320587 920.872375
v 310.709442 -118.320587 889.063416
v 311.439819 -116.967484 889.063416
v 311.439819 -116.967484 920.872375
v 311.745667 -116.400787 889.063416
v 313.206421 -113.694588 889.063416
v 313.206421 -113.694588 920.872375
v 311.745667 -116.400787 920.872375
v 314.827759 -110.690788 920.872375
v 313.512238 -113.127983 889.063416
v 314.972992 -110.421684 889.063416
v 313.512238 -113.127983 920.872375
v 314.972992 -110.421684 920.872375
v 315.278839 -109.855087 920.872375
v 315.278839 -109.855087 889.063416
v 316.009216 -108.501884 889.063416
v 316.009216 -108.501884 920.872375
v 311.906433 -119.352486 920.872375
v 311.906433 -119.352486 889.063416
v 310.849762 -118.786987 889.063416
v 310.849762 -118.786987 920.872375
vt 0.000000 0.000000
vt 1.000000 0.000000
vt 1.000000 2.500000
vt 0.000000 2.500000
vt 0.000000 2.500000
vt 0.000000 0.000000
vt 0.333330 0.000000
vt 0.333330 2.500000
vt 0.000000 2.500000
vt 0.000000 0.000000
vt 0.666670 0.000000
vt 0.666670 2.500000
vt 0.000000 0.000000
vt 0.333330 0.000000
vt 0.333330 2.500000
vt 0.000000 2.500000
vt 0.000000 0.000000
vt 1.000000 0.000000
vt 1.000000 2.500000
vt 0.000000 2.500000
vt 0.000000 0.000000
vt 0.333330 0.000000
vt 0.333330 2.500000
vt 0.000000 2.500000
vt 0.000000 0.000000
vt 0.666670 0.000000
vt 0.666670 2.500000
vt 0.000000 2.500000
vt 0.000000 0.000000
vt 0.333330 0.000000
vt 0.333330 2.500000
vt 0.000000 2.500000
vt 0.000000 0.000000
vt 0.333330 0.000000
vt 0.333330 2.500000
vt 0.000000 2.500000
vt 0.000000 0.000000
vt 0.666670 0.000000
vt 0.666670 2.500000
vt 0.000000 2.500000
vt 0.000000 0.000000
vt 0.333330 0.000000
vt 0.333330 2.500000
vt 0.000000 2.500000
vt 0.000000 2.500000
vt 0.000000 0.000000
vt 1.000000 0.000000
vt 1.000000 2.500000
vt 0.000000 0.000000
vt 0.333330 0.000000
vt 0.333330 2.500000
vt 0.000000 2.500000
vt 0.000000 0.000000
vt 0.666670 0.000000
vt 0.666670 2.500000
vt 0.000000 2.500000
vt 0.000000 2.500000
vt 0.000000 0.000000
vt 0.333330 0.000000
vt 0.333330 2.500000
vt 0.000000 0.000000
vt 1.000000 0.000000
vt 1.000000 2.500000
vt 0.000000 2.500000
vt 0.000000 2.500000
vt 0.000000 0.000000
vt 0.333330 0.000000
vt 0.333330 2.500000
vt 0.000000 2.500000
vt 0.000000 0.000000
vt 0.666670 0.000000
vt 0.666670 2.500000
vt 0.000000 0.000000
vt 0.333330 0.000000
vt 0.333330 2.500000
vt 0.000000 2.500000
vt 0.000000 0.000000
vt 0.333330 0.000000
vt 0.333330 2.500000
vt 0.000000 2.500000
vt 0.000000 2.500000
vt 0.000000 0.000000
vt 0.666670 0.000000
vt 0.666670 2.500000
vt 0.000000 0.000000
vt 0.333330 0.000000
vt 0.333330 2.500000
vt 0.000000 2.500000
vt 0.000000 2.500000
vt 0.000000 0.000000
vt 1.000000 0.000000
vt 1.000000 2.500000
vt 0.000000 2.500000
vt 0.000000 0.000000
vt 0.333330 0.000000
vt 0.333330 2.500000
vt 0.000000 0.000000
vt 0.666670 0.000000
vt 0.666670 2.500000
vt 0.000000 2.500000
vt 0.000000 0.000000
vt 0.333330 0.000000
vt 0.333330 2.500000
vt 0.000000 2.500000
vt 0.000000 2.500000
vt 0.000000 0.000000
vt 0.666670 0.000000
vt 0.666670 2.500000
vt 0.000000 0.000000
vt 0.333330 0.000000
vt 0.333330 2.500000
vt 0.000000 2.500000
vt 0.000000 2.500000
vt 0.000000 0.000000
vt 1.000000 0.000000
vt 1.000000 2.500000
vt 0.000000 0.000000
vt 0.333330 0.000000
vt 0.333330 2.500000
vt 0.000000 2.500000
vt 0.000000 0.000000
vt 0.666670 0.000000
vt 0.666670 2.500000
vt 0.000000 2.500000
vt 0.000000 2.500000
vt 0.000000 0.000000
vt 0.333330 0.000000
vt 0.333330 2.500000
vt 0.000000 2.500000
vt 0.000000 0.000000
vt 1.333330 0.000000
vt 1.333330 2.500000
vt 0.000000 2.500000
vt 0.000000 0.000000
vt 0.333330 0.000000
vt 0.333330 2.500000
vt 0.000000 0.000000
vt 0.666670 0.000000
vt 0.666670 2.500000
vt 0.000000 2.500000
vt 0.000000 2.500000
vt 0.000000 0.000000
vt 0.600380 2.500000
vt 0.666670 0.000000
vt 0.666670 2.500000
vt 0.000000 2.500000
vt 0.000000 0.000000
vt 0.333330 0.000000
vt 0.333330 2.500000
vt 0.000000 2.500000
vt 0.000000 0.000000
vt 0.333330 0.000000
vt 0.333330 2.500000
vn -0.4781 -0.8783 0.0000
vn -0.8834 0.4686 0.0000
vn -0.4707 -0.8823 0.0000
vn -0.4706 -0.8823 0.0000
vn 0.4731 0.8810 0.0000
vn 0.8810 -0.4731 0.0000
vn 0.8800 -0.4750 0.0000
vn 0.8801 -0.4747 0.0000
vn 0.4719 0.8817 0.0000
vn 0.4718 0.8817 0.0000
s off
f 1/1/1 2/2/1 3/3/1
f 4/4/1 1/1/1 3/3/1
f 5/5/2 6/6/2 7/7/2
f 5/5/2 7/7/2 8/8/2
f 9/9/2 10/10/2 11/11/2
f 9/9/2 11/11/2 12/12/2
f 13/13/2 14/14/2 15/15/2
f 16/16/2 13/13/2 15/15/2
f 17/17/2 18/18/2 19/19/2
f 20/20/2 17/17/2 19/19/2
f 21/21/2 22/22/2 23/23/2
f 24/24/2 21/21/2 23/23/2
f 25/25/2 26/26/2 27/27/2
f 28/28/2 25/25/2 27/27/2
f 29/29/2 30/30/2 31/31/2
f 32/32/2 29/29/2 31/31/2
f 33/33/3 34/34/3 35/35/3
f 36/36/4 33/33/4 35/35/4
f 37/37/3 38/38/3 39/39/3
f 40/40/3 37/37/3 39/39/3
f 41/41/3 42/42/3 43/43/3
f 44/44/3 41/41/3 43/43/3
f 45/45/3 46/46/3 47/47/3
f 45/45/3 47/47/3 48/48/3
f 49/49/3 50/50/3 51/51/3
f 52/52/3 49/49/3 51/51/3
f 53/53/3 54/54/3 55/55/3
f 56/56/3 53/53/3 55/55/3
f 57/57/3 58/58/3 59/59/3
f 57/57/3 59/59/3 60/60/3
f 61/61/3 62/62/3 63/63/3
f 64/64/3 61/61/3 63/63/3
f 65/65/4 66/66/4 67/67/4
f 65/65/3 67/67/3 68/68/3
f 69/69/3 70/70/3 71/71/3
f 69/69/3 71/71/3 72/72/3
f 73/73/3 74/74/3 75/75/3
f 76/76/3 73/73/3 75/75/3
f 77/77/5 78/78/5 79/79/5
f 80/80/5 77/77/5 79/79/5
f 81/81/5 82/82/5 83/83/5
f 81/81/5 83/83/5 84/84/5
f 85/85/5 86/86/5 87/87/5
f 88/88/5 85/85/5 87/87/5
f 89/89/5 90/90/5 91/91/5
f 89/89/5 91/91/5 92/92/5
f 93/93/5 94/94/5 95/95/5
f 93/93/5 95/95/5 96/96/5
f 97/97/5 98/98/5 99/99/5
f 100/100/5 97/97/5 99/99/5
f 101/101/5 102/102/5 103/103/5
f 104/104/5 101/101/5 103/103/5
f 105/105/5 106/106/5 107/107/5
f 105/105/5 107/107/5 108/108/5
f 109/109/5 110/110/5 111/111/5
f 112/112/5 109/109/5 111/111/5
f 113/113/5 114/114/5 115/115/5
f 113/113/5 115/115/5 116/116/5
f 117/117/5 118/118/5 119/119/5
f 120/120/5 117/117/5 119/119/5
f 121/121/5 122/122/5 123/123/5
f 124/124/5 121/121/5 123/123/5
f 125/125/5 126/126/5 127/127/5
f 125/125/5 127/127/5 128/128/5
f 129/129/6 130/130/6 131/131/6
f 129/129/6 131/131/6 132/132/6
f 133/133/7 134/134/7 135/135/7
f 133/133/7 135/135/7 136/136/7
f 137/137/7 138/138/7 139/139/7
f 140/140/7 137/137/7 139/139/7
f 144/141/7 142/142/7 141/143/7
f 141/143/8 143/144/8 145/145/8
f 146/146/7 147/147/7 148/148/7
f 146/146/7 148/148/7 149/149/7
f 150/150/9 151/151/9 152/152/9
f 150/150/10 152/152/10 153/153/10
s 1
f 141/143/7 142/142/7 143/144/7
