# Blender v3.0.1 OBJ File: 'rockerfeller_plaza.blend'
# www.blender.org
o geometryt000010000010000110010110000110000110100000100100st107
v 353.386292 -357.461609 613.059387
v 354.187897 -357.889923 787.125671
v 353.386292 -357.461609 787.125671
v 306.199646 -332.245300 612.125732
v 307.001251 -332.673615 613.059387
v 354.187897 -357.889923 612.125732
v 307.001251 -332.673615 787.125671
v 306.199646 -332.245300 787.125671
v 306.626068 -331.447296 613.059387
v 306.199646 -332.245300 787.125671
v 306.626068 -331.447296 787.125671
v 331.839661 -284.263794 612.125732
v 331.413208 -285.061798 613.059387
v 306.199646 -332.245300 612.125732
v 331.413208 -285.061798 787.125671
v 331.839661 -284.263794 787.125671
v 332.641113 -284.692108 613.059387
v 331.839661 -284.263794 787.125671
v 332.641113 -284.692108 787.125671
v 379.026184 -309.480011 613.059387
v 331.839661 -284.263794 612.125732
v 379.026184 -309.480011 787.125671
v 379.827698 -309.908295 787.125671
v 379.827698 -309.908295 612.125732
v 379.401184 -310.706299 613.059387
v 379.827698 -309.908295 787.125671
v 379.401184 -310.706299 787.125671
v 354.614319 -357.091919 613.059387
v 379.827698 -309.908295 612.125732
v 354.614319 -357.091919 787.125671
v 354.187897 -357.889923 787.125671
v 354.187897 -357.889923 612.125732
vt 53.395000 0.695740
vt 54.302059 130.402405
vt 53.395000 130.402405
vt 0.000000 0.000000
vt 0.907050 0.695740
vt 54.302059 0.000000
vt 0.907050 130.402405
vt 0.000000 130.402405
vt 53.390919 0.695740
vt 54.293892 130.402405
vt 53.390919 130.402405
vt 0.000000 0.000000
vt 0.902970 0.695740
vt 54.293892 0.000000
vt 0.902970 130.402405
vt 0.000000 130.402405
vt 53.394871 0.695740
vt 54.301788 130.402405
vt 53.394871 130.402405
vt 0.906920 0.695740
vt 54.301788 0.000000
vt 0.906920 130.402405
vt 0.000000 130.402405
vt 0.000000 0.000000
vt 53.390949 0.695740
vt 54.293941 130.402405
vt 53.390949 130.402405
vt 0.902990 0.695740
vt 54.293941 0.000000
vt 0.902990 130.402405
vt 0.000000 130.402405
vt 0.000000 0.000000
vn -0.4712 -0.8820 0.0000
vn -0.4713 -0.8820 0.0000
vn -0.8820 0.4713 0.0000
vn 0.4714 0.8819 0.0000
vn 0.4713 0.8820 0.0000
vn 0.8819 -0.4714 0.0000
vn 0.8820 -0.4713 0.0001
vn 0.8820 -0.4713 0.0000
s off
f 1/1/1 2/2/1 3/3/1
f 4/4/2 1/1/2 5/5/2
f 4/4/2 6/6/2 1/1/2
f 2/2/2 1/1/2 6/6/2
f 7/7/2 8/8/2 5/5/2
f 8/8/1 4/4/1 5/5/1
f 9/9/3 10/10/3 11/11/3
f 12/12/3 9/9/3 13/13/3
f 12/12/3 14/14/3 9/9/3
f 10/10/3 9/9/3 14/14/3
f 15/15/3 16/16/3 13/13/3
f 16/16/3 12/12/3 13/13/3
f 17/17/4 18/18/4 19/19/4
f 20/20/5 21/21/5 17/17/5
f 18/18/5 17/17/5 21/21/5
f 22/22/5 23/23/5 20/20/5
f 23/23/5 24/24/5 20/20/5
f 24/24/5 21/21/5 20/20/5
f 25/25/6 26/26/6 27/27/6
f 28/28/7 29/29/7 25/25/7
f 26/26/8 25/25/8 29/29/8
f 30/30/8 31/31/8 28/28/8
f 31/31/8 32/32/8 28/28/8
f 32/32/8 29/29/8 28/28/8
