# Blender v3.0.1 OBJ File: 'rockerfeller_plaza.blend'
# www.blender.org
o geometryt000010000010000110010110000110000100110010110110st145
v 140.522186 -249.600525 588.457031
v 140.522186 -249.600525 566.316772
v 138.962280 -252.588028 566.316772
v 138.962280 -252.588028 588.457031
v 141.637283 -247.464920 566.316772
v 140.857376 -248.958618 566.316772
v 140.857376 -248.958618 588.457031
v 141.637283 -247.464920 588.457031
v 143.532379 -243.835526 566.316772
v 141.972488 -246.823029 566.316772
v 141.972488 -246.823029 588.457031
v 143.532379 -243.835526 588.457031
v 144.647476 -241.699921 588.457031
v 144.647476 -241.699921 566.316772
v 143.867584 -243.193619 566.316772
v 143.867584 -243.193619 588.457031
v 145.762680 -239.564224 566.316772
v 144.982681 -241.058029 566.316772
v 144.982681 -241.058029 588.457031
v 145.762680 -239.564224 588.457031
v 146.877777 -237.428619 588.457031
v 146.877777 -237.428619 566.316772
v 146.097778 -238.922424 566.316772
v 146.097778 -238.922424 588.457031
v 148.772888 -233.799225 566.316772
v 147.212891 -236.786819 566.316772
v 147.212891 -236.786819 588.457031
v 148.772888 -233.799225 588.457031
v 149.887985 -231.663620 566.316772
v 149.107986 -233.157425 566.316772
v 149.107986 -233.157425 588.457031
v 149.887985 -231.663620 588.457031
v 151.783081 -228.034225 588.457031
v 151.783081 -228.034225 566.316772
v 150.223083 -231.021820 566.316772
v 150.223083 -231.021820 588.457031
v 139.108383 -253.053619 588.457031
v 139.108383 -253.053619 566.316772
v 140.601990 -253.833923 566.316772
v 140.601990 -253.833923 588.457031
v 142.991089 -255.082031 566.316772
v 144.484680 -255.862228 566.316772
v 144.484680 -255.862228 588.457031
v 142.991089 -255.082031 588.457031
v 144.950180 -255.716217 588.457031
v 144.950180 -255.716217 566.316772
v 145.730377 -254.222519 566.316772
v 145.730377 -254.222519 588.457031
v 146.889984 -252.002029 566.316772
v 147.670181 -250.508331 566.316772
v 147.670181 -250.508331 588.457031
v 146.889984 -252.002029 588.457031
v 148.135986 -250.361725 566.316772
v 149.570679 -251.107727 566.316772
v 149.570679 -251.107727 588.457031
v 148.135986 -250.361725 588.457031
v 150.036484 -250.961121 566.316772
v 151.597382 -247.974030 566.316772
v 151.597382 -247.974030 588.457031
v 150.036484 -250.961121 588.457031
v 151.994476 -247.214218 588.457031
v 151.994476 -247.214218 566.316772
v 152.774887 -245.720718 566.316772
v 152.774887 -245.720718 588.457031
v 153.171982 -244.960831 566.316772
v 154.732880 -241.973724 566.316772
v 154.732880 -241.973724 588.457031
v 153.171982 -244.960831 588.457031
v 155.129883 -241.213928 588.457031
v 155.129883 -241.213928 566.316772
v 156.690781 -238.226822 566.316772
v 156.690781 -238.226822 588.457031
v 157.087891 -237.467026 588.457031
v 157.087891 -237.467026 566.316772
v 157.868286 -235.973526 566.316772
v 157.868286 -235.973526 588.457031
v 158.265381 -235.213623 588.457031
v 158.265381 -235.213623 566.316772
v 159.826279 -232.226517 566.316772
v 159.826279 -232.226517 588.457031
v 153.743088 -228.666824 588.457031
v 153.743088 -228.666824 566.316772
v 152.248688 -227.887924 566.316772
v 152.248688 -227.887924 588.457031
v 156.711578 -230.214020 588.457031
v 156.711578 -230.214020 566.316772
v 155.217178 -229.435226 566.316772
v 155.217178 -229.435226 588.457031
v 159.680084 -231.761322 588.457031
v 159.680084 -231.761322 566.316772
v 158.185776 -230.982422 566.316772
v 158.185776 -230.982422 588.457031
vt 0.000000 5.000000
vt 0.000000 0.000000
vt 0.666670 0.000000
vt 0.666670 5.000000
vt 0.000000 0.000000
vt 0.333330 0.000000
vt 0.333330 5.000000
vt 0.000000 5.000000
vt 0.000000 0.000000
vt 0.666670 0.000000
vt 0.666670 5.000000
vt 0.000000 5.000000
vt 0.000000 0.000000
vt 0.333330 0.000000
vt 0.333330 5.000000
vt 0.000000 5.000000
vt 0.000000 5.000000
vt 0.000000 0.000000
vt 0.333330 0.000000
vt 0.333330 5.000000
vt 0.000000 0.000000
vt 0.333330 0.000000
vt 0.333330 5.000000
vt 0.000000 5.000000
vt 0.000000 5.000000
vt 0.000000 0.000000
vt 0.333330 0.000000
vt 0.333330 5.000000
vt 0.000000 0.000000
vt 0.333330 0.000000
vt 0.333330 5.000000
vt 0.000000 5.000000
vt 0.000000 5.000000
vt 0.000000 0.000000
vt 0.333330 0.000000
vt 0.333330 5.000000
vt 0.000000 0.000000
vt 0.333330 0.000000
vt 0.333330 5.000000
vt 0.000000 5.000000
vt 0.000000 0.000000
vt 0.333330 0.000000
vt 0.333330 5.000000
vt 0.000000 5.000000
vt 0.000000 0.000000
vt 0.666670 0.000000
vt 0.666670 5.000000
vt 0.000000 5.000000
vt 0.000000 5.000000
vt 0.000000 0.000000
vt 0.333330 0.000000
vt 0.333330 5.000000
vt 0.000000 0.000000
vt 0.666670 0.000000
vt 0.666670 5.000000
vt 0.000000 5.000000
vt 0.000000 5.000000
vt 0.000000 0.000000
vt 0.666670 0.000000
vt 0.666670 5.000000
vt 0.000000 5.000000
vt 0.000000 0.000000
vt 0.333330 0.000000
vt 0.333330 5.000000
vt 0.000000 5.000000
vt 0.000000 0.000000
vt 0.666670 0.000000
vt 0.666670 5.000000
vt 0.000000 5.000000
vt 0.000000 0.000000
vt 0.333330 0.000000
vt 0.333330 5.000000
vt 0.000000 5.000000
vt 0.000000 0.000000
vt 0.333330 0.000000
vt 0.333330 5.000000
vt 0.000000 5.000000
vt 0.000000 0.000000
vt 0.333330 0.000000
vt 0.333330 5.000000
vt 0.000000 5.000000
vt 0.000000 0.000000
vt 0.333330 0.000000
vt 0.333330 5.000000
vt 0.000000 0.000000
vt 0.666670 0.000000
vt 0.666670 5.000000
vt 0.000000 5.000000
vt 0.000000 5.000000
vt 0.000000 0.000000
vt 0.666670 0.000000
vt 0.666670 5.000000
vn -0.8864 0.4628 0.0000
vn -0.8864 0.4629 0.0000
vn -0.4630 -0.8863 0.0000
vn -0.4631 -0.8863 0.0000
vn -0.4630 -0.8864 0.0000
vn 0.8864 -0.4630 0.0000
vn -0.4613 -0.8872 0.0000
vn 0.8863 -0.4631 0.0000
vn 0.4622 0.8868 0.0000
vn 0.4621 0.8868 0.0000
s off
f 1/1/1 2/2/1 3/3/1
f 1/1/1 3/3/1 4/4/1
f 5/5/1 6/6/1 7/7/1
f 8/8/1 5/5/1 7/7/1
f 9/9/1 10/10/1 11/11/1
f 12/12/1 9/9/1 11/11/1
f 17/13/2 18/14/2 19/15/2
f 20/16/1 17/13/1 19/15/1
f 21/17/2 22/18/2 23/19/2
f 21/17/2 23/19/2 24/20/2
f 29/21/2 30/22/2 31/23/2
f 32/24/2 29/21/2 31/23/2
f 37/25/3 38/26/3 39/27/3
f 37/25/4 39/27/4 40/28/4
f 41/29/5 42/30/5 43/31/5
f 44/32/5 41/29/5 43/31/5
f 45/33/6 46/34/6 47/35/6
f 45/33/6 47/35/6 48/36/6
f 49/37/6 50/38/6 51/39/6
f 52/40/6 49/37/6 51/39/6
f 53/41/7 54/42/7 55/43/7
f 56/44/7 53/41/7 55/43/7
f 57/45/8 58/46/8 59/47/8
f 60/48/8 57/45/8 59/47/8
f 61/49/8 62/50/8 63/51/8
f 61/49/8 63/51/8 64/52/8
f 65/53/8 66/54/8 67/55/8
f 68/56/8 65/53/8 67/55/8
f 69/57/8 70/58/8 71/59/8
f 69/57/8 71/59/8 72/60/8
f 73/61/8 74/62/8 75/63/8
f 73/61/8 75/63/8 76/64/8
f 77/65/8 78/66/8 79/67/8
f 77/65/8 79/67/8 80/68/8
f 81/69/9 82/70/9 83/71/9
f 81/69/9 83/71/9 84/72/9
f 85/73/10 86/74/10 87/75/10
f 85/73/10 87/75/10 88/76/10
f 89/77/9 90/78/9 91/79/9
f 89/77/9 91/79/9 92/80/9
s 1
f 13/81/1 14/82/1 15/83/1
f 13/81/1 15/83/1 16/84/1
f 25/85/2 26/86/2 27/87/2
f 28/88/2 25/85/2 27/87/2
f 33/89/2 34/90/2 35/91/2
f 33/89/2 35/91/2 36/92/2
