# Blender v3.0.1 OBJ File: 'rockerfeller_plaza.blend'
# www.blender.org
o geometryt000010000010000110010110000110000110100000110000st60
v 971.147339 -294.734039 509.640991
v 970.408630 -296.103424 509.640991
v 970.408630 -296.103424 514.140991
v 971.147339 -294.734039 514.140991
v 972.931885 -291.426025 509.640991
v 972.627319 -291.990448 509.640991
v 972.931885 -291.426025 514.140991
v 972.193115 -292.795349 514.140991
v 972.193115 -292.795349 509.640991
v 970.549072 -296.569733 514.140991
v 970.549072 -296.569733 509.640991
v 973.293152 -298.037048 509.640991
v 973.293152 -298.037048 514.140991
v 977.152832 -300.100830 509.640991
v 979.706177 -301.466034 509.640991
v 977.152832 -300.100830 514.140991
v 979.896973 -301.568146 514.140991
v 979.896973 -301.568146 509.640991
v 976.143372 -292.753448 509.640991
v 973.590271 -291.387024 509.640991
v 976.143372 -292.753448 514.140991
v 973.399780 -291.285126 514.140991
v 973.399780 -291.285126 509.640991
v 982.739380 -296.283447 509.640991
v 981.952759 -295.862427 509.640991
v 982.739380 -296.283447 514.140991
v 979.995728 -294.815125 514.140991
v 979.995728 -294.815125 509.640991
v 980.364624 -301.426941 514.140991
v 980.364624 -301.426941 509.640991
v 981.101685 -300.056732 509.640991
v 981.101685 -300.056732 514.140991
v 982.143188 -298.120239 509.640991
v 982.674866 -297.131653 509.640991
v 982.143188 -298.120239 514.140991
v 982.880127 -296.750031 514.140991
v 982.880127 -296.750031 509.640991
vt 0.000000 0.000000
vt 0.062500 0.000000
vt 0.062500 0.250000
vt 0.000000 0.250000
vt 0.000000 0.000000
vt 0.025760 0.000000
vt 0.000000 0.250000
vt 0.062500 0.250000
vt 0.062500 0.000000
vt 0.000000 0.250000
vt 0.000000 0.000000
vt 0.125000 0.000000
vt 0.125000 0.250000
vt 0.000000 0.000000
vt 0.116310 0.000000
vt 0.000000 0.250000
vt 0.125000 0.250000
vt 0.125000 0.000000
vt 0.000000 0.000000
vt 0.116320 0.000000
vt 0.000000 0.250000
vt 0.125000 0.250000
vt 0.125000 0.000000
vt 0.125000 0.250000
vt 0.035840 0.000000
vt 0.125000 0.000000
vt 0.000000 0.250000
vt 0.000000 0.000000
vt 0.062500 0.000000
vt 0.062500 0.250000
vt 0.000000 0.000000
vt 0.045100 0.000000
vt 0.000000 0.250000
vt 0.062500 0.250000
vt 0.062500 0.000000
vt 0.000000 0.000000
vt 0.000000 0.250000
vn -0.8801 0.4748 0.0000
vn -0.4715 -0.8818 0.0000
vn -0.4715 -0.8819 0.0000
vn 0.4719 0.8817 0.0000
vn 0.4718 0.8817 0.0000
vn 0.8806 -0.4738 0.0000
vn 0.8807 -0.4737 0.0000
vn 0.8807 -0.4736 -0.0000
s off
f 1/1/1 2/2/1 3/3/1
f 4/4/1 1/1/1 3/3/1
f 5/5/1 6/6/1 7/7/1
f 8/8/1 6/6/1 9/9/1
f 7/7/1 6/6/1 8/8/1
f 10/10/2 11/11/2 12/12/2
f 10/10/2 12/12/2 13/13/2
f 14/14/3 15/15/3 16/16/3
f 17/17/3 15/15/3 18/18/3
f 16/16/3 15/15/3 17/17/3
f 19/19/4 20/20/4 21/21/4
f 22/22/4 20/20/4 23/23/4
f 21/21/5 20/20/5 22/22/5
f 27/24/5 25/25/5 28/26/5
f 29/27/6 30/28/6 31/29/6
f 29/27/7 31/29/7 32/30/7
f 33/31/7 34/32/7 35/33/7
f 36/34/7 34/32/7 37/35/7
f 35/33/8 34/32/8 36/34/8
s 1
f 24/36/4 25/25/4 26/37/4
f 26/37/4 25/25/4 27/24/4
