# Blender v3.0.1 OBJ File: 'rockerfeller_plaza.blend'
# www.blender.org
o geometryt000010000010000110010110000110000110100100000010st33
v 675.480896 -297.627563 930.577698
v 681.410767 -300.860168 930.577698
v 681.410767 -300.860168 986.691040
v 675.480896 -297.627563 986.691040
v 683.219360 -301.846069 930.577698
v 684.701904 -302.654266 930.577698
v 684.701904 -302.654266 986.691040
v 683.219360 -301.846069 986.691040
v 686.510376 -303.640167 986.691040
v 686.510376 -303.640167 930.577698
v 687.992859 -304.448364 930.577698
v 687.992859 -304.448364 986.691040
v 689.801514 -305.434265 986.691040
v 689.801514 -305.434265 930.577698
v 691.283997 -306.242371 930.577698
v 691.283997 -306.242371 986.691040
v 693.092590 -307.228363 930.577698
v 699.022461 -310.460968 930.577698
v 699.022461 -310.460968 986.691040
v 693.092590 -307.228363 986.691040
v 676.151367 -295.677185 930.577698
v 675.343079 -297.159576 930.577698
v 675.343079 -297.159576 986.691040
v 676.151367 -295.677185 986.691040
v 680.476990 -287.743469 986.691040
v 680.476990 -287.743469 930.577698
v 677.243958 -293.673065 930.577698
v 677.243958 -293.673065 986.691040
v 682.377869 -284.256989 930.577698
v 681.569702 -285.739380 930.577698
v 681.569702 -285.739380 986.691040
v 682.377869 -284.256989 986.691040
v 685.671509 -285.663269 986.691040
v 685.671509 -285.663269 930.577698
v 684.189758 -284.853790 930.577698
v 684.189758 -284.853790 986.691040
v 693.551575 -289.959869 930.577698
v 687.621216 -286.728088 930.577698
v 687.621216 -286.728088 986.691040
v 693.551575 -289.959869 986.691040
v 696.400574 -291.512482 930.577698
v 694.917969 -290.704468 930.577698
v 694.917969 -290.704468 986.691040
v 696.400574 -291.512482 986.691040
v 699.249573 -293.064972 986.691040
v 699.249573 -293.064972 930.577698
v 697.766968 -292.257080 930.577698
v 697.766968 -292.257080 986.691040
v 702.098572 -294.617584 986.691040
v 702.098572 -294.617584 930.577698
v 700.615967 -293.809692 930.577698
v 700.615967 -293.809692 986.691040
v 709.395264 -298.593964 930.577698
v 703.464966 -295.362183 930.577698
v 703.464966 -295.362183 986.691040
v 709.395264 -298.593964 986.691040
v 699.490601 -310.323181 930.577698
v 700.299072 -308.840881 930.577698
v 700.299072 -308.840881 986.691040
v 699.490601 -310.323181 986.691040
v 700.943298 -307.659790 986.691040
v 700.943298 -307.659790 930.577698
v 701.751770 -306.177490 930.577698
v 701.751770 -306.177490 986.691040
v 702.395996 -304.996368 930.577698
v 703.204468 -303.514069 930.577698
v 703.204468 -303.514069 986.691040
v 702.395996 -304.996368 986.691040
v 703.848694 -302.332977 930.577698
v 704.657166 -300.850677 930.577698
v 704.657166 -300.850677 986.691040
v 703.848694 -302.332977 986.691040
v 705.585205 -300.964081 986.691040
v 705.585205 -300.964081 930.577698
v 707.067261 -301.772888 930.577698
v 707.067261 -301.772888 986.691040
v 708.360474 -301.215576 930.577698
v 709.167969 -299.732788 930.577698
v 709.167969 -299.732788 986.691040
v 708.360474 -301.215576 986.691040
vt 0.000000 0.000000
vt 1.333330 0.000000
vt 1.333330 17.000000
vt 0.000000 17.000000
vt 0.000000 0.000000
vt 0.333330 0.000000
vt 0.333330 17.000000
vt 0.000000 17.000000
vt 0.000000 17.000000
vt 0.000000 0.000000
vt 0.333330 0.000000
vt 0.333330 17.000000
vt 0.000000 17.000000
vt 0.000000 0.000000
vt 0.333330 0.000000
vt 0.333330 17.000000
vt 0.000000 0.000000
vt 1.333330 0.000000
vt 1.333330 17.000000
vt 0.000000 17.000000
vt 0.000000 0.000000
vt 0.333330 0.000000
vt 0.333330 17.000000
vt 0.000000 17.000000
vt 0.000000 17.000000
vt 0.000000 0.000000
vt 1.333330 0.000000
vt 1.333330 17.000000
vt 0.000000 0.000000
vt 0.333330 0.000000
vt 0.333330 17.000000
vt 0.000000 17.000000
vt 0.000000 17.000000
vt 0.000000 0.000000
vt 0.333330 0.000000
vt 0.333330 17.000000
vt 0.000000 0.000000
vt 1.333330 0.000000
vt 1.333330 17.000000
vt 0.000000 17.000000
vt 0.000000 17.000000
vt 0.000000 0.000000
vt 0.333330 0.000000
vt 0.333330 17.000000
vt 0.000000 17.000000
vt 0.000000 0.000000
vt 0.333330 0.000000
vt 0.333330 17.000000
vt 0.000000 0.000000
vt 1.333330 0.000000
vt 1.333330 17.000000
vt 0.000000 17.000000
vt 0.000000 0.000000
vt 0.333330 0.000000
vt 0.333330 17.000000
vt 0.000000 17.000000
vt 0.000000 17.000000
vt 0.000000 0.000000
vt 0.333330 0.000000
vt 0.333330 17.000000
vt 0.000000 0.000000
vt 0.333330 0.000000
vt 0.333330 17.000000
vt 0.000000 17.000000
vt 0.000000 0.000000
vt 0.333330 0.000000
vt 0.333330 17.000000
vt 0.000000 17.000000
vt 0.000000 17.000000
vt 0.000000 0.000000
vt 0.333330 0.000000
vt 0.333330 17.000000
vt 0.000000 0.000000
vt 0.333330 0.000000
vt 0.333330 17.000000
vt 0.000000 17.000000
vt 0.000000 0.000000
vt 0.333330 0.000000
vt 0.333330 17.000000
vt 0.000000 17.000000
vn -0.4786 -0.8780 0.0000
vn -0.4787 -0.8780 0.0000
vn -0.8780 0.4787 0.0000
vn 0.4794 0.8776 0.0000
vn 0.4785 0.8781 0.0000
vn 0.4784 0.8781 0.0000
vn 0.8779 -0.4788 0.0000
vn -0.4790 -0.8778 0.0000
vn 0.8782 -0.4783 0.0000
vn 0.4786 0.8781 0.0000
vn 0.4786 0.8780 0.0000
s off
f 1/1/1 2/2/1 3/3/1
f 4/4/1 1/1/1 3/3/1
f 5/5/1 6/6/1 7/7/1
f 8/8/2 5/5/2 7/7/2
f 9/9/2 10/10/2 11/11/2
f 9/9/2 11/11/2 12/12/2
f 13/13/1 14/14/1 15/15/1
f 13/13/1 15/15/1 16/16/1
f 17/17/1 18/18/1 19/19/1
f 20/20/1 17/17/1 19/19/1
f 21/21/3 22/22/3 23/23/3
f 24/24/3 21/21/3 23/23/3
f 25/25/3 26/26/3 27/27/3
f 25/25/3 27/27/3 28/28/3
f 29/29/3 30/30/3 31/31/3
f 32/32/3 29/29/3 31/31/3
f 33/33/4 34/34/4 35/35/4
f 33/33/4 35/35/4 36/36/4
f 37/37/5 38/38/5 39/39/5
f 40/40/5 37/37/5 39/39/5
f 45/41/5 46/42/5 47/43/5
f 45/41/6 47/43/6 48/44/6
f 49/45/5 50/46/5 51/47/5
f 49/45/6 51/47/6 52/48/6
f 53/49/5 54/50/5 55/51/5
f 56/52/5 53/49/5 55/51/5
f 57/53/7 58/54/7 59/55/7
f 60/56/7 57/53/7 59/55/7
f 61/57/7 62/58/7 63/59/7
f 61/57/7 63/59/7 64/60/7
f 65/61/7 66/62/7 67/63/7
f 68/64/7 65/61/7 67/63/7
f 69/65/7 70/66/7 71/67/7
f 72/68/7 69/65/7 71/67/7
f 73/69/8 74/70/8 75/71/8
f 73/69/8 75/71/8 76/72/8
f 77/73/9 78/74/9 79/75/9
f 80/76/9 77/73/9 79/75/9
s 1
f 41/77/5 42/78/5 43/79/10
f 44/80/11 41/77/5 43/79/10
