# Blender v3.0.1 OBJ File: 'rockerfeller_plaza.blend'
# www.blender.org
o geometryt000010000010000110010110000110000110100000110110st59_U
v 1146.306519 -158.521606 739.444702
v 1170.457031 -170.956711 739.444702
v 1170.457031 -170.956711 817.177734
v 1146.306519 -158.521606 817.177734
v 1153.782837 -141.784210 739.444702
v 1145.946411 -157.606506 739.444702
v 1145.946411 -157.606506 817.177734
v 1153.782837 -141.784210 817.177734
v 1178.854004 -154.263214 739.444702
v 1154.822754 -141.599106 739.444702
v 1154.822754 -141.599106 817.177734
v 1178.854004 -154.263214 817.177734
v 1171.337402 -170.835815 817.177734
v 1171.337402 -170.835815 739.444702
v 1179.373535 -155.114014 739.444702
v 1179.373535 -155.114014 817.177734
vt 0.000000 0.000000
vt 6.666670 0.000000
vt 6.666670 22.000000
vt 0.000000 22.000000
vt 0.000000 0.000000
vt 4.333330 0.000000
vt 4.333330 22.000000
vt 0.000000 22.000000
vt 0.000000 0.000000
vt 6.666670 0.000000
vt 6.666670 22.000000
vt 0.000000 22.000000
vt 0.000000 22.000000
vt 0.000000 0.000000
vt 4.333330 0.000000
vt 4.333330 22.000000
vn -0.4578 -0.8891 0.0000
vn -0.8961 0.4438 0.0000
vn 0.4662 0.8847 0.0000
vn 0.8904 -0.4551 0.0000
s off
f 1/1/1 2/2/1 3/3/1
f 4/4/1 1/1/1 3/3/1
f 5/5/2 6/6/2 7/7/2
f 8/8/2 5/5/2 7/7/2
f 9/9/3 10/10/3 11/11/3
f 12/12/3 9/9/3 11/11/3
f 13/13/4 14/14/4 15/15/4
f 13/13/4 15/15/4 16/16/4
