# Blender v3.0.1 OBJ File: 'rockerfeller_plaza.blend'
# www.blender.org
o geometryt000010000010000110010110000110000110100000110010st33_4
v 1123.574463 -108.659836 495.527893
v 1123.574463 -108.659836 464.833588
v 1129.571045 -111.960442 464.833588
v 1129.571045 -111.960442 495.527893
v 1124.274658 -106.515236 495.180725
v 1131.767212 -93.059616 464.833588
v 1123.442139 -108.010338 464.833588
v 1124.527954 -106.060440 495.527893
v 1126.772095 -102.030037 501.924561
v 1127.604736 -100.534943 505.296448
v 1129.269653 -97.544830 512.040283
v 1130.934692 -94.554688 518.784058
v 1131.767212 -93.059616 525.527893
v 1123.442139 -108.010338 495.180725
v 1124.274658 -106.515236 495.527893
v 1124.527954 -106.060440 501.527893
v 1126.420044 -102.662437 501.527893
v 1126.420044 -102.662437 501.924561
v 1126.772095 -102.030037 505.296448
v 1127.604736 -100.534943 507.527893
v 1127.762939 -100.250740 507.527893
v 1127.762939 -100.250740 512.040283
v 1129.269653 -97.544830 513.527893
v 1129.480957 -97.165352 513.527893
v 1129.480957 -97.165352 518.784058
v 1130.934692 -94.554688 525.527893
v 1124.907837 -106.270241 501.527893
v 1124.907837 -106.270241 495.527893
v 1130.268311 -109.229340 495.527893
v 1130.900269 -109.578239 501.527893
v 1130.900269 -109.578239 495.527893
v 1126.797852 -102.871338 507.527893
v 1126.797852 -102.871338 501.527893
v 1132.286621 -105.905136 501.527893
v 1132.788574 -106.182640 507.527893
v 1132.788574 -106.182640 501.527893
v 1128.140625 -100.459137 507.527893
v 1133.734863 -103.547440 507.527893
v 1128.140625 -100.459137 513.527893
v 1134.133057 -103.767242 513.527893
v 1134.133057 -103.767242 507.527893
v 1129.857056 -97.373230 519.527893
v 1129.857056 -97.373230 513.527893
v 1135.527832 -100.507637 513.527893
v 1135.847778 -100.684540 519.527893
v 1135.847778 -100.684540 513.527893
v 1130.828735 -112.653839 507.527893
v 1130.828735 -112.653839 464.833588
v 1154.800415 -125.882637 464.833588
v 1154.800415 -125.882637 507.527893
v 1131.248535 -109.838737 495.527893
v 1130.415649 -111.333641 495.527893
v 1130.415649 -111.333641 506.327881
v 1131.248535 -109.838737 506.327881
v 1130.949585 -95.406219 519.527893
v 1136.692017 -98.566879 519.527893
v 1130.949585 -95.406219 525.527893
v 1136.946167 -98.706757 525.527893
v 1136.946167 -98.706757 519.527893
v 1131.838379 -110.094536 507.527893
v 1147.022949 -118.434441 507.527893
v 1131.838379 -110.094536 513.527893
v 1154.336792 -122.451340 513.527893
v 1152.169067 -121.260841 507.527893
v 1154.336792 -122.451340 507.527893
v 1135.968018 -101.361641 524.861206
v 1136.799805 -99.866219 521.527893
v 1135.968018 -101.361641 521.527893
v 1136.799805 -99.866219 531.527893
v 1134.513184 -103.977036 519.527893
v 1135.968018 -101.361641 514.861206
v 1134.513184 -103.977036 524.861206
v 1134.304321 -104.352539 514.861206
v 1134.304321 -104.352539 518.194580
v 1134.304321 -104.352539 508.194550
v 1133.472534 -105.848038 511.527893
v 1133.472534 -105.848038 518.194580
v 1132.640625 -107.343437 508.194550
v 1131.808838 -108.838936 501.527893
v 1132.640625 -107.343437 501.527893
v 1131.808838 -108.838936 511.527893
v 1134.304321 -104.352539 519.527893
v 1135.968018 -101.361641 531.527893
v 1136.227783 -100.894539 531.527893
v 1135.522949 -86.107376 542.027893
v 1135.522949 -86.107376 464.833588
v 1132.271240 -92.130539 464.833588
v 1132.271240 -92.130539 542.027893
v 1137.379517 -95.580742 525.527893
v 1132.390381 -92.826546 542.027893
v 1132.390381 -92.826546 525.527893
v 1138.185059 -96.025436 525.527893
v 1138.382812 -96.134590 542.027893
v 1138.382812 -96.134590 525.527893
v 1133.826050 -106.753937 513.527893
v 1151.829834 -116.644341 513.527893
v 1133.826050 -106.753937 519.527893
v 1153.323730 -117.465042 519.527893
v 1153.323730 -117.465042 513.527893
v 1134.882446 -104.177437 525.527893
v 1134.882446 -104.177437 519.527893
v 1143.906616 -109.074638 519.527893
v 1152.930786 -113.971939 525.527893
v 1151.537842 -113.215942 519.527893
v 1152.930786 -113.971939 519.527893
v 1140.994873 -88.465820 464.833588
v 1136.488892 -86.005989 464.833588
v 1136.488892 -86.005989 542.027893
v 1140.994873 -88.465820 542.027893
v 1136.671753 -102.026741 531.527893
v 1136.671753 -102.026741 525.527893
v 1151.086304 -109.902840 525.527893
v 1151.688599 -110.232040 531.527893
v 1151.688599 -110.232040 525.527893
v 1138.462646 -96.883652 525.527893
v 1137.626831 -98.376846 525.527893
v 1137.626831 -98.376846 531.527893
v 1138.462646 -96.883652 531.527893
v 1139.396240 -96.690468 542.027893
v 1139.396240 -96.690468 531.527893
v 1149.004028 -101.940437 531.527893
v 1149.907959 -102.434341 542.027893
v 1149.907959 -102.434341 531.527893
v 1143.099121 -86.307037 464.833588
v 1142.273560 -87.805946 464.833588
v 1142.273560 -87.805946 542.027893
v 1143.099121 -86.307037 542.027893
v 1155.986816 -92.013649 531.000122
v 1158.983643 -93.666786 464.833588
v 1145.498291 -86.227669 464.833588
v 1158.983643 -93.666786 531.000122
v 1145.498291 -86.227669 542.027893
v 1148.980957 -88.148811 542.027893
v 1155.986816 -92.013649 542.027893
v 1150.978760 -101.983940 531.527893
v 1155.614746 -93.577797 531.527893
v 1150.978760 -101.983940 542.027893
v 1155.937256 -92.993248 542.027893
v 1155.937256 -92.993248 531.527893
v 1152.742188 -110.271538 531.527893
v 1152.742188 -110.271538 525.527893
v 1160.480957 -96.227142 525.527893
v 1161.000610 -95.283936 531.527893
v 1161.000610 -95.283936 525.527893
v 1153.760254 -113.334641 519.527893
v 1162.370850 -97.715561 519.527893
v 1153.760254 -113.334641 525.527893
v 1162.847900 -96.850182 525.527893
v 1162.847900 -96.850182 519.527893
v 1154.310669 -117.233040 519.527893
v 1154.310669 -117.233040 513.527893
v 1164.195801 -99.293297 513.527893
v 1165.046631 -97.749107 519.527893
v 1165.046631 -97.749107 513.527893
v 1155.333984 -121.957840 513.527893
v 1155.333984 -121.957840 507.527893
v 1166.630127 -101.454941 507.527893
v 1167.720459 -99.475800 513.527893
v 1167.720459 -99.475800 507.527893
v 1155.962891 -125.849640 464.833588
v 1169.958496 -100.346642 464.833588
v 1169.958496 -100.346642 507.527893
v 1155.962891 -125.849640 507.527893
v 1163.006836 -95.847336 464.833588
v 1161.530151 -95.037712 464.833588
v 1161.530151 -95.037712 525.527893
v 1163.006836 -95.847336 525.527893
v 1165.585449 -97.270889 511.714417
v 1167.084961 -98.095222 464.833588
v 1164.085815 -96.446548 464.833588
v 1167.084961 -98.095222 511.714417
v 1164.085815 -96.446548 519.527893
v 1165.374146 -97.154762 519.527893
v 1165.374146 -97.154762 513.527893
v 1165.585449 -97.270889 513.527893
v 1169.940796 -99.661797 507.527893
v 1169.940796 -99.661797 464.833588
v 1168.462646 -98.843529 464.833588
v 1168.462646 -98.843529 507.527893
vt 0.000000 1.750000
vt 0.000000 0.000000
vt 0.666670 0.000000
vt 0.666670 1.750000
vt 1.500000 2.250000
vt 0.000000 0.000000
vt 1.666670 0.000000
vt 1.449300 2.275740
vt 1.000000 2.750000
vt 0.833330 3.000000
vt 0.500000 3.500000
vt 0.166670 4.000000
vt 0.000000 4.500000
vt 1.666670 2.250000
vt 1.500000 2.275740
vt 1.449300 2.720590
vt 1.070500 2.720590
vt 1.070500 2.750000
vt 1.000000 3.000000
vt 0.833330 3.165440
vt 0.801640 3.165440
vt 0.801640 3.500000
vt 0.500000 3.610300
vt 0.457700 3.610300
vt 0.457700 4.000000
vt 0.166670 4.500000
vt 0.666670 0.500000
vt 0.610800 0.000000
vt 0.666670 0.000000
vt 0.000000 0.500000
vt 0.000000 0.000000
vt 0.622370 0.000000
vt 0.000000 0.500000
vt 0.666670 0.500000
vt 0.666670 0.000000
vt 0.000000 0.500000
vt 0.000000 0.000000
vt 0.631060 0.000000
vt 0.666670 0.500000
vt 0.666670 0.000000
vt 0.000000 0.000000
vt 0.166670 0.000000
vt 0.166670 0.750000
vt 0.000000 0.750000
vt 0.000000 0.000000
vt 0.638410 0.000000
vt 0.000000 0.500000
vt 0.666670 0.500000
vt 0.666670 0.000000
vt 0.000000 0.000000
vt 1.687290 0.000000
vt 0.000000 0.500000
vt 2.500000 0.500000
vt 2.259140 0.000000
vt 0.000000 2.250000
vt 0.000000 1.500000
vt 0.166670 1.750000
vt 0.458150 1.350000
vt 0.166670 1.500000
vt 0.166670 1.000000
vt 0.458150 1.750000
vt 0.500000 1.000000
vt 0.500000 1.250000
vt 0.500000 0.500000
vt 0.666670 0.750000
vt 0.666670 1.250000
vt 1.000000 0.000000
vt 0.833330 0.500000
vt 0.833330 0.000000
vt 1.000000 0.750000
vt 0.500000 1.350000
vt 0.166670 2.250000
vt 0.114610 2.250000
vt 0.555050 0.000000
vt 0.000000 1.000000
vt 0.000000 0.000000
vt 0.644670 0.000000
vt 0.666670 1.000000
vt 0.666670 0.000000
vt 0.000000 0.000000
vt 2.000660 0.000000
vt 0.000000 0.250000
vt 2.166670 0.250000
vt 2.166670 0.000000
vt 0.000000 0.500000
vt 0.000000 0.000000
vt 1.000000 0.000000
vt 2.000000 0.500000
vt 1.845640 0.000000
vt 2.000000 0.000000
vt 0.000000 0.000000
vt 0.500000 0.000000
vt 0.500000 4.500000
vt 0.000000 4.500000
vt 0.000000 0.500000
vt 0.000000 0.000000
vt 1.599810 0.000000
vt 1.666670 0.500000
vt 1.666670 0.000000
vt 0.000000 0.000000
vt 0.166670 0.000000
vt 0.166670 0.500000
vt 0.000000 0.500000
vt 0.000000 0.500000
vt 0.000000 0.000000
vt 1.066350 0.000000
vt 1.166670 0.500000
vt 1.166670 0.000000
vt 0.000000 0.000000
vt 0.166670 0.000000
vt 0.166670 4.500000
vt 0.000000 4.500000
vt 0.333330 4.500000
vt 0.000000 0.000000
vt 1.500000 0.000000
vt 0.000000 4.500000
vt 1.500000 5.250000
vt 1.112630 5.250000
vt 0.333330 5.250000
vt 0.000000 0.000000
vt 0.934980 0.000000
vt 0.000000 0.500000
vt 1.000000 0.500000
vt 1.000000 0.000000
vt 0.000000 0.500000
vt 0.000000 0.000000
vt 1.561780 0.000000
vt 1.666670 0.500000
vt 1.666670 0.000000
vt 0.000000 0.000000
vt 1.737090 0.000000
vt 0.000000 0.500000
vt 1.833330 0.500000
vt 1.833330 0.000000
vt 0.000000 0.250000
vt 0.000000 0.000000
vt 1.994950 0.000000
vt 2.166670 0.250000
vt 2.166670 0.000000
vt 0.000000 0.500000
vt 0.000000 0.000000
vt 2.279920 0.000000
vt 2.500000 0.500000
vt 2.500000 0.000000
vt 0.000000 0.000000
vt 2.833330 0.000000
vt 2.833330 3.500000
vt 0.000000 3.500000
vt 0.000000 0.000000
vt 0.166670 0.000000
vt 0.166670 4.000000
vt 0.000000 4.000000
vt 0.166670 3.000000
vt 0.000000 0.000000
vt 0.333330 0.000000
vt 0.000000 3.000000
vt 0.333330 3.500000
vt 0.190150 3.500000
vt 0.190150 3.116050
vt 0.166670 3.116050
vt 0.000000 3.500000
vt 0.000000 0.000000
vt 0.166670 0.000000
vt 0.166670 3.500000
vt 0.000000 0.500000
vt 0.000000 0.000000
vt 0.596360 0.000000
vt 0.666670 0.500000
vt 0.666670 0.000000
vt 0.000000 0.000000
vt 0.000000 3.500000
vt 0.000000 0.000000
vt 2.666670 0.000000
vt 2.666670 3.500000
vt 2.500000 0.000000
vt 0.000000 4.500000
vt 0.000000 0.000000
vt 0.666670 0.000000
vt 0.666670 4.500000
vn -0.4822 -0.8761 0.0000
vn -0.8737 0.4865 0.0000
vn -0.8736 0.4866 0.0000
vn -0.8737 0.4864 -0.0000
vn -0.8737 0.4865 0.0001
vn -0.8739 0.4860 0.0000
vn -0.8735 0.4868 -0.0000
vn -0.4838 -0.8752 0.0000
vn -0.4833 -0.8755 0.0000
vn -0.4832 -0.8755 0.0000
vn -0.4836 -0.8753 0.0000
vn -0.4823 -0.8760 0.0000
vn -0.4814 -0.8765 0.0000
vn -0.8739 0.4861 0.0000
vn -0.8739 0.4862 0.0000
vn -0.8740 0.4858 0.0000
vn -0.4834 -0.8754 0.0000
vn -0.4815 -0.8765 0.0000
vn -0.4815 -0.8764 0.0000
vn -0.4770 -0.8789 0.0000
vn 0.4791 0.8777 0.0000
vn 0.4792 0.8777 0.0000
vn -0.4795 -0.8775 0.0000
vn -0.4796 -0.8775 0.0000
vn -0.8726 0.4884 0.0000
vn -0.8726 0.4885 0.0000
vn -0.8760 0.4824 0.0000
vn -0.8759 0.4825 0.0000
vn 0.4830 0.8756 0.0000
vn 0.8757 -0.4829 0.0000
vn 0.8758 -0.4826 0.0000
vn 0.8758 -0.4827 0.0000
vn 0.8757 -0.4828 0.0000
vn 0.8759 -0.4825 0.0000
vn 0.8759 -0.4826 0.0000
vn 0.8767 -0.4811 0.0000
vn 0.4807 0.8769 0.0000
vn 0.4808 0.8768 0.0000
vn 0.4817 0.8763 -0.0000
vn 0.4817 0.8764 0.0000
vn 0.4818 0.8763 -0.0000
vn 0.4814 0.8765 0.0000
vn 0.4843 0.8749 0.0000
vn -0.8800 0.4751 0.0000
s off
f 1/1/1 2/2/1 3/3/1
f 1/1/1 3/3/1 4/4/1
f 5/5/2 6/6/2 7/7/2
f 8/8/3 6/6/3 5/5/3
f 9/9/2 6/6/2 8/8/2
f 10/10/2 6/6/2 9/9/2
f 11/11/4 6/6/4 10/10/4
f 12/12/2 6/6/2 11/11/2
f 13/13/3 6/6/3 12/12/3
f 5/5/2 7/7/2 14/14/2
f 15/15/3 8/8/3 5/5/3
f 16/16/2 17/17/2 8/8/2
f 17/17/5 9/9/5 8/8/5
f 18/18/4 9/9/4 17/17/4
f 19/19/3 10/10/3 9/9/3
f 20/20/4 21/21/4 10/10/4
f 21/21/3 11/11/3 10/10/3
f 22/22/2 11/11/2 21/21/2
f 23/23/6 24/24/6 11/11/6
f 24/24/7 12/12/7 11/11/7
f 25/25/2 12/12/2 24/24/2
f 26/26/2 13/13/2 12/12/2
f 35/27/8 34/28/8 36/29/8
f 35/27/8 32/30/8 34/28/8
f 37/31/9 38/32/9 39/33/9
f 40/34/10 38/32/10 41/35/10
f 39/33/9 38/32/9 40/34/9
f 42/36/8 43/37/8 44/38/8
f 45/39/11 44/38/11 46/40/11
f 45/39/8 42/36/8 44/38/8
f 51/41/3 52/42/3 53/43/3
f 54/44/7 51/41/7 53/43/7
f 55/45/1 56/46/1 57/47/1
f 58/48/12 56/46/12 59/49/12
f 57/47/1 56/46/1 58/48/1
f 60/50/13 61/51/13 62/52/13
f 63/53/13 61/51/13 64/54/13
f 62/52/13 61/51/13 63/53/13
f 69/55/14 67/56/14 66/57/14
f 70/58/14 68/59/14 71/60/14
f 72/61/14 68/59/14 70/58/14
f 66/57/14 68/59/14 72/61/14
f 73/62/15 74/63/15 71/60/15
f 73/62/6 75/64/6 76/65/6
f 76/65/6 77/66/6 73/62/6
f 73/62/6 77/66/6 74/63/6
f 79/67/14 78/68/14 80/69/14
f 81/70/14 78/68/14 79/67/14
f 82/71/16 70/58/16 74/63/16
f 83/72/15 84/73/15 66/57/15
f 89/74/9 90/75/9 91/76/9
f 92/77/10 93/78/10 89/74/10
f 90/75/9 89/74/9 93/78/9
f 94/79/17 93/78/17 92/77/17
f 95/80/18 96/81/18 97/82/18
f 98/83/19 96/81/19 99/84/19
f 97/82/18 96/81/18 98/83/18
f 100/85/20 101/86/20 102/87/20
f 103/88/20 102/87/20 104/89/20
f 100/85/20 102/87/20 103/88/20
f 105/90/20 103/88/20 104/89/20
f 106/91/21 107/92/21 108/93/21
f 109/94/22 106/91/22 108/93/22
f 110/95/23 111/96/23 112/97/23
f 113/98/24 112/97/24 114/99/24
f 113/98/23 110/95/23 112/97/23
f 115/100/25 116/101/25 117/102/25
f 118/103/26 115/100/26 117/102/26
f 119/104/23 120/105/23 121/106/23
f 122/107/24 121/106/24 123/108/24
f 122/107/23 119/104/23 121/106/23
f 124/109/27 125/110/27 126/111/27
f 127/112/28 124/109/28 126/111/28
f 128/113/29 129/114/29 130/115/29
f 131/116/29 129/114/29 128/113/29
f 132/117/29 128/113/29 130/115/29
f 133/118/29 128/113/29 132/117/29
f 134/119/29 128/113/29 133/118/29
f 135/120/30 136/121/30 137/122/30
f 138/123/30 136/121/30 139/124/30
f 137/122/30 136/121/30 138/123/30
f 140/125/31 141/126/31 142/127/31
f 143/128/32 142/127/32 144/129/32
f 145/130/33 146/131/33 147/132/33
f 148/133/33 146/131/33 149/134/33
f 147/132/33 146/131/33 148/133/33
f 150/135/31 151/136/31 152/137/31
f 153/138/34 152/137/34 154/139/34
f 153/138/31 150/135/31 152/137/31
f 155/140/35 156/141/35 157/142/35
f 158/143/34 157/142/34 159/144/34
f 158/143/35 155/140/35 157/142/35
f 160/145/36 161/146/36 162/147/36
f 163/148/36 160/145/36 162/147/36
f 164/149/37 165/150/37 166/151/37
f 167/152/38 164/149/38 166/151/38
f 168/153/39 169/154/39 170/155/39
f 171/156/39 169/154/39 168/153/39
f 172/157/40 168/153/40 170/155/40
f 173/158/39 174/159/39 172/157/39
f 172/157/41 174/159/41 168/153/41
f 174/159/42 175/160/42 168/153/42
f 176/161/43 177/162/43 178/163/43
f 176/161/43 178/163/43 179/164/43
s 1
f 27/165/9 28/166/9 29/167/9
f 30/168/9 29/167/9 31/169/9
f 30/168/9 27/165/9 29/167/9
f 32/30/8 33/170/8 34/28/8
f 47/171/10 48/172/10 49/173/10
f 47/171/10 49/173/10 50/174/10
f 65/175/13 63/53/13 64/54/13
f 66/57/14 67/56/14 68/59/14
f 74/63/6 70/58/6 71/60/6
f 75/64/14 78/68/14 76/65/14
f 78/68/14 81/70/14 76/65/14
f 84/73/14 69/55/14 66/57/14
f 85/176/44 86/177/44 87/178/44
f 85/176/44 87/178/44 88/179/44
f 143/128/31 140/125/31 142/127/31
