# Blender v3.0.1 OBJ File: 'rockerfeller_plaza.blend'
# www.blender.org
o geometryt000010000010000110010110000110000110100000010100st232
v 784.671326 -107.775085 146.623932
v 774.226501 -111.893684 146.623932
v 787.595154 -87.046341 146.623932
v 779.383301 -117.595688 146.623932
v 773.012024 -114.161583 146.623932
v 793.412903 -91.519318 146.623932
v 793.974792 -90.480255 146.623932
v 774.226501 -111.893684 165.623932
v 773.012024 -114.161583 165.623932
v 779.383301 -117.595688 165.623932
v 784.671326 -107.775085 165.623932
v 793.412903 -91.519318 165.623932
v 787.595154 -87.046341 165.623932
v 793.974792 -90.480255 165.623932
vt 0.183720 0.076120
vt 0.194540 0.054970
vt 0.145070 0.082500
vt 0.203270 0.065230
vt 0.199050 0.052470
vt 0.151360 0.094120
vt 0.149290 0.095280
vt 0.194540 0.054970
vt 0.199050 0.052470
vt 0.203270 0.065230
vt 0.183720 0.076120
vt 0.151360 0.094120
vt 0.145070 0.082500
vt 0.149290 0.095280
vn 0.0000 0.0000 -1.0000
vn 0.0000 0.0000 1.0000
s off
f 1/1/1 2/2/1 3/3/1
f 4/4/1 2/2/1 1/1/1
f 5/5/1 2/2/1 4/4/1
f 6/6/1 3/3/1 7/7/1
f 6/6/1 1/1/1 3/3/1
f 8/8/2 9/9/2 10/10/2
f 8/8/2 10/10/2 11/11/2
f 12/12/2 13/13/2 11/11/2
f 13/13/2 8/8/2 11/11/2
f 14/14/2 13/13/2 12/12/2
