# Blender v3.0.1 OBJ File: 'rockerfeller_plaza.blend'
# www.blender.org
o geometryt000010000010000110010110000110000110100000100010st56
v 735.139160 -223.069855 383.356171
v 736.124695 -223.602356 383.356171
v 721.878601 -250.025253 383.356171
v 708.744751 -242.939560 383.356171
v 722.999268 -216.516647 383.356171
v 735.139160 -223.069855 435.256165
v 722.999268 -216.516647 435.256165
v 708.744751 -242.939560 435.256165
v 721.878601 -250.025253 435.256165
v 736.124695 -223.602356 435.256165
vt 0.331250 0.468120
vt 0.331900 0.470100
vt 0.384510 0.440760
vt 0.375800 0.414460
vt 0.323180 0.443810
vt 0.331250 0.468120
vt 0.323180 0.443810
vt 0.375800 0.414460
vt 0.384510 0.440760
vt 0.331900 0.470100
vn 0.0000 0.0000 -1.0000
vn -0.0000 0.0000 1.0000
s off
f 1/1/1 2/2/1 3/3/1
f 1/1/1 3/3/1 4/4/1
f 5/5/1 1/1/1 4/4/1
f 6/6/2 7/7/2 8/8/2
f 9/9/2 6/6/2 8/8/2
f 10/10/2 6/6/2 9/9/2
