# Blender v3.0.1 OBJ File: 'rockerfeller_plaza.blend'
# www.blender.org
o geometryt000010000010000110010110000110000110100000010100st185
v 808.660950 -132.263687 166.978821
v 808.660950 -132.263687 148.374527
v 812.780945 -134.481888 148.374527
v 812.780945 -134.481888 166.978821
v 810.082092 -128.312180 148.374527
v 808.606262 -131.060379 148.374527
v 808.606262 -131.060379 166.978821
v 810.082092 -128.312180 166.978821
v 811.419983 -123.611282 166.978821
v 811.419983 -123.611282 148.374527
v 809.944458 -126.359688 148.374527
v 809.944458 -126.359688 166.978821
v 812.405273 -119.641884 166.978821
v 812.459900 -119.540184 148.374527
v 810.982300 -122.287483 148.374527
v 812.459900 -119.540184 166.978821
v 810.982300 -122.287483 166.978821
v 814.205688 -116.294388 166.978821
v 814.205688 -116.294388 148.374527
v 812.728027 -119.041687 148.374527
v 812.728027 -119.041687 166.978821
v 815.212585 -114.422287 166.978821
v 815.212585 -114.422287 148.374527
v 814.473755 -115.795883 148.374527
v 814.473755 -115.795883 166.978821
v 816.219543 -112.550087 166.978821
v 816.219543 -112.550087 148.374527
v 815.480713 -113.923683 148.374527
v 815.480713 -113.923683 166.978821
v 817.965271 -109.304283 148.374527
v 816.487671 -112.051582 148.374527
v 816.487671 -112.051582 166.978821
v 817.965271 -109.304283 166.978821
v 819.710999 -106.058388 148.374527
v 818.233398 -108.805687 148.374527
v 818.233398 -108.805687 166.978821
v 819.710999 -106.058388 166.978821
v 813.488037 -134.470779 148.374527
v 814.965210 -131.723190 148.374527
v 814.965210 -131.723190 166.978821
v 813.488037 -134.470779 166.978821
v 815.236389 -131.218781 148.374527
v 816.713562 -128.471283 148.374527
v 816.713562 -128.471283 166.978821
v 815.236389 -131.218781 166.978821
v 816.984741 -127.966888 148.374527
v 817.723328 -126.593086 148.374527
v 817.723328 -126.593086 166.978821
v 816.984741 -127.966888 166.978821
v 817.994507 -126.088684 148.374527
v 818.733093 -124.714882 148.374527
v 818.733093 -124.714882 166.978821
v 817.994507 -126.088684 166.978821
v 819.004272 -124.210487 166.978821
v 819.004272 -124.210487 148.374527
v 821.220032 -120.089188 148.374527
v 821.220032 -120.089188 166.978821
v 821.491211 -119.584785 148.374527
v 822.229736 -118.211082 148.374527
v 822.229736 -118.211082 166.978821
v 821.491211 -119.584785 166.978821
v 822.500977 -117.706581 148.374527
v 823.239563 -116.332886 148.374527
v 823.239563 -116.332886 166.978821
v 822.500977 -117.706581 166.978821
v 823.510742 -115.828484 166.978821
v 823.510742 -115.828484 148.374527
v 824.987854 -113.080887 148.374527
v 824.987854 -113.080887 166.978821
v 825.259094 -112.576485 166.978821
v 825.259094 -112.576485 148.374527
v 826.736206 -109.828987 148.374527
v 826.736206 -109.828987 166.978821
v 826.135620 -109.115082 166.978821
v 826.135620 -109.115082 148.374527
v 820.638428 -106.164688 148.374527
v 820.638428 -106.164688 166.978821
vt 0.000000 1.500000
vt 0.000000 0.000000
vt 0.187500 0.000000
vt 0.187500 1.500000
vt 0.000000 0.000000
vt 0.125000 0.000000
vt 0.125000 1.500000
vt 0.000000 1.500000
vt 0.000000 1.500000
vt 0.000000 0.000000
vt 0.125000 0.000000
vt 0.125000 1.500000
vt 0.004620 1.500000
vt 0.000000 0.000000
vt 0.125000 0.000000
vt 0.000000 1.500000
vt 0.125000 1.500000
vt 0.000000 1.500000
vt 0.000000 0.000000
vt 0.125000 0.000000
vt 0.125000 1.500000
vt 0.000000 1.500000
vt 0.000000 0.000000
vt 0.062500 0.000000
vt 0.062500 1.500000
vt 0.000000 1.500000
vt 0.000000 0.000000
vt 0.062500 0.000000
vt 0.062500 1.500000
vt 0.000000 0.000000
vt 0.125000 0.000000
vt 0.125000 1.500000
vt 0.000000 1.500000
vt 0.000000 0.000000
vt 0.125000 0.000000
vt 0.125000 1.500000
vt 0.000000 1.500000
vt 0.000000 0.000000
vt 0.125000 0.000000
vt 0.125000 1.500000
vt 0.000000 1.500000
vt 0.000000 0.000000
vt 0.125000 0.000000
vt 0.125000 1.500000
vt 0.000000 1.500000
vt 0.000000 0.000000
vt 0.062500 0.000000
vt 0.062500 1.500000
vt 0.000000 1.500000
vt 0.000000 0.000000
vt 0.062500 0.000000
vt 0.062500 1.500000
vt 0.000000 1.500000
vt 0.000000 1.500000
vt 0.000000 0.000000
vt 0.187500 0.000000
vt 0.187500 1.500000
vt 0.000000 0.000000
vt 0.062500 0.000000
vt 0.062500 1.500000
vt 0.000000 1.500000
vt 0.000000 0.000000
vt 0.062500 0.000000
vt 0.062500 1.500000
vt 0.000000 1.500000
vt 0.000000 1.500000
vt 0.000000 0.000000
vt 0.125000 0.000000
vt 0.125000 1.500000
vt 0.000000 1.500000
vt 0.000000 0.000000
vt 0.125000 0.000000
vt 0.125000 1.500000
vt 0.000000 1.500000
vt 0.000000 0.000000
vt 0.250000 0.000000
vt 0.250000 1.500000
vn -0.4741 -0.8805 0.0000
vn -0.8810 0.4731 0.0000
vn -0.8811 0.4730 0.0000
vn -0.8810 0.4730 0.0000
vn -0.8807 0.4737 0.0000
vn -0.8809 0.4732 -0.0000
vn -0.8806 0.4738 0.0000
vn 0.8808 -0.4735 0.0000
vn 0.8808 -0.4736 0.0000
vn 0.8807 -0.4736 0.0000
vn 0.4729 0.8811 0.0000
s off
f 1/1/1 2/2/1 3/3/1
f 1/1/1 3/3/1 4/4/1
f 5/5/2 6/6/2 7/7/2
f 8/8/2 5/5/2 7/7/2
f 9/9/3 10/10/3 11/11/3
f 9/9/4 11/11/4 12/12/4
f 13/13/5 14/14/5 15/15/5
f 16/16/6 14/14/6 13/13/6
f 13/13/5 15/15/5 17/17/5
f 18/18/5 19/19/5 20/20/5
f 18/18/5 20/20/5 21/21/5
f 22/22/5 23/23/5 24/24/5
f 22/22/5 24/24/5 25/25/5
f 26/26/7 27/27/7 28/28/7
f 26/26/5 28/28/5 29/29/5
f 30/30/5 31/31/5 32/32/5
f 33/33/5 30/30/5 32/32/5
f 34/34/5 35/35/5 36/36/5
f 37/37/5 34/34/5 36/36/5
f 38/38/8 39/39/8 40/40/8
f 41/41/8 38/38/8 40/40/8
f 42/42/8 43/43/8 44/44/8
f 45/45/8 42/42/8 44/44/8
f 46/46/9 47/47/9 48/48/9
f 49/49/8 46/46/8 48/48/8
f 50/50/9 51/51/9 52/52/9
f 53/53/8 50/50/8 52/52/8
f 54/54/9 55/55/9 56/56/9
f 54/54/8 56/56/8 57/57/8
f 58/58/8 59/59/8 60/60/8
f 61/61/8 58/58/8 60/60/8
f 62/62/10 63/63/10 64/64/10
f 65/65/8 62/62/8 64/64/8
f 66/66/8 67/67/8 68/68/8
f 66/66/8 68/68/8 69/69/8
f 70/70/9 71/71/9 72/72/9
f 70/70/8 72/72/8 73/73/8
f 74/74/11 75/75/11 76/76/11
f 74/74/11 76/76/11 77/77/11
