# Blender v3.0.1 OBJ File: 'rockerfeller_plaza.blend'
# www.blender.org
o geometryt000010000010000110010110000110000110100000110010st7
v 1209.399658 -120.682838 463.766174
v 1209.239136 -120.988136 469.752777
v 1209.399658 -120.682838 469.752777
v 1210.200073 -119.161339 463.766174
v 1209.239136 -120.988136 461.352783
v 1210.200073 -119.161339 469.752777
v 1211.762939 -116.190437 469.752777
v 1211.762939 -116.190437 463.766174
v 1212.723999 -114.363640 461.352783
v 1212.563354 -114.668938 463.766174
v 1212.563354 -114.668938 469.752777
v 1212.723999 -114.363640 469.752777
v 1209.239136 -120.988136 461.352783
v 1209.375122 -121.064240 461.352783
v 1209.375122 -121.064240 469.752777
v 1209.239136 -120.988136 469.752777
v 1216.298828 -124.704041 463.766174
v 1216.604126 -124.864540 469.752777
v 1216.298828 -124.704041 469.752777
v 1214.777100 -123.904037 463.766174
v 1216.604126 -124.864540 461.352783
v 1214.777100 -123.904037 469.752777
v 1213.750488 -123.364342 469.752777
v 1213.750488 -123.364342 463.766174
v 1212.228760 -122.564438 463.766174
v 1211.746338 -122.310837 461.352783
v 1212.228760 -122.564438 469.752777
v 1211.746338 -122.310837 469.752777
v 1211.202148 -122.024742 463.766174
v 1211.202148 -122.024742 469.752777
v 1209.680542 -121.224739 463.766174
v 1209.375122 -121.064240 461.352783
v 1209.680542 -121.224739 469.752777
v 1209.375122 -121.064240 469.752777
v 1213.029297 -114.524338 463.766174
v 1212.723999 -114.363640 469.752777
v 1213.029297 -114.524338 469.752777
v 1216.071655 -116.126038 463.766174
v 1212.723999 -114.363640 461.352783
v 1216.071655 -116.126038 469.752777
v 1218.265137 -117.280739 469.752777
v 1218.265137 -117.280739 463.766174
v 1219.733276 -118.053642 461.352783
v 1225.871216 -121.285042 463.766174
v 1225.871216 -121.285042 469.752777
v 1228.064453 -122.439735 469.752777
v 1228.064453 -122.439735 463.766174
v 1231.412231 -124.202141 461.352783
v 1231.106934 -124.041435 463.766174
v 1231.106934 -124.041435 469.752777
v 1231.412231 -124.202141 469.752777
v 1230.634766 -132.229538 463.766174
v 1230.940186 -132.389832 469.752777
v 1230.634766 -132.229538 469.752777
v 1229.112549 -131.430634 463.766174
v 1230.940186 -132.389832 461.352783
v 1229.112549 -131.430634 469.752777
v 1228.163696 -130.932632 469.752777
v 1227.577515 -130.624939 463.766174
v 1228.163696 -130.932632 461.352783
v 1227.577515 -130.624939 469.752777
v 1219.966431 -126.630241 463.766174
v 1219.966431 -126.630241 469.752777
v 1218.431396 -125.824638 469.752777
v 1218.431396 -125.824638 463.766174
v 1216.603760 -124.865341 461.352783
v 1216.909180 -125.025642 463.766174
v 1216.909180 -125.025642 469.752777
v 1216.603760 -124.865341 469.752777
v 1230.825195 -125.309242 461.352783
v 1231.411621 -124.203239 469.752777
v 1230.825195 -125.309242 469.752777
v 1231.411621 -124.203239 461.352783
v 1231.567139 -125.697838 463.766174
v 1230.825195 -125.309242 469.752777
v 1231.567139 -125.697838 469.752777
v 1233.832031 -126.883842 461.352783
v 1233.090210 -126.495338 463.766174
v 1230.825195 -125.309242 461.352783
v 1233.090210 -126.495338 469.752777
v 1233.832031 -126.883842 469.752777
v 1233.671631 -127.189240 463.766174
v 1233.832031 -126.883842 469.752777
v 1233.671631 -127.189240 469.752777
v 1232.872314 -128.711243 463.766174
v 1233.832031 -126.883842 461.352783
v 1232.872314 -128.711243 469.752777
v 1231.893555 -130.574936 469.752777
v 1231.893555 -130.574936 463.766174
v 1231.094116 -132.096939 463.766174
v 1230.933716 -132.402344 461.352783
v 1231.094116 -132.096939 469.752777
v 1230.933716 -132.402344 469.752777
vt 8.360891 2.825980
vt 8.764870 9.836071
vt 8.360891 9.836071
vt 6.347840 2.825980
vt 8.764870 0.000000
vt 6.347840 9.836071
vt 2.417030 9.836071
vt 2.417030 2.825980
vt 0.000000 0.000000
vt 0.403980 2.825980
vt 0.403980 9.836071
vt 0.000000 9.836071
vt 9.159380 2.825980
vt 9.563361 9.836071
vt 9.159380 9.836071
vt 7.146330 2.825980
vt 9.563361 0.000000
vt 7.146330 9.836071
vt 5.788210 9.836071
vt 5.788210 2.825980
vt 3.775160 2.825980
vt 3.136910 0.000000
vt 3.775160 9.836071
vt 3.136910 9.836071
vt 2.417030 9.836071
vt 2.417030 2.825980
vt 0.403980 2.825980
vt 0.000000 0.000000
vt 0.403980 9.836071
vt 0.000000 9.836071
vt 24.326469 2.825980
vt 24.730450 9.836071
vt 24.326469 9.836071
vt 20.300369 2.825980
vt 24.730450 0.000000
vt 20.300369 9.836071
vt 17.397850 9.836071
vt 17.397850 2.825980
vt 15.454990 0.000000
vt 7.332600 2.825980
vt 7.332600 9.836071
vt 4.430080 9.836071
vt 4.430080 2.825980
vt 0.000000 0.000000
vt 0.403980 2.825980
vt 0.403980 9.836071
vt 0.000000 9.836071
vt 18.555229 2.825980
vt 18.959209 9.836071
vt 18.555229 9.836071
vt 18.959209 0.000000
vt 16.542179 9.836071
vt 15.287470 9.836071
vt 16.542179 2.825980
vt 14.512230 2.825980
vt 15.287470 0.000000
vt 14.512230 9.836071
vt 4.446980 2.825980
vt 4.446980 9.836071
vt 2.417030 9.836071
vt 2.417030 2.825980
vt 0.000000 0.000000
vt 0.403980 2.825980
vt 0.403980 9.836071
vt 0.000000 9.836071
vt 2.993780 2.825980
vt 3.974520 9.836071
vt 2.993780 9.836071
vt 0.000000 0.000000
vt 3.974520 0.000000
vt 0.000000 9.836071
vt 0.980730 2.825980
vt 6.895040 2.825980
vt 7.299020 9.836071
vt 6.895040 9.836071
vt 4.881990 2.825980
vt 7.299020 0.000000
vt 4.881990 9.836071
vt 2.417030 9.836071
vt 2.417030 2.825980
vt 0.403980 2.825980
vt 0.000000 0.000000
vt 0.403980 9.836071
vt 0.000000 9.836071
vt 0.000000 0.000000
vt 0.182460 0.000000
vt 0.182460 9.836071
vt 0.000000 9.836071
vt 0.000000 0.000000
vt 1.465860 9.836071
vt 0.000000 9.836071
vt 1.465860 0.000000
vt 0.980730 9.836071
vn -0.8849 0.4657 0.0000
vn -0.8850 0.4657 -0.0000
vn -0.8854 0.4649 0.0000
vn -0.8850 0.4655 0.0000
vn -0.8850 0.4656 0.0000
vn -0.8851 0.4655 0.0000
vn -0.4654 -0.8851 0.0000
vn -0.4653 -0.8851 0.0000
vn -0.4653 -0.8852 0.0000
vn -0.4652 -0.8852 0.0000
vn 0.4659 0.8848 0.0000
vn 0.4659 0.8849 -0.0000
vn 0.4656 0.8850 0.0000
vn 0.4658 0.8849 0.0000
vn 0.4661 0.8847 0.0000
vn 0.4655 0.8850 0.0000
vn -0.4646 -0.8855 0.0000
vn -0.4648 -0.8854 0.0000
vn -0.4647 -0.8855 -0.0000
vn -0.4647 -0.8854 0.0000
vn -0.4651 -0.8853 0.0000
vn 0.4640 0.8858 0.0000
vn 0.4639 0.8859 0.0000
vn 0.8854 -0.4649 0.0000
vn 0.8852 -0.4652 0.0000
vn 0.8853 -0.4649 0.0000
vn 0.8853 -0.4650 0.0000
vn 0.8854 -0.4648 0.0000
vn -0.4892 -0.8722 0.0000
vn -0.4886 -0.8725 0.0000
vn 0.8834 -0.4686 0.0000
vn 0.8835 -0.4684 0.0000
s off
f 1/1/1 2/2/1 3/3/1
f 4/4/2 5/5/2 1/1/2
f 2/2/3 1/1/3 5/5/3
f 6/6/4 7/7/4 4/4/4
f 7/7/5 8/8/5 4/4/5
f 8/8/4 9/9/4 4/4/4
f 9/9/5 5/5/5 4/4/5
f 10/10/2 9/9/2 8/8/2
f 11/11/1 12/12/1 10/10/1
f 12/12/6 9/9/6 10/10/6
f 17/13/7 18/14/7 19/15/7
f 20/16/7 21/17/7 17/13/7
f 18/14/8 17/13/8 21/17/8
f 22/18/9 23/19/9 20/16/9
f 23/19/8 24/20/8 20/16/8
f 24/20/8 25/21/8 26/22/8
f 24/20/8 26/22/8 21/17/8
f 27/23/7 28/24/7 25/21/7
f 28/24/8 30/25/8 29/26/8
f 31/27/7 32/28/7 29/26/7
f 29/26/9 32/28/9 26/22/9
f 33/29/10 34/30/10 31/27/10
f 34/30/9 32/28/9 31/27/9
f 35/31/11 36/32/11 37/33/11
f 38/34/12 39/35/12 35/31/12
f 36/32/13 35/31/13 39/35/13
f 40/36/14 41/37/14 38/34/14
f 41/37/14 42/38/14 38/34/14
f 42/38/14 43/39/14 38/34/14
f 38/34/14 43/39/14 39/35/14
f 42/38/12 44/40/12 43/39/12
f 45/41/11 46/42/11 44/40/11
f 46/42/14 47/43/14 44/40/14
f 47/43/11 48/44/11 44/40/11
f 44/40/14 48/44/14 43/39/14
f 49/45/14 48/44/14 47/43/14
f 50/46/15 51/47/15 49/45/15
f 51/47/16 48/44/16 49/45/16
f 52/48/17 53/49/17 54/50/17
f 53/49/10 52/48/10 56/51/10
f 57/52/18 58/53/18 55/54/18
f 58/53/19 59/55/19 55/54/19
f 59/55/19 60/56/19 55/54/19
f 58/53/18 61/57/18 59/55/18
f 59/55/19 62/58/19 60/56/19
f 63/59/19 64/60/19 62/58/19
f 64/60/19 65/61/19 62/58/19
f 65/61/19 66/62/19 62/58/19
f 67/63/20 66/62/20 65/61/20
f 68/64/21 69/65/21 67/63/21
f 69/65/17 66/62/17 67/63/17
f 74/66/22 75/67/22 76/68/22
f 77/69/23 79/70/23 74/66/23
f 75/67/23 74/66/23 79/70/23
f 81/71/22 77/69/22 78/72/22
f 82/73/24 83/74/24 84/75/24
f 85/76/24 86/77/24 82/73/24
f 83/74/25 82/73/25 86/77/25
f 87/78/26 88/79/26 85/76/26
f 88/79/27 89/80/27 85/76/27
f 89/80/27 86/77/27 85/76/27
f 90/81/27 91/82/27 89/80/27
f 89/80/27 91/82/27 86/77/27
f 92/83/24 93/84/24 90/81/24
f 93/84/28 91/82/28 90/81/28
s 1
f 13/85/29 14/86/29 15/87/30
f 13/85/29 15/87/30 16/88/30
f 20/16/9 24/20/9 21/17/9
f 28/24/8 29/26/8 25/21/8
f 25/21/8 29/26/8 26/22/8
f 55/54/19 56/51/20 52/48/19
f 55/54/19 60/56/18 56/51/20
f 62/58/20 66/62/20 60/56/20
f 70/89/31 71/90/32 72/91/32
f 70/89/31 73/92/31 71/90/32
f 77/69/23 74/66/23 78/72/23
f 80/93/23 81/71/23 78/72/23
