# Blender v3.0.1 OBJ File: 'rockerfeller_plaza.blend'
# www.blender.org
o geometryt000010000010000110010110000110000110100000110100st46_C
v 916.478333 -217.082016 698.930054
v 917.643555 -214.925705 698.930054
v 937.861084 -228.500809 698.930054
v 939.026245 -226.344406 698.930054
v 919.304138 -211.819916 698.930054
v 942.163940 -223.931915 698.930054
v 940.734619 -226.602005 698.930054
v 966.160461 -240.116211 698.930054
v 967.603149 -244.373703 698.930054
v 991.880432 -192.120316 698.930054
v 967.117310 -178.953705 698.930054
v 967.745239 -177.780716 698.930054
v 996.382629 -190.879715 698.930054
v 968.662476 -176.082413 698.930054
v 920.337341 -209.920410 698.930054
v 943.204956 -221.987915 698.930054
v 961.577637 -174.488708 698.930054
v 962.494934 -172.790512 698.930054
v 958.718750 -179.806808 698.930054
v 964.886353 -183.098816 698.930054
v 922.485474 -205.909607 698.930054
v 946.832947 -218.903503 698.930054
v 944.858154 -222.579208 698.930054
v 963.810669 -232.649612 698.930054
v 946.130432 -220.199615 698.930054
v 954.587463 -187.493515 698.930054
v 964.205566 -186.248611 698.930054
v 961.553467 -191.197906 698.930054
v 984.474243 -194.083115 698.930054
v 965.428223 -183.958405 698.930054
v 942.039734 -211.132416 698.930054
v 943.345215 -208.696915 698.930054
v 949.039734 -214.858704 698.930054
v 950.642578 -212.586212 698.930054
v 963.001709 -229.173004 698.930054
v 947.899353 -216.970413 698.930054
v 963.478638 -219.408508 698.930054
v 952.472168 -191.426208 698.930054
v 955.995667 -191.684814 698.930054
v 955.317932 -192.936111 698.930054
v 960.549072 -194.107407 698.930054
v 973.376648 -200.929703 698.930054
v 981.178650 -195.265213 698.930054
v 923.584473 -203.865112 698.930054
v 948.126038 -199.515015 698.930054
v 930.880615 -190.312805 698.930054
v 917.643555 -214.925705 738.930054
v 916.478333 -217.082016 738.930054
v 937.861084 -228.500809 738.930054
v 931.219849 -222.175705 738.930054
v 938.286438 -227.713501 738.930054
v 939.026245 -226.344406 738.930054
v 939.026245 -226.344406 761.930054
v 919.304138 -211.819916 761.930054
v 917.643555 -214.925705 761.930054
v 940.483032 -223.041306 761.930054
v 937.861084 -228.500809 761.930054
v 940.734619 -226.602005 761.930054
v 962.677429 -238.264908 761.930054
v 966.160461 -240.116211 761.930054
v 967.603149 -244.373703 761.930054
v 942.163940 -223.931915 761.930054
v 940.930420 -226.236206 761.930054
v 988.357178 -198.695114 761.930054
v 970.509521 -180.757416 761.930054
v 967.699036 -177.866913 761.930054
v 967.117310 -178.953705 761.930054
v 991.880432 -192.120316 761.930054
v 996.382629 -190.879715 761.930054
v 967.745239 -177.780716 761.930054
v 968.662476 -176.082413 761.930054
v 920.337341 -209.920410 766.930054
v 919.304138 -211.819916 766.930054
v 942.163940 -223.931915 766.930054
v 941.638733 -221.161407 766.930054
v 942.235229 -223.798706 766.930054
v 943.204956 -221.987915 766.930054
v 922.485474 -205.909607 771.930054
v 920.337341 -209.920410 771.930054
v 943.204956 -221.987915 771.930054
v 944.702515 -217.766602 771.930054
v 942.163940 -223.931915 771.930054
v 940.734619 -226.602005 771.930054
v 944.858154 -222.579208 771.930054
v 961.135010 -231.227905 771.930054
v 963.810669 -232.649612 771.930054
v 966.160461 -240.116211 771.930054
v 946.832947 -218.903503 771.930054
v 945.037720 -222.243301 771.930054
v 946.130432 -220.199615 771.930054
v 946.263184 -219.954803 771.930054
v 955.903259 -188.193207 771.930054
v 964.205566 -186.248611 771.930054
v 954.587463 -187.493515 771.930054
v 958.718750 -179.806808 771.930054
v 961.553467 -191.197906 771.930054
v 962.054321 -190.263107 771.930054
v 964.886353 -183.098816 771.930054
v 991.880432 -192.120316 771.930054
v 981.556946 -199.527802 771.930054
v 964.378174 -185.925308 771.930054
v 965.428223 -183.958405 771.930054
v 967.117310 -178.953705 771.930054
v 968.117126 -185.387802 771.930054
v 984.474243 -194.083115 771.930054
v 923.584473 -203.865112 778.930054
v 922.485474 -205.909607 778.930054
v 946.832947 -218.903503 778.930054
v 946.469116 -216.199509 778.930054
v 946.951416 -218.688705 778.930054
v 947.899353 -216.970413 778.930054
v 930.880615 -190.312805 783.930054
v 923.584473 -203.865112 783.930054
v 943.345215 -208.696915 783.930054
v 942.039734 -211.132416 783.930054
v 942.112244 -210.997101 783.930054
v 947.899353 -216.970413 783.930054
v 944.062378 -207.319611 783.930054
v 948.126038 -199.515015 783.930054
v 948.650879 -214.651703 783.930054
v 947.962769 -216.853104 783.930054
v 949.039734 -214.858704 783.930054
v 943.345215 -208.696915 788.930054
v 942.039734 -211.132416 788.930054
v 949.039734 -214.858704 788.930054
v 945.777649 -209.993301 788.930054
v 949.912842 -212.197311 788.930054
v 946.832947 -218.903503 788.930054
v 946.130432 -220.199615 788.930054
v 963.001709 -229.173004 788.930054
v 947.899353 -216.970413 788.930054
v 963.478638 -219.408508 788.930054
v 950.115967 -212.305603 788.930054
v 950.642578 -212.586212 788.930054
v 962.552368 -218.916214 788.930054
v 955.995667 -191.684814 788.930054
v 952.472168 -191.426208 788.930054
v 952.756714 -191.577209 788.930054
v 954.587463 -187.493515 788.930054
v 955.385742 -192.811005 788.930054
v 955.317932 -192.936111 788.930054
v 961.553467 -191.197906 788.930054
v 956.450928 -191.927002 788.930054
v 960.549072 -194.107407 788.930054
v 961.474731 -194.599701 788.930054
v 973.376648 -200.929703 788.930054
v 964.205566 -186.248611 788.930054
v 981.178650 -195.265213 788.930054
v 972.662354 -202.263214 788.930054
v 948.126038 -199.515015 798.930054
v 943.345215 -208.696915 798.930054
v 950.642578 -212.586212 798.930054
v 960.549072 -194.107407 798.930054
v 952.472168 -191.426208 798.930054
v 955.317932 -192.936111 798.930054
v 955.995667 -191.684814 798.930054
v 958.039673 -226.533707 783.930054
v 946.130432 -220.199615 783.930054
v 944.858154 -222.579208 783.930054
v 962.064453 -228.674408 783.930054
v 963.001709 -229.173004 783.930054
v 963.810669 -232.649612 783.930054
v 984.474243 -194.083115 783.930054
v 980.168823 -197.148911 783.930054
v 965.428223 -183.958405 783.930054
v 964.205566 -186.248611 783.930054
v 965.148560 -186.749603 783.930054
v 981.178650 -195.265213 783.930054
v 960.251831 -194.661713 795.930054
v 950.642578 -212.586212 795.930054
v 963.478638 -219.408508 795.930054
v 960.549072 -194.107407 795.930054
v 973.376648 -200.929703 795.930054
v 958.718750 -179.806808 766.930054
v 959.141235 -180.032303 766.930054
v 967.117310 -178.953705 766.930054
v 961.577637 -174.488708 766.930054
v 964.886353 -183.098816 766.930054
v 965.039124 -182.814804 766.930054
v 967.745239 -177.780716 766.930054
v 962.494934 -172.790512 738.930054
v 961.577637 -174.488708 738.930054
v 964.117249 -175.844208 738.930054
v 967.745239 -177.780716 738.930054
v 968.080139 -177.160706 738.930054
v 968.662476 -176.082413 738.930054
vt 0.342740 0.326260
vt 0.338450 0.328660
vt 0.356720 0.369090
vt 0.352420 0.371490
vt 0.332270 0.332080
vt 0.347040 0.377870
vt 0.352350 0.374920
vt 0.368860 0.425850
vt 0.376150 0.428660
vt 0.273340 0.478820
vt 0.257260 0.429220
vt 0.254930 0.430510
vt 0.269660 0.487920
vt 0.251540 0.432400
vt 0.328480 0.334210
vt 0.343170 0.380010
vt 0.250900 0.418160
vt 0.247510 0.420050
vt 0.261480 0.412270
vt 0.265510 0.424620
vt 0.320500 0.338630
vt 0.336400 0.387400
vt 0.343720 0.383330
vt 0.356020 0.421290
vt 0.338980 0.385950
vt 0.276780 0.403760
vt 0.271460 0.423180
vt 0.281310 0.417720
vt 0.279270 0.463840
vt 0.266900 0.425700
vt 0.323790 0.377920
vt 0.318940 0.380610
vt 0.328340 0.391940
vt 0.323700 0.395220
vt 0.349950 0.419740
vt 0.332550 0.389590
vt 0.332030 0.420930
vt 0.284610 0.399410
vt 0.283960 0.406500
vt 0.286450 0.405110
vt 0.286920 0.415620
vt 0.295260 0.441320
vt 0.282470 0.457170
vt 0.316430 0.340890
vt 0.300710 0.390460
vt 0.289450 0.355920
vt 0.338450 0.328660
vt 0.342740 0.326260
vt 0.356720 0.369090
vt 0.347320 0.355850
vt 0.355150 0.369960
vt 0.352420 0.371490
vt 0.352420 0.371490
vt 0.332270 0.332080
vt 0.338450 0.328660
vt 0.345950 0.374500
vt 0.356720 0.369090
vt 0.352350 0.374920
vt 0.366600 0.418870
vt 0.368860 0.425850
vt 0.376150 0.428660
vt 0.347040 0.377870
vt 0.351620 0.375330
vt 0.286430 0.471560
vt 0.259460 0.436010
vt 0.255100 0.430420
vt 0.257260 0.429220
vt 0.273340 0.478820
vt 0.269660 0.487920
vt 0.254930 0.430510
vt 0.251540 0.432400
vt 0.328480 0.334210
vt 0.332270 0.332080
vt 0.347040 0.377870
vt 0.342160 0.376870
vt 0.346770 0.378010
vt 0.343170 0.380010
vt 0.320500 0.338630
vt 0.328480 0.334210
vt 0.343170 0.380010
vt 0.335010 0.383130
vt 0.347040 0.377870
vt 0.352350 0.374920
vt 0.343720 0.383330
vt 0.354280 0.415930
vt 0.356020 0.421290
vt 0.368860 0.425850
vt 0.336400 0.387400
vt 0.343050 0.383700
vt 0.338980 0.385950
vt 0.338500 0.386220
vt 0.277640 0.406400
vt 0.271460 0.423180
vt 0.276780 0.403760
vt 0.261480 0.412270
vt 0.281310 0.417720
vt 0.279450 0.418750
vt 0.265510 0.424620
vt 0.273340 0.478820
vt 0.290110 0.457840
vt 0.270820 0.423530
vt 0.266900 0.425700
vt 0.257260 0.429220
vt 0.268650 0.431080
vt 0.279270 0.463840
vt 0.316430 0.340890
vt 0.320500 0.338630
vt 0.336400 0.387400
vt 0.331600 0.386730
vt 0.335970 0.387640
vt 0.332550 0.389590
vt 0.289450 0.355920
vt 0.316430 0.340890
vt 0.318940 0.380610
vt 0.323790 0.377920
vt 0.323520 0.378070
vt 0.332550 0.389590
vt 0.316210 0.382080
vt 0.300710 0.390460
vt 0.328090 0.391160
vt 0.332310 0.389720
vt 0.328340 0.391940
vt 0.318940 0.380610
vt 0.323790 0.377920
vt 0.328340 0.391940
vt 0.320530 0.385480
vt 0.323220 0.393760
vt 0.336400 0.387400
vt 0.338980 0.385950
vt 0.349950 0.419740
vt 0.332550 0.389590
vt 0.332030 0.420930
vt 0.323350 0.394170
vt 0.323700 0.395220
vt 0.331430 0.419080
vt 0.283960 0.406500
vt 0.284610 0.399410
vt 0.284800 0.399980
vt 0.276780 0.403760
vt 0.286200 0.405250
vt 0.286450 0.405110
vt 0.281310 0.417720
vt 0.284260 0.407410
vt 0.286920 0.415620
vt 0.287520 0.417480
vt 0.295260 0.441320
vt 0.271460 0.423180
vt 0.282470 0.457170
vt 0.297910 0.439840
vt 0.300710 0.390460
vt 0.318940 0.380610
vt 0.323700 0.395220
vt 0.286920 0.415620
vt 0.284610 0.399410
vt 0.286450 0.405110
vt 0.283960 0.406500
vt 0.346720 0.409800
vt 0.338980 0.385950
vt 0.343720 0.383330
vt 0.349340 0.417860
vt 0.349950 0.419740
vt 0.356020 0.421290
vt 0.279270 0.463840
vt 0.286220 0.455090
vt 0.266900 0.425700
vt 0.271460 0.423180
vt 0.272070 0.425070
vt 0.282470 0.457170
vt 0.288030 0.415010
vt 0.323700 0.395220
vt 0.332030 0.420930
vt 0.286920 0.415620
vt 0.295260 0.441320
vt 0.261480 0.412270
vt 0.261760 0.413120
vt 0.257260 0.429220
vt 0.250900 0.418160
vt 0.265510 0.424620
vt 0.264950 0.424940
vt 0.254930 0.430510
vt 0.247510 0.420050
vt 0.250900 0.418160
vt 0.252560 0.423240
vt 0.254930 0.430510
vt 0.253690 0.431200
vt 0.251540 0.432400
vn 0.0000 0.0000 -1.0000
vn -0.0001 0.0000 -1.0000
vn 0.0000 0.0000 1.0000
vn 0.0001 0.0000 1.0000
vn 0.0002 0.0000 1.0000
vn -0.0004 0.0000 1.0000
vn 0.0015 0.0000 1.0000
vn -0.0001 0.0000 1.0000
vn -0.0005 0.0000 1.0000
vn -0.0041 -0.0003 1.0000
vn 0.0004 0.0000 1.0000
s off
f 1/1/1 2/2/1 3/3/1
f 2/2/1 4/4/1 3/3/1
f 2/2/1 5/5/1 4/4/1
f 5/5/1 6/6/1 4/4/1
f 3/3/1 4/4/1 7/7/1
f 3/3/1 7/7/1 8/8/1
f 3/3/1 8/8/1 9/9/1
f 4/4/1 6/6/1 7/7/1
f 8/8/1 10/10/1 9/9/1
f 11/11/1 12/12/1 10/10/1
f 10/10/1 13/13/1 9/9/1
f 12/12/1 14/14/1 10/10/1
f 14/14/1 13/13/1 10/10/1
f 5/5/1 15/15/1 6/6/1
f 15/15/1 16/16/1 6/6/1
f 17/17/1 18/18/1 12/12/1
f 18/18/1 14/14/1 12/12/1
f 19/19/1 17/17/1 11/11/1
f 20/20/1 19/19/1 11/11/1
f 17/17/1 12/12/1 11/11/1
f 15/15/1 21/21/1 16/16/1
f 21/21/1 22/22/1 16/16/1
f 7/7/1 6/6/1 23/23/1
f 7/7/1 23/23/1 24/24/1
f 7/7/1 24/24/1 8/8/1
f 6/6/1 16/16/1 23/23/1
f 23/23/2 16/16/2 25/25/2
f 25/25/1 16/16/1 22/22/1
f 26/26/1 19/19/1 27/27/1
f 28/28/1 26/26/1 27/27/1
f 19/19/1 20/20/1 27/27/1
f 24/24/1 10/10/1 8/8/1
f 29/29/1 10/10/1 24/24/1
f 27/27/2 20/20/2 30/30/2
f 20/20/1 11/11/1 30/30/1
f 30/30/1 11/11/1 29/29/1
f 11/11/1 10/10/1 29/29/1
f 31/31/1 32/32/1 33/33/1
f 32/32/1 34/34/1 33/33/1
f 35/35/1 25/25/1 22/22/1
f 36/36/1 37/37/1 22/22/1
f 37/37/1 35/35/1 22/22/1
f 37/37/1 36/36/1 33/33/1
f 34/34/1 37/37/1 33/33/1
f 38/38/1 26/26/1 39/39/1
f 40/40/1 38/38/1 39/39/1
f 28/28/1 39/39/1 26/26/1
f 41/41/1 39/39/1 28/28/1
f 41/41/1 28/28/1 42/42/1
f 28/28/1 27/27/1 42/42/1
f 43/43/1 35/35/1 37/37/1
f 42/42/1 43/43/1 37/37/1
f 27/27/1 43/43/1 42/42/1
f 21/21/1 44/44/1 22/22/1
f 44/44/1 36/36/1 22/22/1
f 35/35/1 23/23/1 25/25/1
f 23/23/1 35/35/1 24/24/1
f 29/29/1 24/24/1 35/35/1
f 29/29/1 35/35/1 43/43/1
f 27/27/1 30/30/1 43/43/1
f 30/30/1 29/29/1 43/43/1
f 34/34/1 41/41/1 37/37/1
f 41/41/1 42/42/1 37/37/1
f 34/34/1 32/32/1 45/45/1
f 41/41/1 34/34/1 45/45/1
f 45/45/1 38/38/1 40/40/1
f 41/41/1 45/45/1 40/40/1
f 39/39/1 41/41/1 40/40/1
f 46/46/1 32/32/1 44/44/1
f 32/32/1 31/31/1 44/44/1
f 31/31/1 36/36/1 44/44/1
f 46/46/1 45/45/1 32/32/1
f 31/31/1 33/33/1 36/36/1
f 47/47/3 48/48/3 49/49/3
f 47/47/3 49/49/3 50/50/3
f 50/50/3 49/49/3 51/51/3
f 50/50/3 51/51/3 52/52/3
f 53/53/3 54/54/3 55/55/3
f 53/53/3 56/56/3 54/54/3
f 57/57/3 58/58/3 53/53/3
f 59/59/3 58/58/3 57/57/3
f 60/60/3 59/59/3 57/57/3
f 60/60/3 57/57/3 61/61/3
f 53/53/3 62/62/3 56/56/3
f 63/63/3 53/53/3 58/58/3
f 62/62/3 53/53/3 63/63/3
f 61/61/3 64/64/3 60/60/3
f 65/65/3 66/66/3 67/67/3
f 61/61/4 68/68/4 64/64/4
f 68/68/3 61/61/3 69/69/3
f 68/68/5 70/70/5 66/66/5
f 68/68/3 66/66/3 65/65/3
f 68/68/3 71/71/3 70/70/3
f 69/69/3 71/71/3 68/68/3
f 72/72/3 73/73/3 74/74/3
f 72/72/3 74/74/3 75/75/3
f 75/75/6 74/74/6 76/76/6
f 75/75/3 76/76/3 77/77/3
f 78/78/3 79/79/3 80/80/3
f 81/81/3 78/78/3 80/80/3
f 82/82/3 83/83/3 84/84/3
f 83/83/3 85/85/3 84/84/3
f 83/83/3 86/86/3 85/85/3
f 87/87/3 86/86/3 83/83/3
f 80/80/3 82/82/3 84/84/3
f 88/88/3 81/81/3 80/80/3
f 89/89/4 80/80/4 84/84/4
f 90/90/3 80/80/3 89/89/3
f 91/91/3 80/80/3 90/90/3
f 88/88/3 80/80/3 91/91/3
f 92/92/3 93/93/3 94/94/3
f 94/94/3 93/93/3 95/95/3
f 96/96/3 97/97/3 92/92/3
f 97/97/3 93/93/3 92/92/3
f 93/93/3 98/98/3 95/95/3
f 87/87/3 99/99/3 86/86/3
f 99/99/3 100/100/3 86/86/3
f 93/93/7 101/101/7 98/98/7
f 101/101/8 102/102/8 98/98/8
f 102/102/3 103/103/3 98/98/3
f 104/104/3 103/103/3 102/102/3
f 105/105/3 103/103/3 104/104/3
f 99/99/3 103/103/3 105/105/3
f 99/99/3 105/105/3 100/100/3
f 106/106/3 107/107/3 108/108/3
f 106/106/3 108/108/3 109/109/3
f 109/109/9 108/108/9 110/110/9
f 109/109/3 110/110/3 111/111/3
f 112/112/3 113/113/3 114/114/3
f 113/113/4 115/115/4 116/116/4
f 117/117/3 115/115/3 113/113/3
f 113/113/3 116/116/3 114/114/3
f 112/112/3 114/114/3 118/118/3
f 112/112/3 118/118/3 119/119/3
f 120/120/3 115/115/3 117/117/3
f 121/121/10 120/120/10 117/117/10
f 122/122/5 120/120/5 121/121/5
f 123/123/3 124/124/3 125/125/3
f 123/123/4 125/125/4 126/126/4
f 126/126/3 125/125/3 127/127/3
f 128/128/3 129/129/3 130/130/3
f 131/131/3 128/128/3 132/132/3
f 132/132/3 128/128/3 130/130/3
f 125/125/3 131/131/3 132/132/3
f 127/127/3 125/125/3 133/133/3
f 133/133/3 125/125/3 134/134/3
f 135/135/3 134/134/3 125/125/3
f 132/132/3 135/135/3 125/125/3
f 136/136/3 137/137/3 138/138/3
f 139/139/3 137/137/3 136/136/3
f 140/140/3 138/138/3 141/141/3
f 136/136/3 138/138/3 140/140/3
f 139/139/3 136/136/3 142/142/3
f 142/142/3 136/136/3 143/143/3
f 142/142/3 143/143/3 144/144/3
f 145/145/3 142/142/3 144/144/3
f 146/146/3 142/142/3 145/145/3
f 147/147/3 142/142/3 146/146/3
f 148/148/3 132/132/3 130/130/3
f 148/148/3 149/149/3 132/132/3
f 148/148/3 147/147/3 146/146/3
f 148/148/3 146/146/3 149/149/3
f 150/150/3 151/151/3 152/152/3
f 153/153/3 150/150/3 152/152/3
f 154/154/3 150/150/3 155/155/3
f 153/153/3 155/155/3 150/150/3
f 156/156/3 155/155/3 153/153/3
f 157/157/3 158/158/3 159/159/3
f 160/160/3 157/157/3 159/159/3
f 161/161/3 160/160/3 159/159/3
f 161/161/3 159/159/3 162/162/3
f 163/163/3 161/161/3 162/162/3
f 163/163/3 164/164/3 161/161/3
f 165/165/4 166/166/4 167/167/4
f 165/165/3 167/167/3 168/168/3
f 163/163/3 165/165/3 168/168/3
f 163/163/3 168/168/3 164/164/3
f 169/169/3 170/170/3 171/171/3
f 172/172/11 169/169/11 171/171/11
f 172/172/3 171/171/3 173/173/3
f 174/174/3 175/175/3 176/176/3
f 177/177/3 174/174/3 176/176/3
f 175/175/8 178/178/8 179/179/8
f 176/176/3 175/175/3 179/179/3
f 180/180/3 177/177/3 176/176/3
f 181/181/3 182/182/3 183/183/3
f 181/181/3 183/183/3 184/184/3
f 181/181/3 184/184/3 185/185/3
f 181/181/3 185/185/3 186/186/3
