# Blender v3.0.1 OBJ File: 'rockerfeller_plaza.blend'
# www.blender.org
o geometryt000010000010000110010110000110000110100000000100st92_A
v 376.086243 -353.453400 96.352081
v 389.569733 -358.286102 98.227081
v 378.502533 -352.433594 98.227081
v 379.384735 -355.194885 96.354355
v 389.836609 -358.918610 97.826141
v 382.589630 -356.886993 96.356575
v 389.090210 -360.319092 96.361076
v 389.836609 -358.918610 97.826141
v 391.127014 -352.982697 98.227081
v 389.569733 -358.286102 98.227081
v 390.743134 -357.217407 97.465622
v 390.985626 -356.762390 97.369202
v 393.543335 -351.962891 96.352081
v 393.543335 -351.962891 96.352081
v 379.790710 -346.492615 97.822807
v 380.059937 -347.130310 98.227081
v 380.539246 -345.086212 96.352081
v 391.127014 -352.982697 98.227081
v 378.644226 -348.647003 97.367615
v 376.086243 -353.453400 96.352081
v 378.502533 -352.433594 98.227081
v 378.888123 -348.188690 97.464432
v 379.790710 -346.492615 97.822807
v 380.059937 -347.130310 98.227081
v 378.502533 -352.433594 98.227081
v 384.819122 -352.710510 99.352081
v 381.724335 -351.073914 99.352081
v 387.905334 -354.342499 99.352081
v 389.569733 -358.286102 98.227081
v 389.569733 -358.286102 98.227081
v 391.127014 -352.982697 98.227081
v 387.905334 -354.342499 99.352081
v 391.127014 -352.982697 98.227081
v 380.059937 -347.130310 98.227081
v 381.724335 -351.073914 99.352081
v 384.819122 -352.710510 99.352081
v 387.905334 -354.342499 99.352081
v 380.059937 -347.130310 98.227081
v 378.502533 -352.433594 98.227081
v 381.724335 -351.073914 99.352081
v 380.539246 -345.086212 96.352081
v 380.690735 -345.166290 96.352081
v 394.291809 -350.556488 97.822800
v 394.022644 -349.918793 98.227081
v 382.955505 -344.066406 98.227081
v 383.088440 -346.434204 96.352081
v 393.543335 -351.962891 96.352081
v 394.291809 -350.556488 97.822800
v 395.579926 -344.615509 98.227081
v 394.022644 -349.918793 98.227081
v 395.194427 -348.860413 97.464432
v 395.438324 -348.402191 97.367615
v 397.996338 -343.595703 96.352081
v 397.996338 -343.595703 96.352081
v 384.245911 -338.130615 97.826141
v 384.512817 -338.763000 98.227081
v 384.992310 -336.730011 96.361076
v 395.579926 -344.615509 98.227081
v 383.096924 -340.286713 97.369202
v 380.539246 -345.086212 96.352081
v 382.955505 -344.066406 98.227081
v 383.339417 -339.831696 97.465622
v 384.245911 -338.130615 97.826141
v 384.512817 -338.763000 98.227081
v 382.955505 -344.066406 98.227081
v 389.263428 -344.338593 99.352081
v 386.177307 -342.706604 99.352081
v 392.358215 -345.975189 99.352081
v 394.022644 -349.918793 98.227081
v 394.022644 -349.918793 98.227081
v 395.579926 -344.615509 98.227081
v 392.358215 -345.975189 99.352081
v 395.579926 -344.615509 98.227081
v 384.512817 -338.763000 98.227081
v 386.177307 -342.706604 99.352081
v 389.263428 -344.338593 99.352081
v 392.358215 -345.975189 99.352081
v 384.512817 -338.763000 98.227081
v 382.955505 -344.066406 98.227081
v 386.177307 -342.706604 99.352081
v 371.633118 -361.809601 96.352081
v 385.116638 -366.642303 98.227081
v 374.049438 -360.789795 98.227081
v 374.442444 -363.295197 96.352081
v 385.385742 -367.279999 97.822807
v 380.319641 -366.403198 96.352081
v 384.637329 -368.686401 96.352081
v 385.385742 -367.279999 97.822807
v 386.673950 -361.338898 98.227081
v 385.116638 -366.642303 98.227081
v 386.288422 -365.583893 97.464447
v 386.532349 -365.125610 97.367615
v 389.090210 -360.319092 96.352081
v 389.090210 -360.319092 96.352081
v 375.339935 -354.854004 97.826141
v 375.606812 -355.486511 98.227081
v 382.589630 -356.886993 96.356575
v 376.086243 -353.453400 96.361076
v 386.673950 -361.338898 98.227081
v 374.190826 -357.010101 97.369202
v 371.633118 -361.809601 96.352081
v 374.049438 -360.789795 98.227081
v 374.433319 -356.555115 97.465622
v 375.339935 -354.854004 97.826141
v 375.606812 -355.486511 98.227081
v 374.049438 -360.789795 98.227081
v 380.357330 -361.062103 99.352081
v 377.271240 -359.430115 99.352081
v 383.452209 -362.698700 99.352081
v 385.116638 -366.642303 98.227081
v 385.116638 -366.642303 98.227081
v 386.673950 -361.338898 98.227081
v 383.452209 -362.698700 99.352081
v 386.673950 -361.338898 98.227081
v 375.606812 -355.486511 98.227081
v 377.271240 -359.430115 99.352081
v 380.357330 -361.062103 99.352081
v 383.452209 -362.698700 99.352081
v 375.606812 -355.486511 98.227081
v 374.049438 -360.789795 98.227081
v 377.271240 -359.430115 99.352081
v 298.085510 -319.308594 61.352074
v 286.946136 -332.727203 61.352074
v 294.993713 -317.667999 61.352074
v 318.642303 -342.706909 61.352074
v 315.833130 -347.968597 61.352074
v 307.967346 -300.819794 61.352074
v 324.756470 -331.267303 61.352074
v 321.228455 -337.869598 61.352074
v 304.875671 -299.190308 61.352074
v 313.104889 -283.784912 61.352074
v 339.165894 -304.299286 61.352074
v 333.051910 -315.750000 61.352074
v 336.571472 -309.147705 61.352074
v 341.983337 -299.026306 61.352074
v 372.442535 -356.626587 61.352074
v 380.762512 -341.053497 61.352074
v 368.914520 -363.228912 61.352074
v 384.290649 -334.462189 61.352074
v 363.543945 -373.272186 61.352074
v 366.328522 -368.077301 61.352074
v 386.876648 -329.613800 61.352074
v 389.702332 -324.329590 61.352074
v 298.085510 -319.308594 96.352081
v 294.993713 -317.667999 96.352081
v 286.946136 -332.727203 96.352081
v 318.642303 -342.706909 96.352081
v 315.833130 -347.968597 96.352081
v 316.854675 -346.055298 96.352081
v 324.756470 -331.267303 96.352081
v 307.967346 -300.819794 96.352081
v 319.582703 -340.947906 96.352081
v 320.662720 -338.927795 96.352081
v 321.228455 -337.869598 96.352081
v 322.511353 -335.468811 96.352081
v 323.984711 -332.711487 96.352081
v 324.182129 -332.342102 96.352081
v 304.875671 -299.190308 96.352081
v 313.104889 -283.784912 96.352081
v 339.165894 -304.299286 96.352081
v 327.772980 -325.624603 96.352081
v 331.237274 -319.144409 96.352081
v 331.701477 -318.276093 96.352081
v 331.784027 -318.121613 96.352081
v 333.051910 -315.750000 96.352081
v 334.331757 -313.349213 96.352081
v 335.801575 -310.592010 96.352081
v 335.998505 -310.222504 96.352081
v 336.571472 -309.147705 96.352081
v 337.514893 -307.384705 96.352081
v 338.598358 -305.359894 96.352081
v 340.190430 -302.381805 96.352081
v 341.983337 -299.026306 96.352081
v 370.476013 -320.911896 116.352074
v 341.983337 -299.026306 116.352074
v 339.165894 -304.299286 116.352074
v 386.876648 -329.613800 116.352074
v 389.702332 -324.329590 116.352074
v 318.642303 -342.706909 116.352074
v 315.833130 -347.968597 116.352074
v 363.543945 -373.272186 116.352074
v 326.272095 -346.766113 116.352074
v 335.034424 -351.428009 116.352074
v 366.328522 -368.077301 116.352074
v 366.328522 -368.077301 221.352081
v 321.228455 -337.869598 221.352081
v 318.642303 -342.706909 221.352081
v 325.421753 -340.099609 221.352081
v 356.715729 -356.741699 221.352081
v 368.914520 -363.228912 221.352081
v 336.571472 -309.147705 221.352081
v 348.778717 -315.623505 221.352081
v 339.165894 -304.299286 221.352081
v 380.094421 -332.236115 221.352081
v 384.290649 -334.462189 221.352081
v 386.876648 -329.613800 221.352081
v 324.756470 -331.267303 276.352081
v 321.228455 -337.869598 276.352081
v 368.914520 -363.228912 276.352081
v 369.527222 -355.076202 276.352081
v 372.442535 -356.626587 276.352081
v 335.968719 -317.296906 276.352081
v 336.571472 -309.147705 276.352081
v 333.051910 -315.750000 276.352081
v 380.762512 -341.053497 276.352081
v 384.290649 -334.462189 276.352081
v 333.051910 -315.750000 290.352081
v 324.756470 -331.267303 290.352081
v 372.442535 -356.626587 290.352081
v 380.762512 -341.053497 290.352081
v 371.706543 -377.585114 86.352081
v 363.543945 -373.272186 86.352081
v 364.809631 -370.910889 86.352081
v 366.328522 -368.077301 86.352081
v 366.732544 -367.319794 86.352081
v 367.503937 -365.873505 86.352081
v 368.914520 -363.228912 86.352081
v 369.324738 -362.461212 86.352081
v 380.047424 -381.984711 86.352081
v 369.465729 -362.197296 86.352081
v 370.518127 -360.227905 86.352081
v 372.442535 -356.626587 86.352081
v 373.350830 -354.926514 86.352081
v 373.409912 -354.815704 86.352081
v 373.742523 -354.193298 86.352081
v 376.224335 -349.547913 86.352081
v 380.762512 -341.053497 86.352081
v 387.518829 -368.004211 86.352081
v 406.197449 -333.053192 86.352081
v 381.172821 -340.286987 86.352081
v 381.313843 -340.023590 86.352081
v 382.366211 -338.057404 86.352081
v 384.290649 -334.462189 86.352081
v 384.694733 -333.704590 86.352081
v 398.077332 -328.762085 86.352081
v 385.466125 -332.258392 86.352081
v 386.876648 -329.613800 86.352081
v 388.161011 -327.211914 86.352081
v 389.702332 -324.329590 86.352081
v 365.315918 -369.966400 96.352081
v 363.543945 -373.272186 96.352081
v 371.706543 -377.585114 96.352081
v 366.328522 -368.077301 96.352081
v 366.894226 -367.016815 96.352081
v 367.974121 -364.992004 96.352081
v 368.914520 -363.228912 96.352081
v 371.633118 -361.809601 96.352081
v 369.488831 -362.154114 96.352081
v 380.047424 -381.984711 96.352081
v 369.686218 -361.784698 96.352081
v 371.159637 -359.027405 96.352081
v 372.442535 -356.626587 96.352081
v 373.145721 -358.971405 96.352081
v 374.442444 -363.295197 96.352081
v 376.086243 -353.453400 96.352081
v 373.714111 -354.246399 96.352081
v 373.796936 -354.091400 96.352081
v 374.262512 -353.220001 96.352081
v 377.737122 -346.716400 96.352081
v 380.319641 -366.403198 96.352081
v 380.762512 -341.053497 96.352081
v 380.539246 -345.086212 96.352081
v 384.637329 -368.686401 96.352081
v 389.090210 -360.319092 96.352081
v 406.197449 -333.053192 96.352081
v 380.690735 -345.166290 96.352081
v 380.697235 -344.789612 96.352081
v 383.088440 -346.434204 96.352081
v 381.625031 -343.048706 96.352081
v 383.076111 -340.325806 96.352081
v 381.336914 -339.980499 96.352081
v 381.534332 -339.611603 96.352081
v 383.007721 -336.859009 96.352081
v 384.290649 -334.462189 96.352081
v 384.992310 -336.730011 96.352081
v 393.543335 -351.962891 96.352081
v 398.077332 -328.762085 96.352081
v 384.856323 -333.401611 96.352081
v 388.544830 -338.605591 96.352081
v 385.936218 -331.376892 96.352081
v 386.876648 -329.613800 96.352081
v 388.674835 -326.251099 96.352081
v 397.996338 -343.595703 96.352081
v 389.702332 -324.329590 96.352081
v 399.109741 -382.784790 96.352081
v 395.142639 -390.102814 96.352081
v 417.209839 -348.701599 96.352081
v 421.292419 -341.160187 96.352081
v 395.142639 -390.102814 61.352074
v 380.047424 -381.984711 61.352074
v 399.109741 -382.784790 61.352074
v 417.209839 -348.701599 61.352074
v 406.197449 -333.053192 61.352074
v 421.292419 -341.160187 61.352074
vt 0.602640 0.248830
vt 0.604760 0.255440
vt 0.608210 0.276420
vt 0.607150 0.275890
vt 0.606820 0.261860
vt 0.608210 0.276420
vt 0.597000 0.279160
vt 0.607150 0.275890
vt 0.603920 0.278780
vt 0.604830 0.278280
vt 0.594380 0.284050
vt 0.594380 0.284050
vt 0.588790 0.256460
vt 0.589870 0.256980
vt 0.586000 0.258000
vt 0.597000 0.279160
vt 0.593080 0.254100
vt 0.602640 0.248830
vt 0.600010 0.253720
vt 0.592170 0.254600
vt 0.588790 0.256460
vt 0.589870 0.256980
vt 0.600010 0.253720
vt 0.598510 0.266450
vt 0.596520 0.260250
vt 0.600500 0.272630
vt 0.607150 0.275890
vt 0.607150 0.275890
vt 0.597000 0.279160
vt 0.600500 0.272630
vt 0.597000 0.279160
vt 0.589870 0.256980
vt 0.596520 0.260250
vt 0.598510 0.266450
vt 0.600500 0.272630
vt 0.586000 0.258000
vt 0.590500 0.285060
vt 0.583370 0.262890
vt 0.591580 0.285590
vt 0.586090 0.258300
vt 0.587640 0.263110
vt 0.594380 0.284050
vt 0.591580 0.285590
vt 0.580360 0.288330
vt 0.590500 0.285060
vt 0.588210 0.287450
vt 0.587290 0.287950
vt 0.577730 0.293220
vt 0.577730 0.293220
vt 0.572160 0.265630
vt 0.573230 0.266160
vt 0.569380 0.267170
vt 0.580360 0.288330
vt 0.576450 0.263270
vt 0.586000 0.258000
vt 0.583370 0.262890
vt 0.575540 0.263770
vt 0.572160 0.265630
vt 0.573230 0.266160
vt 0.583370 0.262890
vt 0.583860 0.281800
vt 0.581860 0.275600
vt 0.590500 0.285060
vt 0.590500 0.285060
vt 0.580360 0.288330
vt 0.583860 0.281800
vt 0.580360 0.288330
vt 0.573230 0.266160
vt 0.579870 0.269420
vt 0.581860 0.275600
vt 0.583860 0.281800
vt 0.573230 0.266160
vt 0.583370 0.262890
vt 0.579870 0.269420
vt 0.619260 0.239660
vt 0.623770 0.266720
vt 0.616640 0.244550
vt 0.621070 0.245280
vt 0.624840 0.267250
vt 0.624860 0.257060
vt 0.627640 0.265710
vt 0.624840 0.267250
vt 0.613620 0.269980
vt 0.623770 0.266720
vt 0.621470 0.269110
vt 0.620560 0.269610
vt 0.611000 0.274880
vt 0.611000 0.274880
vt 0.605420 0.247290
vt 0.606490 0.247810
vt 0.606820 0.261860
vt 0.602640 0.248830
vt 0.613620 0.269980
vt 0.609710 0.244920
vt 0.619260 0.239660
vt 0.616640 0.244550
vt 0.608810 0.245420
vt 0.605420 0.247290
vt 0.606490 0.247810
vt 0.616640 0.244550
vt 0.615130 0.257260
vt 0.613140 0.251080
vt 0.617120 0.263460
vt 0.623770 0.266720
vt 0.613620 0.269980
vt 0.617120 0.263460
vt 0.613620 0.269980
vt 0.606490 0.247810
vt 0.613140 0.251080
vt 0.615130 0.257260
vt 0.617120 0.263460
vt 0.606490 0.247810
vt 0.616640 0.244550
vt 0.613140 0.251080
vt 0.565310 0.092400
vt 0.593270 0.069630
vt 0.563310 0.086210
vt 0.601350 0.133290
vt 0.611820 0.127510
vt 0.528520 0.112750
vt 0.578590 0.145880
vt 0.591720 0.138620
vt 0.526540 0.106560
vt 0.495890 0.123510
vt 0.524930 0.175560
vt 0.547710 0.162970
vt 0.534580 0.170210
vt 0.514440 0.181360
vt 0.609570 0.241410
vt 0.578590 0.258540
vt 0.622710 0.234140
vt 0.565470 0.265810
vt 0.642690 0.223080
vt 0.632350 0.228820
vt 0.555830 0.271130
vt 0.545310 0.276950
vt 0.565310 0.092400
vt 0.563310 0.086210
vt 0.593270 0.069630
vt 0.601350 0.133290
vt 0.611820 0.127510
vt 0.608010 0.129610
vt 0.578590 0.145880
vt 0.528520 0.112750
vt 0.597850 0.135230
vt 0.593830 0.137450
vt 0.591720 0.138620
vt 0.586950 0.141260
vt 0.581460 0.144290
vt 0.580730 0.144700
vt 0.526540 0.106560
vt 0.495890 0.123510
vt 0.524930 0.175560
vt 0.567360 0.152090
vt 0.554470 0.159230
vt 0.552740 0.160180
vt 0.552430 0.160350
vt 0.547710 0.162970
vt 0.542940 0.165600
vt 0.537450 0.168630
vt 0.536720 0.169030
vt 0.534580 0.170210
vt 0.531070 0.172160
vt 0.527040 0.174390
vt 0.521120 0.177670
vt 0.514440 0.181360
vt 0.545210 0.238280
vt 0.514440 0.181360
vt 0.524930 0.175560
vt 0.555830 0.271130
vt 0.545310 0.276950
vt 0.601350 0.133290
vt 0.611820 0.127510
vt 0.642690 0.223080
vt 0.606310 0.148570
vt 0.612010 0.166130
vt 0.632350 0.228820
vt 0.632350 0.228820
vt 0.591720 0.138620
vt 0.601350 0.133290
vt 0.594450 0.147020
vt 0.614780 0.209710
vt 0.622710 0.234140
vt 0.534580 0.170210
vt 0.542480 0.194670
vt 0.524930 0.175560
vt 0.562760 0.257400
vt 0.565470 0.265810
vt 0.555830 0.271130
vt 0.578590 0.145880
vt 0.591720 0.138620
vt 0.622710 0.234140
vt 0.607680 0.235570
vt 0.609570 0.241410
vt 0.549600 0.168810
vt 0.534580 0.170210
vt 0.547710 0.162970
vt 0.578590 0.258540
vt 0.565470 0.265810
vt 0.547710 0.162970
vt 0.578590 0.145880
vt 0.609570 0.241410
vt 0.578590 0.258540
vt 0.647940 0.239430
vt 0.642690 0.223080
vt 0.637990 0.225690
vt 0.632350 0.228820
vt 0.630850 0.229650
vt 0.627970 0.231240
vt 0.622710 0.234140
vt 0.621180 0.234990
vt 0.653300 0.256140
vt 0.620660 0.235280
vt 0.616740 0.237450
vt 0.609570 0.241410
vt 0.606190 0.243280
vt 0.605970 0.243400
vt 0.604730 0.244090
vt 0.595490 0.249200
vt 0.578590 0.258540
vt 0.625480 0.271530
vt 0.555940 0.310000
vt 0.577060 0.259390
vt 0.576540 0.259680
vt 0.572630 0.261850
vt 0.565470 0.265810
vt 0.563960 0.266640
vt 0.550720 0.293730
vt 0.561090 0.268230
vt 0.555830 0.271130
vt 0.551050 0.273780
vt 0.545310 0.276950
vt 0.636110 0.226730
vt 0.642690 0.223080
vt 0.647940 0.239430
vt 0.632350 0.228820
vt 0.630240 0.229980
vt 0.626220 0.232210
vt 0.622710 0.234140
vt 0.619260 0.239660
vt 0.620570 0.235330
vt 0.653300 0.256140
vt 0.619830 0.235730
vt 0.614350 0.238770
vt 0.609570 0.241410
vt 0.613610 0.242770
vt 0.621070 0.245280
vt 0.602640 0.248830
vt 0.604840 0.244030
vt 0.604530 0.244200
vt 0.602790 0.245160
vt 0.589850 0.252310
vt 0.624860 0.257060
vt 0.578590 0.258540
vt 0.586000 0.258000
vt 0.627640 0.265710
vt 0.611000 0.274880
vt 0.555940 0.310000
vt 0.585410 0.258320
vt 0.581940 0.260230
vt 0.576530 0.263220
vt 0.576450 0.259730
vt 0.575720 0.260130
vt 0.570240 0.263170
vt 0.565470 0.265810
vt 0.569380 0.267170
vt 0.550720 0.293730
vt 0.563360 0.266970
vt 0.571660 0.274290
vt 0.559330 0.269200
vt 0.555830 0.271130
vt 0.549140 0.274840
vt 0.577730 0.293220
vt 0.545310 0.276950
vt 0.594380 0.284050
vt 0.648690 0.294550
vt 0.663270 0.286380
vt 0.580920 0.331830
vt 0.565890 0.340240
vt 0.663270 0.286380
vt 0.653300 0.256140
vt 0.648690 0.294550
vt 0.580920 0.331830
vt 0.555940 0.310000
vt 0.565890 0.340240
vt 0.600010 0.253720
vt 0.611000 0.274880
vt 0.589870 0.256980
vt 0.600010 0.253720
vt 0.596520 0.260250
vt 0.579870 0.269420
vt 0.623770 0.266720
vn -0.3171 -0.5996 0.7348
vn 0.6509 -0.1911 0.7347
vn 0.6508 -0.1912 0.7348
vn 0.6508 -0.1911 0.7348
vn 0.3171 0.5997 0.7347
vn 0.3171 0.5996 0.7348
vn -0.6508 0.1911 0.7348
vn -0.6509 0.1911 0.7347
vn -0.1793 -0.3391 0.9235
vn 0.3681 -0.1081 0.9235
vn 0.1793 0.3391 0.9235
vn -0.3171 -0.5997 0.7347
vn 0.6509 -0.1911 0.7348
vn 0.6507 -0.1911 0.7349
vn -0.3681 0.1081 0.9235
vn 0.0000 0.0000 -1.0000
vn 0.0000 0.0000 1.0000
vn -0.0001 0.0000 1.0000
vn -0.3171 -0.5997 0.7348
vn 0.1794 0.3392 0.9235
s off
f 1/1/1 4/2/1 5/3/1
f 1/1/1 5/3/1 2/4/1
f 4/2/1 6/5/1 5/3/1
f 8/6/2 9/7/2 10/8/2
f 12/9/3 9/7/3 11/10/3
f 12/9/4 13/11/4 9/7/4
f 14/12/5 15/13/5 16/14/5
f 14/12/6 17/15/6 15/13/6
f 14/12/6 16/14/6 18/16/6
f 19/17/7 20/18/7 21/19/7
f 22/20/7 19/17/7 21/19/7
f 23/21/8 22/20/8 21/19/8
f 23/21/7 21/19/7 24/22/7
f 25/23/9 26/24/9 27/25/9
f 25/23/9 28/26/9 26/24/9
f 25/23/9 29/27/9 28/26/9
f 30/28/10 31/29/10 32/30/10
f 33/31/11 34/32/11 35/33/11
f 33/31/11 35/33/11 36/34/11
f 33/31/11 36/34/11 37/35/11
f 41/36/1 44/37/1 45/38/1
f 41/36/12 43/39/12 44/37/12
f 42/40/1 46/41/1 43/39/1
f 46/41/1 47/42/1 43/39/1
f 48/43/13 49/44/13 50/45/13
f 51/46/13 49/44/13 48/43/13
f 52/47/14 49/44/14 51/46/14
f 52/47/4 53/48/4 49/44/4
f 54/49/5 55/50/5 56/51/5
f 54/49/6 57/52/6 55/50/6
f 54/49/6 56/51/6 58/53/6
f 59/54/7 60/55/7 61/56/7
f 59/54/7 61/56/7 62/57/7
f 62/57/8 61/56/8 63/58/8
f 63/58/8 61/56/8 64/59/8
f 65/60/9 68/61/9 66/62/9
f 65/60/9 69/63/9 68/61/9
f 70/64/10 71/65/10 72/66/10
f 73/67/11 74/68/11 75/69/11
f 73/67/11 76/70/11 77/71/11
f 78/72/15 79/73/15 80/74/15
f 81/75/1 82/76/1 83/77/1
f 81/75/12 84/78/12 85/79/12
f 81/75/1 85/79/1 82/76/1
f 84/78/1 86/80/1 85/79/1
f 86/80/1 87/81/1 85/79/1
f 88/82/2 89/83/2 90/84/2
f 91/85/4 89/83/4 88/82/4
f 92/86/4 89/83/4 91/85/4
f 92/86/4 93/87/4 89/83/4
f 94/88/6 95/89/6 96/90/6
f 97/91/6 98/92/6 95/89/6
f 94/88/6 97/91/6 95/89/6
f 94/88/6 96/90/6 99/93/6
f 100/94/7 101/95/7 102/96/7
f 103/97/7 100/94/7 102/96/7
f 104/98/7 103/97/7 102/96/7
f 104/98/8 102/96/8 105/99/8
f 106/100/9 107/101/9 108/102/9
f 106/100/9 109/103/9 107/101/9
f 111/104/10 112/105/10 113/106/10
f 114/107/11 115/108/11 116/109/11
f 114/107/11 117/110/11 118/111/11
f 119/112/15 120/113/15 121/114/15
f 122/115/16 123/116/16 124/117/16
f 122/115/16 125/118/16 123/116/16
f 123/116/16 125/118/16 126/119/16
f 127/120/16 128/121/16 122/115/16
f 125/118/16 122/115/16 129/122/16
f 128/121/16 129/122/16 122/115/16
f 130/123/16 131/124/16 127/120/16
f 131/124/16 132/125/16 127/120/16
f 127/120/16 133/126/16 128/121/16
f 127/120/16 134/127/16 133/126/16
f 127/120/16 132/125/16 134/127/16
f 131/124/16 135/128/16 132/125/16
f 128/121/16 133/126/16 136/129/16
f 133/126/16 137/130/16 136/129/16
f 128/121/16 138/131/16 129/122/16
f 128/121/16 136/129/16 138/131/16
f 137/130/16 133/126/16 134/127/16
f 139/132/16 137/130/16 134/127/16
f 140/133/16 126/119/16 125/118/16
f 129/122/16 141/134/16 125/118/16
f 141/134/16 140/133/16 125/118/16
f 129/122/16 138/131/16 141/134/16
f 139/132/16 134/127/16 132/125/16
f 142/135/16 132/125/16 135/128/16
f 139/132/16 132/125/16 142/135/16
f 142/135/16 135/128/16 143/136/16
f 144/137/17 145/138/17 146/139/17
f 147/140/17 144/137/17 146/139/17
f 146/139/17 148/141/17 149/142/17
f 146/139/17 149/142/17 147/140/17
f 150/143/17 151/144/17 144/137/17
f 152/145/17 144/137/17 147/140/17
f 153/146/17 144/137/17 152/145/17
f 154/147/17 144/137/17 153/146/17
f 154/147/17 155/148/17 144/137/17
f 155/148/17 156/149/17 144/137/17
f 156/149/17 157/150/17 144/137/17
f 157/150/17 150/143/17 144/137/17
f 158/151/17 151/144/17 159/152/17
f 151/144/17 160/153/17 159/152/17
f 150/143/17 161/154/17 151/144/17
f 161/154/17 162/155/17 151/144/17
f 162/155/17 163/156/17 151/144/17
f 163/156/17 164/157/17 151/144/17
f 164/157/17 165/158/17 151/144/17
f 151/144/17 165/158/17 166/159/17
f 151/144/17 166/159/17 167/160/17
f 151/144/17 167/160/17 168/161/17
f 151/144/17 168/161/17 169/162/17
f 170/163/17 151/144/17 169/162/17
f 171/164/17 151/144/17 170/163/17
f 160/153/17 151/144/17 171/164/17
f 160/153/17 172/165/17 159/152/17
f 172/165/17 173/166/17 159/152/17
f 174/167/17 175/168/17 176/169/17
f 177/170/17 175/168/17 174/167/17
f 178/171/17 175/168/17 177/170/17
f 179/172/17 180/173/17 181/174/17
f 179/172/17 181/174/17 182/175/17
f 182/175/17 181/174/17 183/176/17
f 183/176/17 181/174/17 184/177/17
f 185/178/17 186/179/17 187/180/17
f 186/179/17 185/178/17 188/181/17
f 188/181/17 185/178/17 189/182/17
f 189/182/17 185/178/17 190/183/17
f 191/184/17 192/185/17 193/186/17
f 192/185/17 194/187/17 193/186/17
f 194/187/17 195/188/17 193/186/17
f 195/188/17 196/189/17 193/186/17
f 197/190/17 198/191/17 199/192/17
f 197/190/17 199/192/17 200/193/17
f 200/193/17 199/192/17 201/194/17
f 202/195/17 203/196/17 204/197/17
f 205/198/17 203/196/17 202/195/17
f 206/199/17 203/196/17 205/198/17
f 207/200/17 208/201/17 209/202/17
f 207/200/17 209/202/17 210/203/17
f 211/204/16 212/205/16 213/206/16
f 211/204/16 213/206/16 214/207/16
f 215/208/16 211/204/16 214/207/16
f 216/209/16 211/204/16 215/208/16
f 217/210/16 211/204/16 216/209/16
f 217/210/16 218/211/16 219/212/16
f 217/210/16 219/212/16 211/204/16
f 218/211/16 220/213/16 219/212/16
f 220/213/16 221/214/16 219/212/16
f 221/214/16 222/215/16 219/212/16
f 219/212/16 222/215/16 223/216/16
f 219/212/16 223/216/16 224/217/16
f 219/212/16 224/217/16 225/218/16
f 219/212/16 225/218/16 226/219/16
f 219/212/16 226/219/16 227/220/16
f 227/220/16 228/221/16 219/212/16
f 229/222/16 227/220/16 230/223/16
f 227/220/16 229/222/16 228/221/16
f 229/222/16 230/223/16 231/224/16
f 229/222/16 231/224/16 232/225/16
f 229/222/16 232/225/16 233/226/16
f 234/227/16 235/228/16 233/226/16
f 229/222/16 233/226/16 235/228/16
f 236/229/16 235/228/16 234/227/16
f 237/230/16 235/228/16 236/229/16
f 237/230/16 238/231/16 235/228/16
f 238/231/16 239/232/16 235/228/16
f 240/233/17 241/234/17 242/235/17
f 243/236/17 240/233/17 242/235/17
f 244/237/17 243/236/17 242/235/17
f 245/238/17 244/237/17 242/235/17
f 246/239/17 245/238/17 242/235/17
f 246/239/17 247/240/17 248/241/17
f 249/242/17 247/240/17 246/239/17
f 249/242/17 246/239/17 242/235/17
f 248/241/17 247/240/17 250/243/17
f 250/243/17 247/240/17 251/244/17
f 251/244/17 247/240/17 252/245/17
f 253/246/17 252/245/17 247/240/17
f 247/240/17 249/242/17 254/247/17
f 253/246/17 255/248/17 252/245/17
f 252/245/17 255/248/17 256/249/17
f 256/249/17 255/248/17 257/250/17
f 257/250/17 255/248/17 258/251/17
f 258/251/17 255/248/17 259/252/17
f 260/253/17 254/247/17 249/242/17
f 259/252/17 255/248/17 261/254/17
f 261/254/17 255/248/17 262/255/17
f 263/256/17 260/253/17 249/242/17
f 264/257/17 263/256/17 249/242/17
f 265/258/17 264/257/17 249/242/17
f 261/254/18 262/255/18 267/259/18
f 269/260/17 261/254/17 267/259/17
f 261/254/17 270/261/17 271/262/17
f 261/254/17 269/260/17 270/261/17
f 271/262/17 270/261/17 272/263/17
f 272/263/17 270/261/17 273/264/17
f 273/264/17 270/261/17 274/265/17
f 275/266/17 274/265/17 270/261/17
f 274/265/17 277/267/17 278/268/17
f 275/266/17 279/269/17 274/265/17
f 279/269/17 265/258/17 274/265/17
f 274/265/17 265/258/17 277/267/17
f 278/268/17 277/267/17 280/270/17
f 280/270/17 277/267/17 281/271/17
f 277/267/17 282/272/17 281/271/17
f 279/269/17 283/273/17 265/258/17
f 277/267/17 284/274/17 282/272/17
f 264/257/17 265/258/17 276/275/17
f 283/273/17 276/275/17 265/258/17
f 285/276/17 249/242/17 286/277/17
f 285/276/17 287/278/17 249/242/17
f 287/278/17 265/258/17 249/242/17
f 288/279/17 265/258/17 287/278/17
f 289/280/16 290/281/16 291/282/16
f 290/281/16 292/283/16 291/282/16
f 293/284/16 292/283/16 290/281/16
f 293/284/16 294/285/16 292/283/16
s 1
f 1/1/1 2/4/1 3/286/1
f 6/5/19 7/287/19 5/3/19
f 11/10/2 9/7/2 8/6/2
f 38/288/15 39/289/15 40/290/15
f 41/36/12 42/40/12 43/39/12
f 65/60/9 66/62/9 67/291/9
f 73/67/20 75/69/20 76/70/20
f 106/100/9 110/292/9 109/103/9
f 114/107/11 116/109/11 117/110/11
