# Blender v3.0.1 OBJ File: 'rockerfeller_plaza.blend'
# www.blender.org
o geometryt000010000010000110010110000110000110100000110110st26_T
v 1196.997437 -210.178009 736.614014
v 1186.477295 -194.247406 736.614014
v 1205.262329 -204.396805 736.614014
v 1192.601440 -218.312012 736.614014
v 1172.181885 -220.705002 736.614014
v 1203.436279 -207.782211 736.614014
v 1200.973755 -212.329712 736.614014
v 1195.048950 -223.290405 736.614014
v 1196.586182 -220.463608 736.614014
v 1190.958496 -230.854614 736.614014
v 1190.958496 -230.854614 828.114075
v 1192.601440 -218.312012 828.114075
v 1172.181885 -220.705002 828.114075
v 1186.477295 -194.247406 828.114075
v 1195.048950 -223.290405 828.114075
v 1196.586182 -220.463608 828.114075
v 1196.997437 -210.178009 828.114075
v 1200.973755 -212.329712 828.114075
v 1203.436279 -207.782211 828.114075
v 1205.262329 -204.396805 828.114075
vt 0.320030 0.390770
vt 0.294380 0.369940
vt 0.306880 0.407560
vt 0.336220 0.381710
vt 0.347070 0.340500
vt 0.313620 0.403800
vt 0.322680 0.398730
vt 0.344500 0.386530
vt 0.338870 0.389690
vt 0.359570 0.378110
vt 0.359570 0.378110
vt 0.336220 0.381710
vt 0.347070 0.340500
vt 0.294380 0.369940
vt 0.344500 0.386530
vt 0.338870 0.389690
vt 0.320030 0.390770
vt 0.322680 0.398730
vt 0.313620 0.403800
vt 0.306880 0.407560
vn 0.0000 0.0000 -1.0000
vn -0.0000 0.0000 1.0000
s off
f 1/1/1 2/2/1 3/3/1
f 4/4/1 2/2/1 1/1/1
f 5/5/1 2/2/1 4/4/1
f 1/1/1 3/3/1 6/6/1
f 7/7/1 1/1/1 6/6/1
f 8/8/1 4/4/1 9/9/1
f 10/10/1 4/4/1 8/8/1
f 10/10/1 5/5/1 4/4/1
f 11/11/2 12/12/2 13/13/2
f 12/12/2 14/14/2 13/13/2
f 12/12/2 11/11/2 15/15/2
f 16/16/2 12/12/2 15/15/2
f 12/12/2 17/17/2 14/14/2
f 18/18/2 19/19/2 17/17/2
f 19/19/2 20/20/2 17/17/2
f 17/17/2 20/20/2 14/14/2
