# Blender v3.0.1 OBJ File: 'rockerfeller_plaza.blend'
# www.blender.org
o geometryt000010000010000110010110000110000110100000110010st86_P
v 1108.759521 -65.494736 482.882996
v 1099.551392 -60.411629 465.902802
v 1117.182739 -70.144608 465.902802
v 1102.721924 -62.161808 482.882996
v 1099.551392 -60.411629 482.882996
v 1117.182739 -70.144608 482.882996
v 1101.040649 -55.713749 465.902802
v 1098.953247 -59.490917 465.902802
v 1098.953247 -59.490917 482.882996
v 1101.040649 -55.713749 482.882996
v 1101.563354 -51.448479 465.902802
v 1100.190186 -53.976681 465.902802
v 1100.190186 -53.976681 482.882996
v 1101.563354 -51.448479 482.882996
v 1107.080933 -41.493649 590.882996
v 1107.080933 -41.493649 465.902802
v 1102.195190 -50.298691 465.902802
v 1102.195190 -50.298691 590.882996
v 1102.201904 -51.118938 482.882996
v 1104.529419 -52.394657 482.882996
v 1102.201904 -51.118938 590.882996
v 1117.339355 -59.416000 590.882996
v 1117.339355 -59.416000 482.882996
v 1108.716431 -38.554359 465.902802
v 1108.141235 -39.593369 465.902802
v 1108.141235 -39.593369 583.882996
v 1108.716431 -38.554359 583.882996
v 1124.367798 -46.755039 554.882996
v 1112.617554 -40.302898 554.882996
v 1124.367798 -46.755039 583.882996
v 1109.236572 -38.446407 583.882996
v 1109.236572 -38.446407 554.882996
v 1110.394775 -35.519421 494.376465
v 1111.092163 -34.261299 465.902802
v 1109.697266 -36.777538 465.902802
v 1111.092163 -34.261299 494.376465
v 1109.697266 -36.777538 526.409363
v 1109.784058 -36.620819 526.409363
v 1109.784058 -36.620819 525.882996
v 1110.394775 -35.519421 525.882996
v 1125.276245 -45.112179 554.882996
v 1125.276245 -45.112179 525.882996
v 1114.673096 -39.300518 525.882996
v 1110.138550 -36.815121 554.882996
v 1110.138550 -36.815121 525.882996
v 1126.185669 -43.480598 495.882996
v 1118.007446 -38.998020 495.882996
v 1126.185669 -43.480598 525.882996
v 1111.048096 -35.183540 525.882996
v 1111.048096 -35.183540 495.882996
v 1127.087769 -41.849300 495.882996
v 1127.087769 -41.849300 465.902802
v 1111.956543 -33.540668 465.902802
v 1111.956543 -33.540668 495.882996
v 1118.041016 -58.983917 590.882996
v 1118.041016 -58.983917 482.882996
v 1118.637939 -57.908070 482.882996
v 1122.926636 -50.178867 590.882996
v 1122.926636 -50.178867 482.882996
v 1118.376953 -69.984367 482.882996
v 1118.376953 -69.984367 465.902802
v 1120.458740 -66.204109 465.902802
v 1120.458740 -66.204109 482.882996
v 1121.484985 -65.965759 482.882996
v 1121.484985 -65.965759 465.902802
v 1122.737427 -66.673538 465.902802
v 1122.737427 -66.673538 482.882996
v 1123.602539 -66.730316 465.902802
v 1124.998413 -64.214592 465.902802
v 1124.998413 -64.214592 482.882996
v 1123.602539 -66.730316 482.882996
v 1124.726318 -46.951908 482.882996
v 1126.329468 -44.054619 493.331299
v 1124.239990 -47.830620 482.882996
v 1125.633057 -45.313290 524.676147
v 1124.726318 -46.951908 554.882996
v 1124.239990 -47.830620 583.882996
v 1124.800049 -46.818649 482.882996
v 1125.041382 -46.382538 482.882996
v 1125.180420 -46.131298 482.882996
v 1125.242432 -46.019211 482.882996
v 1125.635376 -45.309071 482.882996
v 1125.941528 -44.755890 482.882996
v 1126.203857 -44.281738 482.882996
v 1126.539795 -43.674679 482.882996
v 1127.026001 -42.795959 482.882996
v 1127.026001 -42.795959 493.331299
v 1126.329468 -44.054619 524.676147
v 1125.633057 -45.313290 552.538208
v 1124.936523 -46.571960 552.538208
v 1124.936523 -46.571960 554.882996
v 1124.726318 -46.951908 583.882996
v 1131.263672 -52.915630 482.882996
v 1125.550781 -63.234978 465.902802
v 1134.608398 -46.873978 465.902802
v 1125.550781 -63.234978 482.882996
v 1133.134033 -49.537178 482.882996
v 1134.608398 -46.873978 482.882996
v 1134.350098 -45.874950 465.902802
v 1128.060059 -42.386559 465.902802
v 1128.060059 -42.386559 482.882996
v 1134.350098 -45.874950 482.882996
vt 1.218600 1.250000
vt 0.000000 0.000000
vt 2.333330 0.000000
vt 0.419580 1.250000
vt 0.000000 1.250000
vt 2.333330 1.250000
vt 0.000000 0.000000
vt 0.500000 0.000000
vt 0.500000 1.250000
vt 0.000000 1.250000
vt 0.000000 0.000000
vt 0.333330 0.000000
vt 0.333330 1.250000
vt 0.000000 1.250000
vt 0.000000 6.250000
vt 0.000000 0.000000
vt 1.166670 0.000000
vt 1.166670 6.250000
vt 0.000000 0.000000
vt 0.307510 0.000000
vt 0.000000 5.500000
vt 2.000000 5.500000
vt 2.000000 0.000000
vt 0.000000 0.000000
vt 0.166670 0.000000
vt 0.166670 7.000000
vt 0.000000 7.000000
vt 0.000000 0.000000
vt 1.553120 0.000000
vt 0.000000 1.750000
vt 2.000000 1.750000
vt 2.000000 0.000000
vt 0.166670 2.000000
vt 0.000000 0.000000
vt 0.333330 0.000000
vt 0.000000 2.000000
vt 0.333330 4.250000
vt 0.312570 4.250000
vt 0.312570 4.213030
vt 0.166670 4.213030
vt 0.000000 2.000000
vt 0.000000 0.000000
vt 1.400900 0.000000
vt 2.000000 2.000000
vt 2.000000 0.000000
vt 0.000000 0.000000
vt 1.080520 0.000000
vt 0.000000 2.000000
vt 2.000000 2.000000
vt 2.000000 0.000000
vt 0.000000 2.250000
vt 0.000000 0.000000
vt 2.000000 0.000000
vt 2.000000 2.250000
vt 0.000000 5.500000
vt 0.000000 0.000000
vt 0.142550 0.000000
vt 1.166670 5.500000
vt 1.166670 0.000000
vt 0.000000 1.250000
vt 0.000000 0.000000
vt 0.500000 0.000000
vt 0.500000 1.250000
vt 0.000000 1.250000
vt 0.000000 0.000000
vt 0.166670 0.000000
vt 0.166670 1.250000
vt 0.000000 0.000000
vt 0.333330 0.000000
vt 0.333330 1.250000
vt 0.000000 1.250000
vt 0.116360 0.000000
vt 0.500000 0.750000
vt 0.000000 0.000000
vt 0.333330 3.000000
vt 0.116360 5.168320
vt 0.000000 7.250000
vt 0.134000 0.000000
vt 0.191750 0.000000
vt 0.225020 0.000000
vt 0.239860 0.000000
vt 0.333890 0.000000
vt 0.407140 0.000000
vt 0.469930 0.000000
vt 0.550310 0.000000
vt 0.666670 0.000000
vt 0.666670 0.750000
vt 0.500000 3.000000
vt 0.333330 5.000000
vt 0.166670 5.000000
vt 0.166670 5.168320
vt 0.116360 7.250000
vt 1.366580 1.250000
vt 0.000000 0.000000
vt 2.166670 0.000000
vt 0.000000 1.250000
vt 1.813980 1.250000
vt 2.166670 1.250000
vt 0.000000 0.000000
vt 0.833330 0.000000
vt 0.833330 1.250000
vt 0.000000 1.250000
vn -0.4833 -0.8755 0.0000
vn -0.4832 -0.8755 0.0000
vn -0.8752 0.4837 0.0000
vn -0.8788 0.4772 0.0000
vn -0.8787 0.4773 0.0000
vn -0.8744 0.4852 0.0000
vn -0.4806 -0.8769 0.0000
vn -0.4807 -0.8769 -0.0000
vn -0.8749 0.4843 0.0000
vn 0.4813 0.8765 0.0000
vn -0.8746 0.4848 0.0000
vn -0.8746 0.4849 0.0000
vn -0.8747 0.4847 -0.0000
vn -0.8745 0.4851 0.0000
vn 0.4806 0.8769 0.0000
vn 0.4807 0.8769 0.0000
vn 0.8744 -0.4852 0.0000
vn 0.8760 -0.4824 0.0000
vn 0.8759 -0.4824 0.0000
vn -0.4920 -0.8706 0.0000
vn 0.8744 -0.4851 0.0000
vn 0.8744 -0.4853 0.0000
vn 0.8749 -0.4843 0.0000
vn 0.8750 -0.4841 -0.0000
vn 0.8749 -0.4842 -0.0000
vn 0.8750 -0.4842 0.0000
vn 0.8752 -0.4837 -0.0000
vn 0.8748 -0.4845 0.0000
vn 0.8752 -0.4838 0.0000
vn 0.8748 -0.4844 -0.0000
vn 0.8751 -0.4840 0.0000
vn 0.4850 0.8745 0.0000
vn -0.8754 0.4834 -0.0000
s off
f 1/1/1 2/2/1 3/3/1
f 4/4/1 2/2/1 1/1/1
f 5/5/2 2/2/2 4/4/2
f 1/1/1 3/3/1 6/6/1
f 7/7/3 8/8/3 9/9/3
f 10/10/3 7/7/3 9/9/3
f 11/11/4 12/12/4 13/13/4
f 14/14/5 11/11/5 13/13/5
f 15/15/6 16/16/6 17/17/6
f 15/15/6 17/17/6 18/18/6
f 19/19/7 20/20/7 21/21/7
f 22/22/7 20/20/7 23/23/7
f 21/21/8 20/20/8 22/22/8
f 24/24/9 25/25/9 26/26/9
f 27/27/9 24/24/9 26/26/9
f 28/28/10 29/29/10 30/30/10
f 31/31/10 29/29/10 32/32/10
f 33/33/11 34/34/11 35/35/11
f 36/36/12 34/34/12 33/33/12
f 37/37/11 33/33/11 35/35/11
f 38/38/13 39/39/13 37/37/13
f 39/39/14 40/40/14 33/33/14
f 41/41/15 42/42/15 43/43/15
f 44/44/15 43/43/15 45/45/15
f 46/46/16 47/47/16 48/48/16
f 49/49/15 47/47/15 50/50/15
f 48/48/15 47/47/15 49/49/15
f 51/51/10 52/52/10 53/53/10
f 51/51/10 53/53/10 54/54/10
f 55/55/17 56/56/17 57/57/17
f 58/58/17 57/57/17 59/59/17
f 58/58/17 55/55/17 57/57/17
f 60/60/18 61/61/18 62/62/18
f 60/60/19 62/62/19 63/63/19
f 64/64/20 65/65/20 66/66/20
f 64/64/20 66/66/20 67/67/20
f 68/68/21 69/69/21 70/70/21
f 71/71/22 68/68/22 70/70/22
f 72/72/23 73/73/23 74/74/23
f 73/73/24 75/75/24 74/74/24
f 75/75/25 76/76/25 74/74/25
f 76/76/26 77/77/26 74/74/26
f 72/72/27 78/78/27 73/73/27
f 79/79/28 73/73/28 78/78/28
f 79/79/29 80/80/29 73/73/29
f 73/73/30 80/80/30 81/81/30
f 81/81/24 82/82/24 73/73/24
f 73/73/23 82/82/23 83/83/23
f 73/73/31 83/83/31 84/84/31
f 73/73/26 84/84/26 85/85/26
f 86/86/24 87/87/24 85/85/24
f 73/73/23 85/85/23 87/87/23
f 73/73/24 88/88/24 75/75/24
f 75/75/26 89/89/26 90/90/26
f 75/75/24 90/90/24 76/76/24
f 90/90/23 91/91/23 76/76/23
f 76/76/26 92/92/26 77/77/26
f 93/93/23 94/94/23 95/95/23
f 96/96/23 94/94/23 93/93/23
f 97/97/23 95/95/23 98/98/23
f 97/97/23 93/93/23 95/95/23
f 99/99/32 100/100/32 101/101/32
f 102/102/32 99/99/32 101/101/32
s 1
f 30/30/10 29/29/10 31/31/10
f 37/37/33 39/39/33 33/33/33
f 44/44/15 41/41/15 43/43/15
