# Blender v3.0.1 OBJ File: 'rockerfeller_plaza.blend'
# www.blender.org
o geometryt000010000010000110010110000110000110100000000110st71_A
v 579.857178 -62.990837 204.209076
v 579.857178 -62.990837 193.609070
v 580.341675 -63.245670 193.609070
v 580.734619 -63.452377 193.609070
v 580.734619 -63.452377 204.209076
v 589.800354 -68.220963 204.209076
v 589.800354 -68.220963 193.609070
v 590.356934 -68.513702 193.609070
v 590.677856 -68.682503 193.609070
v 590.677856 -68.682503 204.209076
v 580.337952 -62.083778 204.209076
v 580.337952 -62.083778 193.609070
v 579.857178 -62.990837 193.609070
v 579.857178 -62.990837 204.209076
v 589.728027 -44.368507 204.209076
v 589.728027 -44.368507 193.609070
v 589.335083 -45.109768 193.609070
v 589.286072 -45.202309 193.609070
v 589.247192 -45.275570 204.209076
v 589.247192 -45.275570 193.609070
v 590.605469 -44.830048 204.209076
v 590.605469 -44.830048 193.609070
v 590.498962 -44.774017 193.609070
v 589.728027 -44.368507 193.609070
v 589.728027 -44.368507 204.209076
v 600.548584 -50.060169 204.209076
v 600.548584 -50.060169 193.609070
v 600.064209 -49.805328 193.609070
v 599.671204 -49.598629 193.609070
v 599.671204 -49.598629 204.209076
v 590.677856 -68.682503 204.209076
v 590.677856 -68.682503 193.609070
v 590.770508 -68.507706 193.609070
v 591.119812 -67.848717 193.609070
v 591.158630 -67.775444 204.209076
v 591.158630 -67.775444 193.609070
v 600.067932 -50.967228 204.209076
v 600.067932 -50.967228 193.609070
v 600.189819 -50.737110 193.609070
v 600.229980 -50.661339 193.609070
v 600.469238 -50.209980 193.609070
v 600.548584 -50.060169 204.209076
v 600.548584 -50.060169 193.609070
vt 0.000000 11.777780
vt 0.000000 0.000000
vt 0.608240 0.000000
vt 1.101600 0.000000
vt 1.101600 11.777780
vt 12.483140 11.777780
vt 12.483140 0.000000
vt 13.181840 0.000000
vt 13.584740 0.000000
vt 13.584740 11.777780
vt 22.277809 11.777780
vt 22.277809 0.000000
vt 23.418480 0.000000
vt 23.418480 11.777780
vt 0.000000 11.777780
vt 0.000000 0.000000
vt 0.932170 0.000000
vt 1.048540 0.000000
vt 1.140660 11.777780
vt 1.140660 0.000000
vt 12.483130 11.777780
vt 12.483130 0.000000
vt 12.616850 0.000000
vt 13.584710 11.777780
vt 0.000000 11.777780
vt 0.000000 0.000000
vt 0.608240 0.000000
vt 1.101590 11.777780
vt 0.000000 11.777780
vt 0.000000 0.000000
vt 0.219820 0.000000
vt 1.048540 0.000000
vt 1.140670 11.777780
vt 1.140670 0.000000
vt 22.277809 11.777780
vt 22.567200 0.000000
vt 22.662491 0.000000
vt 23.230089 0.000000
vt 23.418480 11.777780
vt 23.418480 0.000000
vt 13.584710 0.000000
vt 1.101590 0.000000
vt 22.277809 0.000000
vn -0.4655 -0.8850 0.0000
vn -0.4656 -0.8850 0.0000
vn -0.4655 -0.8851 0.0000
vn -0.8835 0.4684 0.0000
vn -0.8836 0.4683 0.0000
vn -0.8835 0.4683 0.0000
vn -0.8833 0.4687 -0.0000
vn -0.8838 0.4679 0.0000
vn 0.4659 0.8848 0.0000
vn 0.4655 0.8850 0.0000
vn 0.4656 0.8850 0.0000
vn 0.8835 -0.4684 0.0000
vn 0.8836 -0.4683 0.0000
vn 0.8838 -0.4678 0.0000
vn 0.8840 -0.4675 -0.0000
vn 0.8836 -0.4682 -0.0000
vn 0.4655 0.8851 0.0000
vn 0.8835 -0.4683 0.0000
s off
f 1/1/1 2/2/1 3/3/1
f 3/3/2 4/4/2 5/5/2
f 1/1/1 3/3/1 5/5/1
f 6/6/1 7/7/1 8/8/1
f 8/8/3 9/9/3 10/10/3
f 6/6/1 8/8/1 10/10/1
f 11/11/4 12/12/4 13/13/4
f 11/11/5 13/13/5 14/14/5
f 15/15/6 16/16/6 17/17/6
f 17/17/7 18/18/7 19/19/7
f 15/15/4 17/17/4 19/19/4
f 18/18/8 20/20/8 19/19/8
f 21/21/9 22/22/9 23/23/9
f 21/21/10 23/23/10 25/24/10
f 26/25/11 27/26/11 28/27/11
f 26/25/10 28/27/10 30/28/10
f 31/29/12 32/30/12 33/31/12
f 33/31/13 34/32/13 35/33/13
f 31/29/12 33/31/12 35/33/12
f 34/32/14 36/34/14 35/33/14
f 37/35/15 39/36/15 40/37/15
f 40/37/12 41/38/12 42/39/12
f 37/35/16 40/37/16 42/39/16
f 41/38/12 43/40/12 42/39/12
s 1
f 23/23/17 24/41/17 25/24/17
f 28/27/11 29/42/11 30/28/11
f 37/35/18 38/43/18 39/36/18
