# Blender v3.0.1 OBJ File: 'rockerfeller_plaza.blend'
# www.blender.org
o geometryt000010000010000110010110000110000110100000100010st11_B
v 698.211914 -112.744057 382.529633
v 698.393799 -112.408852 382.529633
v 710.480164 -119.462257 382.529633
v 706.126099 -113.828651 382.529633
v 709.554565 -92.183701 382.529633
v 710.047791 -106.720253 382.529633
v 710.367920 -116.151054 382.529633
v 713.427185 -100.594955 382.529633
v 713.258606 -85.501396 382.529633
v 716.598389 -94.846870 382.529633
v 724.034485 -123.633652 382.529633
v 726.027893 -127.963051 382.529633
v 717.204163 -93.748802 382.529633
v 725.037354 -98.037537 382.529633
v 760.972290 -111.623955 382.529633
v 718.230713 -95.464005 382.529633
v 729.217773 -126.471558 382.529633
v 735.132080 -123.706154 382.529633
v 751.553711 -112.555351 382.529633
v 730.362671 -127.098351 382.529633
v 740.475708 -132.635254 382.529633
v 746.010681 -138.910156 382.529633
v 736.437012 -125.886658 382.529633
v 745.158691 -124.146751 382.529633
v 755.227783 -122.138153 382.529633
v 748.971863 -117.235054 382.529633
v 710.480164 -119.462257 432.529633
v 698.393799 -112.408852 432.529633
v 698.211914 -112.744057 432.529633
v 706.126099 -113.828651 432.529633
v 709.554565 -92.183701 432.529633
v 710.047791 -106.720253 432.529633
v 710.367920 -116.151054 432.529633
v 713.427185 -100.594955 432.529633
v 716.598389 -94.846870 432.529633
v 713.258606 -85.501396 432.529633
v 714.210083 -99.175797 432.529633
v 715.409790 -118.911552 432.529633
v 726.027893 -127.963051 432.529633
v 717.204163 -93.748802 432.529633
v 725.037354 -98.037537 432.529633
v 760.972290 -111.623955 432.529633
v 724.034485 -123.633652 432.529633
v 729.217773 -126.471558 432.529633
v 742.270020 -107.472557 432.529633
v 730.362671 -127.098351 432.529633
v 740.475708 -132.635254 432.529633
v 746.010681 -138.910156 432.529633
v 743.469666 -127.208252 432.529633
v 751.553711 -112.555351 432.529633
v 745.158691 -124.146751 432.529633
v 755.227783 -122.138153 432.529633
v 748.971863 -117.235054 432.529633
v 717.204163 -93.748802 567.529663
v 706.126099 -113.828651 567.529663
v 740.475708 -132.635254 567.529663
v 751.553711 -112.555351 567.529663
vt 0.142230 0.396280
vt 0.141560 0.396660
vt 0.150550 0.420850
vt 0.141690 0.412210
vt 0.101210 0.419630
vt 0.127500 0.420280
vt 0.144560 0.420710
vt 0.115280 0.427240
vt 0.087870 0.427250
vt 0.103820 0.433760
vt 0.153830 0.448080
vt 0.161080 0.451990
vt 0.101620 0.435010
vt 0.106940 0.450700
vt 0.120230 0.522810
vt 0.104420 0.437040
vt 0.157350 0.458460
vt 0.150440 0.470440
vt 0.124920 0.503800
vt 0.158130 0.460750
vt 0.164990 0.481000
vt 0.174650 0.492010
vt 0.153990 0.473020
vt 0.148050 0.490640
vt 0.141190 0.510980
vt 0.134260 0.498490
vt 0.150550 0.420850
vt 0.141560 0.396660
vt 0.142230 0.396280
vt 0.141690 0.412210
vt 0.101210 0.419630
vt 0.127500 0.420280
vt 0.144560 0.420710
vt 0.115280 0.427240
vt 0.103820 0.433760
vt 0.087870 0.427250
vt 0.112450 0.428850
vt 0.147980 0.430800
vt 0.161080 0.451990
vt 0.101620 0.435010
vt 0.106940 0.450700
vt 0.120230 0.522810
vt 0.153830 0.448080
vt 0.157350 0.458460
vt 0.118630 0.485210
vt 0.158130 0.460750
vt 0.164990 0.481000
vt 0.174650 0.492010
vt 0.154160 0.487170
vt 0.124920 0.503800
vt 0.148050 0.490640
vt 0.141190 0.510980
vt 0.134260 0.498490
vt 0.101620 0.435010
vt 0.141690 0.412210
vt 0.164990 0.481000
vt 0.124920 0.503800
vn 0.0000 0.0000 -1.0000
vn 0.0000 0.0000 1.0000
s off
f 1/1/1 2/2/1 3/3/1
f 4/4/1 2/2/1 5/5/1
f 3/3/1 2/2/1 4/4/1
f 6/6/1 4/4/1 5/5/1
f 3/3/1 4/4/1 7/7/1
f 5/5/1 8/8/1 6/6/1
f 5/5/1 9/9/1 10/10/1
f 5/5/1 10/10/1 8/8/1
f 8/8/1 7/7/1 6/6/1
f 7/7/1 11/11/1 3/3/1
f 7/7/1 8/8/1 11/11/1
f 12/12/1 3/3/1 11/11/1
f 9/9/1 13/13/1 10/10/1
f 9/9/1 14/14/1 13/13/1
f 9/9/1 15/15/1 14/14/1
f 10/10/1 11/11/1 8/8/1
f 10/10/1 13/13/1 16/16/1
f 16/16/1 11/11/1 10/10/1
f 16/16/1 17/17/1 11/11/1
f 18/18/1 17/17/1 16/16/1
f 11/11/1 17/17/1 12/12/1
f 14/14/1 15/15/1 19/19/1
f 20/20/1 12/12/1 17/17/1
f 21/21/1 12/12/1 20/20/1
f 22/22/1 12/12/1 21/21/1
f 20/20/1 17/17/1 18/18/1
f 23/23/1 20/20/1 18/18/1
f 21/21/1 20/20/1 23/23/1
f 24/24/1 22/22/1 21/21/1
f 24/24/1 25/25/1 22/22/1
f 26/26/1 25/25/1 24/24/1
f 19/19/1 15/15/1 26/26/1
f 26/26/1 15/15/1 25/25/1
f 7/7/1 4/4/1 6/6/1
f 16/16/1 13/13/1 14/14/1
f 16/16/1 14/14/1 18/18/1
f 18/18/1 14/14/1 26/26/1
f 14/14/1 19/19/1 26/26/1
f 18/18/1 24/24/1 23/23/1
f 18/18/1 26/26/1 24/24/1
f 24/24/1 21/21/1 23/23/1
f 27/27/2 28/28/2 29/29/2
f 30/30/2 31/31/2 28/28/2
f 27/27/2 30/30/2 28/28/2
f 32/32/2 31/31/2 30/30/2
f 27/27/2 33/33/2 30/30/2
f 32/32/2 34/34/2 31/31/2
f 31/31/2 35/35/2 36/36/2
f 31/31/2 34/34/2 37/37/2
f 31/31/2 37/37/2 35/35/2
f 27/27/2 38/38/2 33/33/2
f 27/27/2 39/39/2 38/38/2
f 36/36/2 35/35/2 40/40/2
f 40/40/2 41/41/2 36/36/2
f 41/41/2 42/42/2 36/36/2
f 38/38/2 39/39/2 43/43/2
f 43/43/2 39/39/2 44/44/2
f 41/41/2 45/45/2 42/42/2
f 46/46/2 44/44/2 39/39/2
f 47/47/2 46/46/2 39/39/2
f 48/48/2 47/47/2 39/39/2
f 48/48/2 49/49/2 47/47/2
f 45/45/2 50/50/2 42/42/2
f 49/49/2 48/48/2 51/51/2
f 48/48/2 52/52/2 51/51/2
f 51/51/2 52/52/2 53/53/2
f 50/50/2 53/53/2 42/42/2
f 52/52/2 42/42/2 53/53/2
f 54/54/2 55/55/2 56/56/2
f 54/54/2 56/56/2 57/57/2
