# Blender v3.0.1 OBJ File: 'rockerfeller_plaza.blend'
# www.blender.org
o geometryt000010000010000110010110000110000110100000100100st12
v 441.664703 -191.906326 628.750916
v 441.787292 -191.677917 612.443909
v 440.952087 -193.233521 612.443909
v 441.787292 -191.677917 628.750916
v 440.952087 -193.233521 628.750916
v 443.443115 -188.593918 628.750916
v 443.443115 -188.593918 612.443909
v 442.607910 -190.149521 612.443909
v 442.607910 -190.149521 628.750916
v 446.769196 -182.398529 612.443909
v 444.263611 -187.065521 612.443909
v 444.263611 -187.065521 628.750916
v 446.769196 -182.398529 628.750916
v 448.424988 -179.314529 612.443909
v 447.589783 -180.870117 612.443909
v 447.589783 -180.870117 628.750916
v 448.424988 -179.314529 628.750916
v 451.751099 -173.119125 612.443909
v 449.245483 -177.786118 612.443909
v 449.245483 -177.786118 628.750916
v 451.751099 -173.119125 628.750916
v 453.406891 -170.035126 612.443909
v 452.571716 -171.590820 612.443909
v 452.571716 -171.590820 628.750916
v 453.406891 -170.035126 628.750916
v 455.062592 -166.951126 612.443909
v 454.227417 -168.506821 612.443909
v 454.227417 -168.506821 628.750916
v 455.062592 -166.951126 628.750916
v 441.092590 -193.700821 628.750916
v 441.092590 -193.700821 612.443909
v 442.647797 -194.537018 612.443909
v 442.647797 -194.537018 628.750916
v 444.366699 -195.461227 628.750916
v 444.366699 -195.461227 612.443909
v 445.921906 -196.297424 612.443909
v 445.921906 -196.297424 628.750916
v 446.388916 -196.156830 628.750916
v 446.388916 -196.156830 612.443909
v 447.224091 -194.601120 612.443909
v 447.224091 -194.601120 628.750916
v 448.044617 -193.072723 628.750916
v 448.044617 -193.072723 612.443909
v 448.879700 -191.517029 612.443909
v 448.879700 -191.517029 628.750916
v 449.700195 -189.988724 612.443909
v 452.205688 -185.321625 612.443909
v 452.205688 -185.321625 628.750916
v 449.700195 -189.988724 628.750916
v 453.026184 -183.793228 628.750916
v 453.026184 -183.793228 612.443909
v 453.861389 -182.237518 612.443909
v 453.861389 -182.237518 628.750916
v 454.681793 -180.709229 612.443909
v 457.187317 -176.042130 612.443909
v 457.187317 -176.042130 628.750916
v 454.681793 -180.709229 628.750916
v 458.007812 -174.513718 628.750916
v 458.007812 -174.513718 612.443909
v 458.843018 -172.958023 612.443909
v 458.843018 -172.958023 628.750916
v 459.663513 -171.429626 612.443909
v 460.498596 -169.873917 612.443909
v 460.498596 -169.873917 628.750916
v 459.663513 -171.429626 628.750916
v 457.083893 -167.646225 612.443909
v 455.528687 -166.810028 612.443909
v 455.528687 -166.810028 628.750916
v 457.083893 -167.646225 628.750916
v 460.358002 -169.406616 612.443909
v 458.802795 -168.570419 612.443909
v 458.802795 -168.570419 628.750916
v 460.358002 -169.406616 628.750916
vt 0.036710 1.000000
vt 0.000000 0.000000
vt 0.250000 0.000000
vt 0.000000 1.000000
vt 0.250000 1.000000
vt 0.000000 1.000000
vt 0.000000 0.000000
vt 0.250000 0.000000
vt 0.250000 1.000000
vt 0.000000 0.000000
vt 0.750000 0.000000
vt 0.750000 1.000000
vt 0.000000 1.000000
vt 0.000000 0.000000
vt 0.250000 0.000000
vt 0.250000 1.000000
vt 0.000000 1.000000
vt 0.000000 0.000000
vt 0.750000 0.000000
vt 0.750000 1.000000
vt 0.000000 1.000000
vt 0.000000 0.000000
vt 0.250000 0.000000
vt 0.250000 1.000000
vt 0.000000 1.000000
vt 0.000000 0.000000
vt 0.250000 0.000000
vt 0.250000 1.000000
vt 0.000000 1.000000
vt 0.000000 1.000000
vt 0.000000 0.000000
vt 0.250000 0.000000
vt 0.250000 1.000000
vt 0.000000 1.000000
vt 0.000000 0.000000
vt 0.250000 0.000000
vt 0.250000 1.000000
vt 0.000000 1.000000
vt 0.000000 0.000000
vt 0.250000 0.000000
vt 0.250000 1.000000
vt 0.000000 1.000000
vt 0.000000 0.000000
vt 0.250000 0.000000
vt 0.250000 1.000000
vt 0.000000 0.000000
vt 0.750000 0.000000
vt 0.750000 1.000000
vt 0.000000 1.000000
vt 0.000000 1.000000
vt 0.000000 0.000000
vt 0.250000 0.000000
vt 0.250000 1.000000
vt 0.000000 0.000000
vt 0.750000 0.000000
vt 0.750000 1.000000
vt 0.000000 1.000000
vt 0.000000 1.000000
vt 0.000000 0.000000
vt 0.250000 0.000000
vt 0.250000 1.000000
vt 0.000000 0.000000
vt 0.250000 0.000000
vt 0.250000 1.000000
vt 0.000000 1.000000
vt 0.000000 0.000000
vt 0.250000 0.000000
vt 0.250000 1.000000
vt 0.000000 1.000000
vt 0.000000 0.000000
vt 0.250000 0.000000
vt 0.250000 1.000000
vt 0.000000 1.000000
vn -0.8811 0.4730 0.0000
vn -0.8811 0.4729 0.0000
vn -0.8810 0.4731 0.0000
vn -0.8810 0.4730 0.0000
vn -0.4736 -0.8808 0.0000
vn -0.4736 -0.8807 0.0000
vn 0.8811 -0.4730 0.0000
vn 0.8811 -0.4729 0.0000
vn 0.8810 -0.4730 0.0000
vn 0.4736 0.8808 0.0000
s off
f 1/1/1 2/2/1 3/3/1
f 4/4/2 2/2/2 1/1/2
f 1/1/3 3/3/3 5/5/3
f 6/6/4 7/7/4 8/8/4
f 6/6/1 8/8/1 9/9/1
f 10/10/1 11/11/1 12/12/1
f 13/13/1 10/10/1 12/12/1
f 14/14/4 15/15/4 16/16/4
f 17/17/1 14/14/1 16/16/1
f 18/18/1 19/19/1 20/20/1
f 21/21/1 18/18/1 20/20/1
f 22/22/4 23/23/4 24/24/4
f 25/25/1 22/22/1 24/24/1
f 26/26/4 27/27/4 28/28/4
f 29/29/1 26/26/1 28/28/1
f 30/30/5 31/31/5 32/32/5
f 30/30/5 32/32/5 33/33/5
f 34/34/6 35/35/6 36/36/6
f 34/34/5 36/36/5 37/37/5
f 38/38/7 39/39/7 40/40/7
f 38/38/7 40/40/7 41/41/7
f 42/42/7 43/43/7 44/44/7
f 42/42/8 44/44/8 45/45/8
f 46/46/7 47/47/7 48/48/7
f 49/49/7 46/46/7 48/48/7
f 50/50/7 51/51/7 52/52/7
f 50/50/7 52/52/7 53/53/7
f 54/54/7 55/55/7 56/56/7
f 57/57/7 54/54/7 56/56/7
f 58/58/9 59/59/9 60/60/9
f 58/58/7 60/60/7 61/61/7
f 62/62/8 63/63/8 64/64/8
f 65/65/7 62/62/7 64/64/7
f 66/66/10 67/67/10 68/68/10
f 69/69/10 66/66/10 68/68/10
f 70/70/10 71/71/10 72/72/10
f 73/73/10 70/70/10 72/72/10
