# Blender v3.0.1 OBJ File: 'rockerfeller_plaza.blend'
# www.blender.org
o geometryt000010000010000110010110000110000100110010010110st90_N
v 181.295898 -315.669708 38.923420
v 181.295898 -315.669708 33.923420
v 185.789993 -317.910400 33.923420
v 186.921799 -318.474701 38.923420
v 186.921799 -318.474701 33.923420
v 187.792099 -318.622009 33.923420
v 189.015198 -318.139496 33.923420
v 187.792099 -318.622009 38.923420
v 189.209000 -318.063110 38.923420
v 189.209000 -318.063110 33.923420
v 189.815903 -317.314301 33.923420
v 202.263901 -290.227692 33.923420
v 189.815903 -317.314301 38.923420
v 206.222702 -281.613586 38.923420
v 206.222702 -281.613586 33.923420
v 206.201904 -280.833313 38.923420
v 206.201904 -280.833313 33.923420
v 205.292099 -280.364288 33.923420
v 205.193207 -280.313385 38.923420
v 205.193207 -280.313385 33.923420
vt 0.000000 0.250000
vt 0.000000 0.000000
vt 0.532550 0.000000
vt 0.666670 0.250000
vt 0.666670 0.000000
vt 0.000000 0.000000
vt 0.143880 0.000000
vt 0.000000 0.250000
vt 0.166670 0.250000
vt 0.000000 0.000000
vt 3.161310 0.000000
vt 0.000000 0.250000
vt 4.166670 0.250000
vt 4.166670 0.000000
vt 0.000000 0.250000
vt 0.000000 0.000000
vt 0.150330 0.000000
vt 0.166670 0.250000
vt 0.166670 0.000000
vt 0.166670 0.000000
vn -0.4462 -0.8949 0.0000
vn 0.3670 -0.9302 0.0000
vn 0.3669 -0.9302 -0.0000
vn 0.9086 -0.4176 0.0000
vn 0.4582 0.8888 0.0000
vn 0.4581 0.8889 0.0000
vn 0.3667 -0.9304 0.0000
s off
f 1/1/1 2/2/1 3/3/1
f 4/4/1 3/3/1 5/5/1
f 4/4/1 1/1/1 3/3/1
f 6/6/2 7/7/2 8/8/2
f 8/8/3 7/7/3 9/9/3
f 11/10/4 12/11/4 13/12/4
f 14/13/4 12/11/4 15/14/4
f 13/12/4 12/11/4 14/13/4
f 16/15/5 17/16/5 18/17/5
f 19/18/6 16/15/6 18/17/6
s 1
f 9/9/7 7/7/7 10/19/7
f 19/18/5 18/17/5 20/20/5
