# Blender v3.0.1 OBJ File: 'rockerfeller_plaza.blend'
# www.blender.org
o geometryt000010000010000110010110000110000110100000100110st158
v 507.790344 -220.400116 656.379944
v 507.627167 -220.704102 664.061584
v 507.790344 -220.400116 664.061584
v 509.278595 -217.627502 656.379944
v 507.627167 -220.704102 655.861572
v 509.278595 -217.627502 664.061584
v 509.476532 -217.258713 664.061584
v 509.476532 -217.258713 656.379944
v 510.220642 -215.872406 656.379944
v 510.220642 -215.872406 664.061584
v 510.418579 -215.503708 664.061584
v 510.418579 -215.503708 656.379944
v 511.906830 -212.731003 656.379944
v 511.906830 -212.731003 664.061584
v 512.104736 -212.362305 664.061584
v 512.104736 -212.362305 656.379944
v 512.848877 -210.975906 656.379944
v 512.848877 -210.975906 664.061584
v 513.046814 -210.607208 664.061584
v 513.046814 -210.607208 656.379944
v 516.767456 -203.675507 656.379944
v 516.767456 -203.675507 664.061584
v 516.965393 -203.306808 664.061584
v 516.965393 -203.306808 656.379944
v 522.187073 -193.578613 655.861572
v 517.709534 -201.920502 656.379944
v 517.709534 -201.920502 664.061584
v 517.907410 -201.551712 664.061584
v 517.907410 -201.551712 656.379944
v 519.395691 -198.779114 656.379944
v 519.395691 -198.779114 664.061584
v 519.593628 -198.410309 664.061584
v 519.593628 -198.410309 656.379944
v 520.337769 -197.024002 656.379944
v 520.337769 -197.024002 664.061584
v 520.535645 -196.655304 664.061584
v 520.535645 -196.655304 656.379944
v 522.023926 -193.882614 656.379944
v 522.023926 -193.882614 664.061584
v 522.187073 -193.578613 664.061584
v 513.955505 -224.098816 656.379944
v 514.737671 -224.518402 664.061584
v 513.955505 -224.098816 664.061584
v 507.627167 -220.704102 655.861572
v 508.409363 -221.123703 656.379944
v 514.737671 -224.518402 655.861572
v 508.409363 -221.123703 664.061584
v 507.627167 -220.704102 664.061584
v 529.134399 -197.696808 656.379944
v 529.297607 -197.392914 664.061584
v 529.134399 -197.696808 664.061584
v 527.646179 -200.469513 656.379944
v 529.297607 -197.392914 655.861572
v 527.646179 -200.469513 664.061584
v 527.448242 -200.838211 664.061584
v 527.448242 -200.838211 656.379944
v 526.704102 -202.224609 656.379944
v 526.704102 -202.224609 664.061584
v 526.506165 -202.593307 664.061584
v 526.506165 -202.593307 656.379944
v 525.017944 -205.366013 656.379944
v 525.017944 -205.366013 664.061584
v 524.820007 -205.734711 664.061584
v 524.820007 -205.734711 656.379944
v 524.075867 -207.121002 656.379944
v 524.075867 -207.121002 664.061584
v 523.877991 -207.489807 664.061584
v 523.877991 -207.489807 656.379944
v 520.157288 -214.421402 656.379944
v 520.157288 -214.421402 664.061584
v 519.959412 -214.790207 664.061584
v 519.959412 -214.790207 656.379944
v 514.737671 -224.518402 655.861572
v 519.215271 -216.176514 656.379944
v 519.215271 -216.176514 664.061584
v 519.017334 -216.545212 664.061584
v 519.017334 -216.545212 656.379944
v 517.529053 -219.317902 656.379944
v 517.529053 -219.317902 664.061584
v 517.331177 -219.686615 664.061584
v 517.331177 -219.686615 656.379944
v 516.587036 -221.073013 656.379944
v 516.587036 -221.073013 664.061584
v 516.389099 -221.441711 664.061584
v 516.389099 -221.441711 656.379944
v 514.900818 -224.214401 656.379944
v 514.900818 -224.214401 664.061584
v 514.737671 -224.518402 664.061584
v 522.528809 -193.762314 656.379944
v 522.187073 -193.578613 664.061584
v 522.528809 -193.762314 664.061584
v 528.414185 -196.925705 655.861572
v 528.072449 -196.742004 656.379944
v 522.187073 -193.578613 655.861572
v 528.072449 -196.742004 664.061584
v 528.414185 -196.925705 664.061584
v 529.297607 -197.392914 655.861572
v 528.414185 -196.925705 655.861572
v 528.414185 -196.925705 664.061584
v 529.297607 -197.392914 664.061584
vt 163.661804 2.787030
vt 165.516602 44.086021
vt 163.661804 44.086021
vt 146.743301 2.787030
vt 165.516602 0.000000
vt 144.493301 2.787030
vt 136.034103 2.787030
vt 136.034103 44.086021
vt 133.784103 44.086021
vt 133.784103 2.787030
vt 116.865601 2.787030
vt 116.865601 44.086021
vt 114.615700 44.086021
vt 114.615700 2.787030
vt 106.156403 2.787030
vt 106.156403 44.086021
vt 103.906403 44.086021
vt 103.906403 2.787030
vt 61.610199 2.787030
vt 61.610199 44.086021
vt 59.360229 44.086021
vt 59.360229 2.787030
vt 0.000000 0.000000
vt 50.900990 2.787030
vt 50.900990 44.086021
vt 48.651020 44.086021
vt 48.651020 2.787030
vt 31.732519 2.787030
vt 31.732519 44.086021
vt 29.482550 44.086021
vt 29.482550 2.787030
vt 21.023300 2.787030
vt 21.023300 44.086021
vt 18.773331 44.086021
vt 18.773331 2.787030
vt 1.854840 2.787030
vt 1.854840 44.086021
vt 0.000000 44.086021
vt 38.609180 2.787030
vt 43.381371 44.086021
vt 38.609180 44.086021
vt 0.000000 0.000000
vt 4.772190 2.787030
vt 43.381371 0.000000
vt 4.772190 44.086021
vt 0.000000 44.086021
vt 163.661804 2.787030
vt 165.516693 44.086021
vt 163.661804 44.086021
vt 146.743301 2.787030
vt 165.516693 0.000000
vt 146.743301 44.086021
vt 144.493393 44.086021
vt 144.493393 2.787030
vt 136.034103 2.787030
vt 136.034103 44.086021
vt 133.784103 44.086021
vt 133.784103 2.787030
vt 116.865601 2.787030
vt 116.865601 44.086021
vt 114.615700 44.086021
vt 114.615700 2.787030
vt 106.156403 2.787030
vt 106.156403 44.086021
vt 103.906502 44.086021
vt 103.906502 2.787030
vt 61.610210 2.787030
vt 61.610210 44.086021
vt 59.360241 44.086021
vt 59.360241 2.787030
vt 0.000000 0.000000
vt 50.901001 2.787030
vt 50.901001 44.086021
vt 48.651020 44.086021
vt 48.651020 2.787030
vt 31.732531 2.787030
vt 31.732531 44.086021
vt 29.482559 44.086021
vt 29.482559 2.787030
vt 21.023310 2.787030
vt 21.023310 44.086021
vt 18.773331 44.086021
vt 18.773331 2.787030
vt 1.854840 2.787030
vt 1.854840 44.086021
vt 0.000000 44.086021
vt 35.922829 2.787030
vt 38.008671 44.086021
vt 35.922829 44.086021
vt 0.000000 0.000000
vt 2.085840 2.787030
vt 38.008671 0.000000
vt 2.085840 44.086021
vt 0.000000 44.086021
vt 146.743301 44.086021
vt 144.493301 44.086021
vt 0.000000 0.000000
vt 5.372690 0.000000
vt 5.372690 44.086021
vt 0.000000 44.086021
vn -0.8811 0.4729 0.0000
vn -0.8811 0.4730 0.0000
vn -0.8813 0.4726 0.0001
vn -0.8811 0.4729 0.0001
vn -0.8811 0.4729 -0.0002
vn -0.8810 0.4731 0.0000
vn -0.8811 0.4729 0.0003
vn -0.8812 0.4728 0.0000
vn -0.8811 0.4729 -0.0001
vn -0.8813 0.4726 0.0002
vn -0.8810 0.4732 -0.0003
vn -0.8813 0.4726 0.0000
vn -0.4728 -0.8812 0.0000
vn -0.4727 -0.8812 0.0000
vn 0.8810 -0.4731 0.0000
vn 0.8811 -0.4729 0.0002
vn 0.8809 -0.4733 0.0000
vn 0.8811 -0.4729 0.0000
vn 0.8811 -0.4729 -0.0003
vn 0.8813 -0.4726 0.0001
vn 0.8808 -0.4735 -0.0002
vn 0.8808 -0.4736 -0.0002
vn 0.8811 -0.4729 0.0003
vn 0.8804 -0.4743 -0.0011
vn 0.8814 -0.4724 -0.0003
vn 0.8812 -0.4728 0.0000
vn 0.8811 -0.4729 -0.0001
vn 0.8811 -0.4729 0.0001
vn 0.8810 -0.4731 -0.0010
vn 0.8813 -0.4726 -0.0001
vn 0.8807 -0.4736 0.0006
vn 0.4734 0.8808 0.0000
vn 0.4735 0.8808 -0.0001
vn 0.4734 0.8809 0.0000
vn 0.4736 0.8807 0.0000
vn 0.4736 0.8808 0.0000
vn -0.8811 0.4730 -0.0006
vn -0.8808 0.4735 -0.0007
vn -0.8804 0.4743 0.0013
vn -0.8814 0.4724 -0.0002
vn -0.8814 0.4724 0.0013
vn -0.8804 0.4742 -0.0023
vn -0.8807 0.4736 0.0000
vn 0.8813 -0.4725 0.0017
vn 0.8813 -0.4725 -0.0016
vn 0.8804 -0.4743 0.0006
vn 0.4675 0.8840 0.0000
s off
f 1/1/1 2/2/1 3/3/1
f 4/4/1 5/5/1 1/1/1
f 2/2/2 1/1/2 5/5/2
f 8/6/3 9/7/3 5/5/3
f 10/8/2 11/9/2 9/7/2
f 11/9/2 12/10/2 9/7/2
f 12/10/4 13/11/4 5/5/4
f 14/12/2 15/13/2 13/11/2
f 15/13/1 16/14/1 13/11/1
f 16/14/5 17/15/5 5/5/5
f 18/16/6 19/17/6 17/15/6
f 19/17/1 20/18/1 17/15/1
f 20/18/4 21/19/4 5/5/4
f 22/20/6 23/21/6 21/19/6
f 23/21/1 24/22/1 21/19/1
f 21/19/1 25/23/1 5/5/1
f 26/24/7 25/23/7 24/22/7
f 27/25/8 28/26/8 26/24/8
f 28/26/8 29/27/8 26/24/8
f 30/28/9 25/23/9 29/27/9
f 31/29/8 32/30/8 30/28/8
f 32/30/2 33/31/2 30/28/2
f 34/32/10 25/23/10 33/31/10
f 35/33/1 36/34/1 34/32/1
f 36/34/1 37/35/1 34/32/1
f 37/35/11 25/23/11 34/32/11
f 38/36/1 25/23/1 37/35/1
f 39/37/12 40/38/12 38/36/12
f 40/38/6 25/23/6 38/36/6
f 41/39/13 42/40/13 43/41/13
f 44/42/14 41/39/14 45/43/14
f 44/42/14 46/44/14 41/39/14
f 47/45/14 48/46/14 45/43/14
f 48/46/14 44/42/14 45/43/14
f 49/47/15 50/48/15 51/49/15
f 52/50/16 53/51/16 49/47/16
f 50/48/17 49/47/17 53/51/17
f 54/52/18 55/53/18 52/50/18
f 55/53/15 56/54/15 52/50/15
f 56/54/19 53/51/19 52/50/19
f 56/54/20 57/55/20 53/51/20
f 58/56/15 59/57/15 57/55/15
f 59/57/18 60/58/18 57/55/18
f 57/55/21 60/58/22 53/51/22
f 60/58/23 61/59/23 53/51/23
f 62/60/15 63/61/15 61/59/15
f 63/61/18 64/62/18 61/59/18
f 61/59/24 64/62/24 53/51/24
f 64/62/25 65/63/25 53/51/25
f 66/64/26 67/65/26 65/63/26
f 67/65/26 68/66/26 65/63/26
f 68/66/27 69/67/27 53/51/27
f 70/68/26 71/69/26 69/67/26
f 71/69/26 72/70/26 69/67/26
f 69/67/28 73/71/28 53/51/28
f 74/72/18 73/71/18 72/70/18
f 75/73/18 76/74/18 74/72/18
f 76/74/15 77/75/15 74/72/15
f 78/76/28 73/71/28 77/75/28
f 79/77/18 80/78/18 78/76/18
f 80/78/18 81/79/18 78/76/18
f 81/79/29 73/71/29 78/76/29
f 82/80/30 73/71/30 81/79/30
f 83/81/15 84/82/15 82/80/15
f 84/82/18 85/83/18 82/80/18
f 85/83/31 73/71/31 82/80/31
f 86/84/18 73/71/18 85/83/18
f 87/85/18 88/86/18 86/84/18
f 88/86/18 73/71/18 86/84/18
f 89/87/32 90/88/32 91/89/32
f 92/90/33 89/87/33 93/91/33
f 92/90/34 94/92/34 89/87/34
f 90/88/35 89/87/35 94/92/35
f 95/93/36 96/94/36 93/91/36
f 96/94/34 92/90/34 93/91/34
s 1
f 6/95/1 7/96/1 4/4/1
f 7/96/1 8/6/1 4/4/1
f 8/6/1 5/5/37 4/4/1
f 9/7/38 12/10/38 5/5/38
f 13/11/39 16/14/39 5/5/39
f 17/15/40 20/18/40 5/5/40
f 24/22/41 25/23/41 21/19/41
f 29/27/42 25/23/42 26/24/42
f 33/31/43 25/23/43 30/28/43
f 42/40/14 41/39/14 46/44/14
f 65/63/44 68/66/44 53/51/44
f 72/70/45 73/71/45 69/67/45
f 77/75/46 73/71/46 74/72/46
f 97/97/47 98/98/47 99/99/47
f 97/97/47 99/99/47 100/100/47
