# Blender v3.0.1 OBJ File: 'rockerfeller_plaza.blend'
# www.blender.org
o geometryt000010000010000110010110000110000100110010010110st161_
v 62.811451 -215.641602 19.438410
v 75.584259 -198.196594 19.438410
v 65.351303 -217.011093 19.438410
v 74.474548 -194.212601 19.438410
v 106.397102 -211.451401 19.438410
v 105.926003 -212.322800 19.438410
v 104.967102 -214.076996 19.438410
v 71.793739 -211.307693 19.438410
v 80.814941 -216.177200 19.438410
v 86.358322 -218.133698 19.438410
v 82.060112 -226.032700 19.438410
v 76.199364 -203.207703 19.438410
v 79.153023 -204.800507 19.438410
v 85.228996 -208.076996 19.438410
v 83.067352 -212.043793 19.438410
v 99.032288 -224.981400 19.438410
v 70.336594 -207.845001 59.438412
v 62.811451 -215.641602 59.438412
v 65.351303 -217.011093 59.438412
v 75.584259 -198.196594 59.438412
v 74.474548 -194.212601 59.438412
v 106.397102 -211.451401 59.438412
v 89.898987 -205.933197 59.438412
v 105.926003 -212.322800 59.438412
v 104.967102 -214.076996 59.438412
v 71.793739 -211.307693 97.438408
v 75.584259 -198.196594 97.438408
v 65.351303 -217.011093 97.438408
v 79.789810 -215.623795 97.438408
v 80.814941 -216.177200 97.438408
v 86.358322 -218.133698 97.438408
v 82.060112 -226.032700 97.438408
v 72.294380 -210.387299 97.438408
v 76.199364 -203.207703 97.438408
v 77.225456 -203.761002 97.438408
v 79.153023 -204.800507 97.438408
v 85.228996 -208.076996 97.438408
v 104.967102 -214.076996 97.438408
v 83.067352 -212.043793 97.438408
v 84.727402 -208.997498 97.438408
v 99.032288 -224.981400 97.438408
v 76.199364 -203.207703 107.438400
v 71.793739 -211.307693 107.438400
v 80.814941 -216.177200 107.438400
v 85.228996 -208.076996 107.438400
vt 0.372440 0.121590
vt 0.336630 0.147740
vt 0.374120 0.126680
vt 0.329740 0.145600
vt 0.350960 0.209540
vt 0.352690 0.208570
vt 0.356190 0.206600
vt 0.361700 0.139800
vt 0.367690 0.157870
vt 0.369490 0.169000
vt 0.385230 0.160150
vt 0.345560 0.148870
vt 0.347520 0.154780
vt 0.351550 0.166950
vt 0.359450 0.162500
vt 0.377920 0.194380
vt 0.355860 0.136940
vt 0.372440 0.121590
vt 0.374120 0.126680
vt 0.336630 0.147740
vt 0.329740 0.145600
vt 0.350960 0.209540
vt 0.346160 0.176420
vt 0.352690 0.208570
vt 0.356190 0.206600
vt 0.361700 0.139800
vt 0.336630 0.147740
vt 0.374120 0.126680
vt 0.367010 0.155810
vt 0.367690 0.157870
vt 0.369490 0.169000
vt 0.385230 0.160150
vt 0.359860 0.140830
vt 0.345560 0.148870
vt 0.346240 0.150920
vt 0.347520 0.154780
vt 0.351550 0.166950
vt 0.356190 0.206600
vt 0.359450 0.162500
vt 0.353380 0.165920
vt 0.377920 0.194380
vt 0.345560 0.148870
vt 0.361700 0.139800
vt 0.367690 0.157870
vt 0.351550 0.166950
vn 0.0000 0.0000 -1.0000
vn 0.0000 0.0000 1.0000
vn 0.0001 0.0000 1.0000
s off
f 1/1/1 2/2/1 3/3/1
f 4/4/1 2/2/1 1/1/1
f 4/4/1 5/5/1 2/2/1
f 2/2/1 6/6/1 7/7/1
f 2/2/1 5/5/1 6/6/1
f 3/3/1 2/2/1 8/8/1
f 3/3/1 8/8/1 9/9/1
f 10/10/1 3/3/1 9/9/1
f 11/11/1 3/3/1 10/10/1
f 2/2/1 12/12/1 8/8/1
f 12/12/1 2/2/1 13/13/1
f 14/14/1 13/13/1 2/2/1
f 7/7/1 14/14/1 2/2/1
f 12/12/1 13/13/1 9/9/1
f 13/13/1 15/15/1 9/9/1
f 13/13/1 14/14/1 15/15/1
f 15/15/1 10/10/1 9/9/1
f 15/15/1 14/14/1 10/10/1
f 10/10/1 14/14/1 7/7/1
f 10/10/1 7/7/1 16/16/1
f 8/8/1 12/12/1 9/9/1
f 17/17/2 18/18/2 19/19/2
f 20/20/2 18/18/2 17/17/2
f 20/20/2 21/21/2 18/18/2
f 22/22/2 21/21/2 20/20/2
f 23/23/2 24/24/2 20/20/2
f 24/24/2 22/22/2 20/20/2
f 25/25/2 24/24/2 23/23/2
f 26/26/2 27/27/2 28/28/2
f 29/29/2 26/26/2 28/28/2
f 30/30/2 29/29/2 28/28/2
f 31/31/2 30/30/2 28/28/2
f 28/28/2 32/32/2 31/31/2
f 33/33/3 27/27/3 26/26/3
f 34/34/2 27/27/2 33/33/2
f 35/35/2 27/27/2 34/34/2
f 36/36/2 27/27/2 35/35/2
f 37/37/2 27/27/2 36/36/2
f 38/38/2 27/27/2 37/37/2
f 31/31/2 39/39/2 30/30/2
f 40/40/2 39/39/2 31/31/2
f 37/37/2 40/40/2 31/31/2
f 38/38/2 37/37/2 31/31/2
f 41/41/2 38/38/2 31/31/2
f 42/42/2 43/43/2 44/44/2
f 42/42/2 44/44/2 45/45/2
