# Blender v3.0.1 OBJ File: 'rockerfeller_plaza.blend'
# www.blender.org
o geometryt000010000010000110010110000110000110100000110000st113_
v 802.872620 -248.193634 427.893860
v 802.097656 -249.618744 427.893860
v 802.097656 -249.618744 609.271362
v 802.872620 -248.193634 609.271362
v 806.149902 -242.166840 427.893860
v 803.050171 -247.867035 427.893860
v 803.050171 -247.867035 609.271362
v 806.149902 -242.166840 609.271362
v 807.877319 -238.990143 427.893860
v 806.327454 -241.840240 427.893860
v 806.327454 -241.840240 609.271362
v 807.877319 -238.990143 609.271362
v 809.604797 -235.813446 609.271362
v 809.604797 -235.813446 427.893860
v 808.054932 -238.663635 427.893860
v 808.054932 -238.663635 609.271362
v 812.882080 -229.786636 427.893860
v 809.782349 -235.486938 427.893860
v 809.782349 -235.486938 609.271362
v 812.882080 -229.786636 609.271362
v 813.834595 -228.035034 609.271362
v 813.834595 -228.035034 427.893860
v 813.059631 -229.460144 427.893860
v 813.059631 -229.460144 609.271362
v 802.236450 -250.085739 609.271362
v 802.236450 -250.085739 427.893860
v 803.663757 -250.856445 427.893860
v 803.663757 -250.856445 609.271362
v 803.980896 -251.027634 427.893860
v 809.690247 -254.110641 427.893860
v 809.690247 -254.110641 609.271362
v 803.980896 -251.027634 609.271362
v 810.007385 -254.281845 609.271362
v 810.007385 -254.281845 427.893860
v 812.862061 -255.823334 427.893860
v 812.862061 -255.823334 609.271362
v 813.179199 -255.994537 427.893860
v 814.606506 -256.765350 427.893860
v 814.606506 -256.765350 609.271362
v 813.179199 -255.994537 609.271362
v 814.923645 -256.936554 427.893860
v 817.778320 -258.478027 427.893860
v 817.778320 -258.478027 609.271362
v 814.923645 -256.936554 609.271362
v 818.095459 -258.649231 609.271362
v 818.095459 -258.649231 427.893860
v 819.522766 -259.419952 427.893860
v 819.522766 -259.419952 609.271362
v 819.839905 -259.591248 609.271362
v 819.839905 -259.591248 427.893860
v 822.694580 -261.132751 427.893860
v 822.694580 -261.132751 609.271362
v 823.011719 -261.303925 427.893860
v 824.439087 -262.074646 427.893860
v 824.439087 -262.074646 609.271362
v 823.011719 -261.303925 609.271362
v 824.756165 -262.245941 427.893860
v 826.183533 -263.016632 427.893860
v 826.183533 -263.016632 609.271362
v 824.756165 -262.245941 609.271362
v 826.500671 -263.187836 427.893860
v 827.927979 -263.958649 427.893860
v 827.927979 -263.958649 609.271362
v 826.500671 -263.187836 609.271362
v 828.245117 -264.129852 427.893860
v 831.099792 -265.671326 427.893860
v 831.099792 -265.671326 609.271362
v 828.245117 -264.129852 609.271362
v 831.416931 -265.842529 609.271362
v 831.416931 -265.842529 427.893860
v 832.844238 -266.613342 427.893860
v 832.844238 -266.613342 609.271362
v 833.161377 -266.784546 427.893860
v 836.016052 -268.326050 427.893860
v 836.016052 -268.326050 609.271362
v 833.161377 -266.784546 609.271362
v 836.333191 -268.497253 609.271362
v 836.333191 -268.497253 427.893860
v 837.760498 -269.267944 427.893860
v 837.760498 -269.267944 609.271362
v 838.077637 -269.439240 609.271362
v 838.077637 -269.439240 427.893860
v 840.932312 -270.980743 427.893860
v 840.932312 -270.980743 609.271362
v 841.249451 -271.151947 609.271362
v 841.249451 -271.151947 427.893860
v 846.958801 -274.234833 427.893860
v 846.958801 -274.234833 609.271362
v 847.275940 -274.406128 609.271362
v 847.275940 -274.406128 427.893860
v 848.703308 -275.176849 427.893860
v 848.703308 -275.176849 609.271362
v 817.975037 -220.165146 434.271362
v 817.975037 -220.165146 427.893860
v 814.202637 -227.345139 427.893860
v 814.202637 -227.345139 434.271362
v 820.091980 -231.127335 434.271362
v 814.424194 -227.968643 434.271362
v 814.424194 -227.968643 609.271362
v 820.091980 -231.127335 609.271362
v 824.430908 -223.156937 434.271362
v 824.430908 -223.156937 427.893860
v 818.722046 -220.073135 427.893860
v 818.722046 -220.073135 434.271362
v 822.244934 -232.303940 609.271362
v 822.244934 -232.303940 514.271362
v 820.817261 -231.533737 514.271362
v 820.817261 -231.533737 609.271362
v 828.307129 -235.574432 514.271362
v 822.596558 -232.493637 514.271362
v 822.596558 -232.493637 609.271362
v 828.307129 -235.574432 609.271362
v 831.514099 -237.304535 514.271362
v 828.658813 -235.764145 514.271362
v 828.658813 -235.764145 609.271362
v 831.514099 -237.304535 609.271362
v 833.293396 -238.264435 609.271362
v 833.293396 -238.264435 514.271362
v 831.865784 -237.494232 514.271362
v 831.865784 -237.494232 609.271362
v 836.500366 -239.994537 609.271362
v 836.500366 -239.994537 514.271362
v 833.645081 -238.454132 514.271362
v 833.645081 -238.454132 609.271362
v 838.279663 -240.954437 514.271362
v 837.337463 -240.446136 514.271362
v 838.279663 -240.954437 609.271362
v 836.852051 -240.184235 609.271362
v 836.852051 -240.184235 514.271362
v 842.914246 -243.454742 514.271362
v 838.631348 -241.144241 514.271362
v 838.631348 -241.144241 609.271362
v 842.914246 -243.454742 609.271362
v 844.693604 -244.414734 514.271362
v 843.265930 -243.644547 514.271362
v 843.265930 -243.644547 609.271362
v 844.693604 -244.414734 609.271362
v 847.900513 -246.144836 514.271362
v 845.045288 -244.604446 514.271362
v 845.045288 -244.604446 609.271362
v 847.900513 -246.144836 609.271362
v 849.679871 -247.104736 609.271362
v 849.679871 -247.104736 514.271362
v 848.252197 -246.334534 514.271362
v 848.252197 -246.334534 609.271362
v 852.886841 -248.834839 609.271362
v 852.886841 -248.834839 514.271362
v 850.031555 -247.294434 514.271362
v 850.031555 -247.294434 609.271362
v 858.949036 -252.105331 437.271362
v 853.275879 -249.044739 437.271362
v 853.275879 -249.044739 514.271362
v 858.949036 -252.105331 609.271362
v 853.238464 -249.024536 514.271362
v 853.275879 -249.044739 609.271362
v 853.238464 -249.024536 609.271362
v 860.728333 -253.065247 609.271362
v 860.728333 -253.065247 437.271362
v 860.486938 -252.935043 437.271362
v 859.911621 -252.624634 437.271362
v 859.300781 -252.295044 437.271362
v 859.300781 -252.295044 609.271362
v 849.171570 -275.037628 427.893860
v 849.924255 -273.653625 427.893860
v 849.924255 -273.653625 437.271362
v 849.171570 -275.037628 609.271362
v 849.946533 -273.612640 437.271362
v 849.924255 -273.653625 609.271362
v 849.946533 -273.612640 609.271362
v 850.115662 -273.301544 609.271362
v 850.115662 -273.301544 438.776520
v 853.215576 -267.601440 438.776520
v 853.215576 -267.601440 609.271362
v 853.384644 -267.290344 438.776520
v 854.934631 -264.440338 438.776520
v 854.934631 -264.440338 609.271362
v 853.384644 -267.290344 609.271362
v 855.103760 -264.129242 438.776520
v 856.653625 -261.279144 438.776520
v 856.653625 -261.279144 609.271362
v 855.103760 -264.129242 609.271362
v 856.822876 -260.968140 438.776520
v 859.922668 -255.268036 438.776520
v 859.922668 -255.268036 609.271362
v 856.822876 -260.968140 609.271362
v 860.091858 -254.956940 438.776520
v 860.866760 -253.531937 438.776520
v 860.866760 -253.531937 609.271362
v 860.091858 -254.956940 609.271362
vt 0.000000 0.000000
vt 0.062500 0.000000
vt 0.062500 12.500000
vt 0.000000 12.500000
vt 0.000000 0.000000
vt 0.250000 0.000000
vt 0.250000 12.500000
vt 0.000000 12.500000
vt 0.000000 0.000000
vt 0.125000 0.000000
vt 0.125000 12.500000
vt 0.000000 12.500000
vt 0.000000 12.500000
vt 0.000000 0.000000
vt 0.125000 0.000000
vt 0.125000 12.500000
vt 0.000000 0.000000
vt 0.250000 0.000000
vt 0.250000 12.500000
vt 0.000000 12.500000
vt 0.000000 12.500000
vt 0.000000 0.000000
vt 0.062500 0.000000
vt 0.062500 12.500000
vt 0.000000 12.500000
vt 0.000000 0.000000
vt 0.062500 0.000000
vt 0.062500 12.500000
vt 0.000000 0.000000
vt 0.250000 0.000000
vt 0.250000 12.500000
vt 0.000000 12.500000
vt 0.000000 12.500000
vt 0.000000 0.000000
vt 0.125000 0.000000
vt 0.125000 12.500000
vt 0.000000 0.000000
vt 0.062500 0.000000
vt 0.062500 12.500000
vt 0.000000 12.500000
vt 0.000000 0.000000
vt 0.125000 0.000000
vt 0.125000 12.500000
vt 0.000000 12.500000
vt 0.000000 12.500000
vt 0.000000 0.000000
vt 0.062500 0.000000
vt 0.062500 12.500000
vt 0.000000 12.500000
vt 0.000000 0.000000
vt 0.125000 0.000000
vt 0.125000 12.500000
vt 0.000000 0.000000
vt 0.062500 0.000000
vt 0.062500 12.500000
vt 0.000000 12.500000
vt 0.000000 0.000000
vt 0.062500 0.000000
vt 0.062500 12.500000
vt 0.000000 12.500000
vt 0.000000 0.000000
vt 0.062500 0.000000
vt 0.062500 12.500000
vt 0.000000 12.500000
vt 0.000000 0.000000
vt 0.125000 0.000000
vt 0.125000 12.500000
vt 0.000000 12.500000
vt 0.000000 12.500000
vt 0.000000 0.000000
vt 0.062500 0.000000
vt 0.062500 12.500000
vt 0.000000 0.000000
vt 0.125000 0.000000
vt 0.125000 12.500000
vt 0.000000 12.500000
vt 0.000000 12.500000
vt 0.000000 0.000000
vt 0.062500 0.000000
vt 0.062500 12.500000
vt 0.000000 12.500000
vt 0.000000 0.000000
vt 0.125000 0.000000
vt 0.125000 12.500000
vt 0.000000 12.500000
vt 0.000000 0.000000
vt 0.250000 0.000000
vt 0.250000 12.500000
vt 0.000000 12.500000
vt 0.000000 0.000000
vt 0.062500 0.000000
vt 0.062500 12.500000
vt 0.000000 0.500000
vt 0.000000 0.000000
vt 0.312500 0.000000
vt 0.312500 0.500000
vt 0.000000 0.000000
vt 0.250000 0.000000
vt 0.250000 12.000000
vt 0.000000 12.000000
vt 0.000000 0.500000
vt 0.000000 0.000000
vt 0.250000 0.000000
vt 0.250000 0.500000
vt 0.000000 11.750000
vt 0.000000 5.260170
vt 0.062500 5.260170
vt 0.062500 11.750000
vt 0.000000 5.260170
vt 0.250000 5.260170
vt 0.250000 11.750000
vt 0.000000 11.750000
vt 0.000000 5.260170
vt 0.125000 5.260170
vt 0.125000 11.750000
vt 0.000000 11.750000
vt 0.000000 11.750000
vt 0.000000 5.260170
vt 0.062500 5.260170
vt 0.062500 11.750000
vt 0.000000 11.750000
vt 0.000000 5.260170
vt 0.125000 5.260170
vt 0.125000 11.750000
vt 0.000000 5.260170
vt 0.041250 5.260170
vt 0.000000 11.750000
vt 0.062500 11.750000
vt 0.062500 5.260170
vt 0.000000 5.260170
vt 0.187500 5.260170
vt 0.187500 11.750000
vt 0.000000 11.750000
vt 0.000000 5.260170
vt 0.062500 5.260170
vt 0.062500 11.750000
vt 0.000000 11.750000
vt 0.000000 5.260170
vt 0.125000 5.260170
vt 0.125000 11.750000
vt 0.000000 11.750000
vt 0.000000 11.750000
vt 0.000000 5.260170
vt 0.062500 5.260170
vt 0.062500 11.750000
vt 0.000000 11.750000
vt 0.000000 5.260170
vt 0.125000 5.260170
vt 0.125000 11.750000
vt 0.000000 0.000000
vt 0.248370 0.000000
vt 0.248370 5.260170
vt 0.000000 11.750000
vt 0.250000 5.260170
vt 0.248370 11.750000
vt 0.250000 11.750000
vt 0.000000 11.750000
vt 0.000000 0.000000
vt 0.010570 0.000000
vt 0.035750 0.000000
vt 0.062500 0.000000
vt 0.062500 11.750000
vt 0.000000 0.000000
vt 0.060700 0.000000
vt 0.060700 0.646270
vt 0.000000 12.500000
vt 0.062500 0.646270
vt 0.060700 12.500000
vt 0.062500 12.500000
vt 0.000000 12.500000
vt 0.000000 0.750000
vt 0.250000 0.750000
vt 0.250000 12.500000
vt 0.000000 0.750000
vt 0.125000 0.750000
vt 0.125000 12.500000
vt 0.000000 12.500000
vt 0.000000 0.750000
vt 0.125000 0.750000
vt 0.125000 12.500000
vt 0.000000 12.500000
vt 0.000000 0.750000
vt 0.250000 0.750000
vt 0.250000 12.500000
vt 0.000000 12.500000
vt 0.000000 0.750000
vt 0.062500 0.750000
vt 0.062500 12.500000
vt 0.000000 12.500000
vn -0.8785 0.4777 0.0000
vn -0.8786 0.4776 0.0000
vn -0.8785 0.4778 0.0000
vn -0.4751 -0.8799 0.0000
vn -0.4752 -0.8799 0.0000
vn -0.8853 0.4651 0.0000
vn -0.8852 0.4651 0.0000
vn 0.4868 0.8735 0.0000
vn 0.4753 0.8798 0.0000
vn 0.4748 0.8801 0.0000
vn 0.4749 0.8801 0.0000
vn 0.4759 0.8795 0.0000
vn 0.4733 0.8809 -0.0000
vn 0.4749 0.8800 0.0000
vn 0.8785 -0.4778 0.0000
vn 0.8785 -0.4777 0.0000
vn 0.8780 -0.4787 0.0000
vn 0.8799 -0.4751 -0.0000
s off
f 1/1/1 2/2/1 3/3/1
f 4/4/1 1/1/1 3/3/1
f 5/5/1 6/6/1 7/7/1
f 8/8/1 5/5/1 7/7/1
f 9/9/1 10/10/1 11/11/1
f 12/12/1 9/9/1 11/11/1
f 13/13/1 14/14/1 15/15/1
f 13/13/1 15/15/1 16/16/1
f 17/17/1 18/18/1 19/19/1
f 20/20/1 17/17/1 19/19/1
f 21/21/2 22/22/2 23/23/2
f 21/21/3 23/23/3 24/24/3
f 25/25/4 26/26/4 27/27/4
f 25/25/4 27/27/4 28/28/4
f 29/29/4 30/30/4 31/31/4
f 32/32/4 29/29/4 31/31/4
f 33/33/4 34/34/4 35/35/4
f 33/33/4 35/35/4 36/36/4
f 37/37/4 38/38/4 39/39/4
f 40/40/5 37/37/5 39/39/5
f 41/41/4 42/42/4 43/43/4
f 44/44/4 41/41/4 43/43/4
f 45/45/4 46/46/4 47/47/4
f 45/45/4 47/47/4 48/48/4
f 49/49/5 50/50/5 51/51/5
f 49/49/4 51/51/4 52/52/4
f 53/53/4 54/54/4 55/55/4
f 56/56/4 53/53/4 55/55/4
f 57/57/4 58/58/4 59/59/4
f 60/60/4 57/57/4 59/59/4
f 61/61/5 62/62/5 63/63/5
f 64/64/4 61/61/4 63/63/4
f 65/65/5 66/66/5 67/67/5
f 68/68/4 65/65/4 67/67/4
f 69/69/5 70/70/5 71/71/5
f 69/69/5 71/71/5 72/72/5
f 73/73/5 74/74/5 75/75/5
f 76/76/4 73/73/4 75/75/4
f 77/77/4 78/78/4 79/79/4
f 77/77/4 79/79/4 80/80/4
f 81/81/4 82/82/4 83/83/4
f 81/81/5 83/83/5 84/84/5
f 85/85/4 86/86/4 87/87/4
f 85/85/4 87/87/4 88/88/4
f 89/89/4 90/90/4 91/91/4
f 89/89/4 91/91/4 92/92/4
f 93/93/6 94/94/6 95/95/6
f 93/93/7 95/95/7 96/96/7
f 97/97/8 98/98/8 99/99/8
f 100/100/8 97/97/8 99/99/8
f 101/101/9 102/102/9 103/103/9
f 101/101/9 103/103/9 104/104/9
f 105/105/10 106/106/10 107/107/10
f 105/105/10 107/107/10 108/108/10
f 109/109/10 110/110/10 111/111/10
f 112/112/10 109/109/10 111/111/10
f 113/113/10 114/114/10 115/115/10
f 116/116/10 113/113/10 115/115/10
f 117/117/10 118/118/10 119/119/10
f 117/117/10 119/119/10 120/120/10
f 121/121/10 122/122/10 123/123/10
f 121/121/10 123/123/10 124/124/10
f 125/125/10 126/126/10 127/127/10
f 128/128/11 126/126/11 129/129/11
f 127/127/10 126/126/10 128/128/10
f 130/130/10 131/131/10 132/132/10
f 133/133/10 130/130/10 132/132/10
f 134/134/10 135/135/10 136/136/10
f 137/137/10 134/134/10 136/136/10
f 138/138/10 139/139/10 140/140/10
f 141/141/10 138/138/10 140/140/10
f 142/142/10 143/143/10 144/144/10
f 142/142/10 144/144/10 145/145/10
f 146/146/10 147/147/10 148/148/10
f 146/146/10 148/148/10 149/149/10
f 150/150/10 151/151/10 152/152/10
f 152/152/10 153/153/10 150/150/10
f 154/154/12 155/155/12 152/152/12
f 152/152/10 155/155/10 153/153/10
f 154/154/13 156/156/13 155/155/13
f 157/157/14 158/158/14 159/159/14
f 160/160/10 157/157/10 159/159/10
f 161/161/11 162/162/11 160/160/11
f 162/162/10 157/157/10 160/160/10
f 163/163/15 164/164/15 165/165/15
f 165/165/16 166/166/16 163/163/16
f 167/167/17 168/168/17 165/165/17
f 165/165/15 168/168/15 166/166/15
f 167/167/18 169/169/18 168/168/18
f 170/170/15 171/171/15 172/172/15
f 170/170/15 172/172/15 173/173/15
f 174/174/15 175/175/15 176/176/15
f 177/177/16 174/174/16 176/176/16
f 178/178/15 179/179/15 180/180/15
f 181/181/16 178/178/16 180/180/16
f 182/182/16 183/183/16 184/184/16
f 185/185/15 182/182/15 184/184/15
f 186/186/16 187/187/16 188/188/16
f 189/189/16 186/186/16 188/188/16
