# Blender v3.0.1 OBJ File: 'rockerfeller_plaza.blend'
# www.blender.org
o geometryt000010000010000110010110000110000110100000010110st116
v 1099.665039 -56.827736 187.358490
v 1107.642212 -61.141968 187.358490
v 1095.347168 -83.867920 187.358490
v 1087.361572 -79.553780 187.358490
v 1099.665039 -56.827736 211.758484
v 1087.361572 -79.553780 211.758484
v 1095.347168 -83.867920 211.758484
v 1107.642212 -61.141968 211.758484
vt 0.069880 0.211210
vt 0.075200 0.227180
vt 0.120460 0.201870
vt 0.115150 0.185870
vt 0.069880 0.211210
vt 0.115150 0.185870
vt 0.120460 0.201870
vt 0.075200 0.227180
vn 0.0000 0.0000 -1.0000
vn 0.0000 0.0000 1.0000
s off
f 1/1/1 2/2/1 3/3/1
f 1/1/1 3/3/1 4/4/1
f 5/5/2 6/6/2 7/7/2
f 8/8/2 5/5/2 7/7/2
