# Blender v3.0.1 OBJ File: 'rockerfeller_plaza.blend'
# www.blender.org
o geometryt000010000010000110010110000110000110100000010110st43
v 1146.347046 -113.387779 189.168747
v 1147.056030 -113.771576 255.078842
v 1146.347046 -113.387779 255.078842
v 1132.460815 -105.871078 187.978836
v 1133.169800 -106.254875 189.168747
v 1147.056030 -113.771576 187.978836
v 1133.169800 -106.254875 255.078842
v 1132.460815 -105.871078 255.078842
v 1133.063965 -104.753876 187.978836
v 1132.460815 -105.871078 187.978836
v 1132.460815 -105.871078 255.078842
v 1133.063965 -104.753876 255.078842
v 1133.204590 -104.437675 189.168747
v 1133.040039 -104.740875 255.078842
v 1133.204590 -104.437675 255.078842
v 1135.803101 -99.648476 189.168747
v 1133.040039 -104.740875 187.978836
v 1135.803101 -99.648476 255.078842
v 1135.924805 -99.424400 255.078842
v 1135.924805 -99.424400 189.168747
v 1136.574341 -98.227104 189.168747
v 1136.574341 -98.227104 255.078842
v 1136.695923 -98.003029 255.078842
v 1136.695923 -98.003029 189.168747
v 1137.995117 -95.608444 189.168747
v 1137.995117 -95.608444 255.078842
v 1138.116699 -95.384354 255.078842
v 1138.116699 -95.384354 189.168747
v 1138.766357 -94.187080 189.168747
v 1138.766357 -94.187080 255.078842
v 1138.887939 -93.962990 255.078842
v 1138.887939 -93.962990 189.168747
v 1144.557617 -83.513809 187.978836
v 1140.187256 -91.568405 189.168747
v 1140.187256 -91.568405 255.078842
v 1140.308838 -91.344330 255.078842
v 1140.308838 -91.344330 189.168747
v 1141.608032 -88.949745 189.168747
v 1141.608032 -88.949745 255.078842
v 1141.729614 -88.725670 255.078842
v 1141.729614 -88.725670 189.168747
v 1142.379272 -87.528374 189.168747
v 1142.379272 -87.528374 255.078842
v 1142.500854 -87.304291 255.078842
v 1142.500854 -87.304291 189.168747
v 1143.800171 -84.909714 189.168747
v 1143.800171 -84.909714 255.078842
v 1143.921753 -84.685631 255.078842
v 1143.921753 -84.685631 189.168747
v 1144.571289 -83.488335 189.168747
v 1144.571289 -83.488335 255.078842
v 1144.692993 -83.264259 255.078842
v 1144.692993 -83.264259 189.168747
v 1147.291504 -78.475098 189.168747
v 1147.291504 -78.475098 255.078842
v 1147.455933 -78.171860 255.078842
v 1147.455933 -78.171860 187.978836
v 1161.888916 -86.376740 189.168747
v 1162.053101 -86.073357 255.078842
v 1161.888916 -86.376740 255.078842
v 1159.294678 -91.168175 189.168747
v 1162.053101 -86.073357 187.978836
v 1159.294678 -91.168175 255.078842
v 1159.189697 -91.361816 255.078842
v 1159.189697 -91.361816 189.168747
v 1158.541138 -92.559677 189.168747
v 1158.541138 -92.559677 255.078842
v 1158.436401 -92.753319 255.078842
v 1158.436401 -92.753319 189.168747
v 1157.139160 -95.149040 189.168747
v 1157.139160 -95.149040 255.078842
v 1157.034302 -95.342674 255.078842
v 1157.034302 -95.342674 189.168747
v 1156.385742 -96.540527 189.168747
v 1156.385742 -96.540527 255.078842
v 1156.281006 -96.734177 255.078842
v 1156.281006 -96.734177 189.168747
v 1154.983765 -99.129890 189.168747
v 1154.983765 -99.129890 255.078842
v 1154.878906 -99.323524 255.078842
v 1154.878906 -99.323524 189.168747
v 1154.230347 -100.521378 189.168747
v 1147.056030 -113.771576 187.978836
v 1154.230347 -100.521378 255.078842
v 1154.125488 -100.715080 255.078842
v 1154.125488 -100.715080 189.168747
v 1152.828369 -103.110779 189.168747
v 1152.828369 -103.110779 255.078842
v 1152.723389 -103.304375 255.078842
v 1152.723389 -103.304375 189.168747
v 1152.074951 -104.502274 189.168747
v 1152.074951 -104.502274 255.078842
v 1151.970093 -104.695877 255.078842
v 1151.970093 -104.695877 189.168747
v 1150.672974 -107.091576 189.168747
v 1150.672974 -107.091576 255.078842
v 1150.568115 -107.285278 255.078842
v 1150.568115 -107.285278 189.168747
v 1149.919434 -108.483078 189.168747
v 1149.919434 -108.483078 255.078842
v 1149.814697 -108.676781 255.078842
v 1149.814697 -108.676781 189.168747
v 1147.220337 -113.468178 189.168747
v 1147.220337 -113.468178 255.078842
v 1147.056030 -113.771576 255.078842
v 1148.197510 -78.608376 187.978836
v 1147.458008 -78.172951 187.978836
v 1147.458008 -78.172951 255.078842
v 1148.197510 -78.608376 255.078842
v 1148.624634 -78.845100 189.168747
v 1148.197510 -78.608376 255.078842
v 1148.624634 -78.845100 255.078842
v 1151.007568 -80.165619 189.168747
v 1148.197510 -78.608376 187.978836
v 1151.007568 -80.165619 255.078842
v 1151.434814 -80.402336 255.078842
v 1151.434814 -80.402336 187.978836
v 1152.150146 -80.783051 189.168747
v 1151.434814 -80.402336 255.078842
v 1152.150146 -80.783051 255.078842
v 1154.068115 -81.803688 187.978836
v 1153.352661 -81.422974 189.168747
v 1151.434814 -80.402336 187.978836
v 1153.352661 -81.422974 255.078842
v 1154.068115 -81.803688 255.078842
v 1154.831787 -82.216049 189.168747
v 1154.068115 -81.803688 255.078842
v 1154.831787 -82.216049 255.078842
v 1157.992920 -83.922668 187.978836
v 1157.229126 -83.510307 189.168747
v 1154.068115 -81.803688 187.978836
v 1157.229126 -83.510307 255.078842
v 1157.992920 -83.922668 255.078842
v 1158.692383 -84.286819 189.168747
v 1157.992920 -83.922668 255.078842
v 1158.692383 -84.286819 255.078842
v 1159.900757 -84.915756 189.168747
v 1157.992920 -83.922668 187.978836
v 1159.900757 -84.915756 255.078842
v 1160.600342 -85.279907 255.078842
v 1160.600342 -85.279907 187.978836
v 1160.903198 -85.445274 189.168747
v 1160.600342 -85.279907 255.078842
v 1160.903198 -85.445274 255.078842
v 1162.053101 -86.073357 187.978836
v 1161.750488 -85.907990 189.168747
v 1160.600342 -85.279907 187.978836
v 1161.750488 -85.907990 255.078842
v 1162.053101 -86.073357 255.078842
vt 84.893097 6.397300
vt 89.227547 360.752686
vt 84.893097 360.752686
vt 0.000000 0.000000
vt 89.227547 0.000000
vt 4.334450 360.752686
vt 0.000000 360.752686
vt 4.334450 6.397300
vt 0.000000 0.000000
vt 6.826340 0.000000
vt 6.826340 360.752686
vt 0.000000 360.752686
vt 160.661102 6.397300
vt 162.516006 360.752686
vt 160.661102 360.752686
vt 131.367096 6.397300
vt 162.516006 0.000000
vt 131.367096 360.752686
vt 129.996399 360.752686
vt 129.996399 6.397300
vt 122.672897 6.397300
vt 122.672897 360.752686
vt 121.302200 360.752686
vt 121.302200 6.397300
vt 106.655197 6.397300
vt 106.655197 360.752686
vt 105.284500 360.752686
vt 105.284500 6.397300
vt 97.961021 6.397300
vt 97.961021 360.752686
vt 96.590347 360.752686
vt 96.590347 6.397300
vt 32.675339 0.000000
vt 81.943321 6.397300
vt 81.943321 360.752686
vt 80.572647 360.752686
vt 80.572647 6.397300
vt 65.925629 6.397300
vt 65.925629 360.752686
vt 64.554962 360.752686
vt 64.554962 6.397300
vt 57.231449 6.397300
vt 57.231449 360.752686
vt 55.860771 360.752686
vt 55.860771 6.397300
vt 41.213749 6.397300
vt 41.213749 360.752686
vt 39.843079 360.752686
vt 39.843079 6.397300
vt 32.519569 6.397300
vt 32.519569 360.752686
vt 31.148899 360.752686
vt 31.148899 6.397300
vt 1.854840 6.397300
vt 1.854840 360.752686
vt 0.000000 360.752686
vt 0.000000 0.000000
vt 167.487595 6.397300
vt 169.342407 360.752686
vt 167.487595 360.752686
vt 138.193497 6.397300
vt 169.342407 0.000000
vt 138.193497 360.752686
vt 137.009598 360.752686
vt 137.009598 6.397300
vt 129.686096 6.397300
vt 129.686096 360.752686
vt 128.502197 360.752686
vt 128.502197 6.397300
vt 113.855202 6.397300
vt 113.855202 360.752686
vt 112.671303 360.752686
vt 112.671303 6.397300
vt 105.347801 6.397300
vt 105.347801 360.752686
vt 104.163902 360.752686
vt 104.163902 6.397300
vt 89.516861 6.397300
vt 89.516861 360.752686
vt 88.332962 360.752686
vt 88.332962 6.397300
vt 81.009460 6.397300
vt 0.000000 0.000000
vt 81.009460 360.752686
vt 79.825546 360.752686
vt 79.825546 6.397300
vt 65.178528 6.397300
vt 65.178528 360.752686
vt 63.994640 360.752686
vt 63.994640 6.397300
vt 56.671120 360.752686
vt 55.487228 360.752686
vt 56.671120 6.397300
vt 55.487228 6.397300
vt 40.840199 6.397300
vt 40.840199 360.752686
vt 39.656300 360.752686
vt 39.656300 6.397300
vt 32.332790 6.397300
vt 32.332790 360.752686
vt 31.148899 360.752686
vt 31.148899 6.397300
vt 1.854840 6.397300
vt 1.854840 360.752686
vt 0.000000 360.752686
vt 0.000000 0.000000
vt 4.613920 0.000000
vt 4.613920 360.752686
vt 0.000000 360.752686
vt 17.272711 6.397300
vt 19.898390 360.752686
vt 17.272711 360.752686
vt 2.625680 6.397300
vt 19.898390 0.000000
vt 2.625680 360.752686
vt 0.000000 360.752686
vt 0.000000 0.000000
vt 11.680490 6.397300
vt 16.037470 360.752686
vt 11.680490 360.752686
vt 0.000000 0.000000
vt 4.356980 6.397300
vt 16.037470 0.000000
vt 4.356980 360.752686
vt 0.000000 360.752686
vt 19.313610 6.397300
vt 23.980190 360.752686
vt 19.313610 360.752686
vt 0.000000 0.000000
vt 4.666580 6.397300
vt 23.980190 0.000000
vt 4.666580 360.752686
vt 0.000000 360.752686
vt 11.563800 6.397300
vt 15.804080 360.752686
vt 11.563800 360.752686
vt 4.240280 6.397300
vt 15.804080 0.000000
vt 4.240280 360.752686
vt 0.000000 360.752686
vt 0.000000 0.000000
vt 7.044940 6.397300
vt 8.899781 360.752686
vt 7.044940 360.752686
vt 0.000000 0.000000
vt 1.854840 6.397300
vt 8.899781 0.000000
vt 1.854840 360.752686
vt 0.000000 360.752686
vn -0.4760 -0.8794 0.0000
vn -0.4761 -0.8794 0.0000
vn -0.8799 0.4752 0.0000
vn -0.8800 0.4750 0.0000
vn -0.8789 0.4769 0.0000
vn -0.8790 0.4769 0.0000
vn -0.8787 0.4773 0.0000
vn -0.8785 0.4777 0.0000
vn -0.8789 0.4770 0.0000
vn -0.8788 0.4772 -0.0022
vn -0.8790 0.4768 0.0004
vn -0.8793 0.4763 0.0000
vn -0.8790 0.4768 0.0008
vn -0.8790 0.4769 0.0002
vn -0.8787 0.4774 0.0001
vn -0.8790 0.4769 -0.0002
vn -0.8790 0.4769 -0.0003
vn -0.8789 0.4769 0.0001
vn -0.8788 0.4772 -0.0005
vn -0.8788 0.4772 0.0000
vn -0.8788 0.4772 -0.0001
vn -0.8790 0.4768 -0.0001
vn -0.8794 0.4761 0.0000
vn -0.8790 0.4769 0.0001
vn 0.8795 -0.4759 0.0000
vn 0.8794 -0.4761 -0.0001
vn 0.8793 -0.4764 0.0000
vn 0.8790 -0.4767 0.0000
vn 0.8794 -0.4761 0.0000
vn 0.8799 -0.4751 0.0000
vn 0.8794 -0.4761 -0.0003
vn 0.8794 -0.4761 0.0001
vn 0.8800 -0.4751 0.0000
vn 0.8794 -0.4761 -0.0005
vn 0.8790 -0.4768 0.0000
vn 0.8793 -0.4763 -0.0002
vn 0.8796 -0.4758 0.0000
vn 0.8791 -0.4766 0.0000
vn 0.8790 -0.4768 -0.0014
vn 0.8795 -0.4760 0.0002
vn 0.8800 -0.4750 0.0000
vn 0.8794 -0.4762 0.0000
vn 0.8797 -0.4756 0.0000
vn 0.5074 0.8617 0.0000
vn 0.4849 0.8746 0.0000
vn 0.4847 0.8747 0.0000
vn 0.4846 0.8747 0.0000
vn 0.4845 0.8748 0.0000
vn 0.4848 0.8746 0.0000
vn 0.4698 0.8828 0.0000
vn 0.4752 0.8799 0.0000
vn 0.4751 0.8799 0.0000
vn 0.4749 0.8800 0.0000
vn 0.4618 0.8870 0.0000
vn 0.4618 0.8870 0.0001
vn 0.4617 0.8870 0.0000
vn 0.4616 0.8871 0.0000
vn 0.4791 0.8778 0.0000
vn 0.4793 0.8777 -0.0001
vn 0.4793 0.8777 -0.0000
vn 0.4794 0.8776 0.0000
vn 0.4796 0.8775 0.0000
vn -0.8793 0.4762 0.0005
vn -0.8792 0.4765 -0.0008
vn 0.8795 -0.4758 -0.0017
vn 0.8797 -0.4754 0.0019
vn 0.8790 -0.4769 -0.0026
vn 0.8791 -0.4766 0.0014
vn 0.8797 -0.4755 -0.0023
vn 0.8798 -0.4753 -0.0032
vn 0.8796 -0.4758 0.0023
vn 0.8794 -0.4760 0.0001
vn 0.8800 -0.4750 -0.0019
vn 0.8790 -0.4768 -0.0009
s off
f 1/1/1 2/2/1 3/3/1
f 4/4/1 6/5/1 1/1/1
f 2/2/2 1/1/2 6/5/2
f 7/6/1 8/7/1 5/8/1
f 8/7/2 4/4/2 5/8/2
f 9/9/3 10/10/3 11/11/3
f 9/9/4 11/11/4 12/12/4
f 13/13/5 14/14/5 15/15/5
f 16/16/6 17/17/6 13/13/6
f 14/14/7 13/13/7 17/17/7
f 18/18/8 19/19/8 16/16/8
f 19/19/9 20/20/9 16/16/9
f 16/16/10 20/20/10 17/17/10
f 20/20/11 21/21/11 17/17/11
f 22/22/12 23/23/12 21/21/12
f 23/23/9 24/24/9 21/21/9
f 17/17/13 21/21/13 24/24/13
f 17/17/14 24/24/14 25/25/14
f 26/26/9 27/27/9 25/25/9
f 27/27/9 28/28/9 25/25/9
f 17/17/15 25/25/15 28/28/15
f 17/17/16 28/28/16 29/29/16
f 30/30/9 31/31/9 29/29/9
f 31/31/9 32/32/9 29/29/9
f 17/17/5 29/29/5 33/33/5
f 32/32/17 34/34/17 33/33/17
f 35/35/9 36/36/9 34/34/9
f 36/36/9 37/37/9 34/34/9
f 37/37/18 38/38/18 33/33/18
f 39/39/9 40/40/9 38/38/9
f 40/40/9 41/41/9 38/38/9
f 38/38/19 41/41/19 33/33/19
f 41/41/9 42/42/9 33/33/9
f 43/43/9 44/44/9 42/42/9
f 44/44/9 45/45/9 42/42/9
f 42/42/20 45/45/20 33/33/20
f 45/45/6 46/46/6 33/33/6
f 47/47/9 48/48/9 46/46/9
f 48/48/9 49/49/9 46/46/9
f 46/46/21 49/49/21 33/33/21
f 49/49/22 50/50/22 33/33/22
f 51/51/9 52/52/9 50/50/9
f 52/52/9 53/53/9 50/50/9
f 50/50/21 53/53/21 33/33/21
f 53/53/6 54/54/6 33/33/6
f 55/55/6 56/56/6 54/54/6
f 56/56/23 57/57/23 54/54/23
f 54/54/24 57/57/24 33/33/24
f 58/58/25 59/59/25 60/60/25
f 61/61/26 62/62/26 58/58/26
f 59/59/27 58/58/27 62/62/27
f 63/63/25 64/64/25 61/61/25
f 64/64/28 65/65/28 61/61/28
f 65/65/29 66/66/29 62/62/29
f 67/67/25 68/68/25 66/66/25
f 68/68/30 69/69/30 66/66/30
f 69/69/31 70/70/31 62/62/31
f 71/71/25 72/72/25 70/70/25
f 72/72/25 73/73/25 70/70/25
f 73/73/32 74/74/32 62/62/32
f 75/75/25 76/76/25 74/74/25
f 76/76/33 77/77/33 74/74/33
f 77/77/34 78/78/34 62/62/34
f 79/79/25 80/80/25 78/78/25
f 80/80/35 81/81/35 78/78/35
f 82/82/36 83/83/36 81/81/36
f 81/81/29 83/83/29 62/62/29
f 84/84/37 85/85/37 82/82/37
f 85/85/37 86/86/37 82/82/37
f 87/87/36 83/83/36 86/86/36
f 88/88/35 89/89/35 87/87/35
f 89/89/35 90/90/35 87/87/35
f 92/91/35 93/92/35 91/93/35
f 93/92/30 94/94/30 91/93/30
f 95/95/26 83/83/26 94/94/26
f 96/96/37 97/97/37 95/95/37
f 97/97/38 98/98/38 95/95/38
f 98/98/39 83/83/39 95/95/39
f 99/99/40 83/83/40 98/98/40
f 100/100/41 101/101/41 99/99/41
f 101/101/37 102/102/37 99/99/37
f 103/103/29 83/83/29 102/102/29
f 104/104/42 105/105/42 103/103/42
f 105/105/43 83/83/43 103/103/43
f 106/106/44 107/107/44 108/108/44
f 106/106/44 108/108/44 109/109/44
f 110/110/45 111/111/45 112/112/45
f 113/113/46 114/114/46 110/110/46
f 111/111/47 110/110/47 114/114/47
f 115/115/48 116/116/48 113/113/48
f 116/116/49 117/117/49 113/113/49
f 117/117/46 114/114/46 113/113/46
f 118/118/50 119/119/50 120/120/50
f 121/121/50 118/118/50 122/122/50
f 121/121/50 123/123/50 118/118/50
f 119/119/50 118/118/50 123/123/50
f 124/124/50 125/125/50 122/122/50
f 125/125/50 121/121/50 122/122/50
f 126/126/51 127/127/51 128/128/51
f 129/129/52 126/126/52 130/130/52
f 129/129/52 131/131/52 126/126/52
f 127/127/52 126/126/52 131/131/52
f 132/132/53 133/133/53 130/130/53
f 133/133/51 129/129/51 130/130/51
f 134/134/54 135/135/54 136/136/54
f 137/137/55 138/138/55 134/134/55
f 135/135/56 134/134/56 138/138/56
f 139/139/54 140/140/54 137/137/54
f 140/140/57 141/141/57 137/137/57
f 141/141/56 138/138/56 137/137/56
f 142/142/58 143/143/58 144/144/58
f 145/145/59 142/142/59 146/146/59
f 145/145/60 147/147/60 142/142/60
f 143/143/60 142/142/60 147/147/60
f 148/148/61 149/149/61 146/146/61
f 149/149/62 145/145/62 146/146/62
s 1
f 4/4/1 1/1/1 5/8/1
f 29/29/63 32/32/63 33/33/63
f 34/34/64 37/37/64 33/33/64
f 65/65/65 62/62/65 61/61/65
f 66/66/66 69/69/66 62/62/66
f 70/70/67 73/73/67 62/62/67
f 74/74/68 77/77/68 62/62/68
f 78/78/69 81/81/69 62/62/69
f 86/86/70 83/83/70 82/82/70
f 90/90/71 83/83/72 87/87/71
f 91/93/34 83/83/72 90/90/71
f 94/94/73 83/83/72 91/93/34
f 102/102/74 83/83/74 99/99/74
