# Blender v3.0.1 OBJ File: 'rockerfeller_plaza.blend'
# www.blender.org
o geometryt000010000010000110010110000110000110100000010110st46_5
v 1094.242065 -174.661163 189.621201
v 1094.451172 -175.361176 372.307922
v 1094.242065 -174.661163 372.307922
v 1080.488403 -128.609268 189.621201
v 1094.451172 -175.361176 188.307892
v 1080.488403 -128.609268 372.307922
v 1080.279297 -127.909378 372.307922
v 1080.279297 -127.909378 188.307892
v 1080.483276 -127.523674 189.621201
v 1080.279297 -127.909378 372.307922
v 1080.483276 -127.523674 372.307922
v 1083.723267 -121.396477 188.307892
v 1083.519287 -121.782074 189.621201
v 1080.279297 -127.909378 188.307892
v 1083.519287 -121.782074 372.307922
v 1083.723267 -121.396477 372.307922
v 1083.927856 -121.016174 189.621201
v 1083.723267 -121.396477 372.307922
v 1083.927856 -121.016174 372.307922
v 1087.209839 -114.916275 188.307892
v 1087.005249 -115.296577 189.621201
v 1083.723267 -121.396477 188.307892
v 1087.005249 -115.296577 372.307922
v 1087.209839 -114.916275 372.307922
v 1087.579834 -115.115074 189.621201
v 1087.209839 -114.916275 372.307922
v 1087.579834 -115.115074 372.307922
v 1130.288330 -138.059875 188.307892
v 1129.918335 -137.861069 189.621201
v 1087.209839 -114.916275 188.307892
v 1129.918335 -137.861069 372.307922
v 1130.288330 -138.059875 372.307922
v 1106.305054 -181.734573 189.621201
v 1106.718140 -181.956665 372.307922
v 1106.305054 -181.734573 372.307922
v 1094.451172 -175.361176 188.307892
v 1094.864136 -175.583267 189.621201
v 1106.718140 -181.956665 188.307892
v 1094.864136 -175.583267 372.307922
v 1094.451172 -175.361176 372.307922
v 1129.871460 -138.836365 189.621201
v 1130.288330 -138.059875 372.307922
v 1129.871460 -138.836365 372.307922
v 1107.135010 -181.180176 189.621201
v 1130.288330 -138.059875 188.307892
v 1107.135010 -181.180176 372.307922
v 1106.718140 -181.956665 372.307922
v 1106.718140 -181.956665 188.307892
vt 19.516939 0.517250
vt 19.809139 72.469467
vt 19.516939 72.469467
vt 0.292200 0.517250
vt 19.809139 0.000000
vt 0.292200 72.469467
vt 0.000000 72.469467
vt 0.000000 0.000000
vt 2.772450 0.517250
vt 2.946970 72.469467
vt 2.772450 72.469467
vt 0.000000 0.000000
vt 2.946970 0.000000
vt 0.174520 72.469467
vt 0.000000 72.469467
vt 0.174520 0.517250
vt 2.770670 0.517250
vt 2.943410 72.469467
vt 2.770670 72.469467
vt 0.000000 0.000000
vt 0.172740 0.517250
vt 2.943410 0.000000
vt 0.172740 72.469467
vt 0.000000 72.469467
vt 19.392719 0.517250
vt 19.560711 72.469467
vt 19.392719 72.469467
vt 0.000000 0.000000
vt 0.167990 0.517250
vt 19.560711 0.000000
vt 0.167990 72.469467
vt 0.000000 72.469467
vt 5.383470 0.517250
vt 5.571080 72.469467
vt 5.383470 72.469467
vt 0.000000 72.469467
vt 0.000000 0.000000
vt 0.187600 0.517250
vt 19.577271 0.517250
vt 19.929810 72.469467
vt 19.577271 72.469467
vt 0.352540 0.517250
vt 19.929810 0.000000
vt 0.352540 72.469467
vt 0.000000 72.469467
vt 0.000000 0.000000
vt 5.571080 0.000000
vt 0.187600 72.469467
vn -0.9581 -0.2863 0.0000
vn -0.9582 -0.2862 -0.0000
vn -0.9582 -0.2860 0.0000
vn -0.9580 -0.2866 0.0000
vn -0.9582 -0.2862 0.0001
vn -0.8841 0.4674 0.0000
vn -0.8840 0.4674 0.0000
vn -0.8838 0.4678 0.0000
vn -0.8839 0.4678 0.0000
vn -0.8842 0.4672 0.0000
vn -0.8805 0.4741 0.0000
vn -0.8806 0.4738 0.0000
vn -0.8807 0.4737 0.0000
vn -0.8807 0.4738 0.0000
vn 0.4733 0.8809 0.0000
vn 0.4735 0.8808 0.0000
vn 0.4731 0.8810 0.0000
vn -0.4737 -0.8807 0.0000
vn -0.4736 -0.8807 0.0000
vn 0.8811 -0.4729 0.0000
vn 0.8810 -0.4731 -0.0000
vn 0.8810 -0.4732 0.0000
vn 0.8811 -0.4730 0.0000
vn -0.8840 0.4675 -0.0001
vn -0.4736 -0.8808 -0.0000
vn -0.4735 -0.8808 -0.0000
s off
f 1/1/1 2/2/1 3/3/1
f 4/4/2 5/5/2 1/1/2
f 2/2/3 1/1/3 5/5/3
f 6/6/4 7/7/4 4/4/4
f 7/7/3 8/8/3 4/4/3
f 8/8/5 5/5/5 4/4/5
f 9/9/6 10/10/6 11/11/6
f 12/12/7 14/13/7 9/9/7
f 10/10/8 9/9/8 14/13/8
f 15/14/9 16/15/9 13/16/9
f 16/15/10 12/12/10 13/16/10
f 17/17/11 18/18/11 19/19/11
f 20/20/12 17/17/12 21/21/12
f 20/20/12 22/22/12 17/17/12
f 18/18/13 17/17/13 22/22/13
f 23/23/14 24/24/14 21/21/14
f 24/24/12 20/20/12 21/21/12
f 25/25/15 26/26/15 27/27/15
f 28/28/15 25/25/15 29/29/15
f 28/28/15 30/30/15 25/25/15
f 26/26/15 25/25/15 30/30/15
f 31/31/16 32/32/16 29/29/16
f 32/32/17 28/28/17 29/29/17
f 33/33/18 34/34/18 35/35/18
f 40/36/19 36/37/19 37/38/19
f 41/39/20 42/40/20 43/41/20
f 44/42/21 45/43/21 41/39/21
f 42/40/22 41/39/22 45/43/22
f 46/44/23 47/45/23 44/42/23
f 47/45/20 48/46/20 44/42/20
f 48/46/21 45/43/21 44/42/21
s 1
f 12/12/24 9/9/24 13/16/24
f 36/37/25 33/33/26 37/38/25
f 36/37/25 38/47/26 33/33/26
f 34/34/26 33/33/26 38/47/26
f 39/48/18 40/36/18 37/38/18
