# Blender v3.0.1 OBJ File: 'rockerfeller_plaza.blend'
# www.blender.org
o geometryt000010000010000110010110000110000100110010110010st119
v 206.882111 -330.660980 291.427185
v 207.185501 -330.825165 295.895264
v 206.882111 -330.660980 295.895264
v 205.410202 -329.864777 291.427185
v 207.185501 -330.825165 290.795258
v 205.410202 -329.864777 295.895264
v 204.455414 -329.348267 295.895264
v 204.455414 -329.348267 291.427185
v 202.983505 -328.552063 291.427185
v 202.983505 -328.552063 295.895264
v 202.028702 -328.035461 295.895264
v 202.028702 -328.035461 291.427185
v 200.253403 -327.075165 290.795258
v 200.556900 -327.239258 291.427185
v 200.556900 -327.239258 295.895264
v 200.253403 -327.075165 295.895264
v 200.382507 -326.752655 291.427185
v 200.218002 -327.055969 295.895264
v 200.382507 -326.752655 295.895264
v 201.180603 -325.281769 291.427185
v 200.218002 -327.055969 290.795258
v 201.180603 -325.281769 295.895264
v 201.600204 -324.508362 295.895264
v 201.600204 -324.508362 291.427185
v 203.196304 -321.566681 291.427185
v 203.196304 -321.566681 295.895264
v 203.615906 -320.793274 295.895264
v 203.615906 -320.793274 291.427185
v 206.808105 -314.909760 291.427185
v 207.565903 -313.513184 290.795258
v 206.808105 -314.909760 295.895264
v 207.227814 -314.136261 295.895264
v 207.227814 -314.136261 291.427185
v 208.025803 -312.665466 291.427185
v 208.025803 -312.665466 295.895264
v 208.445404 -311.892059 295.895264
v 208.445404 -311.892059 291.427185
v 209.243500 -310.421173 291.427185
v 209.243500 -310.421173 295.895264
v 209.663101 -309.647766 295.895264
v 209.663101 -309.647766 291.427185
v 211.320908 -306.592377 290.795258
v 212.855301 -303.764282 291.427185
v 212.855301 -303.764282 295.895264
v 213.274902 -302.990784 295.895264
v 213.274902 -302.990784 291.427185
v 214.725311 -300.317657 290.795258
v 214.871002 -300.049072 291.427185
v 214.871002 -300.049072 295.895264
v 215.290710 -299.275665 295.895264
v 215.290710 -299.275665 291.427185
v 216.088699 -297.804779 291.427185
v 216.253311 -297.501556 290.795258
v 216.088699 -297.804779 295.895264
v 216.253311 -297.501556 295.895264
v 207.185501 -330.825165 290.795258
v 207.425110 -330.378265 290.795258
v 207.425110 -330.378265 295.895264
v 207.185501 -330.825165 295.895264
v 222.460312 -302.594574 291.427185
v 222.624512 -302.291168 295.895264
v 222.460312 -302.594574 295.895264
v 221.663910 -304.066376 291.427185
v 222.624512 -302.291168 290.795258
v 221.663910 -304.066376 295.895264
v 221.176514 -304.966980 295.895264
v 221.176514 -304.966980 291.427185
v 219.583603 -307.910461 291.427185
v 219.583603 -307.910461 295.895264
v 219.096207 -308.811157 295.895264
v 219.096207 -308.811157 291.427185
v 215.910400 -314.698181 291.427185
v 215.910400 -314.698181 295.895264
v 215.423004 -315.598877 295.895264
v 215.423004 -315.598877 291.427185
v 214.626602 -317.070557 291.427185
v 207.425110 -330.378265 290.795258
v 214.626602 -317.070557 295.895264
v 214.139206 -317.971283 295.895264
v 214.139206 -317.971283 291.427185
v 210.953400 -323.858276 291.427185
v 210.953400 -323.858276 295.895264
v 210.466003 -324.758972 295.895264
v 210.466003 -324.758972 291.427185
v 208.873199 -327.702362 291.427185
v 208.873199 -327.702362 295.895264
v 208.385803 -328.603058 295.895264
v 208.385803 -328.603058 291.427185
v 207.589310 -330.074860 291.427185
v 207.589310 -330.074860 295.895264
v 207.425110 -330.378265 295.895264
v 216.529800 -297.709961 291.427185
v 216.254105 -297.502655 295.895264
v 216.529800 -297.709961 295.895264
v 217.867508 -298.715485 291.427185
v 216.254105 -297.502655 290.795258
v 217.867508 -298.715485 295.895264
v 218.770401 -299.394257 295.895264
v 218.770401 -299.394257 291.427185
v 219.584305 -300.005981 290.795258
v 220.108002 -300.399780 291.427185
v 220.108002 -300.399780 295.895264
v 221.011002 -301.078461 295.895264
v 221.011002 -301.078461 291.427185
v 222.348602 -302.083984 291.427185
v 222.624405 -302.291260 290.795258
v 222.348602 -302.083984 295.895264
v 222.624405 -302.291260 295.895264
vt 3.014550 0.248890
vt 3.152550 2.008660
vt 3.014550 2.008660
vt 2.345180 0.248890
vt 3.152550 0.000000
vt 2.345180 2.008660
vt 1.910960 2.008660
vt 1.910960 0.248890
vt 1.241590 0.248890
vt 1.241590 2.008660
vt 0.807370 2.008660
vt 0.807370 0.248890
vt 0.000000 0.000000
vt 0.138000 0.248890
vt 0.138000 2.008660
vt 0.000000 2.008660
vt 13.311710 0.248890
vt 13.449710 2.008660
vt 13.311710 2.008660
vt 12.642340 2.008660
vt 12.290370 2.008660
vt 12.642340 0.248890
vt 12.290370 0.248890
vt 13.449710 0.000000
vt 10.951630 0.248890
vt 10.951630 2.008660
vt 10.599660 2.008660
vt 10.599660 0.248890
vt 7.286610 0.000000
vt 7.922180 2.008660
vt 7.570210 2.008660
vt 7.922180 0.248890
vt 7.570210 0.248890
vt 6.900840 0.248890
vt 6.900840 2.008660
vt 6.548870 2.008660
vt 6.548870 0.248890
vt 5.879500 2.008660
vt 5.527530 2.008660
vt 5.879500 0.248890
vt 5.527530 0.248890
vt 4.137090 0.000000
vt 1.159340 2.008660
vt 0.807370 2.008660
vt 1.159340 0.248890
vt 0.807370 0.248890
vt 1.281570 0.000000
vt 0.138000 0.248890
vt 0.000000 0.000000
vt 0.138000 2.008660
vt 0.000000 2.008660
vt 0.000000 0.000000
vt 0.202830 0.000000
vt 0.202830 2.008660
vt 0.000000 2.008660
vt 12.636380 0.248890
vt 12.774380 2.008660
vt 12.636380 2.008660
vt 11.967010 0.248890
vt 12.774380 0.000000
vt 11.967010 2.008660
vt 11.557370 2.008660
vt 11.557370 0.248890
vt 10.218630 0.248890
vt 10.218630 2.008660
vt 9.809000 2.008660
vt 9.809000 0.248890
vt 7.131520 0.248890
vt 7.131520 2.008660
vt 6.721880 2.008660
vt 6.721880 0.248890
vt 6.052510 0.248890
vt 0.000000 0.000000
vt 6.052510 2.008660
vt 5.642870 2.008660
vt 5.642870 0.248890
vt 2.965390 0.248890
vt 2.965390 2.008660
vt 2.555750 2.008660
vt 2.555750 0.248890
vt 1.217010 0.248890
vt 1.217010 2.008660
vt 0.807370 2.008660
vt 0.807370 0.248890
vt 0.138000 0.248890
vt 0.138000 2.008660
vt 0.000000 2.008660
vt 3.049770 0.248890
vt 3.187770 2.008660
vt 3.049770 2.008660
vt 2.380400 0.248890
vt 3.187770 0.000000
vt 2.380400 2.008660
vt 1.928570 2.008660
vt 1.928570 0.248890
vt 1.521310 0.000000
vt 1.259200 0.248890
vt 1.259200 2.008660
vt 0.807370 2.008660
vt 0.807370 0.248890
vt 0.138000 0.248890
vt 0.000000 0.000000
vt 0.138000 2.008660
vt 0.000000 2.008660
vt 2.850050 0.248890
vt 2.850050 2.008660
vt 2.498080 2.008660
vt 2.498080 0.248890
vn -0.4759 -0.8795 0.0000
vn -0.4758 -0.8796 0.0001
vn -0.4758 -0.8795 0.0000
vn -0.4758 -0.8795 0.0002
vn -0.4759 -0.8795 -0.0005
vn -0.4759 -0.8795 0.0004
vn -0.4758 -0.8796 0.0000
vn -0.4756 -0.8797 0.0000
vn -0.8789 0.4770 0.0000
vn -0.8790 0.4769 0.0000
vn -0.8790 0.4768 0.0001
vn -0.8790 0.4769 -0.0001
vn -0.8790 0.4769 0.0004
vn -0.8789 0.4769 0.0000
vn -0.8791 0.4767 0.0002
vn -0.8789 0.4770 -0.0003
vn -0.8789 0.4769 -0.0001
vn -0.8789 0.4769 0.0003
vn -0.8790 0.4768 -0.0000
vn 0.8813 -0.4726 0.0000
vn 0.8813 -0.4725 0.0000
vn 0.8794 -0.4760 0.0000
vn 0.8795 -0.4759 0.0000
vn 0.8795 -0.4760 0.0000
vn 0.8795 -0.4759 -0.0001
vn 0.8795 -0.4758 -0.0007
vn 0.8794 -0.4761 -0.0008
vn 0.6010 0.7993 0.0000
vn 0.6008 0.7994 0.0001
vn 0.6009 0.7993 0.0000
vn 0.6009 0.7993 0.0003
vn 0.6009 0.7993 0.0002
vn 0.6008 0.7994 0.0000
vn 0.6008 0.7994 0.0002
vn 0.6009 0.7993 0.0001
vn -0.8790 0.4768 -0.0001
vn -0.8789 0.4771 0.0000
vn -0.8790 0.4769 0.0002
vn -0.8790 0.4769 -0.0002
vn -0.8790 0.4769 0.0006
vn 0.8794 -0.4761 0.0007
s off
f 1/1/1 2/2/1 3/3/1
f 4/4/2 5/5/2 1/1/2
f 2/2/1 1/1/1 5/5/1
f 6/6/3 7/7/3 4/4/3
f 7/7/3 8/8/3 4/4/3
f 8/8/4 5/5/4 4/4/4
f 8/8/5 9/9/5 5/5/5
f 10/10/1 11/11/1 9/9/1
f 11/11/1 12/12/1 9/9/1
f 12/12/6 13/13/6 9/9/6
f 9/9/7 13/13/7 5/5/7
f 14/14/3 13/13/3 12/12/3
f 15/15/8 16/16/8 14/14/8
f 16/16/8 13/13/8 14/14/8
f 17/17/9 18/18/9 19/19/9
f 22/20/10 23/21/10 20/22/10
f 23/21/10 24/23/10 20/22/10
f 20/22/11 24/23/11 21/24/11
f 21/24/12 24/23/12 25/25/12
f 26/26/10 27/27/10 25/25/10
f 27/27/10 28/28/10 25/25/10
f 28/28/13 21/24/13 25/25/13
f 30/29/12 21/24/12 28/28/12
f 31/30/14 32/31/14 29/32/14
f 32/31/14 33/33/14 29/32/14
f 33/33/15 30/29/15 29/32/15
f 34/34/10 30/29/10 33/33/10
f 35/35/10 36/36/10 34/34/10
f 36/36/10 37/37/10 34/34/10
f 39/38/10 40/39/10 38/40/10
f 40/39/10 41/41/10 38/40/10
f 42/42/16 38/40/16 41/41/16
f 42/42/12 30/29/12 38/40/12
f 49/43/9 50/44/9 48/45/9
f 50/44/9 51/46/9 48/45/9
f 48/45/17 51/46/17 47/47/17
f 52/48/18 53/49/18 51/46/18
f 51/46/14 53/49/14 47/47/14
f 54/50/19 55/51/19 52/48/19
f 56/52/20 57/53/20 58/54/20
f 56/52/21 58/54/21 59/55/21
f 60/56/22 61/57/22 62/58/22
f 63/59/23 64/60/23 60/56/23
f 61/57/23 60/56/23 64/60/23
f 65/61/24 66/62/24 63/59/24
f 66/62/24 67/63/24 63/59/24
f 67/63/24 64/60/24 63/59/24
f 67/63/25 68/64/25 64/60/25
f 69/65/23 70/66/23 68/64/23
f 70/66/23 71/67/23 68/64/23
f 68/64/22 71/67/22 64/60/22
f 71/67/23 72/68/23 64/60/23
f 73/69/23 74/70/23 72/68/23
f 74/70/23 75/71/23 72/68/23
f 72/68/26 75/71/26 64/60/26
f 76/72/27 77/73/27 75/71/27
f 75/71/24 77/73/24 64/60/24
f 78/74/23 79/75/23 76/72/23
f 79/75/23 80/76/23 76/72/23
f 81/77/23 77/73/23 80/76/23
f 82/78/23 83/79/23 81/77/23
f 83/79/23 84/80/23 81/77/23
f 84/80/22 77/73/22 81/77/22
f 85/81/25 77/73/25 84/80/25
f 86/82/23 87/83/23 85/81/23
f 87/83/23 88/84/23 85/81/23
f 88/84/25 77/73/25 85/81/25
f 89/85/23 77/73/23 88/84/23
f 90/86/24 91/87/24 89/85/24
f 91/87/23 77/73/23 89/85/23
f 92/88/28 93/89/28 94/90/28
f 95/91/29 96/92/29 92/88/29
f 93/89/28 92/88/28 96/92/28
f 97/93/30 98/94/30 95/91/30
f 98/94/30 99/95/30 95/91/30
f 99/95/31 100/96/31 95/91/31
f 95/91/30 100/96/30 96/92/30
f 99/95/32 101/97/32 100/96/32
f 102/98/33 103/99/33 101/97/33
f 103/99/33 104/100/33 101/97/33
f 101/97/34 104/100/34 100/96/34
f 105/101/35 106/102/35 104/100/35
f 104/100/35 106/102/35 100/96/35
f 107/103/33 108/104/33 105/101/33
f 108/104/33 106/102/33 105/101/33
s 1
f 20/22/12 21/24/12 17/17/36
f 18/18/37 17/17/36 21/24/12
f 29/32/38 30/29/38 28/28/38
f 37/37/10 30/29/12 34/34/39
f 38/40/10 30/29/12 37/37/10
f 41/41/12 43/105/10 42/42/12
f 44/106/19 45/107/19 43/105/10
f 45/107/19 46/108/40 43/105/10
f 43/105/10 46/108/40 47/47/12
f 42/42/12 43/105/10 47/47/12
f 46/108/40 48/45/12 47/47/12
f 55/51/19 53/49/19 52/48/19
f 80/76/41 77/73/41 76/72/41
