# Blender v3.0.1 OBJ File: 'rockerfeller_plaza.blend'
# www.blender.org
o geometryt000010000010000110010110000110000110100000110100st100
v 792.582703 -201.149216 700.944946
v 792.421997 -201.454514 724.257690
v 792.582703 -201.149216 724.257690
v 794.772217 -196.989304 700.944946
v 792.421997 -201.454514 700.657715
v 794.772217 -196.989304 724.257690
v 795.117371 -196.333511 724.257690
v 795.117371 -196.333511 700.944946
v 796.577087 -193.560303 700.944946
v 796.577087 -193.560303 724.257690
v 796.922241 -192.904510 724.257690
v 796.922241 -192.904510 700.944946
v 798.381897 -190.131210 700.944946
v 798.381897 -190.131210 724.257690
v 798.727112 -189.475403 724.257690
v 798.727112 -189.475403 700.944946
v 804.687012 -178.152115 700.657715
v 800.186768 -186.702209 700.944946
v 800.186768 -186.702209 724.257690
v 800.531921 -186.046402 724.257690
v 800.531921 -186.046402 700.944946
v 801.991638 -183.273102 700.944946
v 801.991638 -183.273102 724.257690
v 802.336792 -182.617310 724.257690
v 802.336792 -182.617310 700.944946
v 804.526367 -178.457413 700.944946
v 804.526367 -178.457413 724.257690
v 804.687012 -178.152115 724.257690
v 799.165283 -204.978012 700.944946
v 799.471069 -205.137802 724.257690
v 799.165283 -204.978012 724.257690
v 797.776489 -204.252304 700.944946
v 799.471069 -205.137802 700.657715
v 797.776489 -204.252304 724.257690
v 796.640930 -203.659012 724.257690
v 796.640930 -203.659012 700.944946
v 795.690613 -203.162415 700.657715
v 795.252136 -202.933304 700.944946
v 795.252136 -202.933304 724.257690
v 794.116577 -202.339905 724.257690
v 794.116577 -202.339905 700.944946
v 792.727783 -201.614212 700.944946
v 792.421997 -201.454514 700.657715
v 792.727783 -201.614212 724.257690
v 792.421997 -201.454514 724.257690
v 811.576538 -182.138916 700.944946
v 811.737244 -181.833710 724.257690
v 811.576538 -182.138916 724.257690
v 809.386963 -186.298813 700.944946
v 811.737244 -181.833710 700.657715
v 809.386963 -186.298813 724.257690
v 809.041809 -186.954605 724.257690
v 809.041809 -186.954605 700.944946
v 807.582092 -189.727905 700.944946
v 807.582092 -189.727905 724.257690
v 807.236938 -190.383606 724.257690
v 807.236938 -190.383606 700.944946
v 805.777222 -193.156906 700.944946
v 802.876099 -198.668701 700.657715
v 805.777222 -193.156906 724.257690
v 805.432007 -193.812714 724.257690
v 805.432007 -193.812714 700.944946
v 803.972351 -196.585907 700.944946
v 803.972351 -196.585907 724.257690
v 803.627136 -197.241714 724.257690
v 803.627136 -197.241714 700.944946
v 802.167480 -200.015015 700.944946
v 802.167480 -200.015015 724.257690
v 801.822266 -200.670807 724.257690
v 801.822266 -200.670807 700.944946
v 799.632751 -204.830612 700.944946
v 799.472046 -205.135910 700.657715
v 799.632751 -204.830612 724.257690
v 799.472046 -205.135910 724.257690
v 804.992859 -178.311813 700.944946
v 804.687012 -178.152115 724.257690
v 804.992859 -178.311813 724.257690
v 806.381836 -179.037109 700.944946
v 804.687012 -178.152115 700.657715
v 806.381836 -179.037109 724.257690
v 807.517517 -179.630203 724.257690
v 807.517517 -179.630203 700.944946
v 808.906555 -180.355515 700.944946
v 808.906555 -180.355515 724.257690
v 810.042236 -180.948608 724.257690
v 810.042236 -180.948608 700.944946
v 811.737061 -181.833603 700.657715
v 811.431213 -181.673904 700.944946
v 811.431213 -181.673904 724.257690
v 811.737061 -181.833603 724.257690
vt 46.490269 0.513860
vt 47.107449 42.218250
vt 46.490269 42.218250
vt 47.107449 0.000000
vt 31.148680 42.218250
vt 29.822941 42.218250
vt 31.148680 0.513860
vt 29.822941 0.513860
vt 15.958770 0.513860
vt 0.000000 0.000000
vt 17.284510 0.513860
vt 10.352430 0.513860
vt 0.617170 0.513860
vt 9.026690 0.513860
vt 0.617170 42.218250
vt 0.000000 42.218250
vt 13.610690 0.513860
vt 14.227860 42.218250
vt 13.610690 42.218250
vt 10.807510 0.513860
vt 14.227860 0.000000
vt 10.807510 42.218250
vt 8.515521 42.218250
vt 8.515521 0.513860
vt 6.597350 0.000000
vt 5.712340 0.513860
vt 5.712340 42.218250
vt 3.420340 42.218250
vt 3.420340 0.513860
vt 0.617170 0.513860
vt 0.000000 0.000000
vt 0.617170 42.218250
vt 0.000000 42.218250
vt 46.490280 0.513860
vt 47.107449 42.218250
vt 46.490280 42.218250
vt 38.080761 0.513860
vt 47.107449 0.000000
vt 38.080761 42.218250
vt 36.755020 42.218250
vt 36.755020 0.513860
vt 29.822941 0.513860
vt 24.216600 0.513860
vt 13.074050 0.000000
vt 24.216600 42.218250
vt 22.890860 42.218250
vt 22.890860 0.513860
vt 17.284510 0.513860
vt 17.284510 42.218250
vt 15.958770 42.218250
vt 15.958770 0.513860
vt 10.352430 0.513860
vt 10.352430 42.218250
vt 9.026690 42.218250
vt 9.026690 0.513860
vt 0.617170 0.513860
vt 0.000000 0.000000
vt 0.617170 42.218250
vt 0.000000 42.218250
vt 13.610650 0.513860
vt 14.227830 42.218250
vt 13.610650 42.218250
vt 10.807480 0.513860
vt 14.227830 0.000000
vt 10.807480 42.218250
vt 8.515501 42.218250
vt 8.515501 0.513860
vt 5.712330 0.513860
vt 5.712330 42.218250
vt 3.420340 42.218250
vt 3.420340 0.513860
vt 0.000000 0.000000
vt 0.617170 0.513860
vt 0.617170 42.218250
vt 0.000000 42.218250
vt 38.080761 0.513860
vt 38.080761 42.218250
vt 36.755020 42.218250
vt 36.755020 0.513860
vt 24.216591 0.513860
vt 24.216591 42.218250
vt 22.890850 42.218250
vt 22.890850 0.513860
vt 17.284510 42.218250
vt 15.958770 42.218250
vt 10.352430 42.218250
vt 9.026690 42.218250
vt 31.148680 0.513860
vt 31.148680 42.218250
vt 29.822941 42.218250
vn -0.8849 0.4658 0.0000
vn -0.8850 0.4656 0.0000
vn -0.8850 0.4656 0.0011
vn -0.8860 0.4637 -0.0001
vn -0.8847 0.4661 0.0003
vn -0.8849 0.4658 0.0001
vn -0.8850 0.4657 0.0000
vn -0.4631 -0.8863 0.0000
vn -0.4632 -0.8863 0.0000
vn -0.4631 -0.8863 -0.0002
vn -0.4631 -0.8863 0.0001
vn -0.4631 -0.8863 -0.0001
vn -0.4632 -0.8862 0.0004
vn -0.4630 -0.8863 0.0002
vn -0.4632 -0.8862 0.0000
vn -0.4630 -0.8864 0.0000
vn 0.8849 -0.4659 0.0000
vn 0.8849 -0.4657 0.0001
vn 0.8849 -0.4658 0.0000
vn 0.8849 -0.4657 0.0011
vn 0.8850 -0.4656 0.0000
vn 0.8849 -0.4657 -0.0002
vn 0.8848 -0.4659 0.0000
vn 0.8850 -0.4656 0.0011
vn 0.8848 -0.4660 0.0004
vn 0.8850 -0.4656 -0.0003
vn 0.8849 -0.4658 0.0001
vn 0.8850 -0.4655 0.0000
vn 0.4629 0.8864 0.0000
vn 0.4629 0.8864 0.0001
vn 0.4628 0.8864 0.0000
vn 0.4630 0.8864 0.0000
vn 0.4630 0.8864 -0.0003
vn 0.4632 0.8863 0.0003
vn 0.4630 0.8864 0.0007
vn 0.4629 0.8864 -0.0001
vn 0.4630 0.8864 -0.0001
vn 0.4627 0.8865 0.0000
vn -0.8850 0.4655 0.0004
vn -0.8850 0.4656 -0.0001
vn -0.8849 0.4659 -0.0000
vn -0.8856 0.4645 0.0010
vn -0.8849 0.4658 -0.0004
vn -0.8847 0.4661 -0.0003
vn -0.8848 0.4659 0.0000
vn -0.8851 0.4655 -0.0004
vn 0.8850 -0.4656 -0.0002
vn 0.8846 -0.4664 0.0006
s off
f 1/1/1 2/2/1 3/3/1
f 2/2/2 1/1/2 5/4/2
f 10/5/2 11/6/2 9/7/2
f 11/6/1 12/8/1 9/7/1
f 9/7/3 12/8/3 5/4/3
f 21/9/4 17/10/4 18/11/4
f 22/12/5 17/10/5 21/9/5
f 26/13/6 17/10/6 25/14/6
f 27/15/1 28/16/1 26/13/1
f 28/16/7 17/10/7 26/13/7
f 29/17/8 30/18/8 31/19/8
f 32/20/8 33/21/8 29/17/8
f 30/18/9 29/17/9 33/21/9
f 34/22/8 35/23/8 32/20/8
f 35/23/8 36/24/8 32/20/8
f 36/24/10 37/25/10 32/20/10
f 32/20/11 37/25/11 33/21/11
f 36/24/12 38/26/12 37/25/12
f 39/27/8 40/28/8 38/26/8
f 40/28/9 41/29/9 38/26/9
f 38/26/10 41/29/10 37/25/10
f 42/30/13 43/31/13 41/29/13
f 41/29/14 43/31/14 37/25/14
f 44/32/15 45/33/15 42/30/15
f 45/33/16 43/31/16 42/30/16
f 46/34/17 47/35/17 48/36/17
f 49/37/18 50/38/18 46/34/18
f 47/35/19 46/34/19 50/38/19
f 51/39/19 52/40/19 49/37/19
f 52/40/19 53/41/19 49/37/19
f 49/37/20 53/41/20 50/38/20
f 57/42/21 58/43/21 59/44/21
f 50/38/22 57/42/22 59/44/22
f 60/45/23 61/46/23 58/43/23
f 61/46/19 62/47/19 58/43/19
f 58/43/24 62/47/24 59/44/24
f 62/47/18 63/48/18 59/44/18
f 64/49/19 65/50/19 63/48/19
f 65/50/19 66/51/19 63/48/19
f 63/48/25 66/51/25 59/44/25
f 66/51/18 67/52/18 59/44/18
f 68/53/19 69/54/19 67/52/19
f 69/54/19 70/55/19 67/52/19
f 67/52/26 70/55/26 59/44/26
f 71/56/19 72/57/19 70/55/19
f 70/55/27 72/57/27 59/44/27
f 73/58/19 74/59/19 71/56/19
f 74/59/28 72/57/28 71/56/28
f 75/60/29 76/61/29 77/62/29
f 78/63/30 79/64/30 75/60/30
f 76/61/29 75/60/29 79/64/29
f 80/65/31 81/66/31 78/63/31
f 81/66/32 82/67/32 78/63/32
f 82/67/33 79/64/33 78/63/33
f 82/67/34 83/68/34 79/64/34
f 84/69/32 85/70/32 83/68/32
f 85/70/29 86/71/29 83/68/29
f 86/71/35 87/72/35 83/68/35
f 83/68/36 87/72/36 79/64/36
f 88/73/37 87/72/37 86/71/37
f 89/74/29 90/75/29 88/73/29
f 90/75/38 87/72/38 88/73/38
s 1
f 4/76/39 5/4/1 1/1/1
f 6/77/1 7/78/1 4/76/39
f 7/78/1 8/79/2 4/76/39
f 8/79/2 5/4/1 4/76/39
f 8/79/2 9/7/2 5/4/1
f 12/8/40 13/80/41 5/4/1
f 14/81/1 15/82/1 13/80/41
f 15/82/1 16/83/42 13/80/41
f 16/83/42 17/10/43 13/80/41
f 13/80/41 17/10/43 5/4/1
f 18/11/44 17/10/43 16/83/42
f 19/84/45 20/85/45 18/11/2
f 20/85/45 21/9/2 18/11/2
f 23/86/1 24/87/1 22/12/1
f 24/87/1 25/14/40 22/12/1
f 25/14/40 17/10/46 22/12/1
f 53/41/47 54/88/48 50/38/27
f 55/89/19 56/90/19 54/88/48
f 56/90/19 57/42/19 54/88/48
f 50/38/27 54/88/48 57/42/19
