# Blender v3.0.1 OBJ File: 'rockerfeller_plaza.blend'
# www.blender.org
o geometryt000010000010000110010110000110000110100000100110st161
v 522.895325 -228.908310 656.440979
v 523.199097 -229.071808 681.880127
v 522.895325 -228.908310 681.880127
v 520.096008 -227.401901 656.440979
v 523.199097 -229.071808 655.980103
v 520.096008 -227.401901 681.880127
v 517.840820 -226.188309 681.880127
v 517.840820 -226.188309 656.440979
v 514.737671 -224.518402 655.980103
v 515.041504 -224.681808 656.440979
v 515.041504 -224.681808 681.880127
v 514.737671 -224.518402 681.880127
v 514.900818 -224.214401 656.440979
v 514.737671 -224.518402 681.880127
v 514.900818 -224.214401 681.880127
v 516.404297 -221.413406 656.440979
v 514.737671 -224.518402 655.980103
v 516.404297 -221.413406 681.880127
v 517.143738 -220.035812 681.880127
v 517.143738 -220.035812 656.440979
v 520.150574 -214.433914 656.440979
v 520.150574 -214.433914 681.880127
v 520.890076 -213.056305 681.880127
v 520.890076 -213.056305 656.440979
v 523.145203 -208.854904 656.440979
v 523.145203 -208.854904 681.880127
v 523.884644 -207.477310 681.880127
v 523.884644 -207.477310 656.440979
v 529.297607 -197.392914 655.980103
v 526.891541 -201.875412 656.440979
v 526.891541 -201.875412 681.880127
v 527.630981 -200.497803 681.880127
v 527.630981 -200.497803 656.440979
v 529.134399 -197.696808 656.440979
v 529.134399 -197.696808 681.880127
v 529.297607 -197.392914 681.880127
v 537.504822 -202.406815 656.440979
v 537.667969 -202.102814 681.880127
v 537.504822 -202.406815 681.880127
v 536.001953 -205.208115 656.440979
v 537.667969 -202.102814 655.980103
v 536.001953 -205.208115 681.880127
v 535.284180 -206.546005 681.880127
v 535.284180 -206.546005 656.440979
v 532.278442 -212.148514 656.440979
v 532.278442 -212.148514 681.880127
v 531.560669 -213.486404 681.880127
v 531.560669 -213.486404 656.440979
v 529.306396 -217.688309 656.440979
v 523.199097 -229.071808 655.980103
v 529.306396 -217.688309 681.880127
v 528.588623 -219.026215 681.880127
v 528.588623 -219.026215 656.440979
v 525.582886 -224.628708 656.440979
v 525.582886 -224.628708 681.880127
v 524.865051 -225.966614 681.880127
v 524.865051 -225.966614 656.440979
v 523.362183 -228.767807 656.440979
v 523.362183 -228.767807 681.880127
v 523.199097 -229.071808 681.880127
v 529.598633 -197.561401 656.440979
v 529.294678 -197.398209 681.880127
v 529.598633 -197.561401 681.880127
v 530.999023 -198.313416 656.440979
v 529.294678 -197.398209 655.980103
v 530.999023 -198.313416 681.880127
v 532.142456 -198.927307 681.880127
v 532.142456 -198.927307 656.440979
v 533.757690 -199.794601 655.980103
v 533.542847 -199.679214 656.440979
v 533.542847 -199.679214 681.880127
v 533.757690 -199.794601 681.880127
v 534.686340 -200.293213 656.440979
v 534.686340 -200.293213 681.880127
v 536.086670 -201.045105 656.440979
v 536.390625 -201.208313 655.980103
v 536.086670 -201.045105 681.880127
v 536.390625 -201.208313 681.880127
v 537.758850 -201.935211 655.980103
v 536.391174 -201.207306 655.980103
v 536.391174 -201.207306 681.880127
v 537.758850 -201.935211 681.880127
v 537.667969 -202.102814 655.980103
v 537.758850 -201.935211 655.980103
v 537.758850 -201.935211 681.880127
v 537.667969 -202.102814 681.880127
vt 49.805630 2.477870
vt 51.660469 139.247299
vt 49.805630 139.247299
vt 32.714630 2.477870
vt 51.660469 0.000000
vt 32.714630 139.247299
vt 18.945841 139.247299
vt 18.945841 2.477870
vt 0.000000 0.000000
vt 1.854840 2.477870
vt 1.854840 139.247299
vt 0.000000 139.247299
vt 163.661804 2.477870
vt 165.516693 139.247299
vt 163.661804 139.247299
vt 146.570801 2.477870
vt 165.516693 0.000000
vt 146.570801 139.247299
vt 138.164703 139.247299
vt 138.164703 2.477870
vt 103.982697 2.477870
vt 103.982697 139.247299
vt 95.576591 139.247299
vt 95.576591 2.477870
vt 69.940079 2.477870
vt 69.940079 139.247299
vt 61.533970 139.247299
vt 61.533970 2.477870
vt 0.000000 0.000000
vt 27.351959 2.477870
vt 27.351959 139.247299
vt 18.945841 139.247299
vt 18.945841 2.477870
vt 1.854840 2.477870
vt 1.854840 139.247299
vt 0.000000 139.247299
vt 162.689102 2.477870
vt 164.543900 139.247299
vt 162.689102 139.247299
vt 145.598007 2.477870
vt 164.543900 0.000000
vt 145.598007 139.247299
vt 137.435104 139.247299
vt 137.435104 2.477870
vt 103.253098 2.477870
vt 103.253098 139.247299
vt 95.090202 139.247299
vt 95.090202 2.477870
vt 69.453697 2.477870
vt 0.000000 0.000000
vt 69.453697 139.247299
vt 61.290779 139.247299
vt 61.290779 2.477870
vt 27.108761 2.477870
vt 27.108761 139.247299
vt 18.945841 139.247299
vt 18.945841 2.477870
vt 1.854840 2.477870
vt 1.854840 139.247299
vt 0.000000 139.247299
vt 41.446960 2.477870
vt 43.301800 139.247299
vt 41.446960 139.247299
vt 32.901459 2.477870
vt 43.301800 0.000000
vt 32.901459 139.247299
vt 25.923651 139.247299
vt 25.923651 2.477870
vt 16.067141 0.000000
vt 17.378151 2.477870
vt 17.378151 139.247299
vt 16.067141 139.247299
vt 10.400340 2.477870
vt 10.400340 139.247299
vt 1.854840 2.477870
vt 0.000000 0.000000
vt 1.854840 139.247299
vt 0.000000 139.247299
vt 0.000000 0.000000
vt 8.329710 0.000000
vt 8.329710 139.247299
vt 0.000000 139.247299
vt 0.000000 0.000000
vt 1.025070 0.000000
vt 1.025070 139.247299
vt 0.000000 139.247299
vn -0.4739 -0.8806 0.0000
vn -0.4738 -0.8806 0.0000
vn -0.4740 -0.8805 0.0000
vn -0.4738 -0.8807 -0.0001
vn -0.4737 -0.8807 0.0000
vn -0.4736 -0.8807 0.0000
vn -0.8811 0.4729 0.0000
vn -0.8811 0.4730 -0.0001
vn -0.8811 0.4730 0.0000
vn -0.8810 0.4730 0.0000
vn -0.8810 0.4730 -0.0007
vn -0.8812 0.4727 0.0002
vn -0.8811 0.4730 0.0003
vn -0.8811 0.4729 -0.0001
vn -0.8811 0.4730 -0.0002
vn -0.8810 0.4732 0.0000
vn -0.8810 0.4731 0.0000
vn 0.8811 -0.4729 0.0000
vn 0.8812 -0.4728 0.0001
vn 0.8812 -0.4728 0.0000
vn 0.8812 -0.4727 0.0000
vn 0.8812 -0.4727 0.0001
vn 0.8812 -0.4728 0.0002
vn 0.8811 -0.4730 -0.0003
vn 0.8813 -0.4726 -0.0003
vn 0.8813 -0.4726 0.0000
vn 0.8812 -0.4728 -0.0001
vn 0.4730 0.8810 0.0000
vn 0.4732 0.8810 -0.0000
vn 0.4730 0.8811 0.0000
vn 0.4731 0.8810 0.0001
vn 0.4732 0.8810 0.0001
vn 0.4730 0.8811 -0.0001
vn 0.4731 0.8810 0.0000
vn 0.4730 0.8811 -0.0002
vn 0.4698 0.8828 0.0000
vn 0.8789 -0.4769 0.0000
vn 0.8791 -0.4766 0.0000
s off
f 1/1/1 2/2/1 3/3/1
f 4/4/2 5/5/2 1/1/2
f 2/2/3 1/1/3 5/5/3
f 6/6/1 7/7/1 4/4/1
f 7/7/1 8/8/1 4/4/1
f 8/8/1 9/9/1 4/4/1
f 9/9/1 5/5/1 4/4/1
f 10/10/4 9/9/4 8/8/4
f 11/11/5 12/12/5 10/10/5
f 12/12/6 9/9/6 10/10/6
f 13/13/7 14/14/7 15/15/7
f 16/16/8 17/17/8 13/13/8
f 14/14/7 13/13/7 17/17/7
f 18/18/7 19/19/7 16/16/7
f 19/19/7 20/20/7 16/16/7
f 20/20/9 17/17/9 16/16/9
f 20/20/10 21/21/10 17/17/10
f 22/22/9 23/23/9 21/21/9
f 23/23/9 24/24/9 21/21/9
f 21/21/11 24/24/11 17/17/11
f 24/24/12 25/25/12 17/17/12
f 26/26/7 27/27/7 25/25/7
f 27/27/9 28/28/9 25/25/9
f 28/28/13 29/29/13 25/25/13
f 25/25/8 29/29/8 17/17/8
f 30/30/14 29/29/14 28/28/14
f 31/31/7 32/32/7 30/30/7
f 32/32/9 33/33/9 30/30/9
f 33/33/9 29/29/9 30/30/9
f 34/34/15 29/29/15 33/33/15
f 35/35/16 36/36/16 34/34/16
f 36/36/17 29/29/17 34/34/17
f 37/37/18 38/38/18 39/39/18
f 40/40/19 41/41/19 37/37/19
f 38/38/20 37/37/20 41/41/20
f 42/42/20 43/43/20 40/40/20
f 43/43/21 44/44/21 40/40/21
f 44/44/22 41/41/22 40/40/22
f 44/44/23 45/45/23 41/41/23
f 46/46/20 47/47/20 45/45/20
f 47/47/20 48/48/20 45/45/20
f 45/45/24 48/48/24 41/41/24
f 49/49/25 50/50/25 48/48/25
f 48/48/26 50/50/26 41/41/26
f 51/51/20 52/52/20 49/49/20
f 52/52/20 53/53/20 49/49/20
f 53/53/24 50/50/24 49/49/24
f 54/54/27 50/50/27 53/53/27
f 55/55/20 56/56/20 54/54/20
f 56/56/20 57/57/20 54/54/20
f 57/57/21 50/50/21 54/54/21
f 58/58/18 50/50/18 57/57/18
f 59/59/21 60/60/21 58/58/21
f 60/60/20 50/50/20 58/58/20
f 61/61/28 62/62/28 63/63/28
f 64/64/29 65/65/29 61/61/29
f 62/62/28 61/61/28 65/65/28
f 66/66/28 67/67/28 64/64/28
f 67/67/30 68/68/30 64/64/30
f 68/68/31 69/69/31 64/64/31
f 64/64/32 69/69/32 65/65/32
f 68/68/33 70/70/33 69/69/33
f 71/71/34 72/72/34 70/70/34
f 72/72/34 73/73/34 70/70/34
f 70/70/35 73/73/35 69/69/35
f 72/72/34 74/74/34 73/73/34
f 75/75/34 76/76/34 73/73/34
f 73/73/34 76/76/34 69/69/34
f 77/77/34 78/78/34 75/75/34
f 78/78/28 76/76/28 75/75/28
f 79/79/36 80/80/36 81/81/36
f 79/79/36 81/81/36 82/82/36
f 83/83/37 84/84/37 85/85/37
f 83/83/38 85/85/38 86/86/38
