# Blender v3.0.1 OBJ File: 'rockerfeller_plaza.blend'
# www.blender.org
o geometryt000010000010000110010110000110000110100000010100st199_
v 916.956604 -247.041183 148.706100
v 896.667480 -253.239990 148.706100
v 889.659119 -249.469391 148.706100
v 902.464233 -273.966858 148.706100
v 889.313843 -266.892883 148.706100
v 879.663330 -261.698669 148.706100
v 882.313843 -263.122070 148.706100
v 872.563904 -254.476288 148.706100
v 879.140991 -242.264679 148.706100
v 883.129028 -228.828781 148.706100
v 871.295532 -257.188873 148.706100
v 868.519836 -257.321167 148.706100
v 870.618103 -258.451355 148.706100
v 870.618591 -253.433182 148.706100
v 876.626404 -240.906281 148.706100
v 896.667480 -253.239990 224.706116
v 889.313843 -266.892883 224.706116
v 902.464233 -273.966858 224.706116
v 916.956604 -247.041183 224.706116
v 883.129028 -228.828781 224.706116
v 889.659119 -249.469391 224.706116
v 876.626404 -240.906281 224.706116
v 879.140991 -242.264679 224.706116
v 872.563904 -254.476288 224.706116
v 870.618591 -253.433182 224.706116
v 871.295532 -257.188873 224.706116
v 879.663330 -261.698669 224.706116
v 868.519836 -257.321167 224.706116
v 870.618103 -258.451355 224.706116
v 882.313843 -263.122070 224.706116
vt 0.395090 0.339480
vt 0.412820 0.298440
vt 0.408190 0.284400
vt 0.448700 0.309640
vt 0.440000 0.283300
vt 0.433620 0.263970
vt 0.435370 0.269280
vt 0.422740 0.249830
vt 0.398420 0.263370
vt 0.372700 0.271730
vt 0.428070 0.247210
vt 0.429200 0.241610
vt 0.430590 0.245810
vt 0.421460 0.245930
vt 0.396750 0.258340
vt 0.412820 0.298440
vt 0.440000 0.283300
vt 0.448700 0.309640
vt 0.395090 0.339480
vt 0.372700 0.271730
vt 0.408190 0.284400
vt 0.396750 0.258340
vt 0.398420 0.263370
vt 0.422740 0.249830
vt 0.421460 0.245930
vt 0.428070 0.247210
vt 0.433620 0.263970
vt 0.429200 0.241610
vt 0.430590 0.245810
vt 0.435370 0.269280
vn -0.0000 0.0000 -1.0000
vn -0.0000 0.0000 1.0000
s off
f 1/1/1 2/2/1 3/3/1
f 2/2/1 1/1/1 4/4/1
f 4/4/1 5/5/1 2/2/1
f 6/6/1 3/3/1 7/7/1
f 8/8/1 3/3/1 6/6/1
f 9/9/1 3/3/1 8/8/1
f 10/10/1 3/3/1 9/9/1
f 10/10/1 1/1/1 3/3/1
f 11/11/1 8/8/1 6/6/1
f 12/12/1 11/11/1 13/13/1
f 12/12/1 14/14/1 11/11/1
f 11/11/1 14/14/1 8/8/1
f 10/10/1 9/9/1 15/15/1
f 16/16/2 17/17/2 18/18/2
f 16/16/2 18/18/2 19/19/2
f 20/20/2 21/21/2 19/19/2
f 21/21/2 16/16/2 19/19/2
f 20/20/2 22/22/2 23/23/2
f 20/20/2 23/23/2 21/21/2
f 23/23/2 24/24/2 21/21/2
f 25/25/2 26/26/2 24/24/2
f 26/26/2 27/27/2 24/24/2
f 24/24/2 27/27/2 21/21/2
f 25/25/2 28/28/2 26/26/2
f 28/28/2 29/29/2 26/26/2
f 27/27/2 30/30/2 21/21/2
