# Blender v3.0.1 OBJ File: 'rockerfeller_plaza.blend'
# www.blender.org
o geometryt000010000010000110010110000110000110100000100110st104
v 617.891052 -149.251709 658.602356
v 617.727844 -149.555710 680.945801
v 617.891052 -149.251709 680.945801
v 618.561523 -148.003204 658.602356
v 617.727844 -149.555710 655.845825
v 618.561523 -148.003204 680.945801
v 618.658447 -147.822708 680.945801
v 618.658447 -147.822708 658.602356
v 619.328857 -146.574203 658.602356
v 619.328857 -146.574203 680.945801
v 619.425720 -146.393707 680.945801
v 619.425720 -146.393707 658.602356
v 620.766724 -143.896606 658.602356
v 620.766724 -143.896606 680.945801
v 620.863647 -143.716202 680.945801
v 620.863647 -143.716202 658.602356
v 622.204529 -141.219101 658.602356
v 622.204529 -141.219101 680.945801
v 622.301453 -141.038605 680.945801
v 622.301453 -141.038605 658.602356
v 623.642334 -138.541504 658.602356
v 627.265930 -131.793610 655.845825
v 623.642334 -138.541504 680.945801
v 623.739258 -138.361115 680.945801
v 623.739258 -138.361115 658.602356
v 625.080139 -135.864014 658.602356
v 625.080139 -135.864014 680.945801
v 625.177002 -135.683502 680.945801
v 625.177002 -135.683502 658.602356
v 626.518066 -133.186401 658.602356
v 626.518066 -133.186401 680.945801
v 626.614929 -133.006012 680.945801
v 626.614929 -133.006012 658.602356
v 627.955811 -130.508911 658.602356
v 627.955811 -130.508911 680.945801
v 628.052734 -130.328415 680.945801
v 628.052734 -130.328415 658.602356
v 628.723206 -129.079910 658.602356
v 628.723206 -129.079910 680.945801
v 628.820129 -128.899414 680.945801
v 628.820129 -128.899414 658.602356
v 629.653809 -127.346916 655.845825
v 629.490540 -127.650917 658.602356
v 629.490540 -127.650917 680.945801
v 629.653809 -127.346916 680.945801
v 624.394653 -153.134506 658.602356
v 624.815552 -153.360413 680.945801
v 624.394653 -153.134506 680.945801
v 618.151306 -149.783112 658.602356
v 624.815552 -153.360413 655.845825
v 618.151306 -149.783112 680.945801
v 617.730408 -149.557114 680.945801
v 617.730408 -149.557114 655.845825
v 631.712341 -163.228012 658.602356
v 632.440063 -163.619003 680.945801
v 631.712341 -163.228012 680.945801
v 622.973328 -158.533112 658.602356
v 632.440063 -163.619003 655.845825
v 622.973328 -158.533112 680.945801
v 622.245605 -158.142105 680.945801
v 622.245605 -158.142105 655.845825
v 622.524231 -157.623703 658.602356
v 622.245605 -158.142105 680.945801
v 622.524231 -157.623703 680.945801
v 624.815552 -153.360413 655.845825
v 624.536926 -153.878815 658.602356
v 622.245605 -158.142105 655.845825
v 624.536926 -153.878815 680.945801
v 624.815552 -153.360413 680.945801
v 629.960144 -127.506317 658.602356
v 629.656250 -127.342918 680.945801
v 629.960144 -127.506317 680.945801
v 631.208313 -128.177414 658.602356
v 629.656250 -127.342918 655.845825
v 631.208313 -128.177414 680.945801
v 631.451233 -128.307907 680.945801
v 631.451233 -128.307907 658.602356
v 632.699463 -128.979004 658.602356
v 632.699463 -128.979004 680.945801
v 632.942322 -129.109604 680.945801
v 632.942322 -129.109604 658.602356
v 635.438843 -130.451706 658.602356
v 637.061829 -131.324310 655.845825
v 635.438843 -130.451706 680.945801
v 635.681763 -130.582306 680.945801
v 635.681763 -130.582306 658.602356
v 638.178101 -131.924408 658.602356
v 638.178101 -131.924408 680.945801
v 638.421021 -132.055008 680.945801
v 638.421021 -132.055008 658.602356
v 640.917542 -133.397110 658.602356
v 640.917542 -133.397110 680.945801
v 641.160400 -133.527603 680.945801
v 641.160400 -133.527603 658.602356
v 643.656860 -134.869812 658.602356
v 646.942932 -136.636414 655.845825
v 643.656860 -134.869812 680.945801
v 643.899719 -135.000305 680.945801
v 643.899719 -135.000305 658.602356
v 645.147949 -135.671402 658.602356
v 645.147949 -135.671402 680.945801
v 645.390869 -135.802002 680.945801
v 645.390869 -135.802002 658.602356
v 646.639038 -136.473007 658.602356
v 646.639038 -136.473007 680.945801
v 646.942932 -136.636414 680.945801
v 646.778625 -136.942108 658.602356
v 646.941895 -136.638214 680.945801
v 646.778625 -136.942108 680.945801
v 646.107727 -138.190414 658.602356
v 646.941895 -136.638214 655.845825
v 646.107727 -138.190414 680.945801
v 646.038940 -138.318314 680.945801
v 646.038940 -138.318314 658.602356
v 645.367920 -139.566605 658.602356
v 645.367920 -139.566605 680.945801
v 645.299194 -139.694504 680.945801
v 645.299194 -139.694504 658.602356
v 643.957336 -142.191101 658.602356
v 643.957336 -142.191101 680.945801
v 643.888550 -142.319107 680.945801
v 643.888550 -142.319107 658.602356
v 642.546631 -144.815613 658.602356
v 642.546631 -144.815613 680.945801
v 642.477905 -144.943604 680.945801
v 642.477905 -144.943604 658.602356
v 641.136047 -147.440109 658.602356
v 641.136047 -147.440109 680.945801
v 641.067261 -147.568115 680.945801
v 641.067261 -147.568115 658.602356
v 639.725342 -150.064606 658.602356
v 639.725342 -150.064606 680.945801
v 639.656616 -150.192612 680.945801
v 639.656616 -150.192612 658.602356
v 638.314697 -152.689209 658.602356
v 632.440063 -163.619003 655.845825
v 638.314697 -152.689209 680.945801
v 638.245911 -152.817108 680.945801
v 638.245911 -152.817108 658.602356
v 636.904053 -155.313705 658.602356
v 636.904053 -155.313705 680.945801
v 636.835327 -155.441605 680.945801
v 636.835327 -155.441605 658.602356
v 635.493408 -157.938202 658.602356
v 635.493408 -157.938202 680.945801
v 635.424622 -158.066101 680.945801
v 635.424622 -158.066101 658.602356
v 634.082764 -160.562714 658.602356
v 634.082764 -160.562714 680.945801
v 634.014038 -160.690613 680.945801
v 634.014038 -160.690613 658.602356
v 633.343018 -161.938904 658.602356
v 633.343018 -161.938904 680.945801
v 633.274353 -162.066803 680.945801
v 633.274353 -162.066803 658.602356
v 632.603333 -163.315109 658.602356
v 632.603333 -163.315109 680.945801
v 632.440063 -163.619003 680.945801
vt 26.937460 2.986490
vt 27.311239 27.193930
vt 26.937460 27.193930
vt 25.402060 2.986490
vt 27.311239 0.000000
vt 25.180149 2.986490
vt 23.644739 2.986490
vt 23.422831 2.986490
vt 20.352020 2.986490
vt 20.352020 27.193930
vt 20.130110 27.193930
vt 20.130110 2.986490
vt 17.059299 2.986490
vt 16.837391 2.986490
vt 13.766580 2.986490
vt 5.468230 0.000000
vt 13.544670 2.986490
vt 10.473860 2.986490
vt 10.473860 27.193930
vt 10.251950 27.193930
vt 10.251950 2.986490
vt 7.181130 2.986490
vt 7.181130 27.193930
vt 6.959220 27.193930
vt 6.959220 2.986490
vt 3.888410 2.986490
vt 3.666500 2.986490
vt 1.909190 2.986490
vt 0.000000 0.000000
vt 2.131100 2.986490
vt 0.373780 27.193930
vt 0.000000 27.193930
vt 0.373780 2.986490
vt 8.194601 2.986490
vt 8.712181 27.193930
vt 8.194601 27.193930
vt 0.517580 2.986490
vt 8.712181 0.000000
vt 0.000000 27.193930
vt 0.000000 0.000000
vt 11.642850 2.986490
vt 12.537870 27.193930
vt 11.642850 27.193930
vt 0.895010 2.986490
vt 12.537870 0.000000
vt 0.895010 27.193930
vt 0.000000 27.193930
vt 0.000000 0.000000
vt 5.243790 2.986490
vt 5.881370 27.193930
vt 5.243790 27.193930
vt 0.000000 0.000000
vt 0.637570 2.986490
vt 5.881370 0.000000
vt 0.637570 27.193930
vt 0.000000 27.193930
vt 20.890030 2.986490
vt 21.263809 27.193930
vt 20.890030 27.193930
vt 19.354630 2.986490
vt 21.263809 0.000000
vt 19.354630 27.193930
vt 19.055861 27.193930
vt 19.055861 2.986490
vt 17.520451 2.986490
vt 17.520451 27.193930
vt 17.221680 27.193930
vt 17.221680 2.986490
vt 14.150870 2.986490
vt 12.154390 0.000000
vt 14.150870 27.193930
vt 13.852100 27.193930
vt 13.852100 2.986490
vt 10.781290 2.986490
vt 10.781290 27.193930
vt 10.482520 27.193930
vt 10.482520 2.986490
vt 7.411710 2.986490
vt 7.411710 27.193930
vt 7.112940 27.193930
vt 7.112940 2.986490
vt 4.042130 2.986490
vt 0.000000 0.000000
vt 4.042130 27.193930
vt 3.743360 27.193930
vt 3.743360 2.986490
vt 2.207960 2.986490
vt 2.207960 27.193930
vt 1.909190 27.193930
vt 1.909190 2.986490
vt 0.373780 2.986490
vt 0.373780 27.193930
vt 0.000000 27.193930
vt 32.812729 2.986490
vt 33.186508 27.193930
vt 32.812729 27.193930
vt 31.277321 2.986490
vt 33.186508 0.000000
vt 31.277321 27.193930
vt 31.119980 27.193930
vt 31.119980 2.986490
vt 29.584570 27.193930
vt 29.427219 27.193930
vt 29.584570 2.986490
vt 29.427219 2.986490
vt 26.356409 2.986490
vt 26.356409 27.193930
vt 26.199060 27.193930
vt 26.199060 2.986490
vt 23.128250 2.986490
vt 22.970900 2.986490
vt 19.900089 2.986490
vt 19.900089 27.193930
vt 19.742741 27.193930
vt 19.742741 2.986490
vt 16.671930 2.986490
vt 13.443770 2.986490
vt 0.000000 0.000000
vt 16.514580 2.986490
vt 13.443770 27.193930
vt 13.286420 27.193930
vt 13.286420 2.986490
vt 10.215610 2.986490
vt 10.215610 27.193930
vt 10.058260 27.193930
vt 10.058260 2.986490
vt 6.987450 2.986490
vt 6.987450 27.193930
vt 6.830100 27.193930
vt 6.830100 2.986490
vt 3.759290 2.986490
vt 3.759290 27.193930
vt 3.601940 27.193930
vt 3.601940 2.986490
vt 2.066540 2.986490
vt 2.066540 27.193930
vt 1.909190 27.193930
vt 1.909190 2.986490
vt 0.373780 2.986490
vt 0.373780 27.193930
vt 0.000000 27.193930
vt 25.402060 27.193930
vt 25.180149 27.193930
vt 23.644739 27.193930
vt 23.422831 27.193930
vt 17.059299 27.193930
vt 16.837391 27.193930
vt 13.766580 27.193930
vt 13.544670 27.193930
vt 3.888410 27.193930
vt 3.666500 27.193930
vt 2.131100 27.193930
vt 1.909190 27.193930
vt 0.517580 27.193930
vt 23.128250 27.193930
vt 22.970900 27.193930
vt 16.671930 27.193930
vt 16.514580 27.193930
vn -0.8809 0.4733 -0.0000
vn -0.8810 0.4731 -0.0000
vn -0.8811 0.4729 0.0000
vn -0.8808 0.4735 0.0000
vn -0.8810 0.4731 0.0004
vn -0.8810 0.4731 -0.0001
vn -0.8811 0.4730 0.0000
vn -0.8809 0.4733 -0.0004
vn -0.8810 0.4732 0.0004
vn -0.8809 0.4732 0.0000
vn -0.8812 0.4727 -0.0002
vn -0.8810 0.4732 0.0000
vn -0.8810 0.4730 0.0000
vn -0.8808 0.4735 -0.0002
vn -0.4729 -0.8811 0.0000
vn -0.4731 -0.8810 0.0000
vn -0.4730 -0.8811 -0.0000
vn -0.4733 -0.8809 0.0000
vn -0.4732 -0.8809 0.0000
vn -0.4734 -0.8809 0.0000
vn -0.8808 0.4734 -0.0000
vn 0.4736 0.8807 0.0000
vn 0.4736 0.8808 0.0000
vn 0.4735 0.8808 0.0000
vn 0.4732 0.8809 0.0000
vn 0.4735 0.8808 0.0001
vn 0.4737 0.8807 0.0000
vn 0.4736 0.8807 -0.0001
vn 0.4734 0.8809 0.0000
vn 0.8810 -0.4731 0.0000
vn 0.8808 -0.4734 -0.0000
vn 0.8809 -0.4734 0.0000
vn 0.8809 -0.4732 0.0000
vn 0.8804 -0.4742 0.0000
vn 0.8810 -0.4731 0.0002
vn 0.8809 -0.4734 0.0003
vn 0.8808 -0.4735 -0.0001
vn 0.8808 -0.4735 -0.0000
vn 0.8811 -0.4729 0.0000
vn 0.8814 -0.4724 0.0009
vn 0.8808 -0.4735 0.0001
vn 0.8806 -0.4739 -0.0000
vn 0.8807 -0.4737 0.0000
vn 0.8814 -0.4723 0.0000
vn 0.8809 -0.4734 -0.0002
vn 0.8809 -0.4733 0.0000
vn -0.8808 0.4736 0.0000
vn -0.8813 0.4725 0.0000
vn -0.8809 0.4733 0.0001
vn -0.8808 0.4735 -0.0003
vn -0.8809 0.4734 0.0000
vn -0.8813 0.4726 0.0000
vn -0.8812 0.4728 0.0000
vn 0.4737 0.8807 0.0001
vn 0.8806 -0.4738 -0.0002
vn 0.8806 -0.4739 -0.0002
vn 0.8802 -0.4746 -0.0016
vn 0.8805 -0.4741 -0.0003
vn 0.8800 -0.4749 -0.0024
vn 0.8816 -0.4720 0.0003
vn 0.8813 -0.4725 0.0003
vn 0.8807 -0.4737 -0.0003
s off
f 1/1/1 2/2/1 3/3/1
f 4/4/2 5/5/2 1/1/2
f 2/2/3 1/1/3 5/5/3
f 4/4/4 8/6/4 5/5/4
f 5/5/5 9/7/5 12/8/5
f 5/5/6 12/8/6 13/9/6
f 14/10/7 15/11/7 13/9/7
f 15/11/1 16/12/1 13/9/1
f 5/5/8 13/9/8 16/12/8
f 5/5/2 16/12/2 17/13/2
f 20/14/2 21/15/2 22/16/2
f 5/5/2 20/14/2 22/16/2
f 21/15/9 25/17/9 22/16/9
f 25/17/2 26/18/2 22/16/2
f 27/19/10 28/20/10 26/18/10
f 28/20/2 29/21/2 26/18/2
f 26/18/11 29/21/11 22/16/11
f 29/21/12 30/22/12 22/16/12
f 31/23/13 32/24/13 30/22/13
f 32/24/13 33/25/13 30/22/13
f 30/22/10 33/25/10 22/16/10
f 33/25/2 34/26/2 22/16/2
f 34/26/14 37/27/14 22/16/14
f 41/28/7 42/29/7 38/30/7
f 38/30/2 42/29/2 22/16/2
f 44/31/7 45/32/7 43/33/7
f 45/32/3 42/29/3 43/33/3
f 46/34/15 47/35/15 48/36/15
f 49/37/15 50/38/15 46/34/15
f 47/35/15 46/34/15 50/38/15
f 52/39/16 53/40/16 49/37/16
f 53/40/17 50/38/17 49/37/17
f 54/41/18 55/42/18 56/43/18
f 57/44/19 58/45/19 54/41/19
f 55/42/19 54/41/19 58/45/19
f 59/46/20 60/47/20 57/44/20
f 60/47/18 61/48/18 57/44/18
f 61/48/18 58/45/18 57/44/18
f 62/49/4 63/50/4 64/51/4
f 65/52/21 62/49/21 66/53/21
f 65/52/21 67/54/21 62/49/21
f 68/55/4 69/56/4 66/53/4
f 70/57/22 71/58/22 72/59/22
f 73/60/23 74/61/23 70/57/23
f 71/58/24 70/57/24 74/61/24
f 75/62/25 76/63/25 73/60/25
f 76/63/25 77/64/25 73/60/25
f 73/60/26 77/64/26 74/61/26
f 77/64/24 78/65/24 74/61/24
f 79/66/24 80/67/24 78/65/24
f 80/67/27 81/68/27 78/65/27
f 74/61/28 78/65/28 81/68/28
f 81/68/24 82/69/24 83/70/24
f 74/61/24 81/68/24 83/70/24
f 84/71/24 85/72/24 82/69/24
f 85/72/24 86/73/24 82/69/24
f 82/69/22 86/73/22 83/70/22
f 86/73/24 87/74/24 83/70/24
f 88/75/27 89/76/27 87/74/27
f 89/76/24 90/77/24 87/74/24
f 87/74/24 90/77/24 83/70/24
f 90/77/24 91/78/24 83/70/24
f 92/79/29 93/80/29 91/78/29
f 93/80/25 94/81/25 91/78/25
f 95/82/24 96/83/24 94/81/24
f 94/81/24 96/83/24 83/70/24
f 97/84/25 98/85/25 95/82/25
f 98/85/24 99/86/24 95/82/24
f 100/87/23 96/83/23 99/86/23
f 101/88/24 102/89/24 100/87/24
f 102/89/24 103/90/24 100/87/24
f 103/90/24 96/83/24 100/87/24
f 104/91/24 96/83/24 103/90/24
f 105/92/24 106/93/24 104/91/24
f 106/93/22 96/83/22 104/91/22
f 107/94/30 108/95/30 109/96/30
f 110/97/31 111/98/31 107/94/31
f 108/95/32 107/94/32 111/98/32
f 112/99/33 113/100/33 110/97/33
f 113/100/34 114/101/34 110/97/34
f 114/101/35 111/98/35 110/97/35
f 116/102/33 117/103/33 115/104/33
f 117/103/33 118/105/33 115/104/33
f 115/104/30 118/105/30 111/98/30
f 118/105/31 119/106/31 111/98/31
f 120/107/31 121/108/31 119/106/31
f 121/108/31 122/109/31 119/106/31
f 119/106/36 122/109/36 111/98/36
f 122/109/37 123/110/37 111/98/37
f 126/111/38 127/112/38 111/98/38
f 128/113/39 129/114/39 127/112/39
f 129/114/31 130/115/31 127/112/31
f 127/112/40 130/115/40 111/98/40
f 130/115/37 131/116/37 111/98/37
f 135/117/41 136/118/41 134/119/41
f 134/119/31 136/118/31 111/98/31
f 137/120/42 138/121/42 135/117/42
f 138/121/33 139/122/33 135/117/33
f 140/123/31 136/118/31 139/122/31
f 141/124/43 142/125/43 140/123/43
f 142/125/33 143/126/33 140/123/33
f 144/127/31 136/118/31 143/126/31
f 145/128/34 146/129/34 144/127/34
f 146/129/33 147/130/33 144/127/33
f 148/131/31 136/118/31 147/130/31
f 149/132/38 150/133/38 148/131/38
f 150/133/38 151/134/38 148/131/38
f 152/135/41 136/118/41 151/134/41
f 153/136/44 154/137/44 152/135/44
f 154/137/43 155/138/43 152/135/43
f 155/138/45 136/118/45 152/135/45
f 156/139/31 136/118/31 155/138/31
f 157/140/46 158/141/46 156/139/46
f 158/141/46 136/118/46 156/139/46
s 1
f 6/142/12 7/143/12 4/4/12
f 7/143/12 8/6/4 4/4/12
f 8/6/2 9/7/2 5/5/2
f 10/144/47 11/145/12 9/7/48
f 11/145/12 12/8/48 9/7/48
f 18/146/47 19/147/12 17/13/49
f 19/147/12 20/14/12 17/13/49
f 5/5/50 17/13/49 20/14/12
f 23/148/2 24/149/51 21/15/52
f 24/149/51 25/17/13 21/15/52
f 35/150/12 36/151/12 34/26/53
f 36/151/12 37/27/2 34/26/53
f 37/27/2 38/30/2 22/16/2
f 39/152/12 40/153/4 38/30/12
f 40/153/4 41/28/12 38/30/12
f 43/33/2 42/29/2 41/28/2
f 51/154/16 52/39/16 49/37/16
f 63/50/51 62/49/51 67/54/51
f 69/56/51 65/52/51 66/53/51
f 91/78/28 94/81/28 83/70/28
f 99/86/54 96/83/54 95/82/54
f 114/101/37 115/104/37 111/98/37
f 124/155/38 125/156/38 123/110/55
f 125/156/38 126/111/38 123/110/55
f 123/110/55 126/111/38 111/98/56
f 132/157/31 133/158/32 131/116/57
f 133/158/32 134/119/58 131/116/57
f 131/116/57 134/119/58 111/98/59
f 139/122/60 136/118/60 135/117/60
f 143/126/61 136/118/61 140/123/61
f 147/130/62 136/118/62 144/127/62
f 151/134/37 136/118/37 148/131/37
