# Blender v3.0.1 OBJ File: 'rockerfeller_plaza.blend'
# www.blender.org
o geometryt000010000010000110010110000110000110100000110000st90
v 809.141052 -247.639435 614.271362
v 809.141052 -247.639435 609.271362
v 809.445435 -247.801941 609.271362
v 809.445435 -247.801941 614.271362
v 815.162781 -250.854538 614.271362
v 815.162781 -250.854538 609.271362
v 817.177490 -251.930145 609.271362
v 817.177490 -251.930145 614.271362
v 820.036133 -253.456436 614.271362
v 820.036133 -253.456436 609.271362
v 822.050842 -254.532135 609.271362
v 822.050842 -254.532135 614.271362
v 823.480164 -255.295242 614.271362
v 823.480164 -255.295242 609.271362
v 825.494873 -256.370941 609.271362
v 825.494873 -256.370941 614.271362
v 829.782898 -258.660339 614.271362
v 829.782898 -258.660339 609.271362
v 831.797546 -259.735931 609.271362
v 831.797546 -259.735931 614.271362
v 833.226868 -260.499146 614.271362
v 833.226868 -260.499146 609.271362
v 835.241577 -261.574738 609.271362
v 835.241577 -261.574738 614.271362
v 838.100220 -263.101044 614.271362
v 838.100220 -263.101044 609.271362
v 840.114929 -264.176636 609.271362
v 840.114929 -264.176636 614.271362
v 845.832336 -267.229248 614.271362
v 845.832336 -267.229248 609.271362
v 846.136658 -267.391754 609.271362
v 846.136658 -267.391754 614.271362
v 809.304443 -247.335632 614.271362
v 809.304443 -247.335632 609.271362
v 809.141052 -247.639435 609.271362
v 809.141052 -247.639435 614.271362
v 810.823975 -244.509338 614.271362
v 810.823975 -244.509338 609.271362
v 810.071716 -245.908432 609.271362
v 810.071716 -245.908432 614.271362
v 812.343445 -241.683136 614.271362
v 812.343445 -241.683136 609.271362
v 811.591248 -243.082245 609.271362
v 811.591248 -243.082245 614.271362
v 813.862976 -238.856934 614.271362
v 813.862976 -238.856934 609.271362
v 813.110718 -240.256042 609.271362
v 813.110718 -240.256042 614.271362
v 815.382507 -236.030746 614.271362
v 815.382507 -236.030746 609.271362
v 814.847900 -237.024933 609.271362
v 814.630249 -237.429840 609.271362
v 814.630249 -237.429840 614.271362
v 816.313110 -234.299744 614.271362
v 816.313110 -234.299744 609.271362
v 816.149780 -234.603546 609.271362
v 816.149780 -234.603546 614.271362
v 816.617493 -234.462143 614.271362
v 816.617493 -234.462143 609.271362
v 816.313110 -234.299744 609.271362
v 816.313110 -234.299744 614.271362
v 824.351013 -238.590240 614.271362
v 824.351013 -238.590240 609.271362
v 822.335205 -237.514145 609.271362
v 822.335205 -237.514145 614.271362
v 829.225708 -241.192245 614.271362
v 829.225708 -241.192245 609.271362
v 827.209839 -240.116241 609.271362
v 827.209839 -240.116241 614.271362
v 832.671021 -243.031235 614.271362
v 832.671021 -243.031235 609.271362
v 830.655151 -241.955246 609.271362
v 830.655151 -241.955246 614.271362
v 838.975098 -246.396332 614.271362
v 838.975098 -246.396332 609.271362
v 836.959229 -245.320236 609.271362
v 836.959229 -245.320236 614.271362
v 842.420410 -248.235336 614.271362
v 842.420410 -248.235336 609.271362
v 840.404541 -247.159332 609.271362
v 840.404541 -247.159332 614.271362
v 847.295105 -250.837341 614.271362
v 847.295105 -250.837341 609.271362
v 845.279236 -249.761337 609.271362
v 845.279236 -249.761337 614.271362
v 853.317139 -254.051834 614.271362
v 853.317139 -254.051834 609.271362
v 853.012756 -253.889343 609.271362
v 853.012756 -253.889343 614.271362
v 820.750854 -230.933746 514.271362
v 820.750854 -230.933746 434.271362
v 820.516785 -231.364044 434.271362
v 820.516785 -231.364044 514.271362
v 824.855774 -223.386444 514.271362
v 824.855774 -223.386444 434.271362
v 824.621704 -223.816742 434.271362
v 824.621704 -223.816742 514.271362
v 825.159485 -223.550140 514.271362
v 825.159485 -223.550140 427.893860
v 824.855774 -223.386444 434.271362
v 824.855774 -223.386444 514.271362
v 826.585815 -224.318939 427.893860
v 824.855774 -223.386444 424.271362
v 826.585815 -224.318939 514.271362
v 826.862732 -224.468140 514.271362
v 826.862732 -224.468140 427.893860
v 828.289062 -225.236938 427.893860
v 828.289062 -225.236938 514.271362
v 828.565918 -225.386139 514.271362
v 828.565918 -225.386139 427.893860
v 835.697571 -229.230042 427.893860
v 835.697571 -229.230042 514.271362
v 835.974487 -229.379333 514.271362
v 835.974487 -229.379333 427.893860
v 842.140015 -232.702438 424.271362
v 837.400818 -230.148041 427.893860
v 837.400818 -230.148041 514.271362
v 837.677734 -230.297333 514.271362
v 837.677734 -230.297333 427.893860
v 844.809326 -234.141235 427.893860
v 844.809326 -234.141235 514.271362
v 845.086243 -234.290436 514.271362
v 845.086243 -234.290436 427.893860
v 848.027344 -235.875641 424.271362
v 846.512573 -235.059235 427.893860
v 846.512573 -235.059235 514.271362
v 846.789490 -235.208435 514.271362
v 846.789490 -235.208435 427.893860
v 853.921143 -239.052338 427.893860
v 853.921143 -239.052338 514.271362
v 854.198059 -239.201645 514.271362
v 854.198059 -239.201645 427.893860
v 853.494934 -238.822632 424.271362
v 855.624329 -239.970337 427.893860
v 855.624329 -239.970337 514.271362
v 855.901245 -240.119644 514.271362
v 855.901245 -240.119644 427.893860
v 857.631226 -241.052032 424.271362
v 857.327576 -240.888336 427.893860
v 857.327576 -240.888336 514.271362
v 857.631226 -241.052032 514.271362
v 846.136658 -267.391754 614.271362
v 846.136658 -267.391754 609.271362
v 846.300171 -267.087952 609.271362
v 846.300171 -267.087952 614.271362
v 847.068176 -265.661224 614.271362
v 847.068176 -265.661224 609.271362
v 847.821533 -264.261536 609.271362
v 847.821533 -264.261536 614.271362
v 848.589478 -262.834839 614.271362
v 848.589478 -262.834839 609.271362
v 849.342834 -261.435150 609.271362
v 849.342834 -261.435150 614.271362
v 850.110840 -260.008453 614.271362
v 850.110840 -260.008453 609.271362
v 850.864258 -258.608734 609.271362
v 850.864258 -258.608734 614.271362
v 851.632263 -257.182037 614.271362
v 851.632263 -257.182037 609.271362
v 852.348755 -255.850937 609.271362
v 852.385620 -255.782333 609.271362
v 852.385620 -255.782333 614.271362
v 853.153564 -254.355637 614.271362
v 853.153564 -254.355637 609.271362
v 853.317139 -254.051834 609.271362
v 853.317139 -254.051834 614.271362
v 857.387573 -241.499435 427.893860
v 857.622925 -241.067444 514.271362
v 857.387573 -241.499435 514.271362
v 853.275574 -249.045242 424.271362
v 853.510925 -248.613235 427.893860
v 857.622925 -241.067444 424.271362
v 853.510925 -248.613235 514.271362
v 853.275574 -249.045242 514.271362
vt 0.000000 5.847950
vt 0.000000 0.000000
vt 0.346390 0.000000
vt 0.346390 5.847950
vt 6.853670 5.847950
vt 6.853670 0.000000
vt 9.146680 0.000000
vt 9.146680 5.847950
vt 12.400320 5.847950
vt 12.400320 0.000000
vt 14.693330 0.000000
vt 14.693330 5.847950
vt 16.320150 5.847950
vt 16.320150 0.000000
vt 18.613159 0.000000
vt 18.613159 5.847950
vt 23.493620 5.847950
vt 23.493620 0.000000
vt 25.786631 0.000000
vt 25.786631 5.847950
vt 27.413450 5.847950
vt 27.413450 0.000000
vt 29.706461 0.000000
vt 29.706461 5.847950
vt 32.960098 5.847950
vt 32.960098 0.000000
vt 35.253109 0.000000
vt 35.253109 5.847950
vt 41.760399 5.847950
vt 41.760399 0.000000
vt 42.106781 0.000000
vt 42.106781 5.847950
vt 14.859990 5.847950
vt 14.859990 0.000000
vt 15.206380 0.000000
vt 15.206380 5.847950
vt 11.638300 5.847950
vt 11.638300 0.000000
vt 13.233170 0.000000
vt 13.233170 5.847950
vt 8.416601 5.847950
vt 8.416601 0.000000
vt 10.011480 0.000000
vt 10.011480 5.847950
vt 5.194900 5.847950
vt 5.194900 0.000000
vt 6.789780 0.000000
vt 6.789780 5.847950
vt 1.973210 5.847950
vt 1.973210 0.000000
vt 3.106580 0.000000
vt 3.568080 0.000000
vt 3.568080 5.847950
vt 0.000000 5.847950
vt 0.000000 0.000000
vt 0.346390 0.000000
vt 0.346390 5.847950
vt 41.767769 5.847950
vt 41.767769 0.000000
vt 42.114151 0.000000
vt 42.114151 5.847950
vt 32.966240 5.847950
vt 32.966240 0.000000
vt 35.260479 0.000000
vt 35.260479 5.847950
vt 27.418369 5.847950
vt 27.418369 0.000000
vt 29.712601 0.000000
vt 29.712601 5.847950
vt 23.497311 5.847950
vt 23.497311 0.000000
vt 25.791540 0.000000
vt 25.791540 5.847950
vt 16.322611 5.847950
vt 16.322611 0.000000
vt 18.616840 0.000000
vt 18.616840 5.847950
vt 12.401550 5.847950
vt 12.401550 0.000000
vt 14.695790 0.000000
vt 14.695790 5.847950
vt 6.853670 5.847950
vt 6.853670 0.000000
vt 9.147911 0.000000
vt 9.147911 5.847950
vt 0.000000 5.847950
vt 0.000000 0.000000
vt 0.346390 0.000000
vt 0.346390 5.847950
vt 8.625921 93.567261
vt 8.625921 0.000000
vt 9.117740 0.000000
vt 9.117740 93.567261
vt 0.000000 93.567261
vt 0.000000 0.000000
vt 0.491820 0.000000
vt 0.491820 93.567261
vt 37.036289 105.263199
vt 37.036289 4.236870
vt 37.382679 11.695910
vt 37.382679 105.263199
vt 35.409470 4.236870
vt 37.382679 0.000000
vt 35.409470 105.263199
vt 35.093639 105.263199
vt 35.093639 4.236870
vt 33.466820 4.236870
vt 33.466820 105.263199
vt 33.150990 105.263199
vt 33.150990 4.236870
vt 25.016880 4.236870
vt 25.016880 105.263199
vt 24.701050 105.263199
vt 24.701050 4.236870
vt 23.074230 4.236870
vt 17.668840 0.000000
vt 23.074230 105.263199
vt 22.758390 105.263199
vt 22.758390 4.236870
vt 14.624290 4.236870
vt 14.624290 105.263199
vt 14.308450 105.263199
vt 14.308450 4.236870
vt 10.953950 0.000000
vt 12.681630 4.236870
vt 12.681630 105.263199
vt 12.365800 105.263199
vt 12.365800 4.236870
vt 4.231690 4.236870
vt 4.231690 105.263199
vt 3.915860 105.263199
vt 3.915860 4.236870
vt 4.717760 0.000000
vt 2.289040 4.236870
vt 2.289040 105.263199
vt 1.973210 105.263199
vt 1.973210 4.236870
vt 0.000000 0.000000
vt 0.346390 4.236870
vt 0.346390 105.263199
vt 0.000000 105.263199
vt 0.000000 5.847950
vt 0.000000 0.000000
vt 0.346390 0.000000
vt 0.346390 5.847950
vt 1.973210 5.847950
vt 1.973210 0.000000
vt 3.569110 0.000000
vt 3.569110 5.847950
vt 5.195930 5.847950
vt 5.195930 0.000000
vt 6.791840 0.000000
vt 6.791840 5.847950
vt 11.641380 5.847950
vt 13.159130 0.000000
vt 13.237290 5.847950
vt 14.864110 5.847950
vt 14.864110 0.000000
vt 15.210490 0.000000
vt 15.210490 5.847950
vt 8.628001 4.236870
vt 9.121891 105.263199
vt 8.628001 105.263199
vt 0.000000 0.000000
vt 0.493890 4.236870
vt 9.121891 0.000000
vt 0.493890 105.263199
vt 0.000000 105.263199
vt 8.418661 5.847950
vt 8.418661 0.000000
vt 10.014560 0.000000
vt 10.014560 5.847950
vt 11.641380 0.000000
vt 13.237290 0.000000
vn -0.4711 -0.8821 0.0000
vn -0.4710 -0.8822 0.0000
vn -0.4710 -0.8821 0.0000
vn -0.4709 -0.8822 0.0000
vn -0.8807 0.4736 0.0000
vn -0.8808 0.4736 0.0000
vn -0.8808 0.4735 0.0000
vn -0.8809 0.4733 0.0000
vn -0.8808 0.4734 0.0000
vn 0.4708 0.8822 0.0000
vn 0.4706 0.8823 0.0000
vn 0.4710 0.8822 0.0000
vn 0.4709 0.8822 0.0000
vn 0.4710 0.8821 0.0000
vn -0.8783 0.4780 0.0000
vn -0.8785 0.4777 0.0000
vn 0.4743 0.8803 0.0000
vn 0.4745 0.8803 0.0000
vn 0.4744 0.8803 0.0000
vn 0.4745 0.8802 0.0000
vn 0.4743 0.8804 0.0000
vn 0.4747 0.8802 0.0000
vn 0.4745 0.8803 -0.0001
vn 0.4748 0.8801 0.0000
vn 0.4744 0.8803 0.0002
vn 0.4745 0.8802 0.0001
vn 0.4742 0.8804 0.0000
vn 0.4741 0.8805 -0.0000
vn 0.4744 0.8803 -0.0001
vn 0.8806 -0.4739 0.0000
vn 0.8804 -0.4743 0.0000
vn 0.8805 -0.4740 0.0000
vn 0.8781 -0.4784 0.0000
vn 0.8781 -0.4785 0.0000
vn 0.8782 -0.4783 0.0000
vn 0.8782 -0.4784 0.0000
s off
f 1/1/1 2/2/1 3/3/1
f 1/1/2 3/3/2 4/4/2
f 5/5/2 6/6/2 7/7/2
f 5/5/3 7/7/3 8/8/3
f 9/9/3 10/10/3 11/11/3
f 9/9/3 11/11/3 12/12/3
f 13/13/3 14/14/3 15/15/3
f 13/13/3 15/15/3 16/16/3
f 17/17/2 18/18/2 19/19/2
f 17/17/2 19/19/2 20/20/2
f 21/21/4 22/22/4 23/23/4
f 21/21/2 23/23/2 24/24/2
f 25/25/2 26/26/2 27/27/2
f 25/25/4 27/27/4 28/28/4
f 29/29/1 30/30/1 31/31/1
f 29/29/1 31/31/1 32/32/1
f 33/33/5 34/34/5 35/35/5
f 33/33/5 35/35/5 36/36/5
f 37/37/6 38/38/6 39/39/6
f 37/37/6 39/39/6 40/40/6
f 41/41/7 42/42/7 43/43/7
f 41/41/7 43/43/7 44/44/7
f 45/45/5 46/46/5 47/47/5
f 45/45/7 47/47/7 48/48/7
f 49/49/6 50/50/6 51/51/6
f 51/51/8 52/52/8 53/53/8
f 49/49/5 51/51/5 53/53/5
f 54/54/9 55/55/9 56/56/9
f 54/54/9 56/56/9 57/57/9
f 58/58/10 59/59/10 60/60/10
f 58/58/11 60/60/11 61/61/11
f 62/62/12 63/63/12 64/64/12
f 62/62/13 64/64/13 65/65/13
f 66/66/13 67/67/13 68/68/13
f 66/66/13 68/68/13 69/69/13
f 70/70/13 71/71/13 72/72/13
f 70/70/13 72/72/13 73/73/13
f 74/74/13 75/75/13 76/76/13
f 74/74/13 76/76/13 77/77/13
f 78/78/13 79/79/13 80/80/13
f 78/78/13 80/80/13 81/81/13
f 82/82/13 83/83/13 84/84/13
f 82/82/13 84/84/13 85/85/13
f 86/86/10 87/87/10 88/88/10
f 86/86/14 88/88/14 89/89/14
f 90/90/15 91/91/15 92/92/15
f 90/90/16 92/92/16 93/93/16
f 94/94/16 95/95/16 96/96/16
f 94/94/15 96/96/15 97/97/15
f 98/98/17 99/99/17 100/100/17
f 100/100/18 101/101/18 98/98/18
f 102/102/18 103/103/18 99/99/18
f 100/100/19 99/99/19 103/103/19
f 102/102/20 104/104/20 105/105/20
f 102/102/21 105/105/21 106/106/21
f 102/102/22 106/106/22 103/103/22
f 103/103/18 106/106/18 107/107/18
f 107/107/21 108/108/21 109/109/21
f 107/107/20 109/109/20 110/110/20
f 110/110/19 103/103/19 107/107/19
f 111/111/18 103/103/18 110/110/18
f 111/111/20 112/112/20 113/113/20
f 111/111/20 113/113/20 114/114/20
f 116/115/23 115/116/23 114/114/23
f 116/115/20 117/117/20 118/118/20
f 116/115/24 118/118/24 119/119/24
f 119/119/25 115/116/25 116/115/25
f 120/120/18 115/116/18 119/119/18
f 121/121/20 122/122/20 120/120/20
f 122/122/21 123/123/21 120/120/21
f 123/123/26 115/116/26 120/120/26
f 124/124/18 123/123/18 125/125/18
f 124/124/18 115/116/18 123/123/18
f 126/126/21 127/127/21 125/125/21
f 127/127/21 128/128/21 125/125/21
f 124/124/18 125/125/18 128/128/18
f 124/124/18 128/128/18 129/129/18
f 130/130/24 131/131/24 129/129/24
f 131/131/20 132/132/20 129/129/20
f 129/129/27 132/132/27 133/133/27
f 124/124/18 129/129/18 133/133/18
f 132/132/19 134/134/19 133/133/19
f 135/135/28 136/136/28 134/134/28
f 136/136/24 137/137/24 134/134/24
f 137/137/29 138/138/29 134/134/29
f 134/134/19 138/138/19 133/133/19
f 139/139/19 138/138/19 137/137/19
f 140/140/19 141/141/19 139/139/19
f 141/141/18 138/138/18 139/139/18
f 142/142/30 143/143/30 144/144/30
f 142/142/31 144/144/31 145/145/31
f 146/146/30 147/147/30 148/148/30
f 146/146/30 148/148/30 149/149/30
f 150/150/32 151/151/32 152/152/32
f 150/150/30 152/152/30 153/153/30
f 158/154/32 160/155/32 162/156/32
f 163/157/30 164/158/30 165/159/30
f 163/157/31 165/159/31 166/160/31
f 167/161/33 168/162/33 169/163/33
f 170/164/34 167/161/34 171/165/34
f 170/164/34 172/166/34 167/161/34
f 168/162/35 167/161/35 172/166/35
f 173/167/36 174/168/36 171/165/36
f 174/168/35 170/164/35 171/165/35
s 1
f 114/114/23 115/116/18 111/111/18
f 111/111/18 115/116/18 103/103/18
f 154/169/32 155/170/30 156/171/30
f 154/169/32 156/171/30 157/172/32
f 158/154/30 159/173/30 160/155/30
f 160/155/31 161/174/31 162/156/31
