# Blender v3.0.1 OBJ File: 'rockerfeller_plaza.blend'
# www.blender.org
o geometryt000010000010000110010110000110000110100000010100st96
v 835.468384 -232.381989 169.802399
v 835.468384 -232.381989 149.321686
v 837.953430 -233.719986 149.321686
v 837.953430 -233.719986 169.802399
v 836.685547 -229.297287 169.802399
v 836.685547 -229.297287 149.321686
v 835.347900 -231.782486 149.321686
v 835.347900 -231.782486 169.802399
v 838.206726 -226.471191 169.802399
v 838.206726 -226.471191 149.321686
v 836.869019 -228.956390 149.321686
v 836.869019 -228.956390 169.802399
v 840.396729 -222.402390 149.321686
v 838.390198 -226.130188 149.321686
v 838.390198 -226.130188 169.802399
v 840.396729 -222.402390 169.802399
v 841.917908 -219.576279 149.321686
v 840.580200 -222.061478 149.321686
v 840.580200 -222.061478 169.802399
v 841.917908 -219.576279 169.802399
v 844.107910 -215.507492 169.802399
v 844.107910 -215.507492 149.321686
v 842.101440 -219.235291 149.321686
v 842.101440 -219.235291 169.802399
v 845.629089 -212.681381 169.802399
v 845.629089 -212.681381 149.321686
v 844.291443 -215.166580 149.321686
v 844.291443 -215.166580 169.802399
v 847.150208 -209.855286 169.802399
v 847.150208 -209.855286 149.321686
v 845.812622 -212.340485 149.321686
v 845.812622 -212.340485 169.802399
v 838.689331 -233.170883 169.802399
v 838.689331 -233.170883 149.321686
v 840.693787 -229.441986 149.321686
v 840.693787 -229.441986 169.802399
v 841.545654 -228.955582 149.321686
v 842.787903 -229.624985 149.321686
v 842.787903 -229.624985 169.802399
v 841.545654 -228.955582 169.802399
v 843.409180 -229.567886 149.321686
v 844.747009 -227.082779 149.321686
v 844.747009 -227.082779 169.802399
v 843.409180 -229.567886 169.802399
v 845.007141 -226.599487 149.321686
v 846.344910 -224.114380 149.321686
v 846.344910 -224.114380 169.802399
v 845.007141 -226.599487 169.802399
v 846.605103 -223.631088 169.802399
v 846.605103 -223.631088 149.321686
v 849.280701 -218.660889 149.321686
v 849.280701 -218.660889 169.802399
v 849.540894 -218.177582 149.321686
v 850.878723 -215.692490 149.321686
v 850.878723 -215.692490 169.802399
v 849.540894 -218.177582 169.802399
v 851.138794 -215.209183 169.802399
v 851.138794 -215.209183 149.321686
v 852.476624 -212.724091 149.321686
v 852.476624 -212.724091 169.802399
v 851.840637 -211.989578 149.321686
v 848.113342 -209.982086 149.321686
v 848.113342 -209.982086 169.802399
v 851.840637 -211.989578 169.802399
vt 0.000000 5.000000
vt 0.000000 0.000000
vt 0.666670 0.000000
vt 0.666670 5.000000
vt 0.000000 5.000000
vt 0.000000 0.000000
vt 0.666670 0.000000
vt 0.666670 5.000000
vt 0.000000 5.000000
vt 0.000000 0.000000
vt 0.666670 0.000000
vt 0.666670 5.000000
vt 0.000000 0.000000
vt 1.000000 0.000000
vt 1.000000 5.000000
vt 0.000000 5.000000
vt 0.000000 0.000000
vt 0.666670 0.000000
vt 0.666670 5.000000
vt 0.000000 5.000000
vt 0.000000 5.000000
vt 0.000000 0.000000
vt 1.000000 0.000000
vt 1.000000 5.000000
vt 0.000000 5.000000
vt 0.000000 0.000000
vt 0.666670 0.000000
vt 0.666670 5.000000
vt 0.000000 5.000000
vt 0.000000 0.000000
vt 0.666670 0.000000
vt 0.666670 5.000000
vt 0.000000 0.000000
vt 0.333330 0.000000
vt 0.333330 5.000000
vt 0.000000 5.000000
vt 0.000000 0.000000
vt 0.666670 0.000000
vt 0.666670 5.000000
vt 0.000000 5.000000
vt 0.000000 0.000000
vt 0.666670 0.000000
vt 0.666670 5.000000
vt 0.000000 5.000000
vt 0.000000 5.000000
vt 0.000000 0.000000
vt 1.333330 0.000000
vt 1.333330 5.000000
vt 0.000000 0.000000
vt 0.666670 0.000000
vt 0.666670 5.000000
vt 0.000000 5.000000
vt 0.000000 5.000000
vt 0.000000 0.000000
vt 0.666670 0.000000
vt 0.666670 5.000000
vt 0.000000 0.000000
vt 1.000000 0.000000
vt 1.000000 5.000000
vt 0.000000 5.000000
vt 0.000000 5.000000
vt 0.000000 0.000000
vt 1.000000 0.000000
vt 1.000000 5.000000
vn -0.4741 -0.8805 0.0000
vn -0.8806 0.4739 0.0000
vn -0.8805 0.4740 0.0000
vn -0.8806 0.4740 0.0000
vn -0.4744 -0.8803 0.0000
vn 0.8805 -0.4740 0.0000
vn 0.8805 -0.4741 0.0000
vn 0.4742 0.8804 0.0000
vn 0.8808 -0.4735 0.0000
s off
f 1/1/1 2/2/1 3/3/1
f 1/1/1 3/3/1 4/4/1
f 5/5/2 6/6/2 7/7/2
f 5/5/2 7/7/2 8/8/2
f 9/9/3 10/10/3 11/11/3
f 9/9/3 11/11/3 12/12/3
f 13/13/4 14/14/4 15/15/4
f 16/16/3 13/13/3 15/15/3
f 17/17/2 18/18/2 19/19/2
f 20/20/3 17/17/3 19/19/3
f 21/21/4 22/22/4 23/23/4
f 21/21/4 23/23/4 24/24/4
f 25/25/2 26/26/2 27/27/2
f 25/25/2 27/27/2 28/28/2
f 29/29/2 30/30/2 31/31/2
f 29/29/2 31/31/2 32/32/2
f 37/33/5 38/34/5 39/35/5
f 40/36/5 37/33/5 39/35/5
f 41/37/6 42/38/6 43/39/6
f 44/40/7 41/37/7 43/39/7
f 45/41/6 46/42/6 47/43/6
f 48/44/6 45/41/6 47/43/6
f 49/45/6 50/46/6 51/47/6
f 49/45/6 51/47/6 52/48/6
f 53/49/6 54/50/6 55/51/6
f 56/52/7 53/49/7 55/51/7
f 57/53/6 58/54/6 59/55/6
f 57/53/6 59/55/6 60/56/6
f 61/57/8 62/58/8 63/59/8
f 64/60/8 61/57/8 63/59/8
s 1
f 33/61/9 34/62/9 35/63/9
f 33/61/9 35/63/9 36/64/9
