# Blender v3.0.1 OBJ File: 'rockerfeller_plaza.blend'
# www.blender.org
o geometryt000010000010000110010110000110000110100000010100st237_
v 834.534851 -271.739380 150.618713
v 834.838562 -271.902985 169.468506
v 834.534851 -271.739380 169.468506
v 832.967346 -270.894562 150.618713
v 834.838562 -271.902985 147.068512
v 832.967346 -270.894562 169.468506
v 829.854187 -269.216675 169.468506
v 829.854187 -269.216675 150.618713
v 828.286682 -268.371857 150.618713
v 827.982971 -268.208282 147.068512
v 828.286682 -268.371857 169.468506
v 827.982971 -268.208282 169.468506
v 828.561401 -267.135681 147.068512
v 827.982971 -268.208282 147.068512
v 827.982971 -268.208282 169.468506
v 828.561401 -267.135681 169.468506
v 828.724915 -266.831879 150.618713
v 828.561401 -267.135681 169.468506
v 828.724915 -266.831879 169.468506
v 829.569092 -265.264069 150.618713
v 828.561401 -267.135681 147.068512
v 829.569092 -265.264069 169.468506
v 830.863281 -262.860382 169.468506
v 830.863281 -262.860382 150.618713
v 835.083984 -255.020981 150.618713
v 835.083984 -255.020981 169.468506
v 836.378174 -252.617279 169.468506
v 836.378174 -252.617279 150.618713
v 837.385864 -250.745682 147.068512
v 837.222351 -251.049484 150.618713
v 837.222351 -251.049484 169.468506
v 837.385864 -250.745682 169.468506
v 848.945007 -245.652481 150.618713
v 849.108337 -245.348587 169.468506
v 848.945007 -245.652481 169.468506
v 845.573425 -251.926682 150.618713
v 848.033691 -247.348190 147.068512
v 849.108337 -245.348587 147.068512
v 845.573425 -251.926682 169.468506
v 844.616333 -253.707687 169.468506
v 844.616333 -253.707687 150.618713
v 843.773438 -255.276291 150.618713
v 843.773438 -255.276291 169.468506
v 842.816345 -257.057281 169.468506
v 842.816345 -257.057281 150.618713
v 841.130554 -260.194366 150.618713
v 841.130554 -260.194366 169.468506
v 840.173462 -261.975372 169.468506
v 840.173462 -261.975372 150.618713
v 834.838562 -271.902985 147.068512
v 839.330566 -263.543976 150.618713
v 839.330566 -263.543976 169.468506
v 838.373474 -265.324982 169.468506
v 838.373474 -265.324982 150.618713
v 835.001892 -271.599060 150.618713
v 835.001892 -271.599060 169.468506
v 834.838562 -271.902985 169.468506
v 838.609253 -251.408691 147.068512
v 837.385864 -250.745682 147.068512
v 837.385864 -250.745682 169.468506
v 838.609253 -251.408691 169.468506
v 838.772400 -251.104691 150.618713
v 838.609253 -251.408691 169.468506
v 838.772400 -251.104691 169.468506
v 839.614502 -249.535690 150.618713
v 838.609253 -251.408691 147.068512
v 839.614502 -249.535690 169.468506
v 840.884033 -247.170380 169.468506
v 840.884033 -247.170380 150.618713
v 841.889282 -245.297485 147.068512
v 841.726135 -245.601379 150.618713
v 841.726135 -245.601379 169.468506
v 841.889282 -245.297485 169.468506
v 843.180542 -245.992889 147.068512
v 841.889282 -245.297485 147.068512
v 841.889282 -245.297485 169.468506
v 843.180542 -245.992889 169.468506
v 843.560547 -245.285690 150.618713
v 843.180542 -245.992889 169.468506
v 843.560547 -245.285690 169.468506
v 844.403381 -243.717087 150.618713
v 843.180542 -245.992889 147.068512
v 844.403381 -243.717087 169.468506
v 844.783447 -243.009888 169.468506
v 844.783447 -243.009888 147.068512
v 846.170837 -243.760086 150.618713
v 844.783447 -243.009888 169.468506
v 846.170837 -243.760086 169.468506
v 847.737122 -244.607086 150.618713
v 844.783447 -243.009888 147.068512
v 847.737122 -244.607086 169.468506
v 849.124512 -245.357285 169.468506
v 849.124512 -245.357285 147.068512
vt 6.630190 4.157150
vt 9.119271 0.000000
vt 8.715291 4.157150
vt 9.119271 26.229509
vt 6.630190 26.229509
vt 2.489080 26.229509
vt 2.489080 4.157150
vt 0.403980 4.157150
vt 0.000000 0.000000
vt 0.000000 0.000000
vt 1.426920 0.000000
vt 1.426920 26.229509
vt 0.000000 26.229509
vt 21.393000 4.157150
vt 21.796980 26.229509
vt 21.393000 26.229509
vt 19.307899 4.157150
vt 21.796980 0.000000
vt 19.307899 26.229509
vt 16.111231 26.229509
vt 16.111231 4.157150
vt 5.685750 4.157150
vt 5.685750 26.229509
vt 2.489080 26.229509
vt 2.489080 4.157150
vt 0.000000 0.000000
vt 0.403980 4.157150
vt 0.403980 26.229509
vt 0.000000 26.229509
vt 34.895432 4.157150
vt 35.299412 26.229509
vt 34.895432 26.229509
vt 26.555040 4.157150
vt 32.641300 0.000000
vt 35.299412 0.000000
vt 26.555040 26.229509
vt 24.187469 26.229509
vt 24.187469 4.157150
vt 22.102381 4.157150
vt 22.102381 26.229509
vt 19.734800 26.229509
vt 19.734800 4.157150
vt 15.564610 4.157150
vt 15.564610 26.229509
vt 13.197030 26.229509
vt 13.197030 4.157150
vt 0.000000 0.000000
vt 11.111940 4.157150
vt 11.111940 26.229509
vt 8.744360 26.229509
vt 8.744360 4.157150
vt 0.403980 4.157150
vt 0.000000 26.229509
vt 7.717600 4.157150
vt 8.121581 26.229509
vt 7.717600 26.229509
vt 5.632500 4.157150
vt 8.121581 0.000000
vt 5.632500 26.229509
vt 2.489080 26.229509
vt 2.489080 4.157150
vt 0.000000 0.000000
vt 0.403980 4.157150
vt 0.403980 26.229509
vt 0.000000 26.229509
vt 0.000000 0.000000
vt 1.717380 0.000000
vt 1.717380 26.229509
vt 0.000000 26.229509
vt 3.025210 4.157150
vt 3.965320 26.229509
vt 3.025210 26.229509
vt 0.940110 4.157150
vt 3.965320 0.000000
vt 0.940110 26.229509
vt 0.000000 26.229509
vt 0.000000 0.000000
vt 3.931980 4.157150
vt 5.778860 26.229509
vt 3.931980 26.229509
vt 1.846880 4.157150
vt 5.778860 0.000000
vt 1.846880 26.229509
vt 0.000000 26.229509
vt 8.715291 26.229509
vt 0.403980 26.229509
vt 0.000000 26.229509
vt 0.403980 26.229509
vt 0.000000 0.000000
vt 1.629320 0.000000
vt 1.629320 26.229509
vt 0.000000 26.229509
vt 0.000000 0.000000
vn -0.4744 -0.8803 -0.0000
vn -0.4746 -0.8802 0.0000
vn -0.8802 0.4747 0.0000
vn -0.8802 0.4746 0.0000
vn -0.8806 0.4739 0.0000
vn -0.8805 0.4740 -0.0000
vn -0.8804 0.4742 0.0000
vn -0.8805 0.4741 0.0000
vn -0.8807 0.4737 0.0000
vn 0.8809 -0.4733 0.0000
vn 0.8809 -0.4734 -0.0000
vn 0.8808 -0.4734 0.0000
vn 0.8809 -0.4733 -0.0001
vn -0.8811 0.4730 0.0000
vn -0.8811 0.4729 -0.0000
vn -0.8812 0.4728 0.0000
vn 0.4741 0.8805 0.0000
vn 0.4742 0.8804 0.0000
vn -0.8809 0.4734 0.0000
vn -0.8808 0.4735 0.0000
vn -0.8809 0.4733 -0.0000
vn 0.4757 0.8796 0.0000
vn 0.4756 0.8796 0.0000
vn -0.4743 -0.8804 0.0000
vn -0.4745 -0.8803 0.0000
vn -0.4747 -0.8802 0.0000
vn 0.4764 0.8792 0.0000
vn 0.4765 0.8792 0.0000
vn 0.4756 0.8797 0.0000
s off
f 4/1/1 5/2/1 1/3/1
f 2/4/2 1/3/2 5/2/2
f 6/5/1 7/6/1 4/1/1
f 7/6/1 8/7/1 4/1/1
f 8/7/1 5/2/1 4/1/1
f 9/8/1 10/9/1 8/7/1
f 8/7/1 10/9/1 5/2/1
f 13/10/3 14/11/3 15/12/3
f 13/10/4 15/12/4 16/13/4
f 17/14/5 18/15/5 19/16/5
f 20/17/6 21/18/6 17/14/6
f 18/15/7 17/14/7 21/18/7
f 22/19/8 23/20/8 20/17/8
f 23/20/8 24/21/8 20/17/8
f 24/21/8 21/18/8 20/17/8
f 24/21/8 25/22/8 21/18/8
f 26/23/8 27/24/8 25/22/8
f 27/24/8 28/25/8 25/22/8
f 28/25/6 29/26/6 25/22/6
f 25/22/8 29/26/8 21/18/8
f 30/27/8 29/26/8 28/25/8
f 31/28/9 32/29/9 30/27/9
f 32/29/6 29/26/6 30/27/6
f 33/30/10 34/31/10 35/32/10
f 36/33/11 37/34/11 33/30/11
f 37/34/11 38/35/11 33/30/11
f 34/31/12 33/30/12 38/35/12
f 39/36/12 40/37/12 36/33/12
f 40/37/10 41/38/10 36/33/10
f 41/38/11 37/34/11 36/33/11
f 41/38/11 42/39/11 37/34/11
f 43/40/10 44/41/10 42/39/10
f 44/41/12 45/42/12 42/39/12
f 42/39/13 45/42/13 37/34/13
f 45/42/11 46/43/11 37/34/11
f 47/44/12 48/45/12 46/43/12
f 48/45/10 49/46/10 46/43/10
f 49/46/11 50/47/11 46/43/11
f 46/43/11 50/47/11 37/34/11
f 51/48/13 50/47/13 49/46/13
f 52/49/10 53/50/10 51/48/10
f 53/50/12 54/51/12 51/48/12
f 54/51/11 50/47/11 51/48/11
f 55/52/11 50/47/11 54/51/11
f 57/53/11 50/47/11 55/52/11
f 62/54/14 63/55/14 64/56/14
f 65/57/15 66/58/15 62/54/15
f 63/55/16 62/54/16 66/58/16
f 67/59/15 68/60/15 65/57/15
f 68/60/15 69/61/15 65/57/15
f 69/61/15 70/62/15 65/57/15
f 70/62/15 66/58/15 65/57/15
f 71/63/15 70/62/15 69/61/15
f 72/64/16 73/65/16 71/63/16
f 73/65/16 70/62/16 71/63/16
f 74/66/17 75/67/17 76/68/17
f 74/66/18 76/68/18 77/69/18
f 78/70/19 79/71/19 80/72/19
f 81/73/19 82/74/19 78/70/19
f 79/71/19 78/70/19 82/74/19
f 83/75/19 84/76/19 81/73/19
f 84/76/20 85/77/20 81/73/20
f 85/77/21 82/74/21 81/73/21
f 86/78/22 87/79/22 88/80/22
f 89/81/22 90/82/22 86/78/22
f 87/79/23 86/78/23 90/82/23
f 91/83/22 92/84/22 89/81/22
s 1
f 1/3/24 2/4/24 3/85/24
f 11/86/25 12/87/25 9/8/24
f 12/87/25 10/9/26 9/8/24
f 56/88/10 57/53/10 55/52/10
f 58/89/27 59/90/27 60/91/28
f 58/89/27 60/91/28 61/92/28
f 92/84/29 93/93/23 89/81/29
f 93/93/23 90/82/22 89/81/29
