# Blender v3.0.1 OBJ File: 'rockerfeller_plaza.blend'
# www.blender.org
o geometryt000010000010000110010110000110000110100100000000st165
v 479.944641 -130.446884 888.308594
v 487.709412 -127.347984 888.308594
v 474.669128 -151.602371 888.308594
v 479.934235 -128.093277 888.308594
v 481.991943 -124.272484 888.308594
v 468.119019 -148.081375 888.308594
v 478.135010 -129.468674 888.308594
v 481.991943 -124.272484 910.608582
v 479.934235 -128.093277 910.608582
v 487.709412 -127.347984 910.608582
v 479.944641 -130.446884 910.608582
v 478.135010 -129.468674 910.608582
v 468.119019 -148.081375 910.608582
v 474.669128 -151.602371 910.608582
vt 0.166830 0.444050
vt 0.158730 0.459770
vt 0.207000 0.432920
vt 0.162550 0.444080
vt 0.154950 0.448320
vt 0.202680 0.419800
vt 0.165630 0.440420
vt 0.154950 0.448320
vt 0.162550 0.444080
vt 0.158730 0.459770
vt 0.166830 0.444050
vt 0.165630 0.440420
vt 0.202680 0.419800
vt 0.207000 0.432920
vn 0.0000 0.0000 -1.0000
vn 0.0000 0.0000 1.0000
vn -0.0001 0.0000 1.0000
s off
f 1/1/1 2/2/1 3/3/1
f 4/4/1 2/2/1 1/1/1
f 5/5/1 2/2/1 4/4/1
f 6/6/1 1/1/1 3/3/1
f 7/7/1 1/1/1 6/6/1
f 8/8/2 9/9/2 10/10/2
f 10/10/2 9/9/2 11/11/2
f 11/11/3 12/12/3 13/13/3
f 11/11/2 13/13/2 14/14/2
f 14/14/2 10/10/2 11/11/2
