# Blender v3.0.1 OBJ File: 'rockerfeller_plaza.blend'
# www.blender.org
o geometryt000010000010000110010110000110000110100000000110st59
v 715.739197 -216.532883 107.028664
v 718.769775 -218.170090 107.028664
v 718.769775 -218.170090 128.529297
v 715.739197 -216.532883 128.529297
v 719.640198 -218.640289 128.529297
v 719.640198 -218.640289 107.028664
v 721.155518 -219.458878 107.028664
v 721.155518 -219.458878 128.529297
v 722.025879 -219.929077 128.529297
v 722.025879 -219.929077 107.028664
v 723.541199 -220.747681 107.028664
v 723.541199 -220.747681 128.529297
v 724.411621 -221.217880 128.529297
v 724.411621 -221.217880 107.028664
v 725.926880 -222.036484 107.028664
v 725.926880 -222.036484 128.529297
v 726.797302 -222.506683 107.028664
v 729.827881 -224.143890 107.028664
v 729.827881 -224.143890 128.529297
v 726.797302 -222.506683 128.529297
v 716.689514 -214.322891 107.028664
v 715.837402 -215.819580 107.028664
v 715.837402 -215.819580 128.529297
v 716.689514 -214.322891 128.529297
v 718.722168 -210.752792 107.028664
v 717.869995 -212.249481 107.028664
v 717.869995 -212.249481 128.529297
v 718.722168 -210.752792 128.529297
v 720.691406 -207.117386 107.028664
v 719.056641 -210.149292 107.028664
v 719.056641 -210.149292 128.529297
v 720.691406 -207.117386 128.529297
v 721.931030 -204.818390 128.529297
v 721.931030 -204.818390 107.028664
v 721.113586 -206.334381 107.028664
v 721.113586 -206.334381 128.529297
v 724.805298 -199.487579 107.028664
v 722.353210 -204.035385 107.028664
v 722.353210 -204.035385 128.529297
v 724.805298 -199.487579 128.529297
v 725.952209 -197.360382 128.529297
v 726.044922 -197.188583 107.028664
v 725.227539 -198.704590 107.028664
v 726.044922 -197.188583 128.529297
v 725.227539 -198.704590 128.529297
v 728.101807 -193.373688 128.529297
v 728.101807 -193.373688 107.028664
v 726.467102 -196.405579 107.028664
v 726.467102 -196.405579 128.529297
v 729.407898 -190.601990 107.028664
v 728.682800 -192.164185 107.028664
v 728.682800 -192.164185 128.529297
v 729.407898 -190.601990 128.529297
v 733.163025 -191.496490 128.529297
v 733.163025 -191.496490 107.028664
v 730.131287 -189.861282 107.028664
v 730.131287 -189.861282 128.529297
v 735.546326 -192.781982 107.028664
v 734.030396 -191.964386 107.028664
v 734.030396 -191.964386 128.529297
v 735.546326 -192.781982 128.529297
v 737.929504 -194.067490 128.529297
v 737.929504 -194.067490 107.028664
v 736.413696 -193.249878 107.028664
v 736.413696 -193.249878 128.529297
v 740.312805 -195.352982 107.028664
v 738.796997 -194.535385 107.028664
v 738.796997 -194.535385 128.529297
v 740.312805 -195.352982 128.529297
v 744.211914 -197.456085 107.028664
v 741.180298 -195.820892 107.028664
v 741.180298 -195.820892 128.529297
v 744.211914 -197.456085 128.529297
v 730.320496 -224.021683 107.028664
v 731.951721 -220.987885 107.028664
v 731.951721 -220.987885 128.529297
v 730.320496 -224.021683 128.529297
v 732.523315 -219.924881 107.028664
v 733.338928 -218.407990 107.028664
v 733.338928 -218.407990 128.529297
v 732.523315 -219.924881 128.529297
v 733.910400 -217.344986 107.028664
v 736.357178 -212.794281 107.028664
v 736.357178 -212.794281 128.529297
v 733.910400 -217.344986 128.529297
v 736.928833 -211.731277 107.028664
v 737.744385 -210.214386 107.028664
v 737.744385 -210.214386 128.529297
v 736.928833 -211.731277 128.529297
v 738.315918 -209.151382 107.028664
v 740.762695 -204.600677 107.028664
v 740.762695 -204.600677 128.529297
v 738.315918 -209.151382 128.529297
v 741.334290 -203.537689 128.529297
v 741.334290 -203.537689 107.028664
v 742.149902 -202.020782 107.028664
v 742.149902 -202.020782 128.529297
v 743.879395 -198.804077 128.529297
v 742.721436 -200.957779 107.028664
v 744.352600 -197.923981 107.028664
v 742.721436 -200.957779 128.529297
v 744.352600 -197.923981 128.529297
vt 0.000000 0.000000
vt 0.125000 0.000000
vt 0.125000 1.750000
vt 0.000000 1.750000
vt 0.000000 1.750000
vt 0.000000 0.000000
vt 0.062500 0.000000
vt 0.062500 1.750000
vt 0.000000 1.750000
vt 0.000000 0.000000
vt 0.062500 0.000000
vt 0.062500 1.750000
vt 0.000000 1.750000
vt 0.000000 0.000000
vt 0.062500 0.000000
vt 0.062500 1.750000
vt 0.000000 0.000000
vt 0.125000 0.000000
vt 0.125000 1.750000
vt 0.000000 1.750000
vt 0.000000 0.000000
vt 0.062500 0.000000
vt 0.062500 1.750000
vt 0.000000 1.750000
vt 0.000000 0.000000
vt 0.062500 0.000000
vt 0.062500 1.750000
vt 0.000000 1.750000
vt 0.000000 1.750000
vt 0.000000 0.000000
vt 0.062500 0.000000
vt 0.062500 1.750000
vt 0.000000 0.000000
vt 0.187500 0.000000
vt 0.187500 1.750000
vt 0.000000 1.750000
vt 0.007080 1.750000
vt 0.000000 0.000000
vt 0.062500 0.000000
vt 0.000000 1.750000
vt 0.062500 1.750000
vt 0.000000 1.750000
vt 0.000000 0.000000
vt 0.125000 0.000000
vt 0.125000 1.750000
vt 0.000000 1.750000
vt 0.000000 0.000000
vt 0.125000 0.000000
vt 0.125000 1.750000
vt 0.000000 0.000000
vt 0.062500 0.000000
vt 0.062500 1.750000
vt 0.000000 1.750000
vt 0.000000 1.750000
vt 0.000000 0.000000
vt 0.062500 0.000000
vt 0.062500 1.750000
vt 0.000000 0.000000
vt 0.062500 0.000000
vt 0.062500 1.750000
vt 0.000000 1.750000
vt 0.000000 0.000000
vt 0.125000 0.000000
vt 0.125000 1.750000
vt 0.000000 1.750000
vt 0.000000 0.000000
vt 0.125000 0.000000
vt 0.125000 1.750000
vt 0.000000 1.750000
vt 0.000000 0.000000
vt 0.062500 0.000000
vt 0.062500 1.750000
vt 0.000000 1.750000
vt 0.000000 0.000000
vt 0.187500 0.000000
vt 0.187500 1.750000
vt 0.000000 1.750000
vt 0.000000 0.000000
vt 0.062500 0.000000
vt 0.062500 1.750000
vt 0.000000 1.750000
vt 0.000000 0.000000
vt 0.187500 0.000000
vt 0.187500 1.750000
vt 0.000000 1.750000
vt 0.000000 1.750000
vt 0.000000 0.000000
vt 0.062500 0.000000
vt 0.062500 1.750000
vt 0.088740 1.750000
vt 0.000000 0.000000
vt 0.125000 0.000000
vt 0.000000 1.750000
vt 0.125000 1.750000
vt 0.000000 0.000000
vt 0.125000 0.000000
vt 0.125000 1.750000
vt 0.000000 1.750000
vt 0.000000 0.000000
vt 0.062500 0.000000
vt 0.062500 1.750000
vt 0.000000 1.750000
vn -0.4753 -0.8798 0.0000
vn -0.8690 0.4948 0.0000
vn -0.8802 0.4746 0.0000
vn -0.8802 0.4747 0.0000
vn -0.8803 0.4745 0.0000
vn 0.4747 0.8801 0.0000
vn 0.4747 0.8802 0.0000
vn 0.4748 0.8801 0.0000
vn 0.8808 -0.4736 0.0000
vn 0.8808 -0.4735 0.0000
vn 0.8807 -0.4736 0.0000
vn -0.9071 0.4210 0.0000
s off
f 1/1/1 2/2/1 3/3/1
f 4/4/1 1/1/1 3/3/1
f 5/5/1 6/6/1 7/7/1
f 5/5/1 7/7/1 8/8/1
f 9/9/1 10/10/1 11/11/1
f 9/9/1 11/11/1 12/12/1
f 13/13/1 14/14/1 15/15/1
f 13/13/1 15/15/1 16/16/1
f 17/17/1 18/18/1 19/19/1
f 20/20/1 17/17/1 19/19/1
f 21/21/2 22/22/2 23/23/2
f 24/24/2 21/21/2 23/23/2
f 25/25/2 26/26/2 27/27/2
f 28/28/2 25/25/2 27/27/2
f 33/29/3 34/30/3 35/31/3
f 33/29/4 35/31/4 36/32/4
f 37/33/3 38/34/3 39/35/3
f 40/36/3 37/33/3 39/35/3
f 41/37/3 42/38/3 43/39/3
f 44/40/3 42/38/3 41/37/3
f 41/37/5 43/39/5 45/41/5
f 46/42/3 47/43/3 48/44/3
f 46/42/3 48/44/3 49/45/3
f 54/46/6 55/47/6 56/48/6
f 54/46/6 56/48/6 57/49/6
f 58/50/6 59/51/6 60/52/6
f 61/53/7 58/50/7 60/52/7
f 62/54/8 63/55/8 64/56/8
f 62/54/6 64/56/6 65/57/6
f 66/58/6 67/59/6 68/60/6
f 69/61/6 66/58/6 68/60/6
f 70/62/6 71/63/6 72/64/6
f 73/65/6 70/62/6 72/64/6
f 74/66/9 75/67/9 76/68/9
f 77/69/9 74/66/9 76/68/9
f 78/70/10 79/71/10 80/72/10
f 81/73/11 78/70/11 80/72/11
f 82/74/9 83/75/9 84/76/9
f 85/77/9 82/74/9 84/76/9
f 86/78/10 87/79/10 88/80/10
f 89/81/10 86/78/10 88/80/10
f 90/82/9 91/83/9 92/84/9
f 93/85/9 90/82/9 92/84/9
f 94/86/10 95/87/10 96/88/10
f 94/86/11 96/88/11 97/89/11
f 98/90/10 99/91/10 100/92/10
f 101/93/10 99/91/10 98/90/10
f 98/90/11 100/92/11 102/94/11
s 1
f 29/95/3 30/96/3 31/97/3
f 32/98/3 29/95/3 31/97/3
f 50/99/12 51/100/12 52/101/12
f 53/102/12 50/99/12 52/101/12
