# Blender v3.0.1 OBJ File: 'rockerfeller_plaza.blend'
# www.blender.org
o geometryt000010000010000110010110000110000110100000000100st79
v 505.361816 -132.604599 62.022316
v 497.966522 -137.642197 62.022316
v 501.717834 -130.659698 62.022316
v 509.253418 -125.353989 62.022316
v 514.239746 -128.027206 62.022316
v 510.348145 -135.288895 62.022316
v 505.617737 -123.397789 62.022316
v 510.385132 -114.504990 62.022316
v 523.109741 -121.329292 62.022316
v 518.342407 -130.222107 62.022316
v 514.442505 -137.483902 62.022316
v 510.699646 -144.466400 62.022316
v 510.348145 -135.288895 90.422318
v 497.966522 -137.642197 90.422318
v 510.699646 -144.466400 90.422318
v 505.361816 -132.604599 90.422318
v 501.717834 -130.659698 90.422318
v 514.442505 -137.483902 90.422318
v 514.239746 -128.027206 90.422318
v 523.109741 -121.329292 90.422318
v 518.342407 -130.222107 90.422318
v 510.385132 -114.504990 90.422318
v 509.253418 -125.353989 90.422318
v 505.617737 -123.397789 90.422318
vt 0.159640 0.514580
vt 0.171160 0.499550
vt 0.157260 0.507280
vt 0.145210 0.522590
vt 0.148490 0.532580
vt 0.162940 0.524570
vt 0.142810 0.515310
vt 0.125110 0.525130
vt 0.133480 0.550620
vt 0.151180 0.540800
vt 0.165630 0.532770
vt 0.179530 0.525060
vt 0.162940 0.524570
vt 0.171160 0.499550
vt 0.179530 0.525060
vt 0.159640 0.514580
vt 0.157260 0.507280
vt 0.165630 0.532770
vt 0.148490 0.532580
vt 0.133480 0.550620
vt 0.151180 0.540800
vt 0.125110 0.525130
vt 0.145210 0.522590
vt 0.142810 0.515310
vn 0.0000 0.0000 -1.0000
vn 0.0000 0.0000 1.0000
s off
f 1/1/1 2/2/1 3/3/1
f 4/4/1 5/5/1 1/1/1
f 5/5/1 6/6/1 1/1/1
f 1/1/1 6/6/1 2/2/1
f 7/7/1 8/8/1 4/4/1
f 4/4/1 8/8/1 5/5/1
f 8/8/1 9/9/1 5/5/1
f 9/9/1 10/10/1 5/5/1
f 11/11/1 12/12/1 6/6/1
f 12/12/1 2/2/1 6/6/1
f 13/13/2 14/14/2 15/15/2
f 16/16/2 14/14/2 13/13/2
f 17/17/2 14/14/2 16/16/2
f 13/13/2 15/15/2 18/18/2
f 19/19/2 16/16/2 13/13/2
f 20/20/2 19/19/2 21/21/2
f 20/20/2 22/22/2 19/19/2
f 19/19/2 22/22/2 23/23/2
f 19/19/2 23/23/2 16/16/2
f 22/22/2 24/24/2 23/23/2
