# Blender v3.0.1 OBJ File: 'rockerfeller_plaza.blend'
# www.blender.org
o geometryt000010000010000110010110000110000100110010110110st64
v 156.076477 -259.212830 566.809937
v 155.733887 -259.869934 581.991760
v 156.076477 -259.212830 581.991760
v 157.096588 -257.256226 566.291809
v 156.753983 -257.913330 566.809937
v 155.733887 -259.869934 566.291809
v 156.753983 -257.913330 581.991760
v 157.096588 -257.256226 581.991760
v 158.935486 -261.542328 566.809937
v 159.538986 -261.857635 581.991760
v 158.935486 -261.542328 581.991760
v 155.733887 -259.869934 566.291809
v 156.337479 -260.185242 566.809937
v 159.538986 -261.857635 566.291809
v 156.337479 -260.185242 581.991760
v 155.733887 -259.869934 581.991760
v 157.256287 -256.950439 566.809937
v 157.096588 -257.256226 581.991760
v 157.256287 -256.950439 581.991760
v 158.612686 -254.352127 566.809937
v 157.096588 -257.256226 566.291809
v 158.612686 -254.352127 581.991760
v 158.811890 -253.970627 581.991760
v 158.811890 -253.970627 566.809937
v 160.846481 -250.073227 566.809937
v 160.846481 -250.073227 581.991760
v 161.045685 -249.691727 581.991760
v 161.045685 -249.691727 566.809937
v 161.723877 -248.392624 566.809937
v 161.723877 -248.392624 581.991760
v 161.922989 -248.011124 581.991760
v 161.922989 -248.011124 566.809937
v 163.279480 -245.412827 566.809937
v 163.279480 -245.412827 581.991760
v 163.478577 -245.031418 581.991760
v 163.478577 -245.031418 566.809937
v 168.105881 -236.167725 566.291809
v 164.156784 -243.732224 566.809937
v 164.156784 -243.732224 581.991760
v 164.355988 -243.350830 581.991760
v 164.355988 -243.350830 566.809937
v 166.390686 -239.453323 566.809937
v 166.390686 -239.453323 581.991760
v 166.589783 -239.071930 581.991760
v 166.589783 -239.071930 566.809937
v 167.946182 -236.473618 566.809937
v 167.946182 -236.473618 581.991760
v 168.105881 -236.167725 581.991760
v 171.759689 -238.461121 566.809937
v 171.919388 -238.155319 581.991760
v 171.759689 -238.461121 581.991760
v 170.402679 -241.059128 566.809937
v 171.919388 -238.155319 566.291809
v 170.402679 -241.059128 581.991760
v 170.088776 -241.660019 581.991760
v 170.088776 -241.660019 566.809937
v 168.053284 -245.557022 566.809937
v 168.053284 -245.557022 581.991760
v 167.739380 -246.158020 581.991760
v 167.739380 -246.158020 566.809937
v 167.060883 -247.457031 566.809937
v 167.060883 -247.457031 581.991760
v 166.746979 -248.057922 581.991760
v 166.746979 -248.057922 566.809937
v 164.711487 -251.954926 566.809937
v 159.538986 -261.857635 566.291809
v 164.711487 -251.954926 581.991760
v 164.397583 -252.555923 581.991760
v 164.397583 -252.555923 566.809937
v 163.719086 -253.854919 566.809937
v 163.719086 -253.854919 581.991760
v 163.405182 -254.455826 581.991760
v 163.405182 -254.455826 566.809937
v 161.369690 -258.352844 566.809937
v 161.369690 -258.352844 581.991760
v 161.055786 -258.953827 581.991760
v 161.055786 -258.953827 566.809937
v 159.698776 -261.551849 566.809937
v 159.698776 -261.551849 581.991760
v 159.538986 -261.857635 581.991760
v 168.713089 -236.484222 566.809937
v 168.105881 -236.167725 581.991760
v 168.713089 -236.484222 581.991760
v 171.919388 -238.155319 566.291809
v 171.312286 -237.838928 566.809937
v 168.105881 -236.167725 566.291809
v 171.312286 -237.838928 581.991760
v 171.919388 -238.155319 581.991760
vt 11.863250 2.785910
vt 15.847340 84.408600
vt 11.863250 84.408600
vt 0.000000 0.000000
vt 3.984080 2.785910
vt 15.847340 0.000000
vt 3.984080 84.408600
vt 0.000000 84.408600
vt 0.000000 0.000000
vt 19.419439 2.785910
vt 3.661090 2.785910
vt 23.080521 0.000000
vt 23.080521 84.408600
vt 3.661090 84.408600
vt 0.000000 84.408600
vt 126.044296 2.785910
vt 127.899101 84.408600
vt 126.044296 84.408600
vt 110.285896 2.785910
vt 127.899101 0.000000
vt 110.285896 84.408600
vt 107.972397 84.408600
vt 107.972397 2.785910
vt 84.334892 2.785910
vt 84.334892 84.408600
vt 82.021400 84.408600
vt 82.021400 2.785910
vt 74.142220 2.785910
vt 74.142220 84.408600
vt 71.828720 84.408600
vt 71.828720 2.785910
vt 56.070370 84.408600
vt 53.756870 84.408600
vt 56.070370 2.785910
vt 53.756870 2.785910
vt 0.000000 0.000000
vt 45.877701 84.408600
vt 43.564209 84.408600
vt 45.877701 2.785910
vt 43.564209 2.785910
vt 19.926680 2.785910
vt 19.926680 84.408600
vt 17.613190 84.408600
vt 17.613190 2.785910
vt 1.854840 2.785910
vt 1.854840 84.408600
vt 0.000000 84.408600
vt 141.913101 2.785910
vt 143.767899 84.408600
vt 141.913101 84.408600
vt 126.154701 2.785910
vt 143.767899 0.000000
vt 126.154701 84.408600
vt 122.509598 84.408600
vt 122.509598 2.785910
vt 98.872101 2.785910
vt 98.872101 84.408600
vt 95.226990 84.408600
vt 95.226990 2.785910
vt 87.347816 84.408600
vt 83.702721 84.408600
vt 87.347816 2.785910
vt 83.702721 2.785910
vt 60.065189 2.785910
vt 0.000000 0.000000
vt 60.065189 84.408600
vt 56.420090 84.408600
vt 56.420090 2.785910
vt 48.540920 2.785910
vt 48.540920 84.408600
vt 44.895809 84.408600
vt 44.895809 2.785910
vt 21.258289 2.785910
vt 21.258289 84.408600
vt 17.613190 84.408600
vt 17.613190 2.785910
vt 1.854840 84.408600
vt 0.000000 84.408600
vt 1.854840 2.785910
vt 19.439400 2.785910
vt 23.120461 84.408600
vt 19.439400 84.408600
vt 0.000000 0.000000
vt 3.681060 2.785910
vt 23.120461 0.000000
vt 3.681060 84.408600
vt 0.000000 84.408600
vt 19.419439 84.408600
vn -0.8867 0.4623 0.0000
vn -0.8867 0.4623 -0.0001
vn -0.4630 -0.8864 -0.0001
vn -0.4631 -0.8863 0.0001
vn -0.4631 -0.8863 0.0000
vn -0.4630 -0.8864 0.0000
vn -0.4630 -0.8863 0.0000
vn -0.8864 0.4630 0.0000
vn -0.8865 0.4628 0.0001
vn -0.8864 0.4629 0.0000
vn -0.8865 0.4628 0.0000
vn -0.8864 0.4629 -0.0003
vn -0.8865 0.4626 0.0000
vn -0.8865 0.4627 0.0000
vn -0.8864 0.4629 -0.0002
vn -0.8864 0.4628 0.0000
vn 0.8864 -0.4630 0.0000
vn 0.8863 -0.4630 -0.0001
vn 0.8864 -0.4629 0.0000
vn 0.8863 -0.4630 0.0000
vn 0.8864 -0.4629 0.0001
vn 0.8859 -0.4640 0.0000
vn 0.8863 -0.4631 0.0004
vn 0.8860 -0.4636 -0.0005
vn 0.8863 -0.4631 -0.0003
vn 0.8863 -0.4631 0.0000
vn 0.4622 0.8868 0.0000
vn 0.4621 0.8868 0.0001
vn -0.8863 0.4631 -0.0008
vn -0.8861 0.4636 -0.0000
vn -0.8870 0.4617 0.0011
vn -0.8864 0.4629 -0.0004
vn -0.8865 0.4627 0.0001
vn -0.8862 0.4634 0.0000
vn -0.8865 0.4628 0.0003
vn -0.8861 0.4634 0.0000
vn -0.8867 0.4624 0.0002
vn -0.8862 0.4634 0.0005
vn 0.8863 -0.4631 -0.0002
vn 0.8865 -0.4628 -0.0000
vn 0.8864 -0.4630 -0.0001
vn 0.8864 -0.4628 -0.0000
vn 0.8865 -0.4628 0.0007
vn 0.8863 -0.4631 -0.0001
vn 0.8863 -0.4630 0.0004
s off
f 1/1/1 2/2/1 3/3/1
f 4/4/2 1/1/2 5/5/2
f 4/4/1 6/6/1 1/1/1
f 2/2/1 1/1/1 6/6/1
f 7/7/1 8/8/1 5/5/1
f 8/8/1 4/4/1 5/5/1
f 12/9/3 9/10/3 13/11/3
f 12/9/4 14/12/4 9/10/4
f 10/13/5 9/10/5 14/12/5
f 15/14/6 16/15/6 13/11/6
f 16/15/7 12/9/7 13/11/7
f 17/16/8 18/17/8 19/18/8
f 20/19/9 21/20/9 17/16/9
f 18/17/10 17/16/10 21/20/10
f 22/21/11 23/22/11 20/19/11
f 23/22/10 24/23/10 20/19/10
f 24/23/12 25/24/12 21/20/12
f 26/25/11 27/26/11 25/24/11
f 27/26/10 28/27/10 25/24/10
f 28/27/10 29/28/10 21/20/10
f 30/29/13 31/30/13 29/28/13
f 31/30/11 32/31/11 29/28/11
f 34/32/14 35/33/14 33/34/14
f 35/33/14 36/35/14 33/34/14
f 33/34/14 37/36/14 21/20/14
f 39/37/10 40/38/10 38/39/10
f 40/38/8 41/40/8 38/39/8
f 42/41/15 37/36/15 41/40/15
f 43/42/11 44/43/11 42/41/11
f 44/43/14 45/44/14 42/41/14
f 45/44/10 37/36/10 42/41/10
f 46/45/11 37/36/11 45/44/11
f 47/46/16 48/47/16 46/45/16
f 48/47/11 37/36/11 46/45/11
f 49/48/17 50/49/17 51/50/17
f 52/51/18 53/52/18 49/48/18
f 50/49/19 49/48/19 53/52/19
f 54/53/20 55/54/20 52/51/20
f 55/54/20 56/55/20 52/51/20
f 56/55/21 57/56/21 53/52/21
f 58/57/17 59/58/17 57/56/17
f 59/58/17 60/59/17 57/56/17
f 57/56/22 60/59/22 53/52/22
f 62/60/20 63/61/20 61/62/20
f 63/61/20 64/63/20 61/62/20
f 65/64/23 66/65/23 64/63/23
f 64/63/17 66/65/17 53/52/17
f 67/66/17 68/67/17 65/64/17
f 68/67/17 69/68/17 65/64/17
f 70/69/24 66/65/24 69/68/24
f 71/70/20 72/71/20 70/69/20
f 72/71/17 73/72/17 70/69/17
f 74/73/23 66/65/23 73/72/23
f 75/74/17 76/75/17 74/73/17
f 76/75/17 77/76/17 74/73/17
f 77/76/25 66/65/25 74/73/25
f 79/77/26 80/78/26 78/79/26
f 81/80/27 82/81/27 83/82/27
f 84/83/28 81/80/28 85/84/28
f 84/83/27 86/85/27 81/80/27
f 82/81/27 81/80/27 86/85/27
f 87/86/27 88/87/27 85/84/27
f 88/87/27 84/83/27 85/84/27
s 1
f 9/10/5 10/13/5 11/88/5
f 24/23/29 21/20/29 20/19/29
f 25/24/30 28/27/30 21/20/30
f 29/28/31 32/31/32 21/20/33
f 32/31/32 33/34/10 21/20/33
f 36/35/34 37/36/35 33/34/36
f 38/39/37 37/36/35 36/35/34
f 41/40/38 37/36/35 38/39/37
f 56/55/20 53/52/20 52/51/20
f 60/59/39 61/62/40 53/52/41
f 61/62/40 64/63/40 53/52/41
f 69/68/42 66/65/42 65/64/42
f 73/72/43 66/65/43 70/69/43
f 78/79/44 66/65/44 77/76/45
f 80/78/26 66/65/44 78/79/44
