# Blender v3.0.1 OBJ File: 'rockerfeller_plaza.blend'
# www.blender.org
o geometryt000010000010000110010110000110000110100000010100st48
v 881.636902 -170.538986 147.781082
v 882.964355 -171.252487 147.781082
v 882.964355 -171.252487 175.674423
v 881.636902 -170.538986 175.674423
v 881.580200 -168.405991 147.781082
v 880.866943 -169.733383 147.781082
v 880.866943 -169.733383 175.674423
v 881.580200 -168.405991 175.674423
v 882.696411 -166.328979 175.674423
v 884.022583 -163.861084 147.781082
v 881.882629 -167.843384 147.781082
v 884.022583 -163.861084 175.674423
v 881.882629 -167.843384 175.674423
v 886.465027 -159.316086 147.781082
v 884.325012 -163.298477 147.781082
v 884.325012 -163.298477 175.674423
v 886.465027 -159.316086 175.674423
v 887.480713 -157.426086 175.674423
v 887.480713 -157.426086 147.781082
v 886.767395 -158.753479 147.781082
v 886.767395 -158.753479 175.674423
v 884.426392 -170.824387 147.781082
v 886.661133 -166.894485 147.781082
v 886.661133 -166.894485 175.674423
v 884.426392 -170.824387 175.674423
v 887.717834 -166.239990 175.674423
v 887.717834 -166.239990 147.781082
v 890.390381 -167.633286 147.781082
v 890.390381 -167.633286 175.674423
v 888.528320 -155.494980 175.674423
v 888.528320 -155.494980 147.781082
v 887.808533 -156.818985 147.781082
v 887.808533 -156.818985 175.674423
v 889.585815 -153.550079 147.781082
v 888.865906 -154.874084 147.781082
v 888.865906 -154.874084 175.674423
v 889.585815 -153.550079 175.674423
v 892.082825 -148.957382 147.781082
v 889.923401 -152.929184 147.781082
v 889.923401 -152.929184 175.674423
v 892.082825 -148.957382 175.674423
v 893.140320 -147.012482 175.674423
v 893.140320 -147.012482 147.781082
v 892.420410 -148.336380 147.781082
v 892.420410 -148.336380 175.674423
v 894.197754 -145.067581 175.674423
v 894.197754 -145.067581 147.781082
v 893.477905 -146.391479 147.781082
v 893.477905 -146.391479 175.674423
v 891.082886 -167.605286 147.781082
v 891.801392 -166.280579 147.781082
v 891.801392 -166.280579 175.674423
v 891.082886 -167.605286 175.674423
v 892.026611 -165.865479 147.781082
v 892.745117 -164.540787 147.781082
v 892.745117 -164.540787 175.674423
v 892.026611 -165.865479 175.674423
v 892.970337 -164.125687 147.781082
v 895.125916 -160.151779 147.781082
v 895.125916 -160.151779 175.674423
v 892.970337 -164.125687 175.674423
v 895.351135 -159.736588 147.781082
v 896.069580 -158.411987 147.781082
v 896.069580 -158.411987 175.674423
v 895.351135 -159.736588 175.674423
v 896.294800 -157.996780 175.674423
v 896.294800 -157.996780 147.781082
v 897.013306 -156.672180 147.781082
v 897.013306 -156.672180 175.674423
v 900.585083 -148.208191 175.674423
v 900.585083 -148.208191 147.781082
v 895.311035 -145.289383 147.781082
v 895.311035 -145.289383 175.674423
v 897.485413 -155.821487 175.674423
v 897.485413 -155.821487 147.781082
v 901.222107 -149.278381 147.781082
v 901.222107 -149.278381 175.674423
vt 0.000000 0.000000
vt 0.250000 0.000000
vt 0.250000 3.000000
vt 0.000000 3.000000
vt 0.000000 0.000000
vt 0.250000 0.000000
vt 0.250000 3.000000
vt 0.000000 3.000000
vt 0.464800 3.000000
vt 0.000000 0.000000
vt 0.750000 0.000000
vt 0.000000 3.000000
vt 0.750000 3.000000
vt 0.000000 0.000000
vt 0.750000 0.000000
vt 0.750000 3.000000
vt 0.000000 3.000000
vt 0.000000 3.000000
vt 0.000000 0.000000
vt 0.250000 0.000000
vt 0.250000 3.000000
vt 0.000000 0.000000
vt 0.750000 0.000000
vt 0.750000 3.000000
vt 0.000000 3.000000
vt 0.000000 3.000000
vt 0.000000 0.000000
vt 0.500000 0.000000
vt 0.500000 3.000000
vt 0.000000 3.000000
vt 0.000000 0.000000
vt 0.250000 0.000000
vt 0.250000 3.000000
vt 0.000000 0.000000
vt 0.250000 0.000000
vt 0.250000 3.000000
vt 0.000000 3.000000
vt 0.000000 0.000000
vt 0.750000 0.000000
vt 0.750000 3.000000
vt 0.000000 3.000000
vt 0.000000 3.000000
vt 0.000000 0.000000
vt 0.250000 0.000000
vt 0.250000 3.000000
vt 0.000000 3.000000
vt 0.000000 0.000000
vt 0.250000 0.000000
vt 0.250000 3.000000
vt 0.000000 0.000000
vt 0.250000 0.000000
vt 0.250000 3.000000
vt 0.000000 3.000000
vt 0.000000 0.000000
vt 0.250000 0.000000
vt 0.250000 3.000000
vt 0.000000 3.000000
vt 0.000000 0.000000
vt 0.750000 0.000000
vt 0.750000 3.000000
vt 0.000000 3.000000
vt 0.000000 0.000000
vt 0.250000 0.000000
vt 0.250000 3.000000
vt 0.000000 3.000000
vt 0.000000 3.000000
vt 0.000000 0.000000
vt 0.250000 0.000000
vt 0.250000 3.000000
vt 0.000000 3.000000
vt 0.000000 0.000000
vt 1.000000 0.000000
vt 1.000000 3.000000
vt 0.000000 3.000000
vt 0.000000 0.000000
vt 1.250000 0.000000
vt 1.250000 3.000000
vn -0.4734 -0.8808 0.0000
vn -0.8809 0.4733 0.0000
vn -0.8809 0.4734 0.0000
vn -0.8808 0.4734 0.0000
vn 0.8693 -0.4943 0.0000
vn -0.4623 -0.8867 0.0000
vn -0.8786 0.4776 0.0000
vn -0.8785 0.4777 0.0000
vn -0.8785 0.4778 0.0000
vn 0.8790 -0.4768 0.0000
vn 0.8791 -0.4767 0.0000
vn 0.4842 0.8749 0.0000
vn 0.8684 -0.4959 0.0000
s off
f 1/1/1 2/2/1 3/3/1
f 4/4/1 1/1/1 3/3/1
f 5/5/2 6/6/2 7/7/2
f 8/8/2 5/5/2 7/7/2
f 9/9/2 10/10/2 11/11/2
f 12/12/3 10/10/3 9/9/3
f 9/9/4 11/11/4 13/13/4
f 14/14/2 15/15/2 16/16/2
f 17/17/2 14/14/2 16/16/2
f 18/18/3 19/19/3 20/20/3
f 18/18/2 20/20/2 21/21/2
f 22/22/5 23/23/5 24/24/5
f 25/25/5 22/22/5 24/24/5
f 26/26/6 27/27/6 28/28/6
f 26/26/6 28/28/6 29/29/6
f 30/30/7 31/31/7 32/32/7
f 30/30/8 32/32/8 33/33/8
f 34/34/7 35/35/7 36/36/7
f 37/37/9 34/34/9 36/36/9
f 38/38/8 39/39/8 40/40/8
f 41/41/7 38/38/7 40/40/7
f 42/42/8 43/43/8 44/44/8
f 42/42/9 44/44/9 45/45/9
f 46/46/8 47/47/8 48/48/8
f 46/46/8 48/48/8 49/49/8
f 50/50/10 51/51/10 52/52/10
f 53/53/11 50/50/11 52/52/11
f 54/54/10 55/55/10 56/56/10
f 57/57/10 54/54/10 56/56/10
f 58/58/10 59/59/10 60/60/10
f 61/61/10 58/58/10 60/60/10
f 62/62/10 63/63/10 64/64/10
f 65/65/10 62/62/10 64/64/10
f 66/66/10 67/67/10 68/68/10
f 66/66/10 68/68/10 69/69/10
f 70/70/12 71/71/12 72/72/12
f 70/70/12 72/72/12 73/73/12
f 74/74/13 75/75/13 76/76/13
f 74/74/13 76/76/13 77/77/13
