# Blender v3.0.1 OBJ File: 'rockerfeller_plaza.blend'
# www.blender.org
o geometryt000010000010000110010110000110000110100000110100st89_S
v 866.867859 -81.525337 699.578308
v 884.322937 -90.647491 699.578308
v 880.045532 -98.835381 699.578308
v 859.097229 -96.393135 699.578308
v 876.552429 -105.515312 699.578308
v 859.097229 -96.393135 719.878296
v 876.552429 -105.515312 719.878296
v 880.045532 -98.835381 719.878296
v 866.867859 -81.525337 719.878296
v 884.322937 -90.647491 719.878296
vt 0.111850 0.229460
vt 0.122900 0.264430
vt 0.139160 0.255610
vt 0.141370 0.213450
vt 0.152420 0.248420
vt 0.141370 0.213450
vt 0.152420 0.248420
vt 0.139160 0.255610
vt 0.111850 0.229460
vt 0.122900 0.264430
vn 0.0000 0.0000 -1.0000
vn 0.0000 0.0000 1.0000
s off
f 1/1/1 2/2/1 3/3/1
f 4/4/1 1/1/1 3/3/1
f 5/5/1 4/4/1 3/3/1
f 6/6/2 7/7/2 8/8/2
f 9/9/2 6/6/2 8/8/2
f 10/10/2 9/9/2 8/8/2
