# Blender v3.0.1 OBJ File: 'rockerfeller_plaza.blend'
# www.blender.org
o geometryt000010000010000110010110000110000110100100000000st21_T
v 298.653107 -146.462479 902.046692
v 298.653107 -146.462479 889.399414
v 302.508484 -148.559784 889.399414
v 302.508484 -148.559784 902.046692
v 298.913544 -144.234085 902.046692
v 298.913544 -144.234085 889.399414
v 298.210510 -145.517075 889.399414
v 298.210510 -145.517075 902.046692
v 300.066711 -142.098572 902.046692
v 300.066711 -142.098572 889.399414
v 299.374329 -143.387283 889.399414
v 299.374329 -143.387283 902.046692
v 303.086731 -136.477371 889.399414
v 300.317169 -141.632385 889.399414
v 300.317169 -141.632385 902.046692
v 303.086731 -136.477371 902.046692
v 304.029572 -134.722473 902.046692
v 304.029572 -134.722473 889.399414
v 303.337158 -136.011276 889.399414
v 303.337158 -136.011276 902.046692
v 307.049561 -129.101379 902.046692
v 307.049561 -129.101379 889.399414
v 304.279999 -134.256378 889.399414
v 304.279999 -134.256378 902.046692
v 307.992401 -127.346489 889.399414
v 307.300018 -128.635284 889.399414
v 307.300018 -128.635284 902.046692
v 307.992401 -127.346489 902.046692
v 308.439636 -126.514084 902.046692
v 311.012421 -121.725388 889.399414
v 308.242859 -126.880386 889.399414
v 311.012421 -121.725388 902.046692
v 308.242859 -126.880386 902.046692
v 311.955261 -119.970482 889.399414
v 311.262878 -121.259186 889.399414
v 311.262878 -121.259186 902.046692
v 311.955261 -119.970482 902.046692
v 303.681488 -148.162476 889.399414
v 307.163177 -141.729385 889.399414
v 307.163177 -141.729385 902.046692
v 303.681488 -148.162476 902.046692
v 307.753540 -140.622375 889.399414
v 308.446777 -139.334076 889.399414
v 308.446777 -139.334076 902.046692
v 307.753540 -140.622375 902.046692
v 308.649628 -138.957184 889.399414
v 311.422577 -133.803970 889.399414
v 311.422577 -133.803970 902.046692
v 308.649628 -138.957184 902.046692
v 311.802490 -133.097977 902.046692
v 311.625427 -133.427078 889.399414
v 312.318665 -132.138779 889.399414
v 311.625427 -133.427078 902.046692
v 312.318665 -132.138779 902.046692
v 312.521484 -131.761780 889.399414
v 315.294434 -126.608688 889.399414
v 315.294434 -126.608688 902.046692
v 312.521484 -131.761780 902.046692
v 315.497284 -126.231789 889.399414
v 316.190521 -124.943489 889.399414
v 316.190521 -124.943489 902.046692
v 315.497284 -126.231789 902.046692
v 316.736481 -122.151489 902.046692
v 316.736481 -122.151489 889.399414
v 312.871643 -120.071785 889.399414
v 312.871643 -120.071785 902.046692
v 316.571594 -124.240387 889.399414
v 317.264709 -122.952087 889.399414
v 317.264709 -122.952087 902.046692
v 316.571594 -124.240387 902.046692
vt 0.000000 0.750000
vt 0.000000 0.000000
vt 1.000000 0.000000
vt 1.000000 0.750000
vt 0.000000 0.750000
vt 0.000000 0.000000
vt 0.333330 0.000000
vt 0.333330 0.750000
vt 0.000000 0.750000
vt 0.000000 0.000000
vt 0.333330 0.000000
vt 0.333330 0.750000
vt 0.000000 0.000000
vt 1.333330 0.000000
vt 1.333330 0.750000
vt 0.000000 0.750000
vt 0.000000 0.750000
vt 0.000000 0.000000
vt 0.333330 0.000000
vt 0.333330 0.750000
vt 0.000000 0.750000
vt 0.000000 0.000000
vt 1.333330 0.000000
vt 1.333330 0.750000
vt 0.000000 0.000000
vt 0.333330 0.000000
vt 0.333330 0.750000
vt 0.000000 0.750000
vt 1.238600 0.750000
vt 0.000000 0.000000
vt 1.333330 0.000000
vt 0.000000 0.750000
vt 1.333330 0.750000
vt 0.000000 0.000000
vt 0.333330 0.000000
vt 0.333330 0.750000
vt 0.000000 0.750000
vt 0.000000 0.000000
vt 1.666670 0.000000
vt 1.666670 0.750000
vt 0.000000 0.750000
vt 0.000000 0.000000
vt 0.333330 0.000000
vt 0.333330 0.750000
vt 0.000000 0.750000
vt 0.000000 0.000000
vt 1.333330 0.000000
vt 1.333330 0.750000
vt 0.000000 0.750000
vt 0.085140 0.750000
vt 0.000000 0.000000
vt 0.333330 0.000000
vt 0.000000 0.750000
vt 0.333330 0.750000
vt 0.000000 0.000000
vt 1.333330 0.000000
vt 1.333330 0.750000
vt 0.000000 0.750000
vt 0.000000 0.000000
vt 0.333330 0.000000
vt 0.333330 0.750000
vt 0.000000 0.750000
vt 0.000000 0.750000
vt 0.000000 0.000000
vt 1.000000 0.000000
vt 1.000000 0.750000
vt 0.000000 0.000000
vt 0.333330 0.000000
vt 0.333330 0.750000
vt 0.000000 0.750000
vn -0.4779 -0.8784 0.0000
vn -0.8770 0.4806 0.0000
vn -0.8770 0.4805 0.0000
vn -0.8809 0.4733 0.0000
vn -0.8809 0.4732 0.0000
vn 0.8795 -0.4760 0.0000
vn 0.8806 -0.4739 0.0000
vn 0.8806 -0.4738 0.0000
vn 0.4739 0.8806 0.0000
s off
f 1/1/1 2/2/1 3/3/1
f 1/1/1 3/3/1 4/4/1
f 5/5/2 6/6/2 7/7/2
f 5/5/3 7/7/3 8/8/3
f 9/9/4 10/10/4 11/11/4
f 9/9/4 11/11/4 12/12/4
f 13/13/4 14/14/4 15/15/4
f 16/16/4 13/13/4 15/15/4
f 17/17/4 18/18/4 19/19/4
f 17/17/5 19/19/5 20/20/5
f 21/21/4 22/22/4 23/23/4
f 21/21/4 23/23/4 24/24/4
f 25/25/4 26/26/4 27/27/4
f 28/28/5 25/25/5 27/27/5
f 29/29/4 30/30/4 31/31/4
f 32/32/4 30/30/4 29/29/4
f 29/29/5 31/31/5 33/33/5
f 34/34/4 35/35/4 36/36/4
f 37/37/4 34/34/4 36/36/4
f 38/38/6 39/39/6 40/40/6
f 41/41/6 38/38/6 40/40/6
f 42/42/7 43/43/7 44/44/7
f 45/45/7 42/42/7 44/44/7
f 46/46/7 47/47/7 48/48/7
f 49/49/7 46/46/7 48/48/7
f 50/50/7 51/51/7 52/52/7
f 53/53/8 51/51/8 50/50/8
f 50/50/7 52/52/7 54/54/7
f 55/55/7 56/56/7 57/57/7
f 58/58/7 55/55/7 57/57/7
f 59/59/7 60/60/7 61/61/7
f 62/62/7 59/59/7 61/61/7
f 63/63/9 64/64/9 65/65/9
f 63/63/9 65/65/9 66/66/9
f 67/67/8 68/68/8 69/69/8
f 70/70/8 67/67/8 69/69/8
