# Blender v3.0.1 OBJ File: 'rockerfeller_plaza.blend'
# www.blender.org
o geometryt000010000010000110010110000110000110100000000100st36
v 419.885010 -109.483696 113.776276
v 411.199646 -104.834496 67.349411
v 421.259827 -110.219696 67.349411
v 411.199646 -104.834496 113.776276
v 421.259827 -110.219696 113.776276
v 416.971436 -92.638031 67.349411
v 410.906311 -103.952095 67.349411
v 410.906311 -103.952095 113.776276
v 416.971436 -92.638031 113.776276
v 427.659729 -97.662010 67.349411
v 417.606018 -92.264671 67.349411
v 417.606018 -92.264671 113.776276
v 427.659729 -97.662010 113.776276
v 421.448547 -84.293884 67.349411
v 420.100525 -86.807999 67.349411
v 420.100525 -86.807999 113.776276
v 421.448547 -84.293884 113.776276
v 422.973145 -81.450493 113.776276
v 422.973145 -81.450493 67.349411
v 421.625122 -83.964600 67.349411
v 421.625122 -83.964600 113.776276
v 423.823730 -79.864151 113.776276
v 423.823730 -79.864151 67.349411
v 423.149719 -81.121216 67.349411
v 423.149719 -81.121216 113.776276
v 424.674225 -78.277809 67.349411
v 424.000244 -79.534874 67.349411
v 424.000244 -79.534874 113.776276
v 424.674225 -78.277809 113.776276
v 425.524841 -76.691483 113.776276
v 425.524841 -76.691483 67.349411
v 424.850830 -77.948532 67.349411
v 424.850830 -77.948532 113.776276
v 427.049438 -73.848083 113.776276
v 427.049438 -73.848083 67.349411
v 425.701416 -76.362206 67.349411
v 425.701416 -76.362206 113.776276
v 428.574036 -71.004692 67.349411
v 427.225922 -73.518799 67.349411
v 427.225922 -73.518799 113.776276
v 428.574036 -71.004692 113.776276
v 420.272736 -87.291641 67.349411
v 430.330627 -92.680939 67.349411
v 430.330627 -92.680939 113.776276
v 420.272736 -87.291641 113.776276
v 422.220428 -109.858795 113.776276
v 422.220428 -109.858795 67.349411
v 422.895508 -108.602394 67.349411
v 422.895508 -108.602394 113.776276
v 424.178650 -108.416092 113.776276
v 424.178650 -108.416092 67.349411
v 432.977051 -113.135994 67.349411
v 432.977051 -113.135994 113.776276
v 430.341614 -93.465805 113.776276
v 430.341614 -93.465805 67.349411
v 428.321228 -97.237869 67.349411
v 428.321228 -97.237869 113.776276
v 439.294434 -76.364563 67.349411
v 429.239227 -70.970085 67.349411
v 429.239227 -70.970085 113.776276
v 439.294434 -76.364563 113.776276
v 434.330017 -112.818596 67.349411
v 438.376831 -105.277695 67.349411
v 438.376831 -105.277695 113.776276
v 434.330017 -112.818596 113.776276
v 434.766632 -86.004036 67.349411
v 439.489014 -77.206985 67.349411
v 439.489014 -77.206985 113.776276
v 434.766632 -86.004036 113.776276
v 439.015442 -89.023621 113.776276
v 439.015442 -89.023621 67.349411
v 435.245544 -86.999329 67.349411
v 435.245544 -86.999329 113.776276
v 439.115631 -104.630692 67.349411
v 440.027924 -105.119690 67.349411
v 440.027924 -105.119690 113.776276
v 439.115631 -104.630692 113.776276
v 444.824921 -80.074409 67.349411
v 440.108215 -88.874550 67.349411
v 440.108215 -88.874550 113.776276
v 444.824921 -80.074409 113.776276
v 441.102539 -107.609695 67.349411
v 442.358521 -108.285591 67.349411
v 442.358521 -108.285591 113.776276
v 441.102539 -107.609695 113.776276
v 442.850037 -109.328491 67.349411
v 441.499512 -111.841194 67.349411
v 441.499512 -111.841194 113.776276
v 442.850037 -109.328491 113.776276
v 442.147736 -112.966095 113.776276
v 442.147736 -112.966095 67.349411
v 448.433228 -116.335693 67.349411
v 448.433228 -116.335693 113.776276
v 450.635437 -82.453674 113.776276
v 450.635437 -82.453674 67.349411
v 445.606934 -79.758072 67.349411
v 445.606934 -79.758072 113.776276
v 449.620911 -95.439194 67.349411
v 445.850433 -93.415810 67.349411
v 445.850433 -93.415810 113.776276
v 449.620911 -95.439194 113.776276
v 445.926331 -92.357040 67.349411
v 450.652649 -83.562065 67.349411
v 450.652649 -83.562065 113.776276
v 445.926331 -92.357040 113.776276
v 449.467041 -116.498489 67.349411
v 450.814819 -113.984192 67.349411
v 450.814819 -113.984192 113.776276
v 449.467041 -116.498489 113.776276
v 451.001709 -113.635590 113.776276
v 451.001709 -113.635590 67.349411
v 452.349548 -111.121292 67.349411
v 452.349548 -111.121292 113.776276
v 452.536438 -110.772690 113.776276
v 452.536438 -110.772690 67.349411
v 453.210327 -109.515594 67.349411
v 453.210327 -109.515594 113.776276
v 453.397217 -109.166893 67.349411
v 454.745026 -106.652695 67.349411
v 454.745026 -106.652695 113.776276
v 453.397217 -109.166893 113.776276
v 454.931946 -106.303993 67.349411
v 456.279724 -103.789795 67.349411
v 456.279724 -103.789795 113.776276
v 454.931946 -106.303993 113.776276
v 455.186523 -85.989662 67.349411
v 450.464233 -94.786766 67.349411
v 450.464233 -94.786766 113.776276
v 455.186523 -85.989662 113.776276
v 466.151428 -90.778145 113.776276
v 466.151428 -90.778145 67.349411
v 456.100525 -85.375595 67.349411
v 456.100525 -85.375595 113.776276
v 457.164551 -103.871895 67.349411
v 458.422241 -104.544792 67.349411
v 458.422241 -104.544792 113.776276
v 457.164551 -103.871895 113.776276
v 459.307007 -104.626892 67.349411
v 460.655518 -102.112991 67.349411
v 460.655518 -102.112991 113.776276
v 459.307007 -104.626892 113.776276
v 460.922119 -101.615891 67.349411
v 462.270630 -99.102013 67.349411
v 462.270630 -99.102013 113.776276
v 460.922119 -101.615891 113.776276
v 462.537323 -98.604881 67.349411
v 463.211548 -97.347946 67.349411
v 463.211548 -97.347946 113.776276
v 462.537323 -98.604881 113.776276
v 463.478210 -96.850815 113.776276
v 463.478210 -96.850815 67.349411
v 464.826721 -94.336945 67.349411
v 464.826721 -94.336945 113.776276
v 465.093445 -93.839806 67.349411
v 466.441833 -91.325935 67.349411
v 466.441833 -91.325935 113.776276
v 465.093445 -93.839806 113.776276
vt 2.302230 13.000000
vt 0.000000 0.000000
vt 2.666670 0.000000
vt 0.000000 13.000000
vt 2.666670 13.000000
vt 0.000000 0.000000
vt 3.000000 0.000000
vt 3.000000 13.000000
vt 0.000000 13.000000
vt 0.000000 0.000000
vt 2.666670 0.000000
vt 2.666670 13.000000
vt 0.000000 13.000000
vt 0.000000 0.000000
vt 0.666670 0.000000
vt 0.666670 13.000000
vt 0.000000 13.000000
vt 0.000000 13.000000
vt 0.000000 0.000000
vt 0.666670 0.000000
vt 0.666670 13.000000
vt 0.000000 13.000000
vt 0.000000 0.000000
vt 0.333330 0.000000
vt 0.333330 13.000000
vt 0.000000 0.000000
vt 0.333330 0.000000
vt 0.333330 13.000000
vt 0.000000 13.000000
vt 0.000000 13.000000
vt 0.000000 0.000000
vt 0.333330 0.000000
vt 0.333330 13.000000
vt 0.000000 13.000000
vt 0.000000 0.000000
vt 0.666670 0.000000
vt 0.666670 13.000000
vt 0.000000 0.000000
vt 0.666670 0.000000
vt 0.666670 13.000000
vt 0.000000 13.000000
vt 0.000000 0.000000
vt 2.666670 0.000000
vt 2.666670 13.000000
vt 0.000000 13.000000
vt 0.000000 13.000000
vt 0.000000 0.000000
vt 0.333330 0.000000
vt 0.333330 13.000000
vt 0.000000 13.000000
vt 0.000000 0.000000
vt 2.333330 0.000000
vt 2.333330 13.000000
vt 0.000000 13.000000
vt 0.000000 0.000000
vt 1.000000 0.000000
vt 1.000000 13.000000
vt 0.000000 0.000000
vt 2.666670 0.000000
vt 2.666670 13.000000
vt 0.000000 13.000000
vt 0.000000 0.000000
vt 2.000000 0.000000
vt 2.000000 13.000000
vt 0.000000 13.000000
vt 0.000000 13.000000
vt 0.000000 0.000000
vt 1.000000 0.000000
vt 1.000000 13.000000
vt 0.000000 0.000000
vt 0.333330 0.000000
vt 0.333330 13.000000
vt 0.000000 13.000000
vt 0.000000 0.000000
vt 2.333330 0.000000
vt 2.333330 13.000000
vt 0.000000 13.000000
vt 0.000000 0.000000
vt 0.333330 0.000000
vt 0.333330 13.000000
vt 0.000000 13.000000
vt 0.000000 0.000000
vt 0.666670 0.000000
vt 0.666670 13.000000
vt 0.000000 13.000000
vt 0.000000 13.000000
vt 0.000000 0.000000
vt 1.666670 0.000000
vt 1.666670 13.000000
vt 0.000000 13.000000
vt 0.000000 0.000000
vt 1.333330 0.000000
vt 1.333330 13.000000
vt 0.000000 0.000000
vt 1.000000 0.000000
vt 1.000000 13.000000
vt 0.000000 13.000000
vt 0.000000 0.000000
vt 2.333330 0.000000
vt 2.333330 13.000000
vt 0.000000 13.000000
vt 0.000000 0.000000
vt 0.666670 0.000000
vt 0.666670 13.000000
vt 0.000000 13.000000
vt 0.000000 13.000000
vt 0.000000 0.000000
vt 0.666670 0.000000
vt 0.666670 13.000000
vt 0.000000 13.000000
vt 0.000000 0.000000
vt 0.333330 0.000000
vt 0.333330 13.000000
vt 0.000000 0.000000
vt 0.666670 0.000000
vt 0.666670 13.000000
vt 0.000000 13.000000
vt 0.000000 0.000000
vt 0.666670 0.000000
vt 0.666670 13.000000
vt 0.000000 13.000000
vt 0.000000 0.000000
vt 2.333330 0.000000
vt 2.333330 13.000000
vt 0.000000 13.000000
vt 0.000000 13.000000
vt 0.000000 0.000000
vt 2.666670 0.000000
vt 2.666670 13.000000
vt 0.000000 0.000000
vt 0.333330 0.000000
vt 0.333330 13.000000
vt 0.000000 13.000000
vt 0.000000 0.000000
vt 0.666670 0.000000
vt 0.666670 13.000000
vt 0.000000 13.000000
vt 0.000000 0.000000
vt 0.666670 0.000000
vt 0.666670 13.000000
vt 0.000000 13.000000
vt 0.000000 0.000000
vt 0.333330 0.000000
vt 0.333330 13.000000
vt 0.000000 13.000000
vt 0.000000 13.000000
vt 0.000000 0.000000
vt 0.666670 0.000000
vt 0.666670 13.000000
vt 0.000000 0.000000
vt 0.666670 0.000000
vt 0.666670 13.000000
vt 0.000000 13.000000
vt 0.000000 0.000000
vt 2.333330 0.000000
vt 2.333330 13.000000
vt 0.000000 13.000000
vn -0.4719 -0.8816 0.0000
vn -0.4720 -0.8816 0.0000
vn -0.8813 0.4725 0.0000
vn -0.8814 0.4725 0.0000
vn 0.4730 0.8811 0.0000
vn -0.8813 0.4726 0.0000
vn -0.4723 -0.8814 0.0000
vn 0.8809 -0.4733 0.0000
vn -0.4727 -0.8812 0.0000
vn -0.8815 0.4722 0.0000
vn 0.4727 0.8812 0.0000
vn 0.4728 0.8812 0.0000
vn 0.8811 -0.4729 0.0000
vn 0.4731 0.8810 0.0000
vn -0.4724 -0.8814 0.0000
vn -0.8814 0.4724 0.0000
vn -0.4739 -0.8806 0.0000
vn -0.8808 0.4734 0.0000
vn -0.4725 -0.8813 0.0000
vn 0.4725 0.8814 0.0000
vn 0.4729 0.8811 0.0000
vn 0.8809 -0.4734 0.0000
vn 0.8814 -0.4724 0.0000
vn 0.8814 -0.4725 0.0000
vn 0.8813 -0.4725 0.0000
vn -0.8811 0.4730 0.0000
vn 0.4735 0.8808 0.0000
vn -0.4717 -0.8817 0.0000
vn 0.8812 -0.4727 0.0000
vn 0.8811 -0.4730 0.0000
s off
f 1/1/1 2/2/1 3/3/1
f 4/4/1 2/2/1 1/1/1
f 1/1/2 3/3/2 5/5/2
f 6/6/3 7/7/3 8/8/3
f 9/9/4 6/6/4 8/8/4
f 10/10/5 11/11/5 12/12/5
f 13/13/5 10/10/5 12/12/5
f 14/14/3 15/15/3 16/16/3
f 17/17/6 14/14/6 16/16/6
f 18/18/3 19/19/3 20/20/3
f 18/18/6 20/20/6 21/21/6
f 22/22/3 23/23/3 24/24/3
f 22/22/3 24/24/3 25/25/3
f 26/26/3 27/27/3 28/28/3
f 29/29/3 26/26/3 28/28/3
f 30/30/6 31/31/6 32/32/6
f 30/30/6 32/32/6 33/33/6
f 34/34/3 35/35/3 36/36/3
f 34/34/3 36/36/3 37/37/3
f 38/38/6 39/39/6 40/40/6
f 41/41/6 38/38/6 40/40/6
f 42/42/7 43/43/7 44/44/7
f 45/45/7 42/42/7 44/44/7
f 46/46/8 47/47/8 48/48/8
f 46/46/8 48/48/8 49/49/8
f 50/50/9 51/51/9 52/52/9
f 50/50/9 52/52/9 53/53/9
f 54/54/10 55/55/10 56/56/10
f 54/54/10 56/56/10 57/57/10
f 58/58/11 59/59/11 60/60/11
f 61/61/12 58/58/12 60/60/12
f 62/62/13 63/63/13 64/64/13
f 65/65/13 62/62/13 64/64/13
f 70/66/14 71/67/14 72/68/14
f 70/66/14 72/68/14 73/69/14
f 74/70/15 75/71/15 76/72/15
f 77/73/15 74/70/15 76/72/15
f 78/74/16 79/75/16 80/76/16
f 81/77/16 78/74/16 80/76/16
f 82/78/17 83/79/17 84/80/17
f 85/81/17 82/78/17 84/80/17
f 86/82/18 87/83/18 88/84/18
f 89/85/18 86/82/18 88/84/18
f 90/86/19 91/87/19 92/88/19
f 90/86/19 92/88/19 93/89/19
f 94/90/20 95/91/20 96/92/20
f 94/90/20 96/92/20 97/93/20
f 98/94/21 99/95/21 100/96/21
f 101/97/21 98/94/21 100/96/21
f 102/98/22 103/99/22 104/100/22
f 105/101/22 102/98/22 104/100/22
f 106/102/23 107/103/23 108/104/23
f 109/105/24 106/102/24 108/104/24
f 110/106/24 111/107/24 112/108/24
f 110/106/25 112/108/25 113/109/25
f 114/110/25 115/111/25 116/112/25
f 114/110/23 116/112/23 117/113/23
f 118/114/25 119/115/25 120/116/25
f 121/117/25 118/114/25 120/116/25
f 122/118/25 123/119/25 124/120/25
f 125/121/23 122/118/23 124/120/23
f 126/122/26 127/123/26 128/124/26
f 129/125/26 126/122/26 128/124/26
f 130/126/27 131/127/27 132/128/27
f 130/126/27 132/128/27 133/129/27
f 134/130/28 135/131/28 136/132/28
f 137/133/28 134/130/28 136/132/28
f 138/134/29 139/135/29 140/136/29
f 141/137/29 138/134/29 140/136/29
f 142/138/29 143/139/29 144/140/29
f 145/141/29 142/138/29 144/140/29
f 146/142/29 147/143/29 148/144/29
f 149/145/29 146/142/29 148/144/29
f 150/146/29 151/147/29 152/148/29
f 150/146/29 152/148/29 153/149/29
f 154/150/29 155/151/29 156/152/29
f 157/153/29 154/150/29 156/152/29
s 1
f 66/154/30 67/155/30 68/156/30
f 69/157/30 66/154/30 68/156/30
