# Blender v3.0.1 OBJ File: 'rockerfeller_plaza.blend'
# www.blender.org
o geometryt000010000010000110010110000110000110100000110010st26
v 1259.415283 -148.100143 458.767853
v 1262.447754 -149.696640 458.767853
v 1245.360107 -174.810440 458.767853
v 1267.620850 -152.422638 458.767853
v 1272.666504 -155.072433 458.767853
v 1263.606201 -184.410934 458.767853
v 1277.661133 -157.700546 458.767853
v 1267.620850 -152.422638 501.167847
v 1245.360107 -174.810440 501.167847
v 1263.606201 -184.410934 501.167847
v 1262.447754 -149.696640 501.167847
v 1259.415283 -148.100143 501.167847
v 1272.666504 -155.072433 501.167847
v 1277.661133 -157.700546 501.167847
vt 0.186200 0.524540
vt 0.188140 0.530610
vt 0.239280 0.495580
vt 0.191460 0.540970
vt 0.194670 0.551080
vt 0.250940 0.532120
vt 0.197870 0.561080
vt 0.191460 0.540970
vt 0.239280 0.495580
vt 0.250940 0.532120
vt 0.188140 0.530610
vt 0.186200 0.524540
vt 0.194670 0.551080
vt 0.197870 0.561080
vn 0.0000 0.0000 -1.0000
vn 0.0000 0.0000 1.0000
s off
f 1/1/1 2/2/1 3/3/1
f 4/4/1 3/3/1 2/2/1
f 4/4/1 5/5/1 6/6/1
f 6/6/1 3/3/1 4/4/1
f 6/6/1 5/5/1 7/7/1
f 8/8/2 9/9/2 10/10/2
f 11/11/2 9/9/2 8/8/2
f 12/12/2 9/9/2 11/11/2
f 13/13/2 10/10/2 14/14/2
f 13/13/2 8/8/2 10/10/2
