# Blender v3.0.1 OBJ File: 'rockerfeller_plaza.blend'
# www.blender.org
o geometryt000010000010000110010110000110000110100000110100st99
v 794.772217 -196.989304 724.257690
v 794.772217 -196.989304 700.944946
v 792.582703 -201.149216 700.944946
v 792.582703 -201.149216 724.257690
v 796.577087 -193.560303 724.257690
v 796.577087 -193.560303 700.944946
v 795.117371 -196.333511 700.944946
v 795.117371 -196.333511 724.257690
v 798.381897 -190.131210 700.944946
v 796.922241 -192.904510 700.944946
v 796.922241 -192.904510 724.257690
v 798.381897 -190.131210 724.257690
v 800.186768 -186.702209 724.257690
v 800.186768 -186.702209 700.944946
v 798.727112 -189.475403 700.944946
v 798.727112 -189.475403 724.257690
v 801.991638 -183.273102 724.257690
v 801.991638 -183.273102 700.944946
v 800.531921 -186.046402 700.944946
v 800.531921 -186.046402 724.257690
v 804.526367 -178.457413 724.257690
v 804.526367 -178.457413 700.944946
v 802.336792 -182.617310 700.944946
v 802.336792 -182.617310 724.257690
v 792.727783 -201.614212 700.944946
v 794.116577 -202.339905 700.944946
v 794.116577 -202.339905 724.257690
v 792.727783 -201.614212 724.257690
v 795.690613 -203.162415 724.257690
v 795.252136 -202.933304 700.944946
v 796.640930 -203.659012 700.944946
v 795.252136 -202.933304 724.257690
v 796.640930 -203.659012 724.257690
v 797.776489 -204.252304 700.944946
v 799.165283 -204.978012 700.944946
v 799.165283 -204.978012 724.257690
v 797.776489 -204.252304 724.257690
v 799.632751 -204.830612 724.257690
v 799.632751 -204.830612 700.944946
v 801.822266 -200.670807 700.944946
v 801.822266 -200.670807 724.257690
v 802.876099 -198.668701 724.257690
v 802.167480 -200.015015 700.944946
v 803.627136 -197.241714 700.944946
v 802.167480 -200.015015 724.257690
v 803.627136 -197.241714 724.257690
v 803.972351 -196.585907 724.257690
v 803.972351 -196.585907 700.944946
v 805.432007 -193.812714 700.944946
v 805.432007 -193.812714 724.257690
v 805.777222 -193.156906 700.944946
v 807.236938 -190.383606 700.944946
v 807.236938 -190.383606 724.257690
v 805.777222 -193.156906 724.257690
v 807.582092 -189.727905 724.257690
v 807.582092 -189.727905 700.944946
v 809.041809 -186.954605 700.944946
v 809.041809 -186.954605 724.257690
v 809.386963 -186.298813 700.944946
v 811.576538 -182.138916 700.944946
v 811.576538 -182.138916 724.257690
v 809.386963 -186.298813 724.257690
v 806.381836 -179.037109 700.944946
v 804.992859 -178.311813 700.944946
v 804.992859 -178.311813 724.257690
v 806.381836 -179.037109 724.257690
v 808.906555 -180.355515 724.257690
v 808.906555 -180.355515 700.944946
v 807.517517 -179.630203 700.944946
v 807.517517 -179.630203 724.257690
v 811.431213 -181.673904 724.257690
v 811.431213 -181.673904 700.944946
v 810.042236 -180.948608 700.944946
v 810.042236 -180.948608 724.257690
vt 0.000000 1.750000
vt 0.000000 0.000000
vt 1.000000 0.000000
vt 1.000000 1.750000
vt 0.000000 1.750000
vt 0.000000 0.000000
vt 0.666670 0.000000
vt 0.666670 1.750000
vt 0.000000 0.000000
vt 0.666670 0.000000
vt 0.666670 1.750000
vt 0.000000 1.750000
vt 0.000000 1.750000
vt 0.000000 0.000000
vt 0.666670 0.000000
vt 0.666670 1.750000
vt 0.000000 0.000000
vt 0.333330 0.000000
vt 0.333330 1.750000
vt 0.000000 1.750000
vt 0.105240 1.750000
vt 0.000000 0.000000
vt 0.333330 0.000000
vt 0.000000 1.750000
vt 0.333330 1.750000
vt 0.000000 0.000000
vt 0.333330 0.000000
vt 0.333330 1.750000
vt 0.000000 1.750000
vt 0.000000 1.750000
vt 0.000000 0.000000
vt 1.000000 0.000000
vt 1.000000 1.750000
vt 0.323640 1.750000
vt 0.000000 0.000000
vt 0.666670 0.000000
vt 0.000000 1.750000
vt 0.666670 1.750000
vt 0.000000 1.750000
vt 0.000000 0.000000
vt 0.666670 0.000000
vt 0.666670 1.750000
vt 0.000000 0.000000
vt 0.666670 0.000000
vt 0.666670 1.750000
vt 0.000000 1.750000
vt 0.000000 0.000000
vt 1.000000 0.000000
vt 1.000000 1.750000
vt 0.000000 1.750000
vt 0.000000 0.000000
vt 0.333330 0.000000
vt 0.333330 1.750000
vt 0.000000 1.750000
vt 0.000000 1.750000
vt 0.000000 0.000000
vt 0.333330 0.000000
vt 0.333330 1.750000
vt 0.000000 1.750000
vt 0.000000 0.000000
vt 0.333330 0.000000
vt 0.333330 1.750000
vt 0.000000 1.750000
vt 0.000000 0.000000
vt 0.666670 0.000000
vt 0.666670 1.750000
vt 0.000000 1.750000
vt 0.000000 0.000000
vt 1.000000 0.000000
vt 1.000000 1.750000
vt 0.000000 1.750000
vt 0.000000 0.000000
vt 0.666670 0.000000
vt 0.666670 1.750000
vn -0.8849 0.4658 0.0000
vn -0.8849 0.4657 0.0000
vn -0.4631 -0.8863 0.0000
vn 0.8849 -0.4658 0.0000
vn 0.8849 -0.4657 -0.0000
vn 0.4629 0.8864 0.0000
vn 0.4628 0.8864 0.0000
s off
f 1/1/1 2/2/1 3/3/1
f 1/1/1 3/3/1 4/4/1
f 5/5/1 6/6/1 7/7/1
f 5/5/1 7/7/1 8/8/1
f 9/9/1 10/10/1 11/11/1
f 12/12/2 9/9/2 11/11/2
f 13/13/1 14/14/1 15/15/1
f 13/13/1 15/15/1 16/16/1
f 25/17/3 26/18/3 27/19/3
f 28/20/3 25/17/3 27/19/3
f 29/21/3 30/22/3 31/23/3
f 32/24/3 30/22/3 29/21/3
f 29/21/3 31/23/3 33/25/3
f 34/26/3 35/27/3 36/28/3
f 37/29/3 34/26/3 36/28/3
f 38/30/4 39/31/4 40/32/4
f 38/30/4 40/32/4 41/33/4
f 42/34/5 43/35/5 44/36/5
f 45/37/4 43/35/4 42/34/4
f 42/34/4 44/36/4 46/38/4
f 47/39/4 48/40/4 49/41/4
f 47/39/4 49/41/4 50/42/4
f 51/43/4 52/44/4 53/45/4
f 54/46/5 51/43/5 53/45/5
f 59/47/4 60/48/4 61/49/4
f 62/50/4 59/47/4 61/49/4
f 63/51/6 64/52/6 65/53/6
f 66/54/6 63/51/6 65/53/6
f 67/55/6 68/56/6 69/57/6
f 67/55/6 69/57/6 70/58/6
f 71/59/6 72/60/6 73/61/6
f 71/59/7 73/61/7 74/62/7
s 1
f 17/63/1 18/64/2 19/65/2
f 17/63/1 19/65/2 20/66/1
f 21/67/1 22/68/1 23/69/1
f 21/67/1 23/69/1 24/70/1
f 55/71/4 56/72/5 57/73/5
f 55/71/4 57/73/5 58/74/4
