# Blender v3.0.1 OBJ File: 'rockerfeller_plaza.blend'
# www.blender.org
o geometryt000010000010000110010110000110000110100000010100st63
v 797.220398 -67.103104 168.742920
v 797.220398 -67.103104 148.579712
v 796.397583 -68.616165 148.579712
v 796.397583 -68.616165 168.742920
v 795.723938 -70.577057 168.742920
v 795.723938 -70.577057 148.579712
v 797.238220 -71.397598 148.579712
v 797.238220 -71.397598 168.742920
v 798.163513 -71.898941 168.742920
v 798.163513 -71.898941 148.579712
v 799.677795 -72.719482 148.579712
v 799.677795 -72.719482 168.742920
v 800.603027 -73.220833 168.742920
v 800.603027 -73.220833 148.579712
v 802.117371 -74.041374 148.579712
v 802.117371 -74.041374 168.742920
v 800.841553 -60.470242 168.742920
v 800.841553 -60.470242 148.579712
v 798.362915 -65.003853 148.579712
v 798.362915 -65.003853 168.742920
v 802.516296 -57.406982 148.579712
v 801.690063 -58.918190 148.579712
v 801.690063 -58.918190 168.742920
v 802.516296 -57.406982 168.742920
v 805.017273 -52.832520 148.579712
v 803.364868 -55.854931 148.579712
v 803.364868 -55.854931 168.742920
v 805.017273 -52.832520 168.742920
v 806.692017 -49.769260 148.579712
v 805.865845 -51.280460 148.579712
v 805.865845 -51.280460 168.742920
v 806.692017 -49.769260 168.742920
v 809.029541 -45.493790 168.742920
v 810.019226 -43.683590 148.579712
v 807.540588 -48.217201 148.579712
v 810.019226 -43.683590 168.742920
v 807.540588 -48.217201 168.742920
v 802.585449 -73.902618 148.579712
v 805.052795 -69.362862 148.579712
v 805.052795 -69.362862 168.742920
v 802.585449 -73.902618 168.742920
v 805.972900 -67.669952 148.579712
v 808.440308 -63.130199 148.579712
v 808.440308 -63.130199 168.742920
v 805.972900 -67.669952 168.742920
v 809.360352 -61.437302 148.579712
v 810.182861 -59.924049 148.579712
v 810.182861 -59.924049 168.742920
v 809.360352 -61.437302 168.742920
v 811.102905 -58.231152 148.579712
v 813.570312 -53.691402 148.579712
v 813.570312 -53.691402 168.742920
v 811.102905 -58.231152 168.742920
v 814.490417 -51.998501 168.742920
v 814.490417 -51.998501 148.579712
v 816.957764 -47.458740 148.579712
v 816.957764 -47.458740 168.742920
v 811.946716 -44.339451 168.742920
v 811.946716 -44.339451 148.579712
v 810.433838 -43.516293 148.579712
v 810.433838 -43.516293 168.742920
v 814.383118 -45.665092 148.579712
v 812.870239 -44.841930 148.579712
v 812.870239 -44.841930 168.742920
v 814.383118 -45.665092 168.742920
v 816.819519 -46.990730 148.579712
v 815.306641 -46.167580 148.579712
v 815.306641 -46.167580 168.742920
v 816.819519 -46.990730 168.742920
vt 0.000000 1.500000
vt 0.000000 0.000000
vt 0.250000 0.000000
vt 0.250000 1.500000
vt 0.000000 1.500000
vt 0.000000 0.000000
vt 0.250000 0.000000
vt 0.250000 1.500000
vt 0.000000 1.500000
vt 0.000000 0.000000
vt 0.250000 0.000000
vt 0.250000 1.500000
vt 0.000000 1.500000
vt 0.000000 0.000000
vt 0.250000 0.000000
vt 0.250000 1.500000
vt 0.000000 1.500000
vt 0.000000 0.000000
vt 0.750000 0.000000
vt 0.750000 1.500000
vt 0.000000 0.000000
vt 0.250000 0.000000
vt 0.250000 1.500000
vt 0.000000 1.500000
vt 0.000000 0.000000
vt 0.500000 0.000000
vt 0.500000 1.500000
vt 0.000000 1.500000
vt 0.299460 1.500000
vt 0.000000 0.000000
vt 0.750000 0.000000
vt 0.000000 1.500000
vt 0.000000 0.000000
vt 0.750000 0.000000
vt 0.750000 1.500000
vt 0.000000 1.500000
vt 0.000000 0.000000
vt 0.750000 0.000000
vt 0.750000 1.500000
vt 0.000000 1.500000
vt 0.000000 0.000000
vt 0.250000 0.000000
vt 0.250000 1.500000
vt 0.000000 1.500000
vt 0.000000 0.000000
vt 0.750000 0.000000
vt 0.750000 1.500000
vt 0.000000 1.500000
vt 0.000000 1.500000
vt 0.000000 0.000000
vt 0.750000 0.000000
vt 0.750000 1.500000
vt 0.000000 1.500000
vt 0.000000 0.000000
vt 0.250000 0.000000
vt 0.250000 1.500000
vt 0.000000 0.000000
vt 0.250000 0.000000
vt 0.250000 1.500000
vt 0.000000 1.500000
vt 0.000000 0.000000
vt 0.250000 0.000000
vt 0.250000 1.500000
vt 0.000000 1.500000
vt 0.000000 0.000000
vt 0.250000 0.000000
vt 0.250000 1.500000
vt 0.000000 1.500000
vt 0.750000 1.500000
vn -0.8785 0.4778 0.0000
vn -0.8785 0.4777 0.0000
vn -0.4764 -0.8792 0.0000
vn -0.8774 0.4797 0.0000
vn 0.8786 -0.4775 0.0000
vn 0.8786 -0.4776 0.0000
vn 0.4780 0.8784 0.0000
vn 0.4779 0.8784 0.0000
s off
f 1/1/1 2/2/1 3/3/1
f 1/1/2 3/3/2 4/4/2
f 5/5/3 6/6/3 7/7/3
f 5/5/3 7/7/3 8/8/3
f 9/9/3 10/10/3 11/11/3
f 9/9/3 11/11/3 12/12/3
f 13/13/3 14/14/3 15/15/3
f 13/13/3 15/15/3 16/16/3
f 17/17/4 18/18/4 19/19/4
f 17/17/4 19/19/4 20/20/4
f 21/21/4 22/22/4 23/23/4
f 24/24/4 21/21/4 23/23/4
f 25/25/4 26/26/4 27/27/4
f 28/28/4 25/25/4 27/27/4
f 33/29/4 34/30/4 35/31/4
f 36/32/4 34/30/4 33/29/4
f 38/33/5 39/34/5 40/35/5
f 41/36/5 38/33/5 40/35/5
f 42/37/5 43/38/5 44/39/5
f 45/40/5 42/37/5 44/39/5
f 46/41/5 47/42/5 48/43/5
f 49/44/6 46/41/6 48/43/6
f 50/45/5 51/46/5 52/47/5
f 53/48/5 50/45/5 52/47/5
f 54/49/5 55/50/5 56/51/5
f 54/49/5 56/51/5 57/52/5
f 58/53/7 59/54/7 60/55/7
f 58/53/8 60/55/8 61/56/8
f 62/57/8 63/58/8 64/59/8
f 65/60/8 62/57/8 64/59/8
f 66/61/8 67/62/8 68/63/8
f 69/64/7 66/61/7 68/63/7
s 1
f 29/65/4 30/66/4 31/67/4
f 32/68/4 29/65/4 31/67/4
f 33/29/4 35/31/4 37/69/4
