# Blender v3.0.1 OBJ File: 'rockerfeller_plaza.blend'
# www.blender.org
o geometryt000010000010000110010110000110000100110010110110st131
v 266.228668 -233.272018 585.809326
v 266.228668 -233.272018 568.768127
v 252.238190 -259.223450 568.768127
v 252.238190 -259.223450 585.809326
v 252.962784 -260.010834 585.809326
v 252.962784 -260.010834 568.768127
v 260.042297 -263.822937 568.768127
v 260.042297 -263.822937 585.809326
v 261.414581 -263.409149 568.768127
v 274.773468 -238.639725 568.768127
v 274.773468 -238.639725 585.809326
v 261.414581 -263.409149 585.809326
v 274.362885 -237.264816 585.809326
v 274.362885 -237.264816 568.768127
v 267.287079 -233.445831 568.768127
v 267.287079 -233.445831 585.809326
vt 0.000000 5.000000
vt 0.000000 0.000000
vt 7.333330 0.000000
vt 7.333330 5.000000
vt 0.000000 5.000000
vt 0.000000 0.000000
vt 2.000000 0.000000
vt 2.000000 5.000000
vt 0.000000 0.000000
vt 7.000000 0.000000
vt 7.000000 5.000000
vt 0.000000 5.000000
vt 0.000000 5.000000
vt 0.000000 0.000000
vt 2.000000 0.000000
vt 2.000000 5.000000
vn -0.8802 0.4745 0.0000
vn -0.4741 -0.8805 0.0000
vn 0.8802 -0.4747 0.0000
vn 0.4750 0.8800 0.0000
s off
f 1/1/1 2/2/1 3/3/1
f 1/1/1 3/3/1 4/4/1
f 5/5/2 6/6/2 7/7/2
f 5/5/2 7/7/2 8/8/2
f 9/9/3 10/10/3 11/11/3
f 12/12/3 9/9/3 11/11/3
f 13/13/4 14/14/4 15/15/4
f 13/13/4 15/15/4 16/16/4
