# Blender v3.0.1 OBJ File: 'rockerfeller_plaza.blend'
# www.blender.org
o geometryt000010000010000110010110000110000110100100000000st94_C
v 454.474030 -78.748672 888.627930
v 446.819427 -92.997543 888.627930
v 446.819427 -92.997543 957.630127
v 454.474030 -78.748672 957.630127
v 446.638123 -94.104958 888.627930
v 462.211823 -102.400284 888.627930
v 462.211823 -102.400284 957.630127
v 446.638123 -94.104958 957.630127
v 470.869141 -86.271255 957.630127
v 470.869141 -86.271255 888.627930
v 455.292847 -77.980736 888.627930
v 455.292847 -77.980736 957.630127
v 463.036926 -101.632584 888.627930
v 470.681519 -87.378403 888.627930
v 470.681519 -87.378403 957.630127
v 463.036926 -101.632584 957.630127
vt 0.000000 0.000000
vt 1.833330 0.000000
vt 1.833330 4.200000
vt 0.000000 4.200000
vt 0.000000 0.000000
vt 2.000000 0.000000
vt 2.000000 4.200000
vt 0.000000 4.200000
vt 0.000000 0.000000
vt 1.833330 0.000000
vt 1.833330 4.200000
vt 0.000000 4.200000
vt 0.000000 4.200000
vt 0.000000 0.000000
vt 2.000000 0.000000
vt 2.000000 4.200000
vn -0.8809 0.4732 0.0000
vn -0.4701 -0.8826 0.0000
vn 0.8813 -0.4726 0.0000
vn 0.4698 0.8827 0.0000
s off
f 1/1/1 2/2/1 3/3/1
f 4/4/1 1/1/1 3/3/1
f 5/5/2 6/6/2 7/7/2
f 8/8/2 5/5/2 7/7/2
f 13/9/3 14/10/3 15/11/3
f 16/12/3 13/9/3 15/11/3
s 1
f 9/13/4 10/14/4 11/15/4
f 9/13/4 11/15/4 12/16/4
