# Blender v3.0.1 OBJ File: 'rockerfeller_plaza.blend'
# www.blender.org
o geometryt000010000010000110010110000110000110100000010110st74
v 1034.248413 -50.896748 189.404205
v 1034.084229 -51.200188 258.957947
v 1034.248413 -50.896748 258.957947
v 1035.795776 -48.036865 189.404205
v 1034.084229 -51.200188 188.857956
v 1035.795776 -48.036865 258.957947
v 1036.551025 -46.640877 258.957947
v 1036.551025 -46.640877 189.404205
v 1038.098389 -43.780998 189.404205
v 1038.098389 -43.780998 258.957947
v 1038.853638 -42.385017 258.957947
v 1038.853638 -42.385017 189.404205
v 1042.867676 -34.965836 188.857956
v 1040.400879 -39.525139 189.404205
v 1040.400879 -39.525139 258.957947
v 1041.156250 -38.129147 258.957947
v 1041.156250 -38.129147 189.404205
v 1042.703491 -35.269268 189.404205
v 1042.703491 -35.269268 258.957947
v 1042.867676 -34.965836 258.957947
v 1060.226807 -65.348297 189.404205
v 1060.530273 -65.512505 258.957947
v 1060.226807 -65.348297 258.957947
v 1057.367188 -63.800655 189.404205
v 1060.530273 -65.512505 188.857956
v 1057.367188 -63.800655 258.957947
v 1056.818237 -63.503586 258.957947
v 1056.818237 -63.503586 189.404205
v 1053.958496 -61.955948 189.404205
v 1053.958496 -61.955948 258.957947
v 1053.409546 -61.658867 258.957947
v 1053.409546 -61.658867 189.404205
v 1050.549927 -60.111229 189.404205
v 1050.549927 -60.111229 258.957947
v 1050.000977 -59.814148 258.957947
v 1050.000977 -59.814148 189.404205
v 1048.571045 -59.040329 189.404205
v 1048.571045 -59.040329 258.957947
v 1048.022217 -58.743256 258.957947
v 1048.022217 -58.743256 189.404205
v 1046.592285 -57.969437 189.404205
v 1046.592285 -57.969437 258.957947
v 1046.043457 -57.672356 258.957947
v 1046.043457 -57.672356 189.404205
v 1034.084229 -51.200188 188.857956
v 1044.613525 -56.898537 189.404205
v 1044.613525 -56.898537 258.957947
v 1044.064575 -56.601467 258.957947
v 1044.064575 -56.601467 189.404205
v 1041.204956 -55.053825 189.404205
v 1041.204956 -55.053825 258.957947
v 1040.656006 -54.756748 258.957947
v 1040.656006 -54.756748 189.404205
v 1037.796265 -53.209106 189.404205
v 1037.796265 -53.209106 258.957947
v 1037.247314 -52.912025 258.957947
v 1037.247314 -52.912025 189.404205
v 1034.387695 -51.364388 189.404205
v 1034.387695 -51.364388 258.957947
v 1034.084229 -51.200188 258.957947
v 1043.171143 -35.130035 189.404205
v 1042.867676 -34.965836 258.957947
v 1043.171143 -35.130035 258.957947
v 1046.030884 -36.677677 189.404205
v 1042.867676 -34.965836 188.857956
v 1046.030884 -36.677677 258.957947
v 1046.579712 -36.974758 258.957947
v 1046.579712 -36.974758 189.404205
v 1049.439453 -38.522396 189.404205
v 1049.439453 -38.522396 258.957947
v 1049.988403 -38.819466 258.957947
v 1049.988403 -38.819466 189.404205
v 1052.848022 -40.367107 189.404205
v 1052.848022 -40.367107 258.957947
v 1053.396973 -40.664177 258.957947
v 1053.396973 -40.664177 189.404205
v 1054.826904 -41.437996 189.404205
v 1054.826904 -41.437996 258.957947
v 1055.375732 -41.735065 258.957947
v 1055.375732 -41.735065 189.404205
v 1056.805664 -42.508888 189.404205
v 1056.805664 -42.508888 258.957947
v 1057.354492 -42.805965 258.957947
v 1057.354492 -42.805965 189.404205
v 1069.313721 -49.278126 188.857956
v 1058.784424 -43.579788 189.404205
v 1058.784424 -43.579788 258.957947
v 1059.333374 -43.876858 258.957947
v 1059.333374 -43.876858 189.404205
v 1062.192993 -45.424496 189.404205
v 1062.192993 -45.424496 258.957947
v 1062.741943 -45.721565 258.957947
v 1062.741943 -45.721565 189.404205
v 1065.601685 -47.269207 189.404205
v 1065.601685 -47.269207 258.957947
v 1066.150635 -47.566277 258.957947
v 1066.150635 -47.566277 189.404205
v 1069.010254 -49.113918 189.404205
v 1069.010254 -49.113918 258.957947
v 1069.313721 -49.278126 258.957947
v 1069.149536 -49.581566 189.404205
v 1069.313721 -49.278126 258.957947
v 1069.149536 -49.581566 258.957947
v 1067.602173 -52.441448 189.404205
v 1069.313721 -49.278126 188.857956
v 1067.602173 -52.441448 258.957947
v 1066.846924 -53.837437 258.957947
v 1066.846924 -53.837437 189.404205
v 1065.299683 -56.697315 189.404205
v 1065.299683 -56.697315 258.957947
v 1064.544312 -58.093319 258.957947
v 1064.544312 -58.093319 189.404205
v 1062.997070 -60.953197 189.404205
v 1060.530273 -65.512505 188.857956
v 1062.997070 -60.953197 258.957947
v 1062.241699 -62.349186 258.957947
v 1062.241699 -62.349186 189.404205
v 1060.694458 -65.209076 189.404205
v 1060.694458 -65.209076 258.957947
v 1060.530273 -65.512505 258.957947
vt 21.209780 0.639640
vt 21.613770 82.084297
vt 21.209780 82.084297
vt 17.402250 0.639640
vt 21.613770 0.000000
vt 17.402250 82.084297
vt 15.543690 82.084297
vt 15.543690 0.639640
vt 11.736160 0.639640
vt 11.736160 82.084297
vt 9.877600 82.084297
vt 9.877600 0.639640
vt 0.000000 0.000000
vt 6.070070 0.639640
vt 6.070070 82.084297
vt 4.211510 82.084297
vt 4.211510 0.639640
vt 0.403980 82.084297
vt 0.000000 82.084297
vt 0.403980 0.639640
vt 34.807381 0.639640
vt 35.211361 82.084297
vt 34.807381 82.084297
vt 30.999861 0.639640
vt 35.211361 0.000000
vt 30.999861 82.084297
vt 30.268990 82.084297
vt 30.268990 0.639640
vt 26.461460 0.639640
vt 26.461460 82.084297
vt 25.730591 82.084297
vt 25.730591 0.639640
vt 21.923059 0.639640
vt 21.923059 82.084297
vt 21.192200 82.084297
vt 21.192200 0.639640
vt 19.288429 0.639640
vt 19.288429 82.084297
vt 18.557570 82.084297
vt 18.557570 0.639640
vt 16.653799 0.639640
vt 16.653799 82.084297
vt 15.922930 82.084297
vt 15.922930 0.639640
vt 0.000000 0.000000
vt 14.019170 0.639640
vt 14.019170 82.084297
vt 13.288300 82.084297
vt 13.288300 0.639640
vt 9.480771 0.639640
vt 9.480771 82.084297
vt 8.749911 82.084297
vt 8.749911 0.639640
vt 4.942380 0.639640
vt 4.942380 82.084297
vt 4.211510 82.084297
vt 4.211510 0.639640
vt 0.403980 0.639640
vt 0.403980 82.084297
vt 0.000000 82.084297
vt 34.807331 0.639640
vt 35.211311 82.084297
vt 34.807331 82.084297
vt 30.999800 0.639640
vt 35.211311 0.000000
vt 30.999800 82.084297
vt 30.268940 82.084297
vt 30.268940 0.639640
vt 26.461411 0.639640
vt 26.461411 82.084297
vt 25.730551 82.084297
vt 25.730551 0.639640
vt 21.923019 0.639640
vt 21.923019 82.084297
vt 21.192160 82.084297
vt 21.192160 0.639640
vt 19.288389 0.639640
vt 19.288389 82.084297
vt 18.557541 82.084297
vt 18.557541 0.639640
vt 16.653770 0.639640
vt 16.653770 82.084297
vt 15.922910 82.084297
vt 15.922910 0.639640
vt 0.000000 0.000000
vt 14.019150 0.639640
vt 14.019150 82.084297
vt 13.288290 82.084297
vt 13.288290 0.639640
vt 9.480760 0.639640
vt 9.480760 82.084297
vt 8.749900 82.084297
vt 8.749900 0.639640
vt 4.942370 0.639640
vt 4.942370 82.084297
vt 4.211510 82.084297
vt 4.211510 0.639640
vt 0.403980 0.639640
vt 0.403980 82.084297
vt 0.000000 82.084297
vt 21.209789 0.639640
vt 21.613779 82.084297
vt 21.209789 82.084297
vt 17.402269 0.639640
vt 21.613779 0.000000
vt 17.402269 82.084297
vt 15.543700 82.084297
vt 15.543700 0.639640
vt 11.736170 0.639640
vt 11.736170 82.084297
vt 9.877611 82.084297
vt 9.877611 0.639640
vt 6.070080 0.639640
vt 0.000000 0.000000
vt 6.070080 82.084297
vt 4.211510 82.084297
vt 4.211510 0.639640
vt 0.403980 0.639640
vt 0.403980 82.084297
vt 0.000000 82.084297
vn -0.8795 0.4760 0.0000
vn -0.8795 0.4759 0.0000
vn -0.8797 0.4755 0.0000
vn -0.8795 0.4758 0.0000
vn -0.8795 0.4758 0.0002
vn -0.8796 0.4758 -0.0001
vn -0.8796 0.4757 0.0000
vn -0.8796 0.4757 -0.0002
vn -0.8795 0.4759 0.0001
vn -0.8795 0.4758 -0.0002
vn -0.8795 0.4760 0.0004
vn -0.4759 -0.8795 0.0000
vn -0.4760 -0.8795 -0.0001
vn -0.4760 -0.8794 0.0000
vn -0.4761 -0.8794 0.0001
vn -0.4760 -0.8795 0.0001
vn -0.4760 -0.8795 -0.0002
vn -0.4763 -0.8793 0.0004
vn -0.4761 -0.8794 0.0005
vn -0.4762 -0.8793 -0.0018
vn -0.4758 -0.8795 0.0005
vn -0.4762 -0.8793 0.0025
vn -0.4761 -0.8794 -0.0005
vn -0.4757 -0.8796 0.0000
vn -0.4762 -0.8793 0.0000
vn -0.4760 -0.8795 0.0002
vn -0.4759 -0.8795 -0.0002
vn -0.4760 -0.8795 0.0000
vn -0.4761 -0.8794 -0.0001
vn -0.4761 -0.8794 0.0000
vn -0.4758 -0.8795 0.0000
vn 0.4758 0.8795 0.0000
vn 0.4760 0.8794 -0.0000
vn 0.4761 0.8794 0.0000
vn 0.4761 0.8794 -0.0008
vn 0.4759 0.8795 0.0001
vn 0.4757 0.8796 0.0000
vn 0.4762 0.8793 0.0004
vn 0.4760 0.8795 -0.0003
vn 0.4762 0.8793 0.0005
vn 0.4758 0.8795 0.0005
vn 0.4762 0.8793 -0.0019
vn 0.4761 0.8794 0.0005
vn 0.4762 0.8793 0.0018
vn 0.4760 0.8795 -0.0000
vn 0.4758 0.8795 -0.0004
vn 0.4759 0.8795 0.0000
vn 0.4762 0.8793 -0.0004
vn 0.4760 0.8795 0.0002
vn 0.4762 0.8793 -0.0002
vn 0.4760 0.8795 -0.0001
vn 0.4759 0.8795 -0.0001
vn 0.4760 0.8795 0.0001
vn 0.8795 -0.4760 0.0000
vn 0.8795 -0.4758 0.0000
vn 0.8796 -0.4758 0.0000
vn 0.8795 -0.4758 0.0002
vn 0.8796 -0.4758 0.0002
vn 0.8794 -0.4760 -0.0004
vn 0.8795 -0.4758 -0.0002
vn 0.8795 -0.4759 0.0001
vn 0.8795 -0.4758 0.0004
vn 0.8797 -0.4756 0.0000
s off
f 1/1/1 2/2/1 3/3/1
f 4/4/2 5/5/2 1/1/2
f 2/2/3 1/1/3 5/5/3
f 6/6/4 7/7/4 4/4/4
f 7/7/4 8/8/4 4/4/4
f 8/8/5 5/5/5 4/4/5
f 8/8/6 9/9/6 5/5/6
f 10/10/1 11/11/1 9/9/1
f 11/11/7 12/12/7 9/9/7
f 12/12/8 13/13/8 9/9/8
f 9/9/9 13/13/9 5/5/9
f 14/14/10 13/13/10 12/12/10
f 15/15/1 16/16/1 14/14/1
f 16/16/4 17/17/4 14/14/4
f 17/17/11 13/13/11 14/14/11
f 19/18/1 20/19/1 18/20/1
f 20/19/4 13/13/4 18/20/4
f 21/21/12 22/22/12 23/23/12
f 24/24/13 25/25/13 21/21/13
f 22/22/12 21/21/12 25/25/12
f 26/26/14 27/27/14 24/24/14
f 27/27/12 28/28/12 24/24/12
f 28/28/15 25/25/15 24/24/15
f 28/28/16 29/29/16 25/25/16
f 30/30/14 31/31/14 29/29/14
f 31/31/12 32/32/12 29/29/12
f 29/29/12 32/32/12 25/25/12
f 32/32/17 33/33/17 25/25/17
f 34/34/12 35/35/12 33/33/12
f 35/35/14 36/36/14 33/33/14
f 33/33/18 36/36/18 25/25/18
f 36/36/19 37/37/19 25/25/19
f 38/38/14 39/39/14 37/37/14
f 39/39/14 40/40/14 37/37/14
f 37/37/20 40/40/20 25/25/20
f 40/40/21 41/41/21 25/25/21
f 42/42/14 43/43/14 41/41/14
f 43/43/14 44/44/14 41/41/14
f 44/44/22 45/45/22 41/41/22
f 41/41/12 45/45/12 25/25/12
f 46/46/23 45/45/23 44/44/23
f 47/47/14 48/48/14 46/46/14
f 48/48/24 49/49/24 46/46/24
f 49/49/25 45/45/25 46/46/25
f 50/50/26 45/45/26 49/49/26
f 51/51/24 52/52/24 50/50/24
f 52/52/14 53/53/14 50/50/14
f 53/53/27 45/45/27 50/50/27
f 54/54/28 45/45/28 53/53/28
f 55/55/12 56/56/12 54/54/12
f 56/56/14 57/57/14 54/54/14
f 57/57/29 45/45/29 54/54/29
f 58/58/16 45/45/16 57/57/16
f 59/59/30 60/60/30 58/58/30
f 60/60/31 45/45/31 58/58/31
f 61/61/32 62/62/32 63/63/32
f 64/64/33 65/65/33 61/61/33
f 62/62/34 61/61/34 65/65/34
f 66/66/33 67/67/33 64/64/33
f 67/67/33 68/68/33 64/64/33
f 68/68/35 65/65/35 64/64/35
f 68/68/36 69/69/36 65/65/36
f 70/70/33 71/71/33 69/69/33
f 71/71/37 72/72/37 69/69/37
f 69/69/38 72/72/38 65/65/38
f 72/72/39 73/73/39 65/65/39
f 74/74/37 75/75/37 73/73/37
f 75/75/33 76/76/33 73/73/33
f 73/73/40 76/76/40 65/65/40
f 76/76/41 77/77/41 65/65/41
f 78/78/33 79/79/33 77/77/33
f 79/79/33 80/80/33 77/77/33
f 77/77/42 80/80/42 65/65/42
f 80/80/43 81/81/43 65/65/43
f 82/82/33 83/83/33 81/81/33
f 83/83/33 84/84/33 81/81/33
f 84/84/44 85/85/44 81/81/44
f 81/81/45 85/85/45 65/65/45
f 86/86/46 85/85/46 84/84/46
f 87/87/33 88/88/33 86/86/33
f 88/88/47 89/89/47 86/86/47
f 89/89/48 85/85/48 86/86/48
f 90/90/49 85/85/49 89/89/49
f 91/91/47 92/92/47 90/90/47
f 92/92/33 93/93/33 90/90/33
f 93/93/50 85/85/50 90/90/50
f 94/94/51 85/85/51 93/93/51
f 95/95/47 96/96/47 94/94/47
f 96/96/33 97/97/33 94/94/33
f 97/97/52 85/85/52 94/94/52
f 98/98/53 85/85/53 97/97/53
f 99/99/47 100/100/47 98/98/47
f 100/100/45 85/85/45 98/98/45
f 101/101/54 102/102/54 103/103/54
f 104/104/55 105/105/55 101/101/55
f 102/102/56 101/101/56 105/105/56
f 106/106/55 107/107/55 104/104/55
f 107/107/55 108/108/55 104/104/55
f 108/108/57 105/105/57 104/104/57
f 108/108/58 109/109/58 105/105/58
f 110/110/55 111/111/55 109/109/55
f 111/111/54 112/112/54 109/109/54
f 109/109/59 112/112/59 105/105/59
f 113/113/60 114/114/60 112/112/60
f 112/112/61 114/114/61 105/105/61
f 115/115/55 116/116/55 113/113/55
f 116/116/54 117/117/54 113/113/54
f 117/117/62 114/114/62 113/113/62
f 118/118/55 114/114/55 117/117/55
f 119/119/54 120/120/54 118/118/54
f 120/120/63 114/114/63 118/118/63
s 1
f 18/20/4 13/13/4 17/17/4
