# Blender v3.0.1 OBJ File: 'rockerfeller_plaza.blend'
# www.blender.org
o geometryt000010000010000110010110000110000110100000100110st3
v 587.862122 -285.804504 705.274780
v 587.862122 -285.804504 657.234253
v 583.039978 -294.747894 657.234253
v 583.039978 -294.747894 705.274780
v 583.036011 -295.650421 705.274780
v 583.036011 -295.650421 657.234253
v 585.720093 -297.095123 657.234253
v 585.720093 -297.095123 705.274780
v 585.106445 -300.283295 657.234253
v 607.460510 -312.346802 657.234253
v 607.460510 -312.346802 705.274780
v 585.106445 -300.283295 705.274780
v 585.841125 -297.765320 705.274780
v 585.841125 -297.765320 657.234253
v 584.876099 -299.553711 657.234253
v 584.876099 -299.553711 705.274780
v 614.585938 -299.322601 657.234253
v 588.655823 -285.327820 657.234253
v 588.655823 -285.327820 705.274780
v 614.585938 -299.322601 705.274780
v 608.332947 -311.887512 705.274780
v 608.332947 -311.887512 657.234253
v 614.612549 -300.266998 657.234253
v 614.612549 -300.266998 705.274780
vt 0.000000 11.000000
vt 0.000000 0.000000
vt 3.333330 0.000000
vt 3.333330 11.000000
vt 0.000000 0.000000
vt 8.333331 0.000000
vt 8.333331 11.000000
vt 0.000000 11.000000
vt 0.000000 11.000000
vt 0.000000 0.000000
vt 0.666670 0.000000
vt 0.666670 11.000000
vt 0.000000 0.000000
vt 9.666670 0.000000
vt 9.666670 11.000000
vt 0.000000 11.000000
vt 0.000000 11.000000
vt 0.000000 0.000000
vt 4.333330 0.000000
vt 4.333330 11.000000
vt 0.000000 11.000000
vt 0.000000 0.000000
vt 1.000000 0.000000
vt 1.000000 11.000000
vn -0.8802 0.4746 0.0000
vn -0.4749 -0.8800 0.0000
vn -0.8801 0.4749 0.0000
vn -0.8800 0.4749 0.0000
vn 0.4750 0.8800 0.0000
vn 0.8798 -0.4754 0.0000
vn -0.4740 -0.8806 0.0000
s off
f 1/1/1 2/2/1 3/3/1
f 1/1/1 3/3/1 4/4/1
f 9/5/2 10/6/2 11/7/2
f 12/8/2 9/5/2 11/7/2
f 13/9/3 14/10/3 15/11/3
f 13/9/4 15/11/4 16/12/4
f 17/13/5 18/14/5 19/15/5
f 20/16/5 17/13/5 19/15/5
f 21/17/6 22/18/6 23/19/6
f 21/17/6 23/19/6 24/20/6
s 1
f 5/21/7 6/22/7 7/23/7
f 5/21/7 7/23/7 8/24/7
