# Blender v3.0.1 OBJ File: 'rockerfeller_plaza.blend'
# www.blender.org
o geometryt000010000010000110010110000110000110100000110000st23
v 884.103638 -259.698853 424.252106
v 878.269653 -270.502838 424.252106
v 880.382568 -257.688324 424.252106
v 861.468567 -281.956635 424.252106
v 869.692261 -286.390350 424.252106
v 871.698547 -262.996643 424.252106
v 875.871460 -255.254135 424.252106
v 880.382568 -257.688324 450.852081
v 875.871460 -255.254135 450.852081
v 871.698547 -262.996643 450.852081
v 878.269653 -270.502838 450.852081
v 884.103638 -259.698853 450.852081
v 861.468567 -281.956635 450.852081
v 869.692261 -286.390350 450.852081
vt 0.429570 0.266490
vt 0.451090 0.254470
vt 0.427100 0.259030
vt 0.477270 0.220340
vt 0.482730 0.236810
vt 0.439520 0.241410
vt 0.424100 0.250000
vt 0.427100 0.259030
vt 0.424100 0.250000
vt 0.439520 0.241410
vt 0.451090 0.254470
vt 0.429570 0.266490
vt 0.477270 0.220340
vt 0.482730 0.236810
vn 0.0000 0.0000 -1.0000
vn 0.0000 0.0000 1.0000
s off
f 1/1/1 2/2/1 3/3/1
f 4/4/1 2/2/1 5/5/1
f 6/6/1 2/2/1 4/4/1
f 3/3/1 2/2/1 6/6/1
f 3/3/1 6/6/1 7/7/1
f 8/8/2 9/9/2 10/10/2
f 10/10/2 11/11/2 8/8/2
f 11/11/2 12/12/2 8/8/2
f 10/10/2 13/13/2 11/11/2
f 13/13/2 14/14/2 11/11/2
