# Blender v3.0.1 OBJ File: 'rockerfeller_plaza.blend'
# www.blender.org
o geometryt000010000010000110010110000110000110100000110100st2
v 848.168213 -226.715607 700.261414
v 848.471802 -226.879501 711.470032
v 848.168213 -226.715607 711.470032
v 846.801636 -225.977905 700.261414
v 846.560059 -225.847412 699.470032
v 848.471802 -226.879501 699.470032
v 846.801636 -225.977905 711.470032
v 846.560059 -225.847412 711.470032
v 845.549377 -225.301804 700.261414
v 845.549377 -225.301804 711.470032
v 844.182800 -224.564011 700.261414
v 843.417358 -224.150803 699.470032
v 844.182800 -224.564011 711.470032
v 843.417358 -224.150803 711.470032
v 842.930542 -223.888016 700.261414
v 842.930542 -223.888016 711.470032
v 841.563904 -223.150208 700.261414
v 841.260376 -222.986313 699.470032
v 841.563904 -223.150208 711.470032
v 841.260376 -222.986313 711.470032
v 841.423584 -222.686310 700.261414
v 841.258667 -222.989410 711.470032
v 841.423584 -222.686310 711.470032
v 842.165710 -221.322113 700.261414
v 841.258667 -222.989410 699.470032
v 842.165710 -221.322113 711.470032
v 842.538147 -220.637405 711.470032
v 842.538147 -220.637405 700.261414
v 844.022400 -217.909012 700.261414
v 844.022400 -217.909012 711.470032
v 844.394897 -217.224304 711.470032
v 844.394897 -217.224304 700.261414
v 845.137024 -215.860107 700.261414
v 845.137024 -215.860107 711.470032
v 845.509521 -215.175415 711.470032
v 845.509521 -215.175415 700.261414
v 847.735901 -211.082703 700.261414
v 851.986694 -203.268707 699.470032
v 847.735901 -211.082703 711.470032
v 848.108398 -210.398010 711.470032
v 848.108398 -210.398010 700.261414
v 848.850464 -209.033813 700.261414
v 848.850464 -209.033813 711.470032
v 849.222961 -208.349106 711.470032
v 849.222961 -208.349106 700.261414
v 850.707214 -205.620712 700.261414
v 850.707214 -205.620712 711.470032
v 851.079712 -204.936005 711.470032
v 851.079712 -204.936005 700.261414
v 851.821838 -203.571808 700.261414
v 851.821838 -203.571808 711.470032
v 851.986694 -203.268707 711.470032
v 852.008423 -228.792206 700.261414
v 852.813049 -229.227310 711.470032
v 852.008423 -228.792206 711.470032
v 848.471619 -226.879807 699.470032
v 849.276245 -227.314911 700.261414
v 852.813049 -229.227310 699.470032
v 849.276245 -227.314911 711.470032
v 848.471619 -226.879807 711.470032
v 852.290344 -203.432602 700.261414
v 851.986694 -203.268707 711.470032
v 852.290344 -203.432602 711.470032
v 853.657043 -204.170212 700.261414
v 851.986694 -203.268707 699.470032
v 853.657043 -204.170212 711.470032
v 854.504272 -204.627411 711.470032
v 854.504272 -204.627411 700.261414
v 857.346558 -206.161316 699.470032
v 857.237671 -206.102509 700.261414
v 857.237671 -206.102509 711.470032
v 857.346558 -206.161316 711.470032
v 858.084839 -206.559708 700.261414
v 858.084839 -206.559708 711.470032
v 859.451538 -207.297302 700.261414
v 859.451538 -207.297302 711.470032
v 860.298767 -207.754501 711.470032
v 860.298767 -207.754501 700.261414
v 862.586914 -208.989410 699.470032
v 863.032043 -209.229706 700.261414
v 863.032043 -209.229706 711.470032
v 863.879333 -209.686905 711.470032
v 863.879333 -209.686905 700.261414
v 866.612671 -211.162003 700.261414
v 866.612671 -211.162003 711.470032
v 867.459961 -211.619202 711.470032
v 867.459961 -211.619202 700.261414
v 868.842041 -212.365204 699.470032
v 868.826538 -212.356812 700.261414
v 868.826538 -212.356812 711.470032
v 868.842041 -212.365204 711.470032
v 869.673828 -212.814011 700.261414
v 869.673828 -212.814011 711.470032
v 872.407166 -214.289108 700.261414
v 872.407166 -214.289108 711.470032
v 873.254456 -214.746414 711.470032
v 873.254456 -214.746414 700.261414
v 874.924744 -215.647812 699.470032
v 874.621033 -215.483902 700.261414
v 874.621033 -215.483902 711.470032
v 874.924744 -215.647812 711.470032
v 863.893738 -235.203415 700.261414
v 864.197449 -235.367203 711.470032
v 863.893738 -235.203415 711.470032
v 862.526855 -234.466202 700.261414
v 864.197449 -235.367203 699.470032
v 862.526855 -234.466202 711.470032
v 860.555542 -233.403015 711.470032
v 860.555542 -233.403015 700.261414
v 856.454956 -231.191406 700.261414
v 852.813049 -229.227310 699.470032
v 856.454956 -231.191406 711.470032
v 854.483521 -230.128204 711.470032
v 854.483521 -230.128204 700.261414
v 853.116760 -229.391006 700.261414
v 853.116760 -229.391006 711.470032
v 852.813049 -229.227310 711.470032
v 870.545349 -223.692612 700.261414
v 870.710144 -223.389603 711.470032
v 870.545349 -223.692612 711.470032
v 869.803528 -225.057007 700.261414
v 870.710144 -223.389603 699.470032
v 869.803528 -225.057007 711.470032
v 869.226257 -226.118805 711.470032
v 869.226257 -226.118805 700.261414
v 867.742432 -228.847504 700.261414
v 867.742432 -228.847504 711.470032
v 867.165161 -229.909210 711.470032
v 867.165161 -229.909210 700.261414
v 864.197449 -235.367203 699.470032
v 865.681458 -232.638016 700.261414
v 865.681458 -232.638016 711.470032
v 865.104126 -233.699707 711.470032
v 865.104126 -233.699707 700.261414
v 864.362244 -235.064102 700.261414
v 864.362244 -235.064102 711.470032
v 864.197449 -235.367203 711.470032
v 870.710144 -223.389603 699.470032
v 871.462524 -222.026306 711.470032
v 870.710144 -223.389603 711.470032
v 871.462524 -222.026306 699.470032
v 871.462524 -222.026306 699.470032
v 872.222839 -220.618515 699.470032
v 872.222839 -220.618515 711.470032
v 871.462524 -222.026306 711.470032
v 872.966675 -219.256516 700.261414
v 873.132080 -218.953705 711.470032
v 872.966675 -219.256516 711.470032
v 872.222839 -220.618515 699.470032
v 872.388123 -220.315704 700.261414
v 873.132080 -218.953705 699.470032
v 872.388123 -220.315704 711.470032
v 872.222839 -220.618515 711.470032
v 874.400330 -216.618301 700.261414
v 874.927551 -215.647705 711.470032
v 874.400330 -216.618301 711.470032
v 873.659180 -217.983002 700.261414
v 873.986633 -217.380203 699.470032
v 874.927551 -215.647705 699.470032
v 873.659180 -217.983002 711.470032
v 873.132080 -218.953705 711.470032
v 873.132080 -218.953705 699.470032
vt 8.505130 0.857410
vt 8.878911 13.001080
vt 8.505130 13.001080
vt 6.822560 0.857410
vt 6.525120 0.000000
vt 8.878911 0.000000
vt 6.822560 13.001080
vt 6.525120 13.001080
vt 5.280740 0.857410
vt 5.280740 13.001080
vt 3.598170 0.857410
vt 2.655740 0.000000
vt 3.598170 13.001080
vt 2.655740 13.001080
vt 2.056350 0.857410
vt 2.056350 13.001080
vt 0.373780 0.857410
vt 0.000000 0.000000
vt 0.373780 13.001080
vt 0.000000 13.001080
vt 23.948891 0.857410
vt 24.322670 13.001080
vt 23.948891 13.001080
vt 22.266319 0.857410
vt 24.322670 0.000000
vt 22.266319 13.001080
vt 21.421850 13.001080
vt 21.421850 0.857410
vt 18.056709 0.857410
vt 18.056709 13.001080
vt 17.212240 13.001080
vt 17.212240 0.857410
vt 15.529660 0.857410
vt 15.529660 13.001080
vt 14.685200 13.001080
vt 14.685200 0.857410
vt 9.637480 0.857410
vt 0.000000 0.000000
vt 9.637480 13.001080
vt 8.793010 13.001080
vt 8.793010 0.857410
vt 7.110440 0.857410
vt 7.110440 13.001080
vt 6.265970 13.001080
vt 6.265970 0.857410
vt 2.900820 0.857410
vt 2.900820 13.001080
vt 2.056350 13.001080
vt 2.056350 0.857410
vt 0.373780 0.857410
vt 0.373780 13.001080
vt 0.000000 13.001080
vt 4.356150 0.857410
vt 5.347150 13.001080
vt 4.356150 13.001080
vt 0.000000 0.000000
vt 0.991000 0.857410
vt 5.347150 0.000000
vt 0.991000 13.001080
vt 0.000000 13.001080
vt 27.865829 0.857410
vt 28.239611 13.001080
vt 27.865829 13.001080
vt 26.183260 0.857410
vt 28.239611 0.000000
vt 26.183260 13.001080
vt 25.140230 13.001080
vt 25.140230 0.857410
vt 21.641010 0.000000
vt 21.775089 0.857410
vt 21.775089 13.001080
vt 21.641010 13.001080
vt 20.732059 0.857410
vt 20.732059 13.001080
vt 19.049490 0.857410
vt 19.049490 13.001080
vt 18.006470 13.001080
vt 18.006470 0.857410
vt 15.189390 0.000000
vt 14.641320 0.857410
vt 14.641320 13.001080
vt 13.598290 13.001080
vt 13.598290 0.857410
vt 10.233150 0.857410
vt 10.233150 13.001080
vt 9.190120 13.001080
vt 9.190120 0.857410
vt 7.488460 0.000000
vt 7.507550 0.857410
vt 7.488460 13.001080
vt 6.464530 0.857410
vt 6.464530 13.001080
vt 3.099380 0.857410
vt 3.099380 13.001080
vt 2.056350 13.001080
vt 2.056350 0.857410
vt 0.000000 0.000000
vt 0.373780 0.857410
vt 0.373780 13.001080
vt 0.000000 13.001080
vt 13.639820 0.857410
vt 14.013610 13.001080
vt 13.639820 13.001080
vt 11.957250 0.857410
vt 14.013610 0.000000
vt 11.957250 13.001080
vt 9.530660 13.001080
vt 9.530660 0.857410
vt 4.482940 0.857410
vt 0.000000 0.000000
vt 4.482940 13.001080
vt 2.056350 13.001080
vt 2.056350 0.857410
vt 0.373780 0.857410
vt 0.373780 13.001080
vt 0.000000 13.001080
vt 14.397370 0.857410
vt 14.771150 13.001080
vt 14.397370 13.001080
vt 12.714800 0.857410
vt 14.771150 0.000000
vt 12.714800 13.001080
vt 11.405410 13.001080
vt 11.405410 0.857410
vt 8.040270 0.857410
vt 8.040270 13.001080
vt 6.730880 13.001080
vt 6.730880 0.857410
vt 0.000000 0.000000
vt 3.365740 0.857410
vt 3.365740 13.001080
vt 2.056350 13.001080
vt 2.056350 0.857410
vt 0.373780 0.857410
vt 0.373780 13.001080
vt 0.000000 13.001080
vt 0.000000 0.000000
vt 1.686970 13.001080
vt 0.000000 13.001080
vt 1.686970 0.000000
vt 0.000000 0.000000
vt 1.733400 0.000000
vt 1.733400 13.001080
vt 0.000000 13.001080
vt 1.681420 0.857410
vt 2.055200 13.001080
vt 1.681420 13.001080
vt 0.000000 0.000000
vt 0.373780 0.857410
vt 2.055200 0.000000
vt 0.373780 13.001080
vt 0.000000 13.001080
vt 2.879290 0.857410
vt 4.076000 13.001080
vt 2.879290 13.001080
vt 1.196720 0.857410
vt 1.939970 0.000000
vt 4.076000 0.000000
vt 0.000000 13.001080
vt 0.000000 0.000000
vt 7.507550 13.001080
vt 1.196720 13.001080
vn -0.4751 -0.8799 0.0000
vn -0.4751 -0.8799 -0.0001
vn -0.4750 -0.8800 0.0000
vn -0.4751 -0.8800 0.0000
vn -0.4750 -0.8800 -0.0001
vn -0.4752 -0.8799 0.0000
vn -0.8785 0.4778 0.0000
vn -0.8784 0.4778 0.0000
vn -0.8783 0.4781 0.0000
vn -0.8784 0.4779 0.0000
vn -0.8785 0.4778 0.0001
vn -0.8785 0.4778 -0.0002
vn -0.8785 0.4777 -0.0004
vn -0.8784 0.4779 -0.0001
vn -0.8784 0.4779 0.0001
vn -0.8785 0.4777 0.0002
vn -0.8785 0.4777 -0.0003
vn -0.8784 0.4780 0.0002
vn -0.8784 0.4780 0.0001
vn -0.8786 0.4775 0.0000
vn -0.4756 -0.8796 0.0000
vn -0.4757 -0.8796 0.0000
vn 0.4751 0.8799 0.0000
vn 0.4749 0.8801 0.0000
vn 0.4748 0.8801 0.0000
vn 0.4749 0.8800 0.0000
vn 0.4749 0.8801 -0.0001
vn 0.4757 0.8796 0.0000
vn 0.4749 0.8800 -0.0001
vn 0.4749 0.8800 0.0001
vn 0.4750 0.8800 0.0000
vn 0.4748 0.8801 0.0001
vn 0.4749 0.8801 -0.0002
vn 0.4750 0.8800 0.0002
vn -0.4747 -0.8802 0.0000
vn -0.4747 -0.8802 0.0001
vn -0.4747 -0.8801 0.0000
vn -0.4746 -0.8802 0.0000
vn -0.4744 -0.8803 0.0000
vn 0.8784 -0.4779 0.0000
vn 0.8786 -0.4776 0.0000
vn 0.8785 -0.4777 0.0000
vn 0.8786 -0.4776 0.0002
vn 0.8785 -0.4778 -0.0002
vn 0.8784 -0.4780 0.0000
vn 0.8786 -0.4776 -0.0001
vn 0.8785 -0.4778 0.0001
vn 0.8785 -0.4778 0.0000
vn 0.8755 -0.4831 0.0000
vn 0.8755 -0.4833 0.0000
vn 0.8799 -0.4752 0.0000
vn 0.8799 -0.4751 0.0000
vn 0.8777 -0.4793 0.0000
vn 0.8777 -0.4793 0.0001
vn 0.8776 -0.4794 0.0000
vn 0.8775 -0.4795 0.0000
vn 0.8777 -0.4791 0.0000
vn 0.8787 -0.4774 0.0000
vn 0.8787 -0.4773 0.0001
vn 0.8788 -0.4773 0.0001
vn 0.8787 -0.4773 0.0000
vn 0.8788 -0.4773 0.0000
vn 0.8788 -0.4772 -0.0002
vn 0.4742 0.8804 -0.0000
vn 0.8789 -0.4771 0.0000
s off
f 1/1/1 2/2/1 3/3/1
f 4/4/2 5/5/2 1/1/2
f 5/5/1 6/6/1 1/1/1
f 2/2/3 1/1/3 6/6/3
f 7/7/1 8/8/1 4/4/1
f 8/8/4 9/9/4 4/4/4
f 4/4/5 9/9/5 5/5/5
f 8/8/1 10/10/1 9/9/1
f 9/9/3 11/11/3 12/12/3
f 13/13/3 14/14/3 11/11/3
f 14/14/3 15/15/3 11/11/3
f 11/11/1 15/15/1 12/12/1
f 14/14/1 16/16/1 15/15/1
f 17/17/3 18/18/3 15/15/3
f 15/15/4 18/18/4 12/12/4
f 19/19/1 20/20/1 17/17/1
f 20/20/6 18/18/6 17/17/6
f 21/21/7 22/22/7 23/23/7
f 24/24/8 25/25/8 21/21/8
f 22/22/9 21/21/9 25/25/9
f 26/26/10 27/27/10 24/24/10
f 27/27/7 28/28/7 24/24/7
f 28/28/11 25/25/11 24/24/11
f 28/28/10 29/29/10 25/25/10
f 30/30/7 31/31/7 29/29/7
f 31/31/10 32/32/10 29/29/10
f 29/29/12 32/32/12 25/25/12
f 32/32/11 33/33/11 25/25/11
f 34/34/7 35/35/7 33/33/7
f 35/35/10 36/36/10 33/33/10
f 33/33/13 36/36/13 25/25/13
f 37/37/14 38/38/14 36/36/14
f 36/36/15 38/38/15 25/25/15
f 39/39/7 40/40/7 37/37/7
f 40/40/10 41/41/10 37/37/10
f 41/41/16 38/38/16 37/37/16
f 42/42/17 38/38/17 41/41/17
f 43/43/10 44/44/10 42/42/10
f 44/44/10 45/45/10 42/42/10
f 45/45/18 38/38/18 42/42/18
f 46/46/10 38/38/10 45/45/10
f 47/47/10 48/48/10 46/46/10
f 48/48/10 49/49/10 46/46/10
f 49/49/19 38/38/19 46/46/19
f 50/50/10 38/38/10 49/49/10
f 51/51/7 52/52/7 50/50/7
f 52/52/20 38/38/20 50/50/20
f 53/53/21 54/54/21 55/55/21
f 56/56/21 53/53/21 57/57/21
f 56/56/22 58/58/22 53/53/22
f 54/54/22 53/53/22 58/58/22
f 59/59/21 60/60/21 57/57/21
f 60/60/22 56/56/22 57/57/22
f 61/61/23 62/62/23 63/63/23
f 64/64/24 65/65/24 61/61/24
f 62/62/25 61/61/25 65/65/25
f 66/66/25 67/67/25 64/64/25
f 67/67/26 68/68/26 64/64/26
f 64/64/26 68/68/26 65/65/26
f 69/69/27 68/68/27 70/70/27
f 65/65/26 68/68/26 69/69/26
f 71/71/28 72/72/28 70/70/28
f 72/72/26 73/73/26 70/70/26
f 69/69/26 70/70/26 73/73/26
f 72/72/24 74/74/24 73/73/24
f 75/75/29 69/69/29 73/73/29
f 76/76/26 77/77/26 75/75/26
f 77/77/25 78/78/25 75/75/25
f 78/78/30 69/69/30 75/75/30
f 79/79/31 78/78/31 80/80/31
f 79/79/29 69/69/29 78/78/29
f 81/81/25 82/82/25 80/80/25
f 82/82/26 83/83/26 80/80/26
f 79/79/32 80/80/32 83/83/32
f 79/79/26 83/83/26 84/84/26
f 85/85/25 86/86/25 84/84/25
f 86/86/26 87/87/26 84/84/26
f 84/84/33 87/87/33 88/88/33
f 79/79/29 84/84/29 88/88/29
f 87/87/31 89/89/31 88/88/31
f 91/90/25 92/91/25 89/89/25
f 89/89/24 92/91/24 88/88/24
f 91/90/26 93/92/26 92/91/26
f 92/91/29 94/93/29 88/88/29
f 95/94/26 96/95/26 94/93/26
f 96/95/31 97/96/31 94/93/31
f 97/96/34 98/97/34 94/93/34
f 94/93/26 98/97/26 88/88/26
f 99/98/26 98/97/26 97/96/26
f 100/99/26 101/100/26 99/98/26
f 101/100/31 98/97/31 99/98/31
f 102/101/35 103/102/35 104/103/35
f 105/104/35 106/105/35 102/101/35
f 103/102/35 102/101/35 106/105/35
f 107/106/35 108/107/35 105/104/35
f 108/107/35 109/108/35 105/104/35
f 109/108/35 106/105/35 105/104/35
f 110/109/36 111/110/36 109/108/36
f 109/108/37 111/110/37 106/105/37
f 112/111/35 113/112/35 110/109/35
f 113/112/35 114/113/35 110/109/35
f 114/113/38 111/110/38 110/109/38
f 115/114/36 111/110/36 114/113/36
f 116/115/39 117/116/39 115/114/39
f 117/116/38 111/110/38 115/114/38
f 118/117/40 119/118/40 120/119/40
f 121/120/41 122/121/41 118/117/41
f 119/118/41 118/117/41 122/121/41
f 123/122/42 124/123/42 121/120/42
f 124/123/42 125/124/42 121/120/42
f 125/124/43 122/121/43 121/120/43
f 125/124/44 126/125/44 122/121/44
f 127/126/42 128/127/42 126/125/42
f 128/127/41 129/128/41 126/125/41
f 129/128/45 130/129/45 126/125/45
f 126/125/42 130/129/42 122/121/42
f 131/130/46 130/129/46 129/128/46
f 132/131/42 133/132/42 131/130/42
f 133/132/42 134/133/42 131/130/42
f 134/133/47 130/129/47 131/130/47
f 135/134/42 130/129/42 134/133/42
f 136/135/48 137/136/48 135/134/48
f 137/136/48 130/129/48 135/134/48
f 138/137/49 139/138/49 140/139/49
f 138/137/50 141/140/50 139/138/50
f 142/141/51 143/142/51 144/143/51
f 142/141/52 144/143/52 145/144/52
f 146/145/53 147/146/53 148/147/53
f 149/148/54 146/145/54 150/149/54
f 149/148/55 151/150/55 146/145/55
f 147/146/56 146/145/56 151/150/56
f 152/151/53 153/152/53 150/149/53
f 153/152/57 149/148/57 150/149/57
f 154/153/58 155/154/58 156/155/58
f 157/156/59 158/157/59 154/153/59
f 158/157/60 159/158/60 154/153/60
f 155/154/61 154/153/61 159/158/61
f 161/159/62 162/160/62 157/156/62
f 162/160/63 158/157/63 157/156/63
s 1
f 9/9/3 12/12/3 5/5/3
f 90/161/64 91/90/64 89/89/64
f 160/162/65 161/159/65 157/156/65
