# Blender v3.0.1 OBJ File: 'rockerfeller_plaza.blend'
# www.blender.org
o geometryt000010000010000110010110000110000110100000110010st16
v 1122.893066 -108.284836 464.904846
v 1123.195435 -108.451241 482.866364
v 1122.893066 -108.284836 482.866364
v 1121.266724 -107.389938 464.904846
v 1123.195435 -108.451241 461.366364
v 1121.266724 -107.389938 482.866364
v 1119.354858 -106.338142 482.866364
v 1119.354858 -106.338142 464.904846
v 1117.426147 -105.276840 461.366364
v 1117.728394 -105.443138 464.904846
v 1117.728394 -105.443138 482.866364
v 1117.426147 -105.276840 482.866364
v 1117.595581 -104.976341 464.904846
v 1117.428955 -105.278336 482.866364
v 1117.595581 -104.976341 482.866364
v 1118.492554 -103.350937 464.904846
v 1117.428955 -105.278336 461.366364
v 1118.492554 -103.350937 482.866364
v 1120.261353 -100.145241 482.866364
v 1120.261353 -100.145241 464.904846
v 1122.952026 -95.269028 464.904846
v 1121.832275 -97.298256 461.366364
v 1122.952026 -95.269028 482.866364
v 1124.720947 -92.063362 482.866364
v 1124.720947 -92.063362 464.904846
v 1125.784546 -90.135887 461.366364
v 1125.617798 -90.437958 464.904846
v 1125.617798 -90.437958 482.866364
v 1125.784546 -90.135887 482.866364
v 1131.840332 -92.916977 464.904846
v 1132.008179 -92.615562 482.866364
v 1131.840332 -92.916977 482.866364
v 1129.130859 -97.782791 464.904846
v 1130.570435 -95.197548 461.366364
v 1132.008179 -92.615562 461.366364
v 1129.130859 -97.782791 482.866364
v 1127.758179 -100.248039 482.866364
v 1126.068848 -103.281837 464.904846
v 1127.758179 -100.248039 461.366364
v 1129.476196 -97.162689 461.366364
v 1126.415161 -102.659836 482.866364
v 1126.068848 -103.281837 482.866364
v 1123.359375 -108.147636 464.904846
v 1124.523071 -106.057838 461.366364
v 1126.415161 -102.659836 461.366364
v 1123.359375 -108.147636 482.866364
v 1123.191650 -108.449036 482.866364
v 1123.191650 -108.449036 461.366364
v 1125.945068 -89.830452 464.904846
v 1125.778442 -90.132500 482.866364
v 1125.945068 -89.830452 482.866364
v 1126.842041 -88.205116 464.904846
v 1125.778442 -90.132500 461.366364
v 1126.842041 -88.205116 482.866364
v 1127.688110 -86.672241 482.866364
v 1127.688110 -86.672241 464.904846
v 1128.585083 -85.046906 464.904846
v 1129.156250 -84.011909 461.366364
v 1128.585083 -85.046906 482.866364
v 1129.156250 -84.011909 482.866364
v 1129.431152 -83.514038 464.904846
v 1129.431152 -83.514038 482.866364
v 1130.328125 -81.888702 464.904846
v 1130.494751 -81.586647 461.366364
v 1130.328125 -81.888702 482.866364
v 1130.494751 -81.586647 482.866364
v 1130.797607 -81.753731 464.904846
v 1130.495483 -81.587036 482.866364
v 1130.797607 -81.753731 482.866364
v 1132.422852 -82.650711 464.904846
v 1130.495483 -81.587036 461.366364
v 1132.422852 -82.650711 482.866364
v 1134.320435 -83.697876 482.866364
v 1134.320435 -83.697876 464.904846
v 1135.945801 -84.594856 464.904846
v 1136.247925 -84.761551 461.366364
v 1135.945801 -84.594856 482.866364
v 1136.247925 -84.761551 482.866364
v 1136.084717 -85.065506 464.904846
v 1136.248169 -84.761726 482.866364
v 1136.084717 -85.065506 482.866364
v 1135.204712 -86.700142 464.904846
v 1135.785156 -85.621841 461.366364
v 1136.248169 -84.761726 461.366364
v 1135.204712 -86.700142 482.866364
v 1134.572876 -87.873856 482.866364
v 1134.572876 -87.873856 464.904846
v 1133.692871 -89.508492 464.904846
v 1133.692871 -89.508492 482.866364
v 1133.061035 -90.682205 482.866364
v 1133.061035 -90.682205 464.904846
v 1132.017456 -92.620621 461.366364
v 1132.181152 -92.316841 464.904846
v 1132.181152 -92.316841 482.866364
v 1132.017456 -92.620621 482.866364
vt 5.288020 2.998700
vt 5.580390 18.220341
vt 5.288020 18.220341
vt 3.714770 2.998700
vt 5.580390 0.000000
vt 3.714770 18.220341
vt 1.865620 18.220341
vt 1.865620 2.998700
vt 0.000000 0.000000
vt 0.292370 2.998700
vt 0.292370 18.220341
vt 0.000000 18.220341
vt 14.364260 2.998700
vt 14.656630 18.220341
vt 14.364260 18.220341
vt 12.791010 2.998700
vt 14.656630 0.000000
vt 12.791010 18.220341
vt 9.688191 18.220341
vt 9.688191 2.998700
vt 4.968440 2.998700
vt 6.932570 0.000000
vt 4.968440 18.220341
vt 1.865620 18.220341
vt 1.865620 2.998700
vt 0.000000 0.000000
vt 0.292370 2.998700
vt 0.292370 18.220341
vt 0.000000 18.220341
vt 15.065850 2.998700
vt 15.358220 18.220341
vt 15.065850 18.220341
vt 10.346100 2.998700
vt 12.853730 0.000000
vt 15.358220 0.000000
vt 10.346100 18.220341
vt 7.954840 18.220341
vt 5.012120 2.998700
vt 7.954840 0.000000
vt 10.947580 0.000000
vt 5.615480 18.220341
vt 5.012120 18.220341
vt 0.292370 2.998700
vt 2.319480 0.000000
vt 5.615480 0.000000
vt 0.292370 18.220341
vt 0.000000 18.220341
vt 0.000000 0.000000
vt 7.979630 2.998700
vt 8.272001 18.220341
vt 7.979630 18.220341
vt 6.406380 2.998700
vt 8.272001 0.000000
vt 6.406380 18.220341
vt 4.922630 18.220341
vt 4.922630 2.998700
vt 3.349380 2.998700
vt 2.347540 0.000000
vt 3.349380 18.220341
vt 2.347540 18.220341
vt 1.865620 2.998700
vt 1.865620 18.220341
vt 0.292370 2.998700
vt 0.000000 0.000000
vt 0.292370 18.220341
vt 0.000000 18.220341
vt 5.275560 2.998700
vt 5.567930 18.220341
vt 5.275560 18.220341
vt 3.702310 2.998700
vt 5.567930 0.000000
vt 3.702310 18.220341
vt 1.865620 18.220341
vt 1.865620 2.998700
vt 0.292370 2.998700
vt 0.000000 0.000000
vt 0.292370 18.220341
vt 0.000000 18.220341
vt 7.271420 2.998700
vt 7.563790 18.220341
vt 7.271420 18.220341
vt 5.698170 2.998700
vt 6.735980 0.000000
vt 7.563790 0.000000
vt 5.698170 18.220341
vt 4.568520 18.220341
vt 4.568520 2.998700
vt 2.995270 2.998700
vt 2.995270 18.220341
vt 1.865620 18.220341
vt 1.865620 2.998700
vt 0.000000 0.000000
vt 0.292370 2.998700
vt 0.292370 18.220341
vt 0.000000 18.220341
vn -0.4818 -0.8763 0.0000
vn -0.4821 -0.8761 0.0000
vn -0.4820 -0.8762 0.0000
vn -0.4820 -0.8761 -0.0001
vn -0.8753 0.4835 0.0000
vn -0.8755 0.4831 -0.0000
vn -0.8757 0.4828 0.0000
vn -0.8756 0.4831 0.0000
vn -0.8755 0.4832 0.0000
vn -0.8754 0.4834 0.0000
vn 0.8736 -0.4866 0.0000
vn 0.8737 -0.4865 0.0000
vn 0.8738 -0.4862 0.0000
vn 0.8737 -0.4864 0.0000
vn 0.8738 -0.4864 0.0000
vn 0.8739 -0.4862 0.0000
vn 0.8739 -0.4861 0.0000
vn -0.8759 0.4825 0.0000
vn -0.8755 0.4833 0.0000
vn -0.8755 0.4832 -0.0001
vn -0.8757 0.4829 0.0000
vn -0.8756 0.4830 0.0000
vn 0.4829 0.8757 0.0000
vn 0.4831 0.8756 -0.0000
vn 0.4832 0.8755 0.0000
vn 0.4831 0.8755 0.0000
vn 0.4834 0.8754 0.0000
vn 0.8805 -0.4740 0.0000
vn 0.8805 -0.4741 -0.0000
vn 0.8806 -0.4738 0.0000
vn 0.8803 -0.4745 -0.0000
s off
f 1/1/1 2/2/1 3/3/1
f 4/4/2 5/5/2 1/1/2
f 2/2/2 1/1/2 5/5/2
f 6/6/3 7/7/3 4/4/3
f 7/7/3 8/8/3 4/4/3
f 8/8/4 9/9/4 4/4/4
f 9/9/2 5/5/2 4/4/2
f 10/10/2 9/9/2 8/8/2
f 11/11/3 12/12/3 10/10/3
f 12/12/2 9/9/2 10/10/2
f 13/13/5 14/14/5 15/15/5
f 16/16/6 17/17/6 13/13/6
f 14/14/7 13/13/7 17/17/7
f 18/18/8 19/19/8 16/16/8
f 19/19/8 20/20/8 16/16/8
f 16/16/9 20/20/9 17/17/9
f 20/20/8 21/21/8 22/22/8
f 20/20/8 22/22/8 17/17/8
f 23/23/8 24/24/8 21/21/8
f 24/24/9 25/25/9 21/21/9
f 25/25/8 26/26/8 21/21/8
f 21/21/6 26/26/6 22/22/6
f 27/27/9 26/26/9 25/25/9
f 28/28/10 29/29/10 27/27/10
f 29/29/9 26/26/9 27/27/9
f 30/30/11 31/31/11 32/32/11
f 33/33/12 34/34/12 30/30/12
f 34/34/11 35/35/11 30/30/11
f 31/31/13 30/30/13 35/35/13
f 36/36/12 37/37/12 33/33/12
f 37/37/12 38/38/12 33/33/12
f 33/33/12 38/38/12 39/39/12
f 33/33/14 39/39/14 40/40/14
f 33/33/12 40/40/12 34/34/12
f 37/37/11 41/41/11 38/38/11
f 41/41/15 42/42/15 38/38/15
f 38/38/12 43/43/12 44/44/12
f 38/38/12 44/44/12 45/45/12
f 39/39/11 38/38/11 45/45/11
f 46/46/16 47/47/16 43/43/16
f 47/47/17 48/48/17 43/43/17
f 43/43/12 48/48/12 44/44/12
f 49/49/18 50/50/18 51/51/18
f 52/52/9 53/53/9 49/49/9
f 50/50/5 49/49/5 53/53/5
f 54/54/19 55/55/19 52/52/19
f 55/55/9 56/56/9 52/52/9
f 52/52/20 56/56/20 53/53/20
f 56/56/9 57/57/9 58/58/9
f 56/56/9 58/58/9 53/53/9
f 59/59/8 60/60/8 57/57/8
f 60/60/19 61/61/19 57/57/19
f 57/57/19 61/61/19 58/58/19
f 60/60/10 62/62/10 61/61/10
f 63/63/9 64/64/9 61/61/9
f 61/61/9 64/64/9 58/58/9
f 65/65/21 66/66/21 63/63/21
f 66/66/22 64/64/22 63/63/22
f 67/67/23 68/68/23 69/69/23
f 70/70/24 71/71/24 67/67/24
f 68/68/24 67/67/24 71/71/24
f 72/72/25 73/73/25 70/70/25
f 73/73/25 74/74/25 70/70/25
f 74/74/25 71/71/25 70/70/25
f 75/75/26 76/76/26 74/74/26
f 74/74/25 76/76/25 71/71/25
f 77/77/23 78/78/23 75/75/23
f 78/78/27 76/76/27 75/75/27
f 79/79/28 80/80/28 81/81/28
f 82/82/29 83/83/29 79/79/29
f 83/83/29 84/84/29 79/79/29
f 80/80/30 79/79/30 84/84/30
f 85/85/29 86/86/29 82/82/29
f 86/86/28 87/87/28 82/82/28
f 87/87/28 83/83/28 82/82/28
f 87/87/28 88/88/28 83/83/28
f 89/89/28 90/90/28 88/88/28
f 90/90/28 91/91/28 88/88/28
f 91/91/28 92/92/28 88/88/28
f 88/88/28 92/92/28 83/83/28
f 93/93/28 92/92/28 91/91/28
f 94/94/28 95/95/28 93/93/28
f 95/95/31 92/92/31 93/93/31
