# Blender v3.0.1 OBJ File: 'rockerfeller_plaza.blend'
# www.blender.org
o geometryt000010000010000110010110000110000110100000000100st85_1
v 438.717529 -326.014191 63.192993
v 441.338928 -321.309692 63.192993
v 464.854034 -340.631989 63.192993
v 467.647430 -335.481415 63.192993
v 445.803131 -313.197601 63.192993
v 458.978638 -320.294312 63.192993
v 472.179626 -327.401794 63.192993
v 523.790222 -365.715302 63.192993
v 528.127136 -357.537994 63.192993
v 487.363831 -299.591797 63.192993
v 542.368225 -329.217102 63.192993
v 538.134155 -362.928406 63.192993
v 553.326599 -335.118195 63.192993
v 447.829926 -309.632507 63.192993
v 450.441650 -304.817108 63.192993
v 474.162933 -292.484406 63.192993
v 460.987427 -285.387695 63.192993
v 465.226227 -277.489197 63.192993
v 491.823608 -291.824005 63.192993
v 546.640930 -321.340302 63.192993
v 467.787720 -272.718689 63.192993
v 494.426941 -287.019714 63.192993
v 441.338928 -321.309692 88.192993
v 438.717529 -326.014191 88.192993
v 464.854034 -340.631989 88.192993
v 455.954712 -329.182892 88.192993
v 467.647430 -335.481415 88.192993
v 445.803131 -313.197601 108.192993
v 441.338928 -321.309692 108.192993
v 454.924622 -318.110687 108.192993
v 458.978638 -320.294312 108.192993
v 467.647430 -335.481415 108.192993
v 468.117828 -325.214905 108.192993
v 472.179626 -327.401794 108.192993
v 523.790222 -365.715302 108.192993
v 485.715332 -334.692810 108.192993
v 528.127136 -357.537994 108.192993
v 447.829926 -309.632507 128.192993
v 445.803131 -313.197601 128.192993
v 458.978638 -320.294312 128.192993
v 450.441650 -304.817108 128.192993
v 474.162933 -292.484406 128.192993
v 460.987427 -285.387695 128.192993
v 474.162933 -292.484406 153.192978
v 458.978638 -320.294312 153.192978
v 472.179626 -327.401794 153.192978
v 480.016632 -313.048309 153.192978
v 487.363831 -299.591797 153.192978
v 465.041443 -287.571289 108.192993
v 465.226227 -277.489197 108.192993
v 460.987427 -285.387695 108.192993
v 474.162933 -292.484406 108.192993
v 491.823608 -291.824005 108.192993
v 478.224731 -294.671295 108.192993
v 487.363831 -299.591797 108.192993
v 504.288208 -308.707306 108.192993
v 514.866028 -314.404510 108.192993
v 529.060730 -322.049713 108.192993
v 542.368225 -329.217102 108.192993
v 546.640930 -321.340302 108.192993
v 467.787720 -272.718689 88.192993
v 465.226227 -277.489197 88.192993
v 477.047241 -283.860199 88.192993
v 491.823608 -291.824005 88.192993
v 494.426941 -287.019714 88.192993
v 472.179626 -327.401794 249.192963
v 542.368225 -329.217102 249.192963
v 487.363831 -299.591797 249.192963
v 528.127136 -357.537994 249.192963
v 553.326599 -335.118195 249.192963
v 538.134155 -362.928406 249.192963
vt 0.532790 0.375710
vt 0.523400 0.381110
vt 0.551080 0.428050
vt 0.540820 0.433800
vt 0.507220 0.390300
vt 0.515940 0.416690
vt 0.524680 0.443130
vt 0.577990 0.546260
vt 0.561730 0.555190
vt 0.469240 0.474390
vt 0.505660 0.584560
vt 0.568350 0.575240
vt 0.512920 0.606510
vt 0.500080 0.394460
vt 0.490490 0.399840
vt 0.460510 0.447940
vt 0.451780 0.421550
vt 0.436060 0.430280
vt 0.453690 0.483560
vt 0.489970 0.593360
vt 0.426560 0.435560
vt 0.444120 0.488920
vt 0.523400 0.381110
vt 0.532790 0.375710
vt 0.551080 0.428050
vt 0.533080 0.410380
vt 0.540820 0.433800
vt 0.507220 0.390300
vt 0.523400 0.381110
vt 0.513260 0.408570
vt 0.515940 0.416690
vt 0.540820 0.433800
vt 0.521990 0.434990
vt 0.524680 0.443130
vt 0.577990 0.546260
vt 0.533640 0.470240
vt 0.561730 0.555190
vt 0.500080 0.394460
vt 0.507220 0.390300
vt 0.515940 0.416690
vt 0.490490 0.399840
vt 0.460510 0.447940
vt 0.451780 0.421550
vt 0.460510 0.447940
vt 0.515940 0.416690
vt 0.524680 0.443130
vt 0.496070 0.459260
vt 0.469240 0.474390
vt 0.454470 0.429670
vt 0.436060 0.430280
vt 0.451780 0.421550
vt 0.460510 0.447940
vt 0.453690 0.483560
vt 0.463190 0.456080
vt 0.469240 0.474390
vt 0.480450 0.508290
vt 0.487450 0.529470
vt 0.496850 0.557910
vt 0.505660 0.584560
vt 0.489970 0.593360
vt 0.426560 0.435560
vt 0.436060 0.430280
vt 0.443900 0.453960
vt 0.453690 0.483560
vt 0.444120 0.488920
vt 0.524680 0.443130
vt 0.505660 0.584560
vt 0.469240 0.474390
vt 0.561730 0.555190
vt 0.512920 0.606510
vt 0.568350 0.575240
vn 0.0000 0.0000 -1.0000
vn 0.0000 0.0000 1.0000
s off
f 1/1/1 2/2/1 3/3/1
f 2/2/1 4/4/1 3/3/1
f 2/2/1 5/5/1 6/6/1
f 4/4/1 2/2/1 6/6/1
f 4/4/1 6/6/1 7/7/1
f 8/8/1 4/4/1 7/7/1
f 9/9/1 8/8/1 7/7/1
f 10/10/1 11/11/1 7/7/1
f 7/7/1 11/11/1 9/9/1
f 12/12/1 9/9/1 13/13/1
f 9/9/1 11/11/1 13/13/1
f 5/5/1 14/14/1 6/6/1
f 6/6/1 14/14/1 15/15/1
f 16/16/1 6/6/1 15/15/1
f 16/16/1 15/15/1 17/17/1
f 16/16/1 7/7/1 6/6/1
f 16/16/1 10/10/1 7/7/1
f 18/18/1 16/16/1 17/17/1
f 18/18/1 19/19/1 16/16/1
f 16/16/1 19/19/1 10/10/1
f 10/10/1 19/19/1 11/11/1
f 11/11/1 19/19/1 20/20/1
f 18/18/1 21/21/1 19/19/1
f 21/21/1 22/22/1 19/19/1
f 23/23/2 24/24/2 25/25/2
f 23/23/2 25/25/2 26/26/2
f 26/26/2 25/25/2 27/27/2
f 28/28/2 29/29/2 30/30/2
f 30/30/2 29/29/2 31/31/2
f 31/31/2 29/29/2 32/32/2
f 33/33/2 31/31/2 32/32/2
f 34/34/2 33/33/2 32/32/2
f 35/35/2 34/34/2 32/32/2
f 36/36/2 34/34/2 35/35/2
f 37/37/2 36/36/2 35/35/2
f 38/38/2 39/39/2 40/40/2
f 41/41/2 38/38/2 40/40/2
f 42/42/2 41/41/2 40/40/2
f 42/42/2 43/43/2 41/41/2
f 44/44/2 45/45/2 46/46/2
f 47/47/2 44/44/2 46/46/2
f 48/48/2 44/44/2 47/47/2
f 49/49/2 50/50/2 51/51/2
f 52/52/2 50/50/2 49/49/2
f 52/52/2 53/53/2 50/50/2
f 54/54/2 53/53/2 52/52/2
f 55/55/2 53/53/2 54/54/2
f 56/56/2 53/53/2 55/55/2
f 57/57/2 53/53/2 56/56/2
f 58/58/2 53/53/2 57/57/2
f 59/59/2 53/53/2 58/58/2
f 59/59/2 60/60/2 53/53/2
f 61/61/2 62/62/2 63/63/2
f 61/61/2 63/63/2 64/64/2
f 61/61/2 64/64/2 65/65/2
f 66/66/2 67/67/2 68/68/2
f 66/66/2 69/69/2 67/67/2
f 70/70/2 69/69/2 71/71/2
f 67/67/2 69/69/2 70/70/2
