# Blender v3.0.1 OBJ File: 'rockerfeller_plaza.blend'
# www.blender.org
o geometryt000010000010000110010110000110000110100000110100st75
v 885.451172 -282.026123 699.216736
v 857.908020 -267.215210 699.216736
v 859.569458 -264.164917 699.216736
v 861.296875 -260.991699 699.216736
v 868.669128 -247.427612 699.216736
v 891.161865 -271.490021 699.216736
v 872.685364 -239.997711 699.216736
v 901.666443 -252.160507 699.216736
v 879.069946 -227.888306 699.216736
v 880.061523 -226.044907 699.216736
v 907.757324 -240.931610 699.216736
v 864.197449 -235.367203 699.216736
v 870.710144 -223.389603 699.216736
v 906.683472 -279.824310 699.216736
v 917.162659 -260.494995 699.216736
v 885.451172 -282.026123 866.116699
v 859.569458 -264.164917 866.116699
v 857.908020 -267.215210 866.116699
v 861.296875 -260.991699 866.116699
v 891.161865 -271.490021 866.116699
v 868.669128 -247.427612 866.116699
v 901.666443 -252.160507 866.116699
v 872.685364 -239.997711 866.116699
v 879.069946 -227.888306 866.116699
v 907.757324 -240.931610 866.116699
v 880.061523 -226.044907 866.116699
v 870.710144 -223.389603 759.216736
v 864.197449 -235.367203 759.216736
v 879.069946 -227.888306 759.216736
v 872.685364 -239.997711 759.216736
v 876.774780 -232.241608 759.216736
v 894.938232 -264.541107 759.216736
v 891.161865 -271.490021 759.216736
v 906.683472 -279.824310 759.216736
v 901.666443 -252.160507 759.216736
v 917.162659 -260.494995 759.216736
vt 0.470780 0.262200
vt 0.452580 0.207030
vt 0.446510 0.210450
vt 0.440180 0.214010
vt 0.413160 0.229190
vt 0.449790 0.273960
vt 0.398360 0.237460
vt 0.411280 0.295580
vt 0.374300 0.250610
vt 0.370630 0.252650
vt 0.388910 0.308120
vt 0.392630 0.220460
vt 0.368770 0.233870
vt 0.460020 0.305040
vt 0.421520 0.326620
vt 0.470780 0.262200
vt 0.446510 0.210450
vt 0.452580 0.207030
vt 0.440180 0.214010
vt 0.449790 0.273960
vt 0.413160 0.229190
vt 0.411280 0.295580
vt 0.398360 0.237460
vt 0.374300 0.250610
vt 0.388910 0.308120
vt 0.370630 0.252650
vt 0.368770 0.233870
vt 0.392630 0.220460
vt 0.374300 0.250610
vt 0.398360 0.237460
vt 0.382950 0.245880
vt 0.435940 0.281730
vt 0.449790 0.273960
vt 0.460020 0.305040
vt 0.411280 0.295580
vt 0.421520 0.326620
vn 0.0000 0.0000 -1.0000
vn 0.0000 0.0000 1.0000
s off
f 1/1/1 2/2/1 3/3/1
f 4/4/1 1/1/1 3/3/1
f 4/4/1 5/5/1 6/6/1
f 4/4/1 6/6/1 1/1/1
f 7/7/1 8/8/1 5/5/1
f 8/8/1 6/6/1 5/5/1
f 7/7/1 9/9/1 8/8/1
f 9/9/1 10/10/1 11/11/1
f 9/9/1 11/11/1 8/8/1
f 12/12/1 13/13/1 9/9/1
f 12/12/1 9/9/1 7/7/1
f 6/6/1 8/8/1 14/14/1
f 8/8/1 15/15/1 14/14/1
f 16/16/2 17/17/2 18/18/2
f 16/16/2 19/19/2 17/17/2
f 20/20/2 21/21/2 19/19/2
f 19/19/2 16/16/2 20/20/2
f 21/21/2 22/22/2 23/23/2
f 20/20/2 22/22/2 21/21/2
f 22/22/2 24/24/2 23/23/2
f 24/24/2 25/25/2 26/26/2
f 22/22/2 25/25/2 24/24/2
f 27/27/2 28/28/2 29/29/2
f 28/28/2 30/30/2 31/31/2
f 28/28/2 31/31/2 29/29/2
f 32/32/2 33/33/2 34/34/2
f 35/35/2 32/32/2 34/34/2
f 35/35/2 34/34/2 36/36/2
