# Blender v3.0.1 OBJ File: 'rockerfeller_plaza.blend'
# www.blender.org
o geometryt000010000010000110010110000110000110100000010100st52
v 759.362000 -189.592087 149.793335
v 759.198242 -189.895782 168.233154
v 759.362000 -189.592087 168.233154
v 760.283997 -187.881683 149.793335
v 759.198242 -189.895782 147.733154
v 760.283997 -187.881683 168.233154
v 761.066833 -186.429489 168.233154
v 761.066833 -186.429489 149.793335
v 761.988831 -184.719086 149.793335
v 761.988831 -184.719086 168.233154
v 762.771667 -183.266785 168.233154
v 762.771667 -183.266785 149.793335
v 764.615662 -179.846085 149.793335
v 764.615662 -179.846085 168.233154
v 765.398499 -178.393784 168.233154
v 765.398499 -178.393784 149.793335
v 767.242554 -174.973083 149.793335
v 770.815918 -168.344086 147.733154
v 767.242554 -174.973083 168.233154
v 768.025391 -173.520782 168.233154
v 768.025391 -173.520782 149.793335
v 768.947388 -171.810379 149.793335
v 768.947388 -171.810379 168.233154
v 769.730225 -170.358185 168.233154
v 769.730225 -170.358185 149.793335
v 770.652222 -168.647781 149.793335
v 770.652222 -168.647781 168.233154
v 770.815918 -168.344086 168.233154
v 762.860779 -191.873383 149.793335
v 764.813538 -192.927887 168.233154
v 762.860779 -191.873383 168.233154
v 761.151062 -190.950180 149.793335
v 764.813538 -192.927887 147.733154
v 761.151062 -190.950180 168.233154
v 759.198242 -189.895782 168.233154
v 759.198242 -189.895782 147.733154
v 772.183411 -179.264587 149.793335
v 772.347290 -178.960983 168.233154
v 772.183411 -179.264587 168.233154
v 771.260437 -180.974380 149.793335
v 772.347290 -178.960983 147.733154
v 771.260437 -180.974380 168.233154
v 770.611511 -182.176392 168.233154
v 770.611511 -182.176392 149.793335
v 769.688538 -183.886292 149.793335
v 769.688538 -183.886292 168.233154
v 769.039673 -185.088287 168.233154
v 769.039673 -185.088287 149.793335
v 767.895569 -187.207581 147.733154
v 768.116638 -186.798080 149.793335
v 768.116638 -186.798080 168.233154
v 767.895569 -187.207581 168.233154
v 767.467773 -188.000092 149.793335
v 767.467773 -188.000092 168.233154
v 766.544739 -189.709991 149.793335
v 766.544739 -189.709991 168.233154
v 765.895874 -190.911987 168.233154
v 765.895874 -190.911987 149.793335
v 764.808960 -192.925385 147.733154
v 764.972839 -192.621780 149.793335
v 764.972839 -192.621780 168.233154
v 764.808960 -192.925385 168.233154
v 772.772644 -169.398987 149.793335
v 770.815918 -168.344086 168.233154
v 772.772644 -169.398987 168.233154
v 774.482971 -170.321091 149.793335
v 770.815918 -168.344086 147.733154
v 774.482971 -170.321091 168.233154
v 776.439636 -171.375992 168.233154
v 776.439636 -171.375992 147.733154
v 776.275940 -171.679688 149.793335
v 776.439636 -171.375992 168.233154
v 776.275940 -171.679688 168.233154
v 775.353760 -173.389984 149.793335
v 776.439636 -171.375992 147.733154
v 775.353760 -173.389984 168.233154
v 774.855652 -174.313980 168.233154
v 774.855652 -174.313980 149.793335
v 773.933533 -176.024292 149.793335
v 773.933533 -176.024292 168.233154
v 773.435364 -176.948181 168.233154
v 773.435364 -176.948181 149.793335
v 772.349487 -178.962189 147.733154
v 772.513245 -178.658478 149.793335
v 772.513245 -178.658478 168.233154
v 772.349487 -178.962189 168.233154
vt 129.777405 11.076200
vt 131.632294 110.215103
vt 129.777405 110.215103
vt 119.330902 11.076200
vt 131.632294 0.000000
vt 119.330902 110.215103
vt 110.460899 110.215103
vt 110.460899 11.076200
vt 100.014297 11.076200
vt 100.014297 110.215103
vt 91.144287 110.215103
vt 91.144287 11.076200
vt 70.251152 11.076200
vt 70.251152 110.215103
vt 61.381149 110.215103
vt 61.381149 11.076200
vt 40.487999 11.076200
vt 0.000000 0.000000
vt 40.487999 110.215103
vt 31.617990 110.215103
vt 31.617990 11.076200
vt 21.171419 11.076200
vt 21.171419 110.215103
vt 12.301410 110.215103
vt 12.301410 11.076200
vt 1.854840 11.076200
vt 1.854840 110.215103
vt 0.000000 110.215103
vt 22.378130 11.076200
vt 34.309689 110.215103
vt 22.378130 110.215103
vt 11.931560 11.076200
vt 34.309689 0.000000
vt 11.931560 110.215103
vt 0.000000 110.215103
vt 0.000000 0.000000
vt 83.463387 11.076200
vt 85.318230 110.215103
vt 83.463387 110.215103
vt 73.016830 11.076200
vt 85.318230 0.000000
vt 73.016830 110.215103
vt 65.672897 110.215103
vt 65.672897 11.076200
vt 55.226318 11.076200
vt 55.226318 110.215103
vt 47.882401 110.215103
vt 47.882401 11.076200
vt 34.934120 0.000000
vt 37.435829 11.076200
vt 37.435829 110.215103
vt 34.934120 110.215103
vt 30.091909 11.076200
vt 30.091909 110.215103
vt 19.645330 11.076200
vt 19.645330 110.215103
vt 12.301410 110.215103
vt 12.301410 11.076200
vt 0.000000 0.000000
vt 1.854840 11.076200
vt 1.854840 110.215103
vt 0.000000 110.215103
vt 22.397940 11.076200
vt 34.349300 110.215103
vt 22.397940 110.215103
vt 11.951360 11.076200
vt 34.349300 0.000000
vt 11.951360 110.215103
vt 0.000000 110.215103
vt 0.000000 0.000000
vt 44.481239 11.076200
vt 46.336079 110.215103
vt 44.481239 110.215103
vt 34.034672 11.076200
vt 46.336079 0.000000
vt 34.034672 110.215103
vt 28.391331 110.215103
vt 28.391331 11.076200
vt 17.944750 11.076200
vt 17.944750 110.215103
vt 12.301410 110.215103
vt 12.301410 11.076200
vt 0.000000 0.000000
vt 1.854840 11.076200
vt 1.854840 110.215103
vt 0.000000 110.215103
vn -0.8803 0.4744 0.0000
vn -0.8803 0.4745 0.0000
vn -0.8802 0.4745 0.0000
vn -0.8802 0.4746 0.0000
vn -0.8802 0.4746 0.0001
vn -0.8803 0.4744 0.0001
vn -0.8802 0.4745 0.0001
vn -0.4751 -0.8799 0.0000
vn -0.4752 -0.8799 0.0000
vn 0.8799 -0.4752 0.0000
vn 0.8799 -0.4751 -0.0000
vn 0.8802 -0.4747 0.0000
vn 0.8800 -0.4750 0.0000
vn 0.8800 -0.4751 -0.0000
vn 0.8800 -0.4749 0.0001
vn 0.8800 -0.4749 -0.0000
vn 0.8801 -0.4747 0.0000
vn 0.4746 0.8802 0.0000
vn 0.4745 0.8802 0.0000
vn 0.8802 -0.4746 0.0000
vn 0.8803 -0.4745 0.0000
vn 0.8802 -0.4745 0.0000
vn 0.8802 -0.4746 0.0001
vn 0.8801 -0.4748 0.0000
vn -0.8801 0.4747 0.0000
s off
f 1/1/1 2/2/1 3/3/1
f 4/4/1 5/5/1 1/1/1
f 6/6/2 7/7/2 4/4/2
f 7/7/3 8/8/3 4/4/3
f 8/8/4 5/5/4 4/4/4
f 8/8/2 9/9/2 5/5/2
f 10/10/2 11/11/2 9/9/2
f 11/11/2 12/12/2 9/9/2
f 9/9/5 12/12/5 5/5/5
f 12/12/2 13/13/2 5/5/2
f 14/14/2 15/15/2 13/13/2
f 15/15/1 16/16/1 13/13/1
f 13/13/6 16/16/6 5/5/6
f 17/17/7 18/18/7 16/16/7
f 16/16/2 18/18/2 5/5/2
f 19/19/2 20/20/2 17/17/2
f 20/20/1 21/21/1 17/17/1
f 21/21/2 18/18/2 17/17/2
f 22/22/3 18/18/3 21/21/3
f 23/23/3 24/24/3 22/22/3
f 24/24/3 25/25/3 22/22/3
f 25/25/3 18/18/3 22/22/3
f 26/26/2 18/18/2 25/25/2
f 27/27/4 28/28/4 26/26/4
f 28/28/2 18/18/2 26/26/2
f 29/29/8 30/30/8 31/31/8
f 32/32/8 33/33/8 29/29/8
f 30/30/9 29/29/9 33/33/9
f 34/34/8 35/35/8 32/32/8
f 35/35/8 36/36/8 32/32/8
f 36/36/8 33/33/8 32/32/8
f 37/37/10 38/38/10 39/39/10
f 40/40/11 41/41/11 37/37/11
f 38/38/12 37/37/12 41/41/12
f 42/42/11 43/43/11 40/40/11
f 43/43/13 44/44/13 40/40/13
f 40/40/14 44/44/14 41/41/14
f 44/44/15 45/45/15 41/41/15
f 46/46/13 47/47/13 45/45/13
f 47/47/11 48/48/11 45/45/11
f 45/45/16 48/48/16 49/49/16
f 41/41/13 45/45/13 49/49/13
f 48/48/11 50/50/11 49/49/11
f 51/51/13 52/52/13 50/50/13
f 50/50/14 53/53/14 49/49/14
f 52/52/13 54/54/13 53/53/13
f 53/53/13 55/55/13 49/49/13
f 56/56/13 57/57/13 55/55/13
f 57/57/11 58/58/11 55/55/11
f 58/58/11 59/59/11 55/55/11
f 55/55/13 59/59/13 49/49/13
f 60/60/11 59/59/11 58/58/11
f 61/61/10 62/62/10 60/60/10
f 62/62/17 59/59/17 60/60/17
f 63/63/18 64/64/18 65/65/18
f 66/66/18 67/67/18 63/63/18
f 64/64/19 63/63/19 67/67/19
f 68/68/18 69/69/18 66/66/18
f 69/69/18 70/70/18 66/66/18
f 70/70/18 67/67/18 66/66/18
f 71/71/20 72/72/20 73/73/20
f 74/74/20 75/75/20 71/71/20
f 72/72/21 71/71/21 75/75/21
f 76/76/21 77/77/21 74/74/21
f 77/77/22 78/78/22 74/74/22
f 78/78/23 75/75/23 74/74/23
f 78/78/20 79/79/20 75/75/20
f 80/80/20 81/81/20 79/79/20
f 81/81/20 82/82/20 79/79/20
f 82/82/22 83/83/22 79/79/22
f 79/79/20 83/83/20 75/75/20
f 84/84/20 83/83/20 82/82/20
f 85/85/20 86/86/20 84/84/20
f 86/86/24 83/83/24 84/84/24
s 1
f 2/2/25 1/1/25 5/5/25
f 52/52/13 53/53/13 50/50/13
