# Blender v3.0.1 OBJ File: 'rockerfeller_plaza.blend'
# www.blender.org
o geometryt000010000010000110010110000110000100110010110010st114_
v 69.157440 -68.600334 290.276855
v 66.830093 -67.361595 290.276855
v 89.888847 -24.706543 290.276855
v 92.114250 -25.890934 290.276855
v 133.681503 -104.724258 290.276855
v 68.521126 -69.784531 290.276855
v 92.775490 -24.673143 290.276855
v 158.029007 -59.667133 290.276855
v 69.157440 -68.600334 493.076904
v 68.521126 -69.784531 493.076904
v 133.681503 -104.724258 493.076904
v 158.029007 -59.667133 493.076904
v 92.114250 -25.890934 493.076904
v 92.775490 -24.673143 493.076904
v 89.888847 -24.706543 493.076904
v 66.830093 -67.361595 493.076904
vt 0.103850 0.131390
vt 0.102340 0.126730
vt 0.017390 0.174200
vt 0.018840 0.178660
vt 0.149070 0.260610
vt 0.106210 0.130080
vt 0.016410 0.180020
vt 0.059340 0.310740
vt 0.103850 0.131390
vt 0.106210 0.130080
vt 0.149070 0.260610
vt 0.059340 0.310740
vt 0.018840 0.178660
vt 0.016410 0.180020
vt 0.017390 0.174200
vt 0.102340 0.126730
vn 0.0000 0.0000 -1.0000
vn 0.0000 0.0000 1.0000
s off
f 1/1/1 2/2/1 3/3/1
f 4/4/1 1/1/1 3/3/1
f 5/5/1 1/1/1 4/4/1
f 6/6/1 1/1/1 5/5/1
f 7/7/1 8/8/1 4/4/1
f 8/8/1 5/5/1 4/4/1
f 9/9/2 10/10/2 11/11/2
f 12/12/2 13/13/2 11/11/2
f 13/13/2 9/9/2 11/11/2
f 14/14/2 13/13/2 12/12/2
f 15/15/2 9/9/2 13/13/2
f 15/15/2 16/16/2 9/9/2
