# Blender v3.0.1 OBJ File: 'rockerfeller_plaza.blend'
# www.blender.org
o geometryt000010000010000110010110000110000110100000100110st32
v 746.228760 -314.683105 656.066772
v 752.914917 -318.291107 656.066772
v 739.502319 -343.127808 656.066772
v 732.816162 -339.519714 656.066772
v 746.228760 -314.683105 683.266724
v 732.816162 -339.519714 683.266724
v 739.502319 -343.127808 683.266724
v 752.914917 -318.291107 683.266724
vt 0.495430 0.481850
vt 0.499870 0.495250
vt 0.549330 0.467630
vt 0.544890 0.454240
vt 0.495430 0.481850
vt 0.544890 0.454240
vt 0.549330 0.467630
vt 0.499870 0.495250
vn 0.0000 0.0000 -1.0000
vn 0.0000 0.0000 1.0000
s off
f 1/1/1 2/2/1 3/3/1
f 1/1/1 3/3/1 4/4/1
f 5/5/2 6/6/2 7/7/2
f 8/8/2 5/5/2 7/7/2
