# Blender v3.0.1 OBJ File: 'rockerfeller_plaza.blend'
# www.blender.org
o geometryt000010000010000110010110000110000110100000100110st151
v 740.990723 -307.923523 657.058044
v 739.511047 -310.662811 657.058044
v 739.511047 -310.662811 680.612915
v 740.990723 -307.923523 680.612915
v 742.640137 -304.869904 657.058044
v 741.160522 -307.609222 657.058044
v 741.160522 -307.609222 680.612915
v 742.640137 -304.869904 680.612915
v 744.289612 -301.816223 657.058044
v 742.809937 -304.555511 657.058044
v 742.809937 -304.555511 680.612915
v 744.289612 -301.816223 680.612915
v 745.199219 -300.132202 657.058044
v 744.459412 -301.501923 657.058044
v 744.459412 -301.501923 680.612915
v 745.199219 -300.132202 680.612915
v 746.108948 -298.448212 657.058044
v 745.369141 -299.817902 657.058044
v 745.369141 -299.817902 680.612915
v 746.108948 -298.448212 680.612915
v 747.018555 -296.764221 657.058044
v 746.278748 -298.133911 657.058044
v 746.278748 -298.133911 680.612915
v 747.018555 -296.764221 680.612915
v 747.928223 -295.080200 680.612915
v 747.928223 -295.080200 657.058044
v 747.188354 -296.449799 657.058044
v 747.188354 -296.449799 680.612915
v 749.577637 -292.026611 680.612915
v 749.577637 -292.026611 657.058044
v 748.098022 -294.765808 657.058044
v 748.098022 -294.765808 680.612915
v 751.227112 -288.972900 657.058044
v 749.747559 -291.712219 657.058044
v 749.747559 -291.712219 680.612915
v 751.227112 -288.972900 680.612915
v 752.876648 -285.919312 657.058044
v 751.396912 -288.658600 657.058044
v 751.396912 -288.658600 680.612915
v 752.876648 -285.919312 680.612915
v 740.291443 -311.476196 657.058044
v 744.400757 -313.695007 657.058044
v 744.400757 -313.695007 680.612915
v 740.291443 -311.476196 680.612915
v 745.509155 -313.901398 680.612915
v 745.509155 -313.901398 657.058044
v 746.989319 -311.162415 657.058044
v 746.989319 -311.162415 680.612915
v 747.158630 -310.848999 680.612915
v 747.158630 -310.848999 657.058044
v 748.638855 -308.110016 657.058044
v 748.638855 -308.110016 680.612915
v 748.808228 -307.796600 680.612915
v 748.808228 -307.796600 657.058044
v 750.288330 -305.057617 657.058044
v 750.288330 -305.057617 680.612915
v 750.457764 -304.744202 657.058044
v 751.197815 -303.374695 657.058044
v 751.197815 -303.374695 680.612915
v 750.457764 -304.744202 680.612915
v 751.367126 -303.061310 680.612915
v 751.367126 -303.061310 657.058044
v 752.107239 -301.691803 657.058044
v 752.107239 -301.691803 680.612915
v 752.276611 -301.378510 680.612915
v 752.276611 -301.378510 657.058044
v 753.016724 -300.009003 657.058044
v 753.016724 -300.009003 680.612915
v 753.186035 -299.695618 657.058044
v 753.926147 -298.326111 657.058044
v 753.926147 -298.326111 680.612915
v 753.186035 -299.695618 680.612915
v 754.095520 -298.012695 680.612915
v 754.095520 -298.012695 657.058044
v 755.575623 -295.273712 657.058044
v 755.575623 -295.273712 680.612915
v 755.744995 -294.960297 680.612915
v 755.744995 -294.960297 657.058044
v 757.225220 -292.221313 657.058044
v 757.225220 -292.221313 680.612915
v 757.394531 -291.907898 680.612915
v 757.394531 -291.907898 657.058044
v 758.874756 -289.168915 657.058044
v 758.874756 -289.168915 680.612915
v 758.092712 -288.352905 657.058044
v 753.986633 -286.128296 657.058044
v 753.986633 -286.128296 680.612915
v 758.092712 -288.352905 680.612915
vt 0.000000 0.000000
vt 0.666670 0.000000
vt 0.666670 6.000000
vt 0.000000 6.000000
vt 0.000000 0.000000
vt 0.666670 0.000000
vt 0.666670 6.000000
vt 0.000000 6.000000
vt 0.000000 0.000000
vt 0.666670 0.000000
vt 0.666670 6.000000
vt 0.000000 6.000000
vt 0.000000 0.000000
vt 0.333330 0.000000
vt 0.333330 6.000000
vt 0.000000 6.000000
vt 0.000000 0.000000
vt 0.333330 0.000000
vt 0.333330 6.000000
vt 0.000000 6.000000
vt 0.000000 0.000000
vt 0.333330 0.000000
vt 0.333330 6.000000
vt 0.000000 6.000000
vt 0.000000 6.000000
vt 0.000000 0.000000
vt 0.333330 0.000000
vt 0.333330 6.000000
vt 0.000000 6.000000
vt 0.000000 0.000000
vt 0.666670 0.000000
vt 0.666670 6.000000
vt 0.000000 0.000000
vt 0.666670 0.000000
vt 0.666670 6.000000
vt 0.000000 6.000000
vt 0.000000 0.000000
vt 0.666670 0.000000
vt 0.666670 6.000000
vt 0.000000 6.000000
vt 0.000000 0.000000
vt 1.000000 0.000000
vt 1.000000 6.000000
vt 0.000000 6.000000
vt 0.000000 6.000000
vt 0.000000 0.000000
vt 0.666670 0.000000
vt 0.666670 6.000000
vt 0.000000 6.000000
vt 0.000000 0.000000
vt 0.666670 0.000000
vt 0.666670 6.000000
vt 0.000000 6.000000
vt 0.000000 0.000000
vt 0.666670 0.000000
vt 0.666670 6.000000
vt 0.000000 0.000000
vt 0.333330 0.000000
vt 0.333330 6.000000
vt 0.000000 6.000000
vt 0.000000 6.000000
vt 0.000000 0.000000
vt 0.333330 0.000000
vt 0.333330 6.000000
vt 0.000000 6.000000
vt 0.000000 0.000000
vt 0.333330 0.000000
vt 0.333330 6.000000
vt 0.000000 0.000000
vt 0.333330 0.000000
vt 0.333330 6.000000
vt 0.000000 6.000000
vt 0.000000 6.000000
vt 0.000000 0.000000
vt 0.666670 0.000000
vt 0.666670 6.000000
vt 0.000000 6.000000
vt 0.000000 0.000000
vt 0.666670 0.000000
vt 0.666670 6.000000
vt 0.000000 6.000000
vt 0.000000 0.000000
vt 0.666670 0.000000
vt 0.666670 6.000000
vt 0.000000 0.000000
vt 1.000000 0.000000
vt 1.000000 6.000000
vt 0.000000 6.000000
vn -0.8799 0.4752 0.0000
vn -0.8798 0.4753 0.0000
vn -0.8799 0.4751 0.0000
vn -0.4751 -0.8799 0.0000
vn 0.8797 -0.4754 0.0000
vn 0.8798 -0.4754 0.0000
vn 0.4764 0.8793 0.0000
vn 0.4764 0.8792 0.0000
s off
f 1/1/1 2/2/1 3/3/1
f 4/4/2 1/1/2 3/3/2
f 5/5/2 6/6/2 7/7/2
f 8/8/1 5/5/1 7/7/1
f 9/9/2 10/10/2 11/11/2
f 12/12/1 9/9/1 11/11/1
f 13/13/2 14/14/2 15/15/2
f 16/16/3 13/13/3 15/15/3
f 17/17/3 18/18/3 19/19/3
f 20/20/2 17/17/2 19/19/2
f 21/21/1 22/22/1 23/23/1
f 24/24/1 21/21/1 23/23/1
f 25/25/2 26/26/2 27/27/2
f 25/25/2 27/27/2 28/28/2
f 29/29/2 30/30/2 31/31/2
f 29/29/2 31/31/2 32/32/2
f 33/33/1 34/34/1 35/35/1
f 36/36/1 33/33/1 35/35/1
f 37/37/2 38/38/2 39/39/2
f 40/40/2 37/37/2 39/39/2
f 41/41/4 42/42/4 43/43/4
f 44/44/4 41/41/4 43/43/4
f 45/45/5 46/46/5 47/47/5
f 45/45/6 47/47/6 48/48/6
f 49/49/5 50/50/5 51/51/5
f 49/49/5 51/51/5 52/52/5
f 53/53/5 54/54/5 55/55/5
f 53/53/6 55/55/6 56/56/6
f 57/57/5 58/58/5 59/59/5
f 60/60/6 57/57/6 59/59/6
f 61/61/5 62/62/5 63/63/5
f 61/61/5 63/63/5 64/64/5
f 65/65/5 66/66/5 67/67/5
f 65/65/5 67/67/5 68/68/5
f 69/69/5 70/70/5 71/71/5
f 72/72/5 69/69/5 71/71/5
f 73/73/6 74/74/6 75/75/6
f 73/73/6 75/75/6 76/76/6
f 77/77/5 78/78/5 79/79/5
f 77/77/5 79/79/5 80/80/5
f 81/81/5 82/82/5 83/83/5
f 81/81/5 83/83/5 84/84/5
f 85/85/7 86/86/7 87/87/7
f 88/88/8 85/85/8 87/87/8
