# Blender v3.0.1 OBJ File: 'rockerfeller_plaza.blend'
# www.blender.org
o geometryt000010000010000110010110000110000110100000000100st101
v 380.481812 -50.710712 65.292740
v 379.496521 -50.189232 65.292740
v 376.413422 -42.742111 65.292740
v 401.929230 -56.345894 65.292740
v 389.106445 -58.493183 65.292740
v 383.882507 -55.700554 65.292740
v 379.159912 -53.190754 65.292740
v 372.687531 -49.735371 65.292740
v 378.174530 -52.658184 65.292740
v 392.393524 -60.242481 65.292740
v 398.203430 -63.339161 65.292740
v 380.481812 -50.710712 90.592735
v 379.159912 -53.190754 90.592735
v 383.882507 -55.700554 90.592735
v 389.106445 -58.493183 90.592735
v 392.393524 -60.242481 90.592735
v 401.929230 -56.345894 90.592735
v 398.203430 -63.339161 90.592735
v 376.413422 -42.742111 90.592735
v 372.687531 -49.735371 90.592735
v 379.496521 -50.189232 90.592735
v 378.174530 -52.658184 90.592735
vt 0.050330 0.264770
vt 0.049690 0.262800
vt 0.037120 0.256760
vt 0.053760 0.307870
vt 0.061750 0.281970
vt 0.058320 0.271510
vt 0.055260 0.262050
vt 0.051030 0.249080
vt 0.054600 0.260070
vt 0.063880 0.288560
vt 0.067670 0.300200
vt 0.050330 0.264770
vt 0.055260 0.262050
vt 0.058320 0.271510
vt 0.061750 0.281970
vt 0.063880 0.288560
vt 0.053760 0.307870
vt 0.067670 0.300200
vt 0.037120 0.256760
vt 0.051030 0.249080
vt 0.049690 0.262800
vt 0.054600 0.260070
vn 0.0000 0.0000 -1.0000
vn -0.0000 0.0000 1.0000
s off
f 1/1/1 2/2/1 3/3/1
f 4/4/1 1/1/1 3/3/1
f 1/1/1 4/4/1 5/5/1
f 1/1/1 5/5/1 6/6/1
f 1/1/1 6/6/1 7/7/1
f 8/8/1 2/2/1 9/9/1
f 3/3/1 2/2/1 8/8/1
f 10/10/1 4/4/1 11/11/1
f 4/4/1 10/10/1 5/5/1
f 12/12/2 13/13/2 14/14/2
f 15/15/2 12/12/2 14/14/2
f 16/16/2 17/17/2 15/15/2
f 17/17/2 12/12/2 15/15/2
f 18/18/2 17/17/2 16/16/2
f 17/17/2 19/19/2 12/12/2
f 19/19/2 20/20/2 21/21/2
f 19/19/2 21/21/2 12/12/2
f 20/20/2 22/22/2 21/21/2
