# Blender v3.0.1 OBJ File: 'rockerfeller_plaza.blend'
# www.blender.org
o geometryt000010000010000110010110000110000110100100010010st33_7
v 1241.869385 -158.176559 1010.415283
v 1265.737793 -113.620865 1010.415283
v 1249.017090 -154.306870 1010.415283
v 1273.620361 -167.385559 1010.415283
v 1276.658936 -176.675858 1010.415283
v 1267.036377 -120.688965 1010.415283
v 1293.926025 -128.611465 1010.415283
v 1291.316528 -133.582565 1010.415283
v 1287.155640 -157.456863 1010.415283
v 1278.616333 -157.845657 1010.415283
v 1280.750366 -154.079163 1010.415283
v 1285.621948 -144.018967 1010.415283
v 1291.639526 -133.767563 1010.415283
v 1286.013184 -144.258560 1010.415283
v 1294.282837 -128.796066 1010.415283
v 1283.546387 -165.015457 1010.415283
v 1277.151611 -176.936569 1010.415283
v 1280.948486 -153.699356 1010.415283
v 1287.685425 -157.273056 1010.415283
v 1278.208740 -157.650665 1010.415283
v 1265.737793 -113.620865 1070.415283
v 1241.869385 -158.176559 1070.415283
v 1249.017090 -154.306870 1070.415283
v 1273.620361 -167.385559 1070.415283
v 1276.658936 -176.675858 1070.415283
v 1267.036377 -120.688965 1070.415283
v 1293.926025 -128.611465 1070.415283
v 1291.316528 -133.582565 1070.415283
v 1287.155640 -157.456863 1070.415283
v 1278.616333 -157.845657 1070.415283
v 1279.505371 -156.276260 1070.415283
v 1280.750366 -154.079163 1070.415283
v 1277.151611 -176.936569 1070.415283
v 1283.546387 -165.015457 1070.415283
v 1280.833008 -153.920959 1070.415283
v 1280.948486 -153.699356 1070.415283
v 1287.685425 -157.273056 1070.415283
v 1294.282837 -128.796066 1070.415283
v 1291.639526 -133.767563 1070.415283
v 1249.017090 -154.306870 1070.415283
v 1267.036377 -120.688965 1070.415283
v 1285.621948 -144.018967 1070.415283
v 1273.620361 -167.385559 1070.415283
v 1278.208740 -157.650665 1070.415283
v 1282.533203 -149.698761 1070.415283
v 1291.316528 -133.582565 1070.415283
v 1278.378540 -157.731857 1070.415283
v 1278.616333 -157.845657 1070.415283
v 1285.621948 -144.018967 1154.415283
v 1267.036377 -120.688965 1154.415283
v 1249.017090 -154.306870 1154.415283
v 1278.208740 -157.650665 1154.415283
v 1273.620361 -167.385559 1154.415283
v 1291.316528 -133.582565 1154.415283
v 1278.616333 -157.845657 1154.415283
v 1291.639526 -133.767563 1154.415283
v 1286.013184 -144.258560 1154.415283
v 1280.750366 -154.079163 1154.415283
v 1280.948486 -153.699356 1154.415283
vt 0.212150 0.475920
vt 0.123490 0.525080
vt 0.202840 0.490420
vt 0.218810 0.539700
vt 0.234750 0.545600
vt 0.135940 0.527530
vt 0.141810 0.581540
vt 0.151680 0.576160
vt 0.196450 0.567210
vt 0.199870 0.549990
vt 0.192340 0.554380
vt 0.172480 0.564440
vt 0.151920 0.576810
vt 0.172790 0.565220
vt 0.142030 0.582250
vt 0.211350 0.559760
vt 0.235070 0.546590
vt 0.191580 0.554790
vt 0.195940 0.568280
vt 0.199640 0.549170
vt 0.123490 0.525080
vt 0.212150 0.475920
vt 0.202840 0.490420
vt 0.218810 0.539700
vt 0.234750 0.545600
vt 0.135940 0.527530
vt 0.141810 0.581540
vt 0.151680 0.576160
vt 0.196450 0.567210
vt 0.199870 0.549990
vt 0.196730 0.551820
vt 0.192340 0.554380
vt 0.235070 0.546590
vt 0.211350 0.559760
vt 0.192020 0.554550
vt 0.191580 0.554790
vt 0.195940 0.568280
vt 0.142030 0.582250
vt 0.151920 0.576810
vt 0.202840 0.490420
vt 0.135940 0.527530
vt 0.172480 0.564440
vt 0.218810 0.539700
vt 0.199640 0.549170
vt 0.183800 0.558080
vt 0.151680 0.576160
vt 0.199740 0.549510
vt 0.199870 0.549990
vt 0.172480 0.564440
vt 0.135940 0.527530
vt 0.202840 0.490420
vt 0.199640 0.549170
vt 0.218810 0.539700
vt 0.151680 0.576160
vt 0.199870 0.549990
vt 0.151920 0.576810
vt 0.172790 0.565220
vt 0.192340 0.554380
vt 0.191580 0.554790
vn 0.0000 0.0000 -1.0000
vn -0.0002 0.0000 -1.0000
vn 0.0005 0.0000 -1.0000
vn -0.0004 0.0000 -1.0000
vn -0.0001 0.0000 -1.0000
vn 0.0001 0.0000 -1.0000
vn 0.0007 0.0000 -1.0000
vn 0.0000 0.0000 1.0000
vn -0.0003 0.0000 1.0000
vn -0.0002 0.0000 1.0000
vn 0.0002 0.0000 1.0000
s off
f 1/1/1 2/2/1 3/3/1
f 4/4/1 1/1/1 3/3/1
f 5/5/1 1/1/1 4/4/1
f 3/3/1 2/2/1 6/6/1
f 6/6/1 2/2/1 7/7/1
f 6/6/1 7/7/1 8/8/1
f 9/9/1 5/5/1 4/4/1
f 10/10/1 9/9/1 4/4/1
f 10/10/1 11/11/1 9/9/1
f 12/12/1 13/13/1 14/14/1
f 12/12/2 8/8/2 13/13/2
f 8/8/3 15/15/3 13/13/3
f 7/7/4 15/15/4 8/8/4
f 5/5/1 16/16/1 17/17/1
f 5/5/5 9/9/5 16/16/5
f 11/11/1 18/18/1 9/9/1
f 18/18/6 19/19/6 9/9/6
f 9/9/1 19/19/1 16/16/1
f 10/10/1 20/20/1 11/11/1
f 20/20/7 18/18/7 11/11/7
f 12/12/6 18/18/6 20/20/6
f 14/14/4 18/18/4 12/12/4
f 21/21/8 22/22/8 23/23/8
f 23/23/8 22/22/8 24/24/8
f 24/24/8 22/22/8 25/25/8
f 26/26/8 21/21/8 23/23/8
f 21/21/8 26/26/8 27/27/8
f 27/27/8 26/26/8 28/28/8
f 29/29/8 24/24/8 25/25/8
f 29/29/8 30/30/8 24/24/8
f 31/31/8 30/30/8 29/29/8
f 32/32/8 31/31/8 29/29/8
f 25/25/9 33/33/9 34/34/9
f 29/29/8 25/25/8 34/34/8
f 35/35/8 32/32/8 29/29/8
f 36/36/8 35/35/8 29/29/8
f 37/37/8 36/36/8 29/29/8
f 34/34/10 37/37/10 29/29/10
f 38/38/10 28/28/10 39/39/10
f 27/27/8 28/28/8 38/38/8
f 40/40/1 41/41/1 42/42/1
f 43/43/1 40/40/1 44/44/1
f 44/44/1 40/40/1 45/45/1
f 45/45/1 40/40/1 42/42/1
f 42/42/1 41/41/1 46/46/1
f 43/43/1 44/44/1 47/47/1
f 43/43/5 47/47/5 48/48/5
f 49/49/8 50/50/8 51/51/8
f 52/52/8 51/51/8 53/53/8
f 49/49/8 51/51/8 52/52/8
f 49/49/8 54/54/8 50/50/8
f 52/52/8 53/53/8 55/55/8
f 56/56/10 49/49/10 57/57/10
f 56/56/8 54/54/8 49/49/8
f 58/58/10 52/52/10 55/55/10
f 58/58/8 59/59/8 52/52/8
f 59/59/11 49/49/11 52/52/11
f 57/57/8 49/49/8 59/59/8
