# Blender v3.0.1 OBJ File: 'rockerfeller_plaza.blend'
# www.blender.org
o geometryt000010000010000110010110000110000100110010010110st76
v 28.820061 -148.453598 19.856560
v 29.123159 -148.618301 36.525139
v 28.820061 -148.453598 36.525139
v 23.367500 -145.489197 19.856560
v 29.123159 -148.618301 17.225140
v 23.367500 -145.489197 36.525139
v 21.601440 -144.529099 36.525139
v 21.601440 -144.529099 19.856560
v 16.148870 -141.564697 19.856560
v 15.845770 -141.399902 17.225140
v 16.148870 -141.564697 36.525139
v 15.845770 -141.399902 36.525139
v 16.319580 -140.528595 19.856560
v 15.845770 -141.399902 36.525139
v 16.319580 -140.528595 36.525139
v 20.025551 -133.713196 19.856560
v 15.845770 -141.399902 17.225140
v 20.025551 -133.713196 36.525139
v 20.499359 -132.841797 36.525139
v 20.499359 -132.841797 17.225140
v 20.917351 -133.068695 19.856560
v 20.499359 -132.841797 36.525139
v 20.917351 -133.068695 36.525139
v 25.008301 -135.289200 19.856560
v 20.499359 -132.841797 17.225140
v 25.008301 -135.289200 36.525139
v 25.426291 -135.516006 36.525139
v 25.426291 -135.516006 17.225140
v 24.672800 -125.156601 19.856560
v 24.218821 -125.993202 36.525139
v 24.672800 -125.156601 36.525139
v 28.086990 -118.865196 17.225140
v 27.632999 -119.701797 19.856560
v 24.218821 -125.993202 17.225140
v 27.632999 -119.701797 36.525139
v 28.086990 -118.865196 36.525139
v 27.556299 -127.811897 19.856560
v 28.168961 -128.145706 36.525139
v 27.556299 -127.811897 36.525139
v 24.218821 -125.993202 17.225140
v 24.831480 -126.327003 19.856560
v 28.168961 -128.145706 17.225140
v 24.831480 -126.327003 36.525139
v 24.218821 -125.993202 36.525139
v 25.696461 -135.019104 19.856560
v 25.426291 -135.516006 36.525139
v 25.696461 -135.019104 36.525139
v 28.930920 -129.069504 17.225140
v 28.660749 -129.566498 19.856560
v 25.426291 -135.516006 17.225140
v 28.660749 -129.566498 36.525139
v 28.930920 -129.069504 36.525139
v 27.954130 -128.547897 17.225140
v 28.930920 -129.069504 17.225140
v 28.930920 -129.069504 36.525139
v 27.954130 -128.547897 36.525139
v 28.168961 -128.145706 17.225140
v 27.954130 -128.547897 17.225140
v 27.954130 -128.547897 36.525139
v 28.168961 -128.145706 36.525139
v 28.390100 -119.029999 19.856560
v 28.086990 -118.865196 36.525139
v 28.390100 -119.029999 36.525139
v 33.842831 -121.994003 19.856560
v 28.086990 -118.865196 17.225140
v 33.842831 -121.994003 36.525139
v 34.744900 -122.484398 36.525139
v 34.744900 -122.484398 19.856560
v 36.108082 -123.225403 19.856560
v 36.108082 -123.225403 36.525139
v 37.010139 -123.715698 36.525139
v 37.010139 -123.715698 19.856560
v 42.765991 -126.844498 17.225140
v 42.462872 -126.679802 19.856560
v 42.462872 -126.679802 36.525139
v 42.765991 -126.844498 36.525139
v 30.302271 -146.438995 19.856560
v 30.743071 -145.624207 36.525139
v 30.302271 -146.438995 36.525139
v 29.123159 -148.618301 17.225140
v 29.563959 -147.803604 19.856560
v 30.743071 -145.624207 17.225140
v 29.563959 -147.803604 36.525139
v 29.123159 -148.618301 36.525139
v 32.897900 -146.800400 19.856560
v 33.690849 -147.233307 36.525139
v 32.897900 -146.800400 36.525139
v 31.536011 -146.057007 19.856560
v 33.690849 -147.233307 17.225140
v 31.536011 -146.057007 36.525139
v 30.743071 -145.624207 36.525139
v 30.743071 -145.624207 17.225140
v 39.044991 -151.459900 19.856560
v 39.499630 -151.706894 36.525139
v 39.044991 -151.459900 36.525139
v 33.137032 -148.250000 17.225140
v 33.591660 -148.496994 19.856560
v 39.499630 -151.706894 17.225140
v 33.591660 -148.496994 36.525139
v 33.137032 -148.250000 36.525139
v 33.690849 -147.233307 17.225140
v 33.137032 -148.250000 17.225140
v 33.137032 -148.250000 36.525139
v 33.690849 -147.233307 36.525139
v 42.601341 -127.147697 19.856560
v 42.765991 -126.844498 36.525139
v 42.601341 -127.147697 36.525139
v 41.860901 -128.511200 19.856560
v 42.765991 -126.844498 17.225140
v 41.860901 -128.511200 36.525139
v 41.310242 -129.525208 36.525139
v 41.310242 -129.525208 19.856560
v 39.088909 -133.615707 19.856560
v 39.088909 -133.615707 36.525139
v 38.538239 -134.629700 36.525139
v 38.538239 -134.629700 19.856560
v 37.633160 -136.296402 17.225140
v 37.797798 -135.993195 19.856560
v 37.797798 -135.993195 36.525139
v 37.633160 -136.296402 36.525139
v 38.417439 -136.724106 19.856560
v 37.633160 -136.296402 36.525139
v 38.417439 -136.724106 36.525139
v 39.779640 -137.466904 19.856560
v 37.633160 -136.296402 17.225140
v 39.779640 -137.466904 36.525139
v 40.563931 -137.894501 36.525139
v 40.563931 -137.894501 17.225140
v 39.139679 -141.243301 19.856560
v 38.836491 -141.078598 36.525139
v 39.139679 -141.243301 36.525139
v 40.518452 -141.991806 17.225140
v 40.215248 -141.827194 19.856560
v 38.836491 -141.078598 17.225140
v 40.215248 -141.827194 36.525139
v 40.518452 -141.991806 36.525139
v 40.070148 -138.804703 19.856560
v 40.563931 -137.894501 36.525139
v 40.070148 -138.804703 36.525139
v 38.836491 -141.078598 17.225140
v 39.330261 -140.168503 19.856560
v 40.563931 -137.894501 17.225140
v 39.330261 -140.168503 36.525139
v 38.836491 -141.078598 36.525139
v 39.499630 -151.706894 17.225140
v 39.838490 -151.081299 36.525139
v 39.499630 -151.706894 36.525139
v 39.838490 -151.081299 17.225140
v 42.095490 -152.311401 19.856560
v 42.990120 -152.798996 36.525139
v 42.095490 -152.311401 36.525139
v 40.733131 -151.568893 19.856560
v 42.990120 -152.798996 17.225140
v 40.733131 -151.568893 36.525139
v 39.838490 -151.081299 36.525139
v 39.838490 -151.081299 17.225140
v 41.254101 -140.639893 17.225140
v 40.518452 -141.991806 17.225140
v 40.518452 -141.991806 36.525139
v 41.254101 -140.639893 36.525139
v 41.815979 -140.946304 19.856560
v 41.254101 -140.639893 36.525139
v 41.815979 -140.946304 36.525139
v 44.540451 -142.431793 19.856560
v 41.254101 -140.639893 17.225140
v 44.540451 -142.431793 36.525139
v 45.102329 -142.738098 36.525139
v 45.102329 -142.738098 17.225140
v 41.916550 -154.770798 19.856560
v 41.584919 -155.379898 36.525139
v 41.916550 -154.770798 36.525139
v 42.658489 -153.408096 19.856560
v 41.584919 -155.379898 17.225140
v 42.658489 -153.408096 36.525139
v 42.990120 -152.798996 36.525139
v 42.990120 -152.798996 17.225140
v 55.442692 -162.911697 19.856560
v 55.745811 -163.076508 36.525139
v 55.442692 -162.911697 36.525139
v 49.989792 -159.947998 19.856560
v 55.745811 -163.076508 17.225140
v 49.989792 -159.947998 36.525139
v 47.340939 -158.508301 36.525139
v 47.340939 -158.508301 19.856560
v 41.888039 -155.544601 19.856560
v 41.584919 -155.379898 17.225140
v 41.888039 -155.544601 36.525139
v 41.584919 -155.379898 36.525139
v 45.266769 -142.434906 19.856560
v 45.102329 -142.738098 36.525139
v 45.266769 -142.434906 36.525139
v 46.745880 -139.706894 19.856560
v 45.102329 -142.738098 17.225140
v 46.745880 -139.706894 36.525139
v 47.406502 -138.488495 36.525139
v 47.406502 -138.488495 19.856560
v 49.625160 -134.396606 19.856560
v 50.285782 -133.178207 36.525139
v 49.625160 -134.396606 36.525139
v 50.285782 -133.178207 19.856560
v 51.929329 -130.147003 17.225140
v 51.764889 -130.450302 19.856560
v 51.764889 -130.450302 36.525139
v 51.929329 -130.147003 22.225140
v 51.929329 -130.147003 36.525139
v 53.624031 -127.052101 17.225140
v 51.929329 -130.147003 17.225140
v 51.929329 -130.147003 22.225140
v 53.624031 -127.052101 22.225140
v 52.232460 -130.311707 36.525139
v 52.232460 -130.311707 22.225140
v 51.929329 -130.147003 22.225140
v 51.929329 -130.147003 36.525139
v 59.619331 -134.326004 36.525139
v 59.619331 -134.326004 22.225140
v 57.685539 -133.275101 22.225140
v 57.685539 -133.275101 36.525139
v 62.916389 -136.117798 36.525139
v 62.916389 -136.117798 22.225140
v 60.982601 -135.066895 22.225140
v 60.982601 -135.066895 36.525139
v 68.672592 -139.245895 36.525139
v 68.672592 -139.245895 22.225140
v 68.369461 -139.081207 22.225140
v 68.369461 -139.081207 36.525139
v 70.367287 -136.151001 17.225140
v 53.624031 -127.052101 17.225140
v 53.624031 -127.052101 22.225140
v 70.367287 -136.151001 22.225140
v 68.508087 -139.549194 36.525139
v 68.508087 -139.549194 19.856560
v 68.672592 -139.245895 22.225140
v 68.672592 -139.245895 36.525139
v 65.548866 -145.004501 19.856560
v 68.672592 -139.245895 17.225140
v 65.548866 -145.004501 36.525139
v 65.173698 -145.696106 36.525139
v 65.173698 -145.696106 19.856560
v 62.954281 -149.787598 19.856560
v 62.954281 -149.787598 36.525139
v 62.579102 -150.479294 36.525139
v 62.579102 -150.479294 19.856560
v 61.839298 -151.843094 19.856560
v 61.839298 -151.843094 36.525139
v 61.464119 -152.534698 36.525139
v 61.464119 -152.534698 19.856560
v 55.745811 -163.076508 17.225140
v 59.244709 -156.626297 19.856560
v 59.244709 -156.626297 36.525139
v 58.869530 -157.317902 36.525139
v 58.869530 -157.317902 19.856560
v 55.910309 -162.773193 19.856560
v 55.910309 -162.773193 36.525139
v 55.745811 -163.076508 36.525139
v 68.672592 -139.245895 17.225140
v 70.367287 -136.151001 17.225140
v 70.367287 -136.151001 22.225140
v 68.672592 -139.245895 22.225140
vt 9.496931 1.692230
vt 9.718791 12.411580
vt 9.496931 12.411580
vt 5.505760 1.692230
vt 9.718791 0.000000
vt 4.213040 1.692230
vt 0.221860 1.692230
vt 0.000000 0.000000
vt 0.221860 12.411580
vt 0.000000 12.411580
vt 5.626800 1.692230
vt 6.264640 12.411580
vt 5.626800 12.411580
vt 0.637840 1.692230
vt 6.264640 0.000000
vt 0.637840 12.411580
vt 0.000000 12.411580
vt 0.000000 0.000000
vt 3.299230 1.692230
vt 3.605070 12.411580
vt 3.299230 12.411580
vt 0.305850 1.692230
vt 3.605070 0.000000
vt 0.305850 12.411580
vt 0.000000 12.411580
vt 0.000000 0.000000
vt 4.603270 1.692230
vt 5.215360 12.411580
vt 4.603270 12.411580
vt 0.000000 0.000000
vt 0.612100 1.692230
vt 5.215360 0.000000
vt 0.612100 12.411580
vt 0.000000 12.411580
vt 2.444280 1.692230
vt 2.892970 12.411580
vt 2.444280 12.411580
vt 0.000000 0.000000
vt 0.448690 1.692230
vt 2.892970 0.000000
vt 0.448690 12.411580
vt 0.000000 12.411580
vt 4.354930 1.692230
vt 4.718690 12.411580
vt 4.354930 12.411580
vt 0.000000 0.000000
vt 0.363760 1.692230
vt 4.718690 0.000000
vt 0.363760 12.411580
vt 0.000000 12.411580
vt 0.000000 0.000000
vt 0.712120 0.000000
vt 0.712120 12.411580
vt 0.000000 12.411580
vt 0.000000 0.000000
vt 0.293210 0.000000
vt 0.293210 12.411580
vt 0.000000 12.411580
vt 10.522550 1.692230
vt 10.744410 12.411580
vt 10.522550 12.411580
vt 6.531370 1.692230
vt 10.744410 0.000000
vt 6.531370 12.411580
vt 5.871100 12.411580
vt 5.871100 1.692230
vt 4.873310 1.692230
vt 4.873310 12.411580
vt 4.213040 12.411580
vt 4.213040 1.692230
vt 0.000000 0.000000
vt 0.221860 1.692230
vt 0.221860 12.411580
vt 0.000000 12.411580
vt 1.593510 1.692230
vt 2.189230 12.411580
vt 1.593510 12.411580
vt 0.000000 0.000000
vt 0.595720 1.692230
vt 2.189230 0.000000
vt 0.595720 12.411580
vt 0.000000 12.411580
vt 1.578750 1.692230
vt 2.159700 12.411580
vt 1.578750 12.411580
vt 0.580960 1.692230
vt 2.159700 0.000000
vt 0.580960 12.411580
vt 0.000000 12.411580
vt 0.000000 0.000000
vt 4.323900 1.692230
vt 4.656640 12.411580
vt 4.323900 12.411580
vt 0.000000 0.000000
vt 4.656640 0.000000
vt 0.332730 12.411580
vt 0.000000 12.411580
vt 0.332730 1.692230
vt 0.000000 0.000000
vt 0.744540 0.000000
vt 0.744540 12.411580
vt 0.000000 12.411580
vt 6.694930 1.692230
vt 6.916790 12.411580
vt 6.694930 12.411580
vt 5.697140 1.692230
vt 6.916790 0.000000
vt 5.697140 12.411580
vt 4.955090 12.411580
vt 4.955090 1.692230
vt 1.961710 1.692230
vt 1.961710 12.411580
vt 1.219660 12.411580
vt 1.219660 1.692230
vt 0.000000 0.000000
vt 0.221860 1.692230
vt 0.221860 12.411580
vt 0.000000 12.411580
vt 1.572270 1.692230
vt 2.146740 12.411580
vt 1.572270 12.411580
vt 0.574470 1.692230
vt 2.146740 0.000000
vt 0.574470 12.411580
vt 0.000000 12.411580
vt 0.000000 0.000000
vt 1.008910 1.692230
vt 1.230770 12.411580
vt 1.008910 12.411580
vt 0.000000 0.000000
vt 0.221860 1.692230
vt 1.230770 0.000000
vt 0.221860 12.411580
vt 0.000000 12.411580
vt 1.663690 1.692230
vt 2.329590 12.411580
vt 1.663690 12.411580
vt 0.000000 0.000000
vt 0.665900 1.692230
vt 2.329590 0.000000
vt 0.665900 12.411580
vt 0.000000 12.411580
vt 0.000000 0.000000
vt 0.457570 12.411580
vt 0.000000 12.411580
vt 0.457570 0.000000
vt 1.653020 1.692230
vt 2.308250 12.411580
vt 1.653020 12.411580
vt 0.655230 1.692230
vt 2.308250 0.000000
vt 0.655230 12.411580
vt 0.000000 12.411580
vt 0.000000 0.000000
vt 0.000000 0.000000
vt 0.989760 0.000000
vt 0.989760 12.411580
vt 0.000000 12.411580
vt 2.407140 1.692230
vt 2.818700 12.411580
vt 2.407140 12.411580
vt 0.411560 1.692230
vt 2.818700 0.000000
vt 0.411560 12.411580
vt 0.000000 12.411580
vt 0.000000 0.000000
vt 1.443790 1.692230
vt 1.889780 12.411580
vt 1.443790 12.411580
vt 0.446000 1.692230
vt 1.889780 0.000000
vt 0.446000 12.411580
vt 0.000000 12.411580
vt 0.000000 0.000000
vt 10.142990 1.692230
vt 10.364850 12.411580
vt 10.142990 12.411580
vt 6.151820 1.692230
vt 10.364850 0.000000
vt 6.151820 12.411580
vt 4.213040 12.411580
vt 4.213040 1.692230
vt 0.221860 1.692230
vt 0.000000 0.000000
vt 0.221860 12.411580
vt 0.000000 12.411580
vt 6.993420 1.692230
vt 9.210870 0.000000
vt 8.989010 1.692230
vt 9.210870 12.411580
vt 6.993420 12.411580
vt 6.102120 12.411580
vt 6.102120 1.692230
vt 3.108750 1.692230
vt 2.217450 12.411580
vt 3.108750 12.411580
vt 2.217450 1.692230
vt 0.000000 0.000000
vt 0.221860 1.692230
vt 0.221860 12.411580
vt 0.000000 3.215430
vt 0.000000 12.411580
vt 0.000000 0.000000
vt 2.269150 0.000000
vt 2.269150 3.215430
vt 0.000000 3.215430
vt 12.032730 9.196141
vt 12.032730 0.000000
vt 12.254600 0.000000
vt 12.254600 9.196141
vt 6.626190 9.196141
vt 6.626190 0.000000
vt 8.041561 0.000000
vt 8.041561 9.196141
vt 4.213040 9.196141
vt 4.213040 0.000000
vt 5.628400 0.000000
vt 5.628400 9.196141
vt 0.000000 9.196141
vt 0.000000 0.000000
vt 0.221860 0.000000
vt 0.221860 9.196141
vt 0.000000 0.000000
vt 12.254590 0.000000
vt 12.254590 3.215430
vt 0.000000 3.215430
vt 17.212770 12.411580
vt 17.212770 1.692230
vt 17.434629 3.215430
vt 17.434629 12.411580
vt 13.221600 1.692230
vt 17.434629 0.000000
vt 12.715590 1.692230
vt 9.722210 1.692230
vt 8.218420 12.411580
vt 7.712420 12.411580
vt 8.218420 1.692230
vt 7.712420 1.692230
vt 0.000000 0.000000
vt 4.719040 1.692230
vt 4.719040 12.411580
vt 4.213040 12.411580
vt 4.213040 1.692230
vt 0.221860 1.692230
vt 0.221860 12.411580
vt 0.000000 12.411580
vt 0.000000 0.000000
vt 2.269150 0.000000
vt 2.269150 3.215430
vt 0.000000 3.215430
vt 5.505760 12.411580
vt 4.213040 12.411580
vt 8.989010 12.411580
vt 13.221600 12.411580
vt 12.715590 12.411580
vt 9.722210 12.411580
vt 9.216211 12.411580
vt 9.216211 1.692230
vn -0.4775 -0.8787 0.0000
vn -0.4776 -0.8786 -0.0000
vn -0.4777 -0.8785 0.0000
vn -0.8785 0.4777 0.0000
vn 0.4771 0.8789 0.0000
vn 0.4770 0.8789 0.0000
vn 0.4769 0.8789 0.0000
vn -0.8789 0.4769 0.0000
vn -0.8789 0.4770 0.0000
vn -0.4784 -0.8781 0.0000
vn -0.4785 -0.8781 0.0000
vn -0.8786 0.4776 0.0000
vn -0.4710 -0.8821 0.0000
vn -0.8821 0.4712 0.0000
vn -0.8821 0.4711 0.0000
vn 0.4777 0.8785 0.0000
vn 0.4776 0.8786 0.0000
vn 0.4776 0.8786 -0.0001
vn 0.4775 0.8786 0.0000
vn 0.4775 0.8786 -0.0001
vn 0.4774 0.8787 0.0000
vn 0.8795 -0.4758 0.0000
vn 0.8795 -0.4759 -0.0000
vn -0.4792 -0.8777 0.0000
vn -0.4791 -0.8777 0.0000
vn -0.4791 -0.8778 0.0000
vn -0.4774 -0.8787 0.0000
vn -0.8782 0.4784 0.0000
vn 0.8788 -0.4772 0.0000
vn 0.4788 0.8779 0.0000
vn 0.4787 0.8780 0.0000
vn 0.4773 0.8787 0.0000
vn 0.4771 0.8788 0.0000
vn 0.8790 -0.4769 0.0000
vn 0.8793 -0.4763 0.0000
vn -0.4786 -0.8781 0.0000
vn -0.8784 0.4780 0.0000
vn 0.4786 0.8780 0.0000
vn -0.8783 0.4782 0.0000
vn -0.4775 -0.8786 0.0000
vn -0.8791 0.4766 0.0000
vn -0.8790 0.4768 0.0000
vn -0.8791 0.4767 0.0000
vn -0.8771 0.4803 0.0000
vn 0.8790 -0.4768 0.0000
vn 0.8790 -0.4768 0.0001
vn 0.8789 -0.4770 0.0000
vn 0.8790 -0.4767 0.0000
vn 0.8771 -0.4803 0.0000
vn -0.4778 -0.8785 0.0000
vn -0.8792 0.4765 -0.0000
s off
f 1/1/1 2/2/1 3/3/1
f 4/4/2 5/5/2 1/1/2
f 8/6/2 5/5/2 4/4/2
f 9/7/2 10/8/2 8/6/2
f 8/6/2 10/8/2 5/5/2
f 11/9/3 12/10/3 9/7/3
f 12/10/3 10/8/3 9/7/3
f 13/11/4 14/12/4 15/13/4
f 16/14/4 17/15/4 13/11/4
f 14/12/4 13/11/4 17/15/4
f 18/16/4 19/17/4 16/14/4
f 19/17/4 20/18/4 16/14/4
f 20/18/4 17/15/4 16/14/4
f 21/19/5 22/20/5 23/21/5
f 24/22/6 25/23/6 21/19/6
f 22/20/5 21/19/5 25/23/5
f 26/24/7 27/25/7 24/22/7
f 27/25/7 28/26/7 24/22/7
f 28/26/6 25/23/6 24/22/6
f 29/27/8 30/28/8 31/29/8
f 32/30/9 29/27/9 33/31/9
f 32/30/9 34/32/9 29/27/9
f 30/28/8 29/27/8 34/32/8
f 35/33/9 36/34/9 33/31/9
f 36/34/9 32/30/9 33/31/9
f 37/35/10 38/36/10 39/37/10
f 40/38/11 37/35/11 41/39/11
f 40/38/11 42/40/11 37/35/11
f 38/36/10 37/35/10 42/40/10
f 43/41/10 44/42/10 41/39/10
f 44/42/10 40/38/10 41/39/10
f 45/43/4 46/44/4 47/45/4
f 48/46/12 45/43/12 49/47/12
f 48/46/12 50/48/12 45/43/12
f 46/44/4 45/43/4 50/48/4
f 51/49/12 52/50/12 49/47/12
f 52/50/12 48/46/12 49/47/12
f 53/51/13 54/52/13 55/53/13
f 53/51/13 55/53/13 56/54/13
f 57/55/14 58/56/14 59/57/14
f 57/55/15 59/57/15 60/58/15
f 61/59/16 62/60/16 63/61/16
f 64/62/17 65/63/17 61/59/17
f 62/60/16 61/59/16 65/63/16
f 66/64/17 67/65/17 64/62/17
f 67/65/17 68/66/17 64/62/17
f 68/66/18 65/63/18 64/62/18
f 68/66/17 69/67/17 65/63/17
f 70/68/19 71/69/19 69/67/19
f 71/69/17 72/70/17 69/67/17
f 72/70/20 73/71/20 69/67/20
f 69/67/17 73/71/17 65/63/17
f 74/72/17 73/71/17 72/70/17
f 75/73/21 76/74/21 74/72/21
f 76/74/21 73/71/21 74/72/21
f 77/75/22 78/76/22 79/77/22
f 80/78/23 77/75/23 81/79/23
f 80/78/23 82/80/23 77/75/23
f 78/76/22 77/75/22 82/80/22
f 83/81/23 84/82/23 81/79/23
f 84/82/23 80/78/23 81/79/23
f 85/83/24 86/84/24 87/85/24
f 88/86/25 89/87/25 85/83/25
f 86/84/24 85/83/24 89/87/24
f 90/88/26 91/89/26 88/86/26
f 91/89/26 92/90/26 88/86/26
f 92/90/25 89/87/25 88/86/25
f 93/91/27 94/92/27 95/93/27
f 96/94/27 98/95/27 93/91/27
f 99/96/27 100/97/27 97/98/27
f 100/97/27 96/94/27 97/98/27
f 101/99/28 102/100/28 103/101/28
f 101/99/28 103/101/28 104/102/28
f 105/103/29 106/104/29 107/105/29
f 108/106/29 109/107/29 105/103/29
f 106/104/29 105/103/29 109/107/29
f 110/108/29 111/109/29 108/106/29
f 111/109/29 112/110/29 108/106/29
f 112/110/29 109/107/29 108/106/29
f 112/110/29 113/111/29 109/107/29
f 114/112/29 115/113/29 113/111/29
f 115/113/29 116/114/29 113/111/29
f 116/114/29 117/115/29 113/111/29
f 113/111/29 117/115/29 109/107/29
f 118/116/29 117/115/29 116/114/29
f 119/117/29 120/118/29 118/116/29
f 120/118/29 117/115/29 118/116/29
f 121/119/30 122/120/30 123/121/30
f 124/122/31 125/123/31 121/119/31
f 122/120/30 121/119/30 125/123/30
f 126/124/31 127/125/31 124/122/31
f 127/125/31 128/126/31 124/122/31
f 128/126/31 125/123/31 124/122/31
f 129/127/32 130/128/32 131/129/32
f 132/130/5 129/127/5 133/131/5
f 132/130/33 134/132/33 129/127/33
f 130/128/5 129/127/5 134/132/5
f 135/133/33 136/134/33 133/131/33
f 136/134/33 132/130/33 133/131/33
f 137/135/34 138/136/34 139/137/34
f 140/138/34 137/135/34 141/139/34
f 140/138/34 142/140/34 137/135/34
f 143/141/34 144/142/34 141/139/34
f 144/142/34 140/138/34 141/139/34
f 145/143/35 146/144/35 147/145/35
f 145/143/35 148/146/35 146/144/35
f 149/147/36 150/148/36 151/149/36
f 152/150/36 153/151/36 149/147/36
f 150/148/36 149/147/36 153/151/36
f 154/152/36 155/153/36 152/150/36
f 155/153/36 156/154/36 152/150/36
f 156/154/36 153/151/36 152/150/36
f 157/155/37 158/156/37 159/157/37
f 157/155/37 159/157/37 160/158/37
f 161/159/30 162/160/30 163/161/30
f 164/162/31 165/163/31 161/159/31
f 162/160/30 161/159/30 165/163/30
f 166/164/38 167/165/38 164/162/38
f 167/165/38 168/166/38 164/162/38
f 168/166/31 165/163/31 164/162/31
f 169/167/39 170/168/39 171/169/39
f 172/170/39 173/171/39 169/167/39
f 170/168/39 169/167/39 173/171/39
f 174/172/39 175/173/39 172/170/39
f 175/173/39 176/174/39 172/170/39
f 176/174/39 173/171/39 172/170/39
f 177/175/3 178/176/3 179/177/3
f 180/178/40 181/179/40 177/175/40
f 178/176/3 177/175/3 181/179/3
f 182/180/40 183/181/40 180/178/40
f 183/181/40 184/182/40 180/178/40
f 184/182/40 181/179/40 180/178/40
f 185/183/40 186/184/40 184/182/40
f 184/182/40 186/184/40 181/179/40
f 187/185/27 188/186/27 185/183/27
f 188/186/27 186/184/27 185/183/27
f 192/187/41 193/188/41 189/189/41
f 190/190/42 189/189/42 193/188/42
f 194/191/43 195/192/43 192/187/43
f 195/192/41 196/193/41 192/187/41
f 196/193/43 197/194/43 193/188/43
f 198/195/41 197/194/41 199/196/41
f 198/195/41 200/197/41 197/194/41
f 197/194/43 201/198/43 193/188/43
f 202/199/43 201/198/43 200/197/43
f 202/199/41 203/200/41 204/201/41
f 204/201/41 201/198/41 202/199/41
f 203/200/41 205/202/41 204/201/41
f 206/203/44 207/204/44 208/205/44
f 206/203/44 208/205/44 209/206/44
f 210/207/21 211/208/21 212/209/21
f 210/207/21 212/209/21 213/210/21
f 214/211/19 215/212/19 216/213/19
f 214/211/19 216/213/19 217/214/19
f 218/215/19 219/216/19 220/217/19
f 218/215/19 220/217/19 221/218/19
f 222/219/21 223/220/21 224/221/21
f 222/219/21 224/221/21 225/222/21
f 226/223/19 227/224/19 228/225/19
f 226/223/19 228/225/19 229/226/19
f 230/227/45 231/228/45 232/229/45
f 232/229/45 233/230/45 230/227/45
f 234/231/45 235/232/45 231/228/45
f 232/229/45 231/228/45 235/232/45
f 238/233/45 235/232/45 234/231/45
f 238/233/45 239/234/45 235/232/45
f 244/235/45 245/236/45 243/237/45
f 245/236/45 246/238/45 243/237/45
f 246/238/46 247/239/46 243/237/46
f 243/237/45 247/239/45 235/232/45
f 248/240/45 247/239/45 246/238/45
f 249/241/45 250/242/45 248/240/45
f 250/242/45 251/243/45 248/240/45
f 251/243/46 247/239/46 248/240/46
f 252/244/45 247/239/45 251/243/45
f 253/245/47 254/246/47 252/244/47
f 254/246/48 247/239/48 252/244/48
f 255/247/49 256/248/49 257/249/49
f 255/247/49 257/249/49 258/250/49
s 1
f 2/2/50 1/1/50 5/5/50
f 6/251/2 7/252/2 4/4/2
f 7/252/2 8/6/2 4/4/2
f 96/94/27 93/91/27 97/98/27
f 94/92/27 93/91/27 98/95/27
f 138/136/45 137/135/45 142/140/45
f 189/189/51 190/190/51 191/253/51
f 196/193/43 193/188/43 192/187/43
f 200/197/41 201/198/41 197/194/41
f 236/254/45 237/255/45 234/231/45
f 237/255/45 238/233/45 234/231/45
f 240/256/45 241/257/45 239/234/46
f 241/257/45 242/258/45 239/234/46
f 239/234/46 242/258/45 235/232/45
f 242/258/45 243/237/45 235/232/45
