# Blender v3.0.1 OBJ File: 'rockerfeller_plaza.blend'
# www.blender.org
o geometryt000010000010000110010110000110000110100000100100st57
v 508.354095 -290.767395 612.658875
v 508.185120 -291.075806 618.608582
v 508.354095 -290.767395 618.608582
v 509.032593 -289.529205 612.658875
v 508.497803 -290.505096 612.308594
v 508.185120 -291.075806 612.308594
v 509.032593 -289.529205 618.608582
v 509.201599 -289.220795 618.608582
v 509.201599 -289.220795 612.308594
v 509.623413 -288.438995 612.308594
v 509.201996 -289.221008 612.308594
v 509.201996 -289.221008 618.608582
v 509.623413 -288.438995 618.608582
v 510.508179 -288.916504 612.658875
v 509.623413 -288.438995 618.608582
v 510.508179 -288.916504 618.608582
v 515.120117 -291.406006 612.308594
v 514.235413 -290.928406 612.658875
v 509.623413 -288.438995 612.308594
v 514.235413 -290.928406 618.608582
v 515.120117 -291.406006 618.608582
v 514.739014 -292.104706 612.658875
v 515.120117 -291.406006 618.608582
v 514.739014 -292.104706 618.608582
v 514.062866 -293.344116 612.658875
v 515.120117 -291.406006 612.308594
v 514.062866 -293.344116 618.608582
v 513.681763 -294.042816 618.608582
v 513.681763 -294.042816 612.308594
vt 0.909980 0.180750
vt 1.091450 3.250770
vt 0.909980 3.250770
vt 0.181470 0.180750
vt 0.755680 0.000000
vt 1.091450 0.000000
vt 0.181470 3.250770
vt 0.000000 3.250770
vt 0.000000 0.000000
vt 0.000000 0.000000
vt 0.458410 0.000000
vt 0.458410 3.250770
vt 0.000000 3.250770
vt 2.704300 0.180750
vt 3.223070 3.250770
vt 2.704300 3.250770
vt 0.000000 0.000000
vt 0.518770 0.180750
vt 3.223070 0.000000
vt 0.000000 3.250770
vt 1.139180 0.180750
vt 1.549850 3.250770
vt 1.139180 3.250770
vt 0.410670 0.180750
vt 1.549850 0.000000
vt 0.410670 3.250770
vt 0.000000 3.250770
vt 0.000000 0.000000
vt 0.518770 3.250770
vn -0.8770 0.4805 0.0000
vn -0.8769 0.4807 0.0001
vn -0.8770 0.4804 -0.0000
vn -0.8769 0.4807 0.0000
vn -0.8771 0.4804 -0.0001
vn -0.8803 0.4744 0.0000
vn 0.4752 0.8799 -0.0000
vn 0.4749 0.8800 -0.0002
vn 0.4750 0.8800 0.0001
vn 0.4750 0.8800 0.0000
vn 0.8779 -0.4789 0.0000
vn 0.8778 -0.4791 -0.0002
vn 0.8779 -0.4788 0.0000
vn 0.8779 -0.4788 0.0001
vn 0.4751 0.8799 0.0000
s off
f 1/1/1 2/2/1 3/3/1
f 4/4/2 5/5/2 1/1/2
f 5/5/3 6/6/3 1/1/3
f 2/2/3 1/1/3 6/6/3
f 7/7/4 8/8/4 4/4/4
f 8/8/1 9/9/1 4/4/1
f 9/9/5 5/5/5 4/4/5
f 10/10/6 11/11/6 12/12/6
f 10/10/6 12/12/6 13/13/6
f 14/14/7 15/15/7 16/16/7
f 17/17/8 14/14/8 18/18/8
f 17/17/9 19/19/9 14/14/9
f 15/15/10 14/14/10 19/19/10
f 21/20/10 17/17/10 18/18/10
f 22/21/11 23/22/11 24/23/11
f 25/24/12 26/25/12 22/21/12
f 23/22/13 22/21/13 26/25/13
f 27/26/11 28/27/11 25/24/11
f 28/27/11 29/28/11 25/24/11
f 29/28/14 26/25/14 25/24/14
s 1
f 20/29/15 21/20/15 18/18/15
