# Blender v3.0.1 OBJ File: 'rockerfeller_plaza.blend'
# www.blender.org
o geometryt000010000010000110010110000110000110100000000110st98
v 717.918396 -145.671478 103.875671
v 722.148804 -147.942581 103.875671
v 715.150513 -160.958282 103.875671
v 710.920105 -158.687180 103.875671
v 717.918396 -145.671478 109.975677
v 710.920105 -158.687180 109.975677
v 715.150513 -160.958282 109.975677
v 722.148804 -147.942581 109.975677
vt 0.194870 0.441700
vt 0.197660 0.450170
vt 0.223570 0.435760
vt 0.220780 0.427290
vt 0.194870 0.441700
vt 0.220780 0.427290
vt 0.223570 0.435760
vt 0.197660 0.450170
vn 0.0000 0.0000 -1.0000
vn -0.0000 0.0000 1.0000
s off
f 1/1/1 2/2/1 3/3/1
f 1/1/1 3/3/1 4/4/1
f 5/5/2 6/6/2 7/7/2
f 8/8/2 5/5/2 7/7/2
