# Blender v3.0.1 OBJ File: 'rockerfeller_plaza.blend'
# www.blender.org
o geometryt000010000010000110010110000110000110100000100110st165_
v 621.082153 -281.590424 688.841064
v 597.222900 -268.423309 688.841064
v 599.297852 -264.635498 688.841064
v 601.728271 -260.199615 688.841064
v 604.910950 -254.389404 688.841064
v 628.770264 -267.556519 688.841064
v 601.874756 -241.590515 688.841064
v 604.006836 -237.635513 688.841064
v 611.857300 -241.918411 688.841064
v 606.488831 -251.417801 688.841064
v 635.586670 -254.798401 688.841064
v 599.297852 -264.635498 694.841064
v 597.222900 -268.423309 694.841064
v 621.082153 -281.590424 694.841064
v 612.004944 -271.557800 694.841064
v 619.850159 -275.831604 694.841064
v 624.953613 -266.518219 694.841064
v 628.770264 -267.556519 694.841064
v 625.402954 -265.698303 694.841064
v 625.421936 -265.663696 694.841064
v 619.850159 -275.831604 704.841064
v 601.728271 -260.199615 704.841064
v 599.297852 -264.635498 704.841064
v 618.890625 -269.558899 704.841064
v 621.517029 -264.763214 704.841064
v 625.421936 -265.663696 704.841064
v 622.023743 -263.838104 704.841064
v 622.023743 -263.838104 714.841064
v 604.910950 -254.389404 714.841064
v 601.728271 -260.199615 714.841064
v 618.890625 -269.558899 714.841064
v 611.857300 -241.918411 777.841064
v 604.006836 -237.635513 777.841064
v 601.874756 -241.590515 777.841064
v 606.488831 -251.417801 777.841064
v 622.023743 -263.838104 777.841064
v 604.910950 -254.389404 777.841064
v 620.585938 -259.258514 777.841064
v 624.513916 -252.207306 777.841064
v 635.586670 -254.798401 777.841064
v 625.129150 -261.768311 777.841064
v 625.421936 -265.663696 777.841064
v 631.107544 -255.849808 777.841064
v 627.179565 -262.901001 777.841064
v 628.770264 -267.556519 777.841064
v 629.393921 -258.925812 777.841064
v 624.513916 -252.207306 787.841064
v 620.585938 -259.258514 787.841064
v 627.179565 -262.901001 787.841064
v 631.107544 -255.849808 787.841064
vt 0.475000 0.230400
vt 0.458630 0.182620
vt 0.451080 0.186890
vt 0.442230 0.191900
vt 0.430650 0.198450
vt 0.447020 0.246230
vt 0.408320 0.192630
vt 0.400450 0.197020
vt 0.405750 0.212740
vt 0.424740 0.201700
vt 0.421640 0.260260
vt 0.451080 0.186890
vt 0.458630 0.182620
vt 0.475000 0.230400
vt 0.459630 0.212340
vt 0.464910 0.228050
vt 0.446350 0.238560
vt 0.447020 0.246230
vt 0.444710 0.239480
vt 0.444640 0.239520
vt 0.464910 0.228050
vt 0.442230 0.191900
vt 0.451080 0.186890
vt 0.453810 0.226270
vt 0.444240 0.231670
vt 0.444640 0.239520
vt 0.442400 0.232720
vt 0.442400 0.232720
vt 0.430650 0.198450
vt 0.442230 0.191900
vt 0.453810 0.226270
vt 0.405750 0.212740
vt 0.400450 0.197020
vt 0.408320 0.192630
vt 0.424740 0.201700
vt 0.442400 0.232720
vt 0.430650 0.198450
vt 0.434520 0.229930
vt 0.420450 0.238010
vt 0.421640 0.260260
vt 0.437650 0.239020
vt 0.444640 0.239520
vt 0.424980 0.251210
vt 0.439060 0.243130
vt 0.447020 0.246230
vt 0.431120 0.247690
vt 0.420450 0.238010
vt 0.434520 0.229930
vt 0.439060 0.243130
vt 0.424980 0.251210
vn 0.0000 0.0000 -1.0000
vn 0.0000 0.0000 1.0000
vn -0.0009 0.0000 1.0000
vn -0.0001 0.0000 1.0000
vn 0.0001 0.0000 1.0000
s off
f 1/1/1 2/2/1 3/3/1
f 4/4/1 1/1/1 3/3/1
f 4/4/1 5/5/1 6/6/1
f 4/4/1 6/6/1 1/1/1
f 7/7/1 8/8/1 9/9/1
f 7/7/1 9/9/1 10/10/1
f 10/10/1 6/6/1 5/5/1
f 10/10/1 9/9/1 11/11/1
f 10/10/1 11/11/1 6/6/1
f 12/12/2 13/13/2 14/14/2
f 15/15/2 12/12/2 14/14/2
f 15/15/2 14/14/2 16/16/2
f 17/17/2 16/16/2 14/14/2
f 14/14/2 18/18/2 17/17/2
f 18/18/2 19/19/2 17/17/2
f 18/18/3 20/20/3 19/19/3
f 21/21/2 22/22/2 23/23/2
f 22/22/2 21/21/2 24/24/2
f 24/24/2 21/21/2 25/25/2
f 25/25/2 21/21/2 26/26/2
f 26/26/2 27/27/2 25/25/2
f 28/28/2 29/29/2 30/30/2
f 30/30/2 31/31/2 28/28/2
f 32/32/2 33/33/2 34/34/2
f 32/32/2 34/34/2 35/35/2
f 36/36/2 35/35/2 37/37/2
f 36/36/2 32/32/2 35/35/2
f 32/32/4 36/36/4 38/38/4
f 32/32/2 38/38/2 39/39/2
f 39/39/2 40/40/2 32/32/2
f 41/41/2 38/38/2 36/36/2
f 36/36/2 42/42/2 41/41/2
f 39/39/2 43/43/2 40/40/2
f 44/44/5 41/41/5 42/42/5
f 42/42/2 40/40/2 44/44/2
f 45/45/2 40/40/2 42/42/2
f 40/40/2 46/46/2 44/44/2
f 43/43/2 46/46/2 40/40/2
f 47/47/2 48/48/2 49/49/2
f 47/47/2 49/49/2 50/50/2
