# Blender v3.0.1 OBJ File: 'rockerfeller_plaza.blend'
# www.blender.org
o geometryt000010000010000110010110000110000100110110010010st47
v 167.141541 -175.052292 844.167419
v 160.961044 -174.990601 844.167419
v 157.563049 -173.175888 844.167419
v 164.835846 -179.342300 844.167419
v 160.010742 -176.766891 844.167419
v 146.086151 -169.211990 844.167419
v 156.662247 -174.851700 844.167419
v 147.391647 -166.754395 844.167419
v 148.878937 -163.961700 844.167419
v 176.768448 -157.044098 844.167419
v 163.066650 -137.362991 844.167419
v 167.373550 -139.666794 844.167419
v 181.806351 -147.371201 844.167419
v 179.363342 -152.206787 844.167419
v 160.961044 -174.990601 896.767395
v 160.010742 -176.766891 896.767395
v 164.835846 -179.342300 896.767395
v 167.141541 -175.052292 896.767395
v 176.768448 -157.044098 896.767395
v 157.563049 -173.175888 896.767395
v 179.363342 -152.206787 896.767395
v 167.373550 -139.666794 896.767395
v 148.878937 -163.961700 896.767395
v 181.806351 -147.371201 896.767395
v 163.066650 -137.362991 896.767395
v 147.391647 -166.754395 896.767395
v 146.086151 -169.211990 896.767395
v 156.662247 -174.851700 896.767395
vt 0.268410 0.313560
vt 0.270260 0.301110
vt 0.268040 0.294300
vt 0.276950 0.308820
vt 0.273800 0.299150
vt 0.264480 0.271260
vt 0.271380 0.292450
vt 0.259590 0.273950
vt 0.254040 0.277010
vt 0.232580 0.333390
vt 0.201130 0.306230
vt 0.203950 0.314860
vt 0.213380 0.343770
vt 0.222960 0.338730
vt 0.270260 0.301110
vt 0.273800 0.299150
vt 0.276950 0.308820
vt 0.268410 0.313560
vt 0.232580 0.333390
vt 0.268040 0.294300
vt 0.222960 0.338730
vt 0.203950 0.314860
vt 0.254040 0.277010
vt 0.213380 0.343770
vt 0.201130 0.306230
vt 0.259590 0.273950
vt 0.264480 0.271260
vt 0.271380 0.292450
vn 0.0000 0.0000 -1.0000
vn 0.0000 0.0000 1.0000
s off
f 1/1/1 2/2/1 3/3/1
f 4/4/1 2/2/1 1/1/1
f 2/2/1 4/4/1 5/5/1
f 6/6/1 3/3/1 7/7/1
f 8/8/1 3/3/1 6/6/1
f 9/9/1 3/3/1 8/8/1
f 9/9/1 10/10/1 3/3/1
f 10/10/1 1/1/1 3/3/1
f 9/9/1 11/11/1 12/12/1
f 9/9/1 12/12/1 10/10/1
f 12/12/1 13/13/1 14/14/1
f 10/10/1 12/12/1 14/14/1
f 15/15/2 16/16/2 17/17/2
f 15/15/2 17/17/2 18/18/2
f 19/19/2 20/20/2 18/18/2
f 20/20/2 15/15/2 18/18/2
f 21/21/2 22/22/2 19/19/2
f 22/22/2 23/23/2 19/19/2
f 19/19/2 23/23/2 20/20/2
f 24/24/2 22/22/2 21/21/2
f 25/25/2 23/23/2 22/22/2
f 23/23/2 26/26/2 20/20/2
f 26/26/2 27/27/2 20/20/2
f 27/27/2 28/28/2 20/20/2
