# Blender v3.0.1 OBJ File: 'rockerfeller_plaza.blend'
# www.blender.org
o geometryt000010000010000110010110000110000110100000110000st124
v 869.856140 -286.086731 427.409119
v 869.692261 -286.390350 451.232300
v 869.856140 -286.086731 451.232300
v 871.909424 -282.283630 427.409119
v 869.692261 -286.390350 423.332306
v 871.909424 -282.283630 451.232300
v 872.089661 -281.949738 451.232300
v 872.089661 -281.949738 427.409119
v 873.458557 -279.414337 427.409119
v 873.458557 -279.414337 451.232300
v 873.638733 -279.080444 451.232300
v 873.638733 -279.080444 427.409119
v 874.323120 -277.812744 427.409119
v 874.323120 -277.812744 451.232300
v 874.503418 -277.478851 451.232300
v 874.503418 -277.478851 427.409119
v 878.269653 -270.502838 423.332306
v 875.872253 -274.943451 427.409119
v 875.872253 -274.943451 451.232300
v 876.052551 -274.609528 451.232300
v 876.052551 -274.609528 427.409119
v 878.105774 -270.806335 427.409119
v 878.105774 -270.806335 451.232300
v 878.269653 -270.502838 451.232300
v 876.490051 -290.055847 427.409119
v 876.947449 -290.302429 451.232300
v 876.490051 -290.055847 451.232300
v 870.149780 -286.637024 427.409119
v 876.947449 -290.302429 423.332306
v 870.149780 -286.637024 451.232300
v 869.692261 -286.390350 451.232300
v 869.692261 -286.390350 423.332306
v 877.944641 -288.414337 427.409119
v 878.269043 -287.800140 451.232300
v 877.944641 -288.414337 451.232300
v 876.947449 -290.302429 423.332306
v 877.271851 -289.688232 427.409119
v 878.269043 -287.800140 423.332306
v 877.271851 -289.688232 451.232300
v 876.947449 -290.302429 451.232300
v 882.709717 -279.623444 427.409119
v 883.024963 -279.042633 451.232300
v 882.709717 -279.623444 451.232300
v 878.586670 -287.220734 427.409119
v 880.649170 -283.420227 423.332306
v 881.836182 -281.233246 423.332306
v 883.024963 -279.042633 423.332306
v 878.586670 -287.220734 451.232300
v 878.271484 -287.801453 451.232300
v 878.271484 -287.801453 423.332306
v 879.460327 -285.610840 423.332306
v 878.842346 -270.812347 427.409119
v 878.269653 -270.502838 451.232300
v 878.842346 -270.812347 451.232300
v 880.109741 -271.497345 427.409119
v 878.269653 -270.502838 423.332306
v 880.109741 -271.497345 451.232300
v 880.682434 -271.806946 451.232300
v 880.682434 -271.806946 423.332306
v 880.877258 -271.446350 427.409119
v 880.682434 -271.806946 451.232300
v 880.877258 -271.446350 451.232300
v 881.561951 -270.178741 427.409119
v 880.682434 -271.806946 423.332306
v 881.561951 -270.178741 451.232300
v 881.756714 -269.818146 451.232300
v 881.756714 -269.818146 423.332306
v 881.888550 -266.976837 427.409119
v 881.479126 -267.734131 451.232300
v 881.888550 -266.976837 451.232300
v 882.983032 -264.952148 423.332306
v 882.573669 -265.709534 427.409119
v 881.479126 -267.734131 423.332306
v 882.573669 -265.709534 451.232300
v 882.983032 -264.952148 451.232300
v 881.711182 -269.476135 427.409119
v 881.756714 -269.818146 451.232300
v 881.711182 -269.476135 451.232300
v 881.524658 -268.076141 427.409119
v 881.756714 -269.818146 423.332306
v 881.524658 -268.076141 451.232300
v 881.479126 -267.734131 451.232300
v 881.479126 -267.734131 423.332306
v 883.306030 -264.830750 427.409119
v 882.983032 -264.952148 451.232300
v 883.306030 -264.830750 451.232300
v 884.781860 -264.276154 423.332306
v 884.458862 -264.397552 427.409119
v 882.983032 -264.952148 423.332306
v 884.458862 -264.397552 451.232300
v 884.781860 -264.276154 451.232300
v 884.889282 -275.584137 427.409119
v 885.385986 -274.661743 451.232300
v 884.889282 -275.584137 451.232300
v 883.523071 -278.120941 427.409119
v 884.219238 -276.828247 423.332306
v 885.385986 -274.661743 423.332306
v 883.523071 -278.120941 451.232300
v 883.026245 -279.043335 451.232300
v 883.026245 -279.043335 423.332306
v 884.991760 -263.885834 427.409119
v 884.781860 -264.276154 451.232300
v 884.991760 -263.885834 451.232300
v 886.566528 -260.957947 423.332306
v 886.356689 -261.348236 427.409119
v 884.781860 -264.276154 423.332306
v 886.356689 -261.348236 451.232300
v 886.566528 -260.957947 451.232300
v 891.219543 -263.858643 427.409119
v 891.383545 -263.555145 451.232300
v 891.219543 -263.858643 451.232300
v 889.165344 -267.661346 427.409119
v 891.383545 -263.555145 423.332306
v 889.165344 -267.661346 451.232300
v 888.726257 -268.474243 451.232300
v 888.726257 -268.474243 427.409119
v 888.041565 -269.741730 427.409119
v 885.384277 -274.660828 423.332306
v 888.041565 -269.741730 451.232300
v 887.602356 -270.554626 451.232300
v 887.602356 -270.554626 427.409119
v 885.548218 -274.357239 427.409119
v 885.548218 -274.357239 451.232300
v 885.384277 -274.660828 451.232300
v 887.072937 -261.230927 427.409119
v 886.566528 -260.957947 451.232300
v 887.072937 -261.230927 451.232300
v 891.383545 -263.555145 423.332306
v 890.877136 -263.282135 427.409119
v 886.566528 -260.957947 423.332306
v 890.877136 -263.282135 451.232300
v 891.383545 -263.555145 451.232300
vt 9.138331 2.103610
vt 9.316350 14.396290
vt 9.138331 14.396290
vt 6.908190 2.103610
vt 9.316350 0.000000
vt 6.712410 2.103610
vt 5.225650 2.103610
vt 5.029860 2.103610
vt 4.286480 2.103610
vt 4.286480 14.396290
vt 4.090700 14.396290
vt 4.090700 2.103610
vt 0.000000 0.000000
vt 2.603940 2.103610
vt 2.603940 14.396290
vt 2.408160 14.396290
vt 2.408160 2.103610
vt 0.178020 2.103610
vt 0.178020 14.396290
vt 0.000000 14.396290
vt 3.985060 2.103610
vt 4.253220 14.396290
vt 3.985060 14.396290
vt 0.268160 2.103610
vt 4.253220 0.000000
vt 0.268160 14.396290
vt 0.000000 14.396290
vt 0.000000 0.000000
vt 1.101790 2.103610
vt 1.460190 14.396290
vt 1.101790 14.396290
vt 0.000000 0.000000
vt 0.358410 2.103610
vt 1.460190 0.000000
vt 0.358410 14.396290
vt 0.000000 14.396290
vt 4.801230 2.103610
vt 5.142190 14.396290
vt 4.801230 14.396290
vt 0.340960 2.103610
vt 2.572150 0.000000
vt 3.856110 0.000000
vt 5.142190 0.000000
vt 0.340960 14.396290
vt 0.000000 14.396290
vt 0.000000 0.000000
vt 1.286080 0.000000
vt 1.079290 2.103610
vt 1.415200 14.396290
vt 1.079290 14.396290
vt 0.335910 2.103610
vt 1.415200 0.000000
vt 0.335910 14.396290
vt 0.000000 14.396290
vt 0.000000 0.000000
vt 0.954850 2.103610
vt 1.166320 14.396290
vt 0.954850 14.396290
vt 0.211470 2.103610
vt 1.166320 0.000000
vt 0.211470 14.396290
vt 0.000000 14.396290
vt 0.000000 0.000000
vt 1.187620 2.103610
vt 1.631850 14.396290
vt 1.187620 14.396290
vt 0.000000 0.000000
vt 0.444240 2.103610
vt 1.631850 0.000000
vt 0.444240 14.396290
vt 0.000000 14.396290
vt 0.906810 2.103610
vt 1.084830 14.396290
vt 0.906810 14.396290
vt 0.178020 2.103610
vt 1.084830 0.000000
vt 0.178020 14.396290
vt 0.000000 14.396290
vt 0.000000 0.000000
vt 0.813500 2.103610
vt 0.991510 14.396290
vt 0.813500 14.396290
vt 0.000000 0.000000
vt 0.178020 2.103610
vt 0.991510 0.000000
vt 0.178020 14.396290
vt 0.000000 14.396290
vt 2.027340 2.103610
vt 2.567920 14.396290
vt 2.027340 14.396290
vt 0.540580 2.103610
vt 1.298200 0.000000
vt 2.567920 0.000000
vt 0.540580 14.396290
vt 0.000000 14.396290
vt 0.000000 0.000000
vt 0.000000 0.000000
vt 1.715450 2.103610
vt 0.228690 2.103610
vt 1.944140 14.396290
vt 1.944140 0.000000
vt 6.335140 2.103610
vt 6.513160 14.396290
vt 6.335140 14.396290
vt 4.105010 2.103610
vt 6.513160 0.000000
vt 4.105010 14.396290
vt 3.628270 14.396290
vt 3.628270 2.103610
vt 2.884890 2.103610
vt 0.000000 0.000000
vt 2.884890 14.396290
vt 2.408160 14.396290
vt 2.408160 2.103610
vt 0.178020 2.103610
vt 0.178020 14.396290
vt 0.000000 14.396290
vt 2.526970 2.103610
vt 2.823810 14.396290
vt 2.526970 14.396290
vt 0.000000 0.000000
vt 0.296830 2.103610
vt 2.823810 0.000000
vt 0.296830 14.396290
vt 0.000000 14.396290
vt 6.908190 14.396290
vt 6.712410 14.396290
vt 5.225650 14.396290
vt 5.029860 14.396290
vt 1.715450 14.396290
vt 0.228690 14.396290
vt 0.000000 14.396290
vn -0.8799 0.4752 0.0000
vn -0.8799 0.4751 -0.0000
vn -0.8801 0.4749 0.0000
vn -0.8799 0.4751 0.0001
vn -0.8800 0.4750 0.0002
vn -0.8800 0.4750 0.0000
vn -0.8798 0.4753 0.0000
vn -0.8800 0.4749 0.0000
vn -0.8797 0.4755 0.0001
vn -0.8800 0.4751 0.0000
vn -0.4745 -0.8803 0.0000
vn -0.4746 -0.8802 -0.0000
vn 0.8843 -0.4670 0.0000
vn 0.8842 -0.4672 0.0000
vn 0.8842 -0.4671 0.0000
vn 0.8789 -0.4769 0.0000
vn 0.8789 -0.4770 0.0000
vn 0.8788 -0.4771 0.0000
vn 0.4755 0.8797 0.0000
vn 0.4754 0.8798 0.0000
vn 0.4756 0.8797 0.0000
vn -0.8797 0.4756 0.0000
vn -0.8797 0.4755 0.0000
vn -0.8798 0.4754 0.0000
vn -0.9913 -0.1316 0.0000
vn -0.9912 -0.1321 0.0000
vn -0.9912 -0.1322 0.0000
vn -0.9913 -0.1320 -0.0000
vn -0.3518 0.9361 0.0000
vn -0.3517 0.9361 -0.0000
vn 0.8804 -0.4742 0.0000
vn 0.8805 -0.4741 0.0000
vn -0.8807 0.4737 0.0000
vn -0.8806 0.4739 0.0000
vn 0.8800 -0.4750 0.0000
vn 0.8798 -0.4753 0.0000
vn 0.8796 -0.4757 0.0000
vn 0.8799 -0.4751 0.0000
vn 0.8799 -0.4751 0.0001
vn 0.8798 -0.4754 -0.0000
vn 0.8798 -0.4753 0.0002
vn 0.8799 -0.4752 0.0000
vn 0.4746 0.8802 0.0000
vn 0.4745 0.8802 0.0000
vn 0.4745 0.8803 0.0000
vn -0.8801 0.4748 0.0000
vn -0.8809 0.4733 0.0000
vn -0.8807 0.4736 0.0000
vn -0.8808 0.4735 0.0000
vn 0.8800 -0.4751 0.0000
s off
f 1/1/1 2/2/1 3/3/1
f 4/4/2 5/5/2 1/1/2
f 2/2/3 1/1/3 5/5/3
f 8/6/4 5/5/4 4/4/4
f 8/6/2 9/7/2 5/5/2
f 9/7/5 12/8/5 5/5/5
f 12/8/6 13/9/6 5/5/6
f 14/10/7 15/11/7 13/9/7
f 15/11/8 16/12/8 13/9/8
f 13/9/2 17/13/2 5/5/2
f 18/14/6 17/13/6 16/12/6
f 19/15/1 20/16/1 18/14/1
f 20/16/1 21/17/1 18/14/1
f 21/17/9 17/13/9 18/14/9
f 22/18/10 17/13/10 21/17/10
f 23/19/6 24/20/6 22/18/6
f 24/20/6 17/13/6 22/18/6
f 25/21/11 26/22/11 27/23/11
f 28/24/12 29/25/12 25/21/12
f 26/22/12 25/21/12 29/25/12
f 30/26/11 31/27/11 28/24/11
f 31/27/12 32/28/12 28/24/12
f 33/29/13 34/30/13 35/31/13
f 36/32/13 33/29/13 37/33/13
f 36/32/13 38/34/13 33/29/13
f 34/30/14 33/29/14 38/34/14
f 39/35/15 40/36/15 37/33/15
f 40/36/13 36/32/13 37/33/13
f 41/37/16 42/38/16 43/39/16
f 44/40/17 45/41/17 41/37/17
f 45/41/17 46/42/17 41/37/17
f 46/42/16 47/43/16 41/37/16
f 42/38/18 41/37/18 47/43/18
f 48/44/17 49/45/17 44/40/17
f 49/45/16 50/46/16 44/40/16
f 50/46/17 51/47/17 44/40/17
f 44/40/17 51/47/17 45/41/17
f 52/48/19 53/49/19 54/50/19
f 55/51/19 56/52/19 52/48/19
f 53/49/20 52/48/20 56/52/20
f 57/53/19 58/54/19 55/51/19
f 58/54/21 59/55/21 55/51/21
f 59/55/19 56/52/19 55/51/19
f 60/56/7 61/57/7 62/58/7
f 63/59/7 64/60/7 60/56/7
f 61/57/7 60/56/7 64/60/7
f 65/61/7 66/62/7 63/59/7
f 67/63/1 64/60/1 63/59/1
f 68/64/22 69/65/22 70/66/22
f 71/67/23 68/64/23 72/68/23
f 71/67/23 73/69/23 68/64/23
f 69/65/22 68/64/22 73/69/22
f 74/70/24 75/71/24 72/68/24
f 75/71/23 71/67/23 72/68/23
f 76/72/25 77/73/25 78/74/25
f 79/75/26 80/76/26 76/72/26
f 77/73/27 76/72/27 80/76/27
f 81/77/25 82/78/25 79/75/25
f 82/78/27 83/79/27 79/75/27
f 83/79/28 80/76/28 79/75/28
f 84/80/29 85/81/29 86/82/29
f 87/83/30 84/80/30 88/84/30
f 87/83/29 89/85/29 84/80/29
f 85/81/29 84/80/29 89/85/29
f 90/86/29 91/87/29 88/84/29
f 91/87/29 87/83/29 88/84/29
f 92/88/31 93/89/31 94/90/31
f 95/91/31 96/92/31 92/88/31
f 93/89/32 92/88/32 97/93/32
f 98/94/31 99/95/31 95/91/31
f 99/95/31 100/96/31 95/91/31
f 104/97/33 101/98/33 105/99/33
f 102/100/34 101/98/34 106/101/34
f 109/102/35 110/103/35 111/104/35
f 112/105/36 113/106/36 109/102/36
f 110/103/37 109/102/37 113/106/37
f 114/107/38 115/108/38 112/105/38
f 115/108/36 116/109/36 112/105/36
f 116/109/39 113/106/39 112/105/39
f 117/110/40 118/111/40 116/109/40
f 116/109/36 118/111/36 113/106/36
f 119/112/36 120/113/36 117/110/36
f 120/113/40 121/114/40 117/110/40
f 121/114/41 118/111/41 117/110/41
f 122/115/36 118/111/36 121/114/36
f 123/116/42 124/117/42 122/115/42
f 125/118/43 126/119/43 127/120/43
f 128/121/43 125/118/43 129/122/43
f 128/121/43 130/123/43 125/118/43
f 126/119/44 125/118/44 130/123/44
f 131/124/45 132/125/45 129/122/45
f 132/125/43 128/121/43 129/122/43
s 1
f 6/126/8 7/127/8 4/4/8
f 7/127/8 8/6/8 4/4/8
f 10/128/8 11/129/8 9/7/8
f 11/129/8 12/8/8 9/7/8
f 16/12/46 17/13/46 13/9/46
f 32/28/12 29/25/12 28/24/12
f 66/62/24 67/63/24 63/59/24
f 96/92/32 97/93/32 92/88/32
f 100/96/31 96/92/31 95/91/31
f 101/98/47 102/100/47 103/130/47
f 104/97/33 106/101/33 101/98/33
f 107/131/48 108/132/48 105/99/49
f 108/132/48 104/97/49 105/99/49
f 124/117/50 118/111/50 122/115/50
