# Blender v3.0.1 OBJ File: 'rockerfeller_plaza.blend'
# www.blender.org
o geometryt000010000010000110010110000110000110100000000100st27_1
v 413.760529 -218.867599 154.207581
v 413.760529 -218.867599 84.207535
v 413.990021 -219.125198 84.207535
v 413.990021 -219.125198 154.207581
v 414.882446 -220.126404 154.207581
v 414.882446 -220.126404 84.207535
v 415.111938 -220.384003 84.207535
v 415.111938 -220.384003 154.207581
v 414.074432 -218.275497 208.207581
v 414.074432 -218.275497 157.207581
v 414.317627 -218.520203 157.207581
v 414.317627 -218.520203 208.207581
v 415.249146 -219.457596 208.207581
v 415.249146 -219.457596 157.207581
v 415.492310 -219.702393 157.207581
v 415.492310 -219.702393 208.207581
v 415.111938 -220.384003 154.207581
v 415.111938 -220.384003 84.207535
v 415.453430 -220.432693 84.207535
v 415.453430 -220.432693 154.207581
v 416.858948 -220.632996 154.207581
v 416.858948 -220.632996 84.207535
v 417.200439 -220.681702 84.207535
v 417.200439 -220.681702 154.207581
v 415.492310 -219.702393 208.207581
v 415.492310 -219.702393 157.207581
v 415.830750 -219.769302 157.207581
v 415.830750 -219.769302 208.207581
v 417.167633 -220.033905 208.207581
v 417.167633 -220.033905 157.207581
v 417.506042 -220.100906 157.207581
v 417.506042 -220.100906 208.207581
v 430.119446 -227.514999 154.207581
v 430.119446 -227.514999 84.207535
v 430.349823 -227.771805 84.207535
v 430.349823 -227.771805 154.207581
v 431.248932 -228.774506 154.207581
v 431.248932 -228.774506 84.207535
v 431.479248 -229.031296 84.207535
v 431.479248 -229.031296 154.207581
v 430.474609 -226.844696 208.207581
v 430.474609 -226.844696 157.207581
v 430.702332 -227.103897 157.207581
v 430.702332 -227.103897 208.207581
v 431.598633 -228.124207 208.207581
v 431.598633 -228.124207 157.207581
v 431.826324 -228.383408 157.207581
v 431.826324 -228.383408 208.207581
v 431.479248 -229.031296 154.207581
v 431.479248 -229.031296 84.207535
v 431.820526 -229.082001 84.207535
v 431.820526 -229.082001 154.207581
v 433.218231 -229.289505 154.207581
v 433.218231 -229.289505 84.207535
v 433.559509 -229.340195 84.207535
v 433.559509 -229.340195 154.207581
v 431.826324 -228.383408 208.207581
v 431.826324 -228.383408 157.207581
v 432.167847 -228.432007 157.207581
v 432.167847 -228.432007 208.207581
v 433.573242 -228.632401 208.207581
v 433.573242 -228.632401 157.207581
v 433.914825 -228.681107 157.207581
v 433.914825 -228.681107 208.207581
v 439.597839 -171.904800 208.207581
v 439.597839 -171.904800 84.207535
v 439.256622 -171.853195 84.207535
v 439.256622 -171.853195 208.207581
v 441.303131 -172.162506 208.207581
v 441.303131 -172.162506 84.207535
v 440.962036 -172.110901 84.207535
v 440.962036 -172.110901 208.207581
v 441.534027 -172.418793 208.207581
v 441.534027 -172.418793 84.207535
v 441.303131 -172.162506 84.207535
v 441.303131 -172.162506 208.207581
v 442.688538 -173.700699 208.207581
v 442.688538 -173.700699 84.207535
v 442.457642 -173.444397 84.207535
v 442.457642 -173.444397 208.207581
v 455.922821 -180.600296 208.207581
v 455.922821 -180.600296 84.207535
v 455.582214 -180.545303 84.207535
v 455.582214 -180.545303 208.207581
v 457.637421 -180.876694 208.207581
v 457.637421 -180.876694 84.207535
v 457.296814 -180.821793 84.207535
v 457.296814 -180.821793 208.207581
v 457.868530 -181.132904 208.207581
v 457.868530 -181.132904 84.207535
v 457.637421 -180.876694 84.207535
v 457.637421 -180.876694 208.207581
v 459.005615 -182.392899 208.207581
v 459.005615 -182.392899 84.207535
v 458.774536 -182.136795 84.207535
v 458.774536 -182.136795 208.207581
vt 0.000000 60.816681
vt 0.000000 0.000000
vt 0.299740 0.000000
vt 0.299740 60.816681
vt 1.464980 60.816681
vt 1.464980 0.000000
vt 1.764720 0.000000
vt 1.764720 60.816681
vt 0.000000 44.309299
vt 0.000000 0.000000
vt 0.299740 0.000000
vt 0.299740 44.309299
vt 1.447880 44.309299
vt 1.447880 0.000000
vt 1.747620 0.000000
vt 1.747620 44.309299
vt 0.000000 60.816681
vt 0.000000 0.000000
vt 0.299740 0.000000
vt 0.299740 60.816681
vt 1.533140 60.816681
vt 1.533140 0.000000
vt 1.832870 0.000000
vt 1.832870 60.816681
vt 0.000000 44.309299
vt 0.000000 0.000000
vt 0.299740 0.000000
vt 0.299740 44.309299
vt 1.483730 44.309299
vt 1.483730 0.000000
vt 1.783470 0.000000
vt 1.783470 44.309299
vt 0.000000 60.816681
vt 0.000000 0.000000
vt 0.299740 0.000000
vt 0.299740 60.816681
vt 1.469810 60.816681
vt 1.469810 0.000000
vt 1.769550 0.000000
vt 1.769550 60.816681
vt 0.000000 44.309299
vt 0.000000 0.000000
vt 0.299740 0.000000
vt 0.299740 44.309299
vt 1.479580 44.309299
vt 1.479580 0.000000
vt 1.779320 0.000000
vt 1.779320 44.309299
vt 0.000000 60.816681
vt 0.000000 0.000000
vt 0.299740 0.000000
vt 0.299740 60.816681
vt 1.527390 60.816681
vt 1.527390 0.000000
vt 1.827130 0.000000
vt 1.827130 60.816681
vt 0.000000 44.309299
vt 0.000000 0.000000
vt 0.299740 0.000000
vt 0.299740 44.309299
vt 1.533140 44.309299
vt 1.533140 0.000000
vt 1.832880 0.000000
vt 1.832880 44.309299
vt 1.498420 107.732399
vt 1.498420 0.000000
vt 1.798160 0.000000
vt 1.798160 107.732399
vt 0.000000 107.732399
vt 0.000000 0.000000
vt 0.299740 0.000000
vt 0.299740 107.732399
vt 1.498810 107.732399
vt 1.498810 0.000000
vt 1.798550 0.000000
vt 1.798550 107.732399
vt 0.000000 107.732399
vt 0.000000 0.000000
vt 0.299740 0.000000
vt 0.299740 107.732399
vt 1.508850 107.732399
vt 1.508850 0.000000
vt 1.808590 0.000000
vt 1.808590 107.732399
vt 0.000000 107.732399
vt 0.000000 0.000000
vt 0.299740 0.000000
vt 0.299740 107.732399
vt 1.474640 107.732399
vt 1.474640 0.000000
vt 1.774380 0.000000
vt 1.774380 107.732399
vt 0.000000 107.732399
vt 0.000000 0.000000
vt 0.299740 0.000000
vt 0.299740 107.732399
vn -0.7466 -0.6652 0.0000
vn -0.7467 -0.6652 0.0000
vn -0.7093 -0.7049 0.0000
vn -0.7096 -0.7047 0.0000
vn -0.7094 -0.7048 0.0000
vn -0.1412 -0.9900 0.0000
vn -0.1411 -0.9900 0.0000
vn -0.1939 -0.9810 0.0000
vn -0.1942 -0.9810 0.0000
vn -0.7444 -0.6677 0.0000
vn -0.7443 -0.6678 0.0000
vn -0.7445 -0.6677 0.0000
vn -0.7513 -0.6600 0.0000
vn -0.7514 -0.6599 0.0000
vn -0.1469 -0.9891 0.0000
vn -0.1470 -0.9891 0.0000
vn -0.1409 -0.9900 0.0000
vn 0.1496 0.9888 0.0000
vn 0.1495 0.9888 0.0000
vn 0.1496 0.9887 0.0000
vn 0.7430 0.6693 0.0000
vn 0.7433 0.6690 -0.0000
vn 0.7430 0.6692 0.0000
vn 0.1591 0.9873 0.0000
vn 0.1594 0.9872 0.0000
vn 0.7426 0.6698 0.0000
vn 0.7424 0.6699 0.0000
s off
f 1/1/1 2/2/1 3/3/1
f 1/1/2 3/3/2 4/4/2
f 5/5/2 6/6/2 7/7/2
f 5/5/1 7/7/1 8/8/1
f 9/9/3 10/10/3 11/11/3
f 9/9/3 11/11/3 12/12/3
f 13/13/4 14/14/4 15/15/4
f 13/13/5 15/15/5 16/16/5
f 17/17/6 18/18/6 19/19/6
f 17/17/7 19/19/7 20/20/7
f 21/21/6 22/22/6 23/23/6
f 21/21/6 23/23/6 24/24/6
f 25/25/8 26/26/8 27/27/8
f 25/25/8 27/27/8 28/28/8
f 29/29/9 30/30/9 31/31/9
f 29/29/9 31/31/9 32/32/9
f 33/33/10 34/34/10 35/35/10
f 33/33/11 35/35/11 36/36/11
f 37/37/12 38/38/12 39/39/12
f 37/37/12 39/39/12 40/40/12
f 41/41/13 42/42/13 43/43/13
f 41/41/13 43/43/13 44/44/13
f 45/45/14 46/46/14 47/47/14
f 45/45/13 47/47/13 48/48/13
f 49/49/15 50/50/15 51/51/15
f 49/49/16 51/51/16 52/52/16
f 53/53/15 54/54/15 55/55/15
f 53/53/15 55/55/15 56/56/15
f 57/57/17 58/58/17 59/59/17
f 57/57/17 59/59/17 60/60/17
f 61/61/6 62/62/6 63/63/6
f 61/61/6 63/63/6 64/64/6
f 65/65/18 66/66/18 67/67/18
f 65/65/19 67/67/19 68/68/19
f 69/69/18 70/70/18 71/71/18
f 69/69/20 71/71/20 72/72/20
f 73/73/21 74/74/21 75/75/21
f 73/73/22 75/75/22 76/76/22
f 77/77/21 78/78/21 79/79/21
f 77/77/23 79/79/23 80/80/23
f 81/81/24 82/82/24 83/83/24
f 81/81/25 83/83/25 84/84/25
f 85/85/24 86/86/24 87/87/24
f 85/85/24 87/87/24 88/88/24
f 89/89/26 90/90/26 91/91/26
f 89/89/26 91/91/26 92/92/26
f 93/93/27 94/94/27 95/95/27
f 93/93/27 95/95/27 96/96/27
