# Blender v3.0.1 OBJ File: 'rockerfeller_plaza.blend'
# www.blender.org
o geometryt000010000010000110010110000110000110100100000000st62
v 520.189331 -176.084778 917.820801
v 508.105530 -169.587784 888.420471
v 546.144653 -190.039978 888.420471
v 508.105530 -169.587784 917.820801
v 546.144653 -190.039978 921.820801
v 520.332397 -176.161682 921.820801
v 520.332397 -176.161682 918.109619
v 520.189331 -176.084778 918.109619
v 509.620636 -164.647385 917.820801
v 509.620636 -164.647385 888.420471
v 507.370911 -168.691071 888.420471
v 507.370911 -168.691071 917.820801
v 510.851624 -162.249283 888.420471
v 510.156250 -163.626083 888.420471
v 510.156250 -163.626083 961.820801
v 510.851624 -162.249283 961.820801
v 510.148529 -164.428085 917.820801
v 510.999512 -164.882172 917.820801
v 512.706848 -165.793182 946.820801
v 510.148529 -164.428085 961.820801
v 511.295532 -165.040085 917.820801
v 512.706848 -165.793182 917.820801
v 512.870239 -165.880371 949.249329
v 512.870239 -165.880371 946.820801
v 548.252075 -184.759979 961.820801
v 548.252075 -184.759979 949.249329
v 512.706848 -165.793182 961.820801
v 512.781738 -166.299271 917.820801
v 512.897827 -167.083679 917.820801
v 512.781738 -166.299271 946.820801
v 513.007507 -167.825073 946.820801
v 513.007507 -167.825073 917.820801
v 513.730835 -168.675583 946.820801
v 513.730835 -168.675583 917.820801
v 514.434448 -169.049377 917.820801
v 515.093018 -169.399185 946.820801
v 515.093018 -169.399185 917.820801
v 515.837036 -170.124680 917.820801
v 516.177246 -171.480682 917.820801
v 515.837036 -170.124680 926.820801
v 516.212341 -171.620773 926.820801
v 516.212341 -171.620773 917.820801
v 516.526917 -170.162170 926.820801
v 535.676025 -180.365875 926.820801
v 516.526917 -170.162170 946.820801
v 545.113403 -185.394577 946.820801
v 545.113403 -185.394577 926.820801
v 516.633057 -172.179779 926.820801
v 516.633057 -172.179779 917.820801
v 518.889648 -173.415085 917.820801
v 519.338989 -173.661179 926.820801
v 519.338989 -173.661179 917.820801
v 519.751038 -174.211884 921.820801
v 519.751038 -174.211884 917.820801
v 520.101318 -175.713974 917.820801
v 520.101318 -175.713974 921.820801
v 519.967285 -174.004974 926.820801
v 519.967285 -174.004974 921.820801
v 531.963257 -180.564682 921.820801
v 543.789307 -187.031570 921.820801
v 547.033936 -188.805878 926.820801
v 547.033936 -188.805878 921.820801
v 552.296143 -176.760880 924.612610
v 555.015259 -178.217972 888.420471
v 529.183838 -164.375473 888.420471
v 555.015259 -178.217972 924.612610
v 529.183838 -164.375473 963.820801
v 549.359436 -175.187180 963.820801
v 549.359436 -175.187180 961.820801
v 549.577026 -175.303772 960.804749
v 549.577026 -175.303772 961.820801
v 552.296143 -176.760880 960.804749
v 546.500122 -185.613480 926.820801
v 547.661255 -185.227585 926.820801
v 546.500122 -185.613480 946.820801
v 547.963867 -185.127075 946.820801
v 547.963867 -185.127075 926.820801
v 547.449707 -190.468384 888.420471
v 548.952271 -190.119476 888.420471
v 548.952271 -190.119476 921.820801
v 547.449707 -190.468384 921.820801
v 548.053101 -188.795181 926.820801
v 548.053101 -188.795181 921.820801
v 549.550720 -188.425873 921.820801
v 549.550720 -188.425873 926.820801
v 548.848267 -184.401077 961.820801
v 548.848267 -184.401077 926.820801
v 550.790527 -180.793884 926.820801
v 552.504517 -177.610580 961.820801
v 552.504517 -177.610580 926.820801
v 550.207825 -188.358978 920.420715
v 549.478271 -189.717972 888.420471
v 555.315430 -178.846283 888.420471
v 549.478271 -189.717972 920.420715
v 555.315430 -178.846283 926.820801
v 550.266724 -188.249283 926.820801
v 550.266724 -188.249283 921.820801
v 550.207825 -188.358978 921.820801
vt 1.482450 1.980540
vt 0.000000 0.000000
vt 4.666670 0.000000
vt 0.000000 1.980540
vt 4.666670 2.250000
vt 1.500000 2.250000
vt 1.500000 2.000000
vt 1.482450 2.000000
vt 0.000000 2.250000
vt 0.000000 0.000000
vt 0.500000 0.000000
vt 0.500000 2.250000
vt 0.000000 0.000000
vt 0.166670 0.000000
vt 0.166670 6.000000
vt 0.000000 6.000000
vt 0.000000 0.000000
vt 0.104220 0.000000
vt 0.313320 2.306820
vt 0.000000 3.500000
vt 0.140470 0.000000
vt 0.333330 2.500000
vt 0.313320 3.500000
vt 4.666670 3.500000
vt 0.000000 0.000000
vt 0.085680 0.000000
vt 0.000000 2.250000
vt 0.166670 2.250000
vt 0.166670 0.000000
vt 0.000000 2.250000
vt 0.000000 0.000000
vt 0.086090 0.000000
vt 0.166670 2.250000
vt 0.000000 0.000000
vt 0.151070 0.000000
vt 0.000000 0.750000
vt 0.166670 0.750000
vt 0.166670 0.000000
vt 0.000000 0.000000
vt 2.344530 0.000000
vt 0.000000 1.500000
vt 3.500000 1.500000
vt 3.500000 0.000000
vt 0.000000 0.750000
vt 0.000000 0.000000
vt 0.277970 0.000000
vt 0.333330 0.750000
vt 0.333330 0.000000
vt 0.000000 0.250000
vt 0.000000 0.000000
vt 0.166670 0.000000
vt 0.166670 0.250000
vt 0.000000 0.250000
vt 0.000000 0.000000
vt 1.477330 0.000000
vt 2.933760 0.000000
vt 3.333330 0.250000
vt 3.333330 0.000000
vt 3.166670 6.250000
vt 0.333330 3.000000
vt 3.166670 0.000000
vt 0.693340 6.250000
vt 0.693340 6.084220
vt 0.666670 6.000000
vt 0.666670 6.084220
vt 0.000000 0.000000
vt 0.132210 0.000000
vt 0.000000 1.500000
vt 0.166670 1.500000
vt 0.166670 0.000000
vt 0.000000 0.000000
vt 0.166670 0.000000
vt 0.166670 2.250000
vt 0.000000 2.250000
vt 0.000000 0.250000
vt 0.000000 0.000000
vt 0.166670 0.000000
vt 0.166670 0.250000
vt 0.000000 2.750000
vt 0.000000 0.000000
vt 0.442680 0.000000
vt 0.833330 2.750000
vt 0.833330 0.000000
vt 0.166670 2.500000
vt 0.000000 0.000000
vt 1.333330 0.000000
vt 0.000000 2.500000
vt 1.333330 3.000000
vt 0.180120 3.000000
vt 0.180120 2.609380
vt 0.166670 2.609380
vt 0.313320 0.000000
vt 0.333330 2.306820
vt 4.666670 2.500000
vt 0.166670 0.000000
vt 0.000000 0.000000
vt 0.000000 3.000000
vt 0.333330 6.000000
vn -0.4736 -0.8808 0.0000
vn -0.4735 -0.8808 0.0000
vn -0.4737 -0.8807 -0.0000
vn -0.8739 0.4862 0.0000
vn -0.8926 0.4508 0.0000
vn -0.4708 -0.8823 0.0000
vn -0.4709 -0.8822 0.0000
vn -0.4707 -0.8823 -0.0000
vn -0.9892 -0.1464 0.0000
vn -0.4692 -0.8831 0.0000
vn -0.4691 -0.8831 0.0000
vn -0.9699 -0.2434 0.0000
vn -0.9701 -0.2427 0.0000
vn -0.9699 -0.2433 -0.0000
vn -0.4703 -0.8825 0.0000
vn -0.4802 -0.8772 0.0000
vn -0.4804 -0.8771 0.0000
vn -0.9739 -0.2271 0.0000
vn -0.4798 -0.8774 0.0000
vn 0.4723 0.8814 0.0000
vn 0.3154 -0.9490 0.0000
vn 0.3152 -0.9490 0.0000
vn 0.3153 -0.9490 -0.0000
vn 0.2262 -0.9741 0.0000
vn 0.2395 -0.9709 0.0000
vn 0.2394 -0.9709 0.0000
vn 0.8805 -0.4741 0.0000
vn 0.8810 -0.4730 0.0000
vn 0.8811 -0.4730 0.0000
vn 0.8810 -0.4731 0.0000
vn 0.8806 -0.4739 0.0000
vn -0.4708 -0.8822 0.0000
vn 0.4724 0.8814 -0.0000
s off
f 1/1/1 2/2/1 3/3/1
f 4/4/1 2/2/1 1/1/1
f 5/5/1 1/1/1 3/3/1
f 6/6/2 7/7/2 5/5/2
f 5/5/3 7/7/3 1/1/3
f 8/8/1 1/1/1 7/7/1
f 9/9/4 10/10/4 11/11/4
f 9/9/4 11/11/4 12/12/4
f 13/13/5 14/14/5 15/15/5
f 16/16/5 13/13/5 15/15/5
f 17/17/6 18/18/6 19/19/6
f 20/20/6 17/17/6 19/19/6
f 19/19/7 18/18/7 21/21/7
f 23/22/8 20/20/8 19/19/8
f 27/23/6 23/22/6 25/24/6
f 23/22/6 27/23/6 20/20/6
f 28/25/9 29/26/9 30/27/9
f 31/28/9 29/26/9 32/29/9
f 30/27/9 29/26/9 31/28/9
f 33/30/10 34/31/10 35/32/10
f 36/33/11 33/30/11 35/32/11
f 38/34/12 39/35/12 40/36/12
f 41/37/13 39/35/13 42/38/13
f 40/36/14 39/35/14 41/37/14
f 43/39/15 44/40/15 45/41/15
f 46/42/15 44/40/15 47/43/15
f 45/41/15 44/40/15 46/42/15
f 48/44/16 49/45/16 50/46/16
f 51/47/17 50/46/17 52/48/17
f 53/49/18 54/50/18 55/51/18
f 53/49/18 55/51/18 56/52/18
f 57/53/19 58/54/19 59/55/19
f 60/56/19 61/57/19 59/55/19
f 61/57/19 57/53/19 59/55/19
f 62/58/19 61/57/19 60/56/19
f 67/59/20 63/60/20 65/61/20
f 68/62/20 69/63/20 67/59/20
f 67/59/20 70/64/20 63/60/20
f 71/65/20 70/64/20 69/63/20
f 73/66/21 74/67/21 75/68/21
f 76/69/22 74/67/22 77/70/22
f 75/68/23 74/67/23 76/69/23
f 78/71/24 79/72/24 80/73/24
f 81/74/24 78/71/24 80/73/24
f 82/75/25 83/76/25 84/77/25
f 82/75/26 84/77/26 85/78/26
f 86/79/27 87/80/27 88/81/27
f 89/82/27 88/81/27 90/83/27
f 89/82/27 86/79/27 88/81/27
f 91/84/28 92/85/28 93/86/28
f 94/87/29 92/85/29 91/84/29
f 95/88/30 91/84/30 93/86/30
f 96/89/30 97/90/30 95/88/30
f 95/88/29 97/90/29 91/84/29
f 98/91/31 91/84/31 97/90/31
s 1
f 22/92/32 19/19/32 21/21/32
f 23/22/32 19/19/32 24/93/32
f 25/24/6 23/22/6 26/94/6
f 36/33/11 35/32/11 37/95/11
f 51/47/16 48/44/16 50/46/16
f 63/60/20 64/96/20 65/61/20
f 66/97/20 64/96/20 63/60/20
f 67/59/33 69/63/33 70/64/33
f 72/98/20 63/60/20 70/64/20
