# Blender v3.0.1 OBJ File: 'rockerfeller_plaza.blend'
# www.blender.org
o geometryt000010000010000110010110000110000110100000100010st51
v 723.820862 -246.422760 383.829407
v 722.042358 -249.721558 383.829407
v 722.042358 -249.721558 431.709351
v 723.820862 -246.422760 431.709351
v 725.715393 -242.909058 431.709351
v 725.715393 -242.909058 383.829407
v 724.826050 -244.558456 383.829407
v 724.826050 -244.558456 431.709351
v 728.499084 -237.745956 383.829407
v 726.720459 -241.044754 383.829407
v 726.720459 -241.044754 431.709351
v 728.499084 -237.745956 431.709351
v 731.282776 -232.582855 383.829407
v 729.504150 -235.881653 383.829407
v 729.504150 -235.881653 431.709351
v 731.282776 -232.582855 431.709351
v 733.177185 -229.069153 383.829407
v 732.287964 -230.718552 383.829407
v 732.287964 -230.718552 431.709351
v 733.177185 -229.069153 431.709351
v 735.960876 -223.906052 431.709351
v 735.960876 -223.906052 383.829407
v 734.182373 -227.204758 383.829407
v 734.182373 -227.204758 431.709351
v 722.181702 -250.190155 431.709351
v 722.181702 -250.190155 383.829407
v 725.473267 -251.981750 383.829407
v 725.473267 -251.981750 431.709351
v 727.436096 -253.050156 431.709351
v 727.436096 -253.050156 383.829407
v 729.081970 -253.945953 383.829407
v 729.081970 -253.945953 431.709351
v 731.044800 -255.014252 383.829407
v 734.336365 -256.805939 383.829407
v 734.336365 -256.805939 431.709351
v 731.044800 -255.014252 431.709351
v 736.016968 -254.510254 431.709351
v 735.649048 -255.167450 383.829407
v 736.564453 -253.532455 383.829407
v 735.649048 -255.167450 431.709351
v 736.564453 -253.532455 431.709351
v 739.722107 -225.553848 383.829407
v 736.427856 -223.766861 383.829407
v 736.427856 -223.766861 431.709351
v 739.722107 -225.553848 431.709351
v 743.349670 -227.521652 383.829407
v 741.702576 -226.628159 383.829407
v 741.702576 -226.628159 431.709351
v 743.349670 -227.521652 431.709351
v 748.624390 -230.382950 431.709351
v 748.624390 -230.382950 383.829407
v 745.330200 -228.595947 383.829407
v 745.330200 -228.595947 431.709351
v 738.045105 -250.865662 383.829407
v 738.940186 -249.219452 383.829407
v 738.940186 -249.219452 431.709351
v 738.045105 -250.865662 431.709351
v 739.572388 -248.051056 431.709351
v 739.572388 -248.051056 383.829407
v 740.454407 -246.397659 383.829407
v 740.454407 -246.397659 431.709351
v 741.744690 -243.978760 431.709351
v 741.744690 -243.978760 383.829407
v 742.626587 -242.325455 383.829407
v 742.626587 -242.325455 431.709351
v 742.951782 -241.716858 431.709351
v 742.951782 -241.716858 383.829407
v 744.719666 -238.412460 383.829407
v 744.719666 -238.412460 431.709351
v 746.996887 -234.156158 383.829407
v 748.764893 -230.851654 383.829407
v 748.764893 -230.851654 431.709351
v 746.996887 -234.156158 431.709351
vt 0.000000 0.000000
vt 0.500000 0.000000
vt 0.500000 4.000000
vt 0.000000 4.000000
vt 0.000000 4.000000
vt 0.000000 0.000000
vt 0.250000 0.000000
vt 0.250000 4.000000
vt 0.000000 0.000000
vt 0.500000 0.000000
vt 0.500000 4.000000
vt 0.000000 4.000000
vt 0.000000 0.000000
vt 0.500000 0.000000
vt 0.500000 4.000000
vt 0.000000 4.000000
vt 0.000000 0.000000
vt 0.250000 0.000000
vt 0.250000 4.000000
vt 0.000000 4.000000
vt 0.000000 4.000000
vt 0.000000 0.000000
vt 0.500000 0.000000
vt 0.500000 4.000000
vt 0.000000 4.000000
vt 0.000000 0.000000
vt 0.500000 0.000000
vt 0.500000 4.000000
vt 0.000000 4.000000
vt 0.000000 0.000000
vt 0.250000 0.000000
vt 0.250000 4.000000
vt 0.000000 0.000000
vt 0.500000 0.000000
vt 0.500000 4.000000
vt 0.000000 4.000000
vt 0.100490 4.000000
vt 0.000000 0.000000
vt 0.250000 0.000000
vt 0.250000 4.000000
vt 0.000000 0.000000
vt 0.500000 0.000000
vt 0.500000 4.000000
vt 0.000000 4.000000
vt 0.000000 0.000000
vt 0.250000 0.000000
vt 0.250000 4.000000
vt 0.000000 4.000000
vt 0.000000 4.000000
vt 0.000000 0.000000
vt 0.500000 0.000000
vt 0.500000 4.000000
vt 0.000000 0.000000
vt 0.250000 0.000000
vt 0.250000 4.000000
vt 0.000000 4.000000
vt 0.000000 4.000000
vt 0.000000 0.000000
vt 0.250000 0.000000
vt 0.250000 4.000000
vt 0.000000 4.000000
vt 0.000000 0.000000
vt 0.250000 0.000000
vt 0.250000 4.000000
vt 0.000000 4.000000
vt 0.000000 0.000000
vt 0.500000 0.000000
vt 0.500000 4.000000
vt 0.000000 0.000000
vt 0.500000 0.000000
vt 0.500000 4.000000
vt 0.000000 4.000000
vt 0.000000 4.000000
vn -0.8802 0.4746 0.0000
vn -0.8803 0.4745 0.0000
vn -0.8802 0.4745 0.0000
vn -0.4781 -0.8783 0.0000
vn -0.4780 -0.8783 0.0000
vn 0.8726 -0.4885 0.0000
vn 0.4768 0.8790 0.0000
vn 0.8786 -0.4776 0.0000
vn 0.8785 -0.4777 0.0000
vn 0.8823 -0.4707 0.0000
vn 0.8823 -0.4706 0.0000
vn 0.8824 -0.4706 0.0000
vn 0.8817 -0.4717 0.0000
vn 0.8817 -0.4718 0.0000
s off
f 1/1/1 2/2/1 3/3/1
f 4/4/1 1/1/1 3/3/1
f 5/5/1 6/6/1 7/7/1
f 5/5/1 7/7/1 8/8/1
f 9/9/1 10/10/1 11/11/1
f 12/12/1 9/9/1 11/11/1
f 13/13/1 14/14/1 15/15/1
f 16/16/1 13/13/1 15/15/1
f 17/17/2 18/18/2 19/19/2
f 20/20/1 17/17/1 19/19/1
f 21/21/3 22/22/3 23/23/3
f 21/21/1 23/23/1 24/24/1
f 25/25/4 26/26/4 27/27/4
f 25/25/4 27/27/4 28/28/4
f 29/29/5 30/30/5 31/31/5
f 29/29/5 31/31/5 32/32/5
f 33/33/4 34/34/4 35/35/4
f 36/36/4 33/33/4 35/35/4
f 37/37/6 38/38/6 39/39/6
f 37/37/6 39/39/6 41/40/6
f 42/41/7 43/42/7 44/43/7
f 45/44/7 42/41/7 44/43/7
f 46/45/7 47/46/7 48/47/7
f 49/48/7 46/45/7 48/47/7
f 50/49/7 51/50/7 52/51/7
f 50/49/7 52/51/7 53/52/7
f 54/53/8 55/54/8 56/55/8
f 57/56/9 54/53/9 56/55/9
f 58/57/10 59/58/10 60/59/10
f 58/57/11 60/59/11 61/60/11
f 62/61/10 63/62/10 64/63/10
f 62/61/12 64/63/12 65/64/12
f 66/65/13 67/66/13 68/67/13
f 66/65/13 68/67/13 69/68/13
f 70/69/14 71/70/14 72/71/14
f 73/72/13 70/69/13 72/71/13
s 1
f 40/73/6 38/38/6 37/37/6
