# Blender v3.0.1 OBJ File: 'rockerfeller_plaza.blend'
# www.blender.org
o geometryt000010000010000110010110000110000110100000110010st99
v 1095.649170 -89.275146 465.239716
v 1094.124756 -92.037788 465.239716
v 1094.124756 -92.037788 481.142303
v 1095.649170 -89.275146 481.142303
v 1097.876343 -85.238541 465.239716
v 1096.352051 -88.001183 465.239716
v 1096.352051 -88.001183 481.142303
v 1097.876343 -85.238541 481.142303
v 1100.103638 -81.201942 481.142303
v 1100.103638 -81.201942 465.239716
v 1098.579346 -83.964577 465.239716
v 1098.579346 -83.964577 481.142303
v 1102.330811 -77.165329 481.142303
v 1102.330811 -77.165329 465.239716
v 1100.806519 -79.927971 465.239716
v 1100.806519 -79.927971 481.142303
v 1094.830566 -92.821480 465.239716
v 1098.973999 -95.108887 465.239716
v 1098.973999 -95.108887 481.142303
v 1094.830566 -92.821480 481.142303
v 1100.012939 -95.288330 465.239716
v 1101.535278 -92.524635 465.239716
v 1101.535278 -92.524635 481.142303
v 1100.012939 -95.288330 481.142303
v 1102.191162 -91.334091 465.239716
v 1103.713501 -88.570396 465.239716
v 1103.713501 -88.570396 481.142303
v 1102.191162 -91.334091 481.142303
v 1104.369263 -87.379852 481.142303
v 1104.369263 -87.379852 465.239716
v 1105.891724 -84.616158 465.239716
v 1105.891724 -84.616158 481.142303
v 1106.547485 -83.425606 481.142303
v 1106.547485 -83.425606 465.239716
v 1108.069946 -80.661911 465.239716
v 1108.069946 -80.661911 481.142303
v 1107.514893 -79.623772 481.142303
v 1107.514893 -79.623772 465.239716
v 1103.368164 -77.342316 465.239716
v 1103.368164 -77.342316 481.142303
vt 0.000000 0.000000
vt 0.500000 0.000000
vt 0.500000 1.000000
vt 0.000000 1.000000
vt 0.000000 0.000000
vt 0.500000 0.000000
vt 0.500000 1.000000
vt 0.000000 1.000000
vt 0.000000 1.000000
vt 0.000000 0.000000
vt 0.500000 0.000000
vt 0.500000 1.000000
vt 0.000000 0.000000
vt 0.750000 0.000000
vt 0.750000 1.000000
vt 0.000000 1.000000
vt 0.000000 1.000000
vt 0.000000 0.000000
vt 0.750000 0.000000
vt 0.750000 1.000000
vt 0.000000 1.000000
vt 0.000000 0.000000
vt 0.500000 0.000000
vt 0.500000 1.000000
vt 0.000000 0.000000
vt 0.500000 0.000000
vt 0.500000 1.000000
vt 0.000000 1.000000
vt 0.000000 0.000000
vt 0.500000 0.000000
vt 0.500000 1.000000
vt 0.000000 1.000000
vt 0.000000 1.000000
vt 0.000000 0.000000
vt 0.500000 0.000000
vt 0.500000 1.000000
vt 0.000000 1.000000
vt 0.000000 0.000000
vt 0.500000 0.000000
vt 0.500000 1.000000
vn -0.8756 0.4831 0.0000
vn -0.4833 -0.8755 0.0000
vn 0.4820 0.8762 0.0000
vn 0.4821 0.8761 0.0000
vn 0.8759 -0.4825 0.0000
vn 0.8759 -0.4824 0.0000
s off
f 1/1/1 2/2/1 3/3/1
f 4/4/1 1/1/1 3/3/1
f 5/5/1 6/6/1 7/7/1
f 8/8/1 5/5/1 7/7/1
f 9/9/1 10/10/1 11/11/1
f 9/9/1 11/11/1 12/12/1
f 17/13/2 18/14/2 19/15/2
f 20/16/2 17/13/2 19/15/2
f 37/17/3 38/18/3 39/19/3
f 37/17/4 39/19/4 40/20/4
s 1
f 13/21/1 14/22/1 15/23/1
f 13/21/1 15/23/1 16/24/1
f 21/25/5 22/26/6 23/27/5
f 24/28/5 21/25/5 23/27/5
f 25/29/5 26/30/6 27/31/5
f 28/32/5 25/29/5 27/31/5
f 29/33/5 30/34/5 31/35/5
f 29/33/5 31/35/5 32/36/5
f 33/37/5 34/38/5 35/39/5
f 33/37/5 35/39/5 36/40/5
