# Blender v3.0.1 OBJ File: 'rockerfeller_plaza.blend'
# www.blender.org
o geometryt000010000010000110010110000110000110100100000010st11
v 584.587402 -250.943680 928.659241
v 577.923828 -248.567581 928.659241
v 578.617859 -247.260574 928.659241
v 583.447510 -253.110779 928.659241
v 575.799866 -252.500275 928.659241
v 580.551270 -243.640976 928.659241
v 585.835205 -248.619873 928.659241
v 585.525635 -234.346085 928.659241
v 590.513245 -239.983475 928.659241
v 587.723511 -230.234879 928.659241
v 592.653442 -235.995071 928.659241
v 592.852661 -226.988785 928.659241
v 590.210571 -225.576279 928.659241
v 596.437805 -228.912170 928.659241
v 581.993042 -255.814484 928.659241
v 575.799866 -252.500275 952.259216
v 581.993042 -255.814484 952.259216
v 583.447510 -253.110779 952.259216
v 577.923828 -248.567581 952.259216
v 584.587402 -250.943680 952.259216
v 585.835205 -248.619873 952.259216
v 578.617859 -247.260574 952.259216
v 590.513245 -239.983475 952.259216
v 580.551270 -243.640976 952.259216
v 592.653442 -235.995071 952.259216
v 585.525635 -234.346085 952.259216
v 596.437805 -228.912170 952.259216
v 592.852661 -226.988785 952.259216
v 587.723511 -230.234879 952.259216
v 590.210571 -225.576279 952.259216
vt 0.431840 0.151110
vt 0.429640 0.137740
vt 0.427040 0.139160
vt 0.436150 0.148760
vt 0.437470 0.133360
vt 0.419840 0.143150
vt 0.427220 0.153680
vt 0.401340 0.153390
vt 0.410010 0.163310
vt 0.393160 0.157920
vt 0.402080 0.167720
vt 0.385630 0.168330
vt 0.383900 0.163040
vt 0.387990 0.175510
vt 0.441530 0.145770
vt 0.437470 0.133360
vt 0.441530 0.145770
vt 0.436150 0.148760
vt 0.429640 0.137740
vt 0.431840 0.151110
vt 0.427220 0.153680
vt 0.427040 0.139160
vt 0.410010 0.163310
vt 0.419840 0.143150
vt 0.402080 0.167720
vt 0.401340 0.153390
vt 0.387990 0.175510
vt 0.385630 0.168330
vt 0.393160 0.157920
vt 0.383900 0.163040
vn 0.0000 0.0000 -1.0000
vn 0.0000 0.0000 1.0000
s off
f 1/1/1 2/2/1 3/3/1
f 4/4/1 2/2/1 1/1/1
f 5/5/1 2/2/1 4/4/1
f 6/6/1 7/7/1 3/3/1
f 7/7/1 1/1/1 3/3/1
f 6/6/1 8/8/1 9/9/1
f 6/6/1 9/9/1 7/7/1
f 8/8/1 10/10/1 11/11/1
f 9/9/1 8/8/1 11/11/1
f 12/12/1 10/10/1 13/13/1
f 11/11/1 10/10/1 12/12/1
f 11/11/1 12/12/1 14/14/1
f 15/15/1 5/5/1 4/4/1
f 16/16/2 17/17/2 18/18/2
f 19/19/2 16/16/2 18/18/2
f 20/20/2 19/19/2 18/18/2
f 21/21/2 22/22/2 20/20/2
f 20/20/2 22/22/2 19/19/2
f 23/23/2 24/24/2 21/21/2
f 21/21/2 24/24/2 22/22/2
f 23/23/2 25/25/2 26/26/2
f 23/23/2 26/26/2 24/24/2
f 27/27/2 28/28/2 25/25/2
f 25/25/2 28/28/2 29/29/2
f 25/25/2 29/29/2 26/26/2
f 29/29/2 28/28/2 30/30/2
