# Blender v3.0.1 OBJ File: 'rockerfeller_plaza.blend'
# www.blender.org
o geometryt000010000010000110010110000110000110100100010010st94_4
v 1019.438660 -224.507370 1010.024841
v 1048.746826 -174.992767 1010.024841
v 1022.676086 -223.392563 1010.024841
v 1051.646729 -238.874466 1010.024841
v 1048.195068 -171.135559 1010.024841
v 1053.286011 -242.596756 1010.024841
v 1074.998657 -189.018661 1010.024841
v 1079.552856 -187.888458 1010.024841
v 1056.417847 -236.786957 1010.024841
v 1053.588623 -235.265762 1010.024841
v 1072.883179 -192.940369 1010.024841
v 1075.950195 -194.580856 1010.024841
v 1055.952026 -230.886063 1010.024841
v 1063.088501 -234.699463 1010.024841
v 1082.177124 -250.552261 1010.024841
v 1084.540405 -246.161362 1010.024841
v 1069.941528 -198.403763 1010.024841
v 1079.796631 -203.673065 1010.024841
v 1090.316650 -202.262070 1010.024841
v 1087.349487 -207.714767 1010.024841
v 1083.259399 -258.622070 1010.024841
v 1097.711426 -256.299072 1010.024841
v 1094.844116 -261.617371 1010.024841
v 1093.513794 -264.097565 1010.024841
v 1096.281982 -258.958191 1010.024841
v 1093.321411 -229.616165 1010.024841
v 1102.016724 -248.310562 1010.024841
v 1099.149292 -253.628860 1010.024841
v 1100.578735 -250.969757 1010.024841
v 1107.908325 -237.372559 1010.024841
v 1093.928345 -195.625061 1010.024841
v 1049.956177 -180.951569 1010.024841
v 1028.182495 -221.374161 1010.024841
v 1050.492554 -233.303558 1010.024841
v 1069.717407 -191.511856 1010.024841
v 1052.723511 -229.158569 1010.024841
v 1066.883057 -196.774170 1010.024841
v 1079.489380 -222.150757 1010.024841
v 1086.589111 -209.111359 1010.024841
v 1034.236694 -219.282761 1010.024841
v 1050.953491 -188.256363 1010.024841
v 1019.438660 -224.507370 1044.024902
v 1022.676086 -223.392563 1044.024902
v 1030.280029 -209.275955 1044.024902
v 1043.197021 -234.358963 1044.024902
v 1048.746826 -174.992767 1044.024902
v 1051.646729 -238.874466 1044.024902
v 1048.195068 -171.135559 1044.024902
v 1053.286011 -242.596756 1044.024902
v 1056.403564 -179.083664 1044.024902
v 1074.998657 -189.018661 1044.024902
v 1079.552856 -187.888458 1044.024902
v 1055.774780 -236.441269 1044.024902
v 1053.022217 -236.318359 1044.024902
v 1056.417847 -236.786957 1044.024902
v 1053.588623 -235.265762 1044.024902
v 1073.343262 -193.186356 1044.024902
v 1074.381592 -190.162460 1044.024902
v 1072.883179 -192.940369 1044.024902
v 1075.950195 -194.580856 1044.024902
v 1034.120728 -210.349869 1058.024902
v 1022.676086 -223.392563 1058.024902
v 1028.182495 -221.374161 1058.024902
v 1051.646729 -238.874466 1058.024902
v 1049.956177 -180.951569 1058.024902
v 1048.746826 -174.992767 1058.024902
v 1044.407959 -230.050064 1058.024902
v 1050.492554 -233.303558 1058.024902
v 1074.998657 -189.018661 1058.024902
v 1055.345581 -183.831665 1058.024902
v 1053.588623 -235.265762 1058.024902
v 1054.125977 -229.908966 1058.024902
v 1052.115112 -230.288956 1058.024902
v 1055.952026 -230.886063 1058.024902
v 1052.723511 -229.158569 1058.024902
v 1069.717407 -191.511856 1058.024902
v 1068.944336 -192.947067 1058.024902
v 1066.883057 -196.774170 1058.024902
v 1067.717163 -197.218567 1058.024902
v 1068.612915 -197.695862 1058.024902
v 1069.941528 -198.403763 1058.024902
v 1072.883179 -192.940369 1058.024902
v 1040.968872 -206.787964 1076.024902
v 1028.182495 -221.374161 1076.024902
v 1034.236694 -219.282761 1076.024902
v 1050.492554 -233.303558 1076.024902
v 1050.953491 -188.256363 1076.024902
v 1049.956177 -180.951569 1076.024902
v 1045.278687 -225.181458 1076.024902
v 1052.723511 -229.158569 1076.024902
v 1069.717407 -191.511856 1076.024902
v 1057.368530 -191.686569 1076.024902
v 1066.883057 -196.774170 1076.024902
v 1066.883057 -196.774170 1120.524902
v 1050.953491 -188.256363 1120.524902
v 1034.236694 -219.282761 1120.524902
v 1052.723511 -229.158569 1120.524902
v 1069.941528 -198.403763 1120.524902
v 1055.952026 -230.886063 1120.524902
v 1063.088501 -234.699463 1120.524902
v 1079.796631 -203.673065 1120.524902
v 1065.784790 -241.792557 1026.024902
v 1054.759766 -239.862762 1026.024902
v 1053.286011 -242.596756 1026.024902
v 1082.177124 -250.552261 1026.024902
v 1083.259399 -258.622070 1026.024902
v 1056.417847 -236.786957 1026.024902
v 1097.711426 -256.299072 1026.024902
v 1083.036499 -248.955566 1026.024902
v 1084.540405 -246.161362 1026.024902
v 1094.844116 -261.617371 1026.024902
v 1093.513794 -264.097565 1026.024902
v 1096.281982 -258.958191 1026.024902
v 1102.016724 -248.310562 1026.024902
v 1086.669189 -242.150467 1026.024902
v 1099.149292 -253.628860 1026.024902
v 1100.578735 -250.969757 1026.024902
v 1093.321411 -229.616165 1026.024902
v 1107.908325 -237.372559 1026.024902
v 1055.755005 -231.251068 1054.024902
v 1053.588623 -235.265762 1054.024902
v 1056.417847 -236.786957 1054.024902
v 1055.952026 -230.886063 1054.024902
v 1058.793701 -232.404465 1054.024902
v 1063.088501 -234.699463 1054.024902
v 1082.177124 -250.552261 1054.024902
v 1077.389771 -242.340759 1054.024902
v 1084.540405 -246.161362 1054.024902
v 1063.088501 -234.699463 1076.024902
v 1079.489380 -222.150757 1076.024902
v 1073.067993 -216.167862 1076.024902
v 1084.540405 -246.161362 1076.024902
v 1079.796631 -203.673065 1076.024902
v 1086.589111 -209.111359 1076.024902
v 1093.321411 -229.616165 1076.024902
v 1087.349487 -207.714767 1076.024902
v 1069.941528 -198.403763 1050.024902
v 1075.950195 -194.580856 1050.024902
v 1072.392944 -193.850861 1050.024902
v 1076.229126 -201.765564 1050.024902
v 1072.883179 -192.940369 1050.024902
v 1079.796631 -203.673065 1050.024902
v 1090.316650 -202.262070 1050.024902
v 1082.771973 -205.265259 1050.024902
v 1087.349487 -207.714767 1050.024902
v 1077.645508 -191.431458 1026.024902
v 1075.950195 -194.580856 1026.024902
v 1084.570068 -199.189560 1026.024902
v 1079.552856 -187.888458 1026.024902
v 1090.316650 -202.262070 1026.024902
v 1093.928345 -195.625061 1026.024902
vt 0.403560 0.026080
vt 0.304150 0.086320
vt 0.400500 0.032640
vt 0.419460 0.090660
vt 0.297300 0.085300
vt 0.425710 0.093870
vt 0.321320 0.138890
vt 0.317820 0.148100
vt 0.414150 0.100320
vt 0.412280 0.094660
vt 0.329130 0.134540
vt 0.331140 0.140680
vt 0.403560 0.099520
vt 0.408230 0.113810
vt 0.431000 0.151910
vt 0.422260 0.156780
vt 0.340010 0.128480
vt 0.346460 0.148220
vt 0.340550 0.169450
vt 0.351410 0.163340
vt 0.445340 0.153900
vt 0.436520 0.183080
vt 0.447110 0.177180
vt 0.452050 0.174440
vt 0.441810 0.180140
vt 0.389370 0.174860
vt 0.420620 0.191950
vt 0.431210 0.186040
vt 0.425910 0.188990
vt 0.398840 0.204080
vt 0.327320 0.176890
vt 0.314600 0.088610
vt 0.395080 0.043780
vt 0.409690 0.088460
vt 0.327540 0.128190
vt 0.401440 0.093060
vt 0.338010 0.122360
vt 0.380180 0.147160
vt 0.354200 0.161780
vt 0.389350 0.056030
vt 0.327580 0.090450
vt 0.403560 0.026080
vt 0.400500 0.032640
vt 0.372400 0.048290
vt 0.413930 0.073730
vt 0.304150 0.086320
vt 0.419460 0.090660
vt 0.297300 0.085300
vt 0.425710 0.093870
vt 0.309160 0.101650
vt 0.321320 0.138890
vt 0.317820 0.148100
vt 0.413720 0.099030
vt 0.414370 0.093490
vt 0.414150 0.100320
vt 0.412280 0.094660
vt 0.329430 0.135460
vt 0.323600 0.137620
vt 0.329130 0.134540
vt 0.331140 0.140680
vt 0.373130 0.056010
vt 0.400500 0.032640
vt 0.395080 0.043780
vt 0.419460 0.090660
vt 0.314600 0.088610
vt 0.304150 0.086320
vt 0.405710 0.076280
vt 0.409690 0.088460
vt 0.321320 0.138890
vt 0.318130 0.099410
vt 0.412280 0.094660
vt 0.402360 0.095860
vt 0.403690 0.091800
vt 0.403560 0.099520
vt 0.401440 0.093060
vt 0.327540 0.128190
vt 0.330390 0.126600
vt 0.338010 0.122360
vt 0.338560 0.124030
vt 0.339140 0.125820
vt 0.340010 0.128480
vt 0.329130 0.134540
vt 0.364470 0.069890
vt 0.395080 0.043780
vt 0.389350 0.056030
vt 0.409690 0.088460
vt 0.327580 0.090450
vt 0.314600 0.088610
vt 0.396570 0.078150
vt 0.401440 0.093060
vt 0.327540 0.128190
vt 0.331780 0.103300
vt 0.338010 0.122360
vt 0.338010 0.122360
vt 0.327580 0.090450
vt 0.389350 0.056030
vt 0.401440 0.093060
vt 0.340010 0.128480
vt 0.403560 0.099520
vt 0.408230 0.113810
vt 0.346460 0.148220
vt 0.420280 0.119080
vt 0.420270 0.096910
vt 0.425710 0.093870
vt 0.431000 0.151910
vt 0.445340 0.153900
vt 0.414150 0.100320
vt 0.436520 0.183080
vt 0.427830 0.153680
vt 0.422260 0.156780
vt 0.447110 0.177180
vt 0.452050 0.174440
vt 0.441810 0.180140
vt 0.420620 0.191950
vt 0.414290 0.161160
vt 0.431210 0.186040
vt 0.425910 0.188990
vt 0.389370 0.174860
vt 0.398840 0.204080
vt 0.404280 0.099120
vt 0.412280 0.094660
vt 0.414150 0.100320
vt 0.403560 0.099520
vt 0.405420 0.105210
vt 0.408230 0.113810
vt 0.431000 0.151910
vt 0.417580 0.142460
vt 0.422260 0.156780
vt 0.408230 0.113810
vt 0.380180 0.147160
vt 0.371340 0.134360
vt 0.422260 0.156780
vt 0.346460 0.148220
vt 0.354200 0.161780
vt 0.389370 0.174860
vt 0.351410 0.163340
vt 0.340010 0.128480
vt 0.331140 0.140680
vt 0.330940 0.133530
vt 0.344120 0.141070
vt 0.329130 0.134540
vt 0.346460 0.148220
vt 0.340550 0.169450
vt 0.348410 0.154180
vt 0.351410 0.163340
vt 0.324870 0.144170
vt 0.331140 0.140680
vt 0.336790 0.157940
vt 0.317820 0.148100
vt 0.340550 0.169450
vt 0.327320 0.176890
vn 0.0000 0.0000 -1.0000
vn 0.0000 0.0000 1.0000
vn 0.0001 0.0000 1.0000
vn -0.0001 0.0000 1.0000
s off
f 1/1/1 2/2/1 3/3/1
f 4/4/1 1/1/1 3/3/1
f 1/1/1 5/5/1 2/2/1
f 4/4/1 6/6/1 1/1/1
f 7/7/1 2/2/1 5/5/1
f 5/5/1 8/8/1 7/7/1
f 9/9/1 6/6/1 4/4/1
f 10/10/1 9/9/1 4/4/1
f 11/11/1 7/7/1 12/12/1
f 7/7/1 8/8/1 12/12/1
f 13/13/1 9/9/1 10/10/1
f 13/13/1 14/14/1 9/9/1
f 9/9/1 14/14/1 15/15/1
f 15/15/1 14/14/1 16/16/1
f 11/11/1 12/12/1 17/17/1
f 17/17/1 12/12/1 18/18/1
f 18/18/1 12/12/1 19/19/1
f 20/20/1 18/18/1 19/19/1
f 15/15/1 6/6/1 9/9/1
f 15/15/1 21/21/1 6/6/1
f 15/15/1 22/22/1 21/21/1
f 16/16/1 22/22/1 15/15/1
f 21/21/1 23/23/1 24/24/1
f 23/23/1 21/21/1 25/25/1
f 22/22/1 25/25/1 21/21/1
f 26/26/1 27/27/1 16/16/1
f 16/16/1 28/28/1 22/22/1
f 16/16/1 29/29/1 28/28/1
f 16/16/1 27/27/1 29/29/1
f 26/26/1 30/30/1 27/27/1
f 12/12/1 8/8/1 19/19/1
f 8/8/1 31/31/1 19/19/1
f 3/3/1 32/32/1 33/33/1
f 4/4/1 3/3/1 33/33/1
f 3/3/1 2/2/1 32/32/1
f 34/34/1 4/4/1 33/33/1
f 7/7/1 32/32/1 2/2/1
f 32/32/1 7/7/1 35/35/1
f 34/34/1 10/10/1 4/4/1
f 36/36/1 13/13/1 34/34/1
f 13/13/1 10/10/1 34/34/1
f 37/37/1 35/35/1 17/17/1
f 17/17/1 35/35/1 11/11/1
f 35/35/1 7/7/1 11/11/1
f 18/18/1 38/38/1 14/14/1
f 38/38/1 16/16/1 14/14/1
f 18/18/1 39/39/1 38/38/1
f 38/38/1 26/26/1 16/16/1
f 18/18/1 20/20/1 39/39/1
f 40/40/1 41/41/1 37/37/1
f 36/36/1 40/40/1 37/37/1
f 13/13/1 36/36/1 17/17/1
f 17/17/1 36/36/1 37/37/1
f 18/18/1 14/14/1 13/13/1
f 18/18/1 13/13/1 17/17/1
f 33/33/1 40/40/1 34/34/1
f 40/40/1 33/33/1 41/41/1
f 33/33/1 32/32/1 41/41/1
f 34/34/1 40/40/1 36/36/1
f 41/41/1 32/32/1 35/35/1
f 41/41/1 35/35/1 37/37/1
f 42/42/2 43/43/2 44/44/2
f 42/42/2 45/45/2 43/43/2
f 42/42/2 44/44/2 46/46/2
f 42/42/2 47/47/2 45/45/2
f 48/48/2 42/42/2 46/46/2
f 42/42/2 49/49/2 47/47/2
f 48/48/2 46/46/2 50/50/2
f 48/48/2 50/50/2 51/51/2
f 52/52/2 48/48/2 51/51/2
f 47/47/2 53/53/2 54/54/2
f 47/47/2 49/49/2 55/55/2
f 47/47/2 55/55/2 53/53/2
f 54/54/2 53/53/2 56/56/2
f 57/57/2 58/58/2 59/59/2
f 60/60/2 58/58/2 57/57/2
f 60/60/3 51/51/3 58/58/3
f 51/51/2 60/60/2 52/52/2
f 61/61/2 62/62/2 63/63/2
f 64/64/2 63/63/2 62/62/2
f 65/65/2 62/62/2 61/61/2
f 62/62/2 65/65/2 66/66/2
f 64/64/2 67/67/2 63/63/2
f 64/64/2 68/68/2 67/67/2
f 69/69/2 66/66/2 65/65/2
f 65/65/2 70/70/2 69/69/2
f 64/64/2 71/71/2 68/68/2
f 72/72/2 73/73/2 68/68/2
f 68/68/2 71/71/2 74/74/2
f 74/74/2 72/72/2 68/68/2
f 72/72/2 75/75/2 73/73/2
f 70/70/2 76/76/2 69/69/2
f 77/77/2 78/78/2 79/79/2
f 77/77/3 79/79/3 80/80/3
f 77/77/4 80/80/4 81/81/4
f 76/76/2 77/77/2 81/81/2
f 76/76/2 81/81/2 82/82/2
f 69/69/2 76/76/2 82/82/2
f 83/83/2 84/84/2 85/85/2
f 85/85/2 84/84/2 86/86/2
f 87/87/2 84/84/2 83/83/2
f 88/88/2 84/84/2 87/87/2
f 85/85/2 86/86/2 89/89/2
f 89/89/2 86/86/2 90/90/2
f 88/88/2 87/87/2 91/91/2
f 91/91/2 87/87/2 92/92/2
f 91/91/2 92/92/2 93/93/2
f 94/94/2 95/95/2 96/96/2
f 97/97/2 94/94/2 96/96/2
f 98/98/2 97/97/2 99/99/2
f 97/97/2 98/98/2 94/94/2
f 100/100/2 101/101/2 99/99/2
f 99/99/2 101/101/2 98/98/2
f 102/102/2 103/103/2 104/104/2
f 102/102/2 104/104/2 105/105/2
f 105/105/2 104/104/2 106/106/2
f 107/107/2 103/103/2 102/102/2
f 108/108/2 109/109/2 105/105/2
f 108/108/2 105/105/2 106/106/2
f 108/108/2 110/110/2 109/109/2
f 111/111/2 106/106/2 112/112/2
f 111/111/2 113/113/2 106/106/2
f 113/113/2 108/108/2 106/106/2
f 110/110/2 114/114/2 115/115/2
f 108/108/2 116/116/2 110/110/2
f 116/116/2 117/117/2 110/110/2
f 117/117/2 114/114/2 110/110/2
f 115/115/2 114/114/2 118/118/2
f 119/119/2 118/118/2 114/114/2
f 120/120/2 121/121/2 122/122/2
f 123/123/2 120/120/2 122/122/2
f 124/124/2 123/123/2 122/122/2
f 125/125/2 124/124/2 122/122/2
f 126/126/2 125/125/2 122/122/2
f 127/127/2 125/125/2 126/126/2
f 128/128/2 127/127/2 126/126/2
f 129/129/2 130/130/2 131/131/2
f 132/132/2 130/130/2 129/129/2
f 131/131/2 130/130/2 133/133/2
f 133/133/2 130/130/2 134/134/2
f 135/135/2 130/130/2 132/132/2
f 133/133/2 134/134/2 136/136/2
f 137/137/2 138/138/2 139/139/2
f 137/137/2 140/140/2 138/138/2
f 139/139/2 138/138/2 141/141/2
f 140/140/2 142/142/2 138/138/2
f 138/138/2 142/142/2 143/143/2
f 143/143/2 142/142/2 144/144/2
f 143/143/2 144/144/2 145/145/2
f 146/146/2 147/147/2 148/148/2
f 149/149/2 146/146/2 150/150/2
f 146/146/2 148/148/2 150/150/2
f 149/149/2 150/150/2 151/151/2
