# Blender v3.0.1 OBJ File: 'rockerfeller_plaza.blend'
# www.blender.org
o geometryt000010000010000110010110000110000110100000110010st8
v 1233.832031 -126.883842 461.352783
v 1230.933716 -132.402344 461.352783
v 1228.156128 -130.947235 461.352783
v 1230.825195 -125.309242 461.352783
v 1216.603760 -124.865341 461.352783
v 1211.744995 -122.313240 461.352783
v 1219.731934 -118.056236 461.352783
v 1209.375122 -121.064240 461.352783
v 1212.723999 -114.363640 461.352783
v 1209.239136 -120.988136 461.352783
v 1231.411621 -124.203239 461.352783
v 1230.825195 -125.309242 469.752777
v 1231.411621 -124.203239 469.752777
v 1219.731934 -118.056236 469.752777
v 1216.603760 -124.865341 469.752777
v 1228.156128 -130.947235 469.752777
v 1233.832031 -126.883842 469.752777
v 1212.723999 -114.363640 469.752777
v 1211.744995 -122.313240 469.752777
v 1209.239136 -120.988136 469.752777
v 1209.375122 -121.064240 469.752777
v 1230.933716 -132.402344 469.752777
vt 0.155730 0.473470
vt 0.166690 0.467500
vt 0.164930 0.461940
vt 0.153820 0.467450
vt 0.157530 0.438800
vt 0.154430 0.429070
vt 0.144150 0.445260
vt 0.152910 0.424320
vt 0.139650 0.431230
vt 0.152820 0.424050
vt 0.151620 0.468660
vt 0.153820 0.467450
vt 0.151620 0.468660
vt 0.144150 0.445260
vt 0.157530 0.438800
vt 0.164930 0.461940
vt 0.155730 0.473470
vt 0.139650 0.431230
vt 0.154430 0.429070
vt 0.152820 0.424050
vt 0.152910 0.424320
vt 0.166690 0.467500
vn -0.0000 0.0000 -1.0000
vn 0.0000 0.0000 1.0000
vn -0.0001 0.0000 1.0000
s off
f 1/1/1 2/2/1 3/3/1
f 4/4/1 1/1/1 3/3/1
f 5/5/1 4/4/1 3/3/1
f 6/6/1 7/7/1 5/5/1
f 5/5/1 7/7/1 4/4/1
f 8/8/1 9/9/1 6/6/1
f 6/6/1 9/9/1 7/7/1
f 10/10/1 9/9/1 8/8/1
f 4/4/1 7/7/1 11/11/1
f 12/12/2 13/13/2 14/14/2
f 14/14/2 15/15/2 12/12/2
f 15/15/2 16/16/2 12/12/2
f 12/12/2 16/16/2 17/17/2
f 14/14/2 18/18/2 19/19/2
f 14/14/2 19/19/2 15/15/2
f 18/18/3 20/20/3 21/21/3
f 19/19/2 18/18/2 21/21/2
f 22/22/2 17/17/2 16/16/2
