# Blender v3.0.1 OBJ File: 'rockerfeller_plaza.blend'
# www.blender.org
o geometryt000010000010000110010110000110000100110010010110st145
v 48.932968 -239.768494 19.632259
v 48.520790 -240.531494 35.351280
v 48.932968 -239.768494 35.351280
v 51.778091 -234.501907 19.632259
v 48.520790 -240.531494 19.251280
v 51.778091 -234.501907 35.351280
v 52.190281 -233.738907 35.351280
v 52.190281 -233.738907 19.251280
v 70.298920 -252.283600 19.632259
v 70.602531 -252.447403 35.351280
v 70.298920 -252.283600 35.351280
v 67.664970 -250.862198 19.632259
v 70.602531 -252.447403 19.251280
v 67.664970 -250.862198 35.351280
v 67.492981 -250.769394 35.351280
v 67.492981 -250.769394 19.632259
v 65.242989 -249.555298 19.251280
v 66.176003 -250.058701 19.632259
v 66.176003 -250.058701 35.351280
v 66.004021 -249.965897 35.351280
v 66.004021 -249.965897 19.632259
v 63.370060 -248.544601 19.632259
v 63.370060 -248.544601 35.351280
v 63.198078 -248.451797 35.351280
v 63.198078 -248.451797 19.632259
v 61.881100 -247.741104 19.632259
v 61.881100 -247.741104 35.351280
v 61.709110 -247.648300 35.351280
v 61.709110 -247.648300 19.632259
v 60.392139 -246.937607 19.632259
v 60.392139 -246.937607 35.351280
v 60.220150 -246.844803 35.351280
v 60.220150 -246.844803 19.632259
v 58.903172 -246.134094 19.632259
v 58.903172 -246.134094 35.351280
v 58.731178 -246.041306 35.351280
v 58.731178 -246.041306 19.632259
v 57.414211 -245.330597 19.632259
v 57.414211 -245.330597 35.351280
v 57.242222 -245.237793 35.351280
v 57.242222 -245.237793 19.632259
v 55.925240 -244.527206 19.632259
v 48.520790 -240.531494 19.251280
v 55.925240 -244.527206 35.351280
v 55.753262 -244.434402 35.351280
v 55.753262 -244.434402 19.632259
v 53.119301 -243.013000 19.632259
v 53.119301 -243.013000 35.351280
v 52.947319 -242.920197 35.351280
v 52.947319 -242.920197 19.632259
v 51.630341 -242.209503 19.632259
v 51.630341 -242.209503 35.351280
v 51.458351 -242.116699 35.351280
v 51.458351 -242.116699 19.632259
v 48.824402 -240.695404 19.632259
v 48.824402 -240.695404 35.351280
v 48.520790 -240.531494 35.351280
v 52.493679 -233.903198 19.632259
v 52.190281 -233.738907 35.351280
v 52.493679 -233.903198 35.351280
v 55.125771 -235.327896 19.632259
v 52.190281 -233.738907 19.251280
v 55.125771 -235.327896 35.351280
v 55.296989 -235.420593 35.351280
v 55.296989 -235.420593 19.632259
v 56.613041 -236.132996 19.632259
v 56.613041 -236.132996 35.351280
v 56.784248 -236.225693 35.351280
v 56.784248 -236.225693 19.632259
v 59.416351 -237.650497 19.632259
v 59.416351 -237.650497 35.351280
v 59.587559 -237.743195 35.351280
v 59.587559 -237.743195 19.632259
v 60.903610 -238.455597 19.632259
v 60.903610 -238.455597 35.351280
v 61.074821 -238.548203 35.351280
v 61.074821 -238.548203 19.632259
v 62.390869 -239.260605 19.632259
v 70.757973 -243.789902 19.251280
v 62.390869 -239.260605 35.351280
v 62.562092 -239.353302 35.351280
v 62.562092 -239.353302 19.632259
v 63.878132 -240.065704 19.632259
v 63.878132 -240.065704 35.351280
v 64.049347 -240.158401 35.351280
v 64.049347 -240.158401 19.632259
v 65.365402 -240.870804 19.632259
v 65.365402 -240.870804 35.351280
v 65.536613 -240.963501 35.351280
v 65.536613 -240.963501 19.632259
v 66.852661 -241.675903 19.632259
v 66.852661 -241.675903 35.351280
v 67.023872 -241.768494 35.351280
v 67.023872 -241.768494 19.632259
v 69.655968 -243.193298 19.632259
v 69.655968 -243.193298 35.351280
v 69.827179 -243.285995 35.351280
v 69.827179 -243.285995 19.632259
v 71.143227 -243.998398 19.632259
v 71.143227 -243.998398 35.351280
v 71.314453 -244.091095 35.351280
v 71.314453 -244.091095 19.632259
v 73.946541 -245.515900 19.632259
v 74.249939 -245.680099 19.251280
v 73.946541 -245.515900 35.351280
v 74.249939 -245.680099 35.351280
v 73.848801 -246.424393 19.632259
v 74.259293 -245.662796 35.351280
v 73.848801 -246.424393 35.351280
v 71.008728 -251.693802 19.632259
v 74.259293 -245.662796 19.251280
v 71.008728 -251.693802 35.351280
v 70.598251 -252.455307 35.351280
v 70.598251 -252.455307 19.251280
vt 7.424900 0.412760
vt 8.364460 17.443119
vt 7.424900 17.443119
vt 0.939560 0.412760
vt 8.364460 0.000000
vt 0.939560 17.443119
vt 0.000000 17.443119
vt 0.000000 0.000000
vt 26.811131 0.412760
vt 27.184910 17.443119
vt 26.811131 17.443119
vt 23.568460 0.412760
vt 27.184910 0.000000
vt 23.568460 17.443119
vt 23.356730 17.443119
vt 23.356730 0.412760
vt 20.586760 0.000000
vt 21.735390 17.443119
vt 21.523661 17.443119
vt 21.735390 0.412760
vt 21.523661 0.412760
vt 18.280991 0.412760
vt 18.280991 17.443119
vt 18.069260 17.443119
vt 18.069260 0.412760
vt 16.447920 17.443119
vt 16.236191 17.443119
vt 16.447920 0.412760
vt 16.236191 0.412760
vt 14.614860 0.412760
vt 14.614860 17.443119
vt 14.403120 17.443119
vt 14.403120 0.412760
vt 12.781790 0.412760
vt 12.781790 17.443119
vt 12.570060 17.443119
vt 12.570060 0.412760
vt 10.948720 0.412760
vt 10.948720 17.443119
vt 10.736990 17.443119
vt 10.736990 0.412760
vt 0.000000 0.000000
vt 9.115651 17.443119
vt 8.903921 17.443119
vt 9.115651 0.412760
vt 8.903921 0.412760
vt 5.661250 0.412760
vt 5.661250 17.443119
vt 5.449520 17.443119
vt 5.449520 0.412760
vt 3.828180 0.412760
vt 3.828180 17.443119
vt 3.616450 17.443119
vt 3.616450 0.412760
vt 0.373780 0.412760
vt 0.373780 17.443119
vt 0.000000 17.443119
vt 26.803110 0.412760
vt 27.176889 17.443119
vt 26.803110 17.443119
vt 23.560440 0.412760
vt 27.176889 0.000000
vt 23.560440 17.443119
vt 23.349510 17.443119
vt 23.349510 0.412760
vt 21.728170 0.412760
vt 21.728170 17.443119
vt 21.517241 17.443119
vt 21.517241 0.412760
vt 18.274570 0.412760
vt 18.274570 17.443119
vt 18.063641 17.443119
vt 18.063641 0.412760
vt 16.442310 0.412760
vt 16.442310 17.443119
vt 16.231380 17.443119
vt 16.231380 0.412760
vt 14.610040 0.412760
vt 4.302020 0.000000
vt 14.610040 17.443119
vt 14.399110 17.443119
vt 14.399110 0.412760
vt 12.777780 0.412760
vt 12.777780 17.443119
vt 12.566850 17.443119
vt 12.566850 0.412760
vt 10.945510 0.412760
vt 10.945510 17.443119
vt 10.734580 17.443119
vt 10.734580 0.412760
vt 9.113250 0.412760
vt 9.113250 17.443119
vt 8.902320 17.443119
vt 8.902320 0.412760
vt 5.659650 0.412760
vt 5.659650 17.443119
vt 5.448720 17.443119
vt 5.448720 0.412760
vt 3.827380 0.412760
vt 3.827380 17.443119
vt 3.616450 17.443119
vt 3.616450 0.412760
vt 0.373780 0.412760
vt 0.000000 0.000000
vt 0.373780 17.443119
vt 0.000000 17.443119
vt 7.422680 0.412760
vt 8.360020 17.443119
vt 7.422680 17.443119
vt 0.937340 0.412760
vt 8.360020 0.000000
vt 0.937340 17.443119
vt 0.000000 17.443119
vt 0.000000 0.000000
vn -0.8798 0.4753 0.0000
vn -0.8798 0.4753 -0.0001
vn -0.4748 -0.8801 0.0000
vn -0.4749 -0.8800 -0.0001
vn -0.4749 -0.8800 0.0000
vn -0.4749 -0.8801 0.0000
vn -0.4749 -0.8800 -0.0003
vn -0.4749 -0.8800 0.0004
vn -0.4749 -0.8801 0.0001
vn -0.4749 -0.8801 -0.0008
vn -0.4749 -0.8801 0.0016
vn -0.4748 -0.8801 0.0003
vn -0.4749 -0.8801 0.0033
vn -0.4749 -0.8800 0.0002
vn -0.4749 -0.8801 -0.0033
vn -0.4751 -0.8800 0.0000
vn 0.4762 0.8794 0.0000
vn 0.4761 0.8794 -0.0002
vn 0.4762 0.8793 0.0000
vn 0.4761 0.8794 0.0000
vn 0.4760 0.8794 -0.0001
vn 0.4760 0.8794 0.0004
vn 0.4757 0.8796 0.0000
vn 0.4760 0.8794 0.0000
vn 0.4761 0.8794 -0.0001
vn 0.4761 0.8794 -0.0004
vn 0.4761 0.8794 0.0002
vn 0.4760 0.8794 -0.0002
vn 0.4760 0.8795 0.0000
vn 0.8803 -0.4745 0.0000
vn 0.8803 -0.4744 -0.0000
vn -0.4749 -0.8800 -0.0015
vn -0.4751 -0.8799 -0.0014
vn -0.4749 -0.8800 0.0003
vn -0.4749 -0.8801 -0.0039
vn -0.4750 -0.8800 0.0009
vn -0.4749 -0.8800 0.0016
vn 0.4761 0.8794 0.0021
vn 0.4761 0.8794 0.0005
vn 0.4761 0.8794 -0.0040
vn 0.4760 0.8795 -0.0032
vn 0.4761 0.8794 -0.0041
vn 0.4762 0.8793 0.0050
vn 0.4760 0.8794 -0.0016
s off
f 1/1/1 2/2/1 3/3/1
f 4/4/2 5/5/2 1/1/2
f 2/2/1 1/1/1 5/5/1
f 6/6/1 7/7/1 4/4/1
f 7/7/1 8/8/1 4/4/1
f 8/8/1 5/5/1 4/4/1
f 9/9/3 10/10/3 11/11/3
f 12/12/4 13/13/4 9/9/4
f 10/10/3 9/9/3 13/13/3
f 14/14/5 15/15/5 12/12/5
f 15/15/6 16/16/6 12/12/6
f 12/12/7 17/17/7 13/13/7
f 19/18/5 20/19/5 18/20/5
f 20/19/5 21/21/5 18/20/5
f 18/20/8 21/21/8 17/17/8
f 21/21/9 22/22/9 17/17/9
f 23/23/5 24/24/5 22/22/5
f 24/24/5 25/25/5 22/22/5
f 22/22/10 25/25/10 17/17/10
f 27/26/6 28/27/6 26/28/6
f 28/27/6 29/29/6 26/28/6
f 26/28/11 29/29/11 17/17/11
f 29/29/12 30/30/12 17/17/12
f 31/31/6 32/32/6 30/30/6
f 32/32/6 33/33/6 30/30/6
f 33/33/5 34/34/5 17/17/5
f 35/35/3 36/36/3 34/34/3
f 36/36/3 37/37/3 34/34/3
f 37/37/4 38/38/4 17/17/4
f 39/39/6 40/40/6 38/38/6
f 40/40/6 41/41/6 38/38/6
f 41/41/5 43/42/5 17/17/5
f 44/43/5 45/44/5 42/45/5
f 45/44/5 46/46/5 42/45/5
f 46/46/13 43/42/13 42/45/13
f 47/47/14 43/42/14 46/46/14
f 48/48/5 49/49/5 47/47/5
f 49/49/5 50/50/5 47/47/5
f 50/50/15 43/42/15 47/47/15
f 51/51/5 43/42/5 50/50/5
f 52/52/6 53/53/6 51/51/6
f 53/53/6 54/54/6 51/51/6
f 55/55/5 43/42/5 54/54/5
f 56/56/16 57/57/16 55/55/16
f 57/57/16 43/42/16 55/55/16
f 58/58/17 59/59/17 60/60/17
f 61/61/18 62/62/18 58/58/18
f 59/59/19 58/58/19 62/62/19
f 63/63/20 64/64/20 61/61/20
f 64/64/20 65/65/20 61/61/20
f 65/65/20 66/66/20 62/62/20
f 67/67/20 68/68/20 66/66/20
f 68/68/20 69/69/20 66/66/20
f 62/62/21 69/69/21 70/70/21
f 71/71/20 72/72/20 70/70/20
f 72/72/20 73/73/20 70/70/20
f 62/62/22 73/73/22 74/74/22
f 75/75/23 76/76/23 74/74/23
f 76/76/23 77/77/23 74/74/23
f 77/77/24 78/78/24 79/79/24
f 62/62/21 77/77/21 79/79/21
f 80/80/20 81/81/20 78/78/20
f 81/81/20 82/82/20 78/78/20
f 82/82/24 83/83/24 79/79/24
f 84/84/20 85/85/20 83/83/20
f 85/85/20 86/86/20 83/83/20
f 86/86/24 87/87/24 79/79/24
f 88/88/20 89/89/20 87/87/20
f 89/89/20 90/90/20 87/87/20
f 90/90/20 91/91/20 79/79/20
f 92/92/23 93/93/23 91/91/23
f 93/93/23 94/94/23 91/91/23
f 94/94/25 95/95/25 79/79/25
f 96/96/20 97/97/20 95/95/20
f 97/97/20 98/98/20 95/95/20
f 95/95/26 98/98/26 79/79/26
f 98/98/21 99/99/21 79/79/21
f 100/100/20 101/101/20 99/99/20
f 101/101/20 102/102/20 99/99/20
f 99/99/20 102/102/20 79/79/20
f 103/103/27 104/104/27 102/102/27
f 102/102/28 104/104/28 79/79/28
f 105/105/29 106/106/29 103/103/29
f 106/106/29 104/104/29 103/103/29
f 107/107/30 108/108/30 109/109/30
f 110/110/31 111/111/31 107/107/31
f 108/108/30 107/107/30 111/111/30
f 112/112/30 113/113/30 110/110/30
f 113/113/30 114/114/30 110/110/30
f 114/114/30 111/111/30 110/110/30
s 1
f 16/16/32 17/17/14 12/12/33
f 16/16/32 18/20/34 17/17/14
f 25/25/5 26/28/5 17/17/5
f 30/30/35 33/33/35 17/17/35
f 34/34/36 37/37/36 17/17/36
f 38/38/6 41/41/6 17/17/6
f 42/45/7 43/42/7 41/41/7
f 54/54/37 43/42/37 51/51/37
f 61/61/38 65/65/38 62/62/38
f 62/62/39 66/66/39 69/69/39
f 62/62/40 70/70/40 73/73/40
f 62/62/41 74/74/41 77/77/41
f 78/78/42 82/82/42 79/79/42
f 83/83/43 86/86/43 79/79/43
f 87/87/44 90/90/44 79/79/44
f 91/91/29 94/94/29 79/79/29
