# Blender v3.0.1 OBJ File: 'rockerfeller_plaza.blend'
# www.blender.org
o geometryt000010000010000110010110000110000110100000010110st73
v 1035.795776 -48.036865 189.404205
v 1034.248413 -50.896748 189.404205
v 1034.248413 -50.896748 258.957947
v 1035.795776 -48.036865 258.957947
v 1038.098389 -43.780998 189.404205
v 1036.551025 -46.640877 189.404205
v 1036.551025 -46.640877 258.957947
v 1038.098389 -43.780998 258.957947
v 1040.400879 -39.525139 258.957947
v 1040.400879 -39.525139 189.404205
v 1038.853638 -42.385017 189.404205
v 1038.853638 -42.385017 258.957947
v 1042.703491 -35.269268 189.404205
v 1041.156250 -38.129147 189.404205
v 1041.156250 -38.129147 258.957947
v 1042.703491 -35.269268 258.957947
v 1034.387695 -51.364388 189.404205
v 1037.247314 -52.912025 189.404205
v 1037.247314 -52.912025 258.957947
v 1034.387695 -51.364388 258.957947
v 1037.796265 -53.209106 258.957947
v 1037.796265 -53.209106 189.404205
v 1040.656006 -54.756748 189.404205
v 1040.656006 -54.756748 258.957947
v 1041.204956 -55.053825 189.404205
v 1044.064575 -56.601467 189.404205
v 1044.064575 -56.601467 258.957947
v 1041.204956 -55.053825 258.957947
v 1044.613525 -56.898537 189.404205
v 1046.043457 -57.672356 189.404205
v 1046.043457 -57.672356 258.957947
v 1044.613525 -56.898537 258.957947
v 1046.592285 -57.969437 258.957947
v 1046.592285 -57.969437 189.404205
v 1048.022217 -58.743256 189.404205
v 1048.022217 -58.743256 258.957947
v 1048.571045 -59.040329 189.404205
v 1050.000977 -59.814148 189.404205
v 1050.000977 -59.814148 258.957947
v 1048.571045 -59.040329 258.957947
v 1050.549927 -60.111229 258.957947
v 1050.549927 -60.111229 189.404205
v 1053.409546 -61.658867 189.404205
v 1053.409546 -61.658867 258.957947
v 1053.958496 -61.955948 189.404205
v 1056.818237 -63.503586 189.404205
v 1056.818237 -63.503586 258.957947
v 1053.958496 -61.955948 258.957947
v 1057.367188 -63.800655 258.957947
v 1057.367188 -63.800655 189.404205
v 1060.226807 -65.348297 189.404205
v 1060.226807 -65.348297 258.957947
v 1046.030884 -36.677677 189.404205
v 1043.171143 -35.130035 189.404205
v 1043.171143 -35.130035 258.957947
v 1046.030884 -36.677677 258.957947
v 1049.439453 -38.522396 258.957947
v 1049.439453 -38.522396 189.404205
v 1046.579712 -36.974758 189.404205
v 1046.579712 -36.974758 258.957947
v 1052.848022 -40.367107 258.957947
v 1052.848022 -40.367107 189.404205
v 1049.988403 -38.819466 189.404205
v 1049.988403 -38.819466 258.957947
v 1054.826904 -41.437996 258.957947
v 1054.826904 -41.437996 189.404205
v 1053.396973 -40.664177 189.404205
v 1053.396973 -40.664177 258.957947
v 1056.805664 -42.508888 258.957947
v 1056.805664 -42.508888 189.404205
v 1055.375732 -41.735065 189.404205
v 1055.375732 -41.735065 258.957947
v 1058.784424 -43.579788 258.957947
v 1058.784424 -43.579788 189.404205
v 1057.354492 -42.805965 189.404205
v 1057.354492 -42.805965 258.957947
v 1062.192993 -45.424496 189.404205
v 1059.333374 -43.876858 189.404205
v 1059.333374 -43.876858 258.957947
v 1062.192993 -45.424496 258.957947
v 1065.601685 -47.269207 189.404205
v 1062.741943 -45.721565 189.404205
v 1062.741943 -45.721565 258.957947
v 1065.601685 -47.269207 258.957947
v 1069.010254 -49.113918 258.957947
v 1069.010254 -49.113918 189.404205
v 1066.150635 -47.566277 189.404205
v 1066.150635 -47.566277 258.957947
v 1060.694458 -65.209076 189.404205
v 1062.241699 -62.349186 189.404205
v 1062.241699 -62.349186 258.957947
v 1060.694458 -65.209076 258.957947
v 1062.997070 -60.953197 258.957947
v 1062.997070 -60.953197 189.404205
v 1064.544312 -58.093319 189.404205
v 1064.544312 -58.093319 258.957947
v 1065.299683 -56.697315 189.404205
v 1066.846924 -53.837437 189.404205
v 1066.846924 -53.837437 258.957947
v 1065.299683 -56.697315 258.957947
v 1067.602173 -52.441448 258.957947
v 1067.602173 -52.441448 189.404205
v 1069.149536 -49.581566 189.404205
v 1069.149536 -49.581566 258.957947
vt 0.000000 0.000000
vt 0.500000 0.000000
vt 0.500000 7.666670
vt 0.000000 7.666670
vt 0.000000 0.000000
vt 0.500000 0.000000
vt 0.500000 7.666670
vt 0.000000 7.666670
vt 0.000000 7.666670
vt 0.000000 0.000000
vt 0.500000 0.000000
vt 0.500000 7.666670
vt 0.000000 0.000000
vt 0.500000 0.000000
vt 0.500000 7.666670
vt 0.000000 7.666670
vt 0.000000 0.000000
vt 0.500000 0.000000
vt 0.500000 7.666670
vt 0.000000 7.666670
vt 0.000000 7.666670
vt 0.000000 0.000000
vt 0.500000 0.000000
vt 0.500000 7.666670
vt 0.000000 0.000000
vt 0.500000 0.000000
vt 0.500000 7.666670
vt 0.000000 7.666670
vt 0.000000 0.000000
vt 0.250000 0.000000
vt 0.250000 7.666670
vt 0.000000 7.666670
vt 0.000000 7.666670
vt 0.000000 0.000000
vt 0.250000 0.000000
vt 0.250000 7.666670
vt 0.000000 0.000000
vt 0.250000 0.000000
vt 0.250000 7.666670
vt 0.000000 7.666670
vt 0.000000 7.666670
vt 0.000000 0.000000
vt 0.500000 0.000000
vt 0.500000 7.666670
vt 0.000000 0.000000
vt 0.500000 0.000000
vt 0.500000 7.666670
vt 0.000000 7.666670
vt 0.000000 7.666670
vt 0.000000 0.000000
vt 0.500000 0.000000
vt 0.500000 7.666670
vt 0.000000 0.000000
vt 0.500000 0.000000
vt 0.500000 7.666670
vt 0.000000 7.666670
vt 0.000000 7.666670
vt 0.000000 0.000000
vt 0.500000 0.000000
vt 0.500000 7.666670
vt 0.000000 7.666670
vt 0.000000 0.000000
vt 0.500000 0.000000
vt 0.500000 7.666670
vt 0.000000 7.666670
vt 0.000000 0.000000
vt 0.250000 0.000000
vt 0.250000 7.666670
vt 0.000000 7.666670
vt 0.000000 0.000000
vt 0.250000 0.000000
vt 0.250000 7.666670
vt 0.000000 7.666670
vt 0.000000 0.000000
vt 0.250000 0.000000
vt 0.250000 7.666670
vt 0.000000 0.000000
vt 0.500000 0.000000
vt 0.500000 7.666670
vt 0.000000 7.666670
vt 0.000000 0.000000
vt 0.500000 0.000000
vt 0.500000 7.666670
vt 0.000000 7.666670
vt 0.000000 7.666670
vt 0.000000 0.000000
vt 0.500000 0.000000
vt 0.500000 7.666670
vt 0.000000 0.000000
vt 0.500000 0.000000
vt 0.500000 7.666670
vt 0.000000 7.666670
vt 0.000000 7.666670
vt 0.000000 0.000000
vt 0.500000 0.000000
vt 0.500000 7.666670
vt 0.000000 0.000000
vt 0.500000 0.000000
vt 0.500000 7.666670
vt 0.000000 7.666670
vt 0.000000 7.666670
vt 0.000000 0.000000
vt 0.500000 0.000000
vt 0.500000 7.666670
vn -0.8795 0.4759 0.0000
vn -0.8795 0.4758 0.0000
vn -0.4760 -0.8795 0.0000
vn -0.4759 -0.8795 0.0000
vn 0.4759 0.8795 0.0000
vn 0.4760 0.8795 0.0000
vn 0.8795 -0.4759 0.0000
vn 0.8795 -0.4758 0.0000
s off
f 1/1/1 2/2/1 3/3/1
f 4/4/1 1/1/1 3/3/1
f 5/5/1 6/6/1 7/7/1
f 8/8/1 5/5/1 7/7/1
f 9/9/1 10/10/1 11/11/1
f 9/9/2 11/11/2 12/12/2
f 13/13/1 14/14/1 15/15/1
f 16/16/2 13/13/2 15/15/2
f 17/17/3 18/18/3 19/19/3
f 20/20/3 17/17/3 19/19/3
f 21/21/3 22/22/3 23/23/3
f 21/21/3 23/23/3 24/24/3
f 25/25/3 26/26/3 27/27/3
f 28/28/3 25/25/3 27/27/3
f 29/29/3 30/30/3 31/31/3
f 32/32/3 29/29/3 31/31/3
f 33/33/4 34/34/4 35/35/4
f 33/33/3 35/35/3 36/36/3
f 37/37/4 38/38/4 39/39/4
f 40/40/3 37/37/3 39/39/3
f 41/41/3 42/42/3 43/43/3
f 41/41/3 43/43/3 44/44/3
f 45/45/3 46/46/3 47/47/3
f 48/48/3 45/45/3 47/47/3
f 49/49/3 50/50/3 51/51/3
f 49/49/3 51/51/3 52/52/3
f 53/53/5 54/54/5 55/55/5
f 56/56/6 53/53/6 55/55/6
f 57/57/6 58/58/6 59/59/6
f 57/57/6 59/59/6 60/60/6
f 61/61/6 62/62/6 63/63/6
f 61/61/6 63/63/6 64/64/6
f 65/65/6 66/66/6 67/67/6
f 65/65/6 67/67/6 68/68/6
f 69/69/6 70/70/6 71/71/6
f 69/69/5 71/71/5 72/72/5
f 73/73/5 74/74/5 75/75/5
f 73/73/6 75/75/6 76/76/6
f 77/77/6 78/78/6 79/79/6
f 80/80/6 77/77/6 79/79/6
f 81/81/6 82/82/6 83/83/6
f 84/84/6 81/81/6 83/83/6
f 85/85/6 86/86/6 87/87/6
f 85/85/6 87/87/6 88/88/6
f 89/89/7 90/90/7 91/91/7
f 92/92/8 89/89/8 91/91/8
s 1
f 93/93/8 94/94/7 95/95/7
f 93/93/8 95/95/7 96/96/8
f 97/97/7 98/98/7 99/99/8
f 100/100/8 97/97/7 99/99/8
f 101/101/7 102/102/7 103/103/7
f 101/101/7 103/103/7 104/104/7
