# Blender v3.0.1 OBJ File: 'rockerfeller_plaza.blend'
# www.blender.org
o geometryt000010000010000110010110000110000110100000010100st212
v 954.320496 -242.217178 211.109894
v 954.320496 -242.217178 148.193268
v 952.850830 -244.921692 148.193268
v 952.850830 -244.921692 211.109894
v 955.933350 -239.249283 211.109894
v 955.933350 -239.249283 148.193268
v 954.463623 -241.953888 148.193268
v 954.463623 -241.953888 211.109894
v 956.811340 -237.633682 148.193268
v 956.076416 -238.985977 148.193268
v 956.076416 -238.985977 211.109894
v 956.811340 -237.633682 211.109894
v 958.424133 -234.665787 148.193268
v 956.954407 -237.370392 148.193268
v 956.954407 -237.370392 211.109894
v 958.424133 -234.665787 211.109894
v 961.506592 -228.993286 148.193268
v 958.567200 -234.402481 148.193268
v 958.567200 -234.402481 211.109894
v 961.506592 -228.993286 211.109894
v 964.589111 -223.320892 148.193268
v 961.649719 -228.729980 148.193268
v 961.649719 -228.729980 211.109894
v 964.589111 -223.320892 211.109894
v 966.201904 -220.352982 148.193268
v 964.732239 -223.057587 148.193268
v 964.732239 -223.057587 211.109894
v 966.201904 -220.352982 211.109894
v 967.079834 -218.737381 148.193268
v 966.345032 -220.089691 148.193268
v 966.345032 -220.089691 211.109894
v 967.079834 -218.737381 211.109894
v 968.692749 -215.769485 148.193268
v 967.222900 -218.474091 148.193268
v 967.222900 -218.474091 211.109894
v 968.692749 -215.769485 211.109894
v 970.305542 -212.801590 211.109894
v 970.305542 -212.801590 148.193268
v 968.835693 -215.506180 148.193268
v 968.835693 -215.506180 211.109894
v 952.989807 -245.388580 148.193268
v 955.699402 -246.848984 148.193268
v 955.699402 -246.848984 211.109894
v 952.989807 -245.388580 211.109894
v 955.940552 -246.978989 211.109894
v 955.940552 -246.978989 148.193268
v 958.650146 -248.439392 148.193268
v 958.650146 -248.439392 211.109894
v 958.891235 -248.569382 211.109894
v 958.891235 -248.569382 148.193268
v 960.246033 -249.299591 148.193268
v 960.246033 -249.299591 211.109894
v 960.487183 -249.429581 148.193268
v 963.196838 -250.889984 148.193268
v 963.196838 -250.889984 211.109894
v 960.487183 -249.429581 211.109894
v 963.437927 -251.019989 148.193268
v 968.857117 -253.940781 148.193268
v 968.857117 -253.940781 211.109894
v 963.437927 -251.019989 211.109894
v 969.098206 -254.070786 148.193268
v 970.453003 -254.800980 148.193268
v 970.453003 -254.800980 211.109894
v 969.098206 -254.070786 211.109894
v 970.694214 -254.930984 211.109894
v 970.694214 -254.930984 148.193268
v 974.758606 -257.121582 148.193268
v 974.758606 -257.121582 211.109894
v 974.999756 -257.251556 148.193268
v 976.354492 -257.981781 148.193268
v 976.354492 -257.981781 211.109894
v 974.999756 -257.251556 211.109894
v 976.595703 -258.111755 148.193268
v 982.014832 -261.032684 148.193268
v 982.014832 -261.032684 211.109894
v 976.595703 -258.111755 211.109894
v 982.255981 -261.162567 148.193268
v 984.965637 -262.623077 148.193268
v 984.965637 -262.623077 211.109894
v 982.255981 -261.162567 211.109894
v 985.206726 -262.752960 211.109894
v 985.206726 -262.752960 148.193268
v 986.561523 -263.483154 148.193268
v 986.561523 -263.483154 211.109894
v 986.802734 -263.613159 211.109894
v 986.802734 -263.613159 148.193268
v 989.512329 -265.073669 148.193268
v 989.512329 -265.073669 211.109894
v 989.753418 -265.203583 148.193268
v 992.463013 -266.664062 148.193268
v 992.463013 -266.664062 211.109894
v 989.753418 -265.203583 211.109894
v 974.536804 -214.687790 211.109894
v 974.536804 -214.687790 148.193268
v 971.827209 -213.227188 148.193268
v 971.827209 -213.227188 211.109894
v 977.565918 -216.320587 211.109894
v 977.565918 -216.320587 148.193268
v 974.856445 -214.860092 148.193268
v 974.856445 -214.860092 211.109894
v 979.240234 -217.223190 211.109894
v 979.240234 -217.223190 148.193268
v 977.885498 -216.492889 148.193268
v 977.885498 -216.492889 211.109894
v 982.269409 -218.856079 211.109894
v 982.269409 -218.856079 148.193268
v 979.559937 -217.395477 148.193268
v 979.559937 -217.395477 211.109894
v 988.007996 -221.949478 211.109894
v 988.007996 -221.949478 148.193268
v 982.588989 -219.028381 148.193268
v 982.588989 -219.028381 211.109894
v 993.746582 -225.042984 211.109894
v 993.746582 -225.042984 148.193268
v 988.327637 -222.121780 148.193268
v 988.327637 -222.121780 211.109894
v 999.485352 -228.136383 148.193268
v 994.066223 -225.215179 148.193268
v 994.066223 -225.215179 211.109894
v 999.485352 -228.136383 211.109894
v 1002.514404 -229.769287 211.109894
v 1002.514404 -229.769287 148.193268
v 999.804932 -228.308685 148.193268
v 999.804932 -228.308685 211.109894
v 1004.188843 -230.671783 148.193268
v 1002.833984 -229.941483 148.193268
v 1002.833984 -229.941483 211.109894
v 1004.188843 -230.671783 211.109894
v 1007.217896 -232.304688 148.193268
v 1004.508423 -230.844086 148.193268
v 1004.508423 -230.844086 211.109894
v 1007.217896 -232.304688 211.109894
v 1010.247009 -233.937592 211.109894
v 1010.247009 -233.937592 148.193268
v 1007.537476 -232.476990 148.193268
v 1007.537476 -232.476990 211.109894
v 992.932251 -266.524963 148.193268
v 994.401917 -263.820465 148.193268
v 994.401917 -263.820465 211.109894
v 992.932251 -266.524963 211.109894
v 994.545044 -263.557159 211.109894
v 994.545044 -263.557159 148.193268
v 996.014709 -260.852570 148.193268
v 996.014709 -260.852570 211.109894
v 996.295410 -260.336060 211.109894
v 996.157837 -260.589264 148.193268
v 996.892700 -259.236969 148.193268
v 996.157837 -260.589264 211.109894
v 996.892700 -259.236969 211.109894
v 997.035828 -258.973663 148.193268
v 998.505493 -256.269073 148.193268
v 998.505493 -256.269073 211.109894
v 997.035828 -258.973663 211.109894
v 998.648621 -256.005768 148.193268
v 1001.588135 -250.596680 148.193268
v 1001.588135 -250.596680 211.109894
v 998.648621 -256.005768 211.109894
v 1001.731201 -250.333282 148.193268
v 1004.670654 -244.924179 148.193268
v 1004.670654 -244.924179 211.109894
v 1001.731201 -250.333282 211.109894
v 1004.813721 -244.660889 211.109894
v 1004.813721 -244.660889 148.193268
v 1006.283447 -241.956284 148.193268
v 1006.283447 -241.956284 211.109894
v 1006.426514 -241.692978 211.109894
v 1006.426514 -241.692978 148.193268
v 1007.161377 -240.340683 148.193268
v 1007.161377 -240.340683 211.109894
v 1007.304504 -240.077377 211.109894
v 1007.304504 -240.077377 148.193268
v 1008.774231 -237.372787 148.193268
v 1008.774231 -237.372787 211.109894
v 1008.917358 -237.109482 211.109894
v 1008.917358 -237.109482 148.193268
v 1010.387024 -234.404984 148.193268
v 1010.387024 -234.404984 211.109894
vt 0.000000 5.000000
vt 0.000000 0.000000
vt 0.666670 0.000000
vt 0.666670 5.000000
vt 0.000000 5.000000
vt 0.000000 0.000000
vt 0.666670 0.000000
vt 0.666670 5.000000
vt 0.000000 0.000000
vt 0.666670 0.000000
vt 0.666670 5.000000
vt 0.000000 5.000000
vt 0.000000 0.000000
vt 1.333330 0.000000
vt 1.333330 5.000000
vt 0.000000 5.000000
vt 0.000000 0.000000
vt 1.333330 0.000000
vt 1.333330 5.000000
vt 0.000000 5.000000
vt 0.000000 0.000000
vt 0.666670 0.000000
vt 0.666670 5.000000
vt 0.000000 5.000000
vt 0.000000 0.000000
vt 0.333330 0.000000
vt 0.333330 5.000000
vt 0.000000 5.000000
vt 0.000000 0.000000
vt 0.666670 0.000000
vt 0.666670 5.000000
vt 0.000000 5.000000
vt 0.000000 5.000000
vt 0.000000 0.000000
vt 0.666670 0.000000
vt 0.666670 5.000000
vt 0.000000 0.000000
vt 0.666670 0.000000
vt 0.666670 5.000000
vt 0.000000 5.000000
vt 0.000000 5.000000
vt 0.000000 0.000000
vt 0.666670 0.000000
vt 0.666670 5.000000
vt 0.000000 5.000000
vt 0.000000 0.000000
vt 0.333330 0.000000
vt 0.333330 5.000000
vt 0.000000 0.000000
vt 0.666670 0.000000
vt 0.666670 5.000000
vt 0.000000 5.000000
vt 0.000000 0.000000
vt 1.333330 0.000000
vt 1.333330 5.000000
vt 0.000000 5.000000
vt 0.000000 0.000000
vt 0.333330 0.000000
vt 0.333330 5.000000
vt 0.000000 5.000000
vt 0.000000 5.000000
vt 0.000000 0.000000
vt 1.000000 0.000000
vt 1.000000 5.000000
vt 0.000000 0.000000
vt 0.333330 0.000000
vt 0.333330 5.000000
vt 0.000000 5.000000
vt 0.000000 0.000000
vt 1.333330 0.000000
vt 1.333330 5.000000
vt 0.000000 5.000000
vt 0.000000 0.000000
vt 0.666670 0.000000
vt 0.666670 5.000000
vt 0.000000 5.000000
vt 0.000000 5.000000
vt 0.000000 0.000000
vt 0.666670 0.000000
vt 0.666670 5.000000
vt 0.000000 0.000000
vt 0.666670 0.000000
vt 0.666670 5.000000
vt 0.000000 5.000000
vt 0.000000 5.000000
vt 0.000000 0.000000
vt 0.666670 0.000000
vt 0.666670 5.000000
vt 0.000000 5.000000
vt 0.000000 0.000000
vt 0.666670 0.000000
vt 0.666670 5.000000
vt 0.000000 5.000000
vt 0.000000 0.000000
vt 0.333330 0.000000
vt 0.333330 5.000000
vt 0.000000 5.000000
vt 0.000000 0.000000
vt 0.666670 0.000000
vt 0.666670 5.000000
vt 0.000000 5.000000
vt 0.000000 0.000000
vt 1.333330 0.000000
vt 1.333330 5.000000
vt 0.000000 5.000000
vt 0.000000 0.000000
vt 1.333330 0.000000
vt 1.333330 5.000000
vt 0.000000 0.000000
vt 1.333330 0.000000
vt 1.333330 5.000000
vt 0.000000 5.000000
vt 0.000000 5.000000
vt 0.000000 0.000000
vt 0.666670 0.000000
vt 0.666670 5.000000
vt 0.000000 0.000000
vt 0.333330 0.000000
vt 0.333330 5.000000
vt 0.000000 5.000000
vt 0.000000 0.000000
vt 0.666670 0.000000
vt 0.666670 5.000000
vt 0.000000 5.000000
vt 0.000000 5.000000
vt 0.000000 0.000000
vt 0.666670 0.000000
vt 0.666670 5.000000
vt 0.000000 0.000000
vt 0.666670 0.000000
vt 0.666670 5.000000
vt 0.000000 5.000000
vt 0.000000 5.000000
vt 0.000000 0.000000
vt 0.666670 0.000000
vt 0.666670 5.000000
vt 0.062410 5.000000
vt 0.000000 0.000000
vt 0.333330 0.000000
vt 0.000000 5.000000
vt 0.333330 5.000000
vt 0.000000 0.000000
vt 0.666670 0.000000
vt 0.666670 5.000000
vt 0.000000 5.000000
vt 0.000000 0.000000
vt 1.333330 0.000000
vt 1.333330 5.000000
vt 0.000000 5.000000
vt 0.000000 0.000000
vt 1.333330 0.000000
vt 1.333330 5.000000
vt 0.000000 5.000000
vt 0.000000 5.000000
vt 0.000000 0.000000
vt 0.666670 0.000000
vt 0.666670 5.000000
vt 0.000000 5.000000
vt 0.000000 0.000000
vt 0.333330 0.000000
vt 0.333330 5.000000
vt 0.000000 5.000000
vt 0.000000 0.000000
vt 0.666670 0.000000
vt 0.666670 5.000000
vt 0.000000 5.000000
vt 0.000000 0.000000
vt 0.666670 0.000000
vt 0.666670 5.000000
vt 0.000000 0.000000
vt 0.333330 0.000000
vt 0.333330 5.000000
vt 0.000000 5.000000
vt 0.000000 5.000000
vt 0.000000 0.000000
vt 0.333330 0.000000
vt 0.333330 5.000000
vn -0.8787 0.4774 0.0000
vn -0.8786 0.4775 0.0000
vn -0.8787 0.4775 0.0000
vn -0.4744 -0.8803 0.0000
vn -0.4745 -0.8803 0.0000
vn 0.4745 0.8803 0.0000
vn 0.4745 0.8802 0.0000
vn 0.8787 -0.4774 0.0000
vn 0.8786 -0.4775 0.0000
vn 0.8788 -0.4771 0.0000
vn 0.8787 -0.4775 0.0000
s off
f 1/1/1 2/2/1 3/3/1
f 1/1/2 3/3/2 4/4/2
f 5/5/3 6/6/3 7/7/3
f 5/5/2 7/7/2 8/8/2
f 13/9/3 14/10/3 15/11/3
f 16/12/3 13/9/3 15/11/3
f 17/13/3 18/14/3 19/15/3
f 20/16/3 17/13/3 19/15/3
f 21/17/2 22/18/2 23/19/2
f 24/20/2 21/17/2 23/19/2
f 25/21/1 26/22/1 27/23/1
f 28/24/3 25/21/3 27/23/3
f 29/25/1 30/26/1 31/27/1
f 32/28/3 29/25/3 31/27/3
f 33/29/2 34/30/2 35/31/2
f 36/32/2 33/29/2 35/31/2
f 37/33/2 38/34/2 39/35/2
f 37/33/2 39/35/2 40/36/2
f 41/37/4 42/38/4 43/39/4
f 44/40/5 41/37/5 43/39/5
f 45/41/5 46/42/5 47/43/5
f 45/41/5 47/43/5 48/44/5
f 49/45/5 50/46/5 51/47/5
f 49/45/4 51/47/4 52/48/4
f 53/49/5 54/50/5 55/51/5
f 56/52/4 53/49/4 55/51/4
f 57/53/4 58/54/4 59/55/4
f 60/56/5 57/53/5 59/55/5
f 61/57/5 62/58/5 63/59/5
f 64/60/4 61/57/4 63/59/4
f 65/61/4 66/62/4 67/63/4
f 65/61/4 67/63/4 68/64/4
f 69/65/5 70/66/5 71/67/5
f 72/68/5 69/65/5 71/67/5
f 73/69/5 74/70/5 75/71/5
f 76/72/5 73/69/5 75/71/5
f 77/73/5 78/74/5 79/75/5
f 80/76/4 77/73/4 79/75/4
f 85/77/5 86/78/5 87/79/5
f 85/77/5 87/79/5 88/80/5
f 89/81/5 90/82/5 91/83/5
f 92/84/5 89/81/5 91/83/5
f 93/85/6 94/86/6 95/87/6
f 93/85/6 95/87/6 96/88/6
f 97/89/6 98/90/6 99/91/6
f 97/89/6 99/91/6 100/92/6
f 101/93/7 102/94/7 103/95/7
f 101/93/7 103/95/7 104/96/7
f 105/97/6 106/98/6 107/99/6
f 105/97/7 107/99/7 108/100/7
f 109/101/6 110/102/6 111/103/6
f 109/101/6 111/103/6 112/104/6
f 113/105/7 114/106/7 115/107/7
f 113/105/7 115/107/7 116/108/7
f 117/109/7 118/110/7 119/111/7
f 120/112/6 117/109/6 119/111/6
f 121/113/7 122/114/7 123/115/7
f 121/113/6 123/115/6 124/116/6
f 125/117/6 126/118/6 127/119/6
f 128/120/6 125/117/6 127/119/6
f 129/121/7 130/122/7 131/123/7
f 132/124/7 129/121/7 131/123/7
f 133/125/6 134/126/6 135/127/6
f 133/125/7 135/127/7 136/128/7
f 137/129/8 138/130/8 139/131/8
f 140/132/9 137/129/9 139/131/9
f 141/133/9 142/134/9 143/135/9
f 141/133/9 143/135/9 144/136/9
f 145/137/9 146/138/9 147/139/9
f 148/140/10 146/138/10 145/137/10
f 145/137/9 147/139/9 149/141/9
f 150/142/9 151/143/9 152/144/9
f 153/145/9 150/142/9 152/144/9
f 154/146/9 155/147/9 156/148/9
f 157/149/9 154/146/9 156/148/9
f 158/150/9 159/151/9 160/152/9
f 161/153/9 158/150/9 160/152/9
f 162/154/11 163/155/11 164/156/11
f 162/154/9 164/156/9 165/157/9
f 166/158/9 167/159/9 168/160/9
f 166/158/9 168/160/9 169/161/9
f 170/162/9 171/163/9 172/164/9
f 170/162/9 172/164/9 173/165/9
f 174/166/9 175/167/9 176/168/9
f 174/166/8 176/168/8 177/169/8
s 1
f 9/170/2 10/171/2 11/172/2
f 12/173/2 9/170/2 11/172/2
f 81/174/5 82/175/4 83/176/4
f 81/174/5 83/176/4 84/177/5
