# Blender v3.0.1 OBJ File: 'rockerfeller_plaza.blend'
# www.blender.org
o geometryt000010000010000110010110000110000100110010110010st34
v 26.512606 -52.171471 294.604950
v 26.349125 -52.475281 301.320038
v 26.512606 -52.171471 301.320038
v 28.652466 -48.194733 294.604950
v 26.349125 -52.475281 294.220062
v 28.652466 -48.194733 301.320038
v 29.290276 -47.009422 301.320038
v 29.290276 -47.009422 294.604950
v 29.990484 -45.708141 294.220062
v 30.716854 -44.358261 294.604950
v 30.716854 -44.358261 301.320038
v 31.354666 -43.172951 301.320038
v 31.354666 -43.172951 294.604950
v 33.494522 -39.196213 294.604950
v 33.658005 -38.892403 294.220062
v 33.494522 -39.196213 301.320038
v 33.658005 -38.892403 301.320038
v 33.769184 -56.496922 294.604950
v 34.572155 -56.932133 301.320038
v 33.769184 -56.496922 301.320038
v 27.152096 -52.910480 294.604950
v 34.572155 -56.932133 294.220062
v 27.152096 -52.910480 301.320038
v 26.349125 -52.475281 301.320038
v 26.349125 -52.475281 294.220062
v 34.456844 -39.341610 294.604950
v 33.654472 -38.890511 301.320038
v 34.456844 -39.341610 301.320038
v 41.017586 -43.030144 294.604950
v 33.654472 -38.890511 294.220062
v 41.017586 -43.030144 301.320038
v 41.819954 -43.481243 301.320038
v 41.819954 -43.481243 294.220062
v 41.656296 -43.784962 294.604950
v 41.819954 -43.481243 301.320038
v 41.656296 -43.784962 301.320038
v 39.514153 -47.760471 294.604950
v 41.819954 -43.481243 294.220062
v 39.514153 -47.760471 301.320038
v 38.910103 -48.881523 301.320038
v 38.910103 -48.881523 294.604950
v 37.482002 -51.531860 294.604950
v 34.572155 -56.932133 294.220062
v 37.482002 -51.531860 301.320038
v 36.877945 -52.652901 301.320038
v 36.877945 -52.652901 294.604950
v 34.735806 -56.628410 294.604950
v 34.735806 -56.628410 301.320038
v 34.572155 -56.932133 301.320038
vt 26.975780 0.688550
vt 27.592960 12.701250
vt 26.975780 12.701250
vt 18.897230 0.688550
vt 27.592960 0.000000
vt 18.897230 12.701250
vt 16.489330 12.701250
vt 16.489330 0.688550
vt 13.845850 0.000000
vt 0.617170 0.688550
vt 0.000000 0.000000
vt 8.695731 0.688550
vt 0.617170 12.701250
vt 0.000000 12.701250
vt 15.098110 0.688550
vt 16.731960 12.701250
vt 15.098110 12.701250
vt 1.633850 0.688550
vt 16.731960 0.000000
vt 1.633850 12.701250
vt 0.000000 12.701250
vt 0.000000 0.000000
vt 15.110920 0.688550
vt 16.757580 12.701250
vt 15.110920 12.701250
vt 1.646660 0.688550
vt 16.757580 0.000000
vt 1.646660 12.701250
vt 0.000000 12.701250
vt 0.000000 0.000000
vt 26.716089 0.688550
vt 27.333269 12.701250
vt 26.716089 12.701250
vt 18.637541 0.688550
vt 27.333269 0.000000
vt 18.637541 12.701250
vt 16.359480 12.701250
vt 16.359480 0.688550
vt 10.973780 0.688550
vt 0.000000 0.000000
vt 10.973780 12.701250
vt 8.695731 12.701250
vt 8.695731 0.688550
vt 0.617170 0.688550
vt 0.617170 12.701250
vt 0.000000 12.701250
vt 11.103630 0.688550
vt 11.103630 12.701250
vt 8.695731 12.701250
vn -0.8806 0.4739 0.0000
vn -0.8806 0.4738 0.0000
vn -0.4765 -0.8792 0.0000
vn 0.4901 0.8717 0.0000
vn 0.8803 -0.4744 0.0000
vn 0.8803 -0.4743 0.0000
vn 0.8803 -0.4744 0.0001
vn 0.8804 -0.4743 0.0000
s off
f 1/1/1 2/2/1 3/3/1
f 4/4/1 5/5/1 1/1/1
f 2/2/1 1/1/1 5/5/1
f 6/6/1 7/7/1 4/4/1
f 7/7/2 8/8/2 4/4/2
f 8/8/1 9/9/1 4/4/1
f 4/4/2 9/9/2 5/5/2
f 14/10/1 15/11/1 13/12/1
f 16/13/1 17/14/1 14/10/1
f 17/14/1 15/11/1 14/10/1
f 18/15/3 19/16/3 20/17/3
f 21/18/3 22/19/3 18/15/3
f 19/16/3 18/15/3 22/19/3
f 23/20/3 24/21/3 21/18/3
f 24/21/3 25/22/3 21/18/3
f 25/22/3 22/19/3 21/18/3
f 26/23/4 27/24/4 28/25/4
f 29/26/4 30/27/4 26/23/4
f 27/24/4 26/23/4 30/27/4
f 31/28/4 32/29/4 29/26/4
f 32/29/4 33/30/4 29/26/4
f 33/30/4 30/27/4 29/26/4
f 34/31/5 35/32/5 36/33/5
f 37/34/6 38/35/6 34/31/6
f 35/32/5 34/31/5 38/35/5
f 39/36/6 40/37/6 37/34/6
f 40/37/5 41/38/5 37/34/5
f 41/38/7 38/35/7 37/34/7
f 42/39/7 43/40/7 41/38/7
f 41/38/6 43/40/6 38/35/6
f 44/41/5 45/42/5 42/39/5
f 45/42/5 46/43/5 42/39/5
f 46/43/5 43/40/5 42/39/5
f 47/44/8 43/40/8 46/43/8
f 48/45/6 49/46/6 47/44/6
f 49/46/6 43/40/6 47/44/6
s 1
f 8/8/1 10/47/2 9/9/1
f 11/48/1 12/49/1 10/47/2
f 12/49/1 13/12/2 10/47/2
f 10/47/2 13/12/2 9/9/1
f 13/12/2 15/11/1 9/9/1
