# Blender v3.0.1 OBJ File: 'rockerfeller_plaza.blend'
# www.blender.org
o geometryt000010000010000110010110000110000110100000010110st11
v 1102.548462 -257.001373 189.546600
v 1086.501953 -274.430969 189.546600
v 1097.264282 -254.154373 189.546600
v 1107.848999 -259.814758 189.546600
v 1118.764648 -265.615570 189.546600
v 1111.858276 -278.508484 189.546600
v 1117.515991 -281.539764 189.546600
v 1116.913086 -282.679260 189.546600
v 1115.665405 -284.992065 189.546600
v 1114.616333 -286.958374 189.546600
v 1113.558716 -288.924774 189.546600
v 1111.858276 -278.508484 253.546600
v 1086.501953 -274.430969 253.546600
v 1113.558716 -288.924774 253.546600
v 1107.848999 -259.814758 253.546600
v 1102.548462 -257.001373 253.546600
v 1097.264282 -254.154373 253.546600
v 1114.616333 -286.958374 253.546600
v 1115.665405 -284.992065 253.546600
v 1116.913086 -282.679260 253.546600
v 1117.515991 -281.539764 253.546600
v 1118.764648 -265.615570 253.546600
vt 0.433240 0.212300
vt 0.470060 0.179540
vt 0.429740 0.201710
vt 0.436680 0.222910
vt 0.443760 0.244780
vt 0.469420 0.230550
vt 0.473140 0.241890
vt 0.475400 0.240640
vt 0.480010 0.238070
vt 0.483920 0.235910
vt 0.487830 0.233740
vt 0.469420 0.230550
vt 0.470060 0.179540
vt 0.487830 0.233740
vt 0.436680 0.222910
vt 0.433240 0.212300
vt 0.429740 0.201710
vt 0.483920 0.235910
vt 0.480010 0.238070
vt 0.475400 0.240640
vt 0.473140 0.241890
vt 0.443760 0.244780
vn 0.0000 0.0000 -1.0000
vn 0.0000 0.0000 1.0000
s off
f 1/1/1 2/2/1 3/3/1
f 2/2/1 1/1/1 4/4/1
f 5/5/1 6/6/1 4/4/1
f 4/4/1 6/6/1 2/2/1
f 7/7/1 8/8/1 6/6/1
f 8/8/1 9/9/1 6/6/1
f 6/6/1 9/9/1 10/10/1
f 6/6/1 10/10/1 11/11/1
f 6/6/1 11/11/1 2/2/1
f 12/12/2 13/13/2 14/14/2
f 15/15/2 13/13/2 12/12/2
f 16/16/2 13/13/2 15/15/2
f 17/17/2 13/13/2 16/16/2
f 12/12/2 14/14/2 18/18/2
f 19/19/2 12/12/2 18/18/2
f 20/20/2 12/12/2 19/19/2
f 21/21/2 12/12/2 20/20/2
f 22/22/2 15/15/2 12/12/2
