# Blender v3.0.1 OBJ File: 'rockerfeller_plaza.blend'
# www.blender.org
o geometryt000010000010000110010110000110000110100000110010st112
v 1052.473633 -160.309143 466.329773
v 1052.252930 -160.718246 548.411194
v 1052.473633 -160.309143 548.411194
v 1053.883057 -157.697235 466.329773
v 1052.252930 -160.718246 462.411194
v 1053.883057 -157.697235 548.411194
v 1054.103760 -157.288132 548.411194
v 1054.103760 -157.288132 462.411194
v 1077.088013 -174.126938 466.329773
v 1077.391602 -174.290833 548.411194
v 1077.088013 -174.126938 548.411194
v 1074.476562 -172.716934 466.329773
v 1077.391602 -174.290833 462.411194
v 1074.476562 -172.716934 548.411194
v 1074.087524 -172.506943 548.411194
v 1074.087524 -172.506943 466.329773
v 1070.170288 -170.392044 466.329773
v 1070.170288 -170.392044 548.411194
v 1069.781372 -170.182037 548.411194
v 1069.781372 -170.182037 466.329773
v 1065.864136 -168.067032 466.329773
v 1065.864136 -168.067032 548.411194
v 1065.475098 -167.857040 548.411194
v 1065.475098 -167.857040 466.329773
v 1064.169434 -167.152039 466.329773
v 1064.169434 -167.152039 548.411194
v 1063.780396 -166.942032 548.411194
v 1063.780396 -166.942032 466.329773
v 1052.252930 -160.718246 462.411194
v 1059.863159 -164.827042 466.329773
v 1059.863159 -164.827042 548.411194
v 1059.474243 -164.617035 548.411194
v 1059.474243 -164.617035 466.329773
v 1055.557007 -162.502136 466.329773
v 1055.557007 -162.502136 548.411194
v 1055.167969 -162.292145 548.411194
v 1055.167969 -162.292145 466.329773
v 1052.556519 -160.882141 466.329773
v 1052.556519 -160.882141 548.411194
v 1052.252930 -160.718246 548.411194
v 1054.318604 -156.894638 466.329773
v 1054.103760 -157.288132 548.411194
v 1054.318604 -156.894638 548.411194
v 1055.244385 -155.198746 462.411194
v 1055.029541 -155.592133 466.329773
v 1054.103760 -157.288132 462.411194
v 1055.029541 -155.592133 548.411194
v 1055.244385 -155.198746 548.411194
v 1055.603760 -154.521133 466.329773
v 1055.244385 -155.198746 548.411194
v 1055.603760 -154.521133 548.411194
v 1059.080933 -147.966736 466.329773
v 1055.244385 -155.198746 462.411194
v 1059.080933 -147.966736 548.411194
v 1059.440308 -147.289246 548.411194
v 1059.440308 -147.289246 462.411194
v 1059.729248 -146.760040 466.329773
v 1059.440308 -147.289246 548.411194
v 1059.729248 -146.760040 548.411194
v 1062.573120 -141.550034 466.329773
v 1059.440308 -147.289246 462.411194
v 1062.573120 -141.550034 548.411194
v 1062.862061 -141.020844 548.411194
v 1062.862061 -141.020844 462.411194
v 1063.225464 -140.351242 466.329773
v 1062.862061 -141.020844 548.411194
v 1063.225464 -140.351242 548.411194
v 1065.713013 -135.769333 462.411194
v 1065.349487 -136.438934 466.329773
v 1062.862061 -141.020844 462.411194
v 1065.349487 -136.438934 548.411194
v 1065.713013 -135.769333 548.411194
v 1066.016602 -135.933243 466.329773
v 1065.713013 -135.769333 548.411194
v 1066.016602 -135.933243 548.411194
v 1068.628174 -137.343140 466.329773
v 1065.713013 -135.769333 462.411194
v 1068.628174 -137.343140 548.411194
v 1069.018188 -137.553741 548.411194
v 1069.018188 -137.553741 466.329773
v 1072.935547 -139.668533 466.329773
v 1072.935547 -139.668533 548.411194
v 1073.325562 -139.879135 548.411194
v 1073.325562 -139.879135 466.329773
v 1080.272583 -143.629532 462.411194
v 1077.242920 -141.993942 466.329773
v 1077.242920 -141.993942 548.411194
v 1077.632935 -142.204544 548.411194
v 1077.632935 -142.204544 466.329773
v 1078.938721 -142.909439 466.329773
v 1078.938721 -142.909439 548.411194
v 1079.328735 -143.120041 548.411194
v 1079.328735 -143.120041 466.329773
v 1083.246094 -145.234833 466.329773
v 1083.246094 -145.234833 548.411194
v 1083.636108 -145.445435 548.411194
v 1083.636108 -145.445435 466.329773
v 1087.553467 -147.560242 466.329773
v 1090.858643 -149.344635 462.411194
v 1087.553467 -147.560242 548.411194
v 1087.943481 -147.770844 548.411194
v 1087.943481 -147.770844 466.329773
v 1090.555054 -149.180740 466.329773
v 1090.555054 -149.180740 548.411194
v 1090.858643 -149.344635 548.411194
v 1090.696289 -149.645432 466.329773
v 1090.860107 -149.341843 548.411194
v 1090.696289 -149.645432 548.411194
v 1089.286377 -152.257034 466.329773
v 1090.860107 -149.341843 462.411194
v 1089.286377 -152.257034 548.411194
v 1089.093506 -152.614243 548.411194
v 1089.093506 -152.614243 466.329773
v 1086.978760 -156.531631 466.329773
v 1086.978760 -156.531631 548.411194
v 1086.785889 -156.888840 548.411194
v 1086.785889 -156.888840 466.329773
v 1084.671143 -160.806244 466.329773
v 1084.671143 -160.806244 548.411194
v 1084.478271 -161.163437 548.411194
v 1084.478271 -161.163437 466.329773
v 1083.773438 -162.469238 466.329773
v 1083.773438 -162.469238 548.411194
v 1083.580566 -162.826447 548.411194
v 1083.580566 -162.826447 466.329773
v 1077.391602 -174.290833 462.411194
v 1081.465820 -166.743835 466.329773
v 1081.465820 -166.743835 548.411194
v 1081.272949 -167.101044 548.411194
v 1081.272949 -167.101044 466.329773
v 1079.158203 -171.018433 466.329773
v 1079.158203 -171.018433 548.411194
v 1078.965332 -171.375641 548.411194
v 1078.965332 -171.375641 466.329773
v 1077.555542 -173.987244 466.329773
v 1077.555542 -173.987244 548.411194
v 1077.391602 -174.290833 548.411194
vt 4.400890 5.023830
vt 4.996880 110.256401
vt 4.400890 110.256401
vt 0.595990 5.023830
vt 4.996880 0.000000
vt 0.595990 110.256401
vt 0.000000 110.256401
vt 0.000000 0.000000
vt 36.184219 5.023830
vt 36.626530 110.256401
vt 36.184219 110.256401
vt 32.379318 5.023830
vt 36.626530 0.000000
vt 31.812611 5.023830
vt 26.105261 5.023830
vt 26.105261 110.256401
vt 25.538549 110.256401
vt 25.538549 5.023830
vt 19.831200 5.023830
vt 19.831200 110.256401
vt 19.264490 110.256401
vt 19.264490 5.023830
vt 17.362040 5.023830
vt 17.362040 110.256401
vt 16.795330 110.256401
vt 16.795330 5.023830
vt 0.000000 0.000000
vt 11.087980 5.023830
vt 11.087980 110.256401
vt 10.521270 110.256401
vt 10.521270 5.023830
vt 4.813920 5.023830
vt 4.813920 110.256401
vt 4.247210 110.256401
vt 4.247210 5.023830
vt 0.442310 5.023830
vt 0.442310 110.256401
vt 0.000000 110.256401
vt 2.477180 5.023830
vt 3.051910 110.256401
vt 2.477180 110.256401
vt 0.000000 0.000000
vt 0.574730 5.023830
vt 3.051910 0.000000
vt 0.574730 110.256401
vt 0.000000 110.256401
vt 10.495600 5.023830
vt 11.478940 110.256401
vt 10.495600 110.256401
vt 0.983350 5.023830
vt 11.478940 0.000000
vt 0.983350 110.256401
vt 0.000000 110.256401
vt 0.000000 0.000000
vt 8.382761 5.023830
vt 9.155731 110.256401
vt 8.382761 110.256401
vt 0.772960 5.023830
vt 9.155731 0.000000
vt 0.772960 110.256401
vt 0.000000 110.256401
vt 0.000000 0.000000
vt 6.684090 5.023830
vt 7.660820 110.256401
vt 6.684090 110.256401
vt 0.000000 0.000000
vt 7.660820 0.000000
vt 0.976730 110.256401
vt 0.000000 110.256401
vt 0.976730 5.023830
vt 36.193588 5.023830
vt 36.635891 110.256401
vt 36.193588 110.256401
vt 32.388691 5.023830
vt 36.635891 0.000000
vt 32.388691 110.256401
vt 31.820419 110.256401
vt 31.820419 5.023830
vt 26.113070 5.023830
vt 26.113070 110.256401
vt 25.544800 110.256401
vt 25.544800 5.023830
vt 15.423390 0.000000
vt 19.837440 5.023830
vt 19.837440 110.256401
vt 19.269171 110.256401
vt 19.269171 5.023830
vt 17.366720 5.023830
vt 17.366720 110.256401
vt 16.798450 110.256401
vt 16.798450 5.023830
vt 11.091100 5.023830
vt 11.091100 110.256401
vt 10.522830 110.256401
vt 10.522830 5.023830
vt 4.815480 5.023830
vt 0.000000 0.000000
vt 4.815480 110.256401
vt 4.247210 110.256401
vt 4.247210 5.023830
vt 0.442310 5.023830
vt 0.442310 110.256401
vt 0.000000 110.256401
vt 35.906780 5.023830
vt 36.349091 110.256401
vt 35.906780 110.256401
vt 32.101879 5.023830
vt 36.349091 0.000000
vt 32.101879 110.256401
vt 31.581409 110.256401
vt 31.581409 5.023830
vt 25.874060 5.023830
vt 25.874060 110.256401
vt 25.353590 110.256401
vt 25.353590 5.023830
vt 19.646240 5.023830
vt 19.646240 110.256401
vt 19.125771 110.256401
vt 19.125771 5.023830
vt 17.223320 5.023830
vt 17.223320 110.256401
vt 16.702850 110.256401
vt 16.702850 5.023830
vt 0.000000 0.000000
vt 10.995500 5.023830
vt 10.995500 110.256401
vt 10.475030 110.256401
vt 10.475030 5.023830
vt 4.767680 5.023830
vt 4.767680 110.256401
vt 4.247210 110.256401
vt 4.247210 5.023830
vt 0.442310 5.023830
vt 0.442310 110.256401
vt 0.000000 110.256401
vt 32.379318 110.256401
vt 31.812611 110.256401
vn -0.8802 0.4747 0.0000
vn -0.8800 0.4749 -0.0000
vn -0.8800 0.4750 0.0000
vn -0.8801 0.4749 0.0000
vn -0.4752 -0.8799 0.0000
vn -0.4751 -0.8799 -0.0000
vn -0.4748 -0.8801 0.0002
vn -0.4750 -0.8800 0.0000
vn -0.4748 -0.8801 -0.0001
vn -0.4749 -0.8800 0.0000
vn -0.4749 -0.8800 0.0006
vn -0.4751 -0.8799 -0.0001
vn -0.4752 -0.8799 -0.0003
vn -0.4751 -0.8800 0.0003
vn -0.4751 -0.8800 0.0000
vn -0.4748 -0.8801 0.0000
vn -0.8776 0.4793 0.0000
vn -0.8777 0.4791 -0.0000
vn -0.8777 0.4792 0.0000
vn -0.8776 0.4794 0.0000
vn -0.8777 0.4793 0.0000
vn -0.8835 0.4684 0.0000
vn -0.8834 0.4686 -0.0000
vn -0.8834 0.4687 0.0000
vn -0.8775 0.4795 0.0000
vn -0.8778 0.4790 0.0000
vn -0.8789 0.4770 0.0000
vn -0.8788 0.4771 -0.0000
vn -0.8790 0.4769 0.0000
vn -0.8788 0.4772 0.0000
vn 0.4750 0.8800 0.0000
vn 0.4752 0.8799 0.0000
vn 0.4749 0.8800 0.0000
vn 0.4753 0.8798 0.0000
vn 0.4751 0.8799 0.0000
vn 0.4748 0.8801 0.0002
vn 0.4751 0.8800 0.0000
vn 0.4752 0.8799 0.0001
vn 0.4754 0.8798 0.0001
vn 0.8800 -0.4751 0.0000
vn 0.8799 -0.4751 -0.0000
vn 0.8801 -0.4748 0.0000
vn 0.8800 -0.4750 0.0000
vn 0.8799 -0.4751 -0.0001
vn 0.8799 -0.4751 -0.0002
vn 0.8798 -0.4754 0.0000
vn 0.8799 -0.4752 0.0002
vn 0.8800 -0.4749 0.0002
vn 0.8799 -0.4752 -0.0003
vn 0.8799 -0.4751 0.0002
vn 0.8799 -0.4751 0.0001
vn 0.8802 -0.4746 0.0000
vn 0.8797 -0.4755 0.0000
s off
f 1/1/1 2/2/1 3/3/1
f 4/4/2 5/5/2 1/1/2
f 2/2/3 1/1/3 5/5/3
f 6/6/1 7/7/1 4/4/1
f 8/8/4 5/5/4 4/4/4
f 9/9/5 10/10/5 11/11/5
f 12/12/6 13/13/6 9/9/6
f 10/10/6 9/9/6 13/13/6
f 16/14/7 13/13/7 12/12/7
f 16/14/6 17/15/6 13/13/6
f 18/16/8 19/17/8 17/15/8
f 19/17/6 20/18/6 17/15/6
f 17/15/9 20/18/9 13/13/9
f 20/18/6 21/19/6 13/13/6
f 22/20/6 23/21/6 21/19/6
f 23/21/10 24/22/10 21/19/10
f 21/19/11 24/22/11 13/13/11
f 24/22/12 25/23/12 13/13/12
f 26/24/8 27/25/8 25/23/8
f 27/25/6 28/26/6 25/23/6
f 28/26/13 29/27/13 25/23/13
f 25/23/6 29/27/6 13/13/6
f 30/28/6 29/27/6 28/26/6
f 31/29/6 32/30/6 30/28/6
f 32/30/6 33/31/6 30/28/6
f 33/31/14 29/27/14 30/28/14
f 34/32/6 29/27/6 33/31/6
f 35/33/6 36/34/6 34/32/6
f 36/34/10 37/35/10 34/32/10
f 37/35/15 29/27/15 34/32/15
f 38/36/6 29/27/6 37/35/6
f 39/37/5 40/38/5 38/36/5
f 40/38/16 29/27/16 38/36/16
f 41/39/17 42/40/17 43/41/17
f 44/42/18 41/39/18 45/43/18
f 44/42/19 46/44/19 41/39/19
f 42/40/18 41/39/18 46/44/18
f 47/45/20 48/46/20 45/43/20
f 48/46/21 44/42/21 45/43/21
f 49/47/22 50/48/22 51/49/22
f 52/50/23 53/51/23 49/47/23
f 50/48/24 49/47/24 53/51/24
f 54/52/23 55/53/23 52/50/23
f 56/54/23 53/51/23 52/50/23
f 57/55/25 58/56/25 59/57/25
f 60/58/18 61/59/18 57/55/18
f 58/56/26 57/55/26 61/59/26
f 62/60/21 63/61/21 60/58/21
f 63/61/20 64/62/20 60/58/20
f 64/62/18 61/59/18 60/58/18
f 65/63/27 66/64/27 67/65/27
f 68/66/28 70/67/28 65/63/28
f 66/64/29 65/63/29 70/67/29
f 71/68/30 72/69/30 69/70/30
f 72/69/28 68/66/28 69/70/28
f 73/71/31 74/72/31 75/73/31
f 76/74/31 77/75/31 73/71/31
f 74/72/32 73/71/32 77/75/32
f 78/76/33 79/77/33 76/74/33
f 79/77/34 80/78/34 76/74/34
f 76/74/32 80/78/32 77/75/32
f 80/78/35 81/79/35 77/75/35
f 82/80/35 83/81/35 81/79/35
f 83/81/34 84/82/34 81/79/34
f 81/79/36 84/82/36 85/83/36
f 77/75/37 81/79/37 85/83/37
f 84/82/37 86/84/37 85/83/37
f 87/85/35 88/86/35 86/84/35
f 88/86/34 89/87/34 86/84/34
f 86/84/38 89/87/38 85/83/38
f 89/87/31 90/88/31 85/83/31
f 91/89/33 92/90/33 90/88/33
f 92/90/34 93/91/34 90/88/34
f 90/88/39 93/91/39 85/83/39
f 93/91/37 94/92/37 85/83/37
f 95/93/33 96/94/33 94/92/33
f 96/94/34 97/95/34 94/92/34
f 94/92/35 97/95/35 85/83/35
f 98/96/37 99/97/37 97/95/37
f 97/95/37 99/97/37 85/83/37
f 100/98/35 101/99/35 98/96/35
f 101/99/34 102/100/34 98/96/34
f 102/100/38 99/97/38 98/96/38
f 103/101/37 99/97/37 102/100/37
f 104/102/31 105/103/31 103/101/31
f 105/103/31 99/97/31 103/101/31
f 106/104/40 107/105/40 108/106/40
f 109/107/41 110/108/41 106/104/41
f 107/105/42 106/104/42 110/108/42
f 111/109/43 112/110/43 109/107/43
f 112/110/43 113/111/43 109/107/43
f 113/111/44 110/108/44 109/107/44
f 113/111/43 114/112/43 110/108/43
f 115/113/43 116/114/43 114/112/43
f 116/114/43 117/115/43 114/112/43
f 114/112/45 117/115/45 110/108/45
f 117/115/43 118/116/43 110/108/43
f 119/117/46 120/118/46 118/116/46
f 120/118/40 121/119/40 118/116/40
f 118/116/47 121/119/47 110/108/47
f 121/119/48 122/120/48 110/108/48
f 123/121/43 124/122/43 122/120/43
f 124/122/43 125/123/43 122/120/43
f 125/123/49 126/124/49 122/120/49
f 122/120/43 126/124/43 110/108/43
f 127/125/40 126/124/40 125/123/40
f 128/126/43 129/127/43 127/125/43
f 129/127/43 130/128/43 127/125/43
f 130/128/50 126/124/50 127/125/50
f 131/129/43 126/124/43 130/128/43
f 132/130/43 133/131/43 131/129/43
f 133/131/43 134/132/43 131/129/43
f 134/132/51 126/124/51 131/129/51
f 135/133/43 126/124/43 134/132/43
f 136/134/52 137/135/52 135/133/52
f 137/135/53 126/124/53 135/133/53
s 1
f 7/7/4 8/8/4 4/4/4
f 14/136/10 15/137/10 12/12/6
f 15/137/10 16/14/6 12/12/6
f 55/53/23 56/54/23 52/50/23
f 68/66/28 65/63/28 69/70/28
