# Blender v3.0.1 OBJ File: 'rockerfeller_plaza.blend'
# www.blender.org
o geometryt000010000010000110010110000110000110100100000010st73
v 671.372559 -305.158386 1002.391235
v 671.372559 -305.158386 930.450073
v 675.092102 -307.186279 930.450073
v 675.092102 -307.186279 1002.391235
v 675.311157 -307.305664 930.450073
v 676.550964 -307.981689 930.450073
v 676.550964 -307.981689 1002.391235
v 675.311157 -307.305664 1002.391235
v 676.770081 -308.101074 930.450073
v 680.489563 -310.128967 930.450073
v 680.489563 -310.128967 1002.391235
v 676.770081 -308.101074 1002.391235
v 680.708679 -310.248383 930.450073
v 681.948486 -310.924377 930.450073
v 681.948486 -310.924377 1002.391235
v 680.708679 -310.248383 1002.391235
v 682.167603 -311.043793 1002.391235
v 682.167603 -311.043793 930.450073
v 687.126892 -313.747681 930.450073
v 687.126892 -313.747681 1002.391235
v 687.346069 -313.867065 930.450073
v 688.585876 -314.543091 930.450073
v 688.585876 -314.543091 1002.391235
v 687.346069 -313.867065 1002.391235
v 688.804993 -314.662476 1002.391235
v 688.804993 -314.662476 930.450073
v 692.524475 -316.690369 930.450073
v 692.524475 -316.690369 1002.391235
v 692.743591 -316.809784 930.450073
v 693.983398 -317.485779 930.450073
v 693.983398 -317.485779 1002.391235
v 692.743591 -316.809784 1002.391235
v 694.202515 -317.605164 1002.391235
v 694.202515 -317.605164 930.450073
v 697.921997 -319.633087 930.450073
v 697.921997 -319.633087 1002.391235
v 674.814453 -298.128693 930.450073
v 671.433105 -304.326965 930.450073
v 671.433105 -304.326965 1002.391235
v 674.814453 -298.128693 1002.391235
v 679.204102 -299.648590 1002.391235
v 679.204102 -299.648590 930.450073
v 675.485168 -297.619690 930.450073
v 675.485168 -297.619690 1002.391235
v 680.662781 -300.444366 930.450073
v 679.423218 -299.768066 930.450073
v 679.423218 -299.768066 1002.391235
v 680.662781 -300.444366 1002.391235
v 684.600769 -302.592865 1002.391235
v 684.600769 -302.592865 930.450073
v 680.881897 -300.563873 930.450073
v 680.881897 -300.563873 1002.391235
v 686.059448 -303.388672 930.450073
v 684.819885 -302.712372 930.450073
v 684.819885 -302.712372 1002.391235
v 686.059448 -303.388672 1002.391235
v 691.237183 -306.213379 1002.391235
v 691.237183 -306.213379 930.450073
v 686.278564 -303.508179 930.450073
v 686.278564 -303.508179 1002.391235
v 692.695862 -307.009186 930.450073
v 691.456177 -306.332886 930.450073
v 691.456177 -306.332886 1002.391235
v 692.695862 -307.009186 1002.391235
v 696.633789 -309.157684 930.450073
v 692.914917 -307.128784 930.450073
v 692.914917 -307.128784 1002.391235
v 696.633789 -309.157684 1002.391235
v 698.092468 -309.953491 930.450073
v 696.852905 -309.277191 930.450073
v 696.852905 -309.277191 1002.391235
v 698.092468 -309.953491 1002.391235
v 699.325378 -310.626068 1002.391235
v 702.030518 -312.101868 930.450073
v 698.311584 -310.072968 930.450073
v 702.030518 -312.101868 1002.391235
v 698.311584 -310.072968 1002.391235
v 698.588379 -319.131989 1002.391235
v 698.588379 -319.131989 930.450073
v 701.969666 -312.933685 930.450073
v 701.969666 -312.933685 1002.391235
vt 0.000000 5.250000
vt 0.000000 0.000000
vt 1.000000 0.000000
vt 1.000000 5.250000
vt 0.000000 0.000000
vt 0.333330 0.000000
vt 0.333330 5.250000
vt 0.000000 5.250000
vt 0.000000 0.000000
vt 0.333330 0.000000
vt 0.333330 5.250000
vt 0.000000 5.250000
vt 0.000000 0.000000
vt 0.333330 0.000000
vt 0.333330 5.250000
vt 0.000000 5.250000
vt 0.000000 0.000000
vt 0.333330 0.000000
vt 0.333330 5.250000
vt 0.000000 5.250000
vt 0.000000 5.250000
vt 0.000000 0.000000
vt 1.000000 0.000000
vt 1.000000 5.250000
vt 0.000000 0.000000
vt 1.666670 0.000000
vt 1.666670 5.250000
vt 0.000000 5.250000
vt 0.000000 5.250000
vt 0.000000 0.000000
vt 1.000000 0.000000
vt 1.000000 5.250000
vt 0.000000 0.000000
vt 0.333330 0.000000
vt 0.333330 5.250000
vt 0.000000 5.250000
vt 0.000000 5.250000
vt 0.000000 0.000000
vt 1.000000 0.000000
vt 1.000000 5.250000
vt 0.000000 0.000000
vt 0.333330 0.000000
vt 0.333330 5.250000
vt 0.000000 5.250000
vt 0.000000 5.250000
vt 0.000000 0.000000
vt 1.333330 0.000000
vt 1.333330 5.250000
vt 0.000000 0.000000
vt 0.333330 0.000000
vt 0.333330 5.250000
vt 0.000000 5.250000
vt 0.000000 0.000000
vt 1.000000 0.000000
vt 1.000000 5.250000
vt 0.000000 5.250000
vt 0.000000 0.000000
vt 0.333330 0.000000
vt 0.333330 5.250000
vt 0.000000 5.250000
vt 0.727400 5.250000
vt 0.000000 0.000000
vt 1.000000 0.000000
vt 0.000000 5.250000
vt 1.000000 5.250000
vt 0.000000 5.250000
vt 0.000000 0.000000
vt 1.666670 0.000000
vt 1.666670 5.250000
vt 0.000000 0.000000
vt 1.000000 0.000000
vt 1.000000 5.250000
vt 0.000000 5.250000
vt 0.000000 5.250000
vt 0.000000 0.000000
vt 1.333330 0.000000
vt 1.333330 5.250000
vt 0.000000 5.250000
vt 0.000000 0.000000
vt 1.000000 0.000000
vt 1.000000 5.250000
vn -0.4787 -0.8780 0.0000
vn -0.8779 0.4789 0.0000
vn 0.4789 0.8779 0.0000
vn 0.4790 0.8778 0.0000
vn 0.4789 0.8778 0.0000
vn 0.8779 -0.4789 0.0000
s off
f 1/1/1 2/2/1 3/3/1
f 1/1/1 3/3/1 4/4/1
f 5/5/1 6/6/1 7/7/1
f 8/8/1 5/5/1 7/7/1
f 13/9/1 14/10/1 15/11/1
f 16/12/1 13/9/1 15/11/1
f 21/13/1 22/14/1 23/15/1
f 24/16/1 21/13/1 23/15/1
f 29/17/1 30/18/1 31/19/1
f 32/20/1 29/17/1 31/19/1
f 33/21/1 34/22/1 35/23/1
f 33/21/1 35/23/1 36/24/1
f 37/25/2 38/26/2 39/27/2
f 40/28/2 37/25/2 39/27/2
f 41/29/3 42/30/3 43/31/3
f 41/29/3 43/31/3 44/32/3
f 45/33/4 46/34/4 47/35/4
f 48/36/3 45/33/3 47/35/3
f 49/37/5 50/38/5 51/39/5
f 49/37/5 51/39/5 52/40/5
f 53/41/3 54/42/3 55/43/3
f 56/44/4 53/41/4 55/43/4
f 57/45/3 58/46/3 59/47/3
f 57/45/3 59/47/3 60/48/3
f 61/49/3 62/50/3 63/51/3
f 64/52/3 61/49/3 63/51/3
f 65/53/3 66/54/3 67/55/3
f 68/56/3 65/53/3 67/55/3
f 69/57/4 70/58/4 71/59/4
f 72/60/3 69/57/3 71/59/3
f 73/61/3 74/62/3 75/63/3
f 76/64/5 74/62/5 73/61/5
f 73/61/4 75/63/4 77/65/4
f 78/66/6 79/67/6 80/68/6
f 78/66/6 80/68/6 81/69/6
s 1
f 9/70/1 10/71/1 11/72/1
f 12/73/1 9/70/1 11/72/1
f 17/74/1 18/75/1 19/76/1
f 17/74/1 19/76/1 20/77/1
f 25/78/1 26/79/1 27/80/1
f 25/78/1 27/80/1 28/81/1
