# Blender v3.0.1 OBJ File: 'rockerfeller_plaza.blend'
# www.blender.org
o geometryt000010000010000110010110000110000110100000000110st111
v 735.118408 -114.760887 121.740967
v 735.118408 -114.760887 104.970901
v 731.811707 -121.063683 104.970901
v 731.811707 -121.063683 121.740967
v 732.459229 -121.812187 121.740967
v 732.459229 -121.812187 104.970901
v 737.471680 -124.513481 104.970901
v 737.471680 -124.513481 121.740967
v 738.296143 -108.934387 104.970901
v 735.565186 -113.930786 104.970901
v 735.565186 -113.930786 121.740967
v 738.296143 -108.934387 121.740967
v 738.446289 -124.646683 121.740967
v 738.446289 -124.646683 104.970901
v 739.795898 -122.139984 104.970901
v 739.795898 -122.139984 121.740967
v 740.172424 -121.440681 104.970901
v 742.196899 -117.680588 104.970901
v 742.196899 -117.680588 121.740967
v 740.172424 -121.440681 121.740967
v 742.573425 -116.981285 121.740967
v 742.573425 -116.981285 104.970901
v 744.597900 -113.221184 104.970901
v 744.597900 -113.221184 121.740967
v 744.974304 -112.521881 121.740967
v 744.974304 -112.521881 104.970901
v 746.323975 -110.015083 104.970901
v 746.323975 -110.015083 121.740967
v 739.557373 -106.653587 104.970901
v 738.866699 -107.898285 104.970901
v 738.866699 -107.898285 121.740967
v 739.557373 -106.653587 121.740967
v 745.672974 -109.272987 121.740967
v 745.672974 -109.272987 104.970901
v 740.659119 -106.574486 104.970901
v 740.659119 -106.574486 121.740967
vt 0.000000 5.000000
vt 0.000000 0.000000
vt 1.666670 0.000000
vt 1.666670 5.000000
vt 0.000000 5.000000
vt 0.000000 0.000000
vt 1.333330 0.000000
vt 1.333330 5.000000
vt 0.000000 0.000000
vt 1.333330 0.000000
vt 1.333330 5.000000
vt 0.000000 5.000000
vt 0.000000 5.000000
vt 0.000000 0.000000
vt 0.666670 0.000000
vt 0.666670 5.000000
vt 0.000000 0.000000
vt 1.000000 0.000000
vt 1.000000 5.000000
vt 0.000000 5.000000
vt 0.000000 5.000000
vt 0.000000 0.000000
vt 1.000000 0.000000
vt 1.000000 5.000000
vt 0.000000 5.000000
vt 0.000000 0.000000
vt 0.666670 0.000000
vt 0.666670 5.000000
vt 0.000000 0.000000
vt 0.333330 0.000000
vt 0.333330 5.000000
vt 0.000000 5.000000
vt 0.000000 5.000000
vt 0.000000 0.000000
vt 1.333330 0.000000
vt 1.333330 5.000000
vn -0.8855 0.4646 0.0000
vn -0.4744 -0.8803 0.0000
vn -0.8775 0.4796 0.0000
vn 0.8805 -0.4741 0.0000
vn 0.8805 -0.4740 0.0000
vn -0.8744 0.4852 0.0000
vn 0.4739 0.8806 0.0000
s off
f 1/1/1 2/2/1 3/3/1
f 1/1/1 3/3/1 4/4/1
f 5/5/2 6/6/2 7/7/2
f 5/5/2 7/7/2 8/8/2
f 9/9/3 10/10/3 11/11/3
f 12/12/3 9/9/3 11/11/3
f 13/13/4 14/14/4 15/15/4
f 13/13/4 15/15/4 16/16/4
f 17/17/4 18/18/4 19/19/4
f 20/20/4 17/17/4 19/19/4
f 21/21/4 22/22/4 23/23/4
f 21/21/5 23/23/5 24/24/5
f 25/25/4 26/26/4 27/27/4
f 25/25/5 27/27/5 28/28/5
f 29/29/6 30/30/6 31/31/6
f 32/32/6 29/29/6 31/31/6
f 33/33/7 34/34/7 35/35/7
f 33/33/7 35/35/7 36/36/7
