# Blender v3.0.1 OBJ File: 'rockerfeller_plaza.blend'
# www.blender.org
o geometryt000010000010000110010110000110000110100000010100st66
v 786.197876 -104.936386 167.037552
v 786.197876 -104.936386 148.627686
v 784.834717 -107.471184 148.627686
v 784.834717 -107.471184 167.037552
v 787.032349 -103.384583 148.627686
v 786.350830 -104.651985 148.627686
v 786.350830 -104.651985 167.037552
v 787.032349 -103.384583 167.037552
v 787.866882 -101.832787 167.037552
v 787.866882 -101.832787 148.627686
v 787.185303 -103.100182 148.627686
v 787.185303 -103.100182 167.037552
v 790.064453 -97.746086 148.627686
v 788.019836 -101.548286 148.627686
v 788.019836 -101.548286 167.037552
v 790.064453 -97.746086 167.037552
v 790.898926 -96.194252 167.037552
v 790.898926 -96.194252 148.627686
v 790.217407 -97.461655 148.627686
v 790.217407 -97.461655 167.037552
v 791.733459 -94.642418 148.627686
v 791.051941 -95.909813 148.627686
v 791.051941 -95.909813 167.037552
v 791.733459 -94.642418 167.037552
v 793.249512 -91.823174 167.037552
v 793.249512 -91.823174 148.627686
v 791.886414 -94.357986 148.627686
v 791.886414 -94.357986 167.037552
v 785.386597 -108.160187 148.627686
v 790.454712 -110.889084 148.627686
v 790.454712 -110.889084 167.037552
v 785.386597 -108.160187 167.037552
v 791.333496 -110.970383 148.627686
v 792.697571 -108.436188 148.627686
v 792.697571 -108.436188 167.037552
v 791.333496 -110.970383 167.037552
v 792.850952 -108.151184 167.037552
v 792.850952 -108.151184 148.627686
v 793.533020 -106.884087 148.627686
v 793.533020 -106.884087 167.037552
v 793.686401 -106.599083 167.037552
v 793.686401 -106.599083 148.627686
v 794.368469 -105.331985 148.627686
v 794.368469 -105.331985 167.037552
v 794.521851 -105.046982 167.037552
v 794.521851 -105.046982 148.627686
v 796.568054 -101.245583 148.627686
v 796.568054 -101.245583 167.037552
v 796.721436 -100.960587 167.037552
v 796.721436 -100.960587 148.627686
v 797.403503 -99.693474 148.627686
v 797.403503 -99.693474 167.037552
v 797.556885 -99.408508 148.627686
v 798.238953 -98.141373 148.627686
v 798.238953 -98.141373 167.037552
v 797.556885 -99.408508 167.037552
v 798.392334 -97.856392 167.037552
v 798.392334 -97.856392 148.627686
v 799.756470 -95.322136 148.627686
v 799.756470 -95.322136 167.037552
v 799.201294 -94.631882 167.037552
v 799.201294 -94.631882 148.627686
v 794.131592 -91.905777 148.627686
v 794.131592 -91.905777 167.037552
vt 0.000000 3.000000
vt 0.000000 0.000000
vt 0.500000 0.000000
vt 0.500000 3.000000
vt 0.000000 0.000000
vt 0.250000 0.000000
vt 0.250000 3.000000
vt 0.000000 3.000000
vt 0.000000 3.000000
vt 0.000000 0.000000
vt 0.250000 0.000000
vt 0.250000 3.000000
vt 0.000000 0.000000
vt 0.750000 0.000000
vt 0.750000 3.000000
vt 0.000000 3.000000
vt 0.000000 3.000000
vt 0.000000 0.000000
vt 0.250000 0.000000
vt 0.250000 3.000000
vt 0.000000 0.000000
vt 0.250000 0.000000
vt 0.250000 3.000000
vt 0.000000 3.000000
vt 0.000000 3.000000
vt 0.000000 0.000000
vt 0.500000 0.000000
vt 0.500000 3.000000
vt 0.000000 0.000000
vt 1.000000 0.000000
vt 1.000000 3.000000
vt 0.000000 3.000000
vt 0.000000 0.000000
vt 0.500000 0.000000
vt 0.500000 3.000000
vt 0.000000 3.000000
vt 0.000000 3.000000
vt 0.000000 0.000000
vt 0.250000 0.000000
vt 0.250000 3.000000
vt 0.000000 3.000000
vt 0.000000 0.000000
vt 0.250000 0.000000
vt 0.250000 3.000000
vt 0.000000 3.000000
vt 0.000000 0.000000
vt 0.750000 0.000000
vt 0.750000 3.000000
vt 0.000000 3.000000
vt 0.000000 0.000000
vt 0.250000 0.000000
vt 0.250000 3.000000
vt 0.000000 0.000000
vt 0.250000 0.000000
vt 0.250000 3.000000
vt 0.000000 3.000000
vt 0.000000 3.000000
vt 0.000000 0.000000
vt 0.500000 0.000000
vt 0.500000 3.000000
vt 0.000000 3.000000
vt 0.000000 0.000000
vt 1.000000 0.000000
vt 1.000000 3.000000
vn -0.8807 0.4736 0.0000
vn -0.8807 0.4737 0.0000
vn -0.8808 0.4736 0.0000
vn -0.4741 -0.8805 0.0000
vn 0.8805 -0.4740 0.0000
vn 0.8806 -0.4740 0.0000
vn 0.8806 -0.4739 0.0000
vn 0.4736 0.8807 0.0000
s off
f 1/1/1 2/2/1 3/3/1
f 1/1/1 3/3/1 4/4/1
f 5/5/1 6/6/1 7/7/1
f 8/8/1 5/5/1 7/7/1
f 9/9/1 10/10/1 11/11/1
f 9/9/2 11/11/2 12/12/2
f 13/13/1 14/14/1 15/15/1
f 16/16/1 13/13/1 15/15/1
f 17/17/1 18/18/1 19/19/1
f 17/17/1 19/19/1 20/20/1
f 21/21/1 22/22/1 23/23/1
f 24/24/1 21/21/1 23/23/1
f 25/25/3 26/26/3 27/27/3
f 25/25/1 27/27/1 28/28/1
f 29/29/4 30/30/4 31/31/4
f 32/32/4 29/29/4 31/31/4
f 33/33/5 34/34/5 35/35/5
f 36/36/6 33/33/6 35/35/6
f 37/37/5 38/38/5 39/39/5
f 37/37/5 39/39/5 40/40/5
f 41/41/5 42/42/5 43/43/5
f 41/41/5 43/43/5 44/44/5
f 45/45/5 46/46/5 47/47/5
f 45/45/5 47/47/5 48/48/5
f 49/49/5 50/50/5 51/51/5
f 49/49/7 51/51/7 52/52/7
f 53/53/5 54/54/5 55/55/5
f 56/56/5 53/53/5 55/55/5
f 57/57/5 58/58/5 59/59/5
f 57/57/5 59/59/5 60/60/5
f 61/61/8 62/62/8 63/63/8
f 61/61/8 63/63/8 64/64/8
