# Blender v3.0.1 OBJ File: 'rockerfeller_plaza.blend'
# www.blender.org
o geometryt000010000010000110010110000110000110100100010010st119_
v 1256.380371 -317.501770 1012.072571
v 1256.902588 -317.784180 1054.433716
v 1256.380371 -317.501770 1054.433716
v 1250.372314 -314.252380 1012.072571
v 1256.902588 -317.784180 1010.033691
v 1250.372314 -314.252380 1054.433716
v 1249.850220 -313.969971 1054.433716
v 1249.850220 -313.969971 1010.033691
v 1250.017578 -313.658569 1012.072571
v 1249.850220 -313.969971 1054.433716
v 1250.017578 -313.658569 1054.433716
v 1253.896851 -306.438171 1012.072571
v 1249.850220 -313.969971 1010.033691
v 1253.896851 -306.438171 1054.433716
v 1254.064087 -306.126770 1054.433716
v 1254.064087 -306.126770 1010.033691
v 1254.536865 -305.258972 1012.072571
v 1254.064087 -306.126770 1054.433716
v 1254.536865 -305.258972 1054.433716
v 1261.071289 -293.262268 1012.072571
v 1254.064087 -306.126770 1010.033691
v 1261.071289 -293.262268 1054.433716
v 1261.543945 -292.394379 1054.433716
v 1261.543945 -292.394379 1010.033691
v 1262.493652 -307.447174 1012.072571
v 1262.885498 -306.722778 1054.433716
v 1262.493652 -307.447174 1054.433716
v 1257.294312 -317.059784 1012.072571
v 1262.885498 -306.722778 1010.033691
v 1257.294312 -317.059784 1054.433716
v 1256.902588 -317.784180 1054.433716
v 1256.902588 -317.784180 1010.033691
v 1261.957520 -291.620667 1012.072571
v 1261.543945 -292.394379 1054.433716
v 1261.957520 -291.620667 1054.433716
v 1264.303223 -287.232788 1010.033691
v 1263.889648 -288.006470 1012.072571
v 1261.543945 -292.394379 1010.033691
v 1263.889648 -288.006470 1054.433716
v 1264.303223 -287.232788 1054.433716
v 1270.504150 -310.847290 1012.072571
v 1270.914795 -311.069580 1054.433716
v 1270.504150 -310.847290 1054.433716
v 1262.885498 -306.722778 1010.033691
v 1263.296143 -306.945068 1012.072571
v 1270.914795 -311.069580 1010.033691
v 1263.296143 -306.945068 1054.433716
v 1262.885498 -306.722778 1054.433716
v 1264.606689 -287.396881 1012.072571
v 1264.303223 -287.232788 1054.433716
v 1264.606689 -287.396881 1054.433716
v 1267.010010 -288.696472 1012.072571
v 1264.303223 -287.232788 1010.033691
v 1267.010010 -288.696472 1054.433716
v 1267.144775 -288.769379 1054.433716
v 1267.144775 -288.769379 1012.072571
v 1270.749878 -290.718689 1012.072571
v 1270.749878 -290.718689 1054.433716
v 1270.884521 -290.791565 1054.433716
v 1270.884521 -290.791565 1012.072571
v 1273.287964 -292.091064 1012.072571
v 1273.287964 -292.091064 1054.433716
v 1273.422607 -292.163971 1054.433716
v 1273.422607 -292.163971 1012.072571
v 1274.624268 -292.813782 1012.072571
v 1282.535522 -297.091583 1010.033691
v 1274.624268 -292.813782 1054.433716
v 1274.759155 -292.886566 1054.433716
v 1274.759155 -292.886566 1012.072571
v 1278.364014 -294.835968 1012.072571
v 1278.364014 -294.835968 1054.433716
v 1278.498779 -294.908783 1054.433716
v 1278.498779 -294.908783 1012.072571
v 1280.902100 -296.208374 1012.072571
v 1280.902100 -296.208374 1054.433716
v 1281.036865 -296.281281 1054.433716
v 1281.036865 -296.281281 1012.072571
v 1282.238647 -296.930969 1012.072571
v 1282.238647 -296.930969 1054.433716
v 1282.373291 -297.003876 1054.433716
v 1282.373291 -297.003876 1012.072571
v 1283.575073 -297.653687 1012.072571
v 1283.575073 -297.653687 1054.433716
v 1283.709839 -297.726593 1054.433716
v 1283.709839 -297.726593 1012.072571
v 1284.911377 -298.376282 1012.072571
v 1284.911377 -298.376282 1054.433716
v 1285.046265 -298.449188 1054.433716
v 1285.046265 -298.449188 1012.072571
v 1287.449463 -299.748779 1012.072571
v 1287.449463 -299.748779 1054.433716
v 1287.584351 -299.821564 1054.433716
v 1287.584351 -299.821564 1012.072571
v 1291.189209 -301.770966 1012.072571
v 1291.189209 -301.770966 1054.433716
v 1291.323975 -301.843781 1054.433716
v 1291.323975 -301.843781 1012.072571
v 1292.525757 -302.493591 1012.072571
v 1292.525757 -302.493591 1054.433716
v 1292.660400 -302.566467 1054.433716
v 1292.660400 -302.566467 1012.072571
v 1301.645142 -307.424774 1010.033691
v 1295.063843 -303.866089 1012.072571
v 1295.063843 -303.866089 1054.433716
v 1295.198486 -303.938873 1054.433716
v 1295.198486 -303.938873 1012.072571
v 1298.803467 -305.888275 1012.072571
v 1298.803467 -305.888275 1054.433716
v 1298.938354 -305.961090 1054.433716
v 1298.938354 -305.961090 1012.072571
v 1301.341675 -307.260681 1012.072571
v 1301.341675 -307.260681 1054.433716
v 1301.645142 -307.424774 1054.433716
v 1265.330811 -321.408081 1012.072571
v 1264.940308 -322.130890 1054.433716
v 1265.330811 -321.408081 1054.433716
v 1270.524414 -311.792389 1012.072571
v 1264.940308 -322.130890 1010.033691
v 1270.524414 -311.792389 1054.433716
v 1270.914795 -311.069580 1054.433716
v 1270.914795 -311.069580 1010.033691
v 1286.882446 -333.992188 1012.072571
v 1287.193115 -334.160187 1054.433716
v 1286.882446 -333.992188 1054.433716
v 1264.940308 -322.130890 1010.033691
v 1265.251099 -322.298889 1012.072571
v 1287.193115 -334.160187 1010.033691
v 1265.251099 -322.298889 1054.433716
v 1264.940308 -322.130890 1054.433716
v 1301.482056 -307.726379 1012.072571
v 1301.646118 -307.422974 1054.433716
v 1301.482056 -307.726379 1054.433716
v 1300.182861 -310.129883 1012.072571
v 1301.646118 -307.422974 1010.033691
v 1300.182861 -310.129883 1054.433716
v 1300.056885 -310.362793 1054.433716
v 1300.056885 -310.362793 1012.072571
v 1298.108154 -313.967987 1012.072571
v 1298.108154 -313.967987 1054.433716
v 1297.982300 -314.200775 1054.433716
v 1297.982300 -314.200775 1012.072571
v 1296.683105 -316.604279 1012.072571
v 1296.683105 -316.604279 1054.433716
v 1296.557251 -316.837067 1054.433716
v 1296.557251 -316.837067 1012.072571
v 1295.907593 -318.038879 1012.072571
v 1295.907593 -318.038879 1054.433716
v 1295.781738 -318.271667 1054.433716
v 1295.781738 -318.271667 1012.072571
v 1294.482544 -320.675171 1012.072571
v 1294.482544 -320.675171 1054.433716
v 1294.356689 -320.907990 1054.433716
v 1294.356689 -320.907990 1012.072571
v 1293.057495 -323.311493 1012.072571
v 1287.193115 -334.160187 1010.033691
v 1293.057495 -323.311493 1054.433716
v 1292.931641 -323.544281 1054.433716
v 1292.931641 -323.544281 1012.072571
v 1292.281982 -324.745972 1012.072571
v 1292.281982 -324.745972 1054.433716
v 1292.156250 -324.978790 1054.433716
v 1292.156250 -324.978790 1012.072571
v 1290.856934 -327.382263 1012.072571
v 1290.856934 -327.382263 1054.433716
v 1290.731201 -327.615082 1054.433716
v 1290.731201 -327.615082 1012.072571
v 1288.782349 -331.220367 1012.072571
v 1288.782349 -331.220367 1054.433716
v 1288.656494 -331.453186 1054.433716
v 1288.656494 -331.453186 1012.072571
v 1287.357178 -333.856689 1012.072571
v 1287.357178 -333.856689 1054.433716
v 1287.193115 -334.160187 1054.433716
vt 39.914150 10.961680
vt 43.105572 238.709702
vt 39.914150 238.709702
vt 3.191420 10.961680
vt 43.105572 0.000000
vt 3.191420 238.709702
vt 0.000000 238.709702
vt 0.000000 0.000000
vt 45.967800 10.961680
vt 47.868320 238.709702
vt 45.967800 238.709702
vt 1.900520 10.961680
vt 47.868320 0.000000
vt 1.900520 238.709702
vt 0.000000 238.709702
vt 0.000000 0.000000
vt 78.758430 10.961680
vt 84.071411 238.709702
vt 78.758430 238.709702
vt 84.071411 0.000000
vt 5.312970 238.709702
vt 0.000000 238.709702
vt 5.312970 10.961680
vt 0.000000 0.000000
vt 63.183960 10.961680
vt 67.611557 238.709702
vt 63.183960 238.709702
vt 4.427590 10.961680
vt 67.611557 0.000000
vt 4.427590 238.709702
vt 0.000000 238.709702
vt 0.000000 0.000000
vt 26.750380 10.961680
vt 31.467119 238.709702
vt 26.750380 238.709702
vt 0.000000 0.000000
vt 4.716740 10.961680
vt 31.467119 0.000000
vt 4.716740 238.709702
vt 0.000000 238.709702
vt 46.577969 10.961680
vt 49.088661 238.709702
vt 46.577969 238.709702
vt 2.510690 238.709702
vt 0.000000 238.709702
vt 2.510690 10.961680
vt 0.000000 0.000000
vt 226.378906 10.961680
vt 228.233704 238.709702
vt 226.378906 238.709702
vt 211.689804 10.961680
vt 228.233704 0.000000
vt 211.689804 238.709702
vt 210.866104 238.709702
vt 210.866104 10.961680
vt 188.832397 10.961680
vt 188.832397 238.709702
vt 188.008698 238.709702
vt 188.008698 10.961680
vt 173.319595 10.961680
vt 173.319595 238.709702
vt 172.495895 238.709702
vt 172.495895 10.961680
vt 165.151306 10.961680
vt 116.797997 0.000000
vt 164.327606 10.961680
vt 142.294006 10.961680
vt 142.294006 238.709702
vt 141.470200 238.709702
vt 141.470200 10.961680
vt 126.781197 10.961680
vt 126.781197 238.709702
vt 125.957397 238.709702
vt 125.957397 10.961680
vt 118.612900 10.961680
vt 118.612900 238.709702
vt 117.789101 238.709702
vt 117.789101 10.961680
vt 110.444603 10.961680
vt 110.444603 238.709702
vt 109.620903 238.709702
vt 109.620903 10.961680
vt 102.276299 10.961680
vt 102.276299 238.709702
vt 101.452599 238.709702
vt 101.452599 10.961680
vt 86.763496 10.961680
vt 85.939781 10.961680
vt 63.906132 10.961680
vt 63.906132 238.709702
vt 63.082401 238.709702
vt 63.082401 10.961680
vt 55.737850 10.961680
vt 55.737850 238.709702
vt 54.914120 238.709702
vt 54.914120 10.961680
vt 0.000000 0.000000
vt 40.225029 10.961680
vt 40.225029 238.709702
vt 39.401299 238.709702
vt 39.401299 10.961680
vt 17.367661 10.961680
vt 17.367661 238.709702
vt 16.543930 238.709702
vt 16.543930 10.961680
vt 1.854840 10.961680
vt 1.854840 238.709702
vt 0.000000 238.709702
vt 63.172951 10.961680
vt 67.589531 238.709702
vt 63.172951 238.709702
vt 4.416580 10.961680
vt 67.589531 0.000000
vt 4.416580 238.709702
vt 0.000000 238.709702
vt 0.000000 0.000000
vt 134.101105 10.961680
vt 136.000397 238.709702
vt 134.101105 238.709702
vt 0.000000 0.000000
vt 1.899280 10.961680
vt 136.000397 0.000000
vt 1.899280 238.709702
vt 0.000000 238.709702
vt 161.551193 10.961680
vt 163.406006 238.709702
vt 161.551193 238.709702
vt 146.862106 10.961680
vt 163.406006 0.000000
vt 146.862106 238.709702
vt 145.439301 238.709702
vt 145.439301 10.961680
vt 123.405602 10.961680
vt 123.405602 238.709702
vt 121.982803 238.709702
vt 121.982803 10.961680
vt 107.293701 10.961680
vt 107.293701 238.709702
vt 105.870903 238.709702
vt 105.870903 10.961680
vt 98.526352 10.961680
vt 98.526352 238.709702
vt 97.103531 238.709702
vt 97.103531 10.961680
vt 82.414429 10.961680
vt 82.414429 238.709702
vt 80.991608 238.709702
vt 80.991608 10.961680
vt 66.302521 10.961680
vt 0.000000 0.000000
vt 66.302521 238.709702
vt 64.879677 238.709702
vt 64.879677 10.961680
vt 57.535141 10.961680
vt 57.535141 238.709702
vt 56.112320 238.709702
vt 56.112320 10.961680
vt 41.423222 10.961680
vt 41.423222 238.709702
vt 40.000401 238.709702
vt 40.000401 10.961680
vt 17.966761 10.961680
vt 17.966761 238.709702
vt 16.543930 238.709702
vt 16.543930 10.961680
vt 1.854840 10.961680
vt 1.854840 238.709702
vt 0.000000 238.709702
vt 49.088661 0.000000
vt 165.151306 238.709702
vt 164.327606 238.709702
vt 86.763496 238.709702
vt 85.939781 238.709702
vn -0.4756 -0.8796 0.0000
vn -0.4757 -0.8796 -0.0000
vn -0.4758 -0.8796 0.0000
vn -0.4759 -0.8795 0.0000
vn -0.4756 -0.8797 0.0000
vn -0.8807 0.4736 0.0000
vn -0.8809 0.4733 0.0000
vn -0.8812 0.4728 0.0000
vn -0.8782 0.4783 0.0000
vn -0.8781 0.4784 0.0000
vn 0.8795 -0.4758 0.0000
vn 0.8796 -0.4757 0.0000
vn -0.8820 0.4713 0.0000
vn -0.8819 0.4714 0.0000
vn -0.8819 0.4715 -0.0000
vn -0.8819 0.4713 0.0000
vn -0.4761 -0.8794 0.0000
vn -0.4760 -0.8795 0.0000
vn -0.4764 -0.8792 0.0000
vn 0.4755 0.8797 0.0000
vn 0.4757 0.8796 0.0000
vn 0.4762 0.8793 0.0000
vn 0.4748 0.8801 -0.0008
vn 0.4756 0.8796 0.0001
vn 0.4760 0.8794 0.0000
vn 0.4755 0.8797 0.0002
vn 0.4767 0.8791 0.0000
vn 0.4753 0.8798 0.0000
vn 0.4757 0.8796 0.0002
vn 0.4756 0.8796 0.0000
vn 0.4757 0.8796 0.0001
vn 0.4764 0.8792 0.0002
vn 0.4763 0.8793 0.0000
vn 0.4756 0.8797 0.0000
vn 0.4767 0.8791 -0.0002
vn 0.4752 0.8799 0.0000
vn 0.4751 0.8799 0.0004
vn 0.4757 0.8796 -0.0001
vn 0.4765 0.8792 0.0000
vn 0.4759 0.8795 0.0000
vn 0.4750 0.8800 0.0000
vn 0.4754 0.8798 0.0000
vn -0.8798 0.4754 0.0000
vn -0.8799 0.4752 0.0000
vn -0.8798 0.4753 0.0000
vn -0.4753 -0.8798 0.0000
vn -0.4755 -0.8797 0.0000
vn 0.8797 -0.4754 0.0000
vn 0.8795 -0.4759 -0.0003
vn 0.8797 -0.4755 0.0001
vn 0.8795 -0.4759 0.0000
vn 0.8798 -0.4754 0.0000
vn 0.8797 -0.4755 0.0000
vn 0.8801 -0.4748 0.0000
vn 0.8792 -0.4764 0.0000
vn 0.8797 -0.4756 -0.0001
vn 0.8798 -0.4753 0.0004
vn 0.8798 -0.4753 0.0000
vn 0.8797 -0.4754 0.0001
vn 0.8797 -0.4756 0.0000
vn 0.8795 -0.4759 -0.0002
vn -0.4760 -0.8794 -0.0000
vn 0.4768 0.8790 0.0004
vn 0.4786 0.8780 -0.0001
vn 0.4750 0.8800 -0.0003
vn 0.4751 0.8799 -0.0015
vn 0.4752 0.8799 -0.0024
vn 0.4762 0.8793 -0.0001
vn 0.4750 0.8800 0.0005
vn 0.4750 0.8800 0.0002
vn 0.4750 0.8800 0.0008
vn 0.4756 0.8797 -0.0007
vn 0.4771 0.8789 -0.0008
vn 0.4759 0.8795 -0.0001
vn 0.8794 -0.4760 -0.0009
vn 0.8807 -0.4737 0.0000
vn 0.8796 -0.4758 0.0013
vn 0.8790 -0.4769 -0.0036
vn 0.8799 -0.4752 -0.0018
vn 0.8790 -0.4767 -0.0023
s off
f 1/1/1 2/2/1 3/3/1
f 4/4/2 5/5/2 1/1/2
f 2/2/3 1/1/3 5/5/3
f 6/6/4 7/7/4 4/4/4
f 7/7/5 8/8/5 4/4/5
f 8/8/2 5/5/2 4/4/2
f 9/9/6 10/10/6 11/11/6
f 12/12/7 13/13/7 9/9/7
f 10/10/7 9/9/7 13/13/7
f 14/14/8 15/15/8 12/12/8
f 15/15/7 16/16/7 12/12/7
f 16/16/7 13/13/7 12/12/7
f 17/17/9 18/18/9 19/19/9
f 18/18/10 17/17/10 21/20/10
f 22/21/9 23/22/9 20/23/9
f 23/22/9 24/24/9 20/23/9
f 24/24/9 21/20/9 20/23/9
f 25/25/11 26/26/11 27/27/11
f 28/28/12 29/29/12 25/25/12
f 26/26/11 25/25/11 29/29/11
f 30/30/12 31/31/12 28/28/12
f 31/31/12 32/32/12 28/28/12
f 32/32/12 29/29/12 28/28/12
f 33/33/13 34/34/13 35/35/13
f 36/36/14 33/33/14 37/37/14
f 36/36/15 38/38/15 33/33/15
f 34/34/15 33/33/15 38/38/15
f 39/39/15 40/40/15 37/37/15
f 40/40/16 36/36/16 37/37/16
f 41/41/17 42/42/17 43/43/17
f 47/44/18 48/45/18 45/46/18
f 48/45/19 44/47/19 45/46/19
f 49/48/20 50/49/20 51/50/20
f 52/51/21 53/52/21 49/48/21
f 50/49/21 49/48/21 53/52/21
f 54/53/22 55/54/22 52/51/22
f 55/54/21 56/55/21 52/51/21
f 52/51/23 56/55/23 53/52/23
f 56/55/24 57/56/24 53/52/24
f 58/57/25 59/58/25 57/56/25
f 59/58/20 60/59/20 57/56/20
f 53/52/26 60/59/26 61/60/26
f 62/61/27 63/62/27 61/60/27
f 63/62/28 64/63/28 61/60/28
f 64/63/29 65/64/29 66/65/29
f 53/52/30 64/63/30 66/65/30
f 69/66/31 70/67/31 66/65/31
f 71/68/21 72/69/21 70/67/21
f 72/69/20 73/70/20 70/67/20
f 73/70/21 74/71/21 66/65/21
f 75/72/21 76/73/21 74/71/21
f 76/73/22 77/74/22 74/71/22
f 74/71/32 77/74/32 66/65/32
f 77/74/20 78/75/20 66/65/20
f 79/76/27 80/77/27 78/75/27
f 80/77/28 81/78/28 78/75/28
f 78/75/33 81/78/33 66/65/33
f 81/78/34 82/79/34 66/65/34
f 83/80/22 84/81/22 82/79/22
f 84/81/21 85/82/21 82/79/21
f 82/79/35 85/82/35 66/65/35
f 85/82/34 86/83/34 66/65/34
f 87/84/21 88/85/21 86/83/21
f 88/85/36 89/86/36 86/83/36
f 86/83/37 89/86/37 66/65/37
f 89/86/21 90/87/21 66/65/21
f 93/88/38 94/89/38 66/65/38
f 95/90/36 96/91/36 94/89/36
f 96/91/25 97/92/25 94/89/25
f 97/92/21 98/93/21 66/65/21
f 99/94/39 100/95/39 98/93/39
f 100/95/20 101/96/20 98/93/20
f 98/93/34 102/97/34 66/65/34
f 103/98/24 102/97/24 101/96/24
f 104/99/40 105/100/40 103/98/40
f 105/100/34 106/101/34 103/98/34
f 107/102/31 102/97/31 106/101/31
f 108/103/36 109/104/36 107/102/36
f 109/104/41 110/105/41 107/102/41
f 111/106/21 102/97/21 110/105/21
f 112/107/21 113/108/21 111/106/21
f 113/108/42 102/97/42 111/106/42
f 114/109/43 115/110/43 116/111/43
f 117/112/44 118/113/44 114/109/44
f 115/110/45 114/109/45 118/113/45
f 119/114/45 120/115/45 117/112/45
f 120/115/45 121/116/45 117/112/45
f 121/116/45 118/113/45 117/112/45
f 122/117/46 123/118/46 124/119/46
f 125/120/5 122/117/5 126/121/5
f 125/120/47 127/122/47 122/117/47
f 123/118/4 122/117/4 127/122/4
f 128/123/5 129/124/5 126/121/5
f 129/124/47 125/120/47 126/121/47
f 130/125/11 131/126/11 132/127/11
f 133/128/48 134/129/48 130/125/48
f 131/126/12 130/125/12 134/129/12
f 135/130/12 136/131/12 133/128/12
f 136/131/12 137/132/12 133/128/12
f 137/132/49 134/129/49 133/128/49
f 137/132/50 138/133/50 134/129/50
f 139/134/51 140/135/51 138/133/51
f 140/135/52 141/136/52 138/133/52
f 141/136/53 142/137/53 134/129/53
f 143/138/51 144/139/51 142/137/51
f 144/139/52 145/140/52 142/137/52
f 145/140/12 146/141/12 134/129/12
f 147/142/52 148/143/52 146/141/52
f 148/143/51 149/144/51 146/141/51
f 149/144/50 150/145/50 134/129/50
f 151/146/54 152/147/54 150/145/54
f 152/147/55 153/148/55 150/145/55
f 154/149/56 155/150/56 153/148/56
f 153/148/53 155/150/53 134/129/53
f 156/151/54 157/152/54 154/149/54
f 157/152/51 158/153/51 154/149/51
f 159/154/57 155/150/57 158/153/57
f 160/155/54 161/156/54 159/154/54
f 161/156/58 162/157/58 159/154/58
f 163/158/59 155/150/59 162/157/59
f 164/159/58 165/160/58 163/158/58
f 165/160/58 166/161/58 163/158/58
f 167/162/53 155/150/53 166/161/53
f 168/163/58 169/164/58 167/162/58
f 169/164/60 170/165/60 167/162/60
f 170/165/61 155/150/61 167/162/61
f 171/166/53 155/150/53 170/165/53
f 172/167/12 173/168/12 171/166/12
f 173/168/53 155/150/53 171/166/53
s 1
f 20/23/9 21/20/9 17/17/9
f 44/47/17 41/41/62 45/46/17
f 44/47/17 46/169/17 41/41/62
f 42/42/18 41/41/62 46/169/17
f 53/52/63 57/56/63 60/59/63
f 53/52/64 61/60/64 64/63/64
f 67/170/21 68/171/34 65/64/65
f 68/171/34 69/66/66 65/64/65
f 65/64/65 69/66/66 66/65/67
f 70/67/68 73/70/68 66/65/68
f 91/172/40 92/173/21 90/87/69
f 92/173/21 93/88/70 90/87/69
f 90/87/69 93/88/70 66/65/71
f 94/89/72 97/92/72 66/65/72
f 101/96/73 102/97/73 98/93/73
f 106/101/28 102/97/28 103/98/28
f 110/105/74 102/97/74 107/102/74
f 138/133/75 141/136/75 134/129/75
f 142/137/76 145/140/76 134/129/76
f 146/141/77 149/144/77 134/129/77
f 150/145/78 153/148/78 134/129/78
f 158/153/79 155/150/79 154/149/79
f 162/157/80 155/150/80 159/154/80
f 166/161/58 155/150/58 163/158/58
