# Blender v3.0.1 OBJ File: 'rockerfeller_plaza.blend'
# www.blender.org
o geometryt000010000010000110010110000110000110100000110010st59_S
v 1148.207397 -293.599640 456.744110
v 1168.716309 -255.644943 456.744110
v 1187.450073 -275.887024 456.744110
v 1174.793945 -298.828247 456.744110
v 1171.017822 -305.822540 456.744110
v 1191.722046 -267.976532 456.744110
v 1202.799438 -319.960846 456.744110
v 1174.689209 -317.270325 456.744110
v 1182.439941 -302.924225 456.744110
v 1197.610107 -329.558533 456.744110
v 1199.717285 -325.670227 456.744110
v 1194.866699 -279.863525 456.744110
v 1211.913452 -303.100739 456.744110
v 1204.319824 -317.145233 456.744110
v 1205.270020 -315.391052 456.744110
v 1208.938843 -308.597931 456.744110
v 1203.030396 -264.746552 456.744110
v 1226.469604 -277.317139 456.744110
v 1218.206665 -292.613037 456.744110
v 1212.397827 -303.361542 456.744110
v 1148.207397 -293.599640 618.444092
v 1187.450073 -275.887024 618.444092
v 1168.716309 -255.644943 618.444092
v 1171.017822 -305.822540 618.444092
v 1174.793945 -298.828247 618.444092
v 1191.722046 -267.976532 618.444092
v 1182.439941 -302.924225 618.444092
v 1194.866699 -279.863525 618.444092
v 1194.866699 -279.863525 476.744110
v 1226.469604 -277.317139 476.744110
v 1203.030396 -264.746552 476.744110
v 1206.536743 -286.238342 476.744110
v 1218.206665 -292.613037 476.744110
v 1174.689209 -317.270325 476.744110
v 1197.610107 -329.558533 476.744110
v 1199.717285 -325.670227 476.744110
v 1202.799438 -319.960846 476.744110
v 1182.439941 -302.924225 476.744110
v 1204.319824 -317.145233 476.744110
v 1193.854980 -309.157654 476.744110
v 1205.270020 -315.391052 476.744110
v 1211.913452 -303.100739 496.744110
v 1185.513916 -297.219635 496.744110
v 1182.439941 -302.924225 496.744110
v 1205.270020 -315.391052 496.744110
v 1208.938843 -308.597931 496.744110
v 1194.866699 -279.863525 496.744110
v 1218.206665 -292.613037 496.744110
v 1212.397827 -303.361542 496.744110
vt 0.486330 0.296960
vt 0.410740 0.339190
vt 0.441620 0.376470
vt 0.487390 0.350420
vt 0.501320 0.342650
vt 0.425870 0.385270
vt 0.516940 0.406370
vt 0.520980 0.349780
vt 0.492410 0.365740
vt 0.536050 0.395680
vt 0.528310 0.400020
vt 0.446500 0.391330
vt 0.483360 0.425140
vt 0.511330 0.409500
vt 0.507840 0.411460
vt 0.494310 0.419010
vt 0.416390 0.408140
vt 0.431820 0.455080
vt 0.462280 0.438070
vt 0.483680 0.426110
vt 0.486330 0.296960
vt 0.441620 0.376470
vt 0.410740 0.339190
vt 0.501320 0.342650
vt 0.487390 0.350420
vt 0.425870 0.385270
vt 0.492410 0.365740
vt 0.446500 0.391330
vt 0.446500 0.391330
vt 0.431820 0.455080
vt 0.416390 0.408140
vt 0.454390 0.414700
vt 0.462280 0.438070
vt 0.520980 0.349780
vt 0.536050 0.395680
vt 0.528310 0.400020
vt 0.516940 0.406370
vt 0.492410 0.365740
vt 0.511330 0.409500
vt 0.500130 0.388600
vt 0.507840 0.411460
vt 0.483360 0.425140
vt 0.481050 0.372070
vt 0.492410 0.365740
vt 0.507840 0.411460
vt 0.494310 0.419010
vt 0.446500 0.391330
vt 0.462280 0.438070
vt 0.483680 0.426110
vn 0.0000 0.0000 -1.0000
vn 0.0001 0.0000 -1.0000
vn 0.0000 0.0000 1.0000
s off
f 1/1/1 2/2/1 3/3/1
f 1/1/1 4/4/1 5/5/1
f 3/3/1 4/4/1 1/1/1
f 6/6/1 3/3/1 2/2/1
f 7/7/1 8/8/1 9/9/1
f 10/10/1 8/8/1 11/11/1
f 11/11/1 8/8/1 7/7/1
f 9/9/1 4/4/1 3/3/1
f 12/12/1 9/9/1 3/3/1
f 13/13/1 9/9/1 12/12/1
f 14/14/1 7/7/1 9/9/1
f 14/14/1 9/9/1 15/15/1
f 15/15/1 9/9/1 16/16/1
f 13/13/1 16/16/1 9/9/1
f 17/17/1 18/18/1 12/12/1
f 19/19/1 13/13/1 12/12/1
f 12/12/1 18/18/1 19/19/1
f 13/13/2 19/19/2 20/20/2
f 21/21/3 22/22/3 23/23/3
f 24/24/3 25/25/3 21/21/3
f 25/25/3 22/22/3 21/21/3
f 22/22/3 26/26/3 23/23/3
f 27/27/3 22/22/3 25/25/3
f 28/28/3 22/22/3 27/27/3
f 29/29/3 30/30/3 31/31/3
f 29/29/3 32/32/3 30/30/3
f 32/32/3 33/33/3 30/30/3
f 34/34/3 35/35/3 36/36/3
f 34/34/3 36/36/3 37/37/3
f 37/37/3 38/38/3 34/34/3
f 39/39/3 38/38/3 37/37/3
f 40/40/3 38/38/3 39/39/3
f 41/41/3 40/40/3 39/39/3
f 42/42/3 43/43/3 44/44/3
f 44/44/3 45/45/3 46/46/3
f 42/42/3 44/44/3 46/46/3
f 42/42/3 47/47/3 43/43/3
f 42/42/3 48/48/3 47/47/3
f 49/49/3 48/48/3 42/42/3
