# Blender v3.0.1 OBJ File: 'rockerfeller_plaza.blend'
# www.blender.org
o geometryt000010000010000110010110000110000110100000110010st124
v 1093.110474 -143.439941 465.527283
v 1093.851685 -143.833435 556.832458
v 1093.110474 -143.439941 556.832458
v 1090.337036 -141.967545 465.527283
v 1093.851685 -143.833435 463.232513
v 1090.337036 -141.967545 556.832458
v 1089.595825 -141.573944 556.832458
v 1089.595825 -141.573944 463.232513
v 1089.979370 -140.856735 465.527283
v 1089.595825 -141.573944 556.832458
v 1089.979370 -140.856735 556.832458
v 1094.065063 -133.217133 463.232513
v 1093.681519 -133.934341 465.527283
v 1089.595825 -141.573944 463.232513
v 1093.681519 -133.934341 556.832458
v 1094.065063 -133.217133 556.832458
v 1102.657349 -152.469345 465.527283
v 1102.962158 -152.630844 556.832458
v 1102.657349 -152.469345 556.832458
v 1098.495117 -150.264633 465.527283
v 1102.962158 -152.630844 463.232513
v 1098.495117 -150.264633 556.832458
v 1096.683594 -149.305145 556.832458
v 1096.683594 -149.305145 465.527283
v 1092.521362 -147.100540 465.527283
v 1092.216431 -146.939041 463.232513
v 1092.521362 -147.100540 556.832458
v 1092.216431 -146.939041 556.832458
v 1092.668335 -146.080841 465.527283
v 1092.216431 -146.939041 556.832458
v 1092.668335 -146.080841 556.832458
v 1093.851685 -143.833435 463.232513
v 1093.399780 -144.691635 465.527283
v 1092.216431 -146.939041 463.232513
v 1093.399780 -144.691635 556.832458
v 1093.851685 -143.833435 556.832458
v 1094.806274 -133.610641 465.527283
v 1094.065063 -133.217133 556.832458
v 1094.806274 -133.610641 556.832458
v 1098.321045 -135.476639 463.232513
v 1097.579712 -135.083145 465.527283
v 1094.065063 -133.217133 463.232513
v 1097.579712 -135.083145 556.832458
v 1098.321045 -135.476639 556.832458
v 1098.776245 -134.626846 465.527283
v 1098.321045 -135.476639 556.832458
v 1098.776245 -134.626846 556.832458
v 1099.973267 -132.393036 463.232513
v 1099.517944 -133.242935 465.527283
v 1098.321045 -135.476639 463.232513
v 1099.517944 -133.242935 556.832458
v 1099.973267 -132.393036 556.832458
v 1100.277954 -132.554932 465.527283
v 1099.973267 -132.393036 556.832458
v 1100.277954 -132.554932 556.832458
v 1104.437500 -134.764740 465.527283
v 1099.973267 -132.393036 463.232513
v 1104.437500 -134.764740 556.832458
v 1105.128052 -135.131638 556.832458
v 1105.128052 -135.131638 465.527283
v 1109.287720 -137.341537 465.527283
v 1109.287720 -137.341537 556.832458
v 1109.978271 -137.708435 556.832458
v 1109.978271 -137.708435 465.527283
v 1112.751343 -139.181641 465.527283
v 1112.751343 -139.181641 556.832458
v 1113.442017 -139.548538 556.832458
v 1113.442017 -139.548538 465.527283
v 1114.828491 -140.285141 465.527283
v 1114.828491 -140.285141 556.832458
v 1115.519043 -140.652039 556.832458
v 1115.519043 -140.652039 465.527283
v 1116.905640 -141.388641 465.527283
v 1116.905640 -141.388641 556.832458
v 1117.596313 -141.755646 556.832458
v 1117.596313 -141.755646 465.527283
v 1123.142334 -144.702042 465.527283
v 1123.142334 -144.702042 556.832458
v 1123.833008 -145.068939 556.832458
v 1123.833008 -145.068939 465.527283
v 1140.765381 -154.064545 463.232513
v 1125.219482 -145.805542 465.527283
v 1125.219482 -145.805542 556.832458
v 1125.910156 -146.172440 556.832458
v 1125.910156 -146.172440 465.527283
v 1127.296631 -146.909042 465.527283
v 1127.296631 -146.909042 556.832458
v 1127.987305 -147.276031 556.832458
v 1127.987305 -147.276031 465.527283
v 1130.760254 -148.749237 465.527283
v 1130.760254 -148.749237 556.832458
v 1131.451050 -149.116135 556.832458
v 1131.451050 -149.116135 465.527283
v 1135.610474 -151.325943 465.527283
v 1135.610474 -151.325943 556.832458
v 1136.301147 -151.692841 556.832458
v 1136.301147 -151.692841 465.527283
v 1140.460693 -153.902740 465.527283
v 1140.460693 -153.902740 556.832458
v 1140.765381 -154.064545 556.832458
v 1132.686035 -168.428345 465.527283
v 1132.990723 -168.590134 556.832458
v 1132.686035 -168.428345 556.832458
v 1128.526245 -166.218842 465.527283
v 1132.990723 -168.590134 463.232513
v 1128.526245 -166.218842 556.832458
v 1127.888428 -165.880035 556.832458
v 1127.888428 -165.880035 465.527283
v 1123.728760 -163.670532 465.527283
v 1121.064819 -162.255539 463.232513
v 1123.728760 -163.670532 556.832458
v 1123.090942 -163.331741 556.832458
v 1123.090942 -163.331741 465.527283
v 1120.317749 -161.858734 465.527283
v 1120.317749 -161.858734 556.832458
v 1119.680054 -161.520035 556.832458
v 1119.680054 -161.520035 465.527283
v 1118.293457 -160.783539 465.527283
v 1118.293457 -160.783539 556.832458
v 1117.655640 -160.444733 556.832458
v 1117.655640 -160.444733 465.527283
v 1116.269043 -159.708237 465.527283
v 1116.269043 -159.708237 556.832458
v 1115.631226 -159.369446 556.832458
v 1115.631226 -159.369446 465.527283
v 1112.858154 -157.896439 465.527283
v 1112.858154 -157.896439 556.832458
v 1112.220337 -157.557632 556.832458
v 1112.220337 -157.557632 465.527283
v 1108.060547 -155.348236 465.527283
v 1102.958374 -152.638046 463.232513
v 1108.060547 -155.348236 556.832458
v 1107.422852 -155.009445 556.832458
v 1107.422852 -155.009445 465.527283
v 1103.262939 -152.799942 465.527283
v 1103.262939 -152.799942 556.832458
v 1102.958374 -152.638046 556.832458
v 1140.602539 -154.368744 465.527283
v 1140.765381 -154.064545 556.832458
v 1140.602539 -154.368744 556.832458
v 1138.379883 -158.521439 465.527283
v 1140.765381 -154.064545 463.232513
v 1138.379883 -158.521439 556.832458
v 1138.184814 -158.885834 556.832458
v 1138.184814 -158.885834 465.527283
v 1137.443848 -160.270035 465.527283
v 1137.443848 -160.270035 556.832458
v 1137.248901 -160.634445 556.832458
v 1137.248901 -160.634445 465.527283
v 1136.508057 -162.018646 465.527283
v 1136.508057 -162.018646 556.832458
v 1136.312866 -162.383041 556.832458
v 1136.312866 -162.383041 465.527283
v 1132.991455 -168.588531 463.232513
v 1135.572021 -163.767242 465.527283
v 1135.572021 -163.767242 556.832458
v 1135.376953 -164.131638 556.832458
v 1135.376953 -164.131638 465.527283
v 1133.154297 -168.284332 465.527283
v 1133.154297 -168.284332 556.832458
v 1132.991455 -168.588531 556.832458
vt 1.591710 0.903800
vt 1.927390 36.864910
vt 1.591710 36.864910
vt 0.000000 0.000000
vt 3.465410 0.903800
vt 0.325340 0.903800
vt 3.790740 0.000000
vt 3.790740 36.864910
vt 0.000000 36.864910
vt 4.726030 0.903800
vt 4.864030 36.864910
vt 4.726030 36.864910
vt 2.841990 0.903800
vt 4.864030 0.000000
vt 2.841990 36.864910
vt 2.022040 36.864910
vt 2.022040 0.903800
vt 0.138000 0.903800
vt 0.000000 0.000000
vt 0.138000 36.864910
vt 0.000000 36.864910
vt 1.015960 0.903800
vt 1.403900 36.864910
vt 1.015960 36.864910
vt 0.000000 0.000000
vt 0.387940 0.903800
vt 1.403900 0.000000
vt 0.387940 36.864910
vt 0.000000 36.864910
vt 1.591710 0.903800
vt 1.927390 36.864910
vt 1.591710 36.864910
vt 0.000000 0.000000
vt 0.335680 0.903800
vt 0.335680 36.864910
vt 0.000000 36.864910
vt 1.013680 0.903800
vt 1.399340 36.864910
vt 1.013680 36.864910
vt 0.000000 0.000000
vt 0.385660 0.903800
vt 1.399340 0.000000
vt 0.385660 36.864910
vt 0.000000 36.864910
vt 18.338579 0.903800
vt 18.476580 36.864910
vt 18.338579 36.864910
vt 16.454531 0.903800
vt 18.476580 0.000000
vt 16.454531 36.864910
vt 16.141710 36.864910
vt 16.141710 0.903800
vt 14.257670 0.903800
vt 14.257670 36.864910
vt 13.944840 36.864910
vt 13.944840 0.903800
vt 12.688810 0.903800
vt 12.688810 36.864910
vt 12.375990 36.864910
vt 12.375990 0.903800
vt 11.747980 0.903800
vt 11.747980 36.864910
vt 11.435150 36.864910
vt 11.435150 0.903800
vt 10.807140 0.903800
vt 10.807140 36.864910
vt 10.494320 36.864910
vt 10.494320 0.903800
vt 7.982260 0.903800
vt 7.982260 36.864910
vt 7.669440 36.864910
vt 7.669440 0.903800
vt 0.000000 0.000000
vt 7.041420 0.903800
vt 7.041420 36.864910
vt 6.728600 36.864910
vt 6.728600 0.903800
vt 6.100580 0.903800
vt 6.100580 36.864910
vt 5.787760 36.864910
vt 5.787760 0.903800
vt 4.531730 0.903800
vt 4.531730 36.864910
vt 4.218910 36.864910
vt 4.218910 0.903800
vt 2.334870 0.903800
vt 2.334870 36.864910
vt 2.022040 36.864910
vt 2.022040 0.903800
vt 0.138000 0.903800
vt 0.138000 36.864910
vt 0.000000 36.864910
vt 13.464390 0.903800
vt 13.602390 36.864910
vt 13.464390 36.864910
vt 11.580350 0.903800
vt 13.602390 0.000000
vt 11.580350 36.864910
vt 11.291470 36.864910
vt 11.291470 0.903800
vt 9.407430 0.903800
vt 8.200860 0.000000
vt 9.407430 36.864910
vt 9.118551 36.864910
vt 9.118551 0.903800
vt 7.862520 0.903800
vt 7.862520 36.864910
vt 7.573650 36.864910
vt 7.573650 0.903800
vt 6.945630 0.903800
vt 6.945630 36.864910
vt 6.656760 36.864910
vt 6.656760 0.903800
vt 6.028740 0.903800
vt 6.028740 36.864910
vt 5.739870 36.864910
vt 5.739870 0.903800
vt 4.483840 0.903800
vt 4.483840 36.864910
vt 4.194960 36.864910
vt 4.194960 0.903800
vt 2.310920 0.903800
vt 0.000000 0.000000
vt 2.310920 36.864910
vt 2.022040 36.864910
vt 2.022040 0.903800
vt 0.138000 0.903800
vt 0.138000 36.864910
vt 0.000000 36.864910
vt 6.451430 0.903800
vt 6.589430 36.864910
vt 6.451430 36.864910
vt 4.567390 0.903800
vt 6.589430 0.000000
vt 4.567390 36.864910
vt 4.402060 36.864910
vt 4.402060 0.903800
vt 3.774050 0.903800
vt 3.774050 36.864910
vt 3.608720 36.864910
vt 3.608720 0.903800
vt 2.980710 0.903800
vt 2.980710 36.864910
vt 2.815380 36.864910
vt 2.815380 0.903800
vt 0.000000 0.000000
vt 2.187370 0.903800
vt 2.187370 36.864910
vt 2.022040 36.864910
vt 2.022040 0.903800
vt 0.138000 0.903800
vt 0.138000 36.864910
vt 0.000000 36.864910
vt 0.335680 0.903800
vt 1.927390 0.000000
vt 0.335680 36.864910
vt 0.000000 36.864910
vt 0.000000 0.000000
vt 3.465410 36.864910
vt 0.325340 36.864910
vt 1.927390 0.000000
vn -0.4688 -0.8833 0.0000
vn -0.8818 0.4716 0.0000
vn -0.8819 0.4715 0.0000
vn -0.4680 -0.8837 0.0000
vn -0.4681 -0.8837 0.0000
vn -0.4683 -0.8836 0.0000
vn -0.4681 -0.8837 0.0001
vn -0.4682 -0.8836 0.0000
vn -0.8848 0.4660 0.0000
vn -0.8849 0.4658 -0.0000
vn -0.8848 0.4659 0.0000
vn -0.8849 0.4659 0.0000
vn 0.4689 0.8832 0.0000
vn 0.4688 0.8833 0.0000
vn 0.4689 0.8833 0.0000
vn -0.8814 0.4723 0.0000
vn -0.8814 0.4723 0.0001
vn -0.8814 0.4723 -0.0001
vn -0.8815 0.4721 0.0000
vn -0.8815 0.4722 0.0000
vn 0.4693 0.8830 0.0000
vn 0.4692 0.8831 0.0000
vn 0.4691 0.8831 0.0000
vn 0.4691 0.8832 -0.0001
vn 0.4692 0.8831 0.0001
vn 0.4691 0.8832 0.0001
vn 0.4692 0.8831 -0.0005
vn 0.4691 0.8831 0.0003
vn 0.4691 0.8831 -0.0001
vn 0.4691 0.8832 -0.0003
vn 0.4690 0.8832 0.0000
vn 0.4691 0.8832 -0.0007
vn 0.4691 0.8831 0.0001
vn 0.4693 0.8830 -0.0002
vn -0.4689 -0.8833 0.0000
vn -0.4691 -0.8831 -0.0000
vn -0.4691 -0.8832 0.0000
vn -0.4690 -0.8832 0.0000
vn -0.4692 -0.8831 0.0000
vn -0.4687 -0.8833 0.0001
vn -0.4691 -0.8831 -0.0001
vn -0.4691 -0.8832 -0.0001
vn -0.4692 -0.8831 0.0001
vn -0.4693 -0.8830 0.0000
vn 0.8815 -0.4721 0.0000
vn 0.8817 -0.4719 0.0000
vn 0.8816 -0.4719 0.0000
vn 0.8816 -0.4720 0.0000
vn 0.8818 -0.4717 0.0000
vn 0.8817 -0.4718 0.0001
vn 0.8816 -0.4720 -0.0001
vn 0.8820 -0.4713 0.0000
vn 0.8818 -0.4716 0.0003
vn 0.8813 -0.4726 0.0000
vn 0.8817 -0.4719 0.0008
vn 0.8816 -0.4719 -0.0001
vn 0.8818 -0.4715 0.0002
vn 0.8817 -0.4717 0.0000
vn -0.4689 -0.8832 -0.0000
vn -0.8818 0.4715 0.0000
vn -0.8818 0.4717 0.0000
vn 0.4694 0.8830 -0.0001
vn 0.4692 0.8831 -0.0001
vn 0.8815 -0.4722 0.0000
s off
f 1/1/1 2/2/1 3/3/1
f 12/4/2 9/5/2 13/6/2
f 12/4/2 14/7/2 9/5/2
f 10/8/2 9/5/2 14/7/2
f 16/9/3 12/4/3 13/6/3
f 17/10/4 18/11/4 19/12/4
f 20/13/5 21/14/5 17/10/5
f 18/11/6 17/10/6 21/14/6
f 22/15/4 23/16/4 20/13/4
f 23/16/5 24/17/5 20/13/5
f 24/17/7 21/14/7 20/13/7
f 25/18/5 26/19/5 24/17/5
f 24/17/5 26/19/5 21/14/5
f 27/20/8 28/21/8 25/18/8
f 28/21/4 26/19/4 25/18/4
f 29/22/9 30/23/9 31/24/9
f 32/25/10 29/22/10 33/26/10
f 32/25/11 34/27/11 29/22/11
f 30/23/12 29/22/12 34/27/12
f 35/28/10 36/29/10 33/26/10
f 36/29/9 32/25/9 33/26/9
f 37/30/13 38/31/13 39/32/13
f 40/33/13 37/30/13 41/34/13
f 43/35/14 44/36/14 41/34/14
f 44/36/15 40/33/15 41/34/15
f 45/37/16 46/38/16 47/39/16
f 48/40/17 45/37/17 49/41/17
f 48/40/18 50/42/18 45/37/18
f 46/38/19 45/37/19 50/42/19
f 51/43/16 52/44/16 49/41/16
f 52/44/20 48/40/20 49/41/20
f 53/45/21 54/46/21 55/47/21
f 56/48/22 57/49/22 53/45/22
f 54/46/22 53/45/22 57/49/22
f 58/50/22 59/51/22 56/48/22
f 59/51/23 60/52/23 56/48/23
f 60/52/22 57/49/22 56/48/22
f 60/52/22 61/53/22 57/49/22
f 62/54/23 63/55/23 61/53/23
f 63/55/21 64/56/21 61/53/21
f 61/53/24 64/56/24 57/49/24
f 64/56/25 65/57/25 57/49/25
f 66/58/23 67/59/23 65/57/23
f 67/59/23 68/60/23 65/57/23
f 65/57/26 68/60/26 57/49/26
f 68/60/25 69/61/25 57/49/25
f 70/62/23 71/63/23 69/61/23
f 71/63/22 72/64/22 69/61/22
f 69/61/27 72/64/27 57/49/27
f 72/64/28 73/65/28 57/49/28
f 74/66/22 75/67/22 73/65/22
f 75/67/22 76/68/22 73/65/22
f 76/68/22 77/69/22 57/49/22
f 78/70/23 79/71/23 77/69/23
f 79/71/23 80/72/23 77/69/23
f 80/72/29 81/73/29 77/69/29
f 77/69/22 81/73/22 57/49/22
f 82/74/25 81/73/25 80/72/25
f 83/75/23 84/76/23 82/74/23
f 84/76/23 85/77/23 82/74/23
f 85/77/30 81/73/30 82/74/30
f 86/78/22 81/73/22 85/77/22
f 87/79/22 88/80/22 86/78/22
f 88/80/22 89/81/22 86/78/22
f 90/82/25 81/73/25 89/81/25
f 91/83/31 92/84/31 90/82/31
f 92/84/23 93/85/23 90/82/23
f 93/85/32 81/73/32 90/82/32
f 94/86/33 81/73/33 93/85/33
f 95/87/23 96/88/23 94/86/23
f 96/88/23 97/89/23 94/86/23
f 97/89/34 81/73/34 94/86/34
f 98/90/22 81/73/22 97/89/22
f 99/91/13 100/92/13 98/90/13
f 100/92/31 81/73/31 98/90/31
f 101/93/35 102/94/35 103/95/35
f 104/96/36 105/97/36 101/93/36
f 102/94/37 101/93/37 105/97/37
f 106/98/38 107/99/38 104/96/38
f 107/99/39 108/100/39 104/96/39
f 104/96/40 108/100/40 105/97/40
f 108/100/36 109/101/36 110/102/36
f 108/100/37 110/102/37 105/97/37
f 111/103/39 112/104/39 109/101/39
f 112/104/38 113/105/38 109/101/38
f 109/101/39 113/105/39 110/102/39
f 113/105/36 114/106/36 110/102/36
f 115/107/38 116/108/38 114/106/38
f 116/108/36 117/109/36 114/106/36
f 114/106/37 117/109/37 110/102/37
f 117/109/36 118/110/36 110/102/36
f 119/111/36 120/112/36 118/110/36
f 120/112/38 121/113/38 118/110/38
f 118/110/41 121/113/41 110/102/41
f 121/113/36 122/114/36 110/102/36
f 123/115/39 124/116/39 122/114/39
f 124/116/38 125/117/38 122/114/38
f 122/114/35 125/117/35 110/102/35
f 125/117/36 126/118/36 110/102/36
f 127/119/36 128/120/36 126/118/36
f 128/120/36 129/121/36 126/118/36
f 126/118/41 129/121/41 110/102/41
f 130/122/42 131/123/42 129/121/42
f 129/121/37 131/123/37 110/102/37
f 132/124/36 133/125/36 130/122/36
f 133/125/39 134/126/39 130/122/39
f 134/126/43 131/123/43 130/122/43
f 135/127/38 131/123/38 134/126/38
f 136/128/36 137/129/36 135/127/36
f 137/129/44 131/123/44 135/127/44
f 138/130/45 139/131/45 140/132/45
f 141/133/46 142/134/46 138/130/46
f 139/131/47 138/130/47 142/134/47
f 143/135/48 144/136/48 141/133/48
f 144/136/49 145/137/49 141/133/49
f 145/137/50 142/134/50 141/133/50
f 145/137/51 146/138/51 142/134/51
f 147/139/52 148/140/52 146/138/52
f 148/140/48 149/141/48 146/138/48
f 146/138/53 149/141/53 142/134/53
f 149/141/50 150/142/50 142/134/50
f 151/143/54 152/144/54 150/142/54
f 152/144/48 153/145/48 150/142/48
f 153/145/55 154/146/55 150/142/55
f 155/147/56 154/146/56 153/145/56
f 156/148/48 157/149/48 155/147/48
f 157/149/48 158/150/48 155/147/48
f 158/150/57 154/146/57 155/147/57
f 159/151/47 154/146/47 158/150/47
f 160/152/58 161/153/58 159/151/58
s 1
f 4/154/38 5/155/59 1/1/35
f 2/2/35 1/1/35 5/155/59
f 6/156/38 7/157/38 4/154/38
f 7/157/38 8/158/59 4/154/38
f 8/158/59 5/155/59 4/154/38
f 9/5/60 10/8/60 11/159/60
f 15/160/61 16/9/61 13/6/61
f 40/33/15 42/161/15 37/30/13
f 38/31/13 37/30/13 42/161/15
f 73/65/62 76/68/62 57/49/62
f 89/81/63 81/73/63 86/78/63
f 150/142/47 154/146/47 142/134/47
f 161/153/64 154/146/64 159/151/64
