# Blender v3.0.1 OBJ File: 'rockerfeller_plaza.blend'
# www.blender.org
o geometryt000010000010000110010110000110000110100000110000st104
v 857.711365 -167.865540 459.433289
v 858.738281 -162.851944 459.933289
v 856.405884 -167.162842 459.933289
v 859.818176 -168.999634 458.626343
v 861.065247 -158.551041 459.933289
v 860.322144 -169.270935 458.433289
v 861.318237 -158.687042 459.836426
v 864.982971 -160.656738 458.433289
v 852.489563 -165.054642 458.433289
v 856.153870 -167.027145 459.836731
v 857.145447 -156.476044 458.437561
v 857.653442 -156.717346 458.626984
v 856.405884 -167.162842 459.933289
v 857.158875 -156.451447 458.437592
v 858.738281 -162.851944 459.933289
v 859.761841 -157.850540 459.434235
v 861.065247 -158.551041 459.933289
v 856.471069 -148.876633 423.933289
v 848.974548 -166.960846 423.933289
v 847.198914 -165.993546 423.933289
v 860.590942 -151.071136 423.933289
v 860.290833 -173.090439 423.933289
v 859.100952 -175.302643 423.933289
v 880.637634 -186.975037 423.933289
v 868.865967 -155.570938 423.933289
v 882.280518 -165.728333 423.933289
v 883.487366 -163.527145 423.933289
v 888.818726 -171.869232 423.933289
v 888.550415 -169.130142 423.933289
v 889.909729 -169.869232 423.933289
v 856.471069 -148.876633 455.033264
v 847.198914 -165.993546 455.033264
v 848.974548 -166.960846 455.033264
v 852.489563 -165.054642 455.033264
v 857.158875 -156.451447 455.033264
v 860.290833 -173.090439 455.033264
v 860.590942 -151.071136 455.033264
v 860.322144 -169.270935 455.033264
v 860.493164 -158.243546 455.033264
v 859.100952 -175.302643 455.033264
v 880.637634 -186.975037 455.033264
v 860.343445 -169.231735 455.033264
v 864.982971 -160.656738 455.033264
v 868.865967 -155.570938 455.033264
v 882.280518 -165.728333 455.033264
v 883.487366 -163.527145 455.033264
v 888.818726 -171.869232 455.033264
v 888.550415 -169.130142 455.033264
v 889.909729 -169.869232 455.033264
v 860.322144 -169.270935 458.433289
v 864.982971 -160.656738 458.433289
vt 0.270860 0.215450
vt 0.261410 0.217640
vt 0.269990 0.212840
vt 0.272250 0.219670
vt 0.252840 0.222430
vt 0.272580 0.220680
vt 0.253010 0.222940
vt 0.255430 0.230280
vt 0.267400 0.204990
vt 0.269830 0.212330
vt 0.250310 0.214580
vt 0.250590 0.215600
vt 0.269990 0.212840
vt 0.250260 0.214610
vt 0.261410 0.217640
vt 0.251980 0.219820
vt 0.252840 0.222430
vt 0.236700 0.213400
vt 0.271990 0.197860
vt 0.270790 0.194310
vt 0.239380 0.221650
vt 0.279540 0.220530
vt 0.283950 0.218080
vt 0.298340 0.261210
vt 0.244940 0.238220
vt 0.259160 0.265020
vt 0.254770 0.267510
vt 0.268250 0.278060
vt 0.263350 0.277580
vt 0.264270 0.280300
vt 0.236700 0.213400
vt 0.270790 0.194310
vt 0.271990 0.197860
vt 0.267400 0.204990
vt 0.250260 0.214610
vt 0.279540 0.220530
vt 0.239380 0.221650
vt 0.272580 0.220680
vt 0.252460 0.221280
vt 0.283950 0.218080
vt 0.298340 0.261210
vt 0.272510 0.220720
vt 0.255430 0.230280
vt 0.244940 0.238220
vt 0.259160 0.265020
vt 0.254770 0.267510
vt 0.268250 0.278060
vt 0.263350 0.277580
vt 0.264270 0.280300
vn 0.2811 -0.1521 0.9476
vn 0.2812 -0.1521 0.9475
vn 0.2811 -0.1521 0.9475
vn -0.2811 0.1521 0.9476
vn -0.0000 0.0000 -1.0000
vn -0.0000 0.0000 1.0000
vn -0.0001 0.0000 1.0000
vn -0.0013 0.0000 1.0000
vn -0.2793 0.1527 0.9480
s off
f 1/1/1 2/2/1 3/3/1
f 1/1/1 4/4/1 2/2/1
f 2/2/1 4/4/1 5/5/1
f 4/4/2 6/6/2 7/7/2
f 4/4/3 7/7/3 5/5/3
f 8/8/1 7/7/1 6/6/1
f 9/9/4 10/10/4 11/11/4
f 12/12/4 10/10/4 13/13/4
f 12/12/4 14/14/4 10/10/4
f 12/12/4 13/13/4 15/15/4
f 16/16/4 12/12/4 15/15/4
f 16/16/4 15/15/4 17/17/4
f 18/18/5 19/19/5 20/20/5
f 18/18/5 21/21/5 19/19/5
f 21/21/5 22/22/5 19/19/5
f 23/23/5 22/22/5 24/24/5
f 25/25/5 22/22/5 21/21/5
f 22/22/5 25/25/5 26/26/5
f 22/22/5 26/26/5 24/24/5
f 25/25/5 27/27/5 26/26/5
f 26/26/5 28/28/5 24/24/5
f 29/29/5 28/28/5 26/26/5
f 28/28/5 29/29/5 30/30/5
f 31/31/6 32/32/6 33/33/6
f 34/34/6 35/35/6 33/33/6
f 33/33/6 36/36/6 34/34/6
f 37/37/6 31/31/6 33/33/6
f 33/33/7 35/35/7 37/37/7
f 34/34/6 36/36/6 38/38/6
f 37/37/6 35/35/6 39/39/6
f 36/36/6 40/40/6 41/41/6
f 36/36/8 42/42/8 38/38/8
f 43/43/6 42/42/6 36/36/6
f 44/44/6 43/43/6 36/36/6
f 44/44/6 36/36/6 45/45/6
f 36/36/6 41/41/6 45/45/6
f 43/43/6 37/37/6 39/39/6
f 44/44/6 37/37/6 43/43/6
f 44/44/6 45/45/6 46/46/6
f 41/41/6 47/47/6 45/45/6
f 47/47/6 48/48/6 45/45/6
f 49/49/6 48/48/6 47/47/6
s 1
f 10/10/9 14/14/9 11/11/9
