# Blender v3.0.1 OBJ File: 'rockerfeller_plaza.blend'
# www.blender.org
o geometryt000010000010000110010110000110000110100000000110st76
v 628.183228 -75.316216 106.351753
v 628.019226 -75.619774 133.474808
v 628.183228 -75.316216 133.474808
v 630.253784 -71.482498 106.351753
v 628.019226 -75.619774 103.574806
v 630.253784 -71.482498 133.474808
v 630.539185 -70.954025 133.474808
v 630.539185 -70.954025 106.351753
v 630.976440 -70.144615 103.574806
v 633.299988 -65.842384 106.351753
v 633.299988 -65.842384 133.474808
v 633.585510 -65.313927 133.474808
v 633.585510 -65.313927 106.351753
v 636.346313 -60.202290 106.351753
v 637.593201 -57.893639 103.574806
v 636.346313 -60.202290 133.474808
v 636.631714 -59.673817 133.474808
v 636.631714 -59.673817 106.351753
v 638.702393 -55.840099 106.351753
v 638.702393 -55.840099 133.474808
v 638.866333 -55.536537 133.474808
v 638.866333 -55.536537 103.574806
v 641.078613 -82.693977 106.351753
v 641.381897 -82.858292 133.474808
v 641.078613 -82.693977 133.474808
v 637.247437 -80.618637 106.351753
v 641.381897 -82.858292 103.574806
v 637.247437 -80.618637 133.474808
v 635.977600 -79.930817 133.474808
v 635.977600 -79.930817 106.351753
v 633.423523 -78.547256 106.351753
v 628.019226 -75.619774 103.574806
v 633.423523 -78.547256 133.474808
v 632.153687 -77.859436 133.474808
v 632.153687 -77.859436 106.351753
v 628.322632 -75.784096 106.351753
v 628.322632 -75.784096 133.474808
v 628.019226 -75.619774 133.474808
v 639.333618 -54.701950 106.351753
v 638.877502 -55.542587 133.474808
v 639.333618 -54.701950 133.474808
v 641.174927 -51.308090 103.574806
v 640.718872 -52.148739 106.351753
v 638.877502 -55.542587 103.574806
v 640.718872 -52.148739 133.474808
v 641.174927 -51.308090 133.474808
v 643.087280 -65.607124 106.351753
v 643.485413 -64.870346 133.474808
v 643.087280 -65.607124 133.474808
v 641.016113 -69.440536 106.351753
v 643.485413 -64.870346 103.574806
v 641.016113 -69.440536 133.474808
v 640.618042 -70.177307 133.474808
v 640.618042 -70.177307 103.574806
v 641.012024 -70.390854 106.351753
v 640.618042 -70.177307 133.474808
v 641.012024 -70.390854 133.474808
v 646.119629 -73.159172 106.351753
v 640.618042 -70.177307 103.574806
v 646.119629 -73.159172 133.474808
v 646.513611 -73.372726 133.474808
v 646.513611 -73.372726 103.574806
v 641.478516 -51.472080 106.351753
v 641.174927 -51.308090 133.474808
v 641.478516 -51.472080 133.474808
v 645.311890 -53.543278 106.351753
v 641.174927 -51.308090 103.574806
v 645.311890 -53.543278 133.474808
v 645.956543 -53.891537 133.474808
v 645.956543 -53.891537 106.351753
v 649.789917 -55.962738 106.351753
v 654.571411 -58.546200 103.574806
v 649.789917 -55.962738 133.474808
v 650.434387 -56.310997 133.474808
v 650.434387 -56.310997 106.351753
v 654.267883 -58.382198 106.351753
v 654.267883 -58.382198 133.474808
v 654.571411 -58.546200 133.474808
v 646.020996 -74.283218 106.351753
v 646.513611 -73.372726 133.474808
v 646.020996 -74.283218 133.474808
v 641.874512 -81.947807 106.351753
v 646.513611 -73.372726 103.574806
v 641.874512 -81.947807 133.474808
v 641.381897 -82.858292 133.474808
v 641.381897 -82.858292 103.574806
v 649.000305 -67.856628 106.351753
v 649.406494 -68.076561 133.474808
v 649.000305 -67.856628 133.474808
v 643.891602 -65.090294 106.351753
v 649.406494 -68.076561 103.574806
v 643.891602 -65.090294 133.474808
v 643.485413 -64.870346 133.474808
v 643.485413 -64.870346 103.574806
v 654.065002 -59.480598 106.351753
v 654.571411 -58.546200 133.474808
v 654.065002 -59.480598 133.474808
v 649.912903 -67.142166 106.351753
v 654.571411 -58.546200 103.574806
v 649.912903 -67.142166 133.474808
v 649.406494 -68.076561 133.474808
v 649.406494 -68.076561 103.574806
vt 120.862099 14.929870
vt 122.716904 160.752701
vt 120.862099 160.752701
vt 97.436401 14.929870
vt 122.716904 0.000000
vt 97.436401 160.752701
vt 94.207260 160.752701
vt 94.207260 14.929870
vt 89.261421 0.000000
vt 62.973030 14.929870
vt 62.973030 160.752701
vt 59.743881 160.752701
vt 59.743881 14.929870
vt 28.509661 14.929870
vt 14.402830 0.000000
vt 28.509661 160.752701
vt 25.280500 160.752701
vt 25.280500 14.929870
vt 1.854840 14.929870
vt 1.854840 160.752701
vt 0.000000 160.752701
vt 0.000000 0.000000
vt 79.851181 14.929870
vt 81.706009 160.752701
vt 79.851181 160.752701
vt 56.425510 14.929870
vt 81.706009 0.000000
vt 56.425510 160.752701
vt 48.661560 160.752701
vt 48.661560 14.929870
vt 33.044449 14.929870
vt 0.000000 0.000000
vt 33.044449 160.752701
vt 25.280500 160.752701
vt 25.280500 14.929870
vt 1.854840 14.929870
vt 1.854840 160.752701
vt 0.000000 160.752701
vt 20.759069 14.929870
vt 25.901020 160.752701
vt 20.759069 160.752701
vt 0.000000 0.000000
vt 5.141960 14.929870
vt 25.901020 0.000000
vt 5.141960 160.752701
vt 0.000000 160.752701
vt 27.928061 14.929870
vt 32.430450 160.752701
vt 27.928061 160.752701
vt 4.502390 14.929870
vt 32.430450 0.000000
vt 4.502390 160.752701
vt 0.000000 160.752701
vt 0.000000 0.000000
vt 33.643631 14.929870
vt 36.053040 160.752701
vt 33.643631 160.752701
vt 2.409410 14.929870
vt 36.053040 0.000000
vt 2.409410 160.752701
vt 0.000000 160.752701
vt 0.000000 0.000000
vt 80.009621 14.929870
vt 81.864449 160.752701
vt 80.009621 160.752701
vt 56.583950 14.929870
vt 81.864449 0.000000
vt 56.583950 160.752701
vt 52.645061 160.752701
vt 52.645061 14.929870
vt 29.219391 14.929870
vt 0.000000 0.000000
vt 29.219391 160.752701
vt 25.280500 160.752701
vt 25.280500 14.929870
vt 1.854840 14.929870
vt 1.854840 160.752701
vt 0.000000 160.752701
vt 52.416889 14.929870
vt 57.982441 160.752701
vt 52.416889 160.752701
vt 5.565560 14.929870
vt 57.982441 0.000000
vt 5.565560 160.752701
vt 0.000000 160.752701
vt 0.000000 0.000000
vt 33.717609 14.929870
vt 36.201000 160.752701
vt 33.717609 160.752701
vt 2.483390 14.929870
vt 36.201000 0.000000
vt 52.565319 14.929870
vt 58.279308 160.752701
vt 52.565319 160.752701
vt 5.713990 14.929870
vt 58.279308 0.000000
vt 5.713990 160.752701
vt 0.000000 160.752701
vt 0.000000 0.000000
vt 2.483390 160.752701
vt 0.000000 160.752701
vt 0.000000 0.000000
vn -0.8798 0.4754 0.0000
vn -0.8799 0.4752 0.0000
vn -0.8798 0.4753 0.0000
vn -0.8800 0.4751 0.0000
vn -0.8797 0.4754 0.0000
vn -0.8799 0.4753 0.0000
vn -0.8797 0.4755 -0.0003
vn -0.8799 0.4751 0.0000
vn -0.8800 0.4750 0.0000
vn -0.4763 -0.8793 0.0000
vn -0.4762 -0.8793 0.0000
vn -0.4763 -0.8793 -0.0001
vn -0.8790 0.4768 0.0000
vn -0.8790 0.4769 0.0000
vn -0.8789 0.4770 0.0000
vn 0.8798 -0.4753 0.0000
vn 0.8798 -0.4754 0.0000
vn 0.4766 0.8791 0.0000
vn 0.4765 0.8792 -0.0000
vn 0.4756 0.8797 0.0000
vn 0.4754 0.8798 -0.0000
vn 0.4752 0.8799 0.0000
vn 0.4753 0.8798 0.0000
vn 0.4752 0.8799 -0.0003
vn 0.8795 -0.4759 0.0000
vn 0.8795 -0.4758 0.0000
vn 0.8796 -0.4758 0.0000
vn -0.4762 -0.8794 -0.0000
vn -0.4761 -0.8794 0.0000
vn 0.8791 -0.4766 0.0000
vn 0.8792 -0.4765 0.0000
vn 0.8792 -0.4764 0.0000
vn -0.4763 -0.8793 0.0001
vn 0.4753 0.8798 0.0001
s off
f 1/1/1 2/2/1 3/3/1
f 4/4/2 5/5/2 1/1/2
f 2/2/3 1/1/3 5/5/3
f 6/6/4 7/7/4 4/4/4
f 7/7/2 8/8/2 4/4/2
f 4/4/2 8/8/2 9/9/2
f 4/4/2 9/9/2 5/5/2
f 8/8/2 10/10/2 9/9/2
f 11/11/5 12/12/5 10/10/5
f 12/12/6 13/13/6 10/10/6
f 9/9/7 10/10/7 13/13/7
f 13/13/2 14/14/2 15/15/2
f 9/9/2 13/13/2 15/15/2
f 16/16/4 17/17/4 14/14/4
f 17/17/2 18/18/2 14/14/2
f 14/14/2 18/18/2 15/15/2
f 18/18/3 19/19/3 15/15/3
f 20/20/8 21/21/8 19/19/8
f 21/21/9 22/22/9 19/19/9
f 19/19/2 22/22/2 15/15/2
f 23/23/10 24/24/10 25/25/10
f 26/26/10 27/27/10 23/23/10
f 28/28/10 29/29/10 26/26/10
f 29/29/11 30/30/11 26/26/11
f 31/31/10 32/32/10 30/30/10
f 30/30/10 32/32/10 27/27/10
f 33/33/11 34/34/11 31/31/11
f 34/34/10 35/35/10 31/31/10
f 35/35/12 32/32/12 31/31/12
f 36/36/10 32/32/10 35/35/10
f 37/37/11 38/38/11 36/36/11
f 38/38/11 32/32/11 36/36/11
f 39/39/13 40/40/13 41/41/13
f 42/42/14 39/39/14 43/43/14
f 40/40/15 39/39/15 44/44/15
f 45/45/14 46/46/14 43/43/14
f 46/46/13 42/42/13 43/43/13
f 47/47/16 48/48/16 49/49/16
f 50/50/17 51/51/17 47/47/17
f 48/48/17 47/47/17 51/51/17
f 52/52/16 53/53/16 50/50/16
f 53/53/16 54/54/16 50/50/16
f 54/54/17 51/51/17 50/50/17
f 55/55/18 56/56/18 57/57/18
f 58/58/19 59/59/19 55/55/19
f 56/56/19 55/55/19 59/59/19
f 60/60/19 61/61/19 58/58/19
f 61/61/18 62/62/18 58/58/18
f 62/62/19 59/59/19 58/58/19
f 63/63/20 64/64/20 65/65/20
f 66/66/21 67/67/21 63/63/21
f 64/64/22 63/63/22 67/67/22
f 68/68/23 69/69/23 66/66/23
f 69/69/23 70/70/23 66/66/23
f 71/71/21 72/72/21 70/70/21
f 70/70/21 72/72/21 67/67/21
f 73/73/21 74/74/21 71/71/21
f 74/74/21 75/75/21 71/71/21
f 75/75/24 72/72/24 71/71/24
f 76/76/23 72/72/23 75/75/23
f 77/77/23 78/78/23 76/76/23
f 78/78/20 72/72/20 76/76/20
f 79/79/25 80/80/25 81/81/25
f 82/82/26 83/83/26 79/79/26
f 80/80/27 79/79/27 83/83/27
f 84/84/25 85/85/25 82/82/25
f 85/85/27 86/86/27 82/82/27
f 86/86/26 83/83/26 82/82/26
f 87/87/11 88/88/11 89/89/11
f 90/90/28 91/91/28 87/87/28
f 88/88/29 87/87/29 91/91/29
f 95/92/30 96/93/30 97/94/30
f 98/95/31 99/96/31 95/92/31
f 96/93/32 95/92/32 99/96/32
f 100/97/30 101/98/30 98/95/30
f 101/98/32 102/99/32 98/95/32
s 1
f 24/24/10 23/23/10 27/27/10
f 30/30/33 27/27/33 26/26/33
f 42/42/14 44/44/14 39/39/14
f 70/70/34 67/67/34 66/66/34
f 92/100/29 93/101/29 90/90/11
f 93/101/29 94/102/28 90/90/11
f 94/102/28 91/91/28 90/90/11
f 102/99/31 99/96/31 98/95/31
