# Blender v3.0.1 OBJ File: 'rockerfeller_plaza.blend'
# www.blender.org
o geometryt000010000010000110010110000110000110100000010100st220
v 880.958923 -137.682281 140.265213
v 869.400146 -159.177979 140.265213
v 873.950623 -133.911682 140.265213
v 860.317749 -159.250687 140.265213
v 867.334534 -163.021286 140.265213
v 869.400146 -159.177979 162.565216
v 873.950623 -133.911682 162.565216
v 860.317749 -159.250687 162.565216
v 880.958923 -137.682281 162.565216
v 867.334534 -163.021286 162.565216
vt 0.207530 0.269500
vt 0.250320 0.245690
vt 0.202890 0.255460
vt 0.253340 0.227380
vt 0.257970 0.241440
vt 0.250320 0.245690
vt 0.202890 0.255460
vt 0.253340 0.227380
vt 0.207530 0.269500
vt 0.257970 0.241440
vn 0.0000 0.0000 -1.0000
vn 0.0000 0.0000 1.0000
s off
f 1/1/1 2/2/1 3/3/1
f 4/4/1 2/2/1 5/5/1
f 3/3/1 2/2/1 4/4/1
f 6/6/2 7/7/2 8/8/2
f 9/9/2 7/7/2 6/6/2
f 6/6/2 8/8/2 10/10/2
