# Blender v3.0.1 OBJ File: 'rockerfeller_plaza.blend'
# www.blender.org
o geometryt000010000010000110010110000110000110100000010110st0
v 1195.762329 -85.735588 188.220428
v 1197.371216 -86.609245 188.220428
v 1197.371216 -86.609245 210.866241
v 1195.762329 -85.735588 210.866241
v 1199.510986 -87.771248 188.220428
v 1201.119995 -88.644905 188.220428
v 1201.119995 -88.644905 210.866241
v 1199.510986 -87.771248 210.866241
v 1197.369385 -82.049065 188.220428
v 1195.623657 -85.267685 188.220428
v 1195.623657 -85.267685 210.866241
v 1197.369385 -82.049065 210.866241
v 1199.843872 -77.486717 188.220428
v 1198.098145 -80.705338 188.220428
v 1198.098145 -80.705338 210.866241
v 1199.843872 -77.486717 210.866241
v 1202.318237 -72.924370 210.866241
v 1202.318237 -72.924370 188.220428
v 1200.572632 -76.142975 188.220428
v 1200.572632 -76.142975 210.866241
v 1201.587646 -88.506279 188.220428
v 1203.333252 -85.287659 188.220428
v 1203.333252 -85.287659 210.866241
v 1201.587646 -88.506279 210.866241
v 1204.062012 -83.943924 188.220428
v 1205.807739 -80.725304 188.220428
v 1205.807739 -80.725304 210.866241
v 1204.062012 -83.943924 210.866241
v 1206.536499 -79.381569 210.866241
v 1206.536499 -79.381569 188.220428
v 1208.282227 -76.162949 188.220428
v 1208.282227 -76.162949 210.866241
v 1204.394897 -73.659393 210.866241
v 1204.394897 -73.659393 188.220428
v 1202.785889 -72.785736 188.220428
v 1202.785889 -72.785736 210.866241
v 1208.143555 -75.695045 210.866241
v 1208.143555 -75.695045 188.220428
v 1206.534668 -74.821388 188.220428
v 1206.534668 -74.821388 210.866241
vt 0.000000 0.000000
vt 0.062500 0.000000
vt 0.062500 1.500000
vt 0.000000 1.500000
vt 0.000000 0.000000
vt 0.062500 0.000000
vt 0.062500 1.500000
vt 0.000000 1.500000
vt 0.000000 0.000000
vt 0.125000 0.000000
vt 0.125000 1.500000
vt 0.000000 1.500000
vt 0.000000 0.000000
vt 0.125000 0.000000
vt 0.125000 1.500000
vt 0.000000 1.500000
vt 0.000000 1.500000
vt 0.000000 0.000000
vt 0.125000 0.000000
vt 0.125000 1.500000
vt 0.000000 0.000000
vt 0.125000 0.000000
vt 0.125000 1.500000
vt 0.000000 1.500000
vt 0.000000 0.000000
vt 0.125000 0.000000
vt 0.125000 1.500000
vt 0.000000 1.500000
vt 0.000000 1.500000
vt 0.000000 0.000000
vt 0.125000 0.000000
vt 0.125000 1.500000
vt 0.000000 1.500000
vt 0.000000 0.000000
vt 0.062500 0.000000
vt 0.062500 1.500000
vt 0.000000 1.500000
vt 0.000000 0.000000
vt 0.062500 0.000000
vt 0.062500 1.500000
vn -0.4772 -0.8788 0.0000
vn -0.8790 0.4768 0.0000
vn -0.8791 0.4767 0.0000
vn 0.8791 -0.4767 0.0000
vn 0.8790 -0.4768 0.0000
vn 0.4771 0.8788 0.0000
vn 0.4772 0.8788 0.0000
s off
f 1/1/1 2/2/1 3/3/1
f 4/4/1 1/1/1 3/3/1
f 5/5/1 6/6/1 7/7/1
f 8/8/1 5/5/1 7/7/1
f 9/9/2 10/10/2 11/11/2
f 12/12/3 9/9/3 11/11/3
f 13/13/2 14/14/2 15/15/2
f 16/16/2 13/13/2 15/15/2
f 17/17/2 18/18/2 19/19/2
f 17/17/2 19/19/2 20/20/2
f 21/21/4 22/22/4 23/23/4
f 24/24/5 21/21/5 23/23/5
f 25/25/5 26/26/5 27/27/5
f 28/28/5 25/25/5 27/27/5
f 29/29/5 30/30/5 31/31/5
f 29/29/5 31/31/5 32/32/5
f 33/33/6 34/34/6 35/35/6
f 33/33/7 35/35/7 36/36/7
f 37/37/7 38/38/7 39/39/7
f 37/37/7 39/39/7 40/40/7
