# Blender v3.0.1 OBJ File: 'rockerfeller_plaza.blend'
# www.blender.org
o geometryt000010000010000110010110000110000110100000010100st240
v 756.604919 -190.458786 150.195740
v 758.380249 -191.415283 166.638031
v 756.604919 -190.458786 166.638031
v 753.155823 -188.600677 149.338028
v 754.931152 -189.557083 150.195740
v 758.380249 -191.415283 149.338028
v 754.931152 -189.557083 166.638031
v 753.155823 -188.600677 166.638031
v 753.318787 -188.296585 150.195740
v 753.155823 -188.600677 166.638031
v 753.318787 -188.296585 166.638031
v 755.115112 -184.945389 150.195740
v 753.155823 -188.600677 149.338028
v 755.115112 -184.945389 166.638031
v 756.089294 -183.127991 166.638031
v 756.089294 -183.127991 150.195740
v 756.987427 -181.452377 150.195740
v 756.987427 -181.452377 166.638031
v 757.961548 -179.634979 166.638031
v 757.961548 -179.634979 150.195740
v 758.859741 -177.959381 150.195740
v 758.859741 -177.959381 166.638031
v 759.833862 -176.141983 166.638031
v 759.833862 -176.141983 150.195740
v 764.975098 -166.550385 149.338028
v 760.731995 -174.466385 150.195740
v 760.731995 -174.466385 166.638031
v 761.706177 -172.648987 166.638031
v 761.706177 -172.648987 150.195740
v 762.604309 -170.973389 150.195740
v 762.604309 -170.973389 166.638031
v 763.578430 -169.155991 166.638031
v 763.578430 -169.155991 150.195740
v 765.374756 -165.804779 150.195740
v 765.374756 -165.804779 166.638031
v 765.537720 -165.500687 166.638031
v 765.537720 -165.500687 149.338028
v 759.034729 -190.199585 150.195740
v 759.198242 -189.895782 166.638031
v 759.034729 -190.199585 166.638031
v 758.380249 -191.415283 149.338028
v 758.543823 -191.111481 150.195740
v 759.198242 -189.895782 149.338028
v 758.543823 -191.111481 166.638031
v 758.380249 -191.415283 166.638031
v 770.652222 -168.647781 150.195740
v 770.815918 -168.344086 166.638031
v 770.652222 -168.647781 166.638031
v 768.848022 -171.994781 150.195740
v 770.815918 -168.344086 149.338028
v 768.848022 -171.994781 166.638031
v 768.033325 -173.505981 166.638031
v 768.033325 -173.505981 150.195740
v 767.131226 -175.179489 150.195740
v 767.131226 -175.179489 166.638031
v 766.316528 -176.690781 166.638031
v 766.316528 -176.690781 150.195740
v 765.414429 -178.364288 150.195740
v 765.414429 -178.364288 166.638031
v 764.599792 -179.875580 166.638031
v 764.599792 -179.875580 150.195740
v 759.198242 -189.895782 149.338028
v 763.697632 -181.549088 150.195740
v 763.697632 -181.549088 166.638031
v 762.882996 -183.060379 166.638031
v 762.882996 -183.060379 150.195740
v 761.980896 -184.733887 150.195740
v 761.980896 -184.733887 166.638031
v 761.166199 -186.245087 166.638031
v 761.166199 -186.245087 150.195740
v 759.362000 -189.592087 150.195740
v 759.362000 -189.592087 166.638031
v 759.198242 -189.895782 166.638031
v 767.366882 -166.485977 150.195740
v 765.591492 -165.529480 166.638031
v 767.366882 -166.485977 166.638031
v 770.815918 -168.344086 149.338028
v 769.040588 -167.387680 150.195740
v 765.591492 -165.529480 149.338028
v 769.040588 -167.387680 166.638031
v 770.815918 -168.344086 166.638031
vt 5.022760 1.099640
vt 7.608140 22.179489
vt 5.022760 22.179489
vt 0.000000 0.000000
vt 2.585380 1.099640
vt 7.608140 0.000000
vt 2.585380 22.179489
vt 0.000000 22.179489
vt 33.159199 1.099640
vt 33.601509 22.179489
vt 33.159199 22.179489
vt 28.284430 1.099640
vt 33.601509 0.000000
vt 28.284430 22.179489
vt 25.640869 22.179489
vt 25.640869 1.099640
vt 23.203489 1.099640
vt 23.203489 22.179489
vt 20.559919 22.179489
vt 20.559919 1.099640
vt 18.122540 1.099640
vt 18.122540 22.179489
vt 15.478970 22.179489
vt 15.478970 1.099640
vt 1.526900 0.000000
vt 13.041590 1.099640
vt 13.041590 22.179489
vt 10.398030 22.179489
vt 10.398030 1.099640
vt 7.960640 1.099640
vt 7.960640 22.179489
vt 5.317080 22.179489
vt 5.317080 1.099640
vt 0.442310 1.099640
vt 0.442310 22.179489
vt 0.000000 22.179489
vt 0.000000 0.000000
vt 1.770060 1.099640
vt 2.212370 22.179489
vt 1.770060 22.179489
vt 0.000000 0.000000
vt 0.442310 1.099640
vt 2.212370 0.000000
vt 0.442310 22.179489
vt 0.000000 22.179489
vt 30.946930 1.099640
vt 31.389240 22.179489
vt 30.946930 22.179489
vt 26.072161 1.099640
vt 31.389240 0.000000
vt 26.072161 22.179489
vt 23.871050 22.179489
vt 23.871050 1.099640
vt 21.433670 1.099640
vt 21.433670 22.179489
vt 19.232559 22.179489
vt 19.232559 1.099640
vt 16.795170 1.099640
vt 16.795170 22.179489
vt 14.594060 22.179489
vt 14.594060 1.099640
vt 0.000000 0.000000
vt 12.156680 1.099640
vt 12.156680 22.179489
vt 9.955571 22.179489
vt 9.955571 1.099640
vt 7.518190 1.099640
vt 7.518190 22.179489
vt 5.317080 22.179489
vt 5.317080 1.099640
vt 0.442310 1.099640
vt 0.442310 22.179489
vt 0.000000 22.179489
vt 5.022760 1.099640
vt 7.608130 22.179489
vt 5.022760 22.179489
vt 0.000000 0.000000
vt 2.585370 1.099640
vt 7.608130 0.000000
vt 2.585370 22.179489
vt 0.000000 22.179489
vn -0.4743 -0.8803 0.0000
vn -0.4743 -0.8804 0.0000
vn -0.4743 -0.8804 0.0001
vn -0.8814 0.4724 0.0000
vn -0.8813 0.4725 0.0000
vn -0.8814 0.4724 -0.0001
vn -0.8814 0.4724 0.0001
vn -0.8814 0.4724 -0.0003
vn -0.8814 0.4725 0.0001
vn -0.8814 0.4723 0.0000
vn 0.8806 -0.4738 0.0000
vn 0.8805 -0.4741 -0.0000
vn 0.8805 -0.4740 -0.0000
vn 0.8806 -0.4739 0.0000
vn 0.8803 -0.4745 0.0000
vn 0.8802 -0.4747 0.0000
vn 0.8802 -0.4745 0.0000
vn 0.8802 -0.4746 0.0000
vn 0.8802 -0.4745 -0.0002
vn 0.8802 -0.4746 0.0001
vn 0.8802 -0.4745 -0.0001
vn 0.8803 -0.4744 0.0001
vn 0.8803 -0.4744 0.0000
vn 0.8803 -0.4745 -0.0003
vn 0.8802 -0.4745 0.0001
vn 0.8803 -0.4745 -0.0002
vn 0.8802 -0.4746 -0.0001
vn 0.8803 -0.4745 0.0002
vn 0.8801 -0.4748 0.0000
vn 0.4743 0.8804 0.0000
vn 0.4743 0.8803 0.0000
vn 0.4742 0.8804 0.0000
s off
f 1/1/1 2/2/1 3/3/1
f 4/4/2 1/1/2 5/5/2
f 4/4/3 6/6/3 1/1/3
f 2/2/2 1/1/2 6/6/2
f 7/7/2 8/8/2 5/5/2
f 8/8/2 4/4/2 5/5/2
f 9/9/4 10/10/4 11/11/4
f 12/12/4 13/13/4 9/9/4
f 10/10/5 9/9/5 13/13/5
f 14/14/4 15/15/4 12/12/4
f 15/15/5 16/16/5 12/12/5
f 12/12/6 16/16/6 13/13/6
f 16/16/7 17/17/7 13/13/7
f 18/18/4 19/19/4 17/17/4
f 19/19/4 20/20/4 17/17/4
f 13/13/7 17/17/7 20/20/7
f 13/13/8 20/20/8 21/21/8
f 22/22/4 23/23/4 21/21/4
f 23/23/4 24/24/4 21/21/4
f 21/21/6 24/24/6 25/25/6
f 13/13/4 21/21/4 25/25/4
f 24/24/6 26/26/6 25/25/6
f 27/27/5 28/28/5 26/26/5
f 28/28/4 29/29/4 26/26/4
f 26/26/9 29/29/9 25/25/9
f 29/29/4 30/30/4 25/25/4
f 31/31/4 32/32/4 30/30/4
f 32/32/4 33/33/4 30/30/4
f 30/30/6 33/33/6 25/25/6
f 33/33/4 34/34/4 25/25/4
f 35/35/4 36/36/4 34/34/4
f 36/36/10 37/37/10 34/34/10
f 34/34/4 37/37/4 25/25/4
f 38/38/11 39/39/11 40/40/11
f 41/41/12 38/38/12 42/42/12
f 41/41/13 43/43/13 38/38/13
f 39/39/14 38/38/14 43/43/14
f 44/44/12 45/45/12 42/42/12
f 46/46/15 47/47/15 48/48/15
f 49/49/15 50/50/15 46/46/15
f 47/47/16 46/46/16 50/50/16
f 51/51/17 52/52/17 49/49/17
f 52/52/18 53/53/18 49/49/18
f 53/53/19 50/50/19 49/49/19
f 53/53/20 54/54/20 50/50/20
f 55/55/17 56/56/17 54/54/17
f 56/56/15 57/57/15 54/54/15
f 54/54/21 57/57/21 50/50/21
f 57/57/22 58/58/22 50/50/22
f 59/59/17 60/60/17 58/58/17
f 60/60/23 61/61/23 58/58/23
f 61/61/24 62/62/24 58/58/24
f 58/58/15 62/62/15 50/50/15
f 63/63/25 62/62/25 61/61/25
f 64/64/15 65/65/15 63/63/15
f 65/65/15 66/66/15 63/63/15
f 66/66/26 62/62/26 63/63/26
f 67/67/27 62/62/27 66/66/27
f 68/68/18 69/69/18 67/67/18
f 69/69/17 70/70/17 67/67/17
f 70/70/28 62/62/28 67/67/28
f 71/71/15 62/62/15 70/70/15
f 72/72/15 73/73/15 71/71/15
f 73/73/29 62/62/29 71/71/29
f 74/74/30 75/75/30 76/76/30
f 77/77/31 74/74/31 78/78/31
f 77/77/30 79/79/30 74/74/30
f 75/75/30 74/74/30 79/79/30
f 80/80/30 81/81/30 78/78/30
f 81/81/32 77/77/32 78/78/32
s 1
f 45/45/12 41/41/12 42/42/12
