# Blender v3.0.1 OBJ File: 'rockerfeller_plaza.blend'
# www.blender.org
o geometryt000010000010000110010110000110000110100000010110st40
v 1080.176514 -75.651199 189.502213
v 1080.480103 -75.815125 264.121796
v 1080.176514 -75.651199 264.121796
v 1078.442017 -74.714523 189.502213
v 1080.480103 -75.815125 187.621796
v 1078.442017 -74.714523 264.121796
v 1077.363037 -74.131836 264.121796
v 1077.363037 -74.131836 189.502213
v 1075.628540 -73.195168 189.502213
v 1072.511475 -71.511879 187.621796
v 1075.628540 -73.195168 264.121796
v 1074.549561 -72.612480 264.121796
v 1074.549561 -72.612480 189.502213
v 1072.815063 -71.675804 189.502213
v 1072.815063 -71.675804 264.121796
v 1072.511475 -71.511879 264.121796
v 1072.675781 -71.208488 189.502213
v 1072.511475 -71.511879 264.121796
v 1072.675781 -71.208488 264.121796
v 1073.614258 -69.474991 189.502213
v 1072.511475 -71.511879 187.621796
v 1073.614258 -69.474991 264.121796
v 1074.731079 -67.412178 264.121796
v 1074.731079 -67.412178 189.502213
v 1076.608032 -63.945179 189.502213
v 1076.608032 -63.945179 264.121796
v 1077.724854 -61.882366 264.121796
v 1077.724854 -61.882366 189.502213
v 1079.601807 -58.415367 189.502213
v 1084.815063 -48.785858 187.621796
v 1079.601807 -58.415367 264.121796
v 1080.718628 -56.352566 264.121796
v 1080.718628 -56.352566 189.502213
v 1082.595581 -52.885555 189.502213
v 1082.595581 -52.885555 264.121796
v 1083.712402 -50.822758 264.121796
v 1083.712402 -50.822758 189.502213
v 1084.650879 -49.089256 189.502213
v 1084.650879 -49.089256 264.121796
v 1084.815063 -48.785858 264.121796
v 1092.611084 -53.403706 189.502213
v 1092.775269 -53.100296 264.121796
v 1092.611084 -53.403706 264.121796
v 1091.672729 -55.137276 189.502213
v 1092.775269 -53.100296 187.621796
v 1091.672729 -55.137276 264.121796
v 1090.557739 -57.197136 264.121796
v 1090.557739 -57.197136 189.502213
v 1088.681030 -60.664288 189.502213
v 1088.681030 -60.664288 264.121796
v 1087.566040 -62.724136 264.121796
v 1087.566040 -62.724136 189.502213
v 1085.689331 -66.191284 189.502213
v 1080.480103 -75.815125 187.621796
v 1085.689331 -66.191284 264.121796
v 1084.574341 -68.251144 264.121796
v 1084.574341 -68.251144 189.502213
v 1082.697632 -71.718300 189.502213
v 1082.697632 -71.718300 264.121796
v 1081.582642 -73.778145 264.121796
v 1081.582642 -73.778145 189.502213
v 1080.644287 -75.511726 189.502213
v 1080.644287 -75.511726 264.121796
v 1080.480103 -75.815125 264.121796
v 1085.118408 -48.950256 189.502213
v 1084.815063 -48.785858 264.121796
v 1085.118408 -48.950256 264.121796
v 1086.851440 -49.889568 189.502213
v 1084.815063 -48.785858 187.621796
v 1086.851440 -49.889568 264.121796
v 1087.928711 -50.473427 264.121796
v 1087.928711 -50.473427 189.502213
v 1089.661743 -51.412739 189.502213
v 1089.661743 -51.412739 264.121796
v 1090.739014 -51.996586 264.121796
v 1090.739014 -51.996586 189.502213
v 1092.775269 -53.100296 187.621796
v 1092.472046 -52.935905 189.502213
v 1092.472046 -52.935905 264.121796
v 1092.775269 -53.100296 264.121796
vt 10.200550 2.201900
vt 10.604530 89.578461
vt 10.200550 89.578461
vt 7.892300 2.201900
vt 10.604530 0.000000
vt 7.892300 89.578461
vt 6.456390 89.578461
vt 6.456390 2.201900
vt 4.148140 2.201900
vt 0.000000 0.000000
vt 4.148140 89.578461
vt 2.712230 89.578461
vt 2.712230 2.201900
vt 0.403980 2.201900
vt 0.403980 89.578461
vt 0.000000 89.578461
vt 29.856880 2.201900
vt 30.260860 89.578461
vt 29.856880 89.578461
vt 27.548630 2.201900
vt 30.260860 0.000000
vt 27.548630 89.578461
vt 24.801901 89.578461
vt 24.801901 2.201900
vt 20.185410 2.201900
vt 20.185410 89.578461
vt 17.438681 89.578461
vt 17.438681 2.201900
vt 12.822180 2.201900
vt 0.000000 0.000000
vt 12.822180 89.578461
vt 10.075450 89.578461
vt 10.075450 2.201900
vt 5.458960 2.201900
vt 2.712230 2.201900
vt 0.403980 2.201900
vt 0.403980 89.578461
vt 0.000000 89.578461
vt 29.840719 2.201900
vt 30.244699 89.578461
vt 29.840719 89.578461
vt 27.532471 2.201900
vt 30.244699 0.000000
vt 27.532471 89.578461
vt 24.789780 89.578461
vt 24.789780 2.201900
vt 20.173290 2.201900
vt 20.173290 89.578461
vt 17.430599 89.578461
vt 17.430599 2.201900
vt 12.814100 2.201900
vt 0.000000 0.000000
vt 12.814100 89.578461
vt 10.071410 89.578461
vt 10.071410 2.201900
vt 5.454920 2.201900
vt 5.454920 89.578461
vt 2.712230 89.578461
vt 2.712230 2.201900
vt 0.403980 2.201900
vt 0.000000 89.578461
vt 10.198210 2.201900
vt 10.602190 89.578461
vt 10.198210 89.578461
vt 7.889960 2.201900
vt 10.602190 0.000000
vt 7.889960 89.578461
vt 6.455220 89.578461
vt 6.455220 2.201900
vt 4.146970 2.201900
vt 4.146970 89.578461
vt 2.712230 89.578461
vt 2.712230 2.201900
vt 0.000000 0.000000
vt 0.403980 2.201900
vt 0.403980 89.578461
vt 0.000000 89.578461
vt 5.458960 89.578461
vt 2.712230 89.578461
vt 0.403980 89.578461
vn -0.4748 -0.8801 0.0000
vn -0.4752 -0.8799 -0.0000
vn -0.4751 -0.8799 0.0000
vn -0.8795 0.4759 0.0000
vn -0.8794 0.4761 0.0000
vn -0.8792 0.4765 0.0000
vn -0.8794 0.4762 0.0000
vn -0.8794 0.4761 0.0001
vn -0.8793 0.4762 0.0000
vn -0.8794 0.4760 0.0000
vn 0.8798 -0.4754 0.0000
vn 0.8795 -0.4760 -0.0000
vn 0.8794 -0.4760 0.0000
vn 0.8794 -0.4760 -0.0001
vn 0.8794 -0.4760 0.0001
vn 0.8794 -0.4761 0.0000
vn 0.4766 0.8791 0.0000
vn 0.4765 0.8792 -0.0000
vn 0.4762 0.8793 0.0000
vn 0.4764 0.8792 0.0000
vn 0.4765 0.8792 -0.0001
vn 0.4768 0.8790 0.0000
vn -0.4754 -0.8798 0.0000
vn -0.4750 -0.8800 0.0000
vn 0.8795 -0.4759 0.0000
s off
f 1/1/1 2/2/1 3/3/1
f 4/4/2 5/5/2 1/1/2
f 6/6/2 7/7/2 4/4/2
f 7/7/2 8/8/2 4/4/2
f 8/8/2 5/5/2 4/4/2
f 9/9/2 10/10/2 8/8/2
f 8/8/2 10/10/2 5/5/2
f 11/11/2 12/12/2 9/9/2
f 12/12/3 13/13/3 9/9/3
f 13/13/2 10/10/2 9/9/2
f 14/14/2 10/10/2 13/13/2
f 15/15/3 16/16/3 14/14/3
f 17/17/4 18/18/4 19/19/4
f 20/20/5 21/21/5 17/17/5
f 18/18/6 17/17/6 21/21/6
f 22/22/5 23/23/5 20/20/5
f 23/23/5 24/24/5 20/20/5
f 24/24/7 21/21/7 20/20/7
f 24/24/8 25/25/8 21/21/8
f 26/26/9 27/27/9 25/25/9
f 27/27/5 28/28/5 25/25/5
f 25/25/5 28/28/5 21/21/5
f 29/29/5 30/30/5 28/28/5
f 28/28/5 30/30/5 21/21/5
f 31/31/5 32/32/5 29/29/5
f 32/32/5 33/33/5 29/29/5
f 33/33/8 30/30/8 29/29/8
f 34/34/5 30/30/5 33/33/5
f 37/35/8 30/30/8 34/34/8
f 38/36/5 30/30/5 37/35/5
f 39/37/4 40/38/4 38/36/4
f 40/38/10 30/30/10 38/36/10
f 41/39/11 42/40/11 43/41/11
f 44/42/12 45/43/12 41/39/12
f 42/40/13 41/39/13 45/43/13
f 46/44/13 47/45/13 44/42/13
f 47/45/13 48/46/13 44/42/13
f 48/46/13 45/43/13 44/42/13
f 48/46/13 49/47/13 45/43/13
f 50/48/12 51/49/12 49/47/12
f 51/49/13 52/50/13 49/47/13
f 49/47/14 52/50/14 45/43/14
f 53/51/13 54/52/13 52/50/13
f 52/50/13 54/52/13 45/43/13
f 55/53/13 56/54/13 53/51/13
f 56/54/13 57/55/13 53/51/13
f 57/55/15 54/52/15 53/51/15
f 58/56/13 54/52/13 57/55/13
f 59/57/13 60/58/13 58/56/13
f 60/58/13 61/59/13 58/56/13
f 61/59/13 54/52/13 58/56/13
f 62/60/13 54/52/13 61/59/13
f 64/61/16 54/52/16 62/60/16
f 65/62/17 66/63/17 67/64/17
f 68/65/18 69/66/18 65/62/18
f 66/63/19 65/62/19 69/66/19
f 70/67/20 71/68/20 68/65/20
f 71/68/18 72/69/18 68/65/18
f 72/69/17 69/66/17 68/65/17
f 72/69/18 73/70/18 69/66/18
f 74/71/20 75/72/20 73/70/20
f 75/72/18 76/73/18 73/70/18
f 76/73/21 77/74/21 73/70/21
f 73/70/18 77/74/18 69/66/18
f 78/75/18 77/74/18 76/73/18
f 79/76/17 80/77/17 78/75/17
f 80/77/22 77/74/22 78/75/22
s 1
f 2/2/23 1/1/23 5/5/23
f 16/16/24 10/10/24 14/14/24
f 35/78/5 36/79/5 34/34/5
f 36/79/5 37/35/5 34/34/5
f 63/80/25 64/61/25 62/60/25
