# Blender v3.0.1 OBJ File: 'rockerfeller_plaza.blend'
# www.blender.org
o geometryt000010000010000110010110000110000110100000110000st119
v 856.471069 -148.876633 423.933289
v 868.718262 -126.284950 423.933289
v 860.590942 -151.071136 423.933289
v 868.865967 -155.570938 423.933289
v 899.443054 -149.096634 423.933289
v 902.038147 -144.336746 423.933289
v 899.015015 -150.045334 423.933289
v 883.487366 -163.527145 423.933289
v 882.280518 -165.728333 423.933289
v 888.550415 -169.130142 423.933289
v 890.401978 -165.744537 423.933289
v 893.476868 -160.135345 423.933289
v 868.718262 -126.284950 468.933289
v 856.471069 -148.876633 468.933289
v 860.590942 -151.071136 468.933289
v 868.768127 -136.172043 468.933289
v 869.857239 -134.187546 468.933289
v 897.879456 -149.427643 468.933289
v 899.443054 -149.096634 468.933289
v 902.038147 -144.336746 468.933289
v 899.015015 -150.045334 468.933289
v 869.857239 -134.187546 473.933289
v 860.590942 -151.071136 473.933289
v 868.865967 -155.570938 473.933289
v 872.593933 -148.777237 473.933289
v 880.996948 -153.347641 473.933289
v 899.015015 -150.045334 473.933289
v 889.736755 -158.101135 473.933289
v 893.476868 -160.135345 473.933289
v 883.487366 -163.527145 478.633270
v 872.593933 -148.777237 478.633270
v 868.865967 -155.570938 478.633270
v 893.476868 -160.135345 478.633270
v 888.550415 -169.130142 478.633270
v 882.280518 -165.728333 478.633270
v 890.401978 -165.744537 478.633270
vt 0.236700 0.213400
vt 0.191690 0.238610
vt 0.239380 0.221650
vt 0.244940 0.238220
vt 0.223430 0.300010
vt 0.213950 0.305350
vt 0.225300 0.299120
vt 0.254770 0.267510
vt 0.259160 0.265020
vt 0.263350 0.277580
vt 0.256600 0.281390
vt 0.245420 0.287720
vt 0.191690 0.238610
vt 0.236700 0.213400
vt 0.239380 0.221650
vt 0.209670 0.238480
vt 0.205710 0.240720
vt 0.224530 0.296850
vt 0.223430 0.300010
vt 0.213950 0.305350
vt 0.225300 0.299120
vt 0.205710 0.240720
vt 0.239380 0.221650
vt 0.244940 0.238220
vt 0.231390 0.245900
vt 0.237030 0.262730
vt 0.225300 0.299120
vt 0.242910 0.280230
vt 0.245420 0.287720
vt 0.254770 0.267510
vt 0.231390 0.245900
vt 0.244940 0.238220
vt 0.245420 0.287720
vt 0.263350 0.277580
vt 0.259160 0.265020
vt 0.256600 0.281390
vn 0.0000 0.0000 -1.0000
vn 0.0000 0.0000 1.0000
s off
f 1/1/1 2/2/1 3/3/1
f 2/2/1 4/4/1 3/3/1
f 4/4/1 2/2/1 5/5/1
f 6/6/1 5/5/1 2/2/1
f 4/4/1 7/7/1 8/8/1
f 4/4/1 5/5/1 7/7/1
f 9/9/1 8/8/1 10/10/1
f 11/11/1 10/10/1 8/8/1
f 12/12/1 11/11/1 8/8/1
f 7/7/1 12/12/1 8/8/1
f 13/13/2 14/14/2 15/15/2
f 13/13/2 15/15/2 16/16/2
f 13/13/2 16/16/2 17/17/2
f 13/13/2 17/17/2 18/18/2
f 19/19/2 13/13/2 18/18/2
f 19/19/2 20/20/2 13/13/2
f 18/18/2 21/21/2 19/19/2
f 22/22/2 23/23/2 24/24/2
f 22/22/2 24/24/2 25/25/2
f 25/25/2 26/26/2 22/22/2
f 27/27/2 22/22/2 26/26/2
f 28/28/2 27/27/2 26/26/2
f 29/29/2 27/27/2 28/28/2
f 30/30/2 31/31/2 32/32/2
f 33/33/2 31/31/2 30/30/2
f 34/34/2 30/30/2 35/35/2
f 30/30/2 34/34/2 36/36/2
f 33/33/2 30/30/2 36/36/2
