# Blender v3.0.1 OBJ File: 'rockerfeller_plaza.blend'
# www.blender.org
o geometryt000010000010000110010110000110000100110010110010st29
v 184.288300 -291.966064 290.929901
v 187.685211 -285.687256 290.929901
v 214.725311 -300.317657 290.929901
v 211.328400 -306.596466 290.929901
v 184.288300 -291.966064 313.429901
v 211.328400 -306.596466 313.429901
v 214.725311 -300.317657 313.429901
v 187.685211 -285.687256 313.429901
vt 0.473700 0.358250
vt 0.461190 0.365240
vt 0.479220 0.419400
vt 0.491720 0.412410
vt 0.473700 0.358250
vt 0.491720 0.412410
vt 0.479220 0.419400
vt 0.461190 0.365240
vn 0.0000 0.0000 -1.0000
vn 0.0000 0.0000 1.0000
s off
f 1/1/1 2/2/1 3/3/1
f 1/1/1 3/3/1 4/4/1
f 5/5/2 6/6/2 7/7/2
f 8/8/2 5/5/2 7/7/2
