# Blender v3.0.1 OBJ File: 'rockerfeller_plaza.blend'
# www.blender.org
o geometryt000010000010000110010110000110000110100000100110st127
v 689.654724 -290.427917 657.750549
v 689.958252 -290.591797 683.341919
v 689.654724 -290.427917 683.341919
v 685.292847 -288.072113 657.750549
v 689.958252 -290.591797 656.941956
v 685.292847 -288.072113 683.341919
v 684.551636 -287.671814 683.341919
v 684.551636 -287.671814 657.750549
v 683.097717 -286.886505 657.750549
v 683.097717 -286.886505 683.341919
v 682.356567 -286.486206 683.341919
v 682.356567 -286.486206 657.750549
v 677.994629 -284.130402 657.750549
v 677.994629 -284.130402 683.341919
v 677.253418 -283.730103 683.341919
v 677.253418 -283.730103 657.750549
v 675.799438 -282.944916 657.750549
v 675.799438 -282.944916 683.341919
v 675.058228 -282.544495 683.341919
v 675.058228 -282.544495 657.750549
v 663.094604 -276.083221 656.941956
v 670.696411 -280.188812 657.750549
v 670.696411 -280.188812 683.341919
v 669.955200 -279.788513 683.341919
v 669.955200 -279.788513 657.750549
v 668.501221 -279.003204 657.750549
v 668.501221 -279.003204 683.341919
v 667.760010 -278.602905 683.341919
v 667.760010 -278.602905 657.750549
v 663.398254 -276.247101 657.750549
v 663.398254 -276.247101 683.341919
v 663.094604 -276.083221 683.341919
v 663.625366 -275.097107 657.750549
v 663.094604 -276.083221 683.341919
v 663.625366 -275.097107 683.341919
v 665.191711 -272.186920 657.750549
v 663.094604 -276.083221 656.941956
v 665.191711 -272.186920 683.341919
v 665.722412 -271.200897 683.341919
v 665.722412 -271.200897 656.941956
v 666.026001 -271.364807 657.750549
v 665.722412 -271.200897 683.341919
v 666.026001 -271.364807 683.341919
v 670.388245 -273.720001 657.750549
v 665.722412 -271.200897 656.941956
v 670.388245 -273.720001 683.341919
v 671.130554 -274.120819 683.341919
v 671.130554 -274.120819 657.750549
v 672.584595 -274.905823 657.750549
v 672.584595 -274.905823 683.341919
v 673.326904 -275.306610 683.341919
v 673.326904 -275.306610 657.750549
v 677.689148 -277.661804 657.750549
v 677.689148 -277.661804 683.341919
v 678.431396 -278.062622 683.341919
v 678.431396 -278.062622 657.750549
v 679.885498 -278.847717 657.750549
v 692.594543 -285.709412 656.941956
v 679.885498 -278.847717 683.341919
v 680.627808 -279.248505 683.341919
v 680.627808 -279.248505 657.750549
v 684.990051 -281.603699 657.750549
v 684.990051 -281.603699 683.341919
v 685.732300 -282.004517 683.341919
v 685.732300 -282.004517 657.750549
v 687.186401 -282.789520 657.750549
v 687.186401 -282.789520 683.341919
v 687.928711 -283.190308 683.341919
v 687.928711 -283.190308 657.750549
v 692.290955 -285.545502 657.750549
v 692.290955 -285.545502 683.341919
v 692.594543 -285.709412 683.341919
v 692.061523 -286.696594 657.750549
v 692.594543 -285.709412 683.341919
v 692.061523 -286.696594 683.341919
v 690.491333 -289.604706 657.750549
v 692.594543 -285.709412 656.941956
v 690.491333 -289.604706 683.341919
v 689.958252 -290.591797 683.341919
v 689.958252 -290.591797 656.941956
vt 38.700291 1.036720
vt 39.142601 33.846149
vt 38.700291 33.846149
vt 32.344700 1.036720
vt 39.142601 0.000000
vt 32.344700 33.846149
vt 31.264700 33.846149
vt 31.264700 1.036720
vt 29.146170 1.036720
vt 29.146170 33.846149
vt 28.066160 33.846149
vt 28.066160 1.036720
vt 21.710569 1.036720
vt 21.710569 33.846149
vt 20.630569 33.846149
vt 20.630569 1.036720
vt 18.512039 33.846149
vt 17.432030 33.846149
vt 18.512039 1.036720
vt 17.432030 1.036720
vt 0.000000 0.000000
vt 11.076440 1.036720
vt 11.076440 33.846149
vt 9.996431 33.846149
vt 9.996431 1.036720
vt 7.877900 1.036720
vt 7.877900 33.846149
vt 6.797900 33.846149
vt 6.797900 1.036720
vt 0.442310 1.036720
vt 0.442310 33.846149
vt 0.000000 33.846149
vt 5.672730 1.036720
vt 7.108400 33.846149
vt 5.672730 33.846149
vt 1.435670 1.036720
vt 7.108400 0.000000
vt 1.435670 33.846149
vt 0.000000 33.846149
vt 0.000000 0.000000
vt 38.709740 1.036720
vt 39.152039 33.846149
vt 38.709740 33.846149
vt 32.354149 1.036720
vt 39.152039 0.000000
vt 32.354149 33.846149
vt 31.272570 33.846149
vt 31.272570 1.036720
vt 29.154039 33.846149
vt 28.072460 33.846149
vt 29.154039 1.036720
vt 28.072460 1.036720
vt 21.716869 1.036720
vt 21.716869 33.846149
vt 20.635290 33.846149
vt 20.635290 1.036720
vt 18.516760 1.036720
vt 0.000000 0.000000
vt 18.516760 33.846149
vt 17.435169 33.846149
vt 17.435169 1.036720
vt 11.079590 1.036720
vt 11.079590 33.846149
vt 9.998010 33.846149
vt 9.998010 1.036720
vt 7.879480 1.036720
vt 7.879480 33.846149
vt 6.797900 33.846149
vt 6.797900 1.036720
vt 0.442310 1.036720
vt 0.442310 33.846149
vt 0.000000 33.846149
vt 5.675350 1.036720
vt 7.113650 33.846149
vt 5.675350 33.846149
vt 1.438300 1.036720
vt 7.113650 0.000000
vt 1.438300 33.846149
vt 0.000000 33.846149
vt 0.000000 0.000000
vn -0.4750 -0.8800 0.0000
vn -0.4752 -0.8799 0.0000
vn -0.4751 -0.8799 0.0000
vn -0.4752 -0.8799 -0.0004
vn -0.4750 -0.8800 -0.0001
vn -0.4753 -0.8798 0.0000
vn -0.4753 -0.8798 -0.0003
vn -0.4751 -0.8799 -0.0001
vn -0.4747 -0.8802 0.0011
vn -0.4751 -0.8799 0.0001
vn -0.4751 -0.8799 0.0002
vn -0.4750 -0.8800 -0.0004
vn -0.4752 -0.8799 0.0002
vn -0.8806 0.4739 0.0000
vn -0.8805 0.4740 0.0000
vn 0.4751 0.8799 0.0000
vn 0.4751 0.8800 0.0000
vn 0.4753 0.8798 0.0000
vn 0.4753 0.8798 -0.0007
vn 0.4752 0.8799 0.0000
vn 0.4756 0.8796 0.0004
vn 0.4751 0.8800 0.0001
vn 0.4752 0.8799 -0.0007
vn 0.4751 0.8800 -0.0002
vn 0.4753 0.8798 0.0004
vn 0.8800 -0.4750 0.0000
vn 0.8799 -0.4751 0.0000
vn 0.8799 -0.4752 0.0000
vn 0.8800 -0.4750 0.0004
vn -0.4757 -0.8796 0.0001
vn -0.4757 -0.8796 0.0010
vn 0.4751 0.8800 0.0002
vn 0.4754 0.8798 -0.0012
vn 0.4752 0.8799 0.0002
s off
f 1/1/1 2/2/1 3/3/1
f 4/4/2 5/5/2 1/1/2
f 2/2/3 1/1/3 5/5/3
f 6/6/2 7/7/2 4/4/2
f 7/7/2 8/8/2 4/4/2
f 8/8/4 5/5/4 4/4/4
f 8/8/5 9/9/5 5/5/5
f 10/10/6 11/11/6 9/9/6
f 11/11/2 12/12/2 9/9/2
f 9/9/7 12/12/7 5/5/7
f 12/12/8 13/13/8 5/5/8
f 14/14/2 15/15/2 13/13/2
f 15/15/2 16/16/2 13/13/2
f 13/13/9 16/16/9 5/5/9
f 18/17/6 19/18/6 17/19/6
f 19/18/1 20/20/1 17/19/1
f 17/19/2 21/21/2 5/5/2
f 22/22/10 21/21/10 20/20/10
f 23/23/2 24/24/2 22/22/2
f 24/24/2 25/25/2 22/22/2
f 25/25/2 21/21/2 22/22/2
f 26/26/11 21/21/11 25/25/11
f 27/27/2 28/28/2 26/26/2
f 28/28/2 29/29/2 26/26/2
f 29/29/12 21/21/12 26/26/12
f 30/30/13 21/21/13 29/29/13
f 31/31/6 32/32/6 30/30/6
f 32/32/1 21/21/1 30/30/1
f 33/33/14 34/34/14 35/35/14
f 36/36/14 37/37/14 33/33/14
f 34/34/14 33/33/14 37/37/14
f 38/38/15 39/39/15 36/36/15
f 40/40/14 37/37/14 36/36/14
f 41/41/16 42/42/16 43/43/16
f 44/44/16 45/45/16 41/41/16
f 42/42/17 41/41/17 45/45/17
f 46/46/16 47/47/16 44/44/16
f 47/47/16 48/48/16 44/44/16
f 48/48/18 45/45/18 44/44/18
f 50/49/16 51/50/16 49/51/16
f 51/50/16 52/52/16 49/51/16
f 49/51/19 52/52/19 45/45/19
f 52/52/17 53/53/17 45/45/17
f 54/54/16 55/55/16 53/53/16
f 55/55/20 56/56/20 53/53/20
f 57/57/21 58/58/21 56/56/21
f 56/56/22 58/58/22 45/45/22
f 59/59/16 60/60/16 57/57/16
f 60/60/16 61/61/16 57/57/16
f 61/61/23 58/58/23 57/57/23
f 62/62/16 58/58/16 61/61/16
f 63/63/16 64/64/16 62/62/16
f 64/64/20 65/65/20 62/62/20
f 66/66/24 58/58/24 65/65/24
f 67/67/16 68/68/16 66/66/16
f 68/68/16 69/69/16 66/66/16
f 69/69/25 58/58/25 66/66/25
f 70/70/16 58/58/16 69/69/16
f 71/71/16 72/72/16 70/70/16
f 72/72/16 58/58/16 70/70/16
f 73/73/26 74/74/26 75/75/26
f 76/76/27 77/77/27 73/73/27
f 74/74/28 73/73/28 77/77/28
f 78/78/28 79/79/28 76/76/28
f 79/79/27 80/80/27 76/76/27
f 80/80/29 77/77/29 76/76/29
s 1
f 16/16/30 17/19/30 5/5/30
f 20/20/31 21/21/31 17/19/31
f 39/39/14 40/40/14 36/36/14
f 48/48/32 49/51/32 45/45/32
f 53/53/33 56/56/33 45/45/33
f 65/65/34 58/58/34 62/62/34
