# Blender v3.0.1 OBJ File: 'rockerfeller_plaza.blend'
# www.blender.org
o geometryt000010000010000110010110000110000110100000100110st12
v 710.219910 -317.201202 675.006836
v 710.219910 -317.201202 656.569702
v 706.158630 -324.718323 656.569702
v 706.158630 -324.718323 675.006836
v 712.144714 -313.638702 656.569702
v 711.332397 -315.142120 656.569702
v 711.332397 -315.142120 675.006836
v 712.144714 -313.638702 675.006836
v 714.069519 -310.076111 656.569702
v 713.257202 -311.579498 656.569702
v 713.257202 -311.579498 675.006836
v 714.069519 -310.076111 675.006836
v 719.243347 -300.499908 675.006836
v 719.243347 -300.499908 656.569702
v 715.182007 -308.016998 656.569702
v 715.182007 -308.016998 675.006836
v 706.298035 -325.186005 656.569702
v 707.801025 -325.999023 656.569702
v 707.801025 -325.999023 675.006836
v 706.298035 -325.186005 675.006836
v 710.798035 -327.620300 675.006836
v 710.798035 -327.620300 656.569702
v 712.300903 -328.433319 656.569702
v 712.300903 -328.433319 675.006836
v 712.768433 -328.293915 656.569702
v 716.829712 -320.776917 656.569702
v 716.829712 -320.776917 675.006836
v 712.768433 -328.293915 675.006836
v 717.942261 -318.717712 675.006836
v 717.942261 -318.717712 656.569702
v 718.754517 -317.214294 656.569702
v 718.754517 -317.214294 675.006836
v 719.867065 -315.155121 675.006836
v 719.867065 -315.155121 656.569702
v 720.679321 -313.651703 656.569702
v 720.679321 -313.651703 675.006836
v 721.791870 -311.592621 656.569702
v 725.853149 -304.075500 656.569702
v 725.853149 -304.075500 675.006836
v 721.791870 -311.592621 675.006836
v 721.214844 -301.171722 675.006836
v 721.214844 -301.171722 656.569702
v 719.710938 -300.360199 656.569702
v 719.710938 -300.360199 675.006836
v 725.407532 -303.434113 656.569702
v 723.903748 -302.622620 656.569702
v 723.903748 -302.622620 675.006836
v 725.407532 -303.434113 675.006836
vt 0.000000 1.250000
vt 0.000000 0.000000
vt 1.666670 0.000000
vt 1.666670 1.250000
vt 0.000000 0.000000
vt 0.333330 0.000000
vt 0.333330 1.250000
vt 0.000000 1.250000
vt 0.000000 0.000000
vt 0.333330 0.000000
vt 0.333330 1.250000
vt 0.000000 1.250000
vt 0.000000 1.250000
vt 0.000000 0.000000
vt 1.666670 0.000000
vt 1.666670 1.250000
vt 0.000000 0.000000
vt 0.333330 0.000000
vt 0.333330 1.250000
vt 0.000000 1.250000
vt 0.000000 1.250000
vt 0.000000 0.000000
vt 0.333330 0.000000
vt 0.333330 1.250000
vt 0.000000 0.000000
vt 1.666670 0.000000
vt 1.666670 1.250000
vt 0.000000 1.250000
vt 0.000000 1.250000
vt 0.000000 0.000000
vt 0.333330 0.000000
vt 0.333330 1.250000
vt 0.000000 1.250000
vt 0.000000 0.000000
vt 0.333330 0.000000
vt 0.333330 1.250000
vt 0.000000 0.000000
vt 1.666670 0.000000
vt 1.666670 1.250000
vt 0.000000 1.250000
vt 0.000000 1.250000
vt 0.000000 0.000000
vt 0.333330 0.000000
vt 0.333330 1.250000
vt 0.000000 0.000000
vt 0.333330 0.000000
vt 0.333330 1.250000
vt 0.000000 1.250000
vn -0.8798 0.4753 0.0000
vn -0.8798 0.4754 0.0000
vn -0.4758 -0.8795 0.0000
vn -0.4758 -0.8796 0.0000
vn 0.8798 -0.4753 0.0000
vn 0.8798 -0.4754 0.0000
vn 0.4749 0.8801 0.0000
vn 0.4749 0.8800 0.0000
s off
f 1/1/1 2/2/1 3/3/1
f 1/1/1 3/3/1 4/4/1
f 5/5/1 6/6/1 7/7/1
f 8/8/2 5/5/2 7/7/2
f 9/9/1 10/10/1 11/11/1
f 12/12/2 9/9/2 11/11/2
f 13/13/1 14/14/1 15/15/1
f 13/13/1 15/15/1 16/16/1
f 17/17/3 18/18/3 19/19/3
f 20/20/4 17/17/4 19/19/4
f 21/21/3 22/22/3 23/23/3
f 21/21/3 23/23/3 24/24/3
f 25/25/5 26/26/5 27/27/5
f 28/28/5 25/25/5 27/27/5
f 29/29/5 30/30/5 31/31/5
f 29/29/6 31/31/6 32/32/6
f 33/33/6 34/34/6 35/35/6
f 33/33/5 35/35/5 36/36/5
f 37/37/5 38/38/5 39/39/5
f 40/40/5 37/37/5 39/39/5
f 41/41/7 42/42/7 43/43/7
f 41/41/8 43/43/8 44/44/8
f 45/45/8 46/46/8 47/47/8
f 48/48/8 45/45/8 47/47/8
