# Blender v3.0.1 OBJ File: 'rockerfeller_plaza.blend'
# www.blender.org
o geometryt000010000010000110010110000110000100110010010110st48
v 144.879807 -233.483307 19.733980
v 138.102203 -246.016907 19.733980
v 138.102203 -246.016907 36.228981
v 144.879807 -233.483307 36.228981
v 138.688202 -246.876297 19.733980
v 142.447998 -248.910004 19.733980
v 142.447998 -248.910004 36.228981
v 138.688202 -246.876297 36.228981
v 143.490097 -248.925598 36.228981
v 143.490097 -248.925598 19.733980
v 150.263199 -236.389603 19.733980
v 150.263199 -236.389603 36.228981
v 149.681107 -235.528397 36.228981
v 149.681107 -235.528397 19.733980
v 145.917999 -233.500702 19.733980
v 145.917999 -233.500702 36.228981
vt 0.000000 0.000000
vt 2.500000 0.000000
vt 2.500000 1.333330
vt 0.000000 1.333330
vt 0.000000 0.000000
vt 0.750000 0.000000
vt 0.750000 1.333330
vt 0.000000 1.333330
vt 0.000000 1.333330
vt 0.000000 0.000000
vt 2.500000 0.000000
vt 2.500000 1.333330
vt 0.000000 1.333330
vt 0.000000 0.000000
vt 0.750000 0.000000
vt 0.750000 1.333330
vn -0.8796 0.4757 0.0000
vn -0.4758 -0.8796 0.0000
vn 0.8798 -0.4753 0.0000
vn 0.4744 0.8803 0.0000
s off
f 1/1/1 2/2/1 3/3/1
f 4/4/1 1/1/1 3/3/1
f 5/5/2 6/6/2 7/7/2
f 8/8/2 5/5/2 7/7/2
f 9/9/3 10/10/3 11/11/3
f 9/9/3 11/11/3 12/12/3
f 13/13/4 14/14/4 15/15/4
f 13/13/4 15/15/4 16/16/4
