# Blender v3.0.1 OBJ File: 'rockerfeller_plaza.blend'
# www.blender.org
o geometryt000010000010000110010110000110000100110010110110st89_H
v 154.108078 -292.262848 638.919617
v 154.108078 -292.262848 681.919678
v 154.621277 -291.302643 681.919678
v 154.458679 -291.606934 636.148804
v 153.744476 -292.943146 636.148804
v 153.581879 -293.247437 638.919617
v 154.621277 -291.302643 566.919617
v 154.108078 -292.262848 566.919617
v 154.458679 -291.606934 567.492554
v 153.581879 -293.247437 566.919617
v 153.744476 -292.943146 567.492554
v 153.581879 -293.247437 576.919617
v 153.653488 -293.285248 576.919617
v 153.579178 -293.245941 638.919617
v 153.579178 -293.245941 576.919617
v 154.114288 -293.528442 638.919617
v 154.114288 -293.528442 576.919617
v 154.108078 -292.262848 638.919617
v 154.437790 -292.439728 638.919617
v 154.108078 -292.262848 681.919678
v 154.634781 -292.545441 681.919678
v 154.634781 -292.545441 638.919617
v 155.124176 -290.341553 566.919617
v 154.620377 -291.302124 566.919617
v 154.620377 -291.302124 681.919678
v 154.620377 -291.302124 724.919678
v 155.124176 -290.341553 724.919678
v 154.620377 -291.302124 724.919678
v 154.620377 -291.302124 681.919678
v 155.003586 -291.499725 681.919678
v 155.146881 -291.573639 724.919678
v 155.146881 -291.573639 681.919678
v 155.608780 -289.432129 733.919678
v 155.608780 -289.432129 567.492554
v 155.124176 -290.341553 724.919678
v 155.124176 -290.341553 733.919678
v 163.172089 -275.238129 566.919617
v 162.687485 -276.147552 567.492554
v 155.124176 -290.341553 566.919617
v 162.687485 -276.147552 733.919678
v 163.172089 -275.238129 733.919678
v 155.124176 -290.341553 733.919678
v 155.124176 -290.341553 724.919678
v 155.630478 -290.608734 724.919678
v 155.659378 -290.623932 733.919678
v 155.659378 -290.623932 724.919678
v 163.681778 -275.509827 566.919617
v 163.172089 -275.238129 566.919617
v 163.172089 -275.238129 733.919678
v 163.681778 -275.509827 733.919678
v 178.246277 -306.259644 576.919617
v 178.169586 -306.217346 638.919617
v 178.169586 -306.217346 576.919617
v 178.721878 -306.521851 638.919617
v 178.721878 -306.521851 576.919617
v 178.690277 -305.256531 681.919678
v 178.690277 -305.256531 638.919617
v 179.041290 -305.440125 638.919617
v 179.250885 -305.549835 681.919678
v 179.250885 -305.549835 638.919617
v 180.301285 -303.606232 724.919678
v 179.763885 -304.600525 724.919678
v 179.763885 -304.600525 681.919678
v 179.250885 -305.549835 680.840088
v 179.250885 -305.549835 681.919678
v 179.910583 -304.329132 680.840088
v 179.910583 -304.329132 567.492554
v 180.301285 -303.606232 566.919617
v 179.763885 -304.600525 566.919617
v 179.115387 -305.800537 567.492554
v 179.115387 -305.800537 638.919617
v 178.724777 -306.523438 576.919617
v 178.724777 -306.523438 566.919617
v 179.250885 -305.549835 566.919617
v 178.724777 -306.523438 638.919617
v 179.211090 -304.295746 681.919678
v 179.763290 -304.600128 724.919678
v 179.211090 -304.295746 724.919678
v 179.612976 -304.517334 681.919678
v 179.763290 -304.600128 681.919678
v 179.739990 -303.312653 724.919678
v 180.270386 -303.590027 724.919678
v 179.739990 -303.312653 733.919678
v 180.300583 -303.605835 733.919678
v 180.300583 -303.605835 724.919678
v 188.152985 -288.818634 733.919678
v 188.152985 -288.818634 567.492554
v 188.314789 -288.513947 733.919678
v 187.368576 -290.295837 567.492554
v 188.314789 -288.513947 566.919617
v 186.373886 -292.168945 733.919678
v 187.368576 -290.295837 733.919678
v 186.373886 -292.168945 567.492554
v 184.804977 -295.123352 567.492554
v 183.810287 -296.996429 733.919678
v 184.804977 -295.123352 733.919678
v 183.810287 -296.996429 567.492554
v 180.300583 -303.605835 566.919617
v 182.241486 -299.950836 567.492554
v 181.246780 -301.823944 733.919678
v 182.241486 -299.950836 733.919678
v 181.246780 -301.823944 567.492554
v 180.462387 -303.301147 567.492554
v 180.462387 -303.301147 733.919678
v 180.300583 -303.605835 724.919678
v 180.300583 -303.605835 733.919678
v 188.314789 -288.513947 566.919617
v 187.737183 -288.209747 566.919617
v 187.737183 -288.209747 733.919678
v 188.314789 -288.513947 733.919678
vt 1.093150 84.210541
vt 1.093150 134.502899
vt 0.000000 134.502899
vt 1.867610 80.969780
vt 2.214000 84.210541
vt 0.000000 0.000000
vt 0.346390 80.969780
vt 2.214000 0.000000
vt 1.867610 0.670050
vt 1.093150 0.000000
vt 0.346390 0.670050
vt 2.214000 11.695910
vt 0.607530 72.514618
vt 0.000000 72.514618
vt 0.084380 0.000000
vt 0.607530 0.000000
vt 0.000000 0.000000
vt 0.375710 0.000000
vt 0.000000 50.292400
vt 0.600100 50.292400
vt 0.600100 0.000000
vt 0.000000 0.000000
vt 1.089100 0.000000
vt 1.089100 134.502899
vt 1.089100 184.795303
vt 0.000000 184.795303
vt 0.000000 50.292400
vt 0.000000 0.000000
vt 0.432920 0.000000
vt 0.594790 50.292400
vt 0.594790 0.000000
vt 16.147890 195.321594
vt 16.147890 0.670050
vt 17.182480 184.795303
vt 17.182480 195.321594
vt 0.000000 0.000000
vt 1.034590 0.670050
vt 17.182480 0.000000
vt 1.034590 195.321594
vt 0.000000 195.321594
vt 0.000000 10.526320
vt 0.000000 0.000000
vt 0.574790 0.000000
vt 0.607530 10.526320
vt 0.000000 0.000000
vt 0.579870 0.000000
vt 0.579870 195.321594
vt 0.000000 195.321594
vt 0.087940 0.000000
vt 0.000000 72.514618
vt 0.000000 0.000000
vt 0.633170 72.514618
vt 0.633170 0.000000
vt 0.000000 50.292400
vt 0.000000 0.000000
vt 0.397690 0.000000
vt 0.635200 50.292400
vt 0.635200 0.000000
vt 3.329210 184.795303
vt 2.194500 184.795303
vt 2.194500 134.502899
vt 1.111110 133.240204
vt 1.111110 134.502899
vt 2.504230 133.240204
vt 2.504230 0.670050
vt 3.329210 0.000000
vt 2.194500 0.000000
vt 0.824980 0.670050
vt 0.824980 84.210541
vt 0.000000 11.695910
vt 0.000000 0.000000
vt 1.111110 0.000000
vt 0.000000 84.210541
vt 0.000000 0.000000
vt 0.633170 50.292400
vt 0.000000 50.292400
vt 0.460850 0.000000
vt 0.000000 0.000000
vt 0.600970 0.000000
vt 0.000000 10.526320
vt 0.635200 10.526320
vt 0.635200 0.000000
vt 16.810049 195.321594
vt 16.810049 0.670050
vt 17.156441 195.321594
vt 15.130800 0.670050
vt 17.156441 0.000000
vt 13.001420 195.321594
vt 15.130800 195.321594
vt 13.001420 0.670050
vt 9.642910 0.670050
vt 7.513530 195.321594
vt 9.642910 195.321594
vt 7.513530 0.670050
vt 0.000000 0.000000
vt 4.155020 0.670050
vt 2.025640 195.321594
vt 4.155020 195.321594
vt 2.025640 0.670050
vt 0.346390 0.670050
vt 0.346390 195.321594
vt 0.000000 184.795303
vt 0.000000 195.321594
vt 0.000000 0.000000
vt 0.655410 0.000000
vt 0.655410 195.321594
vt 0.000000 195.321594
vt 0.000000 0.000000
vt 0.607530 0.000000
vt 0.633170 0.000000
vn -0.8819 0.4714 0.0000
vn -0.8820 0.4713 0.0000
vn -0.8818 0.4717 -0.0000
vn -0.4669 -0.8843 0.0000
vn -0.4667 -0.8844 0.0000
vn -0.4727 -0.8812 0.0000
vn -0.4728 -0.8812 0.0000
vn -0.4729 -0.8811 0.0000
vn -0.8856 0.4645 0.0000
vn -0.4583 -0.8888 0.0000
vn -0.4581 -0.8889 -0.0000
vn -0.8825 0.4703 0.0000
vn -0.8826 0.4702 -0.0001
vn -0.4666 -0.8844 0.0000
vn 0.4704 0.8825 0.0000
vn 0.4704 0.8824 0.0000
vn -0.4826 -0.8758 -0.0000
vn -0.4828 -0.8757 -0.0000
vn -0.4635 -0.8861 0.0000
vn -0.4636 -0.8861 -0.0000
vn 0.8797 -0.4755 0.0000
vn 0.8798 -0.4754 0.0000
vn 0.8798 -0.4753 0.0000
vn 0.8797 -0.4754 0.0000
vn -0.4827 -0.8758 0.0000
vn -0.4634 -0.8861 0.0000
vn -0.4632 -0.8863 0.0000
vn 0.8832 -0.4690 0.0000
vn 0.8832 -0.4689 0.0000
vn 0.8832 -0.4690 -0.0002
vn 0.8834 -0.4686 -0.0001
vn 0.8831 -0.4691 0.0000
vn 0.8832 -0.4690 -0.0001
vn 0.8833 -0.4689 0.0000
vn 0.4660 0.8848 0.0000
vn -0.8819 0.4715 0.0000
vn -0.4668 -0.8844 -0.0000
vn -0.4825 -0.8759 0.0000
s off
f 1/1/1 2/2/1 3/3/1
f 5/4/2 6/5/2 1/1/2
f 7/6/2 4/7/2 3/3/2
f 10/8/1 11/9/1 8/10/1
f 8/10/2 11/9/2 9/11/2
f 12/12/3 6/5/3 5/4/3
f 16/13/4 14/14/4 13/15/4
f 17/16/5 16/13/5 13/15/5
f 18/17/6 19/18/6 20/19/6
f 19/18/7 21/20/7 20/19/7
f 21/20/8 19/18/8 22/21/8
f 23/22/9 24/23/9 25/24/9
f 23/22/9 25/24/9 26/25/9
f 23/22/9 26/25/9 27/26/9
f 28/27/10 29/28/10 30/29/10
f 31/30/10 28/27/10 30/29/10
f 31/30/11 30/29/11 32/31/11
f 33/32/12 34/33/12 35/34/12
f 35/34/12 36/35/12 33/32/12
f 37/36/13 34/33/13 38/37/13
f 37/36/12 39/38/12 34/33/12
f 35/34/12 34/33/12 39/38/12
f 38/37/12 40/39/12 41/40/12
f 41/40/12 37/36/12 38/37/12
f 42/41/5 43/42/5 44/43/5
f 45/44/14 42/41/14 44/43/14
f 47/45/15 48/46/15 49/47/15
f 47/45/16 49/47/16 50/48/16
f 51/49/17 52/50/17 53/51/17
f 54/52/18 52/50/18 51/49/18
f 55/53/18 54/52/18 51/49/18
f 56/54/19 57/55/19 58/56/19
f 59/57/20 56/54/20 58/56/20
f 60/58/19 59/57/19 58/56/19
f 61/59/21 62/60/21 63/61/21
f 64/62/22 63/61/22 65/63/22
f 66/64/22 63/61/22 64/62/22
f 61/59/21 63/61/21 66/64/21
f 66/64/22 67/65/22 68/66/22
f 68/66/21 61/59/21 66/64/21
f 69/67/22 67/65/22 70/68/22
f 68/66/21 67/65/21 69/67/21
f 70/68/22 71/69/22 72/70/22
f 73/71/23 70/68/23 72/70/23
f 73/71/24 74/72/24 70/68/24
f 74/72/21 69/67/21 70/68/21
f 75/73/22 72/70/22 71/69/22
f 76/74/25 77/75/25 78/76/25
f 79/77/18 77/75/18 76/74/18
f 81/78/26 82/79/26 83/80/26
f 82/79/26 84/81/26 83/80/26
f 84/81/27 82/79/27 85/82/27
f 86/83/28 87/84/28 88/85/28
f 89/86/29 90/87/29 87/84/29
f 88/85/28 87/84/28 90/87/28
f 91/88/28 89/86/28 92/89/28
f 91/88/28 93/90/28 89/86/28
f 93/90/30 90/87/30 89/86/30
f 93/90/28 94/91/28 90/87/28
f 95/92/28 94/91/28 96/93/28
f 95/92/28 97/94/28 94/91/28
f 97/94/31 98/95/31 94/91/31
f 94/91/32 98/95/32 90/87/32
f 99/96/33 98/95/33 97/94/33
f 100/97/28 99/96/28 101/98/28
f 100/97/28 102/99/28 99/96/28
f 102/99/28 98/95/28 99/96/28
f 103/100/34 98/95/34 102/99/34
f 103/100/28 104/101/28 105/102/28
f 105/102/28 98/95/28 103/100/28
f 104/101/28 106/103/28 105/102/28
f 107/104/35 108/105/35 109/106/35
f 107/104/35 109/106/35 110/107/35
s 1
f 4/7/1 1/1/1 3/3/1
f 4/7/1 5/4/1 1/1/1
f 8/10/1 9/11/2 7/6/2
f 9/11/2 4/7/3 7/6/2
f 10/8/36 12/12/2 11/9/3
f 5/4/2 11/9/3 12/12/2
f 13/15/37 14/14/37 15/108/37
f 45/44/37 44/43/37 46/109/37
f 77/75/38 79/77/38 80/110/38
