# Blender v3.0.1 OBJ File: 'rockerfeller_plaza.blend'
# www.blender.org
o geometryt000010000010000110010110000110000100110010110010st84
v 136.988403 -159.064377 293.745789
v 137.292313 -159.227768 302.502136
v 136.988403 -159.064377 302.502136
v 133.988510 -157.450165 293.745789
v 137.292313 -159.227768 293.102142
v 133.988510 -157.450165 302.502136
v 132.531113 -156.666077 302.502136
v 132.531113 -156.666077 293.745789
v 131.031097 -155.858963 293.745789
v 131.031097 -155.858963 302.502136
v 129.573700 -155.074768 302.502136
v 129.573700 -155.074768 293.745789
v 125.073807 -152.653671 293.745789
v 117.355309 -148.500671 293.102142
v 125.073807 -152.653671 302.502136
v 123.616409 -151.869476 302.502136
v 123.616409 -151.869476 293.745789
v 122.116508 -151.062363 293.745789
v 122.116508 -151.062363 302.502136
v 120.659004 -150.278275 302.502136
v 120.659004 -150.278275 293.745789
v 117.659103 -148.664062 293.745789
v 117.659103 -148.664062 302.502136
v 117.355309 -148.500671 302.502136
v 117.518608 -148.196671 293.745789
v 117.355309 -148.500671 302.502136
v 117.518608 -148.196671 302.502136
v 118.324707 -146.696274 293.745789
v 117.355309 -148.500671 293.102142
v 118.324707 -146.696274 302.502136
v 118.815704 -145.782074 302.502136
v 118.815704 -145.782074 293.745789
v 119.621803 -144.281570 293.745789
v 119.621803 -144.281570 302.502136
v 120.112907 -143.367462 302.502136
v 120.112907 -143.367462 293.745789
v 121.082306 -141.563065 293.102142
v 120.919006 -141.866974 293.745789
v 120.919006 -141.866974 302.502136
v 121.082306 -141.563065 302.502136
v 121.386108 -141.726471 293.745789
v 121.082306 -141.563065 302.502136
v 121.386108 -141.726471 302.502136
v 124.386009 -143.340576 293.745789
v 121.082306 -141.563065 293.102142
v 124.386009 -143.340576 302.502136
v 125.762711 -144.081268 302.502136
v 125.762711 -144.081268 293.745789
v 127.262711 -144.888367 293.745789
v 127.262711 -144.888367 302.502136
v 128.639404 -145.629074 302.502136
v 128.639404 -145.629074 293.745789
v 133.139313 -148.050262 293.745789
v 133.139313 -148.050262 302.502136
v 134.516006 -148.790970 302.502136
v 134.516006 -148.790970 293.745789
v 140.696411 -152.116272 293.102142
v 136.015900 -149.597977 293.745789
v 136.015900 -149.597977 302.502136
v 137.392609 -150.338669 302.502136
v 137.392609 -150.338669 293.745789
v 140.392609 -151.952774 293.745789
v 140.392609 -151.952774 302.502136
v 140.696411 -152.116272 302.502136
v 140.547409 -152.427475 293.745789
v 140.696411 -152.116272 302.502136
v 140.547409 -152.427475 302.502136
v 139.812012 -153.963867 293.745789
v 140.696411 -152.116272 293.102142
v 139.812012 -153.963867 302.502136
v 139.362000 -154.903870 302.502136
v 139.362000 -154.903870 293.745789
v 138.626602 -156.440277 293.745789
v 137.292313 -159.227768 293.102142
v 138.626602 -156.440277 302.502136
v 138.176605 -157.380264 302.502136
v 138.176605 -157.380264 293.745789
v 137.441208 -158.916672 293.745789
v 137.441208 -158.916672 302.502136
v 137.292313 -159.227768 302.502136
vt 20.463760 0.697320
vt 24.528330 0.000000
vt 24.154551 0.697320
vt 24.528330 10.184180
vt 20.463760 10.184180
vt 18.670710 10.184180
vt 18.670710 0.697320
vt 16.825310 0.697320
vt 16.825310 10.184180
vt 15.032260 10.184180
vt 15.032260 0.697320
vt 9.496070 0.697320
vt 0.000000 0.000000
vt 9.496070 10.184180
vt 7.703020 10.184180
vt 7.703020 0.697320
vt 5.857630 10.184180
vt 4.064570 10.184180
vt 5.857630 0.697320
vt 4.064570 0.697320
vt 0.373780 0.697320
vt 0.373780 10.184180
vt 0.000000 10.184180
vt 8.532300 10.184180
vt 8.158520 0.697320
vt 8.532300 0.000000
vt 3.343450 10.184180
vt 2.219180 10.184180
vt 3.343450 0.697320
vt 2.219180 0.697320
vt 0.000000 0.000000
vt 0.373780 10.184180
vt 0.000000 10.184180
vt 0.373780 0.697320
vt 23.757290 0.697320
vt 24.131069 10.184180
vt 23.757290 10.184180
vt 20.066490 0.697320
vt 24.131069 0.000000
vt 20.066490 10.184180
vt 18.372761 10.184180
vt 18.372761 0.697320
vt 16.527361 0.697320
vt 16.527361 10.184180
vt 14.833630 10.184180
vt 14.833630 0.697320
vt 9.297440 0.697320
vt 9.297440 10.184180
vt 7.603700 10.184180
vt 7.603700 0.697320
vt 0.000000 0.000000
vt 5.758310 0.697320
vt 5.758310 10.184180
vt 4.064570 10.184180
vt 4.064570 0.697320
vt 0.373780 0.697320
vt 0.373780 10.184180
vt 0.000000 10.184180
vt 8.168240 0.697320
vt 8.542020 10.184180
vt 8.168240 10.184180
vt 6.322840 0.697320
vt 8.542020 0.000000
vt 6.322840 10.184180
vt 5.193710 10.184180
vt 5.193710 0.697320
vt 3.348310 0.697320
vt 0.000000 0.000000
vt 3.348310 10.184180
vt 2.219180 10.184180
vt 2.219180 0.697320
vt 0.373780 0.697320
vt 24.154551 10.184180
vt 8.158520 10.184180
vt 6.313130 0.697320
vt 6.313130 10.184180
vt 5.188850 10.184180
vt 5.188850 0.697320
vt 0.373780 10.184180
vt 0.000000 10.184180
vn -0.4738 -0.8806 0.0003
vn -0.4740 -0.8805 0.0000
vn -0.4738 -0.8806 0.0000
vn -0.4738 -0.8807 0.0002
vn -0.4739 -0.8806 -0.0003
vn -0.4739 -0.8806 0.0005
vn -0.4738 -0.8806 0.0002
vn -0.4739 -0.8806 -0.0000
vn -0.4738 -0.8807 0.0000
vn -0.4739 -0.8806 0.0001
vn -0.4737 -0.8807 0.0000
vn -0.8809 0.4732 0.0000
vn -0.8809 0.4733 0.0000
vn -0.8809 0.4733 -0.0001
vn 0.4737 0.8807 0.0000
vn 0.4739 0.8806 -0.0001
vn 0.4738 0.8806 0.0000
vn 0.4738 0.8807 -0.0001
vn 0.4739 0.8806 0.0003
vn 0.4738 0.8806 -0.0002
vn 0.4739 0.8806 0.0000
vn 0.4738 0.8807 0.0001
vn 0.9021 -0.4315 -0.0000
vn 0.9020 -0.4317 0.0000
vn 0.9020 -0.4318 0.0000
vn 0.9020 -0.4318 0.0002
vn 0.9020 -0.4318 0.0003
vn 0.9020 -0.4318 0.0001
vn 0.9020 -0.4317 -0.0003
vn -0.4738 -0.8806 -0.0002
vn -0.4739 -0.8806 0.0004
vn -0.4738 -0.8806 -0.0001
vn -0.4738 -0.8806 0.0001
vn -0.8809 0.4732 -0.0001
vn -0.8810 0.4732 0.0000
vn -0.8808 0.4734 -0.0000
vn -0.8810 0.4731 -0.0000
vn -0.8810 0.4731 -0.0001
s off
f 4/1/1 5/2/1 1/3/1
f 2/4/2 1/3/2 5/2/2
f 6/5/3 7/6/3 4/1/3
f 7/6/3 8/7/3 4/1/3
f 8/7/4 5/2/4 4/1/4
f 8/7/5 9/8/5 5/2/5
f 10/9/3 11/10/3 9/8/3
f 11/10/3 12/11/3 9/8/3
f 9/8/6 12/11/6 5/2/6
f 13/12/7 14/13/7 12/11/7
f 12/11/3 14/13/3 5/2/3
f 15/14/3 16/15/3 13/12/3
f 16/15/3 17/16/3 13/12/3
f 17/16/8 14/13/8 13/12/8
f 19/17/3 20/18/3 18/19/3
f 20/18/9 21/20/9 18/19/9
f 22/21/10 14/13/10 21/20/10
f 23/22/11 24/23/11 22/21/11
f 24/23/2 14/13/2 22/21/2
f 26/24/12 25/25/12 29/26/12
f 34/27/13 35/28/13 33/29/13
f 35/28/13 36/30/13 33/29/13
f 33/29/14 37/31/14 29/26/14
f 39/32/13 40/33/13 38/34/13
f 40/33/13 37/31/13 38/34/13
f 41/35/15 42/36/15 43/37/15
f 44/38/16 45/39/16 41/35/16
f 42/36/15 41/35/15 45/39/15
f 46/40/17 47/41/17 44/38/17
f 47/41/17 48/42/17 44/38/17
f 48/42/18 45/39/18 44/38/18
f 48/42/19 49/43/19 45/39/19
f 50/44/17 51/45/17 49/43/17
f 51/45/17 52/46/17 49/43/17
f 49/43/20 52/46/20 45/39/20
f 52/46/20 53/47/20 45/39/20
f 54/48/17 55/49/17 53/47/17
f 55/49/17 56/50/17 53/47/17
f 56/50/21 57/51/21 53/47/21
f 53/47/17 57/51/17 45/39/17
f 58/52/21 57/51/21 56/50/21
f 59/53/17 60/54/17 58/52/17
f 60/54/17 61/55/17 58/52/17
f 61/55/22 57/51/22 58/52/22
f 62/56/16 57/51/16 61/55/16
f 63/57/21 64/58/21 62/56/21
f 64/58/21 57/51/21 62/56/21
f 65/59/23 66/60/23 67/61/23
f 68/62/24 69/63/24 65/59/24
f 66/60/25 65/59/25 69/63/25
f 70/64/25 71/65/25 68/62/25
f 71/65/25 72/66/25 68/62/25
f 72/66/26 69/63/26 68/62/26
f 73/67/27 74/68/27 72/66/27
f 72/66/28 74/68/28 69/63/28
f 75/69/25 76/70/25 73/67/25
f 76/70/25 77/71/25 73/67/25
f 77/71/29 74/68/29 73/67/29
f 78/72/24 74/68/24 77/71/24
s 1
f 1/3/3 2/4/3 3/73/3
f 18/19/30 14/13/31 17/16/32
f 21/20/33 14/13/31 18/19/30
f 25/25/12 26/24/12 27/74/12
f 28/75/34 29/26/12 25/25/13
f 30/76/35 31/77/36 28/75/34
f 31/77/36 32/78/37 28/75/34
f 32/78/37 29/26/12 28/75/34
f 32/78/37 33/29/38 29/26/12
f 36/30/13 37/31/12 33/29/13
f 38/34/34 37/31/12 36/30/13
f 79/79/25 80/80/25 78/72/24
f 80/80/25 74/68/24 78/72/24
