# Blender v3.0.1 OBJ File: 'rockerfeller_plaza.blend'
# www.blender.org
o geometryt000010000010000110010110000110000100110010010110st108
v 6.416011 -79.991447 19.086590
v 11.424930 -70.774208 19.086590
v 16.674601 -73.622322 19.086590
v 8.392772 -88.883698 19.086590
v 3.142966 -86.024490 19.086590
v 6.416011 -79.991447 32.686588
v 3.142966 -86.024490 32.686588
v 8.392772 -88.883698 32.686588
v 16.674601 -73.622322 32.686588
v 11.424930 -70.774208 32.686588
vt 0.143530 0.011070
vt 0.125160 0.021380
vt 0.128670 0.031900
vt 0.159080 0.014850
vt 0.155540 0.004330
vt 0.143530 0.011070
vt 0.155540 0.004330
vt 0.159080 0.014850
vt 0.128670 0.031900
vt 0.125160 0.021380
vn -0.0000 0.0000 -1.0000
vn -0.0000 0.0000 1.0000
s off
f 1/1/1 2/2/1 3/3/1
f 4/4/1 1/1/1 3/3/1
f 5/5/1 1/1/1 4/4/1
f 6/6/2 7/7/2 8/8/2
f 6/6/2 8/8/2 9/9/2
f 10/10/2 6/6/2 9/9/2
