# Blender v3.0.1 OBJ File: 'rockerfeller_plaza.blend'
# www.blender.org
o geometryt000010000010000110010110000110000100110010010110st139
v 239.426407 -134.280807 22.101179
v 239.261902 -134.584106 72.996719
v 239.426407 -134.280807 72.996719
v 240.316498 -132.638596 22.101179
v 239.261902 -134.584106 19.196720
v 240.316498 -132.638596 72.996719
v 240.855301 -131.644699 72.996719
v 240.855301 -131.644699 22.101179
v 241.745499 -130.002594 22.101179
v 241.745499 -130.002594 72.996719
v 242.284302 -129.008606 72.996719
v 242.284302 -129.008606 22.101179
v 243.174500 -127.366501 22.101179
v 243.174500 -127.366501 72.996719
v 243.713303 -126.372498 72.996719
v 243.713303 -126.372498 22.101179
v 244.603500 -124.730400 22.101179
v 247.625793 -119.154900 19.196720
v 244.603500 -124.730400 72.996719
v 245.142303 -123.736504 72.996719
v 245.142303 -123.736504 22.101179
v 246.032394 -122.094299 22.101179
v 246.032394 -122.094299 72.996719
v 246.571198 -121.100403 72.996719
v 246.571198 -121.100403 22.101179
v 247.461395 -119.458199 22.101179
v 247.461395 -119.458199 72.996719
v 247.625793 -119.154900 72.996719
v 248.515396 -139.604599 22.101179
v 248.818604 -139.769104 72.996719
v 248.515396 -139.604599 72.996719
v 246.873596 -138.713806 22.101179
v 248.818604 -139.769104 19.196720
v 246.873596 -138.713806 72.996719
v 246.079300 -138.282806 72.996719
v 246.079300 -138.282806 22.101179
v 244.437393 -137.392105 22.101179
v 244.437393 -137.392105 72.996719
v 243.643097 -136.961105 72.996719
v 243.643097 -136.961105 22.101179
v 242.001297 -136.070297 22.101179
v 239.261902 -134.584106 19.196720
v 242.001297 -136.070297 72.996719
v 241.207001 -135.639404 72.996719
v 241.207001 -135.639404 22.101179
v 239.565201 -134.748596 22.101179
v 239.565201 -134.748596 72.996719
v 239.261902 -134.584106 72.996719
v 245.570404 -117.646500 22.101179
v 245.406693 -117.950104 72.996719
v 245.570404 -117.646500 72.996719
v 246.456604 -116.002197 22.101179
v 245.406693 -117.950104 19.196720
v 246.456604 -116.002197 72.996719
v 246.984695 -115.022499 72.996719
v 246.984695 -115.022499 22.101179
v 247.870895 -113.378304 22.101179
v 247.870895 -113.378304 72.996719
v 248.399002 -112.398598 72.996719
v 248.399002 -112.398598 22.101179
v 250.466003 -108.563797 19.196720
v 249.285294 -110.754402 22.101179
v 249.285294 -110.754402 72.996719
v 249.813293 -109.774696 72.996719
v 249.813293 -109.774696 22.101179
v 250.699600 -108.130501 22.101179
v 250.699600 -108.130501 72.996719
v 250.863205 -107.826797 72.996719
v 250.863205 -107.826797 19.196720
v 247.322601 -118.990303 22.101179
v 247.625793 -119.154900 72.996719
v 247.322601 -118.990303 72.996719
v 245.686401 -118.102097 22.101179
v 247.625793 -119.154900 19.196720
v 245.686401 -118.102097 72.996719
v 245.383194 -117.937500 72.996719
v 245.383194 -117.937500 19.196720
v 257.018097 -124.632202 22.101179
v 257.182404 -124.328796 72.996719
v 257.018097 -124.632202 72.996719
v 256.128387 -126.274597 22.101179
v 257.182404 -124.328796 19.196720
v 256.128387 -126.274597 72.996719
v 255.589005 -127.270401 72.996719
v 255.589005 -127.270401 22.101179
v 254.699295 -128.912796 22.101179
v 254.699295 -128.912796 72.996719
v 254.159897 -129.908600 72.996719
v 254.159897 -129.908600 22.101179
v 253.270203 -131.550995 22.101179
v 253.270203 -131.550995 72.996719
v 252.730804 -132.546906 72.996719
v 252.730804 -132.546906 22.101179
v 251.841095 -134.189301 22.101179
v 248.818604 -139.769104 19.196720
v 251.841095 -134.189301 72.996719
v 251.301697 -135.185104 72.996719
v 251.301697 -135.185104 22.101179
v 250.412003 -136.827499 22.101179
v 250.412003 -136.827499 72.996719
v 249.872604 -137.823303 72.996719
v 249.872604 -137.823303 22.101179
v 248.983002 -139.465698 22.101179
v 248.983002 -139.465698 72.996719
v 248.818604 -139.769104 72.996719
v 251.166000 -107.990799 22.101179
v 250.862595 -107.826401 72.996719
v 251.166000 -107.990799 72.996719
v 252.808304 -108.880600 22.101179
v 250.862595 -107.826401 19.196720
v 252.808304 -108.880600 72.996719
v 254.407104 -109.746803 72.996719
v 254.407104 -109.746803 22.101179
v 256.049408 -110.636597 22.101179
v 256.049408 -110.636597 72.996719
v 257.648193 -111.502800 72.996719
v 257.648193 -111.502800 22.101179
v 259.290497 -112.392601 22.101179
v 259.290497 -112.392601 72.996719
v 260.889313 -113.258797 72.996719
v 260.889313 -113.258797 22.101179
v 267.458588 -116.818100 22.101179
v 267.458588 -116.818100 72.996719
v 269.057312 -117.684303 72.996719
v 269.057312 -117.684303 22.101179
v 277.485199 -122.250504 19.196720
v 270.699707 -118.574097 22.101179
v 270.699707 -118.574097 72.996719
v 272.298401 -119.440300 72.996719
v 272.298401 -119.440300 22.101179
v 273.940796 -120.330101 22.101179
v 273.940796 -120.330101 72.996719
v 275.539490 -121.196297 72.996719
v 275.539490 -121.196297 22.101179
v 277.181885 -122.086098 22.101179
v 277.181885 -122.086098 72.996719
v 277.485199 -122.250504 72.996719
v 263.641205 -127.838303 22.101179
v 263.944305 -128.003006 72.996719
v 263.641205 -127.838303 72.996719
v 261.999908 -126.946503 22.101179
v 263.944305 -128.003006 19.196720
v 261.999908 -126.946503 72.996719
v 259.126801 -125.385300 72.996719
v 259.126801 -125.385300 22.101179
v 257.182404 -124.328796 19.196720
v 257.485504 -124.493500 22.101179
v 257.485504 -124.493500 72.996719
v 257.182404 -124.328796 72.996719
v 259.068298 -137.007904 19.196720
v 260.368011 -137.714493 19.196720
v 260.368011 -137.714493 72.996719
v 259.068298 -137.007904 72.996719
v 259.232605 -136.704605 22.101179
v 259.068298 -137.007904 72.996719
v 259.232605 -136.704605 72.996719
v 260.122009 -135.061996 22.101179
v 259.068298 -137.007904 19.196720
v 260.122009 -135.061996 72.996719
v 260.451904 -134.452698 72.996719
v 260.451904 -134.452698 22.101179
v 261.341309 -132.810104 22.101179
v 261.341309 -132.810104 72.996719
v 261.671295 -132.200806 72.996719
v 261.671295 -132.200806 22.101179
v 262.560699 -130.558304 22.101179
v 263.944305 -128.003006 19.196720
v 262.560699 -130.558304 72.996719
v 262.890594 -129.948898 72.996719
v 262.890594 -129.948898 22.101179
v 263.780090 -128.306396 22.101179
v 263.780090 -128.306396 72.996719
v 263.944305 -128.003006 72.996719
v 259.590698 -139.143204 22.101179
v 259.425812 -139.446304 72.996719
v 259.590698 -139.143204 72.996719
v 260.203094 -138.017593 22.101179
v 259.425812 -139.446304 19.196720
v 260.203094 -138.017593 72.996719
v 260.368011 -137.714493 72.996719
v 260.368011 -137.714493 19.196720
v 268.661713 -144.434204 22.101179
v 268.965210 -144.598206 72.996719
v 268.661713 -144.434204 72.996719
v 267.018097 -143.546600 22.101179
v 268.965210 -144.598206 19.196720
v 267.018097 -143.546600 72.996719
v 266.232086 -143.122101 72.996719
v 266.232086 -143.122101 22.101179
v 264.588501 -142.234497 22.101179
v 264.588501 -142.234497 72.996719
v 263.802490 -141.809998 72.996719
v 263.802490 -141.809998 22.101179
v 262.158905 -140.922394 22.101179
v 259.425812 -139.446304 19.196720
v 262.158905 -140.922394 72.996719
v 261.372894 -140.497803 72.996719
v 261.372894 -140.497803 22.101179
v 259.729309 -139.610199 22.101179
v 259.729309 -139.610199 72.996719
v 259.425812 -139.446304 72.996719
v 278.113098 -124.000198 22.101179
v 278.253113 -123.684898 72.996719
v 278.113098 -124.000198 72.996719
v 277.354889 -125.707298 22.101179
v 278.253113 -123.684898 19.196720
v 277.354889 -125.707298 72.996719
v 276.738098 -127.096100 72.996719
v 276.738098 -127.096100 22.101179
v 275.980011 -128.803207 22.101179
v 275.980011 -128.803207 72.996719
v 275.363190 -130.192001 72.996719
v 275.363190 -130.192001 22.101179
v 274.605011 -131.899094 22.101179
v 274.605011 -131.899094 72.996719
v 273.988190 -133.287994 72.996719
v 273.988190 -133.287994 22.101179
v 273.230103 -134.995102 22.101179
v 273.230103 -134.995102 72.996719
v 272.613312 -136.383896 72.996719
v 272.613312 -136.383896 22.101179
v 268.965210 -144.598206 19.196720
v 271.855103 -138.091003 22.101179
v 271.855103 -138.091003 72.996719
v 271.238403 -139.479797 72.996719
v 271.238403 -139.479797 22.101179
v 270.480194 -141.186905 22.101179
v 270.480194 -141.186905 72.996719
v 269.863403 -142.575699 72.996719
v 269.863403 -142.575699 22.101179
v 269.105286 -144.282898 22.101179
v 269.105286 -144.282898 72.996719
v 268.965210 -144.598206 72.996719
v 277.055298 -123.032600 19.196720
v 277.485199 -122.250504 72.996719
v 277.055298 -123.032600 72.996719
v 277.485199 -122.250504 19.196720
v 278.253113 -123.684898 19.196720
v 277.055298 -123.032600 19.196720
v 277.055298 -123.032600 72.996719
v 278.253113 -123.684898 72.996719
vt 92.501587 15.615340
vt 94.356430 289.247314
vt 92.501587 289.247314
vt 82.459152 15.615340
vt 94.356430 0.000000
vt 82.459152 289.247314
vt 76.380730 289.247314
vt 76.380730 15.615340
vt 66.338287 15.615340
vt 66.338287 289.247314
vt 60.259869 289.247314
vt 60.259869 15.615340
vt 50.217430 15.615340
vt 50.217430 289.247314
vt 44.139000 289.247314
vt 44.139000 15.615340
vt 34.096569 15.615340
vt 0.000000 0.000000
vt 34.096569 289.247314
vt 28.018141 289.247314
vt 28.018141 15.615340
vt 17.975700 15.615340
vt 17.975700 289.247314
vt 11.897280 289.247314
vt 11.897280 15.615340
vt 1.854840 15.615340
vt 1.854840 289.247314
vt 0.000000 289.247314
vt 56.600330 15.615340
vt 58.455170 289.247314
vt 56.600330 289.247314
vt 46.557899 15.615340
vt 58.455170 0.000000
vt 46.557899 289.247314
vt 41.699310 289.247314
vt 41.699310 15.615340
vt 31.656879 15.615340
vt 31.656879 289.247314
vt 26.798300 289.247314
vt 26.798300 15.615340
vt 16.755859 15.615340
vt 0.000000 0.000000
vt 16.755859 289.247314
vt 11.897280 289.247314
vt 11.897280 15.615340
vt 1.854840 15.615340
vt 1.854840 289.247314
vt 0.000000 289.247314
vt 59.974739 15.615340
vt 61.829571 289.247314
vt 59.974739 289.247314
vt 49.932301 15.615340
vt 61.829571 0.000000
vt 49.932301 289.247314
vt 43.948921 289.247314
vt 43.948921 15.615340
vt 33.906479 15.615340
vt 33.906479 289.247314
vt 27.923100 289.247314
vt 27.923100 15.615340
vt 4.501390 0.000000
vt 17.880659 15.615340
vt 17.880659 289.247314
vt 11.897280 289.247314
vt 11.897280 15.615340
vt 1.854840 15.615340
vt 1.854840 289.247314
vt 0.000000 289.247314
vt 0.000000 0.000000
vt 11.864480 15.615340
vt 13.719320 289.247314
vt 11.864480 289.247314
vt 1.854840 15.615340
vt 13.719320 0.000000
vt 1.854840 289.247314
vt 0.000000 289.247314
vt 0.000000 0.000000
vt 92.553757 15.615340
vt 94.408592 289.247314
vt 92.553757 289.247314
vt 82.511307 15.615340
vt 94.408592 0.000000
vt 82.511307 289.247314
vt 76.422470 289.247314
vt 76.422470 15.615340
vt 66.380020 15.615340
vt 66.380020 289.247314
vt 60.291161 289.247314
vt 60.291161 15.615340
vt 50.248730 15.615340
vt 50.248730 289.247314
vt 44.159870 289.247314
vt 44.159870 15.615340
vt 34.117432 15.615340
vt 0.000000 0.000000
vt 34.117432 289.247314
vt 28.028570 289.247314
vt 28.028570 15.615340
vt 17.986130 15.615340
vt 17.986130 289.247314
vt 11.897280 289.247314
vt 11.897280 15.615340
vt 1.854840 15.615340
vt 1.854840 289.247314
vt 0.000000 289.247314
vt 150.892700 15.615340
vt 162.789993 0.000000
vt 160.935196 15.615340
vt 162.789993 289.247314
vt 150.892700 289.247314
vt 141.116699 289.247314
vt 141.116699 15.615340
vt 131.074295 15.615340
vt 131.074295 289.247314
vt 121.298302 289.247314
vt 121.298302 15.615340
vt 111.255898 15.615340
vt 111.255898 289.247314
vt 101.479897 289.247314
vt 101.479897 15.615340
vt 61.310120 15.615340
vt 61.310120 289.247314
vt 51.534130 289.247314
vt 51.534130 15.615340
vt 0.000000 0.000000
vt 31.715710 15.615340
vt 41.491699 15.615340
vt 21.673269 15.615340
vt 21.673269 289.247314
vt 11.897280 289.247314
vt 11.897280 15.615340
vt 1.854840 289.247314
vt 0.000000 289.247314
vt 1.854840 15.615340
vt 39.519821 15.615340
vt 41.374660 289.247314
vt 39.519821 289.247314
vt 29.477390 15.615340
vt 41.374660 0.000000
vt 29.477390 289.247314
vt 11.897280 289.247314
vt 11.897280 15.615340
vt 0.000000 0.000000
vt 1.854840 15.615340
vt 1.854840 289.247314
vt 0.000000 289.247314
vt 0.000000 0.000000
vt 7.953630 0.000000
vt 7.953630 289.247314
vt 0.000000 289.247314
vt 53.200790 15.615340
vt 55.055630 289.247314
vt 53.200790 289.247314
vt 43.158360 15.615340
vt 55.055630 0.000000
vt 43.158360 289.247314
vt 39.432961 289.247314
vt 39.432961 15.615340
vt 29.390520 15.615340
vt 29.390520 289.247314
vt 25.665119 289.247314
vt 25.665119 15.615340
vt 15.622680 15.615340
vt 0.000000 0.000000
vt 15.622680 289.247314
vt 11.897280 289.247314
vt 11.897280 15.615340
vt 1.854840 15.615340
vt 1.854840 289.247314
vt 0.000000 289.247314
vt 8.744690 15.615340
vt 10.599530 289.247314
vt 8.744690 289.247314
vt 1.854840 15.615340
vt 10.599530 0.000000
vt 1.854840 289.247314
vt 0.000000 289.247314
vt 0.000000 0.000000
vt 56.433998 15.615340
vt 58.288841 289.247314
vt 56.433998 289.247314
vt 46.391560 289.247314
vt 41.588421 289.247314
vt 46.391560 15.615340
vt 41.588421 15.615340
vt 58.288841 0.000000
vt 31.545980 15.615340
vt 31.545980 289.247314
vt 26.742849 289.247314
vt 26.742849 15.615340
vt 16.700411 15.615340
vt 0.000000 0.000000
vt 11.897280 15.615340
vt 1.854840 15.615340
vt 0.000000 289.247314
vt 121.171997 15.615340
vt 123.026802 289.247314
vt 121.171997 289.247314
vt 111.129501 15.615340
vt 123.026802 0.000000
vt 111.129501 289.247314
vt 102.959503 289.247314
vt 102.959503 15.615340
vt 92.917068 15.615340
vt 92.917068 289.247314
vt 84.747070 289.247314
vt 84.747070 15.615340
vt 74.704620 15.615340
vt 74.704620 289.247314
vt 66.534607 289.247314
vt 66.534607 15.615340
vt 56.492180 15.615340
vt 56.492180 289.247314
vt 48.322170 289.247314
vt 48.322170 15.615340
vt 0.000000 0.000000
vt 38.279732 15.615340
vt 38.279732 289.247314
vt 30.109720 289.247314
vt 30.109720 15.615340
vt 20.067280 15.615340
vt 20.067280 289.247314
vt 11.897280 289.247314
vt 11.897280 15.615340
vt 1.854840 15.615340
vt 1.854840 289.247314
vt 0.000000 289.247314
vt 0.000000 0.000000
vt 7.332660 0.000000
vt 7.332660 289.247314
vt 0.000000 289.247314
vt 160.935196 289.247314
vt 41.491699 289.247314
vt 31.715710 289.247314
vt 16.700411 289.247314
vt 11.897280 289.247314
vt 1.854840 289.247314
vt 0.000000 0.000000
vt 4.798360 289.247314
vt 0.000000 289.247314
vt 4.798360 0.000000
vn -0.8790 0.4769 0.0000
vn -0.8792 0.4765 0.0000
vn -0.8791 0.4767 0.0000
vn -0.8791 0.4766 0.0000
vn -0.8791 0.4766 0.0001
vn -0.8792 0.4765 -0.0001
vn -0.4769 -0.8789 0.0000
vn -0.4769 -0.8790 -0.0000
vn -0.4768 -0.8790 0.0000
vn -0.4770 -0.8789 0.0000
vn -0.4768 -0.8790 0.0001
vn -0.4767 -0.8791 0.0000
vn -0.4771 -0.8789 0.0000
vn -0.8802 0.4745 0.0000
vn -0.8803 0.4744 0.0000
vn -0.8802 0.4746 0.0000
vn -0.8803 0.4745 0.0000
vn -0.8804 0.4742 0.0000
vn -0.8803 0.4743 0.0000
vn -0.4771 -0.8788 0.0000
vn 0.8793 -0.4762 0.0000
vn 0.8793 -0.4763 -0.0000
vn 0.8793 -0.4762 0.0002
vn 0.8793 -0.4763 0.0001
vn 0.8792 -0.4764 0.0000
vn 0.4764 0.8792 0.0000
vn 0.4764 0.8793 0.0000
vn 0.4764 0.8792 0.0001
vn 0.4763 0.8793 -0.0000
vn 0.4761 0.8794 -0.0000
vn 0.4762 0.8794 0.0000
vn -0.4775 -0.8786 0.0000
vn -0.4774 -0.8787 0.0000
vn -0.4775 -0.8787 0.0000
vn -0.4776 -0.8786 0.0000
vn -0.8792 0.4764 0.0000
vn -0.8794 0.4761 0.0000
vn -0.8793 0.4763 0.0000
vn -0.8794 0.4762 0.0000
vn -0.8793 0.4762 0.0000
vn -0.8793 0.4763 -0.0001
vn -0.8794 0.4760 0.0000
vn -0.8794 0.4761 -0.0001
vn -0.8784 0.4780 0.0000
vn -0.8784 0.4779 -0.0000
vn -0.8785 0.4778 0.0000
vn -0.4751 -0.8799 0.0000
vn -0.4752 -0.8799 0.0000
vn -0.4753 -0.8798 0.0001
vn 0.9139 -0.4059 0.0000
vn 0.9139 -0.4059 0.0001
vn 0.9139 -0.4059 -0.0001
vn 0.9139 -0.4058 0.0000
vn 0.9139 -0.4058 -0.0001
vn 0.9138 -0.4061 0.0000
vn 0.4783 0.8782 0.0000
vn 0.4764 0.8792 0.0002
vn -0.4753 -0.8798 0.0000
vn -0.4750 -0.8800 -0.0000
vn 0.8764 -0.4817 0.0000
vn 0.8763 -0.4817 0.0000
s off
f 1/1/1 2/2/1 3/3/1
f 4/4/2 5/5/2 1/1/2
f 2/2/3 1/1/3 5/5/3
f 6/6/4 7/7/4 4/4/4
f 7/7/4 8/8/4 4/4/4
f 8/8/4 5/5/4 4/4/4
f 8/8/4 9/9/4 5/5/4
f 10/10/2 11/11/2 9/9/2
f 11/11/4 12/12/4 9/9/4
f 9/9/4 12/12/4 5/5/4
f 12/12/4 13/13/4 5/5/4
f 14/14/4 15/15/4 13/13/4
f 15/15/2 16/16/2 13/13/2
f 13/13/5 16/16/5 5/5/5
f 17/17/5 18/18/5 16/16/5
f 16/16/4 18/18/4 5/5/4
f 19/19/4 20/20/4 17/17/4
f 20/20/4 21/21/4 17/17/4
f 21/21/5 18/18/5 17/17/5
f 22/22/6 18/18/6 21/21/6
f 23/23/4 24/24/4 22/22/4
f 24/24/4 25/25/4 22/22/4
f 25/25/4 18/18/4 22/22/4
f 26/26/4 18/18/4 25/25/4
f 27/27/2 28/28/2 26/26/2
f 28/28/4 18/18/4 26/26/4
f 29/29/7 30/30/7 31/31/7
f 32/32/8 33/33/8 29/29/8
f 30/30/9 29/29/9 33/33/9
f 34/34/7 35/35/7 32/32/7
f 35/35/10 36/36/10 32/32/10
f 36/36/7 33/33/7 32/32/7
f 36/36/11 37/37/11 33/33/11
f 38/38/7 39/39/7 37/37/7
f 39/39/7 40/40/7 37/37/7
f 37/37/7 40/40/7 33/33/7
f 41/41/8 42/42/8 40/40/8
f 40/40/8 42/42/8 33/33/8
f 43/43/9 44/44/9 41/41/9
f 44/44/9 45/45/9 41/41/9
f 45/45/9 42/42/9 41/41/9
f 46/46/8 42/42/8 45/45/8
f 47/47/12 48/48/12 46/46/12
f 48/48/13 42/42/13 46/46/13
f 49/49/14 50/50/14 51/51/14
f 52/52/15 53/53/15 49/49/15
f 50/50/16 49/49/16 53/53/16
f 54/54/17 55/55/17 52/52/17
f 55/55/14 56/56/14 52/52/14
f 52/52/14 56/56/14 53/53/14
f 56/56/17 57/57/17 53/53/17
f 58/58/17 59/59/17 57/57/17
f 59/59/17 60/60/17 57/57/17
f 57/57/17 60/60/17 61/61/17
f 53/53/17 57/57/17 61/61/17
f 60/60/17 62/62/17 61/61/17
f 63/63/15 64/64/15 62/62/15
f 64/64/15 65/65/15 62/62/15
f 62/62/15 65/65/15 61/61/15
f 65/65/17 66/66/17 61/61/17
f 67/67/18 68/68/18 66/66/18
f 68/68/19 69/69/19 66/66/19
f 66/66/15 69/69/15 61/61/15
f 70/70/20 71/71/20 72/72/20
f 73/73/13 74/74/13 70/70/13
f 71/71/13 70/70/13 74/74/13
f 75/75/10 76/76/10 73/73/10
f 76/76/20 77/77/20 73/73/20
f 77/77/13 74/74/13 73/73/13
f 78/78/21 79/79/21 80/80/21
f 81/81/22 82/82/22 78/78/22
f 79/79/21 78/78/21 82/82/21
f 83/83/22 84/84/22 81/81/22
f 84/84/22 85/85/22 81/81/22
f 85/85/22 82/82/22 81/81/22
f 85/85/22 86/86/22 82/82/22
f 87/87/22 88/88/22 86/86/22
f 88/88/22 89/89/22 86/86/22
f 86/86/22 89/89/22 82/82/22
f 89/89/22 90/90/22 82/82/22
f 91/91/21 92/92/21 90/90/21
f 92/92/21 93/93/21 90/90/21
f 90/90/23 93/93/23 82/82/23
f 94/94/24 95/95/24 93/93/24
f 93/93/22 95/95/22 82/82/22
f 96/96/22 97/97/22 94/94/22
f 97/97/22 98/98/22 94/94/22
f 98/98/22 95/95/22 94/94/22
f 99/99/22 95/95/22 98/98/22
f 100/100/22 101/101/22 99/99/22
f 101/101/22 102/102/22 99/99/22
f 102/102/22 95/95/22 99/99/22
f 103/103/22 95/95/22 102/102/22
f 104/104/25 105/105/25 103/103/25
f 105/105/25 95/95/25 103/103/25
f 109/106/26 110/107/26 106/108/26
f 107/109/26 106/108/26 110/107/26
f 111/110/26 112/111/26 109/106/26
f 112/111/27 113/112/27 109/106/27
f 113/112/27 110/107/27 109/106/27
f 113/112/26 114/113/26 110/107/26
f 115/114/27 116/115/27 114/113/27
f 116/115/26 117/116/26 114/113/26
f 114/113/27 117/116/27 110/107/27
f 117/116/26 118/117/26 110/107/26
f 119/118/27 120/119/27 118/117/27
f 120/119/26 121/120/26 118/117/26
f 118/117/27 121/120/27 110/107/27
f 121/120/26 122/121/26 110/107/26
f 123/122/26 124/123/26 122/121/26
f 124/123/26 125/124/26 122/121/26
f 125/124/28 126/125/28 122/121/28
f 122/121/26 126/125/26 110/107/26
f 130/126/26 126/125/26 127/127/26
f 131/128/29 126/125/29 130/126/29
f 132/129/26 133/130/26 131/128/26
f 133/130/26 134/131/26 131/128/26
f 136/132/30 137/133/30 135/134/30
f 137/133/31 126/125/31 135/134/31
f 138/135/32 139/136/32 140/137/32
f 141/138/33 142/139/33 138/135/33
f 139/136/33 138/135/33 142/139/33
f 143/140/33 144/141/33 141/138/33
f 144/141/34 145/142/34 141/138/34
f 145/142/33 146/143/33 141/138/33
f 146/143/33 142/139/33 141/138/33
f 147/144/33 146/143/33 145/142/33
f 148/145/32 149/146/32 147/144/32
f 149/146/34 146/143/34 147/144/34
f 150/147/35 151/148/35 152/149/35
f 150/147/35 152/149/35 153/150/35
f 154/151/36 155/152/36 156/153/36
f 157/154/37 158/155/37 154/151/37
f 155/152/38 154/151/38 158/155/38
f 159/156/37 160/157/37 157/154/37
f 160/157/37 161/158/37 157/154/37
f 161/158/39 158/155/39 157/154/39
f 161/158/37 162/159/37 158/155/37
f 163/160/40 164/161/40 162/159/40
f 164/161/38 165/162/38 162/159/38
f 162/159/41 165/162/41 158/155/41
f 166/163/39 167/164/39 165/162/39
f 165/162/39 167/164/39 158/155/39
f 168/165/37 169/166/37 166/163/37
f 169/166/42 170/167/42 166/163/42
f 170/167/43 167/164/43 166/163/43
f 171/168/40 167/164/40 170/167/40
f 172/169/42 173/170/42 171/168/42
f 173/170/37 167/164/37 171/168/37
f 174/171/44 175/172/44 176/173/44
f 177/174/45 178/175/45 174/171/45
f 175/172/46 174/171/46 178/175/46
f 179/176/45 180/177/45 177/174/45
f 180/177/44 181/178/44 177/174/44
f 181/178/45 178/175/45 177/174/45
f 182/179/47 183/180/47 184/181/47
f 187/182/48 188/183/48 185/184/48
f 188/183/48 189/185/48 185/184/48
f 189/185/48 186/186/48 185/184/48
f 189/185/48 190/187/48 186/186/48
f 191/188/48 192/189/48 190/187/48
f 192/189/48 193/190/48 190/187/48
f 190/187/48 193/190/48 186/186/48
f 194/191/48 195/192/48 193/190/48
f 193/190/48 195/192/48 186/186/48
f 198/193/49 195/192/49 194/191/49
f 199/194/48 195/192/48 198/193/48
f 201/195/47 195/192/47 199/194/47
f 202/196/50 203/197/50 204/198/50
f 205/199/50 206/200/50 202/196/50
f 203/197/50 202/196/50 206/200/50
f 207/201/50 208/202/50 205/199/50
f 208/202/50 209/203/50 205/199/50
f 209/203/50 206/200/50 205/199/50
f 209/203/51 210/204/51 206/200/51
f 211/205/50 212/206/50 210/204/50
f 212/206/50 213/207/50 210/204/50
f 210/204/52 213/207/52 206/200/52
f 213/207/50 214/208/50 206/200/50
f 215/209/50 216/210/50 214/208/50
f 216/210/50 217/211/50 214/208/50
f 214/208/50 217/211/50 206/200/50
f 217/211/51 218/212/51 206/200/51
f 219/213/50 220/214/50 218/212/50
f 220/214/50 221/215/50 218/212/50
f 221/215/50 222/216/50 218/212/50
f 218/212/50 222/216/50 206/200/50
f 223/217/51 222/216/51 221/215/51
f 224/218/53 225/219/53 223/217/53
f 225/219/50 226/220/50 223/217/50
f 226/220/54 222/216/54 223/217/54
f 227/221/51 222/216/51 226/220/51
f 228/222/50 229/223/50 227/221/50
f 229/223/50 230/224/50 227/221/50
f 230/224/50 222/216/50 227/221/50
f 231/225/50 222/216/50 230/224/50
f 232/226/55 233/227/55 231/225/55
f 233/227/50 222/216/50 231/225/50
f 238/228/56 239/229/56 240/230/56
f 238/228/56 240/230/56 241/231/56
s 1
f 106/108/26 107/109/26 108/232/26
f 127/127/57 126/125/57 125/124/57
f 128/233/26 129/234/26 127/127/26
f 129/234/26 130/126/26 127/127/26
f 134/131/26 126/125/27 131/128/26
f 135/134/29 126/125/27 134/131/26
f 185/184/48 186/186/48 182/179/58
f 183/180/59 182/179/58 186/186/48
f 196/235/58 197/236/58 194/191/58
f 197/236/58 198/193/58 194/191/58
f 200/237/48 201/195/48 199/194/48
f 234/238/60 235/239/61 236/240/61
f 234/238/60 237/241/60 235/239/61
