# Blender v3.0.1 OBJ File: 'rockerfeller_plaza.blend'
# www.blender.org
o geometryt000010000010000110010110000110000110100000010110st14
v 1153.646851 -272.157166 188.714752
v 1141.405396 -265.594757 188.714752
v 1144.643799 -259.561584 188.714752
v 1171.278198 -250.945175 188.714752
v 1156.854004 -277.859467 188.714752
v 1151.986206 -275.251984 188.714752
v 1154.168945 -241.775269 188.714752
v 1153.646851 -272.157166 227.714752
v 1151.986206 -275.251984 227.714752
v 1156.854004 -277.859467 227.714752
v 1171.278198 -250.945175 227.714752
v 1154.168945 -241.775269 227.714752
v 1144.643799 -259.561584 227.714752
v 1141.405396 -265.594757 227.714752
vt 0.444570 0.314930
vt 0.436520 0.290410
vt 0.424520 0.297080
vt 0.400370 0.350970
vt 0.453930 0.321260
vt 0.450730 0.311510
vt 0.389120 0.316700
vt 0.444570 0.314930
vt 0.450730 0.311510
vt 0.453930 0.321260
vt 0.400370 0.350970
vt 0.389120 0.316700
vt 0.424520 0.297080
vt 0.436520 0.290410
vn -0.0000 0.0000 -1.0000
vn 0.0000 0.0000 1.0000
s off
f 1/1/1 2/2/1 3/3/1
f 3/3/1 4/4/1 1/1/1
f 4/4/1 5/5/1 1/1/1
f 6/6/1 1/1/1 5/5/1
f 7/7/1 4/4/1 3/3/1
f 8/8/2 9/9/2 10/10/2
f 8/8/2 10/10/2 11/11/2
f 12/12/2 13/13/2 11/11/2
f 13/13/2 8/8/2 11/11/2
f 13/13/2 14/14/2 8/8/2
