# Blender v3.0.1 OBJ File: 'rockerfeller_plaza.blend'
# www.blender.org
o geometryt000010000010000110010110000110000110100000010100st36_C
v 874.005920 -150.612778 147.872940
v 869.563538 -158.874191 147.872940
v 869.563538 -158.874191 167.330048
v 874.005920 -150.612778 167.330048
v 875.549683 -147.741684 147.872940
v 874.809326 -149.118591 147.872940
v 874.809326 -149.118591 167.330048
v 875.549683 -147.741684 167.330048
v 880.795532 -137.986191 147.872940
v 876.353149 -146.247589 147.872940
v 876.353149 -146.247589 167.330048
v 880.795532 -137.986191 167.330048
v 869.703918 -159.341385 167.330048
v 869.703918 -159.341385 147.872940
v 871.080811 -160.081879 147.872940
v 871.080811 -160.081879 167.330048
v 871.916809 -160.531586 167.330048
v 871.916809 -160.531586 147.872940
v 880.177917 -164.974579 147.872940
v 880.177917 -164.974579 167.330048
v 881.014038 -165.424179 167.330048
v 881.014038 -165.424179 147.872940
v 882.390808 -166.164688 147.872940
v 882.390808 -166.164688 167.330048
v 882.639526 -138.586380 147.872940
v 881.262695 -137.845779 147.872940
v 881.262695 -137.845779 167.330048
v 882.639526 -138.586380 167.330048
v 888.843506 -141.923584 147.872940
v 883.336304 -138.961182 147.872940
v 883.336304 -138.961182 167.330048
v 888.843506 -141.923584 167.330048
v 890.916992 -143.038986 147.872940
v 889.540222 -142.298386 147.872940
v 889.540222 -142.298386 167.330048
v 890.916992 -143.038986 167.330048
v 882.858032 -166.024185 147.872940
v 883.598328 -164.647278 147.872940
v 883.598328 -164.647278 167.330048
v 882.858032 -166.024185 167.330048
v 883.828613 -164.218887 167.330048
v 883.828613 -164.218887 147.872940
v 884.568848 -162.841888 147.872940
v 884.568848 -162.841888 167.330048
v 884.799133 -162.413589 167.330048
v 884.799133 -162.413589 147.872940
v 885.539307 -161.036591 147.872940
v 885.539307 -161.036591 167.330048
v 885.769653 -160.608185 147.872940
v 886.509888 -159.231277 147.872940
v 886.509888 -159.231277 167.330048
v 885.769653 -160.608185 167.330048
v 886.740112 -158.802887 167.330048
v 886.740112 -158.802887 147.872940
v 887.480408 -157.425888 147.872940
v 887.480408 -157.425888 167.330048
v 887.808533 -156.818985 167.330048
v 887.808533 -156.818985 147.872940
v 888.555298 -155.445480 147.872940
v 888.555298 -155.445480 167.330048
v 889.136230 -154.376984 147.872940
v 892.869995 -147.509583 147.872940
v 892.869995 -147.509583 167.330048
v 889.136230 -154.376984 167.330048
v 893.450928 -146.441086 167.330048
v 893.450928 -146.441086 147.872940
v 894.197754 -145.067581 147.872940
v 894.197754 -145.067581 167.330048
v 893.491638 -144.331482 147.872940
v 892.091736 -143.635483 147.872940
v 892.091736 -143.635483 167.330048
v 893.491638 -144.331482 167.330048
vt 0.000000 0.000000
vt 1.000000 0.000000
vt 1.000000 1.200000
vt 0.000000 1.200000
vt 0.000000 0.000000
vt 0.166670 0.000000
vt 0.166670 1.200000
vt 0.000000 1.200000
vt 0.000000 0.000000
vt 1.000000 0.000000
vt 1.000000 1.200000
vt 0.000000 1.200000
vt 0.000000 1.200000
vt 0.000000 0.000000
vt 0.166670 0.000000
vt 0.166670 1.200000
vt 0.000000 1.200000
vt 0.000000 0.000000
vt 1.000000 0.000000
vt 1.000000 1.200000
vt 0.000000 1.200000
vt 0.000000 0.000000
vt 0.166670 0.000000
vt 0.166670 1.200000
vt 0.000000 0.000000
vt 0.166670 0.000000
vt 0.166670 1.200000
vt 0.000000 1.200000
vt 0.000000 0.000000
vt 0.666670 0.000000
vt 0.666670 1.200000
vt 0.000000 1.200000
vt 0.000000 0.000000
vt 0.166670 0.000000
vt 0.166670 1.200000
vt 0.000000 1.200000
vt 0.000000 0.000000
vt 0.166670 0.000000
vt 0.166670 1.200000
vt 0.000000 1.200000
vt 0.000000 1.200000
vt 0.000000 0.000000
vt 0.166670 0.000000
vt 0.166670 1.200000
vt 0.000000 1.200000
vt 0.000000 0.000000
vt 0.166670 0.000000
vt 0.166670 1.200000
vt 0.000000 0.000000
vt 0.166670 0.000000
vt 0.166670 1.200000
vt 0.000000 1.200000
vt 0.000000 1.200000
vt 0.000000 0.000000
vt 0.166670 0.000000
vt 0.166670 1.200000
vt 0.000000 1.200000
vt 0.000000 0.000000
vt 0.166670 0.000000
vt 0.166670 1.200000
vt 0.000000 0.000000
vt 0.833330 0.000000
vt 0.833330 1.200000
vt 0.000000 1.200000
vt 0.000000 1.200000
vt 0.000000 0.000000
vt 0.166670 0.000000
vt 0.166670 1.200000
vt 0.000000 0.000000
vt 0.166670 0.000000
vt 0.166670 1.200000
vt 0.000000 1.200000
vn -0.8807 0.4736 0.0000
vn -0.8808 0.4735 0.0000
vn -0.4737 -0.8807 0.0000
vn -0.4736 -0.8807 0.0000
vn 0.4737 0.8807 0.0000
vn 0.8807 -0.4736 0.0000
vn 0.8808 -0.4735 0.0000
vn 0.8809 -0.4734 0.0000
vn 0.8785 -0.4777 0.0000
vn 0.4452 0.8954 0.0000
s off
f 1/1/1 2/2/1 3/3/1
f 4/4/1 1/1/1 3/3/1
f 5/5/2 6/6/2 7/7/2
f 8/8/1 5/5/1 7/7/1
f 9/9/1 10/10/1 11/11/1
f 12/12/1 9/9/1 11/11/1
f 13/13/3 14/14/3 15/15/3
f 13/13/4 15/15/4 16/16/4
f 17/17/3 18/18/3 19/19/3
f 17/17/3 19/19/3 20/20/3
f 21/21/3 22/22/3 23/23/3
f 21/21/3 23/23/3 24/24/3
f 25/25/5 26/26/5 27/27/5
f 28/28/5 25/25/5 27/27/5
f 29/29/5 30/30/5 31/31/5
f 32/32/5 29/29/5 31/31/5
f 33/33/5 34/34/5 35/35/5
f 36/36/5 33/33/5 35/35/5
f 37/37/6 38/38/6 39/39/6
f 40/40/7 37/37/7 39/39/7
f 41/41/7 42/42/7 43/43/7
f 41/41/7 43/43/7 44/44/7
f 45/45/8 46/46/8 47/47/8
f 45/45/7 47/47/7 48/48/7
f 49/49/7 50/50/7 51/51/7
f 52/52/7 49/49/7 51/51/7
f 53/53/7 54/54/7 55/55/7
f 53/53/7 55/55/7 56/56/7
f 57/57/9 58/58/9 59/59/9
f 57/57/9 59/59/9 60/60/9
f 61/61/9 62/62/9 63/63/9
f 64/64/9 61/61/9 63/63/9
f 65/65/9 66/66/9 67/67/9
f 65/65/9 67/67/9 68/68/9
f 69/69/10 70/70/10 71/71/10
f 72/72/10 69/69/10 71/71/10
