# Blender v3.0.1 OBJ File: 'rockerfeller_plaza.blend'
# www.blender.org
o geometryt000010000010000110010110000110000110100100010010st69
v 1110.001099 -66.317696 1011.275452
v 1107.833984 -65.099602 1011.275452
v 1125.592285 -32.239986 1011.275452
v 1113.041016 -61.319405 1011.275452
v 1123.440796 -73.465675 1011.275452
v 1119.379517 -58.280907 1011.275452
v 1119.807373 -58.510506 1011.275452
v 1125.254761 -38.709507 1011.275452
v 1124.081177 -61.197556 1011.275452
v 1123.774292 -67.074753 1011.275452
v 1124.751709 -48.346897 1011.275452
v 1124.333618 -56.359417 1011.275452
v 1124.101074 -60.815086 1011.275452
v 1119.966797 -58.444355 1011.275452
v 1124.163818 -59.612705 1011.275452
v 1124.319092 -56.637558 1011.275452
v 1126.499512 -75.117416 1011.275452
v 1126.358643 -68.460472 1011.275452
v 1124.798950 -61.189636 1011.275452
v 1125.737671 -60.050816 1011.275452
v 1126.092896 -55.901176 1011.275452
v 1126.082275 -55.681187 1011.275452
v 1125.644165 -46.696716 1011.275452
v 1126.204590 -61.174126 1011.275452
v 1126.220947 -61.952908 1011.275452
v 1125.711304 -37.864208 1011.275452
v 1126.427856 -36.537888 1011.275452
v 1146.163574 -47.120438 1011.275452
v 1163.749268 -52.876438 1011.275452
v 1125.888672 -46.244625 1011.275452
v 1126.183350 -60.174885 1011.275452
v 1126.088257 -55.678848 1011.275452
v 1132.306885 -71.649963 1011.275452
v 1136.958496 -47.594585 1011.275452
v 1130.070801 -43.906147 1011.275452
v 1132.776855 -71.901993 1011.275452
v 1151.667847 -75.211334 1011.275452
v 1136.770630 -80.592712 1011.275452
v 1129.636841 -61.136246 1011.275452
v 1134.314087 -52.488335 1011.275452
v 1136.577881 -64.851959 1011.275452
v 1132.644531 -71.448334 1011.275452
v 1133.200439 -71.116463 1011.275452
v 1141.246826 -56.215248 1011.275452
v 1136.109863 -81.843903 1011.275452
v 1145.379395 -86.853523 1011.275452
v 1126.096802 -55.675518 1011.275452
v 1127.808472 -42.694588 1011.275452
v 1115.649292 -95.172981 1011.275452
v 1118.325684 -90.134529 1011.275452
v 1125.871094 -100.770966 1011.275452
v 1122.746704 -81.967033 1011.275452
v 1126.272217 -45.535355 1011.275452
v 1128.529663 -63.192028 1011.275452
v 1125.592285 -32.239986 1076.275391
v 1107.833984 -65.099602 1076.275391
v 1110.001099 -66.317696 1076.275391
v 1113.041016 -61.319405 1076.275391
v 1123.440796 -73.465675 1076.275391
v 1118.140747 -51.878826 1076.275391
v 1123.774292 -67.074753 1076.275391
v 1125.254761 -38.709507 1076.275391
v 1125.258423 -67.870522 1076.275391
v 1126.499512 -75.117416 1076.275391
v 1125.711304 -37.864208 1076.275391
v 1126.358643 -68.460472 1076.275391
v 1126.427856 -36.537888 1076.275391
v 1133.946289 -40.569336 1076.275391
v 1146.163574 -47.120438 1076.275391
v 1163.749268 -52.876438 1076.275391
v 1132.306885 -71.649963 1076.275391
v 1132.776855 -71.901993 1076.275391
v 1151.667847 -75.211334 1076.275391
v 1136.770630 -80.592712 1076.275391
v 1129.636841 -61.136246 1076.275391
v 1132.281006 -62.551758 1076.275391
v 1132.204590 -56.388668 1076.275391
v 1132.532227 -55.782776 1076.275391
v 1134.314087 -52.488335 1076.275391
v 1136.577881 -64.851959 1076.275391
v 1133.200439 -71.116463 1076.275391
v 1135.129883 -67.537682 1076.275391
v 1138.605713 -54.795475 1076.275391
v 1145.379395 -86.853523 1076.275391
v 1136.109863 -81.843903 1076.275391
v 1141.246826 -56.215248 1076.275391
v 1144.290527 -50.585125 1076.275391
v 1119.807373 -58.510506 1116.275513
v 1119.379517 -58.280907 1116.275513
v 1113.041016 -61.319405 1116.275513
v 1126.427856 -36.537888 1116.275513
v 1124.798950 -61.189636 1116.275513
v 1132.776855 -71.901993 1116.275513
v 1120.333496 -56.516918 1116.275513
v 1127.808472 -42.694588 1116.275513
v 1127.494019 -62.636208 1116.275513
v 1128.843994 -43.249146 1116.275513
v 1130.070801 -43.906147 1116.275513
v 1136.958496 -47.594585 1116.275513
v 1146.163574 -47.120438 1116.275513
v 1128.529663 -63.192028 1116.275513
v 1129.511475 -61.368908 1116.275513
v 1129.636841 -61.136246 1116.275513
v 1136.577881 -64.851959 1116.275513
v 1136.659180 -48.148445 1116.275513
v 1134.314087 -52.488335 1116.275513
v 1141.246826 -56.215248 1116.275513
v 1118.325684 -90.134529 1061.275391
v 1115.649292 -95.172981 1061.275391
v 1125.871094 -100.770966 1061.275391
v 1122.746704 -81.967033 1061.275391
v 1136.109863 -81.843903 1061.275391
v 1126.499512 -75.117416 1061.275391
v 1134.400391 -79.329185 1061.275391
v 1136.262329 -81.555176 1061.275391
v 1136.770630 -80.592712 1061.275391
v 1134.314087 -52.488335 1129.675537
v 1127.808472 -42.694588 1129.675537
v 1119.379517 -58.280907 1129.675537
v 1128.529663 -63.192028 1129.675537
v 1129.636841 -61.136246 1129.675537
v 1136.958496 -47.594585 1129.675537
vt 0.086930 0.212330
vt 0.085400 0.207990
vt 0.019970 0.244560
vt 0.076870 0.218580
vt 0.095660 0.239250
vt 0.069330 0.231420
vt 0.069610 0.232280
vt 0.031850 0.243720
vt 0.073140 0.240830
vt 0.083930 0.240070
vt 0.049540 0.242480
vt 0.064250 0.241450
vt 0.072440 0.240880
vt 0.069440 0.232600
vt 0.070230 0.241030
vt 0.064760 0.241420
vt 0.097700 0.245370
vt 0.085630 0.245250
vt 0.072890 0.242270
vt 0.070520 0.244190
vt 0.062860 0.245010
vt 0.062460 0.244990
vt 0.046250 0.244320
vt 0.072420 0.245110
vt 0.073830 0.245120
vt 0.030160 0.244660
vt 0.027520 0.246140
vt 0.040500 0.285660
vt 0.045380 0.320970
vt 0.045350 0.244820
vt 0.070610 0.245090
vt 0.062460 0.245000
vt 0.089540 0.257160
vt 0.044290 0.267100
vt 0.039770 0.253310
vt 0.089850 0.258100
vt 0.089870 0.296100
vt 0.104390 0.265940
vt 0.071260 0.252030
vt 0.054040 0.261660
vt 0.075810 0.265930
vt 0.089070 0.257840
vt 0.088290 0.258970
vt 0.058610 0.275540
vt 0.106880 0.264580
vt 0.113050 0.283150
vt 0.062450 0.245020
vt 0.038280 0.248780
vt 0.137640 0.223030
vt 0.127620 0.228550
vt 0.144580 0.243500
vt 0.111350 0.237650
vt 0.043940 0.245610
vt 0.075350 0.249750
vt 0.019970 0.244560
vt 0.085400 0.207990
vt 0.086930 0.212330
vt 0.076870 0.218580
vt 0.095660 0.239250
vt 0.058070 0.229080
vt 0.083930 0.240070
vt 0.031850 0.243720
vt 0.084910 0.243040
vt 0.097700 0.245370
vt 0.030160 0.244660
vt 0.085630 0.245250
vt 0.027520 0.246140
vt 0.032470 0.261200
vt 0.040500 0.285660
vt 0.045380 0.320970
vt 0.089540 0.257160
vt 0.089850 0.258100
vt 0.089870 0.296100
vt 0.104390 0.265940
vt 0.071260 0.252030
vt 0.072990 0.257320
vt 0.061800 0.257310
vt 0.060600 0.257990
vt 0.054040 0.261660
vt 0.075810 0.265930
vt 0.088290 0.258970
vt 0.081160 0.262950
vt 0.056870 0.270250
vt 0.113050 0.283150
vt 0.106880 0.264580
vt 0.058610 0.275540
vt 0.047400 0.281810
vt 0.069610 0.232280
vt 0.069330 0.231420
vt 0.076870 0.218580
vt 0.027520 0.246140
vt 0.072890 0.242270
vt 0.089850 0.258100
vt 0.065810 0.233390
vt 0.038280 0.248780
vt 0.074670 0.247670
vt 0.038960 0.250850
vt 0.039770 0.253310
vt 0.044290 0.267100
vt 0.040500 0.285660
vt 0.075350 0.249750
vt 0.071720 0.251770
vt 0.071260 0.252030
vt 0.075810 0.265930
vt 0.045390 0.266490
vt 0.054040 0.261660
vt 0.058610 0.275540
vt 0.127620 0.228550
vt 0.137640 0.223030
vt 0.144580 0.243500
vt 0.111350 0.237650
vt 0.106880 0.264580
vt 0.097700 0.245370
vt 0.102850 0.261200
vt 0.106310 0.264900
vt 0.104390 0.265940
vt 0.054040 0.261660
vt 0.038280 0.248780
vt 0.069330 0.231420
vt 0.075350 0.249750
vt 0.071260 0.252030
vt 0.044290 0.267100
vn 0.0000 0.0000 -1.0000
vn -0.0001 0.0000 -1.0000
vn -0.0002 0.0000 -1.0000
vn 0.0003 0.0000 -1.0000
vn 0.0001 0.0000 -1.0000
vn -0.0003 0.0000 -1.0000
vn 0.0343 0.0000 -0.9994
vn -0.0004 0.0000 -1.0000
vn 0.0007 0.0000 -1.0000
vn 0.0004 0.0000 -1.0000
vn 0.0000 0.0000 1.0000
vn 0.0001 0.0000 1.0000
vn 0.0002 0.0000 1.0000
vn -0.0005 0.0000 1.0000
vn -0.0001 0.0000 1.0000
vn -0.0003 0.0000 1.0000
s off
f 1/1/1 2/2/1 3/3/1
f 1/1/1 4/4/1 5/5/1
f 3/3/1 4/4/1 1/1/1
f 6/6/1 7/7/1 4/4/1
f 6/6/1 4/4/1 8/8/1
f 9/9/1 4/4/1 7/7/1
f 5/5/1 4/4/1 10/10/1
f 10/10/1 4/4/1 9/9/1
f 8/8/1 4/4/1 3/3/1
f 6/6/1 11/11/1 12/12/1
f 11/11/2 6/6/2 8/8/2
f 13/13/3 7/7/3 14/14/3
f 9/9/1 7/7/1 13/13/1
f 15/15/1 13/13/1 14/14/1
f 15/15/1 14/14/1 16/16/1
f 5/5/1 10/10/1 17/17/1
f 18/18/1 10/10/1 9/9/1
f 18/18/1 17/17/1 10/10/1
f 19/19/1 9/9/1 13/13/1
f 9/9/1 19/19/1 18/18/1
f 19/19/4 13/13/4 15/15/4
f 15/15/1 16/16/1 20/20/1
f 15/15/1 20/20/1 19/19/1
f 20/20/1 16/16/1 21/21/1
f 12/12/2 11/11/2 22/22/2
f 23/23/1 11/11/1 8/8/1
f 11/11/1 23/23/1 22/22/1
f 20/20/1 24/24/1 19/19/1
f 24/24/1 25/25/1 19/19/1
f 19/19/1 25/25/1 18/18/1
f 26/26/1 8/8/1 3/3/1
f 26/26/1 23/23/1 8/8/1
f 27/27/1 26/26/1 3/3/1
f 27/27/1 3/3/1 28/28/1
f 3/3/1 29/29/1 28/28/1
f 23/23/1 26/26/1 30/30/1
f 22/22/3 23/23/3 30/30/3
f 21/21/5 31/31/5 20/20/5
f 20/20/6 31/31/6 24/24/6
f 22/22/7 30/30/7 32/32/7
f 18/18/1 33/33/1 17/17/1
f 34/34/1 35/35/1 27/27/1
f 28/28/1 34/34/1 27/27/1
f 33/33/1 36/36/1 17/17/1
f 36/36/1 37/37/1 17/17/1
f 17/17/1 37/37/1 38/38/1
f 39/39/1 40/40/1 41/41/1
f 40/40/1 35/35/1 34/34/1
f 42/42/3 36/36/3 33/33/3
f 42/42/8 43/43/8 36/36/8
f 43/43/1 37/37/1 36/36/1
f 29/29/1 43/43/1 41/41/1
f 43/43/1 29/29/1 37/37/1
f 44/44/1 41/41/1 40/40/1
f 28/28/1 40/40/1 34/34/1
f 45/45/1 38/38/1 46/46/1
f 29/29/1 41/41/1 44/44/1
f 37/37/1 46/46/1 38/38/1
f 29/29/1 44/44/1 28/28/1
f 14/14/1 7/7/1 6/6/1
f 6/6/1 12/12/1 14/14/1
f 16/16/8 14/14/8 12/12/8
f 21/21/1 16/16/1 12/12/1
f 21/21/1 12/12/1 22/22/1
f 21/21/9 22/22/9 32/32/9
f 47/47/1 21/21/1 32/32/1
f 40/40/5 21/21/5 47/47/5
f 40/40/5 48/48/5 35/35/5
f 49/49/1 50/50/1 51/51/1
f 51/51/1 50/50/1 52/52/1
f 45/45/1 51/51/1 52/52/1
f 17/17/1 45/45/1 52/52/1
f 38/38/2 45/45/2 17/17/2
f 26/26/1 27/27/1 30/30/1
f 32/32/2 30/30/2 53/53/2
f 27/27/5 53/53/5 30/30/5
f 32/32/1 53/53/1 47/47/1
f 31/31/1 21/21/1 39/39/1
f 40/40/1 39/39/1 21/21/1
f 53/53/1 48/48/1 47/47/1
f 47/47/1 48/48/1 40/40/1
f 39/39/1 24/24/1 31/31/1
f 24/24/1 54/54/1 25/25/1
f 24/24/1 39/39/1 54/54/1
f 54/54/1 18/18/1 25/25/1
f 27/27/2 48/48/2 53/53/2
f 18/18/10 54/54/10 39/39/10
f 33/33/1 18/18/1 39/39/1
f 35/35/1 48/48/1 27/27/1
f 42/42/1 33/33/1 39/39/1
f 43/43/1 42/42/1 39/39/1
f 41/41/1 43/43/1 39/39/1
f 44/44/1 40/40/1 28/28/1
f 55/55/11 56/56/11 57/57/11
f 58/58/11 57/57/11 59/59/11
f 55/55/11 57/57/11 58/58/11
f 60/60/11 55/55/11 58/58/11
f 61/61/11 58/58/11 59/59/11
f 55/55/11 60/60/11 62/62/11
f 63/63/11 61/61/11 59/59/11
f 64/64/11 63/63/11 59/59/11
f 62/62/11 65/65/11 55/55/11
f 64/64/12 66/66/12 63/63/12
f 65/65/11 67/67/11 55/55/11
f 67/67/11 68/68/11 55/55/11
f 68/68/11 69/69/11 55/55/11
f 69/69/11 70/70/11 55/55/11
f 71/71/11 66/66/11 64/64/11
f 72/72/13 71/71/13 64/64/13
f 73/73/11 72/72/11 64/64/11
f 73/73/11 64/64/11 74/74/11
f 75/75/12 76/76/12 77/77/12
f 77/77/11 76/76/11 78/78/11
f 76/76/11 79/79/11 78/78/11
f 76/76/11 80/80/11 79/79/11
f 72/72/11 73/73/11 81/81/11
f 81/81/11 70/70/11 82/82/11
f 73/73/11 70/70/11 81/81/11
f 83/83/11 79/79/11 80/80/11
f 82/82/11 70/70/11 80/80/11
f 84/84/11 74/74/11 85/85/11
f 83/83/12 80/80/12 86/86/12
f 80/80/11 70/70/11 86/86/11
f 74/74/11 84/84/11 73/73/11
f 86/86/11 70/70/11 87/87/11
f 87/87/11 70/70/11 69/69/11
f 88/88/11 89/89/11 90/90/11
f 89/89/11 91/91/11 90/90/11
f 88/88/11 90/90/11 92/92/11
f 92/92/11 90/90/11 93/93/11
f 94/94/14 91/91/14 89/89/14
f 95/95/11 91/91/11 94/94/11
f 96/96/11 92/92/11 93/93/11
f 97/97/13 91/91/13 95/95/13
f 98/98/15 91/91/15 97/97/15
f 99/99/11 91/91/11 98/98/11
f 100/100/11 91/91/11 99/99/11
f 101/101/16 96/96/16 93/93/16
f 102/102/11 101/101/11 93/93/11
f 103/103/11 102/102/11 93/93/11
f 103/103/11 93/93/11 104/104/11
f 100/100/11 105/105/11 106/106/11
f 100/100/11 106/106/11 107/107/11
f 100/100/11 99/99/11 105/105/11
f 108/108/11 109/109/11 110/110/11
f 111/111/11 108/108/11 110/110/11
f 111/111/11 110/110/11 112/112/11
f 113/113/11 111/111/11 112/112/11
f 114/114/11 113/113/11 112/112/11
f 115/115/11 114/114/11 112/112/11
f 116/116/11 114/114/11 115/115/11
f 117/117/11 118/118/11 119/119/11
f 119/119/11 120/120/11 121/121/11
f 117/117/11 119/119/11 121/121/11
f 117/117/11 122/122/11 118/118/11
