# Blender v3.0.1 OBJ File: 'rockerfeller_plaza.blend'
# www.blender.org
o geometryt000010000010000110010110000110000110100000000110st81
v 720.219971 -163.686188 145.619431
v 720.219971 -163.686188 105.940948
v 721.605713 -164.430984 105.940948
v 721.605713 -164.430984 145.619431
v 721.865417 -164.570587 105.940948
v 723.251221 -165.315384 105.940948
v 723.251221 -165.315384 145.619431
v 721.865417 -164.570587 145.619431
v 723.510925 -165.454987 105.940948
v 724.896606 -166.199783 105.940948
v 724.896606 -166.199783 145.619431
v 723.510925 -165.454987 145.619431
v 725.156311 -166.339386 105.940948
v 726.542114 -167.084183 105.940948
v 726.542114 -167.084183 145.619431
v 725.156311 -166.339386 145.619431
v 726.801819 -167.223679 105.940948
v 730.959106 -169.458084 105.940948
v 730.959106 -169.458084 145.619431
v 726.801819 -167.223679 145.619431
v 731.218811 -169.597687 105.940948
v 732.604492 -170.342484 105.940948
v 732.604492 -170.342484 145.619431
v 731.218811 -169.597687 145.619431
v 732.864197 -170.482086 105.940948
v 738.407288 -173.461288 105.940948
v 738.407288 -173.461288 145.619431
v 732.864197 -170.482086 145.619431
v 738.666870 -173.600891 105.940948
v 740.052734 -174.345688 105.940948
v 740.052734 -174.345688 145.619431
v 738.666870 -173.600891 145.619431
v 740.312378 -174.485184 105.940948
v 744.469727 -176.719589 105.940948
v 744.469727 -176.719589 145.619431
v 740.312378 -174.485184 145.619431
v 744.729370 -176.859192 105.940948
v 746.115112 -177.603989 105.940948
v 746.115112 -177.603989 145.619431
v 744.729370 -176.859192 145.619431
v 746.374817 -177.743591 105.940948
v 747.760620 -178.488388 105.940948
v 747.760620 -178.488388 145.619431
v 746.374817 -177.743591 145.619431
v 748.020325 -178.627991 105.940948
v 749.406006 -179.372787 105.940948
v 749.406006 -179.372787 145.619431
v 748.020325 -178.627991 145.619431
v 749.665710 -179.512283 105.940948
v 751.051514 -180.257080 105.940948
v 751.051514 -180.257080 145.619431
v 749.665710 -179.512283 145.619431
v 720.812500 -161.826889 145.619431
v 720.812500 -161.826889 105.940948
v 720.067383 -163.212479 105.940948
v 720.067383 -163.212479 145.619431
v 721.762329 -160.060577 145.619431
v 721.762329 -160.060577 105.940948
v 721.017212 -161.446182 105.940948
v 721.017212 -161.446182 145.619431
v 722.712219 -158.294281 145.619431
v 722.712219 -158.294281 105.940948
v 721.967041 -159.679886 105.940948
v 721.967041 -159.679886 145.619431
v 723.661987 -156.527985 145.619431
v 723.661987 -156.527985 105.940948
v 722.916870 -157.913589 105.940948
v 722.916870 -157.913589 145.619431
v 726.101990 -151.990479 145.619431
v 726.101990 -151.990479 105.940948
v 723.866699 -156.147278 105.940948
v 723.866699 -156.147278 145.619431
v 727.796997 -148.838577 145.619431
v 727.796997 -148.838577 105.940948
v 726.306824 -151.609787 105.940948
v 726.306824 -151.609787 145.619431
v 729.723328 -145.256378 145.619431
v 730.237122 -144.301086 105.940948
v 728.001709 -148.457886 105.940948
v 730.237122 -144.301086 145.619431
v 728.001709 -148.457886 145.619431
v 731.186890 -142.534790 105.940948
v 730.441772 -143.920380 105.940948
v 730.441772 -143.920380 145.619431
v 731.186890 -142.534790 145.619431
v 732.136719 -140.768478 145.619431
v 732.136719 -140.768478 105.940948
v 731.391602 -142.154083 105.940948
v 731.391602 -142.154083 145.619431
v 733.086609 -139.002182 105.940948
v 732.341492 -140.387787 105.940948
v 732.341492 -140.387787 145.619431
v 733.086609 -139.002182 145.619431
v 734.036377 -137.235886 145.619431
v 734.036377 -137.235886 105.940948
v 733.291321 -138.621490 105.940948
v 733.291321 -138.621490 145.619431
v 735.891418 -137.840988 105.940948
v 734.505615 -137.096283 105.940948
v 734.505615 -137.096283 145.619431
v 735.891418 -137.840988 145.619431
v 737.537476 -138.725388 105.940948
v 736.151611 -137.980789 105.940948
v 736.151611 -137.980789 145.619431
v 737.537476 -138.725388 145.619431
v 739.183594 -139.609879 105.940948
v 737.797729 -138.865280 105.940948
v 737.797729 -138.865280 145.619431
v 739.183594 -139.609879 145.619431
v 740.829712 -140.494385 145.619431
v 740.829712 -140.494385 105.940948
v 739.443787 -139.749680 105.940948
v 739.443787 -139.749680 145.619431
v 745.247437 -142.868088 145.619431
v 745.247437 -142.868088 105.940948
v 741.089905 -140.634186 105.940948
v 741.089905 -140.634186 145.619431
v 746.893494 -143.752579 145.619431
v 746.893494 -143.752579 105.940948
v 745.507690 -143.007980 105.940948
v 745.507690 -143.007980 145.619431
v 752.697205 -146.870987 145.619431
v 752.697205 -146.870987 105.940948
v 747.153809 -143.892380 105.940948
v 747.153809 -143.892380 145.619431
v 754.343201 -147.755478 145.619431
v 754.343201 -147.755478 105.940948
v 752.957397 -147.010788 105.940948
v 752.957397 -147.010788 145.619431
v 758.760986 -150.129181 105.940948
v 754.603516 -147.895279 105.940948
v 754.603516 -147.895279 145.619431
v 758.760986 -150.129181 145.619431
v 760.407104 -151.013687 145.619431
v 760.407104 -151.013687 105.940948
v 759.021301 -150.269089 105.940948
v 759.021301 -150.269089 145.619431
v 762.053223 -151.898178 145.619431
v 762.053223 -151.898178 105.940948
v 760.667297 -151.153488 105.940948
v 760.667297 -151.153488 145.619431
v 763.699341 -152.782578 145.619431
v 763.699341 -152.782578 105.940948
v 762.313416 -152.037979 105.940948
v 762.313416 -152.037979 145.619431
v 765.345398 -153.667084 145.619431
v 765.345398 -153.667084 105.940948
v 763.959473 -152.922485 105.940948
v 763.959473 -152.922485 145.619431
v 751.518677 -180.116577 145.619431
v 751.518677 -180.116577 105.940948
v 752.263611 -178.730881 105.940948
v 752.263611 -178.730881 145.619431
v 752.468506 -178.349777 145.619431
v 752.468506 -178.349777 105.940948
v 753.213379 -176.964081 105.940948
v 753.213379 -176.964081 145.619431
v 753.418335 -176.582977 105.940948
v 754.163208 -175.197281 105.940948
v 754.163208 -175.197281 145.619431
v 753.418335 -176.582977 145.619431
v 754.368042 -174.816177 145.619431
v 754.368042 -174.816177 105.940948
v 755.112915 -173.430481 105.940948
v 755.112915 -173.430481 145.619431
v 755.317810 -173.049377 145.619431
v 755.317810 -173.049377 105.940948
v 757.552490 -168.892181 105.940948
v 757.552490 -168.892181 145.619431
v 757.757446 -168.511078 105.940948
v 759.247192 -165.739685 105.940948
v 759.247192 -165.739685 145.619431
v 757.757446 -168.511078 145.619431
v 759.452148 -165.358582 145.619431
v 759.452148 -165.358582 105.940948
v 761.686768 -161.201492 105.940948
v 761.686768 -161.201492 145.619431
v 761.891724 -160.820389 145.619431
v 761.891724 -160.820389 105.940948
v 762.636597 -159.434677 105.940948
v 762.636597 -159.434677 145.619431
v 762.841492 -159.053589 105.940948
v 763.586426 -157.667877 105.940948
v 763.586426 -157.667877 145.619431
v 762.841492 -159.053589 145.619431
v 763.791199 -157.286789 105.940948
v 764.536133 -155.901077 105.940948
v 764.536133 -155.901077 145.619431
v 763.791199 -157.286789 145.619431
v 764.740967 -155.519989 105.940948
v 765.485901 -154.134277 105.940948
v 765.485901 -154.134277 145.619431
v 764.740967 -155.519989 145.619431
vt 0.000000 3.250000
vt 0.000000 0.000000
vt 0.333330 0.000000
vt 0.333330 3.250000
vt 0.000000 0.000000
vt 0.333330 0.000000
vt 0.333330 3.250000
vt 0.000000 3.250000
vt 0.000000 0.000000
vt 1.000000 0.000000
vt 1.000000 3.250000
vt 0.000000 3.250000
vt 0.000000 0.000000
vt 0.333330 0.000000
vt 0.333330 3.250000
vt 0.000000 3.250000
vt 0.000000 0.000000
vt 1.000000 0.000000
vt 1.000000 3.250000
vt 0.000000 3.250000
vt 0.000000 0.000000
vt 0.333330 0.000000
vt 0.333330 3.250000
vt 0.000000 3.250000
vt 0.000000 0.000000
vt 0.333330 0.000000
vt 0.333330 3.250000
vt 0.000000 3.250000
vt 0.000000 3.250000
vt 0.000000 0.000000
vt 0.333330 0.000000
vt 0.333330 3.250000
vt 0.000000 3.250000
vt 0.000000 0.000000
vt 0.333330 0.000000
vt 0.333330 3.250000
vt 0.000000 3.250000
vt 0.000000 0.000000
vt 0.333330 0.000000
vt 0.333330 3.250000
vt 0.000000 3.250000
vt 0.000000 0.000000
vt 0.333330 0.000000
vt 0.333330 3.250000
vt 0.000000 3.250000
vt 0.000000 0.000000
vt 1.000000 0.000000
vt 1.000000 3.250000
vt 0.000000 3.250000
vt 0.000000 0.000000
vt 0.666670 0.000000
vt 0.666670 3.250000
vt 0.229820 3.250000
vt 0.000000 0.000000
vt 1.000000 0.000000
vt 0.000000 3.250000
vt 1.000000 3.250000
vt 0.000000 0.000000
vt 0.333330 0.000000
vt 0.333330 3.250000
vt 0.000000 3.250000
vt 0.000000 3.250000
vt 0.000000 0.000000
vt 0.333330 0.000000
vt 0.333330 3.250000
vt 0.000000 0.000000
vt 0.333330 0.000000
vt 0.333330 3.250000
vt 0.000000 3.250000
vt 0.000000 3.250000
vt 0.000000 0.000000
vt 0.333330 0.000000
vt 0.333330 3.250000
vt 0.000000 0.000000
vt 0.333330 0.000000
vt 0.333330 3.250000
vt 0.000000 3.250000
vt 0.000000 0.000000
vt 0.333330 0.000000
vt 0.333330 3.250000
vt 0.000000 3.250000
vt 0.000000 0.000000
vt 0.333330 0.000000
vt 0.333330 3.250000
vt 0.000000 3.250000
vt 0.000000 3.250000
vt 0.000000 0.000000
vt 0.333330 0.000000
vt 0.333330 3.250000
vt 0.000000 3.250000
vt 0.000000 0.000000
vt 1.000000 0.000000
vt 1.000000 3.250000
vt 0.000000 3.250000
vt 0.000000 0.000000
vt 0.333330 0.000000
vt 0.333330 3.250000
vt 0.000000 3.250000
vt 0.000000 0.000000
vt 1.333330 0.000000
vt 1.333330 3.250000
vt 0.000000 3.250000
vt 0.000000 0.000000
vt 0.333330 0.000000
vt 0.333330 3.250000
vt 0.000000 0.000000
vt 1.000000 0.000000
vt 1.000000 3.250000
vt 0.000000 3.250000
vt 0.000000 3.250000
vt 0.000000 0.000000
vt 0.333330 0.000000
vt 0.333330 3.250000
vt 0.000000 3.250000
vt 0.000000 0.000000
vt 0.333330 0.000000
vt 0.333330 3.250000
vt 0.000000 3.250000
vt 0.000000 0.000000
vt 0.333330 0.000000
vt 0.333330 3.250000
vt 0.000000 3.250000
vt 0.000000 0.000000
vt 0.333330 0.000000
vt 0.333330 3.250000
vt 0.000000 3.250000
vt 0.000000 0.000000
vt 0.333330 0.000000
vt 0.333330 3.250000
vt 0.000000 3.250000
vt 0.000000 0.000000
vt 0.333330 0.000000
vt 0.333330 3.250000
vt 0.000000 0.000000
vt 0.333330 0.000000
vt 0.333330 3.250000
vt 0.000000 3.250000
vt 0.000000 3.250000
vt 0.000000 0.000000
vt 0.333330 0.000000
vt 0.333330 3.250000
vt 0.000000 3.250000
vt 0.000000 0.000000
vt 1.000000 0.000000
vt 1.000000 3.250000
vt 0.000000 0.000000
vt 0.666670 0.000000
vt 0.666670 3.250000
vt 0.000000 3.250000
vt 0.000000 3.250000
vt 0.000000 0.000000
vt 1.000000 0.000000
vt 1.000000 3.250000
vt 0.000000 3.250000
vt 0.000000 0.000000
vt 0.333330 0.000000
vt 0.333330 3.250000
vt 0.000000 0.000000
vt 0.333330 0.000000
vt 0.333330 3.250000
vt 0.000000 3.250000
vt 0.000000 0.000000
vt 0.333330 0.000000
vt 0.333330 3.250000
vt 0.000000 3.250000
vt 0.000000 0.000000
vt 0.333330 0.000000
vt 0.333330 3.250000
vt 0.000000 3.250000
vt 0.000000 0.000000
vt 0.333330 0.000000
vt 0.333330 3.250000
vt 0.000000 3.250000
vt 0.000000 0.000000
vt 0.333330 0.000000
vt 0.333330 3.250000
vt 0.000000 3.250000
vt 0.000000 0.000000
vt 0.333330 0.000000
vt 0.333330 3.250000
vt 0.000000 3.250000
vt 0.000000 0.000000
vt 1.333330 0.000000
vt 1.333330 3.250000
vt 0.000000 3.250000
vt 0.000000 0.000000
vt 0.333330 0.000000
vt 0.333330 3.250000
vt 0.000000 3.250000
vt 0.000000 0.000000
vt 0.333330 0.000000
vt 0.333330 3.250000
vt 0.000000 3.250000
vn -0.4734 -0.8808 0.0000
vn -0.4734 -0.8809 0.0000
vn -0.8807 0.4736 0.0000
vn -0.8807 0.4737 0.0000
vn -0.8808 0.4735 0.0000
vn 0.4734 0.8809 0.0000
vn 0.4733 0.8809 0.0000
vn 0.4732 0.8809 0.0000
vn 0.8808 -0.4735 0.0000
s off
f 1/1/1 2/2/1 3/3/1
f 1/1/1 3/3/1 4/4/1
f 5/5/1 6/6/1 7/7/1
f 8/8/1 5/5/1 7/7/1
f 17/9/1 18/10/1 19/11/1
f 20/12/1 17/9/1 19/11/1
f 29/13/2 30/14/2 31/15/2
f 32/16/1 29/13/1 31/15/1
f 33/17/1 34/18/1 35/19/1
f 36/20/1 33/17/1 35/19/1
f 37/21/1 38/22/1 39/23/1
f 40/24/1 37/21/1 39/23/1
f 41/25/1 42/26/1 43/27/1
f 44/28/1 41/25/1 43/27/1
f 53/29/3 54/30/3 55/31/3
f 53/29/3 55/31/3 56/32/3
f 57/33/3 58/34/3 59/35/3
f 57/33/3 59/35/3 60/36/3
f 61/37/4 62/38/4 63/39/4
f 61/37/3 63/39/3 64/40/3
f 65/41/3 66/42/3 67/43/3
f 65/41/3 67/43/3 68/44/3
f 69/45/3 70/46/3 71/47/3
f 69/45/3 71/47/3 72/48/3
f 73/49/3 74/50/3 75/51/3
f 73/49/3 75/51/3 76/52/3
f 77/53/3 78/54/3 79/55/3
f 80/56/4 78/54/4 77/53/4
f 77/53/3 79/55/3 81/57/3
f 82/58/3 83/59/3 84/60/3
f 85/61/3 82/58/3 84/60/3
f 86/62/3 87/63/3 88/64/3
f 86/62/3 88/64/3 89/65/3
f 90/66/3 91/67/3 92/68/3
f 93/69/3 90/66/3 92/68/3
f 94/70/3 95/71/3 96/72/3
f 94/70/5 96/72/5 97/73/5
f 98/74/6 99/75/6 100/76/6
f 101/77/6 98/74/6 100/76/6
f 102/78/7 103/79/7 104/80/7
f 105/81/7 102/78/7 104/80/7
f 106/82/7 107/83/7 108/84/7
f 109/85/7 106/82/7 108/84/7
f 110/86/7 111/87/7 112/88/7
f 110/86/6 112/88/6 113/89/6
f 114/90/7 115/91/7 116/92/7
f 114/90/7 116/92/7 117/93/7
f 118/94/7 119/95/7 120/96/7
f 118/94/7 120/96/7 121/97/7
f 122/98/7 123/99/7 124/100/7
f 122/98/7 124/100/7 125/101/7
f 126/102/7 127/103/7 128/104/7
f 126/102/6 128/104/6 129/105/6
f 130/106/7 131/107/7 132/108/7
f 133/109/7 130/106/7 132/108/7
f 134/110/7 135/111/7 136/112/7
f 134/110/7 136/112/7 137/113/7
f 138/114/7 139/115/7 140/116/7
f 138/114/7 140/116/7 141/117/7
f 142/118/7 143/119/7 144/120/7
f 142/118/7 144/120/7 145/121/7
f 146/122/7 147/123/7 148/124/7
f 146/122/8 148/124/8 149/125/8
f 150/126/9 151/127/9 152/128/9
f 150/126/9 152/128/9 153/129/9
f 154/130/9 155/131/9 156/132/9
f 154/130/9 156/132/9 157/133/9
f 158/134/9 159/135/9 160/136/9
f 161/137/9 158/134/9 160/136/9
f 162/138/9 163/139/9 164/140/9
f 162/138/9 164/140/9 165/141/9
f 166/142/9 167/143/9 168/144/9
f 166/142/9 168/144/9 169/145/9
f 170/146/9 171/147/9 172/148/9
f 173/149/9 170/146/9 172/148/9
f 174/150/9 175/151/9 176/152/9
f 174/150/9 176/152/9 177/153/9
f 178/154/9 179/155/9 180/156/9
f 178/154/9 180/156/9 181/157/9
f 182/158/9 183/159/9 184/160/9
f 185/161/9 182/158/9 184/160/9
f 186/162/9 187/163/9 188/164/9
f 189/165/9 186/162/9 188/164/9
f 190/166/9 191/167/9 192/168/9
f 193/169/9 190/166/9 192/168/9
s 1
f 9/170/1 10/171/1 11/172/1
f 12/173/1 9/170/1 11/172/1
f 13/174/1 14/175/1 15/176/1
f 16/177/1 13/174/1 15/176/1
f 21/178/1 22/179/1 23/180/1
f 24/181/1 21/178/1 23/180/1
f 25/182/1 26/183/1 27/184/1
f 28/185/1 25/182/1 27/184/1
f 45/186/1 46/187/1 47/188/1
f 48/189/1 45/186/1 47/188/1
f 49/190/1 50/191/1 51/192/1
f 52/193/1 49/190/1 51/192/1
