# Blender v3.0.1 OBJ File: 'rockerfeller_plaza.blend'
# www.blender.org
o geometryt000010000010000110010110000110000110100100000000st10
v 417.085938 -210.545975 889.766357
v 417.389526 -210.709885 926.948120
v 417.085938 -210.545975 926.948120
v 413.270508 -208.487381 889.766357
v 417.389526 -210.709885 886.948120
v 413.270508 -208.487381 926.948120
v 413.049835 -208.368271 926.948120
v 413.049835 -208.368271 889.766357
v 409.234436 -206.309570 889.766357
v 409.234436 -206.309570 926.948120
v 409.013733 -206.190582 926.948120
v 409.013733 -206.190582 889.766357
v 407.741943 -205.504272 889.766357
v 407.741943 -205.504272 926.948120
v 407.521240 -205.385284 926.948120
v 407.521240 -205.385284 889.766357
v 406.249451 -204.698975 889.766357
v 406.249451 -204.698975 926.948120
v 406.028748 -204.579971 926.948120
v 406.028748 -204.579971 889.766357
v 402.213318 -202.521271 889.766357
v 402.213318 -202.521271 926.948120
v 401.992615 -202.402176 926.948120
v 401.992615 -202.402176 889.766357
v 400.720825 -201.715973 889.766357
v 400.720825 -201.715973 926.948120
v 400.500122 -201.596878 926.948120
v 400.500122 -201.596878 889.766357
v 399.228333 -200.910675 889.766357
v 383.831543 -192.603073 886.948120
v 399.228333 -200.910675 926.948120
v 399.007629 -200.791580 926.948120
v 399.007629 -200.791580 889.766357
v 395.192322 -198.732971 889.766357
v 395.192322 -198.732971 926.948120
v 394.971527 -198.613876 926.948120
v 394.971527 -198.613876 889.766357
v 393.699829 -197.927673 889.766357
v 393.699829 -197.927673 926.948120
v 393.479034 -197.808578 926.948120
v 393.479034 -197.808578 889.766357
v 392.207336 -197.122375 889.766357
v 392.207336 -197.122375 926.948120
v 391.986511 -197.003281 926.948120
v 391.986511 -197.003281 889.766357
v 388.171234 -194.944580 889.766357
v 388.171234 -194.944580 926.948120
v 387.950531 -194.825485 926.948120
v 387.950531 -194.825485 889.766357
v 384.135132 -192.766876 889.766357
v 384.135132 -192.766876 926.948120
v 383.831543 -192.603073 926.948120
v 384.062012 -192.175583 889.766357
v 383.831543 -192.603073 926.948120
v 384.062012 -192.175583 926.948120
v 395.269714 -171.398285 886.948120
v 395.039246 -171.825684 889.766357
v 383.831543 -192.603073 886.948120
v 395.039246 -171.825684 926.948120
v 395.269714 -171.398285 926.948120
v 395.808136 -171.689285 889.766357
v 395.269714 -171.398285 926.948120
v 395.808136 -171.689285 926.948120
v 398.350647 -173.063675 889.766357
v 395.269714 -171.398285 886.948120
v 398.350647 -173.063675 926.948120
v 398.888916 -173.354675 926.948120
v 398.888916 -173.354675 886.948120
v 399.105835 -172.953384 889.766357
v 398.888916 -173.354675 926.948120
v 399.105835 -172.953384 926.948120
v 401.854126 -167.868073 889.766357
v 398.888916 -173.354675 886.948120
v 401.854126 -167.868073 926.948120
v 402.070923 -167.466782 926.948120
v 402.070923 -167.466782 886.948120
v 402.234741 -167.163177 889.766357
v 402.070923 -167.466782 926.948120
v 402.234741 -167.163177 926.948120
v 404.292114 -163.347183 889.766357
v 402.070923 -167.466782 886.948120
v 404.292114 -163.347183 926.948120
v 404.373718 -163.195877 926.948120
v 404.373718 -163.195877 889.766357
v 406.431152 -159.379883 889.766357
v 406.431152 -159.379883 926.948120
v 406.512726 -159.228577 926.948120
v 406.512726 -159.228577 889.766357
v 407.198547 -157.956573 889.766357
v 407.198547 -157.956573 926.948120
v 407.280151 -157.805283 926.948120
v 407.280151 -157.805283 889.766357
v 407.965942 -156.533279 889.766357
v 407.965942 -156.533279 926.948120
v 408.047546 -156.382080 926.948120
v 408.047546 -156.382080 889.766357
v 408.733337 -155.110077 889.766357
v 408.733337 -155.110077 926.948120
v 408.814819 -154.958771 926.948120
v 408.814819 -154.958771 889.766357
v 409.500610 -153.686783 889.766357
v 409.500610 -153.686783 926.948120
v 409.582214 -153.535477 926.948120
v 409.582214 -153.535477 889.766357
v 416.244537 -141.178680 886.948120
v 410.268036 -152.263474 889.766357
v 410.268036 -152.263474 926.948120
v 410.349609 -152.112274 926.948120
v 410.349609 -152.112274 889.766357
v 411.035431 -150.840179 889.766357
v 411.035431 -150.840179 926.948120
v 411.117035 -150.688980 926.948120
v 411.117035 -150.688980 889.766357
v 411.802826 -149.416977 889.766357
v 411.802826 -149.416977 926.948120
v 411.884338 -149.265671 926.948120
v 411.884338 -149.265671 889.766357
v 413.941833 -145.449677 889.766357
v 413.941833 -145.449677 926.948120
v 414.023438 -145.298370 926.948120
v 414.023438 -145.298370 889.766357
v 416.080811 -141.482376 889.766357
v 416.080811 -141.482376 926.948120
v 416.244537 -141.178680 926.948120
v 416.548218 -141.342484 889.766357
v 416.244537 -141.178680 926.948120
v 416.548218 -141.342484 926.948120
v 420.364136 -143.400177 889.766357
v 416.244537 -141.178680 886.948120
v 420.364136 -143.400177 926.948120
v 420.512329 -143.480072 926.948120
v 420.512329 -143.480072 889.766357
v 424.328125 -145.537872 889.766357
v 424.328125 -145.537872 926.948120
v 424.476318 -145.617783 926.948120
v 424.476318 -145.617783 889.766357
v 425.748352 -146.303680 889.766357
v 425.748352 -146.303680 926.948120
v 425.896423 -146.383575 926.948120
v 425.896423 -146.383575 889.766357
v 427.168427 -147.069473 889.766357
v 427.168427 -147.069473 926.948120
v 427.316650 -147.149384 926.948120
v 427.316650 -147.149384 889.766357
v 428.588531 -147.835281 889.766357
v 428.588531 -147.835281 926.948120
v 428.736725 -147.915176 926.948120
v 428.736725 -147.915176 889.766357
v 432.552612 -149.972885 889.766357
v 432.552612 -149.972885 926.948120
v 432.700836 -150.052780 926.948120
v 432.700836 -150.052780 889.766357
v 445.044739 -156.709381 886.948120
v 433.972717 -150.738785 889.766357
v 433.972717 -150.738785 926.948120
v 434.120911 -150.818680 926.948120
v 434.120911 -150.818680 889.766357
v 435.392944 -151.504578 889.766357
v 435.392944 -151.504578 926.948120
v 435.541016 -151.584473 926.948120
v 435.541016 -151.584473 889.766357
v 436.813049 -152.270370 889.766357
v 436.813049 -152.270370 926.948120
v 436.961243 -152.350281 926.948120
v 436.961243 -152.350281 889.766357
v 440.777039 -154.407974 889.766357
v 440.777039 -154.407974 926.948120
v 440.925232 -154.487885 926.948120
v 440.925232 -154.487885 889.766357
v 444.741150 -156.545685 889.766357
v 444.741150 -156.545685 926.948120
v 445.044739 -156.709381 926.948120
v 425.306519 -196.027481 889.766357
v 425.678833 -195.336884 926.948120
v 425.306519 -196.027481 926.948120
v 417.389526 -210.709885 886.948120
v 417.761932 -210.019272 889.766357
v 425.678833 -195.336884 886.948120
v 417.761932 -210.019272 926.948120
v 417.389526 -210.709885 926.948120
v 444.881836 -157.013474 889.766357
v 445.045532 -156.709778 926.948120
v 444.881836 -157.013474 926.948120
v 442.824646 -160.829575 889.766357
v 445.045532 -156.709778 886.948120
v 442.824646 -160.829575 926.948120
v 442.744019 -160.979172 926.948120
v 442.744019 -160.979172 889.766357
v 440.686737 -164.795273 889.766357
v 440.686737 -164.795273 926.948120
v 440.606140 -164.944778 926.948120
v 440.606140 -164.944778 889.766357
v 439.920410 -166.216873 889.766357
v 439.920410 -166.216873 926.948120
v 439.839722 -166.366379 926.948120
v 439.839722 -166.366379 889.766357
v 439.154022 -167.638474 889.766357
v 439.154022 -167.638474 926.948120
v 439.073425 -167.787979 926.948120
v 439.073425 -167.787979 889.766357
v 437.016113 -171.604080 889.766357
v 437.016113 -171.604080 926.948120
v 436.935547 -171.753571 926.948120
v 436.935547 -171.753571 889.766357
v 429.904327 -184.796280 886.948120
v 435.564026 -174.297684 889.766357
v 435.564026 -174.297684 926.948120
v 435.483429 -174.447281 926.948120
v 435.483429 -174.447281 889.766357
v 434.111938 -176.991272 889.766357
v 434.111938 -176.991272 926.948120
v 434.031311 -177.140884 926.948120
v 434.031311 -177.140884 889.766357
v 432.659851 -179.684982 889.766357
v 432.659851 -179.684982 926.948120
v 432.579224 -179.834473 926.948120
v 432.579224 -179.834473 889.766357
v 430.521912 -183.650574 889.766357
v 430.521912 -183.650574 926.948120
v 430.441345 -183.800171 926.948120
v 430.441345 -183.800171 889.766357
v 429.755615 -185.072174 889.766357
v 429.755615 -185.072174 926.948120
v 429.675049 -185.221680 926.948120
v 429.675049 -185.221680 889.766357
v 428.989227 -186.493774 889.766357
v 428.989227 -186.493774 926.948120
v 428.908630 -186.643280 926.948120
v 428.908630 -186.643280 889.766357
v 426.851318 -190.459381 889.766357
v 426.851318 -190.459381 926.948120
v 426.770752 -190.608978 926.948120
v 426.770752 -190.608978 889.766357
v 424.549835 -194.728775 886.948120
v 424.713531 -194.425079 889.766357
v 424.713531 -194.425079 926.948120
v 424.549835 -194.728775 926.948120
v 425.678833 -195.336884 886.948120
v 424.548950 -194.728271 886.948120
v 424.548950 -194.728271 926.948120
v 425.678833 -195.336884 926.948120
vt 37.938080 3.296220
vt 38.284458 46.783630
vt 37.938080 46.783630
vt 33.585331 3.296220
vt 38.284458 0.000000
vt 33.585331 46.783630
vt 33.333530 46.783630
vt 33.333530 3.296220
vt 28.980789 3.296220
vt 28.980789 46.783630
vt 28.729000 46.783630
vt 28.729000 3.296220
vt 27.278080 3.296220
vt 27.278080 46.783630
vt 27.026291 46.783630
vt 27.026291 3.296220
vt 25.575371 3.296220
vt 25.575371 46.783630
vt 25.323580 46.783630
vt 25.323580 3.296220
vt 20.970831 3.296220
vt 20.970831 46.783630
vt 20.719040 46.783630
vt 20.719040 3.296220
vt 19.268129 3.296220
vt 19.268129 46.783630
vt 19.016331 46.783630
vt 19.016331 3.296220
vt 17.565420 3.296220
vt 0.000000 0.000000
vt 17.565420 46.783630
vt 17.313629 46.783630
vt 17.313629 3.296220
vt 12.960880 3.296220
vt 12.960880 46.783630
vt 12.709090 46.783630
vt 12.709090 3.296220
vt 11.258170 3.296220
vt 11.258170 46.783630
vt 11.006380 46.783630
vt 11.006380 3.296220
vt 9.555460 3.296220
vt 9.555460 46.783630
vt 9.303670 46.783630
vt 9.303670 3.296220
vt 4.950920 3.296220
vt 4.950920 46.783630
vt 4.699130 46.783630
vt 4.699130 3.296220
vt 0.346390 3.296220
vt 0.346390 46.783630
vt 0.000000 46.783630
vt 23.702250 3.296220
vt 24.189859 46.783630
vt 23.702250 46.783630
vt 0.000000 0.000000
vt 0.487610 3.296220
vt 24.189859 0.000000
vt 0.487610 46.783630
vt 0.000000 46.783630
vt 3.516240 3.296220
vt 4.130650 46.783630
vt 3.516240 46.783630
vt 0.614410 3.296220
vt 4.130650 0.000000
vt 0.614410 46.783630
vt 0.000000 46.783630
vt 0.000000 0.000000
vt 6.261590 3.296220
vt 6.719520 46.783630
vt 6.261590 46.783630
vt 0.457930 3.296220
vt 6.719520 0.000000
vt 0.457930 46.783630
vt 0.000000 46.783630
vt 0.000000 0.000000
vt 29.639179 3.296220
vt 29.985571 46.783630
vt 29.639179 46.783630
vt 25.286440 3.296220
vt 29.985571 0.000000
vt 25.286440 46.783630
vt 25.113899 46.783630
vt 25.113899 3.296220
vt 20.761150 3.296220
vt 20.761150 46.783630
vt 20.588610 46.783630
vt 20.588610 3.296220
vt 19.137699 3.296220
vt 19.137699 46.783630
vt 18.965151 46.783630
vt 18.965151 3.296220
vt 17.514240 3.296220
vt 17.341700 3.296220
vt 15.890780 3.296220
vt 15.718240 3.296220
vt 14.267330 3.296220
vt 14.267330 46.783630
vt 14.094780 46.783630
vt 14.094780 3.296220
vt 0.000000 0.000000
vt 12.643870 3.296220
vt 11.020410 3.296220
vt 12.471330 3.296220
vt 9.396961 3.296220
vt 10.847870 3.296220
vt 9.396961 46.783630
vt 9.224420 46.783630
vt 9.224420 3.296220
vt 4.871670 3.296220
vt 4.871670 46.783630
vt 4.699130 46.783630
vt 4.699130 3.296220
vt 0.346390 3.296220
vt 0.346390 46.783630
vt 0.000000 46.783630
vt 32.505859 3.296220
vt 32.852249 46.783630
vt 32.505859 46.783630
vt 28.153120 3.296220
vt 32.852249 0.000000
vt 28.153120 46.783630
vt 27.984091 46.783630
vt 27.984091 3.296220
vt 23.631350 3.296220
vt 23.631350 46.783630
vt 23.462320 46.783630
vt 23.462320 3.296220
vt 22.011410 3.296220
vt 22.011410 46.783630
vt 21.842381 46.783630
vt 21.842381 3.296220
vt 20.391470 3.296220
vt 20.391470 46.783630
vt 20.222441 46.783630
vt 20.222441 3.296220
vt 18.771521 3.296220
vt 18.771521 46.783630
vt 18.602501 46.783630
vt 18.602501 3.296220
vt 14.249750 3.296220
vt 14.249750 46.783630
vt 14.080730 46.783630
vt 14.080730 3.296220
vt 0.000000 0.000000
vt 12.629810 3.296220
vt 12.629810 46.783630
vt 12.460780 46.783630
vt 12.460780 3.296220
vt 11.009870 3.296220
vt 11.009870 46.783630
vt 10.840840 46.783630
vt 10.840840 3.296220
vt 9.389930 3.296220
vt 9.389930 46.783630
vt 9.220900 46.783630
vt 9.220900 3.296220
vt 4.868160 3.296220
vt 4.868160 46.783630
vt 4.699130 46.783630
vt 4.699130 3.296220
vt 0.346390 3.296220
vt 0.346390 46.783630
vt 0.000000 46.783630
vt 16.747801 3.296220
vt 17.535530 46.783630
vt 16.747801 46.783630
vt 0.000000 0.000000
vt 17.535530 0.000000
vt 0.787730 46.783630
vt 0.000000 46.783630
vt 0.787730 3.296220
vt 43.018711 3.296220
vt 43.365089 46.783630
vt 43.018711 46.783630
vt 38.665958 3.296220
vt 43.365089 0.000000
vt 38.665958 46.783630
vt 38.495399 46.783630
vt 38.495399 3.296220
vt 34.142658 3.296220
vt 34.142658 46.783630
vt 33.972099 46.783630
vt 33.972099 3.296220
vt 32.521191 3.296220
vt 32.350632 3.296220
vt 30.899710 3.296220
vt 30.899710 46.783630
vt 30.729151 46.783630
vt 30.729151 3.296220
vt 26.376410 3.296220
vt 26.376410 46.783630
vt 26.205851 46.783630
vt 26.205851 3.296220
vt 11.329220 0.000000
vt 23.304020 3.296220
vt 23.304020 46.783630
vt 23.133459 46.783630
vt 23.133459 3.296220
vt 17.159241 46.783630
vt 16.988680 46.783630
vt 17.159241 3.296220
vt 16.988680 3.296220
vt 12.635940 3.296220
vt 12.635940 46.783630
vt 12.465380 46.783630
vt 12.465380 3.296220
vt 11.014470 3.296220
vt 11.014470 46.783630
vt 10.843910 46.783630
vt 10.843910 3.296220
vt 9.392991 46.783630
vt 9.222431 46.783630
vt 9.392991 3.296220
vt 9.222431 3.296220
vt 4.869690 3.296220
vt 4.869690 46.783630
vt 4.699130 46.783630
vt 4.699130 3.296220
vt 0.000000 0.000000
vt 0.346390 3.296220
vt 0.346390 46.783630
vt 0.000000 46.783630
vt 17.514240 46.783630
vt 17.341700 46.783630
vt 15.890780 46.783630
vt 15.718240 46.783630
vt 12.643870 46.783630
vt 12.471330 46.783630
vt 11.020410 46.783630
vt 10.847870 46.783630
vt 32.521191 46.783630
vt 32.350632 46.783630
vt 20.231630 3.296220
vt 20.231630 46.783630
vt 20.061069 46.783630
vt 20.061069 3.296220
vt 0.000000 0.000000
vt 1.288550 0.000000
vt 1.288550 46.783630
vt 0.000000 46.783630
vn -0.4751 -0.8800 0.0000
vn -0.4748 -0.8801 0.0000
vn -0.4749 -0.8800 0.0000
vn -0.4751 -0.8799 0.0000
vn -0.4752 -0.8799 -0.0002
vn -0.4749 -0.8801 0.0000
vn -0.4745 -0.8802 0.0000
vn -0.4748 -0.8801 -0.0002
vn -0.4746 -0.8802 0.0000
vn -0.4748 -0.8801 -0.0001
vn -0.4747 -0.8802 0.0000
vn -0.4753 -0.8798 0.0007
vn -0.4750 -0.8800 0.0000
vn -0.4752 -0.8799 0.0007
vn -0.4752 -0.8799 0.0000
vn -0.4751 -0.8799 0.0003
vn -0.4750 -0.8800 0.0001
vn -0.4748 -0.8801 0.0002
vn -0.8802 0.4745 0.0000
vn -0.8801 0.4747 0.0000
vn -0.8801 0.4748 -0.0000
vn -0.8802 0.4746 0.0000
vn -0.8802 0.4747 0.0000
vn 0.4755 0.8797 0.0000
vn 0.4756 0.8797 0.0000
vn -0.8797 0.4755 0.0000
vn -0.8798 0.4753 0.0000
vn -0.8797 0.4754 0.0000
vn -0.8800 0.4749 0.0000
vn -0.8804 0.4742 0.0003
vn -0.8801 0.4749 0.0003
vn -0.8803 0.4745 0.0001
vn -0.8802 0.4745 -0.0003
vn -0.8803 0.4744 0.0001
vn -0.8801 0.4748 0.0002
vn -0.8802 0.4747 -0.0001
vn -0.8803 0.4744 0.0000
vn -0.8800 0.4750 0.0000
vn -0.8803 0.4744 0.0003
vn 0.4747 0.8802 0.0000
vn 0.4746 0.8802 0.0000
vn 0.4748 0.8801 0.0000
vn 0.4744 0.8803 0.0003
vn 0.4747 0.8802 -0.0001
vn 0.4753 0.8798 0.0001
vn 0.4745 0.8802 0.0001
vn 0.4746 0.8802 0.0001
vn 0.4745 0.8802 0.0000
vn 0.4754 0.8798 0.0010
vn 0.4747 0.8801 -0.0001
vn 0.4744 0.8803 0.0000
vn 0.4743 0.8804 0.0000
vn 0.4748 0.8801 0.0004
vn 0.4752 0.8799 -0.0005
vn 0.4746 0.8802 -0.0001
vn 0.8803 -0.4745 0.0000
vn 0.8802 -0.4746 -0.0000
vn 0.8803 -0.4744 0.0000
vn 0.8802 -0.4745 -0.0000
vn 0.8804 -0.4742 0.0000
vn 0.8803 -0.4743 0.0001
vn 0.8802 -0.4747 0.0000
vn 0.8802 -0.4746 0.0001
vn 0.8803 -0.4744 0.0002
vn 0.8801 -0.4749 -0.0003
vn 0.8802 -0.4745 -0.0001
vn 0.8801 -0.4747 0.0000
vn 0.8804 -0.4742 -0.0002
vn 0.8801 -0.4748 0.0001
vn -0.4748 -0.8801 -0.0004
vn -0.4753 -0.8798 -0.0006
vn -0.4753 -0.8798 0.0010
vn -0.8799 0.4751 -0.0003
vn -0.8801 0.4747 -0.0004
vn -0.8803 0.4743 -0.0000
vn -0.8801 0.4748 -0.0005
vn -0.8800 0.4750 -0.0003
vn -0.8801 0.4747 -0.0001
vn -0.8799 0.4752 -0.0005
vn -0.8799 0.4752 0.0000
vn -0.8799 0.4751 0.0000
vn -0.8805 0.4740 -0.0000
vn -0.8809 0.4733 -0.0000
vn -0.8812 0.4728 -0.0001
vn -0.8804 0.4743 0.0000
vn -0.8807 0.4736 0.0001
vn -0.8810 0.4731 0.0002
vn -0.8798 0.4753 0.0010
vn 0.4739 0.8806 0.0005
vn 0.4736 0.8807 -0.0006
vn 0.4753 0.8798 0.0004
vn 0.8802 -0.4745 0.0002
vn 0.8802 -0.4746 0.0002
vn 0.8806 -0.4739 -0.0021
vn 0.8804 -0.4741 -0.0003
vn 0.8804 -0.4742 -0.0003
vn 0.8801 -0.4748 0.0000
vn 0.8803 -0.4744 0.0007
vn 0.8804 -0.4743 0.0005
vn 0.8802 -0.4746 -0.0004
vn 0.4742 0.8804 0.0000
s off
f 1/1/1 2/2/1 3/3/1
f 4/4/2 5/5/2 1/1/2
f 2/2/2 1/1/2 5/5/2
f 6/6/3 7/7/3 4/4/3
f 7/7/4 8/8/4 4/4/4
f 8/8/5 5/5/5 4/4/5
f 8/8/6 9/9/6 5/5/6
f 10/10/3 11/11/3 9/9/3
f 11/11/7 12/12/7 9/9/7
f 12/12/8 13/13/8 5/5/8
f 14/14/2 15/15/2 13/13/2
f 15/15/9 16/16/9 13/13/9
f 16/16/10 17/17/10 5/5/10
f 18/18/11 19/19/11 17/17/11
f 19/19/9 20/20/9 17/17/9
f 20/20/2 21/21/2 5/5/2
f 22/22/3 23/23/3 21/21/3
f 23/23/2 24/24/2 21/21/2
f 21/21/12 24/24/12 5/5/12
f 24/24/13 25/25/13 5/5/13
f 26/26/2 27/27/2 25/25/2
f 27/27/3 28/28/3 25/25/3
f 25/25/14 28/28/14 5/5/14
f 29/29/2 30/30/2 28/28/2
f 28/28/6 30/30/6 5/5/6
f 31/31/3 32/32/3 29/29/3
f 32/32/2 33/33/2 29/29/2
f 33/33/15 30/30/15 29/29/15
f 34/34/3 30/30/3 33/33/3
f 35/35/11 36/36/11 34/34/11
f 36/36/2 37/37/2 34/34/2
f 38/38/2 30/30/2 37/37/2
f 39/39/11 40/40/11 38/38/11
f 40/40/2 41/41/2 38/38/2
f 41/41/16 30/30/16 38/38/16
f 42/42/17 30/30/17 41/41/17
f 43/43/11 44/44/11 42/42/11
f 44/44/11 45/45/11 42/42/11
f 46/46/6 30/30/6 45/45/6
f 47/47/3 48/48/3 46/46/3
f 48/48/2 49/49/2 46/46/2
f 49/49/18 30/30/18 46/46/18
f 50/50/2 30/30/2 49/49/2
f 51/51/6 52/52/6 50/50/6
f 52/52/2 30/30/2 50/50/2
f 53/53/19 54/54/19 55/55/19
f 56/56/20 53/53/20 57/57/20
f 56/56/21 58/58/21 53/53/21
f 54/54/22 53/53/22 58/58/22
f 59/59/22 60/60/22 57/57/22
f 60/60/23 56/56/23 57/57/23
f 61/61/24 62/62/24 63/63/24
f 64/64/24 65/65/24 61/61/24
f 62/62/24 61/61/24 65/65/24
f 66/66/25 67/67/25 64/64/25
f 67/67/25 68/68/25 64/64/25
f 68/68/24 65/65/24 64/64/24
f 69/69/26 70/70/26 71/71/26
f 72/72/26 73/73/26 69/69/26
f 70/70/26 69/69/26 73/73/26
f 74/74/27 75/75/27 72/72/27
f 75/75/27 76/76/27 72/72/27
f 76/76/28 73/73/28 72/72/28
f 77/77/29 78/78/29 79/79/29
f 80/80/22 81/81/22 77/77/22
f 82/82/19 83/83/19 80/80/19
f 83/83/22 84/84/22 80/80/22
f 84/84/30 81/81/30 80/80/30
f 84/84/22 85/85/22 81/81/22
f 86/86/22 87/87/22 85/85/22
f 87/87/22 88/88/22 85/85/22
f 85/85/31 88/88/31 81/81/31
f 88/88/32 89/89/32 81/81/32
f 90/90/22 91/91/22 89/89/22
f 91/91/22 92/92/22 89/89/22
f 92/92/32 93/93/32 81/81/32
f 96/94/33 97/95/33 81/81/33
f 100/96/34 101/97/34 81/81/34
f 102/98/19 103/99/19 101/97/19
f 103/99/22 104/100/22 101/97/22
f 101/97/22 105/101/22 81/81/22
f 106/102/23 105/101/23 104/100/23
f 110/103/35 105/101/35 109/104/35
f 114/105/36 105/101/36 113/106/36
f 115/107/37 116/108/37 114/105/37
f 116/108/38 117/109/38 114/105/38
f 118/110/22 105/101/22 117/109/22
f 119/111/21 120/112/21 118/110/21
f 120/112/22 121/113/22 118/110/22
f 121/113/39 105/101/39 118/110/39
f 122/114/22 105/101/22 121/113/22
f 123/115/37 124/116/37 122/114/37
f 124/116/22 105/101/22 122/114/22
f 125/117/40 126/118/40 127/119/40
f 128/120/41 129/121/41 125/117/41
f 126/118/42 125/117/42 129/121/42
f 130/122/41 131/123/41 128/120/41
f 131/123/41 132/124/41 128/120/41
f 132/124/43 129/121/43 128/120/43
f 132/124/44 133/125/44 129/121/44
f 134/126/41 135/127/41 133/125/41
f 135/127/41 136/128/41 133/125/41
f 133/125/45 136/128/45 129/121/45
f 136/128/46 137/129/46 129/121/46
f 138/130/42 139/131/42 137/129/42
f 139/131/42 140/132/42 137/129/42
f 140/132/47 141/133/47 129/121/47
f 142/134/48 143/135/48 141/133/48
f 143/135/48 144/136/48 141/133/48
f 141/133/49 144/136/49 129/121/49
f 144/136/50 145/137/50 129/121/50
f 146/138/41 147/139/41 145/137/41
f 147/139/51 148/140/51 145/137/51
f 148/140/47 149/141/47 129/121/47
f 150/142/41 151/143/41 149/141/41
f 151/143/52 152/144/52 149/141/52
f 149/141/41 153/145/41 129/121/41
f 154/146/53 153/145/53 152/144/53
f 155/147/51 156/148/51 154/146/51
f 156/148/41 157/149/41 154/146/41
f 157/149/54 153/145/54 154/146/54
f 158/150/55 153/145/55 157/149/55
f 159/151/48 160/152/48 158/150/48
f 160/152/42 161/153/42 158/150/42
f 162/154/55 153/145/55 161/153/55
f 163/155/41 164/156/41 162/154/41
f 164/156/41 165/157/41 162/154/41
f 165/157/51 153/145/51 162/154/51
f 166/158/40 153/145/40 165/157/40
f 167/159/48 168/160/48 166/158/48
f 168/160/42 169/161/42 166/158/42
f 169/161/41 153/145/41 166/158/41
f 170/162/41 153/145/41 169/161/41
f 171/163/41 172/164/41 170/162/41
f 172/164/40 153/145/40 170/162/40
f 173/165/56 174/166/56 175/167/56
f 176/168/57 178/169/57 173/165/57
f 179/170/57 180/171/57 177/172/57
f 180/171/57 176/168/57 177/172/57
f 181/173/58 182/174/58 183/175/58
f 184/176/59 185/177/59 181/173/59
f 182/174/56 181/173/56 185/177/56
f 186/178/60 187/179/60 184/176/60
f 187/179/57 188/180/57 184/176/57
f 184/176/61 188/180/61 185/177/61
f 188/180/59 189/181/59 185/177/59
f 190/182/58 191/183/58 189/181/58
f 191/183/62 192/184/62 189/181/62
f 185/177/63 192/184/63 193/185/63
f 185/177/64 196/186/64 197/187/64
f 198/188/62 199/189/62 197/187/62
f 199/189/56 200/190/56 197/187/56
f 185/177/65 197/187/65 200/190/65
f 185/177/66 200/190/66 201/191/66
f 202/192/56 203/193/56 201/191/56
f 203/193/60 204/194/60 201/191/60
f 185/177/59 201/191/59 205/195/59
f 204/194/59 206/196/59 205/195/59
f 207/197/60 208/198/60 206/196/60
f 208/198/57 209/199/57 206/196/57
f 215/200/67 216/201/67 214/202/67
f 216/201/58 217/203/58 214/202/58
f 217/203/59 218/204/59 205/195/59
f 219/205/57 220/206/57 218/204/57
f 220/206/58 221/207/58 218/204/58
f 218/204/68 221/207/68 205/195/68
f 221/207/57 222/208/57 205/195/57
f 223/209/58 224/210/58 222/208/58
f 224/210/60 225/211/60 222/208/60
f 222/208/58 225/211/58 205/195/58
f 227/212/58 228/213/58 226/214/58
f 228/213/56 229/215/56 226/214/56
f 226/214/69 229/215/69 205/195/69
f 229/215/57 230/216/57 205/195/57
f 231/217/58 232/218/58 230/216/58
f 232/218/57 233/219/57 230/216/57
f 230/216/59 234/220/59 205/195/59
f 235/221/59 234/220/59 233/219/59
f 236/222/58 237/223/58 235/221/58
f 237/223/58 234/220/58 235/221/58
s 1
f 9/9/70 12/12/70 5/5/70
f 13/13/71 16/16/71 5/5/71
f 17/17/71 20/20/71 5/5/71
f 37/37/72 30/30/72 34/34/72
f 45/45/4 30/30/4 42/42/4
f 78/78/37 77/77/37 81/81/37
f 89/89/73 92/92/73 81/81/73
f 94/224/22 95/225/21 93/93/74
f 95/225/21 96/94/75 93/93/74
f 93/93/74 96/94/75 81/81/76
f 98/226/37 99/227/22 97/95/77
f 99/227/22 100/96/78 97/95/77
f 97/95/77 100/96/78 81/81/79
f 104/100/80 105/101/80 101/97/80
f 107/228/81 108/229/22 106/102/82
f 108/229/22 109/104/83 106/102/82
f 109/104/83 105/101/84 106/102/82
f 111/230/22 112/231/22 110/103/85
f 112/231/22 113/106/86 110/103/85
f 113/106/86 105/101/87 110/103/85
f 117/109/88 105/101/88 114/105/88
f 137/129/45 140/132/45 129/121/45
f 145/137/89 148/140/89 129/121/89
f 152/144/90 153/145/90 149/141/90
f 161/153/91 153/145/91 158/150/91
f 176/168/57 173/165/57 177/172/57
f 174/166/59 173/165/59 178/169/59
f 185/177/57 189/181/57 192/184/57
f 194/232/56 195/233/56 193/185/92
f 195/233/56 196/186/57 193/185/92
f 185/177/93 193/185/92 196/186/57
f 201/191/94 204/194/94 205/195/94
f 206/196/95 209/199/96 205/195/56
f 209/199/96 210/234/56 205/195/56
f 211/235/97 212/236/97 210/234/56
f 212/236/97 213/237/98 210/234/56
f 210/234/56 213/237/98 205/195/56
f 213/237/98 214/202/56 205/195/56
f 214/202/56 217/203/99 205/195/56
f 225/211/59 226/214/59 205/195/59
f 233/219/100 234/220/100 230/216/100
f 238/238/101 239/239/101 240/240/101
f 238/238/101 240/240/101 241/241/101
