# Blender v3.0.1 OBJ File: 'rockerfeller_plaza.blend'
# www.blender.org
o geometryt000010000010000110010110000110000110100000100100st21
v 496.795593 -223.595520 613.074463
v 498.347107 -224.427017 613.074463
v 498.347107 -224.427017 650.824524
v 496.795593 -223.595520 650.824524
v 499.166687 -224.866226 613.074463
v 502.269714 -226.529221 613.074463
v 502.269714 -226.529221 650.824524
v 499.166687 -224.866226 650.824524
v 503.687592 -227.289124 650.824524
v 503.089203 -226.968430 613.074463
v 504.640686 -227.799927 613.074463
v 503.089203 -226.968430 650.824524
v 504.640686 -227.799927 650.824524
v 497.487305 -221.577621 650.824524
v 497.487305 -221.577621 613.074463
v 496.654694 -223.128616 613.074463
v 496.654694 -223.128616 650.824524
v 502.055481 -213.068329 650.824524
v 502.055481 -213.068329 613.074463
v 498.725098 -219.271927 613.074463
v 498.725098 -219.271927 650.824524
v 504.125793 -209.211624 613.074463
v 503.293304 -210.762527 613.074463
v 503.293304 -210.762527 650.824524
v 504.125793 -209.211624 650.824524
v 508.694000 -200.702316 650.824524
v 508.694000 -200.702316 613.074463
v 505.363586 -206.905930 613.074463
v 505.363586 -206.905930 650.824524
v 510.764282 -196.845627 650.824524
v 510.764282 -196.845627 613.074463
v 509.931793 -198.396530 613.074463
v 509.931793 -198.396530 650.824524
v 505.102112 -227.657120 650.824524
v 505.102112 -227.657120 613.074463
v 505.934601 -226.106216 613.074463
v 505.934601 -226.106216 650.824524
v 507.171814 -223.801331 613.074463
v 510.501801 -217.597427 613.074463
v 510.501801 -217.597427 650.824524
v 507.171814 -223.801331 650.824524
v 511.738983 -215.292526 613.074463
v 512.571533 -213.741623 613.074463
v 512.571533 -213.741623 650.824524
v 511.738983 -215.292526 650.824524
v 513.808716 -211.436722 613.074463
v 517.138672 -205.232925 613.074463
v 517.138672 -205.232925 650.824524
v 513.808716 -211.436722 650.824524
v 518.561890 -202.581329 650.824524
v 518.375854 -202.927917 613.074463
v 519.208374 -201.377029 613.074463
v 518.375854 -202.927917 650.824524
v 519.208374 -201.377029 650.824524
v 512.782593 -197.537125 650.824524
v 512.782593 -197.537125 613.074463
v 511.231506 -196.704819 613.074463
v 511.231506 -196.704819 650.824524
v 516.700684 -199.639725 613.074463
v 513.598633 -197.975021 613.074463
v 513.598633 -197.975021 650.824524
v 516.700684 -199.639725 650.824524
v 519.067688 -200.910019 613.074463
v 517.516724 -200.077621 613.074463
v 517.516724 -200.077621 650.824524
v 519.067688 -200.910019 650.824524
vt 0.000000 3.000000
vt 0.000000 0.000000
vt 0.128550 3.000000
vt 0.333330 0.000000
vt 0.333330 3.000000
vt 0.000000 3.000000
vt 0.000000 0.000000
vt 0.333330 0.000000
vt 0.333330 3.000000
vt 0.000000 3.000000
vt 0.000000 0.000000
vt 1.333330 0.000000
vt 1.333330 3.000000
vt 0.000000 0.000000
vt 0.333330 0.000000
vt 0.333330 3.000000
vt 0.000000 3.000000
vt 0.000000 3.000000
vt 0.000000 0.000000
vt 1.333330 0.000000
vt 1.333330 3.000000
vt 0.000000 3.000000
vt 0.000000 0.000000
vt 0.333330 0.000000
vt 0.333330 3.000000
vt 0.000000 3.000000
vt 0.000000 0.000000
vt 0.333330 0.000000
vt 0.333330 3.000000
vt 0.000000 0.000000
vt 1.333330 0.000000
vt 1.333330 3.000000
vt 0.000000 3.000000
vt 0.000000 0.000000
vt 0.333330 0.000000
vt 0.333330 3.000000
vt 0.000000 3.000000
vt 0.074490 3.000000
vt 0.000000 0.000000
vt 0.333330 0.000000
vt 0.000000 3.000000
vt 0.333330 3.000000
vt 0.000000 3.000000
vt 0.000000 0.000000
vt 0.333330 0.000000
vt 0.333330 3.000000
vt 0.000000 0.000000
vt 0.666670 0.000000
vt 0.666670 3.000000
vt 0.000000 3.000000
vt 0.000000 0.000000
vt 0.333330 0.000000
vt 0.333330 3.000000
vt 0.000000 3.000000
vt 0.000000 0.000000
vt 0.333330 0.000000
vt 0.333330 3.000000
vt 0.000000 3.000000
vt 0.000000 0.000000
vt 0.666670 0.000000
vt 0.666670 3.000000
vt 0.000000 3.000000
vt 0.000000 0.000000
vt 1.333330 0.000000
vt 1.333330 3.000000
vt 0.000000 3.000000
vn -0.4724 -0.8814 0.0000
vn -0.8811 0.4730 0.0000
vn -0.8811 0.4729 0.0000
vn 0.8811 -0.4730 0.0000
vn 0.8811 -0.4729 0.0000
vn 0.4728 0.8811 0.0000
vn 0.4728 0.8812 0.0000
vn 0.4729 0.8811 0.0000
s off
f 12/1/1 10/2/1 9/3/1
f 9/3/1 11/4/1 13/5/1
f 14/6/2 15/7/2 16/8/2
f 14/6/2 16/8/2 17/9/2
f 18/10/2 19/11/2 20/12/2
f 18/10/2 20/12/2 21/13/2
f 22/14/3 23/15/3 24/16/3
f 25/17/3 22/14/3 24/16/3
f 26/18/2 27/19/2 28/20/2
f 26/18/2 28/20/2 29/21/2
f 30/22/3 31/23/3 32/24/3
f 30/22/3 32/24/3 33/25/3
f 34/26/4 35/27/4 36/28/4
f 34/26/5 36/28/5 37/29/5
f 38/30/5 39/31/5 40/32/5
f 41/33/5 38/30/5 40/32/5
f 42/34/4 43/35/4 44/36/4
f 45/37/4 42/34/4 44/36/4
f 50/38/5 51/39/5 52/40/5
f 53/41/4 51/39/4 50/38/4
f 50/38/4 52/40/4 54/42/4
f 55/43/6 56/44/6 57/45/6
f 55/43/7 57/45/7 58/46/7
f 59/47/8 60/48/8 61/49/8
f 62/50/8 59/47/8 61/49/8
f 63/51/8 64/52/8 65/53/8
f 66/54/8 63/51/8 65/53/8
s 1
f 1/55/1 2/56/1 3/57/1
f 4/58/1 1/55/1 3/57/1
f 5/59/1 6/60/1 7/61/1
f 8/62/1 5/59/1 7/61/1
f 9/3/1 10/2/1 11/4/1
f 46/63/5 47/64/5 48/65/5
f 49/66/5 46/63/5 48/65/5
