# Blender v3.0.1 OBJ File: 'rockerfeller_plaza.blend'
# www.blender.org
o geometryt000010000010000110010110000110000110100000100110st167
v 721.602051 -245.108414 658.068542
v 722.077820 -245.364502 682.409363
v 721.602051 -245.108414 682.409363
v 715.578735 -241.865311 657.709412
v 716.054565 -242.121506 658.068542
v 722.077820 -245.364502 657.709412
v 716.054565 -242.121506 682.409363
v 715.578735 -241.865311 682.409363
v 715.949463 -241.179504 658.068542
v 715.579468 -241.865707 682.409363
v 715.949463 -241.179504 682.409363
v 724.919250 -224.542007 658.068542
v 718.181824 -237.038803 657.709412
v 715.579468 -241.865707 657.709412
v 724.919250 -224.542007 682.409363
v 725.289246 -223.855713 682.409363
v 725.289246 -223.855713 657.709412
v 731.417603 -228.040802 658.068542
v 731.787598 -227.354614 682.409363
v 731.417603 -228.040802 682.409363
v 722.077820 -245.364502 657.709412
v 722.447815 -244.678314 658.068542
v 731.787598 -227.354614 657.709412
v 722.447815 -244.678314 682.409363
v 722.077820 -245.364502 682.409363
v 725.764343 -224.111603 658.068542
v 725.288513 -223.855408 682.409363
v 725.764343 -224.111603 682.409363
v 731.787598 -227.354614 657.709412
v 731.311829 -227.098404 658.068542
v 725.288513 -223.855408 657.709412
v 731.311829 -227.098404 682.409363
v 731.787598 -227.354614 682.409363
vt 8.010380 0.420550
vt 8.643160 28.922720
vt 8.010380 28.922720
vt 0.000000 0.000000
vt 0.632790 0.420550
vt 8.643160 0.000000
vt 0.632790 28.922720
vt 0.000000 28.922720
vt 23.045710 0.420550
vt 23.958651 28.922720
vt 23.045710 28.922720
vt 0.912940 0.420550
vt 17.537430 0.000000
vt 23.958651 0.000000
vt 0.912940 28.922720
vt 0.000000 28.922720
vt 0.000000 0.000000
vt 23.045710 0.420550
vt 23.958651 28.922720
vt 23.045710 28.922720
vt 0.000000 0.000000
vt 0.912940 0.420550
vt 23.958651 0.000000
vt 0.912940 28.922720
vt 0.000000 28.922720
vt 8.010371 0.420550
vt 8.643151 28.922720
vt 8.010371 28.922720
vt 0.000000 0.000000
vt 0.632780 0.420550
vt 8.643151 0.000000
vt 0.632780 28.922720
vt 0.000000 28.922720
vn -0.4742 -0.8804 -0.0000
vn -0.4740 -0.8805 0.0000
vn -0.4742 -0.8804 -0.0002
vn -0.4741 -0.8805 0.0000
vn -0.8802 0.4745 0.0000
vn -0.8802 0.4746 0.0000
vn -0.8802 0.4746 0.0001
vn -0.8801 0.4747 0.0000
vn 0.8802 -0.4745 0.0000
vn 0.8802 -0.4746 -0.0001
vn 0.8802 -0.4745 0.0001
vn 0.8802 -0.4746 0.0000
vn 0.8802 -0.4747 0.0000
vn 0.4741 0.8805 0.0000
vn 0.4741 0.8805 -0.0001
vn 0.4740 0.8805 -0.0000
vn 0.4741 0.8804 0.0000
vn 0.4742 0.8804 0.0000
s off
f 1/1/1 2/2/1 3/3/1
f 4/4/2 1/1/2 5/5/2
f 4/4/3 6/6/3 1/1/3
f 2/2/2 1/1/2 6/6/2
f 7/7/4 8/8/4 5/5/4
f 8/8/4 4/4/4 5/5/4
f 9/9/5 10/10/5 11/11/5
f 9/9/6 12/12/6 13/13/6
f 13/13/7 14/14/7 9/9/7
f 10/10/8 9/9/8 14/14/8
f 15/15/6 16/16/6 12/12/6
f 17/17/6 13/13/6 12/12/6
f 18/18/9 19/19/9 20/20/9
f 21/21/10 18/18/10 22/22/10
f 21/21/11 23/23/11 18/18/11
f 19/19/12 18/18/12 23/23/12
f 24/24/13 25/25/13 22/22/13
f 25/25/9 21/21/9 22/22/9
f 26/26/14 27/27/14 28/28/14
f 29/29/15 26/26/15 30/30/15
f 29/29/16 31/31/16 26/26/16
f 27/27/17 26/26/17 31/31/17
f 32/32/18 33/33/18 30/30/18
f 33/33/17 29/29/17 30/30/17
s 1
f 16/16/5 17/17/5 12/12/5
