# Blender v3.0.1 OBJ File: 'rockerfeller_plaza.blend'
# www.blender.org
o geometryt000010000010000110010110000110000100110010010110st116_
v 70.822510 -77.714638 88.431412
v 70.822510 -77.714638 24.931410
v 71.126991 -77.876846 24.931410
v 71.126991 -77.876846 88.431412
v 72.572319 -78.646820 88.431412
v 72.572319 -78.646820 24.931410
v 73.511703 -79.147263 24.931410
v 73.511703 -79.147263 88.431412
v 74.957031 -79.917236 88.431412
v 74.957031 -79.917236 24.931410
v 75.896400 -80.417671 24.931410
v 75.896400 -80.417671 88.431412
v 78.787064 -81.957619 88.431412
v 78.787064 -81.957619 24.931410
v 79.726440 -82.458061 24.931410
v 79.726440 -82.458061 88.431412
v 82.617104 -83.998009 88.431412
v 82.617104 -83.998009 24.931410
v 83.556473 -84.498451 24.931410
v 83.556473 -84.498451 88.431412
v 85.001801 -85.268433 88.431412
v 85.001801 -85.268433 24.931410
v 85.941177 -85.768860 24.931410
v 85.941177 -85.768860 88.431412
v 87.386513 -86.538841 88.431412
v 87.386513 -86.538841 24.931410
v 87.690987 -86.701050 24.931410
v 87.690987 -86.701050 88.431412
v 70.985710 -77.410683 88.431412
v 70.985710 -77.410683 24.931410
v 70.822510 -77.714638 24.931410
v 70.822510 -77.714638 88.431412
v 72.229332 -75.094559 88.431412
v 72.229332 -75.094559 24.931410
v 71.760406 -75.967880 24.931410
v 71.760406 -75.967880 88.431412
v 73.472954 -72.778442 88.431412
v 73.472954 -72.778442 24.931410
v 73.004028 -73.651756 24.931410
v 73.004028 -73.651756 88.431412
v 75.491272 -69.019524 88.431412
v 75.491272 -69.019524 24.931410
v 75.022346 -69.892830 24.931410
v 75.022346 -69.892830 88.431412
v 76.734894 -66.703400 88.431412
v 76.734894 -66.703400 24.931410
v 76.265968 -67.576714 24.931410
v 76.265968 -67.576714 88.431412
v 77.672798 -64.956642 88.431412
v 77.672798 -64.956642 24.931410
v 77.509590 -65.260590 24.931410
v 77.509590 -65.260590 88.431412
v 77.530113 -64.489616 88.431412
v 77.530113 -64.489616 24.931410
v 77.367027 -64.793640 24.931410
v 77.367027 -64.793640 88.431412
v 78.784309 -62.151508 88.431412
v 78.784309 -62.151508 24.931410
v 78.304222 -63.046501 24.931410
v 78.304222 -63.046501 88.431412
v 80.038513 -59.813400 88.431412
v 80.038513 -59.813400 24.931410
v 79.558418 -60.708389 24.931410
v 79.558418 -60.708389 88.431412
v 82.066818 -56.032169 88.431412
v 82.066818 -56.032169 24.931410
v 81.586731 -56.927158 24.931410
v 81.586731 -56.927158 88.431412
v 83.321007 -53.694061 88.431412
v 83.321007 -53.694061 24.931410
v 82.840927 -54.589050 24.931410
v 82.840927 -54.589050 88.431412
v 84.575211 -51.355942 88.431412
v 84.575211 -51.355942 24.931410
v 84.095131 -52.250938 24.931410
v 84.095131 -52.250938 88.431412
v 86.603523 -47.574711 88.431412
v 86.603523 -47.574711 24.931410
v 86.123444 -48.469711 24.931410
v 86.123444 -48.469711 88.431412
v 87.857719 -45.236599 88.431412
v 87.857719 -45.236599 24.931410
v 87.377632 -46.131592 24.931410
v 87.377632 -46.131592 88.431412
v 88.794907 -43.489460 88.431412
v 88.794907 -43.489460 24.931410
v 88.631828 -43.793480 24.931410
v 88.631828 -43.793480 88.431412
v 77.367027 -64.793640 24.931410
v 77.389351 -64.805542 24.931410
v 77.367027 -64.793640 88.431412
v 77.672798 -64.956642 88.431412
v 77.672798 -64.956642 24.931410
v 85.933907 -61.053001 91.931412
v 85.933907 -61.053001 88.431412
v 85.961548 -61.067699 88.431412
v 86.851730 -61.541248 88.431412
v 86.851730 -61.541248 91.931412
v 92.634872 -64.617737 91.931412
v 92.634872 -64.617737 88.431412
v 92.890778 -64.753868 88.431412
v 93.182320 -64.908974 88.431412
v 93.552681 -65.105988 88.431412
v 93.552681 -65.105988 91.931412
v 86.169189 -60.615181 91.931412
v 86.169189 -60.615181 88.431412
v 86.145203 -60.659821 88.431412
v 85.933907 -61.053001 88.431412
v 85.933907 -61.053001 91.931412
v 90.280472 -52.964691 91.931412
v 90.280472 -52.964691 88.431412
v 90.264709 -52.994030 88.431412
v 90.045197 -53.402512 88.431412
v 90.045197 -53.402512 91.931412
v 87.690987 -86.701050 88.431412
v 87.690987 -86.701050 24.931410
v 87.854202 -86.397087 24.931410
v 87.854202 -86.397087 88.431412
v 88.628899 -84.954292 88.431412
v 88.628899 -84.954292 24.931410
v 89.097816 -84.080971 24.931410
v 89.097816 -84.080971 88.431412
v 89.872513 -82.638168 88.431412
v 89.872513 -82.638168 24.931410
v 90.341431 -81.764847 24.931410
v 90.341431 -81.764847 88.431412
v 91.890831 -78.879242 88.431412
v 91.890831 -78.879242 24.931410
v 92.359749 -78.005920 24.931410
v 92.359749 -78.005920 88.431412
v 93.134453 -76.563118 88.431412
v 93.134453 -76.563118 24.931410
v 93.603371 -75.689796 24.931410
v 93.603371 -75.689796 88.431412
v 94.378059 -74.246986 88.431412
v 94.378059 -74.246986 24.931410
v 94.400330 -74.205528 24.931410
v 94.462891 -74.088997 24.931410
v 94.541267 -73.943039 24.931410
v 94.541267 -73.943039 88.431412
v 89.078369 -43.640560 24.931410
v 88.794907 -43.489460 24.931410
v 88.794907 -43.489460 88.431412
v 89.100693 -43.652458 88.431412
v 89.100693 -43.652458 24.931410
v 89.263931 -43.348518 88.431412
v 89.263931 -43.348518 24.931410
v 89.100693 -43.652458 24.931410
v 89.100693 -43.652458 88.431412
v 90.585938 -40.887100 88.431412
v 90.585938 -40.887100 24.931410
v 90.038803 -41.905811 24.931410
v 90.038803 -41.905811 88.431412
v 91.907951 -38.425690 88.431412
v 91.907951 -38.425690 24.931410
v 91.360809 -39.444389 24.931410
v 91.360809 -39.444389 88.431412
v 94.004837 -34.521561 88.431412
v 94.004837 -34.521561 24.931410
v 93.457703 -35.540260 24.931410
v 93.457703 -35.540260 88.431412
v 95.326851 -32.060139 88.431412
v 95.326851 -32.060139 24.931410
v 94.779709 -33.078838 24.931410
v 94.779709 -33.078838 88.431412
v 96.264961 -30.313490 88.431412
v 96.264961 -30.313490 24.931410
v 96.101723 -30.617430 24.931410
v 96.101723 -30.617430 88.431412
v 91.200089 -53.455231 91.931412
v 91.200089 -53.455231 88.431412
v 90.825500 -53.255421 88.431412
v 90.650841 -53.162251 88.431412
v 90.280472 -52.964691 91.931412
v 90.538101 -53.102112 88.431412
v 90.280472 -52.964691 88.431412
v 97.899368 -57.028782 91.931412
v 97.899368 -57.028782 88.431412
v 97.871727 -57.014030 88.431412
v 96.979752 -56.538231 88.431412
v 96.979752 -56.538231 91.931412
v 93.552681 -65.105988 91.931412
v 93.552681 -65.105988 88.431412
v 93.568451 -65.076691 88.431412
v 93.785912 -64.672577 88.431412
v 93.785912 -64.672577 91.931412
v 97.666130 -57.462181 91.931412
v 97.666130 -57.462181 88.431412
v 97.688072 -57.421421 88.431412
v 97.801788 -57.210091 88.431412
v 97.899368 -57.028782 88.431412
v 97.899368 -57.028782 91.931412
v 94.541267 -73.943039 24.931410
v 94.569794 -73.958099 24.931410
v 94.541267 -73.943039 88.431412
v 94.931961 -74.149460 88.431412
v 94.931961 -74.149460 24.931410
v 94.931961 -74.149460 88.431412
v 94.931961 -74.149460 24.931410
v 95.095039 -73.845444 24.931410
v 95.095039 -73.845444 88.431412
v 95.869148 -72.402321 88.431412
v 95.869148 -72.402321 24.931410
v 96.032021 -72.098679 24.931410
v 96.211830 -71.763481 24.931410
v 96.349243 -71.507317 88.431412
v 96.349243 -71.507317 24.931410
v 97.123337 -70.064201 88.431412
v 97.123337 -70.064201 24.931410
v 97.509300 -69.344681 24.931410
v 97.603432 -69.169212 24.931410
v 97.603432 -69.169212 88.431412
v 99.151649 -66.282967 88.431412
v 99.151649 -66.282967 24.931410
v 99.631729 -65.387970 24.931410
v 99.631729 -65.387970 88.431412
v 100.405800 -63.944851 88.431412
v 100.405800 -63.944851 24.931410
v 100.885902 -63.049858 24.931410
v 100.885902 -63.049858 88.431412
v 101.660004 -61.606739 88.431412
v 101.660004 -61.606739 24.931410
v 102.140099 -60.711739 24.931410
v 102.140099 -60.711739 88.431412
v 103.688301 -57.825500 88.431412
v 103.688301 -57.825500 24.931410
v 104.168404 -56.930511 24.931410
v 104.168404 -56.930511 88.431412
v 104.942497 -55.487389 88.431412
v 104.942497 -55.487389 24.931410
v 105.422600 -54.592400 24.931410
v 105.422600 -54.592400 88.431412
v 106.196701 -53.149269 88.431412
v 106.196701 -53.149269 24.931410
v 106.359802 -52.845249 24.931410
v 106.359802 -52.845249 88.431412
v 96.569450 -30.475700 88.431412
v 96.569450 -30.475700 24.931410
v 96.264961 -30.313490 24.931410
v 96.264961 -30.313490 88.431412
v 98.954140 -31.746099 88.431412
v 98.954140 -31.746099 24.931410
v 98.014778 -31.245680 24.931410
v 98.014778 -31.245680 88.431412
v 101.338799 -33.016510 88.431412
v 101.338799 -33.016510 24.931410
v 100.399498 -32.516079 24.931410
v 100.399498 -32.516079 88.431412
v 105.168900 -35.056881 88.431412
v 105.168900 -35.056881 24.931410
v 104.229500 -34.556461 24.931410
v 104.229500 -34.556461 88.431412
v 108.998901 -37.097260 88.431412
v 108.998901 -37.097260 24.931410
v 108.059502 -36.596828 24.931410
v 108.059502 -36.596828 88.431412
v 111.383598 -38.367661 88.431412
v 111.383598 -38.367661 24.931410
v 110.444199 -37.867229 24.931410
v 110.444199 -37.867229 88.431412
v 113.133400 -39.299850 88.431412
v 113.133400 -39.299850 24.931410
v 112.828903 -39.137642 24.931410
v 112.828903 -39.137642 88.431412
v 105.969101 -52.638828 88.431412
v 105.969101 -52.638828 24.931410
v 106.132401 -52.334888 24.931410
v 106.132401 -52.334888 88.431412
v 106.907204 -50.892181 88.431412
v 106.907204 -50.892181 24.931410
v 107.023903 -50.674961 24.931410
v 107.454399 -49.873470 24.931410
v 107.454399 -49.873470 88.431412
v 108.229202 -48.430759 88.431412
v 108.229202 -48.430759 24.931410
v 108.776398 -47.412048 24.931410
v 108.776398 -47.412048 88.431412
v 110.326103 -44.526630 88.431412
v 110.326103 -44.526630 24.931410
v 110.873299 -43.507919 24.931410
v 110.873299 -43.507919 88.431412
v 111.648102 -42.065208 88.431412
v 111.648102 -42.065208 24.931410
v 112.195297 -41.046501 24.931410
v 112.195297 -41.046501 88.431412
v 112.970100 -39.603779 88.431412
v 112.970100 -39.603779 24.931410
v 113.133400 -39.299850 24.931410
v 113.133400 -39.299850 88.431412
v 106.331299 -52.830189 24.931410
v 105.969101 -52.638828 24.931410
v 105.969101 -52.638828 88.431412
v 106.359802 -52.845249 88.431412
v 106.359802 -52.845249 24.931410
vt 0.000000 68.797401
vt 0.000000 0.000000
vt 0.373780 0.000000
vt 0.373780 68.797401
vt 2.148030 68.797401
vt 2.148030 0.000000
vt 3.301180 0.000000
vt 3.301180 68.797401
vt 5.075430 68.797401
vt 5.075430 0.000000
vt 6.228590 0.000000
vt 6.228590 68.797401
vt 9.777091 68.797401
vt 9.777091 0.000000
vt 10.930240 0.000000
vt 10.930240 68.797401
vt 14.478740 68.797401
vt 14.478740 0.000000
vt 15.631890 0.000000
vt 15.631890 68.797401
vt 17.406139 68.797401
vt 17.406139 0.000000
vt 18.559299 0.000000
vt 18.559299 68.797401
vt 20.333549 68.797401
vt 20.333549 0.000000
vt 20.707331 0.000000
vt 20.707331 68.797401
vt 15.315040 68.797401
vt 15.315040 0.000000
vt 15.688820 0.000000
vt 15.688820 68.797401
vt 12.466850 68.797401
vt 12.466850 0.000000
vt 13.540790 0.000000
vt 13.540790 68.797401
vt 9.618660 68.797401
vt 9.618660 0.000000
vt 10.692600 0.000000
vt 10.692600 68.797401
vt 4.996220 68.797401
vt 4.996220 0.000000
vt 6.070160 0.000000
vt 6.070160 68.797401
vt 2.148030 68.797401
vt 2.148030 0.000000
vt 3.221970 0.000000
vt 3.221970 68.797401
vt 0.000000 68.797401
vt 0.000000 0.000000
vt 0.373780 0.000000
vt 0.373780 68.797401
vt 25.818750 68.797401
vt 25.818750 0.000000
vt 26.192530 0.000000
vt 26.192530 68.797401
vt 22.944151 68.797401
vt 22.944151 0.000000
vt 24.044500 0.000000
vt 24.044500 68.797401
vt 20.069540 68.797401
vt 20.069540 0.000000
vt 21.169901 0.000000
vt 21.169901 68.797401
vt 15.420690 68.797401
vt 15.420690 0.000000
vt 16.521040 0.000000
vt 16.521040 68.797401
vt 12.546090 68.797401
vt 12.546090 0.000000
vt 13.646440 0.000000
vt 13.646440 68.797401
vt 9.671490 68.797401
vt 9.671490 0.000000
vt 10.771840 0.000000
vt 10.771840 68.797401
vt 5.022630 68.797401
vt 5.022630 0.000000
vt 6.122990 0.000000
vt 6.122990 68.797401
vt 2.148030 68.797401
vt 2.148030 0.000000
vt 3.248380 0.000000
vt 3.248380 68.797401
vt 0.000000 68.797401
vt 0.000000 0.000000
vt 0.373780 0.000000
vt 0.373780 68.797401
vt 0.000000 0.000000
vt 0.027400 0.000000
vt 0.000000 68.797401
vt 0.375410 68.797401
vt 0.375410 0.000000
vt 0.000000 3.791980
vt 0.000000 0.000000
vt 0.033920 0.000000
vt 1.126330 0.000000
vt 1.126330 3.791980
vt 8.223330 3.791980
vt 8.223330 0.000000
vt 8.537381 0.000000
vt 8.895160 0.000000
vt 9.349660 0.000000
vt 9.349660 3.791980
vt 9.409750 3.791980
vt 9.409750 0.000000
vt 9.464651 0.000000
vt 9.948241 3.791980
vt 0.000000 3.791980
vt 0.000000 0.000000
vt 0.036090 0.000000
vt 0.538500 0.000000
vt 0.538500 3.791980
vt 15.315050 68.797401
vt 15.315050 0.000000
vt 15.366030 0.000000
vt 15.509330 0.000000
vt 0.027400 0.000000
vt 0.375410 0.000000
vt 0.375410 68.797401
vt 0.000000 68.797401
vt 0.000000 0.000000
vt 16.030519 68.797401
vt 16.030519 0.000000
vt 16.404301 0.000000
vt 16.404301 68.797401
vt 13.003460 68.797401
vt 13.003460 0.000000
vt 14.256270 0.000000
vt 14.256270 68.797401
vt 9.976401 68.797401
vt 9.976401 0.000000
vt 11.229210 0.000000
vt 11.229210 68.797401
vt 5.175090 68.797401
vt 5.175090 0.000000
vt 6.427900 0.000000
vt 6.427900 68.797401
vt 2.148030 68.797401
vt 2.148030 0.000000
vt 3.400840 0.000000
vt 3.400840 68.797401
vt 0.000000 68.797401
vt 0.000000 0.000000
vt 0.373780 0.000000
vt 0.373780 68.797401
vt 8.226210 3.791980
vt 8.226210 0.000000
vt 8.686170 0.000000
vt 8.900650 0.000000
vt 9.355430 3.791980
vt 9.039080 0.000000
vt 9.355430 0.000000
vt 0.000000 3.791980
vt 0.000000 0.000000
vt 0.033940 0.000000
vt 1.129220 0.000000
vt 1.129220 3.791980
vt 0.000000 3.791980
vt 0.000000 0.000000
vt 0.036050 0.000000
vt 0.533230 0.000000
vt 0.533230 3.791980
vt 9.404480 3.791980
vt 9.404480 0.000000
vt 9.454641 0.000000
vt 9.714640 0.000000
vt 9.937721 0.000000
vt 9.937721 3.791980
vt 0.000000 0.000000
vt 0.034940 0.000000
vt 0.000000 68.797401
vt 0.478730 68.797401
vt 0.478730 0.000000
vt 0.000000 68.797401
vt 0.000000 0.000000
vt 0.373780 0.000000
vt 0.373780 68.797401
vt 2.148030 68.797401
vt 2.148030 0.000000
vt 2.521330 0.000000
vt 2.933450 0.000000
vt 3.248380 68.797401
vt 3.248380 0.000000
vt 5.022630 68.797401
vt 5.022630 0.000000
vt 5.907250 0.000000
vt 6.122990 0.000000
vt 6.122990 68.797401
vt 9.671490 68.797401
vt 9.671490 0.000000
vt 10.771840 0.000000
vt 10.771840 68.797401
vt 12.546090 68.797401
vt 12.546090 0.000000
vt 13.646450 0.000000
vt 13.646450 68.797401
vt 15.420700 68.797401
vt 15.420700 0.000000
vt 16.521049 0.000000
vt 16.521049 68.797401
vt 20.069550 68.797401
vt 20.069550 0.000000
vt 21.169901 0.000000
vt 21.169901 68.797401
vt 22.944151 68.797401
vt 22.944151 0.000000
vt 24.044510 0.000000
vt 24.044510 68.797401
vt 25.818760 68.797401
vt 25.818760 0.000000
vt 26.192539 0.000000
vt 26.192539 68.797401
vt 20.333450 68.797401
vt 20.333450 0.000000
vt 20.707230 0.000000
vt 20.707230 68.797401
vt 17.406059 68.797401
vt 17.406059 0.000000
vt 18.559200 0.000000
vt 18.559200 68.797401
vt 14.478680 68.797401
vt 14.478680 0.000000
vt 15.631810 0.000000
vt 15.631810 68.797401
vt 9.777050 68.797401
vt 9.777050 0.000000
vt 10.930180 0.000000
vt 10.930180 68.797401
vt 5.075410 68.797401
vt 5.075410 0.000000
vt 6.228550 0.000000
vt 6.228550 68.797401
vt 2.148030 68.797401
vt 2.148030 0.000000
vt 3.301160 0.000000
vt 3.301160 68.797401
vt 0.000000 68.797401
vt 0.000000 0.000000
vt 0.373780 0.000000
vt 0.373780 68.797401
vt 0.000000 68.797401
vt 0.000000 0.000000
vt 0.373780 0.000000
vt 0.373780 68.797401
vt 2.148030 68.797401
vt 2.148030 0.000000
vt 2.415170 0.000000
vt 3.400840 0.000000
vt 3.400840 68.797401
vt 5.175090 68.797401
vt 5.175090 0.000000
vt 6.427900 0.000000
vt 6.427900 68.797401
vt 9.976401 68.797401
vt 9.976401 0.000000
vt 11.229210 0.000000
vt 11.229210 68.797401
vt 13.003460 68.797401
vt 13.003460 0.000000
vt 14.256270 0.000000
vt 14.256270 68.797401
vt 16.030519 68.797401
vt 16.030519 0.000000
vt 16.404301 0.000000
vt 16.404301 68.797401
vt 0.034940 0.000000
vt 0.478730 0.000000
vt 0.478730 68.797401
vt 0.000000 68.797401
vt 0.000000 0.000000
vt 9.948241 0.000000
vt 0.000000 68.797401
vt 0.000000 0.000000
vt 0.373780 0.000000
vt 0.373780 68.797401
vt 2.148030 68.797401
vt 2.148030 0.000000
vt 3.221970 0.000000
vt 3.221970 68.797401
vt 4.996220 68.797401
vt 4.996220 0.000000
vt 6.070160 0.000000
vt 6.070160 68.797401
vt 9.618660 68.797401
vt 9.618660 0.000000
vt 10.692600 0.000000
vt 10.692600 68.797401
vt 12.466850 68.797401
vt 12.466850 0.000000
vt 13.540800 0.000000
vt 13.540800 68.797401
vt 15.688830 0.000000
vt 15.688830 68.797401
vn -0.4702 -0.8826 0.0000
vn -0.8810 0.4731 0.0000
vn -0.8812 0.4727 0.0000
vn -0.4704 -0.8825 0.0000
vn -0.4704 -0.8824 0.0000
vn -0.4697 -0.8829 0.0000
vn -0.4696 -0.8829 -0.0000
vn -0.4697 -0.8828 -0.0000
vn -0.8808 0.4735 0.0000
vn -0.8809 0.4734 0.0000
vn -0.8807 0.4737 0.0000
vn -0.8809 0.4733 0.0000
vn 0.8813 -0.4725 0.0000
vn 0.8811 -0.4730 0.0000
vn 0.4704 0.8825 0.0000
vn 0.4702 0.8825 0.0000
vn -0.8810 0.4732 0.0000
vn 0.4706 0.8823 0.0000
vn 0.4707 0.8823 0.0000
vn 0.8806 -0.4738 0.0000
vn 0.8806 -0.4739 0.0000
vn 0.8807 -0.4736 0.0000
vn -0.4671 -0.8842 0.0000
vn -0.4672 -0.8842 0.0000
vn 0.8812 -0.4727 0.0000
vn 0.8812 -0.4728 0.0000
vn 0.4702 0.8826 0.0000
vn 0.8809 -0.4733 0.0000
vn 0.8810 -0.4732 0.0000
vn 0.4672 0.8842 0.0000
vn 0.4671 0.8842 0.0000
vn 0.8810 -0.4730 0.0000
vn 0.8810 -0.4731 0.0000
s off
f 1/1/1 2/2/1 3/3/1
f 1/1/1 3/3/1 4/4/1
f 5/5/1 6/6/1 7/7/1
f 5/5/1 7/7/1 8/8/1
f 9/9/1 10/10/1 11/11/1
f 9/9/1 11/11/1 12/12/1
f 13/13/1 14/14/1 15/15/1
f 13/13/1 15/15/1 16/16/1
f 17/17/1 18/18/1 19/19/1
f 17/17/1 19/19/1 20/20/1
f 21/21/1 22/22/1 23/23/1
f 21/21/1 23/23/1 24/24/1
f 25/25/1 26/26/1 27/27/1
f 25/25/1 27/27/1 28/28/1
f 29/29/2 30/30/2 31/31/2
f 29/29/2 31/31/2 32/32/2
f 33/33/2 34/34/2 35/35/2
f 33/33/2 35/35/2 36/36/2
f 37/37/2 38/38/2 39/39/2
f 37/37/2 39/39/2 40/40/2
f 41/41/2 42/42/2 43/43/2
f 41/41/2 43/43/2 44/44/2
f 45/45/2 46/46/2 47/47/2
f 45/45/2 47/47/2 48/48/2
f 49/49/2 50/50/2 51/51/2
f 49/49/2 51/51/2 52/52/2
f 53/53/3 54/54/3 55/55/3
f 53/53/3 55/55/3 56/56/3
f 57/57/3 58/58/3 59/59/3
f 57/57/3 59/59/3 60/60/3
f 61/61/3 62/62/3 63/63/3
f 61/61/3 63/63/3 64/64/3
f 65/65/3 66/66/3 67/67/3
f 65/65/3 67/67/3 68/68/3
f 69/69/3 70/70/3 71/71/3
f 69/69/3 71/71/3 72/72/3
f 73/73/3 74/74/3 75/75/3
f 73/73/3 75/75/3 76/76/3
f 77/77/3 78/78/3 79/79/3
f 77/77/3 79/79/3 80/80/3
f 81/81/3 82/82/3 83/83/3
f 81/81/3 83/83/3 84/84/3
f 85/85/3 86/86/3 87/87/3
f 85/85/3 87/87/3 88/88/3
f 89/89/4 90/90/4 91/91/4
f 90/90/5 92/92/5 91/91/5
f 90/90/5 93/93/5 92/92/5
f 94/94/1 95/95/1 96/96/1
f 96/96/6 97/97/6 98/98/6
f 94/94/7 96/96/7 98/98/7
f 99/99/7 100/100/7 101/101/7
f 99/99/8 101/101/8 102/102/8
f 102/102/7 103/103/7 104/104/7
f 99/99/8 102/102/8 104/104/8
f 105/105/9 106/106/9 107/107/9
f 105/105/10 107/107/10 109/108/10
f 110/109/11 111/110/11 112/111/11
f 112/111/12 113/112/12 114/113/12
f 110/109/10 112/111/10 114/113/10
f 135/114/13 136/115/13 137/116/13
f 135/114/14 137/116/14 138/117/14
f 141/118/15 142/119/15 143/120/15
f 141/118/15 143/120/15 144/121/15
f 145/122/16 141/118/16 144/121/16
f 146/123/17 147/124/17 148/125/17
f 146/123/2 148/125/2 149/126/2
f 150/127/17 151/128/17 152/129/17
f 150/127/17 152/129/17 153/130/17
f 154/131/17 155/132/17 156/133/17
f 154/131/17 156/133/17 157/134/17
f 158/135/17 159/136/17 160/137/17
f 158/135/17 160/137/17 161/138/17
f 162/139/17 163/140/17 164/141/17
f 162/139/17 164/141/17 165/142/17
f 166/143/17 167/144/17 168/145/17
f 166/143/2 168/145/2 169/146/2
f 170/147/18 171/148/18 172/149/18
f 172/149/18 173/150/18 174/151/18
f 170/147/18 172/149/18 174/151/18
f 173/150/18 175/152/18 174/151/18
f 175/152/18 176/153/18 174/151/18
f 177/154/18 178/155/18 179/156/18
f 179/156/19 180/157/19 181/158/19
f 177/154/19 179/156/19 181/158/19
f 182/159/20 183/160/20 184/161/20
f 184/161/21 185/162/21 186/163/21
f 182/159/21 184/161/21 186/163/21
f 187/164/22 188/165/22 189/166/22
f 187/164/21 189/166/21 190/167/21
f 190/167/21 191/168/21 192/169/21
f 187/164/21 190/167/21 192/169/21
f 193/170/23 194/171/23 195/172/23
f 194/171/23 196/173/23 195/172/23
f 194/171/24 197/174/24 196/173/24
f 198/175/25 199/176/25 200/177/25
f 198/175/25 200/177/25 201/178/25
f 202/179/25 203/180/25 204/181/25
f 204/181/25 205/182/25 206/183/25
f 202/179/25 204/181/25 206/183/25
f 205/182/25 207/184/25 206/183/25
f 208/185/25 209/186/25 210/187/25
f 210/187/25 211/188/25 212/189/25
f 208/185/25 210/187/25 212/189/25
f 213/190/25 214/191/25 215/192/25
f 213/190/25 215/192/25 216/193/25
f 217/194/25 218/195/25 219/196/25
f 217/194/25 219/196/25 220/197/25
f 221/198/25 222/199/25 223/200/25
f 221/198/25 223/200/25 224/201/25
f 225/202/25 226/203/25 227/204/25
f 225/202/25 227/204/25 228/205/25
f 229/206/25 230/207/25 231/208/25
f 229/206/25 231/208/25 232/209/25
f 233/210/25 234/211/25 235/212/25
f 233/210/26 235/212/26 236/213/26
f 237/214/27 238/215/27 239/216/27
f 237/214/27 239/216/27 240/217/27
f 241/218/27 242/219/27 243/220/27
f 241/218/27 243/220/27 244/221/27
f 245/222/27 246/223/27 247/224/27
f 245/222/27 247/224/27 248/225/27
f 249/226/27 250/227/27 251/228/27
f 249/226/27 251/228/27 252/229/27
f 253/230/27 254/231/27 255/232/27
f 253/230/27 255/232/27 256/233/27
f 257/234/27 258/235/27 259/236/27
f 257/234/27 259/236/27 260/237/27
f 261/238/27 262/239/27 263/240/27
f 261/238/27 263/240/27 264/241/27
f 265/242/28 266/243/28 267/244/28
f 265/242/28 267/244/28 268/245/28
f 269/246/28 270/247/28 271/248/28
f 271/248/29 272/249/29 273/250/29
f 269/246/29 271/248/29 273/250/29
f 274/251/29 275/252/29 276/253/29
f 274/251/29 276/253/29 277/254/29
f 278/255/29 279/256/29 280/257/29
f 278/255/29 280/257/29 281/258/29
f 282/259/29 283/260/29 284/261/29
f 282/259/29 284/261/29 285/262/29
f 286/263/28 287/264/28 288/265/28
f 286/263/28 288/265/28 289/266/28
f 290/267/30 291/268/30 292/269/30
f 290/267/31 292/269/31 293/270/31
f 294/271/31 290/267/31 293/270/31
s 1
f 107/107/10 108/272/10 109/108/10
f 115/273/32 116/274/33 117/275/33
f 115/273/32 117/275/33 118/276/32
f 119/277/33 120/278/33 121/279/33
f 119/277/33 121/279/33 122/280/33
f 123/281/33 124/282/32 125/283/32
f 123/281/33 125/283/32 126/284/33
f 127/285/33 128/286/33 129/287/33
f 127/285/33 129/287/33 130/288/33
f 131/289/33 132/290/33 133/291/33
f 131/289/33 133/291/33 134/292/33
f 138/117/33 139/293/33 140/294/33
f 135/114/33 138/117/33 140/294/33
