# Blender v3.0.1 OBJ File: 'rockerfeller_plaza.blend'
# www.blender.org
o geometryt000010000010000110010110000110000110100000010110st112_
v 1014.516357 -289.961060 314.858917
v 1014.516357 -289.961060 190.951797
v 1014.820251 -290.124359 314.858917
v 1013.425110 -289.374878 190.951797
v 1014.820251 -290.124359 188.858948
v 1013.425110 -289.374878 314.858917
v 1013.121216 -289.211578 208.858948
v 1013.121216 -289.211578 188.858948
v 1013.121216 -289.211578 314.858917
v 1013.540833 -288.443268 314.858917
v 1013.540833 -288.443268 208.858948
v 1013.121216 -289.211578 208.858948
v 1013.121216 -289.211578 314.858917
v 1016.597778 -282.845764 311.858917
v 1016.597778 -282.845764 208.858948
v 1016.288818 -283.411469 208.858948
v 1016.288818 -283.411469 314.858917
v 1016.597778 -282.845764 314.858917
v 1016.708374 -282.643158 311.858917
v 1021.917908 -293.965179 190.951797
v 1022.712646 -294.395264 314.858917
v 1021.917908 -293.965179 314.858917
v 1014.820251 -290.124359 188.858948
v 1015.614990 -290.554382 190.951797
v 1022.712646 -294.395264 188.858948
v 1015.614990 -290.554382 314.858917
v 1014.820251 -290.124359 314.858917
v 1016.854736 -282.363159 314.858917
v 1016.854736 -282.363159 311.858917
v 1016.703125 -282.640259 311.858917
v 1016.592285 -282.842773 314.858917
v 1021.245605 -274.339478 314.858917
v 1021.245605 -274.339478 311.858917
v 1020.983215 -274.819061 311.858917
v 1020.983215 -274.819061 314.858917
v 1022.155334 -274.832672 314.858917
v 1022.155334 -274.832672 311.858917
v 1021.648987 -274.558167 311.858917
v 1021.245605 -274.339478 311.858917
v 1021.245605 -274.339478 314.858917
v 1038.186035 -283.522766 314.858917
v 1038.186035 -283.522766 311.858917
v 1037.276245 -283.029663 311.858917
v 1037.276245 -283.029663 314.858917
v 1027.262207 -296.834473 190.951797
v 1028.022095 -297.241974 314.858917
v 1027.262207 -296.834473 314.858917
v 1022.712646 -294.395264 188.858948
v 1023.472534 -294.802673 190.951797
v 1028.022095 -297.241974 188.858948
v 1023.472534 -294.802673 314.858917
v 1022.712646 -294.395264 314.858917
v 1029.678101 -298.152557 314.858917
v 1029.678101 -298.152557 190.951797
v 1030.078247 -298.372559 311.858917
v 1030.078247 -298.372559 314.858917
v 1028.022095 -297.241974 188.858948
v 1028.422119 -297.461975 190.951797
v 1030.078247 -298.372559 188.858948
v 1028.422119 -297.461975 314.858917
v 1028.022095 -297.241974 314.858917
v 1030.078247 -298.372559 314.858917
v 1030.078247 -298.372559 311.858917
v 1030.354370 -297.866760 311.858917
v 1030.354370 -297.866760 314.858917
v 1037.909912 -284.028564 314.858917
v 1037.909912 -284.028564 311.858917
v 1037.992920 -283.876373 311.858917
v 1038.186035 -283.522766 311.858917
v 1038.186035 -283.522766 314.858917
vt 0.138000 0.824280
vt 0.771470 0.000000
vt 0.633470 0.824280
vt 0.000000 7.877120
vt 0.000000 0.000000
vt 0.138000 49.625839
vt 0.000000 49.625839
vt 2.643490 41.748718
vt 2.643490 0.000000
vt 2.993660 0.000000
vt 2.993660 41.748718
vt 0.092320 40.567150
vt 0.092320 0.000000
vt 0.350170 0.000000
vt 0.350170 41.748718
vt 0.092320 41.748718
vt 0.000000 40.567150
vt 3.228100 0.824280
vt 3.589560 49.625839
vt 3.228100 49.625839
vt 0.000000 0.000000
vt 0.361460 0.824280
vt 3.589560 0.000000
vt 0.361460 49.625839
vt 0.000000 49.625839
vt 3.658630 1.181570
vt 3.658630 0.000000
vt 3.784970 0.000000
vt 3.877290 1.181570
vt 0.000000 1.181570
vt 0.000000 0.000000
vt 0.218660 0.000000
vt 0.218660 1.181570
vt 7.293850 1.181570
vt 7.293850 0.000000
vt 7.524240 0.000000
vt 7.707760 0.000000
vt 7.707760 1.181570
vt 0.000000 1.181570
vt 0.000000 0.000000
vt 0.413910 0.000000
vt 0.413910 1.181570
vt 2.064880 0.824280
vt 2.409780 49.625839
vt 2.064880 49.625839
vt 0.000000 0.000000
vt 0.344900 0.824280
vt 2.409780 0.000000
vt 0.344900 49.625839
vt 0.000000 49.625839
vt 0.755960 49.625839
vt 0.755960 0.824280
vt 0.938590 48.444271
vt 0.938590 49.625839
vt 0.000000 0.000000
vt 0.182630 0.824280
vt 0.938590 0.000000
vt 0.000000 49.625839
vt 0.000000 1.181570
vt 0.000000 0.000000
vt 0.230480 0.000000
vt 0.230480 1.181570
vt 6.537090 1.181570
vt 6.537090 0.000000
vt 6.606450 0.000000
vt 6.767580 0.000000
vt 6.767580 1.181570
vt 0.633470 49.625839
vt 0.771470 49.625839
vt 0.182630 49.625839
vn -0.4732 -0.8809 0.0000
vn -0.4732 -0.8810 0.0000
vn -0.4733 -0.8809 0.0000
vn -0.8777 0.4792 0.0000
vn -0.8776 0.4794 0.0000
vn -0.8776 0.4795 0.0000
vn -0.8779 0.4789 0.0000
vn -0.4759 -0.8795 0.0000
vn -0.4760 -0.8795 0.0000
vn -0.8774 0.4798 0.0000
vn -0.8772 0.4802 -0.0000
vn -0.8773 0.4799 0.0000
vn 0.4766 0.8791 0.0000
vn 0.4767 0.8791 0.0000
vn 0.4764 0.8792 0.0000
vn -0.4727 -0.8812 0.0000
vn -0.4725 -0.8813 -0.0000
vn -0.4726 -0.8813 0.0000
vn -0.4818 -0.8763 0.0000
vn -0.4817 -0.8763 0.0000
vn 0.8778 -0.4791 0.0000
vn 0.8779 -0.4788 0.0000
vn 0.8777 -0.4792 0.0000
vn 0.8777 -0.4793 -0.0000
vn -0.4735 -0.8808 0.0000
vn -0.4820 -0.8761 0.0000
s off
f 4/1/1 5/2/1 2/3/1
f 7/4/2 8/5/2 4/1/2
f 8/5/1 5/2/1 4/1/1
f 6/6/3 9/7/3 7/4/3
f 10/8/4 11/9/4 12/10/4
f 10/8/5 12/10/5 13/11/5
f 14/12/5 15/13/5 16/14/5
f 17/15/4 14/12/4 16/14/4
f 17/15/6 18/16/6 14/12/6
f 18/16/7 19/17/7 14/12/7
f 20/18/8 21/19/8 22/20/8
f 23/21/8 20/18/8 24/22/8
f 23/21/8 25/23/8 20/18/8
f 21/19/9 20/18/9 25/23/9
f 26/24/8 27/25/8 24/22/8
f 27/25/8 23/21/8 24/22/8
f 28/26/10 29/27/10 30/28/10
f 28/26/11 30/28/11 31/29/11
f 32/30/12 33/31/12 34/32/12
f 32/30/12 34/32/12 35/33/12
f 36/34/13 37/35/13 38/36/13
f 38/36/14 39/37/14 40/38/14
f 41/39/13 42/40/13 43/41/13
f 41/39/15 43/41/15 44/42/15
f 45/43/16 46/44/16 47/45/16
f 48/46/17 45/43/17 49/47/17
f 48/46/17 50/48/17 45/43/17
f 46/44/18 45/43/18 50/48/18
f 51/49/17 52/50/17 49/47/17
f 52/50/18 48/46/18 49/47/18
f 53/51/19 54/52/19 55/53/19
f 55/53/20 56/54/20 53/51/20
f 57/55/19 54/52/19 58/56/19
f 57/55/19 59/57/19 54/52/19
f 55/53/20 54/52/20 59/57/20
f 61/58/19 57/55/19 58/56/19
f 62/59/21 63/60/21 64/61/21
f 62/59/21 64/61/21 65/62/21
f 66/63/22 67/64/22 68/65/22
f 68/65/23 69/66/23 70/67/23
f 66/63/24 68/65/24 70/67/24
s 1
f 1/68/2 2/3/25 3/69/2
f 3/69/2 2/3/25 5/2/2
f 4/1/25 6/6/25 7/4/25
f 36/34/13 38/36/13 40/38/13
f 58/56/26 60/70/26 61/58/26
