# Blender v3.0.1 OBJ File: 'rockerfeller_plaza.blend'
# www.blender.org
o geometryt000010000010000110010110000110000110100100000010st27
v 591.282410 -259.155579 931.196411
v 612.186707 -270.343781 931.196411
v 612.186707 -270.343781 992.897461
v 591.282410 -259.155579 992.897461
v 591.228516 -257.624084 931.196411
v 590.792725 -258.502380 931.196411
v 590.792725 -258.502380 992.897461
v 591.228516 -257.624084 992.897461
v 593.822388 -252.818375 992.897461
v 599.227600 -242.780182 931.196411
v 591.733643 -256.697571 931.196411
v 598.439758 -244.243271 992.897461
v 599.227600 -242.780182 992.897461
v 591.733643 -256.697571 992.897461
v 604.060486 -244.562073 992.897461
v 604.060486 -244.562073 931.196411
v 600.079102 -242.430176 931.196411
v 600.079102 -242.430176 992.897461
v 609.117188 -236.360382 992.897461
v 609.117188 -236.360382 931.196411
v 604.852173 -244.322372 931.196411
v 604.852173 -244.322372 992.897461
v 617.836304 -240.402985 992.897461
v 617.836304 -240.402985 931.196411
v 609.888306 -236.111877 931.196411
v 609.888306 -236.111877 992.897461
v 613.079956 -270.227478 931.196411
v 614.158203 -268.243469 931.196411
v 614.158203 -268.243469 992.897461
v 613.079956 -270.227478 992.897461
v 614.626160 -267.375763 931.196411
v 623.676392 -250.449478 931.196411
v 623.676392 -250.449478 992.897461
v 614.626160 -267.375763 992.897461
v 625.932800 -244.707382 992.897461
v 625.932800 -244.707382 931.196411
v 618.952759 -241.000275 931.196411
v 618.952759 -241.000275 992.897461
v 624.164368 -249.533783 931.196411
v 626.284180 -245.545975 931.196411
v 626.284180 -245.545975 992.897461
v 624.164368 -249.533783 992.897461
vt 0.000000 0.000000
vt 7.000000 0.000000
vt 7.000000 20.000000
vt 0.000000 20.000000
vt 0.000000 0.000000
vt 0.333330 0.000000
vt 0.333330 20.000000
vt 0.000000 20.000000
vt 3.365950 20.000000
vt 0.000000 0.000000
vt 4.666670 0.000000
vt 0.490620 20.000000
vt 0.000000 20.000000
vt 4.666670 20.000000
vt 0.000000 20.000000
vt 0.000000 0.000000
vt 1.333330 0.000000
vt 1.333330 20.000000
vt 0.000000 20.000000
vt 0.000000 0.000000
vt 2.666670 0.000000
vt 2.666670 20.000000
vt 0.000000 20.000000
vt 0.000000 0.000000
vt 2.666670 0.000000
vt 2.666670 20.000000
vt 0.000000 0.000000
vt 0.666670 0.000000
vt 0.666670 20.000000
vt 0.000000 20.000000
vt 0.000000 0.000000
vt 5.666670 0.000000
vt 5.666670 20.000000
vt 0.000000 20.000000
vt 0.000000 20.000000
vt 0.000000 0.000000
vt 2.333330 0.000000
vt 2.333330 20.000000
vt 0.000000 0.000000
vt 1.333330 0.000000
vt 1.333330 20.000000
vt 0.000000 20.000000
vn -0.4719 -0.8817 0.0000
vn -0.8958 0.4445 0.0000
vn -0.8805 0.4741 -0.0000
vn 0.4720 0.8816 0.0000
vn 0.4721 0.8816 0.0000
vn -0.8815 0.4722 0.0000
vn 0.4751 0.8799 0.0000
vn 0.8786 -0.4775 0.0000
vn 0.8819 -0.4715 0.0000
vn 0.4690 0.8832 0.0000
vn 0.4691 0.8832 0.0000
vn 0.8830 -0.4694 0.0000
s off
f 1/1/1 2/2/1 3/3/1
f 4/4/1 1/1/1 3/3/1
f 5/5/2 6/6/2 7/7/2
f 8/8/2 5/5/2 7/7/2
f 9/9/3 10/10/3 11/11/3
f 12/12/3 10/10/3 9/9/3
f 13/13/3 10/10/3 12/12/3
f 9/9/3 11/11/3 14/14/3
f 15/15/4 16/16/4 17/17/4
f 15/15/5 17/17/5 18/18/5
f 19/19/6 20/20/6 21/21/6
f 19/19/6 21/21/6 22/22/6
f 23/23/7 24/24/7 25/25/7
f 23/23/7 25/25/7 26/26/7
f 27/27/8 28/28/8 29/29/8
f 30/30/8 27/27/8 29/29/8
f 31/31/9 32/32/9 33/33/9
f 34/34/9 31/31/9 33/33/9
f 35/35/10 36/36/10 37/37/10
f 35/35/11 37/37/11 38/38/11
f 39/39/12 40/40/12 41/41/12
f 42/42/12 39/39/12 41/41/12
