# Blender v3.0.1 OBJ File: 'rockerfeller_plaza.blend'
# www.blender.org
o geometryt000010000010000110010110000110000100110010110010st81
v 162.356705 -267.761169 291.865936
v 162.660400 -267.924774 313.994263
v 162.356705 -267.761169 313.994263
v 159.846008 -266.408173 291.865936
v 162.660400 -267.924774 290.894257
v 159.846008 -266.408173 313.994263
v 159.726501 -266.343781 313.994263
v 159.726501 -266.343781 291.865936
v 157.215805 -264.990784 291.865936
v 157.215805 -264.990784 313.994263
v 157.096207 -264.926361 313.994263
v 157.096207 -264.926361 291.865936
v 155.840912 -264.249969 291.865936
v 155.840912 -264.249969 313.994263
v 155.721405 -264.185455 313.994263
v 155.721405 -264.185455 291.865936
v 153.210709 -262.832581 291.865936
v 153.210709 -262.832581 313.994263
v 153.091110 -262.768158 313.994263
v 153.091110 -262.768158 291.865936
v 150.580505 -261.415161 291.865936
v 150.580505 -261.415161 313.994263
v 150.460907 -261.350769 313.994263
v 150.460907 -261.350769 291.865936
v 149.205612 -260.674255 291.865936
v 149.205612 -260.674255 313.994263
v 149.086105 -260.609863 313.994263
v 149.086105 -260.609863 291.865936
v 144.064713 -257.903961 291.865936
v 144.064713 -257.903961 313.994263
v 143.945114 -257.839569 313.994263
v 143.945114 -257.839569 291.865936
v 130.490295 -250.589066 290.894257
v 142.689804 -257.163055 291.865936
v 142.689804 -257.163055 313.994263
v 142.570312 -257.098663 313.994263
v 142.570312 -257.098663 291.865936
v 140.059601 -255.745773 291.865936
v 140.059601 -255.745773 313.994263
v 139.940109 -255.681366 313.994263
v 139.940109 -255.681366 291.865936
v 137.429413 -254.328369 291.865936
v 137.429413 -254.328369 313.994263
v 137.309814 -254.263977 313.994263
v 137.309814 -254.263977 291.865936
v 136.054504 -253.587463 291.865936
v 136.054504 -253.587463 313.994263
v 135.935013 -253.523071 313.994263
v 135.935013 -253.523071 291.865936
v 133.424301 -252.170166 291.865936
v 133.424301 -252.170166 313.994263
v 133.304703 -252.105774 313.994263
v 133.304703 -252.105774 291.865936
v 130.794098 -250.752777 291.865936
v 130.794098 -250.752777 313.994263
v 130.490295 -250.589066 313.994263
v 130.607300 -250.264572 291.865936
v 130.490295 -250.589066 313.994263
v 130.607300 -250.264572 313.994263
v 131.574600 -247.581573 291.865936
v 130.490295 -250.589066 290.894257
v 131.574600 -247.581573 313.994263
v 131.686508 -247.270966 313.994263
v 131.686508 -247.270966 291.865936
v 132.653702 -244.587967 291.865936
v 132.653702 -244.587967 313.994263
v 132.765701 -244.277374 313.994263
v 132.765701 -244.277374 291.865936
v 133.249313 -242.935867 291.865936
v 133.249313 -242.935867 313.994263
v 133.361206 -242.625275 313.994263
v 133.361206 -242.625275 291.865936
v 134.328400 -239.942276 291.865936
v 134.328400 -239.942276 313.994263
v 134.440414 -239.631668 313.994263
v 134.440414 -239.631668 291.865936
v 134.924011 -238.290176 291.865936
v 138.874100 -227.332764 290.894257
v 134.924011 -238.290176 313.994263
v 135.036011 -237.979675 313.994263
v 135.036011 -237.979675 291.865936
v 136.003204 -235.296677 291.865936
v 136.003204 -235.296677 313.994263
v 136.115112 -234.986069 313.994263
v 136.115112 -234.986069 291.865936
v 136.598709 -233.644577 291.865936
v 136.598709 -233.644577 313.994263
v 136.710709 -233.333969 313.994263
v 136.710709 -233.333969 291.865936
v 137.677902 -230.650970 291.865936
v 137.677902 -230.650970 313.994263
v 137.789902 -230.340363 313.994263
v 137.789902 -230.340363 291.865936
v 138.757111 -227.657364 291.865936
v 138.757111 -227.657364 313.994263
v 138.874100 -227.332764 313.994263
v 139.836014 -226.998474 291.865936
v 138.874100 -227.332764 313.994263
v 139.836014 -226.998474 313.994263
v 142.144806 -226.195877 290.894257
v 141.182907 -226.530167 291.865936
v 138.874100 -227.332764 290.894257
v 141.182907 -226.530167 313.994263
v 142.144806 -226.195877 313.994263
v 142.562714 -226.420975 291.865936
v 142.144806 -226.195877 313.994263
v 142.562714 -226.420975 313.994263
v 156.372009 -233.861374 291.865936
v 142.144806 -226.195877 290.894257
v 156.372009 -233.861374 313.994263
v 156.789902 -234.086563 313.994263
v 156.789902 -234.086563 290.894257
v 149.007401 -249.818176 291.865936
v 148.467712 -249.526169 313.994263
v 149.007401 -249.818176 313.994263
v 152.770111 -251.853775 291.865936
v 148.467712 -249.526169 290.894257
v 152.770111 -251.853775 313.994263
v 153.309814 -252.145767 313.994263
v 153.309814 -252.145767 290.894257
v 156.350113 -234.902374 291.865936
v 156.789902 -234.086563 313.994263
v 156.350113 -234.902374 313.994263
v 148.907410 -248.710373 291.865936
v 156.789902 -234.086563 290.894257
v 148.907410 -248.710373 313.994263
v 148.467712 -249.526169 313.994263
v 148.467712 -249.526169 290.894257
v 153.952011 -252.491669 291.865936
v 153.309814 -252.145767 313.994263
v 153.952011 -252.491669 313.994263
v 166.505814 -259.255676 291.865936
v 153.309814 -252.145767 290.894257
v 166.505814 -259.255676 313.994263
v 167.148010 -259.601685 313.994263
v 167.148010 -259.601685 290.894257
v 166.934509 -259.997681 291.865936
v 167.148010 -259.601685 313.994263
v 166.934509 -259.997681 313.994263
v 162.660400 -267.924774 290.894257
v 162.873901 -267.528778 291.865936
v 167.148010 -259.601685 290.894257
v 162.873901 -267.528778 313.994263
v 162.660400 -267.924774 313.994263
vt 39.218460 1.052720
vt 39.592239 25.027090
vt 39.218460 25.027090
vt 36.128510 1.052720
vt 39.592239 0.000000
vt 36.128510 25.027090
vt 35.981400 25.027090
vt 35.981400 1.052720
vt 32.891449 1.052720
vt 32.891449 25.027090
vt 32.744350 25.027090
vt 32.744350 1.052720
vt 31.199369 1.052720
vt 31.052271 1.052720
vt 27.962320 1.052720
vt 27.962320 25.027090
vt 27.815210 25.027090
vt 27.815210 1.052720
vt 24.725260 1.052720
vt 24.725260 25.027090
vt 24.578150 25.027090
vt 24.578150 1.052720
vt 23.033180 1.052720
vt 23.033180 25.027090
vt 22.886070 25.027090
vt 22.886070 1.052720
vt 16.706169 1.052720
vt 16.706169 25.027090
vt 16.559059 25.027090
vt 16.559059 1.052720
vt 0.000000 0.000000
vt 15.014090 25.027090
vt 14.866980 25.027090
vt 15.014090 1.052720
vt 14.866980 1.052720
vt 11.777030 1.052720
vt 11.777030 25.027090
vt 11.629920 25.027090
vt 11.629920 1.052720
vt 8.539980 1.052720
vt 8.539980 25.027090
vt 8.392870 25.027090
vt 8.392870 1.052720
vt 6.847890 1.052720
vt 6.847890 25.027090
vt 6.700790 25.027090
vt 6.700790 1.052720
vt 3.610840 1.052720
vt 3.610840 25.027090
vt 3.463730 25.027090
vt 3.463730 1.052720
vt 0.373780 1.052720
vt 0.373780 25.027090
vt 0.000000 25.027090
vt 26.409849 1.052720
vt 26.783630 25.027090
vt 26.409849 25.027090
vt 23.319901 1.052720
vt 26.783630 0.000000
vt 23.319901 25.027090
vt 22.962219 25.027090
vt 22.962219 1.052720
vt 19.872271 1.052720
vt 19.872271 25.027090
vt 19.514589 25.027090
vt 19.514589 1.052720
vt 17.969610 1.052720
vt 17.969610 25.027090
vt 17.611931 25.027090
vt 17.611931 1.052720
vt 14.521980 1.052720
vt 12.619330 1.052720
vt 0.000000 0.000000
vt 14.164300 1.052720
vt 12.619330 25.027090
vt 12.261650 25.027090
vt 12.261650 1.052720
vt 9.171700 1.052720
vt 9.171700 25.027090
vt 8.814021 25.027090
vt 8.814021 1.052720
vt 7.269040 1.052720
vt 7.269040 25.027090
vt 6.911360 25.027090
vt 6.911360 1.052720
vt 3.821410 1.052720
vt 3.821410 25.027090
vt 3.463730 25.027090
vt 3.463730 1.052720
vt 0.373780 1.052720
vt 0.373780 25.027090
vt 0.000000 25.027090
vt 0.000000 0.000000
vt 2.648270 1.052720
vt 1.103300 1.052720
vt 3.751570 0.000000
vt 1.103300 25.027090
vt 0.000000 25.027090
vt 17.509029 1.052720
vt 18.023340 25.027090
vt 17.509029 25.027090
vt 0.514310 1.052720
vt 18.023340 0.000000
vt 0.514310 25.027090
vt 0.000000 25.027090
vt 0.000000 0.000000
vt 5.299780 1.052720
vt 5.964640 25.027090
vt 5.299780 25.027090
vt 0.664860 1.052720
vt 5.964640 0.000000
vt 0.664860 25.027090
vt 0.000000 25.027090
vt 0.000000 0.000000
vt 17.998831 1.052720
vt 19.002930 25.027090
vt 17.998831 25.027090
vt 1.004110 1.052720
vt 19.002930 0.000000
vt 1.004110 25.027090
vt 0.000000 25.027090
vt 0.000000 0.000000
vt 16.240000 1.052720
vt 17.030251 25.027090
vt 16.240000 25.027090
vt 0.790250 1.052720
vt 17.030251 0.000000
vt 0.790250 25.027090
vt 0.000000 25.027090
vt 0.000000 0.000000
vt 9.757261 1.052720
vt 10.244670 25.027090
vt 9.757261 25.027090
vt 0.000000 0.000000
vt 0.487410 1.052720
vt 10.244670 0.000000
vt 0.487410 25.027090
vt 0.000000 25.027090
vt 31.199369 25.027090
vt 31.052271 25.027090
vt 14.521980 25.027090
vt 14.164300 25.027090
vt 3.751570 25.027090
vt 2.648270 25.027090
vn -0.4743 -0.8804 0.0000
vn -0.4744 -0.8803 -0.0000
vn -0.4743 -0.8803 0.0000
vn -0.4743 -0.8804 0.0009
vn -0.4744 -0.8803 -0.0002
vn -0.4742 -0.8804 0.0000
vn -0.4745 -0.8803 0.0004
vn -0.4743 -0.8803 0.0002
vn -0.4743 -0.8803 -0.0002
vn -0.4741 -0.8805 0.0000
vn -0.4743 -0.8803 -0.0001
vn -0.4744 -0.8803 0.0002
vn -0.4740 -0.8805 0.0045
vn -0.4745 -0.8803 0.0000
vn -0.4743 -0.8803 0.0004
vn -0.4740 -0.8805 0.0000
vn -0.4745 -0.8803 0.0002
vn -0.4747 -0.8802 0.0000
vn -0.4744 -0.8803 -0.0001
vn -0.9407 0.3392 0.0000
vn -0.9407 0.3391 0.0000
vn -0.9408 0.3390 0.0000
vn -0.9408 0.3389 0.0000
vn -0.9408 0.3391 0.0001
vn -0.9407 0.3392 0.0001
vn -0.9409 0.3388 -0.0000
vn -0.9408 0.3391 0.0000
vn -0.9407 0.3393 0.0004
vn -0.3283 0.9446 0.0003
vn -0.3283 0.9446 0.0001
vn -0.3283 0.9446 0.0000
vn 0.4745 0.8802 -0.0000
vn 0.4743 0.8803 -0.0001
vn 0.4742 0.8804 0.0000
vn 0.4744 0.8803 0.0000
vn 0.4743 0.8803 -0.0000
vn 0.4759 0.8795 0.0000
vn 0.4758 0.8795 -0.0000
vn 0.8802 -0.4745 0.0000
vn 0.8803 -0.4745 0.0001
vn 0.8803 -0.4745 0.0000
vn 0.4743 0.8804 -0.0001
vn 0.4743 0.8804 0.0000
vn 0.8802 -0.4746 0.0000
vn -0.4742 -0.8804 0.0019
vn -0.4750 -0.8800 0.0000
vn -0.4746 -0.8802 0.0000
vn -0.4737 -0.8807 -0.0007
vn -0.4743 -0.8804 -0.0001
vn -0.4733 -0.8809 -0.0009
vn -0.4752 -0.8799 0.0037
vn -0.4740 -0.8805 -0.0046
vn -0.4764 -0.8792 0.0074
vn -0.4739 -0.8806 -0.0018
vn -0.4743 -0.8804 0.0001
vn -0.4755 -0.8797 -0.0018
vn -0.4739 -0.8806 -0.0010
vn -0.4739 -0.8806 -0.0009
vn -0.4743 -0.8804 0.0004
vn -0.9407 0.3392 -0.0001
vn -0.9407 0.3391 -0.0003
vn -0.9408 0.3391 -0.0008
vn -0.9406 0.3395 -0.0001
vn -0.9407 0.3393 -0.0001
vn -0.9405 0.3397 -0.0000
vn -0.9408 0.3390 -0.0004
vn -0.9408 0.3391 0.0008
vn -0.9407 0.3392 -0.0003
vn -0.3287 0.9444 0.0000
vn -0.3286 0.9445 0.0000
s off
f 1/1/1 2/2/1 3/3/1
f 4/4/2 5/5/2 1/1/2
f 2/2/1 1/1/1 5/5/1
f 6/6/3 7/7/3 4/4/3
f 7/7/3 8/8/3 4/4/3
f 8/8/4 5/5/4 4/4/4
f 8/8/5 9/9/5 5/5/5
f 10/10/6 11/11/6 9/9/6
f 11/11/6 12/12/6 9/9/6
f 12/12/7 13/13/7 5/5/7
f 16/14/8 17/15/8 5/5/8
f 18/16/6 19/17/6 17/15/6
f 19/17/6 20/18/6 17/15/6
f 20/18/9 21/19/9 5/5/9
f 22/20/10 23/21/10 21/19/10
f 23/21/10 24/22/10 21/19/10
f 24/22/11 25/23/11 5/5/11
f 26/24/3 27/25/3 25/23/3
f 27/25/2 28/26/2 25/23/2
f 28/26/12 29/27/12 5/5/12
f 30/28/10 31/29/10 29/27/10
f 31/29/10 32/30/10 29/27/10
f 29/27/2 33/31/2 5/5/2
f 35/32/2 36/33/2 34/34/2
f 36/33/2 37/35/2 34/34/2
f 37/35/13 33/31/13 34/34/13
f 38/36/2 33/31/2 37/35/2
f 39/37/2 40/38/2 38/36/2
f 40/38/14 41/39/14 38/36/14
f 42/40/15 33/31/15 41/39/15
f 43/41/10 44/42/10 42/40/10
f 44/42/16 45/43/16 42/40/16
f 46/44/17 33/31/17 45/43/17
f 47/45/3 48/46/3 46/44/3
f 48/46/14 49/47/14 46/44/14
f 49/47/18 33/31/18 46/44/18
f 50/48/19 33/31/19 49/47/19
f 51/49/10 52/50/10 50/48/10
f 52/50/10 53/51/10 50/48/10
f 54/52/2 33/31/2 53/51/2
f 55/53/2 56/54/2 54/52/2
f 56/54/2 33/31/2 54/52/2
f 57/55/20 58/56/20 59/57/20
f 60/58/21 61/59/21 57/55/21
f 58/56/20 57/55/20 61/59/20
f 62/60/22 63/61/22 60/58/22
f 63/61/23 64/62/23 60/58/23
f 64/62/24 65/63/24 61/59/24
f 66/64/20 67/65/20 65/63/20
f 67/65/20 68/66/20 65/63/20
f 68/66/25 69/67/25 61/59/25
f 70/68/22 71/69/22 69/67/22
f 71/69/23 72/70/23 69/67/23
f 72/70/24 73/71/24 61/59/24
f 77/72/20 78/73/20 76/74/20
f 76/74/21 78/73/21 61/59/21
f 79/75/22 80/76/22 77/72/22
f 80/76/26 81/77/26 77/72/26
f 82/78/20 78/73/20 81/77/20
f 83/79/22 84/80/22 82/78/22
f 84/80/22 85/81/22 82/78/22
f 86/82/27 78/73/27 85/81/27
f 87/83/20 88/84/20 86/82/20
f 88/84/20 89/85/20 86/82/20
f 90/86/21 78/73/21 89/85/21
f 91/87/20 92/88/20 90/86/20
f 92/88/20 93/89/20 90/86/20
f 93/89/28 78/73/28 90/86/28
f 94/90/21 78/73/21 93/89/21
f 95/91/27 96/92/27 94/90/27
f 96/92/22 78/73/22 94/90/22
f 100/93/29 97/94/29 101/95/29
f 100/93/30 102/96/30 97/94/30
f 103/97/31 104/98/31 101/95/31
f 104/98/31 100/93/31 101/95/31
f 105/99/32 106/100/32 107/101/32
f 108/102/33 109/103/33 105/99/33
f 106/100/34 105/99/34 109/103/34
f 110/104/35 111/105/35 108/102/35
f 111/105/35 112/106/35 108/102/35
f 112/106/36 109/103/36 108/102/36
f 113/107/37 114/108/37 115/109/37
f 116/110/38 117/111/38 113/107/38
f 114/108/37 113/107/37 117/111/37
f 118/112/38 119/113/38 116/110/38
f 119/113/38 120/114/38 116/110/38
f 120/114/38 117/111/38 116/110/38
f 121/115/39 122/116/39 123/117/39
f 124/118/40 125/119/40 121/115/40
f 122/116/39 121/115/39 125/119/39
f 126/120/41 127/121/41 124/118/41
f 127/121/41 128/122/41 124/118/41
f 128/122/41 125/119/41 124/118/41
f 129/123/34 130/124/34 131/125/34
f 132/126/42 133/127/42 129/123/42
f 130/124/34 129/123/34 133/127/34
f 134/128/36 135/129/36 132/126/36
f 135/129/43 136/130/43 132/126/43
f 136/130/43 133/127/43 132/126/43
f 137/131/44 138/132/44 139/133/44
f 140/134/44 137/131/44 141/135/44
f 140/134/44 142/136/44 137/131/44
f 138/132/44 137/131/44 142/136/44
f 143/137/44 144/138/44 141/135/44
f 144/138/44 140/134/44 141/135/44
s 1
f 9/9/45 12/12/45 5/5/45
f 14/139/46 15/140/47 13/13/48
f 15/140/47 16/14/49 13/13/48
f 13/13/48 16/14/49 5/5/50
f 17/15/51 20/18/51 5/5/51
f 21/19/52 24/22/52 5/5/52
f 25/23/53 28/26/53 5/5/53
f 32/30/54 33/31/55 29/27/54
f 34/34/15 33/31/55 32/30/54
f 41/39/56 33/31/56 38/36/56
f 45/43/57 33/31/57 42/40/58
f 53/51/59 33/31/59 50/48/59
f 64/62/60 61/59/60 60/58/60
f 65/63/61 68/66/61 61/59/61
f 69/67/62 72/70/62 61/59/62
f 74/141/20 75/142/23 73/71/63
f 75/142/23 76/74/64 73/71/63
f 73/71/63 76/74/64 61/59/65
f 81/77/66 78/73/66 77/72/66
f 85/81/67 78/73/67 82/78/67
f 89/85/68 78/73/68 86/82/68
f 97/94/69 98/143/31 99/144/31
f 98/143/31 97/94/69 102/96/70
