# Blender v3.0.1 OBJ File: 'rockerfeller_plaza.blend'
# www.blender.org
o geometryt000010000010000110010110000110000100110010010110st25
v 67.161034 -224.757401 19.631290
v 67.570717 -224.979004 34.157242
v 67.161034 -224.757401 34.157242
v 59.740601 -220.744003 19.631290
v 67.570717 -224.979004 19.357241
v 59.740601 -220.744003 34.157242
v 59.330910 -220.522400 34.157242
v 59.330910 -220.522400 19.357241
v 59.599770 -220.024002 19.631290
v 59.330910 -220.522400 34.157242
v 59.599770 -220.024002 34.157242
v 62.157310 -215.282806 19.357241
v 61.888451 -215.781204 19.631290
v 59.330910 -220.522400 19.357241
v 61.888451 -215.781204 34.157242
v 62.157310 -215.282806 34.157242
v 62.811451 -215.641602 19.357241
v 62.157310 -215.282806 19.357241
v 62.157310 -215.282806 34.157242
v 62.811451 -215.641602 34.157242
v 63.550980 -216.040298 19.631290
v 62.811451 -215.641602 34.157242
v 63.550980 -216.040298 34.157242
v 65.351303 -217.011093 19.357241
v 64.611778 -216.612305 19.631290
v 62.811451 -215.641602 19.357241
v 64.611778 -216.612305 34.157242
v 65.351303 -217.011093 34.157242
v 65.811623 -217.216202 19.631290
v 65.370033 -216.976593 34.157242
v 65.811623 -217.216202 34.157242
v 83.819542 -226.987305 19.631290
v 82.060112 -226.032700 19.357241
v 65.370033 -216.976593 19.357241
v 83.819542 -226.987305 34.157242
v 84.261124 -227.226898 34.157242
v 84.261124 -227.226898 19.357241
v 68.398972 -223.449203 19.631290
v 68.653427 -222.979202 34.157242
v 68.398972 -223.449203 34.157242
v 67.570717 -224.979004 19.357241
v 67.825180 -224.509003 19.631290
v 68.653427 -222.979202 19.357241
v 67.825180 -224.509003 34.157242
v 67.570717 -224.979004 34.157242
v 68.653427 -222.979202 19.357241
v 69.868240 -223.642395 34.157242
v 68.653427 -222.979202 34.157242
v 69.868240 -223.642395 19.357241
v 69.039993 -225.172195 19.631290
v 68.785530 -225.642197 34.157242
v 69.039993 -225.172195 34.157242
v 69.613777 -224.112396 19.631290
v 68.785530 -225.642197 19.357241
v 69.613777 -224.112396 34.157242
v 69.868240 -223.642395 34.157242
v 69.868240 -223.642395 19.357241
v 81.206261 -232.361099 34.157242
v 80.936501 -232.215195 34.157242
v 80.936501 -232.215195 19.631290
v 81.427170 -232.480606 34.157242
v 69.276199 -225.907593 19.631290
v 81.206261 -232.361099 19.357241
v 81.427170 -232.480606 19.357241
v 69.276199 -225.907593 34.157242
v 68.785530 -225.642197 34.157242
v 68.785530 -225.642197 19.357241
v 83.991440 -227.726898 19.631290
v 84.260300 -227.228500 34.157242
v 83.991440 -227.726898 34.157242
v 81.433907 -232.468094 19.357241
v 81.702766 -231.969696 19.631290
v 84.260300 -227.228500 19.357241
v 81.702766 -231.969696 34.157242
v 81.433907 -232.468094 34.157242
vt 47.860420 1.473390
vt 50.364601 79.569901
vt 47.860420 79.569901
vt 2.504180 1.473390
vt 50.364601 0.000000
vt 2.504180 79.569901
vt 0.000000 79.569901
vt 0.000000 0.000000
vt 28.962540 1.473390
vt 32.007229 79.569901
vt 28.962540 79.569901
vt 0.000000 0.000000
vt 3.044690 1.473390
vt 32.007229 0.000000
vt 3.044690 79.569901
vt 0.000000 79.569901
vt 0.000000 0.000000
vt 4.011240 0.000000
vt 4.011240 79.569901
vt 0.000000 79.569901
vt 10.996580 1.473390
vt 15.513700 79.569901
vt 10.996580 79.569901
vt 0.000000 0.000000
vt 4.517120 1.473390
vt 15.513700 0.000000
vt 4.517120 79.569901
vt 0.000000 79.569901
vt 112.851997 1.473390
vt 115.553101 79.569901
vt 112.851997 79.569901
vt 2.701100 1.473390
vt 13.463150 0.000000
vt 115.553101 0.000000
vt 2.701100 79.569901
vt 0.000000 79.569901
vt 0.000000 0.000000
vt 9.352910 1.473390
vt 12.226370 79.569901
vt 9.352910 79.569901
vt 0.000000 0.000000
vt 2.873450 1.473390
vt 12.226370 0.000000
vt 2.873450 79.569901
vt 0.000000 79.569901
vt 0.000000 0.000000
vt 7.441090 79.569901
vt 0.000000 79.569901
vt 7.441090 0.000000
vt 9.352910 1.473390
vt 12.226370 79.569901
vt 9.352910 79.569901
vt 2.873450 1.473390
vt 12.226370 0.000000
vt 2.873450 79.569901
vt 0.000000 79.569901
vt 0.000000 0.000000
vt 75.922256 79.569901
vt 74.273331 79.569901
vt 74.273331 1.473390
vt 77.272537 79.569901
vt 2.999220 1.473390
vt 75.922256 0.000000
vt 77.272537 0.000000
vt 2.999220 79.569901
vt 0.000000 79.569901
vt 0.000000 0.000000
vt 28.962549 1.473390
vt 32.007252 79.569901
vt 28.962549 79.569901
vt 0.000000 0.000000
vt 3.044700 1.473390
vt 32.007252 0.000000
vt 3.044700 79.569901
vt 0.000000 79.569901
vn -0.4758 -0.8796 0.0000
vn -0.4757 -0.8796 0.0001
vn -0.4757 -0.8796 0.0000
vn -0.8801 0.4748 0.0000
vn -0.8801 0.4748 -0.0001
vn -0.8801 0.4748 0.0001
vn 0.4809 0.8768 0.0000
vn 0.4745 0.8802 0.0000
vn 0.4746 0.8802 0.0000
vn 0.4746 0.8802 -0.0003
vn 0.4769 0.8789 0.0000
vn 0.4769 0.8789 -0.0002
vn 0.4769 0.8790 0.0000
vn 0.4769 0.8790 0.0001
vn 0.8794 -0.4761 0.0000
vn 0.8794 -0.4761 0.0001
vn -0.4792 -0.8777 0.0000
vn -0.8794 0.4761 0.0000
vn -0.8794 0.4761 0.0001
vn -0.4758 -0.8796 -0.0003
vn -0.4758 -0.8795 -0.0002
vn -0.4758 -0.8796 0.0001
vn 0.8801 -0.4748 0.0000
vn 0.8801 -0.4748 0.0001
s off
f 1/1/1 2/2/1 3/3/1
f 4/4/2 5/5/2 1/1/2
f 2/2/1 1/1/1 5/5/1
f 6/6/1 7/7/1 4/4/1
f 7/7/1 8/8/1 4/4/1
f 8/8/3 5/5/3 4/4/3
f 9/9/4 10/10/4 11/11/4
f 12/12/5 9/9/5 13/13/5
f 12/12/6 14/14/6 9/9/6
f 10/10/4 9/9/4 14/14/4
f 15/15/4 16/16/4 13/13/4
f 16/16/4 12/12/4 13/13/4
f 17/17/7 18/18/7 19/19/7
f 17/17/7 19/19/7 20/20/7
f 21/21/8 22/22/8 23/23/8
f 24/24/9 21/21/9 25/25/9
f 24/24/10 26/26/10 21/21/10
f 22/22/9 21/21/9 26/26/9
f 27/27/9 28/28/9 25/25/9
f 28/28/9 24/24/9 25/25/9
f 29/29/11 30/30/11 31/31/11
f 29/29/12 32/32/12 33/33/12
f 33/33/11 34/34/11 29/29/11
f 30/30/11 29/29/11 34/34/11
f 35/35/13 36/36/13 32/32/13
f 36/36/13 37/37/13 32/32/13
f 37/37/14 33/33/14 32/32/14
f 38/38/15 39/39/15 40/40/15
f 41/41/16 38/38/16 42/42/16
f 41/41/15 43/43/15 38/38/15
f 39/39/15 38/38/15 43/43/15
f 44/44/15 45/45/15 42/42/15
f 45/45/15 41/41/15 42/42/15
f 46/46/17 47/47/17 48/48/17
f 46/46/17 49/49/17 47/47/17
f 50/50/18 51/51/18 52/52/18
f 53/53/19 54/54/19 50/50/19
f 51/51/18 50/50/18 54/54/18
f 55/55/18 56/56/18 53/53/18
f 56/56/18 57/57/18 53/53/18
f 57/57/18 54/54/18 53/53/18
f 58/58/3 59/59/3 60/60/3
f 60/60/1 61/61/1 58/58/1
f 62/62/20 63/63/20 60/60/20
f 63/63/21 64/64/21 60/60/21
f 60/60/1 64/64/1 61/61/1
f 65/65/1 66/66/1 62/62/1
f 66/66/1 67/67/1 62/62/1
f 62/62/22 67/67/22 63/63/22
f 68/68/23 69/69/23 70/70/23
f 71/71/23 68/68/23 72/72/23
f 71/71/24 73/73/24 68/68/24
f 69/69/23 68/68/23 73/73/23
f 74/74/23 75/75/23 72/72/23
f 75/75/23 71/71/23 72/72/23
