# Blender v3.0.1 OBJ File: 'rockerfeller_plaza.blend'
# www.blender.org
o geometryt000010000010000110010110000110000100110010110110st162
v 213.518188 -319.419342 566.000549
v 208.110184 -326.276550 566.000549
v 212.091385 -318.680939 566.000549
v 214.649780 -317.263428 566.000549
v 214.921890 -329.816925 566.000549
v 212.484177 -328.546234 566.000549
v 213.214584 -316.525146 566.000549
v 214.436981 -314.190643 566.000549
v 215.863785 -314.929047 566.000549
v 226.303391 -308.069031 566.000549
v 216.962387 -312.840240 566.000549
v 215.535477 -312.090637 566.000549
v 219.491791 -304.539734 566.000549
v 212.484177 -328.546234 587.700562
v 213.518188 -319.419342 587.700562
v 208.110184 -326.276550 587.700562
v 212.091385 -318.680939 587.700562
v 214.921890 -329.816925 587.700562
v 226.303391 -308.069031 587.700562
v 214.649780 -317.263428 587.700562
v 219.491791 -304.539734 587.700562
v 216.962387 -312.840240 587.700562
v 215.863785 -314.929047 587.700562
v 215.535477 -312.090637 587.700562
v 214.436981 -314.190643 587.700562
v 213.214584 -316.525146 587.700562
vt 0.515350 0.410090
vt 0.529550 0.399030
vt 0.514460 0.407240
vt 0.511070 0.412430
vt 0.533820 0.412680
vt 0.532290 0.407800
vt 0.510180 0.409550
vt 0.505540 0.412070
vt 0.506430 0.414930
vt 0.490630 0.436130
vt 0.502280 0.417190
vt 0.501370 0.414330
vt 0.486380 0.422480
vt 0.532290 0.407800
vt 0.515350 0.410090
vt 0.529550 0.399030
vt 0.514460 0.407240
vt 0.533820 0.412680
vt 0.490630 0.436130
vt 0.511070 0.412430
vt 0.486380 0.422480
vt 0.502280 0.417190
vt 0.506430 0.414930
vt 0.501370 0.414330
vt 0.505540 0.412070
vt 0.510180 0.409550
vn 0.0000 0.0000 -1.0000
vn 0.0000 0.0000 1.0000
vn 0.0001 0.0000 1.0000
vn -0.0001 0.0000 1.0000
s off
f 1/1/1 2/2/1 3/3/1
f 4/4/1 5/5/1 1/1/1
f 6/6/1 1/1/1 5/5/1
f 1/1/1 6/6/1 2/2/1
f 7/7/1 8/8/1 4/4/1
f 8/8/1 9/9/1 4/4/1
f 9/9/1 10/10/1 4/4/1
f 10/10/1 5/5/1 4/4/1
f 9/9/1 11/11/1 10/10/1
f 12/12/1 13/13/1 11/11/1
f 13/13/1 10/10/1 11/11/1
f 14/14/2 15/15/2 16/16/2
f 15/15/2 17/17/2 16/16/2
f 14/14/2 18/18/2 15/15/2
f 19/19/2 20/20/2 18/18/2
f 20/20/3 15/15/3 18/18/3
f 19/19/2 21/21/2 22/22/2
f 19/19/2 22/22/2 23/23/2
f 19/19/2 23/23/2 20/20/2
f 21/21/2 24/24/2 22/22/2
f 23/23/4 25/25/4 20/20/4
f 20/20/2 25/25/2 26/26/2
