# Blender v3.0.1 OBJ File: 'rockerfeller_plaza.blend'
# www.blender.org
o geometryt000010000010000110010110000110000100110010110110st96
v 39.587944 -308.845032 567.247864
v 38.057575 -313.275635 567.247864
v 38.057575 -313.275635 584.345520
v 39.587944 -308.845032 584.345520
v 40.740253 -305.509033 567.247864
v 39.720005 -308.462738 567.247864
v 39.720005 -308.462738 584.345520
v 40.740253 -305.509033 584.345520
v 41.892563 -302.172943 567.247864
v 40.872314 -305.126648 567.247864
v 40.872314 -305.126648 584.345520
v 41.892563 -302.172943 584.345520
v 42.534744 -300.313751 567.247864
v 42.024624 -301.790649 567.247864
v 42.024624 -301.790649 584.345520
v 42.534744 -300.313751 584.345520
v 43.687054 -296.977753 584.345520
v 43.687054 -296.977753 567.247864
v 42.666813 -299.931427 567.247864
v 42.666813 -299.931427 584.345520
v 44.839363 -293.641632 567.247864
v 43.819122 -296.595337 567.247864
v 43.819122 -296.595337 584.345520
v 44.839363 -293.641632 584.345520
v 45.481552 -291.782440 567.247864
v 44.971432 -293.259338 567.247864
v 44.971432 -293.259338 584.345520
v 45.481552 -291.782440 584.345520
v 46.123745 -289.923248 584.345520
v 46.123745 -289.923248 567.247864
v 45.613613 -291.400146 567.247864
v 45.613613 -291.400146 584.345520
v 46.765923 -288.064148 567.247864
v 46.255802 -289.540924 567.247864
v 46.255802 -289.540924 584.345520
v 46.765923 -288.064148 584.345520
v 47.918232 -284.728027 567.247864
v 46.897995 -287.681732 567.247864
v 46.897995 -287.681732 584.345520
v 47.918232 -284.728027 584.345520
v 49.070541 -281.392029 584.345520
v 49.070541 -281.392029 567.247864
v 48.050304 -284.345734 567.247864
v 48.050304 -284.345734 584.345520
v 49.712734 -279.532837 567.247864
v 49.202614 -281.009644 567.247864
v 49.202614 -281.009644 584.345520
v 49.712734 -279.532837 584.345520
v 50.865044 -276.196747 567.247864
v 49.844791 -279.150452 567.247864
v 49.844791 -279.150452 584.345520
v 50.865044 -276.196747 584.345520
v 52.017353 -272.860748 584.345520
v 52.017353 -272.860748 567.247864
v 50.997105 -275.814453 567.247864
v 50.997105 -275.814453 584.345520
v 53.679783 -268.047852 584.345520
v 53.679783 -268.047852 567.247864
v 52.149414 -272.478424 567.247864
v 52.149414 -272.478424 584.345520
v 38.010723 -313.940338 567.247864
v 38.904675 -318.541748 567.247864
v 38.904675 -318.541748 584.345520
v 38.010723 -313.940338 584.345520
v 39.399822 -321.090454 567.247864
v 40.293774 -325.691833 567.247864
v 40.293774 -325.691833 584.345520
v 39.399822 -321.090454 584.345520
v 40.663074 -326.194550 584.345520
v 40.663074 -326.194550 567.247864
v 44.786633 -328.423431 567.247864
v 44.786633 -328.423431 584.345520
v 45.109592 -328.598053 567.247864
v 47.858635 -330.084045 567.247864
v 47.858635 -330.084045 584.345520
v 45.109592 -328.598053 584.345520
v 48.181602 -330.258636 567.247864
v 50.930645 -331.744537 567.247864
v 50.930645 -331.744537 584.345520
v 48.181602 -330.258636 584.345520
v 51.253613 -331.919128 567.247864
v 52.628132 -332.662140 567.247864
v 52.628132 -332.662140 584.345520
v 51.253613 -331.919128 584.345520
v 52.951092 -332.836731 584.345520
v 52.951092 -332.836731 567.247864
v 55.700134 -334.322632 567.247864
v 55.700134 -334.322632 584.345520
v 56.023102 -334.497253 567.247864
v 58.772144 -335.983246 567.247864
v 58.772144 -335.983246 584.345520
v 56.023102 -334.497253 584.345520
v 59.095112 -336.157837 567.247864
v 60.469635 -336.900726 567.247864
v 60.469635 -336.900726 584.345520
v 59.095112 -336.157837 584.345520
v 60.792595 -337.075348 567.247864
v 62.167114 -337.818329 567.247864
v 62.167114 -337.818329 584.345520
v 60.792595 -337.075348 584.345520
v 62.490082 -337.992950 584.345520
v 62.490082 -337.992950 567.247864
v 63.864605 -338.735931 567.247864
v 63.864605 -338.735931 584.345520
v 64.187576 -338.910431 567.247864
v 65.562096 -339.653442 567.247864
v 65.562096 -339.653442 584.345520
v 64.187576 -338.910431 584.345520
v 65.885056 -339.828033 567.247864
v 68.634094 -341.314026 567.247864
v 68.634094 -341.314026 584.345520
v 65.885056 -339.828033 584.345520
v 68.957062 -341.488647 567.247864
v 71.706100 -342.974548 567.247864
v 71.706100 -342.974548 584.345520
v 68.957062 -341.488647 584.345520
v 72.029076 -343.149139 584.345520
v 72.029076 -343.149139 567.247864
v 73.403595 -343.892151 567.247864
v 73.403595 -343.892151 584.345520
v 73.726555 -344.066742 584.345520
v 73.726555 -344.066742 567.247864
v 76.475594 -345.552643 567.247864
v 76.475594 -345.552643 584.345520
v 76.798561 -345.727234 567.247864
v 79.547600 -347.213226 567.247864
v 79.547600 -347.213226 584.345520
v 76.798561 -345.727234 584.345520
v 79.870575 -347.387726 584.345520
v 79.870575 -347.387726 567.247864
v 83.994133 -349.616730 567.247864
v 83.994133 -349.616730 584.345520
v 57.022293 -266.264435 584.345520
v 57.022293 -266.264435 567.247864
v 54.173855 -267.549652 567.247864
v 54.173855 -267.549652 584.345520
v 61.831505 -268.484039 567.247864
v 57.707272 -266.256348 567.247864
v 57.707272 -266.256348 584.345520
v 61.831505 -268.484039 584.345520
v 64.955849 -270.171631 567.247864
v 62.206352 -268.686554 567.247864
v 62.206352 -268.686554 584.345520
v 64.955849 -270.171631 584.345520
v 68.080185 -271.859253 567.247864
v 65.330696 -270.374146 567.247864
v 65.330696 -270.374146 584.345520
v 68.080185 -271.859253 584.345520
v 69.829788 -272.804352 567.247864
v 68.455032 -272.061737 567.247864
v 68.455032 -272.061737 584.345520
v 69.829788 -272.804352 584.345520
v 72.954124 -274.491943 567.247864
v 70.204636 -273.006836 567.247864
v 70.204636 -273.006836 584.345520
v 72.954124 -274.491943 584.345520
v 76.078461 -276.179535 584.345520
v 76.078461 -276.179535 567.247864
v 73.328972 -274.694427 567.247864
v 73.328972 -274.694427 584.345520
v 77.828056 -277.124634 584.345520
v 77.828056 -277.124634 567.247864
v 76.453316 -276.382050 567.247864
v 76.453316 -276.382050 584.345520
v 79.577652 -278.069733 584.345520
v 79.577652 -278.069733 567.247864
v 78.202911 -277.327148 567.247864
v 78.202911 -277.327148 584.345520
v 82.701996 -279.757324 584.345520
v 82.701996 -279.757324 567.247864
v 79.952499 -278.272125 567.247864
v 79.952499 -278.272125 584.345520
v 85.826332 -281.444946 584.345520
v 85.826332 -281.444946 567.247864
v 83.076843 -279.959839 567.247864
v 83.076843 -279.959839 584.345520
v 88.950676 -283.132538 584.345520
v 88.950676 -283.132538 567.247864
v 86.201180 -281.647430 567.247864
v 86.201180 -281.647430 584.345520
v 90.700272 -284.077637 567.247864
v 89.325523 -283.335052 567.247864
v 89.325523 -283.335052 584.345520
v 90.700272 -284.077637 584.345520
v 93.824615 -285.765228 584.345520
v 93.824615 -285.765228 567.247864
v 91.075127 -284.280151 567.247864
v 91.075127 -284.280151 584.345520
v 96.948952 -287.452850 584.345520
v 96.948952 -287.452850 567.247864
v 94.199463 -285.967743 567.247864
v 94.199463 -285.967743 584.345520
v 100.073280 -289.140533 567.247864
v 97.323807 -287.655334 567.247864
v 97.323807 -287.655334 584.345520
v 100.073280 -289.140533 584.345520
v 101.822884 -290.085541 584.345520
v 101.822884 -290.085541 567.247864
v 100.448143 -289.342926 567.247864
v 100.448143 -289.342926 584.345520
v 103.572487 -291.030640 584.345520
v 103.572487 -291.030640 567.247864
v 102.197746 -290.288025 567.247864
v 102.197746 -290.288025 584.345520
v 106.696785 -292.718231 584.345520
v 106.696785 -292.718231 567.247864
v 103.947334 -291.233032 567.247864
v 103.947334 -291.233032 584.345520
v 109.821182 -294.405853 584.345520
v 109.821182 -294.405853 567.247864
v 107.071686 -292.920746 567.247864
v 107.071686 -292.920746 584.345520
v 111.570786 -295.350952 567.247864
v 110.195984 -294.608337 567.247864
v 110.195984 -294.608337 584.345520
v 111.570786 -295.350952 584.345520
v 114.695084 -297.038544 584.345520
v 114.695084 -297.038544 567.247864
v 111.945580 -295.553345 567.247864
v 111.945580 -295.553345 584.345520
v 117.819481 -298.726135 567.247864
v 115.069984 -297.241028 567.247864
v 115.069984 -297.241028 584.345520
v 117.819481 -298.726135 584.345520
v 122.318481 -301.156342 567.247864
v 118.194283 -298.928650 567.247864
v 118.194283 -298.928650 584.345520
v 122.318481 -301.156342 584.345520
v 84.462830 -349.477936 584.345520
v 84.462830 -349.477936 567.247864
v 85.198875 -348.128448 567.247864
v 85.198875 -348.128448 584.345520
v 85.668213 -347.291748 584.345520
v 85.668213 -347.291748 567.247864
v 86.441734 -345.934235 567.247864
v 86.441734 -345.934235 584.345520
v 86.910210 -345.097046 584.345520
v 86.910210 -345.097046 567.247864
v 89.142876 -340.975525 567.247864
v 89.142876 -340.975525 584.345520
v 90.291992 -338.854126 567.247864
v 92.524651 -334.732635 567.247864
v 92.524651 -334.732635 584.345520
v 90.291992 -338.854126 584.345520
v 92.852119 -334.125244 584.345520
v 92.852119 -334.125244 567.247864
v 95.068626 -329.995026 567.247864
v 95.068626 -329.995026 584.345520
v 96.292572 -327.714325 584.345520
v 96.292572 -327.714325 567.247864
v 98.509071 -323.584045 567.247864
v 98.509071 -323.584045 584.345520
v 98.975845 -323.443848 584.345520
v 98.975845 -323.443848 567.247864
v 100.350952 -324.185730 567.247864
v 100.350952 -324.185730 584.345520
v 101.292053 -324.693451 567.247864
v 105.417381 -326.919128 567.247864
v 105.417381 -326.919128 584.345520
v 101.292053 -324.693451 584.345520
v 107.051384 -327.800751 584.345520
v 106.358482 -327.426941 567.247864
v 107.733582 -328.168854 567.247864
v 106.358482 -327.426941 584.345520
v 107.733582 -328.168854 584.345520
v 108.206284 -328.019531 567.247864
v 110.433281 -323.894928 567.247864
v 110.433281 -323.894928 584.345520
v 108.206284 -328.019531 584.345520
v 110.637283 -323.517029 584.345520
v 110.637283 -323.517029 567.247864
v 112.121986 -320.767334 567.247864
v 112.121986 -320.767334 584.345520
v 112.325981 -320.389435 584.345520
v 112.325981 -320.389435 567.247864
v 113.810684 -317.639740 567.247864
v 113.810684 -317.639740 584.345520
v 114.014687 -317.261841 584.345520
v 114.014687 -317.261841 567.247864
v 114.756981 -315.886932 567.247864
v 114.756981 -315.886932 584.345520
v 114.961082 -315.509125 584.345520
v 114.961082 -315.509125 567.247864
v 115.703384 -314.134247 567.247864
v 115.703384 -314.134247 584.345520
v 115.907387 -313.756439 584.345520
v 115.907387 -313.756439 567.247864
v 116.649780 -312.381531 567.247864
v 116.649780 -312.381531 584.345520
v 116.853783 -312.003632 584.345520
v 116.853783 -312.003632 567.247864
v 118.338486 -309.253937 567.247864
v 118.338486 -309.253937 584.345520
v 118.542480 -308.876038 584.345520
v 118.542480 -308.876038 567.247864
v 120.027084 -306.126343 567.247864
v 120.027084 -306.126343 584.345520
v 120.231186 -305.748444 584.345520
v 120.231186 -305.748444 567.247864
v 122.458183 -301.623840 567.247864
v 122.458183 -301.623840 584.345520
vt 0.000000 0.000000
vt 0.187500 0.000000
vt 0.187500 1.000000
vt 0.000000 1.000000
vt 0.000000 0.000000
vt 0.062500 0.000000
vt 0.062500 1.000000
vt 0.000000 1.000000
vt 0.000000 1.000000
vt 0.000000 0.000000
vt 0.125000 0.000000
vt 0.125000 1.000000
vt 0.000000 0.000000
vt 0.125000 0.000000
vt 0.125000 1.000000
vt 0.000000 1.000000
vt 0.000000 0.000000
vt 0.062500 0.000000
vt 0.062500 1.000000
vt 0.000000 1.000000
vt 0.000000 1.000000
vt 0.000000 0.000000
vt 0.062500 0.000000
vt 0.062500 1.000000
vt 0.000000 0.000000
vt 0.062500 0.000000
vt 0.062500 1.000000
vt 0.000000 1.000000
vt 0.000000 0.000000
vt 0.125000 0.000000
vt 0.125000 1.000000
vt 0.000000 1.000000
vt 0.000000 1.000000
vt 0.000000 0.000000
vt 0.125000 0.000000
vt 0.125000 1.000000
vt 0.000000 0.000000
vt 0.125000 0.000000
vt 0.125000 1.000000
vt 0.000000 1.000000
vt 0.000000 1.000000
vt 0.000000 0.000000
vt 0.187500 0.000000
vt 0.187500 1.000000
vt 0.000000 0.000000
vt 0.187500 0.000000
vt 0.187500 1.000000
vt 0.000000 1.000000
vt 0.000000 0.000000
vt 0.187500 0.000000
vt 0.187500 1.000000
vt 0.000000 1.000000
vt 0.000000 1.000000
vt 0.000000 0.000000
vt 0.187500 0.000000
vt 0.187500 1.000000
vt 0.000000 0.000000
vt 0.125000 0.000000
vt 0.125000 1.000000
vt 0.000000 1.000000
vt 0.000000 0.000000
vt 0.125000 0.000000
vt 0.125000 1.000000
vt 0.000000 1.000000
vt 0.000000 0.000000
vt 0.062500 0.000000
vt 0.062500 1.000000
vt 0.000000 1.000000
vt 0.000000 1.000000
vt 0.000000 0.000000
vt 0.125000 0.000000
vt 0.125000 1.000000
vt 0.000000 0.000000
vt 0.125000 0.000000
vt 0.125000 1.000000
vt 0.000000 1.000000
vt 0.000000 0.000000
vt 0.062500 0.000000
vt 0.062500 1.000000
vt 0.000000 1.000000
vt 0.000000 0.000000
vt 0.062500 0.000000
vt 0.062500 1.000000
vt 0.000000 1.000000
vt 0.000000 1.000000
vt 0.000000 0.000000
vt 0.062500 0.000000
vt 0.062500 1.000000
vt 0.000000 0.000000
vt 0.062500 0.000000
vt 0.062500 1.000000
vt 0.000000 1.000000
vt 0.000000 0.000000
vt 0.125000 0.000000
vt 0.125000 1.000000
vt 0.000000 1.000000
vt 0.000000 0.000000
vt 0.125000 0.000000
vt 0.125000 1.000000
vt 0.000000 1.000000
vt 0.000000 1.000000
vt 0.000000 0.000000
vt 0.062500 0.000000
vt 0.062500 1.000000
vt 0.000000 1.000000
vt 0.000000 0.000000
vt 0.125000 0.000000
vt 0.125000 1.000000
vt 0.000000 0.000000
vt 0.125000 0.000000
vt 0.125000 1.000000
vt 0.000000 1.000000
vt 0.000000 1.000000
vt 0.000000 0.000000
vt 0.187500 0.000000
vt 0.187500 1.000000
vt 0.000000 1.000000
vt 0.000000 0.000000
vt 0.125000 0.000000
vt 0.125000 1.000000
vt 0.000000 0.000000
vt 0.187500 0.000000
vt 0.187500 1.000000
vt 0.000000 1.000000
vt 0.000000 0.000000
vt 0.125000 0.000000
vt 0.125000 1.000000
vt 0.000000 1.000000
vt 0.000000 0.000000
vt 0.125000 0.000000
vt 0.125000 1.000000
vt 0.000000 1.000000
vt 0.000000 0.000000
vt 0.125000 0.000000
vt 0.125000 1.000000
vt 0.000000 1.000000
vt 0.000000 1.000000
vt 0.000000 0.000000
vt 0.125000 0.000000
vt 0.125000 1.000000
vt 0.000000 1.000000
vt 0.000000 0.000000
vt 0.125000 0.000000
vt 0.125000 1.000000
vt 0.000000 1.000000
vt 0.000000 0.000000
vt 0.125000 0.000000
vt 0.125000 1.000000
vt 0.000000 1.000000
vt 0.000000 0.000000
vt 0.125000 0.000000
vt 0.125000 1.000000
vt 0.000000 1.000000
vt 0.000000 0.000000
vt 0.125000 0.000000
vt 0.125000 1.000000
vt 0.000000 0.000000
vt 0.125000 0.000000
vt 0.125000 1.000000
vt 0.000000 1.000000
vt 0.000000 1.000000
vt 0.000000 0.000000
vt 0.062500 0.000000
vt 0.062500 1.000000
vt 0.000000 1.000000
vt 0.000000 0.000000
vt 0.062500 0.000000
vt 0.062500 1.000000
vt 0.000000 1.000000
vt 0.000000 0.000000
vt 0.125000 0.000000
vt 0.125000 1.000000
vt 0.000000 0.000000
vt 0.062500 0.000000
vt 0.062500 1.000000
vt 0.000000 1.000000
vt 0.000000 1.000000
vt 0.000000 0.000000
vt 0.125000 0.000000
vt 0.125000 1.000000
vt 0.000000 0.000000
vt 0.125000 0.000000
vt 0.125000 1.000000
vt 0.000000 1.000000
vt 0.000000 0.000000
vt 0.187500 0.000000
vt 0.187500 1.000000
vt 0.000000 1.000000
vt 0.000000 1.000000
vt 0.000000 0.000000
vt 0.062500 0.000000
vt 0.062500 1.000000
vt 0.000000 1.000000
vt 0.000000 0.000000
vt 0.062500 0.000000
vt 0.062500 1.000000
vt 0.000000 1.000000
vt 0.000000 0.000000
vt 0.187500 0.000000
vt 0.187500 1.000000
vt 0.000000 0.000000
vt 0.187500 0.000000
vt 0.187500 1.000000
vt 0.000000 1.000000
vt 0.000000 1.000000
vt 0.000000 0.000000
vt 0.187500 0.000000
vt 0.187500 1.000000
vt 0.000000 1.000000
vt 0.000000 0.000000
vt 0.187500 0.000000
vt 0.187500 1.000000
vt 0.000000 1.000000
vt 0.000000 0.000000
vt 0.062500 0.000000
vt 0.062500 1.000000
vt 0.000000 0.000000
vt 0.187500 0.000000
vt 0.187500 1.000000
vt 0.000000 1.000000
vt 0.031490 1.000000
vt 0.000000 0.000000
vt 0.062500 0.000000
vt 0.000000 1.000000
vt 0.062500 1.000000
vt 0.000000 0.000000
vt 0.187500 0.000000
vt 0.187500 1.000000
vt 0.000000 1.000000
vt 0.000000 1.000000
vt 0.000000 0.000000
vt 0.125000 0.000000
vt 0.125000 1.000000
vt 0.000000 1.000000
vt 0.000000 0.000000
vt 0.125000 0.000000
vt 0.125000 1.000000
vt 0.000000 1.000000
vt 0.000000 0.000000
vt 0.062500 0.000000
vt 0.062500 1.000000
vt 0.000000 1.000000
vt 0.000000 0.000000
vt 0.062500 0.000000
vt 0.062500 1.000000
vt 0.000000 1.000000
vt 0.000000 0.000000
vt 0.062500 0.000000
vt 0.062500 1.000000
vt 0.000000 1.000000
vt 0.000000 0.000000
vt 0.125000 0.000000
vt 0.125000 1.000000
vt 0.000000 1.000000
vt 0.000000 0.000000
vt 0.125000 0.000000
vt 0.125000 1.000000
vt 0.000000 1.000000
vt 0.000000 0.000000
vt 0.187500 0.000000
vt 0.187500 1.000000
vt 0.000000 0.000000
vt 0.125000 0.000000
vt 0.125000 1.000000
vt 0.000000 1.000000
vt 0.000000 0.000000
vt 0.125000 0.000000
vt 0.125000 1.000000
vt 0.000000 1.000000
vt 0.000000 0.000000
vt 0.062500 0.000000
vt 0.062500 1.000000
vt 0.000000 1.000000
vt 0.000000 1.000000
vt 0.000000 0.000000
vt 0.125000 0.000000
vt 0.125000 1.000000
vt 0.000000 0.000000
vt 0.062500 0.000000
vt 0.062500 1.000000
vt 0.000000 1.000000
vt 0.000000 1.000000
vt 0.000000 0.000000
vt 0.062500 0.000000
vt 0.062500 1.000000
vt 0.000000 1.000000
vt 0.000000 0.000000
vt 0.062500 0.000000
vt 0.062500 1.000000
vt 0.000000 0.000000
vt 0.062500 0.000000
vt 0.062500 1.000000
vt 0.000000 1.000000
vt 0.000000 1.000000
vt 0.000000 0.000000
vt 0.125000 0.000000
vt 0.125000 1.000000
vt 0.000000 1.000000
vt 0.000000 0.000000
vt 0.125000 0.000000
vt 0.125000 1.000000
vn -0.9452 0.3265 0.0000
vn -0.9816 -0.1907 0.0000
vn -0.4755 -0.8797 0.0000
vn -0.4113 0.9115 0.0000
vn 0.4753 0.8799 0.0000
vn 0.4752 0.8799 0.0000
vn 0.4753 0.8798 0.0000
vn 0.8779 -0.4788 0.0000
vn 0.8689 -0.4951 0.0000
vn 0.8793 -0.4763 0.0000
vn 0.8811 -0.4729 0.0000
vn -0.4748 -0.8801 0.0000
vn -0.4749 -0.8801 0.0000
vn 0.8799 -0.4751 0.0000
s off
f 1/1/1 2/2/1 3/3/1
f 4/4/1 1/1/1 3/3/1
f 13/5/1 14/6/1 15/7/1
f 16/8/1 13/5/1 15/7/1
f 17/9/1 18/10/1 19/11/1
f 17/9/1 19/11/1 20/12/1
f 21/13/1 22/14/1 23/15/1
f 24/16/1 21/13/1 23/15/1
f 25/17/1 26/18/1 27/19/1
f 28/20/1 25/17/1 27/19/1
f 29/21/1 30/22/1 31/23/1
f 29/21/1 31/23/1 32/24/1
f 33/25/1 34/26/1 35/27/1
f 36/28/1 33/25/1 35/27/1
f 37/29/1 38/30/1 39/31/1
f 40/32/1 37/29/1 39/31/1
f 41/33/1 42/34/1 43/35/1
f 41/33/1 43/35/1 44/36/1
f 49/37/1 50/38/1 51/39/1
f 52/40/1 49/37/1 51/39/1
f 57/41/1 58/42/1 59/43/1
f 57/41/1 59/43/1 60/44/1
f 61/45/2 62/46/2 63/47/2
f 64/48/2 61/45/2 63/47/2
f 65/49/2 66/50/2 67/51/2
f 68/52/2 65/49/2 67/51/2
f 69/53/3 70/54/3 71/55/3
f 69/53/3 71/55/3 72/56/3
f 73/57/3 74/58/3 75/59/3
f 76/60/3 73/57/3 75/59/3
f 77/61/3 78/62/3 79/63/3
f 80/64/3 77/61/3 79/63/3
f 81/65/3 82/66/3 83/67/3
f 84/68/3 81/65/3 83/67/3
f 85/69/3 86/70/3 87/71/3
f 85/69/3 87/71/3 88/72/3
f 89/73/3 90/74/3 91/75/3
f 92/76/3 89/73/3 91/75/3
f 93/77/3 94/78/3 95/79/3
f 96/80/3 93/77/3 95/79/3
f 97/81/3 98/82/3 99/83/3
f 100/84/3 97/81/3 99/83/3
f 101/85/3 102/86/3 103/87/3
f 101/85/3 103/87/3 104/88/3
f 105/89/3 106/90/3 107/91/3
f 108/92/3 105/89/3 107/91/3
f 109/93/3 110/94/3 111/95/3
f 112/96/3 109/93/3 111/95/3
f 113/97/3 114/98/3 115/99/3
f 116/100/3 113/97/3 115/99/3
f 117/101/3 118/102/3 119/103/3
f 117/101/3 119/103/3 120/104/3
f 121/105/3 122/106/3 123/107/3
f 121/105/3 123/107/3 124/108/3
f 125/109/3 126/110/3 127/111/3
f 128/112/3 125/109/3 127/111/3
f 129/113/3 130/114/3 131/115/3
f 129/113/3 131/115/3 132/116/3
f 133/117/4 134/118/4 135/119/4
f 133/117/4 135/119/4 136/120/4
f 137/121/5 138/122/5 139/123/5
f 140/124/6 137/121/6 139/123/6
f 141/125/6 142/126/6 143/127/6
f 144/128/6 141/125/6 143/127/6
f 145/129/6 146/130/6 147/131/6
f 148/132/6 145/129/6 147/131/6
f 153/133/6 154/134/6 155/135/6
f 156/136/6 153/133/6 155/135/6
f 157/137/6 158/138/6 159/139/6
f 157/137/6 159/139/6 160/140/6
f 169/141/7 170/142/7 171/143/7
f 169/141/7 171/143/7 172/144/7
f 173/145/6 174/146/6 175/147/6
f 173/145/6 175/147/6 176/148/6
f 177/149/6 178/150/6 179/151/6
f 177/149/6 179/151/6 180/152/6
f 189/153/6 190/154/6 191/155/6
f 189/153/6 191/155/6 192/156/6
f 193/157/7 194/158/7 195/159/7
f 196/160/7 193/157/7 195/159/7
f 197/161/7 198/162/7 199/163/7
f 197/161/7 199/163/7 200/164/7
f 201/165/7 202/166/7 203/167/7
f 201/165/7 203/167/7 204/168/7
f 209/169/6 210/170/6 211/171/6
f 209/169/6 211/171/6 212/172/6
f 213/173/7 214/174/7 215/175/7
f 216/176/7 213/173/7 215/175/7
f 217/177/7 218/178/7 219/179/7
f 217/177/7 219/179/7 220/180/7
f 221/181/6 222/182/6 223/183/6
f 224/184/6 221/181/6 223/183/6
f 225/185/7 226/186/7 227/187/7
f 228/188/5 225/185/5 227/187/5
f 229/189/8 230/190/8 231/191/8
f 229/189/8 231/191/8 232/192/8
f 233/193/9 234/194/9 235/195/9
f 233/193/9 235/195/9 236/196/9
f 237/197/10 238/198/10 239/199/10
f 237/197/10 239/199/10 240/200/10
f 241/201/10 242/202/10 243/203/10
f 244/204/10 241/201/10 243/203/10
f 245/205/11 246/206/11 247/207/11
f 245/205/11 247/207/11 248/208/11
f 249/209/11 250/210/11 251/211/11
f 249/209/11 251/211/11 252/212/11
f 253/213/12 254/214/12 255/215/12
f 253/213/12 255/215/12 256/216/12
f 257/217/12 258/218/12 259/219/12
f 260/220/12 257/217/12 259/219/12
f 261/221/12 262/222/12 263/223/12
f 264/224/12 262/222/12 261/221/12
f 261/221/13 263/223/13 265/225/13
f 266/226/14 267/227/14 268/228/14
f 269/229/14 266/226/14 268/228/14
f 270/230/14 271/231/14 272/232/14
f 270/230/14 272/232/14 273/233/14
f 274/234/14 275/235/14 276/236/14
f 274/234/14 276/236/14 277/237/14
f 278/238/14 279/239/14 280/240/14
f 278/238/14 280/240/14 281/241/14
f 282/242/14 283/243/14 284/244/14
f 282/242/14 284/244/14 285/245/14
f 286/246/14 287/247/14 288/248/14
f 286/246/14 288/248/14 289/249/14
f 290/250/14 291/251/14 292/252/14
f 290/250/14 292/252/14 293/253/14
f 294/254/14 295/255/14 296/256/14
f 294/254/14 296/256/14 297/257/14
f 298/258/14 299/259/14 300/260/14
f 298/258/14 300/260/14 301/261/14
s 1
f 5/262/1 6/263/1 7/264/1
f 8/265/1 5/262/1 7/264/1
f 9/266/1 10/267/1 11/268/1
f 12/269/1 9/266/1 11/268/1
f 45/270/1 46/271/1 47/272/1
f 48/273/1 45/270/1 47/272/1
f 53/274/1 54/275/1 55/276/1
f 53/274/1 55/276/1 56/277/1
f 149/278/7 150/279/7 151/280/7
f 152/281/7 149/278/7 151/280/7
f 161/282/7 162/283/7 163/284/7
f 161/282/7 163/284/7 164/285/7
f 165/286/7 166/287/7 167/288/7
f 165/286/7 167/288/7 168/289/7
f 181/290/7 182/291/7 183/292/7
f 184/293/7 181/290/7 183/292/7
f 185/294/6 186/295/6 187/296/6
f 185/294/6 187/296/6 188/297/6
f 205/298/7 206/299/7 207/300/7
f 205/298/7 207/300/7 208/301/7
