# Blender v3.0.1 OBJ File: 'rockerfeller_plaza.blend'
# www.blender.org
o geometryt000010000010000110010110000110000110100000010110st119
v 1107.642212 -61.141968 187.213852
v 1118.218994 -66.869034 187.213852
v 1117.293701 -68.589630 187.213852
v 1095.347168 -83.867920 187.213852
v 1105.915527 -89.595108 187.213852
v 1117.293701 -68.589630 211.113861
v 1107.642212 -61.141968 211.113861
v 1095.347168 -83.867920 211.113861
v 1118.218994 -66.869034 211.113861
v 1105.915527 -89.595108 211.113861
vt 0.075200 0.227180
vt 0.082260 0.248370
vt 0.085680 0.246460
vt 0.120460 0.201870
vt 0.127530 0.223030
vt 0.085680 0.246460
vt 0.075200 0.227180
vt 0.120460 0.201870
vt 0.082260 0.248370
vt 0.127530 0.223030
vn -0.0000 0.0000 -1.0000
vn 0.0000 0.0000 1.0000
s off
f 1/1/1 2/2/1 3/3/1
f 4/4/1 3/3/1 5/5/1
f 4/4/1 1/1/1 3/3/1
f 6/6/2 7/7/2 8/8/2
f 9/9/2 7/7/2 6/6/2
f 6/6/2 8/8/2 10/10/2
