# Blender v3.0.1 OBJ File: 'rockerfeller_plaza.blend'
# www.blender.org
o geometryt000010000010000110010110000110000110100000100110st159
v 528.414185 -196.925705 655.861572
v 529.297607 -197.392914 655.861572
v 514.737671 -224.518402 655.861572
v 507.627167 -220.704102 655.861572
v 522.187073 -193.578613 655.861572
v 528.414185 -196.925705 664.061584
v 522.187073 -193.578613 664.061584
v 507.627167 -220.704102 664.061584
v 514.737671 -224.518402 664.061584
v 529.297607 -197.392914 664.061584
vt 0.350410 0.045610
vt 0.350980 0.047380
vt 0.404960 0.017400
vt 0.400280 0.003160
vt 0.346300 0.033140
vt 0.350410 0.045610
vt 0.346300 0.033140
vt 0.400280 0.003160
vt 0.404960 0.017400
vt 0.350980 0.047380
vn -0.0001 0.0000 -1.0000
vn 0.0000 0.0000 -1.0000
vn 0.0000 0.0000 1.0000
s off
f 1/1/1 2/2/1 3/3/1
f 4/4/2 1/1/2 3/3/2
f 5/5/2 1/1/2 4/4/2
f 6/6/3 7/7/3 8/8/3
f 9/9/3 6/6/3 8/8/3
f 10/10/3 6/6/3 9/9/3
