# Blender v3.0.1 OBJ File: 'rockerfeller_plaza.blend'
# www.blender.org
o geometryt000010000010000110010110000110000110100100000010st108
v 518.303101 -273.836487 978.866455
v 516.930420 -273.096680 933.037964
v 522.421265 -276.055786 933.037964
v 516.930420 -273.096680 978.866455
v 522.421265 -276.055786 991.365112
v 521.048523 -275.315979 983.032654
v 521.048523 -275.315979 991.365112
v 518.303101 -273.836487 983.032654
v 528.983521 -248.958176 933.037964
v 516.334839 -272.255066 933.037964
v 516.334839 -272.255066 979.365112
v 528.983521 -248.958176 979.365112
v 529.480774 -252.074478 985.365112
v 529.480774 -252.074478 979.365112
v 519.161377 -271.076691 979.365112
v 518.318115 -272.629364 985.365112
v 518.318115 -272.629364 979.365112
v 531.351318 -255.497375 985.365112
v 521.785583 -273.116791 985.365112
v 531.351318 -255.497375 991.365112
v 520.935181 -274.683289 991.365112
v 520.935181 -274.683289 985.365112
v 523.845093 -276.819489 933.037964
v 525.218994 -277.557068 933.037964
v 525.218994 -277.557068 997.365112
v 523.845093 -276.819489 997.365112
v 532.441833 -259.796082 991.365112
v 524.088806 -274.946777 991.365112
v 532.441833 -259.796082 997.365112
v 523.407288 -276.182892 997.365112
v 523.407288 -276.182892 991.365112
v 526.354553 -278.167664 1003.365112
v 526.354553 -278.167664 933.037964
v 542.827698 -287.043976 933.037964
v 542.827698 -287.043976 1003.365112
v 532.925171 -265.056091 1003.365112
v 532.925171 -265.056091 997.365112
v 526.444336 -276.769165 997.365112
v 526.130676 -277.335968 1003.365112
v 526.130676 -277.335968 997.365112
v 558.865356 -264.542389 967.783325
v 568.473999 -269.721588 933.037964
v 530.039551 -249.004974 933.037964
v 568.473999 -269.721588 967.783325
v 530.039551 -249.004974 979.365112
v 558.865356 -264.542389 979.365112
v 557.847473 -266.144165 979.365112
v 533.130920 -252.826172 979.365112
v 557.847473 -266.144165 985.365112
v 530.392212 -251.350479 985.365112
v 530.392212 -251.350479 979.365112
v 544.274597 -261.892975 985.365112
v 556.629028 -268.551086 991.365112
v 556.629028 -268.551086 985.365112
v 534.127136 -256.424377 985.365112
v 531.920227 -255.234985 991.365112
v 531.920227 -255.234985 985.365112
v 554.088257 -271.061279 997.365112
v 554.088257 -271.061279 991.365112
v 534.645508 -260.581879 991.365112
v 533.498230 -259.963470 997.365112
v 533.498230 -259.963470 991.365112
v 562.790649 -280.436279 1003.365112
v 562.790649 -280.436279 997.365112
v 535.752991 -265.868683 997.365112
v 533.962158 -264.903778 1003.365112
v 533.962158 -264.903778 997.365112
v 546.414368 -288.974884 969.365112
v 546.414368 -288.974884 933.037964
v 547.788147 -289.712677 933.037964
v 547.788147 -289.712677 969.365112
v 548.897034 -290.309875 933.037964
v 555.755493 -294.018188 933.037964
v 555.755493 -294.018188 969.365112
v 548.897034 -290.309875 969.365112
v 554.335938 -272.720886 991.365112
v 554.809998 -271.842163 991.365112
v 554.809998 -271.842163 997.365112
v 554.335938 -272.720886 997.365112
v 564.236755 -278.442474 997.365112
v 564.236755 -278.442474 991.365112
v 555.128296 -273.539276 991.365112
v 554.625366 -273.268463 997.365112
v 554.625366 -273.268463 991.365112
v 555.933533 -270.614868 985.365112
v 556.678345 -269.244965 985.365112
v 556.678345 -269.244965 991.365112
v 555.933533 -270.614868 991.365112
v 564.856384 -276.087982 991.365112
v 564.856384 -276.087982 985.365112
v 556.669861 -271.678772 985.365112
v 556.619019 -271.651367 991.365112
v 556.619019 -271.651367 985.365112
v 556.390320 -293.969177 933.037964
v 556.921204 -292.989380 933.037964
v 556.921204 -292.989380 969.365112
v 556.390320 -293.969177 969.365112
v 566.157349 -273.687286 979.365112
v 558.087952 -269.337463 979.365112
v 566.157349 -273.687286 985.365112
v 557.921570 -269.247772 985.365112
v 557.921570 -269.247772 979.365112
v 557.123230 -268.425476 985.365112
v 557.123230 -268.425476 979.365112
v 557.811218 -267.155182 979.365112
v 557.811218 -267.155182 985.365112
v 567.179016 -271.808777 969.365112
v 560.094177 -267.992981 969.365112
v 567.179016 -271.808777 979.365112
v 558.941589 -267.372192 979.365112
v 558.941589 -267.372192 969.365112
v 558.412598 -266.056763 979.365112
v 558.412598 -266.056763 969.365112
v 558.961609 -265.042267 969.365112
v 558.985107 -264.998871 979.365112
v 558.985107 -264.998871 969.365112
v 568.356201 -271.900177 968.201538
v 562.415649 -282.869781 933.037964
v 569.098755 -270.528992 933.037964
v 568.128723 -272.320282 969.365112
v 566.871033 -274.642578 976.992432
v 565.385925 -277.384979 985.783325
v 563.158203 -281.498566 994.574219
v 562.415649 -282.869781 1003.365112
v 569.098755 -270.528992 968.201538
v 568.356201 -271.900177 969.365112
v 568.128723 -272.320282 976.992432
v 566.871033 -274.642578 985.365112
v 565.810181 -276.601593 985.365112
v 565.810181 -276.601593 985.783325
v 565.385925 -277.384979 990.178772
v 564.643311 -278.756165 990.178772
v 564.643311 -278.756165 994.574219
v 563.158203 -281.498566 1003.365112
vt 0.166670 2.750000
vt 0.000000 0.000000
vt 0.666670 0.000000
vt 0.000000 2.750000
vt 0.666670 3.500000
vt 0.500000 3.000000
vt 0.500000 3.500000
vt 0.000000 0.000000
vt 2.833330 0.000000
vt 2.833330 3.750000
vt 0.000000 3.750000
vt 0.000000 0.250000
vt 0.000000 0.000000
vt 2.311140 0.000000
vt 2.500000 0.250000
vt 2.500000 0.000000
vt 0.000000 0.000000
vt 2.142830 0.000000
vt 0.000000 0.250000
vt 2.333330 0.250000
vt 2.333330 0.000000
vt 2.000000 0.500000
vt 1.849130 0.000000
vt 2.000000 0.000000
vt 0.000000 0.500000
vt 0.000000 4.250000
vt 0.000000 0.000000
vt 2.000000 0.000000
vt 2.000000 4.250000
vt 0.000000 0.250000
vt 0.000000 0.000000
vt 1.430760 0.000000
vt 1.500000 0.250000
vt 1.500000 0.000000
vt 0.000000 2.250000
vt 0.000000 0.000000
vt 1.166670 2.250000
vt 0.000000 0.000000
vt 3.000820 0.000000
vt 0.000000 0.250000
vt 3.333330 0.250000
vt 3.333330 0.000000
vt 1.500000 0.000000
vt 0.000000 0.250000
vt 0.000000 0.000000
vt 2.732040 0.000000
vt 3.000000 0.250000
vt 3.000000 0.000000
vt 0.000000 0.500000
vt 0.000000 0.000000
vt 2.360700 0.000000
vt 2.500000 0.500000
vt 2.500000 0.000000
vt 0.000000 0.250000
vt 0.000000 0.000000
vt 3.282580 0.000000
vt 3.500000 0.250000
vt 3.500000 0.000000
vt 0.000000 3.000000
vt 0.000000 0.000000
vt 0.166670 0.000000
vt 0.166670 3.000000
vt 0.000000 0.000000
vt 0.833330 0.000000
vt 0.833330 3.000000
vt 0.000000 3.000000
vt 0.000000 0.000000
vt 0.166670 0.000000
vt 0.166670 0.500000
vt 0.000000 0.500000
vt 0.000000 0.500000
vt 0.000000 0.000000
vt 1.105620 0.000000
vt 1.166670 0.500000
vt 1.166670 0.000000
vt 0.000000 0.000000
vt 0.166670 0.000000
vt 0.166670 0.250000
vt 0.000000 0.250000
vt 0.000000 0.250000
vt 0.000000 0.000000
vt 0.993820 0.000000
vt 1.000000 0.250000
vt 1.000000 0.000000
vt 0.000000 0.000000
vt 0.166670 0.000000
vt 0.166670 3.000000
vt 0.000000 3.000000
vt 1.000000 0.500000
vt 0.979800 0.000000
vt 1.000000 0.000000
vt 0.000000 0.500000
vt 0.000000 0.250000
vt 0.000000 0.000000
vt 0.166670 0.000000
vt 0.166670 0.250000
vt 0.000000 0.000000
vt 0.860080 0.000000
vt 0.000000 0.500000
vt 1.000000 0.500000
vt 1.000000 0.000000
vt 0.000000 0.750000
vt 0.000000 0.000000
vt 0.159830 0.000000
vt 0.166670 0.750000
vt 0.166670 0.000000
vt 1.333330 2.000000
vt 0.000000 0.000000
vt 1.500000 0.000000
vt 1.282270 2.066180
vt 1.000000 2.500000
vt 0.666670 3.000000
vt 0.166670 3.500000
vt 0.000000 4.000000
vt 1.500000 2.000000
vt 1.333330 2.066180
vt 1.282270 2.500000
vt 1.000000 2.976210
vt 0.761880 2.976210
vt 0.761880 3.000000
vt 0.666670 3.250000
vt 0.500000 3.250000
vt 0.500000 3.500000
vt 0.166670 4.000000
vt 0.166670 3.000000
vt 0.000000 0.000000
vt 0.166670 0.000000
vt 0.166670 4.250000
vt 0.000000 4.250000
vt 0.000000 0.000000
vt 4.666670 0.000000
vt 4.666670 3.000000
vt 1.166670 3.000000
vt 0.000000 0.000000
vn -0.4744 -0.8803 -0.0000
vn -0.4745 -0.8803 0.0000
vn -0.8788 0.4771 0.0000
vn -0.8788 0.4772 0.0000
vn -0.8788 0.4773 0.0000
vn -0.8789 0.4771 0.0000
vn -0.8757 0.4828 0.0000
vn -0.8750 0.4841 0.0000
vn 0.4745 0.8803 0.0000
vn 0.4744 0.8803 0.0000
vn 0.4743 0.8803 0.0000
vn 0.4743 0.8804 0.0000
vn -0.4731 -0.8810 0.0000
vn -0.4756 -0.8796 0.0000
vn -0.4756 -0.8797 0.0000
vn 0.8801 -0.4747 0.0000
vn 0.8801 -0.4748 0.0000
vn 0.4740 0.8805 0.0000
vn 0.4741 0.8805 0.0000
vn 0.8785 -0.4777 0.0000
vn 0.8786 -0.4776 0.0000
vn 0.4742 0.8804 0.0000
vn 0.8792 -0.4764 0.0000
vn 0.8793 -0.4762 0.0000
vn 0.8795 -0.4759 0.0000
vn 0.8800 -0.4749 -0.0000
vn 0.8795 -0.4760 -0.0000
vn 0.8794 -0.4761 -0.0000
vn 0.8794 -0.4762 0.0000
vn 0.8793 -0.4763 0.0000
vn -0.4730 -0.8811 0.0000
s off
f 1/1/1 2/2/1 3/3/1
f 4/4/1 2/2/1 1/1/1
f 5/5/1 6/6/1 3/3/1
f 6/6/1 1/1/1 3/3/1
f 7/7/2 6/6/2 5/5/2
f 9/8/3 10/9/3 11/10/3
f 12/11/3 9/8/3 11/10/3
f 13/12/4 14/13/4 15/14/4
f 16/15/5 15/14/5 17/16/5
f 16/15/4 13/12/4 15/14/4
f 18/17/3 19/18/3 20/19/3
f 21/20/6 19/18/6 22/21/6
f 20/19/3 19/18/3 21/20/3
f 30/22/7 28/23/7 31/24/7
f 29/25/7 28/23/7 30/22/7
f 32/26/1 33/27/1 34/28/1
f 32/26/1 34/28/1 35/29/1
f 36/30/8 37/31/8 38/32/8
f 39/33/8 38/32/8 40/34/8
f 39/33/8 36/30/8 38/32/8
f 44/35/9 42/36/9 41/37/9
f 47/38/10 48/39/10 49/40/10
f 50/41/11 48/39/11 51/42/11
f 49/40/11 48/39/11 50/41/11
f 52/43/10 53/44/10 54/45/10
f 55/46/10 56/47/10 52/43/10
f 53/44/10 52/43/10 56/47/10
f 57/48/10 56/47/10 55/46/10
f 58/49/9 59/50/9 60/51/9
f 61/52/10 60/51/10 62/53/10
f 61/52/9 58/49/9 60/51/9
f 63/54/12 64/55/12 65/56/12
f 66/57/11 65/56/11 67/58/11
f 66/57/12 63/54/12 65/56/12
f 68/59/13 69/60/13 70/61/13
f 68/59/13 70/61/13 71/62/13
f 72/63/14 73/64/14 74/65/14
f 75/66/15 72/63/15 74/65/15
f 76/67/16 77/68/16 78/69/16
f 79/70/17 76/67/17 78/69/17
f 80/71/18 81/72/18 82/73/18
f 83/74/19 82/73/19 84/75/19
f 83/74/18 80/71/18 82/73/18
f 85/76/20 86/77/20 87/78/20
f 88/79/21 85/76/21 87/78/21
f 89/80/22 90/81/22 91/82/22
f 92/83/9 91/82/9 93/84/9
f 94/85/23 95/86/23 96/87/23
f 97/88/23 94/85/23 96/87/23
f 101/89/10 99/90/10 102/91/10
f 100/92/9 99/90/9 101/89/9
f 103/93/24 104/94/24 105/95/24
f 103/93/24 105/95/24 106/96/24
f 107/97/22 108/98/22 109/99/22
f 110/100/22 108/98/22 111/101/22
f 109/99/22 108/98/22 110/100/22
f 112/102/25 113/103/25 114/104/25
f 115/105/26 114/104/26 116/106/26
f 115/105/27 112/102/27 114/104/27
f 117/107/24 118/108/24 119/109/24
f 120/110/28 118/108/28 117/107/28
f 121/111/24 118/108/24 120/110/24
f 122/112/24 118/108/24 121/111/24
f 123/113/24 118/108/24 122/112/24
f 124/114/29 118/108/29 123/113/29
f 117/107/24 119/109/24 125/115/24
f 126/116/30 120/110/30 117/107/30
f 127/117/24 121/111/24 120/110/24
f 128/118/24 129/119/24 121/111/24
f 129/119/28 122/112/28 121/111/28
f 130/120/24 122/112/24 129/119/24
f 131/121/24 132/122/24 122/112/24
f 132/122/28 123/113/28 122/112/28
f 133/123/24 123/113/24 132/122/24
f 134/124/29 124/114/29 123/113/29
s 1
f 8/125/1 1/1/1 6/6/1
f 23/126/31 24/127/31 25/128/31
f 26/129/31 23/126/31 25/128/31
f 27/130/7 28/23/7 29/25/7
f 41/37/9 42/36/9 43/131/9
f 45/132/9 41/37/9 43/131/9
f 46/133/9 41/37/9 45/132/9
f 92/83/22 89/80/22 91/82/22
f 98/134/9 99/90/9 100/92/9
