# Blender v3.0.1 OBJ File: 'rockerfeller_plaza.blend'
# www.blender.org
o geometryt000010000010000110010110000110000100110010010110st19
v 52.354240 -233.435394 19.589630
v 52.190281 -233.738907 35.345921
v 52.354240 -233.435394 35.345921
v 53.163589 -231.936996 19.589630
v 52.190281 -233.738907 19.245920
v 53.163589 -231.936996 35.345921
v 53.574890 -231.175598 35.345921
v 53.574890 -231.175598 19.589630
v 54.384239 -229.677200 19.589630
v 55.768841 -227.113907 19.245920
v 54.384239 -229.677200 35.345921
v 54.795528 -228.915802 35.345921
v 54.795528 -228.915802 19.589630
v 55.604881 -227.417496 19.589630
v 55.604881 -227.417496 35.345921
v 55.768841 -227.113907 35.345921
v 70.464371 -243.607498 19.589630
v 70.767937 -243.771393 35.345921
v 70.464371 -243.607498 35.345921
v 67.467506 -241.989105 19.589630
v 70.767937 -243.771393 19.245920
v 67.467506 -241.989105 35.345921
v 64.475967 -240.373596 35.345921
v 64.475967 -240.373596 19.589630
v 58.482250 -237.136795 19.589630
v 52.190281 -233.738907 19.245920
v 58.482250 -237.136795 35.345921
v 55.490700 -235.521301 35.345921
v 55.490700 -235.521301 19.589630
v 52.493839 -233.902893 19.589630
v 52.493839 -233.902893 35.345921
v 52.190281 -233.738907 35.345921
v 56.072189 -227.278198 19.589630
v 55.768841 -227.113907 35.345921
v 56.072189 -227.278198 35.345921
v 59.066929 -228.900604 19.589630
v 55.768841 -227.113907 19.245920
v 59.066929 -228.900604 35.345921
v 62.054619 -230.519104 35.345921
v 62.054619 -230.519104 19.589630
v 68.044098 -233.763702 19.589630
v 68.044098 -233.763702 35.345921
v 71.031776 -235.382202 35.345921
v 71.031776 -235.382202 19.589630
v 74.329872 -237.168793 19.245920
v 74.026520 -237.004501 19.589630
v 74.026520 -237.004501 35.345921
v 74.329872 -237.168793 35.345921
v 74.166069 -237.472504 19.589630
v 74.329872 -237.168793 35.345921
v 74.166069 -237.472504 35.345921
v 73.357521 -238.971207 19.589630
v 74.329872 -237.168793 19.245920
v 73.357521 -238.971207 35.345921
v 72.953178 -239.720703 35.345921
v 72.953178 -239.720703 19.589630
v 72.144630 -241.219498 19.589630
v 70.767937 -243.771393 19.245920
v 72.144630 -241.219498 35.345921
v 71.740288 -241.968994 35.345921
v 71.740288 -241.968994 19.589630
v 70.931740 -243.467804 19.589630
v 70.931740 -243.467804 35.345921
v 70.767937 -243.771393 35.345921
vt 7.784110 0.372380
vt 8.157891 17.443119
vt 7.784110 17.443119
vt 5.939080 0.372380
vt 8.157891 0.000000
vt 5.939080 17.443119
vt 5.001460 17.443119
vt 5.001460 0.372380
vt 3.156430 0.372380
vt 0.000000 0.000000
vt 3.156430 17.443119
vt 2.218820 17.443119
vt 2.218820 0.372380
vt 0.373780 0.372380
vt 0.373780 17.443119
vt 0.000000 17.443119
vt 22.501101 0.372380
vt 22.874889 17.443119
vt 22.501101 17.443119
vt 18.811041 0.372380
vt 22.874889 0.000000
vt 18.811041 17.443119
vt 15.127510 17.443119
vt 15.127510 0.372380
vt 7.747380 0.372380
vt 0.000000 0.000000
vt 7.747380 17.443119
vt 4.063850 17.443119
vt 4.063850 0.372380
vt 0.373780 0.372380
vt 0.373780 17.443119
vt 0.000000 17.443119
vt 22.496790 0.372380
vt 22.870569 17.443119
vt 22.496790 17.443119
vt 22.870569 0.000000
vt 18.806721 17.443119
vt 15.125350 17.443119
vt 18.806721 0.372380
vt 15.125350 0.372380
vt 7.745220 0.372380
vt 0.000000 0.000000
vt 0.373780 0.372380
vt 4.063850 0.372380
vt 0.373780 17.443119
vt 0.000000 17.443119
vt 7.754200 0.372380
vt 8.127990 17.443119
vt 7.754200 17.443119
vt 8.127990 0.000000
vt 5.909170 17.443119
vt 4.986510 17.443119
vt 5.909170 0.372380
vt 4.986510 0.372380
vt 3.141480 0.372380
vt 0.000000 0.000000
vt 3.141480 17.443119
vt 2.218820 17.443119
vt 2.218820 0.372380
vt 0.373780 0.372380
vt 0.373780 17.443119
vt 0.000000 17.443119
vt 7.745220 17.443119
vt 4.063850 17.443119
vn -0.8798 0.4753 0.0000
vn -0.8799 0.4752 0.0000
vn -0.8798 0.4753 -0.0002
vn -0.8799 0.4752 -0.0001
vn -0.8798 0.4753 0.0002
vn -0.8798 0.4753 0.0001
vn -0.4751 -0.8799 0.0000
vn -0.4751 -0.8799 0.0001
vn -0.4752 -0.8799 0.0000
vn -0.4752 -0.8799 -0.0001
vn -0.4752 -0.8799 -0.0002
vn -0.4753 -0.8798 0.0000
vn 0.4762 0.8793 0.0000
vn 0.4765 0.8792 0.0000
vn 0.4763 0.8793 0.0000
vn 0.4763 0.8793 0.0002
vn 0.4763 0.8793 0.0001
vn 0.8802 -0.4747 0.0000
vn 0.8801 -0.4747 0.0000
vn 0.8801 -0.4748 0.0000
vn 0.8801 -0.4748 0.0004
vn 0.8801 -0.4748 0.0005
vn 0.8801 -0.4748 0.0002
vn 0.4763 0.8793 -0.0001
vn 0.8801 -0.4747 0.0002
vn 0.8801 -0.4749 0.0000
s off
f 1/1/1 2/2/1 3/3/1
f 4/4/2 5/5/2 1/1/2
f 2/2/1 1/1/1 5/5/1
f 6/6/1 7/7/1 4/4/1
f 7/7/1 8/8/1 4/4/1
f 8/8/3 5/5/3 4/4/3
f 9/9/4 10/10/4 8/8/4
f 8/8/1 10/10/1 5/5/1
f 11/11/1 12/12/1 9/9/1
f 12/12/1 13/13/1 9/9/1
f 13/13/5 10/10/5 9/9/5
f 14/14/6 10/10/6 13/13/6
f 15/15/2 16/16/2 14/14/2
f 16/16/2 10/10/2 14/14/2
f 17/17/7 18/18/7 19/19/7
f 20/20/8 21/21/8 17/17/8
f 18/18/7 17/17/7 21/21/7
f 22/22/9 23/23/9 20/20/9
f 23/23/9 24/24/9 20/20/9
f 24/24/10 21/21/10 20/20/10
f 25/25/11 26/26/11 24/24/11
f 24/24/9 26/26/9 21/21/9
f 27/27/9 28/28/9 25/25/9
f 28/28/9 29/29/9 25/25/9
f 29/29/11 26/26/11 25/25/11
f 30/30/11 26/26/11 29/29/11
f 31/31/12 32/32/12 30/30/12
f 32/32/12 26/26/12 30/30/12
f 33/33/13 34/34/13 35/35/13
f 34/34/14 33/33/14 37/36/14
f 38/37/15 39/38/15 36/39/15
f 39/38/15 40/40/15 36/39/15
f 40/40/15 37/36/15 36/39/15
f 40/40/16 41/41/16 37/36/16
f 41/41/15 45/42/15 37/36/15
f 46/43/17 45/42/17 44/44/17
f 47/45/13 48/46/13 46/43/13
f 48/46/13 45/42/13 46/43/13
f 49/47/18 50/48/18 51/49/18
f 50/48/19 49/47/19 53/50/19
f 54/51/20 55/52/20 52/53/20
f 55/52/20 56/54/20 52/53/20
f 56/54/21 53/50/21 52/53/21
f 57/55/22 58/56/22 56/54/22
f 56/54/20 58/56/20 53/50/20
f 59/57/20 60/58/20 57/55/20
f 60/58/20 61/59/20 57/55/20
f 61/59/23 58/56/23 57/55/23
f 62/60/23 58/56/23 61/59/23
f 63/61/20 64/62/20 62/60/20
s 1
f 36/39/16 37/36/16 33/33/16
f 42/63/15 43/64/15 41/41/15
f 43/64/15 44/44/17 41/41/15
f 44/44/17 45/42/24 41/41/15
f 52/53/25 53/50/25 49/47/25
f 64/62/26 58/56/26 62/60/26
