# Blender v3.0.1 OBJ File: 'rockerfeller_plaza.blend'
# www.blender.org
o geometryt000010000010000110010110000110000100110010010110st130
v 163.487701 -266.012512 19.548370
v 163.791504 -266.176086 38.149670
v 163.487701 -266.012512 38.149670
v 161.872406 -265.142303 19.548370
v 163.791504 -266.176086 19.149670
v 161.872406 -265.142303 38.149670
v 160.223007 -264.253693 38.149670
v 160.223007 -264.253693 19.548370
v 158.607697 -263.383514 19.548370
v 158.304001 -263.219910 19.149670
v 158.607697 -263.383514 38.149670
v 158.304001 -263.219910 38.149670
v 158.535507 -262.788300 19.548370
v 158.304001 -263.219910 38.149670
v 158.535507 -262.788300 38.149670
v 159.634293 -260.739807 19.149670
v 159.402802 -261.171387 19.548370
v 158.304001 -263.219910 19.149670
v 159.402802 -261.171387 38.149670
v 159.634293 -260.739807 38.149670
v 159.798401 -260.436310 19.548370
v 159.634293 -260.739807 38.149670
v 159.798401 -260.436310 38.149670
v 161.543396 -257.208099 19.548370
v 159.634293 -260.739807 19.149670
v 161.543396 -257.208099 38.149670
v 162.454895 -255.521805 38.149670
v 162.454895 -255.521805 19.548370
v 163.327393 -253.907700 19.548370
v 163.327393 -253.907700 38.149670
v 164.238907 -252.221298 38.149670
v 164.238907 -252.221298 19.548370
v 165.111404 -250.607193 19.548370
v 167.931900 -245.389206 19.149670
v 165.111404 -250.607193 38.149670
v 166.022903 -248.920898 38.149670
v 166.022903 -248.920898 19.548370
v 167.767899 -245.692703 19.548370
v 167.767899 -245.692703 38.149670
v 167.931900 -245.389206 38.149670
v 173.255493 -248.660095 19.548370
v 173.419495 -248.356598 38.149670
v 173.255493 -248.660095 38.149670
v 171.511093 -251.888596 19.548370
v 173.419495 -248.356598 19.149670
v 171.511093 -251.888596 38.149670
v 170.712494 -253.366806 38.149670
v 170.712494 -253.366806 19.548370
v 169.840302 -254.981094 19.548370
v 169.840302 -254.981094 38.149670
v 169.041595 -256.459198 38.149670
v 169.041595 -256.459198 19.548370
v 168.169403 -258.073486 19.548370
v 163.791504 -266.176086 19.149670
v 168.169403 -258.073486 38.149670
v 167.370697 -259.551697 38.149670
v 167.370697 -259.551697 19.548370
v 166.498505 -261.165894 19.548370
v 166.498505 -261.165894 38.149670
v 165.699799 -262.644104 38.149670
v 165.699799 -262.644104 19.548370
v 163.955505 -265.872589 19.548370
v 163.955505 -265.872589 38.149670
v 163.791504 -266.176086 38.149670
v 168.235397 -245.553299 19.548370
v 167.931900 -245.389206 38.149670
v 168.235397 -245.553299 38.149670
v 169.849396 -246.426102 19.548370
v 167.931900 -245.389206 19.149670
v 169.849396 -246.426102 38.149670
v 171.502106 -247.319702 38.149670
v 171.502106 -247.319702 19.548370
v 173.116104 -248.192505 19.548370
v 173.419495 -248.356598 19.149670
v 173.116104 -248.192505 38.149670
v 173.419495 -248.356598 38.149670
vt 5.911780 0.466310
vt 6.258170 22.222219
vt 5.911780 22.222219
vt 4.069600 0.466310
vt 6.258170 0.000000
vt 4.069600 22.222219
vt 2.188570 22.222219
vt 2.188570 0.466310
vt 0.346390 0.466310
vt 0.000000 0.000000
vt 0.346390 22.222219
vt 0.000000 22.222219
vt 2.333940 0.466310
vt 2.825690 22.222219
vt 2.333940 22.222219
vt 0.000000 0.000000
vt 0.491760 0.466310
vt 2.825690 0.000000
vt 0.491760 22.222219
vt 0.000000 22.222219
vt 17.173321 0.466310
vt 17.519699 22.222219
vt 17.173321 22.222219
vt 13.488950 0.466310
vt 17.519699 0.000000
vt 13.488950 22.222219
vt 11.564340 22.222219
vt 11.564340 0.466310
vt 9.722161 0.466310
vt 9.722161 22.222219
vt 7.797540 22.222219
vt 7.797540 0.466310
vt 5.955360 0.466310
vt 0.000000 0.000000
vt 5.955360 22.222219
vt 4.030750 22.222219
vt 4.030750 0.466310
vt 0.346390 0.466310
vt 0.346390 22.222219
vt 0.000000 22.222219
vt 19.989250 0.466310
vt 20.335640 22.222219
vt 19.989250 22.222219
vt 16.304890 0.466310
vt 20.335640 0.000000
vt 16.304890 22.222219
vt 14.617990 22.222219
vt 14.617990 0.466310
vt 12.775810 0.466310
vt 12.775810 22.222219
vt 11.088910 22.222219
vt 11.088910 0.466310
vt 9.246730 22.222219
vt 7.559830 22.222219
vt 9.246730 0.466310
vt 7.559830 0.466310
vt 5.717650 22.222219
vt 4.030750 22.222219
vt 5.717650 0.466310
vt 4.030750 0.466310
vt 0.000000 0.000000
vt 0.346390 0.466310
vt 0.346390 22.222219
vt 0.000000 22.222219
vt 5.917180 0.466310
vt 6.263570 22.222219
vt 5.917180 22.222219
vt 4.075000 0.466310
vt 6.263570 0.000000
vt 4.075000 22.222219
vt 2.188570 22.222219
vt 2.188570 0.466310
vt 0.346390 0.466310
vt 0.000000 0.000000
vt 0.346390 22.222219
vt 0.000000 22.222219
vn -0.4741 -0.8805 0.0000
vn -0.4743 -0.8804 -0.0001
vn -0.4743 -0.8804 0.0000
vn -0.8812 0.4727 0.0000
vn -0.8812 0.4727 0.0001
vn -0.8813 0.4726 0.0000
vn -0.8796 0.4757 0.0000
vn -0.8797 0.4755 -0.0002
vn -0.8798 0.4753 -0.0000
vn -0.8797 0.4755 0.0000
vn -0.8797 0.4755 -0.0003
vn -0.8797 0.4755 0.0002
vn -0.8798 0.4754 0.0000
vn 0.8798 -0.4754 0.0000
vn 0.8797 -0.4754 0.0000
vn 0.8798 -0.4753 0.0000
vn 0.8798 -0.4754 0.0002
vn 0.8798 -0.4754 -0.0004
vn 0.8798 -0.4753 -0.0004
vn 0.8798 -0.4753 -0.0001
vn 0.4756 0.8797 0.0000
vn 0.4757 0.8796 -0.0001
vn 0.4756 0.8797 0.0002
vn 0.4757 0.8796 -0.0002
vn 0.4758 0.8796 0.0000
vn 0.4757 0.8796 0.0000
vn -0.8812 0.4727 -0.0001
vn -0.8797 0.4755 0.0003
vn 0.8798 -0.4754 -0.0001
vn 0.8798 -0.4754 0.0004
vn 0.8798 -0.4754 -0.0002
s off
f 1/1/1 2/2/1 3/3/1
f 4/4/2 5/5/2 1/1/2
f 2/2/1 1/1/1 5/5/1
f 6/6/3 7/7/3 4/4/3
f 7/7/3 8/8/3 4/4/3
f 8/8/2 5/5/2 4/4/2
f 9/9/3 10/10/3 8/8/3
f 8/8/3 10/10/3 5/5/3
f 11/11/3 12/12/3 9/9/3
f 12/12/3 10/10/3 9/9/3
f 13/13/4 14/14/4 15/15/4
f 16/16/5 13/13/5 17/17/5
f 14/14/4 13/13/4 18/18/4
f 19/19/4 20/20/4 17/17/4
f 20/20/6 16/16/6 17/17/6
f 21/21/7 22/22/7 23/23/7
f 24/24/8 25/25/8 21/21/8
f 22/22/9 21/21/9 25/25/9
f 26/26/10 27/27/10 24/24/10
f 27/27/10 28/28/10 24/24/10
f 28/28/11 29/29/11 25/25/11
f 30/30/10 31/31/10 29/29/10
f 31/31/10 32/32/10 29/29/10
f 33/33/12 34/34/12 32/32/12
f 32/32/10 34/34/10 25/25/10
f 35/35/10 36/36/10 33/33/10
f 36/36/10 37/37/10 33/33/10
f 37/37/10 34/34/10 33/33/10
f 38/38/11 34/34/11 37/37/11
f 39/39/13 40/40/13 38/38/13
f 40/40/13 34/34/13 38/38/13
f 41/41/14 42/42/14 43/43/14
f 44/44/14 45/45/14 41/41/14
f 42/42/15 41/41/15 45/45/15
f 46/46/16 47/47/16 44/44/16
f 47/47/16 48/48/16 44/44/16
f 48/48/17 49/49/17 45/45/17
f 50/50/14 51/51/14 49/49/14
f 51/51/14 52/52/14 49/49/14
f 55/53/14 56/54/14 53/55/14
f 56/54/14 57/56/14 53/55/14
f 59/57/14 60/58/14 58/59/14
f 60/58/14 61/60/14 58/59/14
f 61/60/18 54/61/19 58/59/18
f 62/62/20 54/61/20 61/60/20
f 63/63/14 64/64/14 62/62/14
f 64/64/14 54/61/14 62/62/14
f 65/65/21 66/66/21 67/67/21
f 68/68/22 69/69/22 65/65/22
f 66/66/21 65/65/21 69/69/21
f 70/70/21 71/71/21 68/68/21
f 71/71/21 72/72/21 68/68/21
f 72/72/23 69/69/23 68/68/23
f 73/73/22 74/74/22 72/72/22
f 72/72/24 74/74/24 69/69/24
f 75/75/25 76/76/25 73/73/25
f 76/76/26 74/74/26 73/73/26
s 1
f 16/16/27 18/18/27 13/13/27
f 28/28/12 25/25/12 24/24/12
f 29/29/28 32/32/28 25/25/28
f 48/48/29 45/45/29 44/44/29
f 49/49/30 52/52/14 45/45/29
f 53/55/31 54/61/18 52/52/14
f 52/52/14 54/61/18 45/45/29
f 57/56/14 54/61/18 53/55/31
f 58/59/14 54/61/18 57/56/14
