# Blender v3.0.1 OBJ File: 'rockerfeller_plaza.blend'
# www.blender.org
o geometryt000010000010000110010110000110000110100000010110st8
v 1213.588989 -252.436676 188.378326
v 1223.229370 -234.415771 188.378326
v 1224.078857 -234.872070 188.378326
v 1242.213379 -243.641266 188.378326
v 1224.434082 -234.201767 188.378326
v 1232.217773 -262.321472 188.378326
v 1224.078857 -234.872070 227.378326
v 1213.588989 -252.436676 227.378326
v 1232.217773 -262.321472 227.378326
v 1223.229370 -234.415771 227.378326
v 1242.213379 -243.641266 227.378326
v 1224.434082 -234.201767 227.378326
vt 0.389630 0.436210
vt 0.353770 0.456070
vt 0.354330 0.457770
vt 0.364520 0.494110
vt 0.352990 0.458500
vt 0.401690 0.473530
vt 0.354330 0.457770
vt 0.389630 0.436210
vt 0.401690 0.473530
vt 0.353770 0.456070
vt 0.364520 0.494110
vt 0.352990 0.458500
vn 0.0000 0.0000 -1.0000
vn 0.0000 0.0000 1.0000
s off
f 1/1/1 2/2/1 3/3/1
f 4/4/1 3/3/1 5/5/1
f 6/6/1 3/3/1 4/4/1
f 1/1/1 3/3/1 6/6/1
f 7/7/2 8/8/2 9/9/2
f 10/10/2 8/8/2 7/7/2
f 11/11/2 7/7/2 9/9/2
f 12/12/2 7/7/2 11/11/2
