# Blender v3.0.1 OBJ File: 'rockerfeller_plaza.blend'
# www.blender.org
o geometryt000010000010000110010110000110000110100100000010st70
v 570.960754 -299.641571 931.385986
v 570.035095 -301.348969 931.385986
v 570.035095 -301.348969 960.133362
v 570.960754 -299.641571 960.133362
v 575.521057 -291.230377 960.133362
v 575.521057 -291.230377 931.385986
v 572.744080 -296.352386 931.385986
v 572.744080 -296.352386 960.133362
v 580.081299 -282.819092 960.133362
v 580.081299 -282.819092 931.385986
v 577.304321 -287.941193 931.385986
v 577.304321 -287.941193 960.133362
v 582.790283 -277.822571 960.133362
v 582.790283 -277.822571 931.385986
v 581.864624 -279.529877 931.385986
v 581.864624 -279.529877 960.133362
v 570.173767 -301.817078 931.385986
v 571.880005 -302.744781 931.385986
v 571.880005 -302.744781 960.133362
v 570.173767 -301.817078 960.133362
v 573.978760 -303.885864 931.385986
v 575.684998 -304.813568 931.385986
v 575.684998 -304.813568 960.133362
v 573.978760 -303.885864 960.133362
v 576.152100 -304.674866 960.133362
v 576.152100 -304.674866 931.385986
v 577.075256 -302.966187 931.385986
v 577.075256 -302.966187 960.133362
v 578.854187 -299.673492 960.133362
v 578.854187 -299.673492 931.385986
v 581.623596 -294.547363 931.385986
v 581.623596 -294.547363 960.133362
v 583.402588 -291.254578 960.133362
v 583.402588 -291.254578 931.385986
v 586.171997 -286.128479 931.385986
v 586.171997 -286.128479 960.133362
v 587.950928 -282.835785 960.133362
v 587.950928 -282.835785 931.385986
v 588.874084 -281.127075 931.385986
v 588.874084 -281.127075 960.133362
v 584.964478 -278.610870 960.133362
v 584.964478 -278.610870 931.385986
v 583.257874 -277.683868 931.385986
v 583.257874 -277.683868 960.133362
v 588.734924 -280.658875 960.133362
v 588.734924 -280.658875 931.385986
v 587.028320 -279.731873 931.385986
v 587.028320 -279.731873 960.133362
vt 0.000000 0.000000
vt 0.250000 0.000000
vt 0.250000 4.000000
vt 0.000000 4.000000
vt 0.000000 4.000000
vt 0.000000 0.000000
vt 0.750000 0.000000
vt 0.750000 4.000000
vt 0.000000 4.000000
vt 0.000000 0.000000
vt 0.750000 0.000000
vt 0.750000 4.000000
vt 0.000000 4.000000
vt 0.000000 0.000000
vt 0.250000 0.000000
vt 0.250000 4.000000
vt 0.000000 4.000000
vt 0.000000 0.000000
vt 0.250000 0.000000
vt 0.250000 4.000000
vt 0.000000 4.000000
vt 0.000000 0.000000
vt 0.750000 0.000000
vt 0.750000 4.000000
vt 0.000000 4.000000
vt 0.000000 0.000000
vt 0.750000 0.000000
vt 0.750000 4.000000
vt 0.000000 4.000000
vt 0.000000 0.000000
vt 0.250000 0.000000
vt 0.250000 4.000000
vt 0.000000 4.000000
vt 0.000000 0.000000
vt 0.250000 0.000000
vt 0.250000 4.000000
vt 0.000000 4.000000
vt 0.000000 0.000000
vt 0.250000 0.000000
vt 0.250000 4.000000
vt 0.000000 0.000000
vt 0.250000 0.000000
vt 0.250000 4.000000
vt 0.000000 4.000000
vt 0.000000 0.000000
vt 0.250000 0.000000
vt 0.250000 4.000000
vt 0.000000 4.000000
vn -0.8791 0.4766 0.0000
vn -0.8791 0.4767 0.0000
vn 0.8798 -0.4753 0.0000
vn 0.4773 0.8787 0.0000
vn -0.4777 -0.8785 0.0000
s off
f 1/1/1 2/2/1 3/3/1
f 4/4/1 1/1/1 3/3/1
f 5/5/1 6/6/1 7/7/1
f 5/5/1 7/7/1 8/8/1
f 9/9/1 10/10/1 11/11/1
f 9/9/1 11/11/1 12/12/1
f 13/13/1 14/14/1 15/15/1
f 13/13/2 15/15/2 16/16/2
f 25/17/3 26/18/3 27/19/3
f 25/17/3 27/19/3 28/20/3
f 29/21/3 30/22/3 31/23/3
f 29/21/3 31/23/3 32/24/3
f 33/25/3 34/26/3 35/27/3
f 33/25/3 35/27/3 36/28/3
f 37/29/3 38/30/3 39/31/3
f 37/29/3 39/31/3 40/32/3
f 41/33/4 42/34/4 43/35/4
f 41/33/4 43/35/4 44/36/4
f 45/37/4 46/38/4 47/39/4
f 45/37/4 47/39/4 48/40/4
s 1
f 17/41/5 18/42/5 19/43/5
f 20/44/5 17/41/5 19/43/5
f 21/45/5 22/46/5 23/47/5
f 24/48/5 21/45/5 23/47/5
