# Blender v3.0.1 OBJ File: 'rockerfeller_plaza.blend'
# www.blender.org
o geometryt000010000010000110010110000110000100110010110010st94
v 100.701248 -142.775970 307.682648
v 100.941040 -142.330276 294.890991
v 98.616707 -146.650269 294.890991
v 100.941040 -142.330276 307.682648
v 98.616707 -146.650269 307.682648
v 102.907333 -138.675766 307.682648
v 102.907333 -138.675766 294.890991
v 101.357788 -141.555771 294.890991
v 101.357788 -141.555771 307.682648
v 104.873604 -135.021164 307.682648
v 104.873604 -135.021164 294.890991
v 103.324104 -137.901169 294.890991
v 103.324104 -137.901169 307.682648
v 106.065208 -132.806671 307.682648
v 106.065208 -132.806671 294.890991
v 105.290405 -134.246674 294.890991
v 105.290405 -134.246674 307.682648
v 108.031509 -129.152069 294.890991
v 106.481903 -132.032074 294.890991
v 106.481903 -132.032074 307.682648
v 108.031509 -129.152069 307.682648
v 109.997810 -125.497559 294.890991
v 108.448204 -128.377563 294.890991
v 108.448204 -128.377563 307.682648
v 109.997810 -125.497559 307.682648
v 112.738808 -120.402962 307.682648
v 112.738808 -120.402962 294.890991
v 110.414505 -124.722961 294.890991
v 110.414505 -124.722961 307.682648
v 98.757080 -147.117462 307.682648
v 98.757080 -147.117462 294.890991
v 103.077454 -149.441162 294.890991
v 103.077454 -149.441162 307.682648
v 105.216805 -150.591766 307.682648
v 104.521004 -150.217575 294.890991
v 105.961105 -150.992065 294.890991
v 104.521004 -150.217575 307.682648
v 105.961105 -150.992065 307.682648
v 107.404610 -151.768463 307.682648
v 107.404610 -151.768463 294.890991
v 111.725006 -154.092072 294.890991
v 111.725006 -154.092072 307.682648
v 112.187508 -153.951965 294.890991
v 114.511307 -149.631668 294.890991
v 114.511307 -149.631668 307.682648
v 112.187508 -153.951965 307.682648
v 115.622406 -147.565872 307.682648
v 115.298904 -148.167374 294.890991
v 116.073509 -146.727264 294.890991
v 115.298904 -148.167374 307.682648
v 116.073509 -146.727264 307.682648
v 116.861107 -145.262863 294.890991
v 119.184807 -140.942566 294.890991
v 119.184807 -140.942566 307.682648
v 116.861107 -145.262863 307.682648
v 117.521004 -122.587662 294.890991
v 113.202309 -120.260864 294.890991
v 113.202309 -120.260864 307.682648
v 117.521004 -122.587662 307.682648
v 119.997505 -123.922058 307.682648
v 119.997505 -123.922058 294.890991
v 118.558006 -123.146362 294.890991
v 118.558006 -123.146362 307.682648
v 122.474106 -125.256363 294.890991
v 121.034607 -124.480759 294.890991
v 121.034607 -124.480759 307.682648
v 122.474106 -125.256363 307.682648
v 124.950706 -126.590759 307.682648
v 124.950706 -126.590759 294.890991
v 123.511108 -125.815163 294.890991
v 123.511108 -125.815163 307.682648
v 130.306305 -129.476364 307.682648
v 130.306305 -129.476364 294.890991
v 125.987709 -127.149460 294.890991
v 125.987709 -127.149460 307.682648
v 119.653908 -140.801666 307.682648
v 119.653908 -140.801666 294.890991
v 120.777809 -141.400772 294.890991
v 120.777809 -141.400772 307.682648
v 121.386108 -141.726471 294.890991
v 125.706108 -144.050873 294.890991
v 125.706108 -144.050873 307.682648
v 121.386108 -141.726471 307.682648
v 126.497704 -144.476776 307.682648
v 126.497704 -144.476776 294.890991
v 129.377701 -146.026367 294.890991
v 129.377701 -146.026367 307.682648
v 130.169296 -146.452271 307.682648
v 130.169296 -146.452271 294.890991
v 131.609314 -147.227066 294.890991
v 131.609314 -147.227066 307.682648
v 132.400909 -147.652969 307.682648
v 132.400909 -147.652969 294.890991
v 135.280914 -149.202576 294.890991
v 135.280914 -149.202576 307.682648
v 136.072601 -149.628464 294.890991
v 140.392609 -151.952774 294.890991
v 140.392609 -151.952774 307.682648
v 136.072601 -149.628464 307.682648
v 135.236801 -132.122269 307.682648
v 135.236801 -132.122269 294.890991
v 130.914108 -129.803070 294.890991
v 130.914108 -129.803070 307.682648
v 137.431107 -133.299576 307.682648
v 137.431107 -133.299576 294.890991
v 135.990204 -132.526474 294.890991
v 135.990204 -132.526474 307.682648
v 139.625412 -134.476868 307.682648
v 139.625412 -134.476868 294.890991
v 138.184509 -133.703766 294.890991
v 138.184509 -133.703766 307.682648
v 141.819611 -135.654175 307.682648
v 141.819611 -135.654175 294.890991
v 140.378708 -134.881073 294.890991
v 140.378708 -134.881073 307.682648
v 146.895813 -138.377563 307.682648
v 146.895813 -138.377563 294.890991
v 142.573013 -136.058365 294.890991
v 142.573013 -136.058365 307.682648
v 140.845413 -151.805176 307.682648
v 140.845413 -151.805176 294.890991
v 142.964813 -147.380966 294.890991
v 142.964813 -147.380966 307.682648
v 143.594803 -146.065872 294.890991
v 144.301300 -144.591171 294.890991
v 144.301300 -144.591171 307.682648
v 143.594803 -146.065872 307.682648
v 144.931305 -143.275970 307.682648
v 144.931305 -143.275970 294.890991
v 147.050705 -138.851868 294.890991
v 147.050705 -138.851868 307.682648
vt 0.019340 1.000000
vt 0.000000 0.000000
vt 0.187500 0.000000
vt 0.000000 1.000000
vt 0.187500 1.000000
vt 0.000000 1.000000
vt 0.000000 0.000000
vt 0.125000 0.000000
vt 0.125000 1.000000
vt 0.000000 1.000000
vt 0.000000 0.000000
vt 0.125000 0.000000
vt 0.125000 1.000000
vt 0.000000 1.000000
vt 0.000000 0.000000
vt 0.062500 0.000000
vt 0.062500 1.000000
vt 0.000000 0.000000
vt 0.125000 0.000000
vt 0.125000 1.000000
vt 0.000000 1.000000
vt 0.000000 0.000000
vt 0.125000 0.000000
vt 0.125000 1.000000
vt 0.000000 1.000000
vt 0.000000 1.000000
vt 0.000000 0.000000
vt 0.187500 0.000000
vt 0.187500 1.000000
vt 0.000000 1.000000
vt 0.000000 0.000000
vt 0.187500 0.000000
vt 0.187500 1.000000
vt 0.030200 1.000000
vt 0.000000 0.000000
vt 0.062500 0.000000
vt 0.000000 1.000000
vt 0.062500 1.000000
vt 0.000000 1.000000
vt 0.000000 0.000000
vt 0.187500 0.000000
vt 0.187500 1.000000
vt 0.000000 0.000000
vt 0.187500 0.000000
vt 0.187500 1.000000
vt 0.000000 1.000000
vt 0.026100 1.000000
vt 0.000000 0.000000
vt 0.062500 0.000000
vt 0.000000 1.000000
vt 0.062500 1.000000
vt 0.000000 0.000000
vt 0.187500 0.000000
vt 0.187500 1.000000
vt 0.000000 1.000000
vt 0.000000 0.000000
vt 0.187500 0.000000
vt 0.187500 1.000000
vt 0.000000 1.000000
vt 0.000000 1.000000
vt 0.000000 0.000000
vt 0.062500 0.000000
vt 0.062500 1.000000
vt 0.000000 0.000000
vt 0.062500 0.000000
vt 0.062500 1.000000
vt 0.000000 1.000000
vt 0.000000 1.000000
vt 0.000000 0.000000
vt 0.062500 0.000000
vt 0.062500 1.000000
vt 0.000000 1.000000
vt 0.000000 0.000000
vt 0.187500 0.000000
vt 0.187500 1.000000
vt 0.000000 1.000000
vt 0.000000 0.000000
vt 0.062500 0.000000
vt 0.062500 1.000000
vt 0.000000 0.000000
vt 0.187500 0.000000
vt 0.187500 1.000000
vt 0.000000 1.000000
vt 0.000000 1.000000
vt 0.000000 0.000000
vt 0.125000 0.000000
vt 0.125000 1.000000
vt 0.000000 1.000000
vt 0.000000 0.000000
vt 0.062500 0.000000
vt 0.062500 1.000000
vt 0.000000 1.000000
vt 0.000000 0.000000
vt 0.125000 0.000000
vt 0.125000 1.000000
vt 0.000000 0.000000
vt 0.187500 0.000000
vt 0.187500 1.000000
vt 0.000000 1.000000
vt 0.000000 1.000000
vt 0.000000 0.000000
vt 0.187500 0.000000
vt 0.187500 1.000000
vt 0.000000 1.000000
vt 0.000000 0.000000
vt 0.062500 0.000000
vt 0.062500 1.000000
vt 0.000000 1.000000
vt 0.000000 0.000000
vt 0.062500 0.000000
vt 0.062500 1.000000
vt 0.000000 1.000000
vt 0.000000 0.000000
vt 0.062500 0.000000
vt 0.062500 1.000000
vt 0.000000 1.000000
vt 0.000000 0.000000
vt 0.187500 0.000000
vt 0.187500 1.000000
vt 0.000000 1.000000
vt 0.000000 0.000000
vt 0.187500 0.000000
vt 0.187500 1.000000
vt 0.000000 0.000000
vt 0.062500 0.000000
vt 0.062500 1.000000
vt 0.000000 1.000000
vt 0.000000 1.000000
vt 0.000000 0.000000
vt 0.187500 0.000000
vt 0.187500 1.000000
vn -0.8806 0.4738 0.0000
vn -0.4737 -0.8807 0.0000
vn -0.4736 -0.8807 0.0000
vn 0.8807 -0.4737 0.0000
vn 0.8807 -0.4736 0.0000
vn 0.4743 0.8804 0.0000
vn 0.4744 0.8803 0.0000
vn 0.4743 0.8803 0.0000
vn -0.4704 -0.8825 0.0000
vn -0.4738 -0.8806 0.0000
vn 0.4728 0.8812 0.0000
vn 0.9019 -0.4320 0.0000
vn 0.9018 -0.4320 0.0000
vn 0.9018 -0.4321 0.0000
s off
f 1/1/1 2/2/1 3/3/1
f 4/4/1 2/2/1 1/1/1
f 1/1/1 3/3/1 5/5/1
f 6/6/1 7/7/1 8/8/1
f 6/6/1 8/8/1 9/9/1
f 10/10/1 11/11/1 12/12/1
f 10/10/1 12/12/1 13/13/1
f 14/14/1 15/15/1 16/16/1
f 14/14/1 16/16/1 17/17/1
f 18/18/1 19/19/1 20/20/1
f 21/21/1 18/18/1 20/20/1
f 22/22/1 23/23/1 24/24/1
f 25/25/1 22/22/1 24/24/1
f 26/26/1 27/27/1 28/28/1
f 26/26/1 28/28/1 29/29/1
f 30/30/2 31/31/2 32/32/2
f 30/30/2 32/32/2 33/33/2
f 34/34/3 35/35/3 36/36/3
f 37/37/3 35/35/3 34/34/3
f 34/34/2 36/36/2 38/38/2
f 39/39/2 40/40/2 41/41/2
f 39/39/2 41/41/2 42/42/2
f 43/43/4 44/44/4 45/45/4
f 46/46/4 43/43/4 45/45/4
f 47/47/4 48/48/4 49/49/4
f 50/50/5 48/48/5 47/47/5
f 47/47/4 49/49/4 51/51/4
f 52/52/4 53/53/4 54/54/4
f 55/55/4 52/52/4 54/54/4
f 56/56/6 57/57/6 58/58/6
f 59/59/6 56/56/6 58/58/6
f 60/60/7 61/61/7 62/62/7
f 60/60/7 62/62/7 63/63/7
f 64/64/8 65/65/8 66/66/8
f 67/67/8 64/64/8 66/66/8
f 68/68/6 69/69/6 70/70/6
f 68/68/6 70/70/6 71/71/6
f 72/72/8 73/73/8 74/74/8
f 72/72/8 74/74/8 75/75/8
f 76/76/9 77/77/9 78/78/9
f 76/76/9 78/78/9 79/79/9
f 80/80/10 81/81/10 82/82/10
f 83/83/10 80/80/10 82/82/10
f 84/84/10 85/85/10 86/86/10
f 84/84/10 86/86/10 87/87/10
f 88/88/10 89/89/10 90/90/10
f 88/88/10 90/90/10 91/91/10
f 92/92/10 93/93/10 94/94/10
f 92/92/10 94/94/10 95/95/10
f 96/96/10 97/97/10 98/98/10
f 99/99/10 96/96/10 98/98/10
f 100/100/11 101/101/11 102/102/11
f 100/100/11 102/102/11 103/103/11
f 104/104/11 105/105/11 106/106/11
f 104/104/11 106/106/11 107/107/11
f 108/108/11 109/109/11 110/110/11
f 108/108/11 110/110/11 111/111/11
f 112/112/11 113/113/11 114/114/11
f 112/112/11 114/114/11 115/115/11
f 116/116/11 117/117/11 118/118/11
f 116/116/11 118/118/11 119/119/11
f 120/120/12 121/121/12 122/122/12
f 120/120/12 122/122/12 123/123/12
f 124/124/13 125/125/13 126/126/13
f 127/127/14 124/124/14 126/126/14
f 128/128/12 129/129/12 130/130/12
f 128/128/12 130/130/12 131/131/12
