# Blender v3.0.1 OBJ File: 'rockerfeller_plaza.blend'
# www.blender.org
o geometryt000010000010000110010110000110000110100000110000st146
v 891.759033 -83.150055 425.616730
v 914.677429 -95.328064 425.616730
v 910.126038 -103.896645 425.616730
v 884.448730 -96.913406 425.616730
v 913.166931 -105.504250 425.616730
v 908.462830 -109.667046 425.616730
v 910.408081 -110.699043 425.616730
v 910.126038 -103.896645 455.016754
v 884.448730 -96.913406 455.016754
v 908.462830 -109.667046 455.016754
v 891.759033 -83.150055 455.016754
v 913.166931 -105.504250 455.016754
v 910.408081 -110.699043 455.016754
v 914.677429 -95.328064 455.016754
vt 0.105870 0.286070
vt 0.120750 0.331980
vt 0.137790 0.322600
vt 0.133240 0.271010
vt 0.139740 0.328690
vt 0.148810 0.319110
vt 0.150070 0.323010
vt 0.137790 0.322600
vt 0.133240 0.271010
vt 0.148810 0.319110
vt 0.105870 0.286070
vt 0.139740 0.328690
vt 0.150070 0.323010
vt 0.120750 0.331980
vn 0.0000 0.0000 -1.0000
vn 0.0000 0.0000 1.0000
s off
f 1/1/1 2/2/1 3/3/1
f 3/3/1 4/4/1 1/1/1
f 5/5/1 6/6/1 3/3/1
f 3/3/1 6/6/1 4/4/1
f 5/5/1 7/7/1 6/6/1
f 8/8/2 9/9/2 10/10/2
f 11/11/2 9/9/2 8/8/2
f 12/12/2 10/10/2 13/13/2
f 12/12/2 8/8/2 10/10/2
f 14/14/2 11/11/2 8/8/2
