# Blender v3.0.1 OBJ File: 'rockerfeller_plaza.blend'
# www.blender.org
o geometryt000010000010000110010110000110000100110110010010st106
v 66.827736 -280.818085 843.810059
v 80.310120 -288.089569 843.810059
v 66.283989 -314.108765 843.810059
v 58.185741 -343.889771 843.810059
v 72.732109 -317.586975 843.810059
v 38.651398 -333.091064 843.810059
v 66.283989 -314.108765 883.810059
v 66.827736 -280.818085 883.810059
v 38.651398 -333.091064 883.810059
v 80.310120 -288.089569 883.810059
v 58.185741 -343.889771 883.810059
v 72.732109 -317.586975 883.810059
vt 0.492740 0.108910
vt 0.501690 0.135920
vt 0.553490 0.107040
vt 0.610240 0.090020
vt 0.557760 0.119960
vt 0.596810 0.050900
vt 0.553490 0.107040
vt 0.492740 0.108910
vt 0.596810 0.050900
vt 0.501690 0.135920
vt 0.610240 0.090020
vt 0.557760 0.119960
vn 0.0000 0.0000 -1.0000
vn 0.0000 0.0000 1.0000
s off
f 1/1/1 2/2/1 3/3/1
f 4/4/1 3/3/1 5/5/1
f 6/6/1 3/3/1 4/4/1
f 1/1/1 3/3/1 6/6/1
f 7/7/2 8/8/2 9/9/2
f 10/10/2 8/8/2 7/7/2
f 11/11/2 7/7/2 9/9/2
f 12/12/2 7/7/2 11/11/2
