# Blender v3.0.1 OBJ File: 'rockerfeller_plaza.blend'
# www.blender.org
o geometryt000010000010000110010110000110000100110010010110st84
v 34.415112 -61.227322 29.772221
v 34.415112 -61.227322 20.948429
v 39.672562 -64.163422 20.948429
v 39.672562 -64.163422 29.772221
v 38.071751 -53.050732 29.772221
v 38.071751 -53.050732 20.948429
v 33.953320 -60.406750 20.948429
v 33.953320 -60.406750 29.772221
v 44.265942 -55.951599 20.948429
v 39.010109 -53.012600 20.948429
v 39.010109 -53.012600 29.772221
v 44.265942 -55.951599 29.772221
v 40.612968 -64.128349 29.772221
v 40.612968 -64.128349 20.948429
v 44.725681 -56.769119 20.948429
v 44.725681 -56.769119 29.772221
vt 0.000000 0.500000
vt 0.000000 0.000000
vt 1.666670 0.000000
vt 1.666670 0.500000
vt 0.000000 0.500000
vt 0.000000 0.000000
vt 2.333330 0.000000
vt 2.333330 0.500000
vt 0.000000 0.500000
vt 0.000000 0.000000
vt 2.333330 0.000000
vt 2.333330 0.500000
vt 0.000000 0.000000
vt 1.666670 0.000000
vt 1.666670 0.500000
vt 0.000000 0.500000
vn -0.4876 -0.8731 0.0000
vn -0.8726 0.4885 0.0000
vn 0.8729 -0.4878 0.0000
vn 0.4881 0.8728 0.0000
s off
f 1/1/1 2/2/1 3/3/1
f 1/1/1 3/3/1 4/4/1
f 5/5/2 6/6/2 7/7/2
f 5/5/2 7/7/2 8/8/2
f 13/9/3 14/10/3 15/11/3
f 13/9/3 15/11/3 16/12/3
s 1
f 9/13/4 10/14/4 11/15/4
f 12/16/4 9/13/4 11/15/4
