# Blender v3.0.1 OBJ File: 'rockerfeller_plaza.blend'
# www.blender.org
o geometryt000010000010000110010110000110000110100000110100st21
v 838.933105 -231.387314 700.002014
v 839.316040 -231.594101 706.442505
v 838.933105 -231.387314 706.442505
v 837.243042 -230.474808 699.442505
v 837.625977 -230.681503 700.002014
v 839.316040 -231.594101 699.442505
v 837.625977 -230.681503 706.442505
v 837.243042 -230.474808 706.442505
v 837.406128 -230.170715 700.002014
v 837.243042 -230.474808 706.442505
v 837.406128 -230.170715 706.442505
v 838.108398 -228.861710 700.002014
v 837.243042 -230.474808 699.442505
v 838.108398 -228.861710 706.442505
v 838.548645 -228.041107 706.442505
v 838.548645 -228.041107 700.002014
v 839.953125 -225.423004 700.002014
v 839.953125 -225.423004 706.442505
v 840.393372 -224.602402 706.442505
v 840.393372 -224.602402 700.002014
v 841.258667 -222.989410 699.442505
v 841.095581 -223.293411 700.002014
v 841.095581 -223.293411 706.442505
v 841.258667 -222.989410 706.442505
v 841.683777 -223.218506 700.002014
v 841.258667 -222.989410 706.442505
v 841.683777 -223.218506 706.442505
v 842.991516 -223.923111 700.002014
v 841.258667 -222.989410 699.442505
v 842.991516 -223.923111 706.442505
v 843.416626 -224.152206 706.442505
v 843.416626 -224.152206 699.442505
vt 4.551410 1.325770
vt 5.582680 16.587681
vt 4.551410 16.587681
vt 0.000000 0.000000
vt 1.031270 1.325770
vt 5.582680 0.000000
vt 1.031270 16.587681
vt 0.000000 16.587681
vt 15.791390 1.325770
vt 20.129070 0.000000
vt 19.311541 1.325770
vt 20.129070 16.587681
vt 15.791390 16.587681
vt 13.584680 16.587681
vt 13.584680 1.325770
vt 6.544390 1.325770
vt 6.544390 16.587681
vt 4.337680 16.587681
vt 4.337680 1.325770
vt 0.000000 0.000000
vt 0.817540 1.325770
vt 0.817540 16.587681
vt 0.000000 16.587681
vt 4.664400 1.325770
vt 5.808650 16.587681
vt 4.664400 16.587681
vt 1.144250 1.325770
vt 5.808650 0.000000
vt 1.144250 16.587681
vt 0.000000 16.587681
vt 0.000000 0.000000
vt 19.311541 16.587681
vn -0.4752 -0.8799 0.0000
vn -0.4751 -0.8799 0.0001
vn -0.4751 -0.8799 0.0000
vn -0.4751 -0.8800 0.0000
vn -0.4749 -0.8800 0.0000
vn -0.8812 0.4728 -0.0001
vn -0.8810 0.4731 0.0000
vn -0.8812 0.4727 0.0000
vn -0.8811 0.4729 -0.0001
vn -0.8812 0.4728 0.0000
vn -0.8811 0.4730 0.0000
vn -0.8813 0.4725 0.0000
vn 0.4744 0.8803 0.0000
vn 0.4742 0.8804 0.0000
vn 0.4745 0.8803 0.0000
s off
f 1/1/1 2/2/1 3/3/1
f 4/4/2 1/1/2 5/5/2
f 4/4/1 6/6/1 1/1/1
f 2/2/3 1/1/3 6/6/3
f 7/7/4 8/8/4 5/5/4
f 8/8/5 4/4/5 5/5/5
f 12/9/6 13/10/6 9/11/6
f 10/12/7 9/11/7 13/10/7
f 14/13/8 15/14/8 12/9/8
f 15/14/8 16/15/8 12/9/8
f 16/15/9 13/10/9 12/9/9
f 16/15/10 17/16/10 13/10/10
f 18/17/8 19/18/8 17/16/8
f 19/18/10 20/19/10 17/16/10
f 20/19/11 21/20/11 17/16/11
f 22/21/10 21/20/10 20/19/10
f 23/22/12 24/23/12 22/21/12
f 24/23/10 21/20/10 22/21/10
f 25/24/13 26/25/13 27/26/13
f 28/27/14 29/28/14 25/24/14
f 26/25/15 25/24/15 29/28/15
f 30/29/14 31/30/14 28/27/14
f 31/30/15 32/31/15 28/27/15
f 32/31/15 29/28/15 28/27/15
s 1
f 9/11/10 10/12/10 11/32/10
f 17/16/8 21/20/8 13/10/8
