# Blender v3.0.1 OBJ File: 'rockerfeller_plaza.blend'
# www.blender.org
o geometryt000010000010000110010110000110000110100100000000st108
v 490.075226 -66.700554 888.644348
v 489.598328 -67.584839 912.192871
v 490.075226 -66.700554 912.192871
v 494.424622 -58.635853 888.092896
v 493.947723 -59.520123 888.644348
v 489.598328 -67.584839 888.092896
v 493.947723 -59.520123 912.192871
v 494.424622 -58.635853 912.192871
v 494.906250 -70.445358 888.644348
v 495.426331 -70.725655 912.192871
v 494.906250 -70.445358 912.192871
v 490.118408 -67.865128 888.644348
v 495.426331 -70.725655 888.092896
v 490.118408 -67.865128 912.192871
v 489.598328 -67.584839 912.192871
v 489.598328 -67.584839 888.092896
v 494.728027 -58.800133 888.644348
v 494.424622 -58.635853 912.192871
v 494.728027 -58.800133 912.192871
v 495.727051 -59.341084 888.644348
v 494.424622 -58.635853 888.092896
v 495.727051 -59.341084 912.192871
v 496.030426 -59.505363 912.192871
v 496.030426 -59.505363 888.092896
v 495.426331 -70.725655 888.092896
v 495.963531 -69.731316 888.092896
v 495.963531 -69.731316 912.192871
v 495.426331 -70.725655 912.192871
v 508.331635 -46.820572 888.644348
v 508.495422 -46.516983 912.192871
v 508.331635 -46.820572 912.192871
v 507.039825 -49.213520 888.644348
v 508.495422 -46.516983 888.092896
v 507.039825 -49.213520 912.192871
v 506.886841 -49.496902 912.192871
v 506.886841 -49.496902 888.644348
v 505.595032 -51.889851 888.644348
v 504.942749 -53.098042 888.092896
v 505.595032 -51.889851 912.192871
v 505.442017 -52.173233 912.192871
v 505.442017 -52.173233 888.644348
v 504.150208 -54.566193 888.644348
v 504.150208 -54.566193 912.192871
v 503.997223 -54.849571 912.192871
v 503.997223 -54.849571 888.644348
v 502.705444 -57.242523 888.644348
v 502.705444 -57.242523 912.192871
v 502.552429 -57.525902 912.192871
v 502.552429 -57.525902 888.644348
v 501.906525 -58.722382 888.644348
v 501.906525 -58.722382 912.192871
v 501.753540 -59.005760 912.192871
v 501.753540 -59.005760 888.644348
v 500.461731 -61.398712 888.644348
v 500.461731 -61.398712 912.192871
v 500.308716 -61.682102 912.192871
v 500.308716 -61.682102 888.644348
v 495.963531 -69.731316 888.092896
v 499.016937 -64.075058 888.644348
v 499.016937 -64.075058 912.192871
v 498.863922 -64.358437 912.192871
v 498.863922 -64.358437 888.644348
v 497.572144 -66.751389 888.644348
v 497.572144 -66.751389 912.192871
v 497.419250 -67.034775 912.192871
v 497.419250 -67.034775 888.644348
v 496.127319 -69.427727 888.644348
v 496.127319 -69.427727 912.192871
v 495.963531 -69.731316 912.192871
v 496.216827 -59.160450 888.644348
v 496.030426 -59.505363 912.192871
v 496.216827 -59.160450 912.192871
v 498.802734 -54.375793 888.644348
v 496.030426 -59.505363 888.092896
v 498.802734 -54.375793 912.192871
v 498.989136 -54.030880 912.192871
v 498.989136 -54.030880 888.092896
v 498.685730 -53.866600 888.644348
v 498.989136 -54.030880 912.192871
v 498.685730 -53.866600 912.192871
v 497.686829 -53.325653 888.644348
v 498.989136 -54.030880 888.092896
v 497.686829 -53.325653 912.192871
v 497.383423 -53.161362 912.192871
v 497.383423 -53.161362 888.092896
v 497.762939 -52.455410 888.644348
v 497.382233 -53.160732 912.192871
v 497.762939 -52.455410 912.192871
v 502.283508 -44.079712 888.644348
v 501.994934 -44.614552 888.092896
v 497.382233 -53.160732 888.092896
v 502.283508 -44.079712 912.192871
v 502.664246 -43.374393 912.192871
v 502.664246 -43.374393 888.092896
v 503.184448 -43.654720 888.644348
v 502.664337 -43.374420 912.192871
v 503.184448 -43.654720 912.192871
v 507.972107 -46.234943 888.644348
v 502.664337 -43.374420 888.092896
v 507.972107 -46.234943 912.192871
v 508.492249 -46.515244 912.192871
v 508.492249 -46.515244 888.092896
vt 5.892480 0.354630
vt 6.538580 15.498390
vt 5.892480 15.498390
vt 0.000000 0.000000
vt 0.646100 0.354630
vt 6.538580 0.000000
vt 0.646100 15.498390
vt 0.000000 15.498390
vt 3.877540 0.354630
vt 4.257500 15.498390
vt 3.877540 15.498390
vt 0.379950 0.354630
vt 4.257500 0.000000
vt 0.379950 15.498390
vt 0.000000 15.498390
vt 0.000000 0.000000
vt 0.952430 0.354630
vt 1.174290 15.498390
vt 0.952430 15.498390
vt 0.221860 0.354630
vt 1.174290 0.000000
vt 0.221860 15.498390
vt 0.000000 15.498390
vt 0.000000 0.000000
vt 0.000000 0.000000
vt 0.726800 0.000000
vt 0.726800 15.498390
vt 0.000000 15.498390
vt 16.743389 0.354630
vt 16.965260 15.498390
vt 16.743389 15.498390
vt 14.994600 0.354630
vt 16.965260 0.000000
vt 14.994600 15.498390
vt 14.787500 15.498390
vt 14.787500 0.354630
vt 13.038710 0.354630
vt 12.155750 0.000000
vt 13.038710 15.498390
vt 12.831610 15.498390
vt 12.831610 0.354630
vt 11.082820 0.354630
vt 11.082820 15.498390
vt 10.875720 15.498390
vt 10.875720 0.354630
vt 9.126920 0.354630
vt 9.126920 15.498390
vt 8.919831 15.498390
vt 8.919831 0.354630
vt 8.045431 0.354630
vt 8.045431 15.498390
vt 7.838330 15.498390
vt 7.838330 0.354630
vt 6.089540 0.354630
vt 6.089540 15.498390
vt 5.882440 15.498390
vt 5.882440 0.354630
vt 0.000000 0.000000
vt 4.133650 15.498390
vt 3.926550 15.498390
vt 4.133650 0.354630
vt 3.926550 0.354630
vt 2.177760 0.354630
vt 2.177760 15.498390
vt 1.970660 15.498390
vt 1.970660 0.354630
vt 0.221860 0.354630
vt 0.221860 15.498390
vt 0.000000 15.498390
vt 3.749720 0.354630
vt 4.001840 15.498390
vt 3.749720 15.498390
vt 0.252130 0.354630
vt 4.001840 0.000000
vt 0.252130 15.498390
vt 0.000000 15.498390
vt 0.000000 0.000000
vt 0.952430 0.354630
vt 1.174290 15.498390
vt 0.952430 15.498390
vt 0.221860 0.354630
vt 1.174290 0.000000
vt 0.221860 15.498390
vt 0.000000 15.498390
vt 0.000000 0.000000
vt 6.636210 0.354630
vt 7.151640 15.498390
vt 6.636210 15.498390
vt 0.515430 0.354630
vt 0.906280 0.000000
vt 0.515430 15.498390
vt 0.000000 15.498390
vt 0.000000 0.000000
vt 3.877540 0.354630
vt 4.257480 15.498390
vt 3.877540 15.498390
vt 0.379950 0.354630
vt 4.257480 0.000000
vt 0.379950 15.498390
vt 0.000000 15.498390
vt 0.000000 0.000000
vt 7.151640 0.000000
vn -0.8802 0.4747 0.0000
vn -0.8801 0.4747 -0.0000
vn -0.8802 0.4746 -0.0000
vn -0.4745 -0.8803 0.0000
vn -0.4743 -0.8803 0.0000
vn -0.4744 -0.8803 0.0000
vn 0.4761 0.8794 0.0000
vn 0.4762 0.8794 0.0000
vn 0.4762 0.8793 -0.0000
vn 0.8798 -0.4753 0.0000
vn 0.8801 -0.4749 0.0000
vn 0.8799 -0.4752 -0.0002
vn 0.8799 -0.4751 0.0000
vn 0.8800 -0.4749 0.0000
vn 0.8800 -0.4750 -0.0002
vn 0.8799 -0.4752 -0.0001
vn 0.8800 -0.4750 0.0002
vn 0.8797 -0.4756 0.0002
vn 0.8800 -0.4750 -0.0000
vn 0.8799 -0.4752 0.0000
vn 0.8799 -0.4752 0.0004
vn 0.8800 -0.4750 -0.0009
vn 0.8798 -0.4754 -0.0000
vn 0.8798 -0.4753 0.0002
vn 0.8801 -0.4747 0.0000
vn -0.8797 0.4755 0.0000
vn -0.8798 0.4754 0.0000
vn -0.4761 -0.8794 0.0000
vn -0.4762 -0.8793 -0.0000
vn -0.4762 -0.8794 0.0000
vn -0.8800 0.4751 0.0000
vn -0.8800 0.4750 0.0002
vn -0.8800 0.4750 0.0000
vn -0.8800 0.4750 0.0003
vn 0.4744 0.8803 0.0000
vn 0.4743 0.8803 -0.0000
vn 0.8797 -0.4756 0.0013
vn 0.8798 -0.4753 0.0003
vn 0.8797 -0.4756 0.0014
vn 0.8798 -0.4753 0.0001
vn 0.8799 -0.4752 -0.0004
vn 0.8806 -0.4738 -0.0001
vn 0.8806 -0.4738 -0.0000
vn -0.8800 0.4749 0.0000
s off
f 1/1/1 2/2/1 3/3/1
f 4/4/2 1/1/2 5/5/2
f 4/4/3 6/6/3 1/1/3
f 2/2/1 1/1/1 6/6/1
f 7/7/1 8/8/1 5/5/1
f 8/8/1 4/4/1 5/5/1
f 9/9/4 10/10/4 11/11/4
f 12/12/5 13/13/5 9/9/5
f 10/10/6 9/9/6 13/13/6
f 14/14/4 15/15/4 12/12/4
f 15/15/6 16/16/6 12/12/6
f 16/16/4 13/13/4 12/12/4
f 17/17/7 18/18/7 19/19/7
f 20/20/7 21/21/7 17/17/7
f 18/18/7 17/17/7 21/21/7
f 22/22/7 23/23/7 20/20/7
f 23/23/8 24/24/8 20/20/8
f 24/24/9 21/21/9 20/20/9
f 25/25/10 26/26/10 27/27/10
f 25/25/10 27/27/10 28/28/10
f 29/29/11 30/30/11 31/31/11
f 32/32/12 33/33/12 29/29/12
f 30/30/11 29/29/11 33/33/11
f 34/34/13 35/35/13 32/32/13
f 35/35/14 36/36/14 32/32/14
f 32/32/15 36/36/15 33/33/15
f 36/36/16 37/37/16 38/38/16
f 36/36/17 38/38/17 33/33/17
f 39/39/13 40/40/13 37/37/13
f 40/40/13 41/41/13 37/37/13
f 37/37/18 41/41/18 38/38/18
f 41/41/19 42/42/19 38/38/19
f 43/43/20 44/44/20 42/42/20
f 44/44/19 45/45/19 42/42/19
f 42/42/21 45/45/21 38/38/21
f 45/45/13 46/46/13 38/38/13
f 47/47/20 48/48/20 46/46/20
f 48/48/20 49/49/20 46/46/20
f 46/46/22 49/49/22 38/38/22
f 49/49/11 50/50/11 38/38/11
f 51/51/20 52/52/20 50/50/20
f 52/52/19 53/53/19 50/50/19
f 53/53/23 54/54/23 38/38/23
f 55/55/13 56/56/13 54/54/13
f 56/56/13 57/57/13 54/54/13
f 54/54/19 58/58/19 38/38/19
f 60/59/19 61/60/19 59/61/19
f 61/60/20 62/62/20 59/61/20
f 63/63/13 58/58/13 62/62/13
f 64/64/19 65/65/19 63/63/19
f 65/65/14 66/66/14 63/63/14
f 67/67/24 58/58/24 66/66/24
f 68/68/11 69/69/11 67/67/11
f 69/69/25 58/58/25 67/67/25
f 70/70/26 71/71/26 72/72/26
f 73/73/26 74/74/26 70/70/26
f 71/71/27 70/70/27 74/74/27
f 75/75/26 76/76/26 73/73/26
f 76/76/27 77/77/27 73/73/27
f 77/77/26 74/74/26 73/73/26
f 78/78/28 79/79/28 80/80/28
f 81/81/29 82/82/29 78/78/29
f 79/79/28 78/78/28 82/82/28
f 83/83/29 84/84/29 81/81/29
f 84/84/30 85/85/30 81/81/30
f 85/85/29 82/82/29 81/81/29
f 86/86/31 87/87/31 88/88/31
f 89/89/32 90/90/32 86/86/32
f 92/91/33 93/92/33 89/89/33
f 93/92/33 94/93/33 89/89/33
f 94/93/34 90/90/34 89/89/34
f 95/94/35 96/95/35 97/96/35
f 98/97/36 99/98/36 95/94/36
f 96/95/35 95/94/35 99/98/35
f 100/99/35 101/100/35 98/97/35
f 101/100/35 102/101/35 98/97/35
f 102/101/35 99/98/35 98/97/35
s 1
f 50/50/19 53/53/19 38/38/19
f 57/57/37 58/58/38 54/54/39
f 59/61/40 58/58/38 57/57/37
f 62/62/41 58/58/38 59/61/40
f 66/66/42 58/58/42 63/63/43
f 90/90/44 91/102/44 86/86/44
f 87/87/44 86/86/44 91/102/44
