# Blender v3.0.1 OBJ File: 'rockerfeller_plaza.blend'
# www.blender.org
o geometryt000010000010000110010110000110000110100100000000st156_
v 388.078613 -285.035370 887.094116
v 387.297028 -284.611481 887.094116
v 388.694427 -283.757080 887.094116
v 396.850220 -266.825775 887.094116
v 393.381226 -281.334991 887.094116
v 392.501526 -285.014191 887.094116
v 393.505432 -280.815491 887.094116
v 393.602417 -285.008881 887.094116
v 397.568115 -290.132172 887.094116
v 393.116333 -287.730286 887.094116
v 394.595947 -285.004181 887.094116
v 394.383636 -280.635376 887.094116
v 394.455139 -280.234772 887.094116
v 397.214722 -278.659668 887.094116
v 397.211334 -278.549469 887.094116
v 397.258423 -280.076477 887.094116
v 402.504028 -270.258972 887.094116
v 403.962128 -267.220764 887.094116
v 406.654327 -261.610992 887.094116
v 407.021637 -260.845764 887.094116
v 398.513611 -277.753265 887.094116
v 400.257751 -278.689178 887.094116
v 400.421509 -278.776978 887.094116
v 412.436218 -285.223663 887.094116
v 418.503540 -288.479187 887.094116
v 408.884216 -296.206970 887.094116
v 402.554230 -270.289490 887.094116
v 404.209045 -267.234467 887.094116
v 403.774933 -271.030792 887.094116
v 407.897736 -270.317780 887.094116
v 421.966614 -282.077393 887.094116
v 407.498047 -261.162170 887.094116
v 420.496216 -268.138977 887.094116
v 413.098022 -298.467285 887.094116
v 414.660034 -295.573669 887.094116
v 415.495026 -294.042969 887.094116
v 424.355408 -277.675385 887.094116
v 427.479614 -271.899170 887.094116
v 401.985046 -271.340393 887.094116
v 402.227051 -271.591492 887.094116
v 402.253845 -271.484772 887.094116
v 402.304016 -271.285187 887.094116
v 414.658752 -284.489990 887.094116
v 391.995026 -287.132690 887.094116
v 393.433350 -285.955566 887.094116
v 401.618408 -257.944183 887.094116
v 387.297028 -284.611481 934.694153
v 388.078613 -285.035370 934.694153
v 396.850220 -266.825775 934.694153
v 391.995026 -287.132690 934.694153
v 393.116333 -287.730286 934.694153
v 397.568115 -290.132172 934.694153
v 407.459412 -282.556671 934.694153
v 401.618408 -257.944183 934.694153
v 407.021637 -260.845764 934.694153
v 407.498047 -261.162170 934.694153
v 410.922333 -276.143768 934.694153
v 420.496216 -268.138977 934.694153
v 417.268433 -279.545074 934.694153
v 421.966614 -282.077393 934.694153
v 412.435730 -285.223877 934.694153
v 408.884216 -296.206970 934.694153
v 418.503540 -288.479187 934.694153
v 413.805542 -285.957977 934.694153
v 413.098022 -298.467285 934.694153
v 414.660034 -295.573669 934.694153
v 415.495026 -294.042969 934.694153
v 413.487823 -284.876587 934.694153
v 414.585144 -284.514282 934.694153
v 424.355408 -277.675385 934.694153
v 427.479614 -271.899170 934.694153
vt 0.477310 0.255280
vt 0.476790 0.253710
vt 0.474790 0.256550
vt 0.441390 0.273380
vt 0.468900 0.266050
vt 0.475870 0.264190
vt 0.467910 0.266310
vt 0.475510 0.266410
vt 0.483570 0.274280
vt 0.480620 0.265370
vt 0.475190 0.268410
vt 0.467300 0.268090
vt 0.466550 0.268240
vt 0.462810 0.273840
vt 0.462610 0.273830
vt 0.465370 0.273890
vt 0.445840 0.284700
vt 0.439850 0.287710
vt 0.428790 0.293260
vt 0.427280 0.294020
vt 0.460750 0.276480
vt 0.461900 0.279970
vt 0.462000 0.280300
vt 0.469910 0.304360
vt 0.473910 0.316520
vt 0.491030 0.296950
vt 0.445880 0.284800
vt 0.439800 0.288200
vt 0.446840 0.287240
vt 0.444230 0.295570
vt 0.461160 0.323650
vt 0.427700 0.294970
vt 0.436270 0.321010
vt 0.493800 0.305390
vt 0.488040 0.308600
vt 0.484990 0.310320
vt 0.452390 0.328560
vt 0.440890 0.334990
vt 0.447970 0.283620
vt 0.448350 0.284110
vt 0.448150 0.284160
vt 0.447770 0.284270
vt 0.467870 0.308860
vt 0.479880 0.263120
vt 0.477290 0.266050
vt 0.423720 0.283200
vt 0.476790 0.253710
vt 0.477310 0.255280
vt 0.441390 0.273380
vt 0.479880 0.263120
vt 0.480620 0.265370
vt 0.483570 0.274280
vt 0.466640 0.294400
vt 0.423720 0.283200
vt 0.427280 0.294020
vt 0.427700 0.294970
vt 0.453870 0.301520
vt 0.436270 0.321010
vt 0.458050 0.314240
vt 0.461160 0.323650
vt 0.469910 0.304360
vt 0.491030 0.296950
vt 0.473910 0.316520
vt 0.470810 0.307110
vt 0.493800 0.305390
vt 0.488040 0.308600
vt 0.484990 0.310320
vt 0.468950 0.306490
vt 0.467940 0.308710
vt 0.452390 0.328560
vt 0.440890 0.334990
vn 0.0001 0.0000 -1.0000
vn 0.0000 0.0000 -1.0000
vn -0.0001 0.0000 -1.0000
vn -0.0002 0.0000 -1.0000
vn -0.0025 0.0000 -1.0000
vn -0.0004 0.0000 -1.0000
vn -0.0003 0.0000 -1.0000
vn 0.0004 0.0000 -1.0000
vn -0.0012 0.0000 -1.0000
vn -0.0017 0.0000 -1.0000
vn 0.0000 0.0000 1.0000
vn -0.0001 0.0000 1.0000
s off
f 1/1/1 2/2/1 3/3/1
f 3/3/2 2/2/2 4/4/2
f 1/1/2 3/3/2 5/5/2
f 1/1/2 5/5/2 6/6/2
f 7/7/2 5/5/2 3/3/2
f 3/3/2 4/4/2 7/7/2
f 6/6/2 5/5/2 8/8/2
f 9/9/2 10/10/2 11/11/2
f 12/12/3 5/5/3 7/7/3
f 8/8/2 5/5/2 12/12/2
f 13/13/3 12/12/3 7/7/3
f 7/7/2 4/4/2 13/13/2
f 11/11/1 8/8/1 12/12/1
f 14/14/2 12/12/2 13/13/2
f 14/14/2 11/11/2 12/12/2
f 13/13/2 4/4/2 15/15/2
f 14/14/2 13/13/2 15/15/2
f 16/16/4 11/11/4 14/14/4
f 9/9/2 11/11/2 16/16/2
f 17/17/2 4/4/2 18/18/2
f 18/18/2 4/4/2 19/19/2
f 4/4/2 20/20/2 19/19/2
f 9/9/2 16/16/2 21/21/2
f 22/22/2 9/9/2 21/21/2
f 23/23/2 9/9/2 22/22/2
f 24/24/2 9/9/2 23/23/2
f 25/25/2 26/26/2 9/9/2
f 25/25/2 9/9/2 24/24/2
f 27/27/5 17/17/5 18/18/5
f 27/27/2 28/28/2 29/29/2
f 28/28/2 27/27/2 18/18/2
f 29/29/2 28/28/2 30/30/2
f 29/29/2 30/30/2 31/31/2
f 18/18/2 19/19/2 28/28/2
f 19/19/2 32/32/2 28/28/2
f 33/33/2 28/28/2 32/32/2
f 28/28/2 33/33/2 30/30/2
f 19/19/1 20/20/1 32/32/1
f 30/30/2 33/33/2 31/31/2
f 34/34/2 26/26/2 35/35/2
f 36/36/2 35/35/2 26/26/2
f 25/25/2 36/36/2 26/26/2
f 37/37/2 31/31/2 33/33/2
f 37/37/2 33/33/2 38/38/2
f 21/21/2 39/39/2 22/22/2
f 39/39/6 23/23/6 22/22/6
f 23/23/1 39/39/1 40/40/1
f 23/23/2 40/40/2 24/24/2
f 40/40/2 39/39/2 41/41/2
f 41/41/7 39/39/7 42/42/7
f 39/39/8 27/27/8 42/42/8
f 41/41/9 43/43/9 40/40/9
f 40/40/2 43/43/2 24/24/2
f 29/29/2 41/41/2 42/42/2
f 31/31/2 41/41/2 29/29/2
f 41/41/2 31/31/2 43/43/2
f 29/29/2 42/42/2 27/27/2
f 43/43/2 25/25/2 24/24/2
f 31/31/2 25/25/2 43/43/2
f 1/1/2 6/6/2 44/44/2
f 45/45/2 44/44/2 6/6/2
f 44/44/2 45/45/2 10/10/2
f 45/45/2 6/6/2 8/8/2
f 11/11/2 10/10/2 45/45/2
f 11/11/1 45/45/1 8/8/1
f 4/4/2 21/21/2 15/15/2
f 4/4/2 39/39/2 21/21/2
f 4/4/2 46/46/2 20/20/2
f 4/4/2 17/17/2 39/39/2
f 15/15/2 21/21/2 14/14/2
f 16/16/1 14/14/1 21/21/1
f 17/17/10 27/27/10 39/39/10
f 47/47/11 48/48/11 49/49/11
f 48/48/11 50/50/11 49/49/11
f 50/50/11 51/51/11 49/49/11
f 51/51/11 52/52/11 49/49/11
f 52/52/11 53/53/11 49/49/11
f 54/54/11 49/49/11 55/55/11
f 49/49/11 56/56/11 55/55/11
f 57/57/11 49/49/11 53/53/11
f 58/58/11 56/56/11 49/49/11
f 57/57/11 59/59/11 49/49/11
f 59/59/11 60/60/11 49/49/11
f 60/60/11 58/58/11 49/49/11
f 53/53/11 52/52/11 61/61/11
f 62/62/11 63/63/11 52/52/11
f 61/61/11 52/52/11 64/64/11
f 64/64/11 52/52/11 63/63/11
f 65/65/11 66/66/11 62/62/11
f 62/62/11 66/66/11 67/67/11
f 62/62/11 67/67/11 63/63/11
f 68/68/11 61/61/11 64/64/11
f 68/68/11 64/64/11 69/69/11
f 63/63/11 69/69/11 64/64/11
f 69/69/11 60/60/11 59/59/11
f 60/60/11 69/69/11 63/63/11
f 70/70/11 58/58/11 60/60/11
f 71/71/11 58/58/11 70/70/11
f 57/57/11 53/53/11 61/61/11
f 57/57/12 61/61/12 68/68/12
f 57/57/11 68/68/11 69/69/11
f 57/57/11 69/69/11 59/59/11
