# Blender v3.0.1 OBJ File: 'rockerfeller_plaza.blend'
# www.blender.org
o geometryt000010000010000110010110000110000100110010010110st34
v 235.740707 -135.001099 21.874880
v 236.044098 -135.165405 39.660728
v 235.740707 -135.001099 39.660728
v 234.254700 -134.196396 21.874880
v 236.044098 -135.165405 19.260731
v 234.254700 -134.196396 39.660728
v 233.384903 -133.725296 39.660728
v 233.384903 -133.725296 21.874880
v 231.898895 -132.920593 21.874880
v 231.898895 -132.920593 39.660728
v 231.029099 -132.449600 39.660728
v 231.029099 -132.449600 21.874880
v 229.239807 -131.480606 19.260731
v 229.543106 -131.644897 21.874880
v 229.543106 -131.644897 39.660728
v 229.239807 -131.480606 39.660728
v 229.401794 -131.175995 21.874880
v 229.237396 -131.479294 39.660728
v 229.401794 -131.175995 39.660728
v 231.012207 -128.204605 21.874880
v 229.237396 -131.479294 19.260731
v 231.012207 -128.204605 39.660728
v 231.616699 -127.089401 39.660728
v 231.616699 -127.089401 21.874880
v 233.227097 -124.117996 21.874880
v 235.570496 -119.794296 19.260731
v 233.227097 -124.117996 39.660728
v 233.831497 -123.002800 39.660728
v 233.831497 -123.002800 21.874880
v 235.441895 -120.031403 21.874880
v 235.441895 -120.031403 39.660728
v 235.570496 -119.794296 39.660728
v 236.046402 -118.916100 21.874880
v 236.046402 -118.916100 39.660728
v 236.851593 -117.430496 21.874880
v 236.851593 -117.430496 39.660728
v 237.456100 -116.315201 39.660728
v 237.456100 -116.315201 21.874880
v 239.066498 -113.343903 21.874880
v 239.066498 -113.343903 39.660728
v 239.670898 -112.228600 39.660728
v 239.670898 -112.228600 21.874880
v 241.281296 -109.257301 21.874880
v 243.660599 -104.867302 19.260731
v 241.281296 -109.257301 39.660728
v 241.885803 -108.141998 39.660728
v 241.885803 -108.141998 21.874880
v 243.496201 -105.170700 21.874880
v 243.496201 -105.170700 39.660728
v 243.660599 -104.867302 39.660728
v 250.302795 -108.867699 21.874880
v 250.467194 -108.564400 39.660728
v 250.302795 -108.867699 39.660728
v 248.691803 -111.838799 21.874880
v 250.467194 -108.564400 19.260731
v 248.691803 -111.838799 39.660728
v 248.087997 -112.952499 39.660728
v 248.087997 -112.952499 21.874880
v 246.477005 -115.923599 21.874880
v 245.384705 -117.938301 19.260731
v 246.477005 -115.923599 39.660728
v 245.873199 -117.037300 39.660728
v 245.873199 -117.037300 21.874880
v 244.262207 -120.008400 21.874880
v 244.262207 -120.008400 39.660728
v 243.658401 -121.122101 39.660728
v 243.658401 -121.122101 21.874880
v 242.852905 -122.607697 21.874880
v 242.852905 -122.607697 39.660728
v 242.248993 -123.721397 39.660728
v 242.248993 -123.721397 21.874880
v 240.638107 -126.692497 21.874880
v 240.638107 -126.692497 39.660728
v 240.034195 -127.806198 39.660728
v 240.034195 -127.806198 21.874880
v 236.044098 -135.165405 19.260731
v 238.423294 -130.777298 21.874880
v 238.423294 -130.777298 39.660728
v 237.819397 -131.891006 39.660728
v 237.819397 -131.891006 21.874880
v 236.208496 -134.862106 21.874880
v 236.208496 -134.862106 39.660728
v 236.044098 -135.165405 39.660728
v 244.349503 -104.780800 21.874880
v 243.661606 -104.867897 39.660728
v 244.349503 -104.780800 39.660728
v 247.702393 -104.356201 21.874880
v 243.661606 -104.867897 19.260731
v 247.702393 -104.356201 39.660728
v 248.390305 -104.269096 39.660728
v 248.390305 -104.269096 19.260731
v 248.692795 -104.894997 21.874880
v 248.390305 -104.269096 39.660728
v 248.692795 -104.894997 39.660728
v 250.466003 -108.563797 19.260731
v 250.163498 -107.937897 21.874880
v 248.390305 -104.269096 19.260731
v 250.163498 -107.937897 39.660728
v 250.466003 -108.563797 39.660728
vt 2.957180 1.029600
vt 3.095180 8.034661
vt 2.957180 8.034661
vt 2.281250 1.029600
vt 3.095180 0.000000
vt 2.281250 8.034661
vt 1.885560 8.034661
vt 1.885560 1.029600
vt 1.209620 1.029600
vt 1.209620 8.034661
vt 0.813940 8.034661
vt 0.813940 1.029600
vt 0.000000 0.000000
vt 0.138000 1.029600
vt 0.138000 8.034661
vt 0.000000 8.034661
vt 11.969680 1.029600
vt 12.107680 8.034661
vt 11.969680 8.034661
vt 10.617800 1.029600
vt 12.107680 0.000000
vt 10.617800 8.034661
vt 10.110390 8.034661
vt 10.110390 1.029600
vt 8.758510 1.029600
vt 6.791330 0.000000
vt 8.758510 8.034661
vt 8.251100 8.034661
vt 8.251100 1.029600
vt 6.899220 1.029600
vt 6.899220 8.034661
vt 6.791330 8.034661
vt 6.391810 1.029600
vt 5.715870 1.029600
vt 5.715870 8.034661
vt 5.208460 8.034661
vt 5.208460 1.029600
vt 3.856580 1.029600
vt 3.856580 8.034661
vt 3.349170 8.034661
vt 3.349170 1.029600
vt 1.997290 1.029600
vt 0.000000 0.000000
vt 1.997290 8.034661
vt 1.489880 8.034661
vt 1.489880 1.029600
vt 0.138000 1.029600
vt 0.138000 8.034661
vt 0.000000 8.034661
vt 11.965800 1.029600
vt 12.103800 8.034661
vt 11.965800 8.034661
vt 10.613920 1.029600
vt 12.103800 0.000000
vt 10.613920 8.034661
vt 10.107160 8.034661
vt 10.107160 1.029600
vt 8.755280 1.029600
vt 7.838570 0.000000
vt 8.755280 8.034661
vt 8.248511 8.034661
vt 8.248511 1.029600
vt 6.896640 1.029600
vt 6.896640 8.034661
vt 6.389870 8.034661
vt 6.389870 1.029600
vt 5.713930 1.029600
vt 5.713930 8.034661
vt 5.207160 8.034661
vt 5.207160 1.029600
vt 3.855290 1.029600
vt 3.855290 8.034661
vt 3.348520 8.034661
vt 3.348520 1.029600
vt 0.000000 0.000000
vt 1.996640 1.029600
vt 1.996640 8.034661
vt 1.489880 8.034661
vt 1.489880 1.029600
vt 0.138000 1.029600
vt 0.138000 8.034661
vt 0.000000 8.034661
vt 0.277350 1.029600
vt 1.906580 0.000000
vt 1.629230 1.029600
vt 1.906580 8.034661
vt 0.277350 8.034661
vt 0.000000 8.034661
vt 0.000000 0.000000
vt 1.629940 1.029600
vt 1.908010 8.034661
vt 1.629940 8.034661
vt 0.000000 0.000000
vt 0.278070 1.029600
vt 1.908010 0.000000
vt 0.278070 8.034661
vt 0.000000 8.034661
vt 6.391810 8.034661
vt 1.629230 8.034661
vn -0.4763 -0.8793 0.0000
vn -0.4762 -0.8793 0.0000
vn -0.4763 -0.8793 -0.0001
vn -0.4762 -0.8794 0.0000
vn -0.8792 0.4765 0.0000
vn -0.8791 0.4766 0.0000
vn -0.8792 0.4765 -0.0001
vn -0.8790 0.4769 0.0000
vn -0.8792 0.4764 0.0001
vn -0.8792 0.4764 0.0000
vn 0.8792 -0.4765 0.0000
vn 0.8791 -0.4767 -0.0000
vn 0.8791 -0.4766 0.0000
vn 0.8791 -0.4766 0.0001
vn 0.8791 -0.4767 -0.0001
vn 0.8791 -0.4767 -0.0003
vn 0.8791 -0.4767 0.0001
vn -0.1256 0.9921 0.0000
vn 0.9004 0.4351 0.0000
vn 0.9004 0.4352 -0.0000
vn 0.9003 0.4352 0.0000
s off
f 1/1/1 2/2/1 3/3/1
f 4/4/2 5/5/2 1/1/2
f 2/2/2 1/1/2 5/5/2
f 6/6/1 7/7/1 4/4/1
f 7/7/1 8/8/1 4/4/1
f 8/8/3 5/5/3 4/4/3
f 8/8/4 9/9/4 5/5/4
f 10/10/2 11/11/2 9/9/2
f 11/11/4 12/12/4 9/9/4
f 12/12/4 13/13/4 9/9/4
f 9/9/2 13/13/2 5/5/2
f 14/14/2 13/13/2 12/12/2
f 15/15/1 16/16/1 14/14/1
f 16/16/1 13/13/1 14/14/1
f 17/17/5 18/18/5 19/19/5
f 20/20/5 21/21/5 17/17/5
f 18/18/5 17/17/5 21/21/5
f 22/22/6 23/23/6 20/20/6
f 23/23/5 24/24/5 20/20/5
f 20/20/7 24/24/7 21/21/7
f 24/24/5 25/25/5 26/26/5
f 24/24/5 26/26/5 21/21/5
f 27/27/5 28/28/5 25/25/5
f 28/28/5 29/29/5 25/25/5
f 25/25/5 29/29/5 26/26/5
f 29/29/5 30/30/5 26/26/5
f 31/31/8 32/32/8 30/30/8
f 32/32/5 33/33/5 30/30/5
f 30/30/5 33/33/5 26/26/5
f 33/33/5 35/34/5 26/26/5
f 36/35/5 37/36/5 35/34/5
f 37/36/5 38/37/5 35/34/5
f 35/34/5 38/37/5 26/26/5
f 38/37/5 39/38/5 26/26/5
f 40/39/5 41/40/5 39/38/5
f 41/40/5 42/41/5 39/38/5
f 39/38/9 42/41/9 26/26/9
f 43/42/5 44/43/5 42/41/5
f 42/41/5 44/43/5 26/26/5
f 45/44/5 46/45/5 43/42/5
f 46/45/5 47/46/5 43/42/5
f 47/46/5 44/43/5 43/42/5
f 48/47/5 44/43/5 47/46/5
f 49/48/10 50/49/10 48/47/10
f 50/49/10 44/43/10 48/47/10
f 51/50/11 52/51/11 53/52/11
f 54/53/12 55/54/12 51/50/12
f 52/51/13 51/50/13 55/54/13
f 56/55/13 57/56/13 54/53/13
f 57/56/13 58/57/13 54/53/13
f 54/53/14 58/57/14 55/54/14
f 58/57/12 59/58/12 60/59/12
f 58/57/13 60/59/13 55/54/13
f 61/60/13 62/61/13 59/58/13
f 62/61/13 63/62/13 59/58/13
f 59/58/13 63/62/13 60/59/13
f 63/62/12 64/63/12 60/59/12
f 65/64/13 66/65/13 64/63/13
f 66/65/13 67/66/13 64/63/13
f 64/63/13 67/66/13 60/59/13
f 67/66/13 68/67/13 60/59/13
f 69/68/12 70/69/12 68/67/12
f 70/69/12 71/70/12 68/67/12
f 68/67/15 71/70/15 60/59/15
f 71/70/16 72/71/16 60/59/16
f 73/72/12 74/73/12 72/71/12
f 74/73/12 75/74/12 72/71/12
f 75/74/17 76/75/17 72/71/17
f 72/71/13 76/75/13 60/59/13
f 77/76/13 76/75/13 75/74/13
f 78/77/12 79/78/12 77/76/12
f 79/78/12 80/79/12 77/76/12
f 80/79/17 76/75/17 77/76/17
f 81/80/13 76/75/13 80/79/13
f 82/81/11 83/82/11 81/80/11
f 83/82/13 76/75/13 81/80/13
f 87/83/18 88/84/18 84/85/18
f 85/86/18 84/85/18 88/84/18
f 89/87/18 90/88/18 87/83/18
f 90/88/18 91/89/18 87/83/18
f 91/89/18 88/84/18 87/83/18
f 92/90/19 93/91/19 94/92/19
f 95/93/20 92/90/20 96/94/20
f 95/93/20 97/95/20 92/90/20
f 93/91/19 92/90/19 97/95/19
f 98/96/21 99/97/21 96/94/21
f 99/97/19 95/93/19 96/94/19
s 1
f 32/32/5 34/98/5 33/33/5
f 84/85/18 85/86/18 86/99/18
