# Blender v3.0.1 OBJ File: 'rockerfeller_plaza.blend'
# www.blender.org
o geometryt000010000010000110010110000110000110100000100110st36
v 732.734741 -307.396606 676.514221
v 732.734741 -307.396606 657.058044
v 738.712402 -310.623718 657.058044
v 738.712402 -310.623718 676.514221
v 733.207214 -304.997894 657.058044
v 732.563110 -306.194122 657.058044
v 732.563110 -306.194122 676.514221
v 733.207214 -304.997894 676.514221
v 745.537964 -282.161499 657.058044
v 733.917542 -303.680023 657.058044
v 733.917542 -303.680023 676.514221
v 745.537964 -282.161499 676.514221
v 739.736694 -310.244995 657.058044
v 752.650940 -286.337097 657.058044
v 752.650940 -286.337097 676.514221
v 739.736694 -310.244995 676.514221
v 752.402527 -285.271698 676.514221
v 752.402527 -285.271698 657.058044
v 746.423218 -282.047516 657.058044
v 746.423218 -282.047516 676.514221
vt 0.000000 1.250000
vt 0.000000 0.000000
vt 0.312500 0.000000
vt 0.312500 1.250000
vt 0.000000 0.000000
vt 0.062500 0.000000
vt 0.062500 1.250000
vt 0.000000 1.250000
vt 0.000000 0.000000
vt 1.125000 0.000000
vt 1.125000 1.250000
vt 0.000000 1.250000
vt 0.000000 1.250000
vt 0.000000 0.000000
vt 0.312500 0.000000
vt 0.312500 1.250000
vt 0.000000 0.000000
vt 1.250000 0.000000
vt 1.250000 1.250000
vt 0.000000 1.250000
vn -0.4751 -0.8800 0.0000
vn -0.8805 0.4741 0.0000
vn -0.8799 0.4752 0.0000
vn 0.4746 0.8802 0.0000
vn 0.8798 -0.4753 0.0000
s off
f 1/1/1 2/2/1 3/3/1
f 1/1/1 3/3/1 4/4/1
f 5/5/2 6/6/2 7/7/2
f 8/8/2 5/5/2 7/7/2
f 9/9/3 10/10/3 11/11/3
f 12/12/3 9/9/3 11/11/3
f 17/13/4 18/14/4 19/15/4
f 17/13/4 19/15/4 20/16/4
s 1
f 13/17/5 14/18/5 15/19/5
f 16/20/5 13/17/5 15/19/5
