# Blender v3.0.1 OBJ File: 'rockerfeller_plaza.blend'
# www.blender.org
o geometryt000010000010000110010110000110000100110110010010st96_M
v 85.183868 -72.811813 862.254028
v 85.183868 -72.811813 843.123840
v 84.477837 -74.106262 843.123840
v 84.477837 -74.106262 862.254028
v 84.602264 -74.598595 861.330200
v 84.602264 -74.598595 843.123840
v 85.900658 -75.297348 843.123840
v 85.900658 -75.297348 861.330200
v 86.104973 -75.407303 861.330200
v 86.104973 -75.407303 843.123840
v 88.701759 -76.804825 843.123840
v 88.701759 -76.804825 861.330200
v 88.906075 -76.914787 843.123840
v 90.204468 -77.613533 843.123840
v 90.204468 -77.613533 861.330200
v 88.906075 -76.914787 861.330200
v 90.408775 -77.723495 861.330200
v 90.408775 -77.723495 843.123840
v 91.707169 -78.422256 843.123840
v 91.707169 -78.422256 861.330200
v 91.911484 -78.532219 861.330200
v 91.911484 -78.532219 843.123840
v 93.209877 -79.230972 843.123840
v 93.209877 -79.230972 861.330200
v 93.549309 -79.413643 862.254028
v 93.414200 -79.340927 843.123840
v 94.712585 -80.039688 843.123840
v 93.414200 -79.340927 862.254028
v 94.712585 -80.039688 872.254028
v 93.549309 -79.413643 872.254028
v 94.916893 -80.149643 872.254028
v 94.916893 -80.149643 843.123840
v 96.215286 -80.848404 843.123840
v 96.215286 -80.848404 872.254028
v 96.419609 -80.958359 872.254028
v 96.419609 -80.958359 843.123840
v 99.016388 -82.355873 843.123840
v 99.016388 -82.355873 872.254028
v 99.266106 -82.490265 872.254028
v 99.220703 -82.465836 843.123840
v 100.519096 -83.164597 843.123840
v 99.220703 -82.465836 872.254028
v 100.519096 -83.164597 872.254028
v 100.723419 -83.274544 872.254028
v 100.723419 -83.274544 843.123840
v 103.320198 -84.672066 843.123840
v 103.320198 -84.672066 872.254028
v 103.524506 -84.782028 872.254028
v 103.524506 -84.782028 843.123840
v 104.822906 -85.480789 843.123840
v 104.822906 -85.480789 872.254028
v 105.027214 -85.590736 872.254028
v 105.027214 -85.590736 843.123840
v 106.325607 -86.289497 843.123840
v 106.325607 -86.289497 872.254028
v 106.529930 -86.399452 843.123840
v 107.828316 -87.098213 843.123840
v 107.828316 -87.098213 872.254028
v 106.529930 -86.399452 872.254028
v 108.032639 -87.208176 872.254028
v 108.032639 -87.208176 843.123840
v 109.331024 -87.906929 843.123840
v 109.331024 -87.906929 872.254028
v 109.535339 -88.016884 843.123840
v 110.833740 -88.715645 843.123840
v 110.833740 -88.715645 872.254028
v 109.535339 -88.016884 872.254028
v 111.038040 -88.825607 843.123840
v 113.634834 -90.223114 843.123840
v 113.634834 -90.223114 872.254028
v 111.038040 -88.825607 872.254028
v 113.839134 -90.333076 872.254028
v 113.839134 -90.333076 843.123840
v 115.137535 -91.031837 843.123840
v 115.137535 -91.031837 872.254028
v 98.469490 -48.313660 862.254028
v 98.469490 -48.313660 843.123840
v 92.891693 -58.707390 843.123840
v 92.891693 -58.707390 862.254028
v 93.339249 -69.514572 989.254089
v 93.339249 -69.514572 984.254089
v 93.645554 -69.679924 984.254089
v 94.763275 -70.283325 984.254089
v 95.934227 -70.915443 984.254089
v 95.934227 -70.915443 989.254089
v 96.214134 -71.066559 989.254089
v 96.214134 -71.066559 984.254089
v 98.809105 -72.467422 984.254089
v 98.809105 -72.467422 989.254089
v 99.089027 -72.618538 989.254089
v 99.089027 -72.618538 984.254089
v 101.683998 -74.019409 984.254089
v 101.683998 -74.019409 989.254089
v 101.963905 -74.170517 989.254089
v 101.963905 -74.170517 984.254089
v 103.261398 -74.870956 984.254089
v 103.261398 -74.870956 989.254089
v 103.541306 -75.022064 984.254089
v 104.838799 -75.722496 984.254089
v 104.838799 -75.722496 989.254089
v 103.541306 -75.022064 989.254089
v 105.118706 -75.873604 989.254089
v 105.118706 -75.873604 984.254089
v 106.416199 -76.574043 984.254089
v 106.416199 -76.574043 989.254089
v 106.696106 -76.725159 984.254089
v 109.291077 -78.126022 984.254089
v 109.291077 -78.126022 989.254089
v 106.696106 -76.725159 989.254089
v 109.571037 -78.277138 989.254089
v 109.571037 -78.277138 984.254089
v 111.131233 -79.119415 984.254089
v 112.165939 -79.678009 989.254089
v 112.165939 -79.678009 984.254089
v 114.585640 -80.984245 984.254089
v 112.445839 -79.829117 989.254089
v 112.445839 -79.829117 984.254089
v 115.040840 -81.229988 989.254089
v 114.650536 -81.019295 984.254089
v 115.040840 -81.229988 984.254089
v 94.828186 -66.054405 984.254089
v 93.419380 -68.645073 984.254089
v 93.419380 -68.645073 989.254089
v 94.828186 -66.054405 989.254089
v 94.409554 -77.785187 872.254028
v 94.409554 -77.785187 862.254028
v 93.893089 -78.762856 862.254028
v 93.720833 -79.088928 872.254028
v 93.720833 -79.088928 862.254028
v 97.831825 -60.533218 931.196899
v 97.615059 -60.931721 971.111206
v 98.319626 -59.636471 931.196899
v 98.319626 -59.636471 989.254089
v 97.450546 -61.234158 971.111206
v 97.615059 -60.931721 985.625488
v 96.910500 -62.226971 985.625488
v 97.277237 -61.552769 989.254089
v 96.910500 -62.226971 971.111206
v 95.501366 -64.817467 989.254089
v 97.407204 -61.313839 971.111206
v 95.501366 -64.817467 964.372498
v 97.801903 -60.588219 931.196899
v 97.615059 -60.931721 942.082581
v 96.205925 -63.522221 949.339783
v 95.567078 -64.696678 959.854065
v 97.615059 -60.931721 931.196899
v 97.279648 -61.548340 942.082581
v 97.277237 -61.552769 942.254089
v 96.205925 -63.522221 942.254089
v 95.719978 -64.415588 949.339783
v 106.110855 -51.937420 843.123840
v 99.618256 -48.444820 843.123840
v 99.618256 -48.444820 862.254028
v 106.110855 -51.937420 862.254028
v 101.580566 -60.535568 909.425476
v 100.716316 -60.069031 909.425476
v 100.283066 -59.835148 926.426453
v 100.283066 -59.835148 960.225464
v 101.580566 -60.535568 989.254089
v 98.985565 -59.134739 977.340942
v 99.421738 -59.370190 960.225464
v 98.985565 -59.134739 989.254089
v 102.428108 -60.993088 989.254089
v 104.455475 -62.087498 985.625488
v 101.860474 -60.686668 985.625488
v 104.455475 -62.087498 989.254089
v 101.860474 -60.686668 989.254089
v 107.330376 -63.639431 985.625488
v 104.735390 -62.238598 985.625488
v 104.735390 -62.238598 989.254089
v 107.330376 -63.639431 989.254089
v 108.907784 -64.490944 989.254089
v 108.907784 -64.490944 985.625488
v 107.610298 -63.790531 985.625488
v 107.610298 -63.790531 989.254089
v 110.485237 -65.342468 989.254089
v 110.485237 -65.342468 985.625488
v 109.187706 -64.642044 985.625488
v 109.187706 -64.642044 989.254089
v 112.062637 -66.193977 989.254089
v 112.062637 -66.193977 985.625488
v 110.765137 -65.493568 985.625488
v 110.765137 -65.493568 989.254089
v 114.937538 -67.745918 985.625488
v 112.342537 -66.345085 985.625488
v 112.342537 -66.345085 989.254089
v 114.937538 -67.745918 989.254089
v 117.812439 -69.297844 985.625488
v 115.217438 -67.897018 985.625488
v 115.217438 -67.897018 989.254089
v 117.812439 -69.297844 989.254089
v 120.687340 -70.849777 989.254089
v 120.687340 -70.849777 985.625488
v 118.092339 -69.448944 985.625488
v 118.092339 -69.448944 989.254089
v 115.701439 -80.737587 989.254089
v 115.701439 -80.737587 984.254089
v 120.633438 -71.670868 984.254089
v 120.633438 -71.670868 989.254089
v 115.606834 -90.889282 843.123840
v 116.308235 -89.592323 843.123840
v 116.308235 -89.592323 872.254028
v 115.606834 -90.889282 872.254028
v 122.135933 -60.565178 862.254028
v 129.204636 -64.366684 843.123840
v 121.413040 -60.176418 843.123840
v 129.204636 -64.366684 862.254028
v 121.413040 -60.176418 862.254028
v 128.177948 -67.711594 862.254028
v 128.177948 -67.711594 843.123840
v 129.584946 -65.119934 843.123840
v 129.584946 -65.119934 862.254028
vt 0.000000 1.500000
vt 0.000000 0.000000
vt 0.062500 0.000000
vt 0.062500 1.500000
vt 0.000000 1.250000
vt 0.000000 0.000000
vt 0.062500 0.000000
vt 0.062500 1.250000
vt 0.000000 1.250000
vt 0.000000 0.000000
vt 0.125000 0.000000
vt 0.125000 1.250000
vt 0.000000 0.000000
vt 0.062500 0.000000
vt 0.062500 1.250000
vt 0.000000 1.250000
vt 0.000000 1.250000
vt 0.000000 0.000000
vt 0.062500 0.000000
vt 0.062500 1.250000
vt 0.000000 1.250000
vt 0.000000 0.000000
vt 0.062500 0.000000
vt 0.062500 1.250000
vt 0.006500 1.313430
vt 0.000000 0.000000
vt 0.062500 0.000000
vt 0.000000 1.313430
vt 0.006500 2.000000
vt 0.062500 2.000000
vt 0.000000 2.000000
vt 0.000000 0.000000
vt 0.062500 0.000000
vt 0.062500 2.000000
vt 0.000000 2.000000
vt 0.000000 0.000000
vt 0.125000 0.000000
vt 0.125000 2.000000
vt 0.002190 2.000000
vt 0.000000 0.000000
vt 0.062500 0.000000
vt 0.000000 2.000000
vt 0.062500 2.000000
vt 0.000000 2.000000
vt 0.000000 0.000000
vt 0.125000 0.000000
vt 0.125000 2.000000
vt 0.000000 2.000000
vt 0.000000 0.000000
vt 0.062500 0.000000
vt 0.062500 2.000000
vt 0.000000 2.000000
vt 0.000000 0.000000
vt 0.062500 0.000000
vt 0.062500 2.000000
vt 0.000000 0.000000
vt 0.062500 0.000000
vt 0.062500 2.000000
vt 0.000000 2.000000
vt 0.000000 2.000000
vt 0.000000 0.000000
vt 0.062500 0.000000
vt 0.062500 2.000000
vt 0.000000 0.000000
vt 0.062500 0.000000
vt 0.062500 2.000000
vt 0.000000 2.000000
vt 0.000000 0.000000
vt 0.125000 0.000000
vt 0.125000 2.000000
vt 0.000000 2.000000
vt 0.000000 2.000000
vt 0.000000 0.000000
vt 0.062500 0.000000
vt 0.062500 2.000000
vt 0.000000 1.500000
vt 0.000000 0.000000
vt 0.500000 0.000000
vt 0.500000 1.500000
vt 0.000000 0.250000
vt 0.000000 0.000000
vt 0.014750 0.000000
vt 0.068600 0.000000
vt 0.125000 0.000000
vt 0.125000 0.250000
vt 0.000000 0.250000
vt 0.000000 0.000000
vt 0.125000 0.000000
vt 0.125000 0.250000
vt 0.000000 0.250000
vt 0.000000 0.000000
vt 0.125000 0.000000
vt 0.125000 0.250000
vt 0.000000 0.000000
vt 0.062500 0.000000
vt 0.062500 0.250000
vt 0.000000 0.250000
vt 0.000000 0.000000
vt 0.125000 0.000000
vt 0.125000 0.250000
vt 0.000000 0.250000
vt 0.000000 0.250000
vt 0.000000 0.000000
vt 0.075160 0.000000
vt 0.125000 0.250000
vt 0.125000 0.000000
vt 0.103070 0.000000
vt 0.000000 0.250000
vt 0.000000 0.000000
vt 0.125000 0.250000
vt 0.106200 0.000000
vt 0.125000 0.000000
vt 0.000000 0.000000
vt 0.125000 0.000000
vt 0.125000 0.250000
vt 0.000000 0.250000
vt 0.000000 0.750000
vt 0.000000 0.000000
vt 0.046870 0.000000
vt 0.062500 0.750000
vt 0.062500 0.000000
vt 0.043270 4.750000
vt 0.062500 7.500000
vt 0.000000 4.750000
vt 0.000000 8.750000
vt 0.077090 7.500000
vt 0.062500 8.500000
vt 0.125000 8.500000
vt 0.092470 8.750000
vt 0.125000 7.500000
vt 0.250000 8.750000
vt 0.080940 7.500000
vt 0.250000 7.035720
vt 0.045920 4.750000
vt 0.062500 5.500000
vt 0.187500 6.000000
vt 0.244170 6.724410
vt 0.062500 4.750000
vt 0.092250 5.500000
vt 0.092470 5.511810
vt 0.187500 5.511810
vt 0.230610 6.000000
vt 0.000000 0.000000
vt 0.312500 0.000000
vt 0.312500 1.500000
vt 0.000000 1.500000
vt 0.000000 3.250000
vt 0.041630 3.250000
vt 0.062500 4.421330
vt 0.062500 6.750000
vt 0.000000 8.750000
vt 0.125000 7.929220
vt 0.103990 6.750000
vt 0.125000 8.750000
vt 0.097660 8.750000
vt 0.000000 8.500000
vt 0.125000 8.500000
vt 0.000000 8.750000
vt 0.125000 8.750000
vt 0.000000 8.500000
vt 0.125000 8.500000
vt 0.125000 8.750000
vt 0.000000 8.750000
vt 0.000000 8.750000
vt 0.000000 8.500000
vt 0.062500 8.500000
vt 0.062500 8.750000
vt 0.000000 8.750000
vt 0.000000 8.500000
vt 0.062500 8.500000
vt 0.062500 8.750000
vt 0.000000 8.750000
vt 0.000000 8.500000
vt 0.062500 8.500000
vt 0.062500 8.750000
vt 0.000000 8.500000
vt 0.125000 8.500000
vt 0.125000 8.750000
vt 0.000000 8.750000
vt 0.000000 8.500000
vt 0.125000 8.500000
vt 0.125000 8.750000
vt 0.000000 8.750000
vt 0.000000 8.750000
vt 0.000000 8.500000
vt 0.125000 8.500000
vt 0.125000 8.750000
vt 0.000000 0.250000
vt 0.000000 0.000000
vt 0.437500 0.000000
vt 0.437500 0.250000
vt 0.000000 0.000000
vt 0.062500 0.000000
vt 0.062500 2.000000
vt 0.000000 2.000000
vt 0.340210 1.500000
vt 0.000000 0.000000
vt 0.375000 0.000000
vt 0.000000 1.500000
vt 0.375000 1.500000
vt 0.000000 0.250000
vt 0.000000 0.000000
vt 0.062500 0.000000
vt 0.062500 0.250000
vt 0.000000 0.250000
vt 0.000000 0.000000
vt 0.062500 0.000000
vt 0.062500 0.250000
vt 0.000000 1.500000
vt 0.000000 0.000000
vt 0.125000 0.000000
vt 0.125000 1.500000
vn -0.8779 0.4788 0.0000
vn -0.4739 -0.8806 0.0000
vn -0.4736 -0.8807 0.0000
vn -0.8811 0.4729 0.0000
vn -0.4750 -0.8800 0.0000
vn -0.4751 -0.8800 0.0000
vn -0.4753 -0.8798 0.0000
vn -0.8785 0.4777 0.0000
vn -0.8842 0.4671 0.0000
vn -0.8784 0.4778 0.0000
vn -0.8785 0.4778 0.0000
vn -0.8784 0.4780 0.0000
vn -0.8784 0.4779 0.0000
vn 0.4737 0.8807 0.0000
vn 0.4750 0.8800 -0.0000
vn 0.8784 -0.4778 0.0000
vn 0.8796 -0.4757 0.0000
vn 0.4736 0.8807 -0.0000
vn 0.8788 -0.4771 0.0000
s off
f 1/1/1 2/2/1 3/3/1
f 1/1/1 3/3/1 4/4/1
f 5/5/2 6/6/2 7/7/2
f 5/5/2 7/7/2 8/8/2
f 9/9/2 10/10/2 11/11/2
f 9/9/2 11/11/2 12/12/2
f 13/13/2 14/14/2 15/15/2
f 16/16/2 13/13/2 15/15/2
f 17/17/2 18/18/2 19/19/2
f 17/17/2 19/19/2 20/20/2
f 21/21/2 22/22/2 23/23/2
f 21/21/2 23/23/2 24/24/2
f 25/25/2 26/26/2 27/27/2
f 28/28/2 26/26/2 25/25/2
f 30/29/2 25/25/2 29/30/2
f 31/31/2 32/32/2 33/33/2
f 31/31/2 33/33/2 34/34/2
f 35/35/2 36/36/2 37/37/2
f 35/35/2 37/37/2 38/38/2
f 39/39/2 40/40/2 41/41/2
f 42/42/3 40/40/3 39/39/3
f 39/39/2 41/41/2 43/43/2
f 44/44/2 45/45/2 46/46/2
f 44/44/2 46/46/2 47/47/2
f 48/48/2 49/49/2 50/50/2
f 48/48/2 50/50/2 51/51/2
f 52/52/2 53/53/2 54/54/2
f 52/52/2 54/54/2 55/55/2
f 56/56/2 57/57/2 58/58/2
f 59/59/2 56/56/2 58/58/2
f 60/60/2 61/61/2 62/62/2
f 60/60/2 62/62/2 63/63/2
f 64/64/2 65/65/2 66/66/2
f 67/67/2 64/64/2 66/66/2
f 68/68/2 69/69/2 70/70/2
f 71/71/2 68/68/2 70/70/2
f 72/72/2 73/73/2 74/74/2
f 72/72/2 74/74/2 75/75/2
f 76/76/4 77/77/4 78/78/4
f 76/76/4 78/78/4 79/79/4
f 80/80/5 81/81/5 82/82/5
f 83/83/5 80/80/5 82/82/5
f 84/84/5 85/85/5 83/83/5
f 85/85/5 80/80/5 83/83/5
f 86/86/5 87/87/5 88/88/5
f 86/86/5 88/88/5 89/89/5
f 90/90/5 91/91/5 92/92/5
f 90/90/5 92/92/5 93/93/5
f 98/94/5 99/95/5 100/96/5
f 101/97/5 98/94/5 100/96/5
f 106/98/5 107/99/5 108/100/5
f 109/101/5 106/98/5 108/100/5
f 110/102/6 111/103/6 112/104/6
f 113/105/5 112/104/5 114/106/5
f 115/107/5 116/108/5 117/109/5
f 118/110/7 115/107/7 119/111/7
f 118/110/5 116/108/5 115/107/5
f 120/112/5 118/110/5 119/111/5
f 121/113/8 122/114/8 123/115/8
f 124/116/8 121/113/8 123/115/8
f 125/117/9 126/118/9 127/119/9
f 128/120/9 127/119/9 129/121/9
f 128/120/9 125/117/9 127/119/9
f 130/122/10 131/123/10 132/124/10
f 133/125/10 132/124/10 131/123/10
f 130/122/10 134/126/10 131/123/10
f 135/127/10 133/125/10 131/123/10
f 136/128/11 137/129/11 135/127/11
f 137/129/10 133/125/10 135/127/10
f 138/130/10 139/131/10 136/128/10
f 139/131/10 137/129/10 136/128/10
f 138/130/10 140/132/10 141/133/10
f 138/130/10 141/133/10 139/131/10
f 140/132/10 142/134/10 143/135/10
f 140/132/10 143/135/10 144/136/10
f 140/132/10 144/136/10 145/137/10
f 140/132/10 145/137/10 141/133/10
f 143/135/11 142/134/11 146/138/11
f 147/139/12 148/140/12 143/135/12
f 148/140/11 144/136/11 143/135/11
f 148/140/10 149/141/10 144/136/10
f 145/137/13 144/136/13 150/142/13
f 151/143/14 152/144/14 153/145/14
f 154/146/14 151/143/14 153/145/14
f 155/147/15 156/148/15 157/149/15
f 158/150/15 155/147/15 157/149/15
f 159/151/15 155/147/15 158/150/15
f 160/152/15 158/150/15 161/153/15
f 159/151/15 158/150/15 160/152/15
f 162/154/15 159/151/15 160/152/15
f 163/155/15 164/156/15 165/157/15
f 166/158/15 164/156/15 163/155/15
f 163/155/15 165/157/15 167/159/15
f 168/160/15 169/161/15 170/162/15
f 171/163/15 168/160/15 170/162/15
f 172/164/15 173/165/15 174/166/15
f 172/164/15 174/166/15 175/167/15
f 176/168/15 177/169/15 178/170/15
f 176/168/15 178/170/15 179/171/15
f 180/172/15 181/173/15 182/174/15
f 180/172/15 182/174/15 183/175/15
f 184/176/15 185/177/15 186/178/15
f 187/179/15 184/176/15 186/178/15
f 188/180/15 189/181/15 190/182/15
f 191/183/15 188/180/15 190/182/15
f 192/184/15 193/185/15 194/186/15
f 192/184/15 194/186/15 195/187/15
f 196/188/16 197/189/16 198/190/16
f 196/188/16 198/190/16 199/191/16
f 200/192/17 201/193/17 202/194/17
f 203/195/17 200/192/17 202/194/17
f 204/196/18 205/197/18 206/198/18
f 207/199/18 205/197/18 204/196/18
f 204/196/18 206/198/18 208/200/18
s 1
f 29/30/2 25/25/2 27/27/2
f 94/201/5 95/202/5 96/203/5
f 94/201/5 96/203/5 97/204/5
f 102/205/5 103/206/5 104/207/5
f 102/205/5 104/207/5 105/208/5
f 113/105/6 110/102/6 112/104/6
f 209/209/19 210/210/19 211/211/19
f 209/209/19 211/211/19 212/212/19
