# Blender v3.0.1 OBJ File: 'rockerfeller_plaza.blend'
# www.blender.org
o geometryt000010000010000110010110000110000110100000100100st65
v 392.753479 -202.488724 628.077209
v 392.753479 -202.488724 611.484436
v 394.234985 -203.284622 611.484436
v 394.234985 -203.284622 628.077209
v 396.287994 -204.387527 628.077209
v 396.287994 -204.387527 611.484436
v 397.769501 -205.183319 611.484436
v 397.769501 -205.183319 628.077209
v 393.408203 -200.539825 611.484436
v 392.612793 -202.021530 611.484436
v 392.612793 -202.021530 628.077209
v 393.408203 -200.539825 628.077209
v 397.548279 -192.828125 611.484436
v 394.366516 -198.754822 611.484436
v 394.366516 -198.754822 628.077209
v 397.548279 -192.828125 628.077209
v 401.688416 -185.116425 611.484436
v 398.506592 -191.043121 611.484436
v 398.506592 -191.043121 628.077209
v 401.688416 -185.116425 628.077209
v 403.442078 -181.849716 628.077209
v 403.442078 -181.849716 611.484436
v 402.646698 -183.331421 611.484436
v 402.646698 -183.331421 628.077209
v 398.236603 -205.042618 628.077209
v 398.236603 -205.042618 611.484436
v 399.031982 -203.560928 611.484436
v 399.031982 -203.560928 628.077209
v 399.990295 -201.775925 611.484436
v 403.172119 -195.849319 611.484436
v 403.172119 -195.849319 628.077209
v 399.990295 -201.775925 628.077209
v 404.130402 -194.064224 611.484436
v 407.312195 -188.137619 611.484436
v 407.312195 -188.137619 628.077209
v 404.130402 -194.064224 628.077209
v 408.270508 -186.352524 611.484436
v 409.065918 -184.870926 611.484436
v 409.065918 -184.870926 628.077209
v 408.270508 -186.352524 628.077209
v 405.390686 -182.504929 611.484436
v 403.909180 -181.709030 611.484436
v 403.909180 -181.709030 628.077209
v 405.390686 -182.504929 628.077209
v 408.925201 -184.403625 628.077209
v 408.925201 -184.403625 611.484436
v 407.443695 -183.607819 611.484436
v 407.443695 -183.607819 628.077209
vt 0.000000 4.000000
vt 0.000000 0.000000
vt 0.333330 0.000000
vt 0.333330 4.000000
vt 0.000000 4.000000
vt 0.000000 0.000000
vt 0.333330 0.000000
vt 0.333330 4.000000
vt 0.000000 0.000000
vt 0.333330 0.000000
vt 0.333330 4.000000
vt 0.000000 4.000000
vt 0.000000 0.000000
vt 1.333330 0.000000
vt 1.333330 4.000000
vt 0.000000 4.000000
vt 0.000000 0.000000
vt 1.333330 0.000000
vt 1.333330 4.000000
vt 0.000000 4.000000
vt 0.000000 4.000000
vt 0.000000 0.000000
vt 0.333330 0.000000
vt 0.333330 4.000000
vt 0.000000 4.000000
vt 0.000000 0.000000
vt 0.333330 0.000000
vt 0.333330 4.000000
vt 0.000000 0.000000
vt 1.333330 0.000000
vt 1.333330 4.000000
vt 0.000000 4.000000
vt 0.000000 0.000000
vt 1.333330 0.000000
vt 1.333330 4.000000
vt 0.000000 4.000000
vt 0.000000 4.000000
vt 0.000000 0.000000
vt 0.333330 0.000000
vt 0.333330 4.000000
vt 0.000000 0.000000
vt 0.333330 0.000000
vt 0.333330 4.000000
vt 0.000000 4.000000
vt 0.000000 0.000000
vt 0.333330 0.000000
vt 0.333330 4.000000
vt 0.000000 4.000000
vn -0.4733 -0.8809 0.0000
vn -0.4732 -0.8810 0.0000
vn -0.8811 0.4730 0.0000
vn 0.8811 -0.4730 0.0000
vn 0.4732 0.8809 0.0000
vn 0.4733 0.8809 0.0000
s off
f 1/1/1 2/2/1 3/3/1
f 1/1/1 3/3/1 4/4/1
f 5/5/2 6/6/2 7/7/2
f 5/5/2 7/7/2 8/8/2
f 9/9/3 10/10/3 11/11/3
f 12/12/3 9/9/3 11/11/3
f 13/13/3 14/14/3 15/15/3
f 16/16/3 13/13/3 15/15/3
f 17/17/3 18/18/3 19/19/3
f 20/20/3 17/17/3 19/19/3
f 21/21/3 22/22/3 23/23/3
f 21/21/3 23/23/3 24/24/3
f 25/25/4 26/26/4 27/27/4
f 25/25/4 27/27/4 28/28/4
f 29/29/4 30/30/4 31/31/4
f 32/32/4 29/29/4 31/31/4
f 33/33/4 34/34/4 35/35/4
f 36/36/4 33/33/4 35/35/4
f 45/37/5 46/38/5 47/39/5
f 45/37/5 47/39/5 48/40/5
s 1
f 37/41/4 38/42/4 39/43/4
f 40/44/4 37/41/4 39/43/4
f 41/45/6 42/46/6 43/47/6
f 44/48/6 41/45/6 43/47/6
