# Blender v3.0.1 OBJ File: 'rockerfeller_plaza.blend'
# www.blender.org
o geometryt000010000010000110010110000110000100110010110110st15
v 179.104187 -186.173126 577.812256
v 179.104187 -186.173126 566.067200
v 165.221786 -211.905518 566.067200
v 165.221786 -211.905518 577.812256
v 165.370590 -212.770020 566.067200
v 170.134979 -215.342422 566.067200
v 170.134979 -215.342422 577.812256
v 165.370590 -212.770020 577.812256
v 170.939087 -214.992325 566.067200
v 184.821487 -189.260025 566.067200
v 184.821487 -189.260025 577.812256
v 170.939087 -214.992325 577.812256
v 184.672684 -188.395523 577.812256
v 184.672684 -188.395523 566.067200
v 179.908279 -185.823120 566.067200
v 179.908279 -185.823120 577.812256
vt 0.000000 3.000000
vt 0.000000 0.000000
vt 9.000000 0.000000
vt 9.000000 3.000000
vt 0.000000 0.000000
vt 1.666670 0.000000
vt 1.666670 3.000000
vt 0.000000 3.000000
vt 0.000000 0.000000
vt 9.000000 0.000000
vt 9.000000 3.000000
vt 0.000000 3.000000
vt 0.000000 3.000000
vt 0.000000 0.000000
vt 1.666670 0.000000
vt 1.666670 3.000000
vn -0.8801 0.4748 0.0000
vn -0.4751 -0.8799 0.0000
vn 0.8801 -0.4748 0.0000
vn 0.4751 0.8799 0.0000
s off
f 1/1/1 2/2/1 3/3/1
f 1/1/1 3/3/1 4/4/1
f 5/5/2 6/6/2 7/7/2
f 8/8/2 5/5/2 7/7/2
f 9/9/3 10/10/3 11/11/3
f 12/12/3 9/9/3 11/11/3
f 13/13/4 14/14/4 15/15/4
f 13/13/4 15/15/4 16/16/4
