# Blender v3.0.1 OBJ File: 'rockerfeller_plaza.blend'
# www.blender.org
o geometryt000010000010000110010110000110000110100000010110st134
v 1081.453247 -74.017227 212.344910
v 1081.453247 -74.017227 189.452576
v 1080.644287 -75.511726 189.452576
v 1080.644287 -75.511726 212.344910
v 1083.582520 -70.083481 212.344910
v 1083.582520 -70.083481 189.452576
v 1081.964722 -73.072464 189.452576
v 1081.964722 -73.072464 212.344910
v 1084.902954 -67.644218 189.452576
v 1084.093994 -69.138718 189.452576
v 1084.093994 -69.138718 212.344910
v 1084.902954 -67.644218 212.344910
v 1087.841187 -62.215977 212.344910
v 1087.841187 -62.215977 189.452576
v 1085.414307 -66.699455 189.452576
v 1085.414307 -66.699455 212.344910
v 1089.161499 -59.776718 212.344910
v 1089.161499 -59.776718 189.452576
v 1088.352539 -61.271206 189.452576
v 1088.352539 -61.271206 212.344910
v 1091.290771 -55.842968 189.452576
v 1089.672852 -58.831947 189.452576
v 1089.672852 -58.831947 212.344910
v 1091.290771 -55.842968 212.344910
v 1092.611084 -53.403706 189.452576
v 1091.802124 -54.898197 189.452576
v 1091.802124 -54.898197 212.344910
v 1092.611084 -53.403706 212.344910
v 1080.783203 -75.979828 212.344910
v 1080.783203 -75.979828 189.452576
v 1082.276489 -76.791100 189.452576
v 1082.276489 -76.791100 212.344910
v 1083.174194 -77.278816 189.452576
v 1084.667480 -78.090088 189.452576
v 1084.667480 -78.090088 212.344910
v 1083.174194 -77.278816 212.344910
v 1085.565186 -78.577805 189.452576
v 1087.058350 -79.389076 189.452576
v 1087.058350 -79.389076 212.344910
v 1085.565186 -78.577805 212.344910
v 1087.525757 -79.250389 212.344910
v 1087.525757 -79.250389 189.452576
v 1088.334839 -77.755959 189.452576
v 1088.334839 -77.755959 212.344910
v 1088.847412 -76.809204 189.452576
v 1090.465576 -73.820335 189.452576
v 1090.465576 -73.820335 212.344910
v 1088.847412 -76.809204 212.344910
v 1090.978027 -72.873589 212.344910
v 1090.978027 -72.873589 189.452576
v 1091.787109 -71.379158 189.452576
v 1091.787109 -71.379158 212.344910
v 1092.299683 -70.432404 212.344910
v 1092.299683 -70.432404 189.452576
v 1094.726807 -65.949104 189.452576
v 1094.726807 -65.949104 212.344910
v 1095.239502 -65.002357 212.344910
v 1095.239502 -65.002357 189.452576
v 1096.048584 -63.507927 189.452576
v 1096.048584 -63.507927 212.344910
v 1096.561035 -62.561176 189.452576
v 1098.179199 -59.572308 189.452576
v 1098.179199 -59.572308 212.344910
v 1096.561035 -62.561176 212.344910
v 1098.691772 -58.625557 212.344910
v 1098.691772 -58.625557 189.452576
v 1099.500854 -57.131126 189.452576
v 1099.500854 -57.131126 212.344910
v 1094.573486 -54.073097 212.344910
v 1094.573486 -54.073097 189.452576
v 1093.078735 -53.264465 189.452576
v 1093.078735 -53.264465 212.344910
v 1096.967529 -55.368336 189.452576
v 1095.472900 -54.559696 189.452576
v 1095.472900 -54.559696 212.344910
v 1096.967529 -55.368336 212.344910
v 1099.361694 -56.663578 189.452576
v 1097.866943 -55.854939 189.452576
v 1097.866943 -55.854939 212.344910
v 1099.361694 -56.663578 212.344910
vt 0.000000 2.333330
vt 0.000000 0.000000
vt 0.250000 0.000000
vt 0.250000 2.333330
vt 0.000000 2.333330
vt 0.000000 0.000000
vt 0.500000 0.000000
vt 0.500000 2.333330
vt 0.000000 0.000000
vt 0.250000 0.000000
vt 0.250000 2.333330
vt 0.000000 2.333330
vt 0.000000 2.333330
vt 0.000000 0.000000
vt 0.750000 0.000000
vt 0.750000 2.333330
vt 0.000000 2.333330
vt 0.000000 0.000000
vt 0.250000 0.000000
vt 0.250000 2.333330
vt 0.000000 0.000000
vt 0.500000 0.000000
vt 0.500000 2.333330
vt 0.000000 2.333330
vt 0.000000 0.000000
vt 0.250000 0.000000
vt 0.250000 2.333330
vt 0.000000 2.333330
vt 0.000000 2.333330
vt 0.000000 0.000000
vt 0.250000 0.000000
vt 0.250000 2.333330
vt 0.000000 0.000000
vt 0.250000 0.000000
vt 0.250000 2.333330
vt 0.000000 2.333330
vt 0.000000 0.000000
vt 0.250000 0.000000
vt 0.250000 2.333330
vt 0.000000 2.333330
vt 0.000000 2.333330
vt 0.000000 0.000000
vt 0.250000 0.000000
vt 0.250000 2.333330
vt 0.000000 0.000000
vt 0.500000 0.000000
vt 0.500000 2.333330
vt 0.000000 2.333330
vt 0.000000 2.333330
vt 0.000000 0.000000
vt 0.250000 0.000000
vt 0.250000 2.333330
vt 0.000000 2.333330
vt 0.000000 0.000000
vt 0.750000 0.000000
vt 0.750000 2.333330
vt 0.000000 2.333330
vt 0.000000 0.000000
vt 0.250000 0.000000
vt 0.250000 2.333330
vt 0.000000 0.000000
vt 0.500000 0.000000
vt 0.500000 2.333330
vt 0.000000 2.333330
vt 0.000000 2.333330
vt 0.000000 0.000000
vt 0.250000 0.000000
vt 0.250000 2.333330
vt 0.000000 2.333330
vt 0.000000 0.000000
vt 0.250000 0.000000
vt 0.250000 2.333330
vt 0.000000 0.000000
vt 0.250000 0.000000
vt 0.250000 2.333330
vt 0.000000 2.333330
vt 0.000000 0.000000
vt 0.250000 0.000000
vt 0.250000 2.333330
vt 0.000000 2.333330
vn -0.8795 0.4760 0.0000
vn -0.8794 0.4760 0.0000
vn -0.8794 0.4761 0.0000
vn -0.4774 -0.8787 0.0000
vn -0.4773 -0.8787 0.0000
vn 0.8794 -0.4761 0.0000
vn 0.4759 0.8795 0.0000
vn 0.4758 0.8796 0.0000
s off
f 1/1/1 2/2/1 3/3/1
f 1/1/2 3/3/2 4/4/2
f 5/5/1 6/6/1 7/7/1
f 5/5/2 7/7/2 8/8/2
f 9/9/3 10/10/3 11/11/3
f 12/12/1 9/9/1 11/11/1
f 13/13/3 14/14/3 15/15/3
f 13/13/2 15/15/2 16/16/2
f 17/17/1 18/18/1 19/19/1
f 17/17/3 19/19/3 20/20/3
f 21/21/2 22/22/2 23/23/2
f 24/24/2 21/21/2 23/23/2
f 25/25/1 26/26/1 27/27/1
f 28/28/3 25/25/3 27/27/3
f 29/29/4 30/30/4 31/31/4
f 29/29/5 31/31/5 32/32/5
f 33/33/4 34/34/4 35/35/4
f 36/36/5 33/33/5 35/35/5
f 37/37/4 38/38/4 39/39/4
f 40/40/4 37/37/4 39/39/4
f 41/41/6 42/42/6 43/43/6
f 41/41/6 43/43/6 44/44/6
f 45/45/6 46/46/6 47/47/6
f 48/48/6 45/45/6 47/47/6
f 49/49/6 50/50/6 51/51/6
f 49/49/6 51/51/6 52/52/6
f 53/53/6 54/54/6 55/55/6
f 53/53/6 55/55/6 56/56/6
f 57/57/6 58/58/6 59/59/6
f 57/57/6 59/59/6 60/60/6
f 61/61/6 62/62/6 63/63/6
f 64/64/6 61/61/6 63/63/6
f 65/65/6 66/66/6 67/67/6
f 65/65/6 67/67/6 68/68/6
f 69/69/7 70/70/7 71/71/7
f 69/69/8 71/71/8 72/72/8
f 73/73/7 74/74/7 75/75/7
f 76/76/7 73/73/7 75/75/7
f 77/77/7 78/78/7 79/79/7
f 80/80/8 77/77/8 79/79/8
