# Blender v3.0.1 OBJ File: 'rockerfeller_plaza.blend'
# www.blender.org
o geometryt000010000010000110010110000110000110100000100100st74
v 367.405884 -225.268723 625.037964
v 367.405884 -225.268723 611.642944
v 364.165009 -231.273331 611.642944
v 364.165009 -231.273331 625.037964
v 368.758789 -222.762024 625.037964
v 368.758789 -222.762024 611.642944
v 367.948608 -224.263229 611.642944
v 367.948608 -224.263229 625.037964
v 370.111694 -220.255417 625.037964
v 370.111694 -220.255417 611.642944
v 369.301514 -221.756622 611.642944
v 369.301514 -221.756622 625.037964
v 373.895203 -213.245331 625.037964
v 373.895203 -213.245331 611.642944
v 370.654388 -219.250031 611.642944
v 370.654388 -219.250031 625.037964
v 365.048492 -232.141922 625.037964
v 365.048492 -232.141922 611.642944
v 368.051086 -233.761719 611.642944
v 368.051086 -233.761719 625.037964
v 369.262299 -234.023117 625.037964
v 369.262299 -234.023117 611.642944
v 372.503113 -228.018417 611.642944
v 372.503113 -228.018417 625.037964
v 373.045807 -227.012924 625.037964
v 373.045807 -227.012924 611.642944
v 373.855988 -225.511826 611.642944
v 373.855988 -225.511826 625.037964
v 374.398682 -224.506317 625.037964
v 374.398682 -224.506317 611.642944
v 375.208893 -223.005127 611.642944
v 375.208893 -223.005127 625.037964
v 375.751587 -221.999725 625.037964
v 375.751587 -221.999725 611.642944
v 378.992493 -215.995026 611.642944
v 378.992493 -215.995026 625.037964
v 378.109009 -215.126419 611.642944
v 375.106384 -213.506622 611.642944
v 375.106384 -213.506622 625.037964
v 378.109009 -215.126419 625.037964
vt 0.000000 1.000000
vt 0.000000 0.000000
vt 1.333330 0.000000
vt 1.333330 1.000000
vt 0.000000 1.000000
vt 0.000000 0.000000
vt 0.333330 0.000000
vt 0.333330 1.000000
vt 0.000000 1.000000
vt 0.000000 0.000000
vt 0.333330 0.000000
vt 0.333330 1.000000
vt 0.000000 1.000000
vt 0.000000 0.000000
vt 1.333330 0.000000
vt 1.333330 1.000000
vt 0.000000 1.000000
vt 0.000000 0.000000
vt 0.666670 0.000000
vt 0.666670 1.000000
vt 0.000000 1.000000
vt 0.000000 0.000000
vt 1.333330 0.000000
vt 1.333330 1.000000
vt 0.000000 1.000000
vt 0.000000 0.000000
vt 0.333330 0.000000
vt 0.333330 1.000000
vt 0.000000 1.000000
vt 0.000000 0.000000
vt 0.333330 0.000000
vt 0.333330 1.000000
vt 0.000000 1.000000
vt 0.000000 0.000000
vt 1.333330 0.000000
vt 1.333330 1.000000
vt 0.000000 0.000000
vt 0.666670 0.000000
vt 0.666670 1.000000
vt 0.000000 1.000000
vn -0.8800 0.4750 0.0000
vn -0.8800 0.4749 0.0000
vn -0.4748 -0.8801 0.0000
vn 0.8800 -0.4749 0.0000
vn 0.8800 -0.4750 0.0000
vn 0.4748 0.8801 0.0000
s off
f 1/1/1 2/2/1 3/3/1
f 1/1/1 3/3/1 4/4/1
f 5/5/2 6/6/2 7/7/2
f 5/5/2 7/7/2 8/8/2
f 9/9/2 10/10/2 11/11/2
f 9/9/2 11/11/2 12/12/2
f 13/13/1 14/14/1 15/15/1
f 13/13/2 15/15/2 16/16/2
f 17/17/3 18/18/3 19/19/3
f 17/17/3 19/19/3 20/20/3
f 21/21/4 22/22/4 23/23/4
f 21/21/5 23/23/5 24/24/5
f 25/25/4 26/26/4 27/27/4
f 25/25/5 27/27/5 28/28/5
f 29/29/4 30/30/4 31/31/4
f 29/29/5 31/31/5 32/32/5
f 33/33/5 34/34/5 35/35/5
f 33/33/5 35/35/5 36/36/5
f 37/37/6 38/38/6 39/39/6
f 40/40/6 37/37/6 39/39/6
