# Blender v3.0.1 OBJ File: 'rockerfeller_plaza.blend'
# www.blender.org
o geometryt000010000010000110010110000110000110100000000110st20
v 742.419678 -127.178185 103.645294
v 750.615906 -111.928085 103.645294
v 754.829407 -114.199387 103.645294
v 742.757996 -136.644485 103.645294
v 738.544678 -134.384384 103.645294
v 742.419678 -127.178185 120.745300
v 738.544678 -134.384384 120.745300
v 742.757996 -136.644485 120.745300
v 754.829407 -114.199387 120.745300
v 750.615906 -111.928085 120.745300
vt 0.153420 0.491520
vt 0.123060 0.508400
vt 0.125860 0.516840
vt 0.170540 0.491980
vt 0.167770 0.483540
vt 0.153420 0.491520
vt 0.167770 0.483540
vt 0.170540 0.491980
vt 0.125860 0.516840
vt 0.123060 0.508400
vn -0.0000 0.0000 -1.0000
vn 0.0000 0.0000 1.0000
s off
f 1/1/1 2/2/1 3/3/1
f 4/4/1 1/1/1 3/3/1
f 5/5/1 1/1/1 4/4/1
f 6/6/2 7/7/2 8/8/2
f 6/6/2 8/8/2 9/9/2
f 10/10/2 6/6/2 9/9/2
