# Blender v3.0.1 OBJ File: 'rockerfeller_plaza.blend'
# www.blender.org
o geometryt000010000010000110010110000110000110100000010110st42
v 1133.169800 -106.254875 189.168747
v 1146.347046 -113.387779 189.168747
v 1146.347046 -113.387779 255.078842
v 1133.169800 -106.254875 255.078842
v 1135.803101 -99.648476 189.168747
v 1133.204590 -104.437675 189.168747
v 1133.204590 -104.437675 255.078842
v 1135.803101 -99.648476 255.078842
v 1136.574341 -98.227104 189.168747
v 1135.924805 -99.424400 189.168747
v 1135.924805 -99.424400 255.078842
v 1136.574341 -98.227104 255.078842
v 1137.995117 -95.608444 255.078842
v 1137.995117 -95.608444 189.168747
v 1136.695923 -98.003029 189.168747
v 1136.695923 -98.003029 255.078842
v 1138.766357 -94.187080 255.078842
v 1138.766357 -94.187080 189.168747
v 1138.116699 -95.384354 189.168747
v 1138.116699 -95.384354 255.078842
v 1140.187256 -91.568405 189.168747
v 1138.887939 -93.962990 189.168747
v 1138.887939 -93.962990 255.078842
v 1140.187256 -91.568405 255.078842
v 1141.608032 -88.949745 255.078842
v 1141.608032 -88.949745 189.168747
v 1140.308838 -91.344330 189.168747
v 1140.308838 -91.344330 255.078842
v 1142.379272 -87.528374 255.078842
v 1142.379272 -87.528374 189.168747
v 1141.729614 -88.725670 189.168747
v 1141.729614 -88.725670 255.078842
v 1143.800171 -84.909714 189.168747
v 1142.500854 -87.304291 189.168747
v 1142.500854 -87.304291 255.078842
v 1143.800171 -84.909714 255.078842
v 1144.557617 -83.513809 255.078842
v 1144.571289 -83.488335 189.168747
v 1143.921753 -84.685631 189.168747
v 1144.571289 -83.488335 255.078842
v 1143.921753 -84.685631 255.078842
v 1147.291504 -78.475098 255.078842
v 1147.291504 -78.475098 189.168747
v 1144.692993 -83.264259 189.168747
v 1144.692993 -83.264259 255.078842
v 1147.220337 -113.468178 189.168747
v 1149.814697 -108.676781 189.168747
v 1149.814697 -108.676781 255.078842
v 1147.220337 -113.468178 255.078842
v 1149.919434 -108.483078 255.078842
v 1149.919434 -108.483078 189.168747
v 1150.568115 -107.285278 189.168747
v 1150.568115 -107.285278 255.078842
v 1150.672974 -107.091576 189.168747
v 1151.970093 -104.695877 189.168747
v 1151.970093 -104.695877 255.078842
v 1150.672974 -107.091576 255.078842
v 1152.074951 -104.502274 255.078842
v 1152.074951 -104.502274 189.168747
v 1152.723389 -103.304375 189.168747
v 1152.723389 -103.304375 255.078842
v 1152.828369 -103.110779 189.168747
v 1154.125488 -100.715080 189.168747
v 1154.125488 -100.715080 255.078842
v 1152.828369 -103.110779 255.078842
v 1154.230347 -100.521378 255.078842
v 1154.230347 -100.521378 189.168747
v 1154.878906 -99.323524 189.168747
v 1154.878906 -99.323524 255.078842
v 1154.983765 -99.129890 189.168747
v 1156.281006 -96.734177 189.168747
v 1156.281006 -96.734177 255.078842
v 1154.983765 -99.129890 255.078842
v 1156.385742 -96.540527 189.168747
v 1157.034302 -95.342674 189.168747
v 1157.034302 -95.342674 255.078842
v 1156.385742 -96.540527 255.078842
v 1157.139160 -95.149040 255.078842
v 1157.139160 -95.149040 189.168747
v 1158.436401 -92.753319 189.168747
v 1158.436401 -92.753319 255.078842
v 1158.541138 -92.559677 189.168747
v 1159.189697 -91.361816 189.168747
v 1159.189697 -91.361816 255.078842
v 1158.541138 -92.559677 255.078842
v 1159.294678 -91.168175 189.168747
v 1161.888916 -86.376740 189.168747
v 1161.888916 -86.376740 255.078842
v 1159.294678 -91.168175 255.078842
v 1151.007568 -80.165619 255.078842
v 1151.007568 -80.165619 189.168747
v 1148.624634 -78.845100 189.168747
v 1148.624634 -78.845100 255.078842
v 1153.352661 -81.422974 189.168747
v 1152.150146 -80.783051 189.168747
v 1152.150146 -80.783051 255.078842
v 1153.352661 -81.422974 255.078842
v 1157.229126 -83.510307 255.078842
v 1157.229126 -83.510307 189.168747
v 1154.831787 -82.216049 189.168747
v 1154.831787 -82.216049 255.078842
v 1159.900757 -84.915756 255.078842
v 1159.900757 -84.915756 189.168747
v 1158.692383 -84.286819 189.168747
v 1158.692383 -84.286819 255.078842
v 1161.750488 -85.907990 255.078842
v 1161.750488 -85.907990 189.168747
v 1160.903198 -85.445274 189.168747
v 1160.903198 -85.445274 255.078842
vt 0.000000 0.000000
vt 3.666670 0.000000
vt 3.666670 21.000000
vt 0.000000 21.000000
vt 0.000000 0.000000
vt 1.333330 0.000000
vt 1.333330 21.000000
vt 0.000000 21.000000
vt 0.000000 0.000000
vt 0.333330 0.000000
vt 0.333330 21.000000
vt 0.000000 21.000000
vt 0.000000 21.000000
vt 0.000000 0.000000
vt 0.666670 0.000000
vt 0.666670 21.000000
vt 0.000000 21.000000
vt 0.000000 0.000000
vt 0.333330 0.000000
vt 0.333330 21.000000
vt 0.000000 0.000000
vt 0.666670 0.000000
vt 0.666670 21.000000
vt 0.000000 21.000000
vt 0.000000 21.000000
vt 0.000000 0.000000
vt 0.666670 0.000000
vt 0.666670 21.000000
vt 0.000000 21.000000
vt 0.000000 0.000000
vt 0.333330 0.000000
vt 0.333330 21.000000
vt 0.000000 0.000000
vt 0.666670 0.000000
vt 0.666670 21.000000
vt 0.000000 21.000000
vt 0.007090 21.000000
vt 0.000000 0.000000
vt 0.333330 0.000000
vt 0.333330 21.000000
vt 0.000000 21.000000
vt 0.000000 0.000000
vt 1.333330 0.000000
vt 1.333330 21.000000
vt 0.000000 0.000000
vt 1.333330 0.000000
vt 1.333330 21.000000
vt 0.000000 21.000000
vt 0.000000 21.000000
vt 0.000000 0.000000
vt 0.333330 0.000000
vt 0.333330 21.000000
vt 0.000000 0.000000
vt 0.666670 0.000000
vt 0.666670 21.000000
vt 0.000000 21.000000
vt 0.000000 21.000000
vt 0.000000 0.000000
vt 0.333330 0.000000
vt 0.333330 21.000000
vt 0.000000 0.000000
vt 0.666670 0.000000
vt 0.666670 21.000000
vt 0.000000 21.000000
vt 0.000000 21.000000
vt 0.000000 0.000000
vt 0.333330 0.000000
vt 0.333330 21.000000
vt 0.000000 0.000000
vt 0.666670 0.000000
vt 0.666670 21.000000
vt 0.000000 21.000000
vt 0.000000 0.000000
vt 0.333330 0.000000
vt 0.333330 21.000000
vt 0.000000 21.000000
vt 0.000000 21.000000
vt 0.000000 0.000000
vt 0.666670 0.000000
vt 0.666670 21.000000
vt 0.000000 0.000000
vt 0.333330 0.000000
vt 0.333330 21.000000
vt 0.000000 21.000000
vt 0.000000 0.000000
vt 1.333330 0.000000
vt 1.333330 21.000000
vt 0.000000 21.000000
vt 0.000000 21.000000
vt 0.000000 0.000000
vt 0.666670 0.000000
vt 0.666670 21.000000
vt 0.000000 0.000000
vt 0.333330 0.000000
vt 0.333330 21.000000
vt 0.000000 21.000000
vt 0.000000 21.000000
vt 0.000000 0.000000
vt 0.666670 0.000000
vt 0.666670 21.000000
vt 0.000000 21.000000
vt 0.000000 0.000000
vt 0.333330 0.000000
vt 0.333330 21.000000
vt 0.000000 21.000000
vt 0.000000 0.000000
vt 0.333330 0.000000
vt 0.333330 21.000000
vt 0.000000 21.000000
vn -0.4760 -0.8794 0.0000
vn -0.8790 0.4769 0.0000
vn -0.8791 0.4767 0.0000
vn -0.8789 0.4770 0.0000
vn -0.8789 0.4769 0.0000
vn 0.8794 -0.4761 0.0000
vn 0.8793 -0.4762 0.0000
vn 0.8793 -0.4763 0.0000
vn 0.8794 -0.4762 0.0000
vn 0.8794 -0.4760 0.0000
vn 0.4847 0.8747 0.0000
vn 0.4697 0.8828 0.0000
vn 0.4698 0.8828 0.0000
vn 0.4751 0.8799 0.0000
vn 0.4750 0.8800 0.0000
vn 0.4617 0.8870 0.0000
vn 0.4616 0.8871 0.0000
vn 0.4793 0.8776 0.0000
vn -0.8795 0.4759 -0.0000
s off
f 1/1/1 2/2/1 3/3/1
f 4/4/1 1/1/1 3/3/1
f 5/5/2 6/6/2 7/7/2
f 8/8/2 5/5/2 7/7/2
f 9/9/3 10/10/3 11/11/3
f 12/12/4 9/9/4 11/11/4
f 13/13/5 14/14/5 15/15/5
f 13/13/2 15/15/2 16/16/2
f 17/17/2 18/18/2 19/19/2
f 17/17/2 19/19/2 20/20/2
f 21/21/5 22/22/5 23/23/5
f 24/24/5 21/21/5 23/23/5
f 25/25/2 26/26/2 27/27/2
f 25/25/2 27/27/2 28/28/2
f 29/29/4 30/30/4 31/31/4
f 29/29/2 31/31/2 32/32/2
f 33/33/2 34/34/2 35/35/2
f 36/36/5 33/33/5 35/35/5
f 37/37/3 38/38/3 39/39/3
f 37/37/4 39/39/4 41/40/4
f 42/41/5 43/42/5 44/43/5
f 42/41/2 44/43/2 45/44/2
f 46/45/6 47/46/6 48/47/6
f 49/48/7 46/45/7 48/47/7
f 50/49/8 51/50/8 52/51/8
f 50/49/9 52/51/9 53/52/9
f 54/53/9 55/54/9 56/55/9
f 57/56/6 54/53/6 56/55/6
f 58/57/6 59/58/6 60/59/6
f 58/57/10 60/59/10 61/60/10
f 62/61/9 63/62/9 64/63/9
f 65/64/6 62/61/6 64/63/6
f 66/65/8 67/66/8 68/67/8
f 66/65/10 68/67/10 69/68/10
f 70/69/7 71/70/7 72/71/7
f 73/72/6 70/69/6 72/71/6
f 74/73/9 75/74/9 76/75/9
f 77/76/9 74/73/9 76/75/9
f 78/77/7 79/78/7 80/79/7
f 78/77/9 80/79/9 81/80/9
f 82/81/10 83/82/10 84/83/10
f 85/84/8 82/81/8 84/83/8
f 86/85/6 87/86/6 88/87/6
f 89/88/9 86/85/9 88/87/9
f 90/89/11 91/90/11 92/91/11
f 90/89/11 92/91/11 93/92/11
f 94/93/12 95/94/12 96/95/12
f 97/96/13 94/93/13 96/95/13
f 98/97/14 99/98/14 100/99/14
f 98/97/15 100/99/15 101/100/15
f 102/101/16 103/102/16 104/103/16
f 102/101/17 104/103/17 105/104/17
f 106/105/18 107/106/18 108/107/18
f 106/105/18 108/107/18 109/108/18
s 1
f 40/109/19 38/38/19 37/37/19
