# Blender v3.0.1 OBJ File: 'rockerfeller_plaza.blend'
# www.blender.org
o geometryt000010000010000110010110000110000110100000110010st25
v 1245.520752 -174.505142 463.109497
v 1245.360107 -174.810440 501.167847
v 1245.520752 -174.505142 501.167847
v 1246.959106 -171.771744 463.109497
v 1245.360107 -174.810440 458.767853
v 1246.959106 -171.771744 501.167847
v 1247.057739 -171.584335 501.167847
v 1247.057739 -171.584335 463.109497
v 1248.496094 -168.850937 463.109497
v 1248.496094 -168.850937 501.167847
v 1248.594604 -168.663544 501.167847
v 1248.594604 -168.663544 463.109497
v 1249.313843 -167.296844 463.109497
v 1249.313843 -167.296844 501.167847
v 1249.412354 -167.109543 501.167847
v 1249.412354 -167.109543 463.109497
v 1251.569946 -163.009338 463.109497
v 1251.569946 -163.009338 501.167847
v 1251.668457 -162.822037 501.167847
v 1251.668457 -162.822037 463.109497
v 1253.106934 -160.088638 463.109497
v 1253.106934 -160.088638 501.167847
v 1253.205444 -159.901245 501.167847
v 1253.205444 -159.901245 463.109497
v 1259.415283 -148.100143 458.767853
v 1255.363037 -155.801132 463.109497
v 1255.363037 -155.801132 501.167847
v 1255.461670 -155.613739 501.167847
v 1255.461670 -155.613739 463.109497
v 1256.180664 -154.247040 463.109497
v 1256.180664 -154.247040 501.167847
v 1256.279297 -154.059631 501.167847
v 1256.279297 -154.059631 463.109497
v 1257.717773 -151.326233 463.109497
v 1257.717773 -151.326233 501.167847
v 1257.816284 -151.138840 501.167847
v 1257.816284 -151.138840 463.109497
v 1259.254639 -148.405441 463.109497
v 1259.254639 -148.405441 501.167847
v 1259.415283 -148.100143 501.167847
v 1263.300781 -184.250336 463.109497
v 1263.606201 -184.410934 501.167847
v 1263.300781 -184.250336 501.167847
v 1260.567383 -182.812042 463.109497
v 1263.606201 -184.410934 458.767853
v 1260.567383 -182.812042 501.167847
v 1260.133789 -182.583939 501.167847
v 1260.133789 -182.583939 463.109497
v 1257.400391 -181.145645 463.109497
v 1257.400391 -181.145645 501.167847
v 1256.966797 -180.917542 501.167847
v 1256.966797 -180.917542 463.109497
v 1255.600098 -180.198441 463.109497
v 1255.600098 -180.198441 501.167847
v 1255.166504 -179.970245 501.167847
v 1255.166504 -179.970245 463.109497
v 1253.799805 -179.251144 463.109497
v 1245.360107 -174.810440 458.767853
v 1253.799805 -179.251144 501.167847
v 1253.366211 -179.023041 501.167847
v 1253.366211 -179.023041 463.109497
v 1251.999512 -178.303940 463.109497
v 1251.999512 -178.303940 501.167847
v 1251.565918 -178.075745 501.167847
v 1251.565918 -178.075745 463.109497
v 1248.832520 -176.637543 463.109497
v 1248.832520 -176.637543 501.167847
v 1248.398926 -176.409332 501.167847
v 1248.398926 -176.409332 463.109497
v 1245.665405 -174.971146 463.109497
v 1245.665405 -174.971146 501.167847
v 1245.360107 -174.810440 501.167847
v 1259.718140 -148.265442 463.109497
v 1259.412842 -148.104843 501.167847
v 1259.718140 -148.265442 501.167847
v 1262.451660 -149.703445 463.109497
v 1262.445801 -149.700333 458.767853
v 1259.412842 -148.104843 458.767853
v 1262.451660 -149.703445 501.167847
v 1262.885254 -149.931534 501.167847
v 1262.885254 -149.931534 463.109497
v 1265.618896 -151.369537 463.109497
v 1265.618896 -151.369537 501.167847
v 1266.052490 -151.597534 501.167847
v 1266.052490 -151.597534 463.109497
v 1267.620850 -152.422638 458.767853
v 1267.419312 -152.316544 463.109497
v 1267.419312 -152.316544 501.167847
v 1267.620850 -152.422638 501.167847
v 1267.852905 -152.544632 463.109497
v 1267.852905 -152.544632 501.167847
v 1269.219727 -153.263641 463.109497
v 1269.219727 -153.263641 501.167847
v 1269.653198 -153.491745 501.167847
v 1269.653198 -153.491745 463.109497
v 1271.020020 -154.210739 463.109497
v 1272.664673 -155.075836 458.767853
v 1271.020020 -154.210739 501.167847
v 1271.453613 -154.438736 501.167847
v 1271.453613 -154.438736 463.109497
v 1274.187256 -155.876740 463.109497
v 1274.187256 -155.876740 501.167847
v 1274.620850 -156.104843 501.167847
v 1274.620850 -156.104843 463.109497
v 1277.354370 -157.542831 463.109497
v 1277.659668 -157.703445 458.767853
v 1277.354370 -157.542831 501.167847
v 1277.659668 -157.703445 501.167847
v 1277.500610 -158.005936 463.109497
v 1277.661133 -157.700546 501.167847
v 1277.500610 -158.005936 501.167847
v 1276.062256 -160.739334 463.109497
v 1277.661133 -157.700546 458.767853
v 1276.062256 -160.739334 501.167847
v 1275.963623 -160.926636 501.167847
v 1275.963623 -160.926636 463.109497
v 1274.525269 -163.660141 463.109497
v 1274.525269 -163.660141 501.167847
v 1274.426758 -163.847443 501.167847
v 1274.426758 -163.847443 463.109497
v 1273.707642 -165.214142 463.109497
v 1273.707642 -165.214142 501.167847
v 1273.609009 -165.401535 501.167847
v 1273.609009 -165.401535 463.109497
v 1271.451538 -169.501740 463.109497
v 1271.451538 -169.501740 501.167847
v 1271.352905 -169.689041 501.167847
v 1271.352905 -169.689041 463.109497
v 1269.914551 -172.422440 463.109497
v 1269.914551 -172.422440 501.167847
v 1269.815918 -172.609833 501.167847
v 1269.815918 -172.609833 463.109497
v 1263.606201 -184.410934 458.767853
v 1267.658447 -176.709946 463.109497
v 1267.658447 -176.709946 501.167847
v 1267.559814 -176.897339 501.167847
v 1267.559814 -176.897339 463.109497
v 1266.840698 -178.264038 463.109497
v 1266.840698 -178.264038 501.167847
v 1266.742065 -178.451447 501.167847
v 1266.742065 -178.451447 463.109497
v 1265.303711 -181.184845 463.109497
v 1265.303711 -181.184845 501.167847
v 1265.205200 -181.372238 501.167847
v 1265.205200 -181.372238 463.109497
v 1263.766846 -184.105637 463.109497
v 1263.766846 -184.105637 501.167847
v 1263.606201 -184.410934 501.167847
vt 160.417206 23.342270
vt 162.272003 227.957001
vt 160.417206 227.957001
vt 143.810898 23.342270
vt 162.272003 0.000000
vt 143.810898 227.957001
vt 142.672607 227.957001
vt 142.672607 23.342270
vt 126.066399 23.342270
vt 126.066399 227.957001
vt 124.928101 227.957001
vt 124.928101 23.342270
vt 116.625000 23.342270
vt 116.625000 227.957001
vt 115.486801 227.957001
vt 115.486801 23.342270
vt 90.577377 23.342270
vt 90.577377 227.957001
vt 89.439140 227.957001
vt 89.439140 23.342270
vt 72.832870 23.342270
vt 72.832870 227.957001
vt 71.694618 227.957001
vt 71.694618 23.342270
vt 0.000000 0.000000
vt 46.785240 23.342270
vt 46.785240 227.957001
vt 45.646980 227.957001
vt 45.646980 23.342270
vt 37.343861 23.342270
vt 37.343861 227.957001
vt 36.205601 227.957001
vt 36.205601 23.342270
vt 19.599350 23.342270
vt 19.599350 227.957001
vt 18.461090 227.957001
vt 18.461090 23.342270
vt 1.854840 23.342270
vt 1.854840 227.957001
vt 0.000000 227.957001
vt 108.992699 23.342270
vt 110.847603 227.957001
vt 108.992699 227.957001
vt 92.386467 23.342270
vt 110.847603 0.000000
vt 92.386467 227.957001
vt 89.752571 227.957001
vt 89.752571 23.342270
vt 73.146301 23.342270
vt 73.146301 227.957001
vt 70.512390 227.957001
vt 70.512390 23.342270
vt 62.209259 23.342270
vt 62.209259 227.957001
vt 59.575352 227.957001
vt 59.575352 23.342270
vt 51.272221 23.342270
vt 0.000000 0.000000
vt 51.272221 227.957001
vt 48.638309 227.957001
vt 48.638309 23.342270
vt 40.335178 23.342270
vt 40.335178 227.957001
vt 37.701260 227.957001
vt 37.701260 23.342270
vt 21.095011 23.342270
vt 21.095011 227.957001
vt 18.461090 227.957001
vt 18.461090 23.342270
vt 1.854840 23.342270
vt 1.854840 227.957001
vt 0.000000 227.957001
vt 108.992401 23.342270
vt 110.847298 227.957001
vt 108.992401 227.957001
vt 92.386169 23.342270
vt 92.422112 0.000000
vt 110.847298 0.000000
vt 92.386169 227.957001
vt 89.752296 227.957001
vt 89.752296 23.342270
vt 73.146049 23.342270
vt 73.146049 227.957001
vt 70.512177 227.957001
vt 70.512177 23.342270
vt 60.984280 0.000000
vt 62.209061 227.957001
vt 60.984280 227.957001
vt 62.209061 23.342270
vt 59.575199 23.342270
vt 59.575199 227.957001
vt 51.272072 23.342270
vt 48.638199 23.342270
vt 40.335079 23.342270
vt 30.343990 0.000000
vt 40.335079 227.957001
vt 37.701210 227.957001
vt 37.701210 23.342270
vt 21.094959 23.342270
vt 21.094959 227.957001
vt 18.461090 227.957001
vt 18.461090 23.342270
vt 1.854840 23.342270
vt 0.000000 0.000000
vt 1.854840 227.957001
vt 0.000000 227.957001
vt 160.417206 23.342270
vt 162.272003 227.957001
vt 160.417206 227.957001
vt 143.811005 23.342270
vt 162.272003 0.000000
vt 143.811005 227.957001
vt 142.672699 227.957001
vt 142.672699 23.342270
vt 126.066399 23.342270
vt 126.066399 227.957001
vt 124.928200 227.957001
vt 124.928200 23.342270
vt 116.625099 23.342270
vt 116.625099 227.957001
vt 115.486801 227.957001
vt 115.486801 23.342270
vt 90.577431 23.342270
vt 90.577431 227.957001
vt 89.439171 227.957001
vt 89.439171 23.342270
vt 72.832901 23.342270
vt 72.832901 227.957001
vt 71.694641 227.957001
vt 71.694641 23.342270
vt 0.000000 0.000000
vt 46.785259 23.342270
vt 46.785259 227.957001
vt 45.646999 227.957001
vt 45.646999 23.342270
vt 37.343868 23.342270
vt 37.343868 227.957001
vt 36.205608 227.957001
vt 36.205608 23.342270
vt 19.599350 23.342270
vt 19.599350 227.957001
vt 18.461090 227.957001
vt 18.461090 23.342270
vt 1.854840 23.342270
vt 1.854840 227.957001
vt 0.000000 227.957001
vt 51.272072 227.957001
vt 48.638199 227.957001
vn -0.8849 0.4659 0.0000
vn -0.8849 0.4657 -0.0000
vn -0.8851 0.4655 0.0000
vn -0.8850 0.4657 0.0000
vn -0.8847 0.4661 0.0000
vn -0.8847 0.4661 -0.0001
vn -0.8850 0.4656 0.0000
vn -0.8845 0.4666 0.0000
vn -0.8855 0.4646 0.0000
vn -0.8849 0.4657 -0.0001
vn -0.8854 0.4648 0.0000
vn -0.8845 0.4664 0.0004
vn -0.8846 0.4663 0.0000
vn -0.8853 0.4649 0.0000
vn -0.8851 0.4654 0.0000
vn -0.8847 0.4662 0.0000
vn -0.8847 0.4662 0.0001
vn -0.8850 0.4656 -0.0002
vn -0.8850 0.4656 0.0002
vn -0.8849 0.4657 0.0001
vn -0.8851 0.4654 -0.0004
vn -0.4656 -0.8850 0.0000
vn -0.4654 -0.8851 0.0000
vn -0.4657 -0.8849 0.0001
vn -0.4657 -0.8850 0.0001
vn -0.4658 -0.8849 0.0000
vn -0.4657 -0.8850 -0.0003
vn -0.4657 -0.8850 -0.0002
vn -0.4657 -0.8850 0.0002
vn -0.4657 -0.8850 -0.0000
vn -0.4661 -0.8848 0.0000
vn 0.4654 0.8851 0.0000
vn 0.4656 0.8850 0.0000
vn 0.4655 0.8850 -0.0000
vn 0.4658 0.8849 0.0000
vn 0.4657 0.8849 0.0000
vn 0.4655 0.8851 0.0000
vn 0.4654 0.8851 -0.0001
vn 0.4651 0.8852 0.0000
vn 0.4659 0.8848 -0.0001
vn 0.4653 0.8851 -0.0000
vn 0.8854 -0.4648 0.0000
vn 0.8850 -0.4656 -0.0000
vn 0.8848 -0.4660 -0.0000
vn 0.8851 -0.4653 0.0001
vn 0.8846 -0.4663 0.0000
vn 0.8847 -0.4662 0.0011
vn 0.8849 -0.4657 0.0000
vn 0.8847 -0.4662 0.0000
vn 0.8851 -0.4654 0.0000
vn 0.8851 -0.4654 -0.0001
vn 0.8849 -0.4657 -0.0001
vn 0.8851 -0.4654 0.0010
vn 0.8850 -0.4657 -0.0000
vn 0.8851 -0.4654 0.0001
vn 0.8847 -0.4661 0.0000
vn 0.8845 -0.4664 0.0003
vn 0.8845 -0.4666 0.0000
vn 0.8852 -0.4651 0.0000
vn -0.8853 0.4650 0.0001
vn -0.8851 0.4654 0.0005
vn -0.8849 0.4657 -0.0002
vn 0.8849 -0.4657 -0.0002
vn 0.8853 -0.4650 -0.0001
s off
f 1/1/1 2/2/1 3/3/1
f 4/4/2 5/5/2 1/1/2
f 2/2/3 1/1/3 5/5/3
f 6/6/4 7/7/4 4/4/4
f 7/7/5 8/8/5 4/4/5
f 8/8/6 5/5/6 4/4/6
f 8/8/7 9/9/7 5/5/7
f 10/10/8 11/11/8 9/9/8
f 11/11/9 12/12/9 9/9/9
f 12/12/10 13/13/10 5/5/10
f 14/14/11 15/15/11 13/13/11
f 15/15/7 16/16/7 13/13/7
f 13/13/12 16/16/12 5/5/12
f 16/16/4 17/17/4 5/5/4
f 18/18/11 19/19/11 17/17/11
f 19/19/13 20/20/13 17/17/13
f 20/20/10 21/21/10 5/5/10
f 22/22/2 23/23/2 21/21/2
f 23/23/14 24/24/14 21/21/14
f 21/21/4 25/25/4 5/5/4
f 26/26/4 25/25/4 24/24/4
f 27/27/15 28/28/15 26/26/15
f 28/28/16 29/29/16 26/26/16
f 29/29/17 25/25/17 26/26/17
f 30/30/18 25/25/18 29/29/18
f 31/31/15 32/32/15 30/30/15
f 32/32/5 33/33/5 30/30/5
f 33/33/19 25/25/19 30/30/19
f 34/34/20 25/25/20 33/33/20
f 35/35/15 36/36/15 34/34/15
f 36/36/9 37/37/9 34/34/9
f 37/37/21 25/25/21 34/34/21
f 38/38/2 25/25/2 37/37/2
f 39/39/1 40/40/1 38/38/1
f 40/40/3 25/25/3 38/38/3
f 41/41/22 42/42/22 43/43/22
f 44/44/22 45/45/22 41/41/22
f 42/42/23 41/41/23 45/45/23
f 46/46/22 47/47/22 44/44/22
f 47/47/22 48/48/22 44/44/22
f 48/48/24 45/45/24 44/44/24
f 48/48/22 49/49/22 45/45/22
f 50/50/22 51/51/22 49/49/22
f 51/51/22 52/52/22 49/49/22
f 49/49/25 52/52/25 45/45/25
f 52/52/22 53/53/22 45/45/22
f 54/54/26 55/55/26 53/53/26
f 55/55/26 56/56/26 53/53/26
f 53/53/27 56/56/27 45/45/27
f 57/57/22 58/58/22 56/56/22
f 56/56/22 58/58/22 45/45/22
f 59/59/22 60/60/22 57/57/22
f 60/60/22 61/61/22 57/57/22
f 61/61/28 58/58/28 57/57/28
f 62/62/22 58/58/22 61/61/22
f 63/63/26 64/64/26 62/62/26
f 64/64/26 65/65/26 62/62/26
f 65/65/29 58/58/29 62/62/29
f 66/66/30 58/58/30 65/65/30
f 67/67/26 68/68/26 66/66/26
f 68/68/26 69/69/26 66/66/26
f 69/69/25 58/58/25 66/66/25
f 70/70/22 58/58/22 69/69/22
f 71/71/22 72/72/22 70/70/22
f 72/72/31 58/58/31 70/70/31
f 73/73/32 74/74/32 75/75/32
f 76/76/33 77/77/33 73/73/33
f 77/77/34 78/78/34 73/73/34
f 74/74/35 73/73/35 78/78/35
f 79/79/33 80/80/33 76/76/33
f 80/80/33 81/81/33 76/76/33
f 76/76/36 81/81/36 77/77/36
f 77/77/34 81/81/34 82/82/34
f 83/83/36 84/84/36 82/82/36
f 84/84/37 85/85/37 82/82/37
f 86/86/38 82/82/38 85/85/38
f 77/77/33 82/82/33 86/86/33
f 88/87/35 89/88/35 87/89/35
f 89/88/32 90/90/32 87/89/32
f 86/86/34 87/89/34 90/90/34
f 89/88/39 91/91/39 90/90/39
f 86/86/34 90/90/34 92/92/34
f 86/86/40 92/92/40 95/93/40
f 95/93/33 96/94/33 97/95/33
f 86/86/34 95/93/34 97/95/34
f 98/96/37 99/97/37 96/94/37
f 99/97/36 100/98/36 96/94/36
f 96/94/41 100/98/41 97/95/41
f 100/98/34 101/99/34 97/95/34
f 102/100/33 103/101/33 101/99/33
f 103/101/33 104/102/33 101/99/33
f 101/99/34 104/102/34 97/95/34
f 105/103/34 106/104/34 104/102/34
f 104/102/33 106/104/33 97/95/33
f 107/105/32 108/106/32 105/103/32
f 108/106/35 106/104/35 105/103/35
f 109/107/42 110/108/42 111/109/42
f 112/110/43 113/111/43 109/107/43
f 114/112/44 115/113/44 112/110/44
f 115/113/43 116/114/43 112/110/43
f 116/114/45 113/111/45 112/110/45
f 116/114/43 117/115/43 113/111/43
f 118/116/42 119/117/42 117/115/42
f 119/117/46 120/118/46 117/115/46
f 117/115/47 120/118/47 113/111/47
f 120/118/48 121/119/48 113/111/48
f 122/120/49 123/121/49 121/119/49
f 123/121/50 124/122/50 121/119/50
f 121/119/51 124/122/51 113/111/51
f 124/122/43 125/123/43 113/111/43
f 126/124/46 127/125/46 125/123/46
f 127/125/43 128/126/43 125/123/43
f 128/126/52 129/127/52 113/111/52
f 130/128/50 131/129/50 129/127/50
f 131/129/49 132/130/49 129/127/49
f 132/130/53 133/131/53 129/127/53
f 129/127/54 133/131/54 113/111/54
f 134/132/54 133/131/54 132/130/54
f 135/133/50 136/134/50 134/132/50
f 136/134/49 137/135/49 134/132/49
f 137/135/55 133/131/55 134/132/55
f 138/136/48 133/131/48 137/135/48
f 139/137/56 140/138/56 138/136/56
f 140/138/50 141/139/50 138/136/50
f 141/139/57 133/131/57 138/136/57
f 142/140/43 133/131/43 141/139/43
f 143/141/58 144/142/58 142/140/58
f 144/142/59 145/143/59 142/140/59
f 146/144/48 133/131/48 145/143/48
f 147/145/48 148/146/48 146/144/48
f 148/146/56 133/131/56 146/144/56
s 1
f 9/9/60 12/12/60 5/5/60
f 17/17/61 20/20/61 5/5/61
f 24/24/62 25/25/62 21/21/62
f 86/86/33 85/85/33 87/89/33
f 93/147/32 94/148/37 92/92/35
f 94/148/37 95/93/35 92/92/35
f 110/108/44 109/107/44 113/111/44
f 125/123/63 128/126/63 113/111/63
f 145/143/64 133/131/64 142/140/64
