# Blender v3.0.1 OBJ File: 'rockerfeller_plaza.blend'
# www.blender.org
o geometryt000010000010000110010110000110000110100100000010st159
v 574.201904 -43.985470 930.906555
v 577.185242 -38.455158 930.906555
v 600.505981 -51.040249 930.906555
v 597.522766 -56.581676 930.906555
v 574.201904 -43.985470 957.506531
v 597.522766 -56.581676 957.506531
v 600.505981 -51.040249 957.506531
v 577.185242 -38.455158 957.506531
vt 0.058570 0.135030
vt 0.047560 0.141170
vt 0.063050 0.187880
vt 0.074080 0.181740
vt 0.058570 0.135030
vt 0.074080 0.181740
vt 0.063050 0.187880
vt 0.047560 0.141170
vn 0.0000 0.0000 -1.0000
vn 0.0000 0.0000 1.0000
s off
f 1/1/1 2/2/1 3/3/1
f 1/1/1 3/3/1 4/4/1
f 5/5/2 6/6/2 7/7/2
f 8/8/2 5/5/2 7/7/2
