# Blender v3.0.1 OBJ File: 'rockerfeller_plaza.blend'
# www.blender.org
o geometryt000010000010000110010110000110000100110110010010st55_I
v 173.842545 -206.318298 881.710510
v 173.842545 -206.318298 845.706360
v 174.268539 -206.544586 847.710510
v 174.268539 -206.544586 881.710510
v 155.588837 -196.624496 841.710510
v 156.014740 -196.850693 845.706360
v 174.268539 -206.544586 841.710510
v 156.014740 -196.850693 881.710510
v 155.588837 -196.624496 881.710510
v 156.061844 -195.741989 845.706360
v 155.588837 -196.624496 881.710510
v 156.061844 -195.741989 881.710510
v 157.528839 -193.004791 845.706360
v 155.588837 -196.624496 841.710510
v 157.528839 -193.004791 881.710510
v 158.001846 -192.122299 881.710510
v 158.001846 -192.122299 841.710510
v 158.490051 -191.209396 1009.710449
v 158.490051 -191.209396 845.706360
v 158.001846 -192.122299 881.710510
v 158.001846 -192.122299 1009.710449
v 164.347641 -180.255188 845.706360
v 158.001846 -192.122299 841.710510
v 164.347641 -180.255188 1009.710449
v 164.835846 -179.342300 881.710510
v 164.835846 -179.342300 841.710510
v 164.835846 -179.342300 1009.710449
v 158.001846 -192.122299 1009.710449
v 158.001846 -192.122299 881.710510
v 158.615646 -192.444595 881.710510
v 158.615646 -192.444595 1009.710449
v 181.986847 -204.715790 1009.710449
v 181.986847 -204.715790 881.710510
v 182.600647 -205.038086 881.710510
v 182.600647 -205.038086 1009.710449
v 165.253540 -178.564987 1009.710449
v 165.253540 -178.564987 845.706360
v 164.835846 -179.342300 881.710510
v 164.835846 -179.342300 1009.710449
v 167.141541 -175.052292 841.710510
v 166.723846 -175.829590 845.706360
v 164.835846 -179.342300 841.710510
v 166.723846 -175.829590 1009.710449
v 167.141541 -175.052292 881.710510
v 167.141541 -175.052292 1009.710449
v 167.373749 -174.572495 1009.710449
v 167.373749 -174.572495 845.706360
v 167.122147 -175.041901 881.710510
v 167.122147 -175.041901 1009.710449
v 179.110046 -152.675293 845.706360
v 176.768448 -157.044098 841.710510
v 167.122147 -175.041901 841.710510
v 179.110046 -152.675293 881.710510
v 179.361649 -152.205795 881.710510
v 179.361649 -152.205795 841.710510
v 171.434143 -211.839798 841.710510
v 199.891342 -226.953491 841.710510
v 199.891342 -226.953491 847.710510
v 171.434143 -211.839798 847.710510
v 174.268539 -206.544586 841.710510
v 171.434143 -211.839798 841.710510
v 171.434143 -211.839798 847.710510
v 174.268539 -206.544586 847.710510
v 174.268539 -206.544586 881.710510
v 174.268539 -206.544586 847.710510
v 175.136337 -206.999695 847.710510
v 175.136337 -206.999695 881.710510
v 179.261642 -209.163498 881.710510
v 179.261642 -209.163498 847.710510
v 180.129440 -209.618591 847.710510
v 180.129440 -209.618591 881.710510
v 177.488937 -157.440994 1009.710449
v 177.488937 -157.440994 881.710510
v 176.768448 -157.044098 881.710510
v 176.768448 -157.044098 1009.710449
v 208.129440 -174.322388 1009.710449
v 208.129440 -174.322388 881.710510
v 207.409042 -173.925400 881.710510
v 207.409042 -173.925400 1009.710449
v 179.826843 -152.452988 845.706360
v 179.363342 -152.206787 881.710510
v 179.826843 -152.452988 881.710510
v 201.767441 -164.107986 845.706360
v 179.363342 -152.206787 841.710510
v 201.767441 -164.107986 881.710510
v 202.230942 -164.354294 847.710510
v 202.230942 -164.354294 841.710510
v 202.230942 -164.354294 881.710510
v 180.129440 -209.618591 881.710510
v 180.129440 -209.618591 847.710510
v 180.500137 -208.931488 847.710510
v 180.627747 -208.694901 847.710510
v 180.627747 -208.694901 881.710510
v 182.102341 -205.961792 881.710510
v 182.102341 -205.961792 847.710510
v 182.600647 -205.038086 847.710510
v 182.600647 -205.038086 881.710510
v 182.600647 -205.038086 881.710510
v 182.600647 -205.038086 847.710510
v 183.150848 -205.338196 847.710510
v 183.486938 -205.521591 847.710510
v 183.486938 -205.521591 1009.710449
v 182.600647 -205.038086 1009.710449
v 197.117844 -212.958191 847.710510
v 198.004150 -213.441788 847.710510
v 198.004150 -213.441788 881.710510
v 197.117844 -212.958191 1009.710449
v 198.004150 -213.441788 1009.710449
v 198.004150 -213.441788 881.710510
v 198.004150 -213.441788 847.710510
v 198.138245 -213.197891 847.710510
v 198.384750 -212.749588 847.710510
v 198.384750 -212.749588 1009.710449
v 198.004150 -213.441788 1009.710449
v 201.377350 -207.306992 847.710510
v 201.757950 -206.614792 847.710510
v 201.757950 -206.614792 881.710510
v 201.377350 -207.306992 1009.710449
v 201.757950 -206.614792 1009.710449
v 199.891342 -226.953491 841.710510
v 208.667145 -210.542694 841.710510
v 208.667145 -210.542694 847.710510
v 199.891342 -226.953491 847.710510
v 213.146545 -185.656097 1009.710449
v 213.146545 -185.656097 845.706360
v 213.414749 -185.162598 881.710510
v 213.414749 -185.162598 1009.710449
v 202.026138 -206.121292 845.706360
v 203.893951 -202.683990 841.710510
v 211.307739 -189.040100 841.710510
v 213.414749 -185.162598 841.710510
v 213.414749 -185.162598 847.710510
v 202.026138 -206.121292 1009.710449
v 201.757950 -206.614792 881.710510
v 201.757950 -206.614792 847.710510
v 201.757950 -206.614792 841.710510
v 201.757950 -206.614792 1009.710449
v 208.667145 -210.542694 841.710510
v 201.757950 -206.614792 841.710510
v 201.757950 -206.614792 847.710510
v 208.667145 -210.542694 847.710510
v 204.371246 -160.354889 841.710510
v 202.230942 -164.354294 841.710510
v 202.230942 -164.354294 847.710510
v 204.371246 -160.354889 847.710510
v 202.542252 -164.520294 881.710510
v 202.542252 -164.520294 847.710510
v 202.230942 -164.354294 847.710510
v 202.230942 -164.354294 881.710510
v 211.074142 -169.070190 881.710510
v 211.074142 -169.070190 847.710510
v 210.762848 -168.904190 847.710510
v 210.762848 -168.904190 881.710510
v 228.691345 -173.262589 841.710510
v 204.371246 -160.354889 841.710510
v 204.371246 -160.354889 847.710510
v 228.691345 -173.262589 847.710510
v 209.052750 -174.822189 847.710510
v 208.129440 -174.322388 847.710510
v 208.129440 -174.322388 881.710510
v 209.052750 -174.822189 1009.710449
v 208.129440 -174.322388 1009.710449
v 216.803543 -179.018097 881.710510
v 216.803543 -179.018097 847.710510
v 216.493744 -178.850388 847.710510
v 215.880249 -178.518188 847.710510
v 215.880249 -178.518188 1009.710449
v 216.803543 -179.018097 1009.710449
v 208.129440 -174.322388 881.710510
v 208.129440 -174.322388 847.710510
v 208.462738 -173.727890 847.710510
v 208.462738 -173.727890 881.710510
v 210.740845 -169.664688 881.710510
v 210.740845 -169.664688 847.710510
v 211.074142 -169.070190 847.710510
v 211.074142 -169.070190 881.710510
v 213.396347 -185.152588 841.710510
v 220.353439 -188.846786 841.710510
v 220.353439 -188.846786 847.710510
v 213.396347 -185.152588 847.710510
v 213.396347 -185.152588 881.710510
v 213.396347 -185.152588 847.710510
v 213.518051 -184.933594 847.710510
v 213.592041 -184.800186 847.710510
v 213.592041 -184.800186 1009.710449
v 213.396347 -185.152588 1009.710449
v 216.607849 -179.370499 847.710510
v 216.803543 -179.018097 847.710510
v 216.803543 -179.018097 881.710510
v 216.607849 -179.370499 1009.710449
v 216.803543 -179.018097 1009.710449
v 220.353439 -188.846786 841.710510
v 228.691345 -173.262589 841.710510
v 228.691345 -173.262589 847.710510
v 220.353439 -188.846786 847.710510
vt 17.956680 34.752392
vt 17.956680 3.471620
vt 18.375710 5.212860
vt 18.375710 34.752392
vt 0.000000 0.000000
vt 0.419030 3.471620
vt 18.375710 0.000000
vt 0.419030 34.752392
vt 0.000000 34.752392
vt 0.869910 3.471620
vt 4.437920 0.000000
vt 3.568010 3.471620
vt 4.437920 34.752392
vt 0.000000 0.000000
vt 11.691810 145.960007
vt 11.691810 3.471620
vt 12.591220 34.752392
vt 12.591220 145.960007
vt 0.899410 3.471620
vt 12.591220 0.000000
vt 0.899410 145.960007
vt 0.000000 34.752392
vt 0.000000 0.000000
vt 0.000000 145.960007
vt 0.000000 111.207703
vt 0.000000 0.000000
vt 0.602330 0.000000
vt 0.602330 111.207703
vt 23.536180 111.207703
vt 23.536180 0.000000
vt 24.138510 0.000000
vt 24.138510 111.207703
vt 3.464750 145.960007
vt 3.464750 3.471620
vt 4.231400 34.752392
vt 4.231400 145.960007
vt 0.000000 0.000000
vt 0.766650 3.471620
vt 4.231400 0.000000
vt 0.766650 145.960007
vt 0.000000 34.752392
vt 22.047520 145.960007
vt 22.047520 3.471620
vt 22.510241 34.752392
vt 22.510241 145.960007
vt 0.462720 3.471620
vt 4.769210 0.000000
vt 22.510241 0.000000
vt 0.462720 34.752392
vt 0.000000 34.752392
vt 0.000000 0.000000
vt 0.000000 0.000000
vt 27.994520 0.000000
vt 27.994520 5.212860
vt 0.000000 5.212860
vt 0.000000 0.000000
vt 5.218210 0.000000
vt 5.218210 5.212860
vt 0.000000 5.212860
vt 0.000000 29.539530
vt 0.000000 0.000000
vt 0.851380 0.000000
vt 0.851380 29.539530
vt 4.898530 29.539530
vt 4.898530 0.000000
vt 5.749910 0.000000
vt 5.749910 29.539530
vt 30.393730 111.207703
vt 30.393730 0.000000
vt 31.108351 0.000000
vt 31.108351 111.207703
vt 0.000000 111.207703
vt 0.000000 0.000000
vt 0.714620 0.000000
vt 0.714620 111.207703
vt 22.040779 3.471620
vt 22.496759 34.752392
vt 22.040779 34.752392
vt 0.455980 3.471620
vt 22.496759 0.000000
vt 0.455980 34.752392
vt 0.000000 5.212860
vt 0.000000 0.000000
vt 0.000000 34.752392
vt 0.000000 29.539530
vt 0.000000 0.000000
vt 0.678280 0.000000
vt 0.911870 0.000000
vt 0.911870 29.539530
vt 3.609970 29.539530
vt 3.609970 0.000000
vt 4.521850 0.000000
vt 4.521850 29.539530
vt 0.000000 29.539530
vt 0.000000 0.000000
vt 0.544460 0.000000
vt 0.877140 0.000000
vt 0.877140 140.747192
vt 14.367640 0.000000
vt 15.244780 0.000000
vt 15.244780 29.539530
vt 15.244780 140.747192
vt 14.367640 140.747192
vt 0.000000 29.539530
vt 0.000000 0.000000
vt 0.241740 0.000000
vt 0.686300 0.000000
vt 0.686300 140.747192
vt 0.000000 140.747192
vt 6.082500 0.000000
vt 6.768810 0.000000
vt 6.768810 29.539530
vt 6.082500 140.747192
vt 6.768810 140.747192
vt 0.000000 0.000000
vt 16.168501 0.000000
vt 16.168501 5.212860
vt 0.000000 5.212860
vt 20.723730 145.960007
vt 20.723730 3.471620
vt 21.211700 34.752392
vt 21.211700 145.960007
vt 0.487980 3.471620
vt 3.886790 0.000000
vt 17.377750 0.000000
vt 21.211700 0.000000
vt 21.211700 5.212860
vt 0.487980 145.960007
vt 0.000000 34.752392
vt 0.000000 5.212860
vt 0.000000 0.000000
vt 0.000000 145.960007
vt 0.000000 0.000000
vt 6.905000 0.000000
vt 6.905000 5.212860
vt 0.000000 5.212860
vt 8.400780 29.539530
vt 8.400780 0.000000
vt 8.707261 0.000000
vt 8.707261 29.539530
vt 0.000000 29.539530
vt 0.000000 0.000000
vt 0.306480 0.000000
vt 0.306480 29.539530
vt 0.000000 0.000000
vt 23.921110 0.000000
vt 23.921110 5.212860
vt 0.000000 5.212860
vt 7.657390 0.000000
vt 8.569540 0.000000
vt 8.569540 29.539530
vt 7.657390 140.747192
vt 8.569540 140.747192
vt 0.000000 29.539530
vt 0.000000 0.000000
vt 0.306050 0.000000
vt 0.912140 0.000000
vt 0.000000 29.539530
vt 0.000000 0.000000
vt 0.592110 0.000000
vt 0.592110 29.539530
vt 4.639260 29.539530
vt 4.639260 0.000000
vt 5.231370 0.000000
vt 5.231370 29.539530
vt 0.000000 0.000000
vt 6.843700 0.000000
vt 6.843700 5.212860
vt 0.000000 5.212860
vt 0.000000 29.539530
vt 0.000000 0.000000
vt 0.217740 0.000000
vt 0.350240 0.000000
vt 0.350240 140.747192
vt 0.000000 140.747192
vt 5.746440 0.000000
vt 6.096690 0.000000
vt 6.096690 29.539530
vt 5.746440 140.747192
vt 6.096690 140.747192
vt 0.000000 0.000000
vt 15.355760 0.000000
vt 15.355760 5.212860
vt 0.000000 5.212860
vt 3.568010 34.752392
vt 0.869910 34.752392
vt 0.000000 34.752392
vt 0.000000 145.960007
vt 0.000000 140.747192
vt 0.000000 0.000000
vt 3.940970 0.000000
vt 3.940970 5.212860
vt 0.000000 5.212860
vt 0.912140 140.747192
vt 0.000000 140.747192
vn -0.4686 -0.8834 -0.0000
vn -0.4691 -0.8831 0.0000
vn -0.4690 -0.8832 -0.0000
vn -0.4687 -0.8834 0.0000
vn -0.4691 -0.8832 0.0000
vn -0.8814 0.4724 0.0000
vn -0.8818 0.4716 0.0000
vn -0.8818 0.4715 0.0000
vn -0.4649 -0.8854 0.0000
vn -0.8809 0.4733 0.0000
vn -0.8808 0.4735 0.0000
vn -0.8808 0.4734 -0.0000
vn -0.8809 0.4734 0.0000
vn -0.8814 0.4725 0.0000
vn -0.8814 0.4723 0.0000
vn -0.8816 0.4719 0.0000
vn -0.4644 -0.8856 0.0000
vn 0.4825 0.8759 0.0000
vn 0.4827 0.8758 0.0000
vn 0.4826 0.8758 0.0000
vn 0.4691 0.8831 0.0000
vn 0.4693 0.8831 0.0000
vn 0.4690 0.8832 -0.0000
vn 0.8801 -0.4748 0.0000
vn 0.8801 -0.4747 0.0000
vn -0.4788 -0.8779 0.0000
vn -0.4790 -0.8778 -0.0000
vn -0.4789 -0.8779 0.0000
vn 0.8763 -0.4818 0.0000
vn 0.8818 -0.4716 0.0000
vn 0.8787 -0.4775 0.0000
vn 0.8786 -0.4775 0.0000
vn 0.8787 -0.4774 -0.0000
vn 0.4942 0.8693 0.0000
vn 0.4705 0.8824 0.0000
vn 0.4706 0.8824 0.0000
vn 0.4688 0.8833 0.0000
vn 0.4760 0.8794 0.0000
vn 0.4761 0.8794 0.0000
vn 0.8723 -0.4890 0.0000
vn 0.8723 -0.4891 0.0000
vn 0.8742 -0.4855 0.0000
vn 0.8743 -0.4854 0.0000
vn 0.8743 -0.4855 0.0000
vn 0.8817 -0.4717 0.0000
vn -0.8817 0.4718 0.0000
s off
f 1/1/1 2/2/1 3/3/1
f 3/3/2 4/4/2 1/1/2
f 5/5/3 2/2/3 6/6/3
f 5/5/3 7/7/3 2/2/3
f 3/3/4 2/2/4 7/7/4
f 8/8/5 9/9/5 6/6/5
f 9/9/5 5/5/5 6/6/5
f 13/10/6 14/11/6 10/12/6
f 11/13/6 10/12/6 14/11/6
f 17/14/6 14/11/6 13/10/6
f 18/15/7 19/16/7 20/17/7
f 20/17/7 21/18/7 18/15/7
f 22/19/8 23/20/8 19/16/8
f 20/17/7 19/16/7 23/20/7
f 22/19/7 24/21/7 25/22/7
f 25/22/7 26/23/7 22/19/7
f 26/23/7 23/20/7 22/19/7
f 24/21/7 27/24/7 25/22/7
f 28/25/9 29/26/9 30/27/9
f 28/25/9 30/27/9 31/28/9
f 32/29/9 33/30/9 34/31/9
f 32/29/9 34/31/9 35/32/9
f 36/33/10 37/34/10 38/35/10
f 38/35/10 39/36/10 36/33/10
f 40/37/11 37/34/11 41/38/11
f 40/37/12 42/39/12 37/34/12
f 37/34/13 42/39/13 38/35/13
f 41/38/13 43/40/13 44/41/13
f 44/41/10 40/37/10 41/38/10
f 46/42/6 47/43/6 48/44/6
f 48/44/6 49/45/6 46/42/6
f 50/46/6 51/47/6 47/43/6
f 51/47/6 52/48/6 47/43/6
f 48/44/14 47/43/14 52/48/14
f 53/49/15 54/50/15 50/46/15
f 54/50/15 55/51/15 50/46/15
f 55/51/6 51/47/6 50/46/6
f 56/52/5 57/53/5 58/54/5
f 56/52/5 58/54/5 59/55/5
f 60/56/16 61/57/16 62/58/16
f 60/56/16 62/58/16 63/59/16
f 64/60/17 65/61/17 66/62/17
f 64/60/17 66/62/17 67/63/17
f 68/64/17 69/65/17 70/66/17
f 68/64/17 70/66/17 71/67/17
f 72/68/18 73/69/18 74/70/18
f 72/68/18 74/70/18 75/71/18
f 76/72/19 77/73/19 78/74/19
f 76/72/20 78/74/20 79/75/20
f 80/76/21 81/77/21 82/78/21
f 83/79/21 84/80/21 80/76/21
f 81/77/21 80/76/21 84/80/21
f 83/79/22 85/81/22 86/82/22
f 86/82/23 87/83/23 83/79/23
f 87/83/21 84/80/21 83/79/21
f 85/81/22 88/84/22 86/82/22
f 89/85/24 90/86/24 91/87/24
f 91/87/25 92/88/25 93/89/25
f 89/85/24 91/87/24 93/89/24
f 94/90/24 95/91/24 96/92/24
f 94/90/24 96/92/24 97/93/24
f 98/94/26 99/95/26 100/96/26
f 101/97/27 98/94/27 100/96/27
f 98/94/28 101/97/28 102/98/28
f 104/99/27 105/100/27 106/101/27
f 108/102/27 107/103/27 106/101/27
f 109/104/29 110/105/29 111/106/29
f 112/107/29 109/104/29 111/106/29
f 109/104/29 112/107/29 113/108/29
f 114/109/29 109/104/29 113/108/29
f 115/110/29 116/111/29 117/112/29
f 118/113/29 115/110/29 117/112/29
f 119/114/29 118/113/29 117/112/29
f 120/115/30 121/116/30 122/117/30
f 120/115/30 122/117/30 123/118/30
f 124/119/31 125/120/31 126/121/31
f 126/121/32 127/122/32 124/119/32
f 125/120/31 128/123/31 129/124/31
f 125/120/33 129/124/33 130/125/33
f 130/125/31 131/126/31 125/120/31
f 132/127/32 125/120/32 131/126/32
f 126/121/32 125/120/32 132/127/32
f 128/123/32 133/128/32 134/129/32
f 128/123/32 134/129/32 135/130/32
f 135/130/31 136/131/31 128/123/31
f 136/131/32 129/124/32 128/123/32
f 133/128/32 137/132/32 134/129/32
f 138/133/34 139/134/34 140/135/34
f 138/133/34 140/135/34 141/136/34
f 146/137/35 147/138/35 148/139/35
f 146/137/35 148/139/35 149/140/35
f 150/141/35 151/142/35 152/143/35
f 150/141/36 152/143/36 153/144/36
f 154/145/37 155/146/37 156/147/37
f 154/145/37 156/147/37 157/148/37
f 158/149/38 159/150/38 160/151/38
f 161/152/38 158/149/38 160/151/38
f 162/153/38 161/152/38 160/151/38
f 163/154/39 164/155/39 165/156/39
f 166/157/39 163/154/39 165/156/39
f 169/158/40 170/159/40 171/160/40
f 169/158/40 171/160/40 172/161/40
f 173/162/41 174/163/41 175/164/41
f 173/162/40 175/164/40 176/165/40
f 177/166/3 178/167/3 179/168/3
f 177/166/3 179/168/3 180/169/3
f 181/170/42 182/171/42 183/172/42
f 184/173/43 181/170/43 183/172/43
f 181/170/42 184/173/42 185/174/42
f 186/175/42 181/170/42 185/174/42
f 187/176/42 188/177/42 189/178/42
f 190/179/44 187/176/44 189/178/44
f 191/180/42 190/179/42 189/178/42
f 192/181/45 193/182/45 194/183/45
f 192/181/45 194/183/45 195/184/45
s 1
f 10/12/6 11/13/6 12/185/6
f 15/186/6 16/187/6 13/10/6
f 16/187/6 17/14/6 13/10/6
f 43/40/13 45/188/13 44/41/13
f 103/189/28 98/94/28 102/98/28
f 107/103/27 104/99/27 106/101/27
f 142/190/46 143/191/46 144/192/46
f 142/190/46 144/192/46 145/193/46
f 163/154/39 166/157/39 167/194/39
f 168/195/39 163/154/39 167/194/39
