# Blender v3.0.1 OBJ File: 'rockerfeller_plaza.blend'
# www.blender.org
o geometryt000010000010000110010110000110000110100000010110st4
v 1207.424927 -114.982178 187.806244
v 1207.260376 -115.285378 197.216904
v 1207.424927 -114.982178 197.216904
v 1208.872070 -112.315674 187.806244
v 1207.260376 -115.285378 187.416901
v 1208.872070 -112.315674 197.216904
v 1209.023438 -112.036880 197.216904
v 1209.023438 -112.036880 187.806244
v 1210.470581 -109.370377 187.806244
v 1212.195801 -106.191574 187.416901
v 1210.470581 -109.370377 197.216904
v 1210.621826 -109.091576 197.216904
v 1210.621826 -109.091576 187.806244
v 1212.069092 -106.425079 187.806244
v 1212.069092 -106.425079 197.216904
v 1212.195801 -106.191574 197.216904
v 1212.220337 -106.146278 187.806244
v 1212.220337 -106.146278 197.216904
v 1213.667480 -103.479774 187.806244
v 1213.667480 -103.479774 197.216904
v 1213.818848 -103.200974 197.216904
v 1213.818848 -103.200974 187.806244
v 1215.265991 -100.534477 187.806244
v 1215.265991 -100.534477 197.216904
v 1215.417236 -100.255676 197.216904
v 1215.417236 -100.255676 187.806244
v 1217.028931 -97.286011 187.416901
v 1216.864502 -97.589226 187.806244
v 1216.864502 -97.589226 197.216904
v 1217.028931 -97.286011 197.216904
v 1220.586670 -122.522980 187.806244
v 1220.889893 -122.687576 197.216904
v 1220.586670 -122.522980 197.216904
v 1217.920654 -121.074974 187.806244
v 1220.889893 -122.687576 187.416901
v 1217.920654 -121.074974 197.216904
v 1217.135010 -120.648376 197.216904
v 1217.135010 -120.648376 187.806244
v 1214.468994 -119.200478 187.806244
v 1214.468994 -119.200478 197.216904
v 1213.683472 -118.773781 197.216904
v 1213.683472 -118.773781 187.806244
v 1211.017456 -117.325874 187.806244
v 1207.262695 -115.286674 187.416901
v 1211.017456 -117.325874 197.216904
v 1210.231934 -116.899277 197.216904
v 1210.231934 -116.899277 187.806244
v 1207.565796 -115.451279 187.806244
v 1207.565796 -115.451279 197.216904
v 1207.262695 -115.286674 197.216904
v 1217.194458 -96.983269 187.806244
v 1217.029785 -97.286415 197.216904
v 1217.194458 -96.983269 197.216904
v 1218.642700 -94.317459 187.806244
v 1217.029785 -97.286415 187.416901
v 1218.642700 -94.317459 197.216904
v 1218.997437 -93.664665 197.216904
v 1218.997437 -93.664665 187.806244
v 1219.721680 -92.331764 187.806244
v 1219.721680 -92.331764 197.216904
v 1220.076294 -91.678978 197.216904
v 1220.076294 -91.678978 187.806244
v 1220.800415 -90.346077 187.806244
v 1220.800415 -90.346077 197.216904
v 1221.155151 -89.693291 197.216904
v 1221.155151 -89.693291 187.806244
v 1223.846924 -84.738640 187.416901
v 1221.879272 -88.360390 187.806244
v 1221.879272 -88.360390 197.216904
v 1222.233887 -87.707596 197.216904
v 1222.233887 -87.707596 187.806244
v 1223.682251 -85.041786 187.806244
v 1223.682251 -85.041786 197.216904
v 1223.846924 -84.738640 197.216904
v 1237.309204 -92.442635 187.806244
v 1237.473999 -92.139465 197.216904
v 1237.309204 -92.442635 197.216904
v 1235.861450 -95.108704 187.806244
v 1236.011475 -94.832344 187.416901
v 1237.473999 -92.139465 187.416901
v 1235.861450 -95.108704 197.216904
v 1235.638916 -95.518539 197.216904
v 1235.638916 -95.518539 187.806244
v 1234.190918 -98.184601 187.806244
v 1234.190918 -98.184601 197.216904
v 1233.968384 -98.594429 197.216904
v 1233.968384 -98.594429 187.806244
v 1232.520508 -101.260475 187.806244
v 1232.520508 -101.260475 197.216904
v 1232.297974 -101.670280 197.216904
v 1232.297974 -101.670280 187.806244
v 1231.573975 -103.003380 187.806244
v 1231.573975 -103.003380 197.216904
v 1231.351440 -103.413177 197.216904
v 1231.351440 -103.413177 187.806244
v 1227.007812 -111.411377 187.806244
v 1227.007812 -111.411377 197.216904
v 1226.785156 -111.821175 197.216904
v 1226.785156 -111.821175 187.806244
v 1220.885254 -122.685074 187.416901
v 1226.061279 -113.154274 187.806244
v 1226.061279 -113.154274 197.216904
v 1225.838623 -113.564079 197.216904
v 1225.838623 -113.564079 187.806244
v 1224.390747 -116.230179 187.806244
v 1224.390747 -116.230179 197.216904
v 1224.168213 -116.639977 197.216904
v 1224.168213 -116.639977 187.806244
v 1222.720337 -119.305977 187.806244
v 1222.720337 -119.305977 197.216904
v 1222.497803 -119.715874 197.216904
v 1222.497803 -119.715874 187.806244
v 1221.049805 -122.381874 187.806244
v 1221.049805 -122.381874 197.216904
v 1220.885254 -122.685074 197.216904
v 1224.150146 -84.903297 187.806244
v 1223.846924 -84.738640 197.216904
v 1224.150146 -84.903297 197.216904
v 1226.816162 -86.351227 187.806244
v 1223.846924 -84.738640 187.416901
v 1226.816162 -86.351227 197.216904
v 1227.601807 -86.777847 197.216904
v 1227.601807 -86.777847 187.806244
v 1230.267700 -88.225777 187.806244
v 1230.267700 -88.225777 197.216904
v 1231.053345 -88.652405 197.216904
v 1231.053345 -88.652405 187.806244
v 1237.473999 -92.139549 187.416901
v 1233.719360 -90.100334 187.806244
v 1233.719360 -90.100334 197.216904
v 1234.504883 -90.526970 197.216904
v 1234.504883 -90.526970 187.806244
v 1237.170898 -91.974899 187.806244
v 1237.170898 -91.974899 197.216904
v 1237.473999 -92.139549 197.216904
vt 25.813280 0.499140
vt 26.255581 12.564100
vt 25.813280 12.564100
vt 21.923719 0.499140
vt 26.255581 0.000000
vt 21.923719 12.564100
vt 21.516991 12.564100
vt 21.516991 0.499140
vt 17.627439 0.499140
vt 12.990510 0.000000
vt 17.627439 12.564100
vt 17.220711 12.564100
vt 17.220711 0.499140
vt 13.331160 0.499140
vt 13.331160 12.564100
vt 12.990510 12.564100
vt 12.924430 0.499140
vt 12.924430 12.564100
vt 9.034871 0.499140
vt 9.034871 12.564100
vt 8.628150 12.564100
vt 8.628150 0.499140
vt 4.738590 0.499140
vt 4.738590 12.564100
vt 4.331860 12.564100
vt 4.331860 0.499140
vt 0.000000 0.000000
vt 0.442310 0.499140
vt 0.442310 12.564100
vt 0.000000 12.564100
vt 19.438700 0.499140
vt 19.881010 12.564100
vt 19.438700 12.564100
vt 15.549150 0.499140
vt 19.881010 0.000000
vt 15.549150 12.564100
vt 14.403090 12.564100
vt 14.403090 0.499140
vt 10.513530 0.499140
vt 10.513530 12.564100
vt 9.367481 12.564100
vt 9.367481 0.499140
vt 5.477920 0.499140
vt 0.000000 0.000000
vt 5.477920 12.564100
vt 4.331860 12.564100
vt 4.331860 0.499140
vt 0.442310 0.499140
vt 0.442310 12.564100
vt 0.000000 12.564100
vt 13.975970 0.499140
vt 18.307831 0.000000
vt 17.865520 0.499140
vt 13.975970 12.564100
vt 13.023530 12.564100
vt 13.023530 0.499140
vt 11.078750 0.499140
vt 11.078750 12.564100
vt 10.126300 12.564100
vt 10.126300 0.499140
vt 8.181530 0.499140
vt 8.181530 12.564100
vt 7.229080 12.564100
vt 7.229080 0.499140
vt 5.284310 12.564100
vt 4.331860 12.564100
vt 5.284310 0.499140
vt 4.331860 0.499140
vt 0.442310 0.499140
vt 0.000000 0.000000
vt 0.000000 12.564100
vt 44.121120 0.499140
vt 44.563431 12.564100
vt 44.121120 12.564100
vt 40.231560 0.499140
vt 40.634750 0.000000
vt 44.563431 0.000000
vt 40.231560 12.564100
vt 39.633659 12.564100
vt 39.633659 0.499140
vt 35.744099 0.499140
vt 35.744099 12.564100
vt 35.146191 12.564100
vt 35.146191 0.499140
vt 31.256639 0.499140
vt 31.256639 12.564100
vt 30.658730 12.564100
vt 30.658730 0.499140
vt 28.713949 0.499140
vt 28.713949 12.564100
vt 28.116039 12.564100
vt 28.116039 0.499140
vt 16.447380 0.499140
vt 16.447380 12.564100
vt 15.849470 12.564100
vt 15.849470 0.499140
vt 0.000000 0.000000
vt 13.904700 12.564100
vt 13.306790 12.564100
vt 13.904700 0.499140
vt 13.306790 0.499140
vt 9.417230 0.499140
vt 9.417230 12.564100
vt 8.819320 12.564100
vt 8.819320 0.499140
vt 4.929770 0.499140
vt 4.929770 12.564100
vt 4.331860 12.564100
vt 4.331860 0.499140
vt 0.442310 0.499140
vt 0.442310 12.564100
vt 0.000000 12.564100
vt 19.438641 0.499140
vt 19.880951 12.564100
vt 19.438641 12.564100
vt 15.549090 0.499140
vt 19.880951 0.000000
vt 15.549090 12.564100
vt 14.403050 12.564100
vt 14.403050 0.499140
vt 10.513490 0.499140
vt 10.513490 12.564100
vt 9.367450 12.564100
vt 9.367450 0.499140
vt 0.000000 0.000000
vt 5.477900 0.499140
vt 5.477900 12.564100
vt 4.331860 12.564100
vt 4.331860 0.499140
vt 0.442310 0.499140
vt 0.442310 12.564100
vt 0.000000 12.564100
vt 18.307831 12.564100
vt 17.865520 12.564100
vt 0.442310 12.564100
vn -0.8789 0.4771 0.0000
vn -0.8789 0.4769 0.0000
vn -0.8790 0.4769 0.0000
vn -0.8789 0.4770 0.0000
vn -0.8789 0.4770 -0.0001
vn -0.8792 0.4765 0.0000
vn -0.8791 0.4766 -0.0011
vn -0.8789 0.4770 0.0001
vn -0.8791 0.4766 0.0000
vn -0.8791 0.4765 -0.0001
vn -0.8782 0.4783 -0.0000
vn -0.8789 0.4770 -0.0004
vn -0.8787 0.4774 -0.0015
vn -0.8789 0.4770 0.0003
vn -0.4771 -0.8789 0.0000
vn -0.4773 -0.8788 -0.0003
vn -0.4772 -0.8788 0.0000
vn -0.4772 -0.8788 -0.0001
vn -0.4773 -0.8787 0.0000
vn -0.4774 -0.8787 0.0000
vn -0.4773 -0.8788 0.0000
vn -0.4771 -0.8788 -0.0002
vn -0.4770 -0.8789 0.0000
vn -0.8787 0.4773 -0.0000
vn -0.8786 0.4776 0.0000
vn -0.8787 0.4774 0.0000
vn -0.8788 0.4772 0.0000
vn -0.8787 0.4773 0.0004
vn -0.8787 0.4774 0.0001
vn 0.8783 -0.4780 0.0000
vn 0.8788 -0.4772 -0.0001
vn 0.8788 -0.4772 0.0003
vn 0.8787 -0.4774 0.0000
vn 0.8790 -0.4768 0.0000
vn 0.8788 -0.4773 -0.0000
vn 0.8787 -0.4773 -0.0003
vn 0.8787 -0.4775 0.0000
vn 0.8787 -0.4773 -0.0001
vn 0.8786 -0.4775 0.0000
vn 0.8788 -0.4771 0.0000
vn 0.8788 -0.4772 0.0000
vn 0.8788 -0.4773 -0.0001
vn 0.8787 -0.4773 0.0001
vn 0.8789 -0.4770 0.0000
vn 0.8792 -0.4765 -0.0012
vn 0.8787 -0.4773 0.0003
vn 0.8789 -0.4771 0.0000
vn 0.8789 -0.4769 0.0000
vn 0.4772 0.8788 0.0000
vn 0.4772 0.8788 -0.0001
vn 0.4771 0.8789 0.0000
vn 0.4771 0.8788 0.0000
vn 0.4773 0.8787 0.0006
vn 0.4772 0.8788 -0.0004
vn 0.4773 0.8788 0.0000
vn 0.4773 0.8788 -0.0002
vn 0.4774 0.8787 0.0000
vn 0.4771 0.8788 -0.0002
vn 0.4775 0.8786 0.0000
vn -0.8788 0.4772 0.0012
vn -0.8790 0.4768 0.0007
vn -0.4773 -0.8787 0.0005
vn -0.4776 -0.8786 -0.0007
vn -0.8786 0.4776 -0.0002
vn -0.8788 0.4772 -0.0003
vn -0.8788 0.4771 0.0006
vn -0.8787 0.4774 -0.0005
vn -0.8786 0.4775 0.0003
vn -0.8787 0.4773 -0.0014
vn 0.8790 -0.4768 0.0015
vn 0.8790 -0.4769 -0.0020
vn 0.8784 -0.4780 -0.0047
vn 0.8789 -0.4770 0.0040
vn 0.8787 -0.4773 0.0013
vn 0.8786 -0.4776 0.0027
vn 0.8787 -0.4774 0.0010
vn 0.4770 0.8789 -0.0001
s off
f 1/1/1 2/2/1 3/3/1
f 4/4/2 5/5/2 1/1/2
f 2/2/3 1/1/3 5/5/3
f 6/6/4 7/7/4 4/4/4
f 7/7/4 8/8/4 4/4/4
f 8/8/5 9/9/5 10/10/5
f 8/8/4 10/10/4 5/5/4
f 11/11/6 12/12/6 9/9/6
f 12/12/4 13/13/4 9/9/4
f 9/9/7 13/13/7 10/10/7
f 13/13/8 14/14/8 10/10/8
f 15/15/9 16/16/9 14/14/9
f 16/16/6 17/17/6 14/14/6
f 14/14/10 17/17/10 10/10/10
f 16/16/11 18/18/11 17/17/11
f 17/17/5 19/19/5 10/10/5
f 20/20/4 21/21/4 19/19/4
f 21/21/4 22/22/4 19/19/4
f 22/22/12 23/23/12 10/10/12
f 24/24/6 25/25/6 23/23/6
f 25/25/4 26/26/4 23/23/4
f 26/26/13 27/27/13 23/23/13
f 23/23/8 27/27/8 10/10/8
f 28/28/14 27/27/14 26/26/14
f 29/29/4 30/30/4 28/28/4
f 30/30/6 27/27/6 28/28/6
f 31/31/15 32/32/15 33/33/15
f 34/34/16 35/35/16 31/31/16
f 32/32/17 31/31/17 35/35/17
f 36/36/17 37/37/17 34/34/17
f 37/37/17 38/38/17 34/34/17
f 38/38/18 39/39/18 35/35/18
f 40/40/19 41/41/19 39/39/19
f 41/41/20 42/42/20 39/39/20
f 43/43/21 44/44/21 42/42/21
f 42/42/21 44/44/21 35/35/21
f 45/45/17 46/46/17 43/43/17
f 46/46/17 47/47/17 43/43/17
f 47/47/22 44/44/22 43/43/22
f 48/48/19 44/44/19 47/47/19
f 49/49/19 50/50/19 48/48/19
f 50/50/23 44/44/23 48/48/23
f 54/51/24 55/52/24 51/53/24
f 56/54/25 57/55/25 54/51/25
f 57/55/26 58/56/26 54/51/26
f 58/56/26 59/57/26 55/52/26
f 60/58/27 61/59/27 59/57/27
f 61/59/26 62/60/26 59/57/26
f 62/60/28 63/61/28 55/52/28
f 64/62/26 65/63/26 63/61/26
f 65/63/25 66/64/25 63/61/25
f 69/65/26 70/66/26 68/67/26
f 70/66/27 71/68/27 68/67/27
f 72/69/29 67/70/29 71/68/29
f 74/71/2 67/70/2 72/69/2
f 75/72/30 76/73/30 77/74/30
f 78/75/31 79/76/31 75/72/31
f 79/76/32 80/77/32 75/72/32
f 76/73/33 75/72/33 80/77/33
f 81/78/34 82/79/34 78/75/34
f 82/79/33 83/80/33 78/75/33
f 83/80/35 79/76/35 78/75/35
f 83/80/36 84/81/36 79/76/36
f 85/82/37 86/83/37 84/81/37
f 86/83/34 87/84/34 84/81/34
f 87/84/38 88/85/38 79/76/38
f 89/86/39 90/87/39 88/85/39
f 90/87/34 91/88/34 88/85/34
f 91/88/38 92/89/38 79/76/38
f 93/90/39 94/91/39 92/89/39
f 94/91/40 95/92/40 92/89/40
f 95/92/41 96/93/41 79/76/41
f 97/94/39 98/95/39 96/93/39
f 98/95/39 99/96/39 96/93/39
f 96/93/42 100/97/42 79/76/42
f 102/98/39 103/99/39 101/100/39
f 103/99/39 104/101/39 101/100/39
f 105/102/42 100/97/42 104/101/42
f 106/103/40 107/104/40 105/102/40
f 107/104/39 108/105/39 105/102/39
f 109/106/43 100/97/43 108/105/43
f 110/107/44 111/108/44 109/106/44
f 111/108/33 112/109/33 109/106/33
f 112/109/45 100/97/45 109/106/45
f 113/110/46 100/97/46 112/109/46
f 114/111/47 115/112/47 113/110/47
f 115/112/48 100/97/48 113/110/48
f 116/113/49 117/114/49 118/115/49
f 119/116/50 120/117/50 116/113/50
f 117/114/51 116/113/51 120/117/51
f 121/118/52 122/119/52 119/116/52
f 122/119/49 123/120/49 119/116/49
f 123/120/53 120/117/53 119/116/53
f 123/120/54 124/121/54 120/117/54
f 125/122/55 126/123/55 124/121/55
f 126/123/49 127/124/49 124/121/49
f 124/121/55 128/125/55 120/117/55
f 129/126/56 128/125/56 127/124/56
f 130/127/57 131/128/57 129/126/57
f 131/128/49 132/129/49 129/126/49
f 132/129/58 128/125/58 129/126/58
f 133/130/50 128/125/50 132/129/50
f 134/131/49 135/132/49 133/130/49
f 135/132/59 128/125/59 133/130/59
s 1
f 4/4/60 8/8/60 5/5/60
f 19/19/61 22/22/61 10/10/61
f 38/38/62 35/35/62 34/34/62
f 39/39/63 42/42/63 35/35/63
f 51/53/2 52/133/25 53/134/25
f 52/133/25 51/53/2 55/52/2
f 58/56/64 55/52/64 54/51/64
f 59/57/65 62/60/65 55/52/65
f 66/64/66 67/70/67 63/61/26
f 63/61/26 67/70/67 55/52/26
f 68/67/68 67/70/67 66/64/66
f 71/68/69 67/70/67 68/67/68
f 73/135/25 74/71/25 72/69/25
f 84/81/70 87/84/70 79/76/70
f 88/85/71 91/88/71 79/76/71
f 92/89/72 95/92/72 79/76/72
f 99/96/73 100/97/74 96/93/73
f 101/100/35 100/97/74 99/96/73
f 104/101/75 100/97/74 101/100/35
f 108/105/76 100/97/76 105/102/76
f 127/124/77 128/125/77 124/121/77
