# Blender v3.0.1 OBJ File: 'rockerfeller_plaza.blend'
# www.blender.org
o geometryt000010000010000110010110000110000110100000000100st80
v 326.947510 -84.382729 104.959091
v 326.947510 -84.382729 66.030037
v 328.455353 -85.186905 66.030037
v 328.455353 -85.186905 104.959091
v 329.881653 -85.947601 66.030037
v 332.897308 -87.555954 66.030037
v 332.897308 -87.555954 104.959091
v 329.881653 -85.947601 104.959091
v 334.323608 -88.316650 66.030037
v 338.847046 -90.729179 66.030037
v 338.847046 -90.729179 104.959091
v 334.323608 -88.316650 104.959091
v 340.273376 -91.489876 66.030037
v 343.289001 -93.098236 66.030037
v 343.289001 -93.098236 104.959091
v 340.273376 -91.489876 104.959091
v 344.715302 -93.858925 66.030037
v 346.223145 -94.663101 66.030037
v 346.223145 -94.663101 104.959091
v 344.715302 -93.858925 104.959091
v 327.611359 -82.409042 104.959091
v 327.611359 -82.409042 66.030037
v 326.805756 -83.916115 66.030037
v 326.805756 -83.916115 104.959091
v 329.496155 -78.883011 66.030037
v 328.690552 -80.390083 66.030037
v 328.690552 -80.390083 104.959091
v 329.496155 -78.883011 104.959091
v 331.265686 -79.437569 66.030037
v 329.963074 -78.741371 66.030037
v 329.963074 -78.741371 104.959091
v 331.265686 -79.437569 104.959091
v 332.536133 -77.787766 66.030037
v 331.732239 -79.295746 66.030037
v 331.732239 -79.295746 104.959091
v 332.536133 -77.787766 104.959091
v 334.691162 -73.745110 104.959091
v 334.691162 -73.745110 66.030037
v 333.083435 -76.761070 66.030037
v 333.083435 -76.761070 104.959091
v 337.650085 -68.194473 66.030037
v 335.238464 -72.718414 66.030037
v 335.238464 -72.718414 104.959091
v 337.650085 -68.194473 104.959091
v 339.805145 -64.151810 66.030037
v 338.197418 -67.167786 66.030037
v 338.197418 -67.167786 104.959091
v 339.805145 -64.151810 104.959091
v 341.156311 -61.617142 66.030037
v 340.352448 -63.125122 66.030037
v 340.352448 -63.125122 104.959091
v 341.156311 -61.617142 104.959091
v 340.285889 -83.848511 66.030037
v 341.091278 -82.341339 66.030037
v 341.091278 -82.341339 104.959091
v 340.285889 -83.848511 104.959091
v 342.146149 -80.367310 104.959091
v 342.146149 -80.367310 66.030037
v 342.951538 -78.860146 66.030037
v 342.951538 -78.860146 104.959091
v 342.112152 -85.219543 104.959091
v 342.112152 -85.219543 66.030037
v 340.606232 -84.411835 66.030037
v 340.606232 -84.411835 104.959091
v 343.130707 -62.279491 66.030037
v 341.623016 -61.475094 66.030037
v 341.623016 -61.475094 104.959091
v 343.130707 -62.279491 104.959091
v 346.985565 -64.336159 66.030037
v 343.970154 -62.727364 66.030037
v 343.970154 -62.727364 104.959091
v 346.985565 -64.336159 104.959091
v 350.840424 -66.392830 66.030037
v 347.825012 -64.784035 66.030037
v 347.825012 -64.784035 104.959091
v 350.840424 -66.392830 104.959091
v 354.695221 -68.449501 104.959091
v 354.695221 -68.449501 66.030037
v 351.679810 -66.840706 66.030037
v 351.679810 -66.840706 104.959091
v 357.042419 -69.701775 104.959091
v 357.042419 -69.701775 66.030037
v 355.534729 -68.897369 66.030037
v 355.534729 -68.897369 104.959091
v 341.644012 -72.465996 66.030037
v 342.450134 -70.959213 66.030037
v 342.450134 -70.959213 104.959091
v 341.644012 -72.465996 104.959091
v 343.156799 -73.992180 104.959091
v 343.156799 -73.992180 66.030037
v 341.649170 -73.187683 66.030037
v 341.649170 -73.187683 104.959091
v 347.190063 -76.144371 104.959091
v 347.190063 -76.144371 66.030037
v 345.682434 -75.339874 66.030037
v 345.682434 -75.339874 104.959091
v 343.561584 -83.666321 66.030037
v 342.757446 -85.174164 66.030037
v 342.757446 -85.174164 104.959091
v 343.561584 -83.666321 104.959091
v 345.423492 -80.174973 66.030037
v 344.619385 -81.682816 66.030037
v 344.619385 -81.682816 104.959091
v 345.423492 -80.174973 104.959091
v 343.053894 -70.562111 104.959091
v 343.053894 -70.562111 66.030037
v 344.562195 -71.365372 66.030037
v 344.562195 -71.365372 104.959091
v 347.077637 -72.705025 104.959091
v 347.077637 -72.705025 66.030037
v 348.585938 -73.508286 66.030037
v 348.585938 -73.508286 104.959091
v 343.595612 -78.811966 104.959091
v 343.595612 -78.811966 66.030037
v 345.104340 -79.614456 66.030037
v 345.104340 -79.614456 104.959091
v 346.689911 -94.521049 104.959091
v 346.689911 -94.521049 66.030037
v 347.494141 -93.013252 66.030037
v 347.494141 -93.013252 104.959091
v 347.963654 -92.132980 66.030037
v 348.767944 -90.625183 66.030037
v 348.767944 -90.625183 104.959091
v 347.963654 -92.132980 104.959091
v 349.237427 -89.744904 104.959091
v 349.237427 -89.744904 66.030037
v 350.041626 -88.237114 66.030037
v 350.041626 -88.237114 104.959091
v 348.592346 -74.233521 104.959091
v 348.592346 -74.233521 66.030037
v 347.792603 -75.743721 66.030037
v 347.792603 -75.743721 104.959091
v 348.429626 -86.596001 66.030037
v 349.233337 -85.087944 66.030037
v 349.233337 -85.087944 104.959091
v 348.429626 -86.596001 104.959091
v 349.814636 -83.997223 66.030037
v 351.422028 -80.981094 66.030037
v 351.422028 -80.981094 104.959091
v 349.814636 -83.997223 104.959091
v 352.003326 -79.890381 104.959091
v 352.003326 -79.890381 66.030037
v 353.610840 -76.874252 66.030037
v 353.610840 -76.874252 104.959091
v 354.192017 -75.783539 66.030037
v 355.799530 -72.767403 66.030037
v 355.799530 -72.767403 104.959091
v 354.192017 -75.783539 104.959091
v 356.380829 -71.676689 104.959091
v 356.380829 -71.676689 66.030037
v 357.184509 -70.168633 66.030037
v 357.184509 -70.168633 104.959091
v 349.899536 -87.770432 104.959091
v 349.899536 -87.770432 66.030037
v 348.571838 -87.062744 66.030037
v 348.571838 -87.062744 104.959091
vt 0.000000 1.500000
vt 0.000000 0.000000
vt 0.125000 0.000000
vt 0.125000 1.500000
vt 0.000000 0.000000
vt 0.250000 0.000000
vt 0.250000 1.500000
vt 0.000000 1.500000
vt 0.000000 0.000000
vt 0.375000 0.000000
vt 0.375000 1.500000
vt 0.000000 1.500000
vt 0.000000 0.000000
vt 0.250000 0.000000
vt 0.250000 1.500000
vt 0.000000 1.500000
vt 0.000000 0.000000
vt 0.125000 0.000000
vt 0.125000 1.500000
vt 0.000000 1.500000
vt 0.000000 1.500000
vt 0.000000 0.000000
vt 0.125000 0.000000
vt 0.125000 1.500000
vt 0.000000 0.000000
vt 0.125000 0.000000
vt 0.125000 1.500000
vt 0.000000 1.500000
vt 0.000000 0.000000
vt 0.125000 0.000000
vt 0.125000 1.500000
vt 0.000000 1.500000
vt 0.000000 1.500000
vt 0.000000 0.000000
vt 0.250000 0.000000
vt 0.250000 1.500000
vt 0.000000 0.000000
vt 0.375000 0.000000
vt 0.375000 1.500000
vt 0.000000 1.500000
vt 0.000000 0.000000
vt 0.250000 0.000000
vt 0.250000 1.500000
vt 0.000000 1.500000
vt 0.000000 0.000000
vt 0.125000 0.000000
vt 0.125000 1.500000
vt 0.000000 1.500000
vt 0.000000 0.000000
vt 0.125000 0.000000
vt 0.125000 1.500000
vt 0.000000 1.500000
vt 0.000000 1.500000
vt 0.000000 0.000000
vt 0.125000 0.000000
vt 0.125000 1.500000
vt 0.000000 1.500000
vt 0.000000 0.000000
vt 0.125000 0.000000
vt 0.125000 1.500000
vt 0.000000 0.000000
vt 0.125000 0.000000
vt 0.125000 1.500000
vt 0.000000 1.500000
vt 0.000000 0.000000
vt 0.250000 0.000000
vt 0.250000 1.500000
vt 0.000000 1.500000
vt 0.000000 0.000000
vt 0.250000 0.000000
vt 0.250000 1.500000
vt 0.000000 1.500000
vt 0.000000 1.500000
vt 0.000000 0.000000
vt 0.250000 0.000000
vt 0.250000 1.500000
vt 0.000000 1.500000
vt 0.000000 0.000000
vt 0.125000 0.000000
vt 0.125000 1.500000
vt 0.000000 0.000000
vt 0.125000 0.000000
vt 0.125000 1.500000
vt 0.000000 1.500000
vt 0.000000 1.500000
vt 0.000000 0.000000
vt 0.125000 0.000000
vt 0.125000 1.500000
vt 0.000000 0.000000
vt 0.125000 0.000000
vt 0.125000 1.500000
vt 0.000000 1.500000
vt 0.000000 0.000000
vt 0.125000 0.000000
vt 0.125000 1.500000
vt 0.000000 1.500000
vt 0.000000 1.500000
vt 0.000000 0.000000
vt 0.125000 0.000000
vt 0.125000 1.500000
vt 0.000000 1.500000
vt 0.000000 0.000000
vt 0.125000 0.000000
vt 0.125000 1.500000
vt 0.000000 1.500000
vt 0.000000 0.000000
vt 0.125000 0.000000
vt 0.125000 1.500000
vt 0.000000 1.500000
vt 0.000000 0.000000
vt 0.125000 0.000000
vt 0.125000 1.500000
vt 0.000000 0.000000
vt 0.125000 0.000000
vt 0.125000 1.500000
vt 0.000000 1.500000
vt 0.000000 1.500000
vt 0.000000 0.000000
vt 0.250000 0.000000
vt 0.250000 1.500000
vt 0.000000 0.000000
vt 0.250000 0.000000
vt 0.250000 1.500000
vt 0.000000 1.500000
vt 0.000000 1.500000
vt 0.000000 0.000000
vt 0.125000 0.000000
vt 0.125000 1.500000
vt 0.000000 1.500000
vt 0.000000 0.000000
vt 0.125000 0.000000
vt 0.125000 1.500000
vt 0.000000 0.000000
vt 0.125000 0.000000
vt 0.125000 1.500000
vt 0.000000 1.500000
vt 0.000000 1.500000
vt 0.000000 0.000000
vt 0.125000 0.000000
vt 0.125000 1.500000
vt 0.000000 1.500000
vt 0.000000 0.000000
vt 0.125000 0.000000
vt 0.125000 1.500000
vt 0.000000 0.000000
vt 0.125000 0.000000
vt 0.125000 1.500000
vt 0.000000 1.500000
vt 0.000000 1.500000
vt 0.000000 0.000000
vt 0.125000 0.000000
vt 0.125000 1.500000
vt 0.000000 0.000000
vt 0.250000 0.000000
vt 0.250000 1.500000
vt 0.000000 1.500000
vn -0.4706 -0.8823 0.0000
vn -0.4706 -0.8824 0.0000
vn -0.8819 0.4714 0.0000
vn 0.4714 0.8819 0.0000
vn -0.8824 0.4704 0.0000
vn -0.8825 0.4704 0.0000
vn 0.8820 -0.4713 0.0000
vn 0.4727 0.8812 0.0000
vn 0.4707 0.8823 0.0000
vn 0.8817 -0.4717 0.0000
vn 0.4708 0.8823 0.0000
vn -0.8824 0.4705 0.0000
vn -0.8824 0.4706 0.0000
vn -0.4701 -0.8826 0.0000
vn -0.4696 -0.8829 0.0000
vn 0.8823 -0.4706 0.0000
vn -0.8837 0.4680 0.0000
vn 0.8825 -0.4703 0.0000
vn 0.4704 0.8825 0.0000
vn 0.4708 0.8822 0.0000
vn 0.8823 -0.4707 0.0000
s off
f 1/1/1 2/2/1 3/3/1
f 1/1/2 3/3/2 4/4/2
f 5/5/2 6/6/2 7/7/2
f 8/8/2 5/5/2 7/7/2
f 9/9/2 10/10/2 11/11/2
f 12/12/1 9/9/1 11/11/1
f 13/13/1 14/14/1 15/15/1
f 16/16/2 13/13/2 15/15/2
f 17/17/1 18/18/1 19/19/1
f 20/20/2 17/17/2 19/19/2
f 21/21/3 22/22/3 23/23/3
f 21/21/3 23/23/3 24/24/3
f 29/25/4 30/26/4 31/27/4
f 32/28/4 29/25/4 31/27/4
f 33/29/5 34/30/5 35/31/5
f 36/32/5 33/29/5 35/31/5
f 37/33/6 38/34/6 39/35/6
f 37/33/5 39/35/5 40/36/5
f 41/37/5 42/38/5 43/39/5
f 44/40/5 41/37/5 43/39/5
f 45/41/6 46/42/6 47/43/6
f 48/44/5 45/41/5 47/43/5
f 49/45/5 50/46/5 51/47/5
f 52/48/6 49/45/6 51/47/6
f 53/49/7 54/50/7 55/51/7
f 56/52/7 53/49/7 55/51/7
f 57/53/7 58/54/7 59/55/7
f 57/53/7 59/55/7 60/56/7
f 61/57/8 62/58/8 63/59/8
f 61/57/8 63/59/8 64/60/8
f 65/61/9 66/62/9 67/63/9
f 68/64/9 65/61/9 67/63/9
f 69/65/9 70/66/9 71/67/9
f 72/68/9 69/65/9 71/67/9
f 73/69/9 74/70/9 75/71/9
f 76/72/9 73/69/9 75/71/9
f 77/73/9 78/74/9 79/75/9
f 77/73/9 79/75/9 80/76/9
f 81/77/9 82/78/9 83/79/9
f 81/77/9 83/79/9 84/80/9
f 85/81/10 86/82/10 87/83/10
f 88/84/10 85/81/10 87/83/10
f 93/85/11 94/86/11 95/87/11
f 93/85/11 95/87/11 96/88/11
f 97/89/12 98/90/12 99/91/12
f 100/92/13 97/89/13 99/91/13
f 101/93/12 102/94/12 103/95/12
f 104/96/13 101/93/13 103/95/13
f 109/97/14 110/98/14 111/99/14
f 109/97/14 111/99/14 112/100/14
f 113/101/15 114/102/15 115/103/15
f 113/101/15 115/103/15 116/104/15
f 117/105/16 118/106/16 119/107/16
f 117/105/16 119/107/16 120/108/16
f 129/109/17 130/110/17 131/111/17
f 129/109/17 131/111/17 132/112/17
f 133/113/18 134/114/18 135/115/18
f 136/116/18 133/113/18 135/115/18
f 141/117/18 142/118/18 143/119/18
f 141/117/18 143/119/18 144/120/18
f 145/121/18 146/122/18 147/123/18
f 148/124/18 145/121/18 147/123/18
f 149/125/18 150/126/18 151/127/18
f 149/125/18 151/127/18 152/128/18
f 153/129/19 154/130/19 155/131/19
f 153/129/19 155/131/19 156/132/19
s 1
f 25/133/3 26/134/3 27/135/3
f 28/136/3 25/133/3 27/135/3
f 89/137/11 90/138/20 91/139/20
f 89/137/11 91/139/20 92/140/11
f 105/141/14 106/142/14 107/143/14
f 105/141/14 107/143/14 108/144/14
f 121/145/21 122/146/21 123/147/21
f 124/148/21 121/145/21 123/147/21
f 125/149/16 126/150/16 127/151/16
f 125/149/16 127/151/16 128/152/16
f 137/153/18 138/154/18 139/155/18
f 140/156/18 137/153/18 139/155/18
