# Blender v3.0.1 OBJ File: 'rockerfeller_plaza.blend'
# www.blender.org
o geometryt000010000010000110010110000110000100110010110010st16
v 51.705765 -121.080460 295.508881
v 51.542267 -121.384262 318.614258
v 51.705765 -121.080460 318.614258
v 53.337135 -118.049362 295.508881
v 51.542267 -121.384262 291.914276
v 53.337135 -118.049362 318.614258
v 55.309166 -114.385262 318.614258
v 55.309166 -114.385262 295.508881
v 56.940536 -111.354164 295.508881
v 57.104034 -111.050362 291.914276
v 56.940536 -111.354164 318.614258
v 57.104034 -111.050362 318.614258
v 57.091309 -124.372559 295.508881
v 57.395058 -124.536163 318.614258
v 57.091309 -124.372559 318.614258
v 55.575958 -123.556564 295.508881
v 57.395058 -124.536163 291.914276
v 55.575958 -123.556564 318.614258
v 53.361366 -122.363861 318.614258
v 53.361366 -122.363861 295.508881
v 51.542267 -121.384262 291.914276
v 51.846016 -121.547760 295.508881
v 51.846016 -121.547760 318.614258
v 51.542267 -121.384262 318.614258
v 58.420662 -111.756760 291.914276
v 57.104034 -111.050362 291.914276
v 57.104034 -111.050362 318.614258
v 58.420662 -111.756760 318.614258
v 58.479675 -122.515564 295.508881
v 58.750298 -122.011459 318.614258
v 58.479675 -122.515564 318.614258
v 57.395058 -124.536163 291.914276
v 57.665672 -124.032059 295.508881
v 58.750298 -122.011459 291.914276
v 57.665672 -124.032059 318.614258
v 57.395058 -124.536163 318.614258
v 58.584106 -111.452965 295.508881
v 58.420662 -111.756760 318.614258
v 58.584106 -111.452965 318.614258
v 60.214767 -108.421463 295.508881
v 58.420662 -111.756760 291.914276
v 60.214767 -108.421463 318.614258
v 62.022972 -105.059860 318.614258
v 62.022972 -105.059860 295.508881
v 63.817078 -101.724564 291.914276
v 63.653648 -102.028358 295.508881
v 63.653648 -102.028358 318.614258
v 63.817078 -101.724564 318.614258
v 72.785370 -129.564667 295.508881
v 73.089165 -129.728165 318.614258
v 72.785370 -129.564667 318.614258
v 69.754204 -127.933365 295.508881
v 73.089165 -129.728165 291.914276
v 69.754204 -127.933365 318.614258
v 68.208275 -127.101463 318.614258
v 68.208275 -127.101463 295.508881
v 66.692696 -126.285759 295.508881
v 66.692696 -126.285759 318.614258
v 65.146767 -125.453758 318.614258
v 65.146767 -125.453758 295.508881
v 63.631187 -124.638161 295.508881
v 58.750298 -122.011459 291.914276
v 63.631187 -124.638161 318.614258
v 62.085266 -123.806160 318.614258
v 62.085266 -123.806160 295.508881
v 59.054092 -122.174858 295.508881
v 59.054092 -122.174858 318.614258
v 58.750298 -122.011459 318.614258
v 62.663025 -100.713860 295.508881
v 62.500443 -101.018166 318.614258
v 62.663025 -100.713860 318.614258
v 63.474068 -99.195793 295.508881
v 62.500443 -101.018166 291.914276
v 63.474068 -99.195793 318.614258
v 64.815437 -96.685112 318.614258
v 64.815437 -96.685112 295.508881
v 65.789055 -94.862770 291.914276
v 65.626472 -95.167061 295.508881
v 65.626472 -95.167061 318.614258
v 65.789055 -94.862770 318.614258
v 62.500443 -101.018166 291.914276
v 63.817078 -101.724564 291.914276
v 63.817078 -101.724564 318.614258
v 62.500443 -101.018166 318.614258
v 66.094543 -95.023071 295.508881
v 65.789055 -94.862770 318.614258
v 66.094543 -95.023071 318.614258
v 69.142654 -96.622459 295.508881
v 65.789055 -94.862770 291.914276
v 69.142654 -96.622459 318.614258
v 71.047577 -97.622002 318.614258
v 71.047577 -97.622002 295.508881
v 74.095688 -99.221390 295.508881
v 74.401184 -99.381691 291.914276
v 74.095688 -99.221390 318.614258
v 74.401184 -99.381691 318.614258
v 71.058784 -104.196762 295.508881
v 71.542564 -103.300560 318.614258
v 71.058784 -104.196762 318.614258
v 69.757416 -106.607460 291.914276
v 70.241196 -105.711266 295.508881
v 71.542564 -103.300560 291.914276
v 70.241196 -105.711266 318.614258
v 69.757416 -106.607460 318.614258
v 70.940414 -107.243362 295.508881
v 69.757416 -106.607460 318.614258
v 70.940414 -107.243362 318.614258
v 72.456398 -108.058258 295.508881
v 69.757416 -106.607460 291.914276
v 72.456398 -108.058258 318.614258
v 73.639404 -108.694160 318.614258
v 73.639404 -108.694160 291.914276
v 72.963097 -102.851364 295.508881
v 73.292046 -102.747360 318.614258
v 72.963097 -102.851364 318.614258
v 71.871513 -103.196564 295.508881
v 73.292046 -102.747360 291.914276
v 71.871513 -103.196564 318.614258
v 71.542564 -103.300560 318.614258
v 71.542564 -103.300560 291.914276
v 85.883766 -105.956764 295.508881
v 86.047287 -105.652962 318.614258
v 85.883766 -105.956764 318.614258
v 84.252274 -108.987762 295.508881
v 86.047287 -105.652962 291.914276
v 84.252274 -108.987762 318.614258
v 83.642548 -110.120560 318.614258
v 83.642548 -110.120560 295.508881
v 82.826797 -111.636063 295.508881
v 82.826797 -111.636063 318.614258
v 82.217079 -112.768860 318.614258
v 82.217079 -112.768860 295.508881
v 81.401329 -114.284363 295.508881
v 81.401329 -114.284363 318.614258
v 80.791595 -115.417160 318.614258
v 80.791595 -115.417160 295.508881
v 78.344360 -119.963760 295.508881
v 74.303398 -127.471161 291.914276
v 78.344360 -119.963760 318.614258
v 77.734627 -121.096458 318.614258
v 77.734627 -121.096458 295.508881
v 76.918877 -122.611961 295.508881
v 76.918877 -122.611961 318.614258
v 76.309158 -123.744759 318.614258
v 76.309158 -123.744759 295.508881
v 75.493408 -125.260262 295.508881
v 75.493408 -125.260262 318.614258
v 74.883675 -126.393059 318.614258
v 74.883675 -126.393059 295.508881
v 73.252190 -129.424072 295.508881
v 73.252190 -129.424072 318.614258
v 73.088669 -129.727875 318.614258
v 73.088669 -129.727875 291.914276
v 74.062866 -101.308762 295.508881
v 74.225800 -101.004662 318.614258
v 74.062866 -101.308762 318.614258
v 73.292046 -102.747360 291.914276
v 73.454979 -102.443260 295.508881
v 74.225800 -101.004662 291.914276
v 73.454979 -102.443260 318.614258
v 73.292046 -102.747360 318.614258
v 74.120461 -107.798859 295.508881
v 73.639404 -108.694160 318.614258
v 74.120461 -107.798859 318.614258
v 74.935066 -106.282661 295.508881
v 73.639404 -108.694160 291.914276
v 74.935066 -106.282661 318.614258
v 75.416115 -105.387360 318.614258
v 75.416115 -105.387360 291.914276
v 74.364120 -99.724693 295.508881
v 74.401184 -99.381691 318.614258
v 74.364120 -99.724693 318.614258
v 74.262863 -100.661659 295.508881
v 74.401184 -99.381691 291.914276
v 74.262863 -100.661659 318.614258
v 74.225800 -101.004662 318.614258
v 74.225800 -101.004662 291.914276
v 75.289795 -105.066360 295.508881
v 75.416115 -105.387360 318.614258
v 75.289795 -105.066360 318.614258
v 74.668144 -103.486465 291.914276
v 74.794464 -103.807465 295.508881
v 75.416115 -105.387360 291.914276
v 74.794464 -103.807465 318.614258
v 74.668144 -103.486465 318.614258
v 74.831085 -103.182365 295.508881
v 74.668144 -103.486465 318.614258
v 74.831085 -103.182365 318.614258
v 75.601898 -101.743660 291.914276
v 75.438965 -102.047760 295.508881
v 74.668144 -103.486465 291.914276
v 75.438965 -102.047760 318.614258
v 75.601898 -101.743660 318.614258
v 75.933868 -101.649765 295.508881
v 75.601898 -101.743660 318.614258
v 75.933868 -101.649765 318.614258
v 77.356636 -101.247261 295.508881
v 75.601898 -101.743660 291.914276
v 77.356636 -101.247261 318.614258
v 77.688606 -101.153358 318.614258
v 77.688606 -101.153358 291.914276
v 77.992393 -101.316864 295.508881
v 77.688606 -101.153358 318.614258
v 77.992393 -101.316864 318.614258
v 81.023369 -102.948463 295.508881
v 77.688606 -101.153358 291.914276
v 81.023369 -102.948463 318.614258
v 82.712540 -103.857765 318.614258
v 82.712540 -103.857765 295.508881
v 86.047287 -105.652962 291.914276
v 85.743507 -105.489464 295.508881
v 85.743507 -105.489464 318.614258
v 86.047287 -105.652962 318.614258
vt 61.239342 19.325899
vt 63.094181 143.548401
vt 61.239342 143.548401
vt 42.732670 19.325899
vt 63.094181 0.000000
vt 42.732670 143.548401
vt 20.361521 143.548401
vt 20.361521 19.325899
vt 1.854840 19.325899
vt 0.000000 0.000000
vt 1.854840 143.548401
vt 0.000000 143.548401
vt 33.884731 19.325899
vt 35.739571 143.548401
vt 33.884731 143.548401
vt 24.631390 19.325899
vt 35.739571 0.000000
vt 24.631390 143.548401
vt 11.108180 143.548401
vt 11.108180 19.325899
vt 0.000000 0.000000
vt 1.854840 19.325899
vt 1.854840 143.548401
vt 0.000000 143.548401
vt 0.000000 0.000000
vt 8.033181 0.000000
vt 8.033181 143.548401
vt 0.000000 143.548401
vt 12.329670 19.325899
vt 15.406000 143.548401
vt 12.329670 143.548401
vt 0.000000 0.000000
vt 3.076330 19.325899
vt 15.406000 0.000000
vt 3.076330 143.548401
vt 0.000000 143.548401
vt 59.389851 19.325899
vt 61.244678 143.548401
vt 59.389851 143.548401
vt 40.883171 19.325899
vt 61.244678 0.000000
vt 40.883171 143.548401
vt 20.361521 143.548401
vt 20.361521 19.325899
vt 0.000000 0.000000
vt 1.854840 19.325899
vt 1.854840 143.548401
vt 0.000000 143.548401
vt 85.690697 19.325899
vt 87.545532 143.548401
vt 85.690697 143.548401
vt 67.184021 19.325899
vt 87.545532 0.000000
vt 67.184021 143.548401
vt 57.745411 143.548401
vt 57.745411 19.325899
vt 48.492069 19.325899
vt 48.492069 143.548401
vt 39.053459 143.548401
vt 39.053459 19.325899
vt 29.800119 19.325899
vt 0.000000 0.000000
vt 29.800119 143.548401
vt 20.361521 143.548401
vt 20.361521 19.325899
vt 1.854840 19.325899
vt 1.854840 143.548401
vt 0.000000 143.548401
vt 35.665501 19.325899
vt 37.520340 143.548401
vt 35.665501 143.548401
vt 26.412161 19.325899
vt 37.520340 0.000000
vt 26.412161 143.548401
vt 11.108180 143.548401
vt 11.108180 19.325899
vt 0.000000 0.000000
vt 1.854840 19.325899
vt 1.854840 143.548401
vt 0.000000 143.548401
vt 0.000000 0.000000
vt 8.033181 0.000000
vt 8.033181 143.548401
vt 0.000000 143.548401
vt 50.433949 19.325899
vt 52.288792 143.548401
vt 50.433949 143.548401
vt 31.927271 19.325899
vt 52.288792 0.000000
vt 31.927271 143.548401
vt 20.361521 143.548401
vt 20.361521 19.325899
vt 1.854840 19.325899
vt 0.000000 0.000000
vt 1.854840 143.548401
vt 0.000000 143.548401
vt 14.728770 19.325899
vt 20.204210 143.548401
vt 14.728770 143.548401
vt 0.000000 0.000000
vt 20.204210 0.000000
vt 5.475430 143.548401
vt 0.000000 143.548401
vt 5.475430 19.325899
vt 16.474251 19.325899
vt 23.695160 143.548401
vt 16.474251 143.548401
vt 7.220910 19.325899
vt 23.695160 0.000000
vt 7.220910 143.548401
vt 0.000000 143.548401
vt 0.000000 0.000000
vt 8.009881 19.325899
vt 9.864710 143.548401
vt 8.009881 143.548401
vt 1.854840 19.325899
vt 9.864710 0.000000
vt 1.854840 143.548401
vt 0.000000 143.548401
vt 0.000000 0.000000
vt 145.139603 19.325899
vt 146.994400 143.548401
vt 145.139603 143.548401
vt 126.632896 19.325899
vt 146.994400 0.000000
vt 126.632896 143.548401
vt 119.716599 143.548401
vt 119.716599 19.325899
vt 110.463203 19.325899
vt 110.463203 143.548401
vt 103.546898 143.548401
vt 103.546898 19.325899
vt 94.293556 19.325899
vt 94.293556 143.548401
vt 87.377220 143.548401
vt 87.377220 19.325899
vt 13.779100 0.000000
vt 59.617199 143.548401
vt 52.700871 143.548401
vt 59.617199 19.325899
vt 52.700871 19.325899
vt 43.447529 19.325899
vt 43.447529 143.548401
vt 36.531189 143.548401
vt 36.531189 19.325899
vt 27.277849 19.325899
vt 27.277849 143.548401
vt 20.361521 143.548401
vt 20.361521 19.325899
vt 1.854840 19.325899
vt 1.854840 143.548401
vt 0.000000 143.548401
vt 0.000000 0.000000
vt 8.774930 19.325899
vt 10.629770 143.548401
vt 8.774930 143.548401
vt 0.000000 0.000000
vt 1.854840 19.325899
vt 10.629770 0.000000
vt 1.854840 143.548401
vt 0.000000 143.548401
vt 14.717780 19.325899
vt 20.182230 143.548401
vt 14.717780 143.548401
vt 5.464450 19.325899
vt 20.182230 0.000000
vt 5.464450 143.548401
vt 0.000000 143.548401
vt 0.000000 0.000000
vt 1.854840 19.325899
vt 8.776371 0.000000
vt 6.921530 19.325899
vt 9.127930 19.325899
vt 10.982770 143.548401
vt 9.127930 143.548401
vt 0.000000 0.000000
vt 1.854840 19.325899
vt 10.982770 0.000000
vt 1.854840 143.548401
vt 0.000000 143.548401
vt 0.000000 0.000000
vt 8.774930 19.325899
vt 1.854840 19.325899
vt 10.629770 0.000000
vt 0.000000 143.548401
vt 9.804361 19.325899
vt 11.659200 143.548401
vt 9.804361 143.548401
vt 11.659200 0.000000
vt 1.854840 143.548401
vt 0.000000 143.548401
vt 1.854840 19.325899
vt 0.000000 0.000000
vt 49.181980 19.325899
vt 51.036819 143.548401
vt 49.181980 143.548401
vt 30.675310 19.325899
vt 51.036819 0.000000
vt 30.675310 143.548401
vt 20.361521 143.548401
vt 20.361521 19.325899
vt 0.000000 0.000000
vt 1.854840 19.325899
vt 1.854840 143.548401
vt 0.000000 143.548401
vt 8.776371 143.548401
vt 6.921530 143.548401
vt 1.854840 143.548401
vt 0.000000 143.548401
vt 0.000000 0.000000
vt 10.629770 143.548401
vt 8.774930 143.548401
vt 1.854840 143.548401
vn -0.8806 0.4739 0.0000
vn -0.4742 -0.8804 0.0000
vn -0.4741 -0.8805 0.0000
vn -0.4741 -0.8804 -0.0000
vn -0.4740 -0.8805 0.0000
vn -0.4743 -0.8804 -0.0000
vn 0.4728 0.8812 0.0000
vn 0.8811 -0.4730 0.0000
vn 0.8811 -0.4729 -0.0000
vn -0.8806 0.4738 0.0000
vn -0.8807 0.4737 0.0000
vn -0.8807 0.4738 0.0000
vn -0.4739 -0.8806 0.0000
vn -0.4739 -0.8806 -0.0001
vn -0.4737 -0.8807 0.0000
vn -0.8820 0.4712 0.0000
vn -0.8820 0.4713 0.0000
vn -0.4728 -0.8812 0.0000
vn 0.4647 0.8855 0.0000
vn 0.4646 0.8855 0.0000
vn 0.8800 -0.4750 0.0000
vn 0.4735 0.8808 0.0000
vn 0.3015 -0.9535 0.0000
vn 0.3014 -0.9535 0.0000
vn 0.8805 -0.4740 0.0000
vn 0.8806 -0.4739 0.0000
vn 0.8806 -0.4740 0.0000
vn 0.8805 -0.4740 0.0001
vn 0.8815 -0.4723 0.0000
vn 0.8814 -0.4723 0.0000
vn -0.8809 0.4733 0.0000
vn 0.9942 -0.1075 -0.0000
vn -0.9305 -0.3662 0.0000
vn -0.9306 -0.3661 0.0000
vn -0.9306 -0.3662 -0.0000
vn -0.8815 0.4723 0.0000
vn -0.2722 0.9623 0.0000
vn -0.2722 0.9622 0.0000
vn 0.4742 0.8804 0.0000
vn 0.4740 0.8805 -0.0000
vn 0.4739 0.8806 0.0000
vn 0.9942 -0.1074 0.0000
vn -0.8814 0.4723 0.0000
s off
f 1/1/1 2/2/1 3/3/1
f 4/4/1 5/5/1 1/1/1
f 2/2/1 1/1/1 5/5/1
f 6/6/1 7/7/1 4/4/1
f 7/7/1 8/8/1 4/4/1
f 8/8/1 5/5/1 4/4/1
f 9/9/1 10/10/1 8/8/1
f 8/8/1 10/10/1 5/5/1
f 11/11/1 12/12/1 9/9/1
f 12/12/1 10/10/1 9/9/1
f 13/13/2 14/14/2 15/15/2
f 16/16/3 17/17/3 13/13/3
f 14/14/2 13/13/2 17/17/2
f 18/18/2 19/19/2 16/16/2
f 19/19/2 20/20/2 16/16/2
f 20/20/2 21/21/2 16/16/2
f 21/21/4 17/17/4 16/16/4
f 22/22/2 21/21/2 20/20/2
f 23/23/5 24/24/5 22/22/5
f 24/24/6 21/21/6 22/22/6
f 25/25/7 26/26/7 27/27/7
f 25/25/7 27/27/7 28/28/7
f 29/29/8 30/30/8 31/31/8
f 32/32/9 29/29/9 33/33/9
f 32/32/8 34/34/8 29/29/8
f 30/30/8 29/29/8 34/34/8
f 35/35/8 36/36/8 33/33/8
f 36/36/8 32/32/8 33/33/8
f 37/37/10 38/38/10 39/39/10
f 40/40/11 41/41/11 37/37/11
f 38/38/10 37/37/10 41/41/10
f 42/42/11 43/43/11 40/40/11
f 43/43/11 44/44/11 40/40/11
f 44/44/11 45/45/11 40/40/11
f 45/45/11 41/41/11 40/40/11
f 46/46/11 45/45/11 44/44/11
f 47/47/12 48/48/12 46/46/12
f 48/48/11 45/45/11 46/46/11
f 49/49/13 50/50/13 51/51/13
f 52/52/13 53/53/13 49/49/13
f 50/50/13 49/49/13 53/53/13
f 54/54/13 55/55/13 52/52/13
f 55/55/13 56/56/13 52/52/13
f 56/56/13 53/53/13 52/52/13
f 56/56/14 57/57/14 53/53/14
f 58/58/13 59/59/13 57/57/13
f 59/59/13 60/60/13 57/57/13
f 57/57/13 60/60/13 53/53/13
f 61/61/13 62/62/13 60/60/13
f 60/60/13 62/62/13 53/53/13
f 63/63/13 64/64/13 61/61/13
f 64/64/13 65/65/13 61/61/13
f 65/65/13 62/62/13 61/61/13
f 66/66/13 62/62/13 65/65/13
f 67/67/15 68/68/15 66/66/15
f 68/68/15 62/62/15 66/66/15
f 69/69/16 70/70/16 71/71/16
f 72/72/16 73/73/16 69/69/16
f 70/70/16 69/69/16 73/73/16
f 74/74/16 75/75/16 72/72/16
f 75/75/16 76/76/16 72/72/16
f 76/76/16 77/77/16 72/72/16
f 77/77/16 73/73/16 72/72/16
f 78/78/16 77/77/16 76/76/16
f 79/79/17 80/80/17 78/78/17
f 80/80/17 77/77/17 78/78/17
f 81/81/18 82/82/18 83/83/18
f 81/81/18 83/83/18 84/84/18
f 85/85/19 86/86/19 87/87/19
f 88/88/20 89/89/20 85/85/20
f 86/86/20 85/85/20 89/89/20
f 90/90/20 91/91/20 88/88/20
f 91/91/20 92/92/20 88/88/20
f 92/92/20 89/89/20 88/88/20
f 93/93/20 94/94/20 92/92/20
f 92/92/20 94/94/20 89/89/20
f 95/95/20 96/96/20 93/93/20
f 96/96/20 94/94/20 93/93/20
f 97/97/21 98/98/21 99/99/21
f 100/100/21 102/101/21 97/97/21
f 98/98/21 97/97/21 102/101/21
f 103/102/21 104/103/21 101/104/21
f 104/103/21 100/100/21 101/104/21
f 105/105/22 106/106/22 107/107/22
f 108/108/22 109/109/22 105/105/22
f 106/106/22 105/105/22 109/109/22
f 110/110/22 111/111/22 108/108/22
f 111/111/22 112/112/22 108/108/22
f 112/112/22 109/109/22 108/108/22
f 113/113/23 114/114/23 115/115/23
f 116/116/23 117/117/23 113/113/23
f 114/114/23 113/113/23 117/117/23
f 118/118/24 119/119/24 116/116/24
f 119/119/24 120/120/24 116/116/24
f 120/120/23 117/117/23 116/116/23
f 121/121/25 122/122/25 123/123/25
f 124/124/25 125/125/25 121/121/25
f 122/122/26 121/121/26 125/125/26
f 126/126/27 127/127/27 124/124/27
f 127/127/27 128/128/27 124/124/27
f 124/124/25 128/128/25 125/125/25
f 128/128/25 129/129/25 125/125/25
f 130/130/26 131/131/26 129/129/26
f 131/131/27 132/132/27 129/129/27
f 125/125/26 129/129/26 132/132/26
f 125/125/25 132/132/25 133/133/25
f 134/134/25 135/135/25 133/133/25
f 135/135/25 136/136/25 133/133/25
f 125/125/25 133/133/25 136/136/25
f 125/125/25 136/136/25 138/137/25
f 139/138/25 140/139/25 137/140/25
f 140/139/25 141/141/25 137/140/25
f 137/140/28 141/141/28 138/137/28
f 141/141/25 142/142/25 138/137/25
f 143/143/27 144/144/27 142/142/27
f 144/144/26 145/145/26 142/142/26
f 142/142/26 145/145/26 138/137/26
f 145/145/25 146/146/25 138/137/25
f 147/147/25 148/148/25 146/146/25
f 148/148/27 149/149/27 146/146/27
f 146/146/25 149/149/25 138/137/25
f 149/149/25 150/150/25 138/137/25
f 151/151/25 152/152/25 150/150/25
f 152/152/26 153/153/26 150/150/26
f 150/150/25 153/153/25 138/137/25
f 154/154/29 155/155/29 156/156/29
f 157/157/30 154/154/30 158/158/30
f 157/157/30 159/159/30 154/154/30
f 155/155/29 154/154/29 159/159/29
f 160/160/29 161/161/29 158/158/29
f 161/161/29 157/157/29 158/158/29
f 162/162/31 163/163/31 164/164/31
f 165/165/31 166/166/31 162/162/31
f 163/163/31 162/162/31 166/166/31
f 167/167/31 168/168/31 165/165/31
f 168/168/31 169/169/31 165/165/31
f 169/169/31 166/166/31 165/165/31
f 173/170/32 174/171/32 170/172/32
f 178/173/33 179/174/33 180/175/33
f 181/176/34 178/173/34 182/177/34
f 181/176/35 183/178/35 178/173/35
f 179/174/33 178/173/33 183/178/33
f 184/179/33 185/180/33 182/177/33
f 185/180/33 181/176/33 182/177/33
f 189/181/36 186/182/36 190/183/36
f 189/181/36 191/184/36 186/182/36
f 193/185/36 189/181/36 190/183/36
f 194/186/37 195/187/37 196/188/37
f 195/187/38 194/186/38 198/189/38
f 199/190/38 200/191/38 197/192/38
f 201/193/38 198/189/38 197/192/38
f 202/194/39 203/195/39 204/196/39
f 205/197/40 206/198/40 202/194/40
f 203/195/41 202/194/41 206/198/41
f 207/199/40 208/200/40 205/197/40
f 208/200/40 209/201/40 205/197/40
f 209/201/40 210/202/40 205/197/40
f 210/202/40 206/198/40 205/197/40
f 211/203/40 210/202/40 209/201/40
f 212/204/39 213/205/39 211/203/39
f 213/205/41 210/202/41 211/203/41
s 1
f 100/100/21 97/97/21 101/104/21
f 136/136/25 137/140/25 138/137/25
f 170/172/42 171/206/42 172/207/42
f 171/206/42 170/172/42 174/171/42
f 175/208/42 176/209/42 173/170/42
f 176/209/42 177/210/42 173/170/42
f 177/210/42 174/171/42 173/170/42
f 186/182/43 187/211/36 188/212/36
f 187/211/36 186/182/43 191/184/43
f 192/213/36 193/185/36 190/183/36
f 197/192/38 198/189/38 194/186/38
f 200/191/38 201/193/38 197/192/38
