# Blender v3.0.1 OBJ File: 'rockerfeller_plaza.blend'
# www.blender.org
o geometryt000010000010000110010110000110000110100000000110st85
v 750.329285 -256.782715 105.404373
v 740.248108 -262.417999 105.404373
v 748.362183 -247.346481 105.404373
v 745.247803 -266.223297 105.404373
v 739.776978 -263.278412 105.404373
v 750.313477 -246.735291 105.404373
v 752.219482 -249.477585 105.404373
v 752.088989 -247.691589 105.404373
v 753.799683 -250.336182 105.404373
v 745.247803 -266.223297 126.604385
v 740.248108 -262.417999 126.604385
v 739.776978 -263.278412 126.604385
v 750.329285 -256.782715 126.604385
v 753.799683 -250.336182 126.604385
v 752.219482 -249.477585 126.604385
v 748.362183 -247.346481 126.604385
v 752.088989 -247.691589 126.604385
v 750.313477 -246.735291 126.604385
vt 0.386760 0.504420
vt 0.400220 0.483960
vt 0.370210 0.500670
vt 0.405560 0.493950
vt 0.401940 0.482990
vt 0.368480 0.504620
vt 0.372870 0.508400
vt 0.369660 0.508180
vt 0.373930 0.511560
vt 0.405560 0.493950
vt 0.400220 0.483960
vt 0.401940 0.482990
vt 0.386760 0.504420
vt 0.373930 0.511560
vt 0.372870 0.508400
vt 0.370210 0.500670
vt 0.369660 0.508180
vt 0.368480 0.504620
vn 0.0000 0.0000 -1.0000
vn 0.0000 0.0000 1.0000
s off
f 1/1/1 2/2/1 3/3/1
f 4/4/1 2/2/1 1/1/1
f 5/5/1 2/2/1 4/4/1
f 6/6/1 7/7/1 3/3/1
f 7/7/1 1/1/1 3/3/1
f 8/8/1 7/7/1 6/6/1
f 9/9/1 1/1/1 7/7/1
f 10/10/2 11/11/2 12/12/2
f 11/11/2 10/10/2 13/13/2
f 14/14/2 15/15/2 13/13/2
f 13/13/2 15/15/2 16/16/2
f 13/13/2 16/16/2 11/11/2
f 15/15/2 17/17/2 18/18/2
f 16/16/2 15/15/2 18/18/2
