# Blender v3.0.1 OBJ File: 'rockerfeller_plaza.blend'
# www.blender.org
o geometryt000010000010000110010110000110000100110010010110st169_
v 173.383896 -97.907722 21.391590
v 173.951599 -98.214813 83.132301
v 173.383896 -97.907722 83.132301
v 170.942902 -96.587112 21.391590
v 173.951599 -98.214813 20.532301
v 170.942902 -96.587112 83.132301
v 170.375305 -96.280022 83.132301
v 170.375305 -96.280022 20.532301
v 170.540298 -95.977020 21.391590
v 170.375305 -96.280022 83.132301
v 170.540298 -95.977020 83.132301
v 171.867401 -93.539528 21.391590
v 170.375305 -96.280022 20.532301
v 171.867401 -93.539528 83.132301
v 171.941101 -93.404160 83.132301
v 171.941101 -93.404160 21.391590
v 172.604599 -92.185410 21.391590
v 172.604599 -92.185410 83.132301
v 172.678299 -92.050049 83.132301
v 172.678299 -92.050049 21.391590
v 173.341904 -90.831299 21.391590
v 173.341904 -90.831299 83.132301
v 173.415604 -90.695938 83.132301
v 173.415604 -90.695938 21.391590
v 174.079102 -89.477188 21.391590
v 174.079102 -89.477188 83.132301
v 174.152802 -89.341820 83.132301
v 174.152802 -89.341820 21.391590
v 176.143402 -85.685593 21.391590
v 176.143402 -85.685593 83.132301
v 176.217102 -85.550217 83.132301
v 176.217102 -85.550217 21.391590
v 176.880707 -84.331467 21.391590
v 176.880707 -84.331467 83.132301
v 176.954407 -84.196114 83.132301
v 176.954407 -84.196114 21.391590
v 183.459702 -72.247559 20.532301
v 177.617905 -82.977364 21.391590
v 177.617905 -82.977364 83.132301
v 177.691605 -82.842003 83.132301
v 177.691605 -82.842003 21.391590
v 179.682205 -79.185760 21.391590
v 179.682205 -79.185760 83.132301
v 179.755905 -79.050392 83.132301
v 179.755905 -79.050392 21.391590
v 180.419495 -77.831650 21.391590
v 180.419495 -77.831650 83.132301
v 180.493195 -77.696281 83.132301
v 180.493195 -77.696281 21.391590
v 181.156693 -76.477531 21.391590
v 181.156693 -76.477531 83.132301
v 181.230392 -76.342171 83.132301
v 181.230392 -76.342171 21.391590
v 181.893906 -75.123421 21.391590
v 181.893906 -75.123421 83.132301
v 181.967606 -74.988060 83.132301
v 181.967606 -74.988060 21.391590
v 183.294693 -72.550560 21.391590
v 183.294693 -72.550560 83.132301
v 183.459702 -72.247559 83.132301
v 177.921005 -103.660202 21.391590
v 178.390198 -103.914398 83.132301
v 177.921005 -103.660202 83.132301
v 173.040497 -101.016296 21.391590
v 178.390198 -103.914398 20.532301
v 173.040497 -101.016296 83.132301
v 172.571304 -100.762100 83.132301
v 172.571304 -100.762100 20.532301
v 172.930893 -100.098503 21.391590
v 172.571304 -100.762100 83.132301
v 172.930893 -100.098503 83.132301
v 173.951599 -98.214813 20.532301
v 173.591995 -98.878410 21.391590
v 172.571304 -100.762100 20.532301
v 173.591995 -98.878410 83.132301
v 173.951599 -98.214813 83.132301
v 179.405106 -102.029900 21.391590
v 179.761993 -101.367203 83.132301
v 179.405106 -102.029900 83.132301
v 178.390198 -103.914398 20.532301
v 178.747101 -103.251602 21.391590
v 179.761993 -101.367203 20.532301
v 178.747101 -103.251602 83.132301
v 178.390198 -103.914398 83.132301
v 182.960403 -103.106201 21.391590
v 183.720596 -103.519600 83.132301
v 182.960403 -103.106201 83.132301
v 179.761993 -101.367203 20.532301
v 180.522202 -101.780502 21.391590
v 183.720596 -103.519600 20.532301
v 180.522202 -101.780502 83.132301
v 179.761993 -101.367203 83.132301
v 183.899002 -72.477882 21.391590
v 183.459702 -72.247559 83.132301
v 183.899002 -72.477882 83.132301
v 190.044006 -75.699547 21.391590
v 183.459702 -72.247559 20.532301
v 190.044006 -75.699547 83.132301
v 190.483307 -75.929871 83.132301
v 190.483307 -75.929871 20.532301
v 196.606293 -79.757439 21.391590
v 196.770798 -79.454170 83.132301
v 196.606293 -79.757439 83.132301
v 195.283295 -82.197151 21.391590
v 196.770798 -79.454170 20.532301
v 195.283295 -82.197151 83.132301
v 195.209305 -82.333649 83.132301
v 195.209305 -82.333649 21.391590
v 194.547806 -83.553497 21.391590
v 194.547806 -83.553497 83.132301
v 194.473694 -83.690002 83.132301
v 194.473694 -83.690002 21.391590
v 193.812195 -84.909851 21.391590
v 193.812195 -84.909851 83.132301
v 193.738205 -85.046349 83.132301
v 193.738205 -85.046349 21.391590
v 193.076706 -86.266197 21.391590
v 193.076706 -86.266197 83.132301
v 193.002701 -86.402702 83.132301
v 193.002701 -86.402702 21.391590
v 191.018204 -90.062263 21.391590
v 191.018204 -90.062263 83.132301
v 190.944199 -90.198761 83.132301
v 190.944199 -90.198761 21.391590
v 190.282700 -91.418610 21.391590
v 190.282700 -91.418610 83.132301
v 190.208694 -91.555107 83.132301
v 190.208694 -91.555107 21.391590
v 183.720596 -103.519600 20.532301
v 189.547195 -92.774971 21.391590
v 189.547195 -92.774971 83.132301
v 189.473099 -92.911461 83.132301
v 189.473099 -92.911461 21.391590
v 187.488602 -96.571022 21.391590
v 187.488602 -96.571022 83.132301
v 187.414597 -96.707520 83.132301
v 187.414597 -96.707520 21.391590
v 186.753098 -97.927368 21.391590
v 186.753098 -97.927368 83.132301
v 186.679092 -98.063873 83.132301
v 186.679092 -98.063873 21.391590
v 186.017593 -99.283730 21.391590
v 186.017593 -99.283730 83.132301
v 185.943604 -99.420219 83.132301
v 185.943604 -99.420219 21.391590
v 185.282104 -100.640099 21.391590
v 185.282104 -100.640099 83.132301
v 185.207993 -100.776604 83.132301
v 185.207993 -100.776604 21.391590
v 183.884995 -103.216301 21.391590
v 183.884995 -103.216301 83.132301
v 183.720596 -103.519600 83.132301
v 191.206100 -76.334999 21.391590
v 190.483307 -75.929871 83.132301
v 191.206100 -76.334999 83.132301
v 196.048004 -79.049042 21.391590
v 190.483307 -75.929871 20.532301
v 196.048004 -79.049042 83.132301
v 196.770798 -79.454170 83.132301
v 196.770798 -79.454170 20.532301
vt 1.368280 0.338440
vt 1.626420 24.655380
vt 1.368280 24.655380
vt 0.258140 0.338440
vt 1.626420 0.000000
vt 0.258140 24.655380
vt 0.000000 24.655380
vt 0.000000 0.000000
vt 10.807390 0.338440
vt 10.945390 24.655380
vt 10.807390 24.655380
vt 9.697251 0.338440
vt 10.945390 0.000000
vt 9.697251 24.655380
vt 9.635601 24.655380
vt 9.635601 0.338440
vt 9.080531 0.338440
vt 9.080531 24.655380
vt 9.018880 24.655380
vt 9.018880 0.338440
vt 8.463810 0.338440
vt 8.463810 24.655380
vt 8.402160 24.655380
vt 8.402160 0.338440
vt 7.847090 0.338440
vt 7.847090 24.655380
vt 7.785440 24.655380
vt 7.785440 0.338440
vt 6.120240 0.338440
vt 6.120240 24.655380
vt 6.058590 24.655380
vt 6.058590 0.338440
vt 5.503520 24.655380
vt 5.441870 24.655380
vt 5.503520 0.338440
vt 5.441870 0.338440
vt 0.000000 0.000000
vt 4.886800 24.655380
vt 4.825150 24.655380
vt 4.886800 0.338440
vt 4.825150 0.338440
vt 3.159940 0.338440
vt 3.159940 24.655380
vt 3.098290 24.655380
vt 3.098290 0.338440
vt 2.543230 0.338440
vt 2.543230 24.655380
vt 2.481570 24.655380
vt 2.481570 0.338440
vt 1.926510 0.338440
vt 1.926510 24.655380
vt 1.864850 24.655380
vt 1.864850 0.338440
vt 1.309790 0.338440
vt 1.309790 24.655380
vt 1.248140 24.655380
vt 1.248140 0.338440
vt 0.138000 0.338440
vt 0.138000 24.655380
vt 0.000000 24.655380
vt 2.433700 0.338440
vt 2.647140 24.655380
vt 2.433700 24.655380
vt 0.213430 0.338440
vt 2.647140 0.000000
vt 0.213430 24.655380
vt 0.000000 24.655380
vt 0.000000 0.000000
vt 0.000000 0.000000
vt 1.158870 0.000000
vt 0.856970 0.338440
vt 1.158870 24.655380
vt 0.301900 24.655380
vt 0.000000 24.655380
vt 0.301900 0.338440
vt 0.856150 0.338440
vt 1.157240 24.655380
vt 0.856150 24.655380
vt 0.000000 0.000000
vt 0.301080 0.338440
vt 1.157240 0.000000
vt 0.301080 24.655380
vt 0.000000 24.655380
vt 1.456250 0.338440
vt 1.802370 24.655380
vt 1.456250 24.655380
vt 0.000000 0.000000
vt 0.346120 0.338440
vt 1.802370 0.000000
vt 0.346120 24.655380
vt 0.000000 24.655380
vt 2.973750 0.338440
vt 3.172150 24.655380
vt 2.973750 24.655380
vt 0.198410 0.338440
vt 3.172150 0.000000
vt 0.198410 24.655380
vt 0.000000 24.655380
vt 0.000000 0.000000
vt 10.812440 0.338440
vt 10.950440 24.655380
vt 10.812440 24.655380
vt 9.702301 0.338440
vt 10.950440 0.000000
vt 9.702301 24.655380
vt 9.640191 24.655380
vt 9.640191 0.338440
vt 9.085121 0.338440
vt 9.085121 24.655380
vt 9.023011 24.655380
vt 9.023011 0.338440
vt 8.467941 0.338440
vt 8.467941 24.655380
vt 8.405831 24.655380
vt 8.405831 0.338440
vt 7.850770 0.338440
vt 7.850770 24.655380
vt 7.788650 24.655380
vt 7.788650 0.338440
vt 6.123450 0.338440
vt 6.123450 24.655380
vt 6.061340 24.655380
vt 6.061340 0.338440
vt 5.506270 0.338440
vt 5.506270 24.655380
vt 5.444160 24.655380
vt 5.444160 0.338440
vt 0.000000 0.000000
vt 4.889090 0.338440
vt 3.161780 0.338440
vt 4.826980 0.338440
vt 3.161780 24.655380
vt 3.099670 24.655380
vt 3.099670 0.338440
vt 2.544600 0.338440
vt 2.544600 24.655380
vt 2.482490 24.655380
vt 2.482490 0.338440
vt 1.927420 0.338440
vt 1.927420 24.655380
vt 1.865310 24.655380
vt 1.865310 0.338440
vt 1.310250 0.338440
vt 1.310250 24.655380
vt 1.248140 24.655380
vt 1.248140 0.338440
vt 0.138000 0.338440
vt 0.138000 24.655380
vt 0.000000 24.655380
vt 2.551700 0.338440
vt 2.883120 24.655380
vt 2.551700 24.655380
vt 0.331420 0.338440
vt 2.883120 0.000000
vt 0.331420 24.655380
vt 0.000000 24.655380
vt 0.000000 0.000000
vt 0.856970 24.655380
vt 4.889090 24.655380
vt 4.826980 24.655380
vn -0.4758 -0.8796 0.0000
vn -0.4758 -0.8795 -0.0000
vn -0.4759 -0.8795 0.0000
vn -0.8782 0.4783 0.0000
vn -0.8783 0.4782 0.0000
vn -0.8782 0.4782 0.0000
vn -0.8783 0.4780 0.0000
vn -0.8783 0.4781 0.0000
vn -0.8783 0.4782 0.0002
vn -0.8784 0.4779 -0.0011
vn -0.8782 0.4782 -0.0002
vn -0.8783 0.4781 -0.0018
vn -0.8783 0.4781 0.0003
vn -0.8783 0.4782 0.0001
vn -0.8784 0.4780 -0.0009
vn -0.8783 0.4782 -0.0001
vn -0.8783 0.4782 -0.0005
vn -0.8783 0.4782 -0.0002
vn -0.8783 0.4781 0.0011
vn -0.8783 0.4781 -0.0002
vn -0.8783 0.4781 -0.0010
vn -0.8783 0.4781 0.0001
vn -0.4763 -0.8793 0.0000
vn -0.4764 -0.8792 0.0000
vn -0.8792 0.4764 0.0000
vn -0.8792 0.4765 0.0000
vn 0.8804 -0.4742 0.0000
vn 0.8804 -0.4742 0.0001
vn 0.8805 -0.4741 0.0000
vn -0.4777 -0.8785 0.0000
vn -0.4777 -0.8785 0.0001
vn -0.4776 -0.8786 0.0000
vn 0.4643 0.8857 0.0000
vn 0.4644 0.8856 0.0000
vn 0.8790 -0.4768 0.0000
vn 0.8791 -0.4767 0.0000
vn 0.8791 -0.4766 0.0000
vn 0.8791 -0.4767 -0.0002
vn 0.8792 -0.4764 0.0000
vn 0.8791 -0.4767 0.0001
vn 0.8792 -0.4765 0.0000
vn 0.8791 -0.4767 -0.0001
vn 0.8791 -0.4767 -0.0003
vn 0.8789 -0.4770 0.0000
vn 0.4889 0.8723 0.0000
vn 0.4890 0.8723 -0.0000
vn -0.8782 0.4782 -0.0022
vn -0.8783 0.4780 -0.0018
vn -0.8782 0.4782 -0.0005
vn -0.8782 0.4784 0.0009
vn 0.8791 -0.4766 -0.0003
vn 0.8791 -0.4766 -0.0009
vn 0.8791 -0.4767 0.0016
vn 0.8790 -0.4767 -0.0009
vn 0.8790 -0.4768 -0.0027
vn 0.8790 -0.4767 0.0018
vn 0.8789 -0.4771 0.0000
vn 0.8791 -0.4766 -0.0001
vn 0.8791 -0.4766 -0.0012
vn 0.8791 -0.4766 -0.0018
vn 0.8790 -0.4768 0.0019
vn 0.8790 -0.4767 0.0014
vn 0.8791 -0.4767 -0.0009
vn 0.8790 -0.4768 0.0010
s off
f 1/1/1 2/2/1 3/3/1
f 4/4/2 5/5/2 1/1/2
f 2/2/1 1/1/1 5/5/1
f 6/6/2 7/7/2 4/4/2
f 7/7/3 8/8/3 4/4/3
f 8/8/2 5/5/2 4/4/2
f 9/9/4 10/10/4 11/11/4
f 12/12/5 13/13/5 9/9/5
f 10/10/5 9/9/5 13/13/5
f 14/14/6 15/15/6 12/12/6
f 15/15/7 16/16/7 12/12/7
f 16/16/8 13/13/8 12/12/8
f 16/16/9 17/17/9 13/13/9
f 18/18/6 19/19/6 17/17/6
f 19/19/6 20/20/6 17/17/6
f 17/17/10 20/20/10 13/13/10
f 20/20/11 21/21/11 13/13/11
f 22/22/6 23/23/6 21/21/6
f 23/23/6 24/24/6 21/21/6
f 21/21/12 24/24/12 13/13/12
f 24/24/13 25/25/13 13/13/13
f 26/26/6 27/27/6 25/25/6
f 27/27/7 28/28/7 25/25/7
f 28/28/14 29/29/14 13/13/14
f 30/30/5 31/31/5 29/29/5
f 31/31/5 32/32/5 29/29/5
f 34/33/6 35/34/6 33/35/6
f 35/34/6 36/36/6 33/35/6
f 33/35/5 37/37/5 13/13/5
f 39/38/6 40/39/6 38/40/6
f 40/39/8 41/41/8 38/40/8
f 41/41/15 37/37/15 38/40/15
f 42/42/16 37/37/16 41/41/16
f 43/43/6 44/44/6 42/42/6
f 44/44/6 45/45/6 42/42/6
f 45/45/17 37/37/17 42/42/17
f 46/46/18 37/37/18 45/45/18
f 47/47/6 48/48/6 46/46/6
f 48/48/6 49/49/6 46/46/6
f 49/49/19 37/37/19 46/46/19
f 50/50/20 37/37/20 49/49/20
f 51/51/6 52/52/6 50/50/6
f 52/52/8 53/53/8 50/50/8
f 53/53/21 37/37/21 50/50/21
f 54/54/9 37/37/9 53/53/9
f 55/55/6 56/56/6 54/54/6
f 56/56/6 57/57/6 54/54/6
f 57/57/22 37/37/22 54/54/22
f 58/58/5 37/37/5 57/57/5
f 59/59/4 60/60/4 58/58/4
f 60/60/6 37/37/6 58/58/6
f 61/61/23 62/62/23 63/63/23
f 64/64/23 65/65/23 61/61/23
f 62/62/24 61/61/24 65/65/24
f 66/66/24 67/67/24 64/64/24
f 67/67/23 68/68/23 64/64/23
f 68/68/23 65/65/23 64/64/23
f 72/69/25 74/70/25 69/71/25
f 70/72/25 69/71/25 74/70/25
f 75/73/25 76/74/25 73/75/25
f 76/74/26 72/69/26 73/75/26
f 77/76/27 78/77/27 79/78/27
f 80/79/28 77/76/28 81/80/28
f 80/79/27 82/81/27 77/76/27
f 78/77/29 77/76/29 82/81/29
f 83/82/29 84/83/29 81/80/29
f 84/83/29 80/79/29 81/80/29
f 85/84/30 86/85/30 87/86/30
f 88/87/31 85/84/31 89/88/31
f 88/87/31 90/89/31 85/84/31
f 86/85/30 85/84/30 90/89/30
f 91/90/32 92/91/32 89/88/32
f 92/91/32 88/87/32 89/88/32
f 93/92/33 94/93/33 95/94/33
f 96/95/33 97/96/33 93/92/33
f 94/93/33 93/92/33 97/96/33
f 98/97/33 99/98/33 96/95/33
f 99/98/34 100/99/34 96/95/34
f 100/99/33 97/96/33 96/95/33
f 101/100/35 102/101/35 103/102/35
f 104/103/36 105/104/36 101/100/36
f 102/101/35 101/100/35 105/104/35
f 106/105/37 107/106/37 104/103/37
f 107/106/37 108/107/37 104/103/37
f 108/107/36 109/108/36 105/104/36
f 110/109/35 111/110/35 109/108/35
f 111/110/37 112/111/37 109/108/37
f 112/111/38 113/112/38 105/104/38
f 114/113/39 115/114/39 113/112/39
f 115/114/36 116/115/36 113/112/36
f 116/115/40 117/116/40 105/104/40
f 118/117/36 119/118/36 117/116/36
f 119/118/41 120/119/41 117/116/41
f 120/119/40 121/120/40 105/104/40
f 122/121/37 123/122/37 121/120/37
f 123/122/36 124/123/36 121/120/36
f 124/123/36 125/124/36 105/104/36
f 126/125/36 127/126/36 125/124/36
f 127/126/37 128/127/37 125/124/37
f 125/124/36 129/128/36 105/104/36
f 130/129/42 129/128/42 128/127/42
f 134/130/40 129/128/40 133/131/40
f 135/132/37 136/133/37 134/130/37
f 136/133/36 137/134/36 134/130/36
f 138/135/43 129/128/43 137/134/43
f 139/136/36 140/137/36 138/135/36
f 140/137/41 141/138/41 138/135/41
f 142/139/36 129/128/36 141/138/36
f 143/140/37 144/141/37 142/139/37
f 144/141/37 145/142/37 142/139/37
f 146/143/36 129/128/36 145/142/36
f 147/144/35 148/145/35 146/143/35
f 148/145/35 149/146/35 146/143/35
f 150/147/40 129/128/40 149/146/40
f 151/148/44 152/149/44 150/147/44
f 152/149/41 129/128/41 150/147/41
f 153/150/45 154/151/45 155/152/45
f 156/153/46 157/154/46 153/150/46
f 154/151/45 153/150/45 157/154/45
f 158/155/45 159/156/45 156/153/45
f 159/156/45 160/157/45 156/153/45
f 160/157/46 157/154/46 156/153/46
s 1
f 25/25/47 28/28/47 13/13/47
f 29/29/48 32/32/49 13/13/49
f 32/32/49 33/35/18 13/13/49
f 36/36/50 37/37/9 33/35/50
f 38/40/16 37/37/9 36/36/50
f 69/71/25 70/72/25 71/158/25
f 72/69/25 69/71/25 73/75/25
f 108/107/51 105/104/51 104/103/51
f 109/108/52 112/111/52 105/104/52
f 113/112/53 116/115/53 105/104/53
f 117/116/54 120/119/54 105/104/54
f 121/120/55 124/123/55 105/104/55
f 128/127/56 129/128/56 125/124/56
f 131/159/35 132/160/57 130/129/58
f 132/160/57 133/131/59 130/129/58
f 133/131/59 129/128/60 130/129/58
f 137/134/61 129/128/61 134/130/61
f 141/138/62 129/128/62 138/135/62
f 145/142/63 129/128/63 142/139/63
f 149/146/64 129/128/64 146/143/64
