# Blender v3.0.1 OBJ File: 'rockerfeller_plaza.blend'
# www.blender.org
o geometryt000010000010000110010110000110000110100000100110st109_
v 555.954529 -201.435013 655.949097
v 571.411133 -220.206711 655.949097
v 551.675598 -209.533905 655.949097
v 575.935425 -212.160507 655.949097
v 567.329102 -189.345612 655.949097
v 572.366821 -192.051407 655.949097
v 568.784424 -193.203506 655.949097
v 569.947083 -184.341309 655.949097
v 572.770142 -191.304810 655.949097
v 573.664307 -189.649307 655.949097
v 584.861084 -195.658615 655.949097
v 586.034119 -193.446701 655.949097
v 586.257385 -193.044510 655.949097
v 558.648865 -196.463104 655.949097
v 563.582703 -187.335205 655.949097
v 565.502563 -188.356506 655.949097
v 586.257385 -193.044510 680.949097
v 569.947083 -184.341309 680.949097
v 586.034119 -193.446701 680.949097
v 584.861084 -195.658615 680.949097
v 582.293030 -194.280411 680.949097
v 573.664307 -189.649307 680.949097
v 573.366699 -190.200302 680.949097
v 572.770142 -191.304810 680.949097
v 567.329102 -189.345612 680.949097
v 571.211365 -191.430801 680.949097
v 572.366821 -192.051407 680.949097
v 555.954529 -201.435013 680.949097
v 551.675598 -209.533905 680.949097
v 571.411133 -220.206711 680.949097
v 560.537292 -203.894913 680.949097
v 575.935425 -212.160507 680.949097
v 558.648865 -196.463104 764.949097
v 555.954529 -201.435013 764.949097
v 575.935425 -212.160507 764.949097
v 574.169800 -204.798004 764.949097
v 573.664307 -189.649307 764.949097
v 572.366821 -192.051407 764.949097
v 584.861084 -195.658615 764.949097
v 579.103516 -195.659012 764.949097
v 574.515259 -204.158005 764.949097
v 563.582703 -187.335205 772.949097
v 558.648865 -196.463104 772.949097
v 565.502563 -188.356506 772.949097
v 567.329102 -189.345612 772.949097
v 572.366821 -192.051407 772.949097
v 574.169800 -204.798004 772.949097
v 579.103516 -195.659012 772.949097
vt 0.349860 0.101020
vt 0.379100 0.131730
vt 0.365950 0.092200
vt 0.363020 0.141040
vt 0.324240 0.124230
vt 0.327560 0.134320
vt 0.330800 0.127070
vt 0.314300 0.129620
vt 0.326080 0.135150
vt 0.322780 0.136990
vt 0.330160 0.159410
vt 0.325760 0.161830
vt 0.324960 0.162290
vt 0.339950 0.106560
vt 0.321780 0.116720
vt 0.323020 0.120570
vt 0.324960 0.162290
vt 0.314300 0.129620
vt 0.325760 0.161830
vt 0.330160 0.159410
vt 0.328460 0.154270
vt 0.322780 0.136990
vt 0.323880 0.136370
vt 0.326080 0.135150
vt 0.324240 0.124230
vt 0.326800 0.132000
vt 0.327560 0.134320
vt 0.349860 0.101020
vt 0.365950 0.092200
vt 0.379100 0.131730
vt 0.352880 0.110190
vt 0.363020 0.141040
vt 0.339950 0.106560
vt 0.349860 0.101020
vt 0.363020 0.141040
vt 0.350190 0.137650
vt 0.322780 0.136990
vt 0.327560 0.134320
vt 0.330160 0.159410
vt 0.331990 0.147810
vt 0.348910 0.138360
vt 0.321780 0.116720
vt 0.339950 0.106560
vt 0.323020 0.120570
vt 0.324240 0.124230
vt 0.327560 0.134320
vt 0.350190 0.137650
vt 0.331990 0.147810
vn 0.0000 0.0000 -1.0000
vn 0.0000 0.0000 1.0000
vn -0.0001 0.0000 1.0000
s off
f 1/1/1 2/2/1 3/3/1
f 1/1/1 4/4/1 2/2/1
f 5/5/1 6/6/1 7/7/1
f 5/5/1 8/8/1 9/9/1
f 9/9/1 6/6/1 5/5/1
f 6/6/1 4/4/1 7/7/1
f 8/8/1 10/10/1 9/9/1
f 8/8/1 11/11/1 10/10/1
f 8/8/1 12/12/1 11/11/1
f 12/12/1 8/8/1 13/13/1
f 10/10/1 11/11/1 9/9/1
f 1/1/1 14/14/1 4/4/1
f 14/14/1 15/15/1 16/16/1
f 5/5/1 14/14/1 16/16/1
f 7/7/1 14/14/1 5/5/1
f 4/4/1 14/14/1 7/7/1
f 11/11/1 6/6/1 9/9/1
f 6/6/1 11/11/1 4/4/1
f 17/17/2 18/18/2 19/19/2
f 19/19/2 18/18/2 20/20/2
f 20/20/3 18/18/3 21/21/3
f 21/21/2 18/18/2 22/22/2
f 22/22/2 18/18/2 23/23/2
f 24/24/2 23/23/2 18/18/2
f 24/24/2 18/18/2 25/25/2
f 24/24/3 25/25/3 26/26/3
f 27/27/2 24/24/2 26/26/2
f 28/28/2 29/29/2 30/30/2
f 28/28/2 30/30/2 31/31/2
f 31/31/2 30/30/2 32/32/2
f 33/33/2 34/34/2 35/35/2
f 35/35/2 36/36/2 33/33/2
f 37/37/2 38/38/2 39/39/2
f 38/38/2 40/40/2 39/39/2
f 41/41/2 36/36/2 35/35/2
f 41/41/2 35/35/2 40/40/2
f 35/35/2 39/39/2 40/40/2
f 42/42/2 43/43/2 44/44/2
f 44/44/2 43/43/2 45/45/2
f 45/45/2 43/43/2 46/46/2
f 46/46/2 43/43/2 47/47/2
f 46/46/2 47/47/2 48/48/2
