# Blender v3.0.1 OBJ File: 'rockerfeller_plaza.blend'
# www.blender.org
o geometryt000010000010000110010110000110000100110010010110st17
v 99.032288 -224.981400 16.957211
v 112.033600 -215.616104 16.957211
v 100.339401 -237.267593 16.957211
v 104.967102 -214.076996 16.957211
v 105.926003 -212.322800 16.957211
v 92.124458 -237.884506 16.957211
v 98.223579 -241.177902 16.957211
v 112.033600 -215.616104 30.757210
v 105.926003 -212.322800 30.757210
v 104.967102 -214.076996 30.757210
v 99.032288 -224.981400 30.757210
v 92.124458 -237.884506 30.757210
v 100.339401 -237.267593 30.757210
v 98.223579 -241.177902 30.757210
vt 0.377920 0.194380
vt 0.356740 0.220810
vt 0.399860 0.196730
vt 0.356190 0.206600
vt 0.352690 0.208570
vt 0.403590 0.180160
vt 0.407650 0.192380
vt 0.356740 0.220810
vt 0.352690 0.208570
vt 0.356190 0.206600
vt 0.377920 0.194380
vt 0.403590 0.180160
vt 0.399860 0.196730
vt 0.407650 0.192380
vn 0.0000 0.0000 -1.0000
vn 0.0000 0.0000 1.0000
s off
f 1/1/1 2/2/1 3/3/1
f 4/4/1 2/2/1 1/1/1
f 5/5/1 2/2/1 4/4/1
f 6/6/1 3/3/1 7/7/1
f 6/6/1 1/1/1 3/3/1
f 8/8/2 9/9/2 10/10/2
f 11/11/2 8/8/2 10/10/2
f 11/11/2 12/12/2 13/13/2
f 11/11/2 13/13/2 8/8/2
f 12/12/2 14/14/2 13/13/2
