# Blender v3.0.1 OBJ File: 'rockerfeller_plaza.blend'
# www.blender.org
o geometryt000010000010000110010110000110000110100000110100st52
v 897.462830 -65.559166 702.292664
v 897.767334 -65.721382 721.121155
v 897.462830 -65.559166 721.121155
v 894.411133 -63.933460 702.292664
v 897.767334 -65.721382 701.621155
v 894.411133 -63.933460 721.121155
v 893.458069 -63.425667 721.121155
v 893.458069 -63.425667 702.292664
v 891.932129 -62.612808 702.292664
v 891.932129 -62.612808 721.121155
v 890.978943 -62.105030 721.121155
v 890.978943 -62.105030 702.292664
v 889.453125 -61.292168 702.292664
v 885.143860 -58.996460 701.621155
v 889.453125 -61.292168 721.121155
v 888.499939 -60.784378 721.121155
v 888.499939 -60.784378 702.292664
v 885.448242 -59.158669 702.292664
v 885.448242 -59.158669 721.121155
v 885.143860 -58.996460 721.121155
v 885.306274 -58.692097 702.292664
v 885.143860 -58.996460 721.121155
v 885.306274 -58.692097 721.121155
v 886.934326 -55.641689 702.292664
v 885.143860 -58.996460 701.621155
v 886.934326 -55.641689 721.121155
v 887.367920 -54.829327 721.121155
v 887.367920 -54.829327 702.292664
v 888.181946 -53.304119 702.292664
v 888.181946 -53.304119 721.121155
v 888.615540 -52.491760 721.121155
v 888.615540 -52.491760 702.292664
v 889.429565 -50.966549 702.292664
v 889.429565 -50.966549 721.121155
v 889.863159 -50.154190 721.121155
v 889.863159 -50.154190 702.292664
v 892.901245 -44.461849 701.621155
v 890.677124 -48.628990 702.292664
v 890.677124 -48.628990 721.121155
v 891.110718 -47.816620 721.121155
v 891.110718 -47.816620 702.292664
v 892.738831 -44.766209 702.292664
v 892.738831 -44.766209 721.121155
v 892.901245 -44.461849 721.121155
v 893.205627 -44.624348 702.292664
v 892.901245 -44.461849 721.121155
v 893.205627 -44.624348 721.121155
v 896.255737 -46.253010 702.292664
v 892.901245 -44.461849 701.621155
v 896.255737 -46.253010 721.121155
v 897.207764 -46.761387 721.121155
v 897.207764 -46.761387 702.292664
v 898.732849 -47.575710 702.292664
v 898.732849 -47.575710 721.121155
v 899.684937 -48.084087 721.121155
v 899.684937 -48.084087 702.292664
v 905.516479 -51.197948 701.621155
v 901.209961 -48.898418 702.292664
v 901.209961 -48.898418 721.121155
v 902.162048 -49.406799 721.121155
v 902.162048 -49.406799 702.292664
v 905.212158 -51.035450 702.292664
v 905.212158 -51.035450 721.121155
v 905.516479 -51.197948 721.121155
v 905.354065 -51.502338 702.292664
v 905.516479 -51.197948 721.121155
v 905.354065 -51.502338 721.121155
v 903.726318 -54.552948 702.292664
v 905.516479 -51.197948 701.621155
v 903.726318 -54.552948 721.121155
v 903.294556 -55.362328 721.121155
v 903.294556 -55.362328 702.292664
v 902.480652 -56.887627 702.292664
v 902.480652 -56.887627 721.121155
v 902.048828 -57.697010 721.121155
v 902.048828 -57.697010 702.292664
v 901.234924 -59.222317 702.292664
v 897.767334 -65.721382 701.621155
v 901.234924 -59.222317 721.121155
v 900.803162 -60.031689 721.121155
v 900.803162 -60.031689 702.292664
v 899.989258 -61.556999 702.292664
v 899.989258 -61.556999 721.121155
v 899.557434 -62.366379 721.121155
v 899.557434 -62.366379 702.292664
v 897.929749 -65.416992 702.292664
v 897.929749 -65.416992 721.121155
v 897.767334 -65.721382 721.121155
vt 16.344360 0.786310
vt 16.748350 22.833719
vt 16.344360 22.833719
vt 12.295540 0.786310
vt 16.748350 0.000000
vt 12.295540 22.833719
vt 11.030900 22.833719
vt 11.030900 0.786310
vt 9.006490 0.786310
vt 9.006490 22.833719
vt 7.741850 22.833719
vt 7.741850 0.786310
vt 5.717440 0.786310
vt 0.000000 0.000000
vt 5.717440 22.833719
vt 4.452800 22.833719
vt 4.452800 0.786310
vt 0.403980 0.786310
vt 0.403980 22.833719
vt 0.000000 22.833719
vt 18.887859 0.786310
vt 19.291840 22.833719
vt 18.887859 22.833719
vt 14.839040 0.786310
vt 19.291840 0.000000
vt 14.839040 22.833719
vt 13.760790 22.833719
vt 13.760790 0.786310
vt 7.555460 0.786310
vt 0.000000 0.000000
vt 8.633710 0.786310
vt 5.531050 0.786310
vt 5.531050 22.833719
vt 4.452800 22.833719
vt 4.452800 0.786310
vt 0.403980 0.786310
vt 0.403980 22.833719
vt 0.000000 22.833719
vt 16.341921 0.786310
vt 16.745899 22.833719
vt 16.341921 22.833719
vt 12.293100 0.786310
vt 16.745899 0.000000
vt 12.293100 22.833719
vt 11.029280 22.833719
vt 11.029280 0.786310
vt 9.004871 0.786310
vt 9.004871 22.833719
vt 7.741040 22.833719
vt 7.741040 0.786310
vt 0.000000 0.000000
vt 5.716630 22.833719
vt 4.452800 22.833719
vt 5.716630 0.786310
vt 4.452800 0.786310
vt 0.403980 0.786310
vt 0.403980 22.833719
vt 0.000000 22.833719
vt 18.871710 0.786310
vt 19.275690 22.833719
vt 18.871710 22.833719
vt 14.822890 0.786310
vt 19.275690 0.000000
vt 14.822890 22.833719
vt 13.748680 22.833719
vt 13.748680 0.786310
vt 11.724270 0.786310
vt 11.724270 22.833719
vt 10.650050 22.833719
vt 10.650050 0.786310
vt 0.000000 0.000000
vt 8.625640 22.833719
vt 7.551430 22.833719
vt 8.625640 0.786310
vt 7.551430 0.786310
vt 5.527020 0.786310
vt 5.527020 22.833719
vt 4.452800 22.833719
vt 4.452800 0.786310
vt 0.403980 0.786310
vt 0.403980 22.833719
vt 0.000000 22.833719
vt 11.736380 0.786310
vt 11.736380 22.833719
vt 10.658120 22.833719
vt 10.658120 0.786310
vt 8.633710 22.833719
vt 7.555460 22.833719
vn -0.4701 -0.8826 0.0000
vn -0.4703 -0.8825 0.0000
vn -0.4702 -0.8826 0.0000
vn -0.4703 -0.8825 -0.0004
vn -0.4702 -0.8826 0.0003
vn -0.4700 -0.8827 0.0001
vn -0.4702 -0.8826 -0.0001
vn -0.4701 -0.8826 -0.0001
vn -0.8822 0.4708 -0.0000
vn -0.8821 0.4711 0.0000
vn -0.8822 0.4709 0.0000
vn -0.8824 0.4706 -0.0002
vn -0.8824 0.4705 -0.0002
vn -0.8821 0.4710 0.0002
vn -0.8824 0.4705 -0.0005
vn -0.8824 0.4706 0.0000
vn 0.4710 0.8821 0.0000
vn 0.4711 0.8821 -0.0000
vn 0.4708 0.8822 0.0000
vn 0.4707 0.8823 -0.0002
vn 0.4711 0.8821 0.0001
vn 0.4715 0.8819 0.0002
vn 0.4710 0.8822 -0.0000
vn 0.8822 -0.4708 0.0000
vn 0.8822 -0.4709 0.0000
vn 0.8823 -0.4706 0.0000
vn 0.8822 -0.4709 -0.0003
vn 0.8825 -0.4704 -0.0002
vn 0.8823 -0.4708 0.0000
vn 0.8822 -0.4709 -0.0001
vn 0.8824 -0.4705 -0.0002
vn -0.8823 0.4706 0.0003
vn -0.8823 0.4708 -0.0000
vn -0.8823 0.4706 -0.0005
vn 0.4712 0.8821 0.0000
vn 0.4712 0.8820 0.0005
vn 0.8825 -0.4704 0.0005
vn 0.8821 -0.4711 0.0004
vn 0.8821 -0.4710 -0.0001
vn 0.8821 -0.4711 0.0005
vn 0.8822 -0.4709 -0.0004
s off
f 1/1/1 2/2/1 3/3/1
f 4/4/1 5/5/1 1/1/1
f 2/2/2 1/1/2 5/5/2
f 6/6/3 7/7/3 4/4/3
f 7/7/3 8/8/3 4/4/3
f 8/8/4 5/5/4 4/4/4
f 8/8/5 9/9/5 5/5/5
f 10/10/3 11/11/3 9/9/3
f 11/11/1 12/12/1 9/9/1
f 9/9/6 12/12/6 5/5/6
f 13/13/7 14/14/7 12/12/7
f 12/12/7 14/14/7 5/5/7
f 15/15/3 16/16/3 13/13/3
f 16/16/1 17/17/1 13/13/1
f 17/17/2 14/14/2 13/13/2
f 18/18/8 14/14/8 17/17/8
f 19/19/2 20/20/2 18/18/2
f 20/20/3 14/14/3 18/18/3
f 21/21/9 22/22/9 23/23/9
f 24/24/9 25/25/9 21/21/9
f 22/22/10 21/21/10 25/25/10
f 26/26/11 27/27/11 24/24/11
f 27/27/11 28/28/11 24/24/11
f 28/28/12 25/25/12 24/24/12
f 36/29/13 37/30/13 33/31/13
f 33/31/11 37/30/11 25/25/11
f 38/32/14 37/30/14 36/29/14
f 39/33/11 40/34/11 38/32/11
f 40/34/11 41/35/11 38/32/11
f 41/35/15 37/30/15 38/32/15
f 42/36/11 37/30/11 41/35/11
f 43/37/11 44/38/11 42/36/11
f 44/38/16 37/30/16 42/36/16
f 45/39/17 46/40/17 47/41/17
f 48/42/18 49/43/18 45/39/18
f 46/40/19 45/39/19 49/43/19
f 50/44/17 51/45/17 48/42/17
f 51/45/17 52/46/17 48/42/17
f 52/46/20 49/43/20 48/42/20
f 52/46/21 53/47/21 49/43/21
f 54/48/17 55/49/17 53/47/17
f 55/49/17 56/50/17 53/47/17
f 56/50/22 57/51/22 53/47/22
f 53/47/23 57/51/23 49/43/23
f 59/52/17 60/53/17 58/54/17
f 60/53/17 61/55/17 58/54/17
f 62/56/23 57/51/23 61/55/23
f 63/57/17 64/58/17 62/56/17
f 64/58/23 57/51/23 62/56/23
f 65/59/24 66/60/24 67/61/24
f 68/62/24 69/63/24 65/59/24
f 66/60/25 65/59/25 69/63/25
f 70/64/26 71/65/26 68/62/26
f 71/65/26 72/66/26 68/62/26
f 72/66/27 73/67/27 69/63/27
f 74/68/26 75/69/26 73/67/26
f 75/69/24 76/70/24 73/67/24
f 73/67/28 76/70/28 69/63/28
f 76/70/29 78/71/29 69/63/29
f 79/72/26 80/73/26 77/74/26
f 80/73/24 81/75/24 77/74/24
f 82/76/30 78/71/30 81/75/30
f 83/77/24 84/78/24 82/76/24
f 84/78/26 85/79/26 82/76/26
f 85/79/31 78/71/31 82/76/31
f 86/80/29 78/71/29 85/79/29
f 87/81/24 88/82/24 86/80/24
f 88/82/26 78/71/26 86/80/26
s 1
f 28/28/11 29/83/32 25/25/33
f 30/84/11 31/85/11 29/83/32
f 31/85/11 32/86/34 29/83/32
f 29/83/32 32/86/34 25/25/33
f 32/86/34 33/31/15 25/25/33
f 34/87/11 35/88/11 33/31/11
f 35/88/11 36/29/11 33/31/11
f 58/54/21 57/51/35 56/50/21
f 61/55/36 57/51/35 58/54/21
f 72/66/37 69/63/37 68/62/37
f 77/74/38 78/71/39 76/70/40
f 81/75/41 78/71/39 77/74/38
