# Blender v3.0.1 OBJ File: 'rockerfeller_plaza.blend'
# www.blender.org
o geometryt000010000010000110010110000110000110100000010110st157_
v 1168.307617 -123.470276 187.669266
v 1178.884644 -103.995079 187.669266
v 1205.535522 -118.459976 187.669266
v 1220.889893 -122.687576 187.669266
v 1207.262695 -115.286674 187.669266
v 1208.594238 -145.347168 187.669266
v 1205.535522 -118.459976 338.169189
v 1168.307617 -123.470276 338.169189
v 1208.594238 -145.347168 338.169189
v 1178.884644 -103.995079 338.169189
v 1220.889893 -122.687576 338.169189
v 1207.262695 -115.286674 338.169189
vt 0.169330 0.347990
vt 0.130530 0.369770
vt 0.148370 0.423140
vt 0.151190 0.453990
vt 0.142050 0.426700
vt 0.196330 0.428670
vt 0.148370 0.423140
vt 0.169330 0.347990
vt 0.196330 0.428670
vt 0.130530 0.369770
vt 0.151190 0.453990
vt 0.142050 0.426700
vn 0.0000 0.0000 -1.0000
vn 0.0000 0.0000 1.0000
s off
f 1/1/1 2/2/1 3/3/1
f 4/4/1 3/3/1 5/5/1
f 6/6/1 3/3/1 4/4/1
f 1/1/1 3/3/1 6/6/1
f 7/7/2 8/8/2 9/9/2
f 10/10/2 8/8/2 7/7/2
f 11/11/2 7/7/2 9/9/2
f 12/12/2 7/7/2 11/11/2
