# Blender v3.0.1 OBJ File: 'rockerfeller_plaza.blend'
# www.blender.org
o geometryt000010000010000110010110000110000110100100010010st19_7
v 1079.489380 -222.150757 1010.763489
v 1086.589111 -209.111359 1010.763489
v 1098.445801 -220.208160 1010.763489
v 1093.321411 -229.616165 1010.763489
v 1099.793091 -217.738770 1010.763489
v 1100.379883 -216.654968 1010.763489
v 1124.423340 -230.973068 1010.763489
v 1101.131958 -215.269562 1010.763489
v 1125.762329 -228.514862 1010.763489
v 1123.084595 -233.453461 1010.763489
v 1107.908325 -237.372559 1010.763489
v 1115.218384 -231.491562 1010.763489
v 1102.016724 -248.310562 1010.763489
v 1105.747559 -248.966370 1010.763489
v 1112.925781 -254.178162 1010.763489
v 1113.496216 -253.138962 1010.763489
v 1122.134277 -235.207657 1010.763489
v 1087.349487 -207.714767 1010.763489
v 1103.124023 -211.626862 1010.763489
v 1090.316650 -202.262070 1010.763489
v 1093.928345 -195.625061 1010.763489
v 1106.438232 -205.537369 1010.763489
v 1104.487793 -209.123962 1010.763489
v 1107.760498 -203.101562 1010.763489
v 1141.691284 -243.449768 1010.763489
v 1145.038208 -237.270966 1010.763489
v 1126.431641 -227.274765 1010.763489
v 1127.745605 -224.850159 1010.763489
v 1112.372070 -255.194962 1010.763489
v 1100.578735 -250.969757 1010.763489
v 1111.462891 -256.870972 1010.763489
v 1130.171631 -264.767670 1010.763489
v 1131.717773 -265.593384 1010.763489
v 1143.254639 -244.297363 1010.763489
v 1129.100952 -222.347366 1010.763489
v 1131.043091 -218.771957 1010.763489
v 1132.340576 -216.369766 1010.763489
v 1126.932129 -270.756470 1010.763489
v 1107.322510 -264.513367 1010.763489
v 1108.587036 -262.178192 1010.763489
v 1130.211304 -276.813171 1010.763489
v 1109.132568 -261.183685 1010.763489
v 1152.813721 -235.092758 1010.763489
v 1110.066406 -259.462982 1010.763489
v 1099.149292 -253.628860 1010.763489
v 1105.496338 -267.898682 1010.763489
v 1105.719482 -267.485291 1010.763489
v 1131.826050 -282.045685 1010.763489
v 1107.148926 -264.826172 1010.763489
v 1158.196777 -233.364365 1010.763489
v 1104.281494 -270.133392 1010.763489
v 1133.440308 -285.801575 1010.763489
v 1162.323486 -232.483368 1010.763489
v 1097.711426 -256.299072 1010.763489
v 1096.281982 -258.958191 1010.763489
v 1093.513794 -264.097565 1010.763489
v 1094.844116 -261.617371 1010.763489
v 1098.445801 -220.208160 1024.763428
v 1086.589111 -209.111359 1024.763428
v 1079.489380 -222.150757 1024.763428
v 1093.321411 -229.616165 1024.763428
v 1097.449463 -222.037460 1024.763428
v 1099.507324 -218.262558 1024.763428
v 1099.793091 -217.738770 1024.763428
v 1100.242920 -216.907867 1024.763428
v 1100.379883 -216.654968 1024.763428
v 1101.131958 -215.269562 1017.763489
v 1087.349487 -207.714767 1017.763489
v 1086.589111 -209.111359 1017.763489
v 1093.484497 -212.883163 1017.763489
v 1103.124023 -211.626862 1017.763489
v 1090.316650 -202.262070 1017.763489
v 1102.845093 -212.136856 1017.763489
v 1106.438232 -205.537369 1017.763489
v 1093.928345 -195.625061 1017.763489
v 1104.249023 -209.561966 1017.763489
v 1104.487793 -209.123962 1017.763489
v 1105.983154 -206.374268 1017.763489
v 1100.379883 -216.654968 1017.763489
v 1101.044189 -215.431168 1017.763489
v 1107.297729 -203.954056 1017.763489
v 1107.760498 -203.101562 1017.763489
v 1098.445801 -220.208160 1082.763428
v 1093.321411 -229.616165 1082.763428
v 1107.908325 -237.372559 1082.763428
v 1115.218384 -231.491562 1082.763428
v 1123.084595 -233.453461 1082.763428
v 1102.016724 -248.310562 1082.763428
v 1105.747559 -248.966370 1082.763428
v 1112.925781 -254.178162 1082.763428
v 1110.028931 -241.066864 1082.763428
v 1109.993408 -251.252762 1082.763428
v 1113.183594 -253.708359 1082.763428
v 1113.496216 -253.138962 1082.763428
v 1118.344727 -233.171463 1082.763428
v 1122.563965 -234.414658 1082.763428
v 1122.134277 -235.207657 1082.763428
v 1122.997437 -233.614365 1082.763428
v 1094.844116 -261.617371 1030.763428
v 1093.513794 -264.097565 1030.763428
v 1105.496338 -267.898682 1030.763428
v 1104.281494 -270.133392 1030.763428
v 1104.888794 -269.015991 1030.763428
v 1102.094360 -265.529266 1030.763428
v 1105.630249 -267.650665 1030.763428
v 1105.719482 -267.485291 1030.763428
v 1096.281982 -258.958191 1040.763428
v 1094.844116 -261.617371 1040.763428
v 1104.432251 -263.359192 1040.763428
v 1107.148926 -264.826172 1040.763428
v 1105.719482 -267.485291 1040.763428
v 1106.291260 -266.421692 1040.763428
v 1097.711426 -256.299072 1050.763428
v 1096.281982 -258.958191 1050.763428
v 1107.322510 -264.513367 1050.763428
v 1107.148926 -264.826172 1050.763428
v 1107.183594 -264.763672 1050.763428
v 1106.411865 -261.002380 1050.763428
v 1107.744019 -263.734985 1050.763428
v 1108.587036 -262.178192 1050.763428
v 1099.149292 -253.628860 1060.763428
v 1097.711426 -256.299072 1060.763428
v 1109.132568 -261.183685 1060.763428
v 1108.587036 -262.178192 1060.763428
v 1108.677979 -262.012390 1060.763428
v 1108.246948 -258.490692 1060.763428
v 1109.674072 -260.185974 1060.763428
v 1110.066406 -259.462982 1060.763428
v 1099.793091 -217.738770 1076.763428
v 1098.445801 -220.208160 1076.763428
v 1100.499023 -221.311966 1076.763428
v 1123.084595 -233.453461 1076.763428
v 1123.680908 -232.348770 1076.763428
v 1124.423340 -230.973068 1076.763428
v 1100.578735 -250.969757 1070.763428
v 1099.149292 -253.628860 1070.763428
v 1110.473389 -256.334473 1070.763428
v 1110.066406 -259.462982 1070.763428
v 1110.758789 -258.177887 1070.763428
v 1111.462891 -256.870972 1070.763428
v 1100.379883 -216.654968 1070.763428
v 1099.793091 -217.738770 1070.763428
v 1102.032227 -218.941864 1070.763428
v 1101.131958 -215.269562 1070.763428
v 1125.762329 -228.514862 1070.763428
v 1124.423340 -230.973068 1070.763428
v 1124.545044 -230.749557 1070.763428
v 1125.087280 -229.754364 1070.763428
v 1112.372070 -255.194962 1076.763428
v 1102.016724 -248.310562 1076.763428
v 1100.578735 -250.969757 1076.763428
v 1111.462891 -256.870972 1076.763428
v 1111.867798 -256.124481 1076.763428
v 1112.016724 -253.689163 1076.763428
v 1112.647583 -254.688858 1076.763428
v 1112.925781 -254.178162 1076.763428
v 1126.431641 -227.274765 1060.763428
v 1103.124023 -211.626862 1060.763428
v 1101.131958 -215.269562 1060.763428
v 1105.236938 -217.477066 1060.763428
v 1126.650635 -226.870667 1060.763428
v 1127.088623 -226.062469 1060.763428
v 1127.745605 -224.850159 1060.763428
v 1125.762329 -228.514862 1060.763428
v 1126.150391 -227.795761 1060.763428
v 1104.487793 -209.123962 1050.763428
v 1103.124023 -211.626862 1050.763428
v 1108.048340 -214.271561 1050.763428
v 1127.745605 -224.850159 1050.763428
v 1128.197388 -224.015869 1050.763428
v 1128.649292 -223.181656 1050.763428
v 1129.100952 -222.347366 1050.763428
v 1105.496338 -267.898682 1050.763428
v 1104.281494 -270.133392 1050.763428
v 1126.560181 -279.216278 1050.763428
v 1131.826050 -282.045685 1050.763428
v 1133.440308 -285.801575 1050.763428
v 1132.340576 -216.369766 1050.763428
v 1131.043091 -218.771957 1050.763428
v 1136.473877 -221.690369 1050.763428
v 1152.922729 -243.100555 1050.763428
v 1158.196777 -233.364365 1050.763428
v 1162.323486 -232.483368 1050.763428
v 1106.438232 -205.537369 1040.763428
v 1104.487793 -209.123962 1040.763428
v 1110.640991 -212.429855 1040.763428
v 1129.100952 -222.347366 1040.763428
v 1129.877808 -220.917160 1040.763428
v 1131.043091 -218.771957 1040.763428
v 1105.719482 -267.485291 1060.763428
v 1105.496338 -267.898682 1060.763428
v 1130.211304 -276.813171 1060.763428
v 1131.826050 -282.045685 1060.763428
v 1107.148926 -264.826172 1060.763428
v 1107.322510 -264.513367 1060.763428
v 1126.396484 -274.763184 1060.763428
v 1131.043091 -218.771957 1060.763428
v 1129.100952 -222.347366 1060.763428
v 1133.053101 -224.471558 1060.763428
v 1149.046753 -242.046158 1060.763428
v 1152.813721 -235.092758 1060.763428
v 1158.196777 -233.364365 1060.763428
v 1122.134277 -235.207657 1142.163452
v 1105.747559 -248.966370 1142.163452
v 1113.496216 -253.138962 1142.163452
v 1115.218384 -231.491562 1142.163452
v 1112.925781 -254.178162 1142.163452
v 1112.372070 -255.194962 1142.163452
v 1130.171631 -264.767670 1142.163452
v 1141.691284 -243.449768 1142.163452
v 1123.084595 -233.453461 1142.163452
v 1131.717773 -265.593384 1142.163452
v 1143.254639 -244.297363 1142.163452
v 1107.760498 -203.101562 1030.763428
v 1106.438232 -205.537369 1030.763428
v 1114.639893 -209.948868 1030.763428
v 1131.043091 -218.771957 1030.763428
v 1131.691895 -217.570862 1030.763428
v 1132.340576 -216.369766 1030.763428
v 1126.932129 -270.756470 1070.763428
v 1108.587036 -262.178192 1070.763428
v 1107.322510 -264.513367 1070.763428
v 1130.211304 -276.813171 1070.763428
v 1111.712280 -262.571075 1070.763428
v 1109.132568 -261.183685 1070.763428
v 1118.107178 -266.010284 1070.763428
v 1127.745605 -224.850159 1070.763428
v 1126.431641 -227.274765 1070.763428
v 1135.656738 -232.230865 1070.763428
v 1130.877686 -265.144684 1070.763428
v 1128.565552 -267.736877 1070.763428
v 1131.717773 -265.593384 1070.763428
v 1129.100952 -222.347366 1070.763428
v 1145.038208 -237.270966 1070.763428
v 1130.171631 -264.767670 1070.763428
v 1152.813721 -235.092758 1070.763428
v 1136.985840 -255.869156 1070.763428
v 1143.254639 -244.297363 1070.763428
v 1142.466309 -243.869965 1070.763428
v 1143.378906 -240.334366 1070.763428
v 1141.691284 -243.449768 1070.763428
v 1142.540771 -243.910370 1070.763428
v 1110.066406 -259.462982 1129.763428
v 1109.132568 -261.183685 1129.763428
v 1126.932129 -270.756470 1129.763428
v 1111.462891 -256.870972 1129.763428
v 1112.372070 -255.194962 1129.763428
v 1128.491943 -263.864380 1129.763428
v 1130.171631 -264.767670 1129.763428
v 1124.423340 -230.973068 1129.763428
v 1123.084595 -233.453461 1129.763428
v 1124.840576 -234.396759 1129.763428
v 1141.691284 -243.449768 1129.763428
v 1145.038208 -237.270966 1129.763428
v 1125.762329 -228.514862 1129.763428
v 1126.431641 -227.274765 1129.763428
vt 0.380180 0.147160
vt 0.354200 0.161780
vt 0.370620 0.185410
vt 0.389370 0.174860
vt 0.365700 0.188190
vt 0.363540 0.189390
vt 0.381950 0.237510
vt 0.360780 0.190940
vt 0.377050 0.240270
vt 0.386890 0.234760
vt 0.398840 0.204080
vt 0.385820 0.218950
vt 0.420620 0.191950
vt 0.420620 0.199450
vt 0.427830 0.213790
vt 0.425750 0.214970
vt 0.390380 0.232800
vt 0.351410 0.163340
vt 0.353520 0.195040
vt 0.340550 0.169450
vt 0.327320 0.176890
vt 0.341380 0.201870
vt 0.348530 0.197850
vt 0.336530 0.204590
vt 0.399160 0.272020
vt 0.386850 0.278910
vt 0.374580 0.241650
vt 0.369750 0.244350
vt 0.429850 0.212650
vt 0.425910 0.188990
vt 0.433190 0.210780
vt 0.441610 0.248300
vt 0.442620 0.251400
vt 0.400210 0.275150
vt 0.364770 0.247140
vt 0.357640 0.251140
vt 0.352860 0.253810
vt 0.453540 0.241630
vt 0.448410 0.202260
vt 0.443760 0.204860
vt 0.463520 0.248100
vt 0.441780 0.205980
vt 0.380420 0.294630
vt 0.438350 0.207910
vt 0.431210 0.186040
vt 0.455150 0.198500
vt 0.454330 0.198960
vt 0.472520 0.251230
vt 0.449040 0.201900
vt 0.375560 0.305520
vt 0.459610 0.196000
vt 0.478840 0.254390
vt 0.372650 0.313860
vt 0.436520 0.183080
vt 0.441810 0.180140
vt 0.452050 0.174440
vt 0.447110 0.177180
vt 0.370620 0.185410
vt 0.354200 0.161780
vt 0.380180 0.147160
vt 0.389370 0.174860
vt 0.374260 0.183360
vt 0.366740 0.187600
vt 0.365700 0.188190
vt 0.364040 0.189110
vt 0.363540 0.189390
vt 0.360780 0.190940
vt 0.351410 0.163340
vt 0.354200 0.161780
vt 0.358870 0.175590
vt 0.353520 0.195040
vt 0.340550 0.169450
vt 0.354530 0.194470
vt 0.341380 0.201870
vt 0.327320 0.176890
vt 0.349400 0.197360
vt 0.348530 0.197850
vt 0.343050 0.200930
vt 0.363540 0.189390
vt 0.361100 0.190760
vt 0.338230 0.203640
vt 0.336530 0.204590
vt 0.370620 0.185410
vt 0.389370 0.174860
vt 0.398840 0.204080
vt 0.385820 0.218950
vt 0.386890 0.234760
vt 0.420620 0.191950
vt 0.420620 0.199450
vt 0.427830 0.213790
vt 0.404890 0.208270
vt 0.423440 0.207950
vt 0.426890 0.214320
vt 0.425750 0.214970
vt 0.387880 0.225210
vt 0.388800 0.233680
vt 0.390380 0.232800
vt 0.387210 0.234580
vt 0.447110 0.177180
vt 0.452050 0.174440
vt 0.455150 0.198500
vt 0.459610 0.196000
vt 0.457380 0.197250
vt 0.451920 0.191700
vt 0.454660 0.198770
vt 0.454330 0.198960
vt 0.441810 0.180140
vt 0.447110 0.177180
vt 0.447230 0.196460
vt 0.449040 0.201900
vt 0.454330 0.198960
vt 0.452210 0.200130
vt 0.436520 0.183080
vt 0.441810 0.180140
vt 0.448410 0.202260
vt 0.449040 0.201900
vt 0.448910 0.201970
vt 0.442310 0.200510
vt 0.446860 0.203130
vt 0.443760 0.204860
vt 0.431210 0.186040
vt 0.436520 0.183080
vt 0.441780 0.205980
vt 0.443760 0.204860
vt 0.443430 0.205050
vt 0.437160 0.204260
vt 0.439790 0.207100
vt 0.438350 0.207910
vt 0.365700 0.188190
vt 0.370620 0.185410
vt 0.371970 0.189520
vt 0.386890 0.234760
vt 0.384690 0.235980
vt 0.381950 0.237510
vt 0.425910 0.188990
vt 0.431210 0.186040
vt 0.432530 0.208800
vt 0.438350 0.207910
vt 0.435790 0.209330
vt 0.433190 0.210780
vt 0.363540 0.189390
vt 0.365700 0.188190
vt 0.367170 0.192670
vt 0.360780 0.190940
vt 0.377050 0.240270
vt 0.381950 0.237510
vt 0.381500 0.237760
vt 0.379520 0.238880
vt 0.429850 0.212650
vt 0.420620 0.191950
vt 0.425910 0.188990
vt 0.433190 0.210780
vt 0.431700 0.211620
vt 0.427230 0.211970
vt 0.428840 0.213220
vt 0.427830 0.213790
vt 0.374580 0.241650
vt 0.353520 0.195040
vt 0.360780 0.190940
vt 0.363490 0.199160
vt 0.373780 0.242100
vt 0.372170 0.243000
vt 0.369750 0.244350
vt 0.377050 0.240270
vt 0.375620 0.241070
vt 0.348530 0.197850
vt 0.353520 0.195040
vt 0.356760 0.204910
vt 0.369750 0.244350
vt 0.368090 0.245280
vt 0.366430 0.246210
vt 0.364770 0.247140
vt 0.455150 0.198500
vt 0.459610 0.196000
vt 0.469050 0.240680
vt 0.472520 0.251230
vt 0.478840 0.254390
vt 0.352860 0.253810
vt 0.357640 0.251140
vt 0.361230 0.262020
vt 0.394950 0.294660
vt 0.375560 0.305520
vt 0.372650 0.313860
vt 0.341380 0.201870
vt 0.348530 0.197850
vt 0.352590 0.210170
vt 0.364770 0.247140
vt 0.361920 0.248740
vt 0.357640 0.251140
vt 0.454330 0.198960
vt 0.455150 0.198500
vt 0.463520 0.248100
vt 0.472520 0.251230
vt 0.449040 0.201900
vt 0.448410 0.202260
vt 0.461000 0.240460
vt 0.357640 0.251140
vt 0.364770 0.247140
vt 0.367370 0.255060
vt 0.394270 0.286880
vt 0.380420 0.294630
vt 0.375560 0.305520
vt 0.390380 0.232800
vt 0.420620 0.199450
vt 0.425750 0.214970
vt 0.385820 0.218950
vt 0.427830 0.213790
vt 0.429850 0.212650
vt 0.441610 0.248300
vt 0.399160 0.272020
vt 0.386890 0.234760
vt 0.442620 0.251400
vt 0.400210 0.275150
vt 0.336530 0.204590
vt 0.341380 0.201870
vt 0.346800 0.218290
vt 0.357640 0.251140
vt 0.355250 0.252480
vt 0.352860 0.253810
vt 0.453540 0.241630
vt 0.443760 0.204860
vt 0.448410 0.202260
vt 0.463520 0.248100
vt 0.443480 0.211150
vt 0.441780 0.205980
vt 0.447710 0.223960
vt 0.369750 0.244350
vt 0.374580 0.241650
vt 0.380670 0.260120
vt 0.442070 0.249710
vt 0.447520 0.244990
vt 0.442620 0.251400
vt 0.364770 0.247140
vt 0.386850 0.278910
vt 0.441610 0.248300
vt 0.380420 0.294630
vt 0.423250 0.262240
vt 0.400210 0.275150
vt 0.399680 0.273570
vt 0.392960 0.275490
vt 0.399160 0.272020
vt 0.399730 0.273720
vt 0.438350 0.207910
vt 0.441780 0.205980
vt 0.453540 0.241630
vt 0.433190 0.210780
vt 0.429850 0.212650
vt 0.440500 0.244940
vt 0.441610 0.248300
vt 0.381950 0.237510
vt 0.386890 0.234760
vt 0.388040 0.238270
vt 0.399160 0.272020
vt 0.386850 0.278910
vt 0.377050 0.240270
vt 0.374580 0.241650
vn 0.0000 0.0000 -1.0000
vn 0.0001 0.0000 -1.0000
vn -0.0002 0.0000 -1.0000
vn -0.0001 0.0000 -1.0000
vn 0.0000 0.0000 1.0000
vn -0.0001 0.0000 1.0000
vn 0.0002 0.0000 1.0000
vn 0.0001 0.0000 1.0000
vn 0.0003 0.0000 1.0000
vn -0.0002 0.0000 1.0000
vn 0.0013 0.0000 1.0000
vn -0.0003 0.0000 1.0000
vn -0.0016 0.0000 1.0000
s off
f 1/1/1 2/2/1 3/3/1
f 4/4/1 1/1/1 3/3/1
f 3/3/1 2/2/1 5/5/1
f 2/2/2 6/6/2 5/5/2
f 5/5/1 6/6/1 7/7/1
f 6/6/1 8/8/1 9/9/1
f 7/7/1 6/6/1 9/9/1
f 3/3/1 5/5/1 10/10/1
f 5/5/1 7/7/1 10/10/1
f 11/11/1 4/4/1 3/3/1
f 12/12/1 11/11/1 3/3/1
f 10/10/1 12/12/1 3/3/1
f 13/13/1 11/11/1 14/14/1
f 13/13/1 14/14/1 15/15/1
f 12/12/1 14/14/1 11/11/1
f 15/15/1 14/14/1 16/16/1
f 10/10/1 17/17/1 12/12/1
f 2/2/1 18/18/1 8/8/1
f 6/6/1 2/2/1 8/8/1
f 19/19/1 18/18/1 20/20/1
f 8/8/1 18/18/1 19/19/1
f 21/21/1 22/22/1 20/20/1
f 23/23/1 19/19/1 20/20/1
f 22/22/1 23/23/1 20/20/1
f 24/24/1 22/22/1 21/21/1
f 7/7/1 25/25/1 10/10/1
f 7/7/1 9/9/1 26/26/1
f 7/7/1 26/26/1 25/25/1
f 26/26/1 9/9/1 27/27/1
f 27/27/1 8/8/1 19/19/1
f 9/9/1 8/8/1 27/27/1
f 19/19/1 28/28/1 27/27/1
f 29/29/1 30/30/1 13/13/1
f 31/31/1 30/30/1 29/29/1
f 13/13/1 15/15/1 29/29/1
f 17/17/1 16/16/1 14/14/1
f 12/12/1 17/17/1 14/14/1
f 29/29/1 15/15/1 32/32/1
f 32/32/1 15/15/1 16/16/1
f 25/25/1 16/16/1 17/17/1
f 25/25/1 32/32/1 16/16/1
f 10/10/1 25/25/1 17/17/1
f 25/25/1 33/33/1 32/32/1
f 34/34/1 33/33/1 25/25/1
f 23/23/1 22/22/1 35/35/1
f 22/22/1 36/36/1 35/35/1
f 22/22/1 24/24/1 36/36/1
f 24/24/1 37/37/1 36/36/1
f 19/19/1 23/23/1 28/28/1
f 23/23/1 35/35/1 28/28/1
f 38/38/1 39/39/1 40/40/1
f 41/41/1 39/39/1 38/38/1
f 40/40/2 42/42/2 38/38/2
f 27/27/1 28/28/1 26/26/1
f 32/32/1 33/33/1 38/38/1
f 33/33/1 41/41/1 38/38/1
f 28/28/1 35/35/1 26/26/1
f 35/35/1 43/43/1 26/26/1
f 34/34/1 41/41/1 33/33/1
f 34/34/1 43/43/1 41/41/1
f 25/25/1 26/26/1 34/34/1
f 26/26/1 43/43/1 34/34/1
f 42/42/1 44/44/1 38/38/1
f 38/38/1 44/44/1 31/31/1
f 32/32/1 31/31/1 29/29/1
f 32/32/1 38/38/1 31/31/1
f 45/45/1 30/30/1 31/31/1
f 45/45/1 31/31/1 44/44/1
f 46/46/1 47/47/1 41/41/1
f 48/48/1 46/46/1 41/41/1
f 41/41/1 47/47/1 49/49/1
f 41/41/1 49/49/1 39/39/1
f 36/36/1 43/43/1 35/35/1
f 48/48/1 41/41/1 43/43/1
f 50/50/1 43/43/1 36/36/1
f 50/50/1 48/48/1 43/43/1
f 48/48/1 51/51/1 46/46/1
f 51/51/1 48/48/1 52/52/1
f 36/36/1 37/37/1 50/50/1
f 50/50/1 52/52/1 48/48/1
f 37/37/1 53/53/1 50/50/1
f 53/53/1 52/52/1 50/50/1
f 54/54/1 45/45/1 42/42/1
f 40/40/1 54/54/1 42/42/1
f 45/45/1 44/44/1 42/42/1
f 55/55/1 54/54/1 39/39/1
f 49/49/3 55/55/3 39/39/3
f 54/54/1 40/40/1 39/39/1
f 56/56/1 57/57/1 46/46/1
f 51/51/1 56/56/1 46/46/1
f 57/57/4 47/47/4 46/46/4
f 57/57/1 55/55/1 49/49/1
f 57/57/1 49/49/1 47/47/1
f 58/58/5 59/59/5 60/60/5
f 60/60/5 61/61/5 62/62/5
f 60/60/5 62/62/5 58/58/5
f 63/63/5 59/59/5 58/58/5
f 64/64/5 59/59/5 63/63/5
f 64/64/6 65/65/6 59/59/6
f 65/65/7 66/66/7 59/59/7
f 67/67/5 68/68/5 69/69/5
f 69/69/5 70/70/5 67/67/5
f 71/71/5 72/72/5 68/68/5
f 73/73/5 68/68/5 67/67/5
f 71/71/6 68/68/6 73/73/6
f 72/72/5 74/74/5 75/75/5
f 71/71/5 76/76/5 72/72/5
f 76/76/5 77/77/5 72/72/5
f 77/77/5 78/78/5 72/72/5
f 78/78/5 74/74/5 72/72/5
f 70/70/5 79/79/5 80/80/5
f 70/70/8 80/80/8 67/67/8
f 74/74/5 81/81/5 75/75/5
f 81/81/6 82/82/6 75/75/6
f 83/83/5 84/84/5 85/85/5
f 83/83/5 85/85/5 86/86/5
f 83/83/5 86/86/5 87/87/5
f 85/85/5 88/88/5 89/89/5
f 89/89/5 88/88/5 90/90/5
f 89/89/5 91/91/5 85/85/5
f 89/89/5 90/90/5 92/92/5
f 91/91/5 86/86/5 85/85/5
f 92/92/6 90/90/6 93/93/6
f 92/92/5 93/93/5 94/94/5
f 87/87/5 86/86/5 95/95/5
f 96/96/5 95/95/5 97/97/5
f 98/98/6 95/95/6 96/96/6
f 87/87/8 95/95/8 98/98/8
f 99/99/5 100/100/5 101/101/5
f 100/100/5 102/102/5 103/103/5
f 100/100/5 103/103/5 101/101/5
f 104/104/5 99/99/5 105/105/5
f 105/105/9 99/99/9 101/101/9
f 106/106/5 104/104/5 105/105/5
f 107/107/5 108/108/5 109/109/5
f 109/109/5 108/108/5 110/110/5
f 108/108/6 111/111/6 112/112/6
f 108/108/5 112/112/5 110/110/5
f 113/113/5 114/114/5 115/115/5
f 114/114/9 116/116/9 117/117/9
f 114/114/10 117/117/10 115/115/10
f 118/118/5 113/113/5 115/115/5
f 119/119/7 118/118/7 115/115/7
f 120/120/5 118/118/5 119/119/5
f 121/121/5 122/122/5 123/123/5
f 122/122/7 124/124/7 125/125/7
f 122/122/5 125/125/5 123/123/5
f 126/126/5 121/121/5 127/127/5
f 127/127/5 121/121/5 123/123/5
f 128/128/6 126/126/6 127/127/6
f 129/129/5 130/130/5 131/131/5
f 129/129/5 131/131/5 132/132/5
f 129/129/6 132/132/6 133/133/6
f 129/129/5 133/133/5 134/134/5
f 135/135/5 136/136/5 137/137/5
f 136/136/5 138/138/5 139/139/5
f 137/137/5 136/136/5 140/140/5
f 136/136/5 139/139/5 140/140/5
f 141/141/5 142/142/5 143/143/5
f 144/144/5 141/141/5 145/145/5
f 141/141/5 143/143/5 146/146/5
f 147/147/5 141/141/5 146/146/5
f 148/148/5 141/141/5 147/147/5
f 145/145/5 141/141/5 148/148/5
f 149/149/5 150/150/5 151/151/5
f 151/151/5 152/152/5 153/153/5
f 151/151/5 153/153/5 149/149/5
f 154/154/5 150/150/5 149/149/5
f 155/155/5 154/154/5 149/149/5
f 156/156/5 154/154/5 155/155/5
f 157/157/5 158/158/5 159/159/5
f 159/159/5 160/160/5 157/157/5
f 161/161/9 158/158/9 157/157/9
f 162/162/5 158/158/5 161/161/5
f 163/163/5 158/158/5 162/162/5
f 160/160/5 164/164/5 165/165/5
f 160/160/5 165/165/5 157/157/5
f 166/166/5 167/167/5 168/168/5
f 166/166/5 168/168/5 169/169/5
f 166/166/5 169/169/5 170/170/5
f 166/166/5 170/170/5 171/171/5
f 166/166/8 171/171/8 172/172/8
f 173/173/5 174/174/5 175/175/5
f 175/175/5 174/174/5 176/176/5
f 176/176/5 174/174/5 177/177/5
f 178/178/5 179/179/5 180/180/5
f 181/181/5 176/176/5 177/177/5
f 178/178/5 180/180/5 182/182/5
f 178/178/5 182/182/5 183/183/5
f 182/182/5 181/181/5 177/177/5
f 182/182/5 177/177/5 183/183/5
f 184/184/5 185/185/5 186/186/5
f 184/184/5 186/186/5 187/187/5
f 184/184/5 187/187/5 188/188/5
f 184/184/5 188/188/5 189/189/5
f 190/190/5 191/191/5 192/192/5
f 192/192/5 191/191/5 193/193/5
f 194/194/5 190/190/5 192/192/5
f 195/195/5 194/194/5 196/196/5
f 196/196/11 194/194/11 192/192/11
f 197/197/5 198/198/5 199/199/5
f 200/200/5 192/192/5 193/193/5
f 197/197/5 199/199/5 201/201/5
f 197/197/5 201/201/5 202/202/5
f 201/201/12 200/200/12 193/193/12
f 201/201/5 193/193/5 202/202/5
f 203/203/5 204/204/5 205/205/5
f 206/206/5 204/204/5 203/203/5
f 207/207/5 208/208/5 209/209/5
f 205/205/5 207/207/5 209/209/5
f 210/210/5 203/203/5 205/205/5
f 210/210/5 205/205/5 209/209/5
f 211/211/5 203/203/5 210/210/5
f 212/212/6 210/210/6 209/209/6
f 213/213/5 210/210/5 212/212/5
f 214/214/5 215/215/5 216/216/5
f 214/214/5 216/216/5 217/217/5
f 214/214/5 217/217/5 218/218/5
f 214/214/5 218/218/5 219/219/5
f 220/220/5 221/221/5 222/222/5
f 223/223/5 220/220/5 222/222/5
f 224/224/5 225/225/5 221/221/5
f 226/226/5 224/224/5 221/221/5
f 220/220/5 226/226/5 221/221/5
f 227/227/5 228/228/5 229/229/5
f 230/230/7 231/231/7 220/220/7
f 223/223/5 232/232/5 220/220/5
f 232/232/5 230/230/5 220/220/5
f 233/233/5 227/227/5 234/234/5
f 227/227/5 229/229/5 234/234/5
f 230/230/5 235/235/5 231/231/5
f 236/236/5 233/233/5 234/234/5
f 237/237/5 232/232/5 223/223/5
f 238/238/5 237/237/5 223/223/5
f 236/236/5 238/238/5 223/223/5
f 239/239/5 240/240/5 241/241/5
f 242/242/13 240/240/13 239/239/13
f 238/238/7 240/240/7 242/242/7
f 238/238/6 234/234/6 240/240/6
f 236/236/5 234/234/5 238/238/5
f 243/243/5 244/244/5 245/245/5
f 246/246/5 243/243/5 245/245/5
f 247/247/5 246/246/5 248/248/5
f 249/249/5 246/246/5 245/245/5
f 248/248/5 246/246/5 249/249/5
f 250/250/5 251/251/5 252/252/5
f 250/250/5 252/252/5 253/253/5
f 254/254/5 255/255/5 250/250/5
f 254/254/5 250/250/5 253/253/5
f 256/256/5 255/255/5 254/254/5
