# Blender v3.0.1 OBJ File: 'rockerfeller_plaza.blend'
# www.blender.org
o geometryt000010000010000110010110000110000110100000110100st29
v 831.226318 -241.558411 699.216736
v 826.719971 -256.188202 699.216736
v 822.969604 -256.742706 699.216736
v 839.884827 -265.871216 699.216736
v 833.919434 -243.003601 699.216736
v 840.950928 -263.904816 699.216736
v 831.138000 -255.692612 699.216736
v 837.436401 -244.150513 699.216736
v 842.794556 -262.007019 699.216736
v 835.083008 -242.879013 699.216736
v 837.243042 -230.474808 699.216736
v 839.316040 -231.594101 699.216736
v 840.785828 -232.387405 699.216736
v 841.885193 -263.660797 699.216736
v 850.750977 -271.728607 699.216736
v 852.148560 -269.225311 699.216736
v 834.490845 -255.076202 699.216736
v 840.450562 -244.170807 699.216736
v 845.229858 -260.890594 699.216736
v 838.156677 -242.931915 699.216736
v 843.181641 -233.680603 699.216736
v 844.171875 -262.834717 699.216736
v 853.016479 -267.638702 699.216736
v 854.387268 -273.695618 699.216736
v 855.767578 -271.159302 699.216736
v 837.723877 -254.316803 699.216736
v 843.286804 -244.137711 699.216736
v 847.953247 -259.870697 699.216736
v 841.528076 -243.181305 699.216736
v 845.900330 -235.147705 699.216736
v 846.936646 -261.736603 699.216736
v 854.140747 -265.593903 699.216736
v 856.618835 -269.595123 699.216736
v 857.734863 -267.561401 699.216736
v 840.359497 -253.730911 699.216736
v 849.443115 -237.060410 699.216736
v 855.992249 -262.197205 699.216736
v 857.908020 -267.215210 699.216736
v 859.569458 -264.164917 699.216736
v 846.658325 -253.080109 699.216736
v 854.022339 -239.527206 699.216736
v 857.703125 -259.057495 699.216736
v 861.296875 -260.991699 699.216736
v 860.190247 -242.852509 699.216736
v 868.669128 -247.427612 699.216736
v 822.969604 -256.742706 746.216736
v 826.719971 -256.188202 746.216736
v 831.226318 -241.558411 746.216736
v 839.884827 -265.871216 746.216736
v 827.534973 -254.695602 746.216736
v 839.339905 -263.031219 746.216736
v 833.614563 -242.840012 746.216736
v 833.919434 -243.003601 746.216736
v 840.005493 -265.648621 746.216736
v 840.950928 -263.904816 746.216736
v 833.919434 -243.003601 752.216736
v 826.719971 -256.188202 752.216736
v 831.138000 -255.692612 752.216736
v 840.950928 -263.904816 752.216736
v 832.300781 -253.561707 752.216736
v 840.642578 -260.841309 752.216736
v 835.083008 -242.879013 752.216736
v 831.226318 -241.558411 752.216736
v 837.243042 -230.474808 752.216736
v 837.436401 -244.150513 752.216736
v 837.001892 -243.915710 752.216736
v 836.135864 -240.942108 752.216736
v 839.316040 -231.594101 752.216736
v 840.785828 -232.387405 752.216736
v 839.884827 -265.871216 752.216736
v 841.885193 -263.660797 752.216736
v 850.750977 -271.728607 752.216736
v 842.794556 -262.007019 752.216736
v 842.053101 -263.355408 752.216736
v 850.253784 -268.197998 752.216736
v 852.148560 -269.225311 752.216736
v 837.436401 -244.150513 764.216736
v 831.138000 -255.692612 764.216736
v 834.490845 -255.076202 764.216736
v 842.794556 -262.007019 764.216736
v 834.994507 -254.154602 764.216736
v 844.322327 -260.399200 764.216736
v 840.450562 -244.170807 764.216736
v 838.156677 -242.931915 764.216736
v 835.083008 -242.879013 764.216736
v 840.785828 -232.387405 764.216736
v 840.256714 -244.066101 764.216736
v 838.581299 -242.150116 764.216736
v 843.181641 -233.680603 764.216736
v 841.885193 -263.660797 764.216736
v 844.171875 -262.834717 764.216736
v 852.148560 -269.225311 764.216736
v 844.261292 -262.670410 764.216736
v 845.229858 -260.890594 764.216736
v 852.269043 -267.232697 764.216736
v 853.016479 -267.638702 764.216736
v 840.450562 -244.170807 770.216736
v 834.490845 -255.076202 770.216736
v 837.723877 -254.316803 770.216736
v 845.229858 -260.890594 770.216736
v 838.157349 -253.523605 770.216736
v 847.156128 -259.437897 770.216736
v 841.528076 -243.181305 770.216736
v 838.156677 -242.931915 770.216736
v 843.181641 -233.680603 770.216736
v 843.286804 -244.137711 770.216736
v 843.149780 -244.063202 770.216736
v 841.868774 -242.555313 770.216736
v 845.900330 -235.147705 770.216736
v 844.171875 -262.834717 770.216736
v 846.936646 -261.736603 770.216736
v 853.016479 -267.638702 770.216736
v 847.015869 -261.591217 770.216736
v 847.953247 -259.870697 770.216736
v 853.579468 -265.293304 770.216736
v 854.140747 -265.593903 770.216736
v 843.286804 -244.137711 776.216736
v 837.723877 -254.316803 776.216736
v 840.359497 -253.730911 776.216736
v 847.953247 -259.870697 776.216736
v 841.016113 -252.525803 776.216736
v 854.862122 -261.585205 776.216736
v 849.443115 -237.060410 776.216736
v 841.528076 -243.181305 776.216736
v 845.900330 -235.147705 776.216736
v 854.140747 -265.593903 776.216736
v 846.936646 -261.736603 776.216736
v 855.992249 -262.197205 776.216736
v 840.359497 -253.730911 782.216736
v 846.658325 -253.080109 782.216736
v 849.443115 -237.060410 782.216736
v 855.992249 -262.197205 782.216736
v 847.154785 -252.166412 782.216736
v 856.958557 -258.654510 782.216736
v 854.022339 -239.527206 782.216736
v 857.703125 -259.057495 782.216736
v 854.022339 -239.527206 788.216736
v 846.658325 -253.080109 788.216736
v 860.190247 -242.852509 788.216736
v 857.703125 -259.057495 788.216736
v 868.669128 -247.427612 788.216736
v 861.296875 -260.991699 788.216736
v 851.832092 -269.792114 740.216736
v 850.750977 -271.728607 740.216736
v 854.387268 -273.695618 740.216736
v 852.148560 -269.225311 740.216736
v 855.305542 -270.912415 740.216736
v 855.767578 -271.159302 740.216736
v 852.776123 -268.078094 746.216736
v 852.148560 -269.225311 746.216736
v 855.767578 -271.159302 746.216736
v 853.016479 -267.638702 746.216736
v 856.211060 -269.373596 746.216736
v 856.618835 -269.595123 746.216736
v 853.855713 -266.112305 752.216736
v 853.016479 -267.638702 752.216736
v 856.618835 -269.595123 752.216736
v 854.140747 -265.593903 752.216736
v 857.369324 -267.361298 752.216736
v 857.734863 -267.561401 752.216736
v 857.908020 -267.215210 758.216736
v 855.559448 -262.991211 758.216736
v 854.140747 -265.593903 758.216736
v 857.734863 -267.561401 758.216736
v 855.992249 -262.197205 758.216736
v 859.239258 -263.983307 758.216736
v 859.569458 -264.164917 758.216736
v 857.332153 -259.738403 764.216736
v 855.992249 -262.197205 764.216736
v 859.569458 -264.164917 764.216736
v 857.703125 -259.057495 764.216736
v 860.327759 -260.470123 764.216736
v 861.296875 -260.991699 764.216736
vt 0.414380 0.153860
vt 0.442430 0.144440
vt 0.444640 0.136860
vt 0.455870 0.170740
vt 0.416150 0.159260
vt 0.451950 0.172940
vt 0.440130 0.153350
vt 0.417120 0.166320
vt 0.447910 0.176700
vt 0.415560 0.161600
vt 0.392300 0.166250
vt 0.393680 0.170400
vt 0.394650 0.173340
vt 0.451210 0.174820
vt 0.463070 0.192500
vt 0.458070 0.195380
vt 0.437940 0.160120
vt 0.416200 0.172390
vt 0.445110 0.181630
vt 0.414680 0.167800
vt 0.396250 0.178140
vt 0.448980 0.179450
vt 0.454910 0.197170
vt 0.465490 0.199790
vt 0.460440 0.202630
vt 0.435530 0.166660
vt 0.415240 0.178110
vt 0.442380 0.187140
vt 0.414060 0.174590
vt 0.398050 0.183590
vt 0.446100 0.185050
vt 0.450830 0.199480
vt 0.457320 0.204380
vt 0.453270 0.206680
vt 0.433630 0.171980
vt 0.400410 0.190680
vt 0.444060 0.203290
vt 0.452580 0.207030
vt 0.446510 0.210450
vt 0.430440 0.184690
vt 0.403440 0.199850
vt 0.437800 0.206810
vt 0.440180 0.214010
vt 0.407530 0.212210
vt 0.413160 0.229190
vt 0.444640 0.136860
vt 0.442430 0.144440
vt 0.414380 0.153860
vt 0.455870 0.170740
vt 0.439460 0.146110
vt 0.450870 0.169710
vt 0.415950 0.158650
vt 0.416150 0.159260
vt 0.455420 0.170990
vt 0.451950 0.172940
vt 0.416150 0.159260
vt 0.442430 0.144440
vt 0.440130 0.153350
vt 0.451950 0.172940
vt 0.435880 0.155750
vt 0.446470 0.172390
vt 0.415560 0.161600
vt 0.414380 0.153860
vt 0.392300 0.166250
vt 0.417120 0.166320
vt 0.416830 0.165450
vt 0.411700 0.163770
vt 0.393680 0.170400
vt 0.394650 0.173340
vt 0.455870 0.170740
vt 0.451210 0.174820
vt 0.463070 0.192500
vt 0.447910 0.176700
vt 0.450600 0.175170
vt 0.456810 0.191580
vt 0.458070 0.195380
vt 0.417120 0.166320
vt 0.440130 0.153350
vt 0.437940 0.160120
vt 0.447910 0.176700
vt 0.436100 0.161160
vt 0.444500 0.179810
vt 0.416200 0.172390
vt 0.414680 0.167800
vt 0.415560 0.161600
vt 0.394650 0.173340
vt 0.416070 0.172000
vt 0.413120 0.168670
vt 0.396250 0.178140
vt 0.451210 0.174820
vt 0.448980 0.179450
vt 0.458070 0.195380
vt 0.448650 0.179640
vt 0.445110 0.181630
vt 0.454410 0.195670
vt 0.454910 0.197170
vt 0.416200 0.172390
vt 0.437940 0.160120
vt 0.435530 0.166660
vt 0.445110 0.181630
vt 0.433950 0.167550
vt 0.441850 0.185550
vt 0.414060 0.174590
vt 0.414680 0.167800
vt 0.396250 0.178140
vt 0.415240 0.178110
vt 0.415150 0.177830
vt 0.412810 0.175290
vt 0.398050 0.183590
vt 0.448980 0.179450
vt 0.446100 0.185050
vt 0.454910 0.197170
vt 0.445810 0.185210
vt 0.442380 0.187140
vt 0.450460 0.198360
vt 0.450830 0.199480
vt 0.415240 0.178110
vt 0.435530 0.166660
vt 0.433630 0.171980
vt 0.442380 0.187140
vt 0.431230 0.173340
vt 0.443310 0.201030
vt 0.400410 0.190680
vt 0.414060 0.174590
vt 0.398050 0.183590
vt 0.450830 0.199480
vt 0.446100 0.185050
vt 0.444060 0.203290
vt 0.433630 0.171980
vt 0.430440 0.184690
vt 0.400410 0.190680
vt 0.444060 0.203290
vt 0.428620 0.185720
vt 0.437310 0.205320
vt 0.403440 0.199850
vt 0.437800 0.206810
vt 0.403440 0.199850
vt 0.430440 0.184690
vt 0.407530 0.212210
vt 0.437800 0.206810
vt 0.413160 0.229190
vt 0.440180 0.214010
vt 0.459200 0.194730
vt 0.463070 0.192500
vt 0.465490 0.199790
vt 0.458070 0.195380
vt 0.460140 0.201700
vt 0.460440 0.202630
vt 0.455790 0.196670
vt 0.458070 0.195380
vt 0.460440 0.202630
vt 0.454910 0.197170
vt 0.457050 0.203560
vt 0.457320 0.204380
vt 0.451870 0.198890
vt 0.454910 0.197170
vt 0.457320 0.204380
vt 0.450830 0.199480
vt 0.453020 0.205950
vt 0.453270 0.206680
vt 0.452580 0.207030
vt 0.445640 0.202400
vt 0.450830 0.199480
vt 0.453270 0.206680
vt 0.444060 0.203290
vt 0.446280 0.209790
vt 0.446510 0.210450
vt 0.439160 0.206050
vt 0.444060 0.203290
vt 0.446510 0.210450
vt 0.437800 0.206810
vt 0.439540 0.212070
vt 0.440180 0.214010
vn 0.0000 0.0000 -1.0000
vn 0.0001 0.0000 -1.0000
vn -0.0001 0.0000 -1.0000
vn 0.0000 0.0000 1.0000
vn -0.0011 0.0000 1.0000
vn -0.0001 0.0000 1.0000
vn -0.0002 0.0000 1.0000
vn 0.0001 0.0000 1.0000
vn 0.0002 0.0000 1.0000
s off
f 1/1/1 2/2/1 3/3/1
f 2/2/1 4/4/1 3/3/1
f 1/1/1 5/5/1 2/2/1
f 2/2/1 6/6/1 4/4/1
f 2/2/1 5/5/1 7/7/1
f 6/6/1 2/2/1 7/7/1
f 7/7/1 5/5/1 8/8/1
f 6/6/1 7/7/1 9/9/1
f 5/5/1 1/1/1 10/10/1
f 1/1/1 11/11/1 10/10/1
f 8/8/1 5/5/1 10/10/1
f 11/11/1 12/12/1 10/10/1
f 12/12/1 13/13/1 10/10/1
f 6/6/1 14/14/1 4/4/1
f 4/4/1 14/14/1 15/15/1
f 6/6/1 9/9/1 14/14/1
f 15/15/1 14/14/1 16/16/1
f 7/7/1 8/8/1 17/17/1
f 9/9/1 7/7/1 17/17/1
f 8/8/1 18/18/1 17/17/1
f 9/9/1 17/17/1 19/19/1
f 8/8/1 10/10/1 20/20/1
f 13/13/1 20/20/1 10/10/1
f 8/8/1 20/20/1 18/18/1
f 13/13/1 21/21/1 20/20/1
f 14/14/1 9/9/1 22/22/1
f 14/14/1 22/22/1 16/16/1
f 9/9/2 19/19/2 22/22/2
f 16/16/1 22/22/1 23/23/1
f 15/15/1 16/16/1 24/24/1
f 16/16/1 25/25/1 24/24/1
f 17/17/1 18/18/1 26/26/1
f 19/19/1 17/17/1 26/26/1
f 26/26/1 18/18/1 27/27/1
f 19/19/1 26/26/1 28/28/1
f 18/18/1 20/20/1 29/29/1
f 21/21/1 29/29/1 20/20/1
f 18/18/1 29/29/1 27/27/1
f 21/21/1 30/30/1 29/29/1
f 22/22/1 19/19/1 31/31/1
f 22/22/1 31/31/1 23/23/1
f 19/19/3 28/28/3 31/31/3
f 23/23/1 31/31/1 32/32/1
f 16/16/1 23/23/1 25/25/1
f 23/23/1 33/33/1 25/25/1
f 23/23/3 32/32/3 33/33/3
f 32/32/1 34/34/1 33/33/1
f 26/26/1 27/27/1 35/35/1
f 28/28/1 26/26/1 35/35/1
f 36/36/1 35/35/1 27/27/1
f 35/35/1 37/37/1 28/28/1
f 30/30/1 27/27/1 29/29/1
f 30/30/1 36/36/1 27/27/1
f 28/28/1 32/32/1 31/31/1
f 28/28/1 37/37/1 32/32/1
f 38/38/1 32/32/1 37/37/1
f 34/34/1 32/32/1 38/38/1
f 37/37/1 39/39/1 38/38/1
f 36/36/1 40/40/1 35/35/1
f 40/40/1 37/37/1 35/35/1
f 36/36/1 41/41/1 40/40/1
f 40/40/1 42/42/1 37/37/1
f 37/37/1 42/42/1 39/39/1
f 42/42/1 43/43/1 39/39/1
f 40/40/1 41/41/1 44/44/1
f 42/42/1 40/40/1 44/44/1
f 45/45/1 42/42/1 44/44/1
f 43/43/1 42/42/1 45/45/1
f 46/46/4 47/47/4 48/48/4
f 49/49/4 47/47/4 46/46/4
f 47/47/4 50/50/4 48/48/4
f 51/51/4 47/47/4 49/49/4
f 48/48/4 50/50/4 52/52/4
f 50/50/4 53/53/4 52/52/4
f 54/54/5 51/51/5 49/49/5
f 55/55/4 51/51/4 54/54/4
f 56/56/4 57/57/4 58/58/4
f 57/57/4 59/59/4 58/58/4
f 60/60/4 56/56/4 58/58/4
f 59/59/4 61/61/4 58/58/4
f 62/62/4 63/63/4 56/56/4
f 62/62/4 64/64/4 63/63/4
f 65/65/4 56/56/4 60/60/4
f 66/66/4 62/62/4 56/56/4
f 65/65/4 66/66/4 56/56/4
f 67/67/4 68/68/4 62/62/4
f 68/68/6 64/64/6 62/62/6
f 69/69/4 68/68/4 67/67/4
f 59/59/7 70/70/7 71/71/7
f 70/70/4 72/72/4 71/71/4
f 59/59/4 73/73/4 61/61/4
f 74/74/4 59/59/4 71/71/4
f 73/73/8 59/59/8 74/74/8
f 75/75/4 71/71/4 72/72/4
f 76/76/4 75/75/4 72/72/4
f 77/77/4 78/78/4 79/79/4
f 78/78/4 80/80/4 79/79/4
f 81/81/4 77/77/4 79/79/4
f 80/80/4 82/82/4 79/79/4
f 83/83/4 77/77/4 81/81/4
f 77/77/4 84/84/4 85/85/4
f 84/84/4 86/86/4 85/85/4
f 87/87/4 84/84/4 77/77/4
f 83/83/4 87/87/4 77/77/4
f 88/88/4 86/86/4 84/84/4
f 89/89/4 86/86/4 88/88/4
f 80/80/4 90/90/4 91/91/4
f 90/90/4 92/92/4 91/91/4
f 80/80/4 91/91/4 93/93/4
f 80/80/4 93/93/4 94/94/4
f 80/80/8 94/94/8 82/82/8
f 95/95/4 91/91/4 92/92/4
f 96/96/4 95/95/4 92/92/4
f 97/97/4 98/98/4 99/99/4
f 98/98/4 100/100/4 99/99/4
f 101/101/4 97/97/4 99/99/4
f 100/100/4 102/102/4 99/99/4
f 103/103/4 104/104/4 97/97/4
f 103/103/4 105/105/4 104/104/4
f 106/106/4 97/97/4 101/101/4
f 107/107/4 103/103/4 97/97/4
f 106/106/4 107/107/4 97/97/4
f 108/108/4 105/105/4 103/103/4
f 109/109/4 105/105/4 108/108/4
f 100/100/4 110/110/4 111/111/4
f 110/110/4 112/112/4 111/111/4
f 113/113/4 100/100/4 111/111/4
f 114/114/4 100/100/4 113/113/4
f 100/100/6 114/114/6 102/102/6
f 115/115/4 111/111/4 112/112/4
f 116/116/7 115/115/7 112/112/7
f 117/117/4 118/118/4 119/119/4
f 118/118/4 120/120/4 119/119/4
f 119/119/4 121/121/4 117/117/4
f 122/122/4 119/119/4 120/120/4
f 121/121/4 123/123/4 117/117/4
f 124/124/6 117/117/6 125/125/6
f 125/125/4 117/117/4 123/123/4
f 126/126/4 120/120/4 127/127/4
f 126/126/4 128/128/4 120/120/4
f 128/128/4 122/122/4 120/120/4
f 129/129/4 130/130/4 131/131/4
f 132/132/4 130/130/4 129/129/4
f 130/130/4 133/133/4 131/131/4
f 134/134/4 130/130/4 132/132/4
f 133/133/4 135/135/4 131/131/4
f 136/136/7 134/134/7 132/132/7
f 137/137/4 138/138/4 139/139/4
f 139/139/4 138/138/4 140/140/4
f 141/141/4 139/139/4 140/140/4
f 141/141/4 140/140/4 142/142/4
f 143/143/4 144/144/4 145/145/4
f 146/146/4 143/143/4 145/145/4
f 146/146/4 145/145/4 147/147/4
f 147/147/9 145/145/9 148/148/9
f 149/149/4 150/150/4 151/151/4
f 152/152/9 149/149/9 151/151/9
f 152/152/4 151/151/4 153/153/4
f 153/153/4 151/151/4 154/154/4
f 155/155/4 156/156/4 157/157/4
f 158/158/4 155/155/4 157/157/4
f 158/158/4 157/157/4 159/159/4
f 159/159/4 157/157/4 160/160/4
f 161/161/4 162/162/4 163/163/4
f 163/163/4 164/164/4 161/161/4
f 161/161/8 165/165/8 162/162/8
f 166/166/4 165/165/4 161/161/4
f 167/167/4 166/166/4 161/161/4
f 168/168/4 169/169/4 170/170/4
f 171/171/4 168/168/4 170/170/4
f 171/171/4 170/170/4 172/172/4
f 172/172/8 170/170/8 173/173/8
