# Blender v3.0.1 OBJ File: 'rockerfeller_plaza.blend'
# www.blender.org
o geometryt000010000010000110010110000110000110100000100110st106_
v 556.510681 -200.408615 676.038269
v 557.301697 -198.949005 668.449097
v 555.954529 -201.435013 680.949097
v 557.301697 -198.949005 676.038269
v 556.510681 -200.408615 764.949097
v 555.954529 -201.435013 764.949097
v 558.092651 -197.489502 666.679260
v 558.092651 -197.489502 764.949097
v 558.648865 -196.463104 680.949097
v 558.648865 -196.463104 655.949097
v 557.492432 -198.597107 666.679260
v 558.648865 -196.463104 764.949097
v 555.954529 -201.435013 764.949097
v 555.954529 -201.435013 680.949097
v 556.437317 -201.694107 680.949097
v 556.437317 -201.694107 764.949097
v 575.452637 -211.901306 764.949097
v 575.452637 -211.901306 680.949097
v 575.935425 -212.160507 680.949097
v 575.935425 -212.160507 764.949097
v 561.510498 -191.169006 666.679260
v 562.299866 -189.708511 662.449219
v 558.648865 -196.463104 680.949097
v 562.299866 -189.708511 666.679260
v 559.142273 -195.550308 764.949097
v 558.648865 -196.463104 764.949097
v 559.142273 -195.550308 680.717834
v 559.931702 -194.089813 676.038269
v 560.721069 -192.629410 671.358765
v 559.931702 -194.089813 680.717834
v 560.721069 -192.629410 676.038269
v 561.510498 -191.169006 671.358765
v 563.089294 -188.248108 661.999756
v 563.089294 -188.248108 764.949097
v 563.582703 -187.335205 680.949097
v 563.582703 -187.335205 655.949097
v 562.388611 -189.544403 661.999756
v 563.582703 -187.335205 764.949097
v 563.887268 -187.497208 764.949097
v 563.887268 -187.497208 676.982788
v 563.582703 -187.335205 680.949097
v 563.582703 -187.335205 764.949097
v 565.197937 -188.194504 671.358765
v 565.197937 -188.194504 764.949097
v 565.502563 -188.356506 680.949097
v 565.502563 -188.356506 655.949097
v 564.319153 -187.727005 671.358765
v 565.502563 -188.356506 764.949097
v 565.805908 -188.520813 764.949097
v 565.805908 -188.520813 676.796814
v 565.502563 -188.356506 680.949097
v 565.502563 -188.356506 764.949097
v 567.025757 -189.181305 671.358765
v 567.025757 -189.181305 764.949097
v 567.329102 -189.345612 680.949097
v 567.329102 -189.345612 655.949097
v 566.203247 -188.735901 671.358765
v 567.329102 -189.345612 764.949097
v 567.654175 -189.520203 764.949097
v 567.654175 -189.520203 680.949097
v 567.329102 -189.345612 680.949097
v 567.329102 -189.345612 764.949097
v 572.366821 -192.051407 764.949097
v 572.366821 -192.051407 680.949097
v 572.041748 -191.876816 680.949097
v 572.041748 -191.876816 764.949097
v 572.621094 -191.580704 764.949097
v 572.621094 -191.580704 680.949097
v 572.366821 -192.051407 680.949097
v 572.366821 -192.051407 764.949097
v 573.664307 -189.649307 764.949097
v 573.664307 -189.649307 680.949097
v 573.410034 -190.120010 680.949097
v 573.410034 -190.120010 764.949097
v 574.143005 -189.906204 764.949097
v 574.143005 -189.906204 680.949097
v 573.664307 -189.649307 680.949097
v 573.664307 -189.649307 764.949097
v 584.861084 -195.658615 764.949097
v 584.861084 -195.658615 680.949097
v 584.382385 -195.401703 680.949097
v 584.382385 -195.401703 764.949097
v 579.608398 -205.369812 671.358765
v 579.608398 -205.369812 666.679260
v 581.437073 -201.989014 671.358765
v 578.028809 -208.290207 661.999756
v 578.028809 -208.290207 666.679260
v 575.935425 -212.160507 655.949097
v 576.449158 -211.210602 661.999756
v 576.449158 -211.210602 764.949097
v 575.935425 -212.160507 680.949097
v 575.935425 -212.160507 764.949097
v 581.977905 -200.989105 672.873474
v 583.107788 -198.900116 676.038269
v 581.977905 -200.989105 676.038269
v 584.347290 -196.608505 680.717834
v 583.557495 -198.068710 677.297913
v 584.861084 -195.658615 680.949097
v 583.557495 -198.068710 680.717834
v 584.347290 -196.608505 764.949097
v 584.861084 -195.658615 764.949097
vt 3.898880 17.453690
vt 2.456540 10.860120
vt 4.913090 21.720240
vt 2.456540 17.453690
vt 3.898880 94.700256
vt 4.913090 94.700256
vt 1.014210 9.322481
vt 1.014210 94.700256
vt 0.000000 21.720240
vt 0.000000 0.000000
vt 2.108730 9.322481
vt 0.000000 94.700256
vt 0.000000 72.980019
vt 0.000000 0.000000
vt 0.476060 0.000000
vt 0.476060 72.980019
vt 19.226460 72.980019
vt 19.226460 0.000000
vt 19.702520 0.000000
vt 19.702520 72.980019
vt 3.786220 9.322481
vt 2.343890 5.647360
vt 9.014780 21.720240
vt 2.343890 9.322481
vt 8.113241 94.700256
vt 9.014780 94.700256
vt 8.113241 21.519300
vt 6.670900 17.453690
vt 5.228560 13.388080
vt 6.670900 21.519300
vt 5.228560 17.453690
vt 3.786220 13.388080
vt 0.901550 5.256870
vt 0.901550 94.700256
vt 0.000000 21.720240
vt 0.000000 0.000000
vt 0.000000 94.700256
vt 1.589540 94.700256
vt 1.589540 18.274269
vt 1.889280 21.720240
vt 1.889280 94.700256
vt 0.299740 13.388080
vt 0.299740 94.700256
vt 0.000000 21.720240
vt 0.000000 0.000000
vt 1.164530 13.388080
vt 0.000000 94.700256
vt 1.504930 94.700256
vt 1.504930 18.112700
vt 1.804670 21.720240
vt 1.804670 94.700256
vt 0.299740 13.388080
vt 0.299740 94.700256
vt 0.000000 21.720240
vt 0.000000 0.000000
vt 1.112370 13.388080
vt 0.000000 94.700256
vt 4.647610 72.980019
vt 4.647610 0.000000
vt 4.968210 0.000000
vt 4.968210 72.980019
vt 0.000000 72.980019
vt 0.000000 0.000000
vt 0.320600 0.000000
vt 0.320600 72.980019
vt 1.907140 72.980019
vt 1.907140 0.000000
vt 2.371940 0.000000
vt 2.371940 72.980019
vt 0.000000 72.980019
vt 0.000000 0.000000
vt 0.464800 0.000000
vt 0.464800 72.980019
vt 6.707570 13.388080
vt 6.707570 9.322481
vt 10.047000 13.388080
vt 3.822890 5.256870
vt 3.822890 9.322481
vt 0.000000 0.000000
vt 0.938220 5.256870
vt 0.938220 94.700256
vt 0.000000 21.720240
vt 0.000000 94.700256
vt 11.034580 14.704080
vt 13.098010 17.453690
vt 11.034580 17.453690
vt 15.361600 21.519300
vt 13.919260 18.548040
vt 16.299810 21.720240
vt 13.919260 21.519300
vt 15.361600 94.700256
vt 16.299810 94.700256
vt 2.181810 5.256870
vt 10.568360 72.980019
vt 10.568360 0.000000
vt 11.040350 0.000000
vt 11.040350 72.980019
vt 0.000000 72.980019
vt 0.000000 0.000000
vt 0.471990 0.000000
vt 0.471990 72.980019
vn -0.8795 0.4759 -0.0001
vn -0.8792 0.4765 0.0000
vn -0.8792 0.4764 0.0000
vn -0.4729 -0.8811 0.0000
vn -0.4731 -0.8810 0.0000
vn -0.4730 -0.8811 0.0000
vn -0.8794 0.4761 0.0000
vn -0.8797 0.4755 0.0000
vn -0.8797 0.4756 0.0000
vn -0.8798 0.4753 -0.0001
vn -0.8798 0.4754 0.0000
vn 0.4696 0.8829 0.0000
vn 0.4698 0.8828 0.0000
vn 0.4697 0.8828 0.0000
vn 0.4695 0.8830 0.0000
vn 0.4763 0.8793 0.0000
vn 0.4762 0.8793 0.0000
vn 0.4759 0.8795 -0.0000
vn 0.4732 0.8810 0.0000
vn -0.8798 0.4753 0.0000
vn 0.8796 -0.4758 0.0000
vn 0.8796 -0.4757 0.0000
vn 0.8795 -0.4759 0.0000
vn 0.8794 -0.4761 0.0001
vn 0.8795 -0.4758 0.0000
vn 0.4728 0.8812 0.0000
vn 0.4729 0.8811 0.0000
vn 0.4730 0.8811 0.0000
s off
f 1/1/1 2/2/1 3/3/1
f 4/4/2 2/2/2 1/1/2
f 5/5/3 3/3/3 6/6/3
f 5/5/3 1/1/3 3/3/3
f 7/7/3 8/8/3 9/9/3
f 10/10/2 7/7/2 9/9/2
f 11/11/3 7/7/3 10/10/3
f 9/9/2 8/8/2 12/12/2
f 13/13/4 14/14/4 15/15/4
f 13/13/4 15/15/4 16/16/4
f 17/17/5 18/18/5 19/19/5
f 17/17/6 19/19/6 20/20/6
f 21/21/7 22/22/7 23/23/7
f 24/24/8 22/22/8 21/21/8
f 25/25/8 23/23/8 26/26/8
f 25/25/8 27/27/8 23/23/8
f 27/27/8 28/28/8 23/23/8
f 28/28/9 29/29/9 23/23/9
f 29/29/10 21/21/10 23/23/10
f 27/27/8 30/30/8 28/28/8
f 28/28/8 31/31/8 29/29/8
f 29/29/8 32/32/8 21/21/8
f 33/33/11 34/34/11 35/35/11
f 36/36/8 33/33/8 35/35/8
f 35/35/8 34/34/8 38/37/8
f 39/38/12 40/39/12 41/40/12
f 39/38/12 41/40/12 42/41/12
f 43/42/12 44/43/12 45/44/12
f 46/45/13 43/42/13 45/44/13
f 47/46/14 43/42/14 46/45/14
f 45/44/15 44/43/15 48/47/15
f 49/48/16 50/49/16 51/50/16
f 49/48/17 51/50/17 52/51/17
f 53/52/18 54/53/18 55/54/18
f 56/55/16 53/52/16 55/54/16
f 57/56/17 53/52/17 56/55/17
f 55/54/17 54/53/17 58/57/17
f 59/58/19 60/59/19 61/60/19
f 59/58/19 61/60/19 62/61/19
f 63/62/19 64/63/19 65/64/19
f 63/62/19 65/64/19 66/65/19
f 67/66/20 68/67/20 69/68/20
f 67/66/20 69/68/20 70/69/20
f 71/70/20 72/71/20 73/72/20
f 71/70/20 73/72/20 74/73/20
f 83/74/21 84/75/21 85/76/21
f 86/77/22 84/75/22 87/78/22
f 85/76/23 84/75/23 86/77/23
f 88/79/21 86/77/21 89/80/21
f 85/76/24 86/77/24 88/79/24
f 89/80/21 90/81/21 91/82/21
f 91/82/22 88/79/22 89/80/22
f 91/82/22 90/81/22 92/83/22
f 93/84/22 94/85/22 95/86/22
f 96/87/25 97/88/25 98/89/25
f 99/90/22 97/88/22 96/87/22
f 100/91/21 98/89/21 101/92/21
f 100/91/21 96/87/21 98/89/21
s 1
f 37/93/8 33/33/8 36/36/8
f 75/94/26 76/95/27 77/96/27
f 75/94/26 77/96/27 78/97/26
f 79/98/28 80/99/26 81/100/26
f 79/98/28 81/100/26 82/101/28
