# Blender v3.0.1 OBJ File: 'rockerfeller_plaza.blend'
# www.blender.org
o geometryt000010000010000110010110000110000100110010110110st53
v 189.566589 -191.032928 564.194580
v 190.042389 -191.293930 564.194580
v 175.513184 -218.240723 564.194580
v 170.611481 -215.599625 564.194580
v 186.593185 -189.424225 564.194580
v 185.149078 -188.652725 564.194580
v 175.513184 -218.240723 577.294617
v 189.566589 -191.032928 577.294617
v 186.593185 -189.424225 577.294617
v 190.042389 -191.293930 577.294617
v 170.611481 -215.599625 577.294617
v 185.149078 -188.652725 577.294617
vt 0.289360 0.364810
vt 0.289680 0.365770
vt 0.343330 0.335850
vt 0.340080 0.326040
vt 0.287380 0.358860
vt 0.286430 0.355970
vt 0.343330 0.335850
vt 0.289360 0.364810
vt 0.287380 0.358860
vt 0.289680 0.365770
vt 0.340080 0.326040
vt 0.286430 0.355970
vn 0.0000 0.0000 -1.0000
vn 0.0000 0.0000 1.0000
s off
f 1/1/1 2/2/1 3/3/1
f 4/4/1 5/5/1 3/3/1
f 5/5/1 1/1/1 3/3/1
f 6/6/1 5/5/1 4/4/1
f 7/7/2 8/8/2 9/9/2
f 10/10/2 8/8/2 7/7/2
f 11/11/2 9/9/2 12/12/2
f 11/11/2 7/7/2 9/9/2
