# Blender v3.0.1 OBJ File: 'rockerfeller_plaza.blend'
# www.blender.org
o geometryt000010000010000110010110000110000110100100010010st4
v 1064.299072 -303.827271 1012.405212
v 1064.136963 -304.131866 1019.998962
v 1064.299072 -303.827271 1019.998962
v 1066.181030 -300.290375 1012.405212
v 1064.136963 -304.131866 1011.998962
v 1066.181030 -300.290375 1019.998962
v 1068.715698 -295.526672 1019.998962
v 1068.715698 -295.526672 1012.405212
v 1073.420532 -286.684387 1012.405212
v 1073.420532 -286.684387 1019.998962
v 1075.955200 -281.920776 1019.998962
v 1075.955200 -281.920776 1012.405212
v 1077.999268 -278.079193 1011.998962
v 1077.837158 -278.383789 1012.405212
v 1077.837158 -278.383789 1019.998962
v 1077.999268 -278.079193 1019.998962
v 1072.581909 -308.586975 1012.405212
v 1072.887085 -308.747986 1019.998962
v 1072.581909 -308.586975 1019.998962
v 1070.810059 -307.652283 1012.405212
v 1072.887085 -308.747986 1011.998962
v 1070.810059 -307.652283 1019.998962
v 1069.397949 -306.907288 1019.998962
v 1069.397949 -306.907288 1012.405212
v 1067.626099 -305.972565 1012.405212
v 1064.136963 -304.131866 1011.998962
v 1067.626099 -305.972565 1019.998962
v 1066.213867 -305.227570 1019.998962
v 1066.213867 -305.227570 1012.405212
v 1064.442139 -304.292786 1012.405212
v 1064.442139 -304.292786 1019.998962
v 1064.136963 -304.131866 1019.998962
v 1086.621826 -282.933777 1012.405212
v 1086.783691 -282.629089 1019.998962
v 1086.621826 -282.933777 1019.998962
v 1084.741455 -286.471466 1012.405212
v 1086.783691 -282.629089 1011.998962
v 1084.741455 -286.471466 1019.998962
v 1082.734375 -290.247375 1019.998962
v 1082.734375 -290.247375 1011.998962
v 1082.191284 -291.269165 1019.998962
v 1082.191284 -291.269165 1012.405212
v 1077.490356 -300.113586 1012.405212
v 1078.113159 -298.941772 1011.998962
v 1077.490356 -300.113586 1019.998962
v 1074.940186 -304.911285 1019.998962
v 1074.940186 -304.911285 1012.405212
v 1073.059814 -308.449066 1012.405212
v 1072.897949 -308.753693 1011.998962
v 1073.059814 -308.449066 1019.998962
v 1072.897949 -308.753693 1019.998962
v 1078.032227 -278.012177 1011.998962
v 1077.999268 -278.079193 1011.998962
v 1077.999268 -278.079193 1019.998962
v 1078.032227 -278.012177 1019.998962
v 1078.337402 -278.173187 1012.405212
v 1078.032227 -278.012177 1019.998962
v 1078.337402 -278.173187 1019.998962
v 1080.109131 -279.107880 1012.405212
v 1078.032227 -278.012177 1011.998962
v 1080.109131 -279.107880 1019.998962
v 1081.521362 -279.852875 1019.998962
v 1081.521362 -279.852875 1012.405212
v 1083.293091 -280.787567 1012.405212
v 1083.293091 -280.787567 1019.998962
v 1084.705322 -281.532593 1019.998962
v 1084.705322 -281.532593 1012.405212
v 1086.782227 -282.628265 1011.998962
v 1086.477051 -282.467377 1012.405212
v 1086.477051 -282.467377 1019.998962
v 1086.782227 -282.628265 1019.998962
vt 18.756281 0.261270
vt 18.978149 5.144690
vt 18.756281 5.144690
vt 16.179779 0.261270
vt 18.978149 0.000000
vt 16.179779 5.144690
vt 12.709700 5.144690
vt 12.709700 0.261270
vt 6.268450 0.261270
vt 6.268450 5.144690
vt 2.798370 5.144690
vt 2.798370 0.261270
vt 0.000000 0.000000
vt 0.221860 0.261270
vt 0.221860 5.144690
vt 0.000000 5.144690
vt 6.140220 0.261270
vt 6.362080 5.144690
vt 6.140220 5.144690
vt 4.851970 0.261270
vt 6.362080 0.000000
vt 4.851970 5.144690
vt 3.825170 5.144690
vt 3.825170 0.261270
vt 2.536920 0.261270
vt 0.000000 0.000000
vt 2.536920 5.144690
vt 1.510120 5.144690
vt 1.510120 0.261270
vt 0.221860 0.261270
vt 0.221860 5.144690
vt 0.000000 5.144690
vt 18.804291 0.261270
vt 19.026150 5.144690
vt 18.804291 5.144690
vt 16.227791 0.261270
vt 19.026150 0.000000
vt 16.227791 5.144690
vt 13.477860 5.144690
vt 13.477860 0.000000
vt 12.733700 5.144690
vt 12.733700 0.261270
vt 6.292450 0.261270
vt 7.145890 0.000000
vt 6.292450 5.144690
vt 2.798370 5.144690
vt 2.798370 0.261270
vt 0.000000 0.000000
vt 0.221860 5.144690
vt 0.000000 5.144690
vt 0.221860 0.261270
vt 0.000000 0.000000
vt 0.048030 0.000000
vt 0.048030 5.144690
vt 0.000000 5.144690
vt 6.140200 0.261270
vt 6.362070 5.144690
vt 6.140200 5.144690
vt 6.362070 0.000000
vt 4.851950 5.144690
vt 3.825160 5.144690
vt 4.851950 0.261270
vt 3.825160 0.261270
vt 2.536910 0.261270
vt 2.536910 5.144690
vt 1.510120 5.144690
vt 1.510120 0.261270
vt 0.000000 0.000000
vt 0.221860 0.261270
vt 0.221860 5.144690
vt 0.000000 5.144690
vn -0.8829 0.4696 0.0000
vn -0.8828 0.4697 0.0001
vn -0.8827 0.4699 0.0000
vn -0.8828 0.4697 0.0000
vn -0.8829 0.4696 -0.0004
vn -0.8829 0.4696 0.0006
vn -0.8828 0.4698 -0.0000
vn -0.8829 0.4695 -0.0001
vn -0.4666 -0.8844 0.0000
vn -0.4665 -0.8845 0.0001
vn -0.4667 -0.8844 0.0000
vn -0.4666 -0.8845 0.0000
vn -0.4667 -0.8844 -0.0004
vn -0.4668 -0.8844 0.0003
vn -0.4667 -0.8844 0.0001
vn -0.4666 -0.8844 -0.0004
vn -0.4665 -0.8845 0.0000
vn -0.4664 -0.8845 0.0000
vn 0.8829 -0.4695 0.0000
vn 0.8830 -0.4694 -0.0002
vn 0.8832 -0.4690 0.0000
vn 0.8830 -0.4694 0.0000
vn 0.8830 -0.4693 -0.0000
vn 0.8831 -0.4692 -0.0001
vn 0.8830 -0.4693 -0.0002
vn 0.8830 -0.4693 0.0001
vn -0.8973 0.4413 0.0000
vn 0.4666 0.8844 0.0000
vn 0.4667 0.8844 0.0000
vn 0.4666 0.8845 0.0000
vn 0.4666 0.8844 0.0002
vn 0.4668 0.8843 0.0000
vn 0.4665 0.8845 0.0000
vn 0.4668 0.8844 0.0000
vn 0.8830 -0.4694 0.0001
s off
f 1/1/1 2/2/1 3/3/1
f 4/4/2 5/5/2 1/1/2
f 2/2/3 1/1/3 5/5/3
f 6/6/4 7/7/4 4/4/4
f 7/7/4 8/8/4 4/4/4
f 8/8/5 5/5/5 4/4/5
f 8/8/6 9/9/6 5/5/6
f 10/10/4 11/11/4 9/9/4
f 11/11/4 12/12/4 9/9/4
f 12/12/2 13/13/2 9/9/2
f 9/9/7 13/13/7 5/5/7
f 14/14/8 13/13/8 12/12/8
f 15/15/3 16/16/3 14/14/3
f 16/16/7 13/13/7 14/14/7
f 17/17/9 18/18/9 19/19/9
f 20/20/10 21/21/10 17/17/10
f 18/18/11 17/17/11 21/21/11
f 22/22/12 23/23/12 20/20/12
f 23/23/9 24/24/9 20/20/9
f 24/24/13 21/21/13 20/20/13
f 25/25/14 26/26/14 24/24/14
f 24/24/15 26/26/15 21/21/15
f 27/27/12 28/28/12 25/25/12
f 28/28/12 29/29/12 25/25/12
f 29/29/16 26/26/16 25/25/16
f 30/30/17 26/26/17 29/29/17
f 31/31/11 32/32/11 30/30/11
f 32/32/18 26/26/18 30/30/18
f 33/33/19 34/34/19 35/35/19
f 36/36/20 37/37/20 33/33/20
f 34/34/21 33/33/21 37/37/21
f 38/38/22 39/39/22 36/36/22
f 36/36/22 39/39/22 40/40/22
f 36/36/20 40/40/20 37/37/20
f 39/39/22 41/41/22 42/42/22
f 42/42/23 43/43/23 44/44/23
f 42/42/24 44/44/24 40/40/24
f 45/45/23 46/46/23 43/43/23
f 46/46/22 47/47/22 43/43/22
f 43/43/25 47/47/25 44/44/25
f 47/47/26 49/48/26 44/44/26
f 50/49/21 51/50/21 48/51/21
f 51/50/23 49/48/23 48/51/23
f 52/52/27 53/53/27 54/54/27
f 52/52/27 54/54/27 55/55/27
f 56/56/28 57/57/28 58/58/28
f 57/57/29 56/56/29 60/59/29
f 61/60/30 62/61/30 59/62/30
f 62/61/30 63/63/30 59/62/30
f 63/63/31 60/59/31 59/62/31
f 63/63/32 64/64/32 60/59/32
f 65/65/30 66/66/30 64/64/30
f 66/66/30 67/67/30 64/64/30
f 67/67/31 68/68/31 64/64/31
f 64/64/33 68/68/33 60/59/33
f 69/69/33 68/68/33 67/67/33
f 70/70/34 71/71/34 69/69/34
f 71/71/28 68/68/28 69/69/28
s 1
f 39/39/23 42/42/23 40/40/23
f 48/51/35 49/48/35 47/47/35
f 59/62/33 60/59/33 56/56/33
