# Blender v3.0.1 OBJ File: 'rockerfeller_plaza.blend'
# www.blender.org
o geometryt000010000010000110010110000110000110100000010100st148
v 843.695984 -96.374344 148.515671
v 855.234619 -102.664688 148.515671
v 855.234619 -102.664688 172.068298
v 843.695984 -96.374344 172.068298
v 844.367371 -93.177872 169.867355
v 845.637573 -90.876816 148.515671
v 843.097107 -95.478943 148.515671
v 845.637573 -90.876816 182.068298
v 843.097107 -95.478943 169.867355
v 844.367371 -93.177872 182.068298
v 845.094360 -93.830101 172.068298
v 853.913330 -98.597885 172.068298
v 845.094360 -93.830101 182.068298
v 856.654907 -100.080086 182.068298
v 856.654907 -100.080086 172.068298
v 847.920410 -86.669128 192.068298
v 847.920410 -86.669128 148.515671
v 846.045532 -90.137352 148.515671
v 846.045532 -90.137352 192.068298
v 849.374939 -83.978416 148.515671
v 848.125000 -86.290565 148.515671
v 848.125000 -86.290565 192.068298
v 849.374939 -83.978416 192.068298
v 851.454529 -80.131638 192.068298
v 851.454529 -80.131638 148.515671
v 849.579590 -83.599854 148.515671
v 849.579590 -83.599854 192.068298
v 852.908997 -77.440926 148.515671
v 851.659119 -79.753075 148.515671
v 851.659119 -79.753075 192.068298
v 852.908997 -77.440926 192.068298
v 854.988647 -73.594147 192.068298
v 854.988647 -73.594147 148.515671
v 853.113708 -77.062363 148.515671
v 853.113708 -77.062363 192.068298
v 846.184692 -90.605362 192.068298
v 846.184692 -90.605362 182.068298
v 849.650146 -92.485443 182.068298
v 849.650146 -92.485443 192.068298
v 850.199829 -92.783691 192.068298
v 850.199829 -92.783691 182.068298
v 851.355042 -93.410393 182.068298
v 851.355042 -93.410393 192.068298
v 851.904724 -93.708641 192.068298
v 851.904724 -93.708641 182.068298
v 853.059937 -94.335342 182.068298
v 853.059937 -94.335342 192.068298
v 853.609619 -94.633598 192.068298
v 853.609619 -94.633598 182.068298
v 854.764832 -95.260292 182.068298
v 854.764832 -95.260292 192.068298
v 855.314514 -95.558548 192.068298
v 855.314514 -95.558548 182.068298
v 856.274292 -96.079254 182.068298
v 858.779907 -97.438622 192.068298
v 858.779907 -97.438622 182.068298
v 858.083740 -74.878448 148.515671
v 855.772644 -73.626503 148.515671
v 855.772644 -73.626503 192.068298
v 858.083740 -74.878448 192.068298
v 858.285645 -76.160622 192.068298
v 855.736450 -80.757904 192.068298
v 855.736450 -80.757904 198.068298
v 858.285645 -76.160622 198.068298
v 856.171387 -81.518433 192.068298
v 858.835327 -82.980682 192.068298
v 856.171387 -81.518433 198.068298
v 860.779541 -84.047882 198.068298
v 860.779541 -84.047882 192.068298
v 856.374695 -102.575981 172.068298
v 856.374695 -102.575981 148.515671
v 857.006592 -101.423683 148.515671
v 857.006592 -101.423683 172.068298
v 857.656921 -100.220886 182.068298
v 857.656921 -100.220886 148.515671
v 858.914429 -97.912842 148.515671
v 858.914429 -97.912842 182.068298
v 863.765625 -78.660866 198.068298
v 863.765625 -78.660866 192.068298
v 859.162598 -76.121986 192.068298
v 859.162598 -76.121986 198.068298
v 860.761536 -71.432487 192.068298
v 860.761536 -71.432487 148.515671
v 858.877136 -74.895538 148.515671
v 858.877136 -74.895538 192.068298
v 859.248535 -97.300316 192.068298
v 859.248535 -97.300316 148.515671
v 861.137207 -93.839607 148.515671
v 861.137207 -93.839607 192.068298
v 861.246399 -93.639534 192.068298
v 861.246399 -93.639534 148.515671
v 862.505493 -91.332397 148.515671
v 862.505493 -91.332397 192.068298
v 862.614746 -91.132324 192.068298
v 862.614746 -91.132324 148.515671
v 864.503540 -87.671616 148.515671
v 864.503540 -87.671616 192.068298
v 864.612732 -87.471542 192.068298
v 864.612732 -87.471542 148.515671
v 865.242188 -86.317978 148.515671
v 865.242188 -86.317978 192.068298
v 865.351440 -86.117897 148.515671
v 867.240234 -82.657196 148.515671
v 867.240234 -82.657196 192.068298
v 865.351440 -86.117897 192.068298
v 867.349426 -82.457115 148.515671
v 868.608521 -80.149986 148.515671
v 868.608521 -80.149986 192.068298
v 867.349426 -82.457115 192.068298
v 870.210510 -77.214752 192.068298
v 868.717712 -79.949905 148.515671
v 870.606445 -76.489204 148.515671
v 868.717712 -79.949905 192.068298
v 870.606445 -76.489204 192.068298
v 862.732422 -72.083092 192.068298
v 862.732422 -72.083092 148.515671
v 861.575684 -71.459267 148.515671
v 861.575684 -71.459267 192.068298
v 861.654602 -84.014343 192.068298
v 864.202515 -79.416298 192.068298
v 864.202515 -79.416298 198.068298
v 861.654602 -84.014343 198.068298
v 864.393127 -70.549477 192.068298
v 864.393127 -70.549477 148.515671
v 863.766113 -71.704475 148.515671
v 863.766113 -71.704475 192.068298
v 869.818909 -72.557442 192.068298
v 869.818909 -72.557442 148.515671
v 865.199036 -70.049423 148.515671
v 865.199036 -70.049423 192.068298
v 869.265015 -74.559998 148.515671
v 869.892639 -73.405342 148.515671
v 869.892639 -73.405342 192.068298
v 869.265015 -74.559998 192.068298
v 870.403931 -75.986488 148.515671
v 869.249146 -75.359268 148.515671
v 869.249146 -75.359268 192.068298
v 870.403931 -75.986488 192.068298
vt 0.000000 0.000000
vt 3.333330 0.000000
vt 3.333330 7.000000
vt 0.000000 7.000000
vt 0.666670 7.000000
vt 0.000000 0.000000
vt 1.333330 0.000000
vt 0.000000 11.000000
vt 1.333330 7.000000
vt 0.666670 11.000000
vt 0.000000 0.000000
vt 2.542810 0.000000
vt 0.000000 3.000000
vt 3.333330 3.000000
vt 3.333330 0.000000
vt 0.000000 11.000000
vt 0.000000 0.000000
vt 1.000000 0.000000
vt 1.000000 11.000000
vt 0.000000 0.000000
vt 0.666670 0.000000
vt 0.666670 11.000000
vt 0.000000 11.000000
vt 0.000000 11.000000
vt 0.000000 0.000000
vt 1.000000 0.000000
vt 1.000000 11.000000
vt 0.000000 0.000000
vt 0.666670 0.000000
vt 0.666670 11.000000
vt 0.000000 11.000000
vt 0.000000 11.000000
vt 0.000000 0.000000
vt 1.000000 0.000000
vt 1.000000 11.000000
vt 0.000000 3.000000
vt 0.000000 0.000000
vt 1.000000 0.000000
vt 1.000000 3.000000
vt 0.000000 3.000000
vt 0.000000 0.000000
vt 0.333330 0.000000
vt 0.333330 3.000000
vt 0.000000 3.000000
vt 0.000000 0.000000
vt 0.333330 0.000000
vt 0.333330 3.000000
vt 0.000000 3.000000
vt 0.000000 0.000000
vt 0.333330 0.000000
vt 0.333330 3.000000
vt 0.000000 3.000000
vt 0.000000 0.000000
vt 0.276960 0.000000
vt 1.000000 3.000000
vt 1.000000 0.000000
vt 0.000000 0.000000
vt 1.333330 0.000000
vt 1.333330 2.000000
vt 0.000000 2.000000
vt 0.000000 0.000000
vt 0.770790 0.000000
vt 0.000000 2.000000
vt 1.333330 2.000000
vt 1.333330 0.000000
vt 0.000000 7.000000
vt 0.000000 0.000000
vt 0.333330 0.000000
vt 0.333330 7.000000
vt 0.000000 11.000000
vt 0.000000 0.000000
vt 0.666670 0.000000
vt 0.666670 11.000000
vt 0.000000 2.000000
vt 0.000000 0.000000
vt 1.333330 0.000000
vt 1.333330 2.000000
vt 0.000000 11.000000
vt 0.000000 0.000000
vt 1.000000 0.000000
vt 1.000000 11.000000
vt 0.000000 11.000000
vt 0.000000 0.000000
vt 1.000000 0.000000
vt 1.000000 11.000000
vt 0.000000 11.000000
vt 0.000000 0.000000
vt 0.666670 0.000000
vt 0.666670 11.000000
vt 0.000000 11.000000
vt 0.000000 0.000000
vt 1.000000 0.000000
vt 1.000000 11.000000
vt 0.000000 11.000000
vt 0.000000 0.000000
vt 0.333330 0.000000
vt 0.333330 11.000000
vt 0.000000 0.000000
vt 1.000000 0.000000
vt 1.000000 11.000000
vt 0.000000 11.000000
vt 0.790350 11.000000
vt 0.000000 0.000000
vt 1.000000 0.000000
vt 0.000000 11.000000
vt 1.000000 11.000000
vt 0.000000 11.000000
vt 0.000000 0.000000
vt 0.333330 0.000000
vt 0.333330 11.000000
vt 0.000000 0.000000
vt 1.333330 0.000000
vt 1.333330 2.000000
vt 0.000000 2.000000
vt 0.000000 11.000000
vt 0.000000 0.000000
vt 0.333330 0.000000
vt 0.333330 11.000000
vt 0.000000 11.000000
vt 0.000000 0.000000
vt 1.333330 0.000000
vt 1.333330 11.000000
vt 0.000000 0.000000
vt 0.333330 0.000000
vt 0.333330 11.000000
vt 0.000000 11.000000
vt 0.000000 0.000000
vt 0.666670 0.000000
vt 0.666670 11.000000
vt 0.000000 11.000000
vt 0.000000 0.000000
vt 0.666670 0.000000
vt 0.666670 11.000000
vt 0.000000 11.000000
vt 0.000000 0.000000
vt 0.333330 0.000000
vt 0.333330 11.000000
vt 0.000000 11.000000
vn -0.4786 -0.8780 0.0000
vn -0.8755 0.4833 0.0000
vn -0.8754 0.4833 0.0000
vn -0.8755 0.4832 0.0000
vn -0.4756 -0.8797 0.0000
vn -0.8797 0.4756 0.0000
vn -0.8797 0.4755 0.0000
vn -0.4769 -0.8790 0.0000
vn -0.4768 -0.8790 0.0000
vn -0.8746 0.4849 0.0000
vn -0.4812 -0.8766 0.0000
vn 0.8768 -0.4808 0.0000
vn 0.8781 -0.4784 0.0000
vn 0.8781 -0.4785 0.0000
vn 0.4830 0.8756 0.0000
vn -0.8784 0.4780 0.0000
vn 0.8778 -0.4791 0.0000
vn 0.8778 -0.4790 0.0000
vn 0.8777 -0.4791 0.0000
vn 0.4746 0.8802 0.0000
vn 0.4747 0.8801 0.0000
vn 0.8747 -0.4847 0.0000
vn -0.8788 0.4772 0.0000
vn -0.8789 0.4771 0.0000
vn 0.4771 0.8788 0.0000
vn 0.8786 -0.4775 0.0000
vn 0.8786 -0.4776 0.0000
vn 0.4763 0.8793 0.0000
vn 0.4773 0.8787 0.0000
vn 0.4773 0.8788 0.0000
s off
f 1/1/1 2/2/1 3/3/1
f 4/4/1 1/1/1 3/3/1
f 5/5/2 6/6/2 7/7/2
f 8/8/2 6/6/2 5/5/2
f 5/5/3 7/7/3 9/9/3
f 10/10/4 8/8/4 5/5/4
f 11/11/5 12/12/5 13/13/5
f 14/14/5 12/12/5 15/15/5
f 13/13/5 12/12/5 14/14/5
f 16/16/6 17/17/6 18/18/6
f 16/16/7 18/18/7 19/19/7
f 20/20/6 21/21/6 22/22/6
f 23/23/6 20/20/6 22/22/6
f 24/24/6 25/25/6 26/26/6
f 24/24/6 26/26/6 27/27/6
f 28/28/6 29/29/6 30/30/6
f 31/31/6 28/28/6 30/30/6
f 32/32/6 33/33/6 34/34/6
f 32/32/6 34/34/6 35/35/6
f 36/36/8 37/37/8 38/38/8
f 36/36/9 38/38/9 39/39/9
f 40/40/9 41/41/9 42/42/9
f 40/40/9 42/42/9 43/43/9
f 44/44/9 45/45/9 46/46/9
f 44/44/9 46/46/9 47/47/9
f 48/48/9 49/49/9 50/50/9
f 48/48/8 50/50/8 51/51/8
f 52/52/8 53/53/8 54/54/8
f 55/55/8 54/54/8 56/56/8
f 55/55/8 52/52/8 54/54/8
f 61/57/10 62/58/10 63/59/10
f 64/60/10 61/57/10 63/59/10
f 65/61/11 66/62/11 67/63/11
f 68/64/11 66/62/11 69/65/11
f 67/63/11 66/62/11 68/64/11
f 70/66/12 71/67/12 72/68/12
f 70/66/12 72/68/12 73/69/12
f 74/70/13 75/71/13 76/72/13
f 74/70/14 76/72/14 77/73/14
f 78/74/15 79/75/15 80/76/15
f 78/74/15 80/76/15 81/77/15
f 82/78/16 83/79/16 84/80/16
f 82/78/16 84/80/16 85/81/16
f 86/82/17 87/83/17 88/84/17
f 86/82/17 88/84/17 89/85/17
f 90/86/17 91/87/17 92/88/17
f 90/86/18 92/88/18 93/89/18
f 94/90/17 95/91/17 96/92/17
f 94/90/17 96/92/17 97/93/17
f 98/94/18 99/95/18 100/96/18
f 98/94/18 100/96/18 101/97/18
f 102/98/17 103/99/17 104/100/17
f 105/101/17 102/98/17 104/100/17
f 110/102/17 111/103/17 112/104/17
f 113/105/17 111/103/17 110/102/17
f 110/102/19 112/104/19 114/106/19
f 115/107/20 116/108/20 117/109/20
f 115/107/21 117/109/21 118/110/21
f 119/111/22 120/112/22 121/113/22
f 122/114/22 119/111/22 121/113/22
f 123/115/23 124/116/23 125/117/23
f 123/115/24 125/117/24 126/118/24
f 127/119/25 128/120/25 129/121/25
f 127/119/25 129/121/25 130/122/25
f 131/123/26 132/124/26 133/125/26
f 134/126/27 131/123/27 133/125/27
s 1
f 57/127/28 58/128/28 59/129/28
f 60/130/28 57/127/28 59/129/28
f 106/131/18 107/132/18 108/133/18
f 109/134/18 106/131/18 108/133/18
f 135/135/29 136/136/29 137/137/30
f 138/138/30 135/135/29 137/137/30
