# Blender v3.0.1 OBJ File: 'rockerfeller_plaza.blend'
# www.blender.org
o geometryt000010000010000110010110000110000100110010110110st21
v 32.345615 -117.180725 565.664001
v 38.497223 -120.517723 565.664001
v 38.497223 -120.517723 579.204041
v 32.345615 -117.180725 579.204041
v 42.274822 -122.567024 565.664001
v 43.812721 -123.401222 565.664001
v 43.812721 -123.401222 579.204041
v 42.274822 -122.567024 579.204041
v 47.590332 -125.450523 565.664001
v 53.741943 -128.787521 565.664001
v 53.741943 -128.787521 579.204041
v 47.590332 -125.450523 579.204041
v 33.041195 -115.175125 579.204041
v 33.041195 -115.175125 565.664001
v 32.206875 -116.712921 565.664001
v 32.206875 -116.712921 579.204041
v 38.807213 -104.546822 565.664001
v 34.635605 -112.236221 565.664001
v 34.635605 -112.236221 579.204041
v 38.807213 -104.546822 579.204041
v 41.235943 -100.070023 579.204041
v 41.235943 -100.070023 565.664001
v 40.401611 -101.607925 565.664001
v 40.401611 -101.607925 579.204041
v 47.853802 -103.268425 579.204041
v 47.853802 -103.268425 565.664001
v 41.702534 -99.930725 565.664001
v 41.702534 -99.930725 579.204041
v 58.766293 -109.189522 565.664001
v 52.615013 -105.851822 565.664001
v 52.615013 -105.851822 579.204041
v 58.766293 -109.189522 579.204041
v 54.130882 -128.617828 565.664001
v 55.868961 -121.838722 565.664001
v 55.868961 -121.838722 579.204041
v 54.130882 -128.617828 579.204041
v 57.246052 -116.467522 565.664001
v 58.984135 -109.688324 565.664001
v 58.984135 -109.688324 579.204041
v 57.246052 -116.467522 579.204041
vt 0.000000 0.000000
vt 1.000000 0.000000
vt 1.000000 1.000000
vt 0.000000 1.000000
vt 0.000000 0.000000
vt 0.250000 0.000000
vt 0.250000 1.000000
vt 0.000000 1.000000
vt 0.000000 0.000000
vt 1.000000 0.000000
vt 1.000000 1.000000
vt 0.000000 1.000000
vt 0.000000 1.000000
vt 0.000000 0.000000
vt 0.250000 0.000000
vt 0.250000 1.000000
vt 0.000000 0.000000
vt 1.250000 0.000000
vt 1.250000 1.000000
vt 0.000000 1.000000
vt 0.000000 1.000000
vt 0.000000 0.000000
vt 0.250000 0.000000
vt 0.250000 1.000000
vt 0.000000 0.000000
vt 1.000000 0.000000
vt 1.000000 1.000000
vt 0.000000 1.000000
vt 0.000000 0.000000
vt 1.000000 0.000000
vt 1.000000 1.000000
vt 0.000000 1.000000
vt 0.000000 0.000000
vt 1.000000 0.000000
vt 1.000000 1.000000
vt 0.000000 1.000000
vt 0.000000 1.000000
vt 0.000000 0.000000
vt 1.000000 0.000000
vt 1.000000 1.000000
vn -0.4768 -0.8790 0.0000
vn -0.8790 0.4769 0.0000
vn 0.4769 0.8789 0.0000
vn 0.9687 -0.2484 0.0000
s off
f 1/1/1 2/2/1 3/3/1
f 4/4/1 1/1/1 3/3/1
f 5/5/1 6/6/1 7/7/1
f 8/8/1 5/5/1 7/7/1
f 9/9/1 10/10/1 11/11/1
f 12/12/1 9/9/1 11/11/1
f 13/13/2 14/14/2 15/15/2
f 13/13/2 15/15/2 16/16/2
f 17/17/2 18/18/2 19/19/2
f 20/20/2 17/17/2 19/19/2
f 21/21/2 22/22/2 23/23/2
f 21/21/2 23/23/2 24/24/2
f 29/25/3 30/26/3 31/27/3
f 32/28/3 29/25/3 31/27/3
f 33/29/4 34/30/4 35/31/4
f 36/32/4 33/29/4 35/31/4
f 37/33/4 38/34/4 39/35/4
f 40/36/4 37/33/4 39/35/4
s 1
f 25/37/3 26/38/3 27/39/3
f 25/37/3 27/39/3 28/40/3
