# Blender v3.0.1 OBJ File: 'rockerfeller_plaza.blend'
# www.blender.org
o geometryt000010000010000110010110000110000110100100000010st36
v 627.864258 -150.298477 956.292114
v 627.864258 -150.298477 931.118896
v 629.305786 -151.074677 931.118896
v 629.305786 -151.074677 956.292114
v 630.654358 -151.800781 931.118896
v 632.095886 -152.576874 931.118896
v 632.095886 -152.576874 956.292114
v 630.654358 -151.800781 956.292114
v 633.444458 -153.303085 931.118896
v 634.885986 -154.079178 931.118896
v 634.885986 -154.079178 956.292114
v 633.444458 -153.303085 956.292114
v 629.860168 -145.728683 931.118896
v 628.298157 -148.606476 931.118896
v 628.298157 -148.606476 956.292114
v 629.860168 -145.728683 956.292114
v 631.571960 -142.574783 956.292114
v 631.571960 -142.574783 931.118896
v 630.790955 -144.013672 931.118896
v 630.790955 -144.013672 956.292114
v 634.064758 -137.981873 931.118896
v 632.502808 -140.859680 931.118896
v 632.502808 -140.859680 956.292114
v 634.064758 -137.981873 956.292114
v 635.018188 -136.174179 956.292114
v 635.018188 -136.174179 931.118896
v 634.388977 -137.372772 931.118896
v 634.388977 -137.372772 956.292114
v 636.125488 -134.127380 931.118896
v 635.343262 -135.565582 931.118896
v 635.343262 -135.565582 956.292114
v 636.125488 -134.127380 956.292114
v 638.130493 -130.440384 931.118896
v 637.348267 -131.878677 931.118896
v 637.348267 -131.878677 956.292114
v 638.130493 -130.440384 956.292114
v 635.353271 -153.938980 931.118896
v 636.906006 -151.056183 931.118896
v 636.906006 -151.056183 956.292114
v 635.353271 -153.938980 956.292114
v 637.316589 -150.293884 956.292114
v 637.316589 -150.293884 931.118896
v 638.869202 -147.410980 931.118896
v 638.869202 -147.410980 956.292114
v 639.279785 -146.648682 931.118896
v 640.056091 -145.207275 931.118896
v 640.056091 -145.207275 956.292114
v 639.279785 -146.648682 956.292114
v 640.466675 -144.444885 931.118896
v 642.019287 -141.562073 931.118896
v 642.019287 -141.562073 956.292114
v 640.466675 -144.444885 956.292114
v 642.429871 -140.799683 956.292114
v 642.429871 -140.799683 931.118896
v 643.206299 -139.358276 931.118896
v 643.206299 -139.358276 956.292114
v 643.616882 -138.595871 931.118896
v 645.169495 -135.713074 931.118896
v 645.169495 -135.713074 956.292114
v 643.616882 -138.595871 956.292114
v 645.580078 -134.950684 931.118896
v 647.132690 -132.067871 931.118896
v 647.132690 -132.067871 956.292114
v 645.580078 -134.950684 956.292114
v 639.377197 -128.180374 956.292114
v 639.377197 -128.180374 931.118896
v 638.584595 -129.612885 931.118896
v 638.584595 -129.612885 956.292114
v 641.412354 -128.595978 931.118896
v 639.970886 -127.819878 931.118896
v 639.970886 -127.819878 956.292114
v 641.412354 -128.595978 956.292114
v 644.202515 -130.098282 956.292114
v 644.202515 -130.098282 931.118896
v 642.760986 -129.322083 931.118896
v 642.760986 -129.322083 956.292114
v 646.992554 -131.600571 931.118896
v 645.551086 -130.824371 931.118896
v 645.551086 -130.824371 956.292114
v 646.992554 -131.600571 956.292114
vt 0.000000 7.000000
vt 0.000000 0.000000
vt 0.333330 0.000000
vt 0.333330 7.000000
vt 0.000000 0.000000
vt 0.333330 0.000000
vt 0.333330 7.000000
vt 0.000000 7.000000
vt 0.000000 0.000000
vt 0.333330 0.000000
vt 0.333330 7.000000
vt 0.000000 7.000000
vt 0.000000 0.000000
vt 0.666670 0.000000
vt 0.666670 7.000000
vt 0.000000 7.000000
vt 0.000000 7.000000
vt 0.000000 0.000000
vt 0.333330 0.000000
vt 0.333330 7.000000
vt 0.000000 0.000000
vt 0.666670 0.000000
vt 0.666670 7.000000
vt 0.000000 7.000000
vt 0.000000 7.000000
vt 0.000000 0.000000
vt 0.333330 0.000000
vt 0.333330 7.000000
vt 0.000000 0.000000
vt 0.333330 0.000000
vt 0.333330 7.000000
vt 0.000000 7.000000
vt 0.000000 0.000000
vt 0.333330 0.000000
vt 0.333330 7.000000
vt 0.000000 7.000000
vt 0.000000 0.000000
vt 0.666670 0.000000
vt 0.666670 7.000000
vt 0.000000 7.000000
vt 0.000000 7.000000
vt 0.000000 0.000000
vt 0.666670 0.000000
vt 0.666670 7.000000
vt 0.000000 0.000000
vt 0.333330 0.000000
vt 0.333330 7.000000
vt 0.000000 7.000000
vt 0.000000 0.000000
vt 0.666670 0.000000
vt 0.666670 7.000000
vt 0.000000 7.000000
vt 0.000000 7.000000
vt 0.000000 0.000000
vt 0.333330 0.000000
vt 0.333330 7.000000
vt 0.000000 0.000000
vt 0.666670 0.000000
vt 0.666670 7.000000
vt 0.000000 7.000000
vt 0.000000 0.000000
vt 0.666670 0.000000
vt 0.666670 7.000000
vt 0.000000 7.000000
vt 0.000000 0.000000
vt 0.333330 0.000000
vt 0.333330 7.000000
vt 0.000000 7.000000
vt 0.000000 7.000000
vt 0.000000 0.000000
vt 0.333330 0.000000
vt 0.333330 7.000000
vt 0.000000 0.000000
vt 0.333330 0.000000
vt 0.333330 7.000000
vt 0.000000 7.000000
vt 0.000000 7.000000
vt 0.000000 0.000000
vt 0.333330 0.000000
vt 0.333330 7.000000
vn -0.4741 -0.8805 0.0000
vn -0.4740 -0.8805 0.0000
vn -0.8789 0.4770 0.0000
vn -0.8789 0.4771 0.0000
vn -0.8854 0.4648 0.0000
vn -0.8785 0.4778 0.0000
vn 0.8804 -0.4742 0.0000
vn 0.8804 -0.4743 0.0000
vn 0.4741 0.8805 0.0000
vn -0.8750 0.4841 0.0000
s off
f 1/1/1 2/2/1 3/3/1
f 1/1/1 3/3/1 4/4/1
f 5/5/2 6/6/2 7/7/2
f 8/8/1 5/5/1 7/7/1
f 9/9/1 10/10/1 11/11/1
f 12/12/2 9/9/2 11/11/2
f 13/13/3 14/14/3 15/15/3
f 16/16/4 13/13/4 15/15/4
f 17/17/3 18/18/3 19/19/3
f 17/17/3 19/19/3 20/20/3
f 21/21/3 22/22/3 23/23/3
f 24/24/3 21/21/3 23/23/3
f 25/25/5 26/26/5 27/27/5
f 25/25/5 27/27/5 28/28/5
f 29/29/6 30/30/6 31/31/6
f 32/32/6 29/29/6 31/31/6
f 33/33/6 34/34/6 35/35/6
f 36/36/6 33/33/6 35/35/6
f 37/37/7 38/38/7 39/39/7
f 40/40/7 37/37/7 39/39/7
f 41/41/7 42/42/7 43/43/7
f 41/41/7 43/43/7 44/44/7
f 45/45/7 46/46/7 47/47/7
f 48/48/7 45/45/7 47/47/7
f 49/49/7 50/50/7 51/51/7
f 52/52/7 49/49/7 51/51/7
f 53/53/8 54/54/8 55/55/8
f 53/53/7 55/55/7 56/56/7
f 57/57/7 58/58/7 59/59/7
f 60/60/7 57/57/7 59/59/7
f 61/61/7 62/62/7 63/63/7
f 64/64/7 61/61/7 63/63/7
f 69/65/9 70/66/9 71/67/9
f 72/68/9 69/65/9 71/67/9
f 73/69/9 74/70/9 75/71/9
f 73/69/9 75/71/9 76/72/9
f 77/73/9 78/74/9 79/75/9
f 80/76/9 77/73/9 79/75/9
s 1
f 65/77/10 66/78/10 67/79/10
f 65/77/10 67/79/10 68/80/10
