# Blender v3.0.1 OBJ File: 'rockerfeller_plaza.blend'
# www.blender.org
o geometryt000010000010000110010110000110000100110010010110st51
v 241.743301 -173.007294 21.821819
v 244.680206 -174.505295 21.821819
v 244.680206 -174.505295 40.778919
v 241.743301 -173.007294 40.778919
v 245.830704 -175.092194 21.821819
v 247.299103 -175.841202 21.821819
v 247.299103 -175.841202 40.778919
v 245.830704 -175.092194 40.778919
v 248.449600 -176.428101 40.778919
v 248.449600 -176.428101 21.821819
v 251.386505 -177.926102 21.821819
v 251.386505 -177.926102 40.778919
v 243.171402 -169.648697 21.821819
v 241.600296 -172.547195 21.821819
v 241.600296 -172.547195 40.778919
v 243.171402 -169.648697 40.778919
v 246.507996 -163.492706 40.778919
v 246.507996 -163.492706 21.821819
v 244.151505 -167.840500 21.821819
v 244.151505 -167.840500 40.778919
v 249.844696 -157.336807 40.778919
v 249.844696 -157.336807 21.821819
v 247.488098 -161.684494 21.821819
v 247.488098 -161.684494 40.778919
v 252.395798 -152.630096 40.778919
v 252.395798 -152.630096 21.821819
v 250.824799 -155.528595 21.821819
v 250.824799 -155.528595 40.778919
v 252.179794 -178.326599 21.821819
v 253.653305 -179.065506 21.821819
v 253.653305 -179.065506 40.778919
v 252.179794 -178.326599 40.778919
v 255.889404 -153.803299 21.821819
v 252.875595 -152.466599 21.821819
v 252.875595 -152.466599 40.778919
v 255.889404 -153.803299 40.778919
v 258.680511 -155.041199 21.821819
v 257.173615 -154.372894 21.821819
v 257.173615 -154.372894 40.778919
v 258.680511 -155.041199 40.778919
v 262.978485 -156.947495 21.821819
v 259.964691 -155.610794 21.821819
v 259.964691 -155.610794 40.778919
v 262.978485 -156.947495 40.778919
v 254.346802 -178.870697 40.778919
v 254.346802 -178.870697 21.821819
v 255.052307 -177.380798 21.821819
v 255.052307 -177.380798 40.778919
v 255.389206 -176.622604 40.778919
v 255.389206 -176.622604 21.821819
v 256.625885 -173.566406 21.821819
v 256.625885 -173.566406 40.778919
v 257.156586 -172.254898 40.778919
v 257.156586 -172.254898 21.821819
v 259.011505 -167.670593 21.821819
v 259.011505 -167.670593 40.778919
v 259.542206 -166.359100 40.778919
v 259.542206 -166.359100 21.821819
v 261.397095 -161.774796 21.821819
v 261.397095 -161.774796 40.778919
v 261.927795 -160.463303 40.778919
v 261.927795 -160.463303 21.821819
v 263.164490 -157.407104 21.821819
v 263.164490 -157.407104 40.778919
vt 0.000000 0.000000
vt 0.500000 0.000000
vt 0.500000 1.250000
vt 0.000000 1.250000
vt 0.000000 0.000000
vt 0.250000 0.000000
vt 0.250000 1.250000
vt 0.000000 1.250000
vt 0.000000 1.250000
vt 0.000000 0.000000
vt 0.500000 0.000000
vt 0.500000 1.250000
vt 0.000000 0.000000
vt 0.500000 0.000000
vt 0.500000 1.250000
vt 0.000000 1.250000
vt 0.000000 1.250000
vt 0.000000 0.000000
vt 0.750000 0.000000
vt 0.750000 1.250000
vt 0.000000 1.250000
vt 0.000000 0.000000
vt 0.750000 0.000000
vt 0.750000 1.250000
vt 0.000000 1.250000
vt 0.000000 0.000000
vt 0.500000 0.000000
vt 0.500000 1.250000
vt 0.000000 0.000000
vt 0.250000 0.000000
vt 0.250000 1.250000
vt 0.000000 1.250000
vt 0.000000 0.000000
vt 0.500000 0.000000
vt 0.500000 1.250000
vt 0.000000 1.250000
vt 0.000000 0.000000
vt 0.250000 0.000000
vt 0.250000 1.250000
vt 0.000000 1.250000
vt 0.000000 0.000000
vt 0.500000 0.000000
vt 0.500000 1.250000
vt 0.000000 1.250000
vt 0.000000 1.250000
vt 0.000000 0.000000
vt 0.250000 0.000000
vt 0.250000 1.250000
vt 0.000000 1.250000
vt 0.000000 0.000000
vt 0.500000 0.000000
vt 0.500000 1.250000
vt 0.000000 1.250000
vt 0.000000 0.000000
vt 0.750000 0.000000
vt 0.750000 1.250000
vt 0.000000 1.250000
vt 0.000000 0.000000
vt 0.750000 0.000000
vt 0.750000 1.250000
vt 0.000000 1.250000
vt 0.000000 0.000000
vt 0.500000 0.000000
vt 0.500000 1.250000
vn -0.4544 -0.8908 0.0000
vn -0.8792 0.4765 0.0000
vn -0.4483 -0.8939 0.0000
vn 0.4054 0.9141 0.0000
vn 0.9038 -0.4280 0.0000
vn 0.9270 -0.3751 0.0000
s off
f 1/1/1 2/2/1 3/3/1
f 4/4/1 1/1/1 3/3/1
f 5/5/1 6/6/1 7/7/1
f 8/8/1 5/5/1 7/7/1
f 9/9/1 10/10/1 11/11/1
f 9/9/1 11/11/1 12/12/1
f 13/13/2 14/14/2 15/15/2
f 16/16/2 13/13/2 15/15/2
f 17/17/2 18/18/2 19/19/2
f 17/17/2 19/19/2 20/20/2
f 21/21/2 22/22/2 23/23/2
f 21/21/2 23/23/2 24/24/2
f 25/25/2 26/26/2 27/27/2
f 25/25/2 27/27/2 28/28/2
f 29/29/3 30/30/3 31/31/3
f 32/32/3 29/29/3 31/31/3
f 33/33/4 34/34/4 35/35/4
f 36/36/4 33/33/4 35/35/4
f 37/37/4 38/38/4 39/39/4
f 40/40/4 37/37/4 39/39/4
f 41/41/4 42/42/4 43/43/4
f 44/44/4 41/41/4 43/43/4
f 45/45/5 46/46/5 47/47/5
f 45/45/5 47/47/5 48/48/5
f 49/49/6 50/50/6 51/51/6
f 49/49/6 51/51/6 52/52/6
f 53/53/6 54/54/6 55/55/6
f 53/53/6 55/55/6 56/56/6
f 57/57/6 58/58/6 59/59/6
f 57/57/6 59/59/6 60/60/6
f 61/61/6 62/62/6 63/63/6
f 61/61/6 63/63/6 64/64/6
