# Blender v3.0.1 OBJ File: 'rockerfeller_plaza.blend'
# www.blender.org
o geometryt000010000010000110010110000110000110100000100110st105
v 624.815552 -153.360413 655.845825
v 617.730408 -149.557114 655.845825
v 627.265930 -131.793610 655.845825
v 637.061829 -131.324310 655.845825
v 646.941895 -136.638214 655.845825
v 632.440063 -163.619003 655.845825
v 622.245605 -158.142105 655.845825
v 629.654053 -127.347115 655.845825
v 624.815552 -153.360413 680.945801
v 622.245605 -158.142105 680.945801
v 632.440063 -163.619003 680.945801
v 646.941895 -136.638214 680.945801
v 637.061829 -131.324310 680.945801
v 629.654053 -127.347115 680.945801
v 627.265930 -131.793610 680.945801
v 617.730408 -149.557114 680.945801
vt 0.240490 0.240930
vt 0.235820 0.226740
vt 0.200460 0.246380
vt 0.196500 0.266130
vt 0.203020 0.285920
vt 0.256730 0.256060
vt 0.250000 0.235640
vt 0.191610 0.251300
vt 0.240490 0.240930
vt 0.250000 0.235640
vt 0.256730 0.256060
vt 0.203020 0.285920
vt 0.196500 0.266130
vt 0.191610 0.251300
vt 0.200460 0.246380
vt 0.235820 0.226740
vn 0.0000 0.0000 -1.0000
vn 0.0000 0.0000 1.0000
s off
f 1/1/1 2/2/1 3/3/1
f 4/4/1 1/1/1 3/3/1
f 5/5/1 1/1/1 4/4/1
f 6/6/1 1/1/1 5/5/1
f 7/7/1 1/1/1 6/6/1
f 8/8/1 4/4/1 3/3/1
f 9/9/2 10/10/2 11/11/2
f 12/12/2 9/9/2 11/11/2
f 13/13/2 9/9/2 12/12/2
f 14/14/2 15/15/2 13/13/2
f 15/15/2 9/9/2 13/13/2
f 15/15/2 16/16/2 9/9/2
