# Blender v3.0.1 OBJ File: 'rockerfeller_plaza.blend'
# www.blender.org
o geometryt000010000010000110010110000110000110100100000000st83_T
v 289.055634 -127.853386 963.649780
v 286.672089 -126.581589 967.849792
v 286.672089 -126.581589 963.649780
v 295.724701 -131.411682 963.649780
v 302.340820 -134.941772 963.649780
v 302.340820 -134.941772 967.849792
v 290.536011 -118.096184 967.849792
v 290.536011 -118.096184 963.649780
v 286.327850 -125.915489 963.649780
v 286.327850 -125.915489 967.849792
v 306.950256 -126.382484 963.649780
v 291.285797 -118.014183 963.649780
v 291.285797 -118.014183 967.849792
v 306.950256 -126.382484 967.849792
v 303.086304 -134.862671 967.849792
v 303.086304 -134.862671 963.649780
v 307.298767 -127.045685 963.649780
v 307.298767 -127.045685 967.849792
vt 0.133110 0.000000
vt 0.000000 0.250000
vt 0.000000 0.000000
vt 0.505530 0.000000
vt 0.875000 0.000000
vt 0.875000 0.250000
vt 0.000000 0.250000
vt 0.000000 0.000000
vt 0.437500 0.000000
vt 0.437500 0.250000
vt 0.000000 0.250000
vt 0.000000 0.000000
vt 0.437500 0.000000
vt 0.437500 0.250000
vt 0.000000 0.000000
vt 0.875000 0.000000
vt 0.875000 0.250000
vt 0.000000 0.250000
vn -0.4708 -0.8823 0.0000
vn -0.4707 -0.8823 0.0000
vn -0.8806 0.4739 0.0000
vn 0.8803 -0.4744 0.0000
vn 0.4712 0.8820 0.0000
s off
f 1/1/1 2/2/1 3/3/1
f 2/2/2 1/1/2 4/4/2
f 5/5/2 6/6/2 4/4/2
f 6/6/2 2/2/2 4/4/2
f 7/7/3 8/8/3 9/9/3
f 7/7/3 9/9/3 10/10/3
f 15/11/4 16/12/4 17/13/4
f 15/11/4 17/13/4 18/14/4
s 1
f 11/15/5 12/16/5 13/17/5
f 14/18/5 11/15/5 13/17/5
