# Blender v3.0.1 OBJ File: 'rockerfeller_plaza.blend'
# www.blender.org
o geometryt000010000010000110010110000110000110100000000100st105_
v 337.232117 -263.458801 71.067276
v 335.752075 -263.045197 205.067261
v 335.752075 -263.045197 71.067276
v 338.308319 -263.759491 71.067276
v 340.722412 -264.434113 71.067276
v 341.156250 -264.555389 71.067276
v 342.808319 -265.016998 71.067276
v 366.337433 -271.592010 71.067276
v 366.337433 -271.592010 205.067261
v 338.073486 -256.985596 205.067261
v 338.073486 -256.985596 71.067276
v 335.263458 -262.342194 71.067276
v 335.263458 -262.342194 205.067261
v 340.077545 -249.652496 205.067261
v 340.077545 -249.652496 71.067276
v 339.928040 -250.238495 71.067276
v 338.614502 -255.386795 71.067276
v 338.582123 -255.513702 205.067261
v 338.582123 -255.513702 71.067276
v 345.055664 -249.832001 71.067276
v 346.816132 -250.262802 205.067261
v 346.816132 -250.262802 71.067276
v 341.978851 -249.078903 71.067276
v 340.940582 -248.824799 205.067261
v 341.966339 -249.075897 71.067276
v 341.947510 -249.071304 71.067276
v 341.889771 -249.057098 71.067276
v 341.769928 -249.027802 71.067276
v 340.940582 -248.824799 71.067276
v 351.297119 -251.488403 151.067276
v 352.795319 -251.904999 205.067261
v 352.795319 -251.904999 151.067276
v 349.801422 -251.072495 151.067276
v 349.801422 -251.072495 205.067261
v 349.735046 -251.054001 151.067276
v 348.424438 -250.689606 151.067276
v 348.424438 -250.689606 205.067261
v 348.648529 -250.751907 131.067276
v 349.344025 -250.945297 71.067276
v 347.887085 -250.540207 71.067276
v 349.344025 -250.945297 131.067276
v 347.887085 -250.540207 131.067276
v 350.832947 -247.235703 71.067276
v 350.047638 -250.156494 71.067276
v 350.047638 -250.156494 131.067276
v 350.832947 -247.235703 131.067276
v 357.332520 -223.422501 71.067276
v 358.073517 -220.709305 136.067276
v 358.073517 -220.709305 71.067276
v 357.263824 -223.674103 71.067276
v 351.636322 -244.279800 71.067276
v 351.300629 -245.509094 136.067276
v 351.382935 -245.207504 71.067276
v 351.300629 -245.509094 71.067276
v 369.885925 -273.340515 71.067276
v 368.034424 -272.322815 205.067261
v 368.034424 -272.322815 71.067276
v 382.535645 -280.294098 71.067276
v 384.958008 -281.625702 71.067276
v 406.465729 -293.448486 71.067276
v 406.465729 -293.448486 205.067261
v 368.870239 -255.318405 136.067276
v 368.870239 -255.318405 71.067276
v 369.727020 -252.132706 71.067276
v 373.272827 -238.949997 71.067276
v 373.669312 -237.476105 71.067276
v 376.726013 -226.111603 136.067276
v 373.700134 -237.361404 71.067276
v 374.491333 -234.419907 71.067276
v 375.727539 -229.823898 71.067276
v 376.381836 -227.391403 71.067276
v 376.726013 -226.111603 71.067276
v 373.395630 -257.761200 71.067276
v 369.060638 -256.423492 71.067276
v 369.060638 -256.423492 205.067261
v 373.395630 -257.761200 205.067261
v 413.846222 -278.904205 71.067276
v 414.542725 -279.269897 205.067261
v 414.542725 -279.269897 71.067276
v 412.210022 -278.045013 71.067276
v 412.007721 -277.938812 71.067276
v 406.806732 -275.207794 71.067276
v 374.376221 -258.178711 71.067276
v 374.376221 -258.178711 205.067261
v 407.888428 -293.068695 205.067261
v 407.888428 -293.068695 71.067276
v 409.628326 -289.755188 71.067276
v 409.997528 -289.052094 205.067261
v 409.997528 -289.052094 71.067276
v 413.883331 -281.815186 71.067276
v 414.090820 -281.419891 71.067276
v 413.883331 -281.815186 205.067261
v 414.586121 -280.476196 205.067261
v 414.586121 -280.476196 71.067276
vt 0.169370 0.000000
vt 0.000000 11.000000
vt 0.000000 0.000000
vt 0.292520 0.000000
vt 0.568780 0.000000
vt 0.618420 0.000000
vt 0.807470 0.000000
vt 3.500000 0.000000
vt 3.500000 11.000000
vt 0.000000 11.000000
vt 0.000000 0.000000
vt 0.666670 0.000000
vt 0.666670 11.000000
vt 0.000000 11.000000
vt 0.000000 0.000000
vt 0.066650 0.000000
vt 0.652240 0.000000
vt 0.666670 11.000000
vt 0.666670 0.000000
vt 0.199750 0.000000
vt 0.000000 11.000000
vt 0.000000 0.000000
vt 0.548860 0.000000
vt 0.666670 11.000000
vt 0.558970 0.000000
vt 0.572570 0.000000
vt 0.666670 0.000000
vt 0.171380 0.000000
vt 0.000000 4.500000
vt 0.000000 0.000000
vt 0.342480 0.000000
vt 0.342480 4.500000
vt 0.350080 0.000000
vt 0.500000 0.000000
vt 0.500000 4.500000
vt 0.079570 5.000000
vt 0.000000 0.000000
vt 0.166670 0.000000
vt 0.000000 5.000000
vt 0.166670 5.000000
vt 0.000000 0.000000
vt 0.333330 0.000000
vt 0.333330 4.250000
vt 0.000000 4.250000
vt 0.309980 0.000000
vt 0.000000 4.500000
vt 0.000000 0.000000
vt 0.338730 0.000000
vt 2.692890 0.000000
vt 2.833330 4.500000
vt 2.798870 0.000000
vt 2.833330 0.000000
vt 0.232840 0.000000
vt 0.000000 11.000000
vt 0.000000 0.000000
vt 1.823750 0.000000
vt 2.128400 0.000000
vt 4.833330 0.000000
vt 4.833330 11.000000
vt 0.000000 4.500000
vt 0.000000 0.000000
vt 0.363580 0.000000
vt 1.868110 0.000000
vt 2.036320 0.000000
vt 3.333330 4.500000
vt 2.049410 0.000000
vt 2.385120 0.000000
vt 2.909660 0.000000
vt 3.187270 0.000000
vt 3.333330 0.000000
vt 0.000000 0.000000
vt 0.500000 0.000000
vt 0.500000 11.000000
vt 0.000000 11.000000
vt 0.086710 0.000000
vt 0.000000 11.000000
vt 0.000000 0.000000
vt 0.290380 0.000000
vt 0.315570 0.000000
vt 0.962990 0.000000
vt 5.000000 0.000000
vt 5.000000 11.000000
vt 0.000000 11.000000
vt 0.000000 0.000000
vt 0.412470 0.000000
vt 0.500000 11.000000
vt 0.500000 0.000000
vt 0.000000 0.000000
vt 0.049200 0.000000
vt 0.000000 11.000000
vt 0.166670 11.000000
vt 0.550280 0.000000
vt 0.552420 0.000000
vt 0.166670 0.000000
vn -0.2691 -0.9631 0.0000
vn -0.2692 -0.9631 -0.0000
vn -0.8855 0.4646 0.0000
vn -0.8855 0.4645 0.0000
vn -0.9690 0.2472 0.0000
vn -0.9689 0.2475 0.0000
vn 0.2377 0.9713 0.0000
vn 0.2380 0.9713 0.0000
vn 0.2378 0.9713 0.0000
vn 0.2679 0.9634 0.0000
vn 0.2680 0.9634 0.0000
vn 0.2679 0.9635 0.0000
vn 0.2678 0.9635 0.0000
vn -0.9657 0.2597 0.0000
vn -0.9657 0.2596 0.0000
vn -0.9647 0.2635 0.0000
vn -0.9647 0.2634 0.0000
vn -0.4817 -0.8763 0.0000
vn 0.9657 -0.2597 0.0000
vn 0.9657 -0.2598 0.0000
vn 0.9657 -0.2596 -0.0000
vn 0.2949 0.9555 0.0000
vn 0.4648 0.8854 0.0000
vn 0.4649 0.8854 0.0000
vn 0.8854 -0.4649 0.0000
vn 0.8853 -0.4649 0.0000
vn 0.8854 -0.4648 0.0000
vn 0.8855 -0.4647 0.0000
vn 0.2384 0.9712 -0.0000
vn 0.2373 0.9714 -0.0000
vn 0.2397 0.9708 -0.0000
vn 0.2372 0.9715 -0.0000
s off
f 1/1/1 2/2/1 3/3/1
f 4/4/1 2/2/1 1/1/1
f 5/5/1 2/2/1 4/4/1
f 5/5/2 6/6/2 2/2/2
f 2/2/1 6/6/1 7/7/1
f 8/8/1 9/9/1 7/7/1
f 7/7/1 9/9/1 2/2/1
f 10/10/3 11/11/3 12/12/3
f 10/10/4 12/12/4 13/13/4
f 14/14/5 15/15/5 16/16/5
f 17/17/5 18/18/5 16/16/5
f 18/18/5 14/14/5 16/16/5
f 19/19/6 18/18/6 17/17/6
f 20/20/7 21/21/7 22/22/7
f 23/23/7 24/24/7 20/20/7
f 20/20/7 24/24/7 21/21/7
f 27/25/8 28/26/8 24/24/8
f 28/26/9 29/27/9 24/24/9
f 30/28/10 31/29/10 32/30/10
f 30/28/10 33/31/10 34/32/10
f 30/28/10 34/32/10 31/29/10
f 35/33/11 34/32/11 33/31/11
f 35/33/12 36/34/12 37/35/12
f 35/33/10 37/35/10 34/32/10
f 38/36/12 39/37/12 40/38/12
f 41/39/10 39/37/10 38/36/10
f 38/36/13 40/38/13 42/40/13
f 43/41/14 44/42/14 45/43/14
f 46/44/15 43/41/15 45/43/15
f 47/45/16 48/46/16 49/47/16
f 50/48/17 48/46/17 47/45/17
f 51/49/16 52/50/16 50/48/16
f 52/50/16 48/46/16 50/48/16
f 53/51/16 52/50/16 51/49/16
f 53/51/17 54/52/17 52/50/17
f 55/53/18 56/54/18 57/55/18
f 58/56/18 56/54/18 55/53/18
f 59/57/18 56/54/18 58/56/18
f 60/58/18 61/59/18 59/57/18
f 59/57/18 61/59/18 56/54/18
f 62/60/19 63/61/19 64/62/19
f 65/63/19 62/60/19 64/62/19
f 66/64/20 67/65/20 65/63/20
f 65/63/19 67/65/19 62/60/19
f 67/65/21 66/64/21 68/66/21
f 69/67/20 67/65/20 68/66/20
f 67/65/19 69/67/19 70/68/19
f 71/69/20 67/65/20 70/68/20
f 67/65/19 71/69/19 72/70/19
f 73/71/22 74/72/22 75/73/22
f 76/74/22 73/71/22 75/73/22
f 77/75/23 78/76/23 79/77/23
f 80/78/24 78/76/24 77/75/24
f 81/79/23 78/76/23 80/78/23
f 81/79/24 82/80/24 78/76/24
f 82/80/24 83/81/24 84/82/24
f 82/80/24 84/82/24 78/76/24
f 85/83/25 86/84/25 87/85/25
f 88/86/26 87/85/26 89/87/26
f 88/86/25 85/83/25 87/85/25
f 90/88/27 91/89/27 92/90/27
f 92/90/28 91/89/28 93/91/28
s 1
f 25/92/29 24/24/30 23/23/31
f 25/92/29 26/93/32 24/24/30
f 27/25/30 24/24/30 26/93/32
f 93/91/27 91/89/27 94/94/27
