# Blender v3.0.1 OBJ File: 'rockerfeller_plaza.blend'
# www.blender.org
o geometryt000010000010000110010110000110000110100000100100st13
v 440.952087 -193.233521 612.443909
v 440.789001 -193.537521 628.750916
v 440.952087 -193.233521 628.750916
v 441.787292 -191.677917 612.443909
v 441.664703 -191.906326 612.150879
v 440.789001 -193.537521 612.150879
v 441.787292 -191.677917 628.750916
v 442.607910 -190.149521 628.750916
v 442.607910 -190.149521 612.443909
v 443.443115 -188.593918 612.443909
v 443.443115 -188.593918 628.750916
v 444.263611 -187.065521 628.750916
v 444.263611 -187.065521 612.443909
v 446.769196 -182.398529 612.443909
v 446.769196 -182.398529 628.750916
v 447.589783 -180.870117 628.750916
v 447.589783 -180.870117 612.443909
v 448.424988 -179.314529 612.443909
v 448.424988 -179.314529 628.750916
v 449.245483 -177.786118 628.750916
v 449.245483 -177.786118 612.443909
v 455.225800 -166.647125 612.150879
v 451.751099 -173.119125 612.443909
v 451.751099 -173.119125 628.750916
v 452.571716 -171.590820 628.750916
v 452.571716 -171.590820 612.443909
v 453.406891 -170.035126 612.443909
v 453.406891 -170.035126 628.750916
v 454.227417 -168.506821 628.750916
v 454.227417 -168.506821 612.443909
v 455.062592 -166.951126 612.443909
v 455.062592 -166.951126 628.750916
v 455.225800 -166.647125 628.750916
v 445.921906 -196.297424 612.443909
v 446.225708 -196.460831 628.750916
v 445.921906 -196.297424 628.750916
v 444.366699 -195.461227 612.443909
v 446.225708 -196.460831 612.150879
v 444.366699 -195.461227 628.750916
v 442.647797 -194.537018 628.750916
v 442.647797 -194.537018 612.443909
v 441.092590 -193.700821 612.443909
v 440.788818 -193.537430 612.150879
v 441.092590 -193.700821 628.750916
v 440.788818 -193.537430 628.750916
v 460.498596 -169.873917 612.443909
v 460.661804 -169.570023 628.750916
v 460.498596 -169.873917 628.750916
v 459.663513 -171.429626 612.443909
v 460.661804 -169.570023 612.150879
v 459.663513 -171.429626 628.750916
v 458.843018 -172.958023 628.750916
v 458.843018 -172.958023 612.443909
v 458.007812 -174.513718 612.443909
v 458.007812 -174.513718 628.750916
v 457.187317 -176.042130 628.750916
v 457.187317 -176.042130 612.443909
v 454.681793 -180.709229 612.443909
v 454.681793 -180.709229 628.750916
v 453.861389 -182.237518 628.750916
v 453.861389 -182.237518 612.443909
v 453.026184 -183.793228 612.443909
v 446.225708 -196.460831 612.150879
v 453.026184 -183.793228 628.750916
v 452.205688 -185.321625 628.750916
v 452.205688 -185.321625 612.443909
v 449.700195 -189.988724 612.443909
v 449.700195 -189.988724 628.750916
v 448.879700 -191.517029 628.750916
v 448.879700 -191.517029 612.443909
v 448.044617 -193.072723 612.443909
v 448.044617 -193.072723 628.750916
v 447.224091 -194.601120 628.750916
v 447.224091 -194.601120 612.443909
v 446.388916 -196.156830 612.443909
v 446.388916 -196.156830 628.750916
v 446.225708 -196.460831 628.750916
v 455.528687 -166.810028 612.443909
v 455.224915 -166.646622 628.750916
v 455.528687 -166.810028 628.750916
v 457.083893 -167.646225 612.443909
v 455.224915 -166.646622 612.150879
v 457.083893 -167.646225 628.750916
v 458.802795 -168.570419 628.750916
v 458.802795 -168.570419 612.443909
v 460.358002 -169.406616 612.443909
v 460.661804 -169.570023 612.150879
v 460.358002 -169.406616 628.750916
v 460.661804 -169.570023 628.750916
vt 30.296921 0.342700
vt 30.643299 19.415211
vt 30.296921 19.415211
vt 28.524139 0.342700
vt 28.784460 0.000000
vt 30.643299 0.000000
vt 28.524139 19.415211
vt 26.782480 19.415211
vt 26.782480 0.342700
vt 25.009701 0.342700
vt 25.009701 19.415211
vt 23.268040 19.415211
vt 23.268040 0.342700
vt 17.949699 0.342700
vt 17.949699 19.415211
vt 16.208040 19.415211
vt 16.208040 0.342700
vt 14.435260 19.415211
vt 12.693600 19.415211
vt 14.435260 0.342700
vt 12.693600 0.342700
vt 0.000000 0.000000
vt 7.375270 0.342700
vt 7.375270 19.415211
vt 5.633600 19.415211
vt 5.633600 0.342700
vt 3.860830 0.342700
vt 3.860830 19.415211
vt 2.119160 19.415211
vt 2.119160 0.342700
vt 0.346390 0.342700
vt 0.346390 19.415211
vt 0.000000 19.415211
vt 5.851440 0.342700
vt 6.197830 19.415211
vt 5.851440 19.415211
vt 4.078660 0.342700
vt 6.197830 0.000000
vt 4.078660 19.415211
vt 2.119160 19.415211
vt 2.119160 0.342700
vt 0.346390 0.342700
vt 0.000000 0.000000
vt 0.346390 19.415211
vt 0.000000 19.415211
vt 30.296921 0.342700
vt 30.643311 19.415211
vt 30.296921 19.415211
vt 30.643311 0.000000
vt 28.524139 19.415211
vt 26.782480 19.415211
vt 28.524139 0.342700
vt 26.782480 0.342700
vt 25.009701 0.342700
vt 25.009701 19.415211
vt 23.268040 19.415211
vt 23.268040 0.342700
vt 17.949711 19.415211
vt 16.208040 19.415211
vt 17.949711 0.342700
vt 16.208040 0.342700
vt 0.000000 0.000000
vt 14.435260 19.415211
vt 12.693600 19.415211
vt 14.435260 0.342700
vt 12.693600 0.342700
vt 7.375270 0.342700
vt 3.860830 19.415211
vt 2.119160 19.415211
vt 3.860830 0.342700
vt 2.119160 0.342700
vt 0.346390 0.342700
vt 0.346390 19.415211
vt 0.000000 19.415211
vt 5.851430 0.342700
vt 6.197810 19.415211
vt 5.851430 19.415211
vt 4.078650 0.342700
vt 6.197810 0.000000
vt 0.346390 0.342700
vt 0.000000 0.000000
vt 2.119160 0.342700
vt 0.346390 19.415211
vt 0.000000 19.415211
vt 7.375270 19.415211
vt 5.633610 19.415211
vt 5.633610 0.342700
vt 4.078650 19.415211
vt 2.119160 19.415211
vn -0.8812 0.4728 0.0000
vn -0.8811 0.4729 -0.0001
vn -0.8810 0.4731 -0.0004
vn -0.8813 0.4726 0.0000
vn -0.8810 0.4730 0.0000
vn -0.8810 0.4730 -0.0001
vn -0.8811 0.4730 0.0000
vn -0.8810 0.4731 0.0003
vn -0.8811 0.4728 0.0000
vn -0.8810 0.4731 0.0001
vn -0.8810 0.4731 0.0000
vn -0.8811 0.4729 -0.0002
vn -0.8810 0.4730 0.0001
vn -0.4737 -0.8807 0.0000
vn -0.4737 -0.8807 -0.0004
vn -0.4736 -0.8807 0.0000
vn -0.4736 -0.8808 0.0000
vn -0.4737 -0.8807 0.0003
vn -0.4737 -0.8807 -0.0002
vn -0.4736 -0.8807 -0.0001
vn 0.8811 -0.4729 -0.0000
vn 0.8810 -0.4731 0.0000
vn 0.8811 -0.4730 0.0000
vn 0.8809 -0.4733 -0.0003
vn 0.8812 -0.4728 0.0001
vn 0.8812 -0.4727 -0.0002
vn 0.8810 -0.4730 -0.0001
vn 0.8808 -0.4735 -0.0005
vn 0.8812 -0.4728 -0.0005
vn 0.8812 -0.4727 0.0001
vn 0.4737 0.8807 0.0000
vn 0.4737 0.8807 0.0002
vn 0.4738 0.8806 0.0000
vn 0.4737 0.8807 -0.0002
vn 0.4735 0.8808 -0.0001
vn -0.8808 0.4735 0.0004
vn -0.8816 0.4721 -0.0000
vn -0.8811 0.4729 0.0003
vn -0.8808 0.4735 -0.0005
vn -0.8812 0.4727 0.0005
vn 0.8812 -0.4727 0.0002
vn 0.8812 -0.4728 -0.0003
vn 0.8808 -0.4735 0.0009
vn 0.8808 -0.4735 0.0010
vn 0.8816 -0.4720 0.0001
vn 0.8811 -0.4730 -0.0004
vn 0.8809 -0.4732 -0.0006
vn 0.4735 0.8808 0.0000
vn 0.4736 0.8808 0.0000
vn 0.4738 0.8806 0.0003
s off
f 1/1/1 2/2/1 3/3/1
f 4/4/2 5/5/2 1/1/2
f 5/5/3 6/6/3 1/1/3
f 2/2/4 1/1/4 6/6/4
f 7/7/5 8/8/5 4/4/5
f 8/8/5 9/9/5 4/4/5
f 9/9/6 5/5/6 4/4/6
f 9/9/2 10/10/2 5/5/2
f 11/11/7 12/12/7 10/10/7
f 12/12/7 13/13/7 10/10/7
f 10/10/8 13/13/8 5/5/8
f 13/13/9 14/14/9 5/5/9
f 15/15/5 16/16/5 14/14/5
f 16/16/7 17/17/7 14/14/7
f 19/18/7 20/19/7 18/20/7
f 20/19/7 21/21/7 18/20/7
f 18/20/10 22/22/10 5/5/10
f 23/23/9 22/22/9 21/21/9
f 24/24/5 25/25/5 23/23/5
f 25/25/11 26/26/11 23/23/11
f 27/27/12 22/22/12 26/26/12
f 28/28/7 29/29/7 27/27/7
f 29/29/7 30/30/7 27/27/7
f 30/30/10 22/22/10 27/27/10
f 31/31/13 22/22/13 30/30/13
f 32/32/7 33/33/7 31/31/7
f 33/33/11 22/22/11 31/31/11
f 34/34/14 35/35/14 36/36/14
f 37/37/15 38/38/15 34/34/15
f 35/35/16 34/34/16 38/38/16
f 39/39/17 40/40/17 37/37/17
f 40/40/17 41/41/17 37/37/17
f 41/41/18 38/38/18 37/37/18
f 42/42/19 43/43/19 41/41/19
f 41/41/20 43/43/20 38/38/20
f 44/44/14 45/45/14 42/42/14
f 45/45/14 43/43/14 42/42/14
f 46/46/21 47/47/21 48/48/21
f 47/47/22 46/46/22 50/49/22
f 51/50/23 52/51/23 49/52/23
f 52/51/23 53/53/23 49/52/23
f 53/53/24 50/49/24 49/52/24
f 53/53/25 54/54/25 50/49/25
f 55/55/23 56/56/23 54/54/23
f 56/56/23 57/57/23 54/54/23
f 54/54/26 57/57/26 50/49/26
f 59/58/23 60/59/23 58/60/23
f 60/59/23 61/61/23 58/60/23
f 61/61/27 63/62/27 50/49/27
f 64/63/23 65/64/23 62/65/23
f 65/64/23 66/66/23 62/65/23
f 66/66/28 63/62/28 62/65/28
f 67/67/29 63/62/29 66/66/29
f 72/68/23 73/69/23 71/70/23
f 73/69/23 74/71/23 71/70/23
f 74/71/30 63/62/30 71/70/30
f 75/72/25 63/62/25 74/71/25
f 76/73/23 77/74/23 75/72/23
f 77/74/23 63/62/23 75/72/23
f 78/75/31 79/76/31 80/77/31
f 81/78/32 82/79/32 78/75/32
f 79/76/33 78/75/33 82/79/33
f 86/80/34 87/81/34 85/82/34
f 85/82/35 87/81/35 82/79/35
f 88/83/31 89/84/31 86/80/31
f 89/84/31 87/81/31 86/80/31
s 1
f 14/14/36 17/17/37 5/5/38
f 17/17/37 18/20/37 5/5/38
f 21/21/39 22/22/39 18/20/39
f 26/26/40 22/22/40 23/23/40
f 49/52/41 50/49/41 46/46/41
f 57/57/42 58/60/43 50/49/21
f 58/60/43 61/61/44 50/49/21
f 62/65/45 63/62/45 61/61/45
f 68/85/23 69/86/23 67/67/23
f 69/86/23 70/87/25 67/67/23
f 70/87/25 63/62/46 67/67/23
f 71/70/47 63/62/46 70/87/25
f 83/88/48 84/89/48 81/78/32
f 84/89/48 85/82/49 81/78/32
f 85/82/49 82/79/50 81/78/32
