# Blender v3.0.1 OBJ File: 'rockerfeller_plaza.blend'
# www.blender.org
o geometryt000010000010000110010110000110000110100100000010st20
v 536.346252 -106.431679 931.570984
v 539.610352 -100.354179 931.570984
v 566.422424 -114.775078 931.570984
v 563.158325 -120.852577 931.570984
v 536.346252 -106.431679 953.871033
v 563.158325 -120.852577 953.871033
v 566.422424 -114.775078 953.871033
v 539.610352 -100.354179 953.871033
vt 0.184230 0.057270
vt 0.172140 0.063990
vt 0.189850 0.117690
vt 0.201950 0.110970
vt 0.184230 0.057270
vt 0.201950 0.110970
vt 0.189850 0.117690
vt 0.172140 0.063990
vn 0.0000 0.0000 -1.0000
vn 0.0000 0.0000 1.0000
s off
f 1/1/1 2/2/1 3/3/1
f 1/1/1 3/3/1 4/4/1
f 5/5/2 6/6/2 7/7/2
f 8/8/2 5/5/2 7/7/2
