# Blender v3.0.1 OBJ File: 'rockerfeller_plaza.blend'
# www.blender.org
o geometryt000010000010000110010110000110000110100000100110st16
v 523.362183 -228.767807 656.350098
v 523.199097 -229.071808 678.057617
v 523.362183 -228.767807 678.057617
v 525.620911 -224.557709 656.350098
v 523.199097 -229.071808 656.057617
v 525.620911 -224.557709 678.057617
v 526.333191 -223.230103 678.057617
v 526.333191 -223.230103 656.350098
v 529.344788 -217.616608 656.350098
v 529.344788 -217.616608 678.057617
v 530.057068 -216.289001 678.057617
v 530.057068 -216.289001 656.350098
v 530.809998 -214.885605 656.350098
v 530.809998 -214.885605 678.057617
v 531.522278 -213.558014 678.057617
v 531.522278 -213.558014 656.350098
v 537.667969 -202.102814 656.057617
v 534.533875 -207.944504 656.350098
v 534.533875 -207.944504 678.057617
v 535.246155 -206.616913 678.057617
v 535.246155 -206.616913 656.350098
v 537.504822 -202.406815 656.350098
v 537.504822 -202.406815 678.057617
v 537.667969 -202.102814 678.057617
v 530.821106 -233.157715 656.350098
v 531.125122 -233.320709 678.057617
v 530.821106 -233.157715 678.057617
v 529.417480 -232.405212 656.350098
v 531.125122 -233.320709 656.057617
v 529.417480 -232.405212 678.057617
v 528.849670 -232.100906 678.057617
v 528.849670 -232.100906 656.350098
v 527.446045 -231.348404 656.350098
v 527.446045 -231.348404 678.057617
v 526.878235 -231.044113 678.057617
v 526.878235 -231.044113 656.350098
v 523.199097 -229.071808 656.057617
v 525.474609 -230.291611 656.350098
v 525.474609 -230.291611 678.057617
v 524.906799 -229.987305 678.057617
v 524.906799 -229.987305 656.350098
v 523.503174 -229.234802 656.350098
v 523.503174 -229.234802 678.057617
v 523.199097 -229.071808 678.057617
v 545.439331 -206.666611 656.350098
v 545.602539 -206.362610 678.057617
v 545.439331 -206.666611 678.057617
v 543.178833 -210.875702 656.350098
v 545.602539 -206.362610 656.057617
v 543.178833 -210.875702 678.057617
v 542.466675 -212.201813 678.057617
v 542.466675 -212.201813 656.350098
v 539.452759 -217.814011 656.350098
v 539.452759 -217.814011 678.057617
v 538.740601 -219.140106 678.057617
v 538.740601 -219.140106 656.350098
v 537.987061 -220.543213 656.350098
v 537.987061 -220.543213 678.057617
v 537.274902 -221.869308 678.057617
v 537.274902 -221.869308 656.350098
v 531.125122 -233.320709 656.057617
v 534.260986 -227.481506 656.350098
v 534.260986 -227.481506 678.057617
v 533.548828 -228.807602 678.057617
v 533.548828 -228.807602 656.350098
v 531.288391 -233.016708 656.350098
v 531.288391 -233.016708 678.057617
v 531.125122 -233.320709 678.057617
v 537.971924 -202.266006 656.350098
v 537.667969 -202.102814 678.057617
v 537.971924 -202.266006 678.057617
v 539.375061 -203.019302 656.350098
v 537.667969 -202.102814 656.057617
v 539.375061 -203.019302 678.057617
v 539.946411 -203.326004 678.057617
v 539.946411 -203.326004 656.350098
v 541.349548 -204.079315 656.350098
v 541.349548 -204.079315 678.057617
v 541.920898 -204.386108 678.057617
v 541.920898 -204.386108 656.350098
v 543.324036 -205.139404 656.350098
v 545.602539 -206.362610 656.057617
v 543.324036 -205.139404 678.057617
v 543.895447 -205.446106 678.057617
v 543.895447 -205.446106 656.350098
v 545.298584 -206.199402 656.350098
v 545.298584 -206.199402 678.057617
v 545.602539 -206.362610 678.057617
vt 162.689102 1.572770
vt 164.543900 118.279602
vt 162.689102 118.279602
vt 137.002396 1.572770
vt 164.543900 0.000000
vt 137.002396 118.279602
vt 128.902206 118.279602
vt 128.902206 1.572770
vt 94.653297 1.572770
vt 94.653297 118.279602
vt 86.553047 118.279602
vt 86.553047 1.572770
vt 77.990837 118.279602
vt 69.890602 118.279602
vt 77.990837 1.572770
vt 69.890602 1.572770
vt 0.000000 0.000000
vt 35.641731 1.572770
vt 35.641731 118.279602
vt 27.541491 118.279602
vt 27.541491 1.572770
vt 1.854840 1.572770
vt 1.854840 118.279602
vt 0.000000 118.279602
vt 37.932571 1.572770
vt 48.349621 0.000000
vt 46.494789 1.572770
vt 48.349621 118.279602
vt 34.468880 1.572770
vt 25.906660 1.572770
vt 25.906660 118.279602
vt 22.442970 118.279602
vt 22.442970 1.572770
vt 0.000000 0.000000
vt 13.880750 1.572770
vt 1.854840 1.572770
vt 10.417060 1.572770
vt 1.854840 118.279602
vt 0.000000 118.279602
vt 162.658707 1.572770
vt 164.513596 118.279602
vt 162.658707 118.279602
vt 136.972107 1.572770
vt 164.513596 0.000000
vt 136.972107 118.279602
vt 128.879395 118.279602
vt 128.879395 1.572770
vt 94.630569 1.572770
vt 94.630569 118.279602
vt 86.537910 118.279602
vt 86.537910 1.572770
vt 77.975700 118.279602
vt 69.883041 118.279602
vt 77.975700 1.572770
vt 69.883041 1.572770
vt 0.000000 0.000000
vt 35.634159 1.572770
vt 35.634159 118.279602
vt 27.541491 118.279602
vt 27.541491 1.572770
vt 1.854840 1.572770
vt 1.854840 118.279602
vt 0.000000 118.279602
vt 46.563221 1.572770
vt 48.418060 118.279602
vt 46.563221 118.279602
vt 38.000999 1.572770
vt 48.418060 0.000000
vt 38.000999 118.279602
vt 34.514500 118.279602
vt 34.514500 1.572770
vt 25.952280 1.572770
vt 25.952280 118.279602
vt 22.465780 118.279602
vt 22.465780 1.572770
vt 13.903560 1.572770
vt 0.000000 0.000000
vt 13.903560 118.279602
vt 10.417060 118.279602
vt 10.417060 1.572770
vt 1.854840 1.572770
vt 1.854840 118.279602
vt 0.000000 118.279602
vt 46.494789 118.279602
vt 37.932571 118.279602
vt 34.468880 118.279602
vt 13.880750 118.279602
vt 10.417060 118.279602
vn -0.8813 0.4726 0.0000
vn -0.8812 0.4728 -0.0001
vn -0.8811 0.4728 0.0000
vn -0.8812 0.4728 0.0000
vn -0.8812 0.4727 0.0000
vn -0.8812 0.4728 0.0003
vn -0.8812 0.4728 0.0001
vn -0.8812 0.4728 -0.0003
vn -0.8812 0.4728 0.0006
vn -0.8811 0.4730 0.0000
vn -0.4725 -0.8814 0.0000
vn -0.4726 -0.8813 0.0000
vn -0.4722 -0.8815 0.0002
vn -0.4723 -0.8814 0.0000
vn -0.4724 -0.8814 0.0000
vn -0.4724 -0.8814 -0.0002
vn -0.4722 -0.8815 -0.0002
vn -0.4725 -0.8813 0.0001
vn -0.4725 -0.8813 0.0000
vn 0.8811 -0.4730 0.0000
vn 0.8810 -0.4730 -0.0002
vn 0.8810 -0.4730 0.0000
vn 0.8810 -0.4731 0.0000
vn 0.8810 -0.4732 0.0000
vn 0.8809 -0.4733 0.0001
vn 0.8811 -0.4729 0.0001
vn 0.8804 -0.4742 0.0000
vn 0.8809 -0.4732 0.0000
vn 0.8811 -0.4729 -0.0001
vn 0.8809 -0.4733 0.0000
vn 0.8811 -0.4730 -0.0001
vn 0.4731 0.8810 0.0000
vn 0.4730 0.8811 0.0000
vn 0.4728 0.8812 0.0003
vn 0.4730 0.8810 0.0000
vn 0.4733 0.8809 0.0003
vn 0.4731 0.8810 0.0002
vn 0.4729 0.8811 0.0000
vn -0.8814 0.4723 0.0005
vn -0.8810 0.4731 -0.0010
vn -0.8812 0.4727 -0.0002
vn -0.8814 0.4724 0.0005
vn -0.4728 -0.8812 0.0005
vn -0.4724 -0.8814 0.0001
vn -0.4730 -0.8811 0.0004
vn -0.4729 -0.8811 0.0007
vn -0.4724 -0.8814 -0.0001
vn -0.4728 -0.8812 -0.0003
vn -0.4729 -0.8811 -0.0004
vn 0.8818 -0.4716 -0.0017
vn 0.4735 0.8808 -0.0003
vn 0.4725 0.8813 -0.0002
s off
f 1/1/1 2/2/1 3/3/1
f 4/4/2 5/5/2 1/1/2
f 2/2/3 1/1/3 5/5/3
f 6/6/4 7/7/4 4/4/4
f 7/7/5 8/8/5 4/4/5
f 8/8/6 5/5/6 4/4/6
f 8/8/7 9/9/7 5/5/7
f 10/10/5 11/11/5 9/9/5
f 11/11/4 12/12/4 9/9/4
f 14/13/4 15/14/4 13/15/4
f 15/14/4 16/16/4 13/15/4
f 13/15/4 17/17/4 5/5/4
f 18/18/8 17/17/8 16/16/8
f 19/19/4 20/20/4 18/18/4
f 20/20/4 21/21/4 18/18/4
f 21/21/9 17/17/9 18/18/9
f 22/22/2 17/17/2 21/21/2
f 23/23/10 24/24/10 22/22/10
f 24/24/5 17/17/5 22/22/5
f 28/25/11 29/26/11 25/27/11
f 26/28/12 25/27/12 29/26/12
f 32/29/13 33/30/13 29/26/13
f 34/31/14 35/32/14 33/30/14
f 35/32/15 36/33/15 33/30/15
f 33/30/16 37/34/16 29/26/16
f 38/35/17 37/34/17 36/33/17
f 42/36/18 37/34/18 41/37/18
f 43/38/19 44/39/19 42/36/19
f 44/39/15 37/34/15 42/36/15
f 45/40/20 46/41/20 47/42/20
f 48/43/21 49/44/21 45/40/21
f 46/41/22 45/40/22 49/44/22
f 50/45/23 51/46/23 48/43/23
f 51/46/24 52/47/24 48/43/24
f 52/47/25 49/44/25 48/43/25
f 52/47/26 53/48/26 49/44/26
f 54/49/23 55/50/23 53/48/23
f 55/50/24 56/51/24 53/48/24
f 53/48/27 56/51/27 49/44/27
f 58/52/23 59/53/23 57/54/23
f 59/53/23 60/55/23 57/54/23
f 60/55/27 61/56/27 57/54/27
f 57/54/28 61/56/28 49/44/28
f 62/57/29 61/56/29 60/55/29
f 63/58/23 64/59/23 62/57/23
f 64/59/23 65/60/23 62/57/23
f 65/60/30 61/56/30 62/57/30
f 66/61/31 61/56/31 65/60/31
f 67/62/20 68/63/20 66/61/20
f 68/63/28 61/56/28 66/61/28
f 69/64/32 70/65/32 71/66/32
f 72/67/32 73/68/32 69/64/32
f 70/65/33 69/64/33 73/68/33
f 74/69/33 75/70/33 72/67/33
f 75/70/33 76/71/33 72/67/33
f 76/71/32 73/68/32 72/67/32
f 76/71/34 77/72/34 73/68/34
f 78/73/35 79/74/35 77/72/35
f 79/74/32 80/75/32 77/72/32
f 81/76/36 82/77/36 80/75/36
f 80/75/37 82/77/37 73/68/37
f 83/78/38 84/79/38 81/76/38
f 84/79/38 85/80/38 81/76/38
f 86/81/35 82/77/35 85/80/35
f 87/82/32 88/83/32 86/81/32
f 88/83/32 82/77/32 86/81/32
s 1
f 9/9/39 12/12/40 5/5/41
f 12/12/40 13/15/40 5/5/41
f 16/16/42 17/17/42 13/15/42
f 25/27/15 26/28/15 27/84/15
f 30/85/15 31/86/15 28/25/43
f 31/86/15 32/29/44 28/25/43
f 32/29/44 29/26/45 28/25/43
f 36/33/46 37/34/46 33/30/46
f 39/87/15 40/88/15 38/35/47
f 40/88/15 41/37/48 38/35/47
f 41/37/48 37/34/49 38/35/47
f 56/51/50 57/54/50 49/44/50
f 77/72/51 80/75/51 73/68/51
f 85/80/52 82/77/52 81/76/52
