# Blender v3.0.1 OBJ File: 'rockerfeller_plaza.blend'
# www.blender.org
o geometryt000010000010000110010110000110000110100100000000st63
v 546.144653 -190.039978 888.420471
v 547.094116 -190.550476 921.820801
v 546.144653 -190.039978 921.820801
v 508.105530 -169.587784 888.420471
v 520.189331 -176.084778 887.820740
v 547.094116 -190.550476 887.820740
v 508.105530 -169.587784 917.820801
v 507.156128 -169.077271 917.820801
v 507.156128 -169.077271 887.820740
v 520.189331 -176.084778 921.820801
v 520.189331 -176.084778 918.109619
v 520.332397 -176.161682 918.109619
v 520.332397 -176.161682 921.820801
v 507.370911 -168.691071 888.420471
v 507.156128 -169.077271 917.820801
v 507.370911 -168.691071 917.820801
v 509.835449 -164.261078 887.820740
v 509.620636 -164.647385 888.420471
v 507.156128 -169.077271 887.820740
v 509.620636 -164.647385 917.820801
v 509.835449 -164.261078 917.820801
v 510.156250 -163.626083 961.820801
v 510.156250 -163.626083 888.420471
v 509.835449 -164.261078 917.820801
v 509.835449 -164.261078 961.820801
v 510.851624 -162.249283 888.420471
v 509.835449 -164.261078 887.820740
v 510.851624 -162.249283 961.820801
v 511.172424 -161.614273 961.820801
v 511.172424 -161.614273 887.820740
v 509.835510 -164.260971 961.820801
v 509.835510 -164.260971 917.820801
v 510.148529 -164.428085 917.820801
v 510.148529 -164.428085 961.820801
v 512.870239 -165.880371 949.249329
v 512.870239 -165.880371 946.820801
v 541.296509 -181.048477 946.820801
v 548.252075 -184.759979 949.249329
v 548.565125 -184.926971 946.820801
v 548.565125 -184.926971 961.820801
v 548.252075 -184.759979 961.820801
v 512.706848 -165.793182 946.820801
v 512.706848 -165.793182 917.820801
v 512.781738 -166.299271 917.820801
v 512.781738 -166.299271 946.820801
v 513.007507 -167.825073 946.820801
v 513.007507 -167.825073 917.820801
v 513.082397 -168.331177 917.820801
v 513.082397 -168.331177 946.820801
v 513.082397 -168.331177 946.820801
v 513.082397 -168.331177 917.820801
v 513.730835 -168.675583 917.820801
v 513.730835 -168.675583 946.820801
v 515.093018 -169.399185 917.820801
v 515.741333 -169.743576 917.820801
v 515.741333 -169.743576 926.820801
v 515.093018 -169.399185 946.820801
v 515.741333 -169.743576 946.820801
v 545.049622 -181.300674 961.820801
v 515.379517 -165.484482 963.820801
v 515.379517 -165.484482 961.820801
v 545.851562 -181.728073 963.820801
v 545.851562 -181.728073 961.820801
v 515.379517 -165.484482 963.820801
v 515.397339 -165.450974 961.820801
v 515.379517 -165.484482 961.820801
v 516.057007 -164.210983 963.820801
v 516.057007 -164.210983 961.820801
v 515.741333 -169.743576 926.820801
v 515.741333 -169.743576 917.820801
v 515.837036 -170.124680 917.820801
v 515.837036 -170.124680 926.820801
v 516.212341 -171.620773 926.820801
v 516.212341 -171.620773 917.820801
v 516.307922 -172.001877 917.820801
v 516.307922 -172.001877 926.820801
v 515.741333 -169.743576 946.820801
v 515.741333 -169.743576 926.820801
v 516.526917 -170.162170 926.820801
v 516.526917 -170.162170 946.820801
v 545.113403 -185.394577 946.820801
v 545.113403 -185.394577 926.820801
v 545.899048 -185.813171 926.820801
v 545.899048 -185.813171 946.820801
v 516.307922 -172.001877 926.820801
v 516.307922 -172.001877 917.820801
v 516.633057 -172.179779 917.820801
v 516.633057 -172.179779 926.820801
v 519.338989 -173.661179 917.820801
v 519.664062 -173.839081 917.820801
v 519.664062 -173.839081 921.820801
v 519.338989 -173.661179 926.820801
v 519.664062 -173.839081 926.820801
v 519.664062 -173.839081 921.820801
v 519.664062 -173.839081 917.820801
v 519.751038 -174.211884 917.820801
v 519.751038 -174.211884 921.820801
v 520.101318 -175.713974 921.820801
v 520.101318 -175.713974 917.820801
v 520.126587 -175.822372 917.820801
v 520.188354 -176.086777 917.820801
v 520.188354 -176.086777 921.820801
v 519.664062 -173.839081 926.820801
v 519.664062 -173.839081 921.820801
v 519.967285 -174.004974 921.820801
v 519.967285 -174.004974 926.820801
v 547.033936 -188.805878 926.820801
v 547.033936 -188.805878 921.820801
v 547.337158 -188.971680 921.820801
v 547.337158 -188.971680 926.820801
v 529.183838 -164.375473 963.820801
v 529.183838 -164.375473 888.420471
v 528.685730 -164.108582 963.820801
v 555.015259 -178.217972 888.420471
v 549.359436 -175.187180 887.820740
v 528.685730 -164.108582 887.820740
v 555.015259 -178.217972 924.612610
v 555.513306 -178.484879 887.820740
v 552.812866 -177.037781 887.820740
v 552.296143 -176.760880 924.612610
v 552.812866 -177.037781 926.820801
v 555.513306 -178.484879 926.820801
v 552.296143 -176.760880 960.804749
v 549.577026 -175.303772 960.804749
v 549.577026 -175.303772 961.820801
v 552.812866 -177.037781 961.820801
v 549.246826 -175.397171 961.820801
v 545.851562 -181.728073 963.820801
v 545.851562 -181.728073 961.820801
v 549.338623 -175.226074 963.820801
v 549.338623 -175.226074 961.820801
v 545.899048 -185.813171 946.820801
v 545.899048 -185.813171 926.820801
v 546.500122 -185.613480 926.820801
v 546.500122 -185.613480 946.820801
v 547.963867 -185.127075 946.820801
v 547.963867 -185.127075 926.820801
v 548.564941 -184.927277 926.820801
v 548.564941 -184.927277 946.820801
v 548.952271 -190.119476 888.420471
v 549.308228 -190.036774 921.820801
v 548.952271 -190.119476 921.820801
v 547.449707 -190.468384 888.420471
v 549.308228 -190.036774 887.820740
v 547.449707 -190.468384 921.820801
v 547.093872 -190.551071 921.820801
v 547.093872 -190.551071 887.820740
v 547.337158 -188.971680 926.820801
v 547.337158 -188.971680 921.820801
v 548.053101 -188.795181 921.820801
v 548.053101 -188.795181 926.820801
v 549.550720 -188.425873 926.820801
v 549.550720 -188.425873 921.820801
v 549.891113 -188.341873 921.820801
v 550.266724 -188.249283 921.820801
v 550.266724 -188.249283 926.820801
v 548.564941 -184.927277 946.820801
v 548.564941 -184.927277 926.820801
v 548.848267 -184.401077 926.820801
v 548.848267 -184.401077 961.820801
v 548.564941 -184.927277 961.820801
v 552.504517 -177.610580 961.820801
v 552.504517 -177.610580 926.820801
v 552.787842 -177.084473 926.820801
v 552.787842 -177.084473 961.820801
v 555.315430 -178.846283 926.820801
v 555.315430 -178.846283 888.420471
v 555.486328 -178.527985 926.820801
v 549.478271 -189.717972 888.420471
v 550.266724 -188.249283 887.820740
v 555.486328 -178.527985 887.820740
v 549.478271 -189.717972 920.420715
v 549.307251 -190.036285 887.820740
v 550.207825 -188.358978 920.420715
v 550.207825 -188.358978 921.820801
v 549.307251 -190.036285 921.820801
vt 44.178341 0.446880
vt 45.254200 25.335320
vt 44.178341 25.335320
vt 1.075860 0.446880
vt 14.768140 0.000000
vt 45.254200 0.000000
vt 1.075860 22.354691
vt 0.000000 22.354691
vt 0.000000 0.000000
vt 14.768140 25.335320
vt 14.768140 22.569941
vt 14.930230 22.569941
vt 14.930230 25.335320
vt 5.059230 0.446880
vt 5.500340 22.354691
vt 5.059230 22.354691
vt 0.000000 0.000000
vt 5.500340 0.000000
vt 0.441110 22.354691
vt 0.000000 22.354691
vt 0.441110 0.446880
vt 2.249350 55.141579
vt 2.249350 0.446880
vt 2.959340 22.354691
vt 2.959340 55.141579
vt 0.709980 0.446880
vt 2.959340 0.000000
vt 0.709980 55.141579
vt 0.000000 55.141579
vt 0.000000 0.000000
vt 0.000000 32.786880
vt 0.000000 0.000000
vt 0.354120 0.000000
vt 0.354120 32.786880
vt 3.432870 23.419201
vt 3.432870 21.609541
vt 35.588551 21.609541
vt 43.456600 23.419201
vt 43.810730 21.609541
vt 43.810730 32.786880
vt 43.456600 32.786880
vt 0.000000 21.609541
vt 0.000000 0.000000
vt 0.510600 0.000000
vt 0.510600 21.609541
vt 2.049970 21.609541
vt 2.049970 0.000000
vt 2.560570 0.000000
vt 2.560570 21.609541
vt 0.000000 21.609541
vt 0.000000 0.000000
vt 0.732680 0.000000
vt 0.732680 21.609541
vt 2.272060 0.000000
vt 3.004740 0.000000
vt 3.004740 6.706410
vt 2.272060 21.609541
vt 3.004740 21.609541
vt 33.555260 0.000000
vt 0.000000 1.490310
vt 0.000000 0.000000
vt 34.462158 1.490310
vt 34.462158 0.000000
vt 1.439640 1.490310
vt 1.401750 0.000000
vt 1.439640 0.000000
vt 0.000000 1.490310
vt 0.000000 0.000000
vt 0.000000 6.706410
vt 0.000000 0.000000
vt 0.392120 0.000000
vt 0.392120 6.706410
vt 1.931490 6.706410
vt 1.931490 0.000000
vt 2.323610 0.000000
vt 2.323610 6.706410
vt 0.000000 6.706410
vt 0.000000 0.000000
vt 0.369870 0.000000
vt 0.369870 6.706410
vt 3.448610 0.000000
vt 3.818480 0.000000
vt 3.818480 2.980630
vt 3.448610 6.706410
vt 3.818480 6.706410
vt 0.000000 2.980630
vt 0.000000 0.000000
vt 0.382000 0.000000
vt 0.382000 2.980630
vt 1.921380 2.980630
vt 1.921380 0.000000
vt 2.032390 0.000000
vt 2.303380 0.000000
vt 2.303380 2.980630
vt 0.000000 3.725780
vt 0.000000 0.000000
vt 0.344960 0.000000
vt 0.344960 3.725780
vt 31.132450 3.725780
vt 31.132450 0.000000
vt 31.477421 0.000000
vt 31.477421 3.725780
vt 29.812090 56.631889
vt 29.812090 0.446880
vt 30.376060 56.631889
vt 30.376060 0.000000
vt 0.563970 27.415680
vt 0.000000 0.000000
vt 0.563970 0.446880
vt 3.057660 0.000000
vt 6.967850 0.000000
vt 3.642720 27.415680
vt 3.057660 29.061100
vt 0.000000 29.061100
vt 6.721470 54.384491
vt 6.721470 55.141579
vt 3.642720 54.384491
vt 3.057660 55.141579
vt 7.169620 0.000000
vt 0.000000 1.490310
vt 0.000000 0.000000
vt 7.363400 1.490310
vt 7.363400 0.000000
vt 0.000000 14.903130
vt 0.000000 0.000000
vt 0.632160 0.000000
vt 0.632160 14.903130
vt 2.171530 14.903130
vt 2.171530 0.000000
vt 2.803690 0.000000
vt 2.803690 14.903130
vt 1.904080 0.446880
vt 2.268790 25.335320
vt 1.904080 25.335320
vt 0.364710 0.446880
vt 2.268790 0.000000
vt 0.364710 25.335320
vt 0.000000 25.335320
vt 0.000000 0.000000
vt 0.000000 3.725780
vt 0.000000 0.000000
vt 0.735970 0.000000
vt 0.735970 3.725780
vt 2.275350 3.725780
vt 2.275350 0.000000
vt 2.625250 0.000000
vt 3.011320 0.000000
vt 3.011320 3.725780
vt 0.000000 14.903130
vt 0.000000 0.000000
vt 0.596430 0.000000
vt 0.596430 26.080481
vt 0.000000 26.080481
vt 8.293300 26.080481
vt 8.293300 0.000000
vt 8.889731 0.000000
vt 8.889731 26.080481
vt 12.675580 29.061100
vt 12.675580 0.446880
vt 13.036170 29.061100
vt 0.360590 0.446880
vt 2.024250 0.000000
vt 13.036170 0.000000
vt 0.360590 24.292061
vt 0.000000 0.000000
vt 1.899960 24.292061
vt 1.899960 25.335320
vt 0.000000 25.335320
vt 0.000000 14.903130
vt 0.000000 0.000000
vt 0.888380 0.000000
vt 0.888380 14.903130
vt 33.215240 14.903130
vt 33.215240 0.000000
vt 34.103611 0.000000
vt 34.103611 14.903130
vn -0.4736 -0.8808 0.0000
vn -0.4736 -0.8807 0.0000
vn -0.4735 -0.8808 0.0000
vn -0.4736 -0.8807 -0.0001
vn -0.4734 -0.8808 0.0000
vn -0.8739 0.4860 0.0000
vn -0.8739 0.4861 -0.0001
vn -0.8739 0.4861 0.0000
vn -0.8740 0.4859 0.0000
vn -0.8738 0.4864 -0.0000
vn -0.8925 0.4510 0.0000
vn -0.8926 0.4509 0.0000
vn -0.8926 0.4509 0.0001
vn -0.8926 0.4508 -0.0001
vn -0.4705 -0.8824 0.0000
vn -0.4707 -0.8823 0.0000
vn -0.4708 -0.8823 -0.0000
vn -0.4708 -0.8822 -0.0000
vn -0.4710 -0.8822 0.0000
vn -0.9892 -0.1463 0.0000
vn -0.9892 -0.1464 0.0000
vn -0.9892 -0.1465 0.0000
vn -0.4691 -0.8832 0.0000
vn -0.4691 -0.8831 0.0000
vn -0.4692 -0.8831 0.0000
vn -0.4704 -0.8824 0.0000
vn -0.4704 -0.8825 0.0000
vn -0.4703 -0.8825 0.0000
vn -0.8829 0.4696 0.0000
vn -0.8828 0.4697 0.0000
vn -0.9700 -0.2432 -0.0000
vn -0.9700 -0.2433 0.0000
vn -0.4805 -0.8770 0.0000
vn -0.4804 -0.8771 -0.0000
vn -0.4801 -0.8772 0.0000
vn -0.9739 -0.2270 0.0000
vn -0.9738 -0.2274 0.0000
vn -0.9738 -0.2275 0.0000
vn -0.4800 -0.8773 0.0000
vn -0.4795 -0.8775 0.0000
vn -0.4798 -0.8774 0.0000
vn 0.4723 0.8814 0.0000
vn 0.4723 0.8815 0.0000
vn 0.4724 0.8814 0.0000
vn 0.4724 0.8814 0.0004
vn 0.8813 -0.4726 0.0000
vn 0.8812 -0.4728 0.0000
vn 0.3152 -0.9490 0.0000
vn 0.3153 -0.9490 0.0000
vn 0.3154 -0.9489 0.0000
vn 0.2264 -0.9740 0.0000
vn 0.2261 -0.9741 -0.0001
vn 0.2263 -0.9741 0.0000
vn 0.2394 -0.9709 0.0000
vn 0.2393 -0.9709 0.0000
vn 0.2392 -0.9710 -0.0000
vn 0.2395 -0.9709 -0.0000
vn 0.8805 -0.4741 0.0000
vn 0.8804 -0.4741 0.0000
vn 0.8806 -0.4739 0.0000
vn 0.8804 -0.4742 0.0000
vn 0.8810 -0.4730 0.0000
vn 0.8810 -0.4731 -0.0002
vn 0.8810 -0.4731 0.0000
vn 0.8809 -0.4733 0.0000
vn 0.8810 -0.4731 0.0002
vn 0.8811 -0.4730 0.0001
vn 0.8809 -0.4734 0.0000
vn -0.8739 0.4861 -0.0003
vn -0.4702 -0.8826 0.0000
vn 0.4723 0.8814 -0.0001
s off
f 1/1/1 2/2/1 3/3/1
f 1/1/2 4/4/2 5/5/2
f 5/5/3 6/6/3 1/1/3
f 2/2/1 1/1/1 6/6/1
f 7/7/2 8/8/2 4/4/2
f 8/8/2 9/9/2 4/4/2
f 9/9/4 5/5/4 4/4/4
f 10/10/5 11/11/5 12/12/5
f 10/10/5 12/12/5 13/13/5
f 14/14/6 15/15/6 16/16/6
f 17/17/7 19/18/7 14/14/7
f 15/15/8 14/14/8 19/18/8
f 20/19/9 21/20/9 18/21/9
f 21/20/10 17/17/10 18/21/10
f 22/22/11 23/23/11 24/24/11
f 24/24/12 25/25/12 22/22/12
f 26/26/13 27/27/13 23/23/13
f 24/24/12 23/23/12 27/27/12
f 26/26/12 28/28/12 29/29/12
f 26/26/11 29/29/11 30/30/11
f 30/30/14 27/27/14 26/26/14
f 31/31/15 32/32/15 33/33/15
f 31/31/15 33/33/15 34/34/15
f 35/35/16 36/36/16 37/37/16
f 38/38/17 37/37/17 39/39/17
f 38/38/18 35/35/18 37/37/18
f 40/40/19 38/38/19 39/39/19
f 41/41/17 38/38/17 40/40/17
f 42/42/20 43/43/20 44/44/20
f 42/42/21 44/44/21 45/45/21
f 46/46/20 47/47/20 48/48/20
f 46/46/22 48/48/22 49/49/22
f 50/50/23 51/51/23 52/52/23
f 50/50/23 52/52/23 53/53/23
f 54/54/24 55/55/24 56/56/24
f 57/57/24 54/54/24 56/56/24
f 58/58/25 57/57/25 56/56/25
f 59/59/26 60/60/26 61/61/26
f 62/62/27 60/60/27 59/59/27
f 63/63/28 62/62/28 59/59/28
f 64/64/29 65/65/29 66/66/29
f 65/65/29 64/64/29 67/67/29
f 68/68/30 65/65/30 67/67/30
f 69/69/31 70/70/31 71/71/31
f 69/69/31 71/71/31 72/72/31
f 73/73/32 74/74/32 75/75/32
f 73/73/32 75/75/32 76/76/32
f 85/77/33 86/78/33 87/79/33
f 85/77/34 87/79/34 88/80/34
f 89/81/35 90/82/35 91/83/35
f 92/84/35 89/81/35 91/83/35
f 93/85/35 92/84/35 91/83/35
f 94/86/36 95/87/36 96/88/36
f 94/86/37 96/88/37 97/89/37
f 98/90/36 99/91/36 100/92/36
f 100/92/38 101/93/38 102/94/38
f 98/90/37 100/92/37 102/94/37
f 103/95/39 104/96/39 105/97/39
f 103/95/40 105/97/40 106/98/40
f 107/99/41 108/100/41 109/101/41
f 107/99/41 109/101/41 110/102/41
f 111/103/42 112/104/42 113/105/42
f 113/105/43 112/104/43 116/106/43
f 117/107/44 118/108/44 114/109/44
f 118/108/42 119/110/42 114/109/42
f 119/110/45 115/111/45 114/109/45
f 120/112/42 121/113/42 117/107/42
f 121/113/42 122/114/42 117/107/42
f 124/115/42 125/116/42 123/117/42
f 125/116/42 126/118/42 123/117/42
f 127/119/46 128/120/46 129/121/46
f 130/122/46 128/120/46 127/119/46
f 131/123/47 130/122/47 127/119/47
f 132/124/48 133/125/48 134/126/48
f 132/124/49 134/126/49 135/127/49
f 136/128/50 137/129/50 138/130/50
f 136/128/50 138/130/50 139/131/50
f 140/132/51 141/133/51 142/134/51
f 143/135/52 144/136/52 140/132/52
f 141/133/53 140/132/53 144/136/53
f 145/137/51 146/138/51 143/135/51
f 146/138/53 147/139/53 143/135/53
f 147/139/53 144/136/53 143/135/53
f 148/140/54 149/141/54 150/142/54
f 148/140/55 150/142/55 151/143/55
f 152/144/56 153/145/56 154/146/56
f 154/146/54 155/147/54 156/148/54
f 152/144/57 154/146/57 156/148/57
f 157/149/58 158/150/58 159/151/58
f 160/152/59 157/149/59 159/151/59
f 161/153/60 157/149/60 160/152/60
f 162/154/61 163/155/61 164/156/61
f 162/154/58 164/156/58 165/157/58
f 166/158/62 167/159/62 168/160/62
f 169/161/63 170/162/63 167/159/63
f 170/162/64 171/163/64 167/159/64
f 168/160/62 167/159/62 171/163/62
f 172/164/65 173/165/65 169/161/65
f 173/165/66 170/162/66 169/161/66
f 174/166/62 175/167/62 172/164/62
f 175/167/67 176/168/67 172/164/67
f 172/164/68 176/168/68 173/165/68
s 1
f 17/17/69 14/14/69 18/21/69
f 77/169/28 78/170/70 79/171/70
f 77/169/28 79/171/70 80/172/28
f 81/173/28 82/174/70 83/175/70
f 81/173/28 83/175/70 84/176/28
f 112/104/71 114/109/42 115/111/42
f 115/111/42 116/106/71 112/104/71
f 117/107/42 122/114/42 118/108/42
f 120/112/42 123/117/42 121/113/42
f 126/118/42 121/113/42 123/117/42
