# Blender v3.0.1 OBJ File: 'rockerfeller_plaza.blend'
# www.blender.org
o geometryt000010000010000110010110000110000100110010110110st160
v 208.416183 -326.435852 568.221863
v 209.909180 -327.212738 568.221863
v 209.909180 -327.212738 587.700562
v 208.416183 -326.435852 587.700562
v 210.768677 -327.660034 568.221863
v 212.261581 -328.436951 568.221863
v 212.261581 -328.436951 587.700562
v 210.768677 -327.660034 587.700562
v 213.121078 -328.884247 568.221863
v 214.614090 -329.661133 568.221863
v 214.614090 -329.661133 587.700562
v 213.121078 -328.884247 587.700562
v 209.051682 -324.480347 587.700562
v 209.051682 -324.480347 568.221863
v 208.270386 -325.970947 568.221863
v 208.270386 -325.970947 587.700562
v 210.491379 -321.733337 568.221863
v 209.710083 -323.224030 568.221863
v 209.710083 -323.224030 587.700562
v 210.491379 -321.733337 587.700562
v 211.931183 -318.986450 587.700562
v 211.931183 -318.986450 568.221863
v 211.149887 -320.477142 568.221863
v 211.149887 -320.477142 587.700562
v 214.216080 -314.612427 587.700562
v 214.216080 -314.612427 568.221863
v 213.435379 -316.103333 568.221863
v 213.435379 -316.103333 587.700562
v 214.475082 -317.596344 568.221863
v 213.692886 -319.086548 568.221863
v 213.692886 -319.086548 587.700562
v 214.475082 -317.596344 587.700562
v 215.081879 -329.511230 587.700562
v 215.081879 -329.511230 568.221863
v 216.642578 -326.529053 568.221863
v 216.642578 -326.529053 587.700562
v 217.261978 -325.345551 587.700562
v 217.261978 -325.345551 568.221863
v 218.822678 -322.363251 568.221863
v 218.822678 -322.363251 587.700562
v 219.442078 -321.179749 568.221863
v 221.783188 -316.706329 568.221863
v 221.783188 -316.706329 587.700562
v 219.442078 -321.179749 587.700562
v 222.402588 -315.522827 587.700562
v 222.402588 -315.522827 568.221863
v 223.963287 -312.540527 568.221863
v 223.963287 -312.540527 587.700562
v 224.582687 -311.357025 587.700562
v 224.582687 -311.357025 568.221863
v 226.143387 -308.374725 568.221863
v 226.143387 -308.374725 587.700562
v 216.476685 -310.294342 587.700562
v 216.476685 -310.294342 568.221863
v 215.695587 -311.785126 568.221863
v 215.695587 -311.785126 587.700562
v 217.904190 -307.569824 587.700562
v 217.904190 -307.569824 568.221863
v 217.123077 -309.060638 568.221863
v 217.123077 -309.060638 587.700562
v 219.331680 -304.845337 587.700562
v 219.331680 -304.845337 568.221863
v 218.550583 -306.336151 568.221863
v 218.550583 -306.336151 587.700562
v 216.801788 -313.145538 568.221863
v 216.024384 -314.623749 568.221863
v 216.024384 -314.623749 587.700562
v 216.801788 -313.145538 587.700562
v 221.292480 -305.472748 568.221863
v 219.798187 -304.698425 568.221863
v 219.798187 -304.698425 587.700562
v 221.292480 -305.472748 587.700562
v 223.644791 -306.691528 587.700562
v 223.644791 -306.691528 568.221863
v 222.150391 -305.917236 568.221863
v 222.150391 -305.917236 587.700562
v 225.997086 -307.910339 568.221863
v 224.502686 -307.136047 568.221863
v 224.502686 -307.136047 587.700562
v 225.997086 -307.910339 587.700562
vt 0.000000 0.000000
vt 0.166670 0.000000
vt 0.166670 1.000000
vt 0.000000 1.000000
vt 0.000000 0.000000
vt 0.166670 0.000000
vt 0.166670 1.000000
vt 0.000000 1.000000
vt 0.000000 1.000000
vt 0.000000 0.000000
vt 0.166670 0.000000
vt 0.166670 1.000000
vt 0.000000 0.000000
vt 0.166670 0.000000
vt 0.166670 1.000000
vt 0.000000 1.000000
vt 0.000000 1.000000
vt 0.000000 0.000000
vt 0.166670 0.000000
vt 0.166670 1.000000
vt 0.000000 1.000000
vt 0.000000 0.000000
vt 0.166670 0.000000
vt 0.166670 1.000000
vt 0.000000 0.000000
vt 0.166670 0.000000
vt 0.166670 1.000000
vt 0.000000 1.000000
vt 0.000000 1.000000
vt 0.000000 0.000000
vt 0.333330 0.000000
vt 0.333330 1.000000
vt 0.000000 1.000000
vt 0.000000 0.000000
vt 0.333330 0.000000
vt 0.333330 1.000000
vt 0.000000 0.000000
vt 0.500000 0.000000
vt 0.500000 1.000000
vt 0.000000 1.000000
vt 0.000000 1.000000
vt 0.000000 0.000000
vt 0.333330 0.000000
vt 0.333330 1.000000
vt 0.000000 1.000000
vt 0.000000 0.000000
vt 0.333330 0.000000
vt 0.333330 1.000000
vt 0.000000 1.000000
vt 0.000000 0.000000
vt 0.166670 0.000000
vt 0.166670 1.000000
vt 0.000000 1.000000
vt 0.000000 0.000000
vt 0.166670 0.000000
vt 0.166670 1.000000
vt 0.000000 1.000000
vt 0.000000 0.000000
vt 0.166670 0.000000
vt 0.166670 1.000000
vt 0.000000 0.000000
vt 0.166670 0.000000
vt 0.166670 1.000000
vt 0.000000 1.000000
vt 0.000000 0.000000
vt 0.166670 0.000000
vt 0.166670 1.000000
vt 0.000000 1.000000
vt 0.000000 1.000000
vt 0.000000 0.000000
vt 0.166670 0.000000
vt 0.166670 1.000000
vt 0.000000 0.000000
vt 0.166670 0.000000
vt 0.166670 1.000000
vt 0.000000 1.000000
vt 0.000000 0.000000
vt 0.166670 0.000000
vt 0.166670 1.000000
vt 0.000000 1.000000
vn -0.4616 -0.8871 0.0000
vn -0.8857 0.4642 0.0000
vn -0.8859 0.4639 0.0000
vn -0.8854 0.4648 0.0000
vn -0.8854 0.4647 0.0000
vn 0.8860 -0.4637 0.0000
vn -0.8858 0.4641 0.0000
vn -0.8851 0.4655 0.0000
vn 0.4601 0.8879 0.0000
vn 0.4600 0.8879 0.0000
s off
f 1/1/1 2/2/1 3/3/1
f 4/4/1 1/1/1 3/3/1
f 9/5/1 10/6/1 11/7/1
f 12/8/1 9/5/1 11/7/1
f 13/9/2 14/10/2 15/11/2
f 13/9/2 15/11/2 16/12/2
f 17/13/2 18/14/2 19/15/2
f 20/16/2 17/13/2 19/15/2
f 21/17/2 22/18/2 23/19/2
f 21/17/2 23/19/2 24/20/2
f 25/21/3 26/22/3 27/23/3
f 25/21/3 27/23/3 28/24/3
f 29/25/4 30/26/4 31/27/4
f 32/28/5 29/25/5 31/27/5
f 33/29/6 34/30/6 35/31/6
f 33/29/6 35/31/6 36/32/6
f 37/33/6 38/34/6 39/35/6
f 37/33/6 39/35/6 40/36/6
f 41/37/6 42/38/6 43/39/6
f 44/40/6 41/37/6 43/39/6
f 45/41/6 46/42/6 47/43/6
f 45/41/6 47/43/6 48/44/6
f 49/45/6 50/46/6 51/47/6
f 49/45/6 51/47/6 52/48/6
f 53/49/7 54/50/7 55/51/7
f 53/49/7 55/51/7 56/52/7
f 57/53/7 58/54/7 59/55/7
f 57/53/7 59/55/7 60/56/7
f 61/57/7 62/58/7 63/59/7
f 61/57/7 63/59/7 64/60/7
f 65/61/8 66/62/8 67/63/8
f 68/64/8 65/61/8 67/63/8
f 69/65/9 70/66/9 71/67/9
f 72/68/9 69/65/9 71/67/9
f 73/69/10 74/70/10 75/71/10
f 73/69/9 75/71/9 76/72/9
f 77/73/10 78/74/10 79/75/10
f 80/76/9 77/73/9 79/75/9
s 1
f 5/77/1 6/78/1 7/79/1
f 8/80/1 5/77/1 7/79/1
