# Blender v3.0.1 OBJ File: 'rockerfeller_plaza.blend'
# www.blender.org
o geometryt000010000010000110010110000110000110100000100110st128
v 663.094604 -276.083221 656.941956
v 665.722412 -271.200897 656.941956
v 692.594543 -285.709412 656.941956
v 689.958252 -290.591797 656.941956
v 663.094604 -276.083221 683.341919
v 689.958252 -290.591797 683.341919
v 692.594543 -285.709412 683.341919
v 665.722412 -271.200897 683.341919
vt 0.451620 0.315210
vt 0.441900 0.320620
vt 0.459760 0.374440
vt 0.469480 0.369010
vt 0.451620 0.315210
vt 0.469480 0.369010
vt 0.459760 0.374440
vt 0.441900 0.320620
vn 0.0000 0.0000 -1.0000
vn -0.0000 0.0000 1.0000
s off
f 1/1/1 2/2/1 3/3/1
f 1/1/1 3/3/1 4/4/1
f 5/5/2 6/6/2 7/7/2
f 8/8/2 5/5/2 7/7/2
