# Blender v3.0.1 OBJ File: 'rockerfeller_plaza.blend'
# www.blender.org
o geometryt000010000010000110010110000110000110100000100010st4_Pa
v 695.569580 -146.525955 382.885925
v 695.384583 -146.860855 412.155182
v 695.569580 -146.525955 412.155182
v 697.625122 -142.804657 382.155182
v 697.440063 -143.139557 382.885925
v 695.384583 -146.860855 382.155182
v 697.440063 -143.139557 412.155182
v 697.625122 -142.804657 412.155182
v 710.525085 -155.125961 382.885925
v 710.950867 -155.358459 412.155182
v 710.525085 -155.125961 412.155182
v 695.810364 -147.093353 382.885925
v 703.441284 -151.258957 382.155182
v 710.950867 -155.358459 382.155182
v 695.810364 -147.093353 412.155182
v 695.384583 -146.860855 412.155182
v 695.384583 -146.860855 382.155182
v 697.625122 -142.804657 412.155182
v 698.368591 -141.408249 382.155182
v 697.625122 -142.804657 382.155182
v 698.063110 -141.982056 412.155182
v 697.625122 -142.804657 455.155182
v 698.368591 -141.408249 455.155182
v 698.368591 -141.408249 412.155182
v 697.625122 -142.804657 455.155182
v 697.625122 -142.804657 412.155182
v 697.927856 -142.970047 412.155182
v 697.927856 -142.970047 455.155182
v 700.191406 -144.206253 455.155182
v 700.191406 -144.206253 412.155182
v 700.466980 -144.356750 412.155182
v 700.466980 -144.356750 455.155182
v 703.862305 -146.211151 455.155182
v 703.862305 -146.211151 412.155182
v 704.021484 -146.298050 412.155182
v 704.137817 -146.361649 412.155182
v 704.137817 -146.361649 455.155182
v 705.269592 -146.979752 455.155182
v 705.269592 -146.979752 412.155182
v 705.545166 -147.130249 412.155182
v 705.545166 -147.130249 455.155182
v 706.676880 -147.748352 455.155182
v 706.676880 -147.748352 412.155182
v 706.952515 -147.898849 412.155182
v 706.952515 -147.898849 455.155182
v 710.347778 -149.753159 455.155182
v 710.347778 -149.753159 412.155182
v 710.623291 -149.903656 412.155182
v 710.623291 -149.903656 455.155182
v 712.886902 -151.139954 455.155182
v 712.886902 -151.139954 412.155182
v 713.189697 -151.305252 412.155182
v 713.189697 -151.305252 455.155182
v 698.529053 -141.102753 455.155182
v 698.529053 -141.102753 382.885925
v 698.362366 -141.404755 412.155182
v 698.362366 -141.404755 455.155182
v 699.775879 -138.844955 382.885925
v 698.362366 -141.404755 382.155182
v 700.077515 -138.298859 455.155182
v 699.775879 -138.844955 455.155182
v 700.077515 -138.298859 382.885925
v 701.947571 -134.912247 382.885925
v 702.249207 -134.366058 455.155182
v 701.947571 -134.912247 455.155182
v 702.249207 -134.366058 382.885925
v 702.872559 -133.237259 382.885925
v 703.174194 -132.691055 455.155182
v 702.872559 -133.237259 455.155182
v 703.174194 -132.691055 382.885925
v 707.313782 -125.194656 382.155182
v 705.667664 -128.175552 382.885925
v 705.969299 -127.629456 455.155182
v 705.667664 -128.175552 455.155182
v 705.969299 -127.629456 382.885925
v 706.592651 -126.500557 382.885925
v 706.592651 -126.500557 455.155182
v 706.894165 -125.954453 409.511444
v 706.894165 -125.954453 382.885925
v 707.313782 -125.194656 455.155182
v 707.313782 -125.194656 412.155182
v 710.479492 -119.461853 412.155182
v 708.764404 -122.567757 409.511444
v 710.312683 -119.763855 409.511444
v 710.479492 -119.461853 382.155182
v 709.065979 -122.021652 409.511444
v 708.764404 -122.567757 382.885925
v 709.065979 -122.021652 382.885925
v 710.312683 -119.763855 382.885925
v 707.616577 -125.359955 455.155182
v 707.616577 -125.359955 412.155182
v 707.313782 -125.194656 412.155182
v 707.313782 -125.194656 455.155182
v 710.155701 -126.746758 455.155182
v 710.155701 -126.746758 412.155182
v 709.880066 -126.596252 412.155182
v 709.880066 -126.596252 455.155182
v 713.826477 -128.751556 455.155182
v 713.826477 -128.751556 412.155182
v 713.550964 -128.601059 412.155182
v 713.550964 -128.601059 455.155182
v 715.233765 -129.520157 455.155182
v 715.233765 -129.520157 412.155182
v 714.958252 -129.369659 412.155182
v 714.958252 -129.369659 455.155182
v 716.641113 -130.288757 455.155182
v 716.641113 -130.288757 412.155182
v 716.481873 -130.201859 412.155182
v 716.365601 -130.138260 412.155182
v 716.365601 -130.138260 455.155182
v 720.312012 -132.293655 455.155182
v 720.312012 -132.293655 412.155182
v 720.036377 -132.143158 412.155182
v 720.036377 -132.143158 455.155182
v 722.878296 -133.695251 455.155182
v 722.878296 -133.695251 412.155182
v 722.575500 -133.529861 412.155182
v 722.575500 -133.529861 455.155182
v 710.899414 -119.691452 382.885925
v 710.480164 -119.462257 412.155182
v 710.899414 -119.691452 412.155182
v 725.608704 -127.733856 382.885925
v 710.480164 -119.462257 382.155182
v 725.608704 -127.733856 412.155182
v 726.027893 -127.963051 412.155182
v 726.027893 -127.963051 382.155182
v 713.005859 -151.640854 382.885925
v 713.190491 -151.305756 412.155182
v 713.005859 -151.640854 412.155182
v 711.138977 -155.029251 382.885925
v 712.470398 -152.612656 382.155182
v 713.190491 -151.305756 382.155182
v 711.138977 -155.029251 412.155182
v 710.954407 -155.364349 412.155182
v 710.954407 -155.364349 382.155182
v 722.878296 -133.695251 412.155182
v 722.878296 -133.695251 455.155182
v 722.379883 -134.601852 455.155182
v 722.568298 -134.259155 410.990662
v 724.432007 -130.868958 410.990662
v 726.029053 -127.963753 412.155182
v 722.379883 -134.601852 382.885925
v 722.878296 -133.695251 382.155182
v 721.758667 -135.731949 382.885925
v 722.568298 -134.259155 382.885925
v 721.570312 -136.074661 455.155182
v 721.758667 -135.731949 455.155182
v 721.570312 -136.074661 382.885925
v 719.706604 -139.464859 382.885925
v 719.518188 -139.807556 455.155182
v 719.706604 -139.464859 455.155182
v 719.518188 -139.807556 382.885925
v 717.654480 -143.197754 382.885925
v 717.466064 -143.540451 455.155182
v 717.654480 -143.197754 455.155182
v 717.466064 -143.540451 382.885925
v 713.195801 -151.308655 382.155182
v 716.844849 -144.670547 382.885925
v 716.656494 -145.013260 455.155182
v 716.844849 -144.670547 455.155182
v 716.656494 -145.013260 382.885925
v 714.792786 -148.403458 382.885925
v 714.604370 -148.746155 455.155182
v 714.792786 -148.403458 455.155182
v 714.604370 -148.746155 382.885925
v 713.362000 -151.006348 382.885925
v 713.362000 -151.006348 455.155182
v 713.195801 -151.308655 412.155182
v 713.195801 -151.308655 455.155182
v 726.029053 -127.963753 382.155182
v 724.432007 -130.868958 382.885925
v 725.862915 -128.266052 410.990662
v 725.862915 -128.266052 382.885925
v 724.620361 -130.526154 382.885925
v 724.620361 -130.526154 410.990662
vt 1.700510 0.287810
vt 1.853550 11.815680
vt 1.700510 11.815680
vt 0.000000 0.000000
vt 0.153030 0.287810
vt 1.853550 0.000000
vt 0.153030 11.815680
vt 0.000000 11.815680
vt 6.899790 0.287810
vt 7.093840 11.815680
vt 6.899790 11.815680
vt 0.194050 0.287810
vt 3.671570 0.000000
vt 7.093840 0.000000
vt 0.194050 11.815680
vt 0.000000 11.815680
vt 0.000000 0.000000
vt 0.632820 11.815680
vt 0.000000 0.000000
vt 0.632820 0.000000
vt 0.260060 11.815680
vt 0.632820 28.751480
vt 0.000000 28.751480
vt 0.000000 11.815680
vt 0.000000 16.935801
vt 0.000000 0.000000
vt 0.138000 0.000000
vt 0.138000 16.935801
vt 1.169650 16.935801
vt 1.169650 0.000000
vt 1.295240 0.000000
vt 1.295240 16.935801
vt 2.842710 16.935801
vt 2.915280 0.000000
vt 2.968300 16.935801
vt 3.484130 16.935801
vt 3.484130 0.000000
vt 3.609710 0.000000
vt 3.609710 16.935801
vt 4.125540 16.935801
vt 4.125540 0.000000
vt 4.251120 0.000000
vt 4.251120 16.935801
vt 5.798600 16.935801
vt 5.798600 0.000000
vt 5.924180 0.000000
vt 5.924180 16.935801
vt 6.955840 16.935801
vt 6.955840 0.000000
vt 7.093840 0.000000
vt 7.093840 16.935801
vt 9.888490 28.751480
vt 9.888490 0.287810
vt 10.026490 11.815680
vt 10.026490 28.751480
vt 8.856841 0.287810
vt 10.026490 0.000000
vt 8.607291 28.751480
vt 8.856841 28.751480
vt 8.607291 0.287810
vt 7.059820 0.287810
vt 6.810270 28.751480
vt 7.059820 28.751480
vt 6.810270 0.287810
vt 6.294440 0.287810
vt 6.044900 28.751480
vt 6.294440 28.751480
vt 6.044900 0.287810
vt 2.619500 0.000000
vt 3.981590 0.287810
vt 3.732050 28.751480
vt 3.981590 28.751480
vt 3.732050 0.287810
vt 3.216220 0.287810
vt 3.216220 28.751480
vt 2.966680 10.774420
vt 2.966680 0.287810
vt 2.619500 28.751480
vt 2.619500 11.815680
vt 0.000000 11.815680
vt 1.419200 10.774420
vt 0.138000 10.774420
vt 0.000000 0.000000
vt 1.169650 10.774420
vt 1.419200 0.287810
vt 1.169650 0.287810
vt 0.138000 0.287810
vt 6.955820 16.935801
vt 6.955820 0.000000
vt 7.093820 0.000000
vt 7.093820 16.935801
vt 5.798590 16.935801
vt 5.798590 0.000000
vt 5.924170 0.000000
vt 5.924170 16.935801
vt 4.125530 16.935801
vt 4.125530 0.000000
vt 4.251110 0.000000
vt 4.251110 16.935801
vt 3.484120 16.935801
vt 3.484120 0.000000
vt 3.609700 0.000000
vt 3.609700 16.935801
vt 2.842710 16.935801
vt 2.842710 0.000000
vt 2.915270 0.000000
vt 2.968290 16.935801
vt 1.169650 16.935801
vt 1.169650 0.000000
vt 1.295230 0.000000
vt 1.295230 16.935801
vt 0.000000 16.935801
vt 0.000000 0.000000
vt 0.138000 0.000000
vt 0.138000 16.935801
vt 6.896830 0.287810
vt 7.087930 11.815680
vt 6.896830 11.815680
vt 0.191100 0.287810
vt 7.087930 0.000000
vt 0.191100 11.815680
vt 0.000000 11.815680
vt 0.000000 0.000000
vt 1.700510 0.287810
vt 1.853550 11.815680
vt 1.700510 11.815680
vt 0.153030 0.287810
vt 1.256700 0.000000
vt 1.853550 0.000000
vt 0.153030 11.815680
vt 0.000000 11.815680
vt 0.000000 0.000000
vt 8.039740 11.815680
vt 8.039740 28.751480
vt 7.625920 28.751480
vt 7.782350 11.357010
vt 9.329831 11.357010
vt 10.655920 11.815680
vt 7.625920 0.287810
vt 8.039740 0.000000
vt 7.110090 0.287810
vt 7.782350 0.287810
vt 6.953650 28.751480
vt 7.110090 28.751480
vt 6.953650 0.287810
vt 5.406180 0.287810
vt 5.249740 28.751480
vt 5.406180 28.751480
vt 5.249740 0.287810
vt 3.702260 0.287810
vt 3.545830 28.751480
vt 3.702260 28.751480
vt 3.545830 0.287810
vt 0.000000 0.000000
vt 3.030000 0.287810
vt 2.873570 28.751480
vt 3.030000 28.751480
vt 2.873570 0.287810
vt 1.326090 0.287810
vt 1.169650 28.751480
vt 1.326090 28.751480
vt 1.169650 0.287810
vt 0.138000 0.287810
vt 0.138000 28.751480
vt 0.000000 11.815680
vt 0.000000 28.751480
vt 10.655920 0.000000
vt 9.329831 0.287810
vt 10.517920 11.357010
vt 10.517920 0.287810
vt 9.486270 0.287810
vt 9.486270 11.357010
vt 2.842710 0.000000
vt 2.968300 0.000000
vt 2.968290 0.000000
vn -0.8752 0.4837 0.0000
vn -0.8753 0.4835 -0.0001
vn -0.8753 0.4835 0.0000
vn -0.8754 0.4834 0.0000
vn -0.8754 0.4835 0.0000
vn -0.8752 0.4838 0.0000
vn -0.4793 -0.8777 0.0000
vn -0.4791 -0.8777 -0.0000
vn -0.4792 -0.8777 0.0001
vn -0.4792 -0.8777 0.0000
vn -0.4791 -0.8777 -0.0001
vn -0.8827 0.4699 0.0000
vn -0.8827 0.4700 0.0000
vn -0.8826 0.4701 0.0000
vn -0.4795 -0.8775 0.0000
vn -0.4794 -0.8776 0.0000
vn -0.4791 -0.8778 0.0000
vn -0.8756 0.4830 0.0000
vn -0.8754 0.4834 -0.0001
vn -0.8753 0.4836 0.0000
vn -0.8752 0.4838 -0.0001
vn -0.8754 0.4834 0.0001
vn -0.8755 0.4833 -0.0001
vn -0.8754 0.4834 0.0005
vn -0.8755 0.4833 0.0007
vn -0.8754 0.4833 0.0000
vn -0.8754 0.4834 -0.0002
vn -0.8755 0.4832 0.0000
vn -0.8754 0.4835 0.0001
vn 0.4792 0.8777 0.0000
vn 0.4794 0.8776 -0.0000
vn 0.4793 0.8777 0.0000
vn 0.4797 0.8774 0.0000
vn 0.4796 0.8775 0.0000
vn 0.8759 -0.4825 0.0000
vn 0.8758 -0.4826 -0.0001
vn 0.8758 -0.4826 0.0000
vn 0.8759 -0.4824 0.0000
vn 0.8763 -0.4818 0.0000
vn 0.8763 -0.4817 0.0000
vn 0.8762 -0.4820 0.0000
vn 0.8764 -0.4815 -0.0000
vn 0.8764 -0.4816 0.0000
vn 0.8763 -0.4817 0.0003
vn 0.8763 -0.4818 -0.0001
vn 0.8763 -0.4817 -0.0002
vn 0.8763 -0.4817 0.0001
vn 0.8760 -0.4823 -0.0012
vn 0.8763 -0.4818 0.0001
vn 0.8766 -0.4813 0.0003
vn 0.8762 -0.4819 0.0000
vn 0.8764 -0.4817 0.0000
vn 0.8766 -0.4812 0.0009
vn 0.8763 -0.4818 -0.0005
vn -0.4790 -0.8778 0.0000
vn 0.4798 0.8774 0.0000
s off
f 1/1/1 2/2/1 3/3/1
f 4/4/2 1/1/2 5/5/2
f 4/4/3 6/6/3 1/1/3
f 2/2/4 1/1/4 6/6/4
f 7/7/5 8/8/5 5/5/5
f 8/8/6 4/4/6 5/5/6
f 9/9/7 10/10/7 11/11/7
f 9/9/8 12/12/8 13/13/8
f 13/13/9 14/14/9 9/9/9
f 10/10/10 9/9/10 14/14/10
f 15/15/7 16/16/7 12/12/7
f 16/16/10 17/17/10 12/12/10
f 17/17/11 13/13/11 12/12/11
f 18/18/12 19/19/12 20/20/12
f 21/21/12 18/18/12 22/22/12
f 19/19/13 18/18/13 21/21/13
f 21/21/13 22/22/13 23/23/13
f 19/19/14 21/21/14 24/24/14
f 24/24/13 21/21/13 23/23/13
f 25/25/15 26/26/15 27/27/15
f 25/25/16 27/27/16 28/28/16
f 29/29/10 30/30/10 31/31/10
f 29/29/16 31/31/16 32/32/16
f 33/33/16 35/34/16 37/35/16
f 38/36/16 39/37/16 40/38/16
f 38/36/10 40/38/10 41/39/10
f 42/40/10 43/41/10 44/42/10
f 42/40/8 44/42/8 45/43/8
f 46/44/16 47/45/16 48/46/16
f 46/44/15 48/46/15 49/47/15
f 50/48/17 51/49/17 52/50/17
f 50/48/7 52/50/7 53/51/7
f 54/52/4 55/53/4 56/54/4
f 56/54/18 57/55/18 54/52/18
f 58/56/19 59/57/19 55/53/19
f 56/54/4 55/53/4 59/57/4
f 60/58/20 58/56/20 61/59/20
f 60/58/5 62/60/5 58/56/5
f 58/56/21 62/60/21 59/57/21
f 62/60/22 63/61/22 59/57/22
f 64/62/4 63/61/4 65/63/4
f 64/62/4 66/64/4 63/61/4
f 59/57/23 63/61/23 66/64/23
f 59/57/24 66/64/24 67/65/24
f 68/66/4 67/65/4 69/67/4
f 68/66/4 70/68/4 67/65/4
f 67/65/25 70/68/25 71/69/25
f 59/57/4 67/65/4 71/69/4
f 70/68/19 72/70/19 71/69/19
f 73/71/5 72/70/5 74/72/5
f 73/71/5 75/73/5 72/70/5
f 72/70/3 75/73/3 71/69/3
f 75/73/4 76/74/4 71/69/4
f 76/74/26 77/75/26 78/76/26
f 78/76/26 79/77/26 76/74/26
f 76/74/27 79/77/27 71/69/27
f 77/75/26 80/78/26 81/79/26
f 78/76/20 77/75/20 81/79/20
f 82/80/4 83/81/4 81/79/4
f 83/81/4 78/76/4 81/79/4
f 84/82/28 82/80/28 85/83/28
f 86/84/4 82/80/4 84/82/4
f 83/81/26 82/80/26 86/84/26
f 87/85/4 85/83/4 71/69/4
f 88/86/29 85/83/29 87/85/29
f 89/87/4 85/83/4 88/86/4
f 89/87/6 84/82/6 85/83/6
f 79/77/4 87/85/4 71/69/4
f 88/86/3 87/85/3 86/84/3
f 86/84/26 87/85/26 83/81/26
f 90/88/30 91/89/30 92/90/30
f 90/88/31 92/90/31 93/91/31
f 94/92/32 95/93/32 96/94/32
f 94/92/32 96/94/32 97/95/32
f 98/96/31 99/97/31 100/98/31
f 98/96/31 100/98/31 101/99/31
f 102/100/31 103/101/31 104/102/31
f 102/100/31 104/102/31 105/103/31
f 106/104/32 107/105/32 108/106/32
f 106/104/30 108/106/30 110/107/30
f 111/108/30 112/109/30 113/110/30
f 111/108/30 113/110/30 114/111/30
f 115/112/31 116/113/31 117/114/31
f 115/112/32 117/114/32 118/115/32
f 119/116/33 120/117/33 121/118/33
f 122/119/33 123/120/33 119/116/33
f 120/117/34 119/116/34 123/120/34
f 124/121/33 125/122/33 122/119/33
f 126/123/33 123/120/33 122/119/33
f 127/124/35 128/125/35 129/126/35
f 130/127/36 131/128/36 127/124/36
f 131/128/35 132/129/35 127/124/35
f 128/125/37 127/124/37 132/129/37
f 133/130/35 134/131/35 130/127/35
f 134/131/38 135/132/38 130/127/38
f 135/132/35 131/128/35 130/127/35
f 136/133/39 137/134/39 138/135/39
f 138/135/40 139/136/40 136/133/40
f 140/137/40 136/133/40 139/136/40
f 141/138/40 136/133/40 140/137/40
f 138/135/41 142/139/41 139/136/41
f 143/140/40 142/139/40 144/141/40
f 143/140/42 145/142/42 142/139/42
f 145/142/43 139/136/43 142/139/43
f 146/143/43 144/141/43 147/144/43
f 146/143/43 148/145/43 144/141/43
f 148/145/44 143/140/44 144/141/44
f 149/146/45 143/140/45 148/145/45
f 150/147/43 149/146/43 151/148/43
f 150/147/41 152/149/41 149/146/41
f 152/149/46 143/140/46 149/146/46
f 153/150/39 143/140/39 152/149/39
f 154/151/43 153/150/43 155/152/43
f 154/151/41 156/153/41 153/150/41
f 157/154/47 143/140/47 153/150/47
f 157/154/39 156/153/39 158/155/39
f 159/156/43 158/155/43 160/157/43
f 159/156/39 161/158/39 158/155/39
f 157/154/48 158/155/48 161/158/48
f 157/154/49 161/158/49 162/159/49
f 163/160/43 162/159/43 164/161/43
f 163/160/41 165/162/41 162/159/41
f 157/154/50 162/159/50 165/162/50
f 157/154/40 165/162/40 166/163/40
f 166/163/42 167/164/42 168/165/42
f 157/154/51 166/163/51 168/165/51
f 167/164/51 169/166/51 168/165/51
f 143/140/39 170/167/39 171/168/39
f 143/140/39 171/168/39 145/142/39
f 170/167/52 141/138/52 172/169/52
f 170/167/42 172/169/42 173/170/42
f 174/171/45 170/167/45 173/170/45
f 171/168/53 170/167/53 174/171/53
f 175/172/54 141/138/54 140/137/54
f 172/169/40 141/138/40 175/172/40
f 174/171/42 175/172/42 140/137/42
f 171/168/42 174/171/42 140/137/42
s 1
f 33/33/55 34/173/55 35/34/55
f 35/34/16 36/174/16 37/35/16
f 108/106/33 109/175/33 110/107/33
f 125/122/56 126/123/56 122/119/56
f 157/154/42 153/150/42 156/153/42
