# Blender v3.0.1 OBJ File: 'rockerfeller_plaza.blend'
# www.blender.org
o geometryt000010000010000110010110000110000110100000010100st179
v 795.404846 -306.379578 174.624725
v 795.404846 -306.379578 151.301651
v 796.742004 -307.156769 151.301651
v 796.742004 -307.156769 174.624725
v 797.939758 -307.852966 174.624725
v 797.939758 -307.852966 151.301651
v 799.276917 -308.630066 151.301651
v 799.276917 -308.630066 174.624725
v 800.474670 -309.326263 174.624725
v 800.474670 -309.326263 151.301651
v 801.811829 -310.103455 151.301651
v 801.811829 -310.103455 174.624725
v 796.882141 -302.869080 151.301651
v 795.429260 -305.599762 151.301651
v 795.429260 -305.599762 174.624725
v 796.882141 -302.869080 174.624725
v 800.401184 -303.960480 174.624725
v 800.401184 -303.960480 151.301651
v 797.669495 -302.509460 151.301651
v 797.669495 -302.509460 174.624725
v 802.479309 -301.171173 174.624725
v 802.479309 -301.171173 151.301651
v 801.027771 -303.902557 151.301651
v 801.027771 -303.902557 174.624725
v 804.829895 -296.748077 151.301651
v 803.378357 -299.479462 151.301651
v 803.378357 -299.479462 174.624725
v 804.829895 -296.748077 174.624725
v 807.906189 -290.959259 151.301651
v 805.728882 -295.056366 151.301651
v 805.728882 -295.056366 174.624725
v 807.906189 -290.959259 174.624725
v 810.256714 -286.536163 151.301651
v 808.805176 -289.267578 151.301651
v 808.805176 -289.267578 174.624725
v 810.256714 -286.536163 174.624725
v 812.607300 -282.113068 151.301651
v 811.155762 -284.844482 151.301651
v 811.155762 -284.844482 174.624725
v 812.607300 -282.113068 174.624725
v 802.414612 -310.438965 151.301651
v 805.144714 -311.892975 151.301651
v 805.144714 -311.892975 174.624725
v 802.414612 -310.438965 174.624725
v 806.241882 -312.477264 174.624725
v 806.241882 -312.477264 151.301651
v 808.972046 -313.931274 151.301651
v 808.972046 -313.931274 174.624725
v 810.069214 -314.515564 174.624725
v 810.069214 -314.515564 151.301651
v 814.164368 -316.696564 151.301651
v 814.164368 -316.696564 174.624725
v 815.261597 -317.280884 151.301651
v 816.626648 -318.007874 151.301651
v 816.626648 -318.007874 174.624725
v 815.261597 -317.280884 174.624725
v 817.723816 -318.592255 174.624725
v 817.723816 -318.592255 151.301651
v 819.088867 -319.319183 151.301651
v 819.088867 -319.319183 174.624725
v 820.186096 -319.903564 174.624725
v 820.186096 -319.903564 151.301651
v 824.281250 -322.084564 151.301651
v 824.281250 -322.084564 174.624725
v 825.378479 -322.668884 174.624725
v 825.378479 -322.668884 151.301651
v 828.108582 -324.122864 151.301651
v 828.108582 -324.122864 174.624725
v 829.205750 -324.707184 151.301651
v 831.935852 -326.161163 151.301651
v 831.935852 -326.161163 174.624725
v 829.205750 -324.707184 174.624725
v 815.805298 -283.421783 174.624725
v 815.805298 -283.421783 151.301651
v 813.073853 -281.970276 151.301651
v 813.073853 -281.970276 174.624725
v 819.420654 -285.342957 174.624725
v 819.420654 -285.342957 151.301651
v 816.689209 -283.891479 151.301651
v 816.689209 -283.891479 174.624725
v 824.401733 -287.989960 174.624725
v 824.401733 -287.989960 151.301651
v 820.304626 -285.812775 151.301651
v 820.304626 -285.812775 174.624725
v 828.017151 -289.911163 174.624725
v 828.017151 -289.911163 151.301651
v 825.285706 -288.459656 151.301651
v 825.285706 -288.459656 174.624725
v 830.266785 -291.106659 174.624725
v 830.266785 -291.106659 151.301651
v 828.901062 -290.380859 151.301651
v 828.901062 -290.380859 174.624725
v 833.882202 -293.027863 174.624725
v 833.882202 -293.027863 151.301651
v 831.150757 -291.576355 151.301651
v 831.150757 -291.576355 174.624725
v 838.863281 -295.674866 174.624725
v 838.863281 -295.674866 151.301651
v 834.766113 -293.497681 151.301651
v 834.766113 -293.497681 174.624725
v 842.478638 -297.596069 151.301651
v 839.747253 -296.144562 151.301651
v 839.747253 -296.144562 174.624725
v 842.478638 -297.596069 174.624725
v 846.093994 -299.517273 174.624725
v 846.093994 -299.517273 151.301651
v 843.362610 -298.065857 151.301651
v 843.362610 -298.065857 174.624725
v 816.494812 -304.894073 174.624725
v 822.907776 -292.930664 184.624725
v 822.907776 -292.930664 174.624725
v 815.696777 -306.382874 174.624725
v 814.139648 -309.287659 184.624725
v 814.139648 -309.287659 174.624725
v 814.305420 -310.214783 174.624725
v 814.126526 -310.119781 184.624725
v 814.126526 -310.119781 174.624725
v 828.903687 -317.972076 174.624725
v 834.612427 -321.005676 174.624725
v 834.612427 -321.005676 184.624725
v 844.075500 -303.344269 184.624725
v 844.075500 -303.344269 174.624725
v 829.301025 -295.490173 174.624725
v 823.591431 -292.454865 184.624725
v 823.591431 -292.454865 174.624725
v 832.401245 -326.018158 151.301651
v 833.122498 -324.650055 151.301651
v 833.122498 -324.650055 174.624725
v 832.401245 -326.018158 174.624725
v 834.067200 -322.857971 151.301651
v 834.788452 -321.489868 151.301651
v 834.788452 -321.489868 174.624725
v 834.067200 -322.857971 174.624725
v 840.896118 -310.078674 184.624725
v 835.298157 -320.533264 151.301651
v 844.058777 -304.172272 151.301651
v 835.298157 -320.533264 184.624725
v 844.058777 -304.172272 184.624725
v 844.692749 -302.973755 174.624725
v 844.692749 -302.973755 151.301651
v 846.114990 -300.227081 151.301651
v 846.114990 -300.227081 174.624725
vt 0.000000 7.000000
vt 0.000000 0.000000
vt 0.333330 0.000000
vt 0.333330 7.000000
vt 0.000000 7.000000
vt 0.000000 0.000000
vt 0.333330 0.000000
vt 0.333330 7.000000
vt 0.000000 7.000000
vt 0.000000 0.000000
vt 0.333330 0.000000
vt 0.333330 7.000000
vt 0.000000 0.000000
vt 0.666670 0.000000
vt 0.666670 7.000000
vt 0.000000 7.000000
vt 0.000000 7.000000
vt 0.000000 0.000000
vt 0.666670 0.000000
vt 0.666670 7.000000
vt 0.000000 7.000000
vt 0.000000 0.000000
vt 0.666670 0.000000
vt 0.666670 7.000000
vt 0.000000 0.000000
vt 0.666670 0.000000
vt 0.666670 7.000000
vt 0.000000 7.000000
vt 0.000000 0.000000
vt 0.666670 0.000000
vt 0.666670 7.000000
vt 0.000000 7.000000
vt 0.000000 0.000000
vt 0.666670 0.000000
vt 0.666670 7.000000
vt 0.000000 7.000000
vt 0.000000 7.000000
vt 0.000000 0.000000
vt 0.666670 0.000000
vt 0.666670 7.000000
vt 0.000000 7.000000
vt 0.000000 0.000000
vt 1.000000 0.000000
vt 1.000000 7.000000
vt 0.000000 0.000000
vt 0.333330 0.000000
vt 0.333330 7.000000
vt 0.000000 7.000000
vt 0.000000 7.000000
vt 0.000000 0.000000
vt 0.333330 0.000000
vt 0.333330 7.000000
vt 0.000000 7.000000
vt 0.000000 0.000000
vt 1.000000 0.000000
vt 1.000000 7.000000
vt 0.000000 7.000000
vt 0.000000 0.000000
vt 0.666670 0.000000
vt 0.666670 7.000000
vt 0.000000 0.000000
vt 0.666670 0.000000
vt 0.666670 7.000000
vt 0.000000 7.000000
vt 0.000000 7.000000
vt 0.000000 0.000000
vt 0.666670 0.000000
vt 0.666670 7.000000
vt 0.000000 7.000000
vt 0.000000 0.000000
vt 0.666670 0.000000
vt 0.666670 7.000000
vt 0.000000 7.000000
vt 0.000000 0.000000
vt 1.000000 0.000000
vt 1.000000 7.000000
vt 0.000000 7.000000
vt 0.000000 0.000000
vt 0.666670 0.000000
vt 0.666670 7.000000
vt 0.000000 7.000000
vt 0.000000 0.000000
vt 0.333330 0.000000
vt 0.333330 7.000000
vt 0.000000 7.000000
vt 0.000000 0.000000
vt 0.666670 0.000000
vt 0.666670 7.000000
vt 0.000000 7.000000
vt 0.000000 0.000000
vt 1.000000 0.000000
vt 1.000000 7.000000
vt 0.000000 0.000000
vt 0.666670 0.000000
vt 0.666670 7.000000
vt 0.000000 7.000000
vt 0.000000 7.000000
vt 0.000000 0.000000
vt 0.666670 0.000000
vt 0.666670 7.000000
vt 2.925590 0.000000
vt 0.000000 3.000000
vt 0.000000 0.000000
vt 3.289650 0.000000
vt 4.000000 3.000000
vt 4.000000 0.000000
vt 3.606670 0.000000
vt 0.000000 3.000000
vt 0.043660 0.000000
vt 5.000000 0.000000
vt 5.000000 3.000000
vt 0.000000 3.000000
vt 0.000000 0.000000
vt 3.606330 0.000000
vt 5.000000 3.000000
vt 5.000000 0.000000
vt 0.000000 0.000000
vt 0.333330 0.000000
vt 0.333330 7.000000
vt 0.000000 7.000000
vt 0.000000 0.000000
vt 0.333330 0.000000
vt 0.333330 7.000000
vt 0.000000 7.000000
vt 2.555970 9.000000
vt 0.000000 0.000000
vt 4.000000 0.000000
vt 0.000000 9.000000
vt 4.000000 9.000000
vt 0.000000 7.000000
vt 0.000000 0.000000
vt 0.666670 0.000000
vt 0.666670 7.000000
vt 0.000000 0.000000
vt 1.000000 0.000000
vt 1.000000 7.000000
vt 0.000000 7.000000
vt 0.000000 0.000000
vt 0.666670 0.000000
vt 0.666670 7.000000
vt 0.000000 7.000000
vt 0.000000 0.000000
vn -0.5025 -0.8645 0.0000
vn -0.5025 -0.8646 0.0000
vn -0.8828 0.4697 0.0000
vn 0.4691 0.8831 0.0000
vn -0.8830 0.4693 0.0000
vn -0.8831 0.4692 0.0000
vn -0.4701 -0.8826 0.0000
vn -0.4700 -0.8826 0.0000
vn 0.4693 0.8831 0.0000
vn 0.4692 0.8831 0.0000
vn 0.4693 0.8830 0.0000
vn -0.8814 0.4725 0.0000
vn -0.8813 0.4725 -0.0000
vn -0.8814 0.4724 0.0000
vn -0.4692 -0.8831 -0.0000
vn -0.4693 -0.8831 0.0000
vn 0.4694 0.8830 0.0000
vn 0.8846 -0.4664 0.0000
vn 0.8846 -0.4663 0.0000
vn 0.8816 -0.4720 0.0000
vn 0.8816 -0.4721 0.0000
vn 0.8880 -0.4598 0.0000
vn -0.8831 0.4693 0.0000
vn -0.4696 -0.8829 -0.0000
s off
f 1/1/1 2/2/1 3/3/1
f 1/1/2 3/3/2 4/4/2
f 5/5/2 6/6/2 7/7/2
f 5/5/2 7/7/2 8/8/2
f 9/9/2 10/10/2 11/11/2
f 9/9/2 11/11/2 12/12/2
f 13/13/3 14/14/3 15/15/3
f 16/16/3 13/13/3 15/15/3
f 17/17/4 18/18/4 19/19/4
f 17/17/4 19/19/4 20/20/4
f 21/21/5 22/22/5 23/23/5
f 21/21/5 23/23/5 24/24/5
f 25/25/6 26/26/6 27/27/6
f 28/28/5 25/25/5 27/27/5
f 37/29/5 38/30/5 39/31/5
f 40/32/6 37/29/6 39/31/6
f 41/33/7 42/34/7 43/35/7
f 44/36/7 41/33/7 43/35/7
f 45/37/7 46/38/7 47/39/7
f 45/37/7 47/39/7 48/40/7
f 49/41/7 50/42/7 51/43/7
f 49/41/7 51/43/7 52/44/7
f 53/45/8 54/46/8 55/47/8
f 56/48/7 53/45/7 55/47/7
f 57/49/8 58/50/8 59/51/8
f 57/49/8 59/51/8 60/52/8
f 61/53/7 62/54/7 63/55/7
f 61/53/7 63/55/7 64/56/7
f 65/57/7 66/58/7 67/59/7
f 65/57/7 67/59/7 68/60/7
f 69/61/7 70/62/7 71/63/7
f 72/64/7 69/61/7 71/63/7
f 73/65/9 74/66/9 75/67/9
f 73/65/9 75/67/9 76/68/9
f 77/69/9 78/70/9 79/71/9
f 77/69/10 79/71/10 80/72/10
f 81/73/9 82/74/9 83/75/9
f 81/73/9 83/75/9 84/76/9
f 85/77/9 86/78/9 87/79/9
f 85/77/9 87/79/9 88/80/9
f 89/81/11 90/82/11 91/83/11
f 89/81/11 91/83/11 92/84/11
f 93/85/9 94/86/9 95/87/9
f 93/85/9 95/87/9 96/88/9
f 97/89/9 98/90/9 99/91/9
f 97/89/10 99/91/10 100/92/10
f 101/93/9 102/94/9 103/95/9
f 104/96/9 101/93/9 103/95/9
f 105/97/10 106/98/10 107/99/10
f 105/97/9 107/99/9 108/100/9
f 109/101/12 110/102/12 111/103/12
f 112/104/13 113/105/13 109/101/13
f 110/102/14 109/101/14 113/105/14
f 114/106/12 113/105/12 112/104/12
f 118/107/15 116/108/15 115/109/15
f 119/110/16 120/111/16 118/107/16
f 120/111/16 116/108/16 118/107/16
f 121/112/17 122/113/17 123/114/17
f 124/115/17 123/114/17 125/116/17
f 124/115/17 121/112/17 123/114/17
f 126/117/18 127/118/18 128/119/18
f 129/120/19 126/117/19 128/119/19
f 130/121/19 131/122/19 132/123/19
f 133/124/18 130/121/18 132/123/18
f 134/125/20 135/126/20 136/127/20
f 137/128/20 135/126/20 134/125/20
f 134/125/21 136/127/21 138/129/21
f 139/130/22 140/131/22 141/132/22
f 139/130/22 141/132/22 142/133/22
s 1
f 29/134/23 30/135/23 31/136/23
f 32/137/23 29/134/23 31/136/23
f 33/138/5 34/139/5 35/140/5
f 36/141/5 33/138/5 35/140/5
f 115/109/24 116/108/24 117/142/24
