# Blender v3.0.1 OBJ File: 'rockerfeller_plaza.blend'
# www.blender.org
o geometryt000010000010000110010110000110000110100000010110st120
v 1186.365723 -293.855469 189.105377
v 1185.587891 -295.327576 189.105377
v 1185.587891 -295.327576 257.578583
v 1186.365723 -293.855469 257.578583
v 1187.334473 -292.022278 189.105377
v 1186.556641 -293.494263 189.105377
v 1186.556641 -293.494263 257.578583
v 1187.334473 -292.022278 257.578583
v 1188.303223 -290.188965 257.578583
v 1188.303223 -290.188965 189.105377
v 1187.525391 -291.661072 189.105377
v 1187.525391 -291.661072 257.578583
v 1189.271973 -288.355682 257.578583
v 1189.271973 -288.355682 189.105377
v 1188.494019 -289.827759 189.105377
v 1188.494019 -289.827759 257.578583
v 1190.240601 -286.522461 189.105377
v 1189.462891 -287.994476 189.105377
v 1189.462891 -287.994476 257.578583
v 1190.240601 -286.522461 257.578583
v 1191.209351 -284.689178 189.105377
v 1190.431519 -286.161163 189.105377
v 1190.431519 -286.161163 257.578583
v 1191.209351 -284.689178 257.578583
v 1192.178101 -282.855865 189.105377
v 1191.400269 -284.327972 189.105377
v 1191.400269 -284.327972 257.578583
v 1192.178101 -282.855865 257.578583
v 1185.781494 -295.820374 189.105377
v 1188.724609 -297.378174 189.105377
v 1188.724609 -297.378174 257.578583
v 1185.781494 -295.820374 257.578583
v 1189.998779 -298.096558 257.578583
v 1189.998779 -298.096558 193.578568
v 1191.440796 -298.928772 193.578568
v 1191.440796 -298.928772 257.578583
v 1195.980469 -284.482574 189.105377
v 1193.038818 -282.921967 189.105377
v 1193.038818 -282.921967 257.578583
v 1195.980469 -284.482574 257.578583
v 1198.736328 -285.974976 257.578583
v 1198.736328 -285.974976 193.578568
v 1197.274536 -285.177856 193.578568
v 1197.274536 -285.177856 257.578583
vt 0.000000 0.000000
vt 0.250000 0.000000
vt 0.250000 6.333330
vt 0.000000 6.333330
vt 0.000000 0.000000
vt 0.250000 0.000000
vt 0.250000 6.333330
vt 0.000000 6.333330
vt 0.000000 6.333330
vt 0.000000 0.000000
vt 0.250000 0.000000
vt 0.250000 6.333330
vt 0.000000 6.333330
vt 0.000000 0.000000
vt 0.250000 0.000000
vt 0.250000 6.333330
vt 0.000000 0.000000
vt 0.250000 0.000000
vt 0.250000 6.333330
vt 0.000000 6.333330
vt 0.000000 0.000000
vt 0.250000 0.000000
vt 0.250000 6.333330
vt 0.000000 6.333330
vt 0.000000 0.000000
vt 0.250000 0.000000
vt 0.250000 6.333330
vt 0.000000 6.333330
vt 0.000000 0.000000
vt 0.500000 0.000000
vt 0.500000 6.333330
vt 0.000000 6.333330
vt 0.000000 6.000000
vt 0.000000 0.000000
vt 0.250000 0.000000
vt 0.250000 6.000000
vt 0.000000 0.000000
vt 0.500000 0.000000
vt 0.500000 6.333330
vt 0.000000 6.333330
vt 0.000000 6.000000
vt 0.000000 0.000000
vt 0.250000 0.000000
vt 0.250000 6.000000
vn -0.8841 0.4672 0.0000
vn -0.8842 0.4671 0.0000
vn -0.8841 0.4673 0.0000
vn -0.8842 0.4670 0.0000
vn -0.4678 -0.8838 0.0000
vn -0.4999 -0.8661 0.0000
vn -0.4998 -0.8661 0.0000
vn 0.4687 0.8834 0.0000
vn 0.4787 0.8780 0.0000
vn 0.4788 0.8779 0.0000
s off
f 1/1/1 2/2/1 3/3/1
f 4/4/1 1/1/1 3/3/1
f 5/5/1 6/6/1 7/7/1
f 8/8/2 5/5/2 7/7/2
f 9/9/1 10/10/1 11/11/1
f 9/9/2 11/11/2 12/12/2
f 13/13/1 14/14/1 15/15/1
f 13/13/3 15/15/3 16/16/3
f 17/17/1 18/18/1 19/19/1
f 20/20/4 17/17/4 19/19/4
f 21/21/2 22/22/2 23/23/2
f 24/24/1 21/21/1 23/23/1
f 25/25/1 26/26/1 27/27/1
f 28/28/1 25/25/1 27/27/1
f 29/29/5 30/30/5 31/31/5
f 32/32/5 29/29/5 31/31/5
f 33/33/6 34/34/6 35/35/6
f 33/33/7 35/35/7 36/36/7
f 37/37/8 38/38/8 39/39/8
f 40/40/8 37/37/8 39/39/8
f 41/41/9 42/42/9 43/43/9
f 41/41/10 43/43/10 44/44/10
