# Blender v3.0.1 OBJ File: 'rockerfeller_plaza.blend'
# www.blender.org
o geometryt000010000010000110010110000110000110100000110100st70
v 976.377563 -69.352486 725.098145
v 976.377563 -69.352486 700.578064
v 983.664673 -73.246986 700.578064
v 983.664673 -73.246986 725.098145
v 977.629761 -65.312431 700.578064
v 976.315247 -67.732651 700.578064
v 976.315247 -67.732651 725.098145
v 977.629761 -65.312431 725.098145
v 978.816040 -63.044769 700.578064
v 978.185669 -64.269119 700.578064
v 978.185669 -64.269119 725.098145
v 978.816040 -63.044769 725.098145
v 980.113647 -60.633049 700.578064
v 979.457031 -61.843540 700.578064
v 979.457031 -61.843540 725.098145
v 980.113647 -60.633049 725.098145
v 981.362366 -58.264347 725.098145
v 981.362366 -58.264347 700.578064
v 980.727844 -59.486538 700.578064
v 980.727844 -59.486538 725.098145
v 983.689636 -57.948627 725.098145
v 983.689636 -57.948627 700.578064
v 982.474243 -57.301037 700.578064
v 982.474243 -57.301037 725.098145
v 988.486633 -50.082558 725.098145
v 988.486633 -50.082558 700.578064
v 984.593018 -57.370197 700.578064
v 984.593018 -57.370197 725.098145
v 984.554321 -73.331291 700.578064
v 985.851318 -70.901596 700.578064
v 985.851318 -70.901596 725.098145
v 984.554321 -73.331291 725.098145
v 985.976135 -70.667686 700.578064
v 988.570068 -65.808296 700.578064
v 988.570068 -65.808296 725.098145
v 985.976135 -70.667686 725.098145
v 988.694946 -65.574387 725.098145
v 988.694946 -65.574387 700.578064
v 989.343445 -64.359535 700.578064
v 989.343445 -64.359535 725.098145
v 991.628235 -60.079109 725.098145
v 989.468262 -64.125626 700.578064
v 992.062134 -59.266247 700.578064
v 989.468262 -64.125626 725.098145
v 992.062134 -59.266247 725.098145
v 992.701843 -58.067928 725.098145
v 992.187012 -59.032337 700.578064
v 992.835571 -57.817490 700.578064
v 992.187012 -59.032337 725.098145
v 992.835571 -57.817490 725.098145
v 993.131226 -57.263458 725.098145
v 992.960327 -57.583580 700.578064
v 995.554260 -52.724190 700.578064
v 992.960327 -57.583580 725.098145
v 995.554260 -52.724190 725.098145
v 995.679138 -52.490280 725.098145
v 995.679138 -52.490280 700.578064
v 996.976074 -50.060589 700.578064
v 996.976074 -50.060589 725.098145
v 990.541443 -50.119808 725.098145
v 990.541443 -50.119808 700.578064
v 989.326782 -49.470917 700.578064
v 989.326782 -49.470917 725.098145
v 992.069641 -48.211529 700.578064
v 991.422729 -49.427250 700.578064
v 991.422729 -49.427250 725.098145
v 992.069641 -48.211529 725.098145
v 996.671448 -49.506687 700.578064
v 993.027649 -47.559940 700.578064
v 993.027649 -47.559940 725.098145
v 996.671448 -49.506687 725.098145
vt 0.000000 2.000000
vt 0.000000 0.000000
vt 0.375000 0.000000
vt 0.375000 2.000000
vt 0.000000 0.000000
vt 0.125000 0.000000
vt 0.125000 2.000000
vt 0.000000 2.000000
vt 0.000000 0.000000
vt 0.062500 0.000000
vt 0.062500 2.000000
vt 0.000000 2.000000
vt 0.000000 0.000000
vt 0.062500 0.000000
vt 0.062500 2.000000
vt 0.000000 2.000000
vt 0.000000 2.000000
vt 0.000000 0.000000
vt 0.062500 0.000000
vt 0.062500 2.000000
vt 0.000000 2.000000
vt 0.000000 0.000000
vt 0.062500 0.000000
vt 0.062500 2.000000
vt 0.000000 2.000000
vt 0.000000 0.000000
vt 0.375000 0.000000
vt 0.375000 2.000000
vt 0.000000 0.000000
vt 0.125000 0.000000
vt 0.125000 2.000000
vt 0.000000 2.000000
vt 0.000000 0.000000
vt 0.250000 0.000000
vt 0.250000 2.000000
vt 0.000000 2.000000
vt 0.000000 2.000000
vt 0.000000 0.000000
vt 0.062500 0.000000
vt 0.062500 2.000000
vt 0.208180 2.000000
vt 0.000000 0.000000
vt 0.250000 0.000000
vt 0.000000 2.000000
vt 0.049620 2.000000
vt 0.000000 0.000000
vt 0.062500 0.000000
vt 0.000000 2.000000
vt 0.062500 2.000000
vt 0.016470 2.000000
vt 0.000000 0.000000
vt 0.250000 0.000000
vt 0.000000 2.000000
vt 0.250000 2.000000
vt 0.000000 2.000000
vt 0.000000 0.000000
vt 0.125000 0.000000
vt 0.125000 2.000000
vt 0.000000 2.000000
vt 0.000000 0.000000
vt 0.062500 0.000000
vt 0.062500 2.000000
vt 0.000000 0.000000
vt 0.062500 0.000000
vt 0.062500 2.000000
vt 0.000000 2.000000
vt 0.000000 0.000000
vt 0.187500 0.000000
vt 0.187500 2.000000
vt 0.000000 2.000000
vt 0.250000 2.000000
vn -0.4713 -0.8819 0.0000
vn -0.8787 0.4773 0.0000
vn -0.8788 0.4773 0.0000
vn -0.8891 0.4578 0.0000
vn -0.8790 0.4768 0.0000
vn -0.8790 0.4767 0.0000
vn -0.8875 0.4608 0.0000
vn 0.4702 0.8825 0.0000
vn -0.8820 0.4712 0.0000
vn 0.8822 -0.4709 0.0000
vn 0.8822 -0.4710 0.0000
vn 0.8820 -0.4713 0.0000
vn 0.8821 -0.4710 0.0000
vn 0.4712 0.8820 0.0000
vn -0.8828 0.4698 0.0000
vn -0.8828 0.4697 0.0000
vn 0.8822 -0.4708 0.0000
s off
f 1/1/1 2/2/1 3/3/1
f 1/1/1 3/3/1 4/4/1
f 5/5/2 6/6/2 7/7/2
f 8/8/3 5/5/3 7/7/3
f 9/9/4 10/10/4 11/11/4
f 12/12/4 9/9/4 11/11/4
f 13/13/5 14/14/5 15/15/5
f 16/16/6 13/13/6 15/15/6
f 17/17/7 18/18/7 19/19/7
f 17/17/7 19/19/7 20/20/7
f 21/21/8 22/22/8 23/23/8
f 21/21/8 23/23/8 24/24/8
f 25/25/9 26/26/9 27/27/9
f 25/25/9 27/27/9 28/28/9
f 29/29/10 30/30/10 31/31/10
f 32/32/10 29/29/10 31/31/10
f 33/33/10 34/34/10 35/35/10
f 36/36/10 33/33/10 35/35/10
f 37/37/10 38/38/10 39/39/10
f 37/37/10 39/39/10 40/40/10
f 41/41/10 42/42/10 43/43/10
f 44/44/10 42/42/10 41/41/10
f 46/45/10 47/46/10 48/47/10
f 49/48/11 47/46/11 46/45/11
f 46/45/12 48/47/12 50/49/12
f 51/50/10 52/51/10 53/52/10
f 54/53/13 52/51/13 51/50/13
f 51/50/10 53/52/10 55/54/10
f 56/55/10 57/56/10 58/57/10
f 56/55/10 58/57/10 59/58/10
f 60/59/14 61/60/14 62/61/14
f 60/59/14 62/61/14 63/62/14
f 64/63/15 65/64/15 66/65/15
f 67/66/16 64/63/16 66/65/16
f 68/67/14 69/68/14 70/69/14
f 71/70/14 68/67/14 70/69/14
s 1
f 41/41/17 43/43/17 45/71/17
