# Blender v3.0.1 OBJ File: 'rockerfeller_plaza.blend'
# www.blender.org
o geometryt000010000010000110010110000110000110100000100000st0
v 277.652222 -140.483353 411.687317
v 277.652222 -140.483353 337.738037
v 276.114532 -143.317947 337.738037
v 276.114532 -143.317947 411.687317
v 278.741241 -138.475952 337.738037
v 277.972382 -139.893250 337.738037
v 277.972382 -139.893250 411.687317
v 278.741241 -138.475952 411.687317
v 279.830261 -136.468460 411.687317
v 279.830261 -136.468460 337.738037
v 279.061401 -137.885757 337.738037
v 279.061401 -137.885757 411.687317
v 281.688110 -133.043655 411.687317
v 281.688110 -133.043655 337.738037
v 280.150391 -135.878250 337.738037
v 280.150391 -135.878250 411.687317
v 282.777130 -131.036148 411.687317
v 282.777130 -131.036148 337.738037
v 282.008270 -132.453461 337.738037
v 282.008270 -132.453461 411.687317
v 284.634979 -127.611458 411.687317
v 284.634979 -127.611458 337.738037
v 283.097290 -130.446060 337.738037
v 283.097290 -130.446060 411.687317
v 285.723999 -125.603951 411.687317
v 285.723999 -125.603951 337.738037
v 284.955139 -127.021255 337.738037
v 284.955139 -127.021255 411.687317
v 286.812988 -123.596451 337.738037
v 286.044159 -125.013756 337.738037
v 286.044159 -125.013756 411.687317
v 286.812988 -123.596451 411.687317
v 288.670868 -120.171753 411.687317
v 288.670868 -120.171753 337.738037
v 287.133148 -123.006256 337.738037
v 287.133148 -123.006256 411.687317
v 276.253357 -143.785553 411.687317
v 276.253357 -143.785553 337.738037
v 279.088898 -145.321457 337.738037
v 279.088898 -145.321457 411.687317
v 279.611664 -145.604660 337.738037
v 281.029449 -146.372650 337.738037
v 281.029449 -146.372650 411.687317
v 279.611664 -145.604660 411.687317
v 281.552185 -146.655762 411.687317
v 281.552185 -146.655762 337.738037
v 282.969971 -147.423752 337.738037
v 282.969971 -147.423752 411.687317
v 283.492737 -147.706955 411.687317
v 283.492737 -147.706955 337.738037
v 286.328278 -149.242859 337.738037
v 286.328278 -149.242859 411.687317
v 286.851013 -149.526047 337.738037
v 291.104309 -151.829956 337.738037
v 291.104309 -151.829956 411.687317
v 286.851013 -149.526047 411.687317
v 291.627106 -152.113159 411.687317
v 291.627106 -152.113159 337.738037
v 297.298157 -155.185059 337.738037
v 297.298157 -155.185059 411.687317
v 297.820923 -155.468155 411.687317
v 297.820923 -155.468155 337.738037
v 302.074219 -157.772156 337.738037
v 302.074219 -157.772156 411.687317
v 302.596985 -158.055252 411.687317
v 302.596985 -158.055252 337.738037
v 304.014771 -158.823257 337.738037
v 304.014771 -158.823257 411.687317
v 304.537537 -159.106461 337.738037
v 310.208588 -162.178360 337.738037
v 310.208588 -162.178360 411.687317
v 304.537537 -159.106461 411.687317
v 310.731354 -162.461456 337.738037
v 312.149109 -163.229462 337.738037
v 312.149109 -163.229462 411.687317
v 310.731354 -162.461456 411.687317
v 312.671875 -163.512650 411.687317
v 312.671875 -163.512650 337.738037
v 316.925171 -165.816559 337.738037
v 316.925171 -165.816559 411.687317
v 317.447937 -166.099747 411.687317
v 317.447937 -166.099747 337.738037
v 318.865723 -166.867661 337.738037
v 318.865723 -166.867661 411.687317
v 319.388489 -167.150848 411.687317
v 319.388489 -167.150848 337.738037
v 325.059570 -170.222748 337.738037
v 325.059570 -170.222748 411.687317
v 325.582306 -170.505951 411.687317
v 325.582306 -170.505951 337.738037
v 327.000092 -171.273849 337.738037
v 327.000092 -171.273849 411.687317
v 327.522827 -171.557053 337.738037
v 331.776154 -173.860947 337.738037
v 331.776154 -173.860947 411.687317
v 327.522827 -171.557053 411.687317
v 332.298920 -174.144150 411.687317
v 332.298920 -174.144150 337.738037
v 337.969971 -177.216049 337.738037
v 337.969971 -177.216049 411.687317
v 338.492737 -177.499161 411.687317
v 338.492737 -177.499161 337.738037
v 342.746063 -179.803162 337.738037
v 342.746063 -179.803162 411.687317
v 343.268799 -180.086258 411.687317
v 343.268799 -180.086258 337.738037
v 346.104340 -181.622253 337.738037
v 346.104340 -181.622253 411.687317
v 346.627106 -181.905350 411.687317
v 346.627106 -181.905350 337.738037
v 348.044861 -182.673355 337.738037
v 348.044861 -182.673355 411.687317
v 348.567657 -182.956558 411.687317
v 348.567657 -182.956558 337.738037
v 349.985413 -183.724548 337.738037
v 349.985413 -183.724548 411.687317
v 350.508179 -184.007660 411.687317
v 350.508179 -184.007660 337.738037
v 353.343750 -185.543655 337.738037
v 353.343750 -185.543655 411.687317
v 291.973694 -121.569756 337.738037
v 289.138672 -120.032852 337.738037
v 289.138672 -120.032852 411.687317
v 291.973694 -121.569756 411.687317
v 293.766479 -122.541557 337.738037
v 292.348969 -121.773155 337.738037
v 292.348969 -121.773155 411.687317
v 293.766479 -122.541557 411.687317
v 295.559265 -123.513451 337.738037
v 294.141754 -122.745056 337.738037
v 294.141754 -122.745056 411.687317
v 295.559265 -123.513451 411.687317
v 298.769592 -125.253754 337.738037
v 295.934540 -123.716858 337.738037
v 295.934540 -123.716858 411.687317
v 298.769592 -125.253754 411.687317
v 300.562378 -126.225555 411.687317
v 300.562378 -126.225555 337.738037
v 299.144836 -125.457153 337.738037
v 299.144836 -125.457153 411.687317
v 303.772675 -127.965851 337.738037
v 300.937622 -126.429054 337.738037
v 300.937622 -126.429054 411.687317
v 303.772675 -127.965851 411.687317
v 305.565460 -128.937759 337.738037
v 304.147949 -128.169250 337.738037
v 304.147949 -128.169250 411.687317
v 305.565460 -128.937759 411.687317
v 307.358246 -129.909561 411.687317
v 307.358246 -129.909561 337.738037
v 305.940735 -129.141159 337.738037
v 305.940735 -129.141159 411.687317
v 310.568542 -131.649857 337.738037
v 307.733521 -130.113052 337.738037
v 307.733521 -130.113052 411.687317
v 310.568542 -131.649857 411.687317
v 314.945251 -132.804657 411.687317
v 314.945251 -132.804657 337.738037
v 312.113403 -131.261856 337.738037
v 312.113403 -131.261856 411.687317
v 316.712494 -131.292557 411.687317
v 316.712494 -131.292557 337.738037
v 315.942352 -132.709061 337.738037
v 315.942352 -132.709061 411.687317
v 318.680511 -127.660751 411.687317
v 318.680511 -127.660751 337.738037
v 317.144714 -130.496353 337.738037
v 317.144714 -130.496353 411.687317
v 319.755096 -125.676758 411.687317
v 319.755096 -125.676758 337.738037
v 318.987183 -127.094551 337.738037
v 318.987183 -127.094551 411.687317
v 320.829712 -123.692657 411.687317
v 320.829712 -123.692657 337.738037
v 320.061768 -125.110451 337.738037
v 320.061768 -125.110451 411.687317
v 322.672180 -120.290855 411.687317
v 322.672180 -120.290855 337.738037
v 321.136383 -123.126457 337.738037
v 321.136383 -123.126457 411.687317
v 325.282593 -115.471153 411.687317
v 325.282593 -115.471153 337.738037
v 322.978882 -119.724655 337.738037
v 322.978882 -119.724655 411.687317
v 326.585693 -113.065254 411.687317
v 327.125122 -112.069351 337.738037
v 325.589294 -114.904953 337.738037
v 327.125122 -112.069351 411.687317
v 325.589294 -114.904953 411.687317
v 328.199707 -110.085358 411.687317
v 328.199707 -110.085358 337.738037
v 327.431793 -111.503151 337.738037
v 327.431793 -111.503151 411.687317
v 329.274292 -108.101257 337.738037
v 328.506378 -109.519051 337.738037
v 328.506378 -109.519051 411.687317
v 329.274292 -108.101257 411.687317
v 331.116791 -104.699455 411.687317
v 331.116791 -104.699455 337.738037
v 329.580994 -107.535057 337.738037
v 329.580994 -107.535057 411.687317
v 334.425018 -106.100754 411.687317
v 334.425018 -106.100754 337.738037
v 331.590149 -104.563652 337.738037
v 331.590149 -104.563652 411.687317
v 336.431702 -107.188858 337.738037
v 335.014252 -106.420258 337.738037
v 335.014252 -106.420258 411.687317
v 336.431702 -107.188858 411.687317
v 338.438354 -108.276855 337.738037
v 337.020935 -107.508354 337.738037
v 337.020935 -107.508354 411.687317
v 338.438354 -108.276855 411.687317
v 341.862488 -110.133553 411.687317
v 341.862488 -110.133553 337.738037
v 339.027588 -108.596352 337.738037
v 339.027588 -108.596352 411.687317
v 346.704041 -112.758751 337.738037
v 342.451721 -110.453056 337.738037
v 342.451721 -110.453056 411.687317
v 346.704041 -112.758751 411.687317
v 352.963043 -116.152451 337.738037
v 347.293274 -113.078255 337.738037
v 347.293274 -113.078255 411.687317
v 352.963043 -116.152451 411.687317
v 354.969727 -117.240555 411.687317
v 354.969727 -117.240555 337.738037
v 353.552338 -116.471954 337.738037
v 353.552338 -116.471954 411.687317
v 358.393829 -119.097153 411.687317
v 358.393829 -119.097153 337.738037
v 355.558929 -117.560051 337.738037
v 355.558929 -117.560051 411.687317
v 360.400543 -120.185257 337.738037
v 358.983032 -119.416656 337.738037
v 358.983032 -119.416656 411.687317
v 360.400543 -120.185257 411.687317
v 366.659546 -123.578957 411.687317
v 366.659546 -123.578957 337.738037
v 360.989746 -120.504753 337.738037
v 360.989746 -120.504753 411.687317
v 371.501129 -126.204155 411.687317
v 371.501129 -126.204155 337.738037
v 367.248718 -123.898453 337.738037
v 367.248718 -123.898453 411.687317
v 374.925232 -128.060852 411.687317
v 374.925232 -128.060852 337.738037
v 372.090332 -126.523651 337.738037
v 372.090332 -126.523651 411.687317
v 376.931946 -129.148849 411.687317
v 376.931946 -129.148849 337.738037
v 375.514435 -128.380356 337.738037
v 375.514435 -128.380356 411.687317
v 378.938538 -130.236954 337.738037
v 377.521118 -129.468353 337.738037
v 377.521118 -129.468353 411.687317
v 378.938538 -130.236954 411.687317
v 382.362640 -132.093552 411.687317
v 382.362640 -132.093552 337.738037
v 379.527832 -130.556458 337.738037
v 379.527832 -130.556458 411.687317
v 353.811646 -185.404755 337.738037
v 355.350342 -182.570648 337.738037
v 355.350342 -182.570648 411.687317
v 353.811646 -185.404755 411.687317
v 355.663544 -181.993851 411.687317
v 355.663544 -181.993851 337.738037
v 356.432831 -180.576859 337.738037
v 356.432831 -180.576859 411.687317
v 356.746033 -180.000061 337.738037
v 357.515320 -178.582947 337.738037
v 357.515320 -178.582947 411.687317
v 356.746033 -180.000061 411.687317
v 357.828430 -178.006149 337.738037
v 359.367126 -175.172150 337.738037
v 359.367126 -175.172150 411.687317
v 357.828430 -178.006149 411.687317
v 359.680328 -174.595352 411.687317
v 359.680328 -174.595352 337.738037
v 361.988342 -170.344254 337.738037
v 361.988342 -170.344254 411.687317
v 362.301453 -169.767456 337.738037
v 365.378723 -164.099258 337.738037
v 365.378723 -164.099258 411.687317
v 362.301453 -169.767456 411.687317
v 365.691925 -163.522461 411.687317
v 365.691925 -163.522461 337.738037
v 367.999939 -159.271347 337.738037
v 367.999939 -159.271347 411.687317
v 368.313141 -158.694550 337.738037
v 370.621155 -154.443451 337.738037
v 370.621155 -154.443451 411.687317
v 368.313141 -158.694550 411.687317
v 370.934235 -153.866653 411.687317
v 370.934235 -153.866653 337.738037
v 374.011536 -148.198547 337.738037
v 374.011536 -148.198547 411.687317
v 374.324738 -147.621750 337.738037
v 376.632751 -143.370651 337.738037
v 376.632751 -143.370651 411.687317
v 374.324738 -147.621750 411.687317
v 376.945923 -142.793854 411.687317
v 376.945923 -142.793854 337.738037
v 378.484528 -139.959747 337.738037
v 378.484528 -139.959747 411.687317
v 378.797729 -139.382950 337.738037
v 379.567047 -137.965958 337.738037
v 379.567047 -137.965958 411.687317
v 378.797729 -139.382950 411.687317
v 379.880249 -137.389160 337.738037
v 380.649536 -135.972061 337.738037
v 380.649536 -135.972061 411.687317
v 379.880249 -137.389160 411.687317
v 380.962738 -135.395248 411.687317
v 380.962738 -135.395248 337.738037
v 382.501343 -132.561249 337.738037
v 382.501343 -132.561249 411.687317
vt 0.000000 22.000000
vt 0.000000 0.000000
vt 0.666670 0.000000
vt 0.666670 22.000000
vt 0.000000 0.000000
vt 0.333330 0.000000
vt 0.333330 22.000000
vt 0.000000 22.000000
vt 0.000000 22.000000
vt 0.000000 0.000000
vt 0.333330 0.000000
vt 0.333330 22.000000
vt 0.000000 22.000000
vt 0.000000 0.000000
vt 0.666670 0.000000
vt 0.666670 22.000000
vt 0.000000 22.000000
vt 0.000000 0.000000
vt 0.333330 0.000000
vt 0.333330 22.000000
vt 0.000000 22.000000
vt 0.000000 0.000000
vt 0.666670 0.000000
vt 0.666670 22.000000
vt 0.000000 22.000000
vt 0.000000 0.000000
vt 0.333330 0.000000
vt 0.333330 22.000000
vt 0.000000 0.000000
vt 0.333330 0.000000
vt 0.333330 22.000000
vt 0.000000 22.000000
vt 0.000000 22.000000
vt 0.000000 0.000000
vt 0.666670 0.000000
vt 0.666670 22.000000
vt 0.000000 22.000000
vt 0.000000 0.000000
vt 0.666670 0.000000
vt 0.666670 22.000000
vt 0.000000 0.000000
vt 0.333330 0.000000
vt 0.333330 22.000000
vt 0.000000 22.000000
vt 0.000000 22.000000
vt 0.000000 0.000000
vt 0.333330 0.000000
vt 0.333330 22.000000
vt 0.000000 22.000000
vt 0.000000 0.000000
vt 0.666670 0.000000
vt 0.666670 22.000000
vt 0.000000 0.000000
vt 1.000000 0.000000
vt 1.000000 22.000000
vt 0.000000 22.000000
vt 0.000000 22.000000
vt 0.000000 0.000000
vt 1.000000 0.000000
vt 1.000000 22.000000
vt 0.000000 22.000000
vt 0.000000 0.000000
vt 0.333330 0.000000
vt 0.333330 22.000000
vt 0.000000 22.000000
vt 0.000000 0.000000
vt 1.000000 0.000000
vt 1.000000 22.000000
vt 0.000000 22.000000
vt 0.000000 0.000000
vt 1.333330 0.000000
vt 1.333330 22.000000
vt 0.000000 22.000000
vt 0.000000 0.000000
vt 0.333330 0.000000
vt 0.333330 22.000000
vt 0.000000 22.000000
vt 0.000000 0.000000
vt 1.333330 0.000000
vt 1.333330 22.000000
vt 0.000000 22.000000
vt 0.000000 0.000000
vt 0.666670 0.000000
vt 0.666670 22.000000
vt 0.000000 22.000000
vt 0.000000 0.000000
vt 0.333330 0.000000
vt 0.333330 22.000000
vt 0.000000 22.000000
vt 0.000000 0.000000
vt 0.333330 0.000000
vt 0.333330 22.000000
vt 0.000000 22.000000
vt 0.000000 0.000000
vt 0.666670 0.000000
vt 0.666670 22.000000
vt 0.000000 0.000000
vt 0.666670 0.000000
vt 0.666670 22.000000
vt 0.000000 22.000000
vt 0.000000 0.000000
vt 0.333330 0.000000
vt 0.333330 22.000000
vt 0.000000 22.000000
vt 0.000000 0.000000
vt 0.333330 0.000000
vt 0.333330 22.000000
vt 0.000000 22.000000
vt 0.000000 0.000000
vt 0.666670 0.000000
vt 0.666670 22.000000
vt 0.000000 22.000000
vt 0.000000 22.000000
vt 0.000000 0.000000
vt 0.333330 0.000000
vt 0.333330 22.000000
vt 0.000000 0.000000
vt 0.666670 0.000000
vt 0.666670 22.000000
vt 0.000000 22.000000
vt 0.000000 0.000000
vt 0.333330 0.000000
vt 0.333330 22.000000
vt 0.000000 22.000000
vt 0.000000 22.000000
vt 0.000000 0.000000
vt 0.333330 0.000000
vt 0.333330 22.000000
vt 0.000000 0.000000
vt 0.666670 0.000000
vt 0.666670 22.000000
vt 0.000000 22.000000
vt 0.000000 22.000000
vt 0.000000 0.000000
vt 0.666670 0.000000
vt 0.666670 22.000000
vt 0.000000 22.000000
vt 0.000000 0.000000
vt 0.333330 0.000000
vt 0.333330 22.000000
vt 0.000000 22.000000
vt 0.000000 0.000000
vt 0.666670 0.000000
vt 0.666670 22.000000
vt 0.000000 22.000000
vt 0.000000 0.000000
vt 0.333330 0.000000
vt 0.333330 22.000000
vt 0.000000 22.000000
vt 0.000000 0.000000
vt 0.333330 0.000000
vt 0.333330 22.000000
vt 0.000000 22.000000
vt 0.000000 0.000000
vt 0.666670 0.000000
vt 0.666670 22.000000
vt 0.000000 22.000000
vt 0.000000 0.000000
vt 1.000000 0.000000
vt 1.000000 22.000000
vt 0.234150 22.000000
vt 0.000000 0.000000
vt 0.666670 0.000000
vt 0.000000 22.000000
vt 0.666670 22.000000
vt 0.000000 22.000000
vt 0.000000 0.000000
vt 0.333330 0.000000
vt 0.333330 22.000000
vt 0.000000 0.000000
vt 0.333330 0.000000
vt 0.333330 22.000000
vt 0.000000 22.000000
vt 0.000000 22.000000
vt 0.000000 0.000000
vt 0.666670 0.000000
vt 0.666670 22.000000
vt 0.000000 22.000000
vt 0.000000 0.000000
vt 0.666670 0.000000
vt 0.666670 22.000000
vt 0.000000 0.000000
vt 0.333330 0.000000
vt 0.333330 22.000000
vt 0.000000 22.000000
vt 0.000000 0.000000
vt 0.333330 0.000000
vt 0.333330 22.000000
vt 0.000000 22.000000
vt 0.000000 22.000000
vt 0.000000 0.000000
vt 0.666670 0.000000
vt 0.666670 22.000000
vt 0.000000 0.000000
vt 1.000000 0.000000
vt 1.000000 22.000000
vt 0.000000 22.000000
vt 0.000000 0.000000
vt 1.333330 0.000000
vt 1.333330 22.000000
vt 0.000000 22.000000
vt 0.000000 22.000000
vt 0.000000 0.000000
vt 0.333330 0.000000
vt 0.333330 22.000000
vt 0.000000 22.000000
vt 0.000000 0.000000
vt 0.666670 0.000000
vt 0.666670 22.000000
vt 0.000000 0.000000
vt 0.333330 0.000000
vt 0.333330 22.000000
vt 0.000000 22.000000
vt 0.000000 22.000000
vt 0.000000 0.000000
vt 1.333330 0.000000
vt 1.333330 22.000000
vt 0.000000 22.000000
vt 0.000000 0.000000
vt 1.000000 0.000000
vt 1.000000 22.000000
vt 0.000000 22.000000
vt 0.000000 0.000000
vt 0.666670 0.000000
vt 0.666670 22.000000
vt 0.000000 22.000000
vt 0.000000 0.000000
vt 0.333330 0.000000
vt 0.333330 22.000000
vt 0.000000 0.000000
vt 0.333330 0.000000
vt 0.333330 22.000000
vt 0.000000 22.000000
vt 0.000000 22.000000
vt 0.000000 0.000000
vt 0.666670 0.000000
vt 0.666670 22.000000
vt 0.000000 0.000000
vt 0.666670 0.000000
vt 0.666670 22.000000
vt 0.000000 22.000000
vt 0.000000 22.000000
vt 0.000000 0.000000
vt 0.333330 0.000000
vt 0.333330 22.000000
vt 0.000000 0.000000
vt 0.333330 0.000000
vt 0.333330 22.000000
vt 0.000000 22.000000
vt 0.000000 0.000000
vt 0.666670 0.000000
vt 0.666670 22.000000
vt 0.000000 22.000000
vt 0.000000 22.000000
vt 0.000000 0.000000
vt 1.000000 0.000000
vt 1.000000 22.000000
vt 0.000000 0.000000
vt 1.333330 0.000000
vt 1.333330 22.000000
vt 0.000000 22.000000
vt 0.000000 22.000000
vt 0.000000 0.000000
vt 1.000000 0.000000
vt 1.000000 22.000000
vt 0.000000 0.000000
vt 1.000000 0.000000
vt 1.000000 22.000000
vt 0.000000 22.000000
vt 0.000000 22.000000
vt 0.000000 0.000000
vt 1.333330 0.000000
vt 1.333330 22.000000
vt 0.000000 0.000000
vt 1.000000 0.000000
vt 1.000000 22.000000
vt 0.000000 22.000000
vt 0.000000 22.000000
vt 0.000000 0.000000
vt 0.666670 0.000000
vt 0.666670 22.000000
vt 0.000000 0.000000
vt 0.333330 0.000000
vt 0.333330 22.000000
vt 0.000000 22.000000
vt 0.000000 0.000000
vt 0.333330 0.000000
vt 0.333330 22.000000
vt 0.000000 22.000000
vt 0.000000 22.000000
vt 0.000000 0.000000
vt 0.666670 0.000000
vt 0.666670 22.000000
vt 0.000000 22.000000
vt 0.000000 0.000000
vt 1.333330 0.000000
vt 1.333330 22.000000
vt 0.000000 0.000000
vt 1.333330 0.000000
vt 1.333330 22.000000
vt 0.000000 22.000000
vt 0.000000 0.000000
vt 0.333330 0.000000
vt 0.333330 22.000000
vt 0.000000 22.000000
vt 0.000000 22.000000
vt 0.000000 0.000000
vt 0.333330 0.000000
vt 0.333330 22.000000
vt 0.000000 0.000000
vt 1.000000 0.000000
vt 1.000000 22.000000
vt 0.000000 22.000000
vt 0.000000 22.000000
vt 0.000000 0.000000
vt 1.000000 0.000000
vt 1.000000 22.000000
vn -0.8790 0.4768 0.0000
vn -0.8790 0.4769 0.0000
vn -0.4763 -0.8793 0.0000
vn -0.4762 -0.8793 0.0000
vn 0.4766 0.8791 0.0000
vn 0.4765 0.8792 0.0000
vn 0.4765 0.8791 0.0000
vn 0.4784 0.8781 0.0000
vn -0.8786 0.4776 0.0000
vn -0.8785 0.4777 0.0000
vn -0.8793 0.4762 0.0000
vn -0.8793 0.4763 0.0000
vn 0.4767 0.8791 0.0000
vn 0.8788 -0.4771 0.0000
vn 0.8789 -0.4771 0.0000
s off
f 1/1/1 2/2/1 3/3/1
f 1/1/1 3/3/1 4/4/1
f 5/5/1 6/6/1 7/7/1
f 8/8/2 5/5/2 7/7/2
f 9/9/1 10/10/1 11/11/1
f 9/9/2 11/11/2 12/12/2
f 13/13/1 14/14/1 15/15/1
f 13/13/1 15/15/1 16/16/1
f 17/17/2 18/18/2 19/19/2
f 17/17/1 19/19/1 20/20/1
f 21/21/1 22/22/1 23/23/1
f 21/21/1 23/23/1 24/24/1
f 25/25/1 26/26/1 27/27/1
f 25/25/2 27/27/2 28/28/2
f 29/29/1 30/30/1 31/31/1
f 32/32/1 29/29/1 31/31/1
f 33/33/1 34/34/1 35/35/1
f 33/33/2 35/35/2 36/36/2
f 37/37/3 38/38/3 39/39/3
f 37/37/3 39/39/3 40/40/3
f 41/41/3 42/42/3 43/43/3
f 44/44/3 41/41/3 43/43/3
f 45/45/3 46/46/3 47/47/3
f 45/45/3 47/47/3 48/48/3
f 49/49/3 50/50/3 51/51/3
f 49/49/3 51/51/3 52/52/3
f 53/53/3 54/54/3 55/55/3
f 56/56/3 53/53/3 55/55/3
f 61/57/3 62/58/3 63/59/3
f 61/57/3 63/59/3 64/60/3
f 65/61/3 66/62/3 67/63/3
f 65/61/3 67/63/3 68/64/3
f 77/65/3 78/66/3 79/67/3
f 77/65/3 79/67/3 80/68/3
f 85/69/3 86/70/3 87/71/3
f 85/69/3 87/71/3 88/72/3
f 89/73/4 90/74/4 91/75/4
f 89/73/3 91/75/3 92/76/3
f 97/77/3 98/78/3 99/79/3
f 97/77/3 99/79/3 100/80/3
f 105/81/3 106/82/3 107/83/3
f 105/81/3 107/83/3 108/84/3
f 109/85/3 110/86/3 111/87/3
f 109/85/3 111/87/3 112/88/3
f 113/89/3 114/90/3 115/91/3
f 113/89/3 115/91/3 116/92/3
f 117/93/3 118/94/3 119/95/3
f 117/93/3 119/95/3 120/96/3
f 121/97/5 122/98/5 123/99/5
f 124/100/5 121/97/5 123/99/5
f 125/101/5 126/102/5 127/103/5
f 128/104/5 125/101/5 127/103/5
f 129/105/6 130/106/6 131/107/6
f 132/108/5 129/105/5 131/107/5
f 133/109/5 134/110/5 135/111/5
f 136/112/5 133/109/5 135/111/5
f 137/113/5 138/114/5 139/115/5
f 137/113/7 139/115/7 140/116/7
f 141/117/5 142/118/5 143/119/5
f 144/120/5 141/117/5 143/119/5
f 145/121/5 146/122/5 147/123/5
f 148/124/5 145/121/5 147/123/5
f 149/125/7 150/126/7 151/127/7
f 149/125/5 151/127/5 152/128/5
f 153/129/5 154/130/5 155/131/5
f 156/132/5 153/129/5 155/131/5
f 157/133/8 158/134/8 159/135/8
f 157/133/8 159/135/8 160/136/8
f 161/137/9 162/138/9 163/139/9
f 161/137/10 163/139/10 164/140/10
f 165/141/11 166/142/11 167/143/11
f 165/141/11 167/143/11 168/144/11
f 169/145/11 170/146/11 171/147/11
f 169/145/12 171/147/12 172/148/12
f 173/149/12 174/150/12 175/151/12
f 173/149/12 175/151/12 176/152/12
f 177/153/11 178/154/11 179/155/11
f 177/153/12 179/155/12 180/156/12
f 181/157/11 182/158/11 183/159/11
f 181/157/11 183/159/11 184/160/11
f 185/161/12 186/162/12 187/163/12
f 188/164/12 186/162/12 185/161/12
f 185/161/11 187/163/11 189/165/11
f 190/166/12 191/167/12 192/168/12
f 190/166/11 192/168/11 193/169/11
f 194/170/11 195/171/11 196/172/11
f 197/173/12 194/170/12 196/172/12
f 198/174/11 199/175/11 200/176/11
f 198/174/11 200/176/11 201/177/11
f 202/178/13 203/179/13 204/180/13
f 202/178/13 204/180/13 205/181/13
f 206/182/13 207/183/13 208/184/13
f 209/185/13 206/182/13 208/184/13
f 210/186/5 211/187/5 212/188/5
f 213/189/5 210/186/5 212/188/5
f 214/190/13 215/191/13 216/192/13
f 214/190/13 216/192/13 217/193/13
f 218/194/13 219/195/13 220/196/13
f 221/197/13 218/194/13 220/196/13
f 222/198/5 223/199/5 224/200/5
f 225/201/13 222/198/13 224/200/13
f 226/202/13 227/203/13 228/204/13
f 226/202/13 228/204/13 229/205/13
f 230/206/13 231/207/13 232/208/13
f 230/206/5 232/208/5 233/209/5
f 234/210/13 235/211/13 236/212/13
f 237/213/5 234/210/5 236/212/5
f 238/214/13 239/215/13 240/216/13
f 238/214/13 240/216/13 241/217/13
f 242/218/13 243/219/13 244/220/13
f 242/218/13 244/220/13 245/221/13
f 246/222/13 247/223/13 248/224/13
f 246/222/13 248/224/13 249/225/13
f 250/226/5 251/227/5 252/228/5
f 250/226/5 252/228/5 253/229/5
f 254/230/13 255/231/13 256/232/13
f 257/233/13 254/230/13 256/232/13
f 258/234/13 259/235/13 260/236/13
f 258/234/13 260/236/13 261/237/13
f 262/238/14 263/239/14 264/240/14
f 265/241/14 262/238/14 264/240/14
f 266/242/14 267/243/14 268/244/14
f 266/242/14 268/244/14 269/245/14
f 270/246/15 271/247/15 272/248/15
f 273/249/14 270/246/14 272/248/14
f 274/250/14 275/251/14 276/252/14
f 277/253/14 274/250/14 276/252/14
f 278/254/14 279/255/14 280/256/14
f 278/254/14 280/256/14 281/257/14
f 282/258/14 283/259/14 284/260/14
f 285/261/14 282/258/14 284/260/14
f 286/262/14 287/263/14 288/264/14
f 286/262/14 288/264/14 289/265/14
f 290/266/14 291/267/14 292/268/14
f 293/269/14 290/266/14 292/268/14
f 294/270/14 295/271/14 296/272/14
f 294/270/14 296/272/14 297/273/14
f 298/274/14 299/275/14 300/276/14
f 301/277/14 298/274/14 300/276/14
f 302/278/14 303/279/14 304/280/14
f 302/278/14 304/280/14 305/281/14
f 306/282/14 307/283/14 308/284/14
f 309/285/14 306/282/14 308/284/14
f 310/286/14 311/287/14 312/288/14
f 313/289/15 310/286/15 312/288/15
f 314/290/14 315/291/14 316/292/14
f 314/290/14 316/292/14 317/293/14
s 1
f 57/294/3 58/295/3 59/296/3
f 57/294/3 59/296/3 60/297/3
f 69/298/3 70/299/3 71/300/3
f 72/301/3 69/298/3 71/300/3
f 73/302/3 74/303/3 75/304/3
f 76/305/3 73/302/3 75/304/3
f 81/306/3 82/307/3 83/308/3
f 81/306/3 83/308/3 84/309/3
f 93/310/3 94/311/3 95/312/3
f 96/313/3 93/310/3 95/312/3
f 101/314/3 102/315/3 103/316/3
f 101/314/3 103/316/3 104/317/3
