# Blender v3.0.1 OBJ File: 'rockerfeller_plaza.blend'
# www.blender.org
o geometryt000010000010000110010110000110000110100000000110st95
v 508.792694 -104.592285 108.407066
v 508.592804 -104.964684 154.645126
v 508.792694 -104.592285 154.645126
v 518.148193 -87.163322 108.407066
v 514.449646 -94.053566 105.645126
v 510.702789 -101.033783 105.645126
v 508.592804 -104.964684 105.645126
v 518.148193 -87.163322 154.645126
v 518.348083 -86.790932 154.645126
v 518.348083 -86.790932 105.645126
v 510.605469 -106.041885 108.407066
v 511.455414 -106.496788 154.645126
v 510.605469 -106.041885 154.645126
v 509.442780 -105.419586 108.407066
v 511.455414 -106.496788 105.645126
v 509.442780 -105.419586 154.645126
v 508.592804 -104.964684 154.645126
v 508.592804 -104.964684 105.645126
v 521.220276 -111.742485 108.407066
v 521.691345 -111.995483 154.645126
v 521.220276 -111.742485 154.645126
v 511.455414 -106.496788 105.645126
v 511.926483 -106.749886 108.407066
v 521.691345 -111.995483 105.645126
v 511.926483 -106.749886 154.645126
v 511.455414 -106.496788 154.645126
v 518.545349 -86.409424 108.407066
v 518.342407 -86.787918 154.645126
v 518.545349 -86.409424 154.645126
v 523.109741 -77.895096 105.645126
v 522.906860 -78.273582 108.407066
v 518.342407 -86.787918 105.645126
v 522.906860 -78.273582 154.645126
v 523.109741 -77.895096 154.645126
v 536.053589 -85.229836 108.407066
v 536.216736 -84.925835 154.645126
v 536.053589 -85.229836 154.645126
v 535.430054 -86.391853 108.407066
v 536.216736 -84.925835 105.645126
v 535.430054 -86.391853 154.645126
v 535.319580 -86.597786 154.645126
v 535.319580 -86.597786 108.407066
v 534.072510 -88.921822 108.407066
v 534.072510 -88.921822 154.645126
v 533.962036 -89.127747 154.645126
v 533.962036 -89.127747 108.407066
v 530.844360 -94.937843 108.407066
v 530.844360 -94.937843 154.645126
v 530.733887 -95.143776 154.645126
v 530.733887 -95.143776 108.407066
v 530.110352 -96.305786 108.407066
v 530.110352 -96.305786 154.645126
v 529.999817 -96.511711 154.645126
v 529.999817 -96.511711 108.407066
v 529.376282 -97.673737 108.407066
v 529.376282 -97.673737 154.645126
v 529.265808 -97.879662 154.645126
v 529.265808 -97.879662 108.407066
v 528.642273 -99.041687 108.407066
v 528.642273 -99.041687 154.645126
v 528.531799 -99.247612 154.645126
v 528.531799 -99.247612 108.407066
v 521.691345 -111.995483 105.645126
v 527.908264 -100.409584 108.407066
v 527.908264 -100.409584 154.645126
v 527.797729 -100.615585 154.645126
v 527.797729 -100.615585 108.407066
v 527.174194 -101.777588 108.407066
v 527.174194 -101.777588 154.645126
v 527.063721 -101.983482 154.645126
v 527.063721 -101.983482 108.407066
v 523.946045 -107.793587 108.407066
v 523.946045 -107.793587 154.645126
v 523.835571 -107.999481 154.645126
v 523.835571 -107.999481 108.407066
v 522.588501 -110.323586 108.407066
v 522.588501 -110.323586 154.645126
v 522.478027 -110.529488 154.645126
v 522.478027 -110.529488 108.407066
v 521.854492 -111.691483 108.407066
v 521.854492 -111.691483 154.645126
v 521.691345 -111.995483 154.645126
v 523.852722 -78.293625 108.407066
v 523.109741 -77.895096 154.645126
v 523.852722 -78.293625 154.645126
v 536.216736 -84.925835 105.645126
v 535.473755 -84.527306 108.407066
v 523.109741 -77.895096 105.645126
v 535.473755 -84.527306 154.645126
v 536.216736 -84.925835 154.645126
vt 10.425050 1.425150
vt 10.643140 25.283800
vt 10.425050 25.283800
vt 0.218080 1.425150
vt 4.253240 0.000000
vt 8.341120 0.000000
vt 10.643140 0.000000
vt 0.218080 25.283800
vt 0.000000 25.283800
vt 0.000000 0.000000
vt 1.177910 1.425150
vt 1.675350 25.283800
vt 1.177910 25.283800
vt 0.497440 1.425150
vt 1.675350 0.000000
vt 0.497440 25.283800
vt 0.000000 25.283800
vt 0.000000 0.000000
vt 5.719640 1.425150
vt 5.995570 25.283800
vt 5.719640 25.283800
vt 0.000000 0.000000
vt 0.275920 1.425150
vt 5.995570 0.000000
vt 0.275920 25.283800
vt 0.000000 25.283800
vt 4.984850 1.425150
vt 5.206440 25.283800
vt 4.984850 25.283800
vt 0.000000 0.000000
vt 0.221590 1.425150
vt 5.206440 0.000000
vt 0.221590 25.283800
vt 0.000000 25.283800
vt 15.673670 1.425150
vt 15.851690 25.283800
vt 15.673670 25.283800
vt 14.993200 1.425150
vt 15.851690 0.000000
vt 14.993200 25.283800
vt 14.872620 25.283800
vt 14.872620 1.425150
vt 13.511690 1.425150
vt 13.511690 25.283800
vt 13.391100 25.283800
vt 13.391100 1.425150
vt 9.988770 1.425150
vt 9.988770 25.283800
vt 9.868181 25.283800
vt 9.868181 1.425150
vt 9.187721 1.425150
vt 9.187721 25.283800
vt 9.067131 25.283800
vt 9.067131 1.425150
vt 8.386671 1.425150
vt 8.386671 25.283800
vt 8.266080 25.283800
vt 8.266080 1.425150
vt 7.585610 25.283800
vt 7.465020 25.283800
vt 7.585610 1.425150
vt 7.465020 1.425150
vt 0.000000 0.000000
vt 6.784560 1.425150
vt 6.784560 25.283800
vt 6.663970 25.283800
vt 6.663970 1.425150
vt 5.983500 1.425150
vt 5.983500 25.283800
vt 5.862910 25.283800
vt 5.862910 1.425150
vt 2.460590 1.425150
vt 2.460590 25.283800
vt 2.340000 25.283800
vt 2.340000 1.425150
vt 0.979070 1.425150
vt 0.979070 25.283800
vt 0.858480 25.283800
vt 0.858480 1.425150
vt 0.000000 25.283800
vt 0.178020 1.425150
vt 7.239680 1.425150
vt 7.674710 25.283800
vt 7.239680 25.283800
vt 0.000000 0.000000
vt 0.435030 1.425150
vt 7.674710 0.000000
vt 0.435030 25.283800
vt 0.000000 25.283800
vt 0.178020 25.283800
vn -0.8811 0.4729 0.0000
vn -0.8811 0.4730 0.0000
vn -0.8810 0.4731 0.0000
vn -0.4719 -0.8817 0.0000
vn -0.4718 -0.8817 0.0000
vn -0.4732 -0.8810 0.0000
vn -0.4732 -0.8809 -0.0000
vn -0.4733 -0.8809 0.0000
vn -0.8812 0.4727 0.0000
vn -0.8813 0.4725 0.0000
vn -0.8814 0.4724 0.0000
vn 0.8812 -0.4727 0.0000
vn 0.8812 -0.4728 0.0000
vn 0.8811 -0.4730 0.0000
vn 0.8813 -0.4725 0.0000
vn 0.8813 -0.4726 0.0000
vn 0.8809 -0.4734 0.0002
vn 0.8811 -0.4728 -0.0000
vn 0.8810 -0.4731 0.0000
vn 0.8810 -0.4730 -0.0006
vn 0.8812 -0.4727 0.0004
vn 0.8812 -0.4727 -0.0006
vn 0.8811 -0.4728 0.0001
vn 0.8814 -0.4724 0.0000
vn 0.8811 -0.4729 0.0000
vn 0.8814 -0.4725 -0.0004
vn 0.8810 -0.4732 -0.0000
vn 0.8815 -0.4723 -0.0000
vn 0.4727 0.8812 0.0000
vn 0.8815 -0.4722 0.0001
vn 0.8815 -0.4722 0.0004
vn 0.8810 -0.4731 0.0006
s off
f 1/1/1 2/2/1 3/3/1
f 4/4/2 5/5/2 1/1/2
f 5/5/1 6/6/1 1/1/1
f 6/6/1 7/7/1 1/1/1
f 2/2/3 1/1/3 7/7/3
f 8/8/1 9/9/1 4/4/1
f 9/9/1 10/10/1 4/4/1
f 10/10/2 5/5/2 4/4/2
f 11/11/4 12/12/4 13/13/4
f 14/14/4 15/15/4 11/11/4
f 12/12/4 11/11/4 15/15/4
f 16/16/4 17/17/4 14/14/4
f 17/17/5 18/18/5 14/14/5
f 18/18/4 15/15/4 14/14/4
f 19/19/6 20/20/6 21/21/6
f 22/22/7 19/19/7 23/23/7
f 22/22/7 24/24/7 19/19/7
f 20/20/6 19/19/6 24/24/6
f 25/25/8 26/26/8 23/23/8
f 27/27/9 28/28/9 29/29/9
f 30/30/10 27/27/10 31/31/10
f 30/30/10 32/32/10 27/27/10
f 28/28/10 27/27/10 32/32/10
f 33/33/11 34/34/11 31/31/11
f 34/34/11 30/30/11 31/31/11
f 35/35/12 36/36/12 37/37/12
f 38/38/13 39/39/13 35/35/13
f 36/36/14 35/35/14 39/39/14
f 40/40/15 41/41/15 38/38/15
f 41/41/13 42/42/13 38/38/13
f 42/42/13 43/43/13 39/39/13
f 44/44/13 45/45/13 43/43/13
f 45/45/16 46/46/16 43/43/16
f 43/43/17 46/46/17 39/39/17
f 46/46/13 47/47/13 39/39/13
f 48/48/15 49/49/15 47/47/15
f 49/49/13 50/50/13 47/47/13
f 50/50/18 51/51/18 39/39/18
f 52/52/19 53/53/19 51/51/19
f 53/53/16 54/54/16 51/51/16
f 51/51/20 54/54/20 39/39/20
f 54/54/13 55/55/13 39/39/13
f 56/56/13 57/57/13 55/55/13
f 57/57/16 58/58/16 55/55/16
f 55/55/21 58/58/21 39/39/21
f 60/59/16 61/60/16 59/61/16
f 61/60/13 62/62/13 59/61/13
f 62/62/22 63/63/22 59/61/22
f 59/61/13 63/63/13 39/39/13
f 64/64/23 63/63/23 62/62/23
f 65/65/24 66/66/24 64/64/24
f 66/66/14 67/67/14 64/64/14
f 68/68/23 63/63/23 67/67/23
f 69/69/25 70/70/25 68/68/25
f 70/70/16 71/71/16 68/68/16
f 71/71/26 63/63/26 68/68/26
f 72/72/13 63/63/13 71/71/13
f 73/73/16 74/74/16 72/72/16
f 74/74/25 75/75/25 72/72/25
f 75/75/27 63/63/27 72/72/27
f 76/76/13 63/63/13 75/75/13
f 77/77/25 78/78/25 76/76/25
f 78/78/16 79/79/16 76/76/16
f 79/79/28 63/63/28 76/76/28
f 82/80/27 63/63/27 80/81/27
f 83/82/29 84/83/29 85/84/29
f 86/85/29 83/82/29 87/86/29
f 86/85/29 88/87/29 83/82/29
f 89/88/29 90/89/29 87/86/29
s 1
f 26/26/7 22/22/7 23/23/7
f 42/42/30 39/39/30 38/38/30
f 47/47/31 50/50/31 39/39/31
f 58/58/13 59/61/13 39/39/13
f 67/67/32 63/63/32 64/64/32
f 80/81/13 63/63/13 79/79/13
f 81/90/12 82/80/12 80/81/12
f 84/83/29 83/82/29 88/87/29
f 90/89/29 86/85/29 87/86/29
