# Blender v3.0.1 OBJ File: 'rockerfeller_plaza.blend'
# www.blender.org
o geometryt000010000010000110010110000110000110100100000010st153
v 682.543091 -283.954071 929.956238
v 700.835999 -250.412079 929.956238
v 687.318176 -286.562988 929.956238
v 703.006165 -258.008972 929.956238
v 709.382202 -280.327881 929.956238
v 707.917175 -290.086792 929.956238
v 709.698242 -298.759064 929.956238
v 708.245178 -291.684174 929.956238
v 703.199890 -257.656586 929.956238
v 725.894287 -270.026489 929.956238
v 734.338013 -268.673584 929.956238
v 710.714966 -284.993378 929.956238
v 712.955688 -292.836884 929.956238
v 713.993591 -279.024780 929.956238
v 719.346558 -281.948883 929.956238
v 719.830994 -295.265991 929.956238
v 719.219360 -296.394379 929.956238
v 700.835999 -250.412079 1011.856201
v 682.543091 -283.954071 1011.856201
v 687.318176 -286.562988 1011.856201
v 703.006165 -258.008972 1011.856201
v 709.698242 -298.759064 1011.856201
v 708.245178 -291.684174 1011.856201
v 703.199890 -257.656586 1011.856201
v 725.894287 -270.026489 1011.856201
v 734.338013 -268.673584 1011.856201
v 709.382202 -280.327881 1011.856201
v 713.993591 -279.024780 1011.856201
v 712.955688 -292.836884 1011.856201
v 710.714966 -284.993378 1011.856201
v 707.917175 -290.086792 1011.856201
v 719.346558 -281.948883 1011.856201
v 719.219360 -296.394379 1011.856201
v 719.830994 -295.265991 1011.856201
vt 0.460760 0.347760
vt 0.393920 0.385410
vt 0.463990 0.357320
vt 0.407050 0.389610
vt 0.445630 0.401930
vt 0.463860 0.398750
vt 0.479070 0.402140
vt 0.466660 0.399380
vt 0.406350 0.390010
vt 0.421640 0.435450
vt 0.416490 0.452500
vt 0.453700 0.404510
vt 0.467260 0.408840
vt 0.441800 0.411260
vt 0.445410 0.421980
vt 0.469490 0.422640
vt 0.471740 0.421380
vt 0.393920 0.385410
vt 0.460760 0.347760
vt 0.463990 0.357320
vt 0.407050 0.389610
vt 0.479070 0.402140
vt 0.466660 0.399380
vt 0.406350 0.390010
vt 0.421640 0.435450
vt 0.416490 0.452500
vt 0.445630 0.401930
vt 0.441800 0.411260
vt 0.467260 0.408840
vt 0.453700 0.404510
vt 0.463860 0.398750
vt 0.445410 0.421980
vt 0.471740 0.421380
vt 0.469490 0.422640
vn 0.0000 0.0000 -1.0000
vn -0.0001 0.0000 -1.0000
vn 0.0006 0.0000 -1.0000
vn -0.0000 0.0000 1.0000
s off
f 1/1/1 2/2/1 3/3/1
f 4/4/1 3/3/1 2/2/1
f 5/5/1 3/3/1 4/4/1
f 3/3/1 5/5/1 6/6/1
f 7/7/1 3/3/1 8/8/1
f 2/2/2 9/9/2 4/4/2
f 9/9/1 2/2/1 10/10/1
f 2/2/1 11/11/1 10/10/1
f 6/6/1 5/5/1 12/12/1
f 13/13/1 6/6/1 12/12/1
f 13/13/1 7/7/1 8/8/1
f 12/12/1 14/14/1 13/13/1
f 14/14/1 15/15/1 13/13/1
f 13/13/1 16/16/1 17/17/1
f 15/15/1 11/11/1 13/13/1
f 11/11/1 16/16/1 13/13/1
f 10/10/1 11/11/1 15/15/1
f 8/8/1 3/3/1 6/6/1
f 4/4/3 9/9/3 5/5/3
f 5/5/1 9/9/1 14/14/1
f 9/9/1 10/10/1 14/14/1
f 6/6/1 13/13/1 8/8/1
f 12/12/1 5/5/1 14/14/1
f 14/14/1 10/10/1 15/15/1
f 18/18/4 19/19/4 20/20/4
f 20/20/4 21/21/4 18/18/4
f 20/20/4 22/22/4 23/23/4
f 18/18/4 21/21/4 24/24/4
f 24/24/4 25/25/4 18/18/4
f 25/25/4 26/26/4 18/18/4
f 24/24/4 21/21/4 27/27/4
f 27/27/4 28/28/4 24/24/4
f 29/29/4 30/30/4 31/31/4
f 22/22/4 29/29/4 23/23/4
f 30/30/4 28/28/4 27/27/4
f 29/29/4 28/28/4 30/30/4
f 28/28/4 29/29/4 32/32/4
f 33/33/4 34/34/4 29/29/4
f 32/32/4 29/29/4 26/26/4
f 34/34/4 26/26/4 29/29/4
f 25/25/4 32/32/4 26/26/4
f 20/20/4 27/27/4 21/21/4
f 23/23/4 31/31/4 20/20/4
f 27/27/4 20/20/4 31/31/4
f 25/25/4 24/24/4 28/28/4
f 29/29/4 31/31/4 23/23/4
f 30/30/4 27/27/4 31/31/4
f 25/25/4 28/28/4 32/32/4
