# Blender v3.0.1 OBJ File: 'rockerfeller_plaza.blend'
# www.blender.org
o geometryt000010000010000110010110000110000110100100000010st9
v 576.793579 -253.032074 952.259216
v 576.793579 -253.032074 931.345093
v 580.999390 -255.282684 931.345093
v 580.999390 -255.282684 952.259216
v 577.617432 -249.134872 931.345093
v 576.106262 -251.932983 931.345093
v 576.106262 -251.932983 952.259216
v 577.617432 -249.134872 952.259216
v 580.560974 -243.646179 952.259216
v 581.037476 -242.753876 931.345093
v 578.790344 -246.961578 931.345093
v 581.037476 -242.753876 952.259216
v 578.790344 -246.961578 952.259216
v 584.041260 -237.129578 931.345093
v 581.794067 -241.337280 931.345093
v 581.794067 -241.337280 952.259216
v 584.041260 -237.129578 952.259216
v 585.527344 -234.346985 952.259216
v 587.045044 -231.505280 931.345093
v 584.797852 -235.712982 931.345093
v 587.045044 -231.505280 952.259216
v 584.797852 -235.712982 952.259216
v 590.048767 -225.880981 931.345093
v 587.801575 -230.088684 931.345093
v 587.801575 -230.088684 952.259216
v 590.048767 -225.880981 952.259216
v 582.343628 -255.162781 931.345093
v 583.096924 -253.762482 931.345093
v 583.096924 -253.762482 952.259216
v 582.343628 -255.162781 952.259216
v 583.647339 -252.730881 931.345093
v 584.387573 -251.323578 931.345093
v 584.387573 -251.323578 952.259216
v 583.647339 -252.730881 952.259216
v 584.835205 -250.482285 952.259216
v 584.835205 -250.482285 931.345093
v 585.587402 -249.081375 931.345093
v 585.587402 -249.081375 952.259216
v 585.999512 -248.316574 931.345093
v 587.514099 -245.520279 931.345093
v 587.514099 -245.520279 952.259216
v 585.999512 -248.316574 952.259216
v 588.834290 -243.083084 931.345093
v 590.348938 -240.286774 931.345093
v 590.348938 -240.286774 952.259216
v 588.834290 -243.083084 952.259216
v 591.916016 -226.490479 952.259216
v 591.916016 -226.490479 931.345093
v 590.514648 -225.739273 931.345093
v 590.514648 -225.739273 952.259216
v 592.851074 -226.991684 952.259216
v 594.024475 -227.620575 931.345093
v 592.623047 -226.869385 931.345093
v 594.024475 -227.620575 952.259216
v 592.623047 -226.869385 952.259216
v 596.132874 -228.750778 931.345093
v 594.731445 -227.999573 931.345093
v 594.731445 -227.999573 952.259216
v 596.132874 -228.750778 952.259216
v 590.831543 -239.390381 952.259216
v 590.831543 -239.390381 931.345093
v 592.335205 -236.588181 931.345093
v 592.335205 -236.588181 952.259216
v 592.816040 -235.690781 931.345093
v 593.565369 -234.288376 931.345093
v 593.565369 -234.288376 952.259216
v 592.816040 -235.690781 952.259216
v 594.170959 -233.154877 952.259216
v 594.170959 -233.154877 931.345093
v 594.920288 -231.752380 931.345093
v 594.920288 -231.752380 952.259216
v 595.525879 -230.618973 952.259216
v 595.525879 -230.618973 931.345093
v 596.275208 -229.216476 931.345093
v 596.275208 -229.216476 952.259216
vt 0.000000 1.250000
vt 0.000000 0.000000
vt 1.000000 0.000000
vt 1.000000 1.250000
vt 0.000000 0.000000
vt 0.666670 0.000000
vt 0.666670 1.250000
vt 0.000000 1.250000
vt 0.212050 1.250000
vt 0.000000 0.000000
vt 1.000000 0.000000
vt 0.000000 1.250000
vt 1.000000 1.250000
vt 0.000000 0.000000
vt 1.000000 0.000000
vt 1.000000 1.250000
vt 0.000000 1.250000
vt 0.675360 1.250000
vt 0.000000 0.000000
vt 1.000000 0.000000
vt 0.000000 1.250000
vt 1.000000 1.250000
vt 0.000000 0.000000
vt 1.000000 0.000000
vt 1.000000 1.250000
vt 0.000000 1.250000
vt 0.000000 0.000000
vt 0.333330 0.000000
vt 0.333330 1.250000
vt 0.000000 1.250000
vt 0.000000 0.000000
vt 0.333330 0.000000
vt 0.333330 1.250000
vt 0.000000 1.250000
vt 0.000000 1.250000
vt 0.000000 0.000000
vt 0.333330 0.000000
vt 0.333330 1.250000
vt 0.000000 0.000000
vt 0.666670 0.000000
vt 0.666670 1.250000
vt 0.000000 1.250000
vt 0.000000 1.250000
vt 0.000000 0.000000
vt 0.333330 0.000000
vt 0.333330 1.250000
vt 0.279090 1.250000
vt 0.000000 0.000000
vt 0.333330 0.000000
vt 0.000000 1.250000
vt 0.000000 1.250000
vt 0.000000 0.000000
vt 0.666670 0.000000
vt 0.666670 1.250000
vt 0.000000 0.000000
vt 0.333330 0.000000
vt 0.333330 1.250000
vt 0.000000 1.250000
vt 0.000000 1.250000
vt 0.000000 0.000000
vt 0.333330 0.000000
vt 0.333330 1.250000
vt 0.000000 1.250000
vt 0.000000 0.000000
vt 0.333330 0.000000
vt 0.333330 1.250000
vt 0.000000 0.000000
vt 0.666670 0.000000
vt 0.666670 1.250000
vt 0.000000 1.250000
vt 0.333330 1.250000
vt 0.000000 0.000000
vt 0.333330 0.000000
vt 0.333330 1.250000
vt 0.000000 1.250000
vn -0.4718 -0.8817 0.0000
vn -0.8799 0.4752 0.0000
vn -0.8821 0.4711 0.0000
vn 0.8807 -0.4737 0.0000
vn 0.8850 -0.4655 0.0000
vn 0.8810 -0.4731 0.0000
vn 0.8810 -0.4730 0.0000
vn 0.8793 -0.4763 0.0000
vn 0.4725 0.8813 0.0000
vn 0.4724 0.8814 0.0000
vn 0.8811 -0.4728 0.0000
vn 0.8812 -0.4728 0.0000
vn 0.8820 -0.4713 0.0000
vn 0.8820 -0.4712 0.0000
vn 0.4723 0.8814 -0.0000
s off
f 1/1/1 2/2/1 3/3/1
f 1/1/1 3/3/1 4/4/1
f 5/5/2 6/6/2 7/7/2
f 8/8/2 5/5/2 7/7/2
f 9/9/3 10/10/3 11/11/3
f 12/12/3 10/10/3 9/9/3
f 9/9/3 11/11/3 13/13/3
f 14/14/3 15/15/3 16/16/3
f 17/17/3 14/14/3 16/16/3
f 18/18/3 19/19/3 20/20/3
f 21/21/3 19/19/3 18/18/3
f 18/18/3 20/20/3 22/22/3
f 23/23/3 24/24/3 25/25/3
f 26/26/3 23/23/3 25/25/3
f 27/27/4 28/28/4 29/29/4
f 30/30/4 27/27/4 29/29/4
f 31/31/5 32/32/5 33/33/5
f 34/34/5 31/31/5 33/33/5
f 35/35/6 36/36/6 37/37/6
f 35/35/7 37/37/7 38/38/7
f 43/39/8 44/40/8 45/41/8
f 46/42/8 43/39/8 45/41/8
f 47/43/9 48/44/9 49/45/9
f 47/43/10 49/45/10 50/46/10
f 51/47/10 52/48/10 53/49/10
f 54/50/10 52/48/10 51/47/10
f 60/51/11 61/52/11 62/53/11
f 60/51/12 62/53/12 63/54/12
f 64/55/13 65/56/13 66/57/13
f 67/58/13 64/55/13 66/57/13
f 68/59/13 69/60/13 70/61/13
f 68/59/14 70/61/14 71/62/14
f 72/63/14 73/64/14 74/65/14
f 72/63/14 74/65/14 75/66/14
s 1
f 39/67/8 40/68/8 41/69/8
f 42/70/8 39/67/8 41/69/8
f 51/47/15 53/49/15 55/71/15
f 56/72/10 57/73/10 58/74/10
f 59/75/10 56/72/10 58/74/10
