# Blender v3.0.1 OBJ File: 'rockerfeller_plaza.blend'
# www.blender.org
o geometryt000010000010000110010110000110000110100000100100st33
v 411.740906 -259.702515 650.472412
v 411.740906 -259.702515 612.612122
v 409.076691 -264.636108 612.612122
v 409.076691 -264.636108 650.472412
v 417.641479 -248.775330 612.612122
v 414.977295 -253.709030 612.612122
v 414.977295 -253.709030 650.472412
v 417.641479 -248.775330 650.472412
v 409.216309 -265.103699 650.472412
v 409.216309 -265.103699 612.612122
v 410.860504 -265.992401 612.612122
v 410.860504 -265.992401 650.472412
v 411.716797 -266.455322 650.472412
v 411.716797 -266.455322 612.612122
v 413.361084 -267.343903 612.612122
v 413.361084 -267.343903 650.472412
v 414.217407 -267.806793 612.612122
v 415.861603 -268.695496 612.612122
v 415.861603 -268.695496 650.472412
v 414.217407 -267.806793 650.472412
v 416.718018 -269.158295 612.612122
v 418.362183 -270.046997 612.612122
v 418.362183 -270.046997 650.472412
v 416.718018 -269.158295 650.472412
v 416.606018 -247.830322 612.612122
v 417.501221 -248.309021 612.612122
v 417.501221 -248.309021 650.472412
v 416.606018 -247.830322 650.472412
v 417.354675 -245.720016 612.612122
v 416.465881 -247.364120 612.612122
v 416.465881 -247.364120 650.472412
v 417.354675 -245.720016 650.472412
v 418.866089 -242.924118 612.612122
v 417.977295 -244.568222 612.612122
v 417.977295 -244.568222 650.472412
v 418.866089 -242.924118 650.472412
v 420.377502 -240.128128 650.472412
v 420.377502 -240.128128 612.612122
v 419.488708 -241.772324 612.612122
v 419.488708 -241.772324 650.472412
v 418.830017 -269.907715 612.612122
v 419.720398 -268.264404 612.612122
v 419.720398 -268.264404 650.472412
v 418.830017 -269.907715 650.472412
v 420.368713 -267.067596 650.472412
v 420.368713 -267.067596 612.612122
v 421.259094 -265.424316 612.612122
v 421.259094 -265.424316 650.472412
v 421.907501 -264.227509 612.612122
v 422.797791 -262.584198 612.612122
v 422.797791 -262.584198 650.472412
v 421.907501 -264.227509 650.472412
v 423.446198 -261.387421 650.472412
v 423.446198 -261.387421 612.612122
v 424.336487 -259.744110 612.612122
v 424.336487 -259.744110 650.472412
v 422.487610 -240.880630 650.472412
v 422.487610 -240.880630 612.612122
v 420.844788 -239.989227 612.612122
v 420.844788 -239.989227 650.472412
v 425.470276 -242.499130 612.612122
v 423.827576 -241.607727 612.612122
v 423.827576 -241.607727 650.472412
v 425.470276 -242.499130 650.472412
v 428.453094 -244.117722 612.612122
v 426.810303 -243.226318 612.612122
v 426.810303 -243.226318 650.472412
v 428.453094 -244.117722 650.472412
v 431.435791 -245.736221 612.612122
v 429.793091 -244.844818 612.612122
v 429.793091 -244.844818 650.472412
v 431.435791 -245.736221 650.472412
v 424.647583 -255.493530 650.472412
v 424.647583 -255.493530 612.612122
v 425.535004 -253.848618 612.612122
v 425.535004 -253.848618 650.472412
v 425.370697 -257.087097 650.472412
v 425.370697 -257.087097 612.612122
v 424.448608 -256.589020 612.612122
v 424.448608 -256.589020 650.472412
v 424.663818 -259.136597 650.472412
v 424.663818 -259.136597 612.612122
v 425.511292 -257.555206 612.612122
v 425.511292 -257.555206 650.472412
v 426.341309 -253.080719 612.612122
v 427.246094 -253.568420 612.612122
v 427.246094 -253.568420 650.472412
v 426.341309 -253.080719 650.472412
v 427.712494 -253.427917 650.472412
v 427.712494 -253.427917 612.612122
v 428.594116 -251.779831 612.612122
v 428.594116 -251.779831 650.472412
v 429.203613 -250.640427 650.472412
v 429.203613 -250.640427 612.612122
v 430.085205 -248.992416 612.612122
v 430.085205 -248.992416 650.472412
v 430.694702 -247.853027 612.612122
v 431.576294 -246.205017 612.612122
v 431.576294 -246.205017 650.472412
v 430.694702 -247.853027 650.472412
vt 0.000000 2.250000
vt 0.000000 0.000000
vt 0.187500 0.000000
vt 0.187500 2.250000
vt 0.000000 0.000000
vt 0.187500 0.000000
vt 0.187500 2.250000
vt 0.000000 2.250000
vt 0.000000 2.250000
vt 0.000000 0.000000
vt 0.062500 0.000000
vt 0.062500 2.250000
vt 0.000000 2.250000
vt 0.000000 0.000000
vt 0.062500 0.000000
vt 0.062500 2.250000
vt 0.000000 0.000000
vt 0.062500 0.000000
vt 0.062500 2.250000
vt 0.000000 2.250000
vt 0.000000 0.000000
vt 0.062500 0.000000
vt 0.062500 2.250000
vt 0.000000 2.250000
vt 0.000000 0.000000
vt 0.062500 0.000000
vt 0.062500 2.250000
vt 0.000000 2.250000
vt 0.000000 0.000000
vt 0.062500 0.000000
vt 0.062500 2.250000
vt 0.000000 2.250000
vt 0.000000 0.000000
vt 0.062500 0.000000
vt 0.062500 2.250000
vt 0.000000 2.250000
vt 0.000000 2.250000
vt 0.000000 0.000000
vt 0.062500 0.000000
vt 0.062500 2.250000
vt 0.000000 0.000000
vt 0.062500 0.000000
vt 0.062500 2.250000
vt 0.000000 2.250000
vt 0.000000 2.250000
vt 0.000000 0.000000
vt 0.062500 0.000000
vt 0.062500 2.250000
vt 0.000000 0.000000
vt 0.062500 0.000000
vt 0.062500 2.250000
vt 0.000000 2.250000
vt 0.000000 2.250000
vt 0.000000 0.000000
vt 0.062500 0.000000
vt 0.062500 2.250000
vt 0.000000 2.250000
vt 0.000000 0.000000
vt 0.062500 0.000000
vt 0.062500 2.250000
vt 0.000000 0.000000
vt 0.062500 0.000000
vt 0.062500 2.250000
vt 0.000000 2.250000
vt 0.000000 0.000000
vt 0.062500 0.000000
vt 0.062500 2.250000
vt 0.000000 2.250000
vt 0.000000 0.000000
vt 0.062500 0.000000
vt 0.062500 2.250000
vt 0.000000 2.250000
vt 0.000000 2.250000
vt 0.000000 0.000000
vt 0.062500 0.000000
vt 0.062500 2.250000
vt 0.000000 0.000000
vt 0.062500 0.000000
vt 0.062500 2.250000
vt 0.000000 2.250000
vt 0.000000 2.250000
vt 0.000000 0.000000
vt 0.062500 0.000000
vt 0.062500 2.250000
vt 0.000000 0.000000
vt 0.062500 0.000000
vt 0.062500 2.250000
vt 0.000000 2.250000
vt 0.000000 2.250000
vt 0.000000 0.000000
vt 0.062500 0.000000
vt 0.062500 2.250000
vt 0.000000 2.250000
vt 0.000000 0.000000
vt 0.062500 0.000000
vt 0.062500 2.250000
vt 0.000000 2.250000
vt 0.000000 0.000000
vt 0.062500 0.000000
vt 0.062500 2.250000
vn -0.8799 0.4751 0.0000
vn -0.8799 0.4752 0.0000
vn -0.4755 -0.8797 0.0000
vn -0.4754 -0.8798 0.0000
vn -0.4716 -0.8818 0.0000
vn -0.8797 0.4756 0.0000
vn -0.8797 0.4755 0.0000
vn 0.8792 -0.4764 0.0000
vn 0.8793 -0.4763 0.0000
vn 0.8793 -0.4764 0.0000
vn 0.4769 0.8789 0.0000
vn 0.4769 0.8790 0.0000
vn 0.4753 0.8798 0.0000
vn -0.4745 -0.8803 0.0000
vn 0.8818 -0.4717 0.0000
vn 0.8801 -0.4748 0.0000
vn 0.8814 -0.4724 0.0000
s off
f 1/1/1 2/2/1 3/3/1
f 1/1/2 3/3/2 4/4/2
f 5/5/1 6/6/1 7/7/1
f 8/8/1 5/5/1 7/7/1
f 9/9/3 10/10/3 11/11/3
f 9/9/3 11/11/3 12/12/3
f 13/13/4 14/14/4 15/15/4
f 13/13/4 15/15/4 16/16/4
f 17/17/3 18/18/3 19/19/3
f 20/20/3 17/17/3 19/19/3
f 21/21/3 22/22/3 23/23/3
f 24/24/3 21/21/3 23/23/3
f 25/25/5 26/26/5 27/27/5
f 28/28/5 25/25/5 27/27/5
f 29/29/6 30/30/6 31/31/6
f 32/32/7 29/29/7 31/31/7
f 33/33/7 34/34/7 35/35/7
f 36/36/6 33/33/6 35/35/6
f 37/37/7 38/38/7 39/39/7
f 37/37/7 39/39/7 40/40/7
f 41/41/8 42/42/8 43/43/8
f 44/44/8 41/41/8 43/43/8
f 45/45/8 46/46/8 47/47/8
f 45/45/8 47/47/8 48/48/8
f 49/49/9 50/50/9 51/51/9
f 52/52/10 49/49/10 51/51/10
f 53/53/8 54/54/8 55/55/8
f 53/53/9 55/55/9 56/56/9
f 57/57/11 58/58/11 59/59/11
f 57/57/12 59/59/12 60/60/12
f 61/61/11 62/62/11 63/63/11
f 64/64/11 61/61/11 63/63/11
f 65/65/11 66/66/11 67/67/11
f 68/68/11 65/65/11 67/67/11
f 69/69/11 70/70/11 71/71/11
f 72/72/11 69/69/11 71/71/11
f 77/73/13 78/74/13 79/75/13
f 77/73/13 79/75/13 80/76/13
f 85/77/14 86/78/14 87/79/14
f 88/80/14 85/77/14 87/79/14
f 89/81/15 90/82/15 91/83/15
f 89/81/15 91/83/15 92/84/15
f 97/85/15 98/86/15 99/87/15
f 100/88/15 97/85/15 99/87/15
s 1
f 73/89/16 74/90/16 75/91/16
f 73/89/16 75/91/16 76/92/16
f 81/93/17 82/94/17 83/95/17
f 81/93/17 83/95/17 84/96/17
f 93/97/15 94/98/15 95/99/15
f 93/97/15 95/99/15 96/100/15
