# Blender v3.0.1 OBJ File: 'rockerfeller_plaza.blend'
# www.blender.org
o geometryt000010000010000110010110000110000110100100000000st4
v 488.904419 -67.209892 888.653076
v 489.598328 -67.584839 904.244019
v 488.904419 -67.209892 904.244019
v 484.127136 -64.628593 887.944031
v 484.821045 -65.003532 888.653076
v 489.598328 -67.584839 887.944031
v 484.821045 -65.003532 904.244019
v 484.127136 -64.628593 904.244019
v 484.290924 -64.324944 888.653076
v 484.127136 -64.628593 904.244019
v 484.290924 -64.324944 904.244019
v 485.025208 -62.963230 888.653076
v 484.127136 -64.628593 887.944031
v 485.025208 -62.963230 904.244019
v 485.321838 -62.413403 904.244019
v 485.321838 -62.413403 888.653076
v 488.259338 -56.966583 888.653076
v 488.259338 -56.966583 904.244019
v 488.555847 -56.416752 904.244019
v 488.555847 -56.416752 888.653076
v 489.290222 -55.055042 888.653076
v 489.290222 -55.055042 904.244019
v 489.586823 -54.505222 904.244019
v 489.586823 -54.505222 888.653076
v 491.055542 -51.781803 888.653076
v 496.515228 -41.658432 887.944031
v 491.055542 -51.781803 904.244019
v 491.352112 -51.231983 904.244019
v 491.352112 -51.231983 888.653076
v 492.086548 -49.870274 888.653076
v 492.086548 -49.870274 904.244019
v 492.383026 -49.320442 904.244019
v 492.383026 -49.320442 888.653076
v 495.320526 -43.873623 888.653076
v 495.320526 -43.873623 904.244019
v 495.617126 -43.323792 904.244019
v 495.617126 -43.323792 888.653076
v 496.351532 -41.962082 888.653076
v 496.351532 -41.962082 904.244019
v 496.515228 -41.658432 904.244019
v 501.831848 -44.918591 888.653076
v 501.995728 -44.614983 904.244019
v 501.831848 -44.918591 904.244019
v 501.097046 -46.280090 888.653076
v 501.995728 -44.614983 887.944031
v 501.097046 -46.280090 904.244019
v 500.800049 -46.830433 904.244019
v 500.800049 -46.830433 888.653076
v 497.861023 -52.276432 888.653076
v 497.383423 -53.161362 887.944031
v 497.861023 -52.276432 904.244019
v 497.563934 -52.826782 904.244019
v 497.563934 -52.826782 888.653076
v 496.829224 -54.188282 888.653076
v 496.829224 -54.188282 904.244019
v 496.532227 -54.738632 904.244019
v 496.532227 -54.738632 888.653076
v 495.062622 -57.461632 888.653076
v 494.428040 -58.637642 887.944031
v 495.062622 -57.461632 904.244019
v 494.765625 -58.011971 904.244019
v 494.765625 -58.011971 888.653076
v 494.030945 -59.373482 888.653076
v 494.030945 -59.373482 904.244019
v 493.733826 -59.923820 904.244019
v 493.733826 -59.923820 888.653076
v 490.794830 -65.369827 888.653076
v 490.794830 -65.369827 904.244019
v 490.497833 -65.920174 904.244019
v 490.497833 -65.920174 888.653076
v 489.599243 -67.585289 887.944031
v 489.763031 -67.281677 888.653076
v 489.763031 -67.281677 904.244019
v 489.599243 -67.585289 904.244019
v 497.212646 -42.034660 888.653076
v 496.515228 -41.658432 904.244019
v 497.212646 -42.034660 904.244019
v 501.297546 -44.238323 888.653076
v 496.515228 -41.658432 887.944031
v 501.297546 -44.238323 904.244019
v 501.994934 -44.614552 904.244019
v 501.994934 -44.614552 887.944031
vt 6.358410 0.830230
vt 7.281980 19.086651
vt 6.358410 19.086651
vt 0.000000 0.000000
vt 0.923570 0.830230
vt 7.281980 0.000000
vt 0.923570 19.086651
vt 0.000000 19.086651
vt 30.155479 0.830230
vt 30.559460 19.086651
vt 30.155479 19.086651
vt 28.343870 0.830230
vt 30.559460 0.000000
vt 28.343870 19.086651
vt 27.612379 19.086651
vt 27.612379 0.830230
vt 20.365931 0.830230
vt 20.365931 19.086651
vt 19.634451 19.086651
vt 19.634451 0.830230
vt 17.822830 0.830230
vt 17.822830 19.086651
vt 17.091339 19.086651
vt 17.091339 0.830230
vt 13.468120 0.830230
vt 0.000000 0.000000
vt 13.468120 19.086651
vt 12.736630 19.086651
vt 12.736630 0.830230
vt 10.925020 0.830230
vt 10.925020 19.086651
vt 10.193530 19.086651
vt 10.193530 0.830230
vt 2.947080 0.830230
vt 2.947080 19.086651
vt 2.215590 19.086651
vt 2.215590 0.830230
vt 0.403980 0.830230
vt 0.403980 19.086651
vt 0.000000 19.086651
vt 30.160280 0.830230
vt 30.564260 19.086651
vt 30.160280 19.086651
vt 28.348669 0.830230
vt 30.564260 0.000000
vt 28.348669 19.086651
vt 27.616381 19.086651
vt 27.616381 0.830230
vt 20.369930 0.830230
vt 19.192450 0.000000
vt 20.369930 19.086651
vt 19.637640 19.086651
vt 19.637640 0.830230
vt 17.826031 0.830230
vt 17.826031 19.086651
vt 17.093740 19.086651
vt 17.093740 0.830230
vt 13.470520 0.830230
vt 11.905720 0.000000
vt 13.470520 19.086651
vt 12.738230 19.086651
vt 12.738230 0.830230
vt 10.926620 0.830230
vt 10.926620 19.086651
vt 10.194330 19.086651
vt 10.194330 0.830230
vt 2.947880 0.830230
vt 2.947880 19.086651
vt 2.215590 19.086651
vt 2.215590 0.830230
vt 0.000000 0.000000
vt 0.403980 0.830230
vt 0.403980 19.086651
vt 0.000000 19.086651
vt 6.362720 0.830230
vt 7.290600 19.086651
vt 6.362720 19.086651
vt 0.927880 0.830230
vt 7.290600 0.000000
vt 0.927880 19.086651
vt 0.000000 19.086651
vt 0.000000 0.000000
vn -0.4754 -0.8798 0.0000
vn -0.4753 -0.8798 -0.0000
vn -0.8802 0.4746 0.0000
vn -0.8802 0.4746 0.0001
vn -0.8801 0.4748 0.0000
vn -0.8800 0.4750 -0.0005
vn -0.8801 0.4747 0.0000
vn -0.8802 0.4747 0.0000
vn -0.8801 0.4748 0.0003
vn -0.8800 0.4749 -0.0004
vn -0.8802 0.4746 0.0003
vn -0.8800 0.4750 0.0005
vn -0.8800 0.4749 0.0003
vn -0.8802 0.4747 0.0001
vn -0.8803 0.4745 0.0000
vn 0.8799 -0.4751 0.0000
vn 0.8800 -0.4749 0.0000
vn 0.8800 -0.4750 0.0000
vn 0.8801 -0.4749 0.0000
vn 0.8800 -0.4750 0.0001
vn 0.8800 -0.4749 0.0001
vn 0.8801 -0.4748 -0.0000
vn 0.8799 -0.4751 0.0001
vn 0.8799 -0.4752 -0.0002
vn 0.8802 -0.4747 0.0000
vn 0.4748 0.8801 0.0000
vn -0.8805 0.4740 0.0004
vn -0.8806 0.4739 -0.0023
vn -0.8801 0.4748 -0.0009
s off
f 1/1/1 2/2/1 3/3/1
f 4/4/2 1/1/2 5/5/2
f 4/4/1 6/6/1 1/1/1
f 2/2/1 1/1/1 6/6/1
f 7/7/1 8/8/1 5/5/1
f 8/8/1 4/4/1 5/5/1
f 9/9/3 10/10/3 11/11/3
f 12/12/4 13/13/4 9/9/4
f 10/10/5 9/9/5 13/13/5
f 14/14/5 15/15/5 12/12/5
f 15/15/5 16/16/5 12/12/5
f 16/16/6 13/13/6 12/12/6
f 16/16/7 17/17/7 13/13/7
f 18/18/8 19/19/8 17/17/8
f 19/19/3 20/20/3 17/17/3
f 17/17/9 20/20/9 13/13/9
f 20/20/10 21/21/10 13/13/10
f 22/22/5 23/23/5 21/21/5
f 23/23/5 24/24/5 21/21/5
f 25/25/11 26/26/11 24/24/11
f 24/24/3 26/26/3 13/13/3
f 27/27/5 28/28/5 25/25/5
f 28/28/5 29/29/5 25/25/5
f 30/30/12 26/26/12 29/29/12
f 31/31/8 32/32/8 30/30/8
f 32/32/3 33/33/3 30/30/3
f 34/34/7 26/26/7 33/33/7
f 35/35/7 36/36/7 34/34/7
f 36/36/5 37/37/5 34/34/5
f 37/37/13 26/26/13 34/34/13
f 38/38/14 26/26/14 37/37/14
f 39/39/15 40/40/15 38/38/15
f 40/40/3 26/26/3 38/38/3
f 41/41/16 42/42/16 43/43/16
f 44/44/17 45/45/17 41/41/17
f 42/42/18 41/41/18 45/45/18
f 46/46/17 47/47/17 44/44/17
f 47/47/19 48/48/19 44/44/19
f 44/44/20 48/48/20 45/45/20
f 48/48/19 49/49/19 50/50/19
f 45/45/21 48/48/21 50/50/21
f 51/51/16 52/52/16 49/49/16
f 52/52/17 53/53/17 49/49/17
f 50/50/22 49/49/22 53/53/22
f 50/50/21 53/53/21 54/54/21
f 55/55/19 56/56/19 54/54/19
f 56/56/17 57/57/17 54/54/17
f 50/50/18 54/54/18 57/57/18
f 57/57/21 58/58/21 59/59/21
f 50/50/17 57/57/17 59/59/17
f 60/60/19 61/61/19 58/58/19
f 61/61/17 62/62/17 58/58/17
f 58/58/23 62/62/23 59/59/23
f 62/62/18 63/63/18 59/59/18
f 64/64/16 65/65/16 63/63/16
f 65/65/16 66/66/16 63/63/16
f 63/63/24 66/66/24 59/59/24
f 66/66/21 67/67/21 59/59/21
f 68/68/17 69/69/17 67/67/17
f 69/69/17 70/70/17 67/67/17
f 70/70/16 71/71/16 67/67/16
f 67/67/22 71/71/22 59/59/22
f 72/72/21 71/71/21 70/70/21
f 73/73/25 74/74/25 72/72/25
f 74/74/22 71/71/22 72/72/22
f 75/75/26 76/76/26 77/77/26
f 78/78/26 79/79/26 75/75/26
f 76/76/26 75/75/26 79/79/26
f 80/80/26 81/81/26 78/78/26
f 81/81/26 82/82/26 78/78/26
f 82/82/26 79/79/26 78/78/26
s 1
f 21/21/27 24/24/27 13/13/27
f 29/29/28 26/26/28 25/25/28
f 33/33/29 26/26/29 30/30/29
