# Blender v3.0.1 OBJ File: 'rockerfeller_plaza.blend'
# www.blender.org
o geometryt000010000010000110010110000110000110100000100110st35
v 739.347046 -310.966309 656.314087
v 725.934570 -335.802917 656.314087
v 718.687439 -331.879517 656.314087
v 732.100098 -307.054016 656.314087
v 739.347046 -310.966309 675.314087
v 732.100098 -307.054016 675.314087
v 718.687439 -331.879517 675.314087
v 725.934570 -335.802917 675.314087
vt 0.490850 0.468070
vt 0.540310 0.440460
vt 0.535480 0.425940
vt 0.486040 0.453560
vt 0.490850 0.468070
vt 0.486040 0.453560
vt 0.535480 0.425940
vt 0.540310 0.440460
vn 0.0000 0.0000 -1.0000
vn 0.0000 0.0000 1.0000
s off
f 1/1/1 2/2/1 3/3/1
f 4/4/1 1/1/1 3/3/1
f 5/5/2 6/6/2 7/7/2
f 5/5/2 7/7/2 8/8/2
