# Blender v3.0.1 OBJ File: 'rockerfeller_plaza.blend'
# www.blender.org
o geometryt000010000010000110010110000110000110100000010100st22
v 828.241638 -143.908981 148.317291
v 829.163757 -144.404190 163.120453
v 828.241638 -143.908981 163.120453
v 823.599609 -141.415985 144.220444
v 824.521729 -141.911179 148.317291
v 829.163757 -144.404190 144.220444
v 824.521729 -141.911179 163.120453
v 823.599609 -141.415985 163.120453
v 823.763000 -141.112183 148.317291
v 823.599609 -141.415985 163.120453
v 823.763000 -141.112183 163.120453
v 825.096069 -138.632889 148.317291
v 823.599609 -141.415985 144.220444
v 825.096069 -138.632889 163.120453
v 825.179749 -138.477188 163.120453
v 825.179749 -138.477188 148.317291
v 826.512756 -135.997879 148.317291
v 826.512756 -135.997879 163.120453
v 826.596497 -135.842178 163.120453
v 826.596497 -135.842178 148.317291
v 828.596069 -132.123291 148.317291
v 828.596069 -132.123291 163.120453
v 828.679749 -131.967590 163.120453
v 828.679749 -131.967590 148.317291
v 829.346252 -130.727982 148.317291
v 829.346252 -130.727982 163.120453
v 829.429932 -130.572281 163.120453
v 829.429932 -130.572281 148.317291
v 832.096069 -125.613686 148.317291
v 837.926392 -114.769882 144.220444
v 832.096069 -125.613686 163.120453
v 832.179749 -125.457985 163.120453
v 832.179749 -125.457985 148.317291
v 832.846252 -124.218384 148.317291
v 832.846252 -124.218384 163.120453
v 832.929993 -124.062683 163.120453
v 832.929993 -124.062683 148.317291
v 834.929565 -120.343681 148.317291
v 834.929565 -120.343681 163.120453
v 835.013245 -120.188087 163.120453
v 835.013245 -120.188087 148.317291
v 836.346252 -117.708786 148.317291
v 836.346252 -117.708786 163.120453
v 836.429993 -117.553085 163.120453
v 836.429993 -117.553085 148.317291
v 837.763000 -115.073784 148.317291
v 837.763000 -115.073784 163.120453
v 837.926392 -114.769882 163.120453
v 843.327209 -118.073082 148.317291
v 843.490601 -117.769188 163.120453
v 843.327209 -118.073082 163.120453
v 841.993713 -120.552086 148.317291
v 843.490601 -117.769188 144.220444
v 841.993713 -120.552086 163.120453
v 841.827209 -120.861687 163.120453
v 841.827209 -120.861687 148.317291
v 840.493713 -123.340683 148.317291
v 840.493713 -123.340683 163.120453
v 840.327271 -123.650284 163.120453
v 840.327271 -123.650284 148.317291
v 838.327026 -127.368881 148.317291
v 838.327026 -127.368881 163.120453
v 838.160522 -127.678383 163.120453
v 838.160522 -127.678383 148.317291
v 837.493774 -128.917877 148.317291
v 837.493774 -128.917877 163.120453
v 837.327271 -129.227386 163.120453
v 837.327271 -129.227386 148.317291
v 835.327087 -132.945984 148.317291
v 829.163757 -144.404190 144.220444
v 835.327087 -132.945984 163.120453
v 835.160583 -133.255585 163.120453
v 835.160583 -133.255585 148.317291
v 834.493835 -134.495087 148.317291
v 834.493835 -134.495087 163.120453
v 834.327332 -134.804581 163.120453
v 834.327332 -134.804581 148.317291
v 832.327148 -138.523178 148.317291
v 832.327148 -138.523178 163.120453
v 832.160645 -138.832687 163.120453
v 832.160645 -138.832687 148.317291
v 830.827148 -141.311783 148.317291
v 830.827148 -141.311783 163.120453
v 830.660645 -141.621292 163.120453
v 830.660645 -141.621292 148.317291
v 829.327148 -144.100388 148.317291
v 829.327148 -144.100388 163.120453
v 829.163757 -144.404190 163.120453
v 838.230591 -114.933884 148.317291
v 837.926392 -114.769882 163.120453
v 838.230591 -114.933884 163.120453
v 843.490601 -117.769188 144.220444
v 843.186401 -117.605286 148.317291
v 837.926392 -114.769882 144.220444
v 843.186401 -117.605286 163.120453
v 843.490601 -117.769188 163.120453
vt 6.169900 4.797250
vt 7.395500 22.131149
vt 6.169900 22.131149
vt 0.000000 0.000000
vt 1.225590 4.797250
vt 7.395500 0.000000
vt 1.225590 22.131149
vt 0.000000 22.131149
vt 35.021591 4.797250
vt 35.425571 22.131149
vt 35.021591 22.131149
vt 31.725380 4.797250
vt 35.425571 0.000000
vt 31.725380 22.131149
vt 31.518440 22.131149
vt 31.518440 4.797250
vt 28.222231 4.797250
vt 28.222231 22.131149
vt 28.015289 22.131149
vt 28.015289 4.797250
vt 23.070980 4.797250
vt 23.070980 22.131149
vt 22.864040 22.131149
vt 22.864040 4.797250
vt 21.215940 4.797250
vt 21.215940 22.131149
vt 21.009001 22.131149
vt 21.009001 4.797250
vt 14.416580 4.797250
vt 0.000000 0.000000
vt 14.416580 22.131149
vt 14.209640 22.131149
vt 14.209640 4.797250
vt 12.561530 4.797250
vt 12.561530 22.131149
vt 12.354590 22.131149
vt 12.354590 4.797250
vt 7.410280 4.797250
vt 7.410280 22.131149
vt 7.203340 22.131149
vt 7.203340 4.797250
vt 3.907130 4.797250
vt 3.907130 22.131149
vt 3.700190 22.131149
vt 3.700190 4.797250
vt 0.403980 4.797250
vt 0.403980 22.131149
vt 0.000000 22.131149
vt 35.010220 4.797250
vt 35.414200 22.131149
vt 35.010220 22.131149
vt 31.714010 4.797250
vt 35.414200 0.000000
vt 31.714010 22.131149
vt 31.302481 22.131149
vt 31.302481 4.797250
vt 28.006269 4.797250
vt 28.006269 22.131149
vt 27.594740 22.131149
vt 27.594740 4.797250
vt 22.650431 4.797250
vt 22.650431 22.131149
vt 22.238890 22.131149
vt 22.238890 4.797250
vt 20.590790 4.797250
vt 20.590790 22.131149
vt 20.179260 22.131149
vt 20.179260 4.797250
vt 15.234940 4.797250
vt 0.000000 0.000000
vt 15.234940 22.131149
vt 14.823410 22.131149
vt 14.823410 4.797250
vt 13.175310 4.797250
vt 13.175310 22.131149
vt 12.763770 22.131149
vt 12.763770 4.797250
vt 7.819460 4.797250
vt 7.819460 22.131149
vt 7.407930 22.131149
vt 7.407930 4.797250
vt 4.111720 4.797250
vt 4.111720 22.131149
vt 3.700190 22.131149
vt 3.700190 4.797250
vt 0.403980 4.797250
vt 0.403980 22.131149
vt 0.000000 22.131149
vt 6.997090 4.797250
vt 7.401770 22.131149
vt 6.997090 22.131149
vt 0.000000 0.000000
vt 7.401770 0.000000
vt 0.404680 4.797250
vt 0.404680 22.131149
vt 0.000000 22.131149
vn -0.4731 -0.8810 0.0000
vn -0.8806 0.4738 0.0000
vn -0.8808 0.4736 0.0000
vn -0.8808 0.4735 0.0000
vn -0.8809 0.4733 0.0000
vn -0.8809 0.4734 0.0001
vn -0.8806 0.4739 -0.0002
vn -0.8807 0.4736 -0.0000
vn -0.8812 0.4728 0.0003
vn -0.8805 0.4740 -0.0001
vn -0.8808 0.4734 0.0001
vn -0.8806 0.4738 0.0003
vn -0.8808 0.4734 -0.0003
vn -0.8807 0.4737 0.0000
vn 0.8807 -0.4737 0.0000
vn 0.8808 -0.4734 0.0000
vn 0.8807 -0.4736 0.0000
vn 0.8809 -0.4734 0.0000
vn 0.8807 -0.4737 0.0004
vn 0.8806 -0.4738 0.0000
vn 0.8807 -0.4737 -0.0001
vn 0.8807 -0.4738 0.0000
vn 0.8806 -0.4738 -0.0002
vn 0.8807 -0.4736 -0.0003
vn 0.8806 -0.4738 0.0003
vn 0.8806 -0.4738 0.0001
vn 0.8808 -0.4735 0.0000
vn 0.8806 -0.4739 0.0000
vn 0.4745 0.8803 0.0000
vn 0.4747 0.8802 -0.0000
vn 0.4746 0.8802 0.0000
vn 0.4743 0.8804 0.0000
s off
f 1/1/1 2/2/1 3/3/1
f 4/4/1 1/1/1 5/5/1
f 4/4/1 6/6/1 1/1/1
f 2/2/1 1/1/1 6/6/1
f 7/7/1 8/8/1 5/5/1
f 8/8/1 4/4/1 5/5/1
f 9/9/2 10/10/2 11/11/2
f 12/12/3 13/13/3 9/9/3
f 10/10/4 9/9/4 13/13/4
f 14/14/2 15/15/2 12/12/2
f 15/15/5 16/16/5 12/12/5
f 16/16/6 13/13/6 12/12/6
f 16/16/4 17/17/4 13/13/4
f 18/18/2 19/19/2 17/17/2
f 19/19/5 20/20/5 17/17/5
f 17/17/7 20/20/7 13/13/7
f 20/20/8 21/21/8 13/13/8
f 22/22/5 23/23/5 21/21/5
f 23/23/5 24/24/5 21/21/5
f 21/21/9 24/24/9 13/13/9
f 24/24/3 25/25/3 13/13/3
f 26/26/5 27/27/5 25/25/5
f 27/27/2 28/28/2 25/25/2
f 25/25/10 28/28/10 13/13/10
f 29/29/3 30/30/3 28/28/3
f 28/28/3 30/30/3 13/13/3
f 31/31/2 32/32/2 29/29/2
f 32/32/5 33/33/5 29/29/5
f 33/33/11 30/30/11 29/29/11
f 34/34/4 30/30/4 33/33/4
f 35/35/2 36/36/2 34/34/2
f 36/36/5 37/37/5 34/34/5
f 37/37/12 30/30/12 34/34/12
f 38/38/3 30/30/3 37/37/3
f 39/39/4 40/40/4 38/38/4
f 40/40/4 41/41/4 38/38/4
f 41/41/13 30/30/13 38/38/13
f 42/42/3 30/30/3 41/41/3
f 43/43/2 44/44/2 42/42/2
f 44/44/2 45/45/2 42/42/2
f 45/45/6 30/30/6 42/42/6
f 46/46/3 30/30/3 45/45/3
f 47/47/14 48/48/14 46/46/14
f 48/48/5 30/30/5 46/46/5
f 49/49/15 50/50/15 51/51/15
f 52/52/15 53/53/15 49/49/15
f 50/50/16 49/49/16 53/53/16
f 54/54/15 55/55/15 52/52/15
f 55/55/15 56/56/15 52/52/15
f 56/56/17 53/53/17 52/52/17
f 56/56/15 57/57/15 53/53/15
f 58/58/18 59/59/18 57/57/18
f 59/59/15 60/60/15 57/57/15
f 57/57/19 60/60/19 53/53/19
f 60/60/15 61/61/15 53/53/15
f 62/62/20 63/63/20 61/61/20
f 63/63/20 64/64/20 61/61/20
f 61/61/21 64/64/21 53/53/21
f 64/64/21 65/65/21 53/53/21
f 66/66/22 67/67/22 65/65/22
f 67/67/22 68/68/22 65/65/22
f 65/65/23 68/68/23 53/53/23
f 69/69/15 70/70/15 68/68/15
f 68/68/15 70/70/15 53/53/15
f 71/71/15 72/72/15 69/69/15
f 72/72/18 73/73/18 69/69/18
f 73/73/24 70/70/24 69/69/24
f 74/74/15 70/70/15 73/73/15
f 75/75/20 76/76/20 74/74/20
f 76/76/20 77/77/20 74/74/20
f 77/77/25 70/70/25 74/74/25
f 78/78/15 70/70/15 77/77/15
f 79/79/22 80/80/22 78/78/22
f 80/80/22 81/81/22 78/78/22
f 81/81/26 70/70/26 78/78/26
f 82/82/15 70/70/15 81/81/15
f 83/83/22 84/84/22 82/82/22
f 84/84/22 85/85/22 82/82/22
f 85/85/22 70/70/22 82/82/22
f 86/86/15 70/70/15 85/85/15
f 87/87/27 88/88/27 86/86/27
f 88/88/28 70/70/28 86/86/28
f 89/89/29 90/90/29 91/91/29
f 92/92/29 94/93/29 89/89/29
s 1
f 92/92/29 89/89/29 93/94/30
f 90/90/31 89/89/31 94/93/31
f 95/95/32 96/96/30 93/94/30
f 96/96/30 92/92/29 93/94/30
