# Blender v3.0.1 OBJ File: 'rockerfeller_plaza.blend'
# www.blender.org
o geometryt000010000010000110010110000110000110100100010010st51_7
v 1190.430664 -283.957977 1151.061157
v 1190.430664 -283.957977 1145.661255
v 1190.136841 -284.487274 1145.661255
v 1190.103271 -284.547668 1145.661255
v 1189.878906 -284.951874 1151.061157
v 1189.922363 -284.873474 1145.661255
v 1189.878906 -284.951874 1145.661255
v 1196.567871 -272.905273 1151.061157
v 1196.567871 -272.905273 1145.661255
v 1196.445801 -273.124969 1145.661255
v 1196.433228 -273.147766 1145.661255
v 1196.015991 -273.899170 1145.661255
v 1196.015991 -273.899170 1151.061157
v 1189.878906 -284.951874 1151.061157
v 1189.878906 -284.951874 1145.661255
v 1190.052856 -285.048187 1145.661255
v 1190.608276 -285.355286 1145.661255
v 1190.608276 -285.355286 1151.061157
v 1197.800171 -289.332184 1151.061157
v 1197.800171 -289.332184 1145.661255
v 1198.195923 -289.551086 1145.661255
v 1198.529541 -289.735565 1145.661255
v 1198.529541 -289.735565 1151.061157
v 1197.295288 -273.306671 1151.061157
v 1197.295288 -273.306671 1145.661255
v 1196.901489 -273.089386 1145.661255
v 1196.567871 -272.905273 1145.661255
v 1196.567871 -272.905273 1151.061157
v 1205.218506 -277.677887 1151.061157
v 1205.218506 -277.677887 1145.661255
v 1204.491089 -277.276581 1145.661255
v 1204.491089 -277.276581 1151.061157
v 1198.043945 -303.774475 1059.061279
v 1198.143921 -303.832764 1059.061279
v 1198.043945 -303.774475 1145.661255
v 1198.324463 -303.937775 1145.661255
v 1198.324463 -303.937775 1059.061279
v 1198.324463 -303.937775 1011.061218
v 1201.590210 -298.037476 1059.061279
v 1199.489014 -301.833679 1059.061279
v 1201.590210 -298.037476 1145.661255
v 1198.324463 -303.937775 1059.061279
v 1198.324463 -303.937775 1145.661255
v 1198.799072 -289.871185 1145.661255
v 1198.529541 -289.735565 1151.061157
v 1198.529541 -289.735565 1145.661255
v 1198.809814 -289.876587 1151.061157
v 1198.809814 -289.876587 1145.661255
v 1198.976929 -289.574768 1019.739868
v 1198.976929 -289.574768 1151.061157
v 1198.809814 -289.876587 1059.061279
v 1198.809814 -289.876587 1011.061218
v 1199.770996 -288.141083 1019.739868
v 1198.809814 -289.876587 1145.661255
v 1198.809814 -289.876587 1151.061157
v 1200.273438 -287.233887 1030.995972
v 1200.273438 -287.233887 1151.061157
v 1199.773315 -288.136963 1151.061157
v 1199.773315 -288.136963 1019.760315
v 1201.017700 -285.890076 1030.995972
v 1201.069824 -285.795990 1031.466309
v 1201.848877 -284.389374 1038.500122
v 1201.069824 -285.795990 1038.500122
v 1203.162598 -282.017181 1057.260254
v 1203.162598 -282.017181 1151.061157
v 1202.662476 -282.920288 1151.061157
v 1202.662476 -282.920288 1046.004150
v 1203.926636 -280.637665 1057.260254
v 1201.866089 -284.358185 1038.656128
v 1201.866089 -284.358185 1046.004150
v 1203.958984 -280.579285 1057.552002
v 1204.125977 -280.277466 1059.061279
v 1204.125977 -280.277466 1145.661255
v 1203.958984 -280.579285 1151.061157
v 1204.125977 -280.277466 1151.061157
v 1201.590210 -298.037476 1011.061218
v 1202.506592 -296.392365 1026.660156
v 1201.916992 -297.450867 1026.660156
v 1202.600220 -296.224274 1037.478394
v 1202.600220 -296.224274 1059.114990
v 1202.595703 -296.232178 1059.061279
v 1202.068115 -297.179565 1033.872314
v 1202.600220 -296.224274 1033.872314
v 1203.142090 -295.251373 1037.478394
v 1201.800415 -297.660187 1059.114990
v 1201.800415 -297.660187 1145.661255
v 1201.590210 -298.037476 1145.661255
v 1201.590210 -298.037476 1059.061279
v 1202.600220 -296.224274 1028.253662
v 1203.399902 -294.788391 1041.868774
v 1203.989502 -293.730072 1051.902832
v 1203.399902 -294.788391 1051.902832
v 1204.199707 -293.352478 1145.661255
v 1204.199707 -293.352478 1055.483765
v 1204.409912 -292.975189 1059.061279
v 1204.409912 -292.975189 1145.661255
v 1204.294678 -292.909180 1059.061279
v 1204.086914 -292.790192 1059.061279
v 1204.086914 -292.790192 1145.661255
v 1204.409912 -292.975189 1145.661255
v 1204.409912 -292.975189 1059.061279
v 1204.409912 -292.975189 1011.061218
v 1204.410400 -279.770477 1042.252075
v 1204.410400 -279.770477 1151.061157
v 1204.125977 -280.277466 1059.061279
v 1204.125977 -280.277466 1011.061218
v 1205.018188 -278.687073 1042.252075
v 1204.125977 -280.277466 1145.661255
v 1204.125977 -280.277466 1151.061157
v 1205.214600 -278.336975 1151.061157
v 1205.214600 -278.336975 1049.118408
v 1205.498901 -277.829987 1059.061279
v 1205.498901 -277.829987 1145.661255
v 1205.498901 -277.829987 1151.061157
v 1205.229370 -277.683777 1145.661255
v 1205.218506 -277.677887 1145.661255
v 1205.218506 -277.677887 1151.061157
v 1205.498901 -277.829987 1151.061157
v 1205.498901 -277.829987 1145.661255
v 1206.462646 -276.090485 1145.661255
v 1206.981323 -275.154175 1032.451782
v 1206.981323 -275.154175 1145.661255
v 1206.462646 -276.090485 1020.322205
v 1207.761108 -273.746490 1032.451782
v 1205.498901 -277.829987 1011.061218
v 1205.666138 -277.528290 1020.322205
v 1205.666138 -277.528290 1145.661255
v 1205.498901 -277.829987 1059.061279
v 1205.498901 -277.829987 1145.661255
v 1208.296509 -272.780182 1044.581299
v 1208.296509 -272.780182 1145.661255
v 1207.777832 -273.716492 1145.661255
v 1207.777832 -273.716492 1032.609009
v 1209.044067 -271.430969 1044.581299
v 1209.611694 -270.406189 1056.710938
v 1209.611694 -270.406189 1145.661255
v 1209.093018 -271.342468 1145.661255
v 1209.093018 -271.342468 1045.044678
v 1210.326904 -269.115387 1056.710938
v 1210.408203 -268.968475 1145.661255
v 1210.408203 -268.968475 1057.480347
v 1210.575439 -268.666687 1059.061279
v 1210.575439 -268.666687 1145.661255
v 1210.478394 -268.616364 1059.061279
v 1210.303589 -268.525574 1059.061279
v 1210.303589 -268.525574 1145.661255
v 1210.575439 -268.666687 1145.661255
v 1210.575439 -268.666687 1059.061279
vt 14.046980 5.999990
vt 14.046980 0.000000
vt 14.719610 0.000000
vt 15.310140 5.999990
vt 14.796430 0.000000
vt 15.210480 0.000000
vt 15.310140 0.000000
vt 0.000000 5.999990
vt 0.000000 0.000000
vt 0.279220 0.000000
vt 0.308100 0.000000
vt 1.263160 0.000000
vt 1.263160 5.999990
vt 0.000000 5.999990
vt 0.221040 0.000000
vt 0.926190 5.999990
vt 10.057500 5.999990
vt 10.057500 0.000000
vt 10.560030 0.000000
vt 10.983680 0.000000
vt 10.983680 5.999990
vt 10.054440 5.999990
vt 10.054440 0.000000
vt 10.554160 0.000000
vt 10.977580 0.000000
vt 10.977580 5.999990
vt 0.000000 5.999990
vt 0.000000 0.000000
vt 0.923140 0.000000
vt 0.923140 5.999990
vt 0.128610 0.000000
vt 0.360630 96.222229
vt 0.000000 96.222229
vt 0.360630 0.000000
vt 0.000000 0.000000
vt 7.493070 53.333328
vt 2.672120 53.333328
vt 7.493070 149.555603
vt 0.000000 53.333328
vt 0.000000 149.555603
vt 0.348620 5.999990
vt 0.000000 5.999990
vt 0.335170 0.000000
vt 0.383330 9.642940
vt 0.383330 155.555603
vt 0.000000 53.333328
vt 0.000000 0.000000
vt 2.204410 9.642940
vt 0.000000 149.555603
vt 0.000000 155.555603
vt 3.356690 22.149740
vt 3.356690 155.555603
vt 2.209590 155.555603
vt 2.209590 9.665631
vt 5.063500 22.149740
vt 5.182950 22.672279
vt 6.969560 30.487600
vt 5.182950 30.487600
vt 9.982581 51.332260
vt 9.982581 155.555603
vt 8.835480 155.555603
vt 8.835480 38.825470
vt 11.734720 51.332260
vt 7.009220 30.661060
vt 7.009220 38.825470
vt 11.808840 51.656479
vt 12.192170 53.333328
vt 12.192170 149.555603
vt 11.808840 155.555603
vt 12.192170 155.555603
vt 0.000000 0.000000
vt 2.092370 17.332161
vt 0.746170 17.332161
vt 2.296050 53.333328
vt 1.091160 25.345699
vt 2.306130 29.352470
vt 2.306130 25.345699
vt 3.543490 29.352470
vt 0.479860 149.555603
vt 0.000000 149.555603
vt 0.479860 53.393089
vt 0.000000 53.333328
vt 2.306130 19.102760
vt 4.132390 34.230572
vt 5.478310 45.379551
vt 4.132390 45.379551
vt 5.958650 149.555603
vt 5.958650 49.358391
vt 6.438510 53.333328
vt 6.438510 149.555603
vt 0.413550 149.555603
vt 0.000000 149.555603
vt 0.147480 53.333328
vt 0.645870 34.656528
vt 0.645870 155.555603
vt 0.000000 53.333328
vt 0.000000 149.555603
vt 0.000000 155.555603
vt 2.472140 155.555603
vt 2.472140 42.285702
vt 3.118010 53.333328
vt 3.118010 155.555603
vt 3.118010 149.555603
vt 0.340790 0.000000
vt 0.354460 5.999990
vt 0.000000 5.999990
vt 0.000000 0.000000
vt 2.209590 149.555603
vt 3.398860 23.767269
vt 3.398860 149.555603
vt 2.209590 10.289960
vt 5.186990 23.767269
vt 0.383330 149.555603
vt 0.000000 149.555603
vt 0.000000 53.333328
vt 6.414390 37.244591
vt 6.414390 149.555603
vt 5.225120 149.555603
vt 5.225120 23.941999
vt 8.128300 37.244591
vt 9.429921 50.721909
vt 9.429921 149.555603
vt 8.240651 149.555603
vt 8.240651 37.759430
vt 11.069600 50.721909
vt 11.256190 149.555603
vt 11.256190 51.576870
vt 11.639520 53.333328
vt 11.639520 149.555603
vt 0.121360 0.000000
vt 0.340310 0.000000
vt 0.340310 96.222229
vt 0.000000 96.222229
vt 0.000000 0.000000
vt 0.000000 0.000000
vt 0.926190 0.000000
vt 0.000000 0.000000
vt 0.000000 0.000000
vt 0.348620 0.000000
vt 2.306130 53.393089
vt 0.413550 53.333328
vt 0.000000 53.333328
vt 0.000000 0.000000
vt 0.000000 0.000000
vt 2.026110 34.656528
vt 0.354460 0.000000
vt 0.000000 0.000000
vt 0.383330 10.289960
vn -0.8742 0.4856 0.0000
vn -0.8743 0.4854 -0.0000
vn -0.8743 0.4853 0.0000
vn -0.8749 0.4843 0.0000
vn -0.8741 0.4857 0.0000
vn -0.4839 -0.8751 0.0000
vn -0.4841 -0.8750 0.0000
vn 0.4830 0.8756 0.0000
vn 0.4833 0.8754 0.0000
vn 0.4831 0.8756 -0.0000
vn -0.5035 -0.8640 0.0000
vn -0.5026 -0.8645 0.0000
vn 0.8749 -0.4842 0.0000
vn 0.8749 -0.4843 0.0000
vn -0.4496 -0.8932 -0.0000
vn 0.8745 -0.4850 0.0000
vn 0.8752 -0.4838 0.0000
vn 0.8748 -0.4846 0.0000
vn 0.8751 -0.4840 0.0000
vn 0.8749 -0.4844 0.0000
vn 0.8748 -0.4844 0.0000
vn 0.8747 -0.4846 0.0000
vn 0.8748 -0.4845 0.0000
vn 0.8737 -0.4865 -0.0000
vn 0.8736 -0.4866 0.0000
vn 0.8735 -0.4869 0.0000
vn 0.8736 -0.4867 0.0000
vn 0.4965 0.8680 0.0000
vn 0.8721 -0.4893 0.0000
vn 0.8723 -0.4890 0.0000
vn 0.8722 -0.4891 0.0000
vn 0.4770 0.8789 0.0000
vn 0.4772 0.8788 0.0000
vn 0.8747 -0.4847 0.0000
vn 0.4609 0.8875 0.0000
vn 0.4613 0.8872 0.0000
vn 0.4602 0.8878 0.0000
vn -0.8751 0.4839 -0.0000
vn -0.8732 0.4874 0.0000
vn -0.4842 -0.8749 0.0000
vn -0.4493 -0.8934 0.0000
vn -0.4494 -0.8933 -0.0000
vn 0.8743 -0.4854 -0.0004
vn 0.8688 -0.4952 -0.0000
vn 0.8732 -0.4874 -0.0010
vn 0.8706 -0.4920 -0.0004
vn 0.8741 -0.4858 0.0001
vn 0.8741 -0.4858 0.0002
vn 0.4974 0.8675 0.0000
vn 0.4973 0.8676 0.0000
vn 0.4971 0.8677 0.0000
vn 0.4975 0.8675 0.0000
vn 0.8722 -0.4892 0.0000
vn 0.4733 0.8809 0.0000
vn 0.4732 0.8809 0.0000
vn 0.8747 -0.4846 -0.0003
vn 0.8746 -0.4849 -0.0000
vn 0.8748 -0.4845 -0.0004
s off
f 1/1/1 2/2/1 3/3/1
f 1/1/2 3/3/2 5/4/2
f 4/5/3 6/6/3 5/4/3
f 6/6/4 7/7/4 5/4/4
f 8/8/5 9/9/5 10/10/5
f 11/11/2 12/12/2 13/13/2
f 8/8/2 11/11/2 13/13/2
f 14/14/6 16/15/6 18/16/6
f 19/17/7 20/18/7 21/19/7
f 21/19/7 22/20/7 23/21/7
f 19/17/6 21/19/6 23/21/6
f 24/22/8 25/23/8 26/24/8
f 26/24/9 27/25/9 28/26/9
f 24/22/10 26/24/10 28/26/10
f 29/27/10 30/28/10 31/29/10
f 29/27/10 31/29/10 32/30/10
f 34/31/11 36/32/11 35/33/11
f 34/31/12 37/34/12 36/32/12
f 38/35/13 39/36/13 40/37/13
f 41/38/14 40/37/14 39/36/14
f 42/39/14 40/37/14 43/40/14
f 40/37/13 41/38/13 43/40/13
f 47/41/15 45/42/15 44/43/15
f 49/44/16 50/45/16 51/46/16
f 52/47/17 49/44/17 51/46/17
f 53/48/18 49/44/18 52/47/18
f 54/49/19 50/45/19 55/50/19
f 54/49/14 51/46/14 50/45/14
f 56/51/20 57/52/20 58/53/20
f 59/54/21 56/51/21 58/53/21
f 60/55/20 56/51/20 59/54/20
f 61/56/21 62/57/21 63/58/21
f 64/59/21 65/60/21 66/61/21
f 66/61/22 67/62/22 64/59/22
f 68/63/23 64/59/23 67/62/23
f 69/64/23 67/62/23 70/65/23
f 71/66/14 72/67/14 73/68/14
f 74/69/19 71/66/19 73/68/19
f 75/70/19 74/69/19 73/68/19
f 76/71/24 77/72/24 78/73/24
f 81/74/25 82/75/25 79/76/25
f 82/75/24 83/77/24 79/76/24
f 83/77/25 84/78/25 79/76/25
f 86/79/25 87/80/25 85/81/25
f 87/80/26 88/82/26 85/81/26
f 89/83/24 84/78/24 83/77/24
f 90/84/27 91/85/27 92/86/27
f 93/87/24 94/88/24 95/89/24
f 93/87/27 95/89/27 96/90/27
f 99/91/28 100/92/28 97/93/28
f 103/94/29 104/95/29 105/96/29
f 108/97/29 104/95/29 109/98/29
f 110/99/30 111/100/30 112/101/30
f 114/102/31 110/99/31 113/103/31
f 115/104/32 117/105/32 118/106/32
f 119/107/33 115/104/33 118/106/33
f 120/108/18 121/109/18 122/110/18
f 120/108/22 123/111/22 121/109/22
f 124/112/22 121/109/22 123/111/22
f 127/113/18 129/114/18 128/115/18
f 130/116/22 131/117/22 132/118/22
f 133/119/21 130/116/21 132/118/21
f 134/120/22 130/116/22 133/119/22
f 135/121/22 136/122/22 137/123/22
f 138/124/23 135/121/23 137/123/23
f 139/125/34 135/121/34 138/124/34
f 140/126/23 141/127/23 142/128/23
f 140/126/34 142/128/34 143/129/34
f 144/130/35 145/131/35 146/132/35
f 144/130/36 146/132/36 147/133/36
f 148/134/37 144/130/37 147/133/37
s 1
f 3/3/38 4/5/38 5/4/38
f 8/8/39 10/10/39 11/11/39
f 14/14/40 15/135/40 16/15/40
f 16/15/6 17/136/6 18/16/6
f 33/137/12 34/31/12 35/33/12
f 44/43/41 45/42/41 46/138/41
f 48/139/42 47/41/42 44/43/42
f 68/63/43 67/62/43 69/64/43
f 79/76/44 80/140/45 81/74/46
f 85/81/47 81/74/46 80/140/45
f 88/82/48 81/74/46 85/81/47
f 97/93/49 98/141/49 99/91/49
f 101/142/50 102/143/51 97/93/50
f 100/92/52 101/142/50 97/93/50
f 106/144/53 103/94/53 105/96/53
f 107/145/53 103/94/53 106/144/53
f 108/97/53 105/96/53 104/95/53
f 110/99/53 112/101/53 113/103/53
f 115/104/54 116/146/55 117/105/55
f 125/147/34 123/111/56 126/148/57
f 124/112/58 123/111/56 125/147/34
f 126/148/57 127/113/20 128/115/34
f 125/147/34 126/148/57 128/115/34
