# Blender v3.0.1 OBJ File: 'rockerfeller_plaza.blend'
# www.blender.org
o geometryt000010000010000110010110000110000110100100000010st25
v 739.401978 -305.949066 931.763733
v 739.704773 -306.114380 1015.248535
v 739.401978 -305.949066 1015.248535
v 734.965881 -303.527588 931.763733
v 739.704773 -306.114380 930.448547
v 734.965881 -303.527588 1015.248535
v 733.472168 -302.712189 1015.248535
v 733.472168 -302.712189 931.763733
v 730.514771 -301.097870 931.763733
v 730.514771 -301.097870 1015.248535
v 729.020996 -300.282471 1015.248535
v 729.020996 -300.282471 931.763733
v 719.830994 -295.265991 930.448547
v 726.063599 -298.668182 931.763733
v 726.063599 -298.668182 1015.248535
v 724.569885 -297.852783 1015.248535
v 724.569885 -297.852783 931.763733
v 720.133789 -295.431274 931.763733
v 720.133789 -295.431274 1015.248535
v 719.830994 -295.265991 1015.248535
v 719.996216 -294.963074 931.763733
v 719.830994 -295.265991 1015.248535
v 719.996216 -294.963074 1015.248535
v 722.416565 -290.526367 931.763733
v 719.830994 -295.265991 930.448547
v 722.416565 -290.526367 1015.248535
v 723.338684 -288.836182 1015.248535
v 723.338684 -288.836182 931.763733
v 725.758972 -284.399475 931.763733
v 725.758972 -284.399475 1015.248535
v 726.681091 -282.709167 1015.248535
v 726.681091 -282.709167 931.763733
v 727.487915 -281.230286 931.763733
v 734.338013 -268.673584 930.448547
v 727.487915 -281.230286 1015.248535
v 728.409973 -279.540070 1015.248535
v 728.409973 -279.540070 931.763733
v 730.830261 -275.103363 931.763733
v 730.830261 -275.103363 1015.248535
v 731.752380 -273.413086 1015.248535
v 731.752380 -273.413086 931.763733
v 734.172791 -268.976379 931.763733
v 734.172791 -268.976379 1015.248535
v 734.338013 -268.673584 1015.248535
v 734.640747 -268.838867 931.763733
v 734.338013 -268.673584 1015.248535
v 734.640747 -268.838867 1015.248535
v 739.077148 -271.259766 931.763733
v 734.338013 -268.673584 930.448547
v 739.077148 -271.259766 1015.248535
v 741.213257 -272.425476 1015.248535
v 741.213257 -272.425476 931.763733
v 745.649597 -274.846466 931.763733
v 745.649597 -274.846466 1015.248535
v 747.785645 -276.012177 1015.248535
v 747.785645 -276.012177 931.763733
v 752.222046 -278.433167 931.763733
v 759.097290 -282.185089 930.448547
v 752.222046 -278.433167 1015.248535
v 754.358093 -279.598877 1015.248535
v 754.358093 -279.598877 931.763733
v 758.794495 -282.019867 931.763733
v 758.794495 -282.019867 1015.248535
v 759.097290 -282.185089 1015.248535
v 740.498901 -304.652283 931.763733
v 740.663574 -304.349091 1015.248535
v 740.498901 -304.652283 1015.248535
v 739.869507 -305.811279 931.763733
v 740.663574 -304.349091 930.448547
v 739.869507 -305.811279 1015.248535
v 739.704773 -306.114380 1015.248535
v 739.704773 -306.114380 930.448547
v 743.845276 -306.090576 931.763733
v 745.549316 -307.023285 1015.248535
v 743.845276 -306.090576 1015.248535
v 742.367554 -305.281769 931.763733
v 745.549316 -307.023285 930.448547
v 742.367554 -305.281769 1015.248535
v 740.663574 -304.349091 1015.248535
v 740.663574 -304.349091 930.448547
v 758.932068 -282.487976 931.763733
v 759.097290 -282.185089 1015.248535
v 758.932068 -282.487976 1015.248535
v 756.512085 -286.924774 931.763733
v 759.097290 -282.185089 930.448547
v 756.512085 -286.924774 1015.248535
v 755.333008 -289.086487 1015.248535
v 755.333008 -289.086487 931.763733
v 752.912903 -293.523376 931.763733
v 752.912903 -293.523376 1015.248535
v 751.733765 -295.685089 1015.248535
v 751.733765 -295.685089 931.763733
v 749.313660 -300.121887 931.763733
v 745.549316 -307.023285 930.448547
v 749.313660 -300.121887 1015.248535
v 748.134583 -302.283569 1015.248535
v 748.134583 -302.283569 931.763733
v 745.714478 -306.720490 931.763733
v 745.714478 -306.720490 1015.248535
v 745.549316 -307.023285 1015.248535
vt 26.108841 1.540050
vt 26.512819 99.297417
vt 26.108841 99.297417
vt 20.190870 1.540050
vt 26.512819 0.000000
vt 20.190870 99.297417
vt 18.198111 99.297417
vt 18.198111 1.540050
vt 14.252790 1.540050
vt 14.252790 99.297417
vt 12.260030 99.297417
vt 12.260030 1.540050
vt 0.000000 0.000000
vt 8.314721 1.540050
vt 8.314721 99.297417
vt 6.321960 99.297417
vt 6.321960 1.540050
vt 0.403980 1.540050
vt 0.403980 99.297417
vt 0.000000 99.297417
vt 35.066792 1.540050
vt 35.470779 99.297417
vt 35.066792 99.297417
vt 29.148821 1.540050
vt 35.470779 0.000000
vt 29.148821 99.297417
vt 26.894251 99.297417
vt 26.894251 1.540050
vt 20.976280 1.540050
vt 20.976280 99.297417
vt 18.721720 99.297417
vt 18.721720 1.540050
vt 16.749060 1.540050
vt 0.000000 0.000000
vt 16.749060 99.297417
vt 14.494500 99.297417
vt 14.494500 1.540050
vt 8.576520 1.540050
vt 8.576520 99.297417
vt 6.321960 99.297417
vt 6.321960 1.540050
vt 0.403980 1.540050
vt 0.403980 99.297417
vt 0.000000 99.297417
vt 32.624290 1.540050
vt 33.028271 99.297417
vt 32.624290 99.297417
vt 26.706310 1.540050
vt 33.028271 0.000000
vt 26.706310 99.297417
vt 23.856840 99.297417
vt 23.856840 1.540050
vt 17.938869 1.540050
vt 17.938869 99.297417
vt 15.089400 99.297417
vt 15.089400 1.540050
vt 9.171421 1.540050
vt 0.000000 0.000000
vt 9.171421 99.297417
vt 6.321960 99.297417
vt 6.321960 1.540050
vt 0.403980 99.297417
vt 0.000000 99.297417
vt 0.403980 1.540050
vt 1.948350 1.540050
vt 2.352330 99.297417
vt 1.948350 99.297417
vt 0.403980 1.540050
vt 2.352330 0.000000
vt 0.403980 99.297417
vt 0.000000 99.297417
vt 0.000000 0.000000
vt 4.247280 1.540050
vt 6.521900 99.297417
vt 4.247280 99.297417
vt 2.274620 1.540050
vt 6.521900 0.000000
vt 2.274620 99.297417
vt 0.000000 99.297417
vt 0.000000 0.000000
vt 32.725819 1.540050
vt 33.129799 99.297417
vt 32.725819 99.297417
vt 26.807850 1.540050
vt 33.129799 0.000000
vt 26.807850 99.297417
vt 23.924530 99.297417
vt 23.924530 1.540050
vt 18.006559 1.540050
vt 18.006559 99.297417
vt 15.123250 99.297417
vt 15.123250 1.540050
vt 0.000000 0.000000
vt 9.205270 99.297417
vt 6.321960 99.297417
vt 9.205270 1.540050
vt 6.321960 1.540050
vt 0.403980 1.540050
vt 0.403980 99.297417
vt 0.000000 99.297417
vn -0.4793 -0.8777 0.0000
vn -0.4791 -0.8777 -0.0000
vn -0.4791 -0.8778 0.0000
vn -0.4793 -0.8777 -0.0001
vn -0.4791 -0.8778 0.0002
vn -0.4792 -0.8777 0.0000
vn -0.4791 -0.8778 -0.0002
vn -0.4793 -0.8777 0.0002
vn -0.8779 0.4789 0.0000
vn -0.8780 0.4787 0.0000
vn -0.8778 0.4789 0.0000
vn -0.8779 0.4788 -0.0002
vn -0.8778 0.4790 0.0001
vn -0.8780 0.4787 -0.0001
vn -0.8779 0.4789 0.0002
vn -0.8778 0.4789 -0.0001
vn -0.8779 0.4788 -0.0001
vn -0.8779 0.4788 -0.0000
vn -0.8777 0.4792 0.0000
vn 0.4789 0.8779 0.0000
vn 0.4790 0.8778 0.0001
vn 0.4793 0.8777 0.0000
vn 0.4790 0.8778 0.0000
vn 0.4791 0.8778 -0.0003
vn 0.4791 0.8778 0.0001
vn 0.4791 0.8778 0.0000
vn 0.4791 0.8778 -0.0004
vn 0.8788 -0.4771 0.0000
vn 0.8788 -0.4772 0.0000
vn 0.8789 -0.4770 -0.0000
vn 0.8787 -0.4774 -0.0000
vn 0.8787 -0.4773 0.0000
vn 0.8788 -0.4773 -0.0001
vn -0.4802 -0.8772 0.0000
vn -0.4801 -0.8772 0.0001
vn -0.4801 -0.8772 0.0000
vn 0.8779 -0.4788 0.0000
vn 0.8779 -0.4789 0.0000
vn 0.8778 -0.4791 0.0000
vn 0.8779 -0.4788 0.0004
vn 0.8779 -0.4788 -0.0003
vn 0.8779 -0.4788 -0.0001
vn 0.8780 -0.4787 0.0000
vn 0.4791 0.8778 -0.0001
vn 0.8779 -0.4789 0.0001
s off
f 1/1/1 2/2/1 3/3/1
f 4/4/2 5/5/2 1/1/2
f 2/2/3 1/1/3 5/5/3
f 6/6/2 7/7/2 4/4/2
f 7/7/2 8/8/2 4/4/2
f 8/8/4 5/5/4 4/4/4
f 8/8/5 9/9/5 5/5/5
f 10/10/2 11/11/2 9/9/2
f 11/11/2 12/12/2 9/9/2
f 12/12/5 13/13/5 9/9/5
f 9/9/6 13/13/6 5/5/6
f 14/14/7 13/13/7 12/12/7
f 15/15/2 16/16/2 14/14/2
f 16/16/2 17/17/2 14/14/2
f 17/17/8 13/13/8 14/14/8
f 18/18/6 13/13/6 17/17/6
f 19/19/6 20/20/6 18/18/6
f 20/20/3 13/13/3 18/18/3
f 21/21/9 22/22/9 23/23/9
f 24/24/9 25/25/9 21/21/9
f 22/22/10 21/21/10 25/25/10
f 26/26/11 27/27/11 24/24/11
f 27/27/9 28/28/9 24/24/9
f 28/28/12 25/25/12 24/24/12
f 28/28/13 29/29/13 25/25/13
f 30/30/9 31/31/9 29/29/9
f 31/31/9 32/32/9 29/29/9
f 29/29/14 32/32/14 25/25/14
f 33/33/15 34/34/15 32/32/15
f 32/32/9 34/34/9 25/25/9
f 35/35/9 36/36/9 33/33/9
f 36/36/9 37/37/9 33/33/9
f 37/37/16 34/34/16 33/33/16
f 38/38/17 34/34/17 37/37/17
f 39/39/9 40/40/9 38/38/9
f 40/40/9 41/41/9 38/38/9
f 41/41/18 34/34/18 38/38/18
f 42/42/9 34/34/9 41/41/9
f 43/43/9 44/44/9 42/42/9
f 44/44/19 34/34/19 42/42/19
f 45/45/20 46/46/20 47/47/20
f 48/48/21 49/49/21 45/45/21
f 46/46/22 45/45/22 49/49/22
f 50/50/23 51/51/23 48/48/23
f 51/51/23 52/52/23 48/48/23
f 52/52/21 53/53/21 49/49/21
f 54/54/23 55/55/23 53/53/23
f 55/55/23 56/56/23 53/53/23
f 53/53/24 56/56/24 49/49/24
f 57/57/25 58/58/25 56/56/25
f 56/56/23 58/58/23 49/49/23
f 59/59/26 60/60/26 57/57/26
f 60/60/23 61/61/23 57/57/23
f 61/61/27 58/58/27 57/57/27
f 63/62/23 64/63/23 62/64/23
f 64/63/23 58/58/23 62/64/23
f 65/65/28 66/66/28 67/67/28
f 68/68/29 69/69/29 65/65/29
f 66/66/30 65/65/30 69/69/30
f 70/70/31 71/71/31 68/68/31
f 71/71/32 72/72/32 68/68/32
f 72/72/33 69/69/33 68/68/33
f 73/73/34 74/74/34 75/75/34
f 76/76/35 77/77/35 73/73/35
f 74/74/36 73/73/36 77/77/36
f 78/78/36 79/79/36 76/76/36
f 80/80/36 77/77/36 76/76/36
f 81/81/37 82/82/37 83/83/37
f 84/84/38 85/85/38 81/81/38
f 82/82/39 81/81/39 85/85/39
f 86/86/37 87/87/37 84/84/37
f 87/87/37 88/88/37 84/84/37
f 88/88/40 85/85/40 84/84/40
f 88/88/38 89/89/38 85/85/38
f 90/90/37 91/91/37 89/89/37
f 91/91/38 92/92/38 89/89/38
f 89/89/41 92/92/41 85/85/41
f 92/92/38 94/93/38 85/85/38
f 95/94/37 96/95/37 93/96/37
f 96/95/38 97/97/38 93/96/38
f 97/97/42 94/93/42 93/96/42
f 98/98/38 94/93/38 97/97/38
f 99/99/38 100/100/38 98/98/38
f 100/100/43 94/93/43 98/98/43
s 1
f 52/52/44 49/49/44 48/48/44
f 62/64/21 58/58/21 61/61/21
f 79/79/36 80/80/36 76/76/36
f 93/96/45 94/93/45 92/92/45
