# Blender v3.0.1 OBJ File: 'rockerfeller_plaza.blend'
# www.blender.org
o geometryt000010000010000110010110000110000100110010110010st104
v 182.091705 -136.369476 293.964844
v 181.949814 -136.683975 313.192932
v 182.091705 -136.369476 313.192932
v 184.103714 -131.912964 293.964844
v 181.949814 -136.683975 292.292908
v 184.103714 -131.912964 313.192932
v 184.484802 -131.068863 313.192932
v 184.484802 -131.068863 293.964844
v 185.155411 -129.583374 293.964844
v 185.155411 -129.583374 313.192932
v 185.536514 -128.739365 313.192932
v 185.536514 -128.739365 293.964844
v 187.548401 -124.282761 293.964844
v 187.548401 -124.282761 313.192932
v 187.929504 -123.438759 313.192932
v 187.929504 -123.438759 293.964844
v 191.135101 -116.338165 292.292908
v 188.600113 -121.953163 293.964844
v 188.600113 -121.953163 313.192932
v 188.981201 -121.109161 313.192932
v 188.981201 -121.109161 293.964844
v 190.993210 -116.652565 293.964844
v 190.993210 -116.652565 313.192932
v 191.135101 -116.338165 313.192932
v 222.218506 -158.476273 293.964844
v 222.521912 -158.640472 313.192932
v 222.218506 -158.476273 313.192932
v 217.918106 -156.149063 293.964844
v 222.521912 -158.640472 292.292908
v 217.918106 -156.149063 313.192932
v 216.752106 -155.518066 313.192932
v 216.752106 -155.518066 293.964844
v 212.451813 -153.190765 293.964844
v 212.451813 -153.190765 313.192932
v 211.285812 -152.559769 313.192932
v 211.285812 -152.559769 293.964844
v 205.552002 -149.456863 293.964844
v 205.552002 -149.456863 313.192932
v 204.386002 -148.825867 313.192932
v 204.386002 -148.825867 293.964844
v 200.085709 -146.498566 293.964844
v 200.085709 -146.498566 313.192932
v 198.919708 -145.867569 313.192932
v 198.919708 -145.867569 293.964844
v 181.949814 -136.683975 292.292908
v 193.185913 -142.764572 293.964844
v 193.185913 -142.764572 313.192932
v 192.019913 -142.133575 313.192932
v 192.019913 -142.133575 293.964844
v 187.719513 -139.806366 293.964844
v 187.719513 -139.806366 313.192932
v 186.553604 -139.175369 313.192932
v 186.553604 -139.175369 293.964844
v 182.253204 -136.848175 293.964844
v 182.253204 -136.848175 313.192932
v 181.949814 -136.683975 313.192932
v 191.438004 -116.503365 293.964844
v 191.135101 -116.338165 313.192932
v 191.438004 -116.503365 313.192932
v 195.730713 -118.844666 293.964844
v 191.135101 -116.338165 292.292908
v 195.730713 -118.844666 313.192932
v 196.852509 -119.456558 313.192932
v 196.852509 -119.456558 293.964844
v 201.145309 -121.797859 293.964844
v 201.145309 -121.797859 313.192932
v 202.267105 -122.409660 313.192932
v 202.267105 -122.409660 293.964844
v 207.990707 -125.531464 293.964844
v 207.990707 -125.531464 313.192932
v 209.112503 -126.143265 313.192932
v 209.112503 -126.143265 293.964844
v 214.836105 -129.264969 293.964844
v 214.836105 -129.264969 313.192932
v 215.958008 -129.876877 313.192932
v 215.958008 -129.876877 293.964844
v 232.813614 -139.070175 292.292908
v 221.681610 -132.998566 293.964844
v 221.681610 -132.998566 313.192932
v 222.803406 -133.610474 313.192932
v 222.803406 -133.610474 293.964844
v 227.096100 -135.951767 293.964844
v 227.096100 -135.951767 313.192932
v 228.218002 -136.563675 313.192932
v 228.218002 -136.563675 293.964844
v 232.510712 -138.904968 293.964844
v 232.510712 -138.904968 313.192932
v 232.813614 -139.070175 313.192932
v 232.653000 -139.375473 293.964844
v 232.813614 -139.070175 313.192932
v 232.653000 -139.375473 313.192932
v 230.377106 -143.703262 293.964844
v 232.813614 -139.070175 292.292908
v 230.377106 -143.703262 313.192932
v 229.970703 -144.476074 313.192932
v 229.970703 -144.476074 293.964844
v 229.212112 -145.918564 293.964844
v 229.212112 -145.918564 313.192932
v 228.805710 -146.691467 313.192932
v 228.805710 -146.691467 293.964844
v 226.529800 -151.019165 293.964844
v 226.529800 -151.019165 313.192932
v 226.123413 -151.791977 313.192932
v 226.123413 -151.791977 293.964844
v 222.521912 -158.640472 292.292908
v 225.364807 -153.234573 293.964844
v 225.364807 -153.234573 313.192932
v 224.958405 -154.007370 313.192932
v 224.958405 -154.007370 293.964844
v 222.682510 -158.335175 293.964844
v 222.682510 -158.335175 313.192932
v 222.521912 -158.640472 313.192932
vt 22.066351 1.955470
vt 22.412741 24.444441
vt 22.066351 24.444441
vt 17.157030 1.955470
vt 22.412741 0.000000
vt 17.157030 24.444441
vt 16.227249 24.444441
vt 16.227249 1.955470
vt 14.590810 1.955470
vt 14.590810 24.444441
vt 13.661030 24.444441
vt 13.661030 1.955470
vt 8.751710 24.444441
vt 7.821930 24.444441
vt 8.751710 1.955470
vt 7.821930 1.955470
vt 0.000000 0.000000
vt 6.185490 1.955470
vt 6.185490 24.444441
vt 5.255710 24.444441
vt 5.255710 1.955470
vt 0.346390 24.444441
vt 0.000000 24.444441
vt 0.346390 1.955470
vt 45.971169 1.955470
vt 46.317551 24.444441
vt 45.971169 24.444441
vt 41.061840 1.955470
vt 46.317551 0.000000
vt 41.061840 24.444441
vt 39.730740 24.444441
vt 39.730740 1.955470
vt 34.821411 1.955470
vt 34.821411 24.444441
vt 33.490311 24.444441
vt 33.490311 1.955470
vt 26.944540 1.955470
vt 26.944540 24.444441
vt 25.613440 24.444441
vt 25.613440 1.955470
vt 20.704109 1.955470
vt 20.704109 24.444441
vt 19.373011 24.444441
vt 19.373011 1.955470
vt 0.000000 0.000000
vt 12.827240 1.955470
vt 12.827240 24.444441
vt 11.496140 24.444441
vt 11.496140 1.955470
vt 6.586810 1.955470
vt 6.586810 24.444441
vt 5.255710 24.444441
vt 5.255710 1.955470
vt 0.346390 1.955470
vt 0.346390 24.444441
vt 0.000000 24.444441
vt 47.318851 1.955470
vt 47.665230 24.444441
vt 47.318851 24.444441
vt 42.409519 1.955470
vt 47.665230 0.000000
vt 42.409519 24.444441
vt 41.126541 24.444441
vt 41.126541 1.955470
vt 36.217220 1.955470
vt 36.217220 24.444441
vt 34.934250 24.444441
vt 34.934250 1.955470
vt 28.388479 1.955470
vt 28.388479 24.444441
vt 27.105499 24.444441
vt 27.105499 1.955470
vt 20.559731 1.955470
vt 20.559731 24.444441
vt 19.276760 24.444441
vt 19.276760 1.955470
vt 0.000000 0.000000
vt 12.730990 1.955470
vt 12.730990 24.444441
vt 11.448010 24.444441
vt 11.448010 1.955470
vt 6.538690 1.955470
vt 6.538690 24.444441
vt 5.255710 24.444441
vt 5.255710 1.955470
vt 0.346390 1.955470
vt 0.346390 24.444441
vt 0.000000 24.444441
vt 21.853901 1.955470
vt 22.200291 24.444441
vt 21.853901 24.444441
vt 16.944571 1.955470
vt 22.200291 0.000000
vt 16.067909 1.955470
vt 14.431470 1.955470
vt 14.431470 24.444441
vt 13.554810 24.444441
vt 13.554810 1.955470
vt 8.645481 1.955470
vt 8.645481 24.444441
vt 7.768820 24.444441
vt 7.768820 1.955470
vt 0.000000 0.000000
vt 6.132370 1.955470
vt 6.132370 24.444441
vt 5.255710 24.444441
vt 5.255710 1.955470
vt 0.346390 1.955470
vt 0.346390 24.444441
vt 0.000000 24.444441
vt 16.944571 24.444441
vt 16.067909 24.444441
vn -0.9114 0.4116 0.0000
vn -0.9114 0.4115 -0.0000
vn -0.9115 0.4112 0.0000
vn -0.9114 0.4115 -0.0001
vn -0.9114 0.4115 0.0001
vn -0.9114 0.4114 -0.0004
vn -0.9114 0.4115 0.0004
vn -0.9114 0.4115 0.0002
vn -0.9115 0.4113 0.0000
vn -0.9115 0.4114 0.0000
vn -0.4760 -0.8795 0.0000
vn -0.4759 -0.8795 0.0000
vn -0.4759 -0.8795 -0.0001
vn -0.4760 -0.8794 0.0001
vn -0.4759 -0.8795 0.0001
vn -0.4758 -0.8795 -0.0002
vn -0.4759 -0.8795 -0.0002
vn -0.4758 -0.8795 0.0002
vn 0.4788 0.8779 0.0000
vn 0.4789 0.8779 0.0000
vn 0.4789 0.8779 -0.0001
vn 0.4788 0.8779 0.0001
vn 0.4788 0.8779 -0.0001
vn 0.4790 0.8778 0.0002
vn 0.4788 0.8779 0.0003
vn 0.8850 -0.4655 0.0000
vn 0.8851 -0.4654 0.0000
vn 0.8852 -0.4653 -0.0000
vn 0.8851 -0.4654 0.0001
vn 0.8851 -0.4654 -0.0001
vn 0.8851 -0.4653 0.0005
vn 0.8851 -0.4655 0.0000
vn 0.8852 -0.4652 -0.0000
s off
f 1/1/1 2/2/1 3/3/1
f 4/4/2 5/5/2 1/1/2
f 2/2/3 1/1/3 5/5/3
f 6/6/2 7/7/2 4/4/2
f 7/7/2 8/8/2 4/4/2
f 8/8/4 5/5/4 4/4/4
f 8/8/5 9/9/5 5/5/5
f 10/10/2 11/11/2 9/9/2
f 11/11/2 12/12/2 9/9/2
f 9/9/6 12/12/6 5/5/6
f 14/13/2 15/14/2 13/15/2
f 15/14/2 16/16/2 13/15/2
f 16/16/7 17/17/7 13/15/7
f 13/15/2 17/17/2 5/5/2
f 18/18/5 17/17/5 16/16/5
f 19/19/2 20/20/2 18/18/2
f 20/20/2 21/21/2 18/18/2
f 21/21/8 17/17/8 18/18/8
f 23/22/9 24/23/9 22/24/9
f 24/23/10 17/17/10 22/24/10
f 25/25/11 26/26/11 27/27/11
f 28/28/12 29/29/12 25/25/12
f 26/26/12 25/25/12 29/29/12
f 30/30/11 31/31/11 28/28/11
f 31/31/12 32/32/12 28/28/12
f 32/32/11 29/29/11 28/28/11
f 32/32/13 33/33/13 29/29/13
f 34/34/12 35/35/12 33/33/12
f 35/35/12 36/36/12 33/33/12
f 33/33/14 36/36/14 29/29/14
f 36/36/15 37/37/15 29/29/15
f 38/38/12 39/39/12 37/37/12
f 39/39/12 40/40/12 37/37/12
f 37/37/16 40/40/16 29/29/16
f 40/40/17 41/41/17 29/29/17
f 42/42/12 43/43/12 41/41/12
f 43/43/12 44/44/12 41/41/12
f 44/44/18 45/45/18 41/41/18
f 41/41/12 45/45/12 29/29/12
f 46/46/11 45/45/11 44/44/11
f 47/47/12 48/48/12 46/46/12
f 48/48/12 49/49/12 46/46/12
f 49/49/13 45/45/13 46/46/13
f 50/50/12 45/45/12 49/49/12
f 51/51/11 52/52/11 50/50/11
f 52/52/11 53/53/11 50/50/11
f 53/53/14 45/45/14 50/50/14
f 54/54/12 45/45/12 53/53/12
f 55/55/11 56/56/11 54/54/11
f 56/56/11 45/45/11 54/54/11
f 57/57/19 58/58/19 59/59/19
f 60/60/19 61/61/19 57/57/19
f 58/58/19 57/57/19 61/61/19
f 62/62/19 63/63/19 60/60/19
f 63/63/20 64/64/20 60/60/20
f 64/64/21 61/61/21 60/60/21
f 64/64/22 65/65/22 61/61/22
f 66/66/19 67/67/19 65/65/19
f 67/67/19 68/68/19 65/65/19
f 65/65/22 68/68/22 61/61/22
f 68/68/23 69/69/23 61/61/23
f 70/70/19 71/71/19 69/69/19
f 71/71/19 72/72/19 69/69/19
f 69/69/24 72/72/24 61/61/24
f 72/72/19 73/73/19 61/61/19
f 74/74/19 75/75/19 73/73/19
f 75/75/19 76/76/19 73/73/19
f 76/76/19 77/77/19 73/73/19
f 73/73/19 77/77/19 61/61/19
f 78/78/23 77/77/23 76/76/23
f 79/79/20 80/80/20 78/78/20
f 80/80/20 81/81/20 78/78/20
f 81/81/25 77/77/25 78/78/25
f 82/82/20 77/77/20 81/81/20
f 83/83/19 84/84/19 82/82/19
f 84/84/19 85/85/19 82/82/19
f 85/85/19 77/77/19 82/82/19
f 86/86/19 77/77/19 85/85/19
f 87/87/19 88/88/19 86/86/19
f 88/88/20 77/77/20 86/86/20
f 89/89/26 90/90/26 91/91/26
f 92/92/27 93/93/27 89/89/27
f 90/90/28 89/89/28 93/93/28
f 96/94/29 93/93/29 92/92/29
f 96/94/27 97/95/27 93/93/27
f 98/96/27 99/97/27 97/95/27
f 99/97/27 100/98/27 97/95/27
f 97/95/30 100/98/30 93/93/30
f 100/98/27 101/99/27 93/93/27
f 102/100/27 103/101/27 101/99/27
f 103/101/27 104/102/27 101/99/27
f 104/102/31 105/103/31 101/99/31
f 101/99/32 105/103/32 93/93/32
f 106/104/30 105/103/30 104/102/30
f 107/105/32 108/106/32 106/104/32
f 108/106/32 109/107/32 106/104/32
f 109/107/32 105/103/32 106/104/32
f 110/108/27 105/103/27 109/107/27
f 111/109/33 112/110/33 110/108/33
f 112/110/26 105/103/26 110/108/26
s 1
f 12/12/5 13/15/5 5/5/5
f 22/24/2 17/17/2 21/21/2
f 94/111/27 95/112/27 92/92/27
f 95/112/27 96/94/27 92/92/27
