# Blender v3.0.1 OBJ File: 'rockerfeller_plaza.blend'
# www.blender.org
o geometryt000010000010000110010110000110000110100000100100st128_
v 421.714905 -124.936127 609.896667
v 415.378784 -123.821823 609.896667
v 422.620392 -114.223022 609.896667
v 437.335083 -133.136917 609.896667
v 425.162781 -105.611526 609.896667
v 478.395599 -157.673325 609.896667
v 426.409180 -116.255226 609.896667
v 426.760895 -106.558823 609.896667
v 469.540192 -150.437622 609.896667
v 474.482483 -141.309616 609.896667
v 477.761597 -143.070129 609.896667
v 481.519196 -151.863831 609.896667
v 481.497498 -136.187729 609.896667
v 484.907288 -145.562820 609.896667
v 488.047302 -139.708725 609.896667
v 439.083893 -123.069122 609.896667
v 442.269104 -124.009125 609.896667
v 445.970886 -117.104927 609.896667
v 447.285095 -114.680420 609.896667
v 455.572083 -92.612862 609.896667
v 442.897491 -85.810097 609.896667
v 447.914307 -76.548050 609.896667
v 455.016113 -80.362457 609.896667
v 453.367920 -103.440926 609.896667
v 454.847290 -100.714821 609.896667
v 458.377197 -94.267822 609.896667
v 461.575500 -88.346474 609.896667
v 463.443115 -84.883087 609.896667
v 446.000000 -117.120522 609.896667
v 447.313293 -114.695625 609.896667
v 476.515198 -130.387619 609.896667
v 447.312317 -114.697624 609.896667
v 453.393097 -103.470322 609.896667
v 464.913300 -106.118523 609.896667
v 454.876892 -100.730721 609.896667
v 490.373718 -119.786522 609.896667
v 493.869690 -113.328720 609.896667
v 466.679382 -109.320625 609.896667
v 467.657715 -111.094521 609.896667
v 488.915894 -122.480225 609.896667
v 474.284607 -123.109825 609.896667
v 483.755402 -132.015625 609.896667
v 479.049683 -131.749527 609.896667
v 482.806793 -133.768524 609.896667
v 437.191193 -87.308556 609.896667
v 439.100220 -83.766975 609.896667
v 435.367981 -86.608086 609.896667
v 453.395081 -103.466522 609.896667
v 453.401001 -103.455627 609.896667
v 453.399719 -103.458023 609.896667
v 453.404297 -103.475227 609.896667
v 453.559296 -103.543526 609.896667
v 483.954193 -134.385025 609.896667
v 489.369995 -137.295319 609.896667
v 485.257904 -133.428528 609.896667
v 495.426392 -125.967224 609.896667
v 496.905792 -123.241127 609.896667
v 497.077209 -111.837120 609.896667
v 501.772797 -109.817421 609.896667
v 495.730103 -114.328522 609.896667
v 499.897003 -113.303123 609.896667
v 456.860779 -77.099167 609.896667
v 505.350708 -103.147827 609.896667
v 503.244690 -110.066727 609.896667
v 502.255798 -109.967224 609.896667
v 505.145996 -109.500626 609.896667
v 504.230591 -109.910927 609.896667
v 506.376404 -104.235023 609.896667
v 504.701294 -109.738922 609.896667
v 506.711121 -107.606224 609.896667
v 505.923798 -108.869926 609.896667
v 506.084717 -103.827621 609.896667
v 506.240112 -108.488724 609.896667
v 506.907715 -105.638824 609.896667
v 506.792175 -105.140526 609.896667
v 506.944702 -106.637527 609.896667
v 436.839996 -83.959755 609.896667
v 444.143799 -70.274673 609.896667
v 501.706421 -114.270226 609.896667
v 422.620392 -114.223022 633.896667
v 415.378784 -123.821823 633.896667
v 421.714905 -124.936127 633.896667
v 426.850281 -127.632324 633.896667
v 425.162781 -105.611526 633.896667
v 437.335083 -133.136917 633.896667
v 478.395599 -157.673325 633.896667
v 423.716003 -114.810722 633.896667
v 424.865784 -119.109222 633.896667
v 425.563599 -108.775024 633.896667
v 426.409180 -116.255226 633.896667
v 425.752319 -108.425827 633.896667
v 426.760895 -106.558823 633.896667
v 463.099182 -146.977524 633.896667
v 469.540192 -150.437622 633.896667
v 477.761597 -143.070129 633.896667
v 473.494019 -143.135223 633.896667
v 481.519196 -151.863831 633.896667
v 475.863220 -142.050919 633.896667
v 474.482483 -141.309616 633.896667
v 484.907288 -145.562820 633.896667
v 479.334595 -140.172226 633.896667
v 481.497498 -136.187729 633.896667
v 484.074402 -137.573029 633.896667
v 488.047302 -139.708725 633.896667
v 426.409180 -116.255226 682.896667
v 421.714905 -124.936127 682.896667
v 436.935608 -121.914223 682.896667
v 437.556793 -122.248123 682.896667
v 439.083893 -123.069122 682.896667
v 437.335083 -133.136917 682.896667
v 442.269104 -124.009125 682.896667
v 445.970886 -117.104927 682.896667
v 447.285095 -114.680420 682.896667
v 453.585602 -96.282295 682.896667
v 442.897491 -85.810097 682.896667
v 444.424591 -86.629707 682.896667
v 455.016113 -80.362457 682.896667
v 447.914307 -76.548050 682.896667
v 455.572083 -92.612862 682.896667
v 453.367920 -103.440926 682.896667
v 454.847290 -100.714821 682.896667
v 458.377197 -94.267822 682.896667
v 461.575500 -88.346474 682.896667
v 463.443115 -84.883087 682.896667
v 426.760895 -106.558823 692.896667
v 422.620392 -114.223022 692.896667
v 426.409180 -116.255226 692.896667
v 439.083893 -123.069122 692.896667
v 455.572083 -92.612862 692.896667
v 437.191193 -87.308556 692.896667
v 442.897491 -85.810097 692.896667
v 439.100220 -83.766975 692.896667
v 435.367981 -86.608086 614.896667
v 425.162781 -105.611526 614.896667
v 426.427979 -106.361526 614.896667
v 426.760895 -106.558823 614.896667
v 436.562897 -88.468216 614.896667
v 435.747894 -86.754013 614.896667
v 437.191193 -87.308556 614.896667
v 437.191193 -87.308556 633.896667
v 436.839996 -83.959755 633.896667
v 435.367981 -86.608086 633.896667
v 438.548218 -84.791046 633.896667
v 439.100220 -83.766975 633.896667
v 444.143799 -70.274673 633.896667
v 441.799500 -85.219315 633.896667
v 446.264893 -79.593117 633.896667
v 447.914307 -76.548050 633.896667
v 442.897491 -85.810097 633.896667
v 456.860779 -77.099167 633.896667
v 452.681305 -79.108406 633.896667
v 455.016113 -80.362457 633.896667
v 439.362793 -129.385818 639.896667
v 437.335083 -133.136917 639.896667
v 469.540192 -150.437622 639.896667
v 442.269104 -124.009125 639.896667
v 459.223511 -133.114624 639.896667
v 474.482483 -141.309616 639.896667
v 446.000000 -117.120522 666.896667
v 442.269104 -124.009125 666.896667
v 479.167908 -134.936417 666.896667
v 481.497498 -136.187729 666.896667
v 474.482483 -141.309616 666.896667
v 477.761597 -143.070129 666.896667
v 458.377197 -94.267822 666.896667
v 454.876892 -100.730721 666.896667
v 457.176880 -101.965424 666.896667
v 464.913300 -106.118523 666.896667
v 490.373718 -119.786522 666.896667
v 493.869690 -113.328720 666.896667
v 454.847290 -100.714821 670.896667
v 454.604095 -101.162926 670.896667
v 490.373718 -119.786522 670.896667
v 453.367920 -103.440926 670.896667
v 457.134277 -105.458221 670.896667
v 488.915894 -122.480225 670.896667
v 495.426392 -125.967224 670.896667
v 496.905792 -123.241127 670.896667
v 445.970886 -117.104927 670.896667
v 481.497498 -136.187729 670.896667
v 447.069000 -115.079025 670.896667
v 447.167419 -114.897621 670.896667
v 447.285095 -114.680420 670.896667
v 476.515198 -130.387619 670.896667
v 482.806793 -133.768524 670.896667
v 483.954193 -134.385025 670.896667
v 485.601196 -135.270126 670.896667
v 489.369995 -137.295319 670.896667
v 488.047302 -139.708725 670.896667
v 452.867920 -104.364723 676.896667
v 447.285095 -114.680420 676.896667
v 489.369995 -137.295319 676.896667
v 453.367920 -103.440926 676.896667
v 495.426392 -125.967224 676.896667
v 455.938477 -78.730804 621.896667
v 455.016113 -80.362457 621.896667
v 459.229614 -82.622765 621.896667
v 456.860779 -77.099167 621.896667
v 462.057892 -84.139961 621.896667
v 463.443115 -84.883087 621.896667
v 505.350708 -103.147827 621.896667
v 461.882507 -87.777153 621.896667
v 461.575500 -88.346474 621.896667
v 474.974609 -95.503456 621.896667
v 501.772797 -109.817421 621.896667
v 503.244690 -110.066727 621.896667
v 502.255798 -109.967224 621.896667
v 504.230591 -109.910927 621.896667
v 505.145996 -109.500626 621.896667
v 506.376404 -104.235023 621.896667
v 504.701294 -109.738922 621.896667
v 506.711121 -107.606224 621.896667
v 505.923798 -108.869926 621.896667
v 506.084717 -103.827621 621.896667
v 506.240112 -108.488724 621.896667
v 506.907715 -105.638824 621.896667
v 506.792175 -105.140526 621.896667
v 506.944702 -106.637527 621.896667
v 459.165802 -92.807762 627.896667
v 458.377197 -94.267822 627.896667
v 482.661499 -107.309525 627.896667
v 461.575500 -88.346474 627.896667
v 493.869690 -113.328720 627.896667
v 497.077209 -111.837120 627.896667
v 501.772797 -109.817421 627.896667
v 494.334778 -113.578720 627.896667
v 496.066895 -113.705727 627.896667
v 495.730103 -114.328522 627.896667
v 497.782104 -112.203621 627.896667
v 499.897003 -113.303123 627.896667
v 491.845703 -117.067421 633.896667
v 490.373718 -119.786522 633.896667
v 495.730103 -114.328522 633.896667
v 494.335815 -121.881927 633.896667
v 493.869690 -113.328720 633.896667
v 496.905792 -123.241127 633.896667
v 501.706421 -114.270226 633.896667
v 499.897003 -113.303123 633.896667
v 497.077209 -111.837120 633.896667
vt 0.174310 0.333260
vt 0.174290 0.320510
vt 0.154530 0.335330
vt 0.184260 0.364550
vt 0.138050 0.340660
vt 0.215860 0.446740
vt 0.157020 0.342920
vt 0.139260 0.343860
vt 0.205500 0.429060
vt 0.187320 0.439230
vt 0.189480 0.445800
vt 0.204290 0.453170
vt 0.175770 0.453490
vt 0.191750 0.460140
vt 0.180100 0.466610
vt 0.165390 0.368310
vt 0.166090 0.374710
vt 0.152350 0.382330
vt 0.147520 0.385040
vt 0.104730 0.402260
vt 0.096380 0.376870
vt 0.077930 0.387200
vt 0.082610 0.401420
vt 0.125130 0.397560
vt 0.119700 0.400610
vt 0.106850 0.407870
vt 0.095050 0.414460
vt 0.088160 0.418300
vt 0.152360 0.382390
vt 0.147530 0.385090
vt 0.166800 0.443580
vt 0.147540 0.385090
vt 0.125180 0.397610
vt 0.126330 0.420770
vt 0.119720 0.400670
vt 0.143110 0.471770
vt 0.130250 0.478960
vt 0.131600 0.424250
vt 0.134510 0.426180
vt 0.148470 0.468760
vt 0.154270 0.439260
vt 0.167460 0.458140
vt 0.168480 0.448660
vt 0.170960 0.456190
vt 0.100920 0.365330
vt 0.093870 0.369260
vt 0.100220 0.361680
vt 0.125170 0.397620
vt 0.125150 0.397630
vt 0.125150 0.397620
vt 0.125180 0.397630
vt 0.125260 0.397940
vt 0.171710 0.458490
vt 0.175290 0.469330
vt 0.169560 0.461140
vt 0.152750 0.481810
vt 0.147320 0.484850
vt 0.126510 0.485460
vt 0.121340 0.494980
vt 0.131470 0.482690
vt 0.128280 0.491110
vt 0.076090 0.405220
vt 0.108070 0.502340
vt 0.121330 0.497940
vt 0.121460 0.495950
vt 0.119690 0.501780
vt 0.120730 0.499930
vt 0.109720 0.504380
vt 0.120270 0.500880
vt 0.115750 0.504980
vt 0.118300 0.503360
vt 0.109070 0.503810
vt 0.117510 0.504010
vt 0.112110 0.505420
vt 0.111240 0.505200
vt 0.113910 0.505470
vt 0.094940 0.364700
vt 0.067710 0.379750
vt 0.129470 0.494740
vt 0.154530 0.335330
vt 0.174290 0.320510
vt 0.174310 0.333260
vt 0.177580 0.343550
vt 0.138050 0.340660
vt 0.184260 0.364550
vt 0.215860 0.446740
vt 0.155250 0.337530
vt 0.162700 0.339750
vt 0.143680 0.341390
vt 0.157020 0.342920
vt 0.142980 0.341780
vt 0.139260 0.343860
vt 0.201260 0.416160
vt 0.205500 0.429060
vt 0.189480 0.445800
vt 0.190960 0.437200
vt 0.204290 0.453170
vt 0.188230 0.442000
vt 0.187320 0.439230
vt 0.191750 0.460140
vt 0.183710 0.449040
vt 0.175770 0.453490
vt 0.177480 0.458650
vt 0.180100 0.466610
vt 0.157020 0.342920
vt 0.174310 0.333260
vt 0.163970 0.364010
vt 0.164380 0.365250
vt 0.165390 0.368310
vt 0.184260 0.364550
vt 0.166090 0.374710
vt 0.152350 0.382330
vt 0.147520 0.385040
vt 0.112040 0.398170
vt 0.096380 0.376870
vt 0.097380 0.379930
vt 0.082610 0.401420
vt 0.077930 0.387200
vt 0.104730 0.402260
vt 0.125130 0.397560
vt 0.119700 0.400610
vt 0.106850 0.407870
vt 0.095050 0.414460
vt 0.088160 0.418300
vt 0.139260 0.343860
vt 0.154530 0.335330
vt 0.157020 0.342920
vt 0.165390 0.368310
vt 0.104730 0.402260
vt 0.100920 0.365330
vt 0.096380 0.376870
vt 0.093870 0.369260
vt 0.100220 0.361680
vt 0.138050 0.340660
vt 0.139010 0.343190
vt 0.139260 0.343860
vt 0.103230 0.364040
vt 0.100370 0.362440
vt 0.100920 0.365330
vt 0.100920 0.365330
vt 0.094940 0.364700
vt 0.100220 0.361680
vt 0.095910 0.368130
vt 0.093870 0.369260
vt 0.067710 0.379750
vt 0.095650 0.374670
vt 0.083990 0.383800
vt 0.077930 0.387200
vt 0.096380 0.376870
vt 0.076090 0.405220
vt 0.081070 0.396750
vt 0.082610 0.401420
vt 0.176790 0.368730
vt 0.184260 0.364550
vt 0.205500 0.429060
vt 0.166090 0.374710
vt 0.177260 0.408670
vt 0.187320 0.439230
vt 0.152360 0.382390
vt 0.166090 0.374710
vt 0.174240 0.448830
vt 0.175770 0.453490
vt 0.187320 0.439230
vt 0.189480 0.445800
vt 0.106850 0.407870
vt 0.119720 0.400670
vt 0.121230 0.405270
vt 0.126330 0.420770
vt 0.143110 0.471770
vt 0.130250 0.478960
vt 0.119700 0.400610
vt 0.120590 0.400110
vt 0.143110 0.471770
vt 0.125130 0.397560
vt 0.127600 0.405110
vt 0.148470 0.468760
vt 0.152750 0.481810
vt 0.147320 0.484850
vt 0.152350 0.382330
vt 0.175770 0.453490
vt 0.148310 0.384590
vt 0.147950 0.384800
vt 0.147520 0.385040
vt 0.166800 0.443580
vt 0.170960 0.456190
vt 0.171710 0.458490
vt 0.172800 0.461780
vt 0.175290 0.469330
vt 0.180100 0.466610
vt 0.126970 0.396530
vt 0.147520 0.385040
vt 0.175290 0.469330
vt 0.125130 0.397560
vt 0.152750 0.481810
vt 0.079350 0.403320
vt 0.082610 0.401420
vt 0.085390 0.409860
vt 0.076090 0.405220
vt 0.087250 0.415530
vt 0.088160 0.418300
vt 0.108070 0.502340
vt 0.093920 0.415090
vt 0.095050 0.414460
vt 0.103820 0.441300
vt 0.121340 0.494980
vt 0.121330 0.497940
vt 0.121460 0.495950
vt 0.120730 0.499930
vt 0.119690 0.501780
vt 0.109720 0.504380
vt 0.120270 0.500880
vt 0.115750 0.504980
vt 0.118300 0.503360
vt 0.109070 0.503810
vt 0.117510 0.504010
vt 0.112110 0.505420
vt 0.111240 0.505200
vt 0.113910 0.505470
vt 0.103940 0.409500
vt 0.106850 0.407870
vt 0.122860 0.456510
vt 0.095050 0.414460
vt 0.130250 0.478960
vt 0.126510 0.485460
vt 0.121340 0.494980
vt 0.130550 0.479900
vt 0.130230 0.483380
vt 0.131470 0.482690
vt 0.126950 0.486880
vt 0.128280 0.491110
vt 0.137690 0.474800
vt 0.143110 0.471770
vt 0.131470 0.482690
vt 0.145660 0.479700
vt 0.130250 0.478960
vt 0.147320 0.484850
vt 0.129470 0.494740
vt 0.128280 0.491110
vt 0.126510 0.485460
vn 0.0000 0.0000 -1.0000
vn 0.0001 0.0000 -1.0000
vn 0.0267 0.0000 -0.9996
vn -0.0267 0.0000 -0.9996
vn 0.0021 0.0000 -1.0000
vn 0.0155 0.0000 -0.9999
vn 0.0073 -0.0003 -1.0000
vn 0.0000 -0.0005 -1.0000
vn 0.0167 0.0000 -0.9999
vn -0.0015 0.0000 -1.0000
vn -0.0001 0.0000 -1.0000
vn 0.0003 0.0000 -1.0000
vn -0.0012 0.0000 -1.0000
vn -0.0003 0.0000 -1.0000
vn -0.0006 0.0000 -1.0000
vn 0.0005 0.0000 -1.0000
vn -0.0024 0.0000 -1.0000
vn -0.0055 0.0000 -1.0000
vn 0.0000 0.0003 -1.0000
vn -0.0004 0.0000 -1.0000
vn 0.0000 0.0000 1.0000
vn -0.0001 0.0000 1.0000
vn 0.0001 0.0000 1.0000
vn -0.0002 0.0000 1.0000
vn 0.0009 0.0000 1.0000
vn -0.0004 0.0000 1.0000
vn 0.0012 0.0000 1.0000
s off
f 1/1/1 2/2/1 3/3/1
f 4/4/1 2/2/1 1/1/1
f 2/2/1 5/5/1 3/3/1
f 2/2/1 4/4/1 6/6/1
f 7/7/1 1/1/1 3/3/1
f 8/8/2 3/3/2 5/5/2
f 4/4/1 9/9/1 6/6/1
f 10/10/1 11/11/1 9/9/1
f 11/11/1 12/12/1 9/9/1
f 9/9/1 12/12/1 6/6/1
f 11/11/1 13/13/1 14/14/1
f 14/14/1 12/12/1 11/11/1
f 14/14/1 13/13/1 15/15/1
f 16/16/1 1/1/1 7/7/1
f 1/1/1 16/16/1 4/4/1
f 17/17/1 4/4/1 16/16/1
f 18/18/1 17/17/1 16/16/1
f 16/16/1 19/19/1 18/18/1
f 16/16/1 20/20/1 19/19/1
f 21/21/1 22/22/1 23/23/1
f 21/21/1 23/23/1 20/20/1
f 19/19/1 20/20/1 24/24/1
f 24/24/1 20/20/1 25/25/1
f 20/20/1 26/26/1 25/25/1
f 23/23/1 27/27/1 20/20/1
f 23/23/1 28/28/1 27/27/1
f 20/20/1 27/27/1 26/26/1
f 13/13/1 17/17/1 29/29/1
f 13/13/1 10/10/1 17/17/1
f 30/30/3 31/31/3 32/32/3
f 13/13/1 32/32/1 31/31/1
f 33/33/1 31/31/1 30/30/1
f 26/26/1 34/34/1 35/35/1
f 34/34/1 26/26/1 36/36/1
f 26/26/1 37/37/1 36/36/1
f 34/34/1 36/36/1 38/38/1
f 36/36/1 39/39/1 38/38/1
f 40/40/1 39/39/1 36/36/1
f 41/41/1 42/42/1 43/43/1
f 13/13/1 11/11/1 10/10/1
f 43/43/1 44/44/1 13/13/1
f 42/42/1 44/44/1 43/43/1
f 3/3/1 8/8/1 7/7/1
f 8/8/1 16/16/1 7/7/1
f 8/8/1 45/45/1 20/20/1
f 16/16/1 8/8/1 20/20/1
f 45/45/1 46/46/1 21/21/1
f 45/45/1 21/21/1 20/20/1
f 47/47/1 8/8/1 5/5/1
f 47/47/1 45/45/1 8/8/1
f 29/29/1 18/18/1 19/19/1
f 19/19/1 32/32/1 29/29/1
f 13/13/1 29/29/1 32/32/1
f 32/32/4 19/19/4 30/30/4
f 24/24/5 33/33/5 30/30/5
f 24/24/6 48/48/6 33/33/6
f 24/24/7 49/49/7 50/50/7
f 24/24/1 25/25/1 49/49/1
f 33/33/8 48/48/8 51/51/8
f 33/33/9 51/51/9 41/41/9
f 33/33/1 41/41/1 31/31/1
f 52/52/10 50/50/10 49/49/10
f 52/52/1 49/49/1 38/38/1
f 49/49/2 25/25/2 35/35/2
f 35/35/1 34/34/1 49/49/1
f 38/38/1 49/49/1 34/34/1
f 39/39/1 52/52/1 38/38/1
f 41/41/1 43/43/1 31/31/1
f 31/31/11 43/43/11 13/13/11
f 44/44/2 53/53/2 13/13/2
f 53/53/1 54/54/1 13/13/1
f 54/54/1 15/15/1 13/13/1
f 42/42/1 55/55/1 44/44/1
f 44/44/11 55/55/11 53/53/11
f 55/55/1 54/54/1 53/53/1
f 56/56/1 40/40/1 36/36/1
f 57/57/1 56/56/1 36/36/1
f 4/4/1 17/17/1 9/9/1
f 17/17/1 10/10/1 9/9/1
f 26/26/1 27/27/1 37/37/1
f 37/37/1 27/27/1 58/58/1
f 58/58/1 27/27/1 59/59/1
f 60/60/1 37/37/1 58/58/1
f 58/58/1 59/59/1 61/61/1
f 28/28/1 23/23/1 62/62/1
f 63/63/1 28/28/1 62/62/1
f 59/59/1 27/27/1 28/28/1
f 63/63/1 59/59/1 28/28/1
f 59/59/2 64/64/2 65/65/2
f 63/63/2 64/64/2 59/59/2
f 64/64/1 66/66/1 67/67/1
f 68/68/1 66/66/1 64/64/1
f 63/63/11 68/68/11 64/64/11
f 67/67/1 66/66/1 69/69/1
f 70/70/12 71/71/12 66/66/12
f 68/68/1 70/70/1 66/66/1
f 72/72/13 68/68/13 63/63/13
f 70/70/14 73/73/14 71/71/14
f 68/68/1 74/74/1 70/70/1
f 68/68/15 75/75/15 74/74/15
f 74/74/16 76/76/16 70/70/16
f 30/30/17 19/19/17 24/24/17
f 48/48/18 24/24/18 50/50/18
f 48/48/19 50/50/19 51/51/19
f 50/50/19 52/52/19 51/51/19
f 41/41/20 51/51/20 52/52/20
f 39/39/1 41/41/1 52/52/1
f 39/39/1 40/40/1 41/41/1
f 40/40/1 42/42/1 41/41/1
f 55/55/1 42/42/1 56/56/1
f 56/56/1 42/42/1 40/40/1
f 55/55/1 56/56/1 54/54/1
f 47/47/1 77/77/1 45/45/1
f 45/45/1 77/77/1 46/46/1
f 46/46/1 77/77/1 78/78/1
f 21/21/1 46/46/1 22/22/1
f 22/22/1 46/46/1 78/78/1
f 62/62/1 22/22/1 78/78/1
f 23/23/1 22/22/1 62/62/1
f 36/36/1 37/37/1 60/60/1
f 36/36/1 60/60/1 57/57/1
f 57/57/1 60/60/1 79/79/1
f 61/61/1 60/60/1 58/58/1
f 79/79/1 60/60/1 61/61/1
f 80/80/21 81/81/21 82/82/21
f 82/82/21 81/81/21 83/83/21
f 84/84/21 81/81/21 80/80/21
f 83/83/21 81/81/21 85/85/21
f 85/85/21 81/81/21 86/86/21
f 87/87/21 80/80/21 82/82/21
f 88/88/21 87/87/21 82/82/21
f 89/89/21 84/84/21 80/80/21
f 90/90/21 87/87/21 88/88/21
f 91/91/21 84/84/21 89/89/21
f 92/92/22 84/84/22 91/91/22
f 85/85/21 86/86/21 93/93/21
f 93/93/23 86/86/23 94/94/23
f 94/94/21 95/95/21 96/96/21
f 97/97/21 95/95/21 94/94/21
f 86/86/21 97/97/21 94/94/21
f 96/96/21 98/98/21 99/99/21
f 96/96/21 95/95/21 98/98/21
f 95/95/21 100/100/21 101/101/21
f 95/95/21 97/97/21 100/100/21
f 101/101/21 100/100/21 102/102/21
f 100/100/21 103/103/21 102/102/21
f 100/100/21 104/104/21 103/103/21
f 105/105/21 106/106/21 107/107/21
f 107/107/21 106/106/21 108/108/21
f 109/109/21 106/106/21 110/110/21
f 108/108/21 106/106/21 109/109/21
f 109/109/21 110/110/21 111/111/21
f 112/112/21 109/109/21 111/111/21
f 113/113/22 109/109/22 112/112/22
f 114/114/21 109/109/21 113/113/21
f 115/115/21 116/116/21 117/117/21
f 115/115/21 117/117/21 118/118/21
f 116/116/21 119/119/21 117/117/21
f 119/119/21 113/113/21 120/120/21
f 119/119/22 114/114/22 113/113/22
f 119/119/21 120/120/21 121/121/21
f 121/121/21 122/122/21 119/119/21
f 123/123/21 117/117/21 119/119/21
f 124/124/21 117/117/21 123/123/21
f 119/119/21 122/122/21 123/123/21
f 125/125/21 126/126/21 127/127/21
f 125/125/21 127/127/21 128/128/21
f 125/125/21 129/129/21 130/130/21
f 125/125/21 128/128/21 129/129/21
f 131/131/21 132/132/21 130/130/21
f 130/130/21 129/129/21 131/131/21
f 133/133/21 134/134/21 135/135/21
f 133/133/23 135/135/23 136/136/23
f 137/137/21 133/133/21 136/136/21
f 138/138/21 133/133/21 137/137/21
f 139/139/21 138/138/21 137/137/21
f 140/140/21 141/141/21 142/142/21
f 141/141/21 140/140/21 143/143/21
f 141/141/21 143/143/21 144/144/21
f 144/144/21 145/145/21 141/141/21
f 146/146/21 147/147/21 144/144/21
f 148/148/21 145/145/21 144/144/21
f 147/147/21 148/148/21 144/144/21
f 149/149/21 147/147/21 146/146/21
f 150/150/21 145/145/21 148/148/21
f 151/151/21 150/150/21 148/148/21
f 152/152/21 150/150/21 151/151/21
f 153/153/21 154/154/21 155/155/21
f 156/156/21 153/153/21 155/155/21
f 156/156/21 155/155/21 157/157/21
f 157/157/21 155/155/21 158/158/21
f 159/159/21 160/160/21 161/161/21
f 161/161/21 160/160/21 162/162/21
f 162/162/21 160/160/21 163/163/21
f 162/162/21 163/163/21 164/164/21
f 165/165/21 166/166/21 167/167/21
f 165/165/21 167/167/21 168/168/21
f 169/169/21 165/165/21 168/168/21
f 170/170/21 165/165/21 169/169/21
f 171/171/21 172/172/21 173/173/21
f 172/172/21 174/174/21 173/173/21
f 174/174/21 175/175/21 173/173/21
f 175/175/21 176/176/21 173/173/21
f 173/173/21 176/176/21 177/177/21
f 178/178/21 173/173/21 177/177/21
f 179/179/21 180/180/21 181/181/21
f 181/181/21 180/180/21 182/182/21
f 182/182/21 180/180/21 183/183/21
f 183/183/21 180/180/21 184/184/21
f 184/184/21 180/180/21 185/185/21
f 185/185/21 180/180/21 186/186/21
f 186/186/21 180/180/21 187/187/21
f 187/187/21 180/180/21 188/188/21
f 188/188/21 180/180/21 189/189/21
f 190/190/21 191/191/21 192/192/21
f 193/193/21 190/190/21 192/192/21
f 193/193/21 192/192/21 194/194/21
f 195/195/21 196/196/21 197/197/21
f 198/198/21 195/195/21 197/197/21
f 198/198/21 197/197/21 199/199/21
f 198/198/21 199/199/21 200/200/21
f 198/198/21 200/200/21 201/201/21
f 202/202/21 203/203/21 204/204/21
f 200/200/21 202/202/21 204/204/21
f 200/200/21 204/204/21 205/205/21
f 201/201/21 200/200/21 205/205/21
f 206/206/24 205/205/24 207/207/24
f 206/206/23 201/201/23 205/205/23
f 206/206/21 208/208/21 209/209/21
f 206/206/21 209/209/21 210/210/21
f 206/206/22 210/210/22 201/201/22
f 208/208/21 211/211/21 209/209/21
f 212/212/23 209/209/23 213/213/23
f 210/210/21 209/209/21 212/212/21
f 210/210/21 214/214/21 201/201/21
f 212/212/25 213/213/25 215/215/25
f 216/216/26 210/210/26 212/212/26
f 210/210/27 216/216/27 217/217/27
f 212/212/21 218/218/21 216/216/21
f 219/219/21 220/220/21 221/221/21
f 222/222/21 219/219/21 223/223/21
f 219/219/21 221/221/21 223/223/21
f 222/222/21 223/223/21 224/224/21
f 222/222/21 224/224/21 225/225/21
f 224/224/23 223/223/23 226/226/23
f 227/227/21 226/226/21 228/228/21
f 227/227/22 224/224/22 226/226/22
f 225/225/21 224/224/21 229/229/21
f 225/225/21 229/229/21 230/230/21
f 231/231/21 232/232/21 233/233/21
f 233/233/21 232/232/21 234/234/21
f 235/235/21 231/231/21 233/233/21
f 233/233/21 234/234/21 236/236/21
f 237/237/21 233/233/21 236/236/21
f 238/238/21 239/239/21 233/233/21
f 238/238/21 233/233/21 237/237/21
