# Blender v3.0.1 OBJ File: 'rockerfeller_plaza.blend'
# www.blender.org
o geometryt000010000010000110010110000110000110100100010010st125
v 1197.406128 -105.195763 1012.114014
v 1188.196533 -121.879364 1012.114014
v 1187.890503 -121.705261 1012.114014
v 1191.773071 -102.153160 1012.114014
v 1186.403076 -124.453865 1012.114014
v 1177.254028 -129.013062 1012.114014
v 1186.700562 -124.616966 1012.114014
v 1182.717285 -131.968857 1012.114014
v 1187.890503 -121.705261 1034.114014
v 1191.773071 -102.153160 1034.114014
v 1177.254028 -129.013062 1034.114014
v 1197.406128 -105.195763 1034.114014
v 1182.717285 -131.968857 1034.114014
v 1186.403076 -124.453865 1034.114014
v 1186.700562 -124.616966 1034.114014
v 1188.196533 -121.879364 1034.114014
vt 0.129880 0.387570
vt 0.163170 0.368610
vt 0.162950 0.368000
vt 0.126140 0.376290
vt 0.168420 0.364940
vt 0.179630 0.346390
vt 0.168630 0.365530
vt 0.183270 0.357330
vt 0.162950 0.368000
vt 0.126140 0.376290
vt 0.179630 0.346390
vt 0.129880 0.387570
vt 0.183270 0.357330
vt 0.168420 0.364940
vt 0.168630 0.365530
vt 0.163170 0.368610
vn 0.0003 0.0000 -1.0000
vn -0.0000 0.0000 -1.0000
vn 0.0000 0.0000 1.0000
vn 0.0003 0.0000 1.0000
s off
f 1/1/1 2/2/1 3/3/1
f 3/3/2 4/4/2 1/1/2
f 5/5/2 6/6/2 3/3/2
f 6/6/2 4/4/2 3/3/2
f 7/7/1 8/8/1 5/5/1
f 5/5/2 8/8/2 6/6/2
f 9/9/3 10/10/3 11/11/3
f 12/12/3 10/10/3 9/9/3
f 13/13/3 14/14/3 11/11/3
f 14/14/3 9/9/3 11/11/3
f 15/15/4 14/14/4 13/13/4
f 16/16/3 12/12/3 9/9/3
