# Blender v3.0.1 OBJ File: 'rockerfeller_plaza.blend'
# www.blender.org
o geometryt000010000010000110010110000110000110100100000000st179
v 473.512451 -116.728088 888.714050
v 474.268616 -117.134583 905.203918
v 473.512451 -116.728088 905.203918
v 469.485840 -114.563484 888.714050
v 474.268616 -117.134583 888.503906
v 469.485840 -114.563484 905.203918
v 468.729614 -114.156982 905.203918
v 468.729614 -114.156982 888.503906
v 468.893036 -113.853088 888.714050
v 468.729614 -114.156982 905.203918
v 468.893036 -113.853088 905.203918
v 469.614807 -112.511086 888.714050
v 468.729614 -114.156982 888.503906
v 469.614807 -112.511086 905.203918
v 469.799011 -112.168488 905.203918
v 469.799011 -112.168488 888.714050
v 470.520813 -110.826485 888.714050
v 470.520813 -110.826485 905.203918
v 470.705139 -110.483986 905.203918
v 470.705139 -110.483986 888.714050
v 472.870544 -106.457787 888.714050
v 472.870544 -106.457787 905.203918
v 473.054749 -106.115288 905.203918
v 473.054749 -106.115288 888.714050
v 473.776550 -104.773186 888.714050
v 473.776550 -104.773186 905.203918
v 473.960724 -104.430687 905.203918
v 473.960724 -104.430687 888.714050
v 474.682526 -103.088684 888.714050
v 474.682526 -103.088684 905.203918
v 474.866821 -102.746086 905.203918
v 474.866821 -102.746086 888.714050
v 476.310425 -100.061989 888.714050
v 482.447632 -88.651154 888.503906
v 476.310425 -100.061989 905.203918
v 476.494629 -99.719467 905.203918
v 476.494629 -99.719467 888.714050
v 477.216431 -98.377426 888.714050
v 477.216431 -98.377426 905.203918
v 477.400726 -98.034889 905.203918
v 477.400726 -98.034889 888.714050
v 478.122528 -96.692848 888.714050
v 478.122528 -96.692848 905.203918
v 478.306732 -96.350304 905.203918
v 478.306732 -96.350304 888.714050
v 480.472107 -92.324165 888.714050
v 480.472107 -92.324165 905.203918
v 480.656311 -91.981628 905.203918
v 480.656311 -91.981628 888.714050
v 481.378113 -90.639587 888.714050
v 481.378113 -90.639587 905.203918
v 481.562439 -90.297043 905.203918
v 481.562439 -90.297043 888.714050
v 482.284241 -88.954994 888.714050
v 482.284241 -88.954994 905.203918
v 482.447632 -88.651154 905.203918
v 475.137634 -115.527588 888.714050
v 475.301727 -115.224083 905.203918
v 475.137634 -115.527588 905.203918
v 474.268616 -117.134583 888.503906
v 474.432739 -116.831184 888.714050
v 475.301727 -115.224083 888.503906
v 474.432739 -116.831184 905.203918
v 474.268616 -117.134583 905.203918
v 487.823334 -91.932678 888.714050
v 487.986633 -91.628807 905.203918
v 487.823334 -91.932678 905.203918
v 487.101746 -93.274857 888.714050
v 487.986633 -91.628807 888.503906
v 487.101746 -93.274857 905.203918
v 486.909851 -93.631729 905.203918
v 486.909851 -93.631729 888.714050
v 486.188324 -94.973892 888.714050
v 486.188324 -94.973892 905.203918
v 485.996429 -95.330765 905.203918
v 485.996429 -95.330765 888.714050
v 483.831848 -99.357292 888.714050
v 483.831848 -99.357292 905.203918
v 483.639923 -99.714157 905.203918
v 483.639923 -99.714157 888.714050
v 482.918427 -101.056389 888.714050
v 482.918427 -101.056389 905.203918
v 482.726532 -101.413185 905.203918
v 482.726532 -101.413185 888.714050
v 480.561829 -105.439789 888.714050
v 475.301727 -115.224083 888.503906
v 480.561829 -105.439789 905.203918
v 480.370026 -105.796585 905.203918
v 480.370026 -105.796585 888.714050
v 479.648438 -107.138786 888.714050
v 479.648438 -107.138786 905.203918
v 479.456635 -107.495682 905.203918
v 479.456635 -107.495682 888.714050
v 477.291931 -111.522186 888.714050
v 477.291931 -111.522186 905.203918
v 477.100037 -111.879089 905.203918
v 477.100037 -111.879089 888.714050
v 476.378540 -113.221184 888.714050
v 476.378540 -113.221184 905.203918
v 476.186646 -113.578087 905.203918
v 476.186646 -113.578087 888.714050
v 475.465149 -114.920288 888.714050
v 475.465149 -114.920288 905.203918
v 475.301727 -115.224083 905.203918
v 483.203827 -89.057686 888.714050
v 482.447632 -88.651154 905.203918
v 483.203827 -89.057686 905.203918
v 487.230408 -91.222282 888.714050
v 482.447632 -88.651154 888.503906
v 487.230408 -91.222282 905.203918
v 487.986633 -91.628807 905.203918
v 487.986633 -91.628807 888.503906
vt 6.961670 0.269390
vt 8.062400 21.410259
vt 6.961670 21.410259
vt 1.100740 0.269390
vt 8.062400 0.000000
vt 1.100740 21.410259
vt 0.000000 21.410259
vt 0.000000 0.000000
vt 36.686958 0.269390
vt 37.129269 21.410259
vt 36.686958 21.410259
vt 34.733318 0.269390
vt 37.129269 0.000000
vt 34.733318 21.410259
vt 34.234680 21.410259
vt 34.234680 0.269390
vt 32.281040 0.269390
vt 32.281040 21.410259
vt 31.782400 21.410259
vt 31.782400 0.269390
vt 25.921480 0.269390
vt 25.921480 21.410259
vt 25.422840 21.410259
vt 25.422840 0.269390
vt 23.469191 21.410259
vt 22.970560 21.410259
vt 23.469191 0.269390
vt 22.970560 0.269390
vt 21.016911 21.410259
vt 20.518280 21.410259
vt 21.016911 0.269390
vt 20.518280 0.269390
vt 16.610991 0.269390
vt 0.000000 0.000000
vt 16.610991 21.410259
vt 16.112350 21.410259
vt 16.112350 0.269390
vt 14.158710 0.269390
vt 14.158710 21.410259
vt 13.660080 21.410259
vt 13.660080 0.269390
vt 11.706430 0.269390
vt 11.706430 21.410259
vt 11.207800 21.410259
vt 11.207800 0.269390
vt 5.346870 0.269390
vt 5.346870 21.410259
vt 4.848230 21.410259
vt 4.848230 0.269390
vt 2.894590 0.269390
vt 2.894590 21.410259
vt 2.395950 21.410259
vt 2.395950 0.269390
vt 0.442310 0.269390
vt 0.442310 21.410259
vt 0.000000 21.410259
vt 2.342210 0.269390
vt 2.784520 21.410259
vt 2.342210 21.410259
vt 0.000000 0.000000
vt 0.442310 0.269390
vt 2.784520 0.000000
vt 0.442310 21.410259
vt 0.000000 21.410259
vt 33.902451 0.269390
vt 34.344761 21.410259
vt 33.902451 21.410259
vt 31.948811 0.269390
vt 34.344761 0.000000
vt 31.948811 21.410259
vt 31.429371 21.410259
vt 31.429371 0.269390
vt 29.475731 0.269390
vt 29.475731 21.410259
vt 28.956289 21.410259
vt 28.956289 0.269390
vt 23.095369 0.269390
vt 23.095369 21.410259
vt 22.575930 21.410259
vt 22.575930 0.269390
vt 20.622280 21.410259
vt 20.102840 21.410259
vt 20.622280 0.269390
vt 20.102840 0.269390
vt 14.241920 0.269390
vt 0.000000 0.000000
vt 14.241920 21.410259
vt 13.722480 21.410259
vt 13.722480 0.269390
vt 11.768840 21.410259
vt 11.249400 21.410259
vt 11.768840 0.269390
vt 11.249400 0.269390
vt 5.388470 0.269390
vt 5.388470 21.410259
vt 4.869030 21.410259
vt 4.869030 0.269390
vt 2.915390 0.269390
vt 2.915390 21.410259
vt 2.395950 21.410259
vt 2.395950 0.269390
vt 0.442310 0.269390
vt 0.442310 21.410259
vt 0.000000 21.410259
vt 6.961650 0.269390
vt 8.062380 21.410259
vt 6.961650 21.410259
vt 1.100730 0.269390
vt 8.062380 0.000000
vt 1.100730 21.410259
vt 0.000000 21.410259
vt 0.000000 0.000000
vn -0.4735 -0.8808 0.0000
vn -0.4733 -0.8809 0.0000
vn -0.4734 -0.8808 0.0000
vn -0.4736 -0.8807 0.0001
vn -0.8808 0.4736 0.0000
vn -0.8807 0.4736 -0.0001
vn -0.8807 0.4738 0.0000
vn -0.8808 0.4735 0.0000
vn -0.8807 0.4736 0.0000
vn -0.8808 0.4734 0.0002
vn -0.8806 0.4739 0.0000
vn -0.8805 0.4740 0.0000
vn -0.8808 0.4734 0.0003
vn -0.8807 0.4737 0.0000
vn -0.8788 0.4772 0.0015
vn -0.8808 0.4734 -0.0004
vn -0.8802 0.4747 0.0015
vn -0.8815 0.4722 0.0017
vn -0.8806 0.4738 -0.0004
vn -0.8805 0.4740 -0.0003
vn -0.8806 0.4738 0.0000
vn -0.8807 0.4737 0.0001
vn 0.8797 -0.4755 0.0000
vn 0.8796 -0.4757 -0.0002
vn 0.8797 -0.4756 -0.0001
vn 0.8796 -0.4756 0.0000
vn 0.8795 -0.4759 0.0000
vn 0.8796 -0.4758 0.0000
vn 0.8809 -0.4733 0.0000
vn 0.8807 -0.4738 -0.0003
vn 0.8808 -0.4734 0.0000
vn 0.8808 -0.4736 0.0000
vn 0.8807 -0.4737 0.0000
vn 0.8806 -0.4739 0.0002
vn 0.8807 -0.4737 -0.0002
vn 0.8807 -0.4736 0.0000
vn 0.8807 -0.4737 -0.0003
vn 0.8808 -0.4735 0.0000
vn 0.8809 -0.4733 -0.0001
vn 0.8806 -0.4739 -0.0003
vn 0.8813 -0.4726 0.0002
vn 0.8806 -0.4738 0.0000
vn 0.4735 0.8808 0.0000
vn 0.4734 0.8808 0.0000
vn 0.4736 0.8807 0.0000
vn -0.8801 0.4748 0.0005
vn -0.8802 0.4747 -0.0023
vn -0.8801 0.4747 -0.0004
vn -0.8816 0.4721 0.0044
vn -0.8809 0.4734 0.0007
vn -0.8815 0.4721 0.0023
vn -0.8814 0.4723 -0.0059
vn -0.8814 0.4723 -0.0060
vn -0.8760 0.4823 -0.0030
vn -0.8760 0.4823 -0.0051
vn -0.8760 0.4823 -0.0052
vn -0.8760 0.4823 -0.0050
vn -0.8815 0.4722 0.0007
vn -0.8815 0.4723 0.0004
vn -0.8807 0.4736 -0.0002
vn 0.8813 -0.4726 -0.0004
vn 0.8813 -0.4726 -0.0014
vn 0.8802 -0.4746 0.0009
vn 0.8810 -0.4732 -0.0003
vn 0.8838 -0.4679 -0.0034
vn 0.8838 -0.4678 -0.0035
vn 0.8788 -0.4771 0.0000
vn 0.8812 -0.4728 -0.0009
vn 0.8788 -0.4772 0.0000
vn 0.8816 -0.4720 -0.0015
vn 0.8812 -0.4727 0.0021
vn 0.8800 -0.4749 0.0007
s off
f 1/1/1 2/2/1 3/3/1
f 4/4/2 5/5/2 1/1/2
f 2/2/1 1/1/1 5/5/1
f 6/6/3 7/7/3 4/4/3
f 7/7/1 8/8/1 4/4/1
f 8/8/4 5/5/4 4/4/4
f 9/9/5 10/10/5 11/11/5
f 12/12/6 13/13/6 9/9/6
f 10/10/7 9/9/7 13/13/7
f 14/14/8 15/15/8 12/12/8
f 15/15/9 16/16/9 12/12/9
f 16/16/10 17/17/10 13/13/10
f 18/18/11 19/19/11 17/17/11
f 19/19/12 20/20/12 17/17/12
f 20/20/13 21/21/13 13/13/13
f 22/22/14 23/23/14 21/21/14
f 23/23/9 24/24/9 21/21/9
f 21/21/15 24/24/15 13/13/15
f 26/25/14 27/26/14 25/27/14
f 27/26/8 28/28/8 25/27/8
f 30/29/14 31/30/14 29/31/14
f 31/30/14 32/32/14 29/31/14
f 33/33/16 34/34/16 32/32/16
f 32/32/14 34/34/14 13/13/14
f 35/35/14 36/36/14 33/33/14
f 36/36/9 37/37/9 33/33/9
f 38/38/17 34/34/17 37/37/17
f 39/39/11 40/40/11 38/38/11
f 40/40/14 41/41/14 38/38/14
f 42/42/18 34/34/18 41/41/18
f 43/43/14 44/44/14 42/42/14
f 44/44/5 45/45/5 42/42/5
f 46/46/19 34/34/19 45/45/19
f 47/47/5 48/48/5 46/46/5
f 48/48/5 49/49/5 46/46/5
f 50/50/20 34/34/20 49/49/20
f 51/51/21 52/52/21 50/50/21
f 52/52/9 53/53/9 50/50/9
f 54/54/22 34/34/22 53/53/22
f 55/55/9 56/56/9 54/54/9
f 56/56/5 34/34/5 54/54/5
f 57/57/23 58/58/23 59/59/23
f 60/60/24 57/57/24 61/61/24
f 60/60/25 62/62/25 57/57/25
f 58/58/26 57/57/26 62/62/26
f 63/63/27 64/64/27 61/61/27
f 64/64/28 60/60/28 61/61/28
f 65/65/29 66/66/29 67/67/29
f 68/68/30 69/69/30 65/65/30
f 66/66/31 65/65/31 69/69/31
f 70/70/32 71/71/32 68/68/32
f 71/71/33 72/72/33 68/68/33
f 72/72/34 73/73/34 69/69/34
f 74/74/32 75/75/32 73/73/32
f 75/75/32 76/76/32 73/73/32
f 76/76/35 77/77/35 69/69/35
f 78/78/32 79/79/32 77/77/32
f 79/79/33 80/80/33 77/77/33
f 82/81/36 83/82/36 81/83/36
f 83/82/33 84/84/33 81/83/33
f 85/85/37 86/86/37 84/84/37
f 84/84/29 86/86/29 69/69/29
f 87/87/38 88/88/38 85/85/38
f 88/88/38 89/89/38 85/85/38
f 91/90/29 92/91/29 90/92/29
f 92/91/31 93/93/31 90/92/31
f 94/94/39 86/86/39 93/93/39
f 95/95/38 96/96/38 94/94/38
f 96/96/38 97/97/38 94/94/38
f 98/98/40 86/86/40 97/97/40
f 99/99/38 100/100/38 98/98/38
f 100/100/36 101/101/36 98/98/36
f 101/101/41 86/86/41 98/98/41
f 102/102/36 86/86/36 101/101/36
f 103/103/42 104/104/42 102/102/42
f 104/104/33 86/86/33 102/102/33
f 105/105/43 106/106/43 107/107/43
f 108/108/44 109/109/44 105/105/44
f 106/106/43 105/105/43 109/109/43
f 110/110/43 111/111/43 108/108/43
f 111/111/43 112/112/43 108/108/43
f 112/112/45 109/109/45 108/108/45
s 1
f 16/16/46 13/13/46 12/12/46
f 17/17/47 20/20/47 13/13/47
f 24/24/48 25/27/49 13/13/50
f 25/27/49 28/28/51 13/13/50
f 28/28/51 29/31/52 13/13/50
f 29/31/52 32/32/53 13/13/50
f 37/37/54 34/34/54 33/33/54
f 41/41/55 34/34/56 38/38/57
f 45/45/58 34/34/58 42/42/58
f 49/49/59 34/34/59 46/46/59
f 53/53/60 34/34/60 50/50/60
f 72/72/30 69/69/30 68/68/30
f 73/73/61 76/76/61 69/69/61
f 77/77/62 80/80/63 69/69/64
f 80/80/63 81/83/65 69/69/64
f 81/83/65 84/84/66 69/69/64
f 89/89/67 86/86/68 85/85/69
f 90/92/70 86/86/68 89/89/67
f 93/93/71 86/86/68 90/92/70
f 97/97/72 86/86/72 94/94/72
