# Blender v3.0.1 OBJ File: 'rockerfeller_plaza.blend'
# www.blender.org
o geometryt000010000010000110010110000110000110100000010110st30
v 1208.443604 -209.689270 188.866150
v 1206.748291 -212.889664 188.866150
v 1206.748291 -212.889664 207.665604
v 1208.443604 -209.689270 207.665604
v 1210.570190 -205.674667 188.866150
v 1209.722534 -207.274872 188.866150
v 1209.722534 -207.274872 207.665604
v 1210.570190 -205.674667 207.665604
v 1213.544434 -200.059875 207.665604
v 1213.544434 -200.059875 188.866150
v 1211.849121 -203.260269 188.866150
v 1211.849121 -203.260269 207.665604
v 1206.891479 -213.356262 188.866150
v 1208.490967 -214.205276 188.866150
v 1208.490967 -214.205276 207.665604
v 1206.891479 -213.356262 207.665604
v 1211.435791 -215.768372 207.665604
v 1211.435791 -215.768372 188.866150
v 1213.035156 -216.617371 188.866150
v 1213.035156 -216.617371 207.665604
v 1213.501709 -216.474472 188.866150
v 1215.200928 -213.276062 188.866150
v 1215.200928 -213.276062 207.665604
v 1213.501709 -216.474472 207.665604
v 1216.337402 -211.136963 188.866150
v 1218.036499 -207.938675 188.866150
v 1218.036499 -207.938675 207.665604
v 1216.337402 -211.136963 207.665604
v 1219.172852 -205.799576 188.866150
v 1221.721558 -201.002075 188.866150
v 1221.721558 -201.002075 207.665604
v 1219.172852 -205.799576 207.665604
v 1222.857910 -198.862976 188.866150
v 1224.557129 -195.664566 188.866150
v 1224.557129 -195.664566 207.665604
v 1222.857910 -198.862976 207.665604
v 1225.693604 -193.525574 188.866150
v 1227.392700 -190.327164 188.866150
v 1227.392700 -190.327164 207.665604
v 1225.693604 -193.525574 207.665604
v 1215.572998 -196.255173 207.665604
v 1215.572998 -196.255173 188.866150
v 1213.868408 -199.450577 188.866150
v 1213.868408 -199.450577 207.665604
v 1217.684082 -192.297577 188.866150
v 1216.831787 -193.895264 188.866150
v 1216.831787 -193.895264 207.665604
v 1217.684082 -192.297577 207.665604
v 1220.647461 -186.742264 207.665604
v 1220.647461 -186.742264 188.866150
v 1218.942871 -189.937668 188.866150
v 1218.942871 -189.937668 207.665604
v 1222.713501 -187.449570 188.866150
v 1221.114502 -186.599762 188.866150
v 1221.114502 -186.599762 207.665604
v 1222.713501 -187.449570 207.665604
v 1227.249878 -189.860565 188.866150
v 1225.650879 -189.010773 188.866150
v 1225.650879 -189.010773 207.665604
v 1227.249878 -189.860565 207.665604
vt 0.000000 0.000000
vt 0.125000 0.000000
vt 0.125000 1.000000
vt 0.000000 1.000000
vt 0.000000 0.000000
vt 0.062500 0.000000
vt 0.062500 1.000000
vt 0.000000 1.000000
vt 0.000000 1.000000
vt 0.000000 0.000000
vt 0.125000 0.000000
vt 0.125000 1.000000
vt 0.000000 0.000000
vt 0.062500 0.000000
vt 0.062500 1.000000
vt 0.000000 1.000000
vt 0.000000 1.000000
vt 0.000000 0.000000
vt 0.062500 0.000000
vt 0.062500 1.000000
vt 0.000000 0.000000
vt 0.125000 0.000000
vt 0.125000 1.000000
vt 0.000000 1.000000
vt 0.000000 0.000000
vt 0.125000 0.000000
vt 0.125000 1.000000
vt 0.000000 1.000000
vt 0.000000 0.000000
vt 0.187500 0.000000
vt 0.187500 1.000000
vt 0.000000 1.000000
vt 0.000000 0.000000
vt 0.125000 0.000000
vt 0.125000 1.000000
vt 0.000000 1.000000
vt 0.000000 0.000000
vt 0.125000 0.000000
vt 0.125000 1.000000
vt 0.000000 1.000000
vt 0.000000 1.000000
vt 0.000000 0.000000
vt 0.125000 0.000000
vt 0.125000 1.000000
vt 0.000000 0.000000
vt 0.062500 0.000000
vt 0.062500 1.000000
vt 0.000000 1.000000
vt 0.000000 1.000000
vt 0.000000 0.000000
vt 0.125000 0.000000
vt 0.125000 1.000000
vt 0.000000 0.000000
vt 0.062500 0.000000
vt 0.062500 1.000000
vt 0.000000 1.000000
vt 0.000000 0.000000
vt 0.062500 0.000000
vt 0.062500 1.000000
vt 0.000000 1.000000
vn -0.8837 0.4681 0.0000
vn -0.4688 -0.8833 0.0000
vn -0.4689 -0.8833 0.0000
vn 0.8831 -0.4692 0.0000
vn 0.8831 -0.4691 0.0000
vn -0.8823 0.4706 0.0000
vn -0.8823 0.4707 0.0000
vn 0.4693 0.8831 0.0000
vn 0.4693 0.8830 0.0000
s off
f 1/1/1 2/2/1 3/3/1
f 4/4/1 1/1/1 3/3/1
f 5/5/1 6/6/1 7/7/1
f 8/8/1 5/5/1 7/7/1
f 9/9/1 10/10/1 11/11/1
f 9/9/1 11/11/1 12/12/1
f 13/13/2 14/14/2 15/15/2
f 16/16/3 13/13/3 15/15/3
f 17/17/3 18/18/3 19/19/3
f 17/17/3 19/19/3 20/20/3
f 21/21/4 22/22/4 23/23/4
f 24/24/5 21/21/5 23/23/5
f 25/25/5 26/26/5 27/27/5
f 28/28/4 25/25/4 27/27/4
f 29/29/5 30/30/5 31/31/5
f 32/32/4 29/29/4 31/31/4
f 33/33/4 34/34/4 35/35/4
f 36/36/4 33/33/4 35/35/4
f 37/37/5 38/38/5 39/39/5
f 40/40/5 37/37/5 39/39/5
f 41/41/6 42/42/6 43/43/6
f 41/41/7 43/43/7 44/44/7
f 45/45/7 46/46/7 47/47/7
f 48/48/6 45/45/6 47/47/6
f 49/49/7 50/50/7 51/51/7
f 49/49/6 51/51/6 52/52/6
f 53/53/8 54/54/8 55/55/8
f 56/56/9 53/53/9 55/55/9
f 57/57/8 58/58/8 59/59/8
f 60/60/9 57/57/9 59/59/9
