# Blender v3.0.1 OBJ File: 'rockerfeller_plaza.blend'
# www.blender.org
o geometryt000010000010000110010110000110000110100100000000st129
v 484.116425 -177.782776 888.309021
v 469.554535 -204.786072 888.309021
v 465.153534 -202.394684 888.309021
v 479.707123 -175.402573 888.309021
v 484.116425 -177.782776 900.809021
v 479.707123 -175.402573 900.809021
v 465.153534 -202.394684 900.809021
v 469.554535 -204.786072 900.809021
vt 0.251640 0.451350
vt 0.305400 0.421370
vt 0.302450 0.412550
vt 0.248710 0.442520
vt 0.251640 0.451350
vt 0.248710 0.442520
vt 0.302450 0.412550
vt 0.305400 0.421370
vn -0.0000 0.0000 -1.0000
vn -0.0000 0.0000 1.0000
s off
f 1/1/1 2/2/1 3/3/1
f 4/4/1 1/1/1 3/3/1
f 5/5/2 6/6/2 7/7/2
f 5/5/2 7/7/2 8/8/2
