# Blender v3.0.1 OBJ File: 'rockerfeller_plaza.blend'
# www.blender.org
o geometryt000010000010000110010110000110000110100100010010st120_
v 1282.537109 -297.088776 1010.033691
v 1270.914795 -311.069580 1010.033691
v 1262.885498 -306.722778 1010.033691
v 1301.646118 -307.422974 1010.033691
v 1287.193115 -334.160187 1010.033691
v 1264.940308 -322.130890 1010.033691
v 1254.064087 -306.126770 1010.033691
v 1256.902588 -317.784180 1010.033691
v 1261.543945 -292.394379 1010.033691
v 1249.850220 -313.969971 1010.033691
v 1264.303223 -287.232788 1010.033691
v 1270.914795 -311.069580 1054.433716
v 1264.940308 -322.130890 1054.433716
v 1287.193115 -334.160187 1054.433716
v 1301.646118 -307.422974 1054.433716
v 1282.537109 -297.088776 1054.433716
v 1264.303223 -287.232788 1054.433716
v 1261.543945 -292.394379 1054.433716
v 1262.885498 -306.722778 1054.433716
v 1254.064087 -306.126770 1054.433716
v 1249.850220 -313.969971 1054.433716
v 1256.902588 -317.784180 1054.433716
vt 0.451980 0.554600
vt 0.481120 0.530850
vt 0.475760 0.514770
vt 0.464710 0.592870
vt 0.517960 0.563110
vt 0.503140 0.518550
vt 0.477480 0.497010
vt 0.497790 0.502450
vt 0.450120 0.512400
vt 0.493090 0.488330
vt 0.439850 0.518090
vt 0.481120 0.530850
vt 0.503140 0.518550
vt 0.517960 0.563110
vt 0.464710 0.592870
vt 0.451980 0.554600
vt 0.439850 0.518090
vt 0.450120 0.512400
vt 0.475760 0.514770
vt 0.477480 0.497010
vt 0.493090 0.488330
vt 0.497790 0.502450
vn 0.0000 0.0000 -1.0000
vn 0.0000 0.0000 1.0000
s off
f 1/1/1 2/2/1 3/3/1
f 4/4/1 2/2/1 1/1/1
f 2/2/1 4/4/1 5/5/1
f 5/5/1 6/6/1 2/2/1
f 7/7/1 3/3/1 8/8/1
f 9/9/1 3/3/1 7/7/1
f 1/1/1 3/3/1 9/9/1
f 10/10/1 7/7/1 8/8/1
f 11/11/1 1/1/1 9/9/1
f 12/12/2 13/13/2 14/14/2
f 15/15/2 12/12/2 14/14/2
f 16/16/2 12/12/2 15/15/2
f 17/17/2 18/18/2 16/16/2
f 18/18/2 19/19/2 16/16/2
f 19/19/2 12/12/2 16/16/2
f 18/18/2 20/20/2 19/19/2
f 21/21/2 22/22/2 20/20/2
f 20/20/2 22/22/2 19/19/2
