# Blender v3.0.1 OBJ File: 'rockerfeller_plaza.blend'
# www.blender.org
o geometryt000010000010000110010110000110000110100000100110st65_C
v 722.241211 -245.060715 658.268066
v 722.077820 -245.364502 679.821838
v 722.241211 -245.060715 679.821838
v 722.996155 -243.657013 658.268066
v 722.077820 -245.364502 657.521851
v 722.996155 -243.657013 679.821838
v 723.460510 -242.793610 679.821838
v 723.460510 -242.793610 658.268066
v 727.235107 -235.775116 658.268066
v 727.235107 -235.775116 679.821838
v 727.699524 -234.911804 679.821838
v 727.699524 -234.911804 658.268066
v 731.769226 -227.344604 657.521851
v 728.454468 -233.508102 658.268066
v 728.454468 -233.508102 679.821838
v 728.918701 -232.644714 679.821838
v 728.918701 -232.644714 658.268066
v 732.693359 -225.626205 658.268066
v 732.693359 -225.626205 679.821838
v 733.157715 -224.762802 679.821838
v 733.157715 -224.762802 658.268066
v 734.076050 -223.055313 657.521851
v 733.912598 -223.359116 658.268066
v 733.912598 -223.359116 679.821838
v 734.076050 -223.055313 679.821838
v 729.606140 -249.432205 658.268066
v 730.123352 -249.711716 679.821838
v 729.606140 -249.432205 679.821838
v 722.077820 -245.364502 657.521851
v 722.595032 -245.644012 658.268066
v 730.123352 -249.711716 657.521851
v 722.595032 -245.644012 679.821838
v 722.077820 -245.364502 679.821838
v 741.573914 -228.461411 658.268066
v 741.737610 -228.157715 679.821838
v 741.573914 -228.461411 679.821838
v 740.817932 -229.864502 658.268066
v 741.737610 -228.157715 657.521851
v 740.817932 -229.864502 679.821838
v 740.079834 -231.234314 679.821838
v 740.079834 -231.234314 658.268066
v 736.299561 -238.249802 658.268066
v 738.637634 -233.910812 657.521851
v 736.299561 -238.249802 679.821838
v 735.561401 -239.619614 679.821838
v 735.561401 -239.619614 658.268066
v 731.781250 -246.635010 658.268066
v 730.123352 -249.711716 657.521851
v 731.781250 -246.635010 679.821838
v 731.043030 -248.004913 679.821838
v 731.043030 -248.004913 658.268066
v 730.287048 -249.408005 658.268066
v 730.287048 -249.408005 679.821838
v 730.123352 -249.711716 679.821838
v 734.611511 -223.343613 658.268066
v 734.093018 -223.064407 679.821838
v 734.611511 -223.343613 679.821838
v 741.628418 -227.121216 658.268066
v 734.093018 -223.064407 657.521851
v 741.628418 -227.121216 679.821838
v 742.146851 -227.400406 679.821838
v 742.146851 -227.400406 657.521851
v 741.742065 -228.160004 657.521851
v 742.146851 -227.400406 657.521851
v 742.146851 -227.400406 679.821838
v 741.742065 -228.160004 679.821838
vt 27.070431 0.808500
vt 27.444210 24.160351
vt 27.070431 24.160351
vt 25.343651 0.808500
vt 27.444210 0.000000
vt 25.343651 24.160351
vt 24.281530 24.160351
vt 24.281530 0.808500
vt 15.647610 0.808500
vt 15.647610 24.160351
vt 14.585500 24.160351
vt 14.585500 0.808500
vt 5.276630 0.000000
vt 12.858710 0.808500
vt 12.858710 24.160351
vt 11.796600 24.160351
vt 11.796600 0.808500
vt 3.162680 0.808500
vt 3.162680 24.160351
vt 2.100560 24.160351
vt 2.100560 0.808500
vt 0.000000 0.000000
vt 0.373780 0.808500
vt 0.373780 24.160351
vt 0.000000 24.160351
vt 9.270820 0.808500
vt 9.907731 24.160351
vt 9.270820 24.160351
vt 0.000000 0.000000
vt 0.636900 0.808500
vt 9.907731 0.000000
vt 0.636900 24.160351
vt 0.000000 24.160351
vt 26.152790 0.808500
vt 26.526569 24.160351
vt 26.152790 24.160351
vt 24.426010 0.808500
vt 26.526569 0.000000
vt 24.426010 24.160351
vt 22.740141 24.160351
vt 22.740141 0.808500
vt 14.106220 0.808500
vt 19.446211 0.000000
vt 14.106220 24.160351
vt 12.420350 24.160351
vt 12.420350 0.808500
vt 3.786430 0.808500
vt 0.000000 0.000000
vt 3.786430 24.160351
vt 2.100560 24.160351
vt 2.100560 0.808500
vt 0.373780 0.808500
vt 0.373780 24.160351
vt 0.000000 24.160351
vt 9.271901 0.808500
vt 9.909871 24.160351
vt 9.271901 24.160351
vt 9.909871 0.000000
vt 0.637980 24.160351
vt 0.000000 24.160351
vt 0.637980 0.808500
vt 0.000000 0.000000
vt 0.000000 0.000000
vt 0.932610 0.000000
vt 0.932610 24.160351
vt 0.000000 24.160351
vn -0.8807 0.4737 0.0000
vn -0.8808 0.4735 0.0000
vn -0.8806 0.4738 0.0000
vn -0.8807 0.4736 0.0000
vn -0.8809 0.4734 0.0002
vn -0.8808 0.4736 0.0000
vn -0.8806 0.4739 -0.0008
vn -0.8807 0.4737 -0.0001
vn -0.8807 0.4736 -0.0001
vn -0.4755 -0.8797 0.0000
vn -0.4753 -0.8798 -0.0001
vn -0.4754 -0.8798 0.0001
vn -0.4754 -0.8798 0.0000
vn 0.8802 -0.4746 0.0000
vn 0.8804 -0.4743 0.0001
vn 0.8802 -0.4745 0.0000
vn 0.8803 -0.4744 0.0000
vn 0.8803 -0.4743 0.0000
vn 0.8804 -0.4743 0.0000
vn 0.8803 -0.4743 -0.0001
vn 0.8803 -0.4744 0.0001
vn 0.8804 -0.4743 0.0002
vn 0.8803 -0.4744 -0.0001
vn 0.8803 -0.4745 0.0000
vn 0.4741 0.8805 0.0000
vn 0.4742 0.8804 0.0000
vn 0.4739 0.8806 -0.0000
vn 0.8825 -0.4703 0.0000
vn 0.8826 -0.4702 0.0000
vn -0.8806 0.4739 0.0000
vn 0.4741 0.8805 0.0005
vn 0.4740 0.8805 0.0001
vn 0.4741 0.8805 -0.0001
s off
f 1/1/1 2/2/1 3/3/1
f 4/4/2 5/5/2 1/1/2
f 2/2/3 1/1/3 5/5/3
f 6/6/1 7/7/1 4/4/1
f 7/7/4 8/8/4 4/4/4
f 4/4/1 8/8/1 5/5/1
f 8/8/1 9/9/1 5/5/1
f 10/10/1 11/11/1 9/9/1
f 11/11/3 12/12/3 9/9/3
f 5/5/1 9/9/1 13/13/1
f 12/12/5 14/14/5 13/13/5
f 15/15/6 16/16/6 14/14/6
f 16/16/6 17/17/6 14/14/6
f 14/14/7 17/17/7 13/13/7
f 17/17/8 18/18/8 13/13/8
f 19/19/4 20/20/4 18/18/4
f 20/20/1 21/21/1 18/18/1
f 21/21/1 22/22/1 18/18/1
f 18/18/4 22/22/4 13/13/4
f 23/23/9 22/22/9 21/21/9
f 24/24/3 25/25/3 23/23/3
f 25/25/1 22/22/1 23/23/1
f 26/26/10 27/27/10 28/28/10
f 29/29/11 26/26/11 30/30/11
f 29/29/12 31/31/12 26/26/12
f 27/27/13 26/26/13 31/31/13
f 32/32/13 33/33/13 30/30/13
f 33/33/13 29/29/13 30/30/13
f 34/34/14 35/35/14 36/36/14
f 37/37/15 38/38/15 34/34/15
f 35/35/16 34/34/16 38/38/16
f 39/39/17 40/40/17 37/37/17
f 40/40/18 41/41/18 37/37/18
f 37/37/17 41/41/17 38/38/17
f 41/41/17 42/42/17 43/43/17
f 41/41/19 43/43/19 38/38/19
f 44/44/17 45/45/17 42/42/17
f 45/45/17 46/46/17 42/42/17
f 42/42/18 46/46/18 43/43/18
f 47/47/20 48/48/20 46/46/20
f 46/46/21 48/48/21 43/43/21
f 49/49/17 50/50/17 47/47/17
f 50/50/17 51/51/17 47/47/17
f 51/51/22 48/48/22 47/47/22
f 52/52/23 48/48/23 51/51/23
f 53/53/17 54/54/17 52/52/17
f 54/54/24 48/48/24 52/52/24
f 55/55/25 56/56/25 57/57/25
f 56/56/25 55/55/25 59/58/25
f 60/59/26 61/60/26 58/61/26
f 61/60/27 62/62/27 58/61/27
f 63/63/28 64/64/28 65/65/28
f 63/63/29 65/65/29 66/66/29
s 1
f 9/9/30 12/12/30 13/13/30
f 58/61/31 59/58/32 55/55/32
f 62/62/33 59/58/32 58/61/31
