# Blender v3.0.1 OBJ File: 'rockerfeller_plaza.blend'
# www.blender.org
o geometryt000010000010000110010110000110000110100000110110st51_S
v 1208.137451 -295.780304 737.739380
v 1210.940918 -297.295197 737.739380
v 1210.940918 -297.295197 794.674500
v 1208.137451 -295.780304 794.674500
v 1211.683105 -297.696198 794.674500
v 1211.683105 -297.696198 737.739380
v 1217.290283 -300.726105 737.739380
v 1217.290283 -300.726105 794.674500
v 1218.032471 -301.127106 737.739380
v 1220.835938 -302.641998 737.739380
v 1220.835938 -302.641998 794.674500
v 1218.032471 -301.127106 794.674500
v 1221.578125 -303.043121 794.674500
v 1221.578125 -303.043121 737.739380
v 1224.381714 -304.558014 737.739380
v 1224.381714 -304.558014 794.674500
v 1225.123901 -304.959106 794.674500
v 1225.123901 -304.959106 737.739380
v 1230.730957 -307.988922 737.739380
v 1230.730957 -307.988922 794.674500
v 1231.473145 -308.389923 737.739380
v 1234.276733 -309.904816 737.739380
v 1234.276733 -309.904816 794.674500
v 1231.473145 -308.389923 794.674500
v 1209.512939 -292.509308 737.739380
v 1207.997437 -295.312500 737.739380
v 1207.997437 -295.312500 794.674500
v 1209.512939 -292.509308 794.674500
v 1212.901245 -286.242523 737.739380
v 1209.870117 -291.848816 737.739380
v 1209.870117 -291.848816 794.674500
v 1212.901245 -286.242523 794.674500
v 1214.773926 -282.778900 737.739380
v 1213.258301 -285.582123 737.739380
v 1213.258301 -285.582123 794.674500
v 1214.773926 -282.778900 794.674500
v 1216.646606 -279.315308 737.739380
v 1215.131104 -282.118408 737.739380
v 1215.131104 -282.118408 794.674500
v 1216.646606 -279.315308 794.674500
v 1220.034912 -273.048523 737.739380
v 1217.003784 -278.654816 737.739380
v 1217.003784 -278.654816 794.674500
v 1220.034912 -273.048523 794.674500
v 1221.907715 -269.584900 737.739380
v 1220.392090 -272.388000 737.739380
v 1220.392090 -272.388000 794.674500
v 1221.907715 -269.584900 794.674500
v 1225.178589 -270.960693 794.674500
v 1225.178589 -270.960693 737.739380
v 1222.375122 -269.445404 737.739380
v 1222.375122 -269.445404 794.674500
v 1231.526001 -274.391724 737.739380
v 1225.919312 -271.361206 737.739380
v 1225.919312 -271.361206 794.674500
v 1231.526001 -274.391724 794.674500
v 1235.070190 -276.307495 737.739380
v 1232.266846 -274.792206 737.739380
v 1232.266846 -274.792206 794.674500
v 1235.070190 -276.307495 794.674500
v 1238.614380 -278.223206 737.739380
v 1235.811035 -276.707916 737.739380
v 1235.811035 -276.707916 794.674500
v 1238.614380 -278.223206 794.674500
v 1244.961914 -281.654205 737.739380
v 1239.355103 -278.623718 737.739380
v 1239.355103 -278.623718 794.674500
v 1244.961914 -281.654205 794.674500
v 1248.505981 -283.570007 737.739380
v 1245.702637 -282.054718 737.739380
v 1245.702637 -282.054718 794.674500
v 1248.505981 -283.570007 794.674500
v 1234.744995 -309.765717 737.739380
v 1236.259888 -306.962219 737.739380
v 1236.259888 -306.962219 794.674500
v 1234.744995 -309.765717 794.674500
v 1236.616455 -306.302399 737.739380
v 1239.646240 -300.695312 737.739380
v 1239.646240 -300.695312 794.674500
v 1236.616455 -306.302399 794.674500
v 1240.002808 -300.035522 737.739380
v 1241.517700 -297.231995 737.739380
v 1241.517700 -297.231995 794.674500
v 1240.002808 -300.035522 794.674500
v 1243.261597 -294.004822 794.674500
v 1241.874268 -296.572113 737.739380
v 1243.389282 -293.768616 737.739380
v 1241.874268 -296.572113 794.674500
v 1243.389282 -293.768616 794.674500
v 1245.611694 -289.655701 794.674500
v 1243.745728 -293.108795 737.739380
v 1246.775513 -287.501709 737.739380
v 1243.745728 -293.108795 794.674500
v 1246.775513 -287.501709 794.674500
v 1247.132202 -286.841919 737.739380
v 1248.647095 -284.038422 737.739380
v 1248.647095 -284.038422 794.674500
v 1247.132202 -286.841919 794.674500
vt 0.000000 0.000000
vt 0.125000 0.000000
vt 0.125000 4.500000
vt 0.000000 4.500000
vt 0.000000 4.500000
vt 0.000000 0.000000
vt 0.250000 0.000000
vt 0.250000 4.500000
vt 0.000000 0.000000
vt 0.125000 0.000000
vt 0.125000 4.500000
vt 0.000000 4.500000
vt 0.000000 4.500000
vt 0.000000 0.000000
vt 0.125000 0.000000
vt 0.125000 4.500000
vt 0.000000 4.500000
vt 0.000000 0.000000
vt 0.250000 0.000000
vt 0.250000 4.500000
vt 0.000000 0.000000
vt 0.125000 0.000000
vt 0.125000 4.500000
vt 0.000000 4.500000
vt 0.000000 0.000000
vt 0.125000 0.000000
vt 0.125000 4.500000
vt 0.000000 4.500000
vt 0.000000 0.000000
vt 0.250000 0.000000
vt 0.250000 4.500000
vt 0.000000 4.500000
vt 0.000000 0.000000
vt 0.125000 0.000000
vt 0.125000 4.500000
vt 0.000000 4.500000
vt 0.000000 0.000000
vt 0.250000 0.000000
vt 0.250000 4.500000
vt 0.000000 4.500000
vt 0.000000 4.500000
vt 0.000000 0.000000
vt 0.125000 0.000000
vt 0.125000 4.500000
vt 0.000000 0.000000
vt 0.250000 0.000000
vt 0.250000 4.500000
vt 0.000000 4.500000
vt 0.000000 0.000000
vt 0.125000 0.000000
vt 0.125000 4.500000
vt 0.000000 4.500000
vt 0.000000 0.000000
vt 0.125000 0.000000
vt 0.125000 4.500000
vt 0.000000 4.500000
vt 0.000000 0.000000
vt 0.250000 0.000000
vt 0.250000 4.500000
vt 0.000000 4.500000
vt 0.000000 0.000000
vt 0.125000 0.000000
vt 0.125000 4.500000
vt 0.000000 4.500000
vt 0.000000 0.000000
vt 0.125000 0.000000
vt 0.125000 4.500000
vt 0.000000 4.500000
vt 0.000000 0.000000
vt 0.250000 0.000000
vt 0.250000 4.500000
vt 0.000000 4.500000
vt 0.000000 0.000000
vt 0.125000 0.000000
vt 0.125000 4.500000
vt 0.000000 4.500000
vt 0.114470 4.500000
vt 0.000000 0.000000
vt 0.125000 0.000000
vt 0.000000 4.500000
vt 0.125000 4.500000
vt 0.153960 4.500000
vt 0.000000 0.000000
vt 0.250000 0.000000
vt 0.000000 4.500000
vt 0.250000 4.500000
vt 0.000000 0.000000
vt 0.125000 0.000000
vt 0.125000 4.500000
vt 0.000000 4.500000
vt 0.000000 0.000000
vt 0.125000 0.000000
vt 0.125000 4.500000
vt 0.000000 4.500000
vt 0.000000 0.000000
vt 0.125000 0.000000
vt 0.125000 4.500000
vt 0.000000 4.500000
vn -0.4754 -0.8798 0.0000
vn -0.8797 0.4756 0.0000
vn -0.8796 0.4756 0.0000
vn 0.4755 0.8797 0.0000
vn 0.8798 -0.4754 0.0000
vn 0.8797 -0.4755 0.0000
vn 0.8798 -0.4753 0.0000
s off
f 1/1/1 2/2/1 3/3/1
f 4/4/1 1/1/1 3/3/1
f 5/5/1 6/6/1 7/7/1
f 5/5/1 7/7/1 8/8/1
f 9/9/1 10/10/1 11/11/1
f 12/12/1 9/9/1 11/11/1
f 13/13/1 14/14/1 15/15/1
f 13/13/1 15/15/1 16/16/1
f 17/17/1 18/18/1 19/19/1
f 17/17/1 19/19/1 20/20/1
f 21/21/1 22/22/1 23/23/1
f 24/24/1 21/21/1 23/23/1
f 25/25/2 26/26/2 27/27/2
f 28/28/3 25/25/3 27/27/3
f 29/29/2 30/30/2 31/31/2
f 32/32/2 29/29/2 31/31/2
f 33/33/3 34/34/3 35/35/3
f 36/36/2 33/33/2 35/35/2
f 41/37/2 42/38/2 43/39/2
f 44/40/3 41/37/3 43/39/3
f 49/41/4 50/42/4 51/43/4
f 49/41/4 51/43/4 52/44/4
f 53/45/4 54/46/4 55/47/4
f 56/48/4 53/45/4 55/47/4
f 57/49/4 58/50/4 59/51/4
f 60/52/4 57/49/4 59/51/4
f 61/53/4 62/54/4 63/55/4
f 64/56/4 61/53/4 63/55/4
f 65/57/4 66/58/4 67/59/4
f 68/60/4 65/57/4 67/59/4
f 69/61/4 70/62/4 71/63/4
f 72/64/4 69/61/4 71/63/4
f 73/65/5 74/66/5 75/67/5
f 76/68/5 73/65/5 75/67/5
f 77/69/5 78/70/5 79/71/5
f 80/72/5 77/69/5 79/71/5
f 81/73/5 82/74/5 83/75/5
f 84/76/5 81/73/5 83/75/5
f 85/77/6 86/78/6 87/79/6
f 88/80/5 86/78/5 85/77/5
f 85/77/7 87/79/7 89/81/7
f 90/82/5 91/83/5 92/84/5
f 93/85/5 91/83/5 90/82/5
f 90/82/5 92/84/5 94/86/5
f 95/87/5 96/88/5 97/89/5
f 98/90/5 95/87/5 97/89/5
s 1
f 37/91/3 38/92/3 39/93/2
f 40/94/2 37/91/3 39/93/2
f 45/95/2 46/96/2 47/97/3
f 48/98/3 45/95/2 47/97/3
