# Blender v3.0.1 OBJ File: 'rockerfeller_plaza.blend'
# www.blender.org
o geometryt000010000010000110010110000110000110100000110110st53_S
v 1243.256592 -294.002106 736.674500
v 1210.536133 -290.621918 736.674500
v 1222.071655 -269.281403 736.674500
v 1234.580200 -310.068909 736.674500
v 1207.833984 -295.616302 736.674500
v 1245.611694 -289.655701 736.674500
v 1248.809448 -283.734009 736.674500
v 1234.580200 -310.068909 794.674500
v 1210.536133 -290.621918 794.674500
v 1207.833984 -295.616302 794.674500
v 1243.256592 -294.002106 794.674500
v 1245.611694 -289.655701 794.674500
v 1222.071655 -269.281403 794.674500
v 1248.809448 -283.734009 794.674500
vt 0.457850 0.482020
vt 0.462100 0.416150
vt 0.419600 0.439900
vt 0.489840 0.464150
vt 0.472050 0.410590
vt 0.449190 0.486870
vt 0.437400 0.493450
vt 0.489840 0.464150
vt 0.462100 0.416150
vt 0.472050 0.410590
vt 0.457850 0.482020
vt 0.449190 0.486870
vt 0.419600 0.439900
vt 0.437400 0.493450
vn -0.0000 0.0000 -1.0000
vn 0.0000 0.0000 1.0000
s off
f 1/1/1 2/2/1 3/3/1
f 4/4/1 2/2/1 1/1/1
f 5/5/1 2/2/1 4/4/1
f 6/6/1 3/3/1 7/7/1
f 6/6/1 1/1/1 3/3/1
f 8/8/2 9/9/2 10/10/2
f 9/9/2 8/8/2 11/11/2
f 12/12/2 13/13/2 11/11/2
f 11/11/2 13/13/2 9/9/2
f 12/12/2 14/14/2 13/13/2
