# Blender v3.0.1 OBJ File: 'rockerfeller_plaza.blend'
# www.blender.org
o geometryt000010000010000110010110000110000110100000100110st74
v 657.023438 -287.317719 685.526978
v 657.023438 -287.317719 657.546631
v 651.802612 -296.980896 657.546631
v 651.802612 -296.980896 685.526978
v 667.245422 -306.454010 685.266968
v 652.064636 -298.242218 657.546631
v 679.666138 -313.172913 657.546631
v 652.064636 -298.242218 685.266968
v 679.666138 -313.172913 691.427002
v 667.540833 -306.613800 685.526978
v 667.540833 -306.613800 691.427002
v 667.245422 -306.454010 685.526978
v 659.810059 -288.169403 685.526978
v 656.245605 -294.701721 685.526978
v 659.810059 -288.169403 694.327026
v 655.300720 -296.433502 694.327026
v 655.300720 -296.433502 685.526978
v 655.763611 -297.149719 685.526978
v 665.644165 -302.496399 685.526978
v 655.763611 -297.149719 694.327026
v 668.183228 -303.870422 694.327026
v 668.183228 -303.870422 685.526978
v 660.571045 -288.109802 684.834839
v 684.045654 -300.776215 657.546631
v 657.809326 -286.619598 657.546631
v 679.903015 -298.540894 699.994995
v 684.045654 -300.776215 703.026978
v 657.809326 -286.619598 684.834839
v 660.571045 -288.109802 693.930908
v 663.332764 -289.600006 693.930908
v 663.332764 -289.600006 696.962952
v 664.713623 -290.345001 696.962952
v 664.713623 -290.345001 699.994995
v 679.903015 -298.540894 703.026978
v 668.569031 -304.728210 691.427002
v 668.569031 -304.728210 685.526978
v 667.817932 -306.105804 685.526978
v 667.817932 -306.105804 691.427002
v 670.154541 -303.969421 691.427002
v 680.269714 -309.443024 691.427002
v 670.154541 -303.969421 697.226990
v 681.194336 -309.943298 697.226990
v 681.194336 -309.943298 691.427002
v 680.944946 -313.856506 657.546631
v 690.616821 -319.061005 657.546631
v 690.616821 -319.061005 682.627014
v 680.944946 -313.856506 682.627014
v 680.716553 -312.982605 682.627014
v 681.437500 -311.665802 682.627014
v 680.716553 -312.982605 691.427002
v 681.470032 -311.606415 691.427002
v 681.470032 -311.606415 682.627014
v 682.327942 -311.318817 691.427002
v 682.327942 -311.318817 682.627014
v 689.818726 -315.374817 682.627014
v 691.986328 -316.548401 691.427002
v 691.986328 -316.548401 682.627014
v 683.336121 -309.453003 691.427002
v 692.004395 -314.146515 691.427002
v 683.336121 -309.453003 697.226990
v 692.994507 -314.682617 697.226990
v 692.994507 -314.682617 691.427002
v 692.883728 -316.182709 681.878296
v 691.389954 -318.942505 657.546631
v 694.377563 -313.423004 657.546631
v 691.389954 -318.942505 681.878296
v 694.377563 -313.423004 697.085571
v 693.630615 -314.802917 691.002625
v 693.630615 -314.802917 697.085571
v 692.883728 -316.182709 691.002625
v 694.145752 -287.019318 703.026978
v 694.145752 -287.019318 657.546631
v 691.890259 -291.150909 657.546631
v 691.890259 -291.150909 703.026978
v 698.941711 -289.142395 703.026978
v 704.777832 -292.300323 657.546631
v 695.117920 -287.073395 657.546631
v 704.777832 -292.300323 703.026978
v 695.117920 -287.073395 703.026978
v 694.859497 -312.529694 703.026978
v 694.859497 -312.529694 657.546631
v 705.292236 -293.198517 657.546631
v 705.292236 -293.198517 703.026978
vt 0.000000 2.250000
vt 0.000000 0.000000
vt 1.166670 0.000000
vt 1.166670 2.250000
vt 1.833330 2.250000
vt 0.000000 0.000000
vt 3.333330 0.000000
vt 0.000000 2.250000
vt 3.333330 2.750000
vt 1.869010 2.271110
vt 1.869010 2.750000
vt 1.833330 2.271110
vt 0.000000 0.000000
vt 0.790450 0.000000
vt 0.000000 0.500000
vt 1.000000 0.500000
vt 1.000000 0.000000
vt 0.000000 0.000000
vt 1.193330 0.000000
vt 0.000000 0.500000
vt 1.500000 0.500000
vt 1.500000 0.000000
vt 2.833330 2.250000
vt 0.000000 0.000000
vt 3.166670 0.000000
vt 0.500000 3.500000
vt 0.000000 3.750000
vt 3.166670 2.250000
vt 2.833330 3.000000
vt 2.500000 3.000000
vt 2.500000 3.250000
vt 2.333330 3.250000
vt 2.333330 3.500000
vt 0.500000 3.750000
vt 0.000000 0.250000
vt 0.000000 0.000000
vt 0.166670 0.000000
vt 0.166670 0.250000
vt 0.000000 0.000000
vt 1.221670 0.000000
vt 0.000000 0.250000
vt 1.333330 0.250000
vt 1.333330 0.000000
vt 0.000000 0.000000
vt 1.166670 0.000000
vt 1.166670 2.000000
vt 0.000000 2.000000
vt 0.000000 0.000000
vt 0.159460 0.000000
vt 0.000000 0.500000
vt 0.166670 0.500000
vt 0.166670 0.000000
vt 0.000000 0.500000
vt 0.000000 0.000000
vt 0.904840 0.000000
vt 1.166670 0.500000
vt 1.166670 0.000000
vt 0.000000 0.000000
vt 1.047070 0.000000
vt 0.000000 0.250000
vt 1.166670 0.250000
vt 1.166670 0.000000
vt 0.333330 2.000000
vt 0.000000 0.000000
vt 0.666670 0.000000
vt 0.000000 2.000000
vt 0.666670 3.250000
vt 0.500000 2.750000
vt 0.500000 3.250000
vt 0.333330 2.750000
vt 0.000000 3.750000
vt 0.000000 0.000000
vt 0.500000 0.000000
vt 0.500000 3.750000
vt 0.704850 3.750000
vt 0.000000 0.000000
vt 1.166670 0.000000
vt 0.000000 3.750000
vt 1.166670 3.750000
vt 0.000000 3.750000
vt 0.000000 0.000000
vt 2.333330 0.000000
vt 2.333330 3.750000
vn -0.8798 0.4753 0.0000
vn -0.4758 -0.8796 0.0000
vn -0.4758 -0.8795 0.0000
vn -0.8778 0.4790 0.0000
vn -0.4759 -0.8795 0.0000
vn 0.4749 0.8801 0.0000
vn 0.4748 0.8801 0.0000
vn -0.8780 0.4787 0.0000
vn -0.4739 -0.8806 0.0000
vn 0.8771 -0.4803 0.0000
vn 0.8769 -0.4807 0.0000
vn -0.4761 -0.8794 0.0000
vn 0.8794 -0.4760 0.0000
vn 0.8794 -0.4761 0.0000
vn 0.8795 -0.4760 0.0000
vn -0.8777 0.4792 0.0000
vn 0.4759 0.8795 0.0000
vn 0.8772 -0.4802 0.0000
vn 0.8800 -0.4749 0.0000
s off
f 1/1/1 2/2/1 3/3/1
f 1/1/1 3/3/1 4/4/1
f 5/5/2 6/6/2 7/7/2
f 8/8/2 6/6/2 5/5/2
f 9/9/2 10/10/2 7/7/2
f 10/10/3 5/5/3 7/7/3
f 11/11/2 10/10/2 9/9/2
f 10/10/2 12/12/2 5/5/2
f 13/13/4 14/14/4 15/15/4
f 16/16/4 14/14/4 17/17/4
f 15/15/4 14/14/4 16/16/4
f 18/18/5 19/19/5 20/20/5
f 21/21/5 19/19/5 22/22/5
f 20/20/5 19/19/5 21/21/5
f 23/23/6 24/24/6 25/25/6
f 26/26/6 24/24/6 23/23/6
f 27/27/6 24/24/6 26/26/6
f 23/23/6 25/25/6 28/28/6
f 29/29/6 30/30/6 23/23/6
f 30/30/6 26/26/6 23/23/6
f 31/31/7 32/32/7 30/30/7
f 32/32/6 26/26/6 30/30/6
f 33/33/6 26/26/6 32/32/6
f 34/34/6 27/27/6 26/26/6
f 35/35/8 36/36/8 37/37/8
f 35/35/8 37/37/8 38/38/8
f 39/39/5 40/40/5 41/41/5
f 42/42/5 40/40/5 43/43/5
f 41/41/5 40/40/5 42/42/5
f 44/44/9 45/45/9 46/46/9
f 47/47/9 44/44/9 46/46/9
f 48/48/10 49/49/10 50/50/10
f 51/51/11 49/49/11 52/52/11
f 53/53/12 54/54/12 55/55/12
f 56/56/12 55/55/12 57/57/12
f 56/56/12 53/53/12 55/55/12
f 58/58/12 59/59/12 60/60/12
f 61/61/12 59/59/12 62/62/12
f 60/60/12 59/59/12 61/61/12
f 63/63/13 64/64/13 65/65/13
f 66/66/13 64/64/13 63/63/13
f 67/67/14 68/68/14 65/65/14
f 68/68/14 63/63/14 65/65/14
f 69/69/15 68/68/15 67/67/15
f 68/68/14 70/70/14 63/63/14
f 71/71/16 72/72/16 73/73/16
f 71/71/16 73/73/16 74/74/16
f 75/75/17 76/76/17 77/77/17
f 78/78/17 76/76/17 75/75/17
f 75/75/17 77/77/17 79/79/17
s 1
f 50/50/18 49/49/18 51/51/18
f 80/80/19 81/81/19 82/82/19
f 80/80/19 82/82/19 83/83/19
