# Blender v3.0.1 OBJ File: 'rockerfeller_plaza.blend'
# www.blender.org
o geometryt000010000010000110010110000110000110100000110000st66
v 914.677429 -95.328064 421.664307
v 897.483521 -72.380638 421.664307
v 924.215820 -86.579086 421.664307
v 891.759033 -83.150055 421.664307
v 922.549255 -96.390755 421.664307
v 926.985046 -88.045547 421.664307
v 925.372070 -101.009644 421.664307
v 926.660767 -98.585388 421.664307
v 897.483521 -72.380638 485.364319
v 891.759033 -83.150055 485.364319
v 914.677429 -95.328064 485.364319
v 925.372070 -101.009644 485.364319
v 922.549255 -96.390755 485.364319
v 924.215820 -86.579086 485.364319
v 926.660767 -98.585388 485.364319
v 926.985046 -88.045547 485.364319
vt 0.120750 0.331980
vt 0.084450 0.297860
vt 0.101790 0.351410
vt 0.105870 0.286070
vt 0.120180 0.347820
vt 0.103580 0.356950
vt 0.127680 0.353400
vt 0.122860 0.356050
vt 0.084450 0.297860
vt 0.105870 0.286070
vt 0.120750 0.331980
vt 0.127680 0.353400
vt 0.120180 0.347820
vt 0.101790 0.351410
vt 0.122860 0.356050
vt 0.103580 0.356950
vn 0.0000 0.0000 -1.0000
vn 0.0000 0.0000 1.0000
s off
f 1/1/1 2/2/1 3/3/1
f 4/4/1 2/2/1 1/1/1
f 5/5/1 3/3/1 6/6/1
f 1/1/1 3/3/1 5/5/1
f 7/7/1 5/5/1 8/8/1
f 1/1/1 5/5/1 7/7/1
f 9/9/2 10/10/2 11/11/2
f 12/12/2 13/13/2 11/11/2
f 13/13/2 14/14/2 11/11/2
f 14/14/2 9/9/2 11/11/2
f 15/15/2 13/13/2 12/12/2
f 13/13/2 16/16/2 14/14/2
