# Blender v3.0.1 OBJ File: 'rockerfeller_plaza.blend'
# www.blender.org
o geometryt000010000010000110010110000110000110100000000100st65_8
v 270.200836 -229.962097 74.248062
v 270.200836 -229.962097 64.898514
v 279.397461 -234.634506 64.898514
v 279.397461 -234.634506 74.248062
v 271.602325 -226.220993 74.248062
v 271.602325 -226.220993 64.898514
v 270.931274 -227.533005 64.898514
v 270.931274 -227.533005 74.248062
v 271.967743 -210.490601 64.898514
v 277.231598 -213.143402 64.898514
v 277.231598 -213.143402 218.248077
v 271.967743 -210.490601 218.248077
v 274.989044 -202.852203 97.248062
v 274.426208 -203.916901 97.248062
v 274.989044 -202.852203 218.248077
v 271.545502 -209.366302 218.248077
v 271.545502 -209.366302 97.248062
v 274.835999 -219.841400 221.648071
v 274.835999 -219.841400 64.898514
v 272.173767 -225.100494 64.898514
v 272.173767 -225.100494 221.648071
v 278.042328 -213.507401 218.248077
v 278.710754 -212.186996 221.648071
v 278.710754 -212.186996 218.248077
v 278.024353 -213.542892 218.248077
v 278.024353 -213.542892 64.898514
v 276.048523 -217.446106 64.898514
v 276.048523 -217.446106 221.648071
v 272.325531 -225.564606 221.648071
v 272.325531 -225.564606 74.248062
v 272.772308 -225.791595 74.248062
v 273.639343 -226.232101 221.648071
v 273.639343 -226.232101 74.248062
v 274.400391 -226.618698 74.248062
v 279.655609 -229.288696 74.248062
v 279.655609 -229.288696 221.648071
v 274.400391 -226.618698 221.648071
v 280.416656 -229.675400 74.248062
v 281.730469 -230.342804 74.248062
v 281.730469 -230.342804 221.648071
v 280.416656 -229.675400 221.648071
v 296.342773 -213.121704 214.248077
v 293.732147 -211.753799 214.248077
v 293.732147 -211.753799 218.248077
v 296.342773 -213.121704 218.248077
v 298.359467 -214.178406 218.248077
v 298.359467 -214.178406 214.248077
v 297.054169 -213.494400 214.248077
v 297.054169 -213.494400 218.248077
v 301.681519 -215.919006 218.248077
v 301.681519 -215.919006 214.248077
v 299.070862 -214.551102 214.248077
v 299.070862 -214.551102 218.248077
v 276.249451 -202.593506 214.248077
v 278.285767 -203.660507 218.248077
v 278.285767 -203.660507 214.248077
v 275.675140 -202.292603 218.248077
v 276.052032 -202.490097 214.248077
v 275.675140 -202.292603 214.248077
v 280.139008 -204.631500 218.248077
v 280.139008 -204.631500 214.248077
v 278.833710 -203.947601 214.248077
v 278.833710 -203.947601 218.248077
v 281.992279 -205.602493 214.248077
v 280.686951 -204.918594 214.248077
v 280.686951 -204.918594 218.248077
v 281.992279 -205.602493 218.248077
v 285.150848 -207.257507 214.248077
v 282.540222 -205.889603 214.248077
v 282.540222 -205.889603 218.248077
v 285.150848 -207.257507 218.248077
v 280.498352 -212.705994 221.648071
v 280.498352 -212.705994 218.248077
v 279.183838 -212.039902 218.248077
v 279.183838 -212.039902 221.648071
v 286.506592 -215.750595 218.248077
v 284.971375 -214.972595 218.248077
v 286.506592 -215.750595 221.648071
v 281.248535 -213.086197 221.648071
v 281.248535 -213.086197 218.248077
v 288.571289 -216.796799 218.248077
v 287.256775 -216.130707 218.248077
v 287.256775 -216.130707 221.648071
v 288.571289 -216.796799 221.648071
v 280.250977 -233.982605 74.248062
v 280.250977 -233.982605 64.898514
v 281.596252 -231.360306 64.898514
v 281.596252 -231.360306 74.248062
v 282.194153 -230.191406 64.898514
v 284.861176 -224.934799 64.898514
v 284.861176 -224.934799 221.648071
v 282.194153 -230.191406 221.648071
v 286.081268 -222.529999 64.898514
v 287.923767 -218.898499 64.898514
v 287.923767 -218.898499 218.248077
v 286.081268 -222.529999 221.648071
v 288.748322 -217.273300 218.248077
v 288.748322 -217.273300 221.648071
v 288.202881 -219.044205 64.898514
v 290.816986 -220.405396 64.898514
v 290.816986 -220.405396 218.248077
v 288.202881 -219.044205 218.248077
v 291.294128 -220.653900 218.248077
v 291.294128 -220.653900 64.898514
v 292.601166 -221.334503 64.898514
v 292.601166 -221.334503 218.248077
v 293.078308 -221.582993 218.248077
v 293.078308 -221.582993 64.898514
v 294.385345 -222.263596 64.898514
v 294.385345 -222.263596 218.248077
v 294.862488 -222.512100 218.248077
v 294.862488 -222.512100 64.898514
v 297.476562 -223.873306 64.898514
v 297.476562 -223.873306 218.248077
v 298.163086 -223.312897 97.248062
v 298.725891 -222.248199 97.248062
v 298.163086 -223.312897 218.248077
v 301.606598 -216.798904 218.248077
v 301.606598 -216.798904 97.248062
vt 0.000000 0.666670
vt 0.000000 0.000000
vt 2.333330 0.000000
vt 2.333330 0.666670
vt 0.000000 0.666670
vt 0.000000 0.000000
vt 0.333330 0.000000
vt 0.333330 0.666670
vt 0.000000 0.000000
vt 1.333330 0.000000
vt 1.333330 11.000000
vt 0.000000 11.000000
vt 0.000000 0.000000
vt 0.272410 0.000000
vt 0.000000 8.666670
vt 1.666670 8.666670
vt 1.666670 0.000000
vt 0.000000 14.666670
vt 0.000000 0.000000
vt 1.333330 0.000000
vt 1.333330 14.666670
vt 0.334770 14.348540
vt 0.000000 14.666670
vt 0.000000 14.348540
vt 0.343770 14.348540
vt 0.343770 0.000000
vt 1.333330 0.000000
vt 1.333330 14.666670
vt 0.000000 14.000000
vt 0.000000 0.000000
vt 0.113350 0.000000
vt 0.333330 14.000000
vt 0.333330 0.000000
vt 0.000000 0.000000
vt 1.333330 0.000000
vt 1.333330 14.000000
vt 0.000000 14.000000
vt 0.000000 0.000000
vt 0.333330 0.000000
vt 0.333330 14.000000
vt 0.000000 14.000000
vt 0.000000 0.000000
vt 0.666670 0.000000
vt 0.666670 0.333330
vt 0.000000 0.333330
vt 0.000000 0.333330
vt 0.000000 0.000000
vt 0.333330 0.000000
vt 0.333330 0.333330
vt 0.000000 0.333330
vt 0.000000 0.000000
vt 0.666670 0.000000
vt 0.666670 0.333330
vt 0.520000 0.000000
vt 0.000000 0.333330
vt 0.000000 0.000000
vt 0.666670 0.333330
vt 0.570420 0.000000
vt 0.666670 0.000000
vt 0.000000 0.333330
vt 0.000000 0.000000
vt 0.333330 0.000000
vt 0.333330 0.333330
vt 0.000000 0.000000
vt 0.333330 0.000000
vt 0.333330 0.333330
vt 0.000000 0.333330
vt 0.000000 0.000000
vt 0.666670 0.000000
vt 0.666670 0.333330
vt 0.000000 0.333330
vt 0.000000 0.333330
vt 0.000000 0.000000
vt 0.333330 0.000000
vt 0.333330 0.333330
vt 0.000000 0.000000
vt 0.389300 0.000000
vt 0.000000 0.333330
vt 1.333330 0.333330
vt 1.333330 0.000000
vt 0.000000 0.000000
vt 0.333330 0.000000
vt 0.333330 0.333330
vt 0.000000 0.333330
vt 0.000000 0.666670
vt 0.000000 0.000000
vt 0.666670 0.000000
vt 0.666670 0.666670
vt 0.000000 0.000000
vt 1.333330 0.000000
vt 1.333330 14.666670
vt 0.000000 14.666670
vt 0.000000 0.000000
vt 0.921120 0.000000
vt 0.921120 14.348540
vt 0.000000 14.666670
vt 1.333330 14.348540
vt 1.333330 14.666670
vt 0.000000 0.000000
vt 0.666670 0.000000
vt 0.666670 11.000000
vt 0.000000 11.000000
vt 0.000000 11.000000
vt 0.000000 0.000000
vt 0.333330 0.000000
vt 0.333330 11.000000
vt 0.000000 11.000000
vt 0.000000 0.000000
vt 0.333330 0.000000
vt 0.333330 11.000000
vt 0.000000 11.000000
vt 0.000000 0.000000
vt 0.666670 0.000000
vt 0.666670 11.000000
vt 0.000000 0.000000
vt 0.272410 0.000000
vt 0.000000 8.666670
vt 1.666670 8.666670
vt 1.666670 0.000000
vn -0.4530 -0.8915 0.0000
vn -0.8903 0.4554 0.0000
vn -0.4500 -0.8930 0.0000
vn -0.8841 0.4673 0.0000
vn -0.8841 0.4674 0.0000
vn -0.8922 0.4516 0.0000
vn -0.8922 0.4517 0.0000
vn -0.8926 0.4508 0.0001
vn -0.4529 -0.8915 0.0000
vn -0.4529 -0.8916 0.0000
vn 0.4641 0.8858 0.0000
vn 0.4642 0.8858 0.0000
vn 0.4644 0.8856 -0.0000
vn 0.4520 0.8920 0.0000
vn 0.8897 -0.4565 0.0000
vn 0.8918 -0.4525 0.0000
vn -0.4619 -0.8870 0.0000
vn -0.4618 -0.8870 0.0000
vn 0.8841 -0.4673 0.0000
vn 0.8841 -0.4674 0.0000
s off
f 1/1/1 2/2/1 3/3/1
f 1/1/1 3/3/1 4/4/1
f 5/5/2 6/6/2 7/7/2
f 5/5/2 7/7/2 8/8/2
f 9/9/3 10/10/3 11/11/3
f 12/12/3 9/9/3 11/11/3
f 13/13/4 14/14/4 15/15/4
f 16/16/4 14/14/4 17/17/4
f 15/15/5 14/14/5 16/16/5
f 18/18/6 19/19/6 20/20/6
f 18/18/6 20/20/6 21/21/6
f 22/22/7 23/23/7 24/24/7
f 23/23/8 22/22/8 25/25/8
f 26/26/6 27/27/6 25/25/6
f 27/27/6 28/28/6 25/25/6
f 28/28/6 23/23/6 25/25/6
f 29/29/9 30/30/9 31/31/9
f 32/32/9 31/31/9 33/33/9
f 32/32/1 29/29/1 31/31/1
f 34/34/1 35/35/1 36/36/1
f 37/37/1 34/34/1 36/36/1
f 38/38/10 39/39/10 40/40/10
f 41/41/10 38/38/10 40/40/10
f 42/42/11 43/43/11 44/44/11
f 45/45/11 42/42/11 44/44/11
f 46/46/12 47/47/12 48/48/12
f 46/46/12 48/48/12 49/49/12
f 50/50/11 51/51/11 52/52/11
f 50/50/11 52/52/11 53/53/11
f 54/54/11 55/55/11 56/56/11
f 57/57/13 54/54/13 58/58/13
f 54/54/11 57/57/11 55/55/11
f 59/59/11 57/57/11 58/58/11
f 60/60/11 61/61/11 62/62/11
f 60/60/11 62/62/11 63/63/11
f 64/64/11 65/65/11 66/66/11
f 67/67/11 64/64/11 66/66/11
f 68/68/11 69/69/11 70/70/11
f 71/71/11 68/68/11 70/70/11
f 72/72/14 73/73/14 74/74/14
f 72/72/14 74/74/14 75/75/14
f 76/76/14 77/77/14 78/78/14
f 79/79/14 77/77/14 80/80/14
f 78/78/14 77/77/14 79/79/14
f 81/81/14 82/82/14 83/83/14
f 84/84/14 81/81/14 83/83/14
f 85/85/15 86/86/15 87/87/15
f 85/85/15 87/87/15 88/88/15
f 89/89/16 90/90/16 91/91/16
f 92/92/16 89/89/16 91/91/16
f 93/93/16 94/94/16 95/95/16
f 96/96/16 93/93/16 95/95/16
f 97/97/16 98/98/16 95/95/16
f 98/98/16 96/96/16 95/95/16
f 99/99/17 100/100/17 101/101/17
f 102/102/18 99/99/18 101/101/18
f 103/103/17 104/104/17 105/105/17
f 103/103/18 105/105/18 106/106/18
f 107/107/17 108/108/17 109/109/17
f 107/107/18 109/109/18 110/110/18
f 111/111/17 112/112/17 113/113/17
f 111/111/17 113/113/17 114/114/17
f 115/115/19 116/116/19 117/117/19
f 118/118/20 116/116/20 119/119/20
f 117/117/19 116/116/19 118/118/19
