# Blender v3.0.1 OBJ File: 'rockerfeller_plaza.blend'
# www.blender.org
o geometryt000010000010000110010110000110000110100100000010st142
v 539.914185 -100.517578 969.336975
v 539.914185 -100.517578 931.972534
v 541.366333 -101.298576 931.972534
v 541.366333 -101.298576 969.336975
v 541.919128 -101.595879 931.972534
v 544.823425 -103.157974 931.972534
v 544.823425 -103.157974 969.336975
v 541.919128 -101.595879 969.336975
v 545.376221 -103.455276 969.336975
v 545.376221 -103.455276 931.972534
v 546.828369 -104.236382 931.972534
v 546.828369 -104.236382 969.336975
v 547.381165 -104.533676 931.972534
v 551.737549 -106.876778 931.972534
v 551.737549 -106.876778 969.336975
v 547.381165 -104.533676 969.336975
v 552.290344 -107.174080 969.336975
v 552.290344 -107.174080 931.972534
v 553.742432 -107.955078 931.972534
v 553.742432 -107.955078 969.336975
v 554.295288 -108.252480 969.336975
v 554.295288 -108.252480 931.972534
v 558.651672 -110.595474 931.972534
v 558.651672 -110.595474 969.336975
v 559.204468 -110.892876 969.336975
v 559.204468 -110.892876 931.972534
v 560.656616 -111.673882 931.972534
v 560.656616 -111.673882 969.336975
v 561.209412 -111.971176 931.972534
v 564.113647 -113.533279 931.972534
v 564.113647 -113.533279 969.336975
v 561.209412 -111.971176 969.336975
v 564.666443 -113.830582 931.972534
v 566.118591 -114.611580 931.972534
v 566.118591 -114.611580 969.336975
v 564.666443 -113.830582 969.336975
v 540.555115 -98.598335 931.972534
v 539.773865 -100.050377 931.972534
v 539.773865 -100.050377 969.336975
v 540.555115 -98.598335 969.336975
v 542.886719 -94.264984 931.972534
v 541.324219 -97.168991 931.972534
v 541.324219 -97.168991 969.336975
v 542.886719 -94.264984 969.336975
v 545.218323 -89.931648 931.972534
v 543.655823 -92.835648 931.972534
v 543.655823 -92.835648 969.336975
v 545.218323 -89.931648 969.336975
v 546.768677 -87.050301 931.972534
v 545.987427 -88.502296 931.972534
v 545.987427 -88.502296 969.336975
v 546.768677 -87.050301 969.336975
v 548.688416 -87.690376 931.972534
v 547.236023 -86.909805 931.972534
v 547.236023 -86.909805 969.336975
v 548.688416 -87.690376 969.336975
v 552.145447 -89.548340 931.972534
v 549.240723 -87.987206 931.972534
v 549.240723 -87.987206 969.336975
v 552.145447 -89.548340 969.336975
v 554.150146 -90.625725 931.972534
v 552.697754 -89.845169 931.972534
v 552.697754 -89.845169 969.336975
v 554.150146 -90.625725 969.336975
v 559.059570 -93.264259 969.336975
v 559.059570 -93.264259 931.972534
v 554.702454 -90.922562 931.972534
v 554.702454 -90.922562 969.336975
v 561.064270 -94.341644 969.336975
v 561.064270 -94.341644 931.972534
v 559.611877 -93.561089 931.972534
v 559.611877 -93.561089 969.336975
v 565.973694 -96.980179 931.972534
v 561.616577 -94.638481 931.972534
v 561.616577 -94.638481 969.336975
v 565.973694 -96.980179 969.336975
v 567.978394 -98.057571 931.972534
v 566.526001 -97.277008 931.972534
v 566.526001 -97.277008 969.336975
v 567.978394 -98.057571 969.336975
v 571.435486 -99.915527 969.336975
v 571.435486 -99.915527 931.972534
v 568.530701 -98.354401 931.972534
v 568.530701 -98.354401 969.336975
v 573.440125 -100.992874 969.336975
v 573.440125 -100.992874 931.972534
v 571.987793 -100.212379 931.972534
v 571.987793 -100.212379 969.336975
v 566.585815 -114.471176 931.972534
v 567.366577 -113.018875 931.972534
v 567.366577 -113.018875 969.336975
v 566.585815 -114.471176 969.336975
v 568.136658 -111.586380 969.336975
v 568.136658 -111.586380 931.972534
v 569.698181 -108.681877 931.972534
v 569.698181 -108.681877 969.336975
v 570.468262 -107.249374 931.972534
v 572.029785 -104.344879 931.972534
v 572.029785 -104.344879 969.336975
v 570.468262 -107.249374 969.336975
v 572.799927 -102.912376 969.336975
v 572.799927 -102.912376 931.972534
v 573.580688 -101.460075 931.972534
v 573.580688 -101.460075 969.336975
vt 0.000000 2.000000
vt 0.000000 0.000000
vt 0.250000 0.000000
vt 0.250000 2.000000
vt 0.000000 0.000000
vt 0.500000 0.000000
vt 0.500000 2.000000
vt 0.000000 2.000000
vt 0.000000 2.000000
vt 0.000000 0.000000
vt 0.250000 0.000000
vt 0.250000 2.000000
vt 0.000000 0.000000
vt 0.750000 0.000000
vt 0.750000 2.000000
vt 0.000000 2.000000
vt 0.000000 2.000000
vt 0.000000 0.000000
vt 0.250000 0.000000
vt 0.250000 2.000000
vt 0.000000 2.000000
vt 0.000000 0.000000
vt 0.750000 0.000000
vt 0.750000 2.000000
vt 0.000000 2.000000
vt 0.000000 0.000000
vt 0.250000 0.000000
vt 0.250000 2.000000
vt 0.000000 0.000000
vt 0.500000 0.000000
vt 0.500000 2.000000
vt 0.000000 2.000000
vt 0.000000 0.000000
vt 0.250000 0.000000
vt 0.250000 2.000000
vt 0.000000 2.000000
vt 0.000000 0.000000
vt 0.250000 0.000000
vt 0.250000 2.000000
vt 0.000000 2.000000
vt 0.000000 0.000000
vt 0.500000 0.000000
vt 0.500000 2.000000
vt 0.000000 2.000000
vt 0.000000 0.000000
vt 0.500000 0.000000
vt 0.500000 2.000000
vt 0.000000 2.000000
vt 0.000000 0.000000
vt 0.250000 0.000000
vt 0.250000 2.000000
vt 0.000000 2.000000
vt 0.000000 0.000000
vt 0.250000 0.000000
vt 0.250000 2.000000
vt 0.000000 2.000000
vt 0.000000 0.000000
vt 0.500000 0.000000
vt 0.500000 2.000000
vt 0.000000 2.000000
vt 0.000000 0.000000
vt 0.250000 0.000000
vt 0.250000 2.000000
vt 0.000000 2.000000
vt 0.000000 2.000000
vt 0.000000 0.000000
vt 0.750000 0.000000
vt 0.750000 2.000000
vt 0.000000 2.000000
vt 0.000000 0.000000
vt 0.250000 0.000000
vt 0.250000 2.000000
vt 0.000000 0.000000
vt 0.750000 0.000000
vt 0.750000 2.000000
vt 0.000000 2.000000
vt 0.000000 0.000000
vt 0.250000 0.000000
vt 0.250000 2.000000
vt 0.000000 2.000000
vt 0.000000 2.000000
vt 0.000000 0.000000
vt 0.500000 0.000000
vt 0.500000 2.000000
vt 0.000000 2.000000
vt 0.000000 0.000000
vt 0.250000 0.000000
vt 0.250000 2.000000
vt 0.000000 0.000000
vt 0.250000 0.000000
vt 0.250000 2.000000
vt 0.000000 2.000000
vt 0.000000 2.000000
vt 0.000000 0.000000
vt 0.500000 0.000000
vt 0.500000 2.000000
vt 0.000000 0.000000
vt 0.500000 0.000000
vt 0.500000 2.000000
vt 0.000000 2.000000
vt 0.000000 2.000000
vt 0.000000 0.000000
vt 0.250000 0.000000
vt 0.250000 2.000000
vn -0.4737 -0.8807 0.0000
vn -0.4736 -0.8807 0.0000
vn -0.8807 0.4738 0.0000
vn -0.8806 0.4738 0.0000
vn 0.4734 0.8809 0.0000
vn 0.4734 0.8808 0.0000
vn 0.8808 -0.4735 0.0000
s off
f 1/1/1 2/2/1 3/3/1
f 1/1/1 3/3/1 4/4/1
f 5/5/1 6/6/1 7/7/1
f 8/8/1 5/5/1 7/7/1
f 9/9/1 10/10/1 11/11/1
f 9/9/1 11/11/1 12/12/1
f 13/13/1 14/14/1 15/15/1
f 16/16/1 13/13/1 15/15/1
f 17/17/1 18/18/1 19/19/1
f 17/17/2 19/19/2 20/20/2
f 21/21/1 22/22/1 23/23/1
f 21/21/1 23/23/1 24/24/1
f 25/25/2 26/26/2 27/27/2
f 25/25/1 27/27/1 28/28/1
f 29/29/1 30/30/1 31/31/1
f 32/32/1 29/29/1 31/31/1
f 33/33/1 34/34/1 35/35/1
f 36/36/2 33/33/2 35/35/2
f 37/37/3 38/38/3 39/39/3
f 40/40/4 37/37/4 39/39/4
f 41/41/4 42/42/4 43/43/4
f 44/44/4 41/41/4 43/43/4
f 45/45/4 46/46/4 47/47/4
f 48/48/4 45/45/4 47/47/4
f 49/49/4 50/50/4 51/51/4
f 52/52/4 49/49/4 51/51/4
f 53/53/5 54/54/5 55/55/5
f 56/56/6 53/53/6 55/55/6
f 57/57/6 58/58/6 59/59/6
f 60/60/6 57/57/6 59/59/6
f 61/61/5 62/62/5 63/63/5
f 64/64/6 61/61/6 63/63/6
f 65/65/5 66/66/5 67/67/5
f 65/65/6 67/67/6 68/68/6
f 69/69/5 70/70/5 71/71/5
f 69/69/5 71/71/5 72/72/5
f 73/73/6 74/74/6 75/75/6
f 76/76/6 73/73/6 75/75/6
f 77/77/6 78/78/6 79/79/6
f 80/80/5 77/77/5 79/79/5
f 81/81/6 82/82/6 83/83/6
f 81/81/6 83/83/6 84/84/6
f 85/85/6 86/86/6 87/87/6
f 85/85/5 87/87/5 88/88/5
f 89/89/7 90/90/7 91/91/7
f 92/92/7 89/89/7 91/91/7
f 93/93/7 94/94/7 95/95/7
f 93/93/7 95/95/7 96/96/7
f 97/97/7 98/98/7 99/99/7
f 100/100/7 97/97/7 99/99/7
f 101/101/7 102/102/7 103/103/7
f 101/101/7 103/103/7 104/104/7
