# Blender v3.0.1 OBJ File: 'rockerfeller_plaza.blend'
# www.blender.org
o geometryt000010000010000110010110000110000110100000000110st69_F
v 626.861816 -245.941879 105.709076
v 620.695618 -269.550507 105.709076
v 610.756226 -276.505188 105.709076
v 633.883179 -288.548401 105.709076
v 631.900269 -248.747589 105.709076
v 638.848206 -279.231293 105.709076
v 645.442383 -262.667603 105.709076
v 637.907471 -237.586487 105.709076
v 650.003540 -244.040390 105.709076
v 650.028320 -254.143188 105.709076
v 647.260193 -263.634613 105.709076
v 653.922241 -247.092285 105.709076
v 654.242188 -246.300385 105.709076
v 656.840942 -257.783112 105.709076
v 652.263489 -266.307495 105.709076
v 660.811279 -250.775787 105.709076
v 610.756226 -276.505188 155.709076
v 620.695618 -269.550507 155.709076
v 626.861816 -245.941879 155.709076
v 633.883179 -288.548401 155.709076
v 626.706421 -272.756012 155.709076
v 628.190125 -255.635986 155.709076
v 638.848206 -279.231293 155.709076
v 631.900269 -248.747589 155.709076
v 631.900269 -248.747589 256.709076
v 620.695618 -269.550507 256.709076
v 645.442383 -262.667603 256.709076
v 638.848206 -279.231293 256.709076
v 650.003540 -244.040390 256.709076
v 637.907471 -237.586487 256.709076
v 650.028320 -254.143188 256.709076
v 647.260193 -263.634613 256.709076
v 653.922241 -247.092285 256.709076
v 654.242188 -246.300385 256.709076
v 656.840942 -257.783112 256.709076
v 652.263489 -266.307495 256.709076
v 650.234619 -253.769684 113.709076
v 650.028320 -254.143188 113.709076
v 656.479980 -257.590302 113.709076
v 653.922241 -247.092285 113.709076
v 656.840942 -257.783112 113.709076
v 660.811279 -250.775787 113.709076
vt 0.406290 0.255810
vt 0.451220 0.242820
vt 0.467030 0.222630
vt 0.481590 0.268960
vt 0.409800 0.265900
vt 0.463060 0.279180
vt 0.430820 0.292870
vt 0.387580 0.278270
vt 0.395470 0.302500
vt 0.413850 0.302310
vt 0.432000 0.296510
vt 0.399780 0.310320
vt 0.398240 0.310990
vt 0.418310 0.315960
vt 0.435280 0.306530
vt 0.404290 0.324120
vt 0.467030 0.222630
vt 0.451220 0.242820
vt 0.406290 0.255810
vt 0.481590 0.268960
vt 0.455140 0.254860
vt 0.423510 0.258260
vt 0.463060 0.279180
vt 0.409800 0.265900
vt 0.409800 0.265900
vt 0.451220 0.242820
vt 0.430820 0.292870
vt 0.463060 0.279180
vt 0.395470 0.302500
vt 0.387580 0.278270
vt 0.413850 0.302310
vt 0.432000 0.296510
vt 0.399780 0.310320
vt 0.398240 0.310990
vt 0.418310 0.315960
vt 0.435280 0.306530
vt 0.413110 0.302730
vt 0.413850 0.302310
vt 0.418070 0.315230
vt 0.399780 0.310320
vt 0.418310 0.315960
vt 0.404290 0.324120
vn 0.0000 0.0000 -1.0000
vn -0.0000 0.0000 1.0000
s off
f 1/1/1 2/2/1 3/3/1
f 2/2/1 4/4/1 3/3/1
f 1/1/1 5/5/1 2/2/1
f 2/2/1 6/6/1 4/4/1
f 7/7/1 2/2/1 5/5/1
f 7/7/1 6/6/1 2/2/1
f 5/5/1 8/8/1 9/9/1
f 10/10/1 7/7/1 5/5/1
f 9/9/1 10/10/1 5/5/1
f 11/11/1 6/6/1 7/7/1
f 9/9/1 12/12/1 10/10/1
f 13/13/1 12/12/1 9/9/1
f 7/7/1 10/10/1 11/11/1
f 11/11/1 10/10/1 14/14/1
f 14/14/1 15/15/1 11/11/1
f 10/10/1 12/12/1 14/14/1
f 12/12/1 16/16/1 14/14/1
f 17/17/2 18/18/2 19/19/2
f 20/20/2 18/18/2 17/17/2
f 21/21/2 18/18/2 20/20/2
f 18/18/2 22/22/2 19/19/2
f 23/23/2 21/21/2 20/20/2
f 22/22/2 24/24/2 19/19/2
f 25/25/2 26/26/2 27/27/2
f 27/27/2 26/26/2 28/28/2
f 25/25/2 29/29/2 30/30/2
f 31/31/2 25/25/2 27/27/2
f 31/31/2 29/29/2 25/25/2
f 27/27/2 28/28/2 32/32/2
f 33/33/2 29/29/2 31/31/2
f 34/34/2 29/29/2 33/33/2
f 31/31/2 27/27/2 32/32/2
f 32/32/2 35/35/2 31/31/2
f 36/36/2 35/35/2 32/32/2
f 37/37/2 38/38/2 39/39/2
f 40/40/2 37/37/2 39/39/2
f 40/40/2 39/39/2 41/41/2
f 40/40/2 41/41/2 42/42/2
