# Blender v3.0.1 OBJ File: 'rockerfeller_plaza.blend'
# www.blender.org
o geometryt000010000010000110010110000110000110100100000000st5
v 497.383423 -53.161362 887.944031
v 496.515228 -41.658432 887.944031
v 501.994934 -44.614552 887.944031
v 494.424622 -58.635853 887.944031
v 489.598328 -67.584839 887.944031
v 484.127136 -64.628593 887.944031
v 494.424622 -58.635853 904.244019
v 496.515228 -41.658432 904.244019
v 484.127136 -64.628593 904.244019
v 497.383423 -53.161362 904.244019
v 501.994934 -44.614552 904.244019
v 489.598328 -67.584839 904.244019
vt 0.020660 0.481010
vt 0.000010 0.479530
vt 0.003650 0.490500
vt 0.031560 0.474910
vt 0.049380 0.464980
vt 0.045740 0.454020
vt 0.031560 0.474910
vt 0.000010 0.479530
vt 0.045740 0.454020
vt 0.020660 0.481010
vt 0.003650 0.490500
vt 0.049380 0.464980
vn -0.0000 0.0000 -1.0000
vn 0.0001 0.0000 -1.0000
vn 0.0000 0.0000 1.0000
vn 0.0001 0.0000 1.0000
s off
f 1/1/1 2/2/1 3/3/1
f 4/4/2 2/2/2 1/1/2
f 5/5/1 6/6/1 4/4/1
f 6/6/1 2/2/1 4/4/1
f 7/7/3 8/8/3 9/9/3
f 10/10/4 8/8/4 7/7/4
f 11/11/3 8/8/3 10/10/3
f 7/7/3 9/9/3 12/12/3
