# Blender v3.0.1 OBJ File: 'rockerfeller_plaza.blend'
# www.blender.org
o geometryt000010000010000110010110000110000110100000000110st100
v 745.411316 -265.919495 108.121582
v 745.247803 -266.223297 153.720428
v 745.411316 -265.919495 153.720428
v 746.160889 -264.526794 108.121582
v 745.247803 -266.223297 104.920425
v 746.160889 -264.526794 153.720428
v 746.664124 -263.592102 153.720428
v 746.664124 -263.592102 108.121582
v 748.913025 -259.413910 108.121582
v 748.913025 -259.413910 153.720428
v 749.416199 -258.479187 153.720428
v 749.416199 -258.479187 108.121582
v 750.329285 -256.782715 104.920425
v 750.165771 -257.086487 108.121582
v 750.165771 -257.086487 153.720428
v 750.329285 -256.782715 153.720428
v 747.451294 -267.414490 108.121582
v 748.263611 -267.853485 153.720428
v 747.451294 -267.414490 153.720428
v 745.247803 -266.223297 104.920425
v 746.059998 -266.662415 108.121582
v 748.263611 -267.853485 104.920425
v 746.059998 -266.662415 153.720428
v 745.247803 -266.223297 153.720428
v 748.263611 -267.853485 104.920425
v 748.438416 -269.094910 153.720428
v 748.263611 -267.853485 153.720428
v 748.438416 -269.094910 104.920425
v 763.111206 -276.983704 108.121582
v 763.415039 -277.147095 153.720428
v 763.111206 -276.983704 153.720428
v 761.718140 -276.234711 108.121582
v 763.415039 -277.147095 104.920425
v 761.718140 -276.234711 153.720428
v 761.260315 -275.988586 153.720428
v 761.260315 -275.988586 108.121582
v 757.081116 -273.741608 108.121582
v 757.081116 -273.741608 153.720428
v 756.623291 -273.495514 153.720428
v 756.623291 -273.495514 108.121582
v 755.230225 -272.746490 108.121582
v 748.438416 -269.094910 104.920425
v 755.230225 -272.746490 153.720428
v 754.772400 -272.500397 153.720428
v 754.772400 -272.500397 108.121582
v 750.593201 -270.253387 108.121582
v 750.593201 -270.253387 153.720428
v 750.135376 -270.007294 153.720428
v 750.135376 -270.007294 108.121582
v 748.742310 -269.258301 108.121582
v 748.742310 -269.258301 153.720428
v 748.438416 -269.094910 153.720428
v 751.135498 -257.213806 108.121582
v 750.329285 -256.782715 153.720428
v 751.135498 -257.213806 153.720428
v 753.336426 -258.390808 104.920425
v 752.530273 -257.959595 108.121582
v 750.329285 -256.782715 104.920425
v 752.530273 -257.959595 153.720428
v 753.336426 -258.390808 153.720428
v 753.500000 -258.087006 108.121582
v 753.336426 -258.390808 153.720428
v 753.500000 -258.087006 153.720428
v 754.249878 -256.694397 108.121582
v 753.336426 -258.390808 104.920425
v 754.249878 -256.694397 153.720428
v 754.553345 -256.130890 153.720428
v 754.553345 -256.130890 108.121582
v 755.303223 -254.738281 108.121582
v 755.303223 -254.738281 153.720428
v 755.606567 -254.174789 153.720428
v 755.606567 -254.174789 108.121582
v 757.106445 -251.389587 108.121582
v 757.106445 -251.389587 153.720428
v 757.409790 -250.826080 153.720428
v 757.409790 -250.826080 108.121582
v 759.376465 -247.173691 104.920425
v 758.159668 -249.433487 108.121582
v 758.159668 -249.433487 153.720428
v 758.463135 -248.869980 153.720428
v 758.463135 -248.869980 108.121582
v 759.213013 -247.477386 108.121582
v 759.213013 -247.477386 153.720428
v 759.376465 -247.173691 153.720428
v 759.680298 -247.337189 108.121582
v 759.376465 -247.173691 153.720428
v 759.680298 -247.337189 153.720428
v 761.072998 -248.086990 108.121582
v 759.376465 -247.173691 104.920425
v 761.072998 -248.086990 153.720428
v 761.960815 -248.564987 153.720428
v 761.960815 -248.564987 108.121582
v 766.138672 -250.814285 108.121582
v 766.138672 -250.814285 153.720428
v 767.026489 -251.292282 153.720428
v 767.026489 -251.292282 108.121582
v 768.419189 -252.041992 108.121582
v 776.069214 -256.160614 104.920425
v 768.419189 -252.041992 153.720428
v 769.307007 -252.519989 153.720428
v 769.307007 -252.519989 108.121582
v 773.484985 -254.769287 108.121582
v 773.484985 -254.769287 153.720428
v 774.372803 -255.247284 153.720428
v 774.372803 -255.247284 108.121582
v 775.765381 -255.997086 108.121582
v 775.765381 -255.997086 153.720428
v 776.069214 -256.160614 153.720428
v 763.415039 -277.147095 104.920425
v 764.339905 -276.825500 153.720428
v 763.415039 -277.147095 153.720428
v 764.339905 -276.825500 104.920425
v 766.675171 -278.087006 108.121582
v 767.619019 -278.596893 153.720428
v 766.675171 -278.087006 153.720428
v 765.283569 -277.335297 108.121582
v 767.619019 -278.596893 104.920425
v 765.283569 -277.335297 153.720428
v 764.339905 -276.825500 153.720428
v 764.339905 -276.825500 104.920425
v 767.619019 -278.596893 104.920425
v 768.313110 -277.312012 153.720428
v 767.619019 -278.596893 153.720428
v 768.313110 -277.312012 104.920425
v 772.917236 -268.756195 108.121582
v 773.080688 -268.452301 153.720428
v 772.917236 -268.756195 153.720428
v 772.167725 -270.148987 108.121582
v 773.080688 -268.452301 104.920425
v 772.167725 -270.148987 153.720428
v 771.446411 -271.489410 153.720428
v 771.446411 -271.489410 108.121582
v 769.947388 -274.274994 108.121582
v 768.313110 -277.312012 104.920425
v 769.947388 -274.274994 153.720428
v 769.226074 -275.615387 153.720428
v 769.226074 -275.615387 108.121582
v 768.476562 -277.008209 108.121582
v 768.476562 -277.008209 153.720428
v 768.313110 -277.312012 153.720428
v 770.982788 -267.321991 108.121582
v 770.277344 -266.941803 153.720428
v 770.982788 -267.321991 153.720428
v 772.375244 -268.072205 108.121582
v 770.277344 -266.941803 104.920425
v 772.375244 -268.072205 153.720428
v 773.080688 -268.452301 153.720428
v 773.080688 -268.452301 104.920425
v 775.905884 -256.464508 108.121582
v 776.069214 -256.160614 153.720428
v 775.905884 -256.464508 153.720428
v 775.157410 -257.857788 108.121582
v 776.069214 -256.160614 104.920425
v 775.157410 -257.857788 153.720428
v 774.913940 -258.311188 153.720428
v 774.913940 -258.311188 108.121582
v 774.165283 -259.704498 108.121582
v 774.165283 -259.704498 153.720428
v 773.921814 -260.157898 153.720428
v 773.921814 -260.157898 108.121582
v 772.424683 -262.944489 108.121582
v 772.424683 -262.944489 153.720428
v 772.181213 -263.397888 153.720428
v 772.181213 -263.397888 108.121582
v 770.277344 -266.941803 104.920425
v 771.432739 -264.791199 108.121582
v 771.432739 -264.791199 153.720428
v 771.189087 -265.244598 153.720428
v 771.189087 -265.244598 108.121582
v 770.440613 -266.637909 108.121582
v 770.440613 -266.637909 153.720428
v 770.277344 -266.941803 153.720428
vt 13.303070 4.104060
vt 13.745380 62.564098
vt 13.303070 62.564098
vt 11.275310 4.104060
vt 13.745380 0.000000
vt 11.275310 62.564098
vt 9.914340 62.564098
vt 9.914340 4.104060
vt 3.831050 4.104060
vt 3.831050 62.564098
vt 2.470070 62.564098
vt 2.470070 4.104060
vt 0.000000 0.000000
vt 0.442310 4.104060
vt 0.442310 62.564098
vt 0.000000 62.564098
vt 3.211450 4.104060
vt 4.395130 62.564098
vt 3.211450 62.564098
vt 0.000000 0.000000
vt 1.183680 4.104060
vt 4.395130 0.000000
vt 1.183680 62.564098
vt 0.000000 62.564098
vt 0.000000 0.000000
vt 1.607270 62.564098
vt 0.000000 62.564098
vt 1.607270 0.000000
vt 21.357691 4.104060
vt 21.799999 62.564098
vt 21.357691 62.564098
vt 19.329929 4.104060
vt 21.799999 0.000000
vt 19.329929 62.564098
vt 18.663549 62.564098
vt 18.663549 4.104060
vt 12.580260 4.104060
vt 12.580260 62.564098
vt 11.913880 62.564098
vt 11.913880 4.104060
vt 9.886120 4.104060
vt 0.000000 0.000000
vt 9.886120 62.564098
vt 9.219740 62.564098
vt 9.219740 4.104060
vt 3.136450 4.104060
vt 3.136450 62.564098
vt 2.470070 62.564098
vt 2.470070 4.104060
vt 0.442310 4.104060
vt 0.442310 62.564098
vt 0.000000 62.564098
vt 0.000000 0.000000
vt 3.199820 4.104060
vt 1.172060 4.104060
vt 15.890940 4.104060
vt 16.333241 62.564098
vt 15.890940 62.564098
vt 13.863170 4.104060
vt 16.333241 0.000000
vt 13.863170 62.564098
vt 13.042660 62.564098
vt 13.042660 4.104060
vt 11.014900 4.104060
vt 11.014900 62.564098
vt 10.194390 62.564098
vt 10.194390 4.104060
vt 6.138860 4.104060
vt 6.138860 62.564098
vt 5.318350 62.564098
vt 5.318350 4.104060
vt 0.000000 0.000000
vt 3.290580 62.564098
vt 2.470070 62.564098
vt 3.290580 4.104060
vt 2.470070 4.104060
vt 0.442310 4.104060
vt 0.442310 62.564098
vt 0.000000 62.564098
vt 23.862989 4.104060
vt 24.305300 62.564098
vt 23.862989 62.564098
vt 21.835220 4.104060
vt 24.305300 0.000000
vt 21.835220 62.564098
vt 20.542521 62.564098
vt 20.542521 4.104060
vt 14.459230 4.104060
vt 14.459230 62.564098
vt 13.166530 62.564098
vt 13.166530 4.104060
vt 11.138770 4.104060
vt 0.000000 0.000000
vt 11.138770 62.564098
vt 9.846060 62.564098
vt 9.846060 4.104060
vt 3.762770 4.104060
vt 3.762770 62.564098
vt 2.470070 62.564098
vt 2.470070 4.104060
vt 0.442310 4.104060
vt 0.442310 62.564098
vt 0.000000 62.564098
vt 0.000000 0.000000
vt 1.255350 62.564098
vt 0.000000 62.564098
vt 1.255350 0.000000
vt 3.403010 4.104060
vt 4.778260 62.564098
vt 3.403010 62.564098
vt 1.375250 4.104060
vt 4.778260 0.000000
vt 1.375250 62.564098
vt 0.000000 62.564098
vt 0.000000 0.000000
vt 12.456400 4.104060
vt 12.898710 62.564098
vt 12.456400 62.564098
vt 10.428640 4.104060
vt 12.898710 0.000000
vt 10.428640 62.564098
vt 8.477121 62.564098
vt 8.477121 4.104060
vt 4.421590 4.104060
vt 0.000000 0.000000
vt 4.421590 62.564098
vt 2.470070 62.564098
vt 2.470070 4.104060
vt 0.442310 4.104060
vt 0.442310 62.564098
vt 0.000000 62.564098
vt 3.055180 4.104060
vt 4.082600 62.564098
vt 3.055180 62.564098
vt 1.027420 4.104060
vt 4.082600 0.000000
vt 1.027420 62.564098
vt 0.000000 62.564098
vt 0.000000 0.000000
vt 15.248080 4.104060
vt 15.690390 62.564098
vt 15.248080 62.564098
vt 13.220320 4.104060
vt 15.690390 0.000000
vt 13.220320 62.564098
vt 12.560520 62.564098
vt 12.560520 4.104060
vt 10.532750 62.564098
vt 9.872961 62.564098
vt 10.532750 4.104060
vt 9.872961 4.104060
vt 5.817430 4.104060
vt 5.817430 62.564098
vt 5.157630 62.564098
vt 5.157630 4.104060
vt 0.000000 0.000000
vt 3.129870 4.104060
vt 3.129870 62.564098
vt 2.470070 62.564098
vt 2.470070 4.104060
vt 0.442310 4.104060
vt 0.442310 62.564098
vt 0.000000 62.564098
vt 4.371890 62.564098
vt 3.199820 62.564098
vt 4.371890 0.000000
vt 1.172060 62.564098
vt 0.000000 62.564098
vt 0.000000 0.000000
vt 1.872260 62.564098
vt 0.000000 62.564098
vt 1.872260 0.000000
vn -0.8804 0.4742 0.0000
vn -0.8806 0.4739 -0.0000
vn -0.8805 0.4741 0.0000
vn -0.8805 0.4740 0.0000
vn -0.8805 0.4740 -0.0001
vn -0.8806 0.4738 0.0000
vn -0.4755 -0.8797 0.0000
vn -0.4756 -0.8796 0.0000
vn -0.9902 -0.1394 0.0000
vn -0.4737 -0.8807 0.0000
vn -0.4735 -0.8808 0.0000
vn -0.4736 -0.8807 0.0000
vn -0.4736 -0.8808 -0.0000
vn -0.4733 -0.8809 0.0000
vn -0.4735 -0.8808 0.0003
vn -0.4734 -0.8809 -0.0001
vn -0.4735 -0.8808 -0.0001
vn 0.4715 0.8818 -0.0000
vn -0.8805 0.4741 0.0001
vn -0.8805 0.4741 -0.0001
vn -0.8806 0.4739 -0.0002
vn 0.4737 0.8807 0.0000
vn 0.4741 0.8805 -0.0000
vn 0.4739 0.8806 0.0000
vn 0.4740 0.8805 0.0000
vn 0.4740 0.8805 -0.0001
vn 0.3284 -0.9445 0.0000
vn -0.4753 -0.8798 0.0000
vn -0.4752 -0.8799 0.0000
vn -0.4754 -0.8798 0.0000
vn 0.8807 -0.4737 0.0000
vn 0.8806 -0.4739 -0.0000
vn 0.8806 -0.4738 0.0000
vn 0.8807 -0.4736 0.0000
vn 0.4745 0.8803 0.0000
vn 0.4743 0.8804 0.0000
vn 0.4744 0.8803 0.0000
vn 0.4748 0.8801 0.0000
vn 0.4743 0.8803 0.0000
vn 0.8809 -0.4733 0.0000
vn 0.8809 -0.4732 0.0000
vn 0.8808 -0.4734 0.0000
vn 0.8810 -0.4731 0.0000
vn 0.8809 -0.4732 -0.0002
vn 0.8812 -0.4728 0.0000
vn 0.8807 -0.4738 0.0000
vn 0.8809 -0.4734 0.0000
vn 0.8810 -0.4730 -0.0002
vn 0.8809 -0.4733 0.0001
vn 0.4715 0.8819 -0.0000
vn 0.4716 0.8818 -0.0000
vn 0.4714 0.8819 -0.0000
vn 0.4712 0.8820 -0.0000
vn 0.4711 0.8821 0.0000
vn 0.8798 -0.4753 0.0000
vn 0.8809 -0.4733 -0.0001
vn 0.8809 -0.4733 0.0002
vn 0.8809 -0.4734 -0.0001
s off
f 1/1/1 2/2/1 3/3/1
f 4/4/2 5/5/2 1/1/2
f 2/2/3 1/1/3 5/5/3
f 6/6/4 7/7/4 4/4/4
f 7/7/1 8/8/1 4/4/1
f 8/8/5 5/5/5 4/4/5
f 8/8/4 9/9/4 5/5/4
f 10/10/4 11/11/4 9/9/4
f 11/11/4 12/12/4 9/9/4
f 12/12/4 13/13/4 9/9/4
f 9/9/4 13/13/4 5/5/4
f 14/14/2 13/13/2 12/12/2
f 15/15/6 16/16/6 14/14/6
f 16/16/2 13/13/2 14/14/2
f 17/17/7 18/18/7 19/19/7
f 20/20/7 17/17/7 21/21/7
f 20/20/7 22/22/7 17/17/7
f 18/18/7 17/17/7 22/22/7
f 23/23/8 24/24/8 21/21/8
f 25/25/9 26/26/9 27/27/9
f 25/25/9 28/28/9 26/26/9
f 29/29/10 30/30/10 31/31/10
f 32/32/11 33/33/11 29/29/11
f 30/30/12 29/29/12 33/33/12
f 34/34/11 35/35/11 32/32/11
f 35/35/11 36/36/11 32/32/11
f 36/36/13 33/33/13 32/32/13
f 36/36/11 37/37/11 33/33/11
f 38/38/14 39/39/14 37/37/14
f 39/39/11 40/40/11 37/37/11
f 37/37/15 40/40/15 33/33/15
f 41/41/13 42/42/13 40/40/13
f 40/40/11 42/42/11 33/33/11
f 43/43/11 44/44/11 41/41/11
f 44/44/14 45/45/14 41/41/14
f 45/45/16 42/42/16 41/41/16
f 46/46/13 42/42/13 45/45/13
f 47/47/11 48/48/11 46/46/11
f 48/48/11 49/49/11 46/46/11
f 49/49/17 42/42/17 46/46/17
f 50/50/11 42/42/11 49/49/11
f 51/51/11 52/52/11 50/50/11
f 52/52/12 42/42/12 50/50/12
f 56/53/18 53/54/18 57/55/18
f 61/56/1 62/57/1 63/58/1
f 64/59/3 65/60/3 61/56/3
f 62/57/2 61/56/2 65/60/2
f 66/61/3 67/62/3 64/59/3
f 67/62/3 68/63/3 64/59/3
f 68/63/3 65/60/3 64/59/3
f 68/63/3 69/64/3 65/60/3
f 70/65/2 71/66/2 69/64/2
f 71/66/3 72/67/3 69/64/3
f 69/64/19 72/67/19 65/60/19
f 72/67/20 73/68/20 65/60/20
f 74/69/3 75/70/3 73/68/3
f 75/70/2 76/71/2 73/68/2
f 76/71/21 77/72/21 73/68/21
f 73/68/3 77/72/3 65/60/3
f 79/73/3 80/74/3 78/75/3
f 80/74/3 81/76/3 78/75/3
f 81/76/1 77/72/1 78/75/1
f 82/77/3 77/72/3 81/76/3
f 83/78/2 84/79/2 82/77/2
f 84/79/1 77/72/1 82/77/1
f 85/80/22 86/81/22 87/82/22
f 88/83/23 89/84/23 85/80/23
f 86/81/24 85/80/24 89/84/24
f 90/85/25 91/86/25 88/83/25
f 91/86/25 92/87/25 88/83/25
f 92/87/25 89/84/25 88/83/25
f 92/87/25 93/88/25 89/84/25
f 94/89/25 95/90/25 93/88/25
f 95/90/25 96/91/25 93/88/25
f 93/88/23 96/91/23 89/84/23
f 97/92/26 98/93/26 96/91/26
f 96/91/25 98/93/25 89/84/25
f 99/94/25 100/95/25 97/92/25
f 100/95/25 101/96/25 97/92/25
f 101/96/23 98/93/23 97/92/23
f 102/97/25 98/93/25 101/96/25
f 103/98/25 104/99/25 102/97/25
f 104/99/25 105/100/25 102/97/25
f 105/100/23 98/93/23 102/97/23
f 106/101/23 98/93/23 105/100/23
f 107/102/25 108/103/25 106/101/25
f 108/103/24 98/93/24 106/101/24
f 109/104/27 110/105/27 111/106/27
f 109/104/27 112/107/27 110/105/27
f 113/108/28 114/109/28 115/110/28
f 116/111/29 117/112/29 113/108/29
f 114/109/28 113/108/28 117/112/28
f 118/113/30 119/114/30 116/111/30
f 119/114/28 120/115/28 116/111/28
f 120/115/28 117/112/28 116/111/28
f 125/116/31 126/117/31 127/118/31
f 128/119/32 129/120/32 125/116/32
f 126/117/33 125/116/33 129/120/33
f 130/121/32 131/122/32 128/119/32
f 131/122/32 132/123/32 128/119/32
f 132/123/32 129/120/32 128/119/32
f 133/124/32 134/125/32 132/123/32
f 132/123/32 134/125/32 129/120/32
f 135/126/32 136/127/32 133/124/32
f 136/127/32 137/128/32 133/124/32
f 137/128/32 134/125/32 133/124/32
f 138/129/32 134/125/32 137/128/32
f 139/130/33 140/131/33 138/129/33
f 140/131/34 134/125/34 138/129/34
f 141/132/35 142/133/35 143/134/35
f 144/135/36 145/136/36 141/132/36
f 142/133/37 141/132/37 145/136/37
f 146/137/37 147/138/37 144/135/37
f 147/138/38 148/139/38 144/135/38
f 148/139/39 145/136/39 144/135/39
f 149/140/40 150/141/40 151/142/40
f 152/143/41 153/144/41 149/140/41
f 150/141/42 149/140/42 153/144/42
f 154/145/34 155/146/34 152/143/34
f 155/146/43 156/147/43 152/143/43
f 156/147/44 153/144/44 152/143/44
f 158/148/45 159/149/45 157/150/45
f 159/149/46 160/151/46 157/150/46
f 160/151/41 161/152/41 153/144/41
f 162/153/47 163/154/47 161/152/47
f 163/154/43 164/155/43 161/152/43
f 164/155/48 165/156/48 161/152/48
f 161/152/40 165/156/40 153/144/40
f 166/157/41 165/156/41 164/155/41
f 167/158/40 168/159/40 166/157/40
f 168/159/40 169/160/40 166/157/40
f 169/160/49 165/156/49 166/157/49
f 170/161/41 165/156/41 169/160/41
f 171/162/40 172/163/40 170/161/40
f 172/163/43 165/156/43 170/161/43
s 1
f 24/24/29 20/20/29 21/21/29
f 53/54/50 54/164/50 55/165/50
f 56/53/51 58/166/51 53/54/50
f 54/164/50 53/54/50 58/166/51
f 59/167/52 60/168/52 57/55/53
f 60/168/52 56/53/54 57/55/53
f 78/75/3 77/72/3 76/71/3
f 121/169/55 122/170/55 123/171/55
f 121/169/55 124/172/55 122/170/55
f 156/147/56 157/150/57 153/144/40
f 157/150/57 160/151/58 153/144/40
