# Blender v3.0.1 OBJ File: 'rockerfeller_plaza.blend'
# www.blender.org
o geometryt000010000010000110010110000110000110100000000110st50
v 748.054321 -229.850677 123.480995
v 748.054321 -229.850677 106.781540
v 752.154175 -232.061081 106.781540
v 752.154175 -232.061081 123.480995
v 748.193298 -227.769791 106.781540
v 747.456177 -229.136292 106.781540
v 747.456177 -229.136292 123.480995
v 748.193298 -227.769791 123.480995
v 751.692627 -221.282486 106.781540
v 748.744202 -226.748489 106.781540
v 748.744202 -226.748489 123.480995
v 751.692627 -221.282486 123.480995
v 754.454834 -216.161789 106.781540
v 752.243530 -220.261185 106.781540
v 752.243530 -220.261185 123.480995
v 754.454834 -216.161789 123.480995
v 757.954224 -209.674591 106.781540
v 755.005798 -215.140488 106.781540
v 755.005798 -215.140488 123.480995
v 757.954224 -209.674591 123.480995
v 759.242188 -207.286789 106.781540
v 758.505127 -208.653290 106.781540
v 758.505127 -208.653290 123.480995
v 759.242188 -207.286789 123.480995
v 753.319580 -231.732391 123.480995
v 753.319580 -231.732391 106.781540
v 754.056396 -230.365784 106.781540
v 754.056396 -230.365784 123.480995
v 754.548218 -229.453888 123.480995
v 754.548218 -229.453888 106.781540
v 757.495728 -223.987488 106.781540
v 757.495728 -223.987488 123.480995
v 757.987427 -223.075485 106.781540
v 760.198120 -218.975677 106.781540
v 760.198120 -218.975677 123.480995
v 757.987427 -223.075485 123.480995
v 760.689819 -218.063690 106.781540
v 763.637451 -212.597290 106.781540
v 763.637451 -212.597290 123.480995
v 760.689819 -218.063690 123.480995
v 764.129150 -211.685379 106.781540
v 764.865967 -210.318787 106.781540
v 764.865967 -210.318787 123.480995
v 764.129150 -211.685379 123.480995
v 764.267822 -209.604279 106.781540
v 760.167908 -207.393890 106.781540
v 760.167908 -207.393890 123.480995
v 764.267822 -209.604279 123.480995
vt 0.000000 0.625000
vt 0.000000 0.000000
vt 0.375000 0.000000
vt 0.375000 0.625000
vt 0.000000 0.000000
vt 0.125000 0.000000
vt 0.125000 0.625000
vt 0.000000 0.625000
vt 0.000000 0.000000
vt 0.500000 0.000000
vt 0.500000 0.625000
vt 0.000000 0.625000
vt 0.000000 0.000000
vt 0.375000 0.000000
vt 0.375000 0.625000
vt 0.000000 0.625000
vt 0.000000 0.000000
vt 0.500000 0.000000
vt 0.500000 0.625000
vt 0.000000 0.625000
vt 0.000000 0.000000
vt 0.125000 0.000000
vt 0.125000 0.625000
vt 0.000000 0.625000
vt 0.000000 0.625000
vt 0.000000 0.000000
vt 0.125000 0.000000
vt 0.125000 0.625000
vt 0.000000 0.625000
vt 0.000000 0.000000
vt 0.500000 0.000000
vt 0.500000 0.625000
vt 0.000000 0.000000
vt 0.375000 0.000000
vt 0.375000 0.625000
vt 0.000000 0.625000
vt 0.000000 0.000000
vt 0.500000 0.000000
vt 0.500000 0.625000
vt 0.000000 0.625000
vt 0.000000 0.000000
vt 0.125000 0.000000
vt 0.125000 0.625000
vt 0.000000 0.625000
vt 0.000000 0.000000
vt 0.375000 0.000000
vt 0.375000 0.625000
vt 0.000000 0.625000
vn -0.4746 -0.8802 0.0000
vn -0.8801 0.4747 0.0000
vn -0.8801 0.4748 0.0000
vn 0.8802 -0.4746 0.0000
vn 0.8802 -0.4745 0.0000
vn 0.4745 0.8802 0.0000
vn 0.4746 0.8802 0.0000
s off
f 1/1/1 2/2/1 3/3/1
f 1/1/1 3/3/1 4/4/1
f 5/5/2 6/6/2 7/7/2
f 8/8/3 5/5/3 7/7/3
f 9/9/2 10/10/2 11/11/2
f 12/12/3 9/9/3 11/11/3
f 13/13/2 14/14/2 15/15/2
f 16/16/3 13/13/3 15/15/3
f 17/17/2 18/18/2 19/19/2
f 20/20/3 17/17/3 19/19/3
f 21/21/2 22/22/2 23/23/2
f 24/24/2 21/21/2 23/23/2
f 25/25/4 26/26/4 27/27/4
f 25/25/4 27/27/4 28/28/4
f 29/29/4 30/30/4 31/31/4
f 29/29/4 31/31/4 32/32/4
f 33/33/4 34/34/4 35/35/4
f 36/36/4 33/33/4 35/35/4
f 37/37/4 38/38/4 39/39/4
f 40/40/4 37/37/4 39/39/4
f 41/41/4 42/42/4 43/43/4
f 44/44/5 41/41/5 43/43/5
f 45/45/6 46/46/6 47/47/6
f 48/48/7 45/45/7 47/47/7
