# Blender v3.0.1 OBJ File: 'rockerfeller_plaza.blend'
# www.blender.org
o geometryt000010000010000110010110000110000110100100010010st108_
v 1238.269287 -307.710785 1010.397461
v 1242.483276 -299.867584 1010.397461
v 1254.064087 -306.126770 1010.397461
v 1249.850220 -313.969971 1010.397461
v 1249.963013 -286.135284 1010.397461
v 1261.543945 -292.394379 1010.397461
v 1252.722412 -280.973663 1010.397461
v 1264.303223 -287.232788 1010.397461
v 1242.483276 -299.867584 1020.397461
v 1238.269287 -307.710785 1020.397461
v 1243.641357 -300.493469 1020.397461
v 1254.064087 -306.126770 1020.397461
v 1249.850220 -313.969971 1020.397461
v 1249.963013 -286.135284 1110.397461
v 1242.483276 -299.867584 1110.397461
v 1254.064087 -306.126770 1110.397461
v 1261.543945 -292.394379 1110.397461
v 1252.722412 -280.973663 1040.397461
v 1249.963013 -286.135284 1040.397461
v 1264.303223 -287.232788 1040.397461
v 1258.069580 -290.516693 1040.397461
v 1261.543945 -292.394379 1040.397461
vt 0.485380 0.465140
vt 0.469770 0.473810
vt 0.477480 0.497010
vt 0.493090 0.488330
vt 0.442410 0.489210
vt 0.450120 0.512400
vt 0.432140 0.494900
vt 0.439850 0.518090
vt 0.469770 0.473810
vt 0.485380 0.465140
vt 0.470540 0.476130
vt 0.477480 0.497010
vt 0.493090 0.488330
vt 0.442410 0.489210
vt 0.469770 0.473810
vt 0.477480 0.497010
vt 0.450120 0.512400
vt 0.432140 0.494900
vt 0.442410 0.489210
vt 0.439850 0.518090
vt 0.447800 0.505450
vt 0.450120 0.512400
vn 0.0000 0.0000 -1.0000
vn 0.0000 0.0000 1.0000
s off
f 1/1/1 2/2/1 3/3/1
f 1/1/1 3/3/1 4/4/1
f 2/2/1 5/5/1 3/3/1
f 5/5/1 6/6/1 3/3/1
f 5/5/1 7/7/1 8/8/1
f 5/5/1 8/8/1 6/6/1
f 9/9/2 10/10/2 11/11/2
f 11/11/2 10/10/2 12/12/2
f 10/10/2 13/13/2 12/12/2
f 14/14/2 15/15/2 16/16/2
f 14/14/2 16/16/2 17/17/2
f 18/18/2 19/19/2 20/20/2
f 19/19/2 21/21/2 20/20/2
f 21/21/2 22/22/2 20/20/2
