# Blender v3.0.1 OBJ File: 'rockerfeller_plaza.blend'
# www.blender.org
o geometryt000010000010000110010110000110000100110010110110st106
v 36.070343 -108.863625 566.075317
v 36.373634 -109.028023 726.010986
v 36.070343 -108.863625 726.010986
v 32.067642 -106.693222 566.075317
v 36.373634 -109.028023 565.410889
v 32.067642 -106.693222 726.010986
v 31.474743 -106.371727 726.010986
v 31.474743 -106.371727 566.075317
v 28.806274 -104.924721 566.075317
v 28.806274 -104.924721 726.010986
v 28.213375 -104.603226 726.010986
v 28.213375 -104.603226 566.075317
v 26.879143 -103.879822 566.075317
v 26.879143 -103.879822 726.010986
v 26.286243 -103.558327 726.010986
v 26.286243 -103.558327 566.075317
v 22.283545 -101.387924 566.075317
v 22.283545 -101.387924 726.010986
v 21.690643 -101.066422 726.010986
v 21.690643 -101.066422 566.075317
v 12.196157 -95.918205 565.410889
v 20.356415 -100.342926 566.075317
v 20.356415 -100.342926 726.010986
v 19.763515 -100.021523 726.010986
v 19.763515 -100.021523 566.075317
v 17.095043 -98.574547 566.075317
v 17.095043 -98.574547 726.010986
v 16.502144 -98.253052 726.010986
v 16.502144 -98.253052 566.075317
v 12.499441 -96.082657 566.075317
v 12.499441 -96.082657 726.010986
v 12.196157 -95.918205 726.010986
v 12.360710 -95.614975 566.075317
v 12.196157 -95.918205 726.010986
v 12.360710 -95.614975 726.010986
v 14.532454 -91.612991 566.075317
v 12.196157 -95.918205 565.410889
v 14.532454 -91.612991 726.010986
v 14.741537 -91.227715 726.010986
v 14.741537 -91.227715 566.075317
v 16.189365 -88.559723 566.075317
v 16.189365 -88.559723 726.010986
v 16.398453 -88.174431 726.010986
v 16.398453 -88.174431 566.075317
v 17.122364 -86.840446 566.075317
v 17.122364 -86.840446 726.010986
v 17.331444 -86.455154 726.010986
v 17.331444 -86.455154 566.075317
v 18.779274 -83.787170 566.075317
v 18.779274 -83.787170 726.010986
v 18.988365 -83.401886 726.010986
v 18.988365 -83.401886 566.075317
v 19.712275 -82.067894 566.075317
v 19.712275 -82.067894 726.010986
v 19.921364 -81.682602 726.010986
v 19.921364 -81.682602 566.075317
v 26.504482 -69.551575 565.410889
v 21.369184 -79.014610 566.075317
v 21.369184 -79.014610 726.010986
v 21.578274 -78.629333 726.010986
v 21.578274 -78.629333 566.075317
v 22.302185 -77.295334 566.075317
v 22.302185 -77.295334 726.010986
v 22.511272 -76.910057 726.010986
v 22.511272 -76.910057 566.075317
v 23.959103 -74.242065 566.075317
v 23.959103 -74.242065 726.010986
v 24.168182 -73.856773 726.010986
v 24.168182 -73.856773 566.075317
v 26.339924 -69.854805 566.075317
v 26.339924 -69.854805 726.010986
v 26.504482 -69.551575 726.010986
v 13.512352 -94.915924 743.410950
v 13.512352 -94.915924 726.010986
v 13.104820 -95.652351 726.010986
v 13.104820 -95.652351 743.410950
v 22.738525 -78.243736 743.410950
v 22.738525 -78.243736 726.010986
v 22.600864 -78.492500 726.010986
v 22.330994 -78.980164 726.010986
v 22.330994 -78.980164 743.410950
v 13.104820 -95.652351 743.410950
v 13.104820 -95.652351 726.010986
v 13.407166 -95.818527 726.010986
v 13.407166 -95.818527 743.410950
v 16.067379 -97.280571 743.410950
v 16.067379 -97.280571 726.010986
v 16.601494 -97.574127 726.010986
v 16.601494 -97.574127 743.410950
v 23.252026 -101.229225 743.410950
v 23.252026 -101.229225 726.010986
v 23.786144 -101.522827 726.010986
v 23.786144 -101.522827 743.410950
v 25.116245 -102.253822 743.410950
v 25.116245 -102.253822 726.010986
v 25.650364 -102.547424 726.010986
v 25.650364 -102.547424 743.410950
v 32.300896 -106.202522 743.410950
v 32.300896 -106.202522 726.010986
v 32.835003 -106.496124 726.010986
v 32.835003 -106.496124 743.410950
v 35.495224 -107.958122 743.410950
v 35.495224 -107.958122 726.010986
v 35.797565 -108.124321 726.010986
v 35.797565 -108.124321 743.410950
v 23.040874 -78.409904 743.410950
v 23.040874 -78.409904 726.010986
v 22.738525 -78.243736 726.010986
v 22.738525 -78.243736 743.410950
v 26.235195 -80.165504 743.410950
v 26.235195 -80.165504 726.010986
v 25.701084 -79.871964 726.010986
v 25.701084 -79.871964 743.410950
v 33.419834 -84.114182 743.410950
v 33.419834 -84.114182 726.010986
v 32.885723 -83.820641 726.010986
v 32.885723 -83.820641 743.410950
v 35.284042 -85.138756 743.410950
v 35.284042 -85.138756 726.010986
v 34.749935 -84.845215 726.010986
v 34.749935 -84.845215 743.410950
v 42.468681 -89.087440 743.410950
v 42.468681 -89.087440 726.010986
v 41.934574 -88.793892 726.010986
v 41.934574 -88.793892 743.410950
v 45.431244 -90.715660 743.410950
v 45.431244 -90.715660 726.010986
v 45.128895 -90.549492 726.010986
v 45.128895 -90.549492 743.410950
v 26.807724 -69.716095 566.075317
v 26.504482 -69.551575 726.010986
v 26.807724 -69.716095 726.010986
v 30.809933 -71.887405 566.075317
v 26.504482 -69.551575 565.410889
v 30.809933 -71.887405 726.010986
v 31.220345 -72.110062 726.010986
v 31.220345 -72.110062 566.075317
v 33.888485 -73.557602 566.075317
v 33.888485 -73.557602 726.010986
v 34.298893 -73.780266 726.010986
v 34.298893 -73.780266 566.075317
v 35.632965 -74.504036 566.075317
v 35.632965 -74.504036 726.010986
v 36.043373 -74.726692 726.010986
v 36.043373 -74.726692 566.075317
v 38.711514 -76.174232 566.075317
v 38.711514 -76.174232 726.010986
v 39.121914 -76.396896 726.010986
v 39.121914 -76.396896 566.075317
v 41.790054 -77.844437 566.075317
v 41.790054 -77.844437 726.010986
v 42.200462 -78.067093 726.010986
v 42.200462 -78.067093 566.075317
v 43.534534 -78.790863 566.075317
v 43.534534 -78.790863 726.010986
v 43.944942 -79.013527 726.010986
v 43.944942 -79.013527 566.075317
v 46.613083 -80.461067 566.075317
v 46.613083 -80.461067 726.010986
v 47.023495 -80.683723 726.010986
v 47.023495 -80.683723 566.075317
v 64.053543 -89.923027 565.410889
v 48.357563 -81.407494 566.075317
v 48.357563 -81.407494 726.010986
v 48.767975 -81.630157 726.010986
v 48.767975 -81.630157 566.075317
v 51.436111 -83.077705 566.075317
v 51.436111 -83.077705 726.010986
v 51.846512 -83.300354 726.010986
v 51.846512 -83.300354 566.075317
v 54.514652 -84.747902 566.075317
v 54.514652 -84.747902 726.010986
v 54.925064 -84.970551 726.010986
v 54.925064 -84.970551 566.075317
v 56.259132 -85.694336 566.075317
v 56.259132 -85.694336 726.010986
v 56.669544 -85.916985 726.010986
v 56.669544 -85.916985 566.075317
v 59.337685 -87.364532 566.075317
v 59.337685 -87.364532 726.010986
v 59.748093 -87.587181 726.010986
v 59.748093 -87.587181 566.075317
v 63.750301 -89.758507 566.075317
v 63.750301 -89.758507 726.010986
v 64.053543 -89.923027 726.010986
v 35.797565 -108.124321 743.410950
v 35.797565 -108.124321 726.010986
v 35.935234 -107.875526 726.010986
v 36.205105 -107.387825 726.010986
v 36.205105 -107.387825 743.410950
v 45.023705 -91.452103 743.410950
v 45.023705 -91.452103 726.010986
v 45.431244 -90.715660 726.010986
v 45.431244 -90.715660 743.410950
v 44.383453 -94.270592 566.075317
v 44.548084 -93.967407 726.010986
v 44.383453 -94.270592 726.010986
v 42.210651 -98.271996 566.075317
v 44.548084 -93.967407 565.410889
v 42.210651 -98.271996 726.010986
v 41.878262 -98.884125 726.010986
v 41.878262 -98.884125 566.075317
v 41.399292 -99.766182 565.410889
v 41.153992 -100.217926 566.075317
v 41.153992 -100.217926 726.010986
v 40.821602 -100.830025 726.010986
v 40.821602 -100.830025 566.075317
v 40.097332 -102.163826 566.075317
v 40.097332 -102.163826 726.010986
v 39.764942 -102.776024 726.010986
v 39.764942 -102.776024 566.075317
v 39.040672 -104.109825 566.075317
v 39.040672 -104.109825 726.010986
v 38.708282 -104.721924 726.010986
v 38.708282 -104.721924 566.075317
v 36.370853 -109.026527 565.410889
v 36.535484 -108.723320 566.075317
v 36.535484 -108.723320 726.010986
v 36.370853 -109.026527 726.010986
v 60.454433 -102.597527 566.075317
v 60.757683 -102.762024 726.010986
v 60.454433 -102.597527 726.010986
v 56.452274 -100.426125 566.075317
v 60.757683 -102.762024 565.410889
v 56.452274 -100.426125 726.010986
v 55.698273 -100.017021 726.010986
v 55.698273 -100.017021 566.075317
v 53.030163 -98.569405 566.075317
v 53.030163 -98.569405 726.010986
v 52.276173 -98.160324 726.010986
v 52.276173 -98.160324 566.075317
v 49.608063 -96.712723 566.075317
v 44.548664 -93.967712 565.410889
v 49.608063 -96.712723 726.010986
v 48.854073 -96.303642 726.010986
v 48.854073 -96.303642 566.075317
v 44.851902 -94.132240 566.075317
v 44.851902 -94.132240 726.010986
v 44.548664 -93.967712 726.010986
v 63.967762 -90.257187 566.075317
v 64.053543 -89.923027 726.010986
v 63.967762 -90.257187 726.010986
v 62.835613 -94.667465 566.075317
v 64.053543 -89.923027 565.410889
v 62.835613 -94.667465 726.010986
v 62.594303 -95.607460 726.010986
v 62.594303 -95.607460 566.075317
v 62.216923 -97.077560 566.075317
v 60.757683 -102.762024 565.410889
v 62.216923 -97.077560 726.010986
v 61.975613 -98.017563 726.010986
v 61.975613 -98.017563 566.075317
v 60.843464 -102.427826 566.075317
v 60.843464 -102.427826 726.010986
v 60.757683 -102.762024 726.010986
vt 29.797449 173.997803
vt 29.423670 0.719850
vt 29.797449 0.000000
vt 17.365290 0.719850
vt 12.432170 0.719850
vt 0.000000 0.000000
vt 6.037620 0.719850
vt 9.326371 0.719850
vt 0.373780 0.719850
vt 5.306900 0.719850
vt 32.127621 0.719850
vt 32.501400 173.997803
vt 32.127621 173.997803
vt 27.194490 0.719850
vt 32.501400 0.000000
vt 27.194490 173.997803
vt 26.719561 173.997803
vt 26.719561 0.719850
vt 23.430811 0.719850
vt 23.430811 173.997803
vt 22.955879 173.997803
vt 22.955879 0.719850
vt 21.311501 0.719850
vt 21.311501 173.997803
vt 20.836571 173.997803
vt 20.836571 0.719850
vt 17.547819 0.719850
vt 17.547819 173.997803
vt 17.072889 173.997803
vt 17.072889 0.719850
vt 15.428510 0.719850
vt 15.428510 173.997803
vt 14.953580 173.997803
vt 14.953580 0.719850
vt 0.000000 0.000000
vt 11.664830 0.719850
vt 11.664830 173.997803
vt 11.189890 173.997803
vt 11.189890 0.719850
vt 9.545520 0.719850
vt 9.545520 173.997803
vt 9.070590 173.997803
vt 9.070590 0.719850
vt 5.781840 0.719850
vt 5.781840 173.997803
vt 5.306900 173.997803
vt 5.306900 0.719850
vt 0.373780 0.719850
vt 0.373780 173.997803
vt 0.000000 173.997803
vt 0.308040 0.000000
vt 0.911890 0.000000
vt 0.911890 18.851561
vt 0.000000 18.851561
vt 0.000000 0.000000
vt 0.373780 0.000000
vt 0.373780 18.851561
vt 3.662530 18.851561
vt 3.662530 0.000000
vt 4.322840 0.000000
vt 4.322840 18.851561
vt 12.544710 18.851561
vt 12.544710 0.000000
vt 13.205020 0.000000
vt 13.205020 18.851561
vt 14.849390 18.851561
vt 14.849390 0.000000
vt 15.509700 0.000000
vt 15.509700 18.851561
vt 23.731569 18.851561
vt 23.731569 0.000000
vt 24.391880 0.000000
vt 24.391880 18.851561
vt 27.680630 18.851561
vt 27.680630 0.000000
vt 28.054411 0.000000
vt 28.054411 18.851561
vt 27.680580 18.851561
vt 27.680580 0.000000
vt 28.054359 0.000000
vt 28.054359 18.851561
vt 3.662530 18.851561
vt 3.662530 0.000000
vt 4.322820 0.000000
vt 4.322820 18.851561
vt 0.000000 18.851561
vt 0.000000 0.000000
vt 0.373780 0.000000
vt 0.373780 18.851561
vt 40.976070 0.719850
vt 46.282970 0.000000
vt 45.909191 0.719850
vt 46.282970 173.997803
vt 40.976070 173.997803
vt 40.470200 173.997803
vt 40.470200 0.719850
vt 37.181450 0.719850
vt 37.181450 173.997803
vt 36.675579 173.997803
vt 36.675579 0.719850
vt 35.031212 0.719850
vt 35.031212 173.997803
vt 34.525341 173.997803
vt 34.525341 0.719850
vt 31.236589 0.719850
vt 31.236589 173.997803
vt 30.730721 173.997803
vt 30.730721 0.719850
vt 27.441971 0.719850
vt 26.936100 0.719850
vt 25.291731 0.719850
vt 24.785860 0.719850
vt 21.497110 0.719850
vt 0.000000 0.000000
vt 19.346870 0.719850
vt 20.991240 0.719850
vt 19.346870 173.997803
vt 18.841000 173.997803
vt 18.841000 0.719850
vt 15.552250 173.997803
vt 15.046380 173.997803
vt 15.552250 0.719850
vt 15.046380 0.719850
vt 11.757630 0.719850
vt 9.607391 0.719850
vt 11.251760 0.719850
vt 5.812770 0.719850
vt 9.101520 0.719850
vt 5.812770 173.997803
vt 5.306900 173.997803
vt 5.306900 0.719850
vt 0.373780 0.719850
vt 0.000000 173.997803
vt 0.000000 18.851561
vt 0.000000 0.000000
vt 0.308040 0.000000
vt 0.911890 0.000000
vt 0.911890 18.851561
vt 20.644381 18.851561
vt 20.644381 0.000000
vt 21.556280 0.000000
vt 21.556280 18.851561
vt 18.191820 0.719850
vt 18.565599 173.997803
vt 18.191820 173.997803
vt 13.258700 0.719850
vt 18.565599 0.000000
vt 13.258700 173.997803
vt 12.504030 173.997803
vt 12.504030 0.719850
vt 11.416590 0.000000
vt 10.859650 0.719850
vt 10.859650 173.997803
vt 10.104990 173.997803
vt 10.104990 0.719850
vt 8.460611 0.719850
vt 8.460611 173.997803
vt 7.705950 173.997803
vt 7.705950 0.719850
vt 6.061570 0.719850
vt 6.061570 173.997803
vt 5.306900 173.997803
vt 5.306900 0.719850
vt 0.000000 0.000000
vt 0.373780 0.719850
vt 0.373780 173.997803
vt 0.000000 173.997803
vt 19.605671 0.719850
vt 19.979450 173.997803
vt 19.605671 173.997803
vt 14.672550 0.719850
vt 19.979450 0.000000
vt 14.672550 173.997803
vt 13.743170 173.997803
vt 13.743170 0.719850
vt 10.454420 0.719850
vt 10.454420 173.997803
vt 9.525031 173.997803
vt 9.525031 0.719850
vt 6.236290 0.719850
vt 0.000000 0.000000
vt 6.236290 173.997803
vt 5.306900 173.997803
vt 5.306900 0.719850
vt 0.373780 0.719850
vt 0.373780 173.997803
vt 0.000000 173.997803
vt 13.987290 0.719850
vt 14.361070 173.997803
vt 13.987290 173.997803
vt 9.054170 0.719850
vt 14.361070 0.000000
vt 9.054170 173.997803
vt 8.002720 173.997803
vt 8.002720 0.719850
vt 6.358350 0.719850
vt 0.000000 0.000000
vt 6.358350 173.997803
vt 5.306900 173.997803
vt 5.306900 0.719850
vt 0.373780 0.719850
vt 0.373780 173.997803
vt 0.000000 173.997803
vt 29.423670 173.997803
vt 24.490549 0.719850
vt 24.490549 173.997803
vt 23.759840 173.997803
vt 23.759840 0.719850
vt 20.471090 0.719850
vt 20.471090 173.997803
vt 19.740379 173.997803
vt 19.740379 0.719850
vt 18.096001 0.719850
vt 18.096001 173.997803
vt 17.365290 173.997803
vt 12.432170 173.997803
vt 11.701450 173.997803
vt 11.701450 0.719850
vt 10.057080 0.719850
vt 10.057080 173.997803
vt 9.326371 173.997803
vt 6.037620 173.997803
vt 5.306900 173.997803
vt 0.373780 173.997803
vt 0.000000 173.997803
vt 20.644381 18.851561
vt 20.644381 0.000000
vt 21.556271 0.000000
vt 21.556271 18.851561
vt 0.000000 18.851561
vt 0.000000 0.000000
vt 23.731529 18.851561
vt 23.731529 0.000000
vt 24.391830 0.000000
vt 24.391830 18.851561
vt 14.849370 18.851561
vt 14.849370 0.000000
vt 15.509660 0.000000
vt 15.509660 18.851561
vt 12.544700 18.851561
vt 12.544700 0.000000
vt 13.204990 0.000000
vt 13.204990 18.851561
vt 45.909191 173.997803
vt 27.441971 173.997803
vt 26.936100 173.997803
vt 25.291731 173.997803
vt 24.785860 173.997803
vt 21.497110 173.997803
vt 20.991240 173.997803
vt 11.757630 173.997803
vt 11.251760 173.997803
vt 9.607391 173.997803
vt 9.101520 173.997803
vt 0.373780 173.997803
vn -0.4765 -0.8792 0.0000
vn -0.4767 -0.8790 0.0000
vn -0.4767 -0.8791 -0.0000
vn -0.4767 -0.8791 -0.0002
vn -0.4766 -0.8791 0.0000
vn -0.8789 0.4770 0.0000
vn -0.8788 0.4772 -0.0001
vn -0.8796 0.4758 0.0000
vn -0.8790 0.4768 0.0000
vn -0.8789 0.4769 0.0000
vn -0.8788 0.4772 0.0004
vn -0.8789 0.4770 -0.0001
vn -0.8790 0.4768 0.0001
vn -0.8788 0.4771 -0.0005
vn -0.8792 0.4764 0.0004
vn -0.8788 0.4772 0.0000
vn -0.8750 0.4842 0.0000
vn -0.4817 -0.8764 0.0000
vn -0.4817 -0.8763 0.0000
vn 0.4816 0.8764 0.0000
vn 0.4817 0.8764 0.0000
vn 0.4769 0.8790 0.0000
vn 0.4767 0.8790 0.0000
vn 0.4769 0.8790 -0.0004
vn 0.4769 0.8789 0.0000
vn 0.4769 0.8790 0.0004
vn 0.4757 0.8796 0.0000
vn 0.4773 0.8787 0.0000
vn 0.4757 0.8796 0.0006
vn 0.4769 0.8789 0.0001
vn 0.4756 0.8797 0.0003
vn 0.4769 0.8790 -0.0003
vn 0.4768 0.8790 0.0000
vn 0.4769 0.8789 0.0003
vn 0.8750 -0.4842 0.0000
vn 0.8788 -0.4772 0.0000
vn 0.8788 -0.4773 -0.0001
vn 0.8788 -0.4772 0.0001
vn -0.4768 -0.8790 0.0000
vn -0.4769 -0.8789 -0.0001
vn -0.4769 -0.8790 0.0000
vn -0.4768 -0.8790 0.0003
vn -0.4771 -0.8788 0.0000
vn -0.4769 -0.8789 0.0000
vn -0.4771 -0.8788 -0.0001
vn 0.9686 -0.2486 0.0000
vn 0.9686 -0.2487 0.0000
vn 0.9686 -0.2487 -0.0001
vn -0.4770 -0.8789 -0.0002
vn -0.4767 -0.8791 -0.0001
vn -0.4770 -0.8789 -0.0000
vn -0.4766 -0.8791 -0.0002
vn -0.4764 -0.8792 0.0000
vn -0.4764 -0.8792 0.0002
vn -0.4764 -0.8792 0.0001
vn -0.4768 -0.8790 -0.0002
vn -0.4759 -0.8795 0.0002
vn -0.8788 0.4772 -0.0004
vn -0.8788 0.4771 -0.0003
vn 0.4756 0.8797 -0.0003
vn 0.4761 0.8794 0.0005
vn 0.4769 0.8790 -0.0001
vn 0.4769 0.8790 -0.0008
vn 0.4769 0.8790 0.0005
vn 0.4770 0.8789 0.0001
vn 0.9686 -0.2487 0.0001
s off
f 2/1/1 1/2/1 5/3/1
f 16/4/2 17/5/2 5/3/2
f 17/5/3 21/6/3 5/3/3
f 26/7/4 21/6/4 25/8/4
f 30/9/5 21/6/5 29/10/5
f 33/11/6 34/12/6 35/13/6
f 36/14/6 37/15/6 33/11/6
f 34/12/6 33/11/6 37/15/6
f 38/16/6 39/17/6 36/14/6
f 39/17/6 40/18/6 36/14/6
f 40/18/7 37/15/7 36/14/7
f 40/18/6 41/19/6 37/15/6
f 42/20/6 43/21/6 41/19/6
f 43/21/6 44/22/6 41/19/6
f 41/19/8 44/22/8 37/15/8
f 44/22/9 45/23/9 37/15/9
f 46/24/10 47/25/10 45/23/10
f 47/25/6 48/26/6 45/23/6
f 45/23/11 48/26/11 37/15/11
f 48/26/12 49/27/12 37/15/12
f 50/28/6 51/29/6 49/27/6
f 51/29/6 52/30/6 49/27/6
f 52/30/13 53/31/13 37/15/13
f 54/32/6 55/33/6 53/31/6
f 55/33/6 56/34/6 53/31/6
f 56/34/14 57/35/14 53/31/14
f 53/31/10 57/35/10 37/15/10
f 58/36/6 57/35/6 56/34/6
f 59/37/6 60/38/6 58/36/6
f 60/38/6 61/39/6 58/36/6
f 62/40/15 57/35/15 61/39/15
f 63/41/6 64/42/6 62/40/6
f 64/42/6 65/43/6 62/40/6
f 66/44/6 57/35/6 65/43/6
f 67/45/6 68/46/6 66/44/6
f 68/46/6 69/47/6 66/44/6
f 69/47/16 57/35/16 66/44/16
f 70/48/10 57/35/10 69/47/10
f 71/49/6 72/50/6 70/48/6
f 72/50/6 57/35/6 70/48/6
f 79/51/17 80/52/17 81/53/17
f 82/54/18 83/55/18 84/56/18
f 82/54/18 84/56/18 85/57/18
f 86/58/18 87/59/18 88/60/18
f 86/58/18 88/60/18 89/61/18
f 90/62/19 91/63/19 92/64/19
f 90/62/19 92/64/19 93/65/19
f 94/66/19 95/67/19 96/68/19
f 94/66/19 96/68/19 97/69/19
f 98/70/19 99/71/19 100/72/19
f 98/70/19 100/72/19 101/73/19
f 102/74/19 103/75/19 104/76/19
f 102/74/19 104/76/19 105/77/19
f 106/78/20 107/79/20 108/80/20
f 106/78/20 108/80/20 109/81/20
f 122/82/21 123/83/21 124/84/21
f 122/82/21 124/84/21 125/85/21
f 126/86/20 127/87/20 128/88/20
f 126/86/20 128/88/20 129/89/20
f 133/90/22 134/91/22 130/92/22
f 131/93/22 130/92/22 134/91/22
f 135/94/22 136/95/22 133/90/22
f 136/95/22 137/96/22 133/90/22
f 137/96/22 134/91/22 133/90/22
f 137/96/23 138/97/23 134/91/23
f 139/98/22 140/99/22 138/97/22
f 140/99/22 141/100/22 138/97/22
f 138/97/24 141/100/24 134/91/24
f 141/100/25 142/101/25 134/91/25
f 143/102/22 144/103/22 142/101/22
f 144/103/22 145/104/22 142/101/22
f 142/101/26 145/104/26 134/91/26
f 145/104/25 146/105/25 134/91/25
f 147/106/22 148/107/22 146/105/22
f 148/107/22 149/108/22 146/105/22
f 149/108/25 150/109/25 134/91/25
f 150/109/27 153/110/27 134/91/27
f 153/110/28 154/111/28 134/91/28
f 154/111/29 157/112/29 134/91/29
f 157/112/30 158/113/30 134/91/30
f 158/113/22 162/114/22 134/91/22
f 163/115/28 162/114/28 161/116/28
f 164/117/22 165/118/22 163/115/22
f 165/118/22 166/119/22 163/115/22
f 166/119/31 162/114/31 163/115/31
f 168/120/22 169/121/22 167/122/22
f 169/121/22 170/123/22 167/122/22
f 171/124/23 162/114/23 170/123/23
f 175/125/32 162/114/32 174/126/32
f 179/127/25 162/114/25 178/128/25
f 180/129/22 181/130/22 179/127/22
f 181/130/33 182/131/33 179/127/33
f 182/131/34 162/114/34 179/127/34
f 183/132/22 162/114/22 182/131/22
f 185/133/22 162/114/22 183/132/22
f 186/134/35 187/135/35 188/136/35
f 188/136/35 189/137/35 190/138/35
f 186/134/35 188/136/35 190/138/35
f 191/139/35 192/140/35 193/141/35
f 191/139/35 193/141/35 194/142/35
f 195/143/36 196/144/36 197/145/36
f 198/146/36 199/147/36 195/143/36
f 196/144/36 195/143/36 199/147/36
f 200/148/36 201/149/36 198/146/36
f 201/149/36 202/150/36 198/146/36
f 202/150/36 203/151/36 198/146/36
f 198/146/36 203/151/36 199/147/36
f 202/150/36 204/152/36 203/151/36
f 205/153/36 206/154/36 204/152/36
f 206/154/36 207/155/36 204/152/36
f 204/152/36 207/155/36 203/151/36
f 207/155/36 208/156/36 203/151/36
f 209/157/36 210/158/36 208/156/36
f 210/158/36 211/159/36 208/156/36
f 208/156/37 211/159/37 203/151/37
f 211/159/36 212/160/36 203/151/36
f 213/161/36 214/162/36 212/160/36
f 214/162/36 215/163/36 212/160/36
f 215/163/38 216/164/38 212/160/38
f 212/160/36 216/164/36 203/151/36
f 217/165/36 216/164/36 215/163/36
f 218/166/36 219/167/36 217/165/36
f 219/167/36 216/164/36 217/165/36
f 220/168/39 221/169/39 222/170/39
f 223/171/40 224/172/40 220/168/40
f 221/169/39 220/168/39 224/172/39
f 225/173/41 226/174/41 223/171/41
f 226/174/41 227/175/41 223/171/41
f 227/175/42 224/172/42 223/171/42
f 227/175/40 228/176/40 224/172/40
f 229/177/41 230/178/41 228/176/41
f 230/178/41 231/179/41 228/176/41
f 228/176/43 231/179/43 224/172/43
f 232/180/44 233/181/44 231/179/44
f 231/179/44 233/181/44 224/172/44
f 234/182/41 235/183/41 232/180/41
f 235/183/41 236/184/41 232/180/41
f 236/184/45 233/181/45 232/180/45
f 237/185/44 233/181/44 236/184/44
f 238/186/41 239/187/41 237/185/41
f 239/187/41 233/181/41 237/185/41
f 240/188/46 241/189/46 242/190/46
f 243/191/46 244/192/46 240/188/46
f 241/189/47 240/188/47 244/192/47
f 245/193/47 246/194/47 243/191/47
f 246/194/46 247/195/46 243/191/46
f 247/195/47 244/192/47 243/191/47
f 248/196/48 249/197/48 247/195/48
f 247/195/46 249/197/46 244/192/46
f 250/198/46 251/199/46 248/196/46
f 251/199/46 252/200/46 248/196/46
f 253/201/47 249/197/47 252/200/47
f 254/202/46 255/203/46 253/201/46
f 255/203/46 249/197/46 253/201/46
s 1
f 1/2/39 2/1/39 3/204/39
f 4/205/49 5/3/50 1/2/50
f 6/206/3 7/207/3 4/205/49
f 7/207/3 8/208/4 4/205/49
f 8/208/4 5/3/50 4/205/49
f 8/208/4 9/209/51 5/3/50
f 10/210/3 11/211/3 9/209/51
f 11/211/3 12/212/52 9/209/51
f 9/209/51 12/212/52 5/3/50
f 12/212/52 13/213/53 5/3/50
f 14/214/3 15/215/3 13/213/53
f 15/215/3 16/4/3 13/213/53
f 13/213/53 16/4/3 5/3/50
f 18/216/3 19/217/3 17/5/3
f 19/217/3 20/218/54 17/5/3
f 20/218/54 21/6/55 17/5/3
f 22/219/56 21/6/55 20/218/54
f 23/220/5 24/221/5 22/219/56
f 24/221/5 25/8/57 22/219/56
f 25/8/57 21/6/55 22/219/56
f 27/222/3 28/223/3 26/7/3
f 28/223/3 29/10/51 26/7/3
f 29/10/51 21/6/43 26/7/3
f 31/224/3 32/225/3 30/9/3
f 32/225/3 21/6/3 30/9/3
f 49/27/58 52/30/58 37/15/58
f 61/39/59 57/35/59 58/36/59
f 65/43/59 57/35/59 62/40/59
f 73/226/17 74/227/17 75/228/17
f 73/226/17 75/228/17 76/229/17
f 77/230/17 78/231/17 79/51/17
f 77/230/17 79/51/17 81/53/17
f 110/232/20 111/233/20 112/234/20
f 110/232/20 112/234/20 113/235/20
f 114/236/20 115/237/20 116/238/20
f 114/236/20 116/238/20 117/239/20
f 118/240/20 119/241/20 120/242/20
f 118/240/20 120/242/20 121/243/20
f 130/92/22 131/93/22 132/244/22
f 146/105/60 149/108/60 134/91/60
f 151/245/22 152/246/22 150/109/22
f 152/246/22 153/110/22 150/109/22
f 155/247/22 156/248/22 154/111/22
f 156/248/22 157/112/22 154/111/22
f 159/249/22 160/250/22 158/113/33
f 160/250/22 161/116/61 158/113/33
f 161/116/61 162/114/29 158/113/33
f 167/122/25 162/114/62 166/119/25
f 170/123/63 162/114/62 167/122/25
f 172/251/33 173/252/33 171/124/22
f 173/252/33 174/126/64 171/124/22
f 174/126/64 162/114/22 171/124/22
f 176/253/33 177/254/33 175/125/22
f 177/254/33 178/128/32 175/125/22
f 178/128/32 162/114/65 175/125/22
f 184/255/22 185/133/22 183/132/22
f 252/200/66 249/197/66 248/196/66
