# Blender v3.0.1 OBJ File: 'rockerfeller_plaza.blend'
# www.blender.org
o geometryt000010000010000110010110000110000110100000000100st16
v 465.624329 -119.603592 66.079071
v 465.446716 -119.934494 94.082779
v 465.624329 -119.603592 94.082779
v 469.086548 -113.148994 66.079071
v 465.446716 -119.934494 62.682777
v 469.086548 -113.148994 94.082779
v 469.264038 -112.818092 94.082779
v 469.264038 -112.818092 62.682777
v 491.628540 -133.985306 66.079071
v 491.932526 -134.148499 94.082779
v 491.628540 -133.985306 94.082779
v 487.756134 -131.907196 66.079071
v 491.932526 -134.148499 62.682777
v 487.756134 -131.907196 94.082779
v 487.462433 -131.749603 94.082779
v 487.462433 -131.749603 66.079071
v 486.171631 -131.056793 66.079071
v 486.171631 -131.056793 94.082779
v 485.877930 -130.899200 94.082779
v 485.877930 -130.899200 66.079071
v 484.587128 -130.206497 66.079071
v 484.587128 -130.206497 94.082779
v 484.293335 -130.048798 94.082779
v 484.293335 -130.048798 66.079071
v 480.421021 -127.970695 66.079071
v 480.421021 -127.970695 94.082779
v 480.127228 -127.813095 94.082779
v 480.127228 -127.813095 66.079071
v 478.836548 -127.120293 66.079071
v 478.836548 -127.120293 94.082779
v 478.542725 -126.962692 94.082779
v 478.542725 -126.962692 66.079071
v 477.251923 -126.269989 66.079071
v 465.446716 -119.934494 62.682777
v 477.251923 -126.269989 94.082779
v 476.958221 -126.112289 94.082779
v 476.958221 -126.112289 66.079071
v 473.085938 -124.034195 66.079071
v 473.085938 -124.034195 94.082779
v 472.792114 -123.876495 94.082779
v 472.792114 -123.876495 66.079071
v 471.501343 -123.183792 66.079071
v 471.501343 -123.183792 94.082779
v 471.207642 -123.026192 94.082779
v 471.207642 -123.026192 66.079071
v 469.916809 -122.333496 66.079071
v 469.916809 -122.333496 94.082779
v 469.623108 -122.175789 94.082779
v 469.623108 -122.175789 66.079071
v 465.750732 -120.097694 66.079071
v 465.750732 -120.097694 94.082779
v 465.446716 -119.934494 94.082779
v 469.965637 -113.195091 66.079071
v 469.264038 -112.818092 94.082779
v 469.965637 -113.195091 94.082779
v 473.247925 -114.958893 62.682777
v 472.546448 -114.581894 66.079071
v 469.264038 -112.818092 62.682777
v 472.546448 -114.581894 94.082779
v 473.247925 -114.958893 94.082779
v 473.483734 -114.520393 66.079071
v 473.247925 -114.958893 94.082779
v 473.483734 -114.520393 94.082779
v 474.177307 -113.230095 66.079071
v 473.247925 -114.958893 62.682777
v 474.177307 -113.230095 94.082779
v 474.413025 -112.791489 94.082779
v 474.413025 -112.791489 62.682777
v 477.203033 -105.911293 66.079071
v 477.908234 -106.289391 94.082779
v 477.203033 -105.911293 94.082779
v 474.621033 -104.526794 66.079071
v 477.908234 -106.289391 62.682777
v 474.621033 -104.526794 94.082779
v 473.915833 -104.148590 94.082779
v 473.915833 -104.148590 62.682777
v 474.102112 -103.801193 66.079071
v 473.915833 -104.148590 94.082779
v 474.102112 -103.801193 94.082779
v 477.749512 -96.998642 62.682777
v 477.563232 -97.346062 66.079071
v 473.915833 -104.148590 62.682777
v 477.563232 -97.346062 94.082779
v 477.749512 -96.998642 94.082779
v 475.097107 -113.158493 66.079071
v 474.413025 -112.791489 94.082779
v 475.097107 -113.158493 94.082779
v 477.678833 -114.543594 66.079071
v 474.413025 -112.791489 62.682777
v 477.678833 -114.543594 94.082779
v 478.362915 -114.910591 94.082779
v 478.362915 -114.910591 62.682777
v 479.967529 -110.275894 66.079071
v 480.651611 -110.642891 94.082779
v 479.967529 -110.275894 94.082779
v 476.701721 -108.523895 62.682777
v 477.385834 -108.890892 66.079071
v 480.651611 -110.642891 62.682777
v 477.385834 -108.890892 94.082779
v 476.701721 -108.523895 94.082779
v 476.956909 -108.051094 66.079071
v 476.701721 -108.523895 94.082779
v 476.956909 -108.051094 94.082779
v 477.652924 -106.762093 66.079071
v 476.701721 -108.523895 62.682777
v 477.652924 -106.762093 94.082779
v 477.908234 -106.289391 94.082779
v 477.908234 -106.289391 62.682777
v 478.053528 -97.161743 66.079071
v 477.749512 -96.998642 94.082779
v 478.053528 -97.161743 94.082779
v 481.926147 -99.239349 66.079071
v 477.749512 -96.998642 62.682777
v 481.926147 -99.239349 94.082779
v 482.220642 -99.397339 94.082779
v 482.220642 -99.397339 66.079071
v 483.511536 -100.089890 66.079071
v 483.511536 -100.089890 94.082779
v 483.806030 -100.247894 94.082779
v 483.806030 -100.247894 66.079071
v 485.096924 -100.940392 66.079071
v 485.096924 -100.940392 94.082779
v 485.391418 -101.098389 94.082779
v 485.391418 -101.098389 66.079071
v 489.264038 -103.175995 66.079071
v 489.264038 -103.175995 94.082779
v 489.558533 -103.333992 94.082779
v 489.558533 -103.333992 66.079071
v 490.849335 -104.026596 66.079071
v 490.849335 -104.026596 94.082779
v 491.143829 -104.184494 94.082779
v 491.143829 -104.184494 66.079071
v 492.434723 -104.877090 66.079071
v 504.243622 -111.212395 62.682777
v 492.434723 -104.877090 94.082779
v 492.729248 -105.035095 94.082779
v 492.729248 -105.035095 66.079071
v 496.601807 -107.112694 66.079071
v 496.601807 -107.112694 94.082779
v 496.896332 -107.270691 94.082779
v 496.896332 -107.270691 66.079071
v 498.187225 -107.963196 66.079071
v 498.187225 -107.963196 94.082779
v 498.481628 -108.121193 94.082779
v 498.481628 -108.121193 66.079071
v 499.772522 -108.813690 66.079071
v 499.772522 -108.813690 94.082779
v 500.067017 -108.971695 94.082779
v 500.067017 -108.971695 66.079071
v 503.939636 -111.049294 66.079071
v 503.939636 -111.049294 94.082779
v 504.243622 -111.212395 94.082779
v 478.814941 -114.067696 66.079071
v 478.362915 -114.910591 94.082779
v 478.814941 -114.067696 94.082779
v 480.651611 -110.642891 62.682777
v 480.199646 -111.485794 66.079071
v 478.362915 -114.910591 62.682777
v 480.199646 -111.485794 94.082779
v 480.651611 -110.642891 94.082779
v 490.657715 -117.099289 66.079071
v 491.108337 -116.261192 94.082779
v 490.657715 -117.099289 94.082779
v 489.270142 -119.679695 66.079071
v 491.108337 -116.261192 62.682777
v 489.270142 -119.679695 94.082779
v 488.819519 -120.517792 94.082779
v 488.819519 -120.517792 62.682777
v 489.515930 -120.890892 66.079071
v 488.819519 -120.517792 94.082779
v 489.515930 -120.890892 94.082779
v 492.794922 -122.647591 62.682777
v 492.098450 -122.274490 66.079071
v 488.819519 -120.517792 62.682777
v 492.098450 -122.274490 94.082779
v 492.794922 -122.647591 94.082779
v 494.387329 -118.017891 66.079071
v 495.083740 -118.391090 94.082779
v 494.387329 -118.017891 94.082779
v 491.108337 -116.261192 62.682777
v 491.804749 -116.634293 66.079071
v 495.083740 -118.391090 62.682777
v 491.804749 -116.634293 94.082779
v 491.108337 -116.261192 94.082779
v 492.398438 -125.237595 66.079071
v 491.629944 -124.826096 94.082779
v 492.398438 -125.237595 94.082779
v 495.749725 -127.031990 62.682777
v 494.981232 -126.620491 66.079071
v 491.629944 -124.826096 62.682777
v 494.981232 -126.620491 94.082779
v 495.749725 -127.031990 94.082779
v 492.557831 -123.090996 66.079071
v 492.794922 -122.647591 94.082779
v 492.557831 -123.090996 94.082779
v 491.867035 -124.382790 66.079071
v 492.794922 -122.647591 62.682777
v 491.867035 -124.382790 94.082779
v 491.629944 -124.826096 94.082779
v 491.629944 -124.826096 62.682777
v 495.572235 -127.362892 66.079071
v 495.749725 -127.031990 94.082779
v 495.572235 -127.362892 94.082779
v 492.110046 -133.817505 66.079071
v 495.749725 -127.031990 62.682777
v 492.110046 -133.817505 94.082779
v 491.932526 -134.148499 94.082779
v 491.932526 -134.148499 62.682777
v 496.044739 -116.594490 66.079071
v 496.314728 -116.089691 94.082779
v 496.044739 -116.594490 94.082779
v 495.083740 -118.391090 62.682777
v 495.353729 -117.886192 66.079071
v 496.314728 -116.089691 62.682777
v 495.353729 -117.886192 94.082779
v 495.083740 -118.391090 94.082779
v 499.666016 -117.884094 66.079071
v 500.434509 -118.295593 94.082779
v 499.666016 -117.884094 94.082779
v 496.314728 -116.089691 62.682777
v 497.083130 -116.501091 66.079071
v 500.434509 -118.295593 62.682777
v 497.083130 -116.501091 94.082779
v 496.314728 -116.089691 94.082779
v 504.073608 -111.528595 66.079071
v 504.243622 -111.212395 94.082779
v 504.073608 -111.528595 94.082779
v 500.604523 -117.979393 66.079071
v 504.243622 -111.212395 62.682777
v 500.604523 -117.979393 94.082779
v 500.434509 -118.295593 94.082779
v 500.434509 -118.295593 62.682777
vt 9.016490 3.976940
vt 9.456251 36.768150
vt 9.016490 36.768150
vt 0.439760 3.976940
vt 9.456251 0.000000
vt 0.439760 36.768150
vt 0.000000 36.768150
vt 0.000000 0.000000
vt 34.793621 3.976940
vt 35.197601 36.768150
vt 34.793621 36.768150
vt 29.647591 3.976940
vt 35.197601 0.000000
vt 29.647591 36.768150
vt 29.257210 36.768150
vt 29.257210 3.976940
vt 27.541861 3.976940
vt 27.541861 36.768150
vt 27.151480 36.768150
vt 27.151480 3.976940
vt 25.436131 3.976940
vt 25.436131 36.768150
vt 25.045750 36.768150
vt 25.045750 3.976940
vt 19.899719 3.976940
vt 19.899719 36.768150
vt 19.509340 36.768150
vt 19.509340 3.976940
vt 17.793989 3.976940
vt 17.793989 36.768150
vt 17.403610 36.768150
vt 17.403610 3.976940
vt 15.688270 3.976940
vt 0.000000 0.000000
vt 15.688270 36.768150
vt 15.297880 36.768150
vt 15.297880 3.976940
vt 10.151850 3.976940
vt 10.151850 36.768150
vt 9.761470 36.768150
vt 9.761470 3.976940
vt 8.046120 3.976940
vt 8.046120 36.768150
vt 7.655740 36.768150
vt 7.655740 3.976940
vt 0.403980 36.768150
vt 0.000000 36.768150
vt 0.403980 3.976940
vt 4.363300 3.976940
vt 5.295910 36.768150
vt 4.363300 36.768150
vt 0.000000 0.000000
vt 0.932610 3.976940
vt 5.295910 0.000000
vt 0.932610 36.768150
vt 0.000000 36.768150
vt 2.298340 3.976940
vt 2.881340 36.768150
vt 2.298340 36.768150
vt 0.583000 3.976940
vt 2.881340 0.000000
vt 0.583000 36.768150
vt 0.000000 36.768150
vt 0.000000 0.000000
vt 4.367620 3.976940
vt 5.304560 36.768150
vt 4.367620 36.768150
vt 5.304560 0.000000
vt 0.936930 36.768150
vt 0.000000 36.768150
vt 0.936930 3.976940
vt 0.000000 0.000000
vt 9.038331 3.976940
vt 9.499940 36.768150
vt 9.038331 36.768150
vt 0.000000 0.000000
vt 0.461610 3.976940
vt 9.499940 0.000000
vt 0.461610 36.768150
vt 0.000000 36.768150
vt 4.339710 3.976940
vt 5.248730 36.768150
vt 4.339710 36.768150
vt 0.909020 3.976940
vt 5.248730 0.000000
vt 0.909020 36.768150
vt 0.000000 36.768150
vt 0.000000 0.000000
vt 4.339710 3.976940
vt 5.248730 36.768150
vt 4.339710 36.768150
vt 0.000000 0.000000
vt 0.909020 3.976940
vt 5.248730 0.000000
vt 0.909020 36.768150
vt 0.000000 36.768150
vt 2.344430 3.976940
vt 2.973520 36.768150
vt 2.344430 36.768150
vt 0.629090 3.976940
vt 2.973520 0.000000
vt 0.629090 36.768150
vt 0.000000 36.768150
vt 34.802189 3.976940
vt 35.206181 36.768150
vt 34.802189 36.768150
vt 29.656160 3.976940
vt 35.206181 0.000000
vt 29.656160 36.768150
vt 29.264830 36.768150
vt 29.264830 3.976940
vt 27.549480 3.976940
vt 27.549480 36.768150
vt 27.158150 36.768150
vt 27.158150 3.976940
vt 25.442801 3.976940
vt 25.442801 36.768150
vt 25.051470 36.768150
vt 25.051470 3.976940
vt 19.905430 3.976940
vt 19.905430 36.768150
vt 19.514099 36.768150
vt 19.514099 3.976940
vt 17.798759 3.976940
vt 17.798759 36.768150
vt 17.407419 36.768150
vt 17.407419 3.976940
vt 15.692080 3.976940
vt 0.000000 0.000000
vt 15.692080 36.768150
vt 15.300740 36.768150
vt 15.300740 3.976940
vt 10.154710 3.976940
vt 10.154710 36.768150
vt 9.763370 36.768150
vt 9.763370 3.976940
vt 8.048030 3.976940
vt 8.048030 36.768150
vt 7.656690 36.768150
vt 7.656690 3.976940
vt 5.941350 3.976940
vt 5.941350 36.768150
vt 5.550010 36.768150
vt 5.550010 3.976940
vt 0.403980 3.976940
vt 0.403980 36.768150
vt 0.000000 36.768150
vt 4.550600 3.976940
vt 5.670520 36.768150
vt 4.550600 36.768150
vt 0.000000 0.000000
vt 1.119920 3.976940
vt 5.670520 0.000000
vt 1.119920 36.768150
vt 0.000000 36.768150
vt 4.544910 3.976940
vt 5.659140 36.768150
vt 4.544910 36.768150
vt 1.114230 3.976940
vt 5.659140 0.000000
vt 1.114230 36.768150
vt 0.000000 36.768150
vt 0.000000 0.000000
vt 4.355830 3.976940
vt 5.280980 36.768150
vt 4.355830 36.768150
vt 0.000000 0.000000
vt 0.925150 3.976940
vt 5.280980 0.000000
vt 0.925150 36.768150
vt 0.000000 36.768150
vt 4.355830 3.976940
vt 5.280980 36.768150
vt 4.355830 36.768150
vt 0.000000 0.000000
vt 0.925140 3.976940
vt 5.280980 0.000000
vt 0.925140 36.768150
vt 0.000000 36.768150
vt 4.451380 3.976940
vt 5.472060 36.768150
vt 4.451380 36.768150
vt 0.000000 0.000000
vt 1.020690 3.976940
vt 5.472060 0.000000
vt 1.020690 36.768150
vt 0.000000 36.768150
vt 2.304040 3.976940
vt 2.892730 36.768150
vt 2.304040 36.768150
vt 0.588690 3.976940
vt 2.892730 0.000000
vt 0.588690 36.768150
vt 0.000000 36.768150
vt 0.000000 0.000000
vt 9.016490 3.976940
vt 9.456260 36.768150
vt 9.016490 36.768150
vt 0.439770 3.976940
vt 9.456260 0.000000
vt 0.439770 36.768150
vt 0.000000 36.768150
vt 0.000000 0.000000
vt 2.385740 3.976940
vt 3.056130 36.768150
vt 2.385740 36.768150
vt 0.000000 0.000000
vt 0.670390 3.976940
vt 3.056130 0.000000
vt 0.670390 36.768150
vt 0.000000 36.768150
vt 4.451370 3.976940
vt 5.472060 36.768150
vt 4.451370 36.768150
vt 0.000000 0.000000
vt 1.020680 3.976940
vt 5.472060 0.000000
vt 1.020680 36.768150
vt 0.000000 36.768150
vt 8.997031 3.976940
vt 9.417330 36.768150
vt 8.997031 36.768150
vt 0.420310 3.976940
vt 9.417330 0.000000
vt 0.420310 36.768150
vt 0.000000 36.768150
vt 0.000000 0.000000
vt 5.940400 3.976940
vt 5.940400 36.768150
vt 5.550010 36.768150
vt 5.550010 3.976940
vt 0.000000 0.000000
vn -0.8812 0.4727 -0.0000
vn -0.8811 0.4730 0.0000
vn -0.8813 0.4726 0.0000
vn -0.4730 -0.8810 0.0000
vn -0.4729 -0.8811 0.0000
vn -0.4730 -0.8811 0.0000
vn -0.4728 -0.8812 0.0000
vn -0.4729 -0.8811 0.0002
vn -0.4729 -0.8811 -0.0001
vn -0.4731 -0.8810 -0.0002
vn -0.4725 -0.8813 0.0000
vn -0.4731 -0.8810 0.0000
vn -0.4732 -0.8810 0.0000
vn -0.4730 -0.8811 -0.0004
vn -0.4729 -0.8811 0.0004
vn -0.4726 -0.8813 -0.0000
vn -0.4730 -0.8811 0.0001
vn -0.4728 -0.8811 0.0000
vn 0.4734 0.8809 0.0000
vn 0.4733 0.8809 -0.0000
vn 0.4734 0.8808 0.0000
vn -0.8808 0.4735 0.0000
vn -0.8808 0.4734 0.0000
vn -0.8807 0.4737 0.0000
vn -0.8809 0.4733 0.0000
vn -0.8813 0.4725 0.0000
vn 0.4728 0.8812 0.0000
vn 0.4727 0.8812 0.0000
vn -0.4727 -0.8812 0.0000
vn -0.8800 0.4749 0.0000
vn -0.8799 0.4751 -0.0000
vn -0.8801 0.4748 -0.0000
vn 0.4729 0.8811 -0.0001
vn 0.4727 0.8812 0.0001
vn 0.4728 0.8812 -0.0002
vn 0.4726 0.8813 0.0000
vn 0.4725 0.8813 0.0000
vn 0.4728 0.8812 0.0001
vn 0.4727 0.8812 0.0002
vn 0.4727 0.8812 -0.0001
vn 0.4730 0.8811 0.0000
vn 0.4729 0.8811 0.0002
vn 0.8808 -0.4736 0.0000
vn 0.8807 -0.4736 -0.0000
vn 0.4722 0.8815 0.0000
vn 0.4723 0.8815 0.0000
vn -0.4723 -0.8814 0.0000
vn -0.4722 -0.8815 0.0000
vn -0.4723 -0.8815 0.0000
vn -0.4724 -0.8814 0.0000
vn 0.4720 0.8816 0.0000
vn 0.4721 0.8816 0.0000
vn 0.8818 -0.4716 0.0000
vn 0.8818 -0.4715 0.0000
vn 0.8818 -0.4717 0.0000
vn 0.8812 -0.4727 0.0000
vn 0.8813 -0.4726 0.0000
vn 0.8812 -0.4728 0.0000
vn -0.4720 -0.8816 0.0000
vn 0.8806 -0.4739 -0.0000
vn 0.8806 -0.4738 0.0000
vn -0.4728 -0.8812 -0.0001
vn -0.8798 0.4753 -0.0000
vn -0.8799 0.4752 0.0000
vn 0.4728 0.8812 -0.0001
s off
f 1/1/1 2/2/1 3/3/1
f 4/4/1 5/5/1 1/1/1
f 2/2/2 1/1/2 5/5/2
f 6/6/3 7/7/3 4/4/3
f 7/7/1 8/8/1 4/4/1
f 8/8/1 5/5/1 4/4/1
f 9/9/4 10/10/4 11/11/4
f 12/12/5 13/13/5 9/9/5
f 10/10/6 9/9/6 13/13/6
f 14/14/7 15/15/7 12/12/7
f 15/15/7 16/16/7 12/12/7
f 16/16/8 13/13/8 12/12/8
f 16/16/9 17/17/9 13/13/9
f 18/18/7 19/19/7 17/17/7
f 19/19/7 20/20/7 17/17/7
f 17/17/10 20/20/10 13/13/10
f 20/20/5 21/21/5 13/13/5
f 22/22/6 23/23/6 21/21/6
f 23/23/11 24/24/11 21/21/11
f 21/21/5 24/24/5 13/13/5
f 24/24/5 25/25/5 13/13/5
f 26/26/12 27/27/12 25/25/12
f 27/27/13 28/28/13 25/25/13
f 28/28/14 29/29/14 13/13/14
f 30/30/12 31/31/12 29/29/12
f 31/31/12 32/32/12 29/29/12
f 33/33/15 34/34/15 32/32/15
f 32/32/5 34/34/5 13/13/5
f 35/35/16 36/36/16 33/33/16
f 36/36/12 37/37/12 33/33/12
f 38/38/5 34/34/5 37/37/5
f 39/39/11 40/40/11 38/38/11
f 40/40/6 41/41/6 38/38/6
f 41/41/17 34/34/17 38/38/17
f 42/42/18 34/34/18 41/41/18
f 43/43/7 44/44/7 42/42/7
f 44/44/7 45/45/7 42/42/7
f 45/45/9 34/34/9 42/42/9
f 51/46/6 52/47/6 50/48/6
f 53/49/19 54/50/19 55/51/19
f 56/52/20 53/49/20 57/53/20
f 56/52/20 58/54/20 53/49/20
f 54/50/20 53/49/20 58/54/20
f 59/55/19 60/56/19 57/53/19
f 60/56/21 56/52/21 57/53/21
f 61/57/22 62/58/22 63/59/22
f 64/60/23 65/61/23 61/57/23
f 62/58/24 61/57/24 65/61/24
f 66/62/23 67/63/23 64/60/23
f 67/63/25 68/64/25 64/60/25
f 68/64/22 65/61/22 64/60/22
f 69/65/11 70/66/11 71/67/11
f 70/66/11 69/65/11 73/68/11
f 74/69/16 75/70/16 72/71/16
f 75/70/16 76/72/16 72/71/16
f 76/72/16 73/68/16 72/71/16
f 77/73/3 78/74/3 79/75/3
f 80/76/26 77/73/26 81/77/26
f 80/76/26 82/78/26 77/73/26
f 78/74/26 77/73/26 82/78/26
f 83/79/3 84/80/3 81/77/3
f 84/80/26 80/76/26 81/77/26
f 85/81/27 86/82/27 87/83/27
f 88/84/27 89/85/27 85/81/27
f 86/82/28 85/81/28 89/85/28
f 90/86/27 91/87/27 88/84/27
f 91/87/28 92/88/28 88/84/28
f 92/88/27 89/85/27 88/84/27
f 93/89/29 94/90/29 95/91/29
f 96/92/29 93/89/29 97/93/29
f 96/92/29 98/94/29 93/89/29
f 94/90/7 93/89/7 98/94/7
f 99/95/29 100/96/29 97/93/29
f 100/96/29 96/92/29 97/93/29
f 101/97/30 102/98/30 103/99/30
f 104/100/31 105/101/31 101/97/31
f 106/102/32 107/103/32 104/100/32
f 109/104/28 110/105/28 111/106/28
f 112/107/28 113/108/28 109/104/28
f 110/105/28 109/104/28 113/108/28
f 114/109/28 115/110/28 112/107/28
f 115/110/27 116/111/27 112/107/27
f 116/111/28 113/108/28 112/107/28
f 116/111/27 117/112/27 113/108/27
f 118/113/27 119/114/27 117/112/27
f 119/114/27 120/115/27 117/112/27
f 117/112/33 120/115/33 113/108/33
f 120/115/34 121/116/34 113/108/34
f 122/117/27 123/118/27 121/116/27
f 123/118/28 124/119/28 121/116/28
f 121/116/27 124/119/27 113/108/27
f 124/119/28 125/120/28 113/108/28
f 126/121/28 127/122/28 125/120/28
f 127/122/27 128/123/27 125/120/27
f 125/120/35 128/123/35 113/108/35
f 128/123/35 129/124/35 113/108/35
f 130/125/36 131/126/36 129/124/36
f 131/126/37 132/127/37 129/124/37
f 133/128/38 134/129/38 132/127/38
f 132/127/28 134/129/28 113/108/28
f 135/130/28 136/131/28 133/128/28
f 136/131/28 137/132/28 133/128/28
f 137/132/39 134/129/39 133/128/39
f 138/133/27 134/129/27 137/132/27
f 139/134/28 140/135/28 138/133/28
f 140/135/27 141/136/27 138/133/27
f 141/136/27 134/129/27 138/133/27
f 142/137/40 134/129/40 141/136/40
f 143/138/41 144/139/41 142/137/41
f 144/139/27 145/140/27 142/137/27
f 145/140/42 134/129/42 142/137/42
f 146/141/28 134/129/28 145/140/28
f 147/142/28 148/143/28 146/141/28
f 148/143/27 149/144/27 146/141/27
f 149/144/38 134/129/38 146/141/38
f 150/145/27 134/129/27 149/144/27
f 151/146/27 152/147/27 150/145/27
f 152/147/28 134/129/28 150/145/28
f 153/148/3 154/149/3 155/150/3
f 156/151/3 153/148/3 157/152/3
f 156/151/3 158/153/3 153/148/3
f 159/154/26 160/155/26 157/152/26
f 160/155/26 156/151/26 157/152/26
f 161/156/43 162/157/43 163/158/43
f 164/159/44 165/160/44 161/156/44
f 162/157/43 161/156/43 165/160/43
f 166/161/43 167/162/43 164/159/43
f 167/162/43 168/163/43 164/159/43
f 168/163/44 165/160/44 164/159/44
f 169/164/45 170/165/45 171/166/45
f 172/167/46 169/164/46 173/168/46
f 172/167/45 174/169/45 169/164/45
f 170/165/46 169/164/46 174/169/46
f 175/170/45 176/171/45 173/168/45
f 177/172/47 178/173/47 179/174/47
f 180/175/48 177/172/48 181/176/48
f 180/175/49 182/177/49 177/172/49
f 178/173/50 177/172/50 182/177/50
f 183/178/48 184/179/48 181/176/48
f 184/179/49 180/175/49 181/176/49
f 185/180/51 186/181/51 187/182/51
f 188/183/51 185/180/51 189/184/51
f 188/183/51 190/185/51 185/180/51
f 186/181/51 185/180/51 190/185/51
f 191/186/51 192/187/51 189/184/51
f 192/187/52 188/183/52 189/184/52
f 193/188/53 194/189/53 195/190/53
f 196/191/53 197/192/53 193/188/53
f 194/189/54 193/188/54 197/192/54
f 198/193/55 199/194/55 196/191/55
f 199/194/53 200/195/53 196/191/53
f 200/195/53 197/192/53 196/191/53
f 201/196/56 202/197/56 203/198/56
f 204/199/56 205/200/56 201/196/56
f 202/197/57 201/196/57 205/200/57
f 206/201/57 207/202/57 204/199/57
f 207/202/58 208/203/58 204/199/58
f 208/203/56 205/200/56 204/199/56
f 209/204/55 210/205/55 211/206/55
f 212/207/55 209/204/55 213/208/55
f 212/207/55 214/209/55 209/204/55
f 210/205/53 209/204/53 214/209/53
f 215/210/54 216/211/54 213/208/54
f 217/212/59 218/213/59 219/214/59
f 220/215/59 217/212/59 221/216/59
f 220/215/59 222/217/59 217/212/59
f 218/213/59 217/212/59 222/217/59
f 223/218/59 224/219/59 221/216/59
f 224/219/59 220/215/59 221/216/59
f 225/220/60 226/221/60 227/222/60
f 228/223/44 229/224/44 225/220/44
f 230/225/44 231/226/44 228/223/44
f 231/226/61 232/227/61 228/223/61
f 232/227/44 229/224/44 228/223/44
s 1
f 25/25/17 28/28/17 13/13/17
f 29/29/8 32/32/8 13/13/8
f 37/37/62 34/34/62 33/33/62
f 46/228/6 34/34/5 45/45/9
f 47/229/29 48/230/29 46/228/6
f 48/230/29 49/231/62 46/228/6
f 49/231/62 34/34/5 46/228/6
f 50/48/5 34/34/5 49/231/62
f 52/47/6 34/34/5 50/48/5
f 72/71/16 73/68/16 69/65/16
f 102/98/63 101/97/63 105/101/63
f 107/103/64 108/232/31 104/100/64
f 108/232/31 105/101/31 104/100/64
f 129/124/65 132/127/65 113/108/65
f 154/149/3 153/148/3 158/153/3
f 176/171/45 172/167/45 173/168/45
f 216/211/53 212/207/53 213/208/53
f 226/221/44 225/220/44 229/224/44
