# Blender v3.0.1 OBJ File: 'rockerfeller_plaza.blend'
# www.blender.org
o geometryt000010000010000110010110000110000110100000100110st166
v 716.054565 -242.121506 682.409363
v 716.054565 -242.121506 658.068542
v 721.602051 -245.108414 658.068542
v 721.602051 -245.108414 682.409363
v 724.919250 -224.542007 658.068542
v 715.949463 -241.179504 658.068542
v 715.949463 -241.179504 682.409363
v 724.919250 -224.542007 682.409363
v 722.447815 -244.678314 682.409363
v 722.447815 -244.678314 658.068542
v 731.417603 -228.040802 658.068542
v 731.417603 -228.040802 682.409363
v 731.311829 -227.098404 658.068542
v 725.764343 -224.111603 658.068542
v 725.764343 -224.111603 682.409363
v 731.311829 -227.098404 682.409363
vt 0.000000 1.666670
vt 0.000000 0.000000
vt 1.250000 0.000000
vt 1.250000 1.666670
vt 0.000000 0.000000
vt 3.750000 0.000000
vt 3.750000 1.666670
vt 0.000000 1.666670
vt 0.000000 1.666670
vt 0.000000 0.000000
vt 3.750000 0.000000
vt 3.750000 1.666670
vt 0.000000 0.000000
vt 1.250000 0.000000
vt 1.250000 1.666670
vt 0.000000 1.666670
vn -0.4741 -0.8805 0.0000
vn -0.8802 0.4746 0.0000
vn 0.8802 -0.4746 0.0000
vn 0.4741 0.8805 0.0000
s off
f 1/1/1 2/2/1 3/3/1
f 1/1/1 3/3/1 4/4/1
f 5/5/2 6/6/2 7/7/2
f 8/8/2 5/5/2 7/7/2
f 9/9/3 10/10/3 11/11/3
f 9/9/3 11/11/3 12/12/3
f 13/13/4 14/14/4 15/15/4
f 16/16/4 13/13/4 15/15/4
