# Blender v3.0.1 OBJ File: 'rockerfeller_plaza.blend'
# www.blender.org
o geometryt000010000010000110010110000110000110100000100100st87_J
v 272.029236 -223.351028 610.078491
v 272.785645 -223.786423 610.078491
v 272.785645 -223.786423 787.078491
v 272.029236 -223.351028 787.078491
v 272.492798 -222.557419 610.078491
v 272.029236 -223.351028 610.078491
v 272.029236 -223.351028 787.078491
v 272.492798 -222.557419 787.078491
v 272.866638 -222.764023 610.078491
v 272.492798 -222.557419 610.078491
v 272.492798 -222.557419 787.078491
v 272.866638 -222.764023 787.078491
v 272.785645 -223.786423 610.078491
v 273.025787 -223.383926 787.078491
v 272.785645 -223.786423 787.078491
v 273.025787 -223.383926 610.078491
v 276.329041 -215.574020 610.078491
v 276.728455 -215.802521 610.078491
v 276.728455 -215.802521 787.078491
v 276.329041 -215.574020 787.078491
v 276.792603 -214.780426 610.078491
v 276.329041 -215.574020 610.078491
v 276.329041 -215.574020 787.078491
v 276.792603 -214.780426 787.078491
v 277.183441 -214.997925 610.078491
v 276.792603 -214.780426 610.078491
v 276.792603 -214.780426 787.078491
v 277.183441 -214.997925 787.078491
v 279.786499 -227.624329 610.078491
v 280.551483 -228.070618 787.078491
v 279.786499 -227.624329 787.078491
v 280.551483 -228.070618 610.078491
v 280.018341 -227.233017 610.078491
v 279.786499 -227.624329 610.078491
v 279.786499 -227.624329 787.078491
v 280.018341 -227.233017 787.078491
v 280.551483 -228.070618 610.078491
v 280.791504 -227.657028 787.078491
v 280.551483 -228.070618 787.078491
v 280.791504 -227.657028 610.078491
v 280.654144 -207.796722 610.078491
v 281.053558 -208.025330 787.078491
v 280.654144 -207.796722 787.078491
v 281.053558 -208.025330 610.078491
v 281.126129 -207.003021 610.078491
v 280.654144 -207.796722 610.078491
v 280.654144 -207.796722 787.078491
v 281.126129 -207.003021 787.078491
v 281.500122 -207.220718 610.078491
v 281.126129 -207.003021 610.078491
v 281.126129 -207.003021 787.078491
v 281.500122 -207.220718 787.078491
v 284.970642 -200.008423 610.078491
v 285.370209 -200.248123 787.078491
v 284.970642 -200.008423 787.078491
v 285.370209 -200.248123 610.078491
v 285.434204 -199.214828 610.078491
v 284.970642 -200.008423 610.078491
v 284.970642 -200.008423 787.078491
v 285.434204 -199.214828 787.078491
v 285.816772 -199.443527 610.078491
v 285.434204 -199.214828 610.078491
v 285.434204 -199.214828 787.078491
v 285.816772 -199.443527 787.078491
v 287.552216 -231.897430 610.078491
v 288.317078 -232.332718 787.078491
v 287.552216 -231.897430 787.078491
v 288.317078 -232.332718 610.078491
v 287.775635 -231.506317 610.078491
v 287.552216 -231.897430 610.078491
v 287.552216 -231.897430 787.078491
v 287.775635 -231.506317 787.078491
v 288.317078 -232.332718 610.078491
v 288.548767 -231.930328 610.078491
v 288.548767 -231.930328 787.078491
v 288.317078 -232.332718 787.078491
v 289.279114 -192.253525 610.078491
v 289.678558 -192.482117 610.078491
v 289.678558 -192.482117 787.078491
v 289.279114 -192.253525 787.078491
v 289.742676 -191.459930 610.078491
v 289.279114 -192.253525 610.078491
v 289.279114 -192.253525 787.078491
v 289.742676 -191.459930 787.078491
v 290.125122 -191.677521 610.078491
v 289.742676 -191.459930 610.078491
v 289.742676 -191.459930 787.078491
v 290.125122 -191.677521 787.078491
v 293.604218 -184.476227 610.078491
v 293.995209 -184.704819 610.078491
v 293.995209 -184.704819 787.078491
v 293.604218 -184.476227 787.078491
v 294.067780 -183.682617 610.078491
v 293.604218 -184.476227 610.078491
v 293.604218 -184.476227 787.078491
v 294.067780 -183.682617 787.078491
v 294.450195 -183.900223 610.078491
v 294.067780 -183.682617 610.078491
v 294.067780 -183.682617 787.078491
v 294.450195 -183.900223 787.078491
v 295.309631 -236.181824 610.078491
v 296.074463 -236.617020 610.078491
v 296.074463 -236.617020 787.078491
v 295.309631 -236.181824 787.078491
v 295.541351 -235.779419 610.078491
v 295.309631 -236.181824 610.078491
v 295.309631 -236.181824 787.078491
v 295.541351 -235.779419 787.078491
v 296.074463 -236.617020 610.078491
v 296.314514 -236.203430 787.078491
v 296.074463 -236.617020 787.078491
v 296.314514 -236.203430 610.078491
v 297.920837 -176.699020 610.078491
v 298.311829 -176.927628 787.078491
v 297.920837 -176.699020 787.078491
v 298.311829 -176.927628 610.078491
v 298.384399 -175.905426 610.078491
v 297.920837 -176.699020 610.078491
v 297.920837 -176.699020 787.078491
v 298.384399 -175.905426 787.078491
v 299.149353 -176.351730 610.078491
v 298.384399 -175.905426 610.078491
v 298.384399 -175.905426 787.078491
v 299.149353 -176.351730 787.078491
v 298.917511 -176.743027 610.078491
v 299.149353 -176.351730 610.078491
v 299.149353 -176.351730 787.078491
v 298.917511 -176.743027 787.078491
v 303.307220 -240.063629 610.078491
v 303.075378 -240.454926 610.078491
v 303.075378 -240.454926 787.078491
v 303.307220 -240.063629 787.078491
v 303.075378 -240.454926 610.078491
v 303.840332 -240.901230 610.078491
v 303.840332 -240.901230 787.078491
v 303.075378 -240.454926 787.078491
v 303.840332 -240.901230 610.078491
v 304.080383 -240.487717 787.078491
v 303.840332 -240.901230 787.078491
v 304.080383 -240.487717 610.078491
v 306.150055 -180.178528 610.078491
v 305.910034 -180.592117 610.078491
v 305.910034 -180.592117 787.078491
v 306.150055 -180.178528 787.078491
v 306.906586 -180.624924 610.078491
v 306.150055 -180.178528 610.078491
v 306.150055 -180.178528 787.078491
v 306.906586 -180.624924 787.078491
v 306.683197 -181.016129 610.078491
v 306.906586 -180.624924 787.078491
v 306.683197 -181.016129 787.078491
v 306.906586 -180.624924 610.078491
v 310.841125 -244.728027 610.078491
v 311.597656 -245.174530 787.078491
v 310.841125 -244.728027 787.078491
v 311.597656 -245.174530 610.078491
v 311.072968 -244.336823 610.078491
v 310.841125 -244.728027 610.078491
v 310.841125 -244.728027 787.078491
v 311.072968 -244.336823 787.078491
v 311.597656 -245.174530 610.078491
v 312.069641 -244.380722 610.078491
v 312.069641 -244.380722 787.078491
v 311.597656 -245.174530 787.078491
v 312.069641 -244.380722 610.078491
v 311.687103 -244.152023 610.078491
v 311.687103 -244.152023 787.078491
v 312.069641 -244.380722 787.078491
v 313.907440 -184.462830 610.078491
v 313.675720 -184.865219 610.078491
v 313.675720 -184.865219 787.078491
v 313.907440 -184.462830 787.078491
v 314.672424 -184.909225 610.078491
v 313.907440 -184.462830 610.078491
v 313.907440 -184.462830 787.078491
v 314.672424 -184.909225 787.078491
v 314.448883 -185.289230 610.078491
v 314.672424 -184.909225 610.078491
v 314.672424 -184.909225 787.078491
v 314.448883 -185.289230 787.078491
v 315.557190 -237.179321 610.078491
v 315.922729 -237.397125 787.078491
v 315.557190 -237.179321 787.078491
v 315.922729 -237.397125 610.078491
v 315.922729 -237.397125 610.078491
v 316.394745 -236.603424 610.078491
v 316.394745 -236.603424 787.078491
v 315.922729 -237.397125 787.078491
v 316.394745 -236.603424 610.078491
v 316.003754 -236.374817 610.078491
v 316.003754 -236.374817 787.078491
v 316.394745 -236.603424 787.078491
v 319.865540 -229.413330 610.078491
v 320.239502 -229.631027 787.078491
v 319.865540 -229.413330 787.078491
v 320.239502 -229.631027 610.078491
v 320.239502 -229.631027 610.078491
v 320.702942 -228.826324 787.078491
v 320.239502 -229.631027 787.078491
v 320.702942 -228.826324 610.078491
v 320.702942 -228.826324 610.078491
v 320.320526 -228.608719 610.078491
v 320.320526 -228.608719 787.078491
v 320.702942 -228.826324 787.078491
v 321.664703 -188.736130 610.078491
v 321.432983 -189.138428 610.078491
v 321.432983 -189.138428 787.078491
v 321.664703 -188.736130 787.078491
v 322.429535 -189.171326 610.078491
v 321.664703 -188.736130 610.078491
v 321.664703 -188.736130 787.078491
v 322.429535 -189.171326 787.078491
v 322.206146 -189.562424 610.078491
v 322.429535 -189.171326 787.078491
v 322.206146 -189.562424 787.078491
v 322.429535 -189.171326 610.078491
v 324.173950 -221.658417 610.078491
v 324.530945 -221.865219 787.078491
v 324.173950 -221.658417 787.078491
v 324.530945 -221.865219 610.078491
v 324.530945 -221.865219 610.078491
v 324.994507 -221.071625 787.078491
v 324.530945 -221.865219 787.078491
v 324.994507 -221.071625 610.078491
v 324.994507 -221.071625 610.078491
v 324.620514 -220.853928 610.078491
v 324.620514 -220.853928 787.078491
v 324.994507 -221.071625 787.078491
v 328.499023 -213.881119 610.078491
v 328.855988 -214.087921 610.078491
v 328.855988 -214.087921 787.078491
v 328.499023 -213.881119 787.078491
v 328.855988 -214.087921 610.078491
v 329.319550 -213.294220 787.078491
v 328.855988 -214.087921 787.078491
v 329.319550 -213.294220 610.078491
v 329.319550 -213.294220 610.078491
v 328.945435 -213.065430 610.078491
v 328.945435 -213.065430 787.078491
v 329.319550 -213.294220 787.078491
v 329.447418 -193.020126 610.078491
v 329.207245 -193.422531 610.078491
v 329.207245 -193.422531 787.078491
v 329.447418 -193.020126 787.078491
v 330.203949 -193.466522 610.078491
v 329.447418 -193.020126 610.078491
v 329.447418 -193.020126 787.078491
v 330.203949 -193.466522 787.078491
v 329.980408 -193.846619 610.078491
v 330.203949 -193.466522 610.078491
v 330.203949 -193.466522 787.078491
v 329.980408 -193.846619 787.078491
v 332.815521 -206.092728 610.078491
v 333.181061 -206.310516 610.078491
v 333.181061 -206.310516 787.078491
v 332.815521 -206.092728 787.078491
v 333.181061 -206.310516 610.078491
v 333.653046 -205.516830 787.078491
v 333.181061 -206.310516 787.078491
v 333.653046 -205.516830 610.078491
v 333.653046 -205.516830 610.078491
v 333.262054 -205.288223 610.078491
v 333.262054 -205.288223 787.078491
v 333.653046 -205.516830 787.078491
v 337.196228 -197.293427 610.078491
v 336.964539 -197.695724 610.078491
v 336.964539 -197.695724 787.078491
v 337.196228 -197.293427 787.078491
v 337.132263 -198.326630 610.078491
v 337.497650 -198.533325 787.078491
v 337.132263 -198.326630 787.078491
v 337.497650 -198.533325 610.078491
v 337.961212 -197.739731 610.078491
v 337.196228 -197.293427 610.078491
v 337.196228 -197.293427 787.078491
v 337.961212 -197.739731 787.078491
v 337.497650 -198.533325 610.078491
v 337.961212 -197.739731 787.078491
v 337.497650 -198.533325 787.078491
v 337.961212 -197.739731 610.078491
vt 0.000000 0.000000
vt 0.969690 0.000000
vt 0.969690 196.666702
vt 0.000000 196.666702
vt 0.000000 0.000000
vt 1.021220 0.000000
vt 1.021220 196.666702
vt 0.000000 196.666702
vt 0.000000 0.000000
vt 0.474600 0.000000
vt 0.474600 196.666702
vt 0.000000 196.666702
vt 0.000000 0.000000
vt 0.520750 196.666702
vt 0.000000 196.666702
vt 0.520750 0.000000
vt 0.000000 0.000000
vt 0.511310 0.000000
vt 0.511310 196.666702
vt 0.000000 196.666702
vt 0.000000 0.000000
vt 1.021220 0.000000
vt 1.021220 196.666702
vt 0.000000 196.666702
vt 0.000000 0.000000
vt 0.497010 0.000000
vt 0.497010 196.666702
vt 0.000000 196.666702
vt 0.000000 0.000000
vt 0.984060 196.666702
vt 0.000000 196.666702
vt 0.984060 0.000000
vt 0.000000 0.000000
vt 0.505330 0.000000
vt 0.505330 196.666702
vt 0.000000 196.666702
vt 0.000000 0.000000
vt 0.531300 196.666702
vt 0.000000 196.666702
vt 0.531300 0.000000
vt 0.000000 0.000000
vt 0.511310 196.666702
vt 0.000000 196.666702
vt 0.511310 0.000000
vt 0.000000 0.000000
vt 1.026080 0.000000
vt 1.026080 196.666702
vt 0.000000 196.666702
vt 0.000000 0.000000
vt 0.480810 0.000000
vt 0.480810 196.666702
vt 0.000000 196.666702
vt 0.000000 0.000000
vt 0.517670 196.666702
vt 0.000000 196.666702
vt 0.517670 0.000000
vt 0.000000 0.000000
vt 1.021220 0.000000
vt 1.021220 196.666702
vt 0.000000 196.666702
vt 0.000000 0.000000
vt 0.495230 0.000000
vt 0.495230 196.666702
vt 0.000000 196.666702
vt 0.000000 0.000000
vt 0.977780 196.666702
vt 0.000000 196.666702
vt 0.977780 0.000000
vt 0.000000 0.000000
vt 0.500520 0.000000
vt 0.500520 196.666702
vt 0.000000 196.666702
vt 0.000000 0.000000
vt 0.511310 0.000000
vt 0.511310 196.666702
vt 0.000000 196.666702
vt 0.000000 0.000000
vt 1.021220 0.000000
vt 1.021220 196.666702
vt 0.000000 196.666702
vt 0.000000 0.000000
vt 0.488890 0.000000
vt 0.488890 196.666702
vt 0.000000 196.666702
vt 0.000000 0.000000
vt 0.503250 0.000000
vt 0.503250 196.666702
vt 0.000000 196.666702
vt 0.000000 0.000000
vt 1.021220 0.000000
vt 1.021220 196.666702
vt 0.000000 196.666702
vt 0.000000 0.000000
vt 0.488890 0.000000
vt 0.488890 196.666702
vt 0.000000 196.666702
vt 0.000000 0.000000
vt 0.515910 0.000000
vt 0.515910 196.666702
vt 0.000000 196.666702
vt 0.000000 0.000000
vt 0.531300 196.666702
vt 0.000000 196.666702
vt 0.531300 0.000000
vt 0.000000 0.000000
vt 0.503250 196.666702
vt 0.000000 196.666702
vt 0.503250 0.000000
vt 0.000000 0.000000
vt 1.021220 0.000000
vt 1.021220 196.666702
vt 0.000000 196.666702
vt 0.000000 0.000000
vt 0.984060 0.000000
vt 0.984060 196.666702
vt 0.000000 196.666702
vt 0.000000 0.000000
vt 0.505330 0.000000
vt 0.505330 196.666702
vt 0.000000 196.666702
vt 0.000000 0.000000
vt 0.984060 0.000000
vt 0.984060 196.666702
vt 0.000000 196.666702
vt 0.000000 0.000000
vt 0.531300 196.666702
vt 0.000000 196.666702
vt 0.531300 0.000000
vt 0.000000 0.000000
vt 0.531300 0.000000
vt 0.531300 196.666702
vt 0.000000 196.666702
vt 0.000000 0.000000
vt 0.976020 0.000000
vt 0.976020 196.666702
vt 0.000000 196.666702
vt 0.000000 0.000000
vt 0.500520 196.666702
vt 0.000000 196.666702
vt 0.500520 0.000000
vt 0.000000 0.000000
vt 0.976030 196.666702
vt 0.000000 196.666702
vt 0.976030 0.000000
vt 0.000000 0.000000
vt 0.505330 0.000000
vt 0.505330 196.666702
vt 0.000000 196.666702
vt 0.000000 0.000000
vt 1.026080 0.000000
vt 1.026080 196.666702
vt 0.000000 196.666702
vt 0.000000 0.000000
vt 0.495230 0.000000
vt 0.495230 196.666702
vt 0.000000 196.666702
vt 0.000000 0.000000
vt 0.984060 0.000000
vt 0.984060 196.666702
vt 0.000000 196.666702
vt 0.000000 0.000000
vt 0.489920 0.000000
vt 0.489920 196.666702
vt 0.000000 196.666702
vt 0.000000 0.000000
vt 0.472790 196.666702
vt 0.000000 196.666702
vt 0.472790 0.000000
vt 0.000000 0.000000
vt 1.026080 0.000000
vt 1.026080 196.666702
vt 0.000000 196.666702
vt 0.000000 0.000000
vt 0.503250 0.000000
vt 0.503250 196.666702
vt 0.000000 196.666702
vt 0.000000 0.000000
vt 0.480820 196.666702
vt 0.000000 196.666702
vt 0.480820 0.000000
vt 0.000000 0.000000
vt 1.031820 196.666702
vt 0.000000 196.666702
vt 1.031820 0.000000
vt 0.000000 0.000000
vt 0.488890 0.000000
vt 0.488890 196.666702
vt 0.000000 196.666702
vt 0.000000 0.000000
vt 0.515910 0.000000
vt 0.515910 196.666702
vt 0.000000 196.666702
vt 0.000000 0.000000
vt 0.977780 0.000000
vt 0.977780 196.666702
vt 0.000000 196.666702
vt 0.000000 0.000000
vt 0.500520 196.666702
vt 0.000000 196.666702
vt 0.500520 0.000000
vt 0.000000 0.000000
vt 0.458390 196.666702
vt 0.000000 196.666702
vt 0.458390 0.000000
vt 0.000000 0.000000
vt 1.021220 196.666702
vt 0.000000 196.666702
vt 1.021220 0.000000
vt 0.000000 0.000000
vt 0.480820 0.000000
vt 0.480820 196.666702
vt 0.000000 196.666702
vt 0.000000 0.000000
vt 0.458390 0.000000
vt 0.458390 196.666702
vt 0.000000 196.666702
vt 0.000000 0.000000
vt 1.021220 196.666702
vt 0.000000 196.666702
vt 1.021220 0.000000
vt 0.000000 0.000000
vt 0.487260 0.000000
vt 0.487260 196.666702
vt 0.000000 196.666702
vt 0.000000 0.000000
vt 0.520750 0.000000
vt 0.520750 196.666702
vt 0.000000 196.666702
vt 0.000000 0.000000
vt 0.976030 0.000000
vt 0.976030 196.666702
vt 0.000000 196.666702
vt 0.000000 0.000000
vt 0.489920 0.000000
vt 0.489920 196.666702
vt 0.000000 196.666702
vt 0.000000 0.000000
vt 0.472790 0.000000
vt 0.472790 196.666702
vt 0.000000 196.666702
vt 0.000000 0.000000
vt 1.026080 196.666702
vt 0.000000 196.666702
vt 1.026080 0.000000
vt 0.000000 0.000000
vt 0.503250 0.000000
vt 0.503250 196.666702
vt 0.000000 196.666702
vt 0.000000 0.000000
vt 0.515910 0.000000
vt 0.515910 196.666702
vt 0.000000 196.666702
vt 0.000000 0.000000
vt 0.466470 196.666702
vt 0.000000 196.666702
vt 0.466470 0.000000
vt 0.000000 0.000000
vt 0.984060 0.000000
vt 0.984060 196.666702
vt 0.000000 196.666702
vt 0.000000 0.000000
vt 1.021220 196.666702
vt 0.000000 196.666702
vt 1.021220 0.000000
vt 0.000000 0.000000
vt 0.515910 0.000000
vt 0.515910 196.666702
vt 0.000000 196.666702
vt 0.000000 0.000000
vt 0.977780 0.000000
vt 0.977780 196.666702
vt 0.000000 196.666702
vt 0.000000 0.000000
vt 0.505330 0.000000
vt 0.505330 196.666702
vt 0.000000 196.666702
vt 0.000000 0.000000
vt 0.515910 0.000000
vt 0.515910 196.666702
vt 0.000000 196.666702
vn -0.4989 -0.8667 0.0000
vn -0.8635 0.5044 0.0000
vn 0.4837 0.8752 0.0000
vn 0.8588 -0.5123 0.0000
vn 0.8588 -0.5124 0.0000
vn -0.4966 -0.8680 0.0000
vn -0.4965 -0.8680 0.0000
vn 0.4862 0.8738 0.0000
vn 0.4863 0.8738 0.0000
vn -0.5039 -0.8638 0.0000
vn -0.5039 -0.8637 0.0000
vn -0.8604 0.5097 0.0000
vn -0.8603 0.5098 0.0000
vn 0.8649 -0.5019 0.0000
vn -0.4968 -0.8679 0.0000
vn -0.8595 0.5111 0.0000
vn 0.5031 0.8642 0.0000
vn 0.5030 0.8643 0.0000
vn -0.5145 -0.8575 0.0000
vn -0.5144 -0.8575 0.0000
vn 0.5131 0.8583 0.0000
vn -0.4946 -0.8691 0.0000
vn -0.8683 0.4960 0.0000
vn -0.4967 -0.8679 0.0000
vn 0.4945 0.8692 0.0000
vn -0.5047 -0.8633 0.0000
vn 0.4946 0.8691 0.0000
vn -0.8666 0.4990 0.0000
vn -0.8665 0.4991 0.0000
vn 0.8649 -0.5020 0.0000
vn -0.5048 -0.8633 0.0000
vn 0.5039 0.8637 0.0000
vn 0.5040 0.8637 0.0000
vn -0.8604 0.5096 0.0000
vn -0.5040 -0.8637 0.0000
vn 0.8648 -0.5021 0.0000
vn -0.8649 0.5019 0.0000
vn 0.5082 0.8612 0.0000
vn 0.8684 -0.4959 0.0000
vn -0.5083 -0.8612 0.0000
vn -0.8603 0.5099 0.0000
vn 0.8595 -0.5111 0.0000
vn 0.5132 0.8583 0.0000
vn 0.8619 -0.5070 0.0000
vn 0.8619 -0.5071 0.0000
vn -0.5119 -0.8591 0.0000
vn 0.5048 0.8633 0.0000
vn 0.5047 0.8633 0.0000
vn -0.5031 -0.8642 0.0000
vn 0.8666 -0.4991 0.0000
vn -0.8666 0.4991 0.0000
vn -0.8665 0.4992 0.0000
vn 0.8683 -0.4960 0.0000
vn -0.5013 -0.8653 0.0000
vn 0.8635 -0.5044 0.0000
vn -0.5012 -0.8653 0.0000
vn -0.5014 -0.8652 0.0000
vn 0.8635 -0.5043 0.0000
vn 0.5217 0.8531 0.0000
vn 0.5218 0.8531 0.0000
vn -0.8587 0.5125 0.0000
vn 0.8620 -0.5070 0.0000
vn 0.8620 -0.5069 0.0000
vn -0.5118 -0.8591 0.0000
vn 0.8595 -0.5112 0.0000
vn -0.4924 -0.8704 0.0000
vn -0.4923 -0.8704 0.0000
vn 0.5039 0.8638 0.0000
vn 0.8666 -0.4990 0.0000
vn 0.8604 -0.5096 0.0000
vn 0.8603 -0.5098 0.0000
s off
f 1/1/1 2/2/1 3/3/1
f 1/1/1 3/3/1 4/4/1
f 5/5/2 6/6/2 7/7/2
f 5/5/2 7/7/2 8/8/2
f 9/9/3 10/10/3 11/11/3
f 9/9/3 11/11/3 12/12/3
f 13/13/4 14/14/4 15/15/4
f 13/13/5 16/16/5 14/14/5
f 17/17/6 18/18/6 19/19/6
f 17/17/7 19/19/7 20/20/7
f 21/21/2 22/22/2 23/23/2
f 21/21/2 23/23/2 24/24/2
f 25/25/8 26/26/8 27/27/8
f 25/25/9 27/27/9 28/28/9
f 29/29/10 30/30/10 31/31/10
f 29/29/11 32/32/11 30/30/11
f 33/33/12 34/34/12 35/35/12
f 33/33/13 35/35/13 36/36/13
f 37/37/14 38/38/14 39/39/14
f 37/37/14 40/40/14 38/38/14
f 41/41/15 42/42/15 43/43/15
f 41/41/15 44/44/15 42/42/15
f 45/45/16 46/46/16 47/47/16
f 45/45/16 47/47/16 48/48/16
f 49/49/17 50/50/17 51/51/17
f 49/49/18 51/51/18 52/52/18
f 53/53/19 54/54/19 55/55/19
f 53/53/20 56/56/20 54/54/20
f 57/57/2 58/58/2 59/59/2
f 57/57/2 59/59/2 60/60/2
f 61/61/21 62/62/21 63/63/21
f 61/61/21 63/63/21 64/64/21
f 65/65/22 66/66/22 67/67/22
f 65/65/22 68/68/22 66/66/22
f 69/69/23 70/70/23 71/71/23
f 69/69/23 71/71/23 72/72/23
f 77/73/6 78/74/6 79/75/6
f 77/73/24 79/75/24 80/76/24
f 81/77/2 82/78/2 83/79/2
f 81/77/2 83/79/2 84/80/2
f 85/81/25 86/82/25 87/83/25
f 85/81/25 87/83/25 88/84/25
f 89/85/26 90/86/26 91/87/26
f 89/85/26 91/87/26 92/88/26
f 93/89/2 94/90/2 95/91/2
f 93/89/2 95/91/2 96/92/2
f 97/93/27 98/94/27 99/95/27
f 97/93/27 99/95/27 100/96/27
f 105/97/28 106/98/28 107/99/28
f 105/97/29 107/99/29 108/100/29
f 109/101/30 110/102/30 111/103/30
f 109/101/14 112/104/14 110/102/14
f 113/105/31 114/106/31 115/107/31
f 113/105/26 116/108/26 114/106/26
f 117/109/2 118/110/2 119/111/2
f 117/109/2 119/111/2 120/112/2
f 121/113/32 122/114/32 123/115/32
f 121/113/33 123/115/33 124/116/33
f 129/117/34 130/118/34 131/119/34
f 129/117/13 131/119/13 132/120/13
f 133/121/11 134/122/11 135/123/11
f 133/121/35 135/123/35 136/124/35
f 137/125/36 138/126/36 139/127/36
f 137/125/30 140/128/30 138/126/30
f 141/129/37 142/130/37 143/131/37
f 141/129/37 143/131/37 144/132/37
f 145/133/38 146/134/38 147/135/38
f 145/133/38 147/135/38 148/136/38
f 149/137/39 150/138/39 151/139/39
f 149/137/39 152/140/39 150/138/39
f 153/141/40 154/142/40 155/143/40
f 153/141/40 156/144/40 154/142/40
f 157/145/13 158/146/13 159/147/13
f 157/145/41 159/147/41 160/148/41
f 161/149/42 162/150/42 163/151/42
f 161/149/42 163/151/42 164/152/42
f 165/153/43 166/154/43 167/155/43
f 165/153/21 167/155/21 168/156/21
f 173/157/33 174/158/33 175/159/33
f 173/157/33 175/159/33 176/160/33
f 177/161/44 178/162/44 179/163/44
f 177/161/45 179/163/45 180/164/45
f 181/165/46 182/166/46 183/167/46
f 181/165/46 184/168/46 182/166/46
f 185/169/42 186/170/42 187/171/42
f 185/169/42 187/171/42 188/172/42
f 189/173/47 190/174/47 191/175/47
f 189/173/48 191/175/48 192/176/48
f 193/177/49 194/178/49 195/179/49
f 193/177/49 196/180/49 194/178/49
f 197/181/50 198/182/50 199/183/50
f 197/181/50 200/184/50 198/182/50
f 201/185/27 202/186/27 203/187/27
f 201/185/25 203/187/25 204/188/25
f 205/189/51 206/190/51 207/191/51
f 205/189/52 207/191/52 208/192/52
f 209/193/27 210/194/27 211/195/27
f 209/193/27 211/195/27 212/196/27
f 213/197/53 214/198/53 215/199/53
f 213/197/53 216/200/53 214/198/53
f 217/201/54 218/202/54 219/203/54
f 217/201/54 220/204/54 218/202/54
f 221/205/55 222/206/55 223/207/55
f 221/205/55 224/208/55 222/206/55
f 225/209/17 226/210/17 227/211/17
f 225/209/18 227/211/18 228/212/18
f 229/213/56 230/214/56 231/215/56
f 229/213/57 231/215/57 232/216/57
f 233/217/58 234/218/58 235/219/58
f 233/217/58 236/220/58 234/218/58
f 237/221/59 238/222/59 239/223/59
f 237/221/60 239/223/60 240/224/60
f 241/225/61 242/226/61 243/227/61
f 241/225/61 243/227/61 244/228/61
f 245/229/38 246/230/38 247/231/38
f 245/229/38 247/231/38 248/232/38
f 249/233/62 250/234/62 251/235/62
f 249/233/63 251/235/63 252/236/63
f 253/237/46 254/238/46 255/239/46
f 253/237/64 255/239/64 256/240/64
f 257/241/65 258/242/65 259/243/65
f 257/241/42 260/244/42 258/242/42
f 261/245/48 262/246/48 263/247/48
f 261/245/47 263/247/47 264/248/47
f 265/249/51 266/250/51 267/251/51
f 265/249/51 267/251/51 268/252/51
f 269/253/66 270/254/66 271/255/66
f 269/253/67 272/256/67 270/254/67
f 273/257/68 274/258/68 275/259/68
f 273/257/33 275/259/33 276/260/33
f 277/261/55 278/262/55 279/263/55
f 277/261/55 280/264/55 278/262/55
s 1
f 73/265/69 74/266/69 75/267/69
f 73/265/69 75/267/69 76/268/69
f 101/269/22 102/270/22 103/271/22
f 101/269/22 103/271/22 104/272/22
f 125/273/70 126/274/70 127/275/71
f 125/273/70 127/275/71 128/276/71
f 169/277/28 170/278/28 171/279/29
f 169/277/28 171/279/29 172/280/29
