# Blender v3.0.1 OBJ File: 'rockerfeller_plaza.blend'
# www.blender.org
o geometryt000010000010000110010110000110000110100000100100st130
v 455.003479 -193.595627 628.373901
v 455.003479 -193.595627 612.578735
v 453.417297 -196.552521 612.578735
v 453.417297 -196.552521 628.373901
v 456.194305 -191.375717 628.373901
v 456.194305 -191.375717 612.578735
v 455.401184 -192.854218 612.578735
v 455.401184 -192.854218 628.373901
v 458.971405 -186.198929 628.373901
v 458.971405 -186.198929 612.578735
v 456.592102 -190.634323 612.578735
v 456.592102 -190.634323 628.373901
v 460.162201 -183.979126 628.373901
v 460.162201 -183.979126 612.578735
v 459.369080 -185.457520 612.578735
v 459.369080 -185.457520 628.373901
v 462.939209 -178.802322 612.578735
v 460.559875 -183.237717 612.578735
v 460.559875 -183.237717 628.373901
v 462.939209 -178.802322 628.373901
v 464.130005 -176.582428 628.373901
v 464.130005 -176.582428 612.578735
v 463.336914 -178.060928 612.578735
v 463.336914 -178.060928 628.373901
v 466.114014 -172.884125 612.578735
v 464.527802 -175.841019 612.578735
v 464.527802 -175.841019 628.373901
v 466.114014 -172.884125 628.373901
v 453.558716 -197.018829 612.578735
v 454.784607 -197.672226 612.578735
v 454.784607 -197.672226 628.373901
v 453.558716 -197.018829 628.373901
v 454.274109 -200.775726 628.373901
v 454.274109 -200.775726 612.578735
v 457.231812 -202.360626 612.578735
v 457.231812 -202.360626 628.373901
v 454.782501 -198.407425 612.578735
v 453.990997 -199.886719 612.578735
v 453.990997 -199.886719 628.373901
v 454.782501 -198.407425 628.373901
v 457.984680 -202.372620 628.373901
v 457.984680 -202.372620 612.578735
v 459.571777 -199.416229 612.578735
v 459.571777 -199.416229 628.373901
v 460.000397 -198.617920 628.373901
v 460.000397 -198.617920 612.578735
v 460.793884 -197.139725 612.578735
v 460.793884 -197.139725 628.373901
v 461.222504 -196.341431 628.373901
v 461.222504 -196.341431 612.578735
v 463.603210 -191.906830 612.578735
v 463.603210 -191.906830 628.373901
v 464.031677 -191.108521 628.373901
v 464.031677 -191.108521 612.578735
v 464.825317 -189.630325 612.578735
v 464.825317 -189.630325 628.373901
v 465.253784 -188.832031 628.373901
v 465.253784 -188.832031 612.578735
v 466.047394 -187.353821 612.578735
v 466.047394 -187.353821 628.373901
v 466.475891 -186.555527 628.373901
v 466.475891 -186.555527 612.578735
v 468.856598 -182.120926 612.578735
v 468.856598 -182.120926 628.373901
v 469.285217 -181.322617 628.373901
v 469.285217 -181.322617 612.578735
v 470.078705 -179.844421 612.578735
v 470.078705 -179.844421 628.373901
v 470.507294 -179.046127 628.373901
v 470.507294 -179.046127 612.578735
v 472.094391 -176.089722 612.578735
v 472.094391 -176.089722 628.373901
v 468.059814 -173.535721 612.578735
v 466.581116 -172.743118 612.578735
v 466.581116 -172.743118 628.373901
v 468.059814 -173.535721 628.373901
v 471.953491 -175.622818 612.578735
v 470.474792 -174.830124 612.578735
v 470.474792 -174.830124 628.373901
v 471.953491 -175.622818 628.373901
vt 0.000000 1.666670
vt 0.000000 0.000000
vt 0.666670 0.000000
vt 0.666670 1.666670
vt 0.000000 1.666670
vt 0.000000 0.000000
vt 0.333330 0.000000
vt 0.333330 1.666670
vt 0.000000 1.666670
vt 0.000000 0.000000
vt 1.000000 0.000000
vt 1.000000 1.666670
vt 0.000000 1.666670
vt 0.000000 0.000000
vt 0.333330 0.000000
vt 0.333330 1.666670
vt 0.000000 0.000000
vt 1.000000 0.000000
vt 1.000000 1.666670
vt 0.000000 1.666670
vt 0.000000 1.666670
vt 0.000000 0.000000
vt 0.333330 0.000000
vt 0.333330 1.666670
vt 0.000000 0.000000
vt 0.666670 0.000000
vt 0.666670 1.666670
vt 0.000000 1.666670
vt 0.000000 0.000000
vt 0.333330 0.000000
vt 0.333330 1.666670
vt 0.000000 1.666670
vt 0.000000 1.666670
vt 0.000000 0.000000
vt 0.666670 0.000000
vt 0.666670 1.666670
vt 0.000000 0.000000
vt 0.333330 0.000000
vt 0.333330 1.666670
vt 0.000000 1.666670
vt 0.000000 1.666670
vt 0.000000 0.000000
vt 0.666670 0.000000
vt 0.666670 1.666670
vt 0.000000 1.666670
vt 0.000000 0.000000
vt 0.333330 0.000000
vt 0.333330 1.666670
vt 0.000000 1.666670
vt 0.000000 0.000000
vt 1.000000 0.000000
vt 1.000000 1.666670
vt 0.000000 1.666670
vt 0.000000 0.000000
vt 0.333330 0.000000
vt 0.333330 1.666670
vt 0.000000 1.666670
vt 0.000000 0.000000
vt 0.333330 0.000000
vt 0.333330 1.666670
vt 0.000000 1.666670
vt 0.000000 0.000000
vt 1.000000 0.000000
vt 1.000000 1.666670
vt 0.000000 1.666670
vt 0.000000 0.000000
vt 0.333330 0.000000
vt 0.333330 1.666670
vt 0.000000 1.666670
vt 0.000000 0.000000
vt 0.666670 0.000000
vt 0.666670 1.666670
vt 0.000000 0.000000
vt 0.333330 0.000000
vt 0.333330 1.666670
vt 0.000000 1.666670
vt 0.000000 0.000000
vt 0.333330 0.000000
vt 0.333330 1.666670
vt 0.000000 1.666670
vn -0.8812 0.4727 0.0000
vn -0.8812 0.4728 0.0000
vn -0.4704 -0.8825 0.0000
vn -0.4723 -0.8814 0.0000
vn -0.8817 0.4718 0.0000
vn 0.8811 -0.4730 0.0000
vn 0.8810 -0.4730 0.0000
vn 0.8811 -0.4729 0.0000
vn 0.4724 0.8814 0.0000
vn 0.4725 0.8813 0.0000
s off
f 1/1/1 2/2/1 3/3/1
f 1/1/1 3/3/1 4/4/1
f 5/5/1 6/6/1 7/7/1
f 5/5/1 7/7/1 8/8/1
f 9/9/1 10/10/1 11/11/1
f 9/9/1 11/11/1 12/12/1
f 13/13/2 14/14/2 15/15/2
f 13/13/1 15/15/1 16/16/1
f 17/17/1 18/18/1 19/19/1
f 20/20/1 17/17/1 19/19/1
f 21/21/1 22/22/1 23/23/1
f 21/21/1 23/23/1 24/24/1
f 25/25/1 26/26/1 27/27/1
f 28/28/1 25/25/1 27/27/1
f 29/29/3 30/30/3 31/31/3
f 32/32/3 29/29/3 31/31/3
f 33/33/4 34/34/4 35/35/4
f 33/33/4 35/35/4 36/36/4
f 37/37/5 38/38/5 39/39/5
f 40/40/5 37/37/5 39/39/5
f 41/41/6 42/42/6 43/43/6
f 41/41/6 43/43/6 44/44/6
f 45/45/6 46/46/6 47/47/6
f 45/45/6 47/47/6 48/48/6
f 49/49/6 50/50/6 51/51/6
f 49/49/6 51/51/6 52/52/6
f 53/53/6 54/54/6 55/55/6
f 53/53/7 55/55/7 56/56/7
f 57/57/6 58/58/6 59/59/6
f 57/57/6 59/59/6 60/60/6
f 61/61/6 62/62/6 63/63/6
f 61/61/6 63/63/6 64/64/6
f 65/65/8 66/66/8 67/67/8
f 65/65/6 67/67/6 68/68/6
f 69/69/6 70/70/6 71/71/6
f 69/69/6 71/71/6 72/72/6
f 73/73/9 74/74/9 75/75/9
f 76/76/9 73/73/9 75/75/9
f 77/77/10 78/78/10 79/79/10
f 80/80/10 77/77/10 79/79/10
