# Blender v3.0.1 OBJ File: 'rockerfeller_plaza.blend'
# www.blender.org
o geometryt000010000010000110010110000110000100110010010110st170_
v 173.951599 -98.214813 20.532301
v 170.375305 -96.280022 20.532301
v 183.459702 -72.247559 20.532301
v 190.483307 -75.929871 20.532301
v 179.761993 -101.367203 20.532301
v 172.571304 -100.762100 20.532301
v 196.770798 -79.454170 20.532301
v 183.720596 -103.519600 20.532301
v 178.390198 -103.914398 20.532301
v 172.571304 -100.762100 83.132301
v 178.390198 -103.914398 83.132301
v 179.761993 -101.367203 83.132301
v 173.951599 -98.214813 83.132301
v 183.720596 -103.519600 83.132301
v 196.770798 -79.454170 83.132301
v 190.483307 -75.929871 83.132301
v 183.459702 -72.247559 83.132301
v 170.375305 -96.280022 83.132301
vt 0.123410 0.348360
vt 0.121030 0.341200
vt 0.073130 0.368130
vt 0.077600 0.382210
vt 0.127300 0.360000
vt 0.128490 0.345520
vt 0.082010 0.394800
vt 0.129960 0.367930
vt 0.132370 0.357170
vt 0.128490 0.345520
vt 0.132370 0.357170
vt 0.127300 0.360000
vt 0.123410 0.348360
vt 0.129960 0.367930
vt 0.082010 0.394800
vt 0.077600 0.382210
vt 0.073130 0.368130
vt 0.121030 0.341200
vn 0.0000 0.0000 -1.0000
vn 0.0000 0.0000 1.0000
s off
f 1/1/1 2/2/1 3/3/1
f 4/4/1 1/1/1 3/3/1
f 5/5/1 1/1/1 4/4/1
f 5/5/1 6/6/1 1/1/1
f 7/7/1 5/5/1 4/4/1
f 7/7/1 8/8/1 5/5/1
f 9/9/1 6/6/1 5/5/1
f 10/10/2 11/11/2 12/12/2
f 12/12/2 13/13/2 10/10/2
f 14/14/2 15/15/2 12/12/2
f 15/15/2 16/16/2 12/12/2
f 12/12/2 16/16/2 13/13/2
f 13/13/2 16/16/2 17/17/2
f 18/18/2 13/13/2 17/17/2
