# Blender v3.0.1 OBJ File: 'rockerfeller_plaza.blend'
# www.blender.org
o geometryt000010000010000110010110000110000110100000010110st136
v 1099.665039 -56.827736 187.344910
v 1087.361572 -79.553780 187.344910
v 1080.480103 -75.815125 187.344910
v 1092.775269 -53.100296 187.344910
v 1099.665039 -56.827736 212.344910
v 1092.775269 -53.100296 212.344910
v 1080.480103 -75.815125 212.344910
v 1087.361572 -79.553780 212.344910
vt 0.069880 0.211210
vt 0.115150 0.185870
vt 0.110540 0.172090
vt 0.065290 0.197410
vt 0.069880 0.211210
vt 0.065290 0.197410
vt 0.110540 0.172090
vt 0.115150 0.185870
vn -0.0000 0.0000 -1.0000
vn 0.0000 0.0000 1.0000
s off
f 1/1/1 2/2/1 3/3/1
f 4/4/1 1/1/1 3/3/1
f 5/5/2 6/6/2 7/7/2
f 5/5/2 7/7/2 8/8/2
