# Blender v3.0.1 OBJ File: 'rockerfeller_plaza.blend'
# www.blender.org
o geometryt000010000010000110010110000110000110100000100110st142
v 536.757385 -194.202301 719.279175
v 536.757385 -194.202301 657.150024
v 535.292480 -196.932205 657.150024
v 535.292480 -196.932205 719.279175
v 537.697327 -192.450607 719.279175
v 537.697327 -192.450607 657.150024
v 536.964905 -193.815613 657.150024
v 536.964905 -193.815613 719.279175
v 538.637329 -190.699005 719.279175
v 538.637329 -190.699005 657.150024
v 537.904846 -192.063904 657.150024
v 537.904846 -192.063904 719.279175
v 541.042175 -186.217407 657.150024
v 538.844849 -190.312302 657.150024
v 538.844849 -190.312302 719.279175
v 541.042175 -186.217407 719.279175
v 541.982178 -184.465714 657.150024
v 541.249695 -185.830704 657.150024
v 541.249695 -185.830704 719.279175
v 541.982178 -184.465714 719.279175
v 544.387024 -179.984116 657.150024
v 542.189636 -184.079010 657.150024
v 542.189636 -184.079010 719.279175
v 544.387024 -179.984116 719.279175
v 545.327026 -178.232407 719.279175
v 545.327026 -178.232407 657.150024
v 544.594543 -179.597412 657.150024
v 544.594543 -179.597412 719.279175
v 546.266968 -176.480804 657.150024
v 545.534485 -177.845703 657.150024
v 545.534485 -177.845703 719.279175
v 546.266968 -176.480804 719.279175
v 547.939392 -173.364105 719.279175
v 547.939392 -173.364105 657.150024
v 546.474487 -176.094101 657.150024
v 546.474487 -176.094101 719.279175
v 535.763550 -197.576416 719.279175
v 535.763550 -197.576416 657.150024
v 537.128662 -198.308716 657.150024
v 537.128662 -198.308716 719.279175
v 537.442993 -199.245514 719.279175
v 537.442993 -199.245514 657.150024
v 536.711060 -200.610703 657.150024
v 536.711060 -200.610703 719.279175
v 538.223145 -202.400909 719.279175
v 538.223145 -202.400909 657.150024
v 545.047302 -206.064514 657.150024
v 545.047302 -206.064514 719.279175
v 546.579346 -206.872711 719.279175
v 546.579346 -206.872711 657.150024
v 550.698792 -209.023804 657.150024
v 550.698792 -209.023804 719.279175
v 551.131409 -174.697601 719.279175
v 551.131409 -174.697601 657.150024
v 548.406006 -173.224213 657.150024
v 548.406006 -173.224213 719.279175
v 552.866699 -175.635712 657.150024
v 551.504028 -174.899002 657.150024
v 551.504028 -174.899002 719.279175
v 552.866699 -175.635712 719.279175
v 554.602051 -176.573807 657.150024
v 553.239319 -175.837112 657.150024
v 553.239319 -175.837112 719.279175
v 554.602051 -176.573807 719.279175
v 559.062744 -178.985306 657.150024
v 554.974609 -176.775208 657.150024
v 554.974609 -176.775208 719.279175
v 559.062744 -178.985306 719.279175
v 560.798035 -179.923401 719.279175
v 560.798035 -179.923401 657.150024
v 559.435303 -179.186707 657.150024
v 559.435303 -179.186707 719.279175
v 562.533325 -180.861511 719.279175
v 562.533325 -180.861511 657.150024
v 561.170654 -180.124908 657.150024
v 561.170654 -180.124908 719.279175
v 565.631348 -182.536407 657.150024
v 562.905945 -181.063004 657.150024
v 562.905945 -181.063004 719.279175
v 565.631348 -182.536407 719.279175
v 552.005981 -208.908615 719.279175
v 552.005981 -208.908615 657.150024
v 555.624146 -202.060211 657.150024
v 555.624146 -202.060211 719.279175
v 556.194580 -200.992004 657.150024
v 558.408813 -196.906113 657.150024
v 558.408813 -196.906113 719.279175
v 556.194580 -200.992004 719.279175
v 558.812927 -196.159607 657.150024
v 560.286133 -193.434113 657.150024
v 560.286133 -193.434113 719.279175
v 558.812927 -196.159607 719.279175
v 560.747498 -192.580505 719.279175
v 560.747498 -192.580505 657.150024
v 561.484070 -191.217804 657.150024
v 561.484070 -191.217804 719.279175
v 561.945496 -190.364212 719.279175
v 561.945496 -190.364212 657.150024
v 563.418640 -187.638702 657.150024
v 563.418640 -187.638702 719.279175
v 564.057739 -186.399216 657.150024
v 565.459839 -183.636414 657.150024
v 565.459839 -183.636414 719.279175
v 564.057739 -186.399216 719.279175
vt 0.000000 17.000000
vt 0.000000 0.000000
vt 0.666670 0.000000
vt 0.666670 17.000000
vt 0.000000 17.000000
vt 0.000000 0.000000
vt 0.333330 0.000000
vt 0.333330 17.000000
vt 0.000000 17.000000
vt 0.000000 0.000000
vt 0.333330 0.000000
vt 0.333330 17.000000
vt 0.000000 0.000000
vt 1.000000 0.000000
vt 1.000000 17.000000
vt 0.000000 17.000000
vt 0.000000 0.000000
vt 0.333330 0.000000
vt 0.333330 17.000000
vt 0.000000 17.000000
vt 0.000000 0.000000
vt 1.000000 0.000000
vt 1.000000 17.000000
vt 0.000000 17.000000
vt 0.000000 17.000000
vt 0.000000 0.000000
vt 0.333330 0.000000
vt 0.333330 17.000000
vt 0.000000 0.000000
vt 0.333330 0.000000
vt 0.333330 17.000000
vt 0.000000 17.000000
vt 0.000000 17.000000
vt 0.000000 0.000000
vt 0.666670 0.000000
vt 0.666670 17.000000
vt 0.000000 17.000000
vt 0.000000 0.000000
vt 0.333330 0.000000
vt 0.333330 17.000000
vt 0.000000 17.000000
vt 0.000000 0.000000
vt 0.333330 0.000000
vt 0.333330 17.000000
vt 0.000000 17.000000
vt 0.000000 0.000000
vt 1.666670 0.000000
vt 1.666670 17.000000
vt 0.000000 17.000000
vt 0.000000 0.000000
vt 1.000000 0.000000
vt 1.000000 17.000000
vt 0.000000 17.000000
vt 0.000000 0.000000
vt 0.666670 0.000000
vt 0.666670 17.000000
vt 0.000000 0.000000
vt 0.333330 0.000000
vt 0.333330 17.000000
vt 0.000000 17.000000
vt 0.000000 0.000000
vt 0.333330 0.000000
vt 0.333330 17.000000
vt 0.000000 17.000000
vt 0.000000 0.000000
vt 1.000000 0.000000
vt 1.000000 17.000000
vt 0.000000 17.000000
vt 0.000000 17.000000
vt 0.000000 0.000000
vt 0.333330 0.000000
vt 0.333330 17.000000
vt 0.000000 17.000000
vt 0.000000 0.000000
vt 0.333330 0.000000
vt 0.333330 17.000000
vt 0.000000 0.000000
vt 0.666670 0.000000
vt 0.666670 17.000000
vt 0.000000 17.000000
vt 0.000000 0.000000
vt 1.000000 0.000000
vt 1.000000 17.000000
vt 0.000000 17.000000
vt 0.000000 0.000000
vt 0.666670 0.000000
vt 0.666670 17.000000
vt 0.000000 17.000000
vt 0.000000 17.000000
vt 0.000000 0.000000
vt 0.666670 0.000000
vt 0.666670 17.000000
vt 0.000000 0.000000
vt 0.666670 0.000000
vt 0.666670 17.000000
vt 0.000000 17.000000
vt 0.000000 17.000000
vt 0.000000 0.000000
vt 1.666670 0.000000
vt 1.666670 17.000000
vt 0.000000 17.000000
vt 0.000000 0.000000
vt 0.333330 0.000000
vt 0.333330 17.000000
vn -0.8811 0.4728 0.0000
vn -0.8812 0.4728 0.0000
vn -0.8811 0.4729 0.0000
vn -0.4727 -0.8812 0.0000
vn -0.8813 0.4725 0.0000
vn -0.4730 -0.8811 0.0000
vn -0.4629 -0.8864 0.0000
vn 0.4755 0.8797 0.0000
vn 0.4756 0.8797 0.0000
vn 0.8792 -0.4765 0.0000
vn 0.8792 -0.4764 0.0000
vn 0.8797 -0.4755 0.0000
vn 0.8917 -0.4525 0.0000
vn 0.8842 -0.4671 0.0000
s off
f 1/1/1 2/2/1 3/3/1
f 1/1/1 3/3/1 4/4/1
f 5/5/2 6/6/2 7/7/2
f 5/5/2 7/7/2 8/8/2
f 9/9/2 10/10/2 11/11/2
f 9/9/3 11/11/3 12/12/3
f 13/13/2 14/14/2 15/15/2
f 16/16/1 13/13/1 15/15/1
f 17/17/3 18/18/3 19/19/3
f 20/20/2 17/17/2 19/19/2
f 21/21/1 22/22/1 23/23/1
f 24/24/1 21/21/1 23/23/1
f 25/25/2 26/26/2 27/27/2
f 25/25/3 27/27/3 28/28/3
f 29/29/3 30/30/3 31/31/3
f 32/32/2 29/29/2 31/31/2
f 33/33/2 34/34/2 35/35/2
f 33/33/2 35/35/2 36/36/2
f 37/37/4 38/38/4 39/39/4
f 37/37/4 39/39/4 40/40/4
f 41/41/5 42/42/5 43/43/5
f 41/41/5 43/43/5 44/44/5
f 45/45/6 46/46/6 47/47/6
f 45/45/6 47/47/6 48/48/6
f 49/49/7 50/50/7 51/51/7
f 49/49/7 51/51/7 52/52/7
f 53/53/8 54/54/8 55/55/8
f 53/53/9 55/55/9 56/56/9
f 57/57/9 58/58/9 59/59/9
f 60/60/9 57/57/9 59/59/9
f 61/61/9 62/62/9 63/63/9
f 64/64/9 61/61/9 63/63/9
f 65/65/9 66/66/9 67/67/9
f 68/68/9 65/65/9 67/67/9
f 69/69/9 70/70/9 71/71/9
f 69/69/8 71/71/8 72/72/8
f 73/73/8 74/74/8 75/75/8
f 73/73/8 75/75/8 76/76/8
f 77/77/9 78/78/9 79/79/9
f 80/80/9 77/77/9 79/79/9
f 85/81/10 86/82/10 87/83/10
f 88/84/11 85/81/11 87/83/11
f 89/85/12 90/86/12 91/87/12
f 92/88/12 89/85/12 91/87/12
f 97/89/12 98/90/12 99/91/12
f 97/89/12 99/91/12 100/92/12
f 101/93/13 102/94/13 103/95/13
f 104/96/13 101/93/13 103/95/13
s 1
f 81/97/14 82/98/14 83/99/14
f 81/97/14 83/99/14 84/100/14
f 93/101/12 94/102/12 95/103/12
f 93/101/12 95/103/12 96/104/12
