# Blender v3.0.1 OBJ File: 'rockerfeller_plaza.blend'
# www.blender.org
o geometryt000010000010000110010110000110000100110110010010st99
v 56.571552 -118.386086 842.470581
v 56.409439 -118.690689 882.563293
v 56.571552 -118.386086 882.563293
v 58.052841 -115.603287 842.470581
v 56.409439 -118.690689 841.663330
v 58.052841 -115.603287 882.563293
v 58.506821 -114.750488 882.563293
v 58.506821 -114.750488 842.470581
v 60.728760 -110.576286 842.470581
v 60.728760 -110.576286 882.563293
v 61.182739 -109.723488 882.563293
v 61.182739 -109.723488 842.470581
v 61.923382 -108.332085 842.470581
v 66.696678 -99.364853 841.663330
v 61.923382 -108.332085 882.563293
v 62.377361 -107.479187 882.563293
v 62.377361 -107.479187 842.470581
v 64.599297 -103.304985 842.470581
v 64.599297 -103.304985 882.563293
v 65.053276 -102.452187 882.563293
v 65.053276 -102.452187 842.470581
v 66.534569 -99.669395 842.470581
v 66.534569 -99.669395 882.563293
v 66.696678 -99.364853 882.563293
v 59.975540 -120.588387 842.470581
v 60.758682 -121.005188 882.563293
v 59.975540 -120.588387 882.563293
v 57.192581 -119.107384 842.470581
v 60.758682 -121.005188 841.663330
v 57.192581 -119.107384 882.563293
v 56.409439 -118.690689 882.563293
v 56.409439 -118.690689 841.663330
v 76.469475 -91.494286 842.470581
v 76.631607 -91.189758 882.563293
v 76.469475 -91.494286 882.563293
v 74.988037 -94.276993 842.470581
v 76.631607 -91.189758 841.663330
v 74.988037 -94.276993 882.563293
v 74.671509 -94.871559 882.563293
v 74.671509 -94.871559 842.470581
v 72.449348 -99.045616 842.470581
v 72.449348 -99.045616 882.563293
v 72.132820 -99.640182 882.563293
v 72.132820 -99.640182 842.470581
v 69.910660 -103.814285 842.470581
v 69.910660 -103.814285 882.563293
v 69.594131 -104.408783 882.563293
v 69.594131 -104.408783 842.470581
v 68.853409 -105.800186 842.470581
v 68.853409 -105.800186 882.563293
v 68.536880 -106.394684 882.563293
v 68.536880 -106.394684 842.470581
v 60.758682 -121.005188 841.663330
v 67.796158 -107.786087 842.470581
v 67.796158 -107.786087 882.563293
v 67.479630 -108.380684 882.563293
v 67.479630 -108.380684 842.470581
v 65.257469 -112.554688 842.470581
v 65.257469 -112.554688 882.563293
v 64.940941 -113.149284 882.563293
v 64.940941 -113.149284 842.470581
v 62.718769 -117.323288 842.470581
v 62.718769 -117.323288 882.563293
v 62.402241 -117.917885 882.563293
v 62.402241 -117.917885 842.470581
v 60.920799 -120.700584 842.470581
v 60.920799 -120.700584 882.563293
v 60.758682 -121.005188 882.563293
v 66.392357 -99.202339 842.470581
v 66.696678 -99.364853 882.563293
v 66.392357 -99.202339 882.563293
v 65.251076 -98.592827 842.470581
v 66.696678 -99.364853 841.663330
v 65.251076 -98.592827 882.563293
v 64.946762 -98.430298 882.563293
v 64.946762 -98.430298 841.663330
v 65.108910 -98.125786 842.470581
v 64.946762 -98.430298 882.563293
v 65.108910 -98.125786 882.563293
v 66.590630 -95.343216 842.470581
v 64.946762 -98.430298 841.663330
v 66.590630 -95.343216 882.563293
v 66.998749 -94.576782 882.563293
v 66.998749 -94.576782 842.470581
v 68.480469 -91.794228 842.470581
v 70.532455 -87.940712 841.663330
v 68.480469 -91.794228 882.563293
v 68.888588 -91.027794 882.563293
v 68.888588 -91.027794 842.470581
v 70.370300 -88.245239 842.470581
v 70.370300 -88.245239 882.563293
v 70.532455 -87.940712 882.563293
v 71.495285 -88.453629 842.470581
v 70.532455 -87.940712 882.563293
v 71.495285 -88.453629 882.563293
v 75.668777 -90.676857 842.470581
v 70.532455 -87.940712 841.663330
v 75.668777 -90.676857 882.563293
v 76.631607 -91.189758 882.563293
v 76.631607 -91.189758 841.663330
vt 13.857380 0.519130
vt 14.079250 26.302250
vt 13.857380 26.302250
vt 11.830070 0.519130
vt 14.079250 0.000000
vt 11.830070 26.302250
vt 11.208750 26.302250
vt 11.208750 0.519130
vt 8.167771 0.519130
vt 8.167771 26.302250
vt 7.546450 26.302250
vt 7.546450 0.519130
vt 6.532790 0.519130
vt 0.000000 0.000000
vt 6.532790 26.302250
vt 5.911480 26.302250
vt 5.911480 0.519130
vt 2.870500 0.519130
vt 2.870500 26.302250
vt 2.249180 26.302250
vt 2.249180 0.519130
vt 0.221860 0.519130
vt 0.221860 26.302250
vt 0.000000 26.302250
vt 2.597820 0.519130
vt 3.168320 26.302250
vt 2.597820 26.302250
vt 0.570500 0.519130
vt 3.168320 0.000000
vt 0.570500 26.302250
vt 0.000000 26.302250
vt 0.000000 0.000000
vt 21.499880 0.519130
vt 21.721750 26.302250
vt 21.499880 26.302250
vt 19.472561 0.519130
vt 21.721750 0.000000
vt 19.472561 26.302250
vt 19.039400 26.302250
vt 19.039400 0.519130
vt 15.998420 0.519130
vt 15.998420 26.302250
vt 15.565260 26.302250
vt 15.565260 0.519130
vt 12.524280 0.519130
vt 12.524280 26.302250
vt 12.091110 26.302250
vt 12.091110 0.519130
vt 11.077460 0.519130
vt 11.077460 26.302250
vt 10.644290 26.302250
vt 10.644290 0.519130
vt 0.000000 0.000000
vt 9.630630 0.519130
vt 9.630630 26.302250
vt 9.197470 26.302250
vt 9.197470 0.519130
vt 6.156490 0.519130
vt 6.156490 26.302250
vt 5.723330 26.302250
vt 5.723330 0.519130
vt 2.682350 0.519130
vt 2.682350 26.302250
vt 2.249180 26.302250
vt 2.249180 0.519130
vt 0.221860 0.519130
vt 0.221860 26.302250
vt 0.000000 26.302250
vt 1.053920 0.519130
vt 1.275780 26.302250
vt 1.053920 26.302250
vt 0.221860 0.519130
vt 1.275780 0.000000
vt 0.221860 26.302250
vt 0.000000 26.302250
vt 0.000000 0.000000
vt 7.420630 0.519130
vt 7.642500 26.302250
vt 7.420630 26.302250
vt 5.393310 0.519130
vt 7.642500 0.000000
vt 5.393310 26.302250
vt 4.834910 26.302250
vt 4.834910 0.519130
vt 2.807590 0.519130
vt 0.000000 0.000000
vt 2.807590 26.302250
vt 2.249180 26.302250
vt 2.249180 0.519130
vt 0.221860 0.519130
vt 0.221860 26.302250
vt 0.000000 26.302250
vt 3.742530 0.519130
vt 4.444090 26.302250
vt 3.742530 26.302250
vt 0.701560 0.519130
vt 4.444090 0.000000
vt 0.701560 26.302250
vt 0.000000 26.302250
vt 0.000000 0.000000
vn -0.8828 0.4698 0.0000
vn -0.8827 0.4699 -0.0000
vn -0.8829 0.4696 -0.0002
vn -0.8830 0.4693 -0.0001
vn -0.8825 0.4704 -0.0002
vn -0.8827 0.4699 0.0002
vn -0.4698 -0.8828 0.0000
vn -0.4698 -0.8828 0.0001
vn -0.4697 -0.8828 0.0000
vn 0.8827 -0.4699 0.0000
vn 0.8827 -0.4700 0.0000
vn 0.8829 -0.4695 0.0000
vn 0.8829 -0.4695 -0.0001
vn 0.8827 -0.4700 0.0001
vn 0.8823 -0.4706 0.0002
vn 0.8827 -0.4700 -0.0003
vn 0.8829 -0.4695 -0.0002
vn 0.8825 -0.4703 0.0000
vn 0.8827 -0.4699 0.0001
vn 0.8828 -0.4698 0.0000
vn -0.4711 -0.8821 0.0000
vn -0.8826 0.4700 0.0000
vn -0.8826 0.4701 -0.0000
vn -0.8827 0.4700 0.0000
vn 0.4702 0.8826 0.0000
vn 0.4701 0.8826 0.0000
vn 0.8829 -0.4695 0.0002
vn 0.8821 -0.4710 0.0003
s off
f 1/1/1 2/2/1 3/3/1
f 4/4/2 5/5/2 1/1/2
f 2/2/1 1/1/1 5/5/1
f 6/6/2 7/7/2 4/4/2
f 7/7/2 8/8/2 4/4/2
f 8/8/3 5/5/3 4/4/3
f 8/8/2 9/9/2 5/5/2
f 10/10/2 11/11/2 9/9/2
f 11/11/2 12/12/2 9/9/2
f 13/13/4 14/14/4 12/12/4
f 12/12/2 14/14/2 5/5/2
f 15/15/2 16/16/2 13/13/2
f 16/16/2 17/17/2 13/13/2
f 17/17/5 14/14/5 13/13/5
f 18/18/2 14/14/2 17/17/2
f 19/19/2 20/20/2 18/18/2
f 20/20/2 21/21/2 18/18/2
f 21/21/6 14/14/6 18/18/6
f 22/22/2 14/14/2 21/21/2
f 23/23/2 24/24/2 22/22/2
f 24/24/2 14/14/2 22/22/2
f 25/25/7 26/26/7 27/27/7
f 28/28/8 29/29/8 25/25/8
f 26/26/7 25/25/7 29/29/7
f 30/30/9 31/31/9 28/28/9
f 31/31/9 32/32/9 28/28/9
f 32/32/7 29/29/7 28/28/7
f 33/33/10 34/34/10 35/35/10
f 36/36/11 37/37/11 33/33/11
f 34/34/11 33/33/11 37/37/11
f 38/38/10 39/39/10 36/36/10
f 39/39/10 40/40/10 36/36/10
f 40/40/12 37/37/12 36/36/12
f 40/40/11 41/41/11 37/37/11
f 42/42/10 43/43/10 41/41/10
f 43/43/10 44/44/10 41/41/10
f 41/41/13 44/44/13 37/37/13
f 44/44/14 45/45/14 37/37/14
f 46/46/11 47/47/11 45/45/11
f 47/47/11 48/48/11 45/45/11
f 48/48/15 49/49/15 37/37/15
f 50/50/11 51/51/11 49/49/11
f 51/51/11 52/52/11 49/49/11
f 49/49/10 53/53/10 37/37/10
f 54/54/16 53/53/16 52/52/16
f 55/55/10 56/56/10 54/54/10
f 56/56/10 57/57/10 54/54/10
f 57/57/17 53/53/17 54/54/17
f 58/58/14 53/53/14 57/57/14
f 59/59/10 60/60/10 58/58/10
f 60/60/10 61/61/10 58/58/10
f 61/61/18 53/53/18 58/58/18
f 62/62/19 53/53/19 61/61/19
f 63/63/10 64/64/10 62/62/10
f 64/64/10 65/65/10 62/62/10
f 65/65/13 53/53/13 62/62/13
f 66/66/11 53/53/11 65/65/11
f 67/67/20 68/68/20 66/66/20
f 68/68/20 53/53/20 66/66/20
f 69/69/21 70/70/21 71/71/21
f 72/72/21 73/73/21 69/69/21
f 70/70/21 69/69/21 73/73/21
f 74/74/21 75/75/21 72/72/21
f 75/75/21 76/76/21 72/72/21
f 76/76/21 73/73/21 72/72/21
f 77/77/22 78/78/22 79/79/22
f 80/80/23 81/81/23 77/77/23
f 78/78/24 77/77/24 81/81/24
f 82/82/24 83/83/24 80/80/24
f 83/83/24 84/84/24 80/80/24
f 84/84/1 81/81/1 80/80/1
f 85/85/22 86/86/22 84/84/22
f 84/84/23 86/86/23 81/81/23
f 87/87/24 88/88/24 85/85/24
f 88/88/24 89/89/24 85/85/24
f 89/89/23 86/86/23 85/85/23
f 90/90/22 86/86/22 89/89/22
f 91/91/24 92/92/24 90/90/24
f 92/92/24 86/86/24 90/90/24
f 93/93/25 94/94/25 95/95/25
f 96/96/26 97/97/26 93/93/26
f 94/94/25 93/93/25 97/97/25
f 98/98/25 99/99/25 96/96/25
f 100/100/26 97/97/26 96/96/26
s 1
f 9/9/2 12/12/2 5/5/2
f 45/45/27 48/48/27 37/37/27
f 52/52/28 53/53/28 49/49/28
f 99/99/25 100/100/25 96/96/25
