# Blender v3.0.1 OBJ File: 'rockerfeller_plaza.blend'
# www.blender.org
o geometryt000010000010000110010110000110000110100100010010st114
v 1096.928223 -148.238861 1012.243896
v 1085.821899 -168.796967 1012.243896
v 1092.731079 -145.967560 1012.243896
v 1081.385010 -166.972565 1012.243896
v 1085.582275 -169.243866 1012.243896
v 1085.821899 -168.796967 1024.843872
v 1092.731079 -145.967560 1024.843872
v 1081.385010 -166.972565 1024.843872
v 1096.928223 -148.238861 1024.843872
v 1085.582275 -169.243866 1024.843872
vt 0.240150 0.184050
vt 0.281090 0.161180
vt 0.237350 0.175650
vt 0.279180 0.152280
vt 0.281980 0.160690
vt 0.281090 0.161180
vt 0.237350 0.175650
vt 0.279180 0.152280
vt 0.240150 0.184050
vt 0.281980 0.160690
vn 0.0000 0.0000 -1.0000
vn -0.0000 0.0000 1.0000
s off
f 1/1/1 2/2/1 3/3/1
f 4/4/1 2/2/1 5/5/1
f 3/3/1 2/2/1 4/4/1
f 6/6/2 7/7/2 8/8/2
f 9/9/2 7/7/2 6/6/2
f 6/6/2 8/8/2 10/10/2
