# Blender v3.0.1 OBJ File: 'rockerfeller_plaza.blend'
# www.blender.org
o geometryt000010000010000110010110000110000110100100000010st91
v 675.716492 -169.421173 987.707336
v 675.716492 -169.421173 931.298645
v 673.472046 -173.590271 931.298645
v 673.472046 -173.590271 987.707336
v 676.744873 -167.510880 931.298645
v 675.996765 -168.900574 931.298645
v 675.996765 -168.900574 987.707336
v 676.744873 -167.510880 987.707336
v 678.521484 -164.210876 931.298645
v 677.025146 -166.990280 931.298645
v 677.025146 -166.990280 987.707336
v 678.521484 -164.210876 987.707336
v 679.549866 -162.300583 987.707336
v 679.549866 -162.300583 931.298645
v 678.801697 -163.690384 931.298645
v 678.801697 -163.690384 987.707336
v 681.326416 -159.000671 931.298645
v 679.830078 -161.780075 931.298645
v 679.830078 -161.780075 987.707336
v 681.326416 -159.000671 987.707336
v 682.354797 -157.090378 931.298645
v 681.606689 -158.480072 931.298645
v 681.606689 -158.480072 987.707336
v 682.354797 -157.090378 987.707336
v 684.879517 -152.400681 931.298645
v 682.635071 -156.569885 931.298645
v 682.635071 -156.569885 987.707336
v 684.879517 -152.400681 987.707336
v 673.917358 -174.222076 931.298645
v 678.085999 -176.467575 931.298645
v 678.085999 -176.467575 987.707336
v 673.917358 -174.222076 987.707336
v 676.540588 -182.390778 987.707336
v 676.540588 -182.390778 931.298645
v 677.931885 -183.135971 931.298645
v 677.931885 -183.135971 987.707336
v 678.407288 -177.330475 931.298645
v 676.164551 -181.500580 931.298645
v 676.164551 -181.500580 987.707336
v 678.407288 -177.330475 987.707336
v 679.135010 -183.787781 987.707336
v 679.135010 -183.787781 931.298645
v 686.051697 -187.587280 931.298645
v 686.051697 -187.587280 987.707336
v 689.514282 -154.508072 931.298645
v 685.346680 -152.260681 931.298645
v 685.346680 -152.260681 987.707336
v 689.514282 -154.508072 987.707336
v 691.621094 -155.644272 931.298645
v 690.231995 -154.895172 931.298645
v 690.231995 -154.895172 987.707336
v 691.621094 -155.644272 987.707336
v 693.727966 -156.780472 987.707336
v 693.727966 -156.780472 931.298645
v 692.338745 -156.031281 931.298645
v 692.338745 -156.031281 987.707336
v 695.834900 -157.916672 931.298645
v 694.445679 -157.167480 931.298645
v 694.445679 -157.167480 987.707336
v 695.834900 -157.916672 987.707336
v 700.720093 -160.551071 931.298645
v 696.552612 -158.303680 931.298645
v 696.552612 -158.303680 987.707336
v 700.720093 -160.551071 987.707336
v 686.752991 -187.578979 931.298645
v 688.974243 -183.397476 931.298645
v 688.974243 -183.397476 987.707336
v 686.752991 -187.578979 987.707336
v 689.256958 -182.865173 987.707336
v 689.256958 -182.865173 931.298645
v 689.997498 -181.471375 931.298645
v 689.997498 -181.471375 987.707336
v 690.280151 -180.939072 931.298645
v 691.761108 -178.151382 931.298645
v 691.761108 -178.151382 987.707336
v 690.280151 -180.939072 987.707336
v 692.043762 -177.619171 987.707336
v 692.043762 -177.619171 931.298645
v 692.784302 -176.225372 931.298645
v 692.784302 -176.225372 987.707336
v 693.067017 -175.693085 931.298645
v 694.547852 -172.905380 931.298645
v 694.547852 -172.905380 987.707336
v 693.067017 -175.693085 987.707336
v 694.830566 -172.373184 931.298645
v 695.571045 -170.979279 931.298645
v 695.571045 -170.979279 987.707336
v 694.830566 -172.373184 987.707336
v 695.853760 -170.447083 987.707336
v 695.853760 -170.447083 931.298645
v 697.334717 -167.659378 931.298645
v 697.334717 -167.659378 987.707336
v 697.617371 -167.127182 987.707336
v 697.617371 -167.127182 931.298645
v 698.357910 -165.733276 931.298645
v 698.357910 -165.733276 987.707336
v 698.640564 -165.201080 987.707336
v 698.640564 -165.201080 931.298645
v 700.861877 -161.019577 931.298645
v 700.861877 -161.019577 987.707336
vt 0.000000 5.666670
vt 0.000000 0.000000
vt 0.750000 0.000000
vt 0.750000 5.666670
vt 0.000000 0.000000
vt 0.250000 0.000000
vt 0.250000 5.666670
vt 0.000000 5.666670
vt 0.000000 0.000000
vt 0.500000 0.000000
vt 0.500000 5.666670
vt 0.000000 5.666670
vt 0.000000 5.666670
vt 0.000000 0.000000
vt 0.250000 0.000000
vt 0.250000 5.666670
vt 0.000000 0.000000
vt 0.500000 0.000000
vt 0.500000 5.666670
vt 0.000000 5.666670
vt 0.000000 0.000000
vt 0.250000 0.000000
vt 0.250000 5.666670
vt 0.000000 5.666670
vt 0.000000 0.000000
vt 0.750000 0.000000
vt 0.750000 5.666670
vt 0.000000 5.666670
vt 0.000000 0.000000
vt 0.750000 0.000000
vt 0.750000 5.666670
vt 0.000000 5.666670
vt 0.000000 5.666670
vt 0.000000 0.000000
vt 0.250000 0.000000
vt 0.250000 5.666670
vt 0.000000 5.666670
vt 0.000000 0.000000
vt 1.250000 0.000000
vt 1.250000 5.666670
vt 0.000000 0.000000
vt 0.750000 0.000000
vt 0.750000 5.666670
vt 0.000000 5.666670
vt 0.000000 0.000000
vt 0.250000 0.000000
vt 0.250000 5.666670
vt 0.000000 5.666670
vt 0.000000 5.666670
vt 0.000000 0.000000
vt 0.250000 0.000000
vt 0.250000 5.666670
vt 0.000000 0.000000
vt 0.250000 0.000000
vt 0.250000 5.666670
vt 0.000000 5.666670
vt 0.000000 0.000000
vt 0.750000 0.000000
vt 0.750000 5.666670
vt 0.000000 5.666670
vt 0.000000 0.000000
vt 0.750000 0.000000
vt 0.750000 5.666670
vt 0.000000 5.666670
vt 0.000000 5.666670
vt 0.000000 0.000000
vt 0.250000 0.000000
vt 0.250000 5.666670
vt 0.000000 0.000000
vt 0.500000 0.000000
vt 0.500000 5.666670
vt 0.000000 5.666670
vt 0.000000 5.666670
vt 0.000000 0.000000
vt 0.250000 0.000000
vt 0.250000 5.666670
vt 0.000000 0.000000
vt 0.500000 0.000000
vt 0.500000 5.666670
vt 0.000000 5.666670
vt 0.000000 0.000000
vt 0.250000 0.000000
vt 0.250000 5.666670
vt 0.000000 5.666670
vt 0.000000 5.666670
vt 0.000000 0.000000
vt 0.500000 0.000000
vt 0.500000 5.666670
vt 0.000000 5.666670
vt 0.000000 0.000000
vt 0.250000 0.000000
vt 0.250000 5.666670
vt 0.000000 5.666670
vt 0.000000 0.000000
vt 0.750000 0.000000
vt 0.750000 5.666670
vt 0.000000 0.000000
vt 0.750000 0.000000
vt 0.750000 5.666670
vt 0.000000 5.666670
vn -0.8805 0.4740 0.0000
vn -0.4742 -0.8804 0.0000
vn -0.4722 -0.8815 0.0000
vn -0.4721 -0.8815 0.0000
vn -0.4815 -0.8765 0.0000
vn 0.4746 0.8802 0.0000
vn 0.4747 0.8802 0.0000
vn 0.8831 -0.4691 0.0000
vn 0.8831 -0.4692 0.0000
vn 0.8831 -0.4693 0.0000
vn -0.8807 0.4737 0.0000
s off
f 1/1/1 2/2/1 3/3/1
f 1/1/1 3/3/1 4/4/1
f 5/5/1 6/6/1 7/7/1
f 8/8/1 5/5/1 7/7/1
f 9/9/1 10/10/1 11/11/1
f 12/12/1 9/9/1 11/11/1
f 13/13/1 14/14/1 15/15/1
f 13/13/1 15/15/1 16/16/1
f 17/17/1 18/18/1 19/19/1
f 20/20/1 17/17/1 19/19/1
f 21/21/1 22/22/1 23/23/1
f 24/24/1 21/21/1 23/23/1
f 25/25/1 26/26/1 27/27/1
f 28/28/1 25/25/1 27/27/1
f 29/29/2 30/30/2 31/31/2
f 32/32/2 29/29/2 31/31/2
f 33/33/3 34/34/3 35/35/3
f 33/33/4 35/35/4 36/36/4
f 41/37/5 42/38/5 43/39/5
f 41/37/5 43/39/5 44/40/5
f 45/41/6 46/42/6 47/43/6
f 48/44/6 45/41/6 47/43/6
f 49/45/6 50/46/6 51/47/6
f 52/48/6 49/45/6 51/47/6
f 53/49/6 54/50/6 55/51/6
f 53/49/7 55/51/7 56/52/7
f 57/53/7 58/54/7 59/55/7
f 60/56/7 57/53/7 59/55/7
f 61/57/6 62/58/6 63/59/6
f 64/60/7 61/57/7 63/59/7
f 65/61/8 66/62/8 67/63/8
f 68/64/8 65/61/8 67/63/8
f 69/65/9 70/66/9 71/67/9
f 69/65/9 71/67/9 72/68/9
f 73/69/9 74/70/9 75/71/9
f 76/72/9 73/69/9 75/71/9
f 77/73/10 78/74/10 79/75/10
f 77/73/8 79/75/8 80/76/8
f 81/77/8 82/78/8 83/79/8
f 84/80/8 81/77/8 83/79/8
f 85/81/9 86/82/9 87/83/9
f 88/84/8 85/81/8 87/83/8
f 89/85/9 90/86/9 91/87/9
f 89/85/9 91/87/9 92/88/9
f 93/89/9 94/90/9 95/91/9
f 93/89/9 95/91/9 96/92/9
f 97/93/8 98/94/8 99/95/8
f 97/93/8 99/95/8 100/96/8
s 1
f 37/97/11 38/98/11 39/99/11
f 40/100/11 37/97/11 39/99/11
