# Blender v3.0.1 OBJ File: 'rockerfeller_plaza.blend'
# www.blender.org
o geometryt000010000010000110010110000110000110100000010100st107
v 809.699158 -237.901489 148.437027
v 802.080872 -252.045792 148.437027
v 799.116089 -250.448288 148.437027
v 802.079163 -233.804779 148.437027
v 798.759888 -251.029785 148.437027
v 795.752136 -248.644592 148.437027
v 798.224609 -251.457886 148.437027
v 797.222595 -251.680588 148.437027
v 795.440552 -250.158188 148.437027
v 797.905396 -251.594879 148.437027
v 796.256653 -251.369888 148.437027
v 796.884460 -251.640091 148.437027
v 795.761536 -250.898285 148.437027
v 795.580750 -250.600586 148.437027
v 795.578247 -248.935287 148.437027
v 795.391724 -249.592484 148.437027
v 794.112427 -247.753281 148.437027
v 793.739624 -248.357178 148.437027
v 793.170471 -248.774582 148.437027
v 790.824829 -245.981979 148.437027
v 792.834229 -248.900681 148.437027
v 791.456360 -248.739090 148.437027
v 792.125793 -248.953384 148.437027
v 790.704956 -248.003983 148.437027
v 791.158630 -248.542786 148.437027
v 790.477600 -247.329391 148.437027
v 790.520081 -246.629486 148.437027
v 779.552002 -239.918381 148.437027
v 783.651550 -223.727890 148.437027
v 779.386902 -240.242279 148.437027
v 776.065308 -238.449188 148.437027
v 776.238953 -238.136292 148.437027
v 778.911743 -240.758591 148.437027
v 778.265320 -241.065887 148.437027
v 776.887451 -240.904282 148.437027
v 777.565308 -241.118378 148.437027
v 775.896057 -239.139481 148.437027
v 776.333496 -240.455582 148.437027
v 775.988647 -239.837891 148.437027
v 774.590820 -237.245087 148.437027
v 774.234741 -237.837692 148.437027
v 773.043335 -238.462189 148.437027
v 771.218445 -235.441483 148.437027
v 773.080688 -225.016891 148.437027
v 773.984253 -238.073792 148.437027
v 773.380188 -238.391678 148.437027
v 772.359253 -238.436890 148.437027
v 771.731384 -238.166580 148.437027
v 771.236267 -237.694992 148.437027
v 770.930176 -236.055481 148.437027
v 770.870544 -236.733383 148.437027
v 771.055542 -237.397385 148.437027
v 768.313171 -233.876587 148.437027
v 775.997559 -219.609390 148.437027
v 785.816528 -219.716980 148.437027
v 804.301758 -229.670990 148.437027
v 783.651550 -223.727890 190.037018
v 802.079163 -233.804779 190.037018
v 804.301758 -229.670990 190.037018
v 790.824829 -245.981979 190.037018
v 794.112427 -247.753281 190.037018
v 795.752136 -248.644592 190.037018
v 799.116089 -250.448288 190.037018
v 809.699158 -237.901489 190.037018
v 785.816528 -219.716980 190.037018
v 775.997559 -219.609390 190.037018
v 773.080688 -225.016891 190.037018
v 774.590820 -237.245087 190.037018
v 776.238953 -238.136292 190.037018
v 779.552002 -239.918381 190.037018
v 768.313171 -233.876587 190.037018
v 771.218445 -235.441483 190.037018
v 770.930176 -236.055481 190.037018
v 773.043335 -238.462189 190.037018
v 770.870544 -236.733383 190.037018
v 771.236267 -237.694992 190.037018
v 771.055542 -237.397385 190.037018
v 771.731384 -238.166580 190.037018
v 772.359253 -238.436890 190.037018
v 773.984253 -238.073792 190.037018
v 773.380188 -238.391678 190.037018
v 774.234741 -237.837692 190.037018
v 776.065308 -238.449188 190.037018
v 775.896057 -239.139481 190.037018
v 778.265320 -241.065887 190.037018
v 779.386902 -240.242279 190.037018
v 776.887451 -240.904282 190.037018
v 775.988647 -239.837891 190.037018
v 776.333496 -240.455582 190.037018
v 777.565308 -241.118378 190.037018
v 778.911743 -240.758591 190.037018
v 790.520081 -246.629486 190.037018
v 790.704956 -248.003983 190.037018
v 791.456360 -248.739090 190.037018
v 793.170471 -248.774582 190.037018
v 790.477600 -247.329391 190.037018
v 791.158630 -248.542786 190.037018
v 792.125793 -248.953384 190.037018
v 792.834229 -248.900681 190.037018
v 793.739624 -248.357178 190.037018
v 795.578247 -248.935287 190.037018
v 795.440552 -250.158188 190.037018
v 798.759888 -251.029785 190.037018
v 795.391724 -249.592484 190.037018
v 795.580750 -250.600586 190.037018
v 795.761536 -250.898285 190.037018
v 796.256653 -251.369888 190.037018
v 797.222595 -251.680588 190.037018
v 796.884460 -251.640091 190.037018
v 798.224609 -251.457886 190.037018
v 797.905396 -251.594879 190.037018
v 802.080872 -252.045792 190.037018
vt 0.412560 0.123510
vt 0.440730 0.107820
vt 0.438760 0.101880
vt 0.407530 0.108240
vt 0.439930 0.101150
vt 0.436550 0.095140
vt 0.440880 0.100060
vt 0.441610 0.098040
vt 0.439400 0.094480
vt 0.441230 0.099410
vt 0.441350 0.096100
vt 0.441640 0.097350
vt 0.440650 0.095110
vt 0.440160 0.094750
vt 0.437130 0.094790
vt 0.438390 0.094390
vt 0.435450 0.091860
vt 0.436670 0.091090
vt 0.437610 0.089940
vt 0.433270 0.085270
vt 0.437940 0.089260
vt 0.438090 0.086480
vt 0.438260 0.087830
vt 0.436990 0.084980
vt 0.437820 0.085890
vt 0.435830 0.084540
vt 0.434550 0.084640
vt 0.425820 0.062690
vt 0.395050 0.071340
vt 0.426460 0.062350
vt 0.424260 0.055700
vt 0.423630 0.056060
vt 0.427550 0.061380
vt 0.428320 0.060070
vt 0.428460 0.057300
vt 0.428640 0.058660
vt 0.425570 0.055340
vt 0.427820 0.056190
vt 0.426810 0.055510
vt 0.422530 0.052760
vt 0.423720 0.052030
vt 0.425240 0.049610
vt 0.420320 0.046000
vt 0.400760 0.050000
vt 0.424230 0.051520
vt 0.425000 0.050290
vt 0.425410 0.048230
vt 0.425120 0.046970
vt 0.424420 0.045990
vt 0.421530 0.045410
vt 0.422780 0.045270
vt 0.423930 0.045630
vt 0.418400 0.040180
vt 0.389990 0.056010
vt 0.387070 0.075800
vt 0.399300 0.112820
vt 0.395050 0.071340
vt 0.407530 0.108240
vt 0.399300 0.112820
vt 0.433270 0.085270
vt 0.435450 0.091860
vt 0.436550 0.095140
vt 0.438760 0.101880
vt 0.412560 0.123510
vt 0.387070 0.075800
vt 0.389990 0.056010
vt 0.400760 0.050000
vt 0.422530 0.052760
vt 0.423630 0.056060
vt 0.425820 0.062690
vt 0.418400 0.040180
vt 0.420320 0.046000
vt 0.421530 0.045410
vt 0.425240 0.049610
vt 0.422780 0.045270
vt 0.424420 0.045990
vt 0.423930 0.045630
vt 0.425120 0.046970
vt 0.425410 0.048230
vt 0.424230 0.051520
vt 0.425000 0.050290
vt 0.423720 0.052030
vt 0.424260 0.055700
vt 0.425570 0.055340
vt 0.428320 0.060070
vt 0.426460 0.062350
vt 0.428460 0.057300
vt 0.426810 0.055510
vt 0.427820 0.056190
vt 0.428640 0.058660
vt 0.427550 0.061380
vt 0.434550 0.084640
vt 0.436990 0.084980
vt 0.438090 0.086480
vt 0.437610 0.089940
vt 0.435830 0.084540
vt 0.437820 0.085890
vt 0.438260 0.087830
vt 0.437940 0.089260
vt 0.436670 0.091090
vt 0.437130 0.094790
vt 0.439400 0.094480
vt 0.439930 0.101150
vt 0.438390 0.094390
vt 0.440160 0.094750
vt 0.440650 0.095110
vt 0.441350 0.096100
vt 0.441610 0.098040
vt 0.441640 0.097350
vt 0.440880 0.100060
vt 0.441230 0.099410
vt 0.440730 0.107820
vn -0.0000 0.0000 -1.0000
vn -0.0001 0.0000 -1.0000
vn 0.0001 0.0000 -1.0000
vn -0.0002 0.0000 -1.0000
vn 0.0002 0.0000 -1.0000
vn 0.0000 0.0000 1.0000
vn 0.0001 0.0000 1.0000
vn -0.0001 0.0000 1.0000
vn 0.0002 0.0000 1.0000
vn 0.0006 0.0000 1.0000
s off
f 1/1/1 2/2/1 3/3/1
f 3/3/1 4/4/1 1/1/1
f 3/3/1 5/5/1 6/6/1
f 3/3/1 6/6/1 4/4/1
f 5/5/1 7/7/1 8/8/1
f 9/9/1 5/5/1 8/8/1
f 6/6/1 5/5/1 9/9/1
f 8/8/2 7/7/2 10/10/2
f 11/11/3 8/8/3 12/12/3
f 11/11/1 9/9/1 8/8/1
f 11/11/1 13/13/1 9/9/1
f 14/14/1 9/9/1 13/13/1
f 15/15/2 9/9/2 16/16/2
f 15/15/1 6/6/1 9/9/1
f 6/6/1 17/17/1 4/4/1
f 18/18/1 19/19/1 17/17/1
f 17/17/1 19/19/1 20/20/1
f 17/17/1 20/20/1 4/4/1
f 19/19/1 21/21/1 22/22/1
f 20/20/1 19/19/1 22/22/1
f 22/22/1 21/21/1 23/23/1
f 24/24/4 22/22/4 25/25/4
f 24/24/1 20/20/1 22/22/1
f 26/26/1 27/27/1 24/24/1
f 24/24/1 27/27/1 20/20/1
f 20/20/1 28/28/1 29/29/1
f 4/4/1 20/20/1 29/29/1
f 28/28/1 30/30/1 31/31/1
f 28/28/1 31/31/1 32/32/1
f 29/29/1 28/28/1 32/32/1
f 30/30/1 33/33/1 34/34/1
f 31/31/1 30/30/1 34/34/1
f 35/35/1 34/34/1 36/36/1
f 37/37/1 34/34/1 35/35/1
f 31/31/1 34/34/1 37/37/1
f 38/38/5 39/39/5 35/35/5
f 39/39/1 37/37/1 35/35/1
f 29/29/1 32/32/1 40/40/1
f 41/41/1 42/42/1 40/40/1
f 40/40/1 42/42/1 43/43/1
f 40/40/1 43/43/1 44/44/1
f 29/29/1 40/40/1 44/44/1
f 41/41/1 45/45/1 42/42/1
f 45/45/1 46/46/1 42/42/1
f 42/42/1 47/47/1 48/48/1
f 42/42/1 48/48/1 49/49/1
f 42/42/1 49/49/1 50/50/1
f 43/43/1 42/42/1 50/50/1
f 51/51/2 49/49/2 52/52/2
f 50/50/1 49/49/1 51/51/1
f 43/43/1 53/53/1 44/44/1
f 29/29/1 44/44/1 54/54/1
f 29/29/1 55/55/1 56/56/1
f 4/4/1 29/29/1 56/56/1
f 57/57/6 58/58/6 59/59/6
f 60/60/6 58/58/6 57/57/6
f 61/61/6 58/58/6 60/60/6
f 62/62/6 58/58/6 61/61/6
f 62/62/6 63/63/6 58/58/6
f 63/63/6 64/64/6 58/58/6
f 57/57/6 59/59/6 65/65/6
f 66/66/6 67/67/6 57/57/6
f 67/67/6 68/68/6 57/57/6
f 68/68/6 69/69/6 57/57/6
f 69/69/6 70/70/6 57/57/6
f 70/70/6 60/60/6 57/57/6
f 67/67/6 71/71/6 72/72/6
f 67/67/6 72/72/6 68/68/6
f 72/72/6 73/73/6 74/74/6
f 68/68/6 72/72/6 74/74/6
f 73/73/6 75/75/6 76/76/6
f 74/74/6 73/73/6 76/76/6
f 76/76/6 75/75/6 77/77/6
f 78/78/6 74/74/6 76/76/6
f 74/74/6 78/78/6 79/79/6
f 80/80/7 74/74/7 81/81/7
f 82/82/8 74/74/8 80/80/8
f 82/82/7 68/68/7 74/74/7
f 69/69/6 83/83/6 70/70/6
f 83/83/6 84/84/6 85/85/6
f 86/86/6 83/83/6 85/85/6
f 70/70/6 83/83/6 86/86/6
f 87/87/8 84/84/8 88/88/8
f 85/85/6 84/84/6 87/87/6
f 89/89/6 87/87/6 88/88/6
f 90/90/6 85/85/6 87/87/6
f 91/91/6 86/86/6 85/85/6
f 92/92/8 93/93/8 60/60/8
f 93/93/6 94/94/6 60/60/6
f 94/94/6 95/95/6 60/60/6
f 95/95/6 61/61/6 60/60/6
f 92/92/9 96/96/9 93/93/9
f 93/93/7 97/97/7 94/94/7
f 94/94/6 98/98/6 99/99/6
f 94/94/6 99/99/6 95/95/6
f 95/95/7 100/100/7 61/61/7
f 101/101/6 102/102/6 62/62/6
f 62/62/6 102/102/6 103/103/6
f 62/62/6 103/103/6 63/63/6
f 104/104/6 102/102/6 101/101/6
f 102/102/10 105/105/10 106/106/10
f 107/107/8 102/102/8 106/106/8
f 108/108/6 102/102/6 107/107/6
f 103/103/6 102/102/6 108/108/6
f 109/109/6 108/108/6 107/107/6
f 110/110/6 108/108/6 111/111/6
f 110/110/6 103/103/6 108/108/6
f 63/63/6 112/112/6 64/64/6
