# Blender v3.0.1 OBJ File: 'rockerfeller_plaza.blend'
# www.blender.org
o geometryt000010000010000110010110000110000110100100010010st15_7
v 1093.626099 -229.778168 1082.763428
v 1093.626099 -229.778168 1012.387512
v 1095.009033 -230.513565 1012.387512
v 1095.009033 -230.513565 1082.763428
v 1095.737549 -230.900955 1082.763428
v 1095.737549 -230.900955 1012.387512
v 1098.503418 -232.371658 1012.387512
v 1098.503418 -232.371658 1082.763428
v 1099.231934 -232.759064 1082.763428
v 1099.231934 -232.759064 1012.387512
v 1101.997803 -234.229767 1012.387512
v 1101.997803 -234.229767 1082.763428
v 1102.726318 -234.617065 1082.763428
v 1102.726318 -234.617065 1012.387512
v 1105.492188 -236.087860 1012.387512
v 1105.492188 -236.087860 1082.763428
v 1106.220703 -236.475159 1012.387512
v 1107.603760 -237.210556 1012.387512
v 1107.603760 -237.210556 1082.763428
v 1106.220703 -236.475159 1082.763428
v 1094.235596 -227.937759 1082.763428
v 1094.235596 -227.937759 1024.763428
v 1093.486450 -229.313263 1024.763428
v 1093.486450 -229.313263 1082.763428
v 1095.246948 -226.081070 1082.763428
v 1095.246948 -226.081070 1024.763428
v 1094.497803 -227.456558 1024.763428
v 1094.497803 -227.456558 1082.763428
v 1096.258179 -224.224457 1024.763428
v 1095.509033 -225.599960 1024.763428
v 1095.509033 -225.599960 1082.763428
v 1096.258179 -224.224457 1082.763428
v 1097.269531 -222.367767 1082.763428
v 1097.269531 -222.367767 1024.763428
v 1096.520264 -223.743256 1024.763428
v 1096.520264 -223.743256 1082.763428
v 1098.280762 -220.511169 1082.763428
v 1098.280762 -220.511169 1024.763428
v 1097.531616 -221.886658 1024.763428
v 1097.531616 -221.886658 1082.763428
v 1100.129272 -221.113159 1076.763428
v 1098.749756 -220.371460 1076.763428
v 1098.749756 -220.371460 1082.763428
v 1100.129272 -221.113159 1082.763428
v 1103.674561 -223.019058 1076.763428
v 1100.915405 -221.535767 1076.763428
v 1100.915405 -221.535767 1082.763428
v 1103.674561 -223.019058 1082.763428
v 1108.599487 -225.666565 1076.763428
v 1104.460693 -223.441666 1076.763428
v 1104.460693 -223.441666 1082.763428
v 1108.599487 -225.666565 1082.763428
v 1112.144775 -227.572464 1076.763428
v 1109.385620 -226.089157 1076.763428
v 1109.385620 -226.089157 1082.763428
v 1112.144775 -227.572464 1082.763428
v 1117.069702 -230.219955 1082.763428
v 1117.069702 -230.219955 1076.763428
v 1112.930908 -227.995056 1076.763428
v 1112.930908 -227.995056 1082.763428
v 1120.614990 -232.125870 1076.763428
v 1117.855957 -230.642563 1076.763428
v 1117.855957 -230.642563 1082.763428
v 1120.614990 -232.125870 1082.763428
v 1122.780884 -233.290070 1082.763428
v 1122.780884 -233.290070 1076.763428
v 1121.401245 -232.548462 1076.763428
v 1121.401245 -232.548462 1082.763428
v 1102.923096 -246.627869 1012.387512
v 1102.180298 -248.006866 1012.387512
v 1102.180298 -248.006866 1082.763428
v 1102.923096 -246.627869 1082.763428
v 1104.777832 -243.184357 1082.763428
v 1104.777832 -243.184357 1012.387512
v 1103.292358 -245.942261 1012.387512
v 1103.292358 -245.942261 1082.763428
v 1106.632690 -239.740860 1082.763428
v 1106.632690 -239.740860 1012.387512
v 1105.147095 -242.498764 1012.387512
v 1105.147095 -242.498764 1082.763428
v 1107.744751 -237.676270 1012.387512
v 1107.001953 -239.055267 1012.387512
v 1107.001953 -239.055267 1082.763428
v 1107.744751 -237.676270 1082.763428
v 1102.320557 -248.474060 1082.763428
v 1102.320557 -248.474060 1076.763428
v 1103.699951 -249.215958 1076.763428
v 1103.699951 -249.215958 1082.763428
v 1104.375000 -249.578964 1076.763428
v 1107.133789 -251.062866 1076.763428
v 1107.133789 -251.062866 1082.763428
v 1104.375000 -249.578964 1082.763428
v 1107.808716 -251.425858 1082.763428
v 1107.808716 -251.425858 1076.763428
v 1110.567505 -252.909760 1076.763428
v 1110.567505 -252.909760 1082.763428
v 1111.242554 -253.272766 1076.763428
v 1112.016724 -253.689163 1076.763428
v 1111.242554 -253.272766 1082.763428
v 1112.621948 -254.014755 1082.763428
v 1112.621948 -254.014755 1076.763428
vt 0.000000 4.250000
vt 0.000000 0.000000
vt 0.250000 0.000000
vt 0.250000 4.250000
vt 0.000000 4.250000
vt 0.000000 0.000000
vt 0.500000 0.000000
vt 0.500000 4.250000
vt 0.000000 3.500000
vt 0.000000 0.000000
vt 0.250000 0.000000
vt 0.250000 3.500000
vt 0.000000 3.500000
vt 0.000000 0.000000
vt 0.250000 0.000000
vt 0.250000 3.500000
vt 0.000000 0.000000
vt 0.250000 0.000000
vt 0.250000 3.500000
vt 0.000000 3.500000
vt 0.000000 3.500000
vt 0.000000 0.000000
vt 0.250000 0.000000
vt 0.250000 3.500000
vt 0.000000 3.500000
vt 0.000000 0.000000
vt 0.250000 0.000000
vt 0.250000 3.500000
vt 0.000000 0.000000
vt 0.250000 0.000000
vt 0.250000 0.250000
vt 0.000000 0.250000
vt 0.000000 0.000000
vt 0.500000 0.000000
vt 0.500000 0.250000
vt 0.000000 0.250000
vt 0.000000 0.000000
vt 0.750000 0.000000
vt 0.750000 0.250000
vt 0.000000 0.250000
vt 0.000000 0.000000
vt 0.500000 0.000000
vt 0.500000 0.250000
vt 0.000000 0.250000
vt 0.000000 0.250000
vt 0.000000 0.000000
vt 0.750000 0.000000
vt 0.750000 0.250000
vt 0.000000 0.250000
vt 0.000000 0.000000
vt 0.250000 0.000000
vt 0.250000 0.250000
vt 0.000000 4.250000
vt 0.000000 0.000000
vt 0.500000 0.000000
vt 0.500000 4.250000
vt 0.000000 4.250000
vt 0.000000 0.000000
vt 0.500000 0.000000
vt 0.500000 4.250000
vt 0.000000 0.000000
vt 0.250000 0.000000
vt 0.250000 4.250000
vt 0.000000 4.250000
vt 0.000000 0.250000
vt 0.000000 0.000000
vt 0.250000 0.000000
vt 0.250000 0.250000
vt 0.000000 0.000000
vt 0.500000 0.000000
vt 0.500000 0.250000
vt 0.000000 0.250000
vt 0.000000 0.250000
vt 0.000000 0.000000
vt 0.500000 0.000000
vt 0.500000 0.250000
vt 0.000000 0.000000
vt 0.140310 0.000000
vt 0.000000 0.250000
vt 0.250000 0.250000
vt 0.250000 0.000000
vt 0.000000 4.250000
vt 0.000000 0.000000
vt 0.500000 0.000000
vt 0.500000 4.250000
vt 0.000000 4.250000
vt 0.000000 0.000000
vt 0.500000 0.000000
vt 0.500000 4.250000
vt 0.000000 0.000000
vt 0.250000 0.000000
vt 0.250000 4.250000
vt 0.000000 4.250000
vt 0.000000 0.000000
vt 0.500000 0.000000
vt 0.500000 0.250000
vt 0.000000 0.250000
vt 0.000000 0.000000
vt 0.250000 0.000000
vt 0.250000 4.250000
vt 0.000000 4.250000
vn -0.4695 -0.8829 0.0000
vn -0.8782 0.4783 0.0000
vn -0.8781 0.4784 0.0000
vn 0.4736 0.8808 0.0000
vn 0.4735 0.8808 0.0000
vn 0.4734 0.8808 0.0000
vn -0.8804 0.4742 0.0000
vn -0.8803 0.4744 0.0000
vn -0.4737 -0.8807 0.0000
vn -0.4736 -0.8807 0.0000
vn -0.4738 -0.8806 0.0000
vn -0.8804 0.4743 0.0000
s off
f 1/1/1 2/2/1 3/3/1
f 1/1/1 3/3/1 4/4/1
f 13/5/1 14/6/1 15/7/1
f 13/5/1 15/7/1 16/8/1
f 21/9/2 22/10/2 23/11/2
f 21/9/2 23/11/2 24/12/2
f 25/13/3 26/14/3 27/15/3
f 25/13/2 27/15/2 28/16/2
f 29/17/2 30/18/2 31/19/2
f 32/20/2 29/17/2 31/19/2
f 33/21/3 34/22/3 35/23/3
f 33/21/2 35/23/2 36/24/2
f 37/25/2 38/26/2 39/27/2
f 37/25/3 39/27/3 40/28/3
f 41/29/4 42/30/4 43/31/4
f 44/32/5 41/29/5 43/31/5
f 45/33/5 46/34/5 47/35/5
f 48/36/5 45/33/5 47/35/5
f 49/37/5 50/38/5 51/39/5
f 52/40/5 49/37/5 51/39/5
f 53/41/5 54/42/5 55/43/5
f 56/44/5 53/41/5 55/43/5
f 57/45/5 58/46/5 59/47/5
f 57/45/5 59/47/5 60/48/5
f 65/49/5 66/50/5 67/51/5
f 65/49/6 67/51/6 68/52/6
f 73/53/7 74/54/7 75/55/7
f 73/53/7 75/55/7 76/56/7
f 77/57/7 78/58/7 79/59/7
f 77/57/7 79/59/7 80/60/7
f 81/61/7 82/62/7 83/63/7
f 84/64/8 81/61/8 83/63/8
f 85/65/9 86/66/9 87/67/9
f 85/65/9 87/67/9 88/68/9
f 89/69/9 90/70/9 91/71/9
f 92/72/9 89/69/9 91/71/9
f 93/73/9 94/74/9 95/75/9
f 93/73/9 95/75/9 96/76/9
f 97/77/10 98/78/10 99/79/10
f 100/80/11 98/78/11 101/81/11
f 99/79/9 98/78/9 100/80/9
s 1
f 5/82/1 6/83/1 7/84/1
f 5/82/1 7/84/1 8/85/1
f 9/86/1 10/87/1 11/88/1
f 9/86/1 11/88/1 12/89/1
f 17/90/1 18/91/1 19/92/1
f 20/93/1 17/90/1 19/92/1
f 61/94/5 62/95/5 63/96/5
f 64/97/5 61/94/5 63/96/5
f 69/98/12 70/99/12 71/100/7
f 72/101/7 69/98/12 71/100/7
