# Blender v3.0.1 OBJ File: 'rockerfeller_plaza.blend'
# www.blender.org
o geometryt000010000010000110010110000110000100110010110010st48
v 234.528412 -311.235474 304.065430
v 234.528412 -311.235474 291.998840
v 238.295609 -314.066071 291.998840
v 238.295609 -314.066071 304.065430
v 234.726105 -309.014160 304.065430
v 234.726105 -309.014160 291.998840
v 233.978806 -310.395660 291.998840
v 233.978806 -310.395660 304.065430
v 236.549210 -305.643860 304.065430
v 236.549210 -305.643860 291.998840
v 235.054611 -308.406860 291.998840
v 235.054611 -308.406860 304.065430
v 237.625000 -303.655060 304.065430
v 237.625000 -303.655060 291.998840
v 236.877701 -305.036560 291.998840
v 236.877701 -305.036560 304.065430
v 240.195511 -298.903259 291.998840
v 237.953506 -303.047882 291.998840
v 237.953506 -303.047882 304.065430
v 240.195511 -298.903259 304.065430
v 241.271301 -296.914459 304.065430
v 241.271301 -296.914459 291.998840
v 240.523911 -298.295959 291.998840
v 240.523911 -298.295959 304.065430
v 243.841705 -292.162659 304.065430
v 243.841705 -292.162659 291.998840
v 241.599701 -296.307159 291.998840
v 241.599701 -296.307159 304.065430
v 244.917511 -290.173859 304.065430
v 244.917511 -290.173859 291.998840
v 244.170212 -291.555359 291.998840
v 244.170212 -291.555359 304.065430
v 246.740601 -286.803558 291.998840
v 245.246002 -289.566559 291.998840
v 245.246002 -289.566559 304.065430
v 246.740601 -286.803558 304.065430
v 247.816406 -284.814758 304.065430
v 247.816406 -284.814758 291.998840
v 247.069107 -286.196259 291.998840
v 247.069107 -286.196259 304.065430
v 239.173599 -314.298981 304.065430
v 239.173599 -314.298981 291.998840
v 239.921112 -312.917572 291.998840
v 239.921112 -312.917572 304.065430
v 240.213699 -312.376678 304.065430
v 240.213699 -312.376678 291.998840
v 241.708603 -309.613770 291.998840
v 241.708603 -309.613770 304.065430
v 242.001312 -309.072968 304.065430
v 242.001312 -309.072968 291.998840
v 242.748703 -307.691467 291.998840
v 242.748703 -307.691467 304.065430
v 243.041412 -307.150665 291.998840
v 245.283813 -303.006256 291.998840
v 245.283813 -303.006256 304.065430
v 243.041412 -307.150665 304.065430
v 245.576401 -302.465363 304.065430
v 245.576401 -302.465363 291.998840
v 247.071304 -299.702484 291.998840
v 247.071304 -299.702484 304.065430
v 247.364014 -299.161682 291.998840
v 249.606400 -295.017273 291.998840
v 249.606400 -295.017273 304.065430
v 247.364014 -299.161682 304.065430
v 249.899002 -294.476471 304.065430
v 249.899002 -294.476471 291.998840
v 250.646500 -293.094971 291.998840
v 250.646500 -293.094971 304.065430
v 250.939102 -292.554169 304.065430
v 250.939102 -292.554169 291.998840
v 252.434006 -289.791168 291.998840
v 252.434006 -289.791168 304.065430
v 252.726700 -289.250366 304.065430
v 252.726700 -289.250366 291.998840
v 253.474106 -287.868866 291.998840
v 253.474106 -287.868866 304.065430
v 252.882706 -287.157562 304.065430
v 252.882706 -287.157562 291.998840
v 248.736206 -284.919159 291.998840
v 248.736206 -284.919159 304.065430
vt 0.000000 0.750000
vt 0.000000 0.000000
vt 0.187500 0.000000
vt 0.187500 0.750000
vt 0.000000 0.750000
vt 0.000000 0.000000
vt 0.062500 0.000000
vt 0.062500 0.750000
vt 0.000000 0.750000
vt 0.000000 0.000000
vt 0.125000 0.000000
vt 0.125000 0.750000
vt 0.000000 0.750000
vt 0.000000 0.000000
vt 0.062500 0.000000
vt 0.062500 0.750000
vt 0.000000 0.750000
vt 0.000000 0.000000
vt 0.062500 0.000000
vt 0.062500 0.750000
vt 0.000000 0.750000
vt 0.000000 0.000000
vt 0.187500 0.000000
vt 0.187500 0.750000
vt 0.000000 0.750000
vt 0.000000 0.000000
vt 0.062500 0.000000
vt 0.062500 0.750000
vt 0.000000 0.000000
vt 0.125000 0.000000
vt 0.125000 0.750000
vt 0.000000 0.750000
vt 0.000000 0.750000
vt 0.000000 0.000000
vt 0.062500 0.000000
vt 0.062500 0.750000
vt 0.000000 0.750000
vt 0.000000 0.000000
vt 0.062500 0.000000
vt 0.062500 0.750000
vt 0.000000 0.750000
vt 0.000000 0.000000
vt 0.125000 0.000000
vt 0.125000 0.750000
vt 0.000000 0.750000
vt 0.000000 0.000000
vt 0.062500 0.000000
vt 0.062500 0.750000
vt 0.000000 0.000000
vt 0.187500 0.000000
vt 0.187500 0.750000
vt 0.000000 0.750000
vt 0.000000 0.750000
vt 0.000000 0.000000
vt 0.125000 0.000000
vt 0.125000 0.750000
vt 0.000000 0.000000
vt 0.187500 0.000000
vt 0.187500 0.750000
vt 0.000000 0.750000
vt 0.000000 0.750000
vt 0.000000 0.000000
vt 0.062500 0.000000
vt 0.062500 0.750000
vt 0.000000 0.750000
vt 0.000000 0.000000
vt 0.125000 0.000000
vt 0.125000 0.750000
vt 0.000000 0.750000
vt 0.000000 0.000000
vt 0.062500 0.000000
vt 0.062500 0.750000
vt 0.000000 0.750000
vt 0.000000 0.000000
vt 0.187500 0.000000
vt 0.187500 0.750000
vt 0.000000 0.000000
vt 0.187500 0.000000
vt 0.187500 0.750000
vt 0.000000 0.750000
vn -0.6007 -0.7995 0.0000
vn -0.8796 0.4758 0.0000
vn -0.8795 0.4758 0.0000
vn 0.8795 -0.4759 0.0000
vn 0.8795 -0.4758 0.0000
vn 0.4750 0.8800 0.0000
s off
f 1/1/1 2/2/1 3/3/1
f 1/1/1 3/3/1 4/4/1
f 5/5/2 6/6/2 7/7/2
f 5/5/2 7/7/2 8/8/2
f 9/9/2 10/10/2 11/11/2
f 9/9/2 11/11/2 12/12/2
f 13/13/2 14/14/2 15/15/2
f 13/13/2 15/15/2 16/16/2
f 21/17/3 22/18/3 23/19/3
f 21/17/3 23/19/3 24/20/3
f 25/21/2 26/22/2 27/23/2
f 25/21/2 27/23/2 28/24/2
f 29/25/2 30/26/2 31/27/2
f 29/25/2 31/27/2 32/28/2
f 33/29/2 34/30/2 35/31/2
f 36/32/2 33/29/2 35/31/2
f 37/33/2 38/34/2 39/35/2
f 37/33/2 39/35/2 40/36/2
f 41/37/4 42/38/4 43/39/4
f 41/37/4 43/39/4 44/40/4
f 45/41/4 46/42/4 47/43/4
f 45/41/4 47/43/4 48/44/4
f 49/45/5 50/46/5 51/47/5
f 49/45/5 51/47/5 52/48/5
f 53/49/4 54/50/4 55/51/4
f 56/52/4 53/49/4 55/51/4
f 57/53/4 58/54/4 59/55/4
f 57/53/4 59/55/4 60/56/4
f 61/57/4 62/58/4 63/59/4
f 64/60/4 61/57/4 63/59/4
f 65/61/4 66/62/4 67/63/4
f 65/61/4 67/63/4 68/64/4
f 69/65/4 70/66/4 71/67/4
f 69/65/4 71/67/4 72/68/4
f 73/69/5 74/70/5 75/71/5
f 73/69/5 75/71/5 76/72/5
f 77/73/6 78/74/6 79/75/6
f 77/73/6 79/75/6 80/76/6
s 1
f 17/77/2 18/78/2 19/79/2
f 20/80/2 17/77/2 19/79/2
