# Blender v3.0.1 OBJ File: 'rockerfeller_plaza.blend'
# www.blender.org
o geometryt000010000010000110010110000110000110100000010100st211
v 834.756836 -225.107986 146.929199
v 832.769043 -224.043091 146.929199
v 834.296997 -221.149780 146.929199
v 835.165100 -219.585388 146.929199
v 837.478577 -215.283981 146.929199
v 847.313843 -209.551483 146.929199
v 835.184326 -232.086288 146.929199
v 831.947632 -230.336578 146.929199
v 839.783997 -211.015991 146.929199
v 842.080872 -206.737091 146.929199
v 834.756836 -225.107986 166.329193
v 831.947632 -230.336578 166.329193
v 835.184326 -232.086288 166.329193
v 847.313843 -209.551483 166.329193
v 842.080872 -206.737091 166.329193
v 839.783997 -211.015991 166.329193
v 837.478577 -215.283981 166.329193
v 835.165100 -219.585388 166.329193
v 834.296997 -221.149780 166.329193
v 832.769043 -224.043091 166.329193
vt 0.381310 0.174310
vt 0.380010 0.170330
vt 0.374260 0.173480
vt 0.371130 0.175270
vt 0.362570 0.180030
vt 0.349010 0.199990
vt 0.393880 0.175010
vt 0.391720 0.168530
vt 0.354070 0.184780
vt 0.345550 0.189510
vt 0.381310 0.174310
vt 0.391720 0.168530
vt 0.393880 0.175010
vt 0.349010 0.199990
vt 0.345550 0.189510
vt 0.354070 0.184780
vt 0.362570 0.180030
vt 0.371130 0.175270
vt 0.374260 0.173480
vt 0.380010 0.170330
vn -0.0000 0.0000 -1.0000
vn 0.0000 0.0000 1.0000
s off
f 1/1/1 2/2/1 3/3/1
f 4/4/1 1/1/1 3/3/1
f 5/5/1 1/1/1 4/4/1
f 6/6/1 1/1/1 5/5/1
f 7/7/1 1/1/1 6/6/1
f 8/8/1 1/1/1 7/7/1
f 9/9/1 6/6/1 5/5/1
f 10/10/1 6/6/1 9/9/1
f 11/11/2 12/12/2 13/13/2
f 14/14/2 11/11/2 13/13/2
f 15/15/2 16/16/2 14/14/2
f 16/16/2 17/17/2 14/14/2
f 14/14/2 17/17/2 11/11/2
f 11/11/2 17/17/2 18/18/2
f 18/18/2 19/19/2 11/11/2
f 11/11/2 19/19/2 20/20/2
