# Blender v3.0.1 OBJ File: 'rockerfeller_plaza.blend'
# www.blender.org
o geometryt000010000010000110010110000110000110100000110000st130
v 864.635254 -248.888443 426.167572
v 864.471436 -249.192139 450.005768
v 864.635254 -248.888443 450.005768
v 868.290955 -242.114136 426.167572
v 864.471436 -249.192139 424.305756
v 868.290955 -242.114136 450.005768
v 868.747864 -241.267441 450.005768
v 868.747864 -241.267441 426.167572
v 869.479065 -239.912643 426.167572
v 869.479065 -239.912643 450.005768
v 869.935974 -239.065933 450.005768
v 869.935974 -239.065933 426.167572
v 873.591675 -232.291641 426.167572
v 873.591675 -232.291641 450.005768
v 874.048584 -231.444946 450.005768
v 874.048584 -231.444946 426.167572
v 879.056152 -222.165436 424.305756
v 874.779663 -230.090134 426.167572
v 874.779663 -230.090134 450.005768
v 875.236572 -229.243439 450.005768
v 875.236572 -229.243439 426.167572
v 878.892273 -222.469131 426.167572
v 878.892273 -222.469131 450.005768
v 879.056152 -222.165436 450.005768
v 869.148865 -251.720139 426.167572
v 869.763184 -252.052139 450.005768
v 869.148865 -251.720139 450.005768
v 865.085632 -249.524139 426.167572
v 867.672974 -250.922440 424.305756
v 869.763184 -252.052139 424.305756
v 865.085632 -249.524139 450.005768
v 864.471436 -249.192139 450.005768
v 864.471436 -249.192139 424.305756
v 872.388062 -247.179245 426.167572
v 872.821472 -246.374542 450.005768
v 872.388062 -247.179245 450.005768
v 869.764160 -252.050232 424.305756
v 870.197632 -251.245544 426.167572
v 872.821472 -246.374542 424.305756
v 870.197632 -251.245544 450.005768
v 869.764160 -252.050232 450.005768
v 874.849854 -247.467941 426.167572
v 875.523071 -247.830734 450.005768
v 874.849854 -247.467941 450.005768
v 873.494629 -246.737442 426.167572
v 875.523071 -247.830734 424.305756
v 873.494629 -246.737442 450.005768
v 872.821472 -246.374542 450.005768
v 872.821472 -246.374542 424.305756
v 886.878174 -226.783432 426.167572
v 887.041931 -226.479843 450.005768
v 886.878174 -226.783432 450.005768
v 883.223145 -233.558243 426.167572
v 887.041931 -226.479843 424.305756
v 883.223145 -233.558243 450.005768
v 882.379028 -235.122833 450.005768
v 882.379028 -235.122833 426.167572
v 880.186035 -239.187744 426.167572
v 875.523071 -247.830734 424.305756
v 880.186035 -239.187744 450.005768
v 879.341858 -240.752335 450.005768
v 879.341858 -240.752335 426.167572
v 875.686829 -247.527145 426.167572
v 875.686829 -247.527145 450.005768
v 875.523071 -247.830734 450.005768
v 879.662720 -222.493240 426.167572
v 879.056152 -222.165436 450.005768
v 879.662720 -222.493240 450.005768
v 886.435364 -226.152145 426.167572
v 879.056152 -222.165436 424.305756
v 886.435364 -226.152145 450.005768
v 887.041931 -226.479843 450.005768
v 887.041931 -226.479843 424.305756
vt 121.870796 10.009800
vt 165.111694 0.000000
vt 163.256805 10.009800
vt 165.111694 138.171997
vt 121.870796 138.171997
vt 116.698402 138.171997
vt 116.698402 10.009800
vt 108.421204 138.171997
vt 103.248802 138.171997
vt 108.421204 10.009800
vt 103.248802 10.009800
vt 61.862839 10.009800
vt 61.862839 138.171997
vt 56.690441 138.171997
vt 56.690441 10.009800
vt 0.000000 0.000000
vt 48.413239 10.009800
vt 48.413239 138.171997
vt 43.240841 138.171997
vt 43.240841 10.009800
vt 1.854840 10.009800
vt 0.000000 138.171997
vt 28.585569 10.009800
vt 32.339531 138.171997
vt 28.585569 138.171997
vt 3.753970 10.009800
vt 19.565451 0.000000
vt 32.339531 0.000000
vt 3.753970 138.171997
vt 0.000000 138.171997
vt 0.000000 0.000000
vt 29.745640 10.009800
vt 34.659691 138.171997
vt 29.745640 138.171997
vt 0.000000 0.000000
vt 4.914040 10.009800
vt 34.659691 0.000000
vt 4.914040 138.171997
vt 0.000000 138.171997
vt 12.388650 10.009800
vt 16.500111 138.171997
vt 12.388650 138.171997
vt 4.111460 10.009800
vt 16.500111 0.000000
vt 4.111460 138.171997
vt 0.000000 138.171997
vt 0.000000 0.000000
vt 128.575195 10.009800
vt 130.429993 138.171997
vt 128.575195 138.171997
vt 130.429993 0.000000
vt 87.189171 138.171997
vt 77.630798 138.171997
vt 87.189171 10.009800
vt 77.630798 10.009800
vt 43.240841 10.009800
vt 0.000000 0.000000
vt 52.799198 10.009800
vt 1.854840 10.009800
vt 1.854840 138.171997
vt 0.000000 138.171997
vt 45.092918 10.009800
vt 48.799839 138.171997
vt 45.092918 138.171997
vt 3.706920 10.009800
vt 48.799839 0.000000
vt 3.706920 138.171997
vt 0.000000 138.171997
vt 0.000000 0.000000
vt 163.256805 138.171997
vt 1.854840 138.171997
vt 52.799198 138.171997
vt 43.240841 138.171997
vn -0.8800 0.4749 -0.0000
vn -0.8800 0.4750 0.0000
vn -0.8801 0.4749 0.0000
vn -0.8801 0.4748 -0.0001
vn -0.8801 0.4749 -0.0002
vn -0.8801 0.4748 0.0000
vn -0.4754 -0.8797 0.0000
vn -0.4755 -0.8797 -0.0000
vn -0.4756 -0.8796 0.0000
vn -0.4754 -0.8798 0.0000
vn 0.8805 -0.4741 0.0000
vn 0.8804 -0.4743 0.0000
vn 0.8804 -0.4742 -0.0000
vn 0.8803 -0.4743 0.0000
vn -0.4743 -0.8803 0.0000
vn -0.4745 -0.8803 -0.0000
vn -0.4746 -0.8802 0.0000
vn -0.4745 -0.8802 0.0000
vn 0.8802 -0.4746 0.0000
vn 0.8801 -0.4747 0.0000
vn 0.8801 -0.4748 0.0000
vn 0.8801 -0.4747 -0.0001
vn 0.4754 0.8798 0.0000
vn 0.4753 0.8798 0.0000
vn 0.4755 0.8797 0.0000
vn -0.8801 0.4748 0.0001
vn -0.8800 0.4749 0.0002
vn -0.8801 0.4748 0.0004
vn 0.8801 -0.4748 0.0004
vn 0.8801 -0.4749 0.0000
vn 0.8799 -0.4751 0.0000
s off
f 4/1/1 5/2/1 1/3/1
f 2/4/2 1/3/2 5/2/2
f 6/5/3 7/6/3 4/1/3
f 7/6/3 8/7/3 4/1/3
f 8/7/4 5/2/4 4/1/4
f 10/8/3 11/9/3 9/10/3
f 11/9/3 12/11/3 9/10/3
f 12/11/3 13/12/3 5/2/3
f 14/13/3 15/14/3 13/12/3
f 15/14/2 16/15/2 13/12/2
f 16/15/2 17/16/2 13/12/2
f 13/12/1 17/16/1 5/2/1
f 18/17/5 17/16/5 16/15/5
f 19/18/2 20/19/2 18/17/2
f 20/19/3 21/20/3 18/17/3
f 22/21/1 17/16/1 21/20/1
f 24/22/6 17/16/6 22/21/6
f 25/23/7 26/24/7 27/25/7
f 28/26/8 29/27/8 25/23/8
f 29/27/7 30/28/7 25/23/7
f 26/24/8 25/23/8 30/28/8
f 31/29/9 32/30/9 28/26/9
f 32/30/10 33/31/10 28/26/10
f 33/31/8 29/27/8 28/26/8
f 34/32/11 35/33/11 36/34/11
f 37/35/12 34/32/12 38/36/12
f 37/35/13 39/37/13 34/32/13
f 35/33/14 34/32/14 39/37/14
f 40/38/13 41/39/13 38/36/13
f 41/39/12 37/35/12 38/36/12
f 42/40/15 43/41/15 44/42/15
f 45/43/16 46/44/16 42/40/16
f 43/41/16 42/40/16 46/44/16
f 47/45/17 48/46/17 45/43/17
f 48/46/18 49/47/18 45/43/18
f 49/47/16 46/44/16 45/43/16
f 50/48/19 51/49/19 52/50/19
f 51/49/20 50/48/20 54/51/20
f 55/52/21 56/53/21 53/54/21
f 56/53/21 57/55/21 53/54/21
f 57/55/21 54/51/21 53/54/21
f 62/56/22 59/57/22 58/58/22
f 63/59/21 59/57/21 62/56/21
f 64/60/19 65/61/19 63/59/19
f 66/62/23 67/63/23 68/64/23
f 69/65/24 70/66/24 66/62/24
f 67/63/25 66/62/25 70/66/25
f 71/67/24 72/68/24 69/65/24
f 72/68/23 73/69/23 69/65/23
f 73/69/24 70/66/24 69/65/24
s 1
f 1/3/6 2/4/6 3/70/6
f 8/7/2 9/10/26 5/2/27
f 9/10/26 12/11/26 5/2/27
f 21/20/28 17/16/28 18/17/28
f 23/71/3 24/22/3 22/21/3
f 53/54/21 54/51/21 50/48/21
f 58/58/29 59/57/21 57/55/21
f 57/55/21 59/57/21 54/51/21
f 60/72/30 61/73/30 58/58/21
f 61/73/30 62/56/21 58/58/21
f 65/61/31 59/57/31 63/59/31
