# Blender v3.0.1 OBJ File: 'rockerfeller_plaza.blend'
# www.blender.org
o geometryt000010000010000110010110000110000110100100010000st12_H
v 784.366943 -230.431885 1146.694702
v 784.366943 -230.431885 976.028137
v 789.790527 -233.739777 976.028137
v 789.790527 -233.739777 1146.694702
v 784.907654 -228.499283 976.028137
v 784.138000 -229.888474 976.028137
v 784.138000 -229.888474 1146.694702
v 784.907654 -228.499283 1146.694702
v 787.782471 -223.309784 976.028137
v 785.473633 -227.477478 976.028137
v 785.473633 -227.477478 1146.694702
v 787.782471 -223.309784 1146.694702
v 789.887634 -219.509476 976.028137
v 788.348450 -222.287979 976.028137
v 788.348450 -222.287979 1146.694702
v 789.887634 -219.509476 1146.694702
v 792.762451 -214.319977 1146.694702
v 792.762451 -214.319977 976.028137
v 790.453674 -218.487778 976.028137
v 790.453674 -218.487778 1146.694702
v 794.098083 -211.908981 976.028137
v 793.328491 -213.298279 976.028137
v 793.328491 -213.298279 1146.694702
v 794.098083 -211.908981 1146.694702
v 790.501709 -234.123978 1146.694702
v 790.501709 -234.123978 976.028137
v 791.898804 -234.879379 976.028137
v 791.898804 -234.879379 1146.694702
v 792.398376 -235.149384 976.028137
v 796.589600 -237.415375 976.028137
v 796.589600 -237.415375 1146.694702
v 792.398376 -235.149384 1146.694702
v 797.089111 -237.685471 976.028137
v 804.074524 -241.462173 976.028137
v 804.074524 -241.462173 1146.694702
v 797.089111 -237.685471 1146.694702
v 804.574097 -241.732178 1146.694702
v 804.574097 -241.732178 976.028137
v 807.368225 -243.242874 976.028137
v 807.368225 -243.242874 1146.694702
v 807.867798 -243.512985 1146.694702
v 807.867798 -243.512985 976.028137
v 812.059021 -245.778976 976.028137
v 812.059021 -245.778976 1146.694702
v 812.558594 -246.049072 1146.694702
v 812.558594 -246.049072 976.028137
v 815.352722 -247.559677 976.028137
v 815.352722 -247.559677 1146.694702
v 815.852295 -247.829773 1146.694702
v 815.852295 -247.829773 976.028137
v 818.646423 -249.340485 976.028137
v 818.646423 -249.340485 1146.694702
v 819.444824 -249.772079 1146.694702
v 819.145996 -249.610580 976.028137
v 821.940125 -251.121185 976.028137
v 819.145996 -249.610580 1146.694702
v 821.940125 -251.121185 1146.694702
v 822.439697 -251.391281 1146.694702
v 822.439697 -251.391281 976.028137
v 823.836792 -252.146576 976.028137
v 823.836792 -252.146576 1146.694702
v 824.336365 -252.416672 1146.694702
v 824.336365 -252.416672 976.028137
v 828.527588 -254.682678 976.028137
v 828.527588 -254.682678 1146.694702
v 829.027100 -254.952774 976.028137
v 830.424194 -255.708084 976.028137
v 830.424194 -255.708084 1146.694702
v 829.027100 -254.952774 1146.694702
v 830.923767 -255.978180 1146.694702
v 830.923767 -255.978180 976.028137
v 835.114990 -258.244171 976.028137
v 835.114990 -258.244171 1146.694702
v 835.614563 -258.514282 1146.694702
v 835.614563 -258.514282 976.028137
v 837.011597 -259.269592 976.028137
v 837.011597 -259.269592 1146.694702
v 837.511169 -259.539673 1146.694702
v 837.511169 -259.539673 976.028137
v 840.305359 -261.050293 976.028137
v 840.305359 -261.050293 1146.694702
v 840.804932 -261.320374 1146.694702
v 840.804932 -261.320374 976.028137
v 843.599060 -262.831085 976.028137
v 843.599060 -262.831085 1146.694702
v 844.098633 -263.101166 1146.694702
v 844.098633 -263.101166 976.028137
v 846.892761 -264.611786 976.028137
v 846.892761 -264.611786 1146.694702
v 847.392334 -264.881866 976.028137
v 851.583557 -267.147888 976.028137
v 851.583557 -267.147888 1146.694702
v 847.392334 -264.881866 1146.694702
v 854.239502 -268.583893 1146.694702
v 852.083130 -267.417969 976.028137
v 854.877258 -268.928680 976.028137
v 852.083130 -267.417969 1146.694702
v 854.877258 -268.928680 1146.694702
v 855.376831 -269.198669 976.028137
v 862.362244 -272.975372 976.028137
v 862.362244 -272.975372 1146.694702
v 855.376831 -269.198669 1146.694702
v 862.861694 -273.245483 1146.694702
v 862.861694 -273.245483 976.028137
v 867.053040 -275.511383 976.028137
v 867.053040 -275.511383 1146.694702
v 867.552490 -275.781464 976.028137
v 868.949585 -276.536865 976.028137
v 868.949585 -276.536865 1146.694702
v 867.552490 -275.781464 1146.694702
v 795.199524 -209.914780 976.028137
v 794.432007 -211.305176 976.028137
v 794.432007 -211.305176 1146.694702
v 795.199524 -209.914780 1146.694702
v 798.226990 -204.430573 976.028137
v 795.924316 -208.601776 976.028137
v 795.924316 -208.601776 1146.694702
v 798.226990 -204.430573 1146.694702
v 801.254456 -198.946472 976.028137
v 798.951782 -203.117676 976.028137
v 798.951782 -203.117676 1146.694702
v 801.254456 -198.946472 1146.694702
v 802.746826 -196.243073 1146.694702
v 802.746826 -196.243073 976.028137
v 801.979248 -197.633484 976.028137
v 801.979248 -197.633484 1146.694702
v 803.849426 -194.249481 976.028137
v 803.080566 -195.639175 976.028137
v 803.080566 -195.639175 1146.694702
v 803.849426 -194.249481 1146.694702
v 806.711487 -189.076584 1146.694702
v 806.711487 -189.076584 976.028137
v 804.404846 -193.245575 976.028137
v 804.404846 -193.245575 1146.694702
v 808.804626 -185.293381 1146.694702
v 808.804626 -185.293381 976.028137
v 807.266907 -188.072784 976.028137
v 807.266907 -188.072784 1146.694702
v 811.666626 -180.120575 976.028137
v 809.360046 -184.289474 976.028137
v 809.360046 -184.289474 1146.694702
v 811.666626 -180.120575 1146.694702
v 812.990967 -177.726974 1146.694702
v 812.990967 -177.726974 976.028137
v 812.222046 -179.116684 976.028137
v 812.222046 -179.116684 1146.694702
v 814.852661 -178.355270 1146.694702
v 814.852661 -178.355270 976.028137
v 813.460388 -177.591080 976.028137
v 813.460388 -177.591080 1146.694702
v 819.673706 -181.001175 1146.694702
v 819.673706 -181.001175 976.028137
v 815.496887 -178.708771 976.028137
v 815.496887 -178.708771 1146.694702
v 827.279297 -185.175476 976.028137
v 820.317932 -181.354782 976.028137
v 820.317932 -181.354782 1146.694702
v 827.279297 -185.175476 1146.694702
v 829.315796 -186.293182 1146.694702
v 829.315796 -186.293182 976.028137
v 827.923523 -185.528976 976.028137
v 827.923523 -185.528976 1146.694702
v 831.352295 -187.410873 976.028137
v 829.960022 -186.646683 976.028137
v 829.960022 -186.646683 1146.694702
v 831.352295 -187.410873 1146.694702
v 838.957886 -191.585083 976.028137
v 831.996460 -187.764374 976.028137
v 831.996460 -187.764374 1146.694702
v 838.957886 -191.585083 1146.694702
v 843.778931 -194.231079 1146.694702
v 843.778931 -194.231079 976.028137
v 839.602051 -191.938675 976.028137
v 839.602051 -191.938675 1146.694702
v 845.815369 -195.348785 1146.694702
v 845.815369 -195.348785 976.028137
v 844.423096 -194.584671 976.028137
v 844.423096 -194.584671 1146.694702
v 847.897339 -196.464478 1146.694702
v 847.897339 -196.464478 976.028137
v 846.496216 -195.716675 976.028137
v 846.496216 -195.716675 1146.694702
v 851.913269 -198.704178 976.028137
v 849.142090 -197.151779 976.028137
v 849.142090 -197.151779 1146.694702
v 851.913269 -198.704178 1146.694702
v 854.476135 -200.116577 976.028137
v 853.082458 -199.354980 976.028137
v 853.082458 -199.354980 1146.694702
v 854.476135 -200.116577 1146.694702
v 859.645813 -202.941483 1146.694702
v 859.645813 -202.941483 976.028137
v 855.464844 -200.656784 976.028137
v 855.464844 -200.656784 1146.694702
v 867.602905 -207.289474 1146.694702
v 867.602905 -207.289474 976.028137
v 860.634399 -203.481674 976.028137
v 860.634399 -203.481674 1146.694702
v 872.772644 -210.114273 976.028137
v 868.591553 -207.829681 976.028137
v 868.591553 -207.829681 1146.694702
v 872.772644 -210.114273 1146.694702
v 875.154907 -211.416077 976.028137
v 873.761230 -210.654480 976.028137
v 873.761230 -210.654480 1146.694702
v 875.154907 -211.416077 1146.694702
v 869.626099 -276.908783 976.028137
v 875.184143 -279.985474 976.028137
v 875.184143 -279.985474 1146.694702
v 869.626099 -276.908783 1146.694702
v 877.158813 -212.499771 976.028137
v 875.765015 -211.738480 976.028137
v 875.765015 -211.738480 1146.694702
v 877.158813 -212.499771 1146.694702
v 880.524231 -214.337784 1146.694702
v 880.524231 -214.337784 976.028137
v 877.736511 -212.815277 976.028137
v 877.736511 -212.815277 1146.694702
v 882.900696 -215.635773 1146.694702
v 883.889526 -216.175781 976.028137
v 881.101807 -214.653275 976.028137
v 883.889526 -216.175781 1146.694702
v 881.101807 -214.653275 1146.694702
v 885.861023 -217.252579 976.028137
v 884.467224 -216.491272 976.028137
v 884.467224 -216.491272 1146.694702
v 885.861023 -217.252579 1146.694702
v 875.965088 -279.465973 976.028137
v 876.736328 -278.077576 976.028137
v 876.736328 -278.077576 1146.694702
v 875.965088 -279.465973 1146.694702
v 877.238892 -277.172882 976.028137
v 879.552490 -273.007782 976.028137
v 879.552490 -273.007782 1146.694702
v 877.238892 -277.172882 1146.694702
v 880.054993 -272.103088 976.028137
v 880.826233 -270.714691 976.028137
v 880.826233 -270.714691 1146.694702
v 880.054993 -272.103088 1146.694702
v 881.328735 -269.809967 1146.694702
v 881.328735 -269.809967 976.028137
v 883.642334 -265.644867 976.028137
v 883.642334 -265.644867 1146.694702
v 884.144897 -264.740173 976.028137
v 884.916138 -263.351776 976.028137
v 884.916138 -263.351776 1146.694702
v 884.144897 -264.740173 1146.694702
v 885.250610 -262.748383 1146.694702
v 885.250610 -262.748383 976.028137
v 886.019653 -261.358765 976.028137
v 886.019653 -261.358765 1146.694702
v 886.533447 -260.430176 1146.694702
v 886.533447 -260.430176 976.028137
v 888.840332 -256.261292 976.028137
v 888.840332 -256.261292 1146.694702
v 889.354248 -255.332672 976.028137
v 890.892090 -252.553482 976.028137
v 890.892090 -252.553482 1146.694702
v 889.354248 -255.332672 1146.694702
v 891.405884 -251.624878 976.028137
v 893.712830 -247.455978 976.028137
v 893.712830 -247.455978 1146.694702
v 891.405884 -251.624878 1146.694702
v 894.226624 -246.527374 1146.694702
v 894.226624 -246.527374 976.028137
v 894.995605 -245.137772 976.028137
v 894.995605 -245.137772 1146.694702
v 887.859436 -218.346481 1146.694702
v 887.859436 -218.346481 976.028137
v 886.466187 -217.584076 976.028137
v 886.466187 -217.584076 1146.694702
v 893.033447 -221.177582 1146.694702
v 893.033447 -221.177582 976.028137
v 888.853699 -218.890472 976.028137
v 888.853699 -218.890472 1146.694702
v 896.814087 -223.246384 976.028137
v 894.027710 -221.721680 976.028137
v 894.027710 -221.721680 1146.694702
v 896.814087 -223.246384 1146.694702
v 901.988098 -226.077576 1146.694702
v 901.988098 -226.077576 976.028137
v 897.808411 -223.790482 976.028137
v 897.808411 -223.790482 1146.694702
v 904.375610 -227.383972 976.028137
v 902.982422 -226.621674 976.028137
v 902.982422 -226.621674 1146.694702
v 904.375610 -227.383972 1146.694702
v 895.560242 -244.111679 1146.694702
v 895.560242 -244.111679 976.028137
v 898.617432 -238.542877 976.028137
v 898.617432 -238.542877 1146.694702
v 899.181641 -237.516571 976.028137
v 899.948486 -236.125885 976.028137
v 899.948486 -236.125885 1146.694702
v 899.181641 -237.516571 1146.694702
v 900.696228 -234.770279 1146.694702
v 900.696228 -234.770279 976.028137
v 902.997131 -230.598083 976.028137
v 902.997131 -230.598083 1146.694702
v 903.744751 -229.242477 1146.694702
v 903.744751 -229.242477 976.028137
v 904.511719 -227.851685 976.028137
v 904.511719 -227.851685 1146.694702
vt 0.000000 0.000000
vt 0.250000 0.000000
vt 0.250000 19.000000
vt 0.000000 19.000000
vt 0.000000 0.000000
vt 0.750000 0.000000
vt 0.750000 19.000000
vt 0.000000 19.000000
vt 0.000000 0.000000
vt 0.500000 0.000000
vt 0.500000 19.000000
vt 0.000000 19.000000
vt 0.000000 19.000000
vt 0.000000 0.000000
vt 0.750000 0.000000
vt 0.750000 19.000000
vt 0.000000 0.000000
vt 0.250000 0.000000
vt 0.250000 19.000000
vt 0.000000 19.000000
vt 0.000000 22.500000
vt 0.000000 0.000000
vt 0.250000 0.000000
vt 0.250000 22.500000
vt 0.000000 0.000000
vt 0.750000 0.000000
vt 0.750000 22.500000
vt 0.000000 22.500000
vt 0.000000 0.000000
vt 1.250000 0.000000
vt 1.250000 22.500000
vt 0.000000 22.500000
vt 0.000000 22.500000
vt 0.000000 0.000000
vt 0.500000 0.000000
vt 0.500000 22.500000
vt 0.000000 22.500000
vt 0.000000 0.000000
vt 0.750000 0.000000
vt 0.750000 22.500000
vt 0.000000 22.500000
vt 0.000000 0.000000
vt 0.500000 0.000000
vt 0.500000 22.500000
vt 0.000000 22.500000
vt 0.000000 0.000000
vt 0.500000 0.000000
vt 0.500000 22.500000
vt 0.053480 22.500000
vt 0.000000 0.000000
vt 0.500000 0.000000
vt 0.000000 22.500000
vt 0.500000 22.500000
vt 0.000000 22.500000
vt 0.000000 0.000000
vt 0.250000 0.000000
vt 0.250000 22.500000
vt 0.000000 0.000000
vt 0.250000 0.000000
vt 0.250000 22.500000
vt 0.000000 22.500000
vt 0.000000 22.500000
vt 0.000000 0.000000
vt 0.750000 0.000000
vt 0.750000 22.500000
vt 0.000000 22.500000
vt 0.000000 0.000000
vt 0.250000 0.000000
vt 0.250000 22.500000
vt 0.000000 22.500000
vt 0.000000 0.000000
vt 0.500000 0.000000
vt 0.500000 22.500000
vt 0.000000 22.500000
vt 0.000000 0.000000
vt 0.500000 0.000000
vt 0.500000 22.500000
vt 0.000000 22.500000
vt 0.000000 0.000000
vt 0.500000 0.000000
vt 0.500000 22.500000
vt 0.000000 0.000000
vt 0.750000 0.000000
vt 0.750000 22.500000
vt 0.000000 22.500000
vt 0.385880 22.500000
vt 0.000000 0.000000
vt 0.500000 0.000000
vt 0.000000 22.500000
vt 0.500000 22.500000
vt 0.000000 0.000000
vt 1.250000 0.000000
vt 1.250000 22.500000
vt 0.000000 22.500000
vt 0.000000 22.500000
vt 0.000000 0.000000
vt 0.750000 0.000000
vt 0.750000 22.500000
vt 0.000000 0.000000
vt 0.250000 0.000000
vt 0.250000 22.500000
vt 0.000000 22.500000
vt 0.000000 0.000000
vt 0.250000 0.000000
vt 0.250000 21.500000
vt 0.000000 21.500000
vt 0.000000 0.000000
vt 0.750000 0.000000
vt 0.750000 21.500000
vt 0.000000 21.500000
vt 0.000000 0.000000
vt 0.750000 0.000000
vt 0.750000 21.500000
vt 0.000000 21.500000
vt 0.000000 21.500000
vt 0.000000 0.000000
vt 0.250000 0.000000
vt 0.250000 21.500000
vt 0.000000 0.000000
vt 0.250000 0.000000
vt 0.250000 17.500000
vt 0.000000 17.500000
vt 0.000000 17.500000
vt 0.000000 0.000000
vt 0.750000 0.000000
vt 0.750000 17.500000
vt 0.000000 17.500000
vt 0.000000 0.000000
vt 0.500000 0.000000
vt 0.500000 17.500000
vt 0.000000 0.000000
vt 0.750000 0.000000
vt 0.750000 17.500000
vt 0.000000 17.500000
vt 0.000000 17.500000
vt 0.000000 0.000000
vt 0.250000 0.000000
vt 0.250000 17.500000
vt 0.000000 17.500000
vt 0.000000 0.000000
vt 0.250000 0.000000
vt 0.250000 17.500000
vt 0.000000 17.500000
vt 0.000000 0.000000
vt 0.750000 0.000000
vt 0.750000 17.500000
vt 0.000000 0.000000
vt 1.250000 0.000000
vt 1.250000 17.500000
vt 0.000000 17.500000
vt 0.000000 17.500000
vt 0.000000 0.000000
vt 0.250000 0.000000
vt 0.250000 17.500000
vt 0.000000 0.000000
vt 0.250000 0.000000
vt 0.250000 17.500000
vt 0.000000 17.500000
vt 0.000000 0.000000
vt 1.250000 0.000000
vt 1.250000 17.500000
vt 0.000000 17.500000
vt 0.000000 17.500000
vt 0.000000 0.000000
vt 0.750000 0.000000
vt 0.750000 17.500000
vt 0.000000 17.500000
vt 0.000000 0.000000
vt 0.250000 0.000000
vt 0.250000 17.500000
vt 0.000000 19.000000
vt 0.000000 0.000000
vt 0.250000 0.000000
vt 0.250000 19.000000
vt 0.000000 0.000000
vt 0.500000 0.000000
vt 0.500000 21.500000
vt 0.000000 21.500000
vt 0.000000 0.000000
vt 0.250000 0.000000
vt 0.250000 19.000000
vt 0.000000 19.000000
vt 0.000000 19.000000
vt 0.000000 0.000000
vt 0.750000 0.000000
vt 0.750000 19.000000
vt 0.000000 19.000000
vt 0.000000 0.000000
vt 1.250000 0.000000
vt 1.250000 19.000000
vt 0.000000 0.000000
vt 0.750000 0.000000
vt 0.750000 19.000000
vt 0.000000 19.000000
vt 0.000000 0.000000
vt 0.250000 0.000000
vt 0.250000 19.000000
vt 0.000000 19.000000
vt 0.000000 0.000000
vt 1.000000 0.000000
vt 1.000000 19.000000
vt 0.000000 19.000000
vt 0.000000 0.000000
vt 0.250000 0.000000
vt 0.250000 22.000000
vt 0.000000 22.000000
vt 0.000000 22.000000
vt 0.000000 0.000000
vt 0.500000 0.000000
vt 0.500000 22.000000
vt 0.177350 22.000000
vt 0.000000 0.000000
vt 0.500000 0.000000
vt 0.000000 22.000000
vt 0.500000 22.000000
vt 0.000000 0.000000
vt 0.250000 0.000000
vt 0.250000 22.000000
vt 0.000000 22.000000
vt 0.000000 0.000000
vt 0.750000 0.000000
vt 0.750000 21.500000
vt 0.000000 21.500000
vt 0.000000 21.500000
vt 0.000000 0.000000
vt 0.750000 0.000000
vt 0.750000 21.500000
vt 0.000000 0.000000
vt 0.250000 0.000000
vt 0.250000 21.500000
vt 0.000000 21.500000
vt 0.000000 0.000000
vt 0.750000 0.000000
vt 0.750000 18.000000
vt 0.000000 18.000000
vt 0.000000 18.000000
vt 0.000000 0.000000
vt 0.250000 0.000000
vt 0.250000 18.000000
vt 0.000000 0.000000
vt 0.500000 0.000000
vt 0.500000 21.500000
vt 0.000000 21.500000
vt 0.000000 0.000000
vt 0.250000 0.000000
vt 0.250000 21.500000
vt 0.000000 21.500000
vt 0.000000 19.000000
vt 0.000000 0.000000
vt 1.000000 0.000000
vt 1.000000 19.000000
vt 0.000000 0.000000
vt 0.250000 0.000000
vt 0.250000 19.000000
vt 0.000000 19.000000
vt 0.000000 19.000000
vt 0.000000 0.000000
vt 0.750000 0.000000
vt 0.750000 19.000000
vt 0.000000 19.000000
vt 0.000000 0.000000
vt 0.250000 0.000000
vt 0.250000 19.000000
vt 0.000000 19.000000
vt 0.000000 0.000000
vt 1.000000 0.000000
vt 1.000000 19.000000
vt 0.000000 22.500000
vt 0.000000 0.000000
vt 0.750000 0.000000
vt 0.750000 22.500000
vt 0.000000 0.000000
vt 0.250000 0.000000
vt 0.250000 21.500000
vt 0.000000 21.500000
vt 0.000000 0.000000
vt 0.250000 0.000000
vt 0.250000 21.500000
vt 0.000000 21.500000
vt 0.000000 18.000000
vt 0.000000 0.000000
vt 0.250000 0.000000
vt 0.250000 18.000000
vt 0.000000 18.000000
vt 0.000000 0.000000
vt 0.750000 0.000000
vt 0.750000 18.000000
vt 0.000000 0.000000
vt 0.500000 0.000000
vt 0.500000 18.000000
vt 0.000000 18.000000
vt 0.000000 21.500000
vt 0.000000 0.000000
vt 0.250000 0.000000
vt 0.250000 21.500000
vt 0.000000 21.500000
vt 0.000000 0.000000
vt 0.750000 0.000000
vt 0.750000 21.500000
vt 0.000000 21.500000
vt 0.000000 0.000000
vt 0.750000 0.000000
vt 0.750000 21.500000
vn -0.8747 0.4846 0.0000
vn -0.8747 0.4847 0.0000
vn -0.8748 0.4846 0.0000
vn -0.8748 0.4845 0.0000
vn -0.4756 -0.8796 0.0000
vn -0.4756 -0.8797 0.0000
vn -0.4754 -0.8797 0.0000
vn -0.4755 -0.8797 0.0000
vn -0.8755 0.4833 0.0000
vn -0.8755 0.4832 0.0000
vn -0.8750 0.4841 0.0000
vn -0.8750 0.4842 0.0000
vn 0.4811 0.8766 0.0000
vn 0.4812 0.8766 0.0000
vn 0.4811 0.8767 0.0000
vn 0.4709 0.8822 0.0000
vn 0.4887 0.8724 0.0000
vn 0.4796 0.8775 0.0000
vn 0.4795 0.8775 0.0000
vn -0.4843 -0.8749 0.0000
vn 0.4794 0.8776 0.0000
vn 0.4793 0.8776 0.0000
vn 0.8742 -0.4856 0.0000
vn 0.8750 -0.4842 0.0000
vn 0.8750 -0.4841 0.0000
vn 0.8749 -0.4842 0.0000
vn 0.4800 0.8772 0.0000
vn 0.4800 0.8773 0.0000
vn 0.8766 -0.4813 0.0000
vn 0.8766 -0.4812 0.0000
vn 0.8757 -0.4829 0.0000
vn 0.8757 -0.4828 0.0000
vn -0.5207 -0.8537 0.0000
s off
f 5/1/1 6/2/1 7/3/1
f 8/4/2 5/1/2 7/3/2
f 9/5/1 10/6/1 11/7/1
f 12/8/1 9/5/1 11/7/1
f 13/9/1 14/10/1 15/11/1
f 16/12/1 13/9/1 15/11/1
f 17/13/3 18/14/3 19/15/3
f 17/13/3 19/15/3 20/16/3
f 21/17/4 22/18/4 23/19/4
f 24/20/3 21/17/3 23/19/3
f 25/21/5 26/22/5 27/23/5
f 25/21/5 27/23/5 28/24/5
f 29/25/6 30/26/6 31/27/6
f 32/28/6 29/25/6 31/27/6
f 33/29/6 34/30/6 35/31/6
f 36/32/6 33/29/6 35/31/6
f 37/33/6 38/34/6 39/35/6
f 37/33/6 39/35/6 40/36/6
f 41/37/6 42/38/6 43/39/6
f 41/37/6 43/39/6 44/40/6
f 45/41/6 46/42/6 47/43/6
f 45/41/6 47/43/6 48/44/6
f 49/45/6 50/46/6 51/47/6
f 49/45/6 51/47/6 52/48/6
f 53/49/6 54/50/6 55/51/6
f 56/52/7 54/50/7 53/49/7
f 53/49/6 55/51/6 57/53/6
f 58/54/6 59/55/6 60/56/6
f 58/54/6 60/56/6 61/57/6
f 66/58/6 67/59/6 68/60/6
f 69/61/6 66/58/6 68/60/6
f 70/62/6 71/63/6 72/64/6
f 70/62/6 72/64/6 73/65/6
f 74/66/6 75/67/6 76/68/6
f 74/66/5 76/68/5 77/69/5
f 78/70/6 79/71/6 80/72/6
f 78/70/6 80/72/6 81/73/6
f 82/74/6 83/75/6 84/76/6
f 82/74/5 84/76/5 85/77/5
f 86/78/6 87/79/6 88/80/6
f 86/78/6 88/80/6 89/81/6
f 90/82/6 91/83/6 92/84/6
f 93/85/6 90/82/6 92/84/6
f 94/86/5 95/87/5 96/88/5
f 97/89/6 95/87/6 94/86/6
f 94/86/8 96/88/8 98/90/8
f 99/91/6 100/92/6 101/93/6
f 102/94/6 99/91/6 101/93/6
f 103/95/6 104/96/6 105/97/6
f 103/95/6 105/97/6 106/98/6
f 107/99/5 108/100/5 109/101/5
f 110/102/5 107/99/5 109/101/5
f 111/103/9 112/104/9 113/105/9
f 114/106/10 111/103/10 113/105/10
f 115/107/9 116/108/9 117/109/9
f 118/110/9 115/107/9 117/109/9
f 119/111/9 120/112/9 121/113/9
f 122/114/9 119/111/9 121/113/9
f 123/115/9 124/116/9 125/117/9
f 123/115/9 125/117/9 126/118/9
f 127/119/11 128/120/11 129/121/11
f 130/122/11 127/119/11 129/121/11
f 131/123/11 132/124/11 133/125/11
f 131/123/11 133/125/11 134/126/11
f 135/127/11 136/128/11 137/129/11
f 135/127/11 137/129/11 138/130/11
f 139/131/11 140/132/11 141/133/11
f 142/134/12 139/131/12 141/133/12
f 143/135/11 144/136/11 145/137/11
f 143/135/12 145/137/12 146/138/12
f 147/139/13 148/140/13 149/141/13
f 147/139/13 149/141/13 150/142/13
f 151/143/14 152/144/14 153/145/14
f 151/143/15 153/145/15 154/146/15
f 155/147/13 156/148/13 157/149/13
f 158/150/13 155/147/13 157/149/13
f 159/151/14 160/152/14 161/153/14
f 159/151/14 161/153/14 162/154/14
f 163/155/13 164/156/13 165/157/13
f 166/158/13 163/155/13 165/157/13
f 167/159/13 168/160/13 169/161/13
f 170/162/13 167/159/13 169/161/13
f 171/163/15 172/164/15 173/165/15
f 171/163/13 173/165/13 174/166/13
f 175/167/15 176/168/15 177/169/15
f 175/167/14 177/169/14 178/170/14
f 179/171/16 180/172/16 181/173/16
f 179/171/16 181/173/16 182/174/16
f 183/175/17 184/176/17 185/177/17
f 186/178/17 183/175/17 185/177/17
f 187/179/18 188/180/18 189/181/18
f 190/182/18 187/179/18 189/181/18
f 191/183/19 192/184/19 193/185/19
f 191/183/19 193/185/19 194/186/19
f 195/187/19 196/188/19 197/189/19
f 195/187/19 197/189/19 198/190/19
f 199/191/19 200/192/19 201/193/19
f 202/194/19 199/191/19 201/193/19
f 203/195/18 204/196/18 205/197/18
f 206/198/19 203/195/19 205/197/19
f 207/199/20 208/200/20 209/201/20
f 210/202/20 207/199/20 209/201/20
f 211/203/21 212/204/21 213/205/21
f 214/206/21 211/203/21 213/205/21
f 215/207/22 216/208/22 217/209/22
f 215/207/22 217/209/22 218/210/22
f 219/211/22 220/212/22 221/213/22
f 222/214/22 220/212/22 219/211/22
f 219/211/22 221/213/22 223/215/22
f 224/216/21 225/217/21 226/218/21
f 227/219/21 224/216/21 226/218/21
f 232/220/23 233/221/23 234/222/23
f 235/223/23 232/220/23 234/222/23
f 240/224/23 241/225/23 242/226/23
f 240/224/23 242/226/23 243/227/23
f 244/228/23 245/229/23 246/230/23
f 247/231/23 244/228/23 246/230/23
f 260/232/24 261/233/24 262/234/24
f 263/235/24 260/232/24 262/234/24
f 264/236/25 265/237/25 266/238/25
f 264/236/26 266/238/26 267/239/26
f 276/240/27 277/241/27 278/242/27
f 279/243/27 276/240/27 278/242/27
f 284/244/28 285/245/28 286/246/28
f 287/247/27 284/244/27 286/246/27
f 288/248/29 289/249/29 290/250/29
f 288/248/30 290/250/30 291/251/30
f 292/252/31 293/253/31 294/254/31
f 295/255/31 292/252/31 294/254/31
f 296/256/31 297/257/31 298/258/31
f 296/256/31 298/258/31 299/259/31
f 300/260/32 301/261/32 302/262/32
f 300/260/31 302/262/31 303/263/31
s 1
f 1/264/33 2/265/33 3/266/33
f 1/264/33 3/266/33 4/267/33
f 62/268/6 63/269/6 64/270/6
f 62/268/6 64/270/6 65/271/6
f 228/272/23 229/273/23 230/274/23
f 231/275/23 228/272/23 230/274/23
f 236/276/23 237/277/23 238/278/23
f 239/279/23 236/276/23 238/278/23
f 248/280/26 249/281/26 250/282/26
f 248/280/26 250/282/26 251/283/26
f 252/284/24 253/285/24 254/286/24
f 252/284/24 254/286/24 255/287/24
f 256/288/24 257/289/24 258/290/24
f 259/291/24 256/288/24 258/290/24
f 268/292/27 269/293/27 270/294/27
f 268/292/27 270/294/27 271/295/27
f 272/296/28 273/297/28 274/298/28
f 272/296/28 274/298/28 275/299/28
f 280/300/28 281/301/27 282/302/27
f 280/300/28 282/302/27 283/303/28
