# Blender v3.0.1 OBJ File: 'rockerfeller_plaza.blend'
# www.blender.org
o geometryt000010000010000110010110000110000110100000100110st116_
v 647.389038 -111.952713 657.181519
v 670.623657 -128.058014 657.181519
v 645.778198 -114.991318 657.181519
v 672.514832 -125.171616 657.181519
v 698.314941 -142.634705 657.181519
v 699.934143 -139.596008 657.181519
v 648.727234 -109.428017 657.181519
v 673.853027 -122.646919 657.181519
v 678.222900 -114.402618 657.181519
v 706.980469 -126.302315 657.181519
v 679.561157 -111.877914 657.181519
v 653.148254 -101.216415 657.181519
v 654.494751 -98.680534 657.181519
v 656.105530 -95.641968 657.181519
v 681.086914 -108.784813 657.181519
v 708.591125 -123.252617 657.181519
v 645.778198 -114.991318 677.181519
v 670.623657 -128.058014 677.181519
v 647.389038 -111.952713 677.181519
v 664.139526 -120.765320 677.181519
v 667.489624 -122.527817 677.181519
v 672.514832 -125.171616 677.181519
v 698.314941 -142.634705 677.181519
v 694.450317 -136.711105 677.181519
v 699.934143 -139.596008 677.181519
v 648.727234 -109.428017 687.181519
v 647.389038 -111.952713 687.181519
v 672.514832 -125.171616 687.181519
v 670.263611 -120.758514 687.181519
v 673.853027 -122.646919 687.181519
v 653.148254 -101.216415 692.181519
v 648.727234 -109.428017 692.181519
v 673.853027 -122.646919 692.181519
v 678.222900 -114.402618 692.181519
v 654.494751 -98.680534 687.181519
v 653.148254 -101.216415 687.181519
v 656.730347 -103.100113 687.181519
v 678.222900 -114.402618 687.181519
v 679.561157 -111.877914 687.181519
v 656.105530 -95.641968 677.181519
v 654.494751 -98.680534 677.181519
v 681.086914 -108.784813 677.181519
v 662.850220 -103.079613 677.181519
v 679.561157 -111.877914 677.181519
v 708.591125 -123.252617 677.181519
v 685.045044 -114.762718 677.181519
v 706.980469 -126.302315 677.181519
v 673.630005 -123.067719 682.181519
v 672.514832 -125.171616 682.181519
v 699.934143 -139.596008 682.181519
v 673.853027 -122.646919 682.181519
v 676.974426 -116.758118 682.181519
v 677.494629 -115.776619 682.181519
v 678.222900 -114.402618 682.181519
v 679.338135 -112.298615 682.181519
v 706.980469 -126.302315 682.181519
v 679.561157 -111.877914 682.181519
vt 0.157960 0.287400
vt 0.179880 0.333860
vt 0.164000 0.284090
vt 0.174030 0.337730
vt 0.197600 0.389330
vt 0.191560 0.392660
vt 0.152940 0.290160
vt 0.169010 0.340490
vt 0.152620 0.349490
vt 0.165130 0.407170
vt 0.147600 0.352250
vt 0.136600 0.299260
vt 0.131550 0.302040
vt 0.125510 0.305350
vt 0.141480 0.355400
vt 0.159070 0.410490
vt 0.164000 0.284090
vt 0.179880 0.333860
vt 0.157960 0.287400
vt 0.168670 0.320960
vt 0.170820 0.327670
vt 0.174030 0.337730
vt 0.197600 0.389330
vt 0.188050 0.381680
vt 0.191560 0.392660
vt 0.152940 0.290160
vt 0.157960 0.287400
vt 0.174030 0.337730
vt 0.166710 0.333300
vt 0.169010 0.340490
vt 0.136600 0.299260
vt 0.152940 0.290160
vt 0.169010 0.340490
vt 0.152620 0.349490
vt 0.131550 0.302040
vt 0.136600 0.299260
vt 0.138880 0.306440
vt 0.152620 0.349490
vt 0.147600 0.352250
vt 0.125510 0.305350
vt 0.131550 0.302040
vt 0.141480 0.355400
vt 0.136900 0.318770
vt 0.147600 0.352250
vt 0.159070 0.410490
vt 0.151100 0.363230
vt 0.165130 0.407170
vt 0.169850 0.340030
vt 0.174030 0.337730
vt 0.191560 0.392660
vt 0.169010 0.340490
vt 0.157300 0.346920
vt 0.155350 0.347990
vt 0.152620 0.349490
vt 0.148430 0.351790
vt 0.165130 0.407170
vt 0.147600 0.352250
vn 0.0000 0.0000 -1.0000
vn 0.0000 0.0000 1.0000
s off
f 1/1/1 2/2/1 3/3/1
f 1/1/1 4/4/1 2/2/1
f 2/2/1 4/4/1 5/5/1
f 5/5/1 4/4/1 6/6/1
f 1/1/1 7/7/1 4/4/1
f 7/7/1 8/8/1 4/4/1
f 4/4/1 8/8/1 6/6/1
f 6/6/1 8/8/1 9/9/1
f 10/10/1 9/9/1 11/11/1
f 10/10/1 6/6/1 9/9/1
f 7/7/1 12/12/1 8/8/1
f 12/12/1 9/9/1 8/8/1
f 12/12/1 13/13/1 9/9/1
f 13/13/1 11/11/1 9/9/1
f 14/14/1 15/15/1 13/13/1
f 13/13/1 15/15/1 11/11/1
f 11/11/1 15/15/1 16/16/1
f 10/10/1 11/11/1 16/16/1
f 17/17/2 18/18/2 19/19/2
f 19/19/2 18/18/2 20/20/2
f 20/20/2 18/18/2 21/21/2
f 21/21/2 18/18/2 22/22/2
f 22/22/2 18/18/2 23/23/2
f 24/24/2 22/22/2 23/23/2
f 25/25/2 24/24/2 23/23/2
f 26/26/2 27/27/2 28/28/2
f 26/26/2 28/28/2 29/29/2
f 29/29/2 28/28/2 30/30/2
f 31/31/2 32/32/2 33/33/2
f 31/31/2 33/33/2 34/34/2
f 35/35/2 36/36/2 37/37/2
f 35/35/2 37/37/2 38/38/2
f 35/35/2 38/38/2 39/39/2
f 40/40/2 41/41/2 42/42/2
f 42/42/2 41/41/2 43/43/2
f 42/42/2 43/43/2 44/44/2
f 45/45/2 42/42/2 44/44/2
f 45/45/2 44/44/2 46/46/2
f 45/45/2 46/46/2 47/47/2
f 48/48/2 49/49/2 50/50/2
f 51/51/2 48/48/2 50/50/2
f 52/52/2 51/51/2 50/50/2
f 53/53/2 52/52/2 50/50/2
f 54/54/2 53/53/2 50/50/2
f 55/55/2 54/54/2 56/56/2
f 56/56/2 54/54/2 50/50/2
f 57/57/2 55/55/2 56/56/2
