# Blender v3.0.1 OBJ File: 'rockerfeller_plaza.blend'
# www.blender.org
o geometryt000010000010000110010110000110000110100000000100st44
v 409.082947 -309.638000 84.937164
v 405.681641 -307.758392 63.319416
v 438.380432 -325.827911 63.319416
v 405.681641 -307.758392 84.937164
v 438.380432 -325.827911 84.937164
v 409.818634 -299.544312 84.937164
v 409.818634 -299.544312 63.319416
v 405.864807 -306.638489 63.319416
v 405.864807 -306.638489 84.937164
v 407.459106 -307.838715 84.937164
v 420.551636 -315.075897 84.937164
v 407.459106 -307.838715 112.937164
v 437.312439 -324.340790 112.937164
v 437.312439 -324.340790 84.937164
v 411.377930 -299.951904 112.937164
v 411.377930 -299.951904 84.937164
v 409.680328 -303.003906 84.937164
v 407.430023 -307.049408 112.937164
v 407.430023 -307.049408 84.937164
v 417.789551 -312.664490 112.937164
v 409.231934 -307.936798 137.937164
v 409.231934 -307.936798 112.937164
v 422.293518 -315.152802 112.937164
v 422.293518 -315.152802 137.937164
v 422.701111 -315.377991 112.937164
v 422.904846 -315.490509 112.937164
v 422.904846 -315.490509 137.937164
v 432.099030 -320.570007 112.937164
v 436.245605 -322.860809 112.937164
v 436.245605 -322.860809 137.937164
v 412.479614 -301.050690 112.937164
v 410.192810 -305.154999 112.937164
v 412.479614 -301.050690 137.937164
v 409.317230 -306.726410 137.937164
v 409.317230 -306.726410 112.937164
v 411.134338 -308.237915 137.937164
v 417.837433 -311.879303 137.937164
v 411.134338 -308.237915 162.937180
v 419.698242 -312.890106 162.937180
v 419.698242 -312.890106 137.937164
v 414.116150 -301.581787 162.937180
v 414.116150 -301.581787 137.937164
v 411.553925 -306.176300 137.937164
v 410.951630 -307.256409 162.937180
v 410.951630 -307.256409 137.937164
v 426.684509 -315.896698 162.937180
v 430.090729 -317.781097 162.937180
v 426.684509 -315.896698 187.937164
v 433.791138 -319.828186 187.937164
v 433.791138 -319.828186 162.937180
v 412.974426 -308.311890 187.937164
v 412.974426 -308.311890 162.937180
v 420.081024 -312.243500 162.937180
v 420.081024 -312.243500 187.937164
v 415.771545 -302.023285 187.937164
v 415.771545 -302.023285 162.937180
v 413.134949 -306.751404 162.937180
v 412.607117 -307.697906 187.937164
v 412.607117 -307.697906 162.937180
v 427.214630 -315.112305 205.937164
v 427.214630 -315.112305 187.937164
v 431.241943 -317.338715 187.937164
v 432.900818 -318.255798 205.937164
v 432.900818 -318.255798 187.937164
v 414.834412 -308.268311 187.937164
v 420.520630 -311.411804 187.937164
v 420.520630 -311.411804 205.937164
v 414.834412 -308.268311 205.937164
v 416.988220 -303.085907 205.937164
v 416.988220 -303.085907 187.937164
v 414.656830 -307.266602 187.937164
v 414.614929 -307.341797 205.937164
v 414.614929 -307.341797 187.937164
v 420.743927 -313.466492 162.937180
v 420.743927 -313.466492 137.937164
v 422.049316 -314.197906 137.937164
v 422.160950 -314.260498 162.937180
v 422.160950 -314.260498 137.937164
v 423.731812 -315.132599 162.937180
v 423.731812 -315.132599 137.937164
v 425.010620 -315.847900 137.937164
v 425.594543 -316.174591 137.937164
v 425.594543 -316.174591 162.937180
v 433.057922 -320.349609 137.937164
v 435.072632 -321.476593 137.937164
v 435.072632 -321.476593 162.937180
v 434.062531 -318.013214 205.937164
v 434.062531 -318.013214 187.937164
v 436.417908 -313.786102 187.937164
v 436.434448 -313.756500 205.937164
v 436.434448 -313.756500 187.937164
v 434.717712 -319.842407 187.937164
v 434.717712 -319.842407 162.937180
v 437.376526 -315.074097 162.937180
v 437.881927 -314.167694 187.937164
v 437.881927 -314.167694 162.937180
v 435.959412 -320.999298 162.937180
v 435.959412 -320.999298 137.937164
v 438.540039 -316.371185 137.937164
v 439.123627 -315.324585 162.937180
v 439.123627 -315.324585 137.937164
v 436.868134 -322.800507 112.937164
v 439.558228 -317.962708 112.937164
v 436.868134 -322.800507 137.937164
v 440.815033 -315.702515 137.937164
v 440.815033 -315.702515 112.937164
v 438.034729 -323.884705 112.937164
v 438.034729 -323.884705 84.937164
v 439.729828 -320.841187 84.937164
v 441.986633 -316.789398 112.937164
v 441.986633 -316.789398 84.937164
v 441.338928 -321.309692 84.937164
v 439.272522 -325.019714 63.319416
v 443.224426 -317.924408 63.319416
v 439.272522 -325.019714 84.937164
v 443.224426 -317.924408 84.937164
vt 0.398740 1.500000
vt 0.000000 0.000000
vt 3.833330 0.000000
vt 0.000000 1.500000
vt 3.833330 1.500000
vt 0.000000 1.500000
vt 0.000000 0.000000
vt 0.833330 0.000000
vt 0.833330 1.500000
vt 0.000000 0.000000
vt 1.534960 0.000000
vt 0.000000 2.000000
vt 3.500000 2.000000
vt 3.500000 0.000000
vt 0.000000 2.000000
vt 0.000000 0.000000
vt 0.358330 0.000000
vt 0.833330 2.000000
vt 0.833330 0.000000
vt 1.003160 0.000000
vt 0.000000 1.500000
vt 0.000000 0.000000
vt 1.531140 0.000000
vt 1.531140 1.500000
vt 1.578910 0.000000
vt 1.602800 0.000000
vt 1.602800 1.500000
vt 2.680580 0.000000
vt 3.166670 0.000000
vt 3.166670 1.500000
vt 0.000000 0.000000
vt 0.482090 0.000000
vt 0.000000 1.500000
vt 0.666670 1.500000
vt 0.666670 0.000000
vt 0.000000 0.000000
vt 0.782720 0.000000
vt 0.000000 1.750000
vt 1.000000 1.750000
vt 1.000000 0.000000
vt 0.000000 1.750000
vt 0.000000 0.000000
vt 0.539780 0.000000
vt 0.666670 1.750000
vt 0.666670 0.000000
vt 0.000000 0.000000
vt 0.399410 0.000000
vt 0.000000 2.000000
vt 0.833330 2.000000
vt 0.833330 0.000000
vt 0.000000 2.000000
vt 0.000000 0.000000
vt 0.833330 0.000000
vt 0.833330 2.000000
vt 0.000000 2.000000
vt 0.000000 0.000000
vt 0.555460 0.000000
vt 0.666670 2.000000
vt 0.666670 0.000000
vt 0.000000 1.500000
vt 0.000000 0.000000
vt 0.472170 0.000000
vt 0.666670 1.500000
vt 0.666670 0.000000
vt 0.000000 0.000000
vt 0.666670 0.000000
vt 0.666670 1.500000
vt 0.000000 1.500000
vt 0.000000 1.500000
vt 0.000000 0.000000
vt 0.491160 0.000000
vt 0.500000 1.500000
vt 0.500000 0.000000
vt 0.000000 1.750000
vt 0.000000 0.000000
vt 0.153540 0.000000
vt 0.166670 1.750000
vt 0.166670 0.000000
vt 0.000000 1.750000
vt 0.000000 0.000000
vt 0.150340 0.000000
vt 0.219000 0.000000
vt 0.219000 1.750000
vt 1.096460 0.000000
vt 1.333330 0.000000
vt 1.333330 1.750000
vt 0.000000 1.500000
vt 0.000000 0.000000
vt 0.496520 0.000000
vt 0.500000 1.500000
vt 0.500000 0.000000
vt 0.000000 2.000000
vt 0.000000 0.000000
vt 0.560180 0.000000
vt 0.666670 2.000000
vt 0.666670 0.000000
vt 0.000000 1.750000
vt 0.000000 0.000000
vt 0.543710 0.000000
vt 0.666670 1.750000
vt 0.666670 0.000000
vt 0.000000 2.000000
vt 0.000000 0.000000
vt 0.357450 0.000000
vt 0.833330 2.000000
vt 0.833330 0.000000
vt 0.435730 1.500000
vt 0.000000 0.000000
vt 0.833330 0.000000
vt 0.000000 1.500000
vt 0.833330 1.500000
vt 0.000000 0.000000
vt 0.567970 0.000000
vt 0.000000 1.500000
vt 0.833330 1.500000
vt 0.833330 0.000000
vn -0.4837 -0.8753 -0.0000
vn -0.4837 -0.8752 0.0000
vn -0.8735 0.4868 0.0000
vn -0.4838 -0.8752 0.0000
vn -0.8739 0.4861 0.0000
vn -0.4836 -0.8753 0.0000
vn -0.4834 -0.8754 0.0000
vn -0.4835 -0.8753 0.0000
vn -0.8736 0.4867 0.0000
vn -0.4773 -0.8787 0.0000
vn -0.4774 -0.8787 0.0000
vn -0.8734 0.4871 0.0000
vn -0.8734 0.4870 0.0000
vn -0.4841 -0.8750 0.0000
vn -0.8737 0.4864 0.0000
vn -0.4888 -0.8724 0.0000
vn -0.4885 -0.8726 -0.0000
vn -0.4882 -0.8728 0.0000
vn -0.4883 -0.8727 0.0000
vn -0.4882 -0.8727 -0.0000
vn 0.8735 -0.4868 0.0000
vn 0.8733 -0.4872 0.0000
vn 0.8734 -0.4870 0.0000
vn 0.8734 -0.4871 0.0000
vn 0.8736 -0.4866 0.0000
vn 0.8740 -0.4860 0.0000
s off
f 1/1/1 2/2/1 3/3/1
f 4/4/2 2/2/2 1/1/2
f 1/1/1 3/3/1 5/5/1
f 6/6/3 7/7/3 8/8/3
f 6/6/3 8/8/3 9/9/3
f 10/10/4 11/11/4 12/12/4
f 13/13/4 11/11/4 14/14/4
f 12/12/4 11/11/4 13/13/4
f 15/15/5 16/16/5 17/17/5
f 18/18/5 17/17/5 19/19/5
f 18/18/5 15/15/5 17/17/5
f 20/20/6 21/21/6 22/22/6
f 20/20/6 23/23/6 24/24/6
f 20/20/6 24/24/6 21/21/6
f 24/24/6 23/23/6 25/25/6
f 25/25/7 26/26/7 27/27/7
f 27/27/8 24/24/8 25/25/8
f 27/27/6 26/26/6 28/28/6
f 29/29/6 30/30/6 28/28/6
f 28/28/6 30/30/6 27/27/6
f 31/31/9 32/32/9 33/33/9
f 34/34/9 32/32/9 35/35/9
f 33/33/9 32/32/9 34/34/9
f 36/36/10 37/37/10 38/38/10
f 39/39/10 37/37/10 40/40/10
f 38/38/11 37/37/11 39/39/11
f 41/41/12 42/42/12 43/43/12
f 44/44/12 43/43/12 45/45/12
f 44/44/13 41/41/13 43/43/13
f 46/46/14 47/47/14 48/48/14
f 49/49/14 47/47/14 50/50/14
f 48/48/14 47/47/14 49/49/14
f 51/51/14 52/52/14 53/53/14
f 51/51/14 53/53/14 54/54/14
f 55/55/13 56/56/13 57/57/13
f 58/58/13 57/57/13 59/59/13
f 58/58/13 55/55/13 57/57/13
f 60/60/4 61/61/4 62/62/4
f 63/63/4 62/62/4 64/64/4
f 63/63/4 60/60/4 62/62/4
f 65/65/4 66/66/4 67/67/4
f 68/68/4 65/65/4 67/67/4
f 69/69/12 70/70/12 71/71/12
f 72/72/15 71/71/15 73/73/15
f 72/72/13 69/69/13 71/71/13
f 74/74/16 75/75/16 76/76/16
f 77/77/17 76/76/17 78/78/17
f 77/77/16 74/74/16 76/76/16
f 79/79/18 80/80/18 81/81/18
f 82/82/19 83/83/19 81/81/19
f 83/83/20 79/79/20 81/81/20
f 84/84/20 83/83/20 82/82/20
f 85/85/20 86/86/20 84/84/20
f 84/84/20 86/86/20 83/83/20
f 87/87/21 88/88/21 89/89/21
f 90/90/22 89/89/22 91/91/22
f 90/90/21 87/87/21 89/89/21
f 92/92/23 93/93/23 94/94/23
f 95/95/24 94/94/24 96/96/24
f 95/95/23 92/92/23 94/94/23
f 97/97/23 98/98/23 99/99/23
f 100/100/23 99/99/23 101/101/23
f 100/100/23 97/97/23 99/99/23
f 107/102/25 108/103/25 109/104/25
f 110/105/25 109/104/25 111/106/25
f 110/105/25 107/102/25 109/104/25
f 112/107/25 113/108/25 114/109/25
f 115/110/25 113/108/25 112/107/25
f 112/107/25 114/109/25 116/111/25
s 1
f 102/112/26 103/113/26 104/114/26
f 105/115/26 103/113/26 106/116/26
f 104/114/26 103/113/26 105/115/26
