# Blender v3.0.1 OBJ File: 'rockerfeller_plaza.blend'
# www.blender.org
o geometryt000010000010000110010110000110000100110010010110st72
v 147.838806 -267.982391 19.663851
v 149.308701 -268.774506 19.663851
v 149.308701 -268.774506 22.687731
v 147.838806 -267.982391 22.687731
v 152.175003 -270.319214 19.663851
v 153.644806 -271.111298 19.663851
v 153.644806 -271.111298 22.687731
v 152.175003 -270.319214 22.687731
v 148.492004 -266.045807 19.663851
v 147.699005 -267.515106 19.663851
v 147.699005 -267.515106 22.687731
v 148.492004 -266.045807 22.687731
v 149.633301 -263.931091 19.663851
v 148.840302 -265.400513 19.663851
v 148.840302 -265.400513 22.687731
v 149.633301 -263.931091 22.687731
v 150.774506 -261.816406 19.663851
v 149.981506 -263.285797 19.663851
v 149.981506 -263.285797 22.687731
v 150.774506 -261.816406 22.687731
v 151.915802 -259.701813 22.687731
v 151.915802 -259.701813 19.663851
v 151.122803 -261.171204 19.663851
v 151.122803 -261.171204 22.687731
v 153.057098 -257.587097 19.663851
v 152.264099 -259.056488 19.663851
v 152.264099 -259.056488 22.687731
v 153.057098 -257.587097 22.687731
v 154.994507 -258.239288 19.663851
v 153.524704 -257.447205 19.663851
v 153.524704 -257.447205 22.687731
v 154.994507 -258.239288 22.687731
v 159.330597 -260.576111 22.687731
v 159.330597 -260.576111 19.663851
v 157.860794 -259.783997 19.663851
v 157.860794 -259.783997 22.687731
v 154.115997 -270.973389 19.663851
v 154.909897 -269.504486 19.663851
v 154.909897 -269.504486 22.687731
v 154.115997 -270.973389 22.687731
v 155.444504 -268.515411 22.687731
v 155.193405 -268.980011 19.663851
v 155.987305 -267.511200 19.663851
v 155.193405 -268.980011 22.687731
v 155.987305 -267.511200 22.687731
v 156.270798 -266.986694 19.663851
v 157.064697 -265.517914 19.663851
v 157.064697 -265.517914 22.687731
v 156.270798 -266.986694 22.687731
v 157.348206 -264.993408 19.663851
v 158.142105 -263.524597 19.663851
v 158.142105 -263.524597 22.687731
v 157.348206 -264.993408 22.687731
v 158.574493 -262.715515 22.687731
v 158.574493 -262.715515 19.663851
v 159.363800 -261.244110 19.663851
v 159.363800 -261.244110 22.687731
vt 0.000000 0.000000
vt 0.166670 0.000000
vt 0.166670 0.200000
vt 0.000000 0.200000
vt 0.000000 0.000000
vt 0.166670 0.000000
vt 0.166670 0.200000
vt 0.000000 0.200000
vt 0.000000 0.000000
vt 0.166670 0.000000
vt 0.166670 0.200000
vt 0.000000 0.200000
vt 0.000000 0.000000
vt 0.166670 0.000000
vt 0.166670 0.200000
vt 0.000000 0.200000
vt 0.000000 0.000000
vt 0.166670 0.000000
vt 0.166670 0.200000
vt 0.000000 0.200000
vt 0.000000 0.200000
vt 0.000000 0.000000
vt 0.166670 0.000000
vt 0.166670 0.200000
vt 0.000000 0.000000
vt 0.166670 0.000000
vt 0.166670 0.200000
vt 0.000000 0.200000
vt 0.000000 0.000000
vt 0.166670 0.000000
vt 0.166670 0.200000
vt 0.000000 0.200000
vt 0.000000 0.200000
vt 0.000000 0.000000
vt 0.166670 0.000000
vt 0.166670 0.200000
vt 0.052720 0.200000
vt 0.000000 0.000000
vt 0.166670 0.000000
vt 0.000000 0.200000
vt 0.166670 0.200000
vt 0.000000 0.000000
vt 0.166670 0.000000
vt 0.166670 0.200000
vt 0.000000 0.200000
vt 0.000000 0.000000
vt 0.166670 0.000000
vt 0.166670 0.200000
vt 0.000000 0.200000
vt 0.000000 0.200000
vt 0.000000 0.000000
vt 0.166670 0.000000
vt 0.166670 0.200000
vt 0.000000 0.000000
vt 0.166670 0.000000
vt 0.166670 0.200000
vt 0.000000 0.200000
vn -0.4744 -0.8803 0.0000
vn -0.8800 0.4750 0.0000
vn -0.8800 0.4749 0.0000
vn 0.4744 0.8803 0.0000
vn 0.8797 -0.4755 0.0000
vn 0.8812 -0.4727 0.0000
s off
f 1/1/1 2/2/1 3/3/1
f 4/4/1 1/1/1 3/3/1
f 5/5/1 6/6/1 7/7/1
f 8/8/1 5/5/1 7/7/1
f 9/9/2 10/10/2 11/11/2
f 12/12/2 9/9/2 11/11/2
f 13/13/3 14/14/3 15/15/3
f 16/16/3 13/13/3 15/15/3
f 17/17/3 18/18/3 19/19/3
f 20/20/3 17/17/3 19/19/3
f 21/21/3 22/22/3 23/23/3
f 21/21/3 23/23/3 24/24/3
f 25/25/3 26/26/3 27/27/3
f 28/28/3 25/25/3 27/27/3
f 29/29/4 30/30/4 31/31/4
f 32/32/4 29/29/4 31/31/4
f 33/33/4 34/34/4 35/35/4
f 33/33/4 35/35/4 36/36/4
f 41/37/5 42/38/5 43/39/5
f 44/40/5 42/38/5 41/37/5
f 41/37/5 43/39/5 45/41/5
f 46/42/5 47/43/5 48/44/5
f 49/45/5 46/42/5 48/44/5
f 50/46/5 51/47/5 52/48/5
f 53/49/5 50/46/5 52/48/5
f 54/50/6 55/51/6 56/52/6
f 54/50/6 56/52/6 57/53/6
s 1
f 37/54/5 38/55/5 39/56/5
f 40/57/5 37/54/5 39/56/5
