# Blender v3.0.1 OBJ File: 'rockerfeller_plaza.blend'
# www.blender.org
o geometryt000010000010000110010110000110000110100100010010st0
v 1164.005859 -121.852859 1030.778931
v 1164.005859 -121.852859 1013.176636
v 1166.798462 -123.362160 1013.176636
v 1166.798462 -123.362160 1030.778931
v 1167.685669 -123.841660 1030.778931
v 1167.685669 -123.841660 1013.176636
v 1173.270752 -126.860161 1013.176636
v 1173.270752 -126.860161 1030.778931
v 1174.158081 -127.339760 1030.778931
v 1174.158081 -127.339760 1013.176636
v 1176.950562 -128.848969 1013.176636
v 1176.950562 -128.848969 1030.778931
v 1165.730347 -117.940964 1013.176636
v 1164.219604 -120.732765 1013.176636
v 1164.219604 -120.732765 1030.778931
v 1165.730347 -117.940964 1030.778931
v 1168.875366 -112.099159 1013.176636
v 1167.369629 -114.893661 1013.176636
v 1167.369629 -114.893661 1030.778931
v 1168.875366 -112.099159 1030.778931
v 1172.392822 -105.570763 1030.778931
v 1172.392822 -105.570763 1013.176636
v 1169.381470 -111.159760 1013.176636
v 1169.381470 -111.159760 1030.778931
v 1174.404663 -101.836761 1013.176636
v 1172.899048 -104.631264 1013.176636
v 1172.899048 -104.631264 1030.778931
v 1174.404663 -101.836761 1030.778931
v 1177.913574 -95.393654 1030.778931
v 1177.913574 -95.393654 1013.176636
v 1174.875977 -100.968361 1013.176636
v 1174.875977 -100.968361 1030.778931
v 1177.418091 -128.709564 1030.778931
v 1177.418091 -128.709564 1013.176636
v 1178.927490 -125.917061 1013.176636
v 1178.927490 -125.917061 1030.778931
v 1179.456421 -124.938766 1013.176636
v 1183.229980 -117.957664 1013.176636
v 1183.229980 -117.957664 1030.778931
v 1179.456421 -124.938766 1030.778931
v 1183.758789 -116.979263 1013.176636
v 1185.268311 -114.186859 1013.176636
v 1185.268311 -114.186859 1030.778931
v 1183.758789 -116.979263 1030.778931
v 1185.797119 -113.208565 1013.176636
v 1189.570801 -106.227364 1013.176636
v 1189.570801 -106.227364 1030.778931
v 1185.797119 -113.208565 1030.778931
v 1190.099487 -105.249062 1030.778931
v 1190.099487 -105.249062 1013.176636
v 1191.609009 -102.456665 1013.176636
v 1191.609009 -102.456665 1030.778931
v 1181.317383 -96.502235 1013.176636
v 1178.524902 -94.992966 1013.176636
v 1178.524902 -94.992966 1030.778931
v 1181.317383 -96.502235 1030.778931
v 1187.789795 -100.000259 1013.176636
v 1182.204590 -96.981766 1013.176636
v 1182.204590 -96.981766 1030.778931
v 1187.789795 -100.000259 1030.778931
v 1191.469482 -101.989059 1013.176636
v 1188.677002 -100.479866 1013.176636
v 1188.677002 -100.479866 1030.778931
v 1191.469482 -101.989059 1030.778931
vt 0.000000 1.250000
vt 0.000000 0.000000
vt 0.125000 0.000000
vt 0.125000 1.250000
vt 0.000000 0.000000
vt 0.125000 0.000000
vt 0.125000 1.250000
vt 0.000000 1.250000
vt 0.000000 0.000000
vt 0.125000 0.000000
vt 0.125000 1.250000
vt 0.000000 1.250000
vt 0.000000 1.250000
vt 0.000000 0.000000
vt 0.250000 0.000000
vt 0.250000 1.250000
vt 0.000000 0.000000
vt 0.125000 0.000000
vt 0.125000 1.250000
vt 0.000000 1.250000
vt 0.000000 1.250000
vt 0.000000 0.000000
vt 0.250000 0.000000
vt 0.250000 1.250000
vt 0.000000 1.250000
vt 0.000000 0.000000
vt 0.125000 0.000000
vt 0.125000 1.250000
vt 0.000000 0.000000
vt 0.312500 0.000000
vt 0.312500 1.250000
vt 0.000000 1.250000
vt 0.000000 0.000000
vt 0.125000 0.000000
vt 0.125000 1.250000
vt 0.000000 1.250000
vt 0.000000 0.000000
vt 0.312500 0.000000
vt 0.312500 1.250000
vt 0.000000 1.250000
vt 0.000000 1.250000
vt 0.000000 0.000000
vt 0.125000 0.000000
vt 0.125000 1.250000
vt 0.000000 0.000000
vt 0.125000 0.000000
vt 0.125000 1.250000
vt 0.000000 1.250000
vt 0.000000 0.000000
vt 0.250000 0.000000
vt 0.250000 1.250000
vt 0.000000 1.250000
vt 0.000000 0.000000
vt 0.125000 0.000000
vt 0.125000 1.250000
vt 0.000000 1.250000
vt 0.000000 1.250000
vt 0.000000 0.000000
vt 0.250000 0.000000
vt 0.250000 1.250000
vt 0.000000 1.250000
vt 0.000000 0.000000
vt 0.125000 0.000000
vt 0.125000 1.250000
vn -0.4755 -0.8797 0.0000
vn -0.8795 0.4759 0.0000
vn -0.8803 0.4744 0.0000
vn -0.8804 0.4743 0.0000
vn -0.8803 0.4743 0.0000
vn -0.8781 0.4785 0.0000
vn 0.8797 -0.4756 0.0000
vn 0.8797 -0.4755 0.0000
vn 0.4755 0.8797 0.0000
vn 0.4754 0.8797 0.0000
vn -0.4754 -0.8797 0.0000
s off
f 1/1/1 2/2/1 3/3/1
f 1/1/1 3/3/1 4/4/1
f 13/5/2 14/6/2 15/7/2
f 16/8/2 13/5/2 15/7/2
f 17/9/3 18/10/3 19/11/3
f 20/12/4 17/9/4 19/11/4
f 21/13/4 22/14/4 23/15/4
f 21/13/3 23/15/3 24/16/3
f 25/17/5 26/18/5 27/19/5
f 28/20/4 25/17/4 27/19/4
f 29/21/6 30/22/6 31/23/6
f 29/21/6 31/23/6 32/24/6
f 33/25/7 34/26/7 35/27/7
f 33/25/8 35/27/8 36/28/8
f 37/29/8 38/30/8 39/31/8
f 40/32/8 37/29/8 39/31/8
f 41/33/8 42/34/8 43/35/8
f 44/36/8 41/33/8 43/35/8
f 45/37/8 46/38/8 47/39/8
f 48/40/8 45/37/8 47/39/8
f 49/41/8 50/42/8 51/43/8
f 49/41/8 51/43/8 52/44/8
f 53/45/9 54/46/9 55/47/9
f 56/48/9 53/45/9 55/47/9
f 57/49/9 58/50/9 59/51/9
f 60/52/9 57/49/9 59/51/9
f 61/53/9 62/54/9 63/55/9
f 64/56/10 61/53/10 63/55/10
s 1
f 5/57/1 6/58/1 7/59/1
f 5/57/1 7/59/1 8/60/1
f 9/61/11 10/62/1 11/63/1
f 9/61/11 11/63/1 12/64/11
