# Blender v3.0.1 OBJ File: 'rockerfeller_plaza.blend'
# www.blender.org
o geometryt000010000010000110010110000110000110100000110100st32
v 992.935425 -102.534912 699.508301
v 980.749939 -92.130165 699.508301
v 994.547058 -99.573959 699.508301
v 991.026428 -106.054405 699.508301
v 988.654663 -110.423111 699.508301
v 965.857544 -119.549210 699.508301
v 984.786743 -117.529411 699.508301
v 984.034668 -118.914810 699.508301
v 983.266052 -120.322708 699.508301
v 982.505615 -121.719406 699.508301
v 981.745239 -123.116112 699.508301
v 978.678955 -125.128105 699.508301
v 980.993347 -124.512611 699.508301
v 980.250549 -125.964607 699.508301
v 978.100647 -126.211807 699.508301
v 988.654663 -110.423111 789.508301
v 980.749939 -92.130165 789.508301
v 965.857544 -119.549210 789.508301
v 991.026428 -106.054405 789.508301
v 992.935425 -102.534912 789.508301
v 994.547058 -99.573959 789.508301
v 978.678955 -125.128105 789.508301
v 978.100647 -126.211807 789.508301
v 982.505615 -121.719406 789.508301
v 983.266052 -120.322708 789.508301
v 984.034668 -118.914810 789.508301
v 984.786743 -117.529411 789.508301
v 980.250549 -125.964607 789.508301
v 980.993347 -124.512611 789.508301
v 981.745239 -123.116112 789.508301
vt 0.110000 0.483050
vt 0.094940 0.458740
vt 0.104100 0.486370
vt 0.117010 0.479120
vt 0.125710 0.474240
vt 0.149560 0.428080
vt 0.139870 0.466280
vt 0.142630 0.464730
vt 0.145440 0.463150
vt 0.148220 0.461580
vt 0.151000 0.460020
vt 0.155640 0.453790
vt 0.153780 0.458470
vt 0.156660 0.456940
vt 0.157800 0.452600
vt 0.125710 0.474240
vt 0.094940 0.458740
vt 0.149560 0.428080
vt 0.117010 0.479120
vt 0.110000 0.483050
vt 0.104100 0.486370
vt 0.155640 0.453790
vt 0.157800 0.452600
vt 0.148220 0.461580
vt 0.145440 0.463150
vt 0.142630 0.464730
vt 0.139870 0.466280
vt 0.156660 0.456940
vt 0.153780 0.458470
vt 0.151000 0.460020
vn 0.0000 0.0000 -1.0000
vn 0.0000 0.0000 1.0000
vn 0.0001 0.0000 1.0000
s off
f 1/1/1 2/2/1 3/3/1
f 1/1/1 4/4/1 2/2/1
f 5/5/1 2/2/1 4/4/1
f 6/6/1 5/5/1 7/7/1
f 2/2/1 5/5/1 6/6/1
f 6/6/1 7/7/1 8/8/1
f 6/6/1 8/8/1 9/9/1
f 6/6/1 9/9/1 10/10/1
f 10/10/1 11/11/1 12/12/1
f 6/6/1 10/10/1 12/12/1
f 13/13/1 12/12/1 11/11/1
f 14/14/1 12/12/1 13/13/1
f 15/15/1 6/6/1 12/12/1
f 16/16/2 17/17/2 18/18/2
f 19/19/2 17/17/2 16/16/2
f 20/20/2 17/17/2 19/19/2
f 21/21/2 17/17/2 20/20/2
f 22/22/2 18/18/2 23/23/2
f 22/22/2 24/24/2 18/18/2
f 24/24/2 25/25/2 18/18/2
f 25/25/2 26/26/2 18/18/2
f 26/26/2 27/27/2 18/18/2
f 27/27/2 16/16/2 18/18/2
f 28/28/2 29/29/2 22/22/2
f 22/22/2 29/29/2 30/30/2
f 22/22/3 30/30/3 24/24/3
