# Blender v3.0.1 OBJ File: 'rockerfeller_plaza.blend'
# www.blender.org
o geometryt000010000010000110010110000110000110100100000000st184
v 415.469635 -85.510376 911.474121
v 415.469635 -85.510376 888.446716
v 421.067017 -88.519829 888.446716
v 421.067017 -88.519829 911.474121
v 421.920227 -88.978546 888.446716
v 423.319519 -89.730904 888.446716
v 423.319519 -89.730904 911.474121
v 421.920227 -88.978546 911.474121
v 424.172729 -90.189629 888.446716
v 425.572144 -90.941994 888.446716
v 425.572144 -90.941994 911.474121
v 424.172729 -90.189629 911.474121
v 426.425232 -91.400703 911.474121
v 426.425232 -91.400703 888.446716
v 432.022644 -94.410164 888.446716
v 432.022644 -94.410164 911.474121
v 418.339844 -79.446388 911.474121
v 418.339844 -79.446388 888.446716
v 415.329224 -85.043167 888.446716
v 415.329224 -85.043167 911.474121
v 419.365326 -77.539772 888.446716
v 418.612732 -78.938965 888.446716
v 418.612732 -78.938965 911.474121
v 419.365326 -77.539772 911.474121
v 421.896240 -72.834778 911.474121
v 421.896240 -72.834778 888.446716
v 419.638336 -77.032356 888.446716
v 419.638336 -77.032356 911.474121
v 422.921814 -70.928169 888.446716
v 422.169250 -72.327354 888.446716
v 422.169250 -72.327354 911.474121
v 422.921814 -70.928169 911.474121
v 425.452728 -66.223167 911.474121
v 425.452728 -66.223167 888.446716
v 423.194733 -70.420746 888.446716
v 423.194733 -70.420746 911.474121
v 426.478333 -64.316559 911.474121
v 426.478333 -64.316559 888.446716
v 425.725647 -65.715744 888.446716
v 425.725647 -65.715744 911.474121
v 429.761841 -58.212353 911.474121
v 429.761841 -58.212353 888.446716
v 426.751221 -63.809132 888.446716
v 426.751221 -63.809132 911.474121
v 435.824219 -61.085533 888.446716
v 430.228943 -58.072113 888.446716
v 430.228943 -58.072113 911.474121
v 435.824219 -61.085533 911.474121
v 438.075317 -62.297871 911.474121
v 438.075317 -62.297871 888.446716
v 436.676422 -61.544521 888.446716
v 436.676422 -61.544521 911.474121
v 440.326324 -63.510223 888.446716
v 438.927551 -62.756870 888.446716
v 438.927551 -62.756870 911.474121
v 440.326324 -63.510223 911.474121
v 446.773834 -66.982635 888.446716
v 441.178650 -63.969223 888.446716
v 441.178650 -63.969223 911.474121
v 446.773834 -66.982635 911.474121
v 432.489929 -94.269699 911.474121
v 432.489929 -94.269699 888.446716
v 435.500122 -88.672714 888.446716
v 435.500122 -88.672714 911.474121
v 435.771912 -88.167305 911.474121
v 435.771912 -88.167305 888.446716
v 436.524536 -86.768059 888.446716
v 436.524536 -86.768059 911.474121
v 436.796326 -86.262657 888.446716
v 439.053925 -82.064919 888.446716
v 439.053925 -82.064919 911.474121
v 436.796326 -86.262657 911.474121
v 439.325745 -81.559509 888.446716
v 440.078308 -80.160263 888.446716
v 440.078308 -80.160263 911.474121
v 439.325745 -81.559509 911.474121
v 440.350128 -79.654854 911.474121
v 440.350128 -79.654854 888.446716
v 442.607849 -75.457115 888.446716
v 442.607849 -75.457115 911.474121
v 442.879639 -74.951706 911.474121
v 442.879639 -74.951706 888.446716
v 443.632141 -73.552467 888.446716
v 443.632141 -73.552467 911.474121
v 443.904022 -73.047058 888.446716
v 446.914124 -67.450073 888.446716
v 446.914124 -67.450073 911.474121
v 443.904022 -73.047058 911.474121
vt 0.000000 2.000000
vt 0.000000 0.000000
vt 1.000000 0.000000
vt 1.000000 2.000000
vt 0.000000 0.000000
vt 0.250000 0.000000
vt 0.250000 2.000000
vt 0.000000 2.000000
vt 0.000000 0.000000
vt 0.250000 0.000000
vt 0.250000 2.000000
vt 0.000000 2.000000
vt 0.000000 2.000000
vt 0.000000 0.000000
vt 1.000000 0.000000
vt 1.000000 2.000000
vt 0.000000 0.000000
vt 0.250000 0.000000
vt 0.250000 2.000000
vt 0.000000 2.000000
vt 0.000000 2.000000
vt 0.000000 0.000000
vt 0.750000 0.000000
vt 0.750000 2.000000
vt 0.000000 0.000000
vt 0.250000 0.000000
vt 0.250000 2.000000
vt 0.000000 2.000000
vt 0.000000 2.000000
vt 0.000000 0.000000
vt 0.750000 0.000000
vt 0.750000 2.000000
vt 0.000000 2.000000
vt 0.000000 0.000000
vt 0.250000 0.000000
vt 0.250000 2.000000
vt 0.000000 2.000000
vt 0.000000 0.000000
vt 1.000000 0.000000
vt 1.000000 2.000000
vt 0.000000 0.000000
vt 1.000000 0.000000
vt 1.000000 2.000000
vt 0.000000 2.000000
vt 0.000000 2.000000
vt 0.000000 0.000000
vt 0.250000 0.000000
vt 0.250000 2.000000
vt 0.000000 0.000000
vt 0.250000 0.000000
vt 0.250000 2.000000
vt 0.000000 2.000000
vt 0.000000 0.000000
vt 1.000000 0.000000
vt 1.000000 2.000000
vt 0.000000 2.000000
vt 0.000000 2.000000
vt 0.000000 0.000000
vt 1.000000 0.000000
vt 1.000000 2.000000
vt 0.000000 2.000000
vt 0.000000 0.000000
vt 0.250000 0.000000
vt 0.250000 2.000000
vt 0.000000 0.000000
vt 0.750000 0.000000
vt 0.750000 2.000000
vt 0.000000 2.000000
vt 0.000000 0.000000
vt 0.250000 0.000000
vt 0.250000 2.000000
vt 0.000000 2.000000
vt 0.000000 2.000000
vt 0.000000 0.000000
vt 0.750000 0.000000
vt 0.750000 2.000000
vt 0.000000 2.000000
vt 0.000000 0.000000
vt 0.250000 0.000000
vt 0.250000 2.000000
vt 0.000000 0.000000
vt 1.000000 0.000000
vt 1.000000 2.000000
vt 0.000000 2.000000
vt 0.000000 2.000000
vt 0.000000 0.000000
vt 1.000000 0.000000
vt 1.000000 2.000000
vn -0.4735 -0.8808 0.0000
vn -0.4736 -0.8808 0.0000
vn -0.8807 0.4737 0.0000
vn -0.8806 0.4738 0.0000
vn 0.4742 0.8804 0.0000
vn 0.4741 0.8804 0.0000
vn 0.8807 -0.4737 0.0000
vn 0.8807 -0.4736 0.0000
s off
f 1/1/1 2/2/1 3/3/1
f 1/1/1 3/3/1 4/4/1
f 5/5/2 6/6/2 7/7/2
f 8/8/2 5/5/2 7/7/2
f 9/9/1 10/10/1 11/11/1
f 12/12/1 9/9/1 11/11/1
f 17/13/3 18/14/3 19/15/3
f 17/13/3 19/15/3 20/16/3
f 21/17/3 22/18/3 23/19/3
f 24/20/3 21/17/3 23/19/3
f 25/21/3 26/22/3 27/23/3
f 25/21/3 27/23/3 28/24/3
f 29/25/3 30/26/3 31/27/3
f 32/28/3 29/25/3 31/27/3
f 33/29/3 34/30/3 35/31/3
f 33/29/3 35/31/3 36/32/3
f 37/33/3 38/34/3 39/35/3
f 37/33/4 39/35/4 40/36/4
f 41/37/3 42/38/3 43/39/3
f 41/37/3 43/39/3 44/40/3
f 45/41/5 46/42/5 47/43/5
f 48/44/5 45/41/5 47/43/5
f 49/45/6 50/46/6 51/47/6
f 49/45/6 51/47/6 52/48/6
f 53/49/5 54/50/5 55/51/5
f 56/52/5 53/49/5 55/51/5
f 57/53/5 58/54/5 59/55/5
f 60/56/5 57/53/5 59/55/5
f 61/57/7 62/58/7 63/59/7
f 61/57/7 63/59/7 64/60/7
f 65/61/7 66/62/7 67/63/7
f 65/61/7 67/63/7 68/64/7
f 69/65/7 70/66/7 71/67/7
f 72/68/8 69/65/8 71/67/8
f 73/69/7 74/70/7 75/71/7
f 76/72/8 73/69/8 75/71/8
f 77/73/7 78/74/7 79/75/7
f 77/73/7 79/75/7 80/76/7
f 81/77/8 82/78/8 83/79/8
f 81/77/8 83/79/8 84/80/8
f 85/81/7 86/82/7 87/83/7
f 88/84/8 85/81/8 87/83/8
s 1
f 13/85/1 14/86/1 15/87/1
f 13/85/1 15/87/1 16/88/1
