# Blender v3.0.1 OBJ File: 'rockerfeller_plaza.blend'
# www.blender.org
o geometryt000010000010000110010110000110000110100100000010st24
v 720.133789 -295.431274 1015.248535
v 720.133789 -295.431274 931.763733
v 724.569885 -297.852783 931.763733
v 724.569885 -297.852783 1015.248535
v 726.063599 -298.668182 1015.248535
v 726.063599 -298.668182 931.763733
v 729.020996 -300.282471 931.763733
v 729.020996 -300.282471 1015.248535
v 730.514771 -301.097870 1015.248535
v 730.514771 -301.097870 931.763733
v 733.472168 -302.712189 931.763733
v 733.472168 -302.712189 1015.248535
v 734.965881 -303.527588 1015.248535
v 734.965881 -303.527588 931.763733
v 739.401978 -305.949066 931.763733
v 739.401978 -305.949066 1015.248535
v 722.416565 -290.526367 931.763733
v 719.996216 -294.963074 931.763733
v 719.996216 -294.963074 1015.248535
v 722.416565 -290.526367 1015.248535
v 725.758972 -284.399475 1015.248535
v 725.758972 -284.399475 931.763733
v 723.338684 -288.836182 931.763733
v 723.338684 -288.836182 1015.248535
v 727.487915 -281.230286 1015.248535
v 727.487915 -281.230286 931.763733
v 726.681091 -282.709167 931.763733
v 726.681091 -282.709167 1015.248535
v 730.830261 -275.103363 1015.248535
v 730.830261 -275.103363 931.763733
v 728.409973 -279.540070 931.763733
v 728.409973 -279.540070 1015.248535
v 734.172791 -268.976379 1015.248535
v 734.172791 -268.976379 931.763733
v 731.752380 -273.413086 931.763733
v 731.752380 -273.413086 1015.248535
v 739.077148 -271.259766 931.763733
v 734.640747 -268.838867 931.763733
v 734.640747 -268.838867 1015.248535
v 739.077148 -271.259766 1015.248535
v 745.649597 -274.846466 931.763733
v 741.213257 -272.425476 931.763733
v 741.213257 -272.425476 1015.248535
v 745.649597 -274.846466 1015.248535
v 752.222046 -278.433167 931.763733
v 747.785645 -276.012177 931.763733
v 747.785645 -276.012177 1015.248535
v 752.222046 -278.433167 1015.248535
v 758.794495 -282.019867 931.763733
v 754.358093 -279.598877 931.763733
v 754.358093 -279.598877 1015.248535
v 758.794495 -282.019867 1015.248535
v 739.869507 -305.811279 931.763733
v 740.498901 -304.652283 931.763733
v 740.498901 -304.652283 1015.248535
v 739.869507 -305.811279 1015.248535
v 742.367554 -305.281769 931.763733
v 743.845276 -306.090576 931.763733
v 743.845276 -306.090576 1015.248535
v 742.367554 -305.281769 1015.248535
v 745.714478 -306.720490 931.763733
v 748.134583 -302.283569 931.763733
v 748.134583 -302.283569 1015.248535
v 745.714478 -306.720490 1015.248535
v 749.313660 -300.121887 931.763733
v 751.733765 -295.685089 931.763733
v 751.733765 -295.685089 1015.248535
v 749.313660 -300.121887 1015.248535
v 752.912903 -293.523376 931.763733
v 755.333008 -289.086487 931.763733
v 755.333008 -289.086487 1015.248535
v 752.912903 -293.523376 1015.248535
v 756.512085 -286.924774 1015.248535
v 756.512085 -286.924774 931.763733
v 758.932068 -282.487976 931.763733
v 758.932068 -282.487976 1015.248535
vt 0.000000 8.666670
vt 0.000000 0.000000
vt 0.750000 0.000000
vt 0.750000 8.666670
vt 0.000000 8.666670
vt 0.000000 0.000000
vt 0.500000 0.000000
vt 0.500000 8.666670
vt 0.000000 8.666670
vt 0.000000 0.000000
vt 0.500000 0.000000
vt 0.500000 8.666670
vt 0.000000 8.666670
vt 0.000000 0.000000
vt 0.750000 0.000000
vt 0.750000 8.666670
vt 0.000000 0.000000
vt 0.750000 0.000000
vt 0.750000 8.666670
vt 0.000000 8.666670
vt 0.000000 8.666670
vt 0.000000 0.000000
vt 0.750000 0.000000
vt 0.750000 8.666670
vt 0.000000 8.666670
vt 0.000000 0.000000
vt 0.250000 0.000000
vt 0.250000 8.666670
vt 0.000000 8.666670
vt 0.000000 0.000000
vt 0.750000 0.000000
vt 0.750000 8.666670
vt 0.000000 8.666670
vt 0.000000 0.000000
vt 0.750000 0.000000
vt 0.750000 8.666670
vt 0.000000 0.000000
vt 0.750000 0.000000
vt 0.750000 8.666670
vt 0.000000 8.666670
vt 0.000000 0.000000
vt 0.750000 0.000000
vt 0.750000 8.666670
vt 0.000000 8.666670
vt 0.000000 0.000000
vt 0.750000 0.000000
vt 0.750000 8.666670
vt 0.000000 8.666670
vt 0.000000 0.000000
vt 0.750000 0.000000
vt 0.750000 8.666670
vt 0.000000 8.666670
vt 0.000000 0.000000
vt 0.250000 0.000000
vt 0.250000 8.666670
vt 0.000000 8.666670
vt 0.000000 0.000000
vt 0.250000 0.000000
vt 0.250000 8.666670
vt 0.000000 8.666670
vt 0.000000 0.000000
vt 0.750000 0.000000
vt 0.750000 8.666670
vt 0.000000 8.666670
vt 0.000000 0.000000
vt 0.750000 0.000000
vt 0.750000 8.666670
vt 0.000000 8.666670
vt 0.000000 0.000000
vt 0.750000 0.000000
vt 0.750000 8.666670
vt 0.000000 8.666670
vt 0.000000 8.666670
vt 0.000000 0.000000
vt 0.750000 0.000000
vt 0.750000 8.666670
vn -0.4791 -0.8777 0.0000
vn -0.4791 -0.8778 0.0000
vn -0.8779 0.4789 0.0000
vn -0.8778 0.4789 0.0000
vn 0.4790 0.8778 0.0000
vn 0.8788 -0.4772 0.0000
vn -0.4801 -0.8772 0.0000
vn 0.8779 -0.4788 0.0000
vn 0.8779 -0.4789 0.0000
s off
f 1/1/1 2/2/1 3/3/1
f 1/1/1 3/3/1 4/4/1
f 5/5/2 6/6/2 7/7/2
f 5/5/1 7/7/1 8/8/1
f 9/9/1 10/10/1 11/11/1
f 9/9/1 11/11/1 12/12/1
f 13/13/1 14/14/1 15/15/1
f 13/13/1 15/15/1 16/16/1
f 17/17/3 18/18/3 19/19/3
f 20/20/3 17/17/3 19/19/3
f 21/21/3 22/22/3 23/23/3
f 21/21/3 23/23/3 24/24/3
f 25/25/4 26/26/4 27/27/4
f 25/25/3 27/27/3 28/28/3
f 29/29/3 30/30/3 31/31/3
f 29/29/3 31/31/3 32/32/3
f 33/33/3 34/34/3 35/35/3
f 33/33/3 35/35/3 36/36/3
f 37/37/5 38/38/5 39/39/5
f 40/40/5 37/37/5 39/39/5
f 41/41/5 42/42/5 43/43/5
f 44/44/5 41/41/5 43/43/5
f 45/45/5 46/46/5 47/47/5
f 48/48/5 45/45/5 47/47/5
f 49/49/5 50/50/5 51/51/5
f 52/52/5 49/49/5 51/51/5
f 53/53/6 54/54/6 55/55/6
f 56/56/6 53/53/6 55/55/6
f 57/57/7 58/58/7 59/59/7
f 60/60/7 57/57/7 59/59/7
f 61/61/8 62/62/8 63/63/8
f 64/64/9 61/61/9 63/63/9
f 65/65/9 66/66/9 67/67/9
f 68/68/9 65/65/9 67/67/9
f 69/69/9 70/70/9 71/71/9
f 72/72/8 69/69/8 71/71/8
f 73/73/8 74/74/8 75/75/8
f 73/73/9 75/75/9 76/76/9
