# Blender v3.0.1 OBJ File: 'rockerfeller_plaza.blend'
# www.blender.org
o geometryt000010000010000110010110000110000110100100000000st131
v 436.632935 -188.426285 887.209900
v 431.277527 -198.358276 887.209900
v 425.678833 -195.336884 887.209900
v 429.904327 -184.796280 887.209900
v 424.548950 -194.728271 887.209900
v 429.904327 -184.796280 896.309875
v 424.548950 -194.728271 896.309875
v 425.678833 -195.336884 896.309875
v 436.632935 -188.426285 896.309875
v 431.277527 -198.358276 896.309875
vt 0.286100 0.355400
vt 0.305870 0.344370
vt 0.302150 0.333160
vt 0.281630 0.341920
vt 0.301410 0.330890
vt 0.281630 0.341920
vt 0.301410 0.330890
vt 0.302150 0.333160
vt 0.286100 0.355400
vt 0.305870 0.344370
vn 0.0000 0.0000 -1.0000
vn -0.0001 0.0000 -1.0000
vn 0.0000 0.0000 1.0000
s off
f 1/1/1 2/2/1 3/3/1
f 3/3/1 4/4/1 1/1/1
f 5/5/2 4/4/2 3/3/2
f 6/6/3 7/7/3 8/8/3
f 8/8/3 9/9/3 6/6/3
f 10/10/3 9/9/3 8/8/3
