# Blender v3.0.1 OBJ File: 'rockerfeller_plaza.blend'
# www.blender.org
o geometryt000010000010000110010110000110000110100000010100st82
v 852.407715 -190.380783 149.360229
v 852.069519 -191.010681 177.682922
v 852.407715 -190.380783 177.682922
v 856.382324 -182.977783 145.782913
v 856.044128 -183.607681 149.360229
v 852.069519 -191.010681 145.782913
v 856.044128 -183.607681 177.682922
v 856.382324 -182.977783 177.682922
v 871.938904 -201.702179 149.360229
v 872.466125 -201.985886 177.682922
v 871.938904 -201.702179 177.682922
v 852.069519 -191.010681 145.782913
v 852.596741 -191.294388 149.360229
v 872.466125 -201.985886 145.782913
v 852.596741 -191.294388 177.682922
v 852.069519 -191.010681 177.682922
v 857.163330 -183.398392 149.360229
v 856.382324 -182.977783 177.682922
v 857.163330 -183.398392 177.682922
v 861.998047 -186.001984 149.360229
v 856.382324 -182.977783 145.782913
v 861.998047 -186.001984 177.682922
v 862.779114 -186.422592 177.682922
v 862.779114 -186.422592 145.782913
v 864.550110 -176.657379 149.360229
v 865.312134 -177.067078 177.682922
v 864.550110 -176.657379 177.682922
v 860.886230 -174.687378 145.782913
v 861.648193 -175.097092 149.360229
v 865.312134 -177.067078 145.782913
v 861.648193 -175.097092 177.682922
v 860.886230 -174.687378 177.682922
v 861.229492 -174.049484 149.360229
v 860.886230 -174.687378 177.682922
v 861.229492 -174.049484 177.682922
v 864.174744 -168.575989 145.782913
v 863.831421 -169.213882 149.360229
v 860.886230 -174.687378 145.782913
v 863.831421 -169.213882 177.682922
v 864.174744 -168.575989 177.682922
v 864.153015 -182.697983 149.360229
v 864.638000 -182.959183 177.682922
v 864.153015 -182.697983 177.682922
v 863.186096 -182.177185 149.360229
v 864.638000 -182.959183 145.782913
v 863.186096 -182.177185 177.682922
v 862.701111 -181.915985 177.682922
v 862.701111 -181.915985 145.782913
v 862.965332 -181.425385 149.360229
v 862.701111 -181.915985 177.682922
v 862.965332 -181.425385 177.682922
v 865.048035 -177.557587 149.360229
v 862.701111 -181.915985 145.782913
v 865.048035 -177.557587 177.682922
v 865.312134 -177.067078 177.682922
v 865.312134 -177.067078 145.782913
v 863.189209 -185.658478 149.360229
v 862.779114 -186.422592 177.682922
v 863.189209 -185.658478 177.682922
v 864.638000 -182.959183 145.782913
v 864.227905 -183.723190 149.360229
v 862.779114 -186.422592 145.782913
v 864.227905 -183.723190 177.682922
v 864.638000 -182.959183 177.682922
v 864.685242 -168.850281 149.360229
v 864.174744 -168.575989 177.682922
v 864.685242 -168.850281 177.682922
v 884.545532 -179.518188 145.782913
v 884.035034 -179.243988 149.360229
v 864.174744 -168.575989 145.782913
v 884.035034 -179.243988 177.682922
v 884.545532 -179.518188 177.682922
v 872.127197 -187.208084 149.360229
v 872.340210 -186.810883 177.682922
v 872.127197 -187.208084 177.682922
v 870.569824 -190.111389 149.360229
v 871.225403 -188.889191 145.782913
v 872.340210 -186.810883 145.782913
v 870.569824 -190.111389 177.682922
v 870.356689 -190.508591 177.682922
v 870.356689 -190.508591 145.782913
v 870.663086 -190.673691 149.360229
v 870.356689 -190.508591 177.682922
v 870.663086 -190.673691 177.682922
v 876.464111 -193.799088 149.360229
v 870.356689 -190.508591 145.782913
v 876.464111 -193.799088 177.682922
v 876.770508 -193.964188 177.682922
v 876.770508 -193.964188 145.782913
v 873.702393 -187.543289 149.360229
v 874.098022 -187.755890 177.682922
v 873.702393 -187.543289 177.682922
v 872.735107 -187.023178 149.360229
v 874.098022 -187.755890 145.782913
v 872.735107 -187.023178 177.682922
v 872.339600 -186.810577 177.682922
v 872.339600 -186.810577 145.782913
v 876.432800 -194.586380 149.360229
v 876.767334 -193.962479 177.682922
v 876.432800 -194.586380 177.682922
v 872.799744 -201.361481 149.360229
v 873.093933 -200.812790 145.782913
v 876.767334 -193.962479 145.782913
v 872.799744 -201.361481 177.682922
v 872.465210 -201.985382 177.682922
v 872.465210 -201.985382 145.782913
v 876.366211 -183.542679 149.360229
v 876.552002 -183.197586 177.682922
v 876.366211 -183.542679 177.682922
v 874.098022 -187.755890 145.782913
v 874.283813 -187.410782 149.360229
v 876.552002 -183.197586 145.782913
v 874.283813 -187.410782 177.682922
v 874.098022 -187.755890 177.682922
v 880.817993 -185.493591 149.360229
v 881.215698 -185.707687 177.682922
v 880.817993 -185.493591 177.682922
v 876.949707 -183.411682 149.360229
v 881.215698 -185.707687 145.782913
v 876.949707 -183.411682 177.682922
v 876.552002 -183.197586 177.682922
v 876.552002 -183.197586 145.782913
v 884.181335 -180.195084 149.360229
v 884.545532 -179.518188 177.682922
v 884.181335 -180.195084 177.682922
v 881.579895 -185.030884 149.360229
v 884.545532 -179.518188 145.782913
v 881.579895 -185.030884 177.682922
v 881.215698 -185.707687 177.682922
v 881.215698 -185.707687 145.782913
vt 3.361010 1.408940
vt 3.646960 12.564000
vt 3.361010 12.564000
vt 0.000000 0.000000
vt 0.285960 1.408940
vt 3.646960 0.000000
vt 0.285960 12.564000
vt 0.000000 12.564000
vt 9.025310 1.408940
vt 9.264770 12.564000
vt 9.025310 12.564000
vt 0.000000 0.000000
vt 0.239460 1.408940
vt 9.264770 0.000000
vt 0.239460 12.564000
vt 0.000000 12.564000
vt 2.551300 1.408940
vt 2.906130 12.564000
vt 2.551300 12.564000
vt 0.354830 1.408940
vt 2.906130 0.000000
vt 0.354830 12.564000
vt 0.000000 12.564000
vt 0.000000 0.000000
vt 1.663960 1.408940
vt 2.010040 12.564000
vt 1.663960 12.564000
vt 0.000000 0.000000
vt 0.346080 1.408940
vt 2.010040 0.000000
vt 0.346080 12.564000
vt 0.000000 12.564000
vt 2.486210 1.408940
vt 2.775960 12.564000
vt 2.486210 12.564000
vt 0.000000 0.000000
vt 0.289750 1.408940
vt 2.775960 0.000000
vt 0.289750 12.564000
vt 0.000000 12.564000
vt 0.659640 1.408940
vt 0.879980 12.564000
vt 0.659640 12.564000
vt 0.220340 1.408940
vt 0.879980 0.000000
vt 0.220340 12.564000
vt 0.000000 12.564000
vt 0.000000 0.000000
vt 1.980010 1.408940
vt 2.202860 12.564000
vt 1.980010 12.564000
vt 0.222840 1.408940
vt 2.202860 0.000000
vt 0.222840 12.564000
vt 0.000000 12.564000
vt 0.000000 0.000000
vt 1.225440 1.408940
vt 1.572300 12.564000
vt 1.225440 12.564000
vt 0.000000 0.000000
vt 0.346860 1.408940
vt 1.572300 0.000000
vt 0.346860 12.564000
vt 0.000000 12.564000
vt 9.017650 1.408940
vt 9.249441 12.564000
vt 9.017650 12.564000
vt 0.000000 0.000000
vt 0.231790 1.408940
vt 9.249441 0.000000
vt 0.231790 12.564000
vt 0.000000 12.564000
vt 1.498150 1.408940
vt 1.678420 12.564000
vt 1.498150 12.564000
vt 0.180270 1.408940
vt 0.735040 0.000000
vt 1.678420 0.000000
vt 0.180270 12.564000
vt 0.000000 12.564000
vt 0.000000 0.000000
vt 2.774980 1.408940
vt 2.914190 12.564000
vt 2.774980 12.564000
vt 0.139220 1.408940
vt 2.914190 0.000000
vt 0.139220 12.564000
vt 0.000000 12.564000
vt 0.000000 0.000000
vt 0.618940 1.408940
vt 0.798590 12.564000
vt 0.618940 12.564000
vt 0.179650 1.408940
vt 0.798590 0.000000
vt 0.179650 12.564000
vt 0.000000 12.564000
vt 0.283200 1.408940
vt 0.532210 0.000000
vt 3.358250 1.408940
vt 3.641440 0.000000
vt 0.000000 12.564000
vt 0.000000 0.000000
vt 1.913970 1.408940
vt 2.070770 12.564000
vt 1.913970 12.564000
vt 0.000000 0.000000
vt 0.156800 1.408940
vt 2.070770 0.000000
vt 0.156800 12.564000
vt 0.000000 12.564000
vt 1.937860 1.408940
vt 2.118560 12.564000
vt 1.937860 12.564000
vt 0.180690 1.408940
vt 2.118560 0.000000
vt 0.180690 12.564000
vt 0.000000 12.564000
vt 0.000000 0.000000
vt 2.503900 1.408940
vt 2.811330 12.564000
vt 2.503900 12.564000
vt 0.307430 1.408940
vt 2.811330 0.000000
vt 0.307430 12.564000
vt 0.000000 12.564000
vt 0.000000 0.000000
vt 0.000000 0.000000
vt 3.641440 12.564000
vt 3.358250 12.564000
vt 0.283200 12.564000
vn -0.8811 0.4730 0.0000
vn -0.8810 0.4730 -0.0000
vn -0.8810 0.4731 0.0000
vn -0.8810 0.4732 0.0000
vn -0.8811 0.4729 0.0000
vn -0.4739 -0.8806 0.0000
vn -0.4738 -0.8806 -0.0000
vn 0.4741 0.8804 0.0000
vn 0.4742 0.8804 0.0000
vn 0.4741 0.8805 0.0000
vn -0.4735 -0.8808 0.0000
vn -0.4736 -0.8808 -0.0000
vn -0.4736 -0.8807 0.0000
vn -0.8806 0.4739 0.0000
vn -0.8806 0.4738 -0.0000
vn -0.8805 0.4740 0.0000
vn -0.4742 -0.8804 0.0000
vn -0.4741 -0.8805 0.0000
vn -0.8805 0.4741 0.0000
vn -0.8804 0.4743 0.0000
vn -0.8804 0.4742 0.0000
vn 0.4733 0.8809 0.0000
vn 0.4732 0.8810 0.0000
vn 0.4731 0.8810 0.0000
vn 0.4732 0.8809 0.0000
vn 0.8812 -0.4727 0.0000
vn 0.8813 -0.4725 0.0000
vn 0.8812 -0.4728 0.0000
vn 0.4743 0.8804 0.0000
vn 0.4745 0.8803 0.0000
vn 0.4744 0.8803 0.0000
vn -0.4734 -0.8808 0.0000
vn 0.8813 -0.4726 -0.0000
vn 0.8805 -0.4740 0.0000
vn 0.8804 -0.4742 0.0000
vn -0.4740 -0.8805 0.0000
vn 0.8807 -0.4737 0.0000
vn 0.8807 -0.4738 0.0000
vn 0.8806 -0.4738 0.0000
vn 0.8806 -0.4739 0.0000
s off
f 1/1/1 2/2/1 3/3/1
f 4/4/2 1/1/2 5/5/2
f 4/4/1 6/6/1 1/1/1
f 2/2/3 1/1/3 6/6/3
f 7/7/4 8/8/4 5/5/4
f 8/8/5 4/4/5 5/5/5
f 9/9/6 10/10/6 11/11/6
f 12/12/7 9/9/7 13/13/7
f 12/12/7 14/14/7 9/9/7
f 10/10/7 9/9/7 14/14/7
f 15/15/7 16/16/7 13/13/7
f 16/16/6 12/12/6 13/13/6
f 17/17/8 18/18/8 19/19/8
f 20/20/8 21/21/8 17/17/8
f 18/18/9 17/17/9 21/21/9
f 22/22/8 23/23/8 20/20/8
f 23/23/10 24/24/10 20/20/10
f 24/24/8 21/21/8 20/20/8
f 25/25/11 26/26/11 27/27/11
f 28/28/12 25/25/12 29/29/12
f 28/28/11 30/30/11 25/25/11
f 26/26/13 25/25/13 30/30/13
f 31/31/12 32/32/12 29/29/12
f 32/32/13 28/28/13 29/29/13
f 33/33/14 34/34/14 35/35/14
f 36/36/15 33/33/15 37/37/15
f 36/36/14 38/38/14 33/33/14
f 34/34/15 33/33/15 38/38/15
f 39/39/14 40/40/14 37/37/14
f 40/40/16 36/36/16 37/37/16
f 41/41/17 42/42/17 43/43/17
f 44/44/17 45/45/17 41/41/17
f 42/42/18 41/41/18 45/45/18
f 46/46/17 47/47/17 44/44/17
f 47/47/17 48/48/17 44/44/17
f 48/48/17 45/45/17 44/44/17
f 49/49/16 50/50/16 51/51/16
f 52/52/19 53/53/19 49/49/19
f 50/50/20 49/49/20 53/53/20
f 54/54/14 55/55/14 52/52/14
f 55/55/21 56/56/21 52/52/21
f 56/56/19 53/53/19 52/52/19
f 57/57/1 58/58/1 59/59/1
f 60/60/5 57/57/5 61/61/5
f 60/60/5 62/62/5 57/57/5
f 58/58/5 57/57/5 62/62/5
f 63/63/1 64/64/1 61/61/1
f 64/64/5 60/60/5 61/61/5
f 65/65/22 66/66/22 67/67/22
f 68/68/23 65/65/23 69/69/23
f 68/68/23 70/70/23 65/65/23
f 66/66/22 65/65/22 70/70/22
f 71/71/24 72/72/24 69/69/24
f 72/72/25 68/68/25 69/69/25
f 73/73/26 74/74/26 75/75/26
f 76/76/26 77/77/26 73/73/26
f 77/77/26 78/78/26 73/73/26
f 74/74/27 73/73/27 78/78/27
f 79/79/26 80/80/26 76/76/26
f 80/80/28 81/81/28 76/76/28
f 81/81/26 77/77/26 76/76/26
f 82/82/29 83/83/29 84/84/29
f 85/85/29 86/86/29 82/82/29
f 87/87/30 88/88/30 85/85/30
f 88/88/31 89/89/31 85/85/31
f 89/89/29 86/86/29 85/85/29
f 90/90/32 91/91/32 92/92/32
f 93/93/12 94/94/12 90/90/12
f 95/95/32 96/96/32 93/93/32
f 101/97/33 102/98/33 98/99/33
f 102/98/33 103/100/33 98/99/33
f 105/101/27 106/102/27 101/97/27
f 106/102/27 102/98/27 101/97/27
f 107/103/34 108/104/34 109/105/34
f 110/106/34 107/103/34 111/107/34
f 110/106/34 112/108/34 107/103/34
f 108/104/35 107/103/35 112/108/35
f 113/109/34 114/110/34 111/107/34
f 114/110/35 110/106/35 111/107/35
f 115/111/36 116/112/36 117/113/36
f 118/114/6 119/115/6 115/111/6
f 116/112/36 115/111/36 119/115/36
f 120/116/36 121/117/36 118/114/36
f 121/117/36 122/118/36 118/114/36
f 122/118/6 119/115/6 118/114/6
f 123/119/37 124/120/37 125/121/37
f 126/122/38 127/123/38 123/119/38
f 124/120/39 123/119/39 127/123/39
f 128/124/39 129/125/39 126/122/39
f 129/125/40 130/126/40 126/122/40
f 130/126/38 127/123/38 126/122/38
s 1
f 83/83/31 82/82/31 86/86/31
f 91/91/7 90/90/7 94/94/7
f 96/96/32 97/127/11 93/93/32
f 97/127/11 94/94/11 93/93/32
f 98/99/27 99/128/33 100/129/33
f 99/128/33 98/99/27 103/100/27
f 104/130/33 105/101/33 101/97/33
