# Blender v3.0.1 OBJ File: 'rockerfeller_plaza.blend'
# www.blender.org
o geometryt000010000010000110010110000110000110100000110110st35
v 1187.638184 -285.416718 735.889709
v 1177.061035 -304.980713 735.889709
v 1182.081787 -282.417603 735.889709
v 1167.786133 -308.875214 735.889709
v 1173.334229 -311.874512 735.889709
v 1177.061035 -304.980713 747.989685
v 1182.081787 -282.417603 747.989685
v 1167.786133 -308.875214 747.989685
v 1187.638184 -285.416718 747.989685
v 1173.334229 -311.874512 747.989685
vt 0.459910 0.370130
vt 0.498870 0.348350
vt 0.456220 0.359000
vt 0.508900 0.329560
vt 0.512600 0.340670
vt 0.498870 0.348350
vt 0.456220 0.359000
vt 0.508900 0.329560
vt 0.459910 0.370130
vt 0.512600 0.340670
vn 0.0000 0.0000 -1.0000
vn -0.0000 0.0000 1.0000
s off
f 1/1/1 2/2/1 3/3/1
f 4/4/1 2/2/1 5/5/1
f 3/3/1 2/2/1 4/4/1
f 6/6/2 7/7/2 8/8/2
f 9/9/2 7/7/2 6/6/2
f 6/6/2 8/8/2 10/10/2
