# Blender v3.0.1 OBJ File: 'rockerfeller_plaza.blend'
# www.blender.org
o geometryt000010000010000110010110000110000110100000110110st47_8
v 1246.428467 -343.459320 737.689270
v 1247.090820 -343.817413 775.267822
v 1246.428467 -343.459320 775.267822
v 1213.164551 -325.473907 737.689270
v 1247.090820 -343.817413 735.267822
v 1213.164551 -325.473907 775.267822
v 1212.502197 -325.115814 775.267822
v 1212.502197 -325.115814 735.267822
v 1212.808105 -324.553314 737.689270
v 1212.502197 -325.115814 775.267822
v 1212.808105 -324.553314 775.267822
v 1215.121948 -320.300018 735.267822
v 1214.815918 -320.862518 737.689270
v 1212.502197 -325.115814 735.267822
v 1214.815918 -320.862518 775.267822
v 1215.121948 -320.300018 775.267822
v 1215.448120 -319.696411 893.267822
v 1215.448120 -319.696411 737.689270
v 1215.121948 -320.300018 775.267822
v 1215.121948 -320.300018 893.267822
v 1220.109131 -311.071411 737.689270
v 1215.121948 -320.300018 735.267822
v 1220.109131 -311.071411 893.267822
v 1220.435303 -310.467804 775.267822
v 1220.435303 -310.467804 735.267822
v 1220.435303 -310.467804 893.267822
v 1215.121948 -320.300018 893.267822
v 1215.121948 -320.300018 775.267822
v 1215.584961 -320.548096 775.267822
v 1215.584961 -320.548096 893.267822
v 1243.978271 -335.762207 893.267822
v 1243.978271 -335.762207 775.267822
v 1244.136108 -335.846802 775.267822
v 1244.441284 -336.010315 775.267822
v 1244.441284 -336.010315 893.267822
v 1220.897339 -310.715607 893.267822
v 1220.897339 -310.715607 737.689270
v 1220.435303 -310.467804 775.267822
v 1220.435303 -310.467804 893.267822
v 1231.233521 -316.258698 735.267822
v 1230.771484 -316.010895 737.689270
v 1220.435303 -310.467804 735.267822
v 1230.771484 -316.010895 893.267822
v 1231.233521 -316.258698 775.267822
v 1231.233521 -316.258698 893.267822
v 1231.409668 -315.883118 893.267822
v 1231.409668 -315.883118 737.689270
v 1231.212402 -316.247314 775.267822
v 1231.212402 -316.247314 893.267822
v 1245.412964 -290.019104 737.689270
v 1234.562744 -310.059418 735.267822
v 1231.212402 -316.247314 735.267822
v 1245.412964 -290.019104 775.267822
v 1245.610107 -289.654907 775.267822
v 1245.610107 -289.654907 735.267822
v 1243.256592 -294.002106 735.267822
v 1243.871216 -294.331512 893.267822
v 1243.871216 -294.331512 775.267822
v 1243.256592 -294.002106 775.267822
v 1243.256592 -294.002106 893.267822
v 1261.768921 -303.921417 893.267822
v 1261.768921 -303.921417 775.267822
v 1261.154297 -303.592102 775.267822
v 1261.154297 -303.592102 893.267822
v 1244.441284 -336.010315 893.267822
v 1244.441284 -336.010315 775.267822
v 1244.786865 -335.370300 775.267822
v 1244.786865 -335.370300 893.267822
v 1261.423340 -304.561401 893.267822
v 1261.423340 -304.561401 775.267822
v 1261.612427 -304.211395 775.267822
v 1261.768921 -303.921417 775.267822
v 1261.768921 -303.921417 893.267822
v 1246.422607 -290.094116 737.689270
v 1245.611694 -289.655701 775.267822
v 1246.422607 -290.094116 775.267822
v 1268.599121 -302.083405 737.689270
v 1245.611694 -289.655701 735.267822
v 1268.599121 -302.083405 775.267822
v 1269.409912 -302.521820 775.267822
v 1269.409912 -302.521820 735.267822
v 1269.238037 -302.839813 737.689270
v 1269.409912 -302.521820 775.267822
v 1269.238037 -302.839813 775.267822
v 1247.090820 -343.817413 735.267822
v 1247.262695 -343.499420 737.689270
v 1269.409912 -302.521820 735.267822
v 1247.262695 -343.499420 775.267822
v 1247.090820 -343.817413 775.267822
vt 38.490860 1.804370
vt 39.242340 29.806259
vt 38.490860 29.806259
vt 0.751480 1.804370
vt 39.242340 0.000000
vt 0.751480 29.806259
vt 0.000000 29.806259
vt 0.000000 0.000000
vt 4.832300 1.804370
vt 5.471330 29.806259
vt 4.832300 29.806259
vt 0.000000 0.000000
vt 0.639030 1.804370
vt 5.471330 0.000000
vt 0.639030 29.806259
vt 0.000000 29.806259
vt 10.469020 117.734703
vt 10.469020 1.804370
vt 11.153760 29.806259
vt 11.153760 117.734703
vt 0.684740 1.804370
vt 11.153760 0.000000
vt 0.684740 117.734703
vt 0.000000 29.806259
vt 0.000000 0.000000
vt 0.000000 117.734703
vt 0.000000 87.928467
vt 0.000000 0.000000
vt 0.524140 0.000000
vt 0.524140 87.928467
vt 32.672501 87.928467
vt 32.672501 0.000000
vt 32.851181 0.000000
vt 33.196640 0.000000
vt 33.196640 87.928467
vt 11.705330 117.734703
vt 11.705330 1.804370
vt 12.228620 29.806259
vt 12.228620 117.734703
vt 0.000000 0.000000
vt 0.523290 1.804370
vt 12.228620 0.000000
vt 0.523290 117.734703
vt 0.000000 29.806259
vt 0.000000 117.734703
vt 29.766190 117.734703
vt 29.766190 1.804370
vt 30.179529 29.806259
vt 30.179529 117.734703
vt 23.156900 0.000000
vt 30.179529 0.000000
vt 0.413340 29.806259
vt 0.000000 29.806259
vt 0.413340 1.804370
vt 0.000000 0.000000
vt 4.933600 0.000000
vt 20.264561 87.928467
vt 20.264561 0.000000
vt 20.960560 0.000000
vt 20.960560 87.928467
vt 0.000000 87.928467
vt 0.000000 0.000000
vt 0.696000 0.000000
vt 0.696000 87.928467
vt 26.079540 1.804370
vt 26.999491 29.806259
vt 26.079540 29.806259
vt 0.919950 1.804370
vt 26.999491 0.000000
vt 0.919950 29.806259
vt 0.000000 29.806259
vt 0.000000 0.000000
vt 46.486691 1.804370
vt 46.847462 29.806259
vt 46.486691 29.806259
vt 0.000000 0.000000
vt 0.360780 1.804370
vt 46.847462 0.000000
vt 0.360780 29.806259
vt 0.000000 29.806259
vt 0.000000 87.928467
vt 0.000000 0.000000
vt 0.725880 0.000000
vt 0.725880 87.928467
vt 35.669750 87.928467
vt 35.669750 0.000000
vt 36.066769 0.000000
vt 36.395630 0.000000
vt 36.395630 87.928467
vn -0.4756 -0.8797 0.0000
vn -0.4756 -0.8796 0.0000
vn -0.4755 -0.8797 0.0000
vn -0.8784 0.4779 0.0000
vn -0.8785 0.4778 0.0000
vn -0.8783 0.4781 0.0000
vn -0.8785 0.4777 0.0000
vn -0.8798 0.4753 0.0000
vn -0.8797 0.4755 0.0000
vn -0.8798 0.4754 -0.0000
vn -0.8795 0.4758 0.0000
vn -0.8797 0.4754 0.0000
vn -0.4721 -0.8815 0.0000
vn -0.4723 -0.8814 0.0000
vn -0.4730 -0.8811 0.0000
vn -0.4721 -0.8816 0.0000
vn -0.4722 -0.8815 0.0000
vn 0.4726 0.8813 0.0000
vn 0.4728 0.8812 0.0000
vn 0.4727 0.8812 0.0000
vn 0.4724 0.8814 0.0000
vn -0.8793 0.4763 0.0000
vn -0.8794 0.4761 0.0000
vn -0.8795 0.4759 0.0000
vn 0.4725 0.8813 0.0000
vn 0.4721 0.8815 0.0000
vn 0.4755 0.8797 0.0000
vn 0.4756 0.8797 -0.0000
vn 0.4756 0.8796 0.0000
vn 0.8799 -0.4752 0.0000
vn 0.8797 -0.4755 0.0000
vn 0.8795 -0.4759 0.0000
vn 0.8797 -0.4756 0.0000
vn -0.8794 0.4761 -0.0001
vn 0.8799 -0.4751 0.0000
vn 0.8801 -0.4749 0.0000
vn 0.8800 -0.4749 0.0000
vn 0.8800 -0.4750 0.0000
s off
f 1/1/1 2/2/1 3/3/1
f 4/4/2 5/5/2 1/1/2
f 2/2/1 1/1/1 5/5/1
f 6/6/1 7/7/1 4/4/1
f 7/7/3 8/8/3 4/4/3
f 8/8/1 5/5/1 4/4/1
f 9/9/4 10/10/4 11/11/4
f 12/12/4 9/9/4 13/13/4
f 12/12/4 14/14/4 9/9/4
f 10/10/5 9/9/5 14/14/5
f 15/15/6 16/16/6 13/13/6
f 16/16/7 12/12/7 13/13/7
f 17/17/8 18/18/8 19/19/8
f 19/19/9 20/20/9 17/17/9
f 21/21/10 22/22/10 18/18/10
f 19/19/10 18/18/10 22/22/10
f 21/21/10 23/23/10 24/24/10
f 24/24/11 25/25/11 21/21/11
f 25/25/12 22/22/12 21/21/12
f 23/23/9 26/26/9 24/24/9
f 27/27/13 28/28/13 29/29/13
f 27/27/14 29/29/14 30/30/14
f 31/31/15 32/32/15 33/33/15
f 33/33/16 34/34/16 35/35/16
f 31/31/17 33/33/17 35/35/17
f 36/36/18 37/37/18 38/38/18
f 38/38/18 39/39/18 36/36/18
f 40/40/18 37/37/18 41/41/18
f 40/40/18 42/42/18 37/37/18
f 38/38/19 37/37/19 42/42/19
f 41/41/20 43/43/20 44/44/20
f 44/44/18 40/40/18 41/41/18
f 43/43/21 45/45/21 44/44/21
f 46/46/22 47/47/22 48/48/22
f 48/48/22 49/49/22 46/46/22
f 51/50/23 52/51/23 47/47/23
f 48/48/22 47/47/22 52/51/22
f 53/52/24 54/53/24 50/54/24
f 54/53/22 55/55/22 50/54/22
f 55/55/23 56/56/23 50/54/23
f 57/57/25 58/58/25 59/59/25
f 57/57/21 59/59/21 60/60/21
f 61/61/21 62/62/21 63/63/21
f 61/61/26 63/63/26 64/64/26
f 74/65/27 75/66/27 76/67/27
f 77/68/28 78/69/28 74/65/28
f 79/70/29 80/71/29 77/68/29
f 81/72/28 78/69/28 77/68/28
f 82/73/30 83/74/30 84/75/30
f 85/76/31 82/73/31 86/77/31
f 85/76/31 87/78/31 82/73/31
f 83/74/32 82/73/32 87/78/32
f 88/79/33 89/80/33 86/77/33
f 89/80/33 85/76/33 86/77/33
s 1
f 47/47/23 50/54/23 51/50/23
f 51/50/23 50/54/23 56/56/34
f 65/81/35 66/82/36 67/83/36
f 65/81/35 67/83/36 68/84/35
f 69/85/30 70/86/37 71/87/35
f 71/87/35 72/88/38 73/89/30
f 69/85/30 71/87/35 73/89/30
f 75/66/29 74/65/29 78/69/29
f 80/71/28 81/72/28 77/68/28
