# Blender v3.0.1 OBJ File: 'rockerfeller_plaza.blend'
# www.blender.org
o geometryt000010000010000110010110000110000110100000100100st95
v 396.387695 -290.675812 612.301208
v 397.594696 -288.474609 612.301208
v 407.907501 -288.154999 612.301208
v 410.189301 -299.996796 612.301208
v 395.536194 -292.228912 612.301208
v 398.752319 -286.373901 612.301208
v 400.091400 -283.915894 612.301208
v 401.068176 -284.426422 612.301208
v 404.117096 -278.717712 612.301208
v 410.964905 -282.446320 612.301208
v 403.055420 -278.163818 612.301208
v 404.022491 -276.387421 612.301208
v 409.138916 -266.968811 612.301208
v 423.707092 -274.693298 612.301208
v 417.667114 -285.998901 612.301208
v 413.460602 -293.808197 612.301208
v 414.609802 -291.718811 612.301208
v 396.387695 -290.675812 658.301208
v 395.536194 -292.228912 658.301208
v 410.189301 -299.996796 658.301208
v 407.907501 -288.154999 658.301208
v 413.460602 -293.808197 658.301208
v 414.609802 -291.718811 658.301208
v 410.964905 -282.446320 658.301208
v 401.068176 -284.426422 658.301208
v 398.752319 -286.373901 658.301208
v 397.594696 -288.474609 658.301208
v 417.667114 -285.998901 658.301208
v 423.707092 -274.693298 658.301208
v 409.138916 -266.968811 658.301208
v 404.022491 -276.387421 658.301208
v 404.117096 -278.717712 658.301208
v 403.055420 -278.163818 658.301208
v 400.091400 -283.915894 658.301208
vt 0.483940 0.278330
vt 0.479550 0.280820
vt 0.475690 0.301610
vt 0.496510 0.305930
vt 0.487040 0.276580
vt 0.475360 0.283200
vt 0.470460 0.285960
vt 0.471080 0.287910
vt 0.459720 0.294190
vt 0.464330 0.307910
vt 0.459050 0.292060
vt 0.455510 0.294050
vt 0.436750 0.304590
vt 0.446170 0.333770
vt 0.468660 0.321330
vt 0.484210 0.312670
vt 0.480040 0.315040
vt 0.483940 0.278330
vt 0.487040 0.276580
vt 0.496510 0.305930
vt 0.475690 0.301610
vt 0.484210 0.312670
vt 0.480040 0.315040
vt 0.464330 0.307910
vt 0.471080 0.287910
vt 0.475360 0.283200
vt 0.479550 0.280820
vt 0.468660 0.321330
vt 0.446170 0.333770
vt 0.436750 0.304590
vt 0.455510 0.294050
vt 0.459720 0.294190
vt 0.459050 0.292060
vt 0.470460 0.285960
vn 0.0000 0.0000 -1.0000
vn 0.0000 0.0000 1.0000
vn 0.0001 0.0000 1.0000
s off
f 1/1/1 2/2/1 3/3/1
f 1/1/1 3/3/1 4/4/1
f 1/1/1 4/4/1 5/5/1
f 3/3/1 2/2/1 6/6/1
f 7/7/1 8/8/1 6/6/1
f 8/8/1 3/3/1 6/6/1
f 9/9/1 10/10/1 8/8/1
f 8/8/1 10/10/1 3/3/1
f 9/9/1 11/11/1 12/12/1
f 9/9/1 12/12/1 10/10/1
f 13/13/1 10/10/1 12/12/1
f 14/14/1 10/10/1 13/13/1
f 15/15/1 10/10/1 14/14/1
f 16/16/1 3/3/1 17/17/1
f 4/4/1 3/3/1 16/16/1
f 18/18/2 19/19/2 20/20/2
f 21/21/2 20/20/2 22/22/2
f 20/20/2 21/21/2 18/18/2
f 23/23/2 21/21/2 22/22/2
f 21/21/2 24/24/2 25/25/2
f 21/21/2 25/25/2 26/26/2
f 26/26/2 27/27/2 21/21/2
f 27/27/2 18/18/2 21/21/2
f 28/28/2 29/29/2 24/24/2
f 29/29/2 30/30/2 24/24/2
f 24/24/2 30/30/2 31/31/2
f 32/32/2 24/24/2 31/31/2
f 25/25/2 24/24/2 32/32/2
f 33/33/3 32/32/3 31/31/3
f 34/34/2 26/26/2 25/25/2
