# Blender v3.0.1 OBJ File: 'rockerfeller_plaza.blend'
# www.blender.org
o geometryt000010000010000110010110000110000110100000110010st102
v 1024.365967 -115.392441 466.754181
v 1023.559509 -116.887039 466.754181
v 1023.559509 -116.887039 489.448395
v 1024.365967 -115.392441 489.448395
v 1026.041260 -112.287743 466.754181
v 1025.234741 -113.782341 466.754181
v 1025.234741 -113.782341 489.448395
v 1026.041260 -112.287743 489.448395
v 1023.699341 -117.354439 489.448395
v 1023.699341 -117.354439 466.754181
v 1026.688965 -118.966537 466.754181
v 1026.688965 -118.966537 489.448395
v 1028.528198 -119.958336 489.448395
v 1028.528198 -119.958336 466.754181
v 1030.023071 -120.764336 466.754181
v 1030.023071 -120.764336 489.448395
v 1031.862305 -121.756241 489.448395
v 1031.862305 -121.756241 466.754181
v 1037.841553 -124.980438 466.754181
v 1037.841553 -124.980438 489.448395
v 1039.680786 -125.972237 489.448395
v 1039.680786 -125.972237 466.754181
v 1041.175537 -126.778336 466.754181
v 1041.175537 -126.778336 489.448395
v 1043.014893 -127.770142 489.448395
v 1043.014893 -127.770142 466.754181
v 1046.004517 -129.382233 466.754181
v 1046.004517 -129.382233 489.448395
v 1029.473389 -113.806236 489.448395
v 1029.473389 -113.806236 466.754181
v 1026.481323 -112.198936 466.754181
v 1026.481323 -112.198936 489.448395
v 1032.814453 -115.600937 466.754181
v 1031.318359 -114.797340 466.754181
v 1031.318359 -114.797340 489.448395
v 1032.814453 -115.600937 489.448395
v 1040.643555 -119.806641 489.448395
v 1040.643555 -119.806641 466.754181
v 1034.659302 -116.591942 466.754181
v 1034.659302 -116.591942 489.448395
v 1043.984497 -121.601341 489.448395
v 1043.984497 -121.601341 466.754181
v 1042.488403 -120.797638 466.754181
v 1042.488403 -120.797638 489.448395
v 1047.444092 -123.459740 489.448395
v 1048.821533 -124.199638 466.754181
v 1045.829346 -122.592339 466.754181
v 1048.821533 -124.199638 489.448395
v 1045.829346 -122.592339 489.448395
v 1046.472900 -129.242844 489.448395
v 1046.472900 -129.242844 466.754181
v 1047.283936 -127.750740 466.754181
v 1047.283936 -127.750740 489.448395
v 1048.150391 -126.156738 489.448395
v 1048.150391 -126.156738 466.754181
v 1048.961426 -124.664642 466.754181
v 1048.961426 -124.664642 489.448395
vt 0.000000 0.000000
vt 0.250000 0.000000
vt 0.250000 3.500000
vt 0.000000 3.500000
vt 0.000000 0.000000
vt 0.250000 0.000000
vt 0.250000 3.500000
vt 0.000000 3.500000
vt 0.000000 3.500000
vt 0.000000 0.000000
vt 0.500000 0.000000
vt 0.500000 3.500000
vt 0.000000 3.500000
vt 0.000000 0.000000
vt 0.250000 0.000000
vt 0.250000 3.500000
vt 0.000000 3.500000
vt 0.000000 0.000000
vt 1.000000 0.000000
vt 1.000000 3.500000
vt 0.000000 3.500000
vt 0.000000 0.000000
vt 0.250000 0.000000
vt 0.250000 3.500000
vt 0.000000 3.500000
vt 0.000000 0.000000
vt 0.500000 0.000000
vt 0.500000 3.500000
vt 0.000000 3.500000
vt 0.000000 0.000000
vt 0.500000 0.000000
vt 0.500000 3.500000
vt 0.000000 0.000000
vt 0.250000 0.000000
vt 0.250000 3.500000
vt 0.000000 3.500000
vt 0.000000 3.500000
vt 0.000000 0.000000
vt 1.000000 0.000000
vt 1.000000 3.500000
vt 0.000000 3.500000
vt 0.000000 0.000000
vt 0.250000 0.000000
vt 0.250000 3.500000
vt 0.230170 3.500000
vt 0.000000 0.000000
vt 0.500000 0.000000
vt 0.000000 3.500000
vt 0.500000 3.500000
vt 0.000000 3.500000
vt 0.000000 0.000000
vt 0.250000 0.000000
vt 0.250000 3.500000
vt 0.000000 3.500000
vt 0.000000 0.000000
vt 0.250000 0.000000
vt 0.250000 3.500000
vn -0.8801 0.4748 0.0000
vn -0.8800 0.4749 0.0000
vn -0.4746 -0.8802 0.0000
vn -0.4747 -0.8801 0.0000
vn 0.4732 0.8810 0.0000
vn 0.4733 0.8809 0.0000
vn 0.4732 0.8809 0.0000
vn 0.8786 -0.4776 0.0000
s off
f 1/1/1 2/2/1 3/3/1
f 4/4/1 1/1/1 3/3/1
f 5/5/1 6/6/1 7/7/1
f 8/8/2 5/5/2 7/7/2
f 9/9/3 10/10/3 11/11/3
f 9/9/3 11/11/3 12/12/3
f 13/13/3 14/14/3 15/15/3
f 13/13/3 15/15/3 16/16/3
f 17/17/3 18/18/3 19/19/3
f 17/17/3 19/19/3 20/20/3
f 21/21/3 22/22/3 23/23/3
f 21/21/4 23/23/4 24/24/4
f 25/25/3 26/26/3 27/27/3
f 25/25/3 27/27/3 28/28/3
f 29/29/5 30/30/5 31/31/5
f 29/29/6 31/31/6 32/32/6
f 33/33/5 34/34/5 35/35/5
f 36/36/5 33/33/5 35/35/5
f 37/37/7 38/38/7 39/39/7
f 37/37/7 39/39/7 40/40/7
f 41/41/7 42/42/7 43/43/7
f 41/41/7 43/43/7 44/44/7
f 45/45/7 46/46/7 47/47/7
f 48/48/7 46/46/7 45/45/7
f 45/45/7 47/47/7 49/49/7
f 54/50/8 55/51/8 56/52/8
f 54/50/8 56/52/8 57/53/8
s 1
f 50/54/8 51/55/8 52/56/8
f 50/54/8 52/56/8 53/57/8
