# Blender v3.0.1 OBJ File: 'rockerfeller_plaza.blend'
# www.blender.org
o geometryt000010000010000110010110000110000100110010110110st128
v 98.376961 -86.579582 583.720215
v 98.376961 -86.579582 566.454224
v 106.713081 -91.110367 566.454224
v 106.713081 -91.110367 583.720215
v 101.113907 -77.939552 583.720215
v 101.113907 -77.939552 566.454224
v 97.880966 -85.154861 566.454224
v 97.880966 -85.154861 583.720215
v 100.167236 -76.485336 566.454224
v 101.528893 -77.013802 566.454224
v 101.528893 -77.013802 583.720215
v 100.167236 -76.485336 660.220154
v 101.641403 -77.057465 583.720215
v 101.641403 -77.057465 584.486145
v 113.434784 -81.634491 584.486145
v 101.528893 -77.013802 660.220154
v 113.434784 -81.634491 583.720215
v 113.645584 -81.716316 583.720215
v 116.383080 -82.778755 660.220154
v 113.645584 -81.716316 660.220154
v 113.645584 -81.716316 566.454224
v 116.383080 -82.778755 566.454224
v 101.333405 -70.773071 566.454224
v 100.002800 -75.326546 566.454224
v 100.002800 -75.326546 583.720215
v 101.333405 -70.773071 583.720215
v 114.419884 -38.511257 583.720215
v 111.920082 -44.937149 583.720215
v 114.419884 -38.511257 660.220154
v 100.087311 -75.354042 660.220154
v 100.087311 -75.354042 583.720215
v 106.566582 -50.919937 583.720215
v 106.566582 -50.919937 566.454224
v 101.766861 -69.278450 566.454224
v 101.766861 -69.278450 583.720215
v 112.953583 -26.497646 566.454224
v 106.956779 -49.446537 566.454224
v 106.956779 -49.446537 583.720215
v 112.953583 -26.497646 583.720215
v 108.175880 -90.700706 566.454224
v 113.105682 -82.594177 566.454224
v 113.105682 -82.594177 583.720215
v 108.175880 -90.700706 583.720215
v 137.299789 -38.746498 583.720215
v 137.299789 -38.746498 566.454224
v 113.648285 -25.969425 566.454224
v 113.648285 -25.969425 583.720215
v 131.469086 -43.999187 660.220154
v 131.469086 -43.999187 583.720215
v 128.658386 -42.913177 583.720215
v 115.243881 -37.729969 660.220154
v 115.243881 -37.729969 583.720215
v 117.106781 -82.379150 566.454224
v 137.525589 -39.559456 566.454224
v 137.525589 -39.559456 583.720215
v 117.106781 -82.379150 583.720215
v 117.216682 -81.972626 583.720215
v 119.716484 -75.546722 583.720215
v 117.216682 -81.972626 660.220154
v 131.549194 -45.129807 660.220154
v 131.549194 -45.129807 583.720215
vt 0.000000 1.000000
vt 0.000000 0.000000
vt 1.000000 0.000000
vt 1.000000 1.000000
vt 0.000000 1.000000
vt 0.000000 0.000000
vt 0.833330 0.000000
vt 0.833330 1.000000
vt 0.000000 0.000000
vt 0.153950 0.000000
vt 0.153950 1.196900
vt 0.000000 6.500000
vt 0.166670 1.196900
vt 0.166670 1.250000
vt 1.500000 1.250000
vt 0.153950 6.500000
vt 1.500000 1.196900
vt 1.523830 1.196900
vt 1.833330 6.500000
vt 1.523830 6.500000
vt 1.523830 0.000000
vt 1.833330 0.000000
vt 0.000000 0.000000
vt 0.500000 0.000000
vt 0.500000 1.250000
vt 0.000000 1.250000
vt 0.000000 0.000000
vt 0.726720 0.000000
vt 0.000000 5.250000
vt 4.166670 5.250000
vt 4.166670 0.000000
vt 0.000000 1.250000
vt 0.000000 0.000000
vt 2.000000 0.000000
vt 2.000000 1.250000
vt 0.000000 0.000000
vt 2.500000 0.000000
vt 2.500000 1.250000
vt 0.000000 1.250000
vt 0.000000 0.000000
vt 1.000000 0.000000
vt 1.000000 1.000000
vt 0.000000 1.000000
vt 0.000000 1.250000
vt 0.000000 0.000000
vt 2.833330 0.000000
vt 2.833330 1.250000
vt 0.000000 5.250000
vt 0.000000 0.000000
vt 0.317590 0.000000
vt 1.833330 5.250000
vt 1.833330 0.000000
vt 0.000000 0.000000
vt 5.000000 0.000000
vt 5.000000 1.250000
vt 0.000000 1.250000
vt 0.000000 0.000000
vt 0.726720 0.000000
vt 0.000000 5.250000
vt 4.166670 5.250000
vt 4.166670 0.000000
vn -0.4775 -0.8786 0.0000
vn -0.9126 0.4089 0.0000
vn -0.3618 -0.9323 0.0000
vn -0.3617 -0.9323 0.0000
vn -0.3618 -0.9322 0.0000
vn -0.3619 -0.9322 0.0000
vn -0.9599 0.2805 0.0000
vn -0.9320 0.3626 0.0000
vn -0.9675 0.2529 0.0000
vn -0.9675 0.2528 0.0000
vn 0.8544 -0.5196 0.0000
vn 0.4753 0.8798 0.0000
vn 0.3604 0.9328 0.0000
vn 0.9026 -0.4304 0.0000
vn 0.9320 -0.3626 0.0000
vn 0.9320 -0.3625 0.0000
s off
f 1/1/1 2/2/1 3/3/1
f 1/1/1 3/3/1 4/4/1
f 5/5/2 6/6/2 7/7/2
f 5/5/2 7/7/2 8/8/2
f 9/9/3 10/10/3 11/11/3
f 11/11/3 12/12/3 9/9/3
f 13/13/4 14/14/4 11/11/4
f 14/14/3 12/12/3 11/11/3
f 15/15/3 16/16/3 14/14/3
f 14/14/3 16/16/3 12/12/3
f 17/17/5 18/18/5 15/15/5
f 18/18/6 19/19/6 15/15/6
f 15/15/3 19/19/3 20/20/3
f 15/15/3 20/20/3 16/16/3
f 21/21/3 22/22/3 18/18/3
f 22/22/3 19/19/3 18/18/3
f 23/23/7 24/24/7 25/25/7
f 26/26/7 23/23/7 25/25/7
f 27/27/8 28/28/8 29/29/8
f 30/30/8 28/28/8 31/31/8
f 29/29/8 28/28/8 30/30/8
f 32/32/9 33/33/9 34/34/9
f 32/32/9 34/34/9 35/35/9
f 36/36/10 37/37/10 38/38/10
f 39/39/10 36/36/10 38/38/10
f 40/40/11 41/41/11 42/42/11
f 43/43/11 40/40/11 42/42/11
f 44/44/12 45/45/12 46/46/12
f 44/44/12 46/46/12 47/47/12
f 48/48/13 49/49/13 50/50/13
f 51/51/13 50/50/13 52/52/13
f 51/51/13 48/48/13 50/50/13
f 53/53/14 54/54/14 55/55/14
f 56/56/14 53/53/14 55/55/14
f 57/57/15 58/58/15 59/59/15
f 60/60/16 58/58/16 61/61/16
f 59/59/15 58/58/15 60/60/15
