# Blender v3.0.1 OBJ File: 'rockerfeller_plaza.blend'
# www.blender.org
o geometryt000010000010000110010110000110000100110010110010st49
v 238.295609 -314.066071 291.998840
v 239.009399 -314.602478 304.065430
v 238.295609 -314.066071 304.065430
v 234.528412 -311.235474 291.998840
v 239.009399 -314.602478 291.565430
v 234.528412 -311.235474 304.065430
v 233.814606 -310.699158 304.065430
v 233.814606 -310.699158 291.565430
v 233.978806 -310.395660 291.998840
v 233.814606 -310.699158 304.065430
v 233.978806 -310.395660 304.065430
v 234.726105 -309.014160 291.998840
v 233.814606 -310.699158 291.565430
v 234.726105 -309.014160 304.065430
v 235.054611 -308.406860 304.065430
v 235.054611 -308.406860 291.998840
v 236.549210 -305.643860 291.998840
v 236.549210 -305.643860 304.065430
v 236.877701 -305.036560 304.065430
v 236.877701 -305.036560 291.998840
v 237.625000 -303.655060 291.998840
v 237.625000 -303.655060 304.065430
v 237.953506 -303.047882 304.065430
v 237.953506 -303.047882 291.998840
v 240.195511 -298.903259 291.998840
v 240.195511 -298.903259 304.065430
v 240.523911 -298.295959 304.065430
v 240.523911 -298.295959 291.998840
v 241.271301 -296.914459 291.998840
v 241.271301 -296.914459 304.065430
v 241.599701 -296.307159 304.065430
v 241.599701 -296.307159 291.998840
v 247.980606 -284.511383 291.565430
v 243.841705 -292.162659 291.998840
v 243.841705 -292.162659 304.065430
v 244.170212 -291.555359 304.065430
v 244.170212 -291.555359 291.998840
v 244.917511 -290.173859 291.998840
v 244.917511 -290.173859 304.065430
v 245.246002 -289.566559 304.065430
v 245.246002 -289.566559 291.998840
v 246.740601 -286.803558 291.998840
v 246.740601 -286.803558 304.065430
v 247.069107 -286.196259 304.065430
v 247.069107 -286.196259 291.998840
v 247.816406 -284.814758 291.998840
v 247.816406 -284.814758 304.065430
v 247.980606 -284.511383 304.065430
v 253.474106 -287.868866 291.998840
v 253.638306 -287.565460 304.065430
v 253.474106 -287.868866 304.065430
v 252.726700 -289.250366 291.998840
v 253.638306 -287.565460 291.565430
v 252.726700 -289.250366 304.065430
v 252.434006 -289.791168 304.065430
v 252.434006 -289.791168 291.998840
v 250.939102 -292.554169 291.998840
v 250.939102 -292.554169 304.065430
v 250.646500 -293.094971 304.065430
v 250.646500 -293.094971 291.998840
v 249.899002 -294.476471 291.998840
v 249.899002 -294.476471 304.065430
v 249.606400 -295.017273 304.065430
v 249.606400 -295.017273 291.998840
v 247.364014 -299.161682 291.998840
v 247.364014 -299.161682 304.065430
v 247.071304 -299.702484 304.065430
v 247.071304 -299.702484 291.998840
v 245.576401 -302.465363 291.998840
v 239.009399 -314.602478 291.565430
v 245.576401 -302.465363 304.065430
v 245.283813 -303.006256 304.065430
v 245.283813 -303.006256 291.998840
v 243.041412 -307.150665 291.998840
v 243.041412 -307.150665 304.065430
v 242.748703 -307.691467 304.065430
v 242.748703 -307.691467 291.998840
v 242.001312 -309.072968 291.998840
v 242.001312 -309.072968 304.065430
v 241.708603 -309.613770 304.065430
v 241.708603 -309.613770 291.998840
v 240.213699 -312.376678 291.998840
v 240.213699 -312.376678 304.065430
v 239.921112 -312.917572 304.065430
v 239.921112 -312.917572 291.998840
v 239.173599 -314.298981 291.998840
v 239.173599 -314.298981 304.065430
v 239.009399 -314.602478 304.065430
v 248.736206 -284.919159 291.998840
v 247.980606 -284.511383 304.065430
v 248.736206 -284.919159 304.065430
v 253.638306 -287.565460 291.565430
v 252.882706 -287.157562 291.998840
v 247.980606 -284.511383 291.565430
v 252.882706 -287.157562 304.065430
v 253.638306 -287.565460 304.065430
vt 2.241990 0.170710
vt 2.599130 4.923200
vt 2.241990 4.923200
vt 0.357140 0.170710
vt 2.599130 0.000000
vt 0.357140 4.923200
vt 0.000000 4.923200
vt 0.000000 0.000000
vt 11.771500 0.170710
vt 11.909500 4.923200
vt 11.771500 4.923200
vt 11.143220 0.170710
vt 11.909500 0.000000
vt 11.143220 4.923200
vt 10.867060 4.923200
vt 10.867060 0.170710
vt 9.610490 0.170710
vt 9.610490 4.923200
vt 9.334341 4.923200
vt 9.334341 0.170710
vt 8.706050 0.170710
vt 8.706050 4.923200
vt 8.429901 4.923200
vt 8.429901 0.170710
vt 6.545050 0.170710
vt 6.545050 4.923200
vt 6.268890 4.923200
vt 6.268890 0.170710
vt 5.640610 4.923200
vt 5.364450 4.923200
vt 5.640610 0.170710
vt 5.364450 0.170710
vt 0.000000 0.000000
vt 3.479600 4.923200
vt 3.203450 4.923200
vt 3.479600 0.170710
vt 3.203450 0.170710
vt 2.575160 0.170710
vt 2.575160 4.923200
vt 2.299010 4.923200
vt 2.299010 0.170710
vt 1.042440 0.170710
vt 1.042440 4.923200
vt 0.766280 4.923200
vt 0.766280 0.170710
vt 0.138000 0.170710
vt 0.138000 4.923200
vt 0.000000 4.923200
vt 12.158350 0.170710
vt 12.296340 4.923200
vt 12.158350 4.923200
vt 11.530060 0.170710
vt 12.296340 0.000000
vt 11.530060 4.923200
vt 11.284090 4.923200
vt 11.284090 0.170710
vt 10.027520 0.170710
vt 10.027520 4.923200
vt 9.781540 4.923200
vt 9.781540 0.170710
vt 9.153261 0.170710
vt 9.153261 4.923200
vt 8.907280 4.923200
vt 8.907280 0.170710
vt 7.022430 0.170710
vt 7.022430 4.923200
vt 6.776460 4.923200
vt 6.776460 0.170710
vt 5.519890 0.170710
vt 0.000000 0.000000
vt 5.519890 4.923200
vt 5.273910 4.923200
vt 5.273910 0.170710
vt 3.389060 0.170710
vt 3.389060 4.923200
vt 3.143090 4.923200
vt 3.143090 0.170710
vt 2.514800 4.923200
vt 2.268830 4.923200
vt 2.514800 0.170710
vt 2.268830 0.170710
vt 1.012260 0.170710
vt 1.012260 4.923200
vt 0.766280 4.923200
vt 0.766280 0.170710
vt 0.138000 0.170710
vt 0.138000 4.923200
vt 0.000000 4.923200
vt 2.228310 0.170710
vt 2.571770 4.923200
vt 2.228310 4.923200
vt 0.000000 0.000000
vt 0.343460 0.170710
vt 2.571770 0.000000
vt 0.343460 4.923200
vt 0.000000 4.923200
vn -0.6008 -0.7994 0.0000
vn -0.6007 -0.7995 -0.0003
vn -0.6007 -0.7995 0.0000
vn -0.6007 -0.7995 0.0001
vn -0.8795 0.4759 0.0000
vn -0.8796 0.4758 -0.0000
vn -0.8795 0.4758 0.0000
vn -0.8796 0.4758 0.0001
vn -0.8796 0.4757 0.0000
vn -0.8795 0.4758 0.0004
vn -0.8794 0.4761 0.0000
vn -0.8796 0.4756 0.0000
vn -0.8795 0.4758 -0.0008
vn -0.8795 0.4759 -0.0004
vn -0.8796 0.4758 -0.0002
vn -0.8795 0.4758 -0.0002
vn 0.8795 -0.4760 0.0000
vn 0.8795 -0.4758 0.0001
vn 0.8795 -0.4759 0.0000
vn 0.8796 -0.4758 0.0003
vn 0.8795 -0.4758 0.0000
vn 0.8795 -0.4759 0.0004
vn 0.8795 -0.4759 0.0009
vn 0.8796 -0.4757 0.0001
vn 0.8796 -0.4757 -0.0000
vn 0.8794 -0.4760 0.0000
vn 0.8795 -0.4759 -0.0002
vn 0.8795 -0.4759 0.0001
vn 0.8796 -0.4758 0.0000
vn 0.8796 -0.4757 -0.0001
vn 0.4749 0.8800 0.0000
vn 0.4750 0.8800 0.0000
vn 0.4750 0.8800 0.0002
vn -0.8796 0.4758 -0.0016
vn -0.8797 0.4756 -0.0000
vn -0.8796 0.4757 -0.0007
vn -0.8795 0.4758 -0.0032
vn -0.8795 0.4758 -0.0033
vn -0.8795 0.4758 0.0005
vn 0.8795 -0.4759 -0.0007
vn 0.8795 -0.4759 -0.0019
vn 0.8790 -0.4768 -0.0010
vn 0.8795 -0.4759 0.0005
vn 0.8795 -0.4759 0.0010
vn 0.8795 -0.4760 -0.0002
vn 0.8795 -0.4758 -0.0004
s off
f 1/1/1 2/2/1 3/3/1
f 4/4/2 5/5/2 1/1/2
f 2/2/1 1/1/1 5/5/1
f 6/6/3 7/7/3 4/4/3
f 7/7/3 8/8/3 4/4/3
f 8/8/4 5/5/4 4/4/4
f 9/9/5 10/10/5 11/11/5
f 12/12/6 13/13/6 9/9/6
f 10/10/7 9/9/7 13/13/7
f 14/14/6 15/15/6 12/12/6
f 15/15/6 16/16/6 12/12/6
f 16/16/7 13/13/7 12/12/7
f 16/16/8 17/17/8 13/13/8
f 18/18/9 19/19/9 17/17/9
f 19/19/6 20/20/6 17/17/6
f 17/17/10 20/20/10 13/13/10
f 20/20/5 21/21/5 13/13/5
f 22/22/7 23/23/7 21/21/7
f 23/23/5 24/24/5 21/21/5
f 24/24/8 25/25/8 13/13/8
f 26/26/9 27/27/9 25/25/9
f 27/27/11 28/28/11 25/25/11
f 30/29/12 31/30/12 29/31/12
f 31/30/11 32/32/11 29/31/11
f 29/31/6 33/33/6 13/13/6
f 35/34/6 36/35/6 34/36/6
f 36/35/7 37/37/7 34/36/7
f 37/37/13 33/33/13 34/36/13
f 38/38/14 33/33/14 37/37/14
f 39/39/6 40/40/6 38/38/6
f 40/40/9 41/41/9 38/38/9
f 42/42/15 33/33/15 41/41/15
f 43/43/6 44/44/6 42/42/6
f 44/44/7 45/45/7 42/42/7
f 45/45/16 33/33/16 42/42/16
f 46/46/15 33/33/15 45/45/15
f 47/47/5 48/48/5 46/46/5
f 48/48/6 33/33/6 46/46/6
f 49/49/17 50/50/17 51/51/17
f 52/52/18 53/53/18 49/49/18
f 50/50/19 49/49/19 53/53/19
f 54/54/17 55/55/17 52/52/17
f 55/55/17 56/56/17 52/52/17
f 56/56/20 57/57/20 53/53/20
f 58/58/19 59/59/19 57/57/19
f 59/59/21 60/60/21 57/57/21
f 57/57/22 60/60/22 53/53/22
f 60/60/17 61/61/17 53/53/17
f 62/62/19 63/63/19 61/61/19
f 63/63/19 64/64/19 61/61/19
f 61/61/23 64/64/23 53/53/23
f 64/64/24 65/65/24 53/53/24
f 66/66/25 67/67/25 65/65/25
f 67/67/26 68/68/26 65/65/26
f 69/69/27 70/70/27 68/68/27
f 68/68/28 70/70/28 53/53/28
f 71/71/29 72/72/29 69/69/29
f 72/72/21 73/73/21 69/69/21
f 74/74/30 70/70/30 73/73/30
f 75/75/26 76/76/26 74/74/26
f 76/76/17 77/77/17 74/74/17
f 79/78/26 80/79/26 78/80/26
f 80/79/17 81/81/17 78/80/17
f 82/82/29 70/70/29 81/81/29
f 83/83/29 84/84/29 82/82/29
f 84/84/21 85/85/21 82/82/21
f 85/85/22 70/70/22 82/82/22
f 86/86/19 70/70/19 85/85/19
f 87/87/19 88/88/19 86/86/19
f 88/88/21 70/70/21 86/86/21
f 89/89/31 90/90/31 91/91/31
f 92/92/32 89/89/32 93/93/32
f 92/92/33 94/94/33 89/89/33
f 90/90/31 89/89/31 94/94/31
f 95/95/32 96/96/32 93/93/32
f 96/96/32 92/92/32 93/93/32
s 1
f 21/21/9 24/24/9 13/13/9
f 25/25/34 28/28/35 13/13/36
f 28/28/35 29/31/35 13/13/36
f 32/32/37 33/33/6 29/31/38
f 34/36/6 33/33/6 32/32/37
f 41/41/39 33/33/39 38/38/39
f 56/56/40 53/53/40 52/52/40
f 65/65/41 68/68/41 53/53/41
f 73/73/42 70/70/42 69/69/42
f 77/77/23 70/70/43 74/74/44
f 78/80/45 70/70/43 77/77/23
f 81/81/46 70/70/43 78/80/45
