# Blender v3.0.1 OBJ File: 'rockerfeller_plaza.blend'
# www.blender.org
o geometryt000010000010000110010110000110000110100000100110st72
v 683.842651 -301.898499 711.726990
v 683.923462 -301.750610 703.026978
v 683.842651 -301.898499 703.026978
v 684.355103 -300.960022 711.726990
v 684.355103 -300.960022 703.026978
v 683.842651 -301.898499 711.726990
v 683.842651 -301.898499 703.026978
v 684.146729 -302.061401 703.026978
v 684.146729 -302.061401 711.726990
v 685.529846 -302.802307 711.726990
v 685.529846 -302.802307 703.026978
v 686.629944 -303.391602 703.026978
v 686.629944 -303.391602 711.726990
v 688.013062 -304.132507 711.726990
v 688.013062 -304.132507 703.026978
v 689.113159 -304.721802 703.026978
v 689.113159 -304.721802 711.726990
v 690.496216 -305.462616 711.726990
v 690.496216 -305.462616 703.026978
v 690.800354 -305.625610 703.026978
v 690.800354 -305.625610 711.726990
v 684.519165 -300.656403 711.726990
v 684.519165 -300.656403 657.546631
v 684.355103 -300.960022 703.026978
v 684.355103 -300.960022 711.726990
v 685.265137 -299.276123 657.546631
v 684.355103 -300.960022 656.526978
v 685.265137 -299.276123 711.726990
v 685.651428 -298.561310 711.726990
v 685.651428 -298.561310 657.546631
v 686.397461 -297.180908 657.546631
v 686.397461 -297.180908 711.726990
v 686.783752 -296.466095 711.726990
v 686.783752 -296.466095 657.546631
v 687.529724 -295.085693 657.546631
v 689.958252 -290.591797 656.526978
v 687.529724 -295.085693 711.726990
v 687.916016 -294.370911 711.726990
v 687.916016 -294.370911 657.546631
v 688.661926 -292.990509 657.546631
v 688.661926 -292.990509 711.726990
v 689.048218 -292.275696 711.726990
v 689.048218 -292.275696 657.546631
v 689.794250 -290.895294 657.546631
v 689.794250 -290.895294 711.726990
v 689.958252 -290.591797 711.726990
v 690.544312 -290.905212 657.546631
v 691.689941 -291.517822 656.526978
v 689.958252 -290.591797 656.526978
v 691.689941 -291.517822 657.546631
v 689.958252 -290.591797 711.726990
v 690.544312 -290.905212 711.726990
v 692.514038 -291.958496 703.026978
v 691.927917 -291.645111 703.026978
v 691.927917 -291.645111 709.214050
v 690.800354 -305.625610 711.726990
v 690.800354 -305.625610 703.026978
v 690.964417 -305.322113 703.026978
v 690.964417 -305.322113 711.726990
v 691.710938 -303.942017 711.726990
v 691.710938 -303.942017 703.026978
v 692.224731 -302.992218 703.026978
v 692.224731 -302.992218 711.726990
v 692.971130 -301.612122 711.726990
v 692.971130 -301.612122 703.026978
v 693.484924 -300.662323 703.026978
v 693.484924 -300.662323 711.726990
v 694.231445 -299.282104 711.726990
v 694.231445 -299.282104 703.026978
v 694.745117 -298.332306 703.026978
v 694.745117 -298.332306 711.726990
v 695.491638 -296.952209 711.726990
v 695.491638 -296.952209 703.026978
v 695.952148 -296.100922 703.026978
v 696.005310 -296.002411 703.026978
v 696.005310 -296.002411 711.726990
v 696.751831 -294.622314 711.726990
v 696.751831 -294.622314 703.026978
v 696.915955 -294.318817 703.026978
v 696.915955 -294.318817 711.726990
v 691.995239 -291.678406 708.515198
v 691.691223 -291.515320 711.726990
v 691.995239 -291.678406 711.726990
v 695.229431 -293.413818 711.726990
v 695.229431 -293.413818 703.026978
v 693.377808 -292.420319 703.026978
v 693.377808 -292.420319 711.726990
v 696.915955 -294.318817 711.726990
v 696.915955 -294.318817 703.026978
v 696.611938 -294.155701 703.026978
v 696.611938 -294.155701 711.726990
vt 0.551790 4.489160
vt 0.464820 0.000000
vt 0.551790 0.000000
vt 0.000000 4.489160
vt 0.000000 0.000000
vt 0.000000 4.489160
vt 0.000000 0.000000
vt 0.178020 0.000000
vt 0.178020 4.489160
vt 0.987640 4.489160
vt 0.987640 0.000000
vt 1.631580 0.000000
vt 1.631580 4.489160
vt 2.441200 4.489160
vt 2.441200 0.000000
vt 3.085150 0.000000
vt 3.085150 4.489160
vt 6.081180 23.993811
vt 6.081180 28.482969
vt 5.903160 28.482969
vt 5.093540 0.526130
vt 6.081180 0.000000
vt 5.903160 0.526130
vt 5.093540 28.482969
vt 4.674280 28.482969
vt 4.674280 0.526130
vt 3.864660 0.526130
vt 3.864660 28.482969
vt 3.445400 28.482969
vt 3.445400 0.526130
vt 0.000000 0.000000
vt 2.635780 0.526130
vt 2.635780 28.482969
vt 2.216520 28.482969
vt 2.216520 0.526130
vt 1.406900 0.526130
vt 1.406900 28.482969
vt 0.987640 28.482969
vt 0.987640 0.526130
vt 0.178020 0.526130
vt 0.178020 28.482969
vt 0.000000 28.482969
vt 1.152550 0.526130
vt 0.482210 0.000000
vt 1.495470 0.000000
vt 0.482210 0.526130
vt 1.495470 28.482969
vt 1.152550 28.482969
vt 0.000000 23.993811
vt 0.342920 23.993811
vt 0.342920 27.186291
vt 0.000000 4.489160
vt 0.000000 0.000000
vt 0.178020 0.000000
vt 0.178020 4.489160
vt 0.987640 4.489160
vt 0.987640 0.000000
vt 1.544840 0.000000
vt 1.544840 4.489160
vt 2.354470 4.489160
vt 2.354470 0.000000
vt 2.911670 0.000000
vt 2.911670 4.489160
vt 3.721290 4.489160
vt 3.721290 0.000000
vt 4.278500 0.000000
vt 4.278500 4.489160
vt 5.088120 4.489160
vt 5.088120 0.000000
vt 5.587550 0.000000
vt 5.645320 4.489160
vt 6.454940 4.489160
vt 6.454940 0.000000
vt 6.632960 0.000000
vt 6.632960 4.489160
vt 2.881500 2.831880
vt 3.059520 4.489160
vt 2.881500 4.489160
vt 0.987640 4.489160
vt 0.987640 0.000000
vt 2.071880 0.000000
vt 2.071880 4.489160
vt 0.000000 4.489160
vt 0.000000 0.000000
vt 0.178020 0.000000
vt 0.178020 4.489160
vt 3.894770 4.489160
vt 3.894770 0.000000
vt 4.072790 0.000000
vt 4.072790 4.489160
vt 5.645320 0.000000
vn -0.8775 0.4796 0.0000
vn -0.8777 0.4792 -0.0000
vn -0.8777 0.4793 0.0000
vn -0.4722 -0.8815 0.0000
vn -0.8796 0.4757 -0.0000
vn -0.8797 0.4754 -0.0000
vn -0.8798 0.4754 0.0000
vn -0.8797 0.4755 0.0000
vn -0.8798 0.4753 0.0000
vn -0.8797 0.4756 0.0000
vn -0.8797 0.4754 -0.0002
vn 0.4716 0.8818 0.0000
vn 0.4715 0.8818 0.0000
vn 0.8795 -0.4758 0.0000
vn 0.8796 -0.4756 0.0000
vn 0.8796 -0.4758 0.0000
vn 0.8796 -0.4757 0.0000
vn 0.8798 -0.4754 0.0000
vn 0.8793 -0.4762 0.0000
vn 0.4729 0.8811 0.0000
vn 0.4728 0.8812 0.0000
vn 0.4731 0.8810 0.0000
vn 0.4728 0.8811 0.0000
vn -0.4720 -0.8816 0.0000
vn -0.4723 -0.8814 0.0000
vn -0.8796 0.4756 0.0000
vn -0.8797 0.4756 0.0001
vn 0.8799 -0.4751 -0.0000
s off
f 1/1/1 2/2/1 3/3/1
f 2/2/2 1/1/2 4/4/2
f 5/5/3 2/2/3 4/4/3
f 6/6/4 7/7/4 8/8/4
f 6/6/4 8/8/4 9/9/4
f 10/10/4 11/11/4 12/12/4
f 10/10/4 12/12/4 13/13/4
f 14/14/4 15/15/4 16/16/4
f 14/14/4 16/16/4 17/17/4
f 24/18/5 25/19/5 22/20/5
f 26/21/6 27/22/6 23/23/6
f 24/18/7 23/23/7 27/22/7
f 26/21/7 28/24/7 29/25/7
f 26/21/7 29/25/7 30/26/7
f 30/26/7 27/22/7 26/21/7
f 30/26/8 31/27/8 27/22/8
f 31/27/9 32/28/9 33/29/9
f 31/27/10 33/29/10 34/30/10
f 34/30/7 36/31/7 27/22/7
f 35/32/10 37/33/10 38/34/10
f 35/32/9 38/34/9 39/35/9
f 39/35/9 36/31/9 35/32/9
f 40/36/11 36/31/11 39/35/11
f 40/36/10 41/37/10 42/38/10
f 40/36/9 42/38/9 43/39/9
f 43/39/7 36/31/7 40/36/7
f 44/40/7 36/31/7 43/39/7
f 44/40/9 45/41/9 46/42/9
f 46/42/7 36/31/7 44/40/7
f 47/43/12 48/44/12 49/45/12
f 50/46/12 48/44/12 47/43/12
f 51/47/12 47/43/12 49/45/12
f 52/48/12 47/43/12 51/47/12
f 53/49/13 54/50/13 55/51/13
f 56/52/14 57/53/14 58/54/14
f 56/52/15 58/54/15 59/55/15
f 60/56/16 61/57/16 62/58/16
f 60/56/14 62/58/14 63/59/14
f 64/60/16 65/61/16 66/62/16
f 64/60/16 66/62/16 67/63/16
f 68/64/17 69/65/17 70/66/17
f 68/64/17 70/66/17 71/67/17
f 72/68/14 73/69/14 74/70/14
f 72/68/16 74/70/16 76/71/16
f 77/72/18 78/73/18 79/74/18
f 77/72/19 79/74/19 80/75/19
f 81/76/20 82/77/20 83/78/20
f 84/79/21 85/80/21 86/81/21
f 84/79/21 86/81/21 87/82/21
f 88/83/22 89/84/22 90/85/22
f 88/83/23 90/85/23 91/86/23
s 1
f 18/87/24 19/88/25 20/89/25
f 18/87/24 20/89/25 21/90/24
f 22/20/10 23/23/10 24/18/10
f 31/27/26 34/30/26 27/22/26
f 35/32/27 36/31/27 34/30/27
f 74/70/28 75/91/28 76/71/28
