# Blender v3.0.1 OBJ File: 'rockerfeller_plaza.blend'
# www.blender.org
o geometryt000010000010000110010110000110000110100000000100st54
v 440.412628 -235.726593 84.099792
v 440.412628 -235.726593 74.099792
v 440.131409 -236.258301 74.099792
v 440.131409 -236.258301 84.099792
v 442.163422 -232.415497 84.099792
v 442.163422 -232.415497 74.099792
v 441.882324 -232.947205 74.099792
v 441.882324 -232.947205 84.099792
v 440.131409 -236.258301 84.099792
v 440.131409 -236.258301 74.099792
v 440.720825 -236.581604 74.099792
v 440.720825 -236.581604 84.099792
v 442.099243 -237.337494 84.099792
v 442.099243 -237.337494 74.099792
v 442.688629 -237.660797 74.099792
v 442.688629 -237.660797 84.099792
v 442.378845 -232.019806 84.099792
v 442.378845 -232.019806 74.099792
v 442.163422 -232.415497 74.099792
v 442.163422 -232.415497 84.099792
v 444.097534 -228.862503 84.099792
v 444.097534 -228.862503 74.099792
v 443.882019 -229.258301 74.099792
v 443.882019 -229.258301 84.099792
v 442.688629 -237.660797 84.099792
v 442.688629 -237.660797 74.099792
v 443.599243 -238.155304 74.099792
v 443.599243 -238.155304 84.099792
v 444.980713 -238.905502 84.099792
v 444.980713 -238.905502 74.099792
v 445.891327 -239.399902 74.099792
v 445.891327 -239.399902 84.099792
v 444.313049 -228.463593 84.099792
v 444.313049 -228.463593 74.099792
v 444.097534 -228.862503 74.099792
v 444.097534 -228.862503 84.099792
v 446.022949 -225.298599 84.099792
v 446.022949 -225.298599 74.099792
v 445.807434 -225.697495 74.099792
v 445.807434 -225.697495 84.099792
v 445.891327 -239.399902 84.099792
v 445.891327 -239.399902 74.099792
v 446.757507 -239.864899 74.099792
v 446.757507 -239.864899 84.099792
v 448.142639 -240.608505 84.099792
v 448.142639 -240.608505 74.099792
v 449.008850 -241.073502 74.099792
v 449.008850 -241.073502 84.099792
v 446.197815 -224.976501 84.099792
v 446.197815 -224.976501 74.099792
v 446.022949 -225.298599 74.099792
v 446.022949 -225.298599 84.099792
v 462.874725 -194.260696 84.099792
v 462.874725 -194.260696 74.099792
v 462.699921 -194.582703 74.099792
v 462.699921 -194.582703 84.099792
v 449.008850 -241.073502 84.099792
v 449.008850 -241.073502 74.099792
v 449.443909 -241.302505 74.099792
v 449.443909 -241.302505 84.099792
v 452.226013 -242.767105 84.099792
v 452.226013 -242.767105 74.099792
v 452.661011 -242.996094 74.099792
v 452.661011 -242.996094 84.099792
v 452.661011 -242.996094 84.099792
v 452.661011 -242.996094 74.099792
v 453.191925 -241.998093 74.099792
v 453.191925 -241.998093 84.099792
v 466.479828 -217.015503 84.099792
v 466.479828 -217.015503 74.099792
v 467.010620 -216.017502 74.099792
v 467.010620 -216.017502 84.099792
v 463.083435 -193.870605 84.099792
v 463.083435 -193.870605 74.099792
v 462.874725 -194.260696 74.099792
v 462.874725 -194.260696 84.099792
v 464.775024 -190.708099 84.099792
v 464.775024 -190.708099 74.099792
v 464.566345 -191.098206 74.099792
v 464.566345 -191.098206 84.099792
v 464.943115 -190.402603 84.099792
v 464.943115 -190.402603 74.099792
v 464.775024 -190.708099 74.099792
v 464.775024 -190.708099 84.099792
v 468.900208 -183.210602 84.099792
v 468.900208 -183.210602 74.099792
v 468.732117 -183.516006 74.099792
v 468.732117 -183.516006 84.099792
v 467.010620 -216.017502 84.099792
v 467.010620 -216.017502 74.099792
v 467.393921 -216.224899 74.099792
v 467.393921 -216.224899 84.099792
v 468.776550 -216.973007 84.099792
v 468.776550 -216.973007 74.099792
v 469.159912 -217.180405 74.099792
v 469.159912 -217.180405 84.099792
v 469.516907 -183.552597 84.099792
v 469.516907 -183.552597 74.099792
v 468.900208 -183.210602 74.099792
v 468.900208 -183.210602 84.099792
v 471.508545 -184.656906 84.099792
v 471.508545 -184.656906 74.099792
v 470.891846 -184.314896 74.099792
v 470.891846 -184.314896 84.099792
v 469.159912 -217.180405 84.099792
v 469.159912 -217.180405 74.099792
v 469.521729 -216.535904 74.099792
v 469.521729 -216.535904 84.099792
v 477.217224 -202.827896 84.099792
v 477.217224 -202.827896 74.099792
v 477.579132 -202.183395 74.099792
v 477.579132 -202.183395 84.099792
v 472.316345 -185.093094 84.099792
v 472.316345 -185.093094 74.099792
v 471.508545 -184.656906 74.099792
v 471.508545 -184.656906 84.099792
v 474.507233 -186.276199 84.099792
v 474.507233 -186.276199 74.099792
v 473.699524 -185.839996 74.099792
v 473.699524 -185.839996 84.099792
v 474.881348 -186.475494 84.099792
v 474.881348 -186.475494 74.099792
v 474.507233 -186.276199 74.099792
v 474.507233 -186.276199 84.099792
v 483.579712 -191.110001 84.099792
v 483.579712 -191.110001 74.099792
v 483.205627 -190.910706 74.099792
v 483.205627 -190.910706 84.099792
v 477.579132 -202.183395 84.099792
v 477.579132 -202.183395 74.099792
v 477.957642 -201.484894 74.099792
v 477.957642 -201.484894 84.099792
v 483.200531 -191.809906 84.099792
v 483.200531 -191.809906 74.099792
v 483.579041 -191.111298 74.099792
v 483.579041 -191.111298 84.099792
vt 3.738030 7.451560
vt 3.738030 0.000000
vt 4.338270 0.000000
vt 4.338270 7.451560
vt 0.000000 7.451560
vt 0.000000 0.000000
vt 0.600240 0.000000
vt 0.600240 7.451560
vt 0.000000 7.451560
vt 0.000000 0.000000
vt 0.670920 0.000000
vt 0.670920 7.451560
vt 2.239810 7.451560
vt 2.239810 0.000000
vt 2.910730 0.000000
vt 2.910730 7.451560
vt 3.587500 7.451560
vt 3.587500 0.000000
vt 4.037200 0.000000
vt 4.037200 7.451560
vt 0.000000 7.451560
vt 0.000000 0.000000
vt 0.449710 0.000000
vt 0.449710 7.451560
vt 0.000000 7.451560
vt 0.000000 0.000000
vt 1.034130 0.000000
vt 1.034130 7.451560
vt 2.603020 7.451560
vt 2.603020 0.000000
vt 3.637150 0.000000
vt 3.637150 7.451560
vt 3.590280 7.451560
vt 3.590280 0.000000
vt 4.042780 0.000000
vt 4.042780 7.451560
vt 0.000000 7.451560
vt 0.000000 0.000000
vt 0.452500 0.000000
vt 0.452500 7.451560
vt 0.000000 7.451560
vt 0.000000 0.000000
vt 0.981170 0.000000
vt 0.981170 7.451560
vt 2.550070 7.451560
vt 2.550070 0.000000
vt 3.531240 0.000000
vt 3.531240 7.451560
vt 34.881359 7.451560
vt 34.881359 0.000000
vt 35.247059 0.000000
vt 35.247059 7.451560
vt 0.000000 7.451560
vt 0.000000 0.000000
vt 0.365690 0.000000
vt 0.365690 7.451560
vt 0.000000 7.451560
vt 0.000000 0.000000
vt 0.490690 0.000000
vt 0.490690 7.451560
vt 3.628470 7.451560
vt 3.628470 0.000000
vt 4.119160 0.000000
vt 4.119160 7.451560
vt 0.000000 7.451560
vt 0.000000 0.000000
vt 1.128190 0.000000
vt 1.128190 7.451560
vt 29.368280 7.451560
vt 29.368280 0.000000
vt 30.496469 0.000000
vt 30.496469 7.451560
vt 3.579320 7.451560
vt 3.579320 0.000000
vt 4.020850 0.000000
vt 4.020850 7.451560
vt 0.000000 7.451560
vt 0.000000 0.000000
vt 0.441530 0.000000
vt 0.441530 7.451560
vt 8.192440 7.451560
vt 8.192440 0.000000
vt 8.540400 0.000000
vt 8.540400 7.451560
vt 0.000000 7.451560
vt 0.000000 0.000000
vt 0.347970 0.000000
vt 0.347970 7.451560
vt 0.000000 7.451560
vt 0.000000 0.000000
vt 0.434970 0.000000
vt 0.434970 7.451560
vt 2.003860 7.451560
vt 2.003860 0.000000
vt 2.438830 0.000000
vt 2.438830 7.451560
vt 2.272720 7.451560
vt 2.272720 0.000000
vt 2.976540 0.000000
vt 2.976540 7.451560
vt 0.000000 7.451560
vt 0.000000 0.000000
vt 0.703820 0.000000
vt 0.703820 7.451560
vt 0.000000 7.451560
vt 0.000000 0.000000
vt 0.737720 0.000000
vt 0.737720 7.451560
vt 2.485050 7.451560
vt 2.485050 0.000000
vt 3.401200 0.000000
vt 3.401200 7.451560
vt 0.000000 7.451560
vt 0.000000 0.000000
vt 0.916160 0.000000
vt 0.916160 7.451560
vt 9.836331 7.451560
vt 9.836331 0.000000
vt 10.259310 0.000000
vt 10.259310 7.451560
vt 0.000000 7.451560
vt 0.000000 0.000000
vt 0.422970 0.000000
vt 0.422970 7.451560
vt 0.000000 7.451560
vt 0.000000 0.000000
vt 0.792910 0.000000
vt 0.792910 7.451560
vt 11.775170 7.451560
vt 11.775170 0.000000
vt 12.568090 0.000000
vt 12.568090 7.451560
vt 16.426661 7.451560
vt 16.426661 0.000000
vt 17.164379 0.000000
vt 17.164379 7.451560
vn -0.8840 0.4676 0.0000
vn -0.8841 0.4673 0.0000
vn -0.8840 0.4674 0.0000
vn -0.4809 -0.8768 0.0000
vn -0.4810 -0.8767 0.0000
vn -0.8782 0.4783 0.0000
vn -0.8784 0.4780 0.0000
vn -0.8782 0.4782 0.0000
vn -0.4772 -0.8788 0.0000
vn -0.4771 -0.8788 0.0000
vn -0.8798 0.4753 0.0000
vn -0.8799 0.4752 0.0000
vn -0.8798 0.4754 0.0000
vn -0.4730 -0.8811 0.0000
vn -0.8789 0.4770 0.0000
vn -0.8788 0.4772 0.0000
vn -0.8789 0.4771 0.0000
vn -0.4658 -0.8849 0.0000
vn 0.8829 -0.4696 0.0000
vn 0.8828 -0.4697 0.0000
vn -0.8817 0.4719 0.0000
vn -0.8817 0.4717 0.0000
vn -0.8818 0.4715 0.0000
vn -0.8818 0.4717 0.0000
vn -0.8762 0.4820 0.0000
vn -0.8760 0.4822 0.0000
vn -0.8761 0.4821 0.0000
vn -0.4760 -0.8795 0.0000
vn -0.4758 -0.8796 0.0000
vn -0.4759 -0.8795 0.0000
vn 0.4850 0.8745 0.0000
vn 0.8720 -0.4895 0.0000
vn 0.4751 0.8799 0.0000
vn 0.4752 0.8799 0.0000
vn 0.4702 0.8826 0.0000
vn 0.4702 0.8825 0.0000
vn 0.8793 -0.4763 0.0000
vn 0.8792 -0.4764 0.0000
vn 0.8792 -0.4765 0.0000
vn 0.8722 -0.4892 0.0000
vn 0.8719 -0.4896 0.0000
s off
f 1/1/1 2/2/1 3/3/1
f 1/1/1 3/3/1 4/4/1
f 5/5/2 6/6/2 7/7/2
f 5/5/3 7/7/3 8/8/3
f 9/9/4 10/10/4 11/11/4
f 9/9/5 11/11/5 12/12/5
f 13/13/4 14/14/4 15/15/4
f 13/13/5 15/15/5 16/16/5
f 17/17/6 18/18/6 19/19/6
f 17/17/7 19/19/7 20/20/7
f 21/21/8 22/22/8 23/23/8
f 21/21/8 23/23/8 24/24/8
f 25/25/9 26/26/9 27/27/9
f 25/25/9 27/27/9 28/28/9
f 29/29/10 30/30/10 31/31/10
f 29/29/9 31/31/9 32/32/9
f 33/33/11 34/34/11 35/35/11
f 33/33/12 35/35/12 36/36/12
f 37/37/13 38/38/13 39/39/13
f 37/37/13 39/39/13 40/40/13
f 41/41/14 42/42/14 43/43/14
f 41/41/14 43/43/14 44/44/14
f 45/45/14 46/46/14 47/47/14
f 45/45/14 47/47/14 48/48/14
f 49/49/15 50/50/15 51/51/15
f 49/49/16 51/51/16 52/52/16
f 53/53/17 54/54/17 55/55/17
f 53/53/17 55/55/17 56/56/17
f 57/57/18 58/58/18 59/59/18
f 57/57/18 59/59/18 60/60/18
f 61/61/18 62/62/18 63/63/18
f 61/61/18 63/63/18 64/64/18
f 65/65/19 66/66/19 67/67/19
f 65/65/20 67/67/20 68/68/20
f 69/69/19 70/70/19 71/71/19
f 69/69/19 71/71/19 72/72/19
f 73/73/21 74/74/21 75/75/21
f 73/73/22 75/75/22 76/76/22
f 77/77/23 78/78/23 79/79/23
f 77/77/24 79/79/24 80/80/24
f 81/81/25 82/82/25 83/83/25
f 81/81/26 83/83/26 84/84/26
f 85/85/27 86/86/27 87/87/27
f 85/85/27 87/87/27 88/88/27
f 89/89/28 90/90/28 91/91/28
f 89/89/29 91/91/29 92/92/29
f 93/93/30 94/94/30 95/95/30
f 93/93/29 95/95/29 96/96/29
f 97/97/31 98/98/31 99/99/31
f 97/97/31 99/99/31 100/100/31
f 101/101/31 102/102/31 103/103/31
f 101/101/31 103/103/31 104/104/31
f 105/105/32 106/106/32 107/107/32
f 105/105/32 107/107/32 108/108/32
f 113/109/33 114/110/33 115/111/33
f 113/109/33 115/111/33 116/112/33
f 117/113/34 118/114/34 119/115/34
f 117/113/33 119/115/33 120/116/33
f 121/117/35 122/118/35 123/119/35
f 121/117/35 123/119/35 124/120/35
f 125/121/36 126/122/36 127/123/36
f 125/121/35 127/123/35 128/124/35
f 129/125/37 130/126/37 131/127/37
f 129/125/38 131/127/38 132/128/38
f 133/129/37 134/130/37 135/131/37
f 133/129/39 135/131/39 136/132/39
s 1
f 109/133/40 110/134/41 111/135/41
f 109/133/40 111/135/41 112/136/41
