# Blender v3.0.1 OBJ File: 'rockerfeller_plaza.blend'
# www.blender.org
o geometryt000010000010000110010110000110000110100000010100st6
v 872.245728 -73.367462 183.092422
v 872.245728 -73.367462 147.330902
v 870.891846 -75.858833 147.330902
v 870.891846 -75.858833 183.092422
v 873.079407 -71.833443 183.092422
v 873.079407 -71.833443 147.330902
v 872.402405 -73.079132 147.330902
v 872.402405 -73.079132 183.092422
v 876.620911 -65.316673 147.330902
v 873.236023 -71.545113 147.330902
v 873.236023 -71.545113 183.092422
v 876.620911 -65.316673 183.092422
v 877.454529 -63.782661 183.092422
v 877.454529 -63.782661 147.330902
v 876.777588 -65.028343 147.330902
v 876.777588 -65.028343 183.092422
v 878.288208 -62.248642 183.092422
v 878.288208 -62.248642 147.330902
v 877.611206 -63.494320 147.330902
v 877.611206 -63.494320 183.092422
v 879.121948 -60.714622 183.092422
v 879.121948 -60.714622 147.330902
v 878.444946 -61.960312 147.330902
v 878.444946 -61.960312 183.092422
v 882.663452 -54.197849 183.092422
v 882.663452 -54.197849 147.330902
v 879.278625 -60.426292 147.330902
v 879.278625 -60.426292 183.092422
v 883.497131 -52.663841 183.092422
v 883.497131 -52.663841 147.330902
v 882.820129 -53.909519 147.330902
v 882.820129 -53.909519 183.092422
v 885.007690 -49.884132 183.092422
v 885.007690 -49.884132 147.330902
v 883.653809 -52.375500 147.330902
v 883.653809 -52.375500 183.092422
v 871.123535 -76.377243 183.092422
v 871.123535 -76.377243 147.330902
v 883.583313 -83.141655 147.330902
v 883.583313 -83.141655 183.092422
v 884.144653 -83.053833 147.330902
v 885.499023 -80.562706 147.330902
v 885.499023 -80.562706 183.092422
v 884.144653 -83.053833 183.092422
v 885.655212 -80.275467 147.330902
v 886.332336 -79.029892 147.330902
v 886.332336 -79.029892 183.092422
v 885.655212 -80.275467 183.092422
v 886.488525 -78.742653 183.092422
v 886.488525 -78.742653 147.330902
v 889.874512 -72.514824 147.330902
v 889.874512 -72.514824 183.092422
v 890.030640 -72.227585 147.330902
v 890.707825 -70.982018 147.330902
v 890.707825 -70.982018 183.092422
v 890.030640 -72.227585 183.092422
v 890.864014 -70.694778 147.330902
v 891.541199 -69.449211 147.330902
v 891.541199 -69.449211 183.092422
v 890.864014 -70.694778 183.092422
v 891.697327 -69.161972 183.092422
v 891.697327 -69.161972 147.330902
v 892.374512 -67.916405 147.330902
v 892.374512 -67.916405 183.092422
v 892.530701 -67.629166 147.330902
v 895.916626 -61.401329 147.330902
v 895.916626 -61.401329 183.092422
v 892.530701 -67.629166 183.092422
v 896.072815 -61.114090 147.330902
v 896.750000 -59.868523 147.330902
v 896.750000 -59.868523 183.092422
v 896.072815 -61.114090 183.092422
v 896.906250 -59.581280 183.092422
v 896.906250 -59.581280 147.330902
v 898.260498 -57.090153 147.330902
v 898.260498 -57.090153 183.092422
v 898.026611 -56.570232 183.092422
v 898.026611 -56.570232 147.330902
v 885.571228 -49.797821 147.330902
v 885.571228 -49.797821 183.092422
vt 0.000000 7.000000
vt 0.000000 0.000000
vt 0.666670 0.000000
vt 0.666670 7.000000
vt 0.000000 7.000000
vt 0.000000 0.000000
vt 0.333330 0.000000
vt 0.333330 7.000000
vt 0.000000 0.000000
vt 1.666670 0.000000
vt 1.666670 7.000000
vt 0.000000 7.000000
vt 0.000000 7.000000
vt 0.000000 0.000000
vt 0.333330 0.000000
vt 0.333330 7.000000
vt 0.000000 7.000000
vt 0.000000 0.000000
vt 0.333330 0.000000
vt 0.333330 7.000000
vt 0.000000 7.000000
vt 0.000000 0.000000
vt 0.333330 0.000000
vt 0.333330 7.000000
vt 0.000000 7.000000
vt 0.000000 0.000000
vt 1.666670 0.000000
vt 1.666670 7.000000
vt 0.000000 7.000000
vt 0.000000 0.000000
vt 0.333330 0.000000
vt 0.333330 7.000000
vt 0.000000 7.000000
vt 0.000000 0.000000
vt 0.666670 0.000000
vt 0.666670 7.000000
vt 0.000000 7.000000
vt 0.000000 0.000000
vt 3.333330 0.000000
vt 3.333330 7.000000
vt 0.000000 0.000000
vt 0.666670 0.000000
vt 0.666670 7.000000
vt 0.000000 7.000000
vt 0.000000 0.000000
vt 0.333330 0.000000
vt 0.333330 7.000000
vt 0.000000 7.000000
vt 0.000000 7.000000
vt 0.000000 0.000000
vt 1.666670 0.000000
vt 1.666670 7.000000
vt 0.000000 0.000000
vt 0.333330 0.000000
vt 0.333330 7.000000
vt 0.000000 7.000000
vt 0.000000 0.000000
vt 0.333330 0.000000
vt 0.333330 7.000000
vt 0.000000 7.000000
vt 0.000000 7.000000
vt 0.000000 0.000000
vt 0.333330 0.000000
vt 0.333330 7.000000
vt 0.000000 0.000000
vt 1.666670 0.000000
vt 1.666670 7.000000
vt 0.000000 7.000000
vt 0.000000 0.000000
vt 0.333330 0.000000
vt 0.333330 7.000000
vt 0.000000 7.000000
vt 0.000000 7.000000
vt 0.000000 0.000000
vt 0.666670 0.000000
vt 0.666670 7.000000
vt 0.000000 7.000000
vt 0.000000 0.000000
vt 3.333330 0.000000
vt 3.333330 7.000000
vn -0.8786 0.4775 0.0000
vn -0.8787 0.4774 0.0000
vn -0.4771 -0.8788 0.0000
vn 0.8786 -0.4776 0.0000
vn 0.8785 -0.4777 0.0000
vn 0.4777 0.8785 0.0000
s off
f 1/1/1 2/2/1 3/3/1
f 1/1/1 3/3/1 4/4/1
f 5/5/1 6/6/1 7/7/1
f 5/5/1 7/7/1 8/8/1
f 9/9/1 10/10/1 11/11/1
f 12/12/1 9/9/1 11/11/1
f 13/13/2 14/14/2 15/15/2
f 13/13/1 15/15/1 16/16/1
f 17/17/1 18/18/1 19/19/1
f 17/17/1 19/19/1 20/20/1
f 21/21/1 22/22/1 23/23/1
f 21/21/1 23/23/1 24/24/1
f 25/25/1 26/26/1 27/27/1
f 25/25/1 27/27/1 28/28/1
f 29/29/1 30/30/1 31/31/1
f 29/29/1 31/31/1 32/32/1
f 33/33/1 34/34/1 35/35/1
f 33/33/1 35/35/1 36/36/1
f 37/37/3 38/38/3 39/39/3
f 37/37/3 39/39/3 40/40/3
f 41/41/4 42/42/4 43/43/4
f 44/44/4 41/41/4 43/43/4
f 45/45/4 46/46/4 47/47/4
f 48/48/4 45/45/4 47/47/4
f 49/49/4 50/50/4 51/51/4
f 49/49/5 51/51/5 52/52/5
f 53/53/4 54/54/4 55/55/4
f 56/56/5 53/53/5 55/55/5
f 57/57/4 58/58/4 59/59/4
f 60/60/5 57/57/5 59/59/5
f 61/61/5 62/62/5 63/63/5
f 61/61/5 63/63/5 64/64/5
f 65/65/4 66/66/4 67/67/4
f 68/68/4 65/65/4 67/67/4
f 69/69/5 70/70/5 71/71/5
f 72/72/4 69/69/4 71/71/4
f 73/73/4 74/74/4 75/75/4
f 73/73/4 75/75/4 76/76/4
f 77/77/6 78/78/6 79/79/6
f 77/77/6 79/79/6 80/80/6
