# Blender v3.0.1 OBJ File: 'rockerfeller_plaza.blend'
# www.blender.org
o geometryt000010000010000110010110000110000110100100010010st34_7
v 1242.348267 -158.431168 1070.415283
v 1242.348267 -158.431168 1012.342896
v 1276.180176 -176.421265 1012.342896
v 1276.180176 -176.421265 1070.415283
v 1265.383789 -114.281761 1070.415283
v 1265.383789 -114.281761 1012.342896
v 1242.223389 -157.515656 1012.342896
v 1242.223389 -157.515656 1070.415283
v 1249.337891 -153.708557 1070.415283
v 1249.337891 -153.708557 1012.342896
v 1266.715576 -121.287262 1012.342896
v 1266.715576 -121.287262 1070.415283
v 1272.822510 -166.961365 1070.415283
v 1272.822510 -166.961365 1012.342896
v 1249.815186 -154.731064 1012.342896
v 1249.815186 -154.731064 1070.415283
v 1266.715576 -121.287262 1154.415283
v 1266.715576 -121.287262 1070.415283
v 1249.337891 -153.708557 1070.415283
v 1249.337891 -153.708557 1154.415283
v 1249.815186 -154.731064 1070.415283
v 1272.822510 -166.961365 1070.415283
v 1272.822510 -166.961365 1154.415283
v 1249.815186 -154.731064 1154.415283
v 1293.364502 -128.312759 1070.415283
v 1293.364502 -128.312759 1012.342896
v 1266.299438 -113.919563 1012.342896
v 1266.299438 -113.919563 1070.415283
v 1267.670166 -121.025566 1070.415283
v 1267.670166 -121.025566 1012.342896
v 1290.682739 -133.246063 1012.342896
v 1290.682739 -133.246063 1070.415283
v 1290.682739 -133.246063 1154.415283
v 1290.682739 -133.246063 1070.415283
v 1267.670166 -121.025566 1070.415283
v 1267.670166 -121.025566 1154.415283
v 1278.251465 -158.542267 1012.342896
v 1273.985107 -166.688965 1012.342896
v 1273.985107 -166.688965 1070.415283
v 1278.251465 -158.542267 1070.415283
v 1273.985107 -166.688965 1070.415283
v 1278.251465 -158.542267 1070.415283
v 1278.251465 -158.542267 1154.415283
v 1273.985107 -166.688965 1154.415283
v 1286.290894 -143.740570 1154.415283
v 1286.290894 -143.740570 1070.415283
v 1291.361694 -134.285568 1070.415283
v 1291.361694 -134.285568 1154.415283
vt 0.000000 3.500000
vt 0.000000 0.000000
vt 4.166670 0.000000
vt 4.166670 3.500000
vt 0.000000 3.500000
vt 0.000000 0.000000
vt 5.333330 0.000000
vt 5.333330 3.500000
vt 0.000000 3.500000
vt 0.000000 0.000000
vt 4.000000 0.000000
vt 4.000000 3.500000
vt 0.000000 3.500000
vt 0.000000 0.000000
vt 2.833330 0.000000
vt 2.833330 3.500000
vt 0.000000 5.500000
vt 0.000000 0.000000
vt 4.000000 0.000000
vt 4.000000 5.500000
vt 0.000000 0.000000
vt 2.833330 0.000000
vt 2.833330 5.500000
vt 0.000000 5.500000
vt 0.000000 3.500000
vt 0.000000 0.000000
vt 2.833330 0.000000
vt 2.833330 3.500000
vt 0.000000 5.500000
vt 0.000000 0.000000
vt 2.833330 0.000000
vt 2.833330 5.500000
vt 0.000000 0.000000
vt 1.000000 0.000000
vt 1.000000 3.500000
vt 0.000000 3.500000
vt 0.000000 0.000000
vt 1.000000 0.000000
vt 1.000000 5.500000
vt 0.000000 5.500000
vt 0.000000 5.500000
vt 0.000000 0.000000
vt 1.166670 0.000000
vt 1.166670 5.500000
vt 0.000000 3.500000
vt 0.000000 0.000000
vt 3.333330 0.000000
vt 3.333330 3.500000
vn -0.4695 -0.8829 0.0000
vn -0.8815 0.4722 0.0000
vn 0.8814 -0.4724 0.0000
vn 0.4694 0.8830 0.0000
vn -0.8814 0.4724 0.0000
vn -0.4694 -0.8830 0.0000
vn -0.4690 -0.8832 0.0000
vn 0.4690 0.8832 0.0000
vn -0.8859 0.4639 0.0000
vn 0.8859 -0.4639 0.0000
vn 0.8813 -0.4726 0.0000
vn 0.4695 0.8829 0.0000
s off
f 1/1/1 2/2/1 3/3/1
f 1/1/1 3/3/1 4/4/1
f 5/5/2 6/6/2 7/7/2
f 5/5/2 7/7/2 8/8/2
f 9/9/3 10/10/3 11/11/3
f 9/9/3 11/11/3 12/12/3
f 13/13/4 14/14/4 15/15/4
f 13/13/4 15/15/4 16/16/4
f 17/17/5 18/18/5 19/19/5
f 17/17/5 19/19/5 20/20/5
f 21/21/6 22/22/6 23/23/6
f 24/24/6 21/21/6 23/23/6
f 29/25/7 30/26/7 31/27/7
f 29/25/7 31/27/7 32/28/7
f 33/29/8 34/30/8 35/31/8
f 33/29/8 35/31/8 36/32/8
f 37/33/9 38/34/9 39/35/9
f 40/36/9 37/33/9 39/35/9
f 41/37/10 42/38/10 43/39/10
f 44/40/10 41/37/10 43/39/10
f 45/41/11 46/42/11 47/43/11
f 45/41/11 47/43/11 48/44/11
s 1
f 25/45/12 26/46/12 27/47/12
f 25/45/12 27/47/12 28/48/12
