# Blender v3.0.1 OBJ File: 'rockerfeller_plaza.blend'
# www.blender.org
o geometryt000010000010000110010110000110000110100000010110st23
v 1144.643799 -259.561584 188.823273
v 1139.367188 -254.471970 188.823273
v 1142.837402 -248.036377 188.823273
v 1138.416992 -256.237274 188.823273
v 1154.168945 -241.775269 188.823273
v 1145.538330 -242.953262 188.823273
v 1147.604126 -239.143173 188.823273
v 1147.958984 -238.450668 188.823273
v 1139.367188 -254.471970 209.123276
v 1138.416992 -256.237274 209.123276
v 1144.643799 -259.561584 209.123276
v 1154.168945 -241.775269 209.123276
v 1142.837402 -248.036377 209.123276
v 1147.958984 -238.450668 209.123276
v 1147.604126 -239.143173 209.123276
v 1145.538330 -242.953262 209.123276
vt 0.424520 0.297080
vt 0.416930 0.286570
vt 0.404120 0.293710
vt 0.420450 0.284610
vt 0.389120 0.316700
vt 0.394010 0.299280
vt 0.386420 0.303530
vt 0.385040 0.304260
vt 0.416930 0.286570
vt 0.420450 0.284610
vt 0.424520 0.297080
vt 0.389120 0.316700
vt 0.404120 0.293710
vt 0.385040 0.304260
vt 0.386420 0.303530
vt 0.394010 0.299280
vn -0.0000 0.0000 -1.0000
vn 0.0000 0.0000 1.0000
s off
f 1/1/1 2/2/1 3/3/1
f 4/4/1 2/2/1 1/1/1
f 5/5/1 3/3/1 6/6/1
f 1/1/1 3/3/1 5/5/1
f 7/7/1 5/5/1 6/6/1
f 5/5/1 7/7/1 8/8/1
f 9/9/2 10/10/2 11/11/2
f 12/12/2 13/13/2 11/11/2
f 13/13/2 9/9/2 11/11/2
f 14/14/2 15/15/2 12/12/2
f 12/12/2 15/15/2 16/16/2
f 12/12/2 16/16/2 13/13/2
