# Blender v3.0.1 OBJ File: 'rockerfeller_plaza.blend'
# www.blender.org
o geometryt000010000010000110010110000110000100110010010110st41
v 155.827103 -238.856903 19.573111
v 161.518402 -241.921906 19.573111
v 154.287003 -255.306107 19.573111
v 148.595596 -252.229996 19.573111
v 155.827103 -238.856903 36.273109
v 148.595596 -252.229996 36.273109
v 154.287003 -255.306107 36.273109
v 161.518402 -241.921906 36.273109
vt 0.385110 0.308540
vt 0.388880 0.319940
vt 0.415530 0.305060
vt 0.411740 0.293650
vt 0.385110 0.308540
vt 0.411740 0.293650
vt 0.415530 0.305060
vt 0.388880 0.319940
vn 0.0000 0.0000 -1.0000
vn 0.0000 0.0000 1.0000
s off
f 1/1/1 2/2/1 3/3/1
f 1/1/1 3/3/1 4/4/1
f 5/5/2 6/6/2 7/7/2
f 8/8/2 5/5/2 7/7/2
