# Blender v3.0.1 OBJ File: 'rockerfeller_plaza.blend'
# www.blender.org
o geometryt000010000010000110010110000110000110100000110000st24_C
v 993.773315 -262.829132 425.100342
v 999.048584 -265.744629 425.100342
v 999.048584 -265.744629 465.602509
v 993.773315 -262.829132 465.602509
v 999.745728 -266.130035 465.602509
v 999.745728 -266.130035 425.100342
v 1002.383362 -267.587830 425.100342
v 1002.383362 -267.587830 465.602509
v 1003.080566 -267.973145 465.602509
v 1003.080566 -267.973145 425.100342
v 1004.399353 -268.702026 425.100342
v 1004.399353 -268.702026 465.602509
v 1005.096558 -269.087341 425.100342
v 1007.734131 -270.545135 425.100342
v 1007.734131 -270.545135 465.602509
v 1005.096558 -269.087341 465.602509
v 1008.431396 -270.930450 425.100342
v 1013.706665 -273.846039 425.100342
v 1013.706665 -273.846039 465.602509
v 1008.431396 -270.930450 465.602509
v 994.465576 -260.820526 425.100342
v 993.749756 -262.146545 425.100342
v 993.749756 -262.146545 465.602509
v 994.465576 -260.820526 465.602509
v 995.577881 -258.784637 465.602509
v 995.961548 -258.085327 425.100342
v 995.236755 -259.406433 425.100342
v 995.961548 -258.085327 465.602509
v 995.236755 -259.406433 465.602509
v 997.133362 -255.937439 465.602509
v 997.133362 -255.937439 425.100342
v 996.619568 -256.884033 425.100342
v 996.619568 -256.884033 465.602509
v 999.669067 -251.305344 465.602509
v 999.669067 -251.305344 425.100342
v 997.497314 -255.270035 425.100342
v 997.497314 -255.270035 465.602509
v 1003.719666 -243.532837 425.100342
v 1000.244629 -250.217636 425.100342
v 1000.244629 -250.217636 465.602509
v 1003.719666 -243.532837 465.602509
v 1007.500549 -236.627335 425.100342
v 1004.592834 -241.906845 425.100342
v 1004.592834 -241.906845 465.602509
v 1007.500549 -236.627335 465.602509
v 1013.642334 -238.681732 465.602509
v 1013.642334 -238.681732 425.100342
v 1008.303223 -235.884933 425.100342
v 1008.303223 -235.884933 465.602509
v 1017.019409 -240.450836 465.602509
v 1017.019409 -240.450836 425.100342
v 1014.349854 -239.052444 425.100342
v 1014.349854 -239.052444 465.602509
v 1019.061768 -241.520645 425.100342
v 1017.726929 -240.821442 425.100342
v 1017.726929 -240.821442 465.602509
v 1019.061768 -241.520645 465.602509
v 1022.438843 -243.289734 425.100342
v 1019.769287 -241.891342 425.100342
v 1019.769287 -241.891342 465.602509
v 1022.438843 -243.289734 465.602509
v 1028.485474 -246.457245 465.602509
v 1028.485474 -246.457245 425.100342
v 1023.146362 -243.660339 425.100342
v 1023.146362 -243.660339 465.602509
v 1014.172363 -273.709351 465.602509
v 1014.172363 -273.709351 425.100342
v 1017.034668 -268.404938 425.100342
v 1017.034668 -268.404938 465.602509
v 1017.231445 -268.040039 425.100342
v 1018.662537 -265.387939 425.100342
v 1018.662537 -265.387939 465.602509
v 1017.231445 -268.040039 465.602509
v 1018.859497 -265.023041 465.602509
v 1018.859497 -265.023041 425.100342
v 1019.574951 -263.696930 425.100342
v 1019.574951 -263.696930 465.602509
v 1019.771851 -263.332153 465.602509
v 1019.771851 -263.332153 425.100342
v 1020.487427 -262.006042 425.100342
v 1020.487427 -262.006042 465.602509
v 1020.684265 -261.641235 425.100342
v 1022.115356 -258.989044 425.100342
v 1022.115356 -258.989044 465.602509
v 1020.684265 -261.641235 465.602509
v 1022.312256 -258.624146 425.100342
v 1023.027710 -257.298035 425.100342
v 1023.027710 -257.298035 465.602509
v 1022.312256 -258.624146 465.602509
v 1023.224609 -256.933228 465.602509
v 1023.224609 -256.933228 425.100342
v 1023.940247 -255.607132 425.100342
v 1023.940247 -255.607132 465.602509
v 1024.137085 -255.242340 425.100342
v 1025.568115 -252.590134 425.100342
v 1025.568115 -252.590134 465.602509
v 1024.137085 -255.242340 465.602509
v 1025.765015 -252.225235 425.100342
v 1028.627197 -246.920944 425.100342
v 1028.627197 -246.920944 465.602509
v 1025.765015 -252.225235 465.602509
vt 0.000000 0.000000
vt 1.333330 0.000000
vt 1.333330 7.000000
vt 0.000000 7.000000
vt 0.000000 7.000000
vt 0.000000 0.000000
vt 0.333330 0.000000
vt 0.333330 7.000000
vt 0.000000 0.000000
vt 0.666670 0.000000
vt 0.666670 7.000000
vt 0.000000 7.000000
vt 0.000000 0.000000
vt 1.333330 0.000000
vt 1.333330 7.000000
vt 0.000000 7.000000
vt 0.000000 0.000000
vt 0.333330 0.000000
vt 0.333330 7.000000
vt 0.000000 7.000000
vt 0.176450 7.000000
vt 0.000000 0.000000
vt 0.333330 0.000000
vt 0.000000 7.000000
vt 0.333330 7.000000
vt 0.000000 7.000000
vt 0.000000 0.000000
vt 0.333330 0.000000
vt 0.333330 7.000000
vt 0.000000 7.000000
vt 0.000000 0.000000
vt 1.000000 0.000000
vt 1.000000 7.000000
vt 0.000000 0.000000
vt 1.666670 0.000000
vt 1.666670 7.000000
vt 0.000000 7.000000
vt 0.000000 0.000000
vt 1.333330 0.000000
vt 1.333330 7.000000
vt 0.000000 7.000000
vt 0.000000 7.000000
vt 0.000000 0.000000
vt 1.333330 0.000000
vt 1.333330 7.000000
vt 0.000000 7.000000
vt 0.000000 0.000000
vt 0.666670 0.000000
vt 0.666670 7.000000
vt 0.000000 0.000000
vt 0.333330 0.000000
vt 0.333330 7.000000
vt 0.000000 7.000000
vt 0.000000 0.000000
vt 0.666670 0.000000
vt 0.666670 7.000000
vt 0.000000 7.000000
vt 0.000000 7.000000
vt 0.000000 0.000000
vt 1.333330 0.000000
vt 1.333330 7.000000
vt 0.000000 7.000000
vt 0.000000 0.000000
vt 1.333330 0.000000
vt 1.333330 7.000000
vt 0.000000 0.000000
vt 0.666670 0.000000
vt 0.666670 7.000000
vt 0.000000 7.000000
vt 0.000000 7.000000
vt 0.000000 0.000000
vt 0.333330 0.000000
vt 0.333330 7.000000
vt 0.000000 7.000000
vt 0.000000 0.000000
vt 0.333330 0.000000
vt 0.333330 7.000000
vt 0.000000 0.000000
vt 0.333330 0.000000
vt 0.333330 7.000000
vt 0.000000 7.000000
vt 0.000000 7.000000
vt 0.000000 0.000000
vt 0.333330 0.000000
vt 0.333330 7.000000
vt 0.000000 0.000000
vt 0.666670 0.000000
vt 0.666670 7.000000
vt 0.000000 7.000000
vt 0.000000 0.000000
vt 1.333330 0.000000
vt 1.333330 7.000000
vt 0.000000 7.000000
vt 0.000000 7.000000
vt 0.000000 0.000000
vt 0.666670 0.000000
vt 0.666670 7.000000
vt 0.000000 0.000000
vt 0.666670 0.000000
vt 0.666670 7.000000
vt 0.000000 7.000000
vn -0.4837 -0.8752 0.0000
vn -0.4838 -0.8752 0.0000
vn -0.8800 0.4750 0.0000
vn -0.8768 0.4809 0.0000
vn -0.8767 0.4810 0.0000
vn -0.8767 0.4811 0.0000
vn -0.8789 0.4771 0.0000
vn -0.8770 0.4804 0.0000
vn -0.8873 0.4613 0.0000
vn -0.8873 0.4612 0.0000
vn -0.8759 0.4824 0.0000
vn 0.4640 0.8858 0.0000
vn 0.4640 0.8859 0.0000
vn 0.8800 -0.4749 0.0000
vn 0.8801 -0.4749 0.0000
vn 0.8801 -0.4748 0.0000
s off
f 1/1/1 2/2/1 3/3/1
f 4/4/1 1/1/1 3/3/1
f 9/5/1 10/6/1 11/7/1
f 9/5/1 11/7/1 12/8/1
f 13/9/2 14/10/2 15/11/2
f 16/12/1 13/9/1 15/11/1
f 17/13/1 18/14/1 19/15/1
f 20/16/1 17/13/1 19/15/1
f 21/17/3 22/18/3 23/19/3
f 24/20/3 21/17/3 23/19/3
f 25/21/4 26/22/4 27/23/4
f 28/24/5 26/22/5 25/21/5
f 25/21/6 27/23/6 29/25/6
f 30/26/7 31/27/7 32/28/7
f 30/26/7 32/28/7 33/29/7
f 34/30/8 35/31/8 36/32/8
f 34/30/8 36/32/8 37/33/8
f 38/34/9 39/35/9 40/36/9
f 41/37/10 38/34/10 40/36/10
f 42/38/11 43/39/11 44/40/11
f 45/41/11 42/38/11 44/40/11
f 46/42/12 47/43/12 48/44/12
f 46/42/12 48/44/12 49/45/12
f 50/46/12 51/47/12 52/48/12
f 50/46/12 52/48/12 53/49/12
f 54/50/12 55/51/12 56/52/12
f 57/53/13 54/50/13 56/52/13
f 58/54/12 59/55/12 60/56/12
f 61/57/12 58/54/12 60/56/12
f 62/58/12 63/59/12 64/60/12
f 62/58/12 64/60/12 65/61/12
f 66/62/14 67/63/14 68/64/14
f 66/62/14 68/64/14 69/65/14
f 70/66/15 71/67/15 72/68/15
f 73/69/15 70/66/15 72/68/15
f 74/70/14 75/71/14 76/72/14
f 74/70/16 76/72/16 77/73/16
f 78/74/14 79/75/14 80/76/14
f 78/74/14 80/76/14 81/77/14
f 86/78/16 87/79/16 88/80/16
f 89/81/16 86/78/16 88/80/16
f 90/82/14 91/83/14 92/84/14
f 90/82/14 92/84/14 93/85/14
f 94/86/15 95/87/15 96/88/15
f 97/89/15 94/86/15 96/88/15
f 98/90/14 99/91/14 100/92/14
f 101/93/16 98/90/16 100/92/16
s 1
f 5/94/1 6/95/1 7/96/1
f 5/94/1 7/96/1 8/97/1
f 82/98/14 83/99/14 84/100/16
f 85/101/16 82/98/14 84/100/16
