# Blender v3.0.1 OBJ File: 'rockerfeller_plaza.blend'
# www.blender.org
o geometryt000010000010000110010110000110000110100000110000st84_4
v 947.688477 -305.152740 423.755646
v 938.914429 -321.553345 423.755646
v 936.062866 -322.430450 423.755646
v 964.555664 -337.651825 423.755646
v 950.338135 -295.662628 423.755646
v 965.588135 -335.707947 423.755646
v 952.223938 -296.662048 423.755646
v 970.413757 -338.316132 423.755646
v 975.955933 -343.724731 423.755646
v 977.988953 -339.981750 423.755646
v 971.421936 -336.450226 423.755646
v 942.182434 -320.904541 423.755646
v 949.965149 -306.369537 423.755646
v 945.354126 -319.968231 423.755646
v 966.604736 -333.842041 423.755646
v 952.632568 -306.349548 423.755646
v 967.679260 -331.875427 423.755646
v 950.483459 -305.208954 423.755646
v 954.424133 -297.835327 423.755646
v 972.496216 -334.472626 423.755646
v 979.012573 -337.993530 423.755646
v 954.806335 -298.030731 423.755646
v 956.581787 -298.975830 423.755646
v 948.388733 -319.577545 423.755646
v 954.841248 -307.522736 423.755646
v 968.504517 -330.255951 423.755646
v 974.041626 -331.623444 423.755646
v 980.557983 -335.144440 423.755646
v 950.995117 -319.380554 423.755646
v 957.397827 -307.404053 423.755646
v 969.165161 -328.993744 423.755646
v 955.460938 -306.371948 423.755646
v 958.790466 -300.149139 423.755646
v 975.050049 -329.779846 423.755646
v 981.532166 -333.267853 423.755646
v 953.915527 -318.613647 423.755646
v 959.351685 -308.447052 423.755646
v 970.173462 -327.138947 423.755646
v 959.019836 -300.279633 423.755646
v 960.727234 -301.181244 423.755646
v 976.537720 -327.053436 423.755646
v 982.011536 -332.385132 423.755646
v 983.011475 -330.541626 423.755646
v 962.681152 -302.224243 423.755646
v 955.914734 -317.757629 423.755646
v 960.549316 -309.077026 423.755646
v 970.942017 -325.731049 423.755646
v 971.652771 -324.412750 423.755646
v 977.529419 -325.221130 423.755646
v 984.003174 -328.709229 423.755646
v 963.878845 -302.854126 423.755646
v 971.981934 -311.408142 423.755646
v 972.627441 -322.580536 423.755646
v 964.507568 -303.190948 423.755646
v 970.606873 -306.439240 423.755646
v 973.741821 -308.134552 423.755646
v 974.668274 -318.781952 423.755646
v 979.763428 -315.558228 423.755646
v 977.284729 -320.172424 423.755646
v 976.195557 -324.492828 423.755646
v 978.917847 -322.662445 423.755646
v 985.366089 -326.139832 423.755646
v 974.901733 -311.307343 423.755646
v 975.967651 -309.329834 423.755646
v 978.928467 -313.458527 423.755646
v 978.054565 -321.029449 423.755646
v 985.853027 -325.190430 423.755646
v 979.977783 -311.503448 423.755646
v 990.265137 -316.978729 423.755646
v 936.062866 -322.430450 463.755646
v 938.914429 -321.553345 463.755646
v 940.058960 -319.414154 463.755646
v 964.555664 -337.651825 463.755646
v 947.688477 -305.152740 463.755646
v 950.338135 -295.662628 463.755646
v 962.108948 -333.861725 463.755646
v 948.735046 -303.193329 463.755646
v 952.223938 -296.662048 463.755646
v 965.588135 -335.707947 463.755646
v 938.914429 -321.553345 469.755646
v 942.182434 -320.904541 469.755646
v 947.688477 -305.152740 469.755646
v 965.588135 -335.707947 469.755646
v 943.080444 -319.227448 469.755646
v 963.786743 -332.349243 469.755646
v 949.702454 -306.229126 469.755646
v 949.965149 -306.369537 469.755646
v 966.604736 -333.842041 469.755646
v 949.965149 -306.369537 475.755646
v 942.182434 -320.904541 475.755646
v 945.354126 -319.968231 475.755646
v 966.604736 -333.842041 475.755646
v 946.107178 -318.559326 475.755646
v 965.369751 -330.643646 475.755646
v 952.632568 -306.349548 475.755646
v 947.688477 -305.152740 475.755646
v 950.483459 -305.208954 475.755646
v 952.223938 -296.662048 475.755646
v 952.410278 -306.231537 475.755646
v 950.891052 -304.446136 475.755646
v 954.424133 -297.835327 475.755646
v 967.679260 -331.875427 475.755646
v 945.354126 -319.968231 481.755646
v 948.388733 -319.577545 481.755646
v 952.632568 -306.349548 481.755646
v 967.679260 -331.875427 481.755646
v 948.993774 -318.447327 481.755646
v 966.618652 -329.254852 481.755646
v 953.736938 -306.936127 481.755646
v 954.634155 -307.412750 481.755646
v 954.841248 -307.522736 481.755646
v 968.504517 -330.255951 481.755646
v 954.841248 -307.522736 487.755646
v 948.388733 -319.577545 487.755646
v 950.995117 -319.380554 487.755646
v 968.504517 -330.255951 487.755646
v 951.543945 -318.353943 487.755646
v 967.607788 -328.169739 487.755646
v 957.397827 -307.404053 487.755646
v 952.632568 -306.349548 487.755646
v 955.460938 -306.371948 487.755646
v 956.581787 -298.975830 487.755646
v 957.231873 -307.315643 487.755646
v 955.746338 -305.838654 487.755646
v 958.790466 -300.149139 487.755646
v 969.165161 -328.993744 487.755646
v 954.806335 -298.030731 481.755646
v 950.483459 -305.208954 481.755646
v 954.424133 -297.835327 481.755646
v 953.002869 -305.658234 481.755646
v 956.581787 -298.975830 481.755646
v 950.995117 -319.380554 493.755646
v 953.915527 -318.613647 493.755646
v 957.397827 -307.404053 493.755646
v 969.165161 -328.993744 493.755646
v 954.344727 -317.811035 493.755646
v 968.889954 -326.465942 493.755646
v 959.197449 -308.364746 493.755646
v 959.351685 -308.447052 493.755646
v 970.173462 -327.138947 493.755646
v 953.915527 -318.613647 499.755646
v 955.914734 -317.757629 499.755646
v 959.351685 -308.447052 499.755646
v 970.173462 -327.138947 499.755646
v 956.555847 -316.556824 499.755646
v 968.863464 -324.628143 499.755646
v 960.503967 -309.053040 499.755646
v 960.549316 -309.077026 499.755646
v 970.942017 -325.731049 499.755646
v 959.019836 -300.279633 493.755646
v 955.460938 -306.371948 493.755646
v 958.790466 -300.149139 493.755646
v 957.660645 -306.912842 493.755646
v 960.727234 -301.181244 493.755646
v 955.914734 -317.757629 511.955688
v 971.981934 -311.408142 511.955688
v 960.549316 -309.077026 511.955688
v 970.942017 -325.731049 511.955688
v 971.652771 -324.412750 511.955688
v 972.627441 -322.580536 511.955688
v 963.878845 -302.854126 511.955688
v 964.507568 -303.190948 511.955688
v 970.606873 -306.439240 511.955688
v 973.741821 -308.134552 511.955688
v 974.668274 -318.781952 511.955688
v 979.763428 -315.558228 511.955688
v 977.284729 -320.172424 511.955688
v 960.727234 -301.181244 499.755646
v 957.397827 -307.404053 499.755646
v 959.478149 -308.210724 499.755646
v 962.681152 -302.224243 499.755646
v 962.681152 -302.224243 502.755646
v 959.351685 -308.447052 502.755646
v 960.549316 -309.077026 502.755646
v 960.896667 -308.427948 502.755646
v 963.878845 -302.854126 502.755646
v 969.689941 -337.924835 457.755646
v 965.433228 -335.999542 457.755646
v 964.555664 -337.651825 457.755646
v 970.413757 -338.316132 457.755646
v 975.955933 -343.724731 457.755646
v 965.588135 -335.707947 457.755646
v 971.270752 -336.730133 457.755646
v 977.988953 -339.981750 457.755646
v 971.421936 -336.450226 457.755646
v 977.003967 -339.452026 457.755646
v 966.472168 -334.085327 463.755646
v 970.413757 -338.316132 463.755646
v 966.604736 -333.842041 463.755646
v 970.793640 -336.110046 463.755646
v 971.421936 -336.450226 463.755646
v 967.142029 -332.858734 469.755646
v 971.421936 -336.450226 469.755646
v 967.555237 -332.102325 469.755646
v 967.679260 -331.875427 469.755646
v 971.940430 -334.172943 469.755646
v 972.496216 -334.472626 469.755646
v 968.419189 -330.423553 475.755646
v 972.496216 -334.472626 475.755646
v 968.504517 -330.255951 475.755646
v 969.041260 -329.230347 475.755646
v 974.041626 -331.623444 475.755646
v 969.165161 -328.993744 475.755646
v 973.537231 -331.351440 475.755646
v 969.501221 -328.375427 481.755646
v 969.165161 -328.993744 481.755646
v 974.041626 -331.623444 481.755646
v 970.000549 -327.456940 481.755646
v 970.173462 -327.138947 481.755646
v 974.592834 -329.532227 481.755646
v 975.050049 -329.779846 481.755646
v 970.820740 -325.953339 487.755646
v 970.173462 -327.138947 487.755646
v 975.050049 -329.779846 487.755646
v 970.942017 -325.731049 487.755646
v 971.457764 -324.774445 487.755646
v 976.119019 -326.827148 487.755646
v 976.537720 -327.053436 487.755646
v 971.591736 -324.525726 487.755646
v 971.652771 -324.412750 487.755646
v 972.356140 -334.730530 463.755646
v 979.012573 -337.993530 463.755646
v 977.988953 -339.981750 463.755646
v 972.496216 -334.472626 463.755646
v 978.162659 -337.534332 463.755646
v 972.426331 -322.958649 493.755646
v 971.652771 -324.412750 493.755646
v 976.195557 -324.492828 493.755646
v 976.537720 -327.053436 493.755646
v 972.627441 -322.580536 493.755646
v 975.913818 -324.341827 493.755646
v 977.474670 -325.191132 493.755646
v 977.529419 -325.221130 493.755646
v 971.981934 -311.408142 499.755646
v 973.058228 -311.982147 499.755646
v 974.901733 -311.307343 499.755646
v 973.498474 -308.587341 499.755646
v 972.627441 -322.580536 499.755646
v 976.922729 -319.980133 499.755646
v 973.300232 -321.328247 499.755646
v 976.195557 -324.492828 499.755646
v 977.284729 -320.172424 499.755646
v 979.763428 -315.558228 499.755646
v 974.385986 -319.307343 499.755646
v 973.741821 -308.134552 499.755646
v 975.967651 -309.329834 499.755646
v 974.668274 -318.781952 499.755646
v 978.928467 -313.458527 499.755646
v 978.054565 -321.029449 499.755646
v 979.420532 -316.196442 499.755646
v 985.853027 -325.190430 499.755646
v 979.977783 -311.503448 499.755646
v 990.265137 -316.978729 499.755646
v 973.863342 -331.952240 469.755646
v 979.012573 -337.993530 469.755646
v 974.041626 -331.623444 469.755646
v 979.806030 -334.738129 469.755646
v 980.557983 -335.144440 469.755646
v 974.945740 -329.970551 475.755646
v 981.532166 -333.267853 475.755646
v 980.557983 -335.144440 475.755646
v 975.050049 -329.779846 475.755646
v 980.861633 -332.907043 475.755646
v 976.398315 -327.309052 481.755646
v 982.011536 -332.385132 481.755646
v 981.532166 -333.267853 481.755646
v 976.537720 -327.053436 481.755646
v 982.404541 -330.214630 481.755646
v 983.011475 -330.541626 481.755646
v 978.917847 -322.662445 496.755646
v 976.195557 -324.492828 496.755646
v 977.529419 -325.221130 496.755646
v 977.981140 -321.166138 496.755646
v 978.054565 -321.029449 496.755646
v 985.545166 -325.026154 496.755646
v 985.366089 -326.139832 496.755646
v 985.853027 -325.190430 496.755646
v 977.444458 -325.378143 487.755646
v 983.011475 -330.541626 487.755646
v 977.529419 -325.221130 487.755646
v 983.448242 -328.410248 487.755646
v 984.003174 -328.709229 487.755646
v 978.860718 -322.767639 493.755646
v 985.101074 -325.996948 493.755646
v 984.003174 -328.709229 493.755646
v 985.366089 -326.139832 493.755646
v 978.917847 -322.662445 493.755646
vt 0.492070 0.393570
vt 0.524700 0.375500
vt 0.527200 0.369730
vt 0.545840 0.426800
vt 0.473960 0.399140
vt 0.541980 0.428930
vt 0.475180 0.402910
vt 0.545190 0.438590
vt 0.553270 0.449640
vt 0.545810 0.453820
vt 0.541470 0.440670
vt 0.522480 0.382100
vt 0.493560 0.398130
vt 0.519770 0.388520
vt 0.538260 0.431020
vt 0.492670 0.403510
vt 0.534340 0.433230
vt 0.491280 0.399200
vt 0.476610 0.407320
vt 0.537530 0.442880
vt 0.541870 0.455930
vt 0.476850 0.408090
vt 0.478000 0.411640
vt 0.518090 0.394640
vt 0.494110 0.407930
vt 0.531130 0.434940
vt 0.531860 0.446060
vt 0.536190 0.459110
vt 0.516910 0.399900
vt 0.493080 0.413090
vt 0.528620 0.436300
vt 0.491820 0.409210
vt 0.479430 0.416070
vt 0.528180 0.448140
vt 0.532470 0.461120
vt 0.514580 0.405810
vt 0.494350 0.417000
vt 0.524930 0.438370
vt 0.479600 0.416520
vt 0.480700 0.419940
vt 0.522750 0.451200
vt 0.530710 0.462110
vt 0.527040 0.464170
vt 0.481970 0.423860
vt 0.512390 0.409850
vt 0.495120 0.419400
vt 0.522120 0.439950
vt 0.519500 0.441420
vt 0.519100 0.453240
vt 0.523390 0.466210
vt 0.482740 0.426260
vt 0.495730 0.442390
vt 0.515850 0.443430
vt 0.483150 0.427520
vt 0.487120 0.439730
vt 0.489210 0.446010
vt 0.508290 0.447630
vt 0.500800 0.457970
vt 0.509990 0.452870
vt 0.518200 0.450570
vt 0.514000 0.456100
vt 0.518280 0.469020
vt 0.494620 0.448270
vt 0.490680 0.450470
vt 0.497250 0.456340
vt 0.511300 0.454400
vt 0.516400 0.470020
vt 0.493360 0.458500
vt 0.500050 0.479110
vt 0.527200 0.369730
vt 0.524700 0.375500
vt 0.520450 0.377860
vt 0.545840 0.426800
vt 0.492070 0.393570
vt 0.473960 0.399140
vt 0.539720 0.421960
vt 0.488170 0.395730
vt 0.475180 0.402910
vt 0.541980 0.428930
vt 0.524700 0.375500
vt 0.522480 0.382100
vt 0.492070 0.393570
vt 0.541980 0.428930
vt 0.519140 0.383950
vt 0.536440 0.425380
vt 0.493390 0.397610
vt 0.493560 0.398130
vt 0.538260 0.431020
vt 0.493560 0.398130
vt 0.522480 0.382100
vt 0.519770 0.388520
vt 0.538260 0.431020
vt 0.516970 0.390070
vt 0.532830 0.428610
vt 0.492670 0.403510
vt 0.492070 0.393570
vt 0.491280 0.399200
vt 0.475180 0.402910
vt 0.492530 0.403060
vt 0.489760 0.400040
vt 0.476610 0.407320
vt 0.534340 0.433230
vt 0.519770 0.388520
vt 0.518090 0.394640
vt 0.492670 0.403510
vt 0.534340 0.433230
vt 0.515850 0.395890
vt 0.529910 0.431160
vt 0.493390 0.405720
vt 0.493970 0.407520
vt 0.494110 0.407930
vt 0.531130 0.434940
vt 0.494110 0.407930
vt 0.518090 0.394640
vt 0.516910 0.399900
vt 0.531130 0.434940
vt 0.514860 0.401030
vt 0.527620 0.433180
vt 0.493080 0.413090
vt 0.492670 0.403510
vt 0.491820 0.409210
vt 0.478000 0.411640
vt 0.492970 0.412760
vt 0.490750 0.409800
vt 0.479430 0.416070
vt 0.528620 0.436300
vt 0.476850 0.408090
vt 0.491280 0.399200
vt 0.476610 0.407320
vt 0.491300 0.404270
vt 0.478000 0.411640
vt 0.516910 0.399900
vt 0.514580 0.405810
vt 0.493080 0.413090
vt 0.528620 0.436300
vt 0.512990 0.406690
vt 0.524110 0.435800
vt 0.494250 0.416690
vt 0.494350 0.417000
vt 0.524930 0.438370
vt 0.514580 0.405810
vt 0.512390 0.409850
vt 0.494350 0.417000
vt 0.524930 0.438370
vt 0.510000 0.411180
vt 0.520770 0.435790
vt 0.495090 0.419310
vt 0.495120 0.419400
vt 0.522120 0.439950
vt 0.479600 0.416520
vt 0.491820 0.409210
vt 0.479430 0.416070
vt 0.492100 0.413630
vt 0.480700 0.419940
vt 0.512390 0.409850
vt 0.495730 0.442390
vt 0.495120 0.419400
vt 0.522120 0.439950
vt 0.519500 0.441420
vt 0.515850 0.443430
vt 0.482740 0.426260
vt 0.483150 0.427520
vt 0.487120 0.439730
vt 0.489210 0.446010
vt 0.508290 0.447630
vt 0.500800 0.457970
vt 0.509990 0.452870
vt 0.480700 0.419940
vt 0.493080 0.413090
vt 0.493880 0.417260
vt 0.481970 0.423860
vt 0.481970 0.423860
vt 0.494350 0.417000
vt 0.495120 0.419400
vt 0.493830 0.420120
vt 0.482740 0.426260
vt 0.544710 0.437140
vt 0.542560 0.428610
vt 0.545840 0.426800
vt 0.545190 0.438590
vt 0.553270 0.449640
vt 0.541980 0.428930
vt 0.542030 0.440360
vt 0.545810 0.453820
vt 0.541470 0.440670
vt 0.545160 0.451850
vt 0.538740 0.430750
vt 0.545190 0.438590
vt 0.538260 0.431020
vt 0.541050 0.439410
vt 0.541470 0.440670
vt 0.536300 0.432130
vt 0.541470 0.440670
vt 0.534790 0.432980
vt 0.534340 0.433230
vt 0.537160 0.441770
vt 0.537530 0.442880
vt 0.531460 0.434760
vt 0.537530 0.442880
vt 0.531130 0.434940
vt 0.529090 0.436040
vt 0.531860 0.446060
vt 0.528620 0.436300
vt 0.531520 0.445050
vt 0.527390 0.436990
vt 0.528620 0.436300
vt 0.531860 0.446060
vt 0.525560 0.438020
vt 0.524930 0.438370
vt 0.527880 0.447220
vt 0.528180 0.448140
vt 0.522560 0.439700
vt 0.524930 0.438370
vt 0.528180 0.448140
vt 0.522120 0.439950
vt 0.520220 0.441020
vt 0.522470 0.450360
vt 0.522750 0.451200
vt 0.519720 0.441290
vt 0.519500 0.441420
vt 0.538050 0.442590
vt 0.541870 0.455930
vt 0.545810 0.453820
vt 0.537530 0.442880
vt 0.541300 0.454230
vt 0.516600 0.443010
vt 0.519500 0.441420
vt 0.518200 0.450570
vt 0.522750 0.451200
vt 0.515850 0.443430
vt 0.518010 0.450010
vt 0.519060 0.453130
vt 0.519100 0.453240
vt 0.495730 0.442390
vt 0.496430 0.444540
vt 0.494620 0.448270
vt 0.490110 0.445510
vt 0.515850 0.443430
vt 0.509750 0.452140
vt 0.513360 0.444810
vt 0.518200 0.450570
vt 0.509990 0.452870
vt 0.500800 0.457970
vt 0.509340 0.447050
vt 0.489210 0.446010
vt 0.490680 0.450470
vt 0.508290 0.447630
vt 0.497250 0.456340
vt 0.511300 0.454400
vt 0.502080 0.457270
vt 0.516400 0.470020
vt 0.493360 0.458500
vt 0.500050 0.479110
vt 0.532510 0.445700
vt 0.541870 0.455930
vt 0.531860 0.446060
vt 0.535690 0.457610
vt 0.536190 0.459110
vt 0.528560 0.447920
vt 0.532470 0.461120
vt 0.536190 0.459110
vt 0.528180 0.448140
vt 0.532020 0.459780
vt 0.523260 0.450910
vt 0.530710 0.462110
vt 0.532470 0.461120
vt 0.522750 0.451200
vt 0.526630 0.462950
vt 0.527040 0.464170
vt 0.514000 0.456100
vt 0.518200 0.450570
vt 0.519100 0.453240
vt 0.511580 0.454250
vt 0.511300 0.454400
vt 0.516190 0.469400
vt 0.518280 0.469020
vt 0.516400 0.470020
vt 0.519410 0.453070
vt 0.527040 0.464170
vt 0.519100 0.453240
vt 0.523020 0.465100
vt 0.523390 0.466210
vt 0.514210 0.455980
vt 0.518100 0.468490
vt 0.523390 0.466210
vt 0.518280 0.469020
vt 0.514000 0.456100
vn -0.0000 0.0000 -1.0000
vn -0.0001 0.0000 -1.0000
vn -0.0003 0.0000 -1.0000
vn 0.0001 0.0000 -1.0000
vn 0.0000 0.0000 1.0000
vn 0.0002 0.0000 1.0000
vn -0.0002 0.0000 1.0000
vn -0.0001 0.0000 1.0000
vn 0.0001 0.0000 1.0000
vn 0.0003 0.0000 1.0000
vn 0.0008 0.0000 1.0000
vn 0.0016 0.0000 1.0000
vn 0.0005 0.0000 1.0000
s off
f 1/1/1 2/2/1 3/3/1
f 2/2/1 4/4/1 3/3/1
f 5/5/1 1/1/1 3/3/1
f 2/2/1 6/6/1 4/4/1
f 5/5/1 7/7/1 1/1/1
f 4/4/1 6/6/1 8/8/1
f 4/4/1 8/8/1 9/9/1
f 10/10/1 8/8/1 11/11/1
f 9/9/1 8/8/1 10/10/1
f 12/12/1 13/13/1 14/14/1
f 14/14/1 15/15/1 12/12/1
f 13/13/1 16/16/1 14/14/1
f 15/15/1 14/14/1 17/17/1
f 1/1/1 18/18/1 13/13/1
f 1/1/1 7/7/1 18/18/1
f 18/18/1 16/16/1 13/13/1
f 7/7/1 19/19/1 18/18/1
f 1/1/1 12/12/1 2/2/1
f 12/12/1 6/6/1 2/2/1
f 1/1/1 13/13/1 12/12/1
f 12/12/1 15/15/1 6/6/1
f 11/11/1 20/20/1 21/21/1
f 11/11/1 21/21/1 10/10/1
f 6/6/1 15/15/1 8/8/1
f 15/15/1 11/11/1 8/8/1
f 18/18/1 22/22/1 16/16/1
f 19/19/2 22/22/2 18/18/2
f 22/22/1 23/23/1 16/16/1
f 15/15/1 17/17/1 11/11/1
f 17/17/1 20/20/1 11/11/1
f 16/16/1 24/24/1 14/14/1
f 24/24/1 17/17/1 14/14/1
f 16/16/1 25/25/1 24/24/1
f 24/24/1 26/26/1 17/17/1
f 20/20/1 27/27/1 21/21/1
f 27/27/1 28/28/1 21/21/1
f 24/24/1 25/25/1 29/29/1
f 29/29/1 26/26/1 24/24/1
f 25/25/1 30/30/1 29/29/1
f 29/29/1 31/31/1 26/26/1
f 16/16/1 32/32/1 25/25/1
f 23/23/1 32/32/1 16/16/1
f 32/32/1 30/30/1 25/25/1
f 23/23/1 33/33/1 32/32/1
f 17/17/1 26/26/1 20/20/1
f 26/26/1 31/31/1 27/27/1
f 20/20/1 26/26/1 27/27/1
f 27/27/1 34/34/1 35/35/1
f 27/27/1 35/35/1 28/28/1
f 30/30/1 36/36/1 29/29/1
f 36/36/1 31/31/1 29/29/1
f 30/30/1 37/37/1 36/36/1
f 36/36/1 38/38/1 31/31/1
f 32/32/1 39/39/1 30/30/1
f 33/33/3 39/39/3 32/32/3
f 39/39/1 40/40/1 30/30/1
f 31/31/1 38/38/1 27/27/1
f 38/38/1 34/34/1 27/27/1
f 34/34/1 41/41/1 42/42/1
f 35/35/1 34/34/1 42/42/1
f 41/41/1 43/43/1 42/42/1
f 40/40/1 37/37/1 30/30/1
f 40/40/1 44/44/1 37/37/1
f 37/37/1 45/45/1 36/36/1
f 45/45/1 38/38/1 36/36/1
f 37/37/1 46/46/1 45/45/1
f 45/45/1 47/47/1 38/38/1
f 38/38/1 47/47/1 34/34/1
f 47/47/1 48/48/1 41/41/1
f 34/34/1 47/47/1 41/41/1
f 41/41/1 49/49/1 43/43/1
f 49/49/1 50/50/1 43/43/1
f 44/44/1 46/46/1 37/37/1
f 44/44/4 51/51/4 46/46/4
f 52/52/1 45/45/1 46/46/1
f 48/48/1 47/47/1 45/45/1
f 48/48/1 45/45/1 53/53/1
f 53/53/1 45/45/1 52/52/1
f 54/54/1 46/46/1 51/51/1
f 55/55/1 46/46/1 54/54/1
f 52/52/1 46/46/1 55/55/1
f 56/56/1 52/52/1 55/55/1
f 57/57/1 53/53/1 52/52/1
f 57/57/1 52/52/1 58/58/1
f 58/58/1 59/59/1 57/57/1
f 48/48/1 53/53/1 60/60/1
f 41/41/1 48/48/1 60/60/1
f 41/41/1 60/60/1 49/49/1
f 49/49/1 61/61/1 62/62/1
f 49/49/1 62/62/1 50/50/1
f 52/52/1 56/56/1 63/63/1
f 58/58/1 52/52/1 63/63/1
f 57/57/1 59/59/1 53/53/1
f 59/59/1 60/60/1 53/53/1
f 63/63/1 56/56/1 64/64/1
f 58/58/1 63/63/1 65/65/1
f 59/59/2 66/66/2 60/60/2
f 66/66/1 59/59/1 58/58/1
f 58/58/1 67/67/1 66/66/1
f 65/65/2 68/68/2 58/58/2
f 68/68/1 69/69/1 58/58/1
f 69/69/1 67/67/1 58/58/1
f 49/49/1 60/60/1 61/61/1
f 60/60/1 66/66/1 61/61/1
f 66/66/1 67/67/1 61/61/1
f 67/67/1 62/62/1 61/61/1
f 70/70/5 71/71/5 72/72/5
f 73/73/5 71/71/5 70/70/5
f 70/70/5 72/72/5 74/74/5
f 75/75/5 70/70/5 74/74/5
f 76/76/5 71/71/5 73/73/5
f 75/75/5 74/74/5 77/77/5
f 75/75/5 77/77/5 78/78/5
f 79/79/5 76/76/5 73/73/5
f 80/80/5 81/81/5 82/82/5
f 83/83/5 81/81/5 80/80/5
f 81/81/5 84/84/5 82/82/5
f 85/85/5 81/81/5 83/83/5
f 84/84/5 86/86/5 82/82/5
f 84/84/6 87/87/6 86/86/6
f 88/88/5 85/85/5 83/83/5
f 89/89/5 90/90/5 91/91/5
f 90/90/5 92/92/5 91/91/5
f 93/93/5 89/89/5 91/91/5
f 94/94/5 91/91/5 92/92/5
f 95/95/5 89/89/5 93/93/5
f 96/96/5 89/89/5 97/97/5
f 98/98/5 96/96/5 97/97/5
f 99/99/5 97/97/5 89/89/5
f 95/95/5 99/99/5 89/89/5
f 100/100/7 98/98/7 97/97/7
f 101/101/5 98/98/5 100/100/5
f 102/102/5 94/94/5 92/92/5
f 103/103/5 104/104/5 105/105/5
f 106/106/5 104/104/5 103/103/5
f 104/104/5 107/107/5 105/105/5
f 108/108/5 104/104/5 106/106/5
f 107/107/5 109/109/5 105/105/5
f 107/107/8 110/110/8 109/109/8
f 107/107/6 111/111/6 110/110/6
f 112/112/5 108/108/5 106/106/5
f 113/113/5 114/114/5 115/115/5
f 114/114/5 116/116/5 115/115/5
f 117/117/5 113/113/5 115/115/5
f 118/118/5 115/115/5 116/116/5
f 119/119/5 113/113/5 117/117/5
f 120/120/5 113/113/5 121/121/5
f 122/122/5 120/120/5 121/121/5
f 123/123/5 121/121/5 113/113/5
f 119/119/8 123/123/8 113/113/8
f 124/124/5 122/122/5 121/121/5
f 125/125/5 122/122/5 124/124/5
f 126/126/5 118/118/5 116/116/5
f 105/105/5 127/127/5 128/128/5
f 127/127/9 129/129/9 128/128/9
f 130/130/10 127/127/10 105/105/10
f 131/131/5 127/127/5 130/130/5
f 132/132/5 133/133/5 134/134/5
f 135/135/5 133/133/5 132/132/5
f 133/133/5 136/136/5 134/134/5
f 137/137/5 133/133/5 135/135/5
f 136/136/5 138/138/5 134/134/5
f 136/136/6 139/139/6 138/138/6
f 140/140/5 137/137/5 135/135/5
f 141/141/5 142/142/5 143/143/5
f 144/144/5 142/142/5 141/141/5
f 142/142/5 145/145/5 143/143/5
f 146/146/5 142/142/5 144/144/5
f 145/145/5 147/147/5 143/143/5
f 145/145/5 148/148/5 147/147/5
f 149/149/5 146/146/5 144/144/5
f 134/134/5 150/150/5 151/151/5
f 150/150/5 152/152/5 151/151/5
f 153/153/5 150/150/5 134/134/5
f 154/154/5 150/150/5 153/153/5
f 155/155/5 156/156/5 157/157/5
f 158/158/5 159/159/5 155/155/5
f 159/159/5 160/160/5 155/155/5
f 155/155/5 160/160/5 156/156/5
f 161/161/5 157/157/5 162/162/5
f 162/162/5 157/157/5 163/163/5
f 157/157/5 156/156/5 163/163/5
f 156/156/5 164/164/5 163/163/5
f 160/160/5 165/165/5 156/156/5
f 165/165/5 166/166/5 156/156/5
f 167/167/5 166/166/5 165/165/5
f 168/168/5 169/169/5 143/143/5
f 170/170/11 168/168/11 143/143/11
f 171/171/5 168/168/5 170/170/5
f 172/172/5 173/173/5 174/174/5
f 175/175/5 172/172/5 174/174/5
f 176/176/8 172/172/8 175/175/8
f 177/177/5 178/178/5 179/179/5
f 177/177/5 179/179/5 180/180/5
f 180/180/5 179/179/5 181/181/5
f 182/182/5 178/178/5 177/177/5
f 183/183/5 180/180/5 184/184/5
f 184/184/5 180/180/5 181/181/5
f 185/185/5 183/183/5 186/186/5
f 186/186/5 183/183/5 184/184/5
f 187/187/5 79/79/5 188/188/5
f 189/189/5 187/187/5 188/188/5
f 189/189/5 188/188/5 190/190/5
f 190/190/5 188/188/5 191/191/5
f 192/192/5 88/88/5 193/193/5
f 194/194/5 192/192/5 193/193/5
f 195/195/6 194/194/6 193/193/6
f 195/195/5 193/193/5 196/196/5
f 196/196/8 193/193/8 197/197/8
f 198/198/5 102/102/5 199/199/5
f 200/200/6 198/198/6 199/199/6
f 201/201/5 200/200/5 202/202/5
f 200/200/5 199/199/5 202/202/5
f 203/203/9 201/201/9 204/204/9
f 204/204/12 201/201/12 202/202/12
f 205/205/5 206/206/5 207/207/5
f 208/208/5 205/205/5 207/207/5
f 209/209/5 208/208/5 207/207/5
f 209/209/5 207/207/5 210/210/5
f 210/210/5 207/207/5 211/211/5
f 212/212/5 213/213/5 214/214/5
f 215/215/5 212/212/5 214/214/5
f 216/216/5 215/215/5 217/217/5
f 218/218/5 215/215/5 214/214/5
f 217/217/5 215/215/5 218/218/5
f 219/219/5 216/216/5 217/217/5
f 220/220/5 219/219/5 217/217/5
f 221/221/5 191/191/5 222/222/5
f 191/191/5 223/223/5 222/222/5
f 224/224/5 221/221/5 225/225/5
f 225/225/5 221/221/5 222/222/5
f 226/226/5 227/227/5 228/228/5
f 228/228/5 227/227/5 229/229/5
f 230/230/8 226/226/8 231/231/8
f 231/231/5 226/226/5 228/228/5
f 228/228/5 229/229/5 232/232/5
f 232/232/5 229/229/5 233/233/5
f 234/234/5 235/235/5 236/236/5
f 236/236/5 237/237/5 234/234/5
f 238/238/5 239/239/5 240/240/5
f 241/241/5 242/242/5 238/238/5
f 242/242/5 239/239/5 238/238/5
f 235/235/5 243/243/5 236/236/5
f 240/240/5 239/239/5 244/244/5
f 236/236/8 245/245/8 237/237/8
f 246/246/5 245/245/5 236/236/5
f 239/239/5 247/247/5 244/244/5
f 236/236/5 243/243/5 248/248/5
f 242/242/8 241/241/8 249/249/8
f 249/249/5 250/250/5 242/242/5
f 249/249/13 243/243/13 250/250/13
f 249/249/5 251/251/5 243/243/5
f 243/243/5 252/252/5 248/248/5
f 243/243/5 253/253/5 252/252/5
f 251/251/5 253/253/5 243/243/5
f 254/254/5 197/197/5 255/255/5
f 256/256/7 254/254/7 255/255/7
f 256/256/5 255/255/5 257/257/5
f 257/257/5 255/255/5 258/258/5
f 259/259/5 202/202/5 260/260/5
f 202/202/5 261/261/5 260/260/5
f 262/262/5 259/259/5 263/263/5
f 263/263/5 259/259/5 260/260/5
f 264/264/5 211/211/5 265/265/5
f 211/211/5 266/266/5 265/265/5
f 267/267/5 264/264/5 265/265/5
f 268/268/5 267/267/5 265/265/5
f 269/269/5 268/268/5 265/265/5
f 270/270/5 271/271/5 272/272/5
f 270/270/5 273/273/5 271/271/5
f 270/270/9 274/274/9 273/273/9
f 275/275/5 274/274/5 270/270/5
f 276/276/5 277/277/5 270/270/5
f 277/277/5 275/275/5 270/270/5
f 278/278/5 218/218/5 279/279/5
f 280/280/5 278/278/5 279/279/5
f 280/280/5 279/279/5 281/281/5
f 281/281/9 279/279/9 282/282/9
f 283/283/5 233/233/5 284/284/5
f 233/233/5 285/285/5 286/286/5
f 284/284/5 233/233/5 286/286/5
f 287/287/5 283/283/5 284/284/5
