# Blender v3.0.1 OBJ File: 'rockerfeller_plaza.blend'
# www.blender.org
o geometryt000010000010000110010110000110000110100000100110st99
v 755.010010 -219.190216 657.658752
v 733.055542 -209.376312 657.658752
v 736.633545 -202.728806 657.658752
v 751.159302 -226.340515 657.658752
v 730.039246 -214.962616 657.658752
v 717.093506 -174.068405 657.658752
v 709.515625 -188.112305 657.658752
v 765.322998 -200.062912 657.658752
v 758.092407 -213.481003 657.658752
v 751.159302 -226.340515 725.858765
v 733.055542 -209.376312 725.858765
v 730.039246 -214.962616 725.858765
v 755.010010 -219.190216 725.858765
v 758.092407 -213.481003 725.858765
v 736.633545 -202.728806 725.858765
v 765.322998 -200.062912 725.858765
v 717.093506 -174.068405 725.858765
v 709.515625 -188.112305 725.858765
vt 0.318880 0.501800
vt 0.308000 0.457780
vt 0.294770 0.465150
vt 0.333110 0.493870
vt 0.319120 0.451570
vt 0.248830 0.426440
vt 0.276790 0.410830
vt 0.280790 0.523030
vt 0.307510 0.508140
vt 0.333110 0.493870
vt 0.308000 0.457780
vt 0.319120 0.451570
vt 0.318880 0.501800
vt 0.307510 0.508140
vt 0.294770 0.465150
vt 0.280790 0.523030
vt 0.248830 0.426440
vt 0.276790 0.410830
vn -0.0000 0.0000 -1.0000
vn 0.0000 0.0000 1.0000
s off
f 1/1/1 2/2/1 3/3/1
f 4/4/1 2/2/1 1/1/1
f 2/2/1 4/4/1 5/5/1
f 6/6/1 3/3/1 7/7/1
f 8/8/1 3/3/1 6/6/1
f 9/9/1 3/3/1 8/8/1
f 9/9/1 1/1/1 3/3/1
f 10/10/2 11/11/2 12/12/2
f 11/11/2 10/10/2 13/13/2
f 14/14/2 15/15/2 13/13/2
f 13/13/2 15/15/2 11/11/2
f 14/14/2 16/16/2 15/15/2
f 16/16/2 17/17/2 15/15/2
f 15/15/2 17/17/2 18/18/2
