# Blender v3.0.1 OBJ File: 'rockerfeller_plaza.blend'
# www.blender.org
o geometryt000010000010000110010110000110000110100100000000st72
v 460.368530 -195.767380 888.707581
v 461.113220 -196.168884 911.571533
v 460.368530 -195.767380 911.571533
v 454.177826 -192.429581 888.707581
v 461.113220 -196.168884 888.271545
v 454.177826 -192.429581 911.571533
v 453.433136 -192.028076 911.571533
v 453.433136 -192.028076 888.271545
v 453.629730 -191.662979 888.707581
v 453.433136 -192.028076 911.571533
v 453.629730 -191.662979 911.571533
v 459.829651 -180.152084 888.271545
v 459.633026 -180.517181 888.707581
v 453.433136 -192.028076 888.271545
v 459.633026 -180.517181 911.571533
v 459.829651 -180.152084 911.571533
v 460.133728 -180.315079 888.707581
v 459.829651 -180.152084 911.571533
v 460.133728 -180.315079 911.571533
v 461.452209 -181.021484 888.271545
v 461.148132 -180.858475 888.707581
v 459.829651 -180.152084 888.271545
v 461.148132 -180.858475 911.571533
v 461.452209 -181.021484 911.571533
v 473.817230 -172.619675 888.707581
v 473.981018 -172.316071 911.571533
v 473.817230 -172.619675 911.571533
v 472.481537 -175.095673 888.707581
v 473.981018 -172.316071 888.271545
v 472.481537 -175.095673 911.571533
v 472.333252 -175.370682 911.571533
v 472.333252 -175.370682 888.707581
v 470.997528 -177.846573 888.707581
v 470.997528 -177.846573 911.571533
v 470.849121 -178.121582 911.571533
v 470.849121 -178.121582 888.707581
v 468.845642 -181.835480 888.707581
v 468.845642 -181.835480 911.571533
v 468.697235 -182.110474 911.571533
v 468.697235 -182.110474 888.707581
v 468.029419 -183.348480 888.707581
v 468.029419 -183.348480 911.571533
v 467.881042 -183.623474 911.571533
v 467.881042 -183.623474 888.707581
v 467.213226 -184.861481 888.707581
v 467.213226 -184.861481 911.571533
v 467.064819 -185.136475 911.571533
v 467.064819 -185.136475 888.707581
v 461.113220 -196.168884 888.271545
v 466.397034 -186.374374 888.707581
v 466.397034 -186.374374 911.571533
v 466.248718 -186.649384 911.571533
v 466.248718 -186.649384 888.707581
v 464.245117 -190.363281 888.707581
v 464.245117 -190.363281 911.571533
v 464.096832 -190.638275 911.571533
v 464.096832 -190.638275 888.707581
v 462.761047 -193.114273 888.707581
v 462.761047 -193.114273 911.571533
v 462.612732 -193.389282 911.571533
v 462.612732 -193.389282 888.707581
v 461.277039 -195.865173 888.707581
v 461.277039 -195.865173 911.571533
v 461.113220 -196.168884 911.571533
v 461.677734 -180.603683 888.707581
v 461.452209 -181.021484 911.571533
v 461.677734 -180.603683 911.571533
v 467.689728 -169.462585 888.707581
v 461.452209 -181.021484 888.271545
v 467.689728 -169.462585 911.571533
v 467.915131 -169.044785 911.571533
v 467.915131 -169.044785 888.271545
v 468.471924 -169.345078 888.707581
v 467.915131 -169.044785 911.571533
v 468.471924 -169.345078 911.571533
v 473.424225 -172.015778 888.707581
v 467.915131 -169.044785 888.271545
v 473.424225 -172.015778 911.571533
v 473.981018 -172.316071 911.571533
v 473.981018 -172.316071 888.271545
vt 10.101540 0.558980
vt 11.186200 29.871790
vt 10.101540 29.871790
vt 1.084660 0.558980
vt 11.186200 0.000000
vt 1.084660 29.871790
vt 0.000000 29.871790
vt 0.000000 0.000000
vt 16.762020 0.558980
vt 17.293659 29.871790
vt 16.762020 29.871790
vt 0.000000 0.000000
vt 0.531640 0.558980
vt 17.293659 0.000000
vt 0.531640 29.871790
vt 0.000000 29.871790
vt 1.917710 0.558980
vt 2.360020 29.871790
vt 1.917710 29.871790
vt 0.000000 0.000000
vt 0.442310 0.558980
vt 2.360020 0.000000
vt 0.442310 29.871790
vt 0.000000 29.871790
vt 34.304260 0.558980
vt 34.746559 29.871790
vt 34.304260 29.871790
vt 30.697500 0.558980
vt 34.746559 0.000000
vt 30.697500 29.871790
vt 30.296930 29.871790
vt 30.296930 0.558980
vt 26.690180 0.558980
vt 26.690180 29.871790
vt 26.289610 29.871790
vt 26.289610 0.558980
vt 20.879480 0.558980
vt 20.879480 29.871790
vt 20.478910 29.871790
vt 20.478910 0.558980
vt 18.675541 29.871790
vt 18.274969 29.871790
vt 18.675541 0.558980
vt 18.274969 0.558980
vt 16.471590 29.871790
vt 16.071020 29.871790
vt 16.471590 0.558980
vt 16.071020 0.558980
vt 0.000000 0.000000
vt 14.267650 0.558980
vt 14.267650 29.871790
vt 13.867080 29.871790
vt 13.867080 0.558980
vt 8.456951 0.558980
vt 8.456951 29.871790
vt 8.056381 29.871790
vt 8.056381 0.558980
vt 4.449630 0.558980
vt 4.449630 29.871790
vt 4.049060 29.871790
vt 4.049060 0.558980
vt 0.442310 0.558980
vt 0.442310 29.871790
vt 0.000000 29.871790
vt 16.839020 0.558980
vt 17.447660 29.871790
vt 16.839020 29.871790
vt 0.608640 0.558980
vt 17.447660 0.000000
vt 0.608640 29.871790
vt 0.000000 29.871790
vt 0.000000 0.000000
vt 8.024571 0.558980
vt 8.835640 29.871790
vt 8.024571 29.871790
vt 0.811070 0.558980
vt 8.835640 0.000000
vt 0.811070 29.871790
vt 0.000000 29.871790
vt 0.000000 0.000000
vn -0.4746 -0.8802 0.0000
vn -0.8805 0.4740 0.0000
vn -0.8804 0.4742 0.0000
vn -0.8804 0.4742 -0.0001
vn 0.4725 0.8813 0.0000
vn 0.4722 0.8815 -0.0002
vn 0.4723 0.8814 0.0000
vn 0.4724 0.8814 0.0000
vn 0.8801 -0.4747 0.0000
vn 0.8801 -0.4748 0.0000
vn 0.8802 -0.4746 0.0000
vn 0.8802 -0.4746 -0.0004
vn 0.8800 -0.4751 0.0000
vn 0.8801 -0.4748 0.0001
vn 0.8799 -0.4751 0.0000
vn 0.8801 -0.4749 0.0000
vn 0.8801 -0.4747 -0.0001
vn 0.8799 -0.4752 -0.0004
vn 0.8803 -0.4744 0.0003
vn 0.8802 -0.4747 0.0000
vn 0.8802 -0.4747 0.0002
vn -0.8799 0.4751 0.0000
vn -0.8801 0.4748 0.0001
vn -0.8800 0.4749 0.0000
vn -0.8801 0.4749 0.0000
vn -0.8801 0.4748 0.0000
vn -0.8801 0.4749 0.0001
vn 0.4747 0.8802 0.0000
vn 0.4746 0.8802 0.0000
vn 0.4747 0.8801 0.0000
vn 0.8804 -0.4743 0.0009
vn 0.8805 -0.4741 -0.0000
vn 0.8820 -0.4713 -0.0009
vn 0.8799 -0.4752 0.0006
vn 0.8803 -0.4745 0.0000
vn 0.8821 -0.4711 -0.0000
vn 0.8798 -0.4753 -0.0008
vn 0.8820 -0.4712 -0.0036
vn 0.8788 -0.4773 0.0009
vn 0.8805 -0.4740 0.0009
vn 0.8803 -0.4744 -0.0004
s off
f 1/1/1 2/2/1 3/3/1
f 4/4/1 5/5/1 1/1/1
f 2/2/1 1/1/1 5/5/1
f 6/6/1 7/7/1 4/4/1
f 7/7/1 8/8/1 4/4/1
f 8/8/1 5/5/1 4/4/1
f 9/9/2 10/10/2 11/11/2
f 12/12/3 9/9/3 13/13/3
f 12/12/4 14/14/4 9/9/4
f 10/10/3 9/9/3 14/14/3
f 15/15/3 16/16/3 13/13/3
f 16/16/3 12/12/3 13/13/3
f 17/17/5 18/18/5 19/19/5
f 20/20/6 17/17/6 21/21/6
f 20/20/7 22/22/7 17/17/7
f 18/18/8 17/17/8 22/22/8
f 23/23/8 24/24/8 21/21/8
f 24/24/5 20/20/5 21/21/5
f 25/25/9 26/26/9 27/27/9
f 28/28/9 29/29/9 25/25/9
f 26/26/10 25/25/10 29/29/10
f 30/30/11 31/31/11 28/28/11
f 31/31/11 32/32/11 28/28/11
f 32/32/12 33/33/12 29/29/12
f 34/34/10 35/35/10 33/33/10
f 35/35/13 36/36/13 33/33/13
f 36/36/14 37/37/14 29/29/14
f 38/38/15 39/39/15 37/37/15
f 39/39/16 40/40/16 37/37/16
f 42/41/16 43/42/16 41/43/16
f 43/42/16 44/44/16 41/43/16
f 46/45/16 47/46/16 45/47/16
f 47/46/16 48/48/16 45/47/16
f 45/47/17 49/49/17 29/29/17
f 50/50/18 49/49/18 48/48/18
f 51/51/11 52/52/11 50/50/11
f 52/52/11 53/53/11 50/50/11
f 54/54/19 49/49/19 53/53/19
f 55/55/20 56/56/20 54/54/20
f 56/56/20 57/57/20 54/54/20
f 58/58/21 49/49/21 57/57/21
f 59/59/11 60/60/11 58/58/11
f 60/60/10 61/61/10 58/58/10
f 62/62/10 49/49/10 61/61/10
f 63/63/10 64/64/10 62/62/10
f 64/64/11 49/49/11 62/62/11
f 65/65/22 66/66/22 67/67/22
f 68/68/23 69/69/23 65/65/23
f 66/66/24 65/65/24 69/69/24
f 70/70/25 71/71/25 68/68/25
f 71/71/26 72/72/26 68/68/26
f 72/72/27 69/69/27 68/68/27
f 73/73/28 74/74/28 75/75/28
f 76/76/28 77/77/28 73/73/28
f 74/74/28 73/73/28 77/77/28
f 78/78/29 79/79/29 76/76/29
f 79/79/30 80/80/30 76/76/30
f 80/80/29 77/77/29 76/76/29
s 1
f 32/32/31 29/29/31 28/28/31
f 33/33/32 36/36/32 29/29/32
f 37/37/33 40/40/34 29/29/35
f 40/40/34 41/43/36 29/29/35
f 41/43/36 44/44/37 29/29/35
f 44/44/37 45/47/37 29/29/35
f 48/48/38 49/49/38 45/47/38
f 53/53/39 49/49/39 50/50/39
f 57/57/40 49/49/40 54/54/40
f 61/61/41 49/49/41 58/58/41
