# Blender v3.0.1 OBJ File: 'rockerfeller_plaza.blend'
# www.blender.org
o geometryt000010000010000110010110000110000110100000100000st2
v 310.871857 -131.814255 335.787292
v 275.950012 -143.621262 335.787292
v 288.835358 -119.868454 335.787292
v 315.674438 -133.201859 335.787292
v 311.384247 -130.864655 335.787292
v 316.980377 -130.799759 335.787292
v 353.647034 -185.707947 335.787292
v 322.898071 -119.884254 335.787292
v 382.665955 -132.258057 335.787292
v 326.592499 -113.068954 335.787292
v 331.286835 -104.399155 335.787292
v 315.674438 -133.201859 411.687317
v 275.950012 -143.621262 411.687317
v 353.647034 -185.707947 411.687317
v 310.871857 -131.814255 411.687317
v 288.835358 -119.868454 411.687317
v 382.665955 -132.258057 411.687317
v 316.980377 -130.799759 411.687317
v 331.286835 -104.399155 411.687317
v 326.592499 -113.068954 411.687317
v 322.898071 -119.884254 411.687317
v 311.384247 -130.864655 411.687317
vt 0.221060 0.116120
vt 0.253650 0.045460
vt 0.206330 0.071980
vt 0.222060 0.125770
vt 0.219170 0.117180
vt 0.217270 0.128460
vt 0.305530 0.201080
vt 0.195530 0.140640
vt 0.199040 0.260820
vt 0.181950 0.148250
vt 0.164680 0.157910
vt 0.222060 0.125770
vt 0.253650 0.045460
vt 0.305530 0.201080
vt 0.221060 0.116120
vt 0.206330 0.071980
vt 0.199040 0.260820
vt 0.217270 0.128460
vt 0.164680 0.157910
vt 0.181950 0.148250
vt 0.195530 0.140640
vt 0.219170 0.117180
vn -0.0000 0.0000 -1.0000
vn 0.0000 0.0000 1.0000
s off
f 1/1/1 2/2/1 3/3/1
f 4/4/1 1/1/1 5/5/1
f 2/2/1 1/1/1 4/4/1
f 6/6/1 7/7/1 4/4/1
f 7/7/1 2/2/1 4/4/1
f 8/8/1 9/9/1 6/6/1
f 9/9/1 7/7/1 6/6/1
f 10/10/1 9/9/1 8/8/1
f 11/11/1 9/9/1 10/10/1
f 12/12/2 13/13/2 14/14/2
f 15/15/2 13/13/2 12/12/2
f 16/16/2 13/13/2 15/15/2
f 17/17/2 18/18/2 14/14/2
f 18/18/2 12/12/2 14/14/2
f 19/19/2 20/20/2 17/17/2
f 17/17/2 20/20/2 21/21/2
f 17/17/2 21/21/2 18/18/2
f 22/22/2 15/15/2 12/12/2
