# Blender v3.0.1 OBJ File: 'rockerfeller_plaza.blend'
# www.blender.org
o geometryt000010000010000110010110000110000110100100000000st212_
v 308.930298 -329.818390 890.402222
v 308.210724 -331.259064 890.402222
v 308.210724 -331.259064 976.113281
v 308.930298 -329.818390 976.113281
v 308.073730 -332.305084 890.402222
v 309.490753 -333.070190 890.402222
v 309.490753 -333.070190 976.113281
v 308.073730 -332.305084 976.113281
v 310.210876 -333.458984 976.113281
v 310.210876 -333.458984 890.402222
v 314.461975 -335.754272 890.402222
v 314.461975 -335.754272 976.113281
v 315.182098 -336.143188 890.402222
v 320.850189 -339.203583 890.402222
v 320.850189 -339.203583 976.113281
v 315.182098 -336.143188 976.113281
v 321.570312 -339.592377 976.113281
v 321.570312 -339.592377 890.402222
v 325.821411 -341.887787 890.402222
v 325.821411 -341.887787 976.113281
v 326.541534 -342.276581 890.402222
v 327.958557 -343.041687 890.402222
v 327.958557 -343.041687 976.113281
v 326.541534 -342.276581 976.113281
v 310.302338 -327.216980 976.113281
v 310.302338 -327.216980 890.402222
v 309.535217 -328.632874 890.402222
v 309.535217 -328.632874 976.113281
v 313.020752 -322.199463 976.113281
v 313.020752 -322.199463 890.402222
v 310.719360 -326.447266 890.402222
v 310.719360 -326.447266 976.113281
v 315.739166 -317.182068 976.113281
v 315.739166 -317.182068 890.402222
v 313.437744 -321.429871 890.402222
v 313.437744 -321.429871 976.113281
v 316.923279 -314.996490 890.402222
v 316.156158 -316.412384 890.402222
v 316.156158 -316.412384 976.113281
v 316.923279 -314.996490 976.113281
v 318.874573 -311.394989 976.113281
v 318.874573 -311.394989 890.402222
v 317.340302 -314.226776 890.402222
v 317.340302 -314.226776 976.113281
v 320.825836 -307.793365 890.402222
v 319.291565 -310.625275 890.402222
v 319.291565 -310.625275 976.113281
v 320.825836 -307.793365 976.113281
v 322.009979 -305.607788 976.113281
v 322.009979 -305.607788 890.402222
v 321.242828 -307.023773 890.402222
v 321.242828 -307.023773 976.113281
v 324.728363 -300.590393 890.402222
v 322.426971 -304.838165 890.402222
v 322.426971 -304.838165 976.113281
v 324.728363 -300.590393 976.113281
v 327.446777 -295.572876 976.113281
v 327.446777 -295.572876 890.402222
v 325.145386 -299.820679 890.402222
v 325.145386 -299.820679 976.113281
v 328.630920 -293.387268 976.113281
v 328.630920 -293.387268 890.402222
v 327.863770 -294.803192 890.402222
v 327.863770 -294.803192 976.113281
v 328.643555 -342.500488 976.113281
v 328.643555 -342.500488 890.402222
v 329.409790 -341.084076 890.402222
v 329.409790 -341.084076 976.113281
v 329.707306 -291.354279 976.113281
v 329.707306 -291.354279 890.402222
v 328.956177 -292.778778 890.402222
v 328.956177 -292.778778 976.113281
v 332.292877 -286.450867 976.113281
v 332.292877 -286.450867 890.402222
v 330.039490 -290.724274 890.402222
v 330.039490 -290.724274 976.113281
v 334.878418 -281.547363 976.113281
v 334.878418 -281.547363 890.402222
v 332.625061 -285.820892 890.402222
v 332.625061 -285.820892 976.113281
v 335.961731 -279.492981 976.113281
v 335.961731 -279.492981 890.402222
v 335.210632 -280.917480 890.402222
v 335.210632 -280.917480 976.113281
v 329.954010 -340.074768 976.113281
v 329.954010 -340.074768 890.402222
v 330.713745 -338.654877 890.402222
v 330.713745 -338.654877 976.113281
v 331.308960 -337.542480 890.402222
v 333.588196 -333.282684 890.402222
v 333.588196 -333.282684 976.113281
v 331.308960 -337.542480 976.113281
v 334.183441 -332.170288 890.402222
v 336.462646 -327.910492 890.402222
v 336.462646 -327.910492 976.113281
v 334.183441 -332.170288 976.113281
v 337.057861 -326.798065 890.402222
v 337.817627 -325.378174 890.402222
v 337.817627 -325.378174 976.113281
v 337.057861 -326.798065 976.113281
v 337.846619 -280.110565 890.402222
v 336.426819 -279.350586 890.402222
v 336.426819 -279.350586 976.113281
v 337.846619 -280.110565 976.113281
v 342.825714 -282.775665 976.113281
v 342.825714 -282.775665 890.402222
v 338.566345 -280.495789 890.402222
v 338.566345 -280.495789 976.113281
v 349.224609 -286.200867 976.113281
v 349.224609 -286.200867 890.402222
v 343.545441 -283.160980 890.402222
v 343.545441 -283.160980 976.113281
v 354.203705 -288.865967 890.402222
v 349.944336 -286.586090 890.402222
v 349.944336 -286.586090 976.113281
v 354.203705 -288.865967 976.113281
v 356.343231 -290.011292 890.402222
v 354.923431 -289.251282 890.402222
v 354.923431 -289.251282 976.113281
v 356.343231 -290.011292 976.113281
v 338.142090 -324.769165 976.113281
v 338.142090 -324.769165 890.402222
v 338.896973 -323.346680 890.402222
v 338.896973 -323.346680 976.113281
v 339.342194 -322.507782 976.113281
v 339.342194 -322.507782 890.402222
v 341.606842 -318.240265 890.402222
v 341.606842 -318.240265 976.113281
v 342.052032 -317.401367 890.402222
v 342.806946 -315.978882 890.402222
v 342.806946 -315.978882 976.113281
v 342.052032 -317.401367 976.113281
v 343.252136 -315.139984 976.113281
v 343.252136 -315.139984 890.402222
v 345.516785 -310.872467 890.402222
v 345.516785 -310.872467 976.113281
v 345.961975 -310.033569 890.402222
v 346.716858 -308.611084 890.402222
v 346.716858 -308.611084 976.113281
v 345.961975 -310.033569 976.113281
v 347.043915 -308.003479 890.402222
v 347.815674 -306.590088 890.402222
v 347.815674 -306.590088 976.113281
v 347.043915 -308.003479 976.113281
v 348.574524 -305.200287 976.113281
v 348.574524 -305.200287 890.402222
v 350.118042 -302.373383 890.402222
v 350.118042 -302.373383 976.113281
v 350.876892 -300.983582 976.113281
v 350.876892 -300.983582 890.402222
v 351.648651 -299.570190 890.402222
v 351.648651 -299.570190 976.113281
v 351.977081 -298.963379 890.402222
v 352.502045 -297.984985 890.402222
v 352.502045 -297.984985 976.113281
v 351.977081 -298.963379 976.113281
v 352.954498 -297.148285 976.113281
v 352.954498 -297.148285 890.402222
v 353.723206 -295.733276 890.402222
v 353.723206 -295.733276 976.113281
v 354.316681 -294.635864 976.113281
v 354.316681 -294.635864 890.402222
v 355.080292 -293.218079 890.402222
v 355.080292 -293.218079 976.113281
v 355.650452 -292.131165 890.402222
v 356.381409 -290.696289 890.402222
v 356.381409 -290.696289 976.113281
v 355.650452 -292.131165 976.113281
vt 0.000000 0.000000
vt 0.250000 0.000000
vt 0.250000 6.250000
vt 0.000000 6.250000
vt 0.000000 0.000000
vt 0.250000 0.000000
vt 0.250000 6.250000
vt 0.000000 6.250000
vt 0.000000 6.250000
vt 0.000000 0.000000
vt 0.750000 0.000000
vt 0.750000 6.250000
vt 0.000000 0.000000
vt 1.000000 0.000000
vt 1.000000 6.250000
vt 0.000000 6.250000
vt 0.000000 6.250000
vt 0.000000 0.000000
vt 0.750000 0.000000
vt 0.750000 6.250000
vt 0.000000 0.000000
vt 0.250000 0.000000
vt 0.250000 6.250000
vt 0.000000 6.250000
vt 0.000000 6.250000
vt 0.000000 0.000000
vt 0.250000 0.000000
vt 0.250000 6.250000
vt 0.000000 6.250000
vt 0.000000 0.000000
vt 0.750000 0.000000
vt 0.750000 6.250000
vt 0.000000 6.250000
vt 0.000000 0.000000
vt 0.750000 0.000000
vt 0.750000 6.250000
vt 0.000000 0.000000
vt 0.250000 0.000000
vt 0.250000 6.250000
vt 0.000000 6.250000
vt 0.000000 6.250000
vt 0.000000 0.000000
vt 0.500000 0.000000
vt 0.500000 6.250000
vt 0.000000 0.000000
vt 0.500000 0.000000
vt 0.500000 6.250000
vt 0.000000 6.250000
vt 0.000000 6.250000
vt 0.000000 0.000000
vt 0.250000 0.000000
vt 0.250000 6.250000
vt 0.000000 0.000000
vt 0.750000 0.000000
vt 0.750000 6.250000
vt 0.000000 6.250000
vt 0.000000 6.250000
vt 0.000000 0.000000
vt 0.750000 0.000000
vt 0.750000 6.250000
vt 0.000000 6.250000
vt 0.000000 0.000000
vt 0.250000 0.000000
vt 0.250000 6.250000
vt 0.000000 6.250000
vt 0.000000 0.000000
vt 0.250000 0.000000
vt 0.250000 6.250000
vt 0.000000 6.250000
vt 0.000000 0.000000
vt 0.250000 0.000000
vt 0.250000 6.250000
vt 0.000000 6.250000
vt 0.000000 0.000000
vt 0.750000 0.000000
vt 0.750000 6.250000
vt 0.000000 6.250000
vt 0.000000 0.000000
vt 0.750000 0.000000
vt 0.750000 6.250000
vt 0.000000 6.250000
vt 0.000000 0.000000
vt 0.250000 0.000000
vt 0.250000 6.250000
vt 0.000000 6.250000
vt 0.000000 0.000000
vt 0.250000 0.000000
vt 0.250000 6.250000
vt 0.000000 0.000000
vt 0.750000 0.000000
vt 0.750000 6.250000
vt 0.000000 6.250000
vt 0.000000 0.000000
vt 0.250000 0.000000
vt 0.250000 6.250000
vt 0.000000 6.250000
vt 0.000000 0.000000
vt 0.250000 0.000000
vt 0.250000 6.250000
vt 0.000000 6.250000
vt 0.000000 6.250000
vt 0.000000 0.000000
vt 0.750000 0.000000
vt 0.750000 6.250000
vt 0.000000 6.250000
vt 0.000000 0.000000
vt 1.000000 0.000000
vt 1.000000 6.250000
vt 0.000000 0.000000
vt 0.750000 0.000000
vt 0.750000 6.250000
vt 0.000000 6.250000
vt 0.000000 0.000000
vt 0.250000 0.000000
vt 0.250000 6.250000
vt 0.000000 6.250000
vt 0.000000 6.250000
vt 0.000000 0.000000
vt 0.250000 0.000000
vt 0.250000 6.250000
vt 0.000000 6.250000
vt 0.000000 0.000000
vt 0.750000 0.000000
vt 0.750000 6.250000
vt 0.000000 0.000000
vt 0.250000 0.000000
vt 0.250000 6.250000
vt 0.000000 6.250000
vt 0.000000 6.250000
vt 0.000000 0.000000
vt 0.750000 0.000000
vt 0.750000 6.250000
vt 0.000000 0.000000
vt 0.250000 0.000000
vt 0.250000 6.250000
vt 0.000000 6.250000
vt 0.000000 0.000000
vt 0.250000 0.000000
vt 0.250000 6.250000
vt 0.000000 6.250000
vt 0.000000 6.250000
vt 0.000000 0.000000
vt 0.500000 0.000000
vt 0.500000 6.250000
vt 0.000000 6.250000
vt 0.000000 0.000000
vt 0.250000 0.000000
vt 0.250000 6.250000
vt 0.000000 0.000000
vt 0.250000 0.000000
vt 0.250000 6.250000
vt 0.000000 6.250000
vt 0.000000 6.250000
vt 0.000000 0.000000
vt 0.250000 0.000000
vt 0.250000 6.250000
vt 0.000000 6.250000
vt 0.000000 0.000000
vt 0.250000 0.000000
vt 0.250000 6.250000
vt 0.000000 0.000000
vt 0.250000 0.000000
vt 0.250000 6.250000
vt 0.000000 6.250000
vt 0.000000 0.000000
vt 0.750000 0.000000
vt 0.750000 6.250000
vt 0.000000 6.250000
vn -0.8946 0.4468 0.0000
vn -0.4751 -0.8799 0.0000
vn -0.8792 0.4764 0.0000
vn -0.8793 0.4763 0.0000
vn 0.8795 -0.4758 0.0000
vn -0.8846 0.4664 0.0000
vn 0.8817 -0.4718 0.0000
vn 0.4719 0.8816 0.0000
vn 0.8833 -0.4687 0.0000
vn 0.8833 -0.4688 0.0000
vn 0.8777 -0.4792 0.0000
vn 0.8812 -0.4728 0.0000
vn 0.8787 -0.4774 0.0000
vn 0.8787 -0.4773 0.0000
vn 0.8804 -0.4742 0.0000
vn 0.8910 -0.4539 0.0000
vn 0.8911 -0.4539 0.0000
s off
f 1/1/1 2/2/1 3/3/1
f 4/4/1 1/1/1 3/3/1
f 5/5/2 6/6/2 7/7/2
f 8/8/2 5/5/2 7/7/2
f 9/9/2 10/10/2 11/11/2
f 9/9/2 11/11/2 12/12/2
f 13/13/2 14/14/2 15/15/2
f 16/16/2 13/13/2 15/15/2
f 17/17/2 18/18/2 19/19/2
f 17/17/2 19/19/2 20/20/2
f 21/21/2 22/22/2 23/23/2
f 24/24/2 21/21/2 23/23/2
f 25/25/3 26/26/3 27/27/3
f 25/25/4 27/27/4 28/28/4
f 29/29/3 30/30/3 31/31/3
f 29/29/3 31/31/3 32/32/3
f 33/33/3 34/34/3 35/35/3
f 33/33/3 35/35/3 36/36/3
f 37/37/3 38/38/3 39/39/3
f 40/40/3 37/37/3 39/39/3
f 41/41/3 42/42/3 43/43/3
f 41/41/3 43/43/3 44/44/3
f 45/45/3 46/46/3 47/47/3
f 48/48/4 45/45/4 47/47/4
f 49/49/3 50/50/3 51/51/3
f 49/49/3 51/51/3 52/52/3
f 53/53/3 54/54/3 55/55/3
f 56/56/3 53/53/3 55/55/3
f 57/57/3 58/58/3 59/59/3
f 57/57/3 59/59/3 60/60/3
f 61/61/3 62/62/3 63/63/3
f 61/61/3 63/63/3 64/64/3
f 65/65/5 66/66/5 67/67/5
f 65/65/5 67/67/5 68/68/5
f 69/69/6 70/70/6 71/71/6
f 69/69/6 71/71/6 72/72/6
f 73/73/6 74/74/6 75/75/6
f 73/73/6 75/75/6 76/76/6
f 77/77/6 78/78/6 79/79/6
f 77/77/6 79/79/6 80/80/6
f 81/81/6 82/82/6 83/83/6
f 81/81/6 83/83/6 84/84/6
f 85/85/7 86/86/7 87/87/7
f 85/85/7 87/87/7 88/88/7
f 93/89/7 94/90/7 95/91/7
f 96/92/7 93/89/7 95/91/7
f 97/93/7 98/94/7 99/95/7
f 100/96/7 97/93/7 99/95/7
f 101/97/8 102/98/8 103/99/8
f 104/100/8 101/97/8 103/99/8
f 105/101/8 106/102/8 107/103/8
f 105/101/8 107/103/8 108/104/8
f 109/105/8 110/106/8 111/107/8
f 109/105/8 111/107/8 112/108/8
f 113/109/8 114/110/8 115/111/8
f 116/112/8 113/109/8 115/111/8
f 117/113/8 118/114/8 119/115/8
f 120/116/8 117/113/8 119/115/8
f 121/117/9 122/118/9 123/119/9
f 121/117/10 123/119/10 124/120/10
f 125/121/10 126/122/10 127/123/10
f 125/121/10 127/123/10 128/124/10
f 129/125/9 130/126/9 131/127/9
f 132/128/10 129/125/10 131/127/10
f 133/129/10 134/130/10 135/131/10
f 133/129/10 135/131/10 136/132/10
f 137/133/9 138/134/9 139/135/9
f 140/136/10 137/133/10 139/135/10
f 141/137/11 142/138/11 143/139/11
f 144/140/11 141/137/11 143/139/11
f 145/141/11 146/142/11 147/143/11
f 145/141/11 147/143/11 148/144/11
f 149/145/11 150/146/11 151/147/11
f 149/145/11 151/147/11 152/148/11
f 153/149/12 154/150/12 155/151/12
f 156/152/12 153/149/12 155/151/12
f 157/153/13 158/154/13 159/155/13
f 157/153/14 159/155/14 160/156/14
f 161/157/15 162/158/15 163/159/15
f 161/157/15 163/159/15 164/160/15
f 165/161/16 166/162/16 167/163/16
f 168/164/17 165/161/17 167/163/17
s 1
f 89/165/7 90/166/7 91/167/7
f 92/168/7 89/165/7 91/167/7
