# Blender v3.0.1 OBJ File: 'rockerfeller_plaza.blend'
# www.blender.org
o geometryt000010000010000110010110000110000110100100000000st81_T
v 264.759277 -128.207474 889.381958
v 282.576263 -137.929077 889.381958
v 282.576263 -137.929077 955.649780
v 264.759277 -128.207474 955.649780
v 274.528656 -109.390182 889.381958
v 264.747742 -127.174683 889.381958
v 264.747742 -127.174683 955.649780
v 274.528656 -109.390182 955.649780
v 273.268890 -125.112488 963.649780
v 273.268890 -125.112488 955.649780
v 278.770935 -128.108582 955.649780
v 278.839294 -128.145782 963.649780
v 278.839294 -128.145782 955.649780
v 279.648376 -111.924385 955.649780
v 273.387115 -123.317085 955.649780
v 279.648376 -111.924385 963.649780
v 272.927582 -124.153183 963.649780
v 272.927582 -124.153183 955.649780
v 279.140472 -110.874588 889.381958
v 275.797943 -109.055183 889.381958
v 275.797943 -109.055183 955.649780
v 279.140472 -110.874588 955.649780
v 279.134033 -129.190872 963.649780
v 279.134033 -129.190872 955.649780
v 277.913696 -131.415176 955.649780
v 277.913696 -131.415176 963.649780
v 278.148926 -132.427872 963.649780
v 278.148926 -132.427872 955.649780
v 283.604248 -135.398178 955.649780
v 283.719452 -135.460876 963.649780
v 283.719452 -135.460876 955.649780
v 307.643860 -126.089584 889.381958
v 280.782227 -111.759483 889.381958
v 280.782227 -111.759483 963.649780
v 307.643860 -126.089584 963.649780
v 283.741577 -138.553482 958.649780
v 283.741577 -138.553482 889.381958
v 297.193512 -145.678772 889.381958
v 297.193512 -145.678772 958.649780
v 283.980377 -136.426376 958.649780
v 283.980377 -136.426376 955.649780
v 283.369995 -137.538376 955.649780
v 283.369995 -137.538376 958.649780
v 285.046631 -136.173676 963.649780
v 285.046631 -136.173676 958.649780
v 298.218872 -143.164581 958.649780
v 298.492737 -143.309982 963.649780
v 298.492737 -143.309982 958.649780
v 298.257233 -145.431778 889.381958
v 298.866852 -144.319382 889.381958
v 298.866852 -144.319382 958.649780
v 298.257233 -145.431778 958.649780
v 299.623199 -142.925171 889.381958
v 308.038391 -127.285988 889.381958
v 308.038391 -127.285988 963.649780
v 299.623199 -142.925171 963.649780
vt 0.000000 0.000000
vt 2.666670 0.000000
vt 2.666670 3.750000
vt 0.000000 3.750000
vt 0.000000 0.000000
vt 2.666670 0.000000
vt 2.666670 3.750000
vt 0.000000 3.750000
vt 0.000000 0.500000
vt 0.000000 0.000000
vt 0.823110 0.000000
vt 0.833330 0.500000
vt 0.833330 0.000000
vt 0.000000 0.000000
vt 1.707980 0.000000
vt 0.000000 0.500000
vt 1.833330 0.500000
vt 1.833330 0.000000
vt 0.000000 0.000000
vt 0.500000 0.000000
vt 0.500000 3.750000
vt 0.000000 3.750000
vt 0.000000 0.500000
vt 0.000000 0.000000
vt 0.816100 0.000000
vt 0.833330 0.500000
vt 0.833330 0.000000
vt 0.000000 0.000000
vt 4.000000 0.000000
vt 4.000000 4.250000
vt 0.000000 4.250000
vt 0.000000 5.750000
vt 0.000000 0.000000
vt 2.000000 0.000000
vt 2.000000 5.750000
vt 0.000000 0.250000
vt 0.000000 0.000000
vt 0.166670 0.000000
vt 0.166670 0.250000
vt 0.000000 0.250000
vt 0.000000 0.000000
vt 1.959260 0.000000
vt 2.000000 0.250000
vt 2.000000 0.000000
vt 0.000000 0.000000
vt 0.166670 0.000000
vt 0.166670 5.750000
vt 0.000000 5.750000
vt 0.000000 0.000000
vt 2.333330 0.000000
vt 2.333330 4.250000
vt 0.000000 4.250000
vt 0.000000 0.500000
vt 0.000000 0.000000
vt 0.333330 0.000000
vt 0.333330 0.500000
vn -0.4790 -0.8778 0.0000
vn -0.8762 0.4819 0.0000
vn -0.4782 -0.8782 0.0000
vn -0.4780 -0.8784 0.0000
vn -0.8764 0.4816 0.0000
vn -0.8764 0.4817 0.0000
vn 0.4781 0.8783 0.0000
vn -0.4782 -0.8783 0.0000
vn -0.4781 -0.8783 0.0000
vn 0.4707 0.8823 0.0000
vn -0.4681 -0.8837 0.0000
vn -0.8766 0.4812 0.0000
vn -0.4688 -0.8833 0.0000
vn -0.4690 -0.8832 0.0000
vn 0.8769 -0.4806 0.0000
vn 0.8806 -0.4738 0.0000
vn -0.8767 0.4810 0.0000
s off
f 1/1/1 2/2/1 3/3/1
f 4/4/1 1/1/1 3/3/1
f 5/5/2 6/6/2 7/7/2
f 8/8/2 5/5/2 7/7/2
f 9/9/3 10/10/3 11/11/3
f 12/12/4 11/11/4 13/13/4
f 12/12/3 9/9/3 11/11/3
f 14/14/5 15/15/5 16/16/5
f 17/17/6 15/15/6 18/18/6
f 16/16/5 15/15/5 17/17/5
f 19/19/7 20/20/7 21/21/7
f 22/22/7 19/19/7 21/21/7
f 27/23/8 28/24/8 29/25/8
f 30/26/9 29/25/9 31/27/9
f 30/26/8 27/23/8 29/25/8
f 32/28/10 33/29/10 34/30/10
f 35/31/10 32/28/10 34/30/10
f 36/32/11 37/33/11 38/34/11
f 36/32/11 38/34/11 39/35/11
f 40/36/12 41/37/12 42/38/12
f 40/36/12 42/38/12 43/39/12
f 44/40/13 45/41/13 46/42/13
f 47/43/14 46/42/14 48/44/14
f 47/43/13 44/40/13 46/42/13
f 49/45/15 50/46/15 51/47/15
f 52/48/15 49/45/15 51/47/15
f 53/49/16 54/50/16 55/51/16
f 56/52/16 53/49/16 55/51/16
s 1
f 23/53/17 24/54/17 25/55/17
f 23/53/17 25/55/17 26/56/17
