# Blender v3.0.1 OBJ File: 'rockerfeller_plaza.blend'
# www.blender.org
o geometryt000010000010000110010110000110000110100000110110st33
v 1168.089600 -309.039307 747.989685
v 1168.089600 -309.039307 738.385559
v 1169.629395 -309.871613 738.385559
v 1169.629395 -309.871613 747.989685
v 1171.491089 -310.878113 738.385559
v 1173.030762 -311.710419 738.385559
v 1173.030762 -311.710419 747.989685
v 1171.491089 -310.878113 747.989685
v 1169.614258 -305.492004 747.989685
v 1169.614258 -305.492004 738.385559
v 1167.950195 -308.571716 738.385559
v 1167.950195 -308.571716 747.989685
v 1174.270020 -296.875122 738.385559
v 1170.941895 -303.034607 738.385559
v 1170.941895 -303.034607 747.989685
v 1174.270020 -296.875122 747.989685
v 1178.925903 -288.258301 738.385559
v 1175.597900 -294.417694 738.385559
v 1175.597900 -294.417694 747.989685
v 1178.925903 -288.258301 747.989685
v 1181.917725 -282.721100 738.385559
v 1180.253784 -285.800903 738.385559
v 1180.253784 -285.800903 747.989685
v 1181.917725 -282.721100 747.989685
v 1173.498169 -311.570923 738.385559
v 1175.162964 -308.491608 738.385559
v 1175.162964 -308.491608 747.989685
v 1173.498169 -311.570923 747.989685
v 1177.061035 -304.980713 747.989685
v 1176.491943 -306.033295 738.385559
v 1179.821533 -299.874603 738.385559
v 1176.491943 -306.033295 747.989685
v 1179.821533 -299.874603 747.989685
v 1181.150513 -297.416412 738.385559
v 1184.480103 -291.257721 738.385559
v 1184.480103 -291.257721 747.989685
v 1181.150513 -297.416412 747.989685
v 1185.809082 -288.799408 738.385559
v 1187.473999 -285.720123 738.385559
v 1187.473999 -285.720123 747.989685
v 1185.809082 -288.799408 747.989685
v 1183.925537 -283.412811 747.989685
v 1183.925537 -283.412811 738.385559
v 1182.385376 -282.581512 738.385559
v 1182.385376 -282.581512 747.989685
v 1187.334717 -285.252899 738.385559
v 1185.794434 -284.421509 738.385559
v 1185.794434 -284.421509 747.989685
v 1187.334717 -285.252899 747.989685
vt 0.000000 0.750000
vt 0.000000 0.000000
vt 0.333330 0.000000
vt 0.333330 0.750000
vt 0.000000 0.000000
vt 0.333330 0.000000
vt 0.333330 0.750000
vt 0.000000 0.750000
vt 0.000000 0.750000
vt 0.000000 0.000000
vt 0.666670 0.000000
vt 0.666670 0.750000
vt 0.000000 0.000000
vt 1.333330 0.000000
vt 1.333330 0.750000
vt 0.000000 0.750000
vt 0.000000 0.000000
vt 1.333330 0.000000
vt 1.333330 0.750000
vt 0.000000 0.750000
vt 0.000000 0.000000
vt 0.666670 0.000000
vt 0.666670 0.750000
vt 0.000000 0.750000
vt 0.000000 0.000000
vt 0.666670 0.000000
vt 0.666670 0.750000
vt 0.000000 0.750000
vt 0.227880 0.750000
vt 0.000000 0.000000
vt 1.333330 0.000000
vt 0.000000 0.750000
vt 1.333330 0.750000
vt 0.000000 0.000000
vt 1.333330 0.000000
vt 1.333330 0.750000
vt 0.000000 0.750000
vt 0.000000 0.000000
vt 0.666670 0.000000
vt 0.666670 0.750000
vt 0.000000 0.750000
vt 0.000000 0.750000
vt 0.000000 0.000000
vt 0.333330 0.000000
vt 0.333330 0.750000
vt 0.000000 0.000000
vt 0.333330 0.000000
vt 0.333330 0.750000
vt 0.000000 0.750000
vn -0.4755 -0.8797 0.0000
vn -0.8798 0.4754 0.0000
vn -0.8798 0.4753 0.0000
vn 0.8797 -0.4756 0.0000
vn 0.8797 -0.4755 0.0000
vn 0.4750 0.8800 0.0000
s off
f 1/1/1 2/2/1 3/3/1
f 1/1/1 3/3/1 4/4/1
f 5/5/1 6/6/1 7/7/1
f 8/8/1 5/5/1 7/7/1
f 9/9/2 10/10/2 11/11/2
f 9/9/2 11/11/2 12/12/2
f 13/13/2 14/14/2 15/15/2
f 16/16/2 13/13/2 15/15/2
f 17/17/2 18/18/2 19/19/2
f 20/20/3 17/17/3 19/19/3
f 21/21/3 22/22/3 23/23/3
f 24/24/2 21/21/2 23/23/2
f 25/25/4 26/26/4 27/27/4
f 28/28/4 25/25/4 27/27/4
f 29/29/4 30/30/4 31/31/4
f 32/32/5 30/30/5 29/29/5
f 29/29/4 31/31/4 33/33/4
f 34/34/4 35/35/4 36/36/4
f 37/37/4 34/34/4 36/36/4
f 38/38/4 39/39/4 40/40/4
f 41/41/4 38/38/4 40/40/4
f 42/42/6 43/43/6 44/44/6
f 42/42/6 44/44/6 45/45/6
f 46/46/6 47/47/6 48/48/6
f 49/49/6 46/46/6 48/48/6
