# Blender v3.0.1 OBJ File: 'rockerfeller_plaza.blend'
# www.blender.org
o geometryt000010000010000110010110000110000110100000010100st80
v 784.159424 -120.337685 146.631973
v 770.419250 -145.910980 146.631973
v 779.189941 -117.664482 146.631973
v 764.896057 -144.254578 146.631973
v 769.873962 -146.927689 146.631973
v 770.419250 -145.910980 163.331970
v 779.189941 -117.664482 163.331970
v 764.896057 -144.254578 163.331970
v 784.159424 -120.337685 163.331970
v 769.873962 -146.927689 163.331970
vt 0.206750 0.074790
vt 0.257650 0.046500
vt 0.203460 0.064840
vt 0.256390 0.035400
vt 0.259680 0.045370
vt 0.257650 0.046500
vt 0.203460 0.064840
vt 0.256390 0.035400
vt 0.206750 0.074790
vt 0.259680 0.045370
vn 0.0000 0.0000 -1.0000
vn 0.0000 0.0000 1.0000
s off
f 1/1/1 2/2/1 3/3/1
f 4/4/1 2/2/1 5/5/1
f 3/3/1 2/2/1 4/4/1
f 6/6/2 7/7/2 8/8/2
f 9/9/2 7/7/2 6/6/2
f 6/6/2 8/8/2 10/10/2
