# Blender v3.0.1 OBJ File: 'rockerfeller_plaza.blend'
# www.blender.org
o geometryt000010000010000110010110000110000110100100000000st206
v 399.628052 -61.755211 889.292419
v 393.488129 -73.177528 889.292419
v 393.488129 -73.177528 895.303467
v 399.628052 -61.755211 895.303467
v 393.704651 -73.809547 889.292419
v 398.780151 -76.540428 889.292419
v 398.780151 -76.540428 895.303467
v 393.704651 -73.809547 895.303467
v 403.712708 -44.621922 895.303467
v 403.712708 -44.621922 889.292419
v 396.202637 -58.579403 889.292419
v 396.202637 -58.579403 895.303467
v 396.587830 -59.593380 889.292419
v 399.122131 -60.965141 889.292419
v 399.122131 -60.965141 895.303467
v 396.587830 -59.593380 895.303467
v 399.376221 -76.469398 889.292419
v 400.058838 -75.200478 889.292419
v 400.058838 -75.200478 895.303467
v 399.376221 -76.469398 895.303467
v 401.707214 -72.136147 895.303467
v 400.170410 -74.993065 889.292419
v 403.583527 -68.648438 889.292419
v 400.170410 -74.993065 895.303467
v 403.583527 -68.648438 895.303467
v 403.695007 -68.441032 895.303467
v 403.695007 -68.441032 889.292419
v 405.742920 -64.634254 889.292419
v 405.742920 -64.634254 895.303467
v 405.854523 -64.426849 889.292419
v 406.537109 -63.157921 889.292419
v 406.537109 -63.157921 895.303467
v 405.854523 -64.426849 895.303467
v 406.648621 -62.950512 895.303467
v 406.648621 -62.950512 889.292419
v 407.331329 -61.681591 889.292419
v 407.331329 -61.681591 895.303467
v 407.442810 -61.474182 889.292419
v 409.490723 -57.667400 889.292419
v 409.490723 -57.667400 895.303467
v 407.442810 -61.474182 895.303467
v 409.602325 -57.459991 895.303467
v 409.602325 -57.459991 889.292419
v 413.015442 -51.115372 889.292419
v 413.015442 -51.115372 895.303467
v 413.126923 -50.907963 889.292419
v 413.809631 -49.639042 889.292419
v 413.809631 -49.639042 895.303467
v 413.126923 -50.907963 895.303467
v 413.451233 -49.054623 895.303467
v 413.451233 -49.054623 889.292419
v 404.568115 -44.277580 889.292419
v 404.568115 -44.277580 895.303467
vt 0.000000 0.000000
vt 0.562500 0.000000
vt 0.562500 0.500000
vt 0.000000 0.500000
vt 0.000000 0.000000
vt 0.250000 0.000000
vt 0.250000 0.500000
vt 0.000000 0.500000
vt 0.000000 0.500000
vt 0.000000 0.000000
vt 0.687500 0.000000
vt 0.687500 0.500000
vt 0.000000 0.000000
vt 0.125000 0.000000
vt 0.125000 0.500000
vt 0.000000 0.500000
vt 0.000000 0.000000
vt 0.062500 0.000000
vt 0.062500 0.500000
vt 0.000000 0.500000
vt 0.140720 0.500000
vt 0.000000 0.000000
vt 0.312500 0.000000
vt 0.000000 0.500000
vt 0.312500 0.500000
vt 0.000000 0.500000
vt 0.000000 0.000000
vt 0.187500 0.000000
vt 0.187500 0.500000
vt 0.000000 0.000000
vt 0.062500 0.000000
vt 0.062500 0.500000
vt 0.000000 0.500000
vt 0.000000 0.500000
vt 0.000000 0.000000
vt 0.062500 0.000000
vt 0.062500 0.500000
vt 0.000000 0.000000
vt 0.187500 0.000000
vt 0.187500 0.500000
vt 0.000000 0.500000
vt 0.000000 0.500000
vt 0.000000 0.000000
vt 0.312500 0.000000
vt 0.312500 0.500000
vt 0.000000 0.000000
vt 0.062500 0.000000
vt 0.062500 0.500000
vt 0.000000 0.500000
vt 0.000000 0.500000
vt 0.000000 0.000000
vt 0.437500 0.000000
vt 0.437500 0.500000
vn -0.8808 0.4735 0.0000
vn -0.4738 -0.8806 0.0000
vn -0.8806 0.4738 0.0000
vn -0.4760 -0.8794 0.0000
vn 0.8806 -0.4738 0.0000
vn 0.8807 -0.4737 0.0000
vn 0.8807 -0.4738 0.0000
vn 0.4736 0.8807 0.0000
s off
f 1/1/1 2/2/1 3/3/1
f 4/4/1 1/1/1 3/3/1
f 5/5/2 6/6/2 7/7/2
f 8/8/2 5/5/2 7/7/2
f 9/9/3 10/10/3 11/11/3
f 9/9/3 11/11/3 12/12/3
f 13/13/4 14/14/4 15/15/4
f 16/16/4 13/13/4 15/15/4
f 17/17/5 18/18/5 19/19/5
f 20/20/6 17/17/6 19/19/6
f 21/21/7 22/22/7 23/23/7
f 24/24/6 22/22/6 21/21/6
f 21/21/7 23/23/7 25/25/7
f 26/26/7 27/27/7 28/28/7
f 26/26/7 28/28/7 29/29/7
f 30/30/5 31/31/5 32/32/5
f 33/33/6 30/30/6 32/32/6
f 34/34/5 35/35/5 36/36/5
f 34/34/5 36/36/5 37/37/5
f 38/38/7 39/39/7 40/40/7
f 41/41/7 38/38/7 40/40/7
f 42/42/6 43/43/6 44/44/6
f 42/42/7 44/44/7 45/45/7
f 46/46/5 47/47/5 48/48/5
f 49/49/5 46/46/5 48/48/5
f 50/50/8 51/51/8 52/52/8
f 50/50/8 52/52/8 53/53/8
