# Blender v3.0.1 OBJ File: 'rockerfeller_plaza.blend'
# www.blender.org
o geometryt000010000010000110010110000110000100110010110010st37
v 180.708313 -298.600281 291.398224
v 180.544510 -298.903870 308.719116
v 180.708313 -298.600281 308.719116
v 181.445206 -297.234772 291.398224
v 180.544510 -298.903870 291.019135
v 181.445206 -297.234772 308.719116
v 182.048004 -296.117767 308.719116
v 182.048004 -296.117767 291.398224
v 182.784805 -294.752167 291.398224
v 182.784805 -294.752167 308.719116
v 183.387604 -293.635162 308.719116
v 183.387604 -293.635162 291.398224
v 184.288300 -291.966064 291.019135
v 184.124512 -292.269684 291.398224
v 184.124512 -292.269684 308.719116
v 184.288300 -291.966064 308.719116
v 207.288406 -313.345367 291.398224
v 207.592010 -313.509277 308.719116
v 207.288406 -313.345367 308.719116
v 204.557800 -311.870758 291.398224
v 207.592010 -313.509277 291.019135
v 204.557800 -311.870758 308.719116
v 204.098312 -311.622681 308.719116
v 204.098312 -311.622681 291.398224
v 203.260712 -311.170380 291.019135
v 202.732910 -310.885376 291.398224
v 202.732910 -310.885376 308.719116
v 202.273407 -310.637268 308.719116
v 202.273407 -310.637268 291.398224
v 200.908112 -309.899963 291.398224
v 200.908112 -309.899963 308.719116
v 200.448608 -309.651855 308.719116
v 200.448608 -309.651855 291.398224
v 198.405212 -308.548462 291.019135
v 199.083206 -308.914673 291.398224
v 199.083206 -308.914673 308.719116
v 198.623810 -308.666473 308.719116
v 198.623810 -308.666473 291.398224
v 195.893112 -307.191956 291.398224
v 195.893112 -307.191956 308.719116
v 195.433609 -306.943878 308.719116
v 195.433609 -306.943878 291.398224
v 192.702911 -305.469269 291.398224
v 192.702911 -305.469269 308.719116
v 192.243408 -305.221161 308.719116
v 192.243408 -305.221161 291.398224
v 189.512711 -303.746674 291.398224
v 189.512711 -303.746674 308.719116
v 189.053207 -303.498474 308.719116
v 189.053207 -303.498474 291.398224
v 180.544510 -298.903870 291.019135
v 187.687912 -302.761261 291.398224
v 187.687912 -302.761261 308.719116
v 187.228409 -302.513184 308.719116
v 187.228409 -302.513184 291.398224
v 185.863113 -301.775879 291.398224
v 185.863113 -301.775879 308.719116
v 185.403610 -301.527771 308.719116
v 185.403610 -301.527771 291.398224
v 184.038208 -300.790466 291.398224
v 184.038208 -300.790466 308.719116
v 183.578705 -300.542358 308.719116
v 183.578705 -300.542358 291.398224
v 180.848114 -299.067780 291.398224
v 180.848114 -299.067780 308.719116
v 180.544510 -298.903870 308.719116
v 184.591812 -292.130157 291.398224
v 184.288300 -291.966064 308.719116
v 184.591812 -292.130157 308.719116
v 187.321213 -293.607056 291.398224
v 184.288300 -291.966064 291.019135
v 187.321213 -293.607056 308.719116
v 187.781006 -293.855774 308.719116
v 187.781006 -293.855774 291.398224
v 189.145706 -294.594177 291.398224
v 189.145706 -294.594177 308.719116
v 189.605499 -294.842957 308.719116
v 189.605499 -294.842957 291.398224
v 190.970200 -295.581360 291.398224
v 190.970200 -295.581360 308.719116
v 191.429901 -295.830078 308.719116
v 191.429901 -295.830078 291.398224
v 192.794708 -296.568481 291.398224
v 192.794708 -296.568481 308.719116
v 193.254410 -296.817261 308.719116
v 193.254410 -296.817261 291.398224
v 195.983902 -298.294067 291.398224
v 195.983902 -298.294067 308.719116
v 196.443604 -298.542877 308.719116
v 196.443604 -298.542877 291.398224
v 199.173111 -300.019684 291.398224
v 211.328400 -306.596466 291.019135
v 199.173111 -300.019684 308.719116
v 199.632904 -300.268372 308.719116
v 199.632904 -300.268372 291.398224
v 202.362305 -301.745270 291.398224
v 202.362305 -301.745270 308.719116
v 202.822113 -301.993958 308.719116
v 202.822113 -301.993958 291.398224
v 204.186813 -302.732361 291.398224
v 204.186813 -302.732361 308.719116
v 204.646606 -302.981171 308.719116
v 204.646606 -302.981171 291.398224
v 206.011307 -303.719574 291.398224
v 206.011307 -303.719574 308.719116
v 206.471008 -303.968262 308.719116
v 206.471008 -303.968262 291.398224
v 207.835800 -304.706665 291.398224
v 207.835800 -304.706665 308.719116
v 208.295502 -304.955475 308.719116
v 208.295502 -304.955475 291.398224
v 211.025009 -306.432281 291.398224
v 211.025009 -306.432281 308.719116
v 211.328400 -306.596466 308.719116
v 211.164413 -306.899963 291.398224
v 211.328400 -306.596466 308.719116
v 211.164413 -306.899963 308.719116
v 210.426605 -308.264984 291.398224
v 211.328400 -306.596466 291.019135
v 210.426605 -308.264984 308.719116
v 209.825302 -309.377258 308.719116
v 209.825302 -309.377258 291.398224
v 209.087509 -310.742371 291.398224
v 209.087509 -310.742371 308.719116
v 208.486313 -311.854675 308.719116
v 208.486313 -311.854675 291.398224
v 207.584503 -313.523163 291.019135
v 207.748505 -313.219666 291.398224
v 207.748505 -313.219666 308.719116
v 207.584503 -313.523163 308.719116
vt 4.847930 0.243800
vt 5.069790 11.382640
vt 4.847930 11.382640
vt 3.850060 0.243800
vt 5.069790 0.000000
vt 3.850060 11.382640
vt 3.033830 11.382640
vt 3.033830 0.243800
vt 2.035960 11.382640
vt 1.219730 11.382640
vt 2.035960 0.243800
vt 1.219730 0.243800
vt 0.000000 0.000000
vt 0.221860 0.243800
vt 0.221860 11.382640
vt 0.000000 11.382640
vt 19.545971 0.243800
vt 19.767839 11.382640
vt 19.545971 11.382640
vt 17.550240 0.243800
vt 19.767839 0.000000
vt 17.550240 11.382640
vt 17.214411 11.382640
vt 17.214411 0.243800
vt 16.602249 0.000000
vt 16.216551 0.243800
vt 16.216551 11.382640
vt 15.880720 11.382640
vt 15.880720 0.243800
vt 14.882860 0.243800
vt 14.882860 11.382640
vt 14.547030 11.382640
vt 14.547030 0.243800
vt 13.053600 0.000000
vt 13.549170 11.382640
vt 13.213340 11.382640
vt 13.549170 0.243800
vt 13.213340 0.243800
vt 11.217610 0.243800
vt 11.217610 11.382640
vt 10.881780 11.382640
vt 10.881780 0.243800
vt 8.886051 11.382640
vt 8.550230 11.382640
vt 8.886051 0.243800
vt 8.550230 0.243800
vt 6.554490 0.243800
vt 6.554490 11.382640
vt 6.218670 11.382640
vt 6.218670 0.243800
vt 0.000000 0.000000
vt 5.220800 11.382640
vt 4.884980 11.382640
vt 5.220800 0.243800
vt 4.884980 0.243800
vt 3.887110 11.382640
vt 3.551290 11.382640
vt 3.887110 0.243800
vt 3.551290 0.243800
vt 2.553420 11.382640
vt 2.217600 11.382640
vt 2.553420 0.243800
vt 2.217600 0.243800
vt 0.221860 0.243800
vt 0.221860 11.382640
vt 0.000000 11.382640
vt 19.549431 0.243800
vt 19.771290 11.382640
vt 19.549431 11.382640
vt 17.553699 0.243800
vt 19.771290 0.000000
vt 17.553699 11.382640
vt 17.217529 11.382640
vt 17.217529 0.243800
vt 16.219660 0.243800
vt 16.219660 11.382640
vt 15.883490 11.382640
vt 15.883490 0.243800
vt 14.885620 0.243800
vt 14.885620 11.382640
vt 14.549450 11.382640
vt 14.549450 0.243800
vt 13.551590 0.243800
vt 13.551590 11.382640
vt 13.215420 11.382640
vt 13.215420 0.243800
vt 11.219680 0.243800
vt 11.219680 11.382640
vt 10.883510 11.382640
vt 10.883510 0.243800
vt 8.887781 0.243800
vt 0.000000 0.000000
vt 8.887781 11.382640
vt 8.551610 11.382640
vt 8.551610 0.243800
vt 6.555880 11.382640
vt 6.219710 11.382640
vt 6.555880 0.243800
vt 6.219710 0.243800
vt 5.221840 0.243800
vt 5.221840 11.382640
vt 4.885670 11.382640
vt 4.885670 0.243800
vt 3.887800 0.243800
vt 3.887800 11.382640
vt 3.551630 11.382640
vt 3.551630 0.243800
vt 2.553770 0.243800
vt 2.553770 11.382640
vt 2.217600 11.382640
vt 2.217600 0.243800
vt 0.221860 0.243800
vt 0.221860 11.382640
vt 0.000000 11.382640
vt 4.841690 0.243800
vt 5.063550 11.382640
vt 4.841690 11.382640
vt 3.843820 0.243800
vt 5.063550 0.000000
vt 3.843820 11.382640
vt 3.030710 11.382640
vt 3.030710 0.243800
vt 2.032840 0.243800
vt 2.032840 11.382640
vt 1.219730 11.382640
vt 1.219730 0.243800
vt 0.000000 0.000000
vt 0.221860 0.243800
vt 0.221860 11.382640
vt 0.000000 11.382640
vn -0.8801 0.4749 0.0000
vn -0.8801 0.4748 0.0000
vn -0.8800 0.4749 0.0000
vn -0.8800 0.4749 0.0002
vn -0.8800 0.4749 0.0001
vn -0.8800 0.4751 0.0000
vn -0.8800 0.4750 0.0000
vn -0.4754 -0.8798 -0.0000
vn -0.4752 -0.8799 -0.0002
vn -0.4751 -0.8799 0.0000
vn -0.4752 -0.8799 0.0000
vn -0.4751 -0.8799 0.0001
vn -0.4753 -0.8798 -0.0003
vn -0.4752 -0.8799 -0.0001
vn -0.4751 -0.8799 0.0003
vn -0.4752 -0.8799 0.0001
vn -0.4750 -0.8800 -0.0000
vn -0.4753 -0.8798 0.0000
vn -0.4750 -0.8800 -0.0002
vn -0.4751 -0.8799 0.0002
vn -0.4753 -0.8799 0.0000
vn -0.4751 -0.8799 -0.0003
vn -0.4752 -0.8799 0.0002
vn -0.4755 -0.8797 0.0000
vn 0.4760 0.8794 -0.0000
vn 0.4759 0.8795 -0.0004
vn 0.4756 0.8797 0.0000
vn 0.4758 0.8796 0.0000
vn 0.4758 0.8795 0.0003
vn 0.4759 0.8795 0.0000
vn 0.4761 0.8794 0.0007
vn 0.4757 0.8796 -0.0004
vn 0.4758 0.8795 0.0000
vn 0.4757 0.8796 -0.0006
vn 0.4760 0.8794 -0.0005
vn 0.4757 0.8796 -0.0000
vn 0.4760 0.8795 0.0000
vn 0.4760 0.8794 -0.0008
vn 0.4759 0.8795 0.0002
vn 0.4760 0.8794 -0.0001
vn 0.4759 0.8795 -0.0001
vn 0.8798 -0.4753 0.0000
vn 0.8797 -0.4755 -0.0001
vn 0.8798 -0.4754 0.0000
vn 0.8797 -0.4756 0.0000
vn 0.8797 -0.4755 0.0000
vn 0.8797 -0.4755 0.0004
vn 0.8798 -0.4754 -0.0001
vn 0.8797 -0.4755 0.0001
vn -0.8800 0.4750 -0.0001
vn -0.4752 -0.8799 -0.0007
vn -0.4752 -0.8799 -0.0004
vn -0.4748 -0.8801 0.0018
vn -0.4748 -0.8801 0.0019
vn -0.4738 -0.8806 0.0000
vn -0.4751 -0.8799 -0.0002
vn -0.4738 -0.8807 -0.0000
vn -0.4759 -0.8795 -0.0006
vn -0.4749 -0.8801 -0.0001
vn -0.4754 -0.8798 -0.0005
vn -0.4754 -0.8798 0.0003
vn 0.4759 0.8795 -0.0006
vn 0.4766 0.8791 -0.0006
vn 0.4756 0.8797 0.0012
vn 0.4757 0.8796 0.0025
vn 0.4758 0.8795 0.0001
vn 0.4758 0.8795 -0.0007
vn 0.4758 0.8796 0.0018
vn 0.4755 0.8797 -0.0006
vn 0.4757 0.8796 -0.0013
vn 0.4756 0.8797 0.0013
s off
f 1/1/1 2/2/1 3/3/1
f 4/4/1 5/5/1 1/1/1
f 2/2/2 1/1/2 5/5/2
f 6/6/3 7/7/3 4/4/3
f 7/7/3 8/8/3 4/4/3
f 8/8/3 5/5/3 4/4/3
f 10/9/3 11/10/3 9/11/3
f 11/10/3 12/12/3 9/11/3
f 12/12/1 13/13/1 9/11/1
f 9/11/4 13/13/4 5/5/4
f 14/14/5 13/13/5 12/12/5
f 15/15/6 16/16/6 14/14/6
f 16/16/7 13/13/7 14/14/7
f 17/17/8 18/18/8 19/19/8
f 20/20/9 21/21/9 17/17/9
f 18/18/8 17/17/8 21/21/8
f 22/22/10 23/23/10 20/20/10
f 23/23/10 24/24/10 20/20/10
f 20/20/11 24/24/11 25/25/11
f 20/20/12 25/25/12 21/21/12
f 24/24/12 26/26/12 25/25/12
f 27/27/10 28/28/10 26/26/10
f 28/28/10 29/29/10 26/26/10
f 25/25/13 26/26/13 29/29/13
f 25/25/14 29/29/14 30/30/14
f 31/31/10 32/32/10 30/30/10
f 32/32/10 33/33/10 30/30/10
f 30/30/15 33/33/15 34/34/15
f 25/25/16 30/30/16 34/34/16
f 36/35/17 37/36/17 35/37/17
f 37/36/18 38/38/18 35/37/18
f 35/37/19 38/38/19 34/34/19
f 38/38/20 39/39/20 34/34/20
f 40/40/10 41/41/10 39/39/10
f 41/41/10 42/42/10 39/39/10
f 44/43/10 45/44/10 43/45/10
f 45/44/10 46/46/10 43/45/10
f 46/46/14 47/47/14 34/34/14
f 48/48/21 49/49/21 47/47/21
f 49/49/17 50/50/17 47/47/17
f 47/47/22 51/51/22 34/34/22
f 53/52/10 54/53/10 52/54/10
f 54/53/10 55/55/10 52/54/10
f 57/56/10 58/57/10 56/58/10
f 58/57/10 59/59/10 56/58/10
f 61/60/10 62/61/10 60/62/10
f 62/61/10 63/63/10 60/62/10
f 64/64/23 51/51/23 63/63/23
f 65/65/10 66/66/10 64/64/10
f 66/66/24 51/51/24 64/64/24
f 67/67/25 68/68/25 69/69/25
f 70/70/26 71/71/26 67/67/26
f 68/68/27 67/67/27 71/71/27
f 72/72/28 73/73/28 70/70/28
f 73/73/28 74/74/28 70/70/28
f 74/74/29 75/75/29 71/71/29
f 76/76/30 77/77/30 75/75/30
f 77/77/30 78/78/30 75/75/30
f 75/75/31 78/78/31 71/71/31
f 78/78/32 79/79/32 71/71/32
f 80/80/30 81/81/30 79/79/30
f 81/81/33 82/82/33 79/79/33
f 79/79/34 82/82/34 71/71/34
f 82/82/35 83/83/35 71/71/35
f 84/84/36 85/85/36 83/83/36
f 85/85/37 86/86/37 83/83/37
f 86/86/33 87/87/33 71/71/33
f 88/88/25 89/89/25 87/87/25
f 89/89/37 90/90/37 87/87/37
f 91/91/38 92/92/38 90/90/38
f 90/90/39 92/92/39 71/71/39
f 93/93/36 94/94/36 91/91/36
f 94/94/36 95/95/36 91/91/36
f 97/96/36 98/97/36 96/98/36
f 98/97/36 99/99/36 96/98/36
f 100/100/25 92/92/25 99/99/25
f 101/101/30 102/102/30 100/100/30
f 102/102/30 103/103/30 100/100/30
f 104/104/36 92/92/36 103/103/36
f 105/105/33 106/106/33 104/104/33
f 106/106/28 107/107/28 104/104/28
f 108/108/40 92/92/40 107/107/40
f 109/109/25 110/110/25 108/108/25
f 110/110/37 111/111/37 108/108/37
f 112/112/41 92/92/41 111/111/41
f 113/113/37 114/114/37 112/112/37
f 114/114/30 92/92/30 112/112/30
f 115/115/42 116/116/42 117/117/42
f 118/118/43 119/119/43 115/115/43
f 116/116/44 115/115/44 119/119/44
f 120/120/45 121/121/45 118/118/45
f 121/121/46 122/122/46 118/118/46
f 122/122/47 119/119/47 118/118/47
f 122/122/48 123/123/48 119/119/48
f 124/124/46 125/125/46 123/123/46
f 125/125/46 126/126/46 123/123/46
f 126/126/46 127/127/46 123/123/46
f 123/123/49 127/127/49 119/119/49
f 128/128/46 127/127/46 126/126/46
f 129/129/44 130/130/44 128/128/44
f 130/130/44 127/127/44 128/128/44
s 1
f 8/8/50 9/11/50 5/5/50
f 33/33/16 35/37/16 34/34/16
f 39/39/51 42/42/52 34/34/14
f 42/42/52 43/45/53 34/34/14
f 43/45/53 46/46/54 34/34/14
f 50/50/55 51/51/56 47/47/57
f 52/54/52 51/51/56 50/50/55
f 55/55/58 51/51/56 52/54/52
f 56/58/59 51/51/56 55/55/58
f 59/59/60 51/51/56 56/58/59
f 60/62/17 51/51/56 59/59/60
f 63/63/61 51/51/56 60/62/17
f 74/74/62 71/71/62 70/70/62
f 83/83/63 86/86/63 71/71/63
f 87/87/64 90/90/64 71/71/64
f 95/95/65 92/92/66 91/91/65
f 96/98/67 92/92/66 95/95/65
f 99/99/68 92/92/66 96/98/67
f 103/103/69 92/92/69 100/100/69
f 107/107/70 92/92/70 104/104/70
f 111/111/71 92/92/71 108/108/71
