# Blender v3.0.1 OBJ File: 'rockerfeller_plaza.blend'
# www.blender.org
o geometryt000010000010000110010110000110000110100000110100st31
v 977.797668 -126.046906 700.061218
v 978.100647 -126.211807 789.508301
v 977.797668 -126.046906 789.508301
v 973.591309 -123.757912 700.061218
v 978.100647 -126.211807 699.508301
v 973.591309 -123.757912 789.508301
v 972.680176 -123.262009 789.508301
v 972.680176 -123.262009 700.061218
v 971.278076 -122.499008 700.061218
v 965.857544 -119.549210 699.508301
v 971.278076 -122.499008 789.508301
v 970.366821 -122.003105 789.508301
v 970.366821 -122.003105 700.061218
v 966.160522 -119.714111 700.061218
v 966.160522 -119.714111 789.508301
v 965.857544 -119.549210 789.508301
v 966.022217 -119.246010 700.061218
v 965.857544 -119.549210 789.508301
v 966.022217 -119.246010 789.508301
v 968.307861 -115.037910 700.061218
v 965.857544 -119.549210 699.508301
v 968.307861 -115.037910 789.508301
v 968.703369 -114.309608 789.508301
v 968.703369 -114.309608 700.061218
v 970.988953 -110.101608 700.061218
v 970.988953 -110.101608 789.508301
v 971.384460 -109.373306 789.508301
v 971.384460 -109.373306 700.061218
v 972.146362 -107.970612 700.061218
v 972.146362 -107.970612 789.508301
v 972.541931 -107.242409 789.508301
v 972.541931 -107.242409 700.061218
v 974.065674 -104.437012 700.061218
v 974.065674 -104.437012 789.508301
v 974.461182 -103.708710 789.508301
v 974.461182 -103.708710 700.061218
v 980.749939 -92.130165 699.508301
v 975.223022 -102.306007 700.061218
v 975.223022 -102.306007 789.508301
v 975.618530 -101.577812 789.508301
v 975.618530 -101.577812 700.061218
v 977.904175 -97.369675 700.061218
v 977.904175 -97.369675 789.508301
v 978.299744 -96.641418 789.508301
v 978.299744 -96.641418 700.061218
v 980.585327 -92.433342 700.061218
v 980.585327 -92.433342 789.508301
v 980.749939 -92.130165 789.508301
v 978.100647 -126.211807 699.508301
v 978.678955 -125.128105 699.508301
v 978.678955 -125.128105 789.508301
v 978.100647 -126.211807 789.508301
v 979.945923 -125.802505 700.061218
v 980.250549 -125.964607 789.508301
v 979.945923 -125.802505 789.508301
v 978.678955 -125.128105 699.508301
v 978.983459 -125.290207 700.061218
v 980.250549 -125.964607 699.508301
v 978.983459 -125.290207 789.508301
v 978.678955 -125.128105 789.508301
v 980.836243 -124.819809 700.061218
v 980.993347 -124.512611 789.508301
v 980.836243 -124.819809 789.508301
v 980.407654 -125.657509 700.061218
v 980.993347 -124.512611 699.508301
v 980.407654 -125.657509 789.508301
v 980.250549 -125.964607 789.508301
v 980.250549 -125.964607 699.508301
v 981.053650 -92.293991 700.061218
v 980.749939 -92.130165 789.508301
v 981.053650 -92.293991 789.508301
v 985.268066 -94.567772 700.061218
v 980.749939 -92.130165 699.508301
v 985.268066 -94.567772 789.508301
v 986.243774 -95.094139 789.508301
v 986.243774 -95.094139 700.061218
v 989.053345 -96.610001 700.061218
v 994.547058 -99.573959 699.508301
v 989.053345 -96.610001 789.508301
v 990.028931 -97.136368 789.508301
v 990.028931 -97.136368 700.061218
v 994.243408 -99.410149 700.061218
v 994.243408 -99.410149 789.508301
v 994.547058 -99.573959 789.508301
v 980.993347 -124.512611 699.508301
v 981.745239 -123.116112 699.508301
v 981.745239 -123.116112 789.508301
v 980.993347 -124.512611 789.508301
v 990.862732 -106.358109 700.061218
v 991.027466 -106.055008 789.508301
v 990.862732 -106.358109 789.508301
v 988.576965 -110.566109 700.061218
v 988.654663 -110.423111 699.508301
v 991.027466 -106.055008 699.508301
v 988.576965 -110.566109 789.508301
v 988.055847 -111.525307 789.508301
v 988.055847 -111.525307 700.061218
v 987.293945 -112.928009 700.061218
v 987.293945 -112.928009 789.508301
v 986.772827 -113.887207 789.508301
v 986.772827 -113.887207 700.061218
v 986.010925 -115.289810 700.061218
v 984.792664 -117.532608 699.508301
v 986.010925 -115.289810 789.508301
v 985.489868 -116.249107 789.508301
v 985.489868 -116.249107 700.061218
v 984.727966 -117.651711 700.061218
v 984.727966 -117.651711 789.508301
v 984.206848 -118.611008 789.508301
v 984.206848 -118.611008 700.061218
v 983.274536 -120.327309 699.508301
v 981.921021 -122.818909 700.061218
v 984.040161 -118.917809 699.508301
v 981.921021 -122.818909 789.508301
v 981.756348 -123.122108 789.508301
v 981.756348 -123.122108 699.508301
v 982.515442 -121.724709 699.508301
v 994.383911 -99.877937 700.061218
v 994.548645 -99.574821 789.508301
v 994.383911 -99.877937 789.508301
v 993.621582 -101.280411 700.061218
v 994.548645 -99.574821 699.508301
v 993.621582 -101.280411 789.508301
v 993.168762 -102.113411 789.508301
v 993.168762 -102.113411 700.061218
v 992.938660 -102.536606 699.508301
v 992.406372 -103.515808 700.061218
v 992.406372 -103.515808 789.508301
v 991.953552 -104.348907 789.508301
v 991.953552 -104.348907 700.061218
v 991.191284 -105.751312 700.061218
v 991.026428 -106.054405 699.508301
v 991.191284 -105.751312 789.508301
v 991.026428 -106.054405 789.508301
vt 15.917530 0.647420
vt 16.321510 105.386398
vt 15.917530 105.386398
vt 10.310130 0.647420
vt 16.321510 0.000000
vt 10.310130 105.386398
vt 9.095320 105.386398
vt 9.095320 0.647420
vt 7.226190 0.647420
vt 0.000000 0.000000
vt 7.226190 105.386398
vt 6.011380 105.386398
vt 6.011380 0.647420
vt 0.403980 0.647420
vt 0.403980 105.386398
vt 0.000000 105.386398
vt 36.132702 0.647420
vt 36.536678 105.386398
vt 36.132702 105.386398
vt 30.525299 0.647420
vt 36.536678 0.000000
vt 30.525299 105.386398
vt 29.554871 105.386398
vt 29.554871 0.647420
vt 23.947470 0.647420
vt 23.947470 105.386398
vt 22.977039 105.386398
vt 22.977039 0.647420
vt 21.107901 105.386398
vt 20.137470 105.386398
vt 21.107901 0.647420
vt 20.137470 0.647420
vt 16.399210 0.647420
vt 16.399210 105.386398
vt 15.428780 105.386398
vt 15.428780 0.647420
vt 0.000000 0.000000
vt 13.559640 0.647420
vt 13.559640 105.386398
vt 12.589210 105.386398
vt 12.589210 0.647420
vt 6.981810 0.647420
vt 0.403980 0.647420
vt 6.011380 0.647420
vt 0.403980 105.386398
vt 0.000000 105.386398
vt 0.000000 0.000000
vt 1.438320 0.000000
vt 1.438320 105.386398
vt 0.000000 105.386398
vt 1.680730 0.647420
vt 2.084710 105.386398
vt 1.680730 105.386398
vt 0.000000 0.000000
vt 0.403980 0.647420
vt 2.084710 0.000000
vt 0.403980 105.386398
vt 0.000000 105.386398
vt 0.403980 0.647420
vt 1.909790 0.000000
vt 1.505810 0.647420
vt 1.909790 105.386398
vt 0.403980 105.386398
vt 0.000000 105.386398
vt 0.000000 0.000000
vt 17.953239 0.647420
vt 18.357220 105.386398
vt 17.953239 105.386398
vt 12.345840 0.647420
vt 18.357220 0.000000
vt 12.345840 105.386398
vt 11.047740 105.386398
vt 11.047740 0.647420
vt 7.309480 0.647420
vt 0.000000 0.000000
vt 7.309480 105.386398
vt 6.011380 105.386398
vt 6.011380 0.647420
vt 0.403980 0.647420
vt 0.403980 105.386398
vt 0.000000 105.386398
vt 0.000000 0.000000
vt 1.857290 0.000000
vt 1.857290 105.386398
vt 0.000000 105.386398
vt 22.339180 0.647420
vt 22.743160 105.386398
vt 22.339180 105.386398
vt 16.731779 0.647420
vt 16.922260 0.000000
vt 22.743160 0.000000
vt 16.731779 105.386398
vt 15.453530 105.386398
vt 15.453530 0.647420
vt 13.584390 0.647420
vt 13.584390 105.386398
vt 12.306150 105.386398
vt 12.306150 0.647420
vt 10.437010 0.647420
vt 7.448380 0.000000
vt 10.437010 105.386398
vt 9.158761 105.386398
vt 9.158761 0.647420
vt 7.289630 0.647420
vt 7.289630 105.386398
vt 6.011380 105.386398
vt 6.011380 0.647420
vt 3.724190 0.000000
vt 0.403980 0.647420
vt 5.602460 0.000000
vt 0.403980 105.386398
vt 0.000000 105.386398
vt 0.000000 0.000000
vt 1.862100 0.000000
vt 8.231901 0.647420
vt 8.635881 105.386398
vt 8.231901 105.386398
vt 6.362760 0.647420
vt 8.635881 0.000000
vt 6.362760 105.386398
vt 5.252510 105.386398
vt 5.252510 0.647420
vt 4.688430 0.000000
vt 3.383370 0.647420
vt 3.383370 105.386398
vt 2.273110 105.386398
vt 2.273110 0.647420
vt 0.403980 0.647420
vt 0.000000 0.000000
vt 0.403980 105.386398
vt 0.000000 105.386398
vt 6.981810 105.386398
vt 6.011380 105.386398
vt 1.505810 105.386398
vn -0.4781 -0.8783 0.0000
vn -0.4779 -0.8784 0.0001
vn -0.4780 -0.8783 0.0000
vn -0.4783 -0.8782 -0.0009
vn -0.4776 -0.8786 0.0000
vn -0.4780 -0.8784 0.0000
vn -0.4783 -0.8782 0.0002
vn -0.4779 -0.8784 -0.0001
vn -0.4779 -0.8784 0.0000
vn -0.8789 0.4770 0.0000
vn -0.8787 0.4773 -0.0000
vn -0.8787 0.4774 0.0000
vn -0.8788 0.4772 0.0000
vn -0.8788 0.4772 -0.0001
vn -0.8788 0.4773 0.0000
vn -0.8789 0.4769 -0.0001
vn -0.8787 0.4773 0.0001
vn -0.8788 0.4773 -0.0003
vn -0.8790 0.4768 0.0000
vn -0.8787 0.4774 0.0001
vn -0.8788 0.4773 0.0001
vn 0.8822 -0.4709 0.0000
vn 0.8822 -0.4708 0.0000
vn -0.4697 -0.8828 0.0000
vn -0.4699 -0.8827 -0.0001
vn -0.4699 -0.8827 0.0000
vn -0.4701 -0.8826 0.0000
vn 0.8903 -0.4554 0.0002
vn 0.8905 -0.4551 0.0000
vn 0.8903 -0.4553 0.0000
vn 0.8902 -0.4556 0.0000
vn 0.8902 -0.4555 0.0000
vn 0.4747 0.8802 0.0000
vn 0.4748 0.8801 -0.0001
vn 0.4748 0.8801 0.0000
vn 0.4745 0.8803 0.0004
vn 0.4747 0.8801 0.0002
vn 0.4749 0.8801 -0.0001
vn 0.4748 0.8801 0.0002
vn 0.4747 0.8801 0.0000
vn 0.4746 0.8802 0.0000
vn 0.4750 0.8800 0.0000
vn 0.8805 -0.4741 0.0000
vn 0.8786 -0.4775 0.0000
vn 0.8787 -0.4774 0.0000
vn 0.8788 -0.4773 0.0001
vn 0.8787 -0.4773 0.0000
vn 0.8787 -0.4773 0.0002
vn 0.8786 -0.4775 -0.0003
vn 0.8787 -0.4774 0.0001
vn 0.8788 -0.4772 0.0000
vn 0.8787 -0.4774 -0.0001
vn 0.8788 -0.4773 -0.0000
vn 0.8787 -0.4773 -0.0001
vn 0.8788 -0.4772 -0.0001
vn 0.8789 -0.4770 0.0000
vn 0.8787 -0.4773 0.0001
vn 0.8788 -0.4772 0.0001
vn 0.8786 -0.4776 -0.0001
vn 0.8785 -0.4777 0.0000
vn 0.8786 -0.4776 0.0000
vn 0.8786 -0.4776 0.0002
vn 0.8786 -0.4775 -0.0001
vn 0.8785 -0.4777 -0.0001
vn 0.8786 -0.4776 -0.0002
vn -0.8785 0.4777 -0.0001
vn -0.8786 0.4775 -0.0005
vn -0.8786 0.4775 0.0004
vn -0.8786 0.4775 -0.0001
vn -0.8787 0.4774 -0.0003
vn -0.8787 0.4774 -0.0002
vn -0.8788 0.4772 -0.0005
vn -0.8788 0.4772 -0.0008
vn 0.8900 -0.4560 -0.0000
s off
f 1/1/1 2/2/1 3/3/1
f 4/4/2 5/5/2 1/1/2
f 2/2/3 1/1/3 5/5/3
f 6/6/1 7/7/1 4/4/1
f 7/7/3 8/8/3 4/4/3
f 8/8/4 5/5/4 4/4/4
f 9/9/5 10/10/5 8/8/5
f 8/8/1 10/10/1 5/5/1
f 11/11/6 12/12/6 9/9/6
f 12/12/3 13/13/3 9/9/3
f 13/13/7 10/10/7 9/9/7
f 14/14/8 10/10/8 13/13/8
f 15/15/9 16/16/9 14/14/9
f 16/16/1 10/10/1 14/14/1
f 17/17/10 18/18/10 19/19/10
f 20/20/11 21/21/11 17/17/11
f 18/18/12 17/17/12 21/21/12
f 22/22/13 23/23/13 20/20/13
f 23/23/13 24/24/13 20/20/13
f 24/24/14 25/25/14 21/21/14
f 26/26/13 27/27/13 25/25/13
f 27/27/13 28/28/13 25/25/13
f 30/29/15 31/30/15 29/31/15
f 31/30/12 32/32/12 29/31/12
f 32/32/16 33/33/16 21/21/16
f 34/34/13 35/35/13 33/33/13
f 35/35/13 36/36/13 33/33/13
f 33/33/17 37/37/17 21/21/17
f 38/38/18 37/37/18 36/36/18
f 39/39/15 40/40/15 38/38/15
f 40/40/12 41/41/12 38/38/12
f 41/41/19 37/37/19 38/38/19
f 42/42/20 37/37/20 41/41/20
f 46/43/21 37/37/21 45/44/21
f 47/45/10 48/46/10 46/43/10
f 48/46/11 37/37/11 46/43/11
f 49/47/22 50/48/22 51/49/22
f 49/47/23 51/49/23 52/50/23
f 53/51/24 54/52/24 55/53/24
f 56/54/25 53/51/25 57/55/25
f 54/52/26 53/51/26 58/56/26
f 59/57/26 60/58/26 57/55/26
f 60/58/27 56/54/27 57/55/27
f 64/59/28 65/60/28 61/61/28
f 62/62/29 61/61/29 65/60/29
f 66/63/30 67/64/30 64/59/30
f 67/64/31 68/65/31 64/59/31
f 68/65/32 65/60/32 64/59/32
f 69/66/33 70/67/33 71/68/33
f 72/69/34 73/70/34 69/66/34
f 70/67/33 69/66/33 73/70/33
f 74/71/35 75/72/35 72/69/35
f 75/72/35 76/73/35 72/69/35
f 76/73/36 73/70/36 72/69/36
f 77/74/37 78/75/37 76/73/37
f 76/73/38 78/75/38 73/70/38
f 79/76/35 80/77/35 77/74/35
f 80/77/35 81/78/35 77/74/35
f 81/78/39 78/75/39 77/74/39
f 82/79/40 78/75/40 81/78/40
f 83/80/41 84/81/41 82/79/41
f 84/81/42 78/75/42 82/79/42
f 85/82/43 86/83/43 87/84/43
f 85/82/43 87/84/43 88/85/43
f 89/86/44 90/87/44 91/88/44
f 92/89/45 93/90/45 89/86/45
f 93/90/46 94/91/46 89/86/46
f 90/87/47 89/86/47 94/91/47
f 95/92/44 96/93/44 92/89/44
f 96/93/45 97/94/45 92/89/45
f 92/89/44 97/94/44 93/90/44
f 93/90/48 97/94/48 98/95/48
f 99/96/45 100/97/45 98/95/45
f 100/97/45 101/98/45 98/95/45
f 101/98/49 93/90/49 98/95/49
f 102/99/50 103/100/50 101/98/50
f 101/98/46 103/100/46 93/90/46
f 104/101/47 105/102/47 102/99/47
f 105/102/51 106/103/51 102/99/51
f 102/99/52 106/103/52 103/100/52
f 106/103/53 107/104/53 103/100/53
f 108/105/45 109/106/45 107/104/45
f 109/106/47 110/107/47 107/104/47
f 107/104/44 110/107/44 103/100/44
f 111/108/47 110/107/47 112/109/47
f 111/108/54 113/110/54 110/107/54
f 110/107/55 113/110/55 103/100/55
f 114/111/56 115/112/56 112/109/56
f 115/112/44 116/113/44 112/109/44
f 112/109/57 116/113/57 117/114/57
f 111/108/58 112/109/58 117/114/58
f 118/115/44 119/116/44 120/117/44
f 121/118/59 122/119/59 118/115/59
f 119/116/51 118/115/51 122/119/51
f 123/120/60 124/121/60 121/118/60
f 124/121/61 125/122/61 121/118/61
f 125/122/62 126/123/62 121/118/62
f 121/118/63 126/123/63 122/119/63
f 125/122/64 127/124/64 126/123/64
f 128/125/44 129/126/44 127/124/44
f 129/126/44 130/127/44 127/124/44
f 127/124/65 130/127/65 126/123/65
f 131/128/65 132/129/65 130/127/65
f 130/127/59 132/129/59 126/123/59
f 133/130/61 134/131/61 131/128/61
f 134/131/61 132/129/61 131/128/61
s 1
f 24/24/66 21/21/66 20/20/66
f 25/25/67 28/28/68 21/21/69
f 28/28/68 29/31/70 21/21/69
f 29/31/70 32/32/71 21/21/69
f 36/36/67 37/37/67 33/33/67
f 43/132/12 44/133/12 42/42/13
f 44/133/12 45/44/72 42/42/13
f 45/44/72 37/37/73 42/42/13
f 56/54/26 58/56/26 53/51/26
f 61/61/74 62/62/74 63/134/74
