# Blender v3.0.1 OBJ File: 'rockerfeller_plaza.blend'
# www.blender.org
o geometryt000010000010000110010110000110000100110110010010st103
v 70.532455 -87.940712 841.397583
v 64.946762 -98.430298 841.397583
v 64.042458 -84.474159 841.397583
v 46.657219 -117.115883 841.397583
v 53.155682 -120.582382 841.397583
v 64.946762 -98.430298 858.097595
v 64.042458 -84.474159 858.097595
v 46.657219 -117.115883 858.097595
v 70.532455 -87.940712 858.097595
v 53.155682 -120.582382 858.097595
vt 0.140620 0.120870
vt 0.161480 0.109370
vt 0.136380 0.107870
vt 0.201300 0.072070
vt 0.205540 0.085090
vt 0.161480 0.109370
vt 0.136380 0.107870
vt 0.201300 0.072070
vt 0.140620 0.120870
vt 0.205540 0.085090
vn 0.0000 0.0000 -1.0000
vn 0.0000 0.0000 1.0000
s off
f 1/1/1 2/2/1 3/3/1
f 4/4/1 2/2/1 5/5/1
f 3/3/1 2/2/1 4/4/1
f 6/6/2 7/7/2 8/8/2
f 9/9/2 7/7/2 6/6/2
f 6/6/2 8/8/2 10/10/2
