# Blender v3.0.1 OBJ File: 'rockerfeller_plaza.blend'
# www.blender.org
o geometryt000010000010000110010110000110000110100100000010st128_
v 768.095276 -150.207672 1145.450684
v 768.095276 -150.207672 1135.450684
v 768.396179 -151.007980 1135.450684
v 768.396179 -151.007980 1160.450684
v 768.095276 -150.207672 1160.450684
v 773.579590 -164.794281 1135.450684
v 773.880493 -165.594574 1135.450684
v 773.880493 -165.594574 1145.450684
v 773.579590 -164.794281 1160.450684
v 773.880493 -165.594574 1160.450684
v 768.513977 -149.411072 1160.450684
v 768.513977 -149.411072 1145.450684
v 768.095276 -150.207672 1145.450684
v 768.095276 -150.207672 1160.450684
v 775.024780 -137.026276 1160.450684
v 775.024780 -137.026276 1145.450684
v 774.606079 -137.822876 1145.450684
v 774.606079 -137.822876 1160.450684
v 773.880493 -165.594574 1160.450684
v 773.880493 -165.594574 1145.450684
v 774.340698 -165.834976 1145.450684
v 774.340698 -165.834976 1160.450684
v 788.845825 -173.412170 1160.450684
v 788.845825 -173.412170 1145.450684
v 789.305969 -173.652573 1145.450684
v 789.305969 -173.652573 1160.450684
v 775.900085 -136.808975 1135.450684
v 775.024780 -137.026276 1135.450684
v 775.024780 -137.026276 1145.450684
v 775.900085 -136.808975 1160.450684
v 775.024780 -137.026276 1160.450684
v 791.069824 -133.042175 1145.450684
v 791.069824 -133.042175 1135.450684
v 790.194458 -133.259583 1135.450684
v 790.194458 -133.259583 1160.450684
v 791.069824 -133.042175 1160.450684
v 789.305969 -173.652573 1145.450684
v 789.305969 -173.652573 1135.450684
v 789.321899 -173.648682 1135.450684
v 790.232422 -173.424683 1135.450684
v 790.232422 -173.424683 1160.450684
v 789.305969 -173.652573 1160.450684
v 804.534485 -169.906281 1135.450684
v 805.460876 -169.678375 1135.450684
v 805.460876 -169.678375 1145.450684
v 804.534485 -169.906281 1160.450684
v 805.460876 -169.678375 1160.450684
v 791.490967 -133.262177 1160.450684
v 791.490967 -133.262177 1145.450684
v 791.069824 -133.042175 1145.450684
v 791.069824 -133.042175 1160.450684
v 806.418823 -141.056671 1160.450684
v 806.418823 -141.056671 1145.450684
v 805.997559 -140.836777 1145.450684
v 805.997559 -140.836777 1160.450684
v 805.460876 -169.678375 1135.450684
v 805.593079 -169.432571 1145.450684
v 805.513794 -169.580078 1145.450684
v 805.593079 -169.432571 1160.450684
v 805.460876 -169.678375 1145.450684
v 805.460876 -169.678375 1160.450684
v 805.593079 -169.432571 1160.450684
v 805.593079 -169.432571 1145.450684
v 805.944824 -168.763885 1145.450684
v 805.944824 -168.763885 1160.450684
v 812.038879 -157.176682 1160.450684
v 812.038879 -157.176682 1145.450684
v 812.390625 -156.507980 1145.450684
v 812.390625 -156.507980 1160.450684
v 806.749878 -141.913284 1135.450684
v 806.418823 -141.056671 1135.450684
v 806.418823 -141.056671 1145.450684
v 806.749878 -141.913284 1160.450684
v 806.418823 -141.056671 1160.450684
v 812.390625 -156.507980 1145.450684
v 812.390625 -156.507980 1135.450684
v 812.059448 -155.651382 1135.450684
v 812.059448 -155.651382 1160.450684
v 812.390625 -156.507980 1160.450684
vt 0.000000 8.688100
vt 0.000000 0.000000
vt 0.742840 0.000000
vt 0.742840 21.720240
vt 0.000000 21.720240
vt 13.539110 0.000000
vt 14.281950 0.000000
vt 14.281950 8.688100
vt 13.539110 21.720240
vt 14.281950 21.720240
vt 12.156360 13.032150
vt 12.156360 0.000000
vt 12.938250 0.000000
vt 12.938250 13.032150
vt 0.000000 13.032150
vt 0.000000 0.000000
vt 0.781900 0.000000
vt 0.781900 13.032150
vt 0.000000 13.032150
vt 0.000000 0.000000
vt 0.451110 0.000000
vt 0.451110 13.032150
vt 14.669180 13.032150
vt 14.669180 0.000000
vt 15.120290 0.000000
vt 15.120290 13.032150
vt 13.579790 0.000000
vt 14.363300 0.000000
vt 14.363300 8.688100
vt 13.579790 21.720240
vt 14.363300 21.720240
vt 0.000000 8.688100
vt 0.000000 0.000000
vt 0.783520 0.000000
vt 0.783520 21.720240
vt 0.000000 21.720240
vt 0.828860 0.000000
vt 0.000000 8.688100
vt 0.014180 0.000000
vt 0.828860 21.720240
vt 0.000000 21.720240
vt 13.625130 0.000000
vt 14.453990 0.000000
vt 14.453990 8.688100
vt 13.625130 21.720240
vt 14.453990 21.720240
vt 14.630950 13.032150
vt 14.630950 0.000000
vt 15.043830 0.000000
vt 15.043830 13.032150
vt 0.000000 13.032150
vt 0.000000 0.000000
vt 0.412880 0.000000
vt 0.412880 13.032150
vt 0.000000 0.000000
vt 0.242480 8.688100
vt 0.096990 8.688100
vt 0.242480 21.720240
vt 0.000000 8.688100
vt 0.000000 21.720240
vt 0.000000 13.032150
vt 0.000000 0.000000
vt 0.656420 0.000000
vt 0.656420 13.032150
vt 12.030880 13.032150
vt 12.030880 0.000000
vt 12.687310 0.000000
vt 12.687310 13.032150
vt 13.594120 0.000000
vt 14.391980 0.000000
vt 14.391980 8.688100
vt 13.594120 21.720240
vt 14.391980 21.720240
vt 0.000000 8.688100
vt 0.000000 0.000000
vt 0.797850 0.000000
vt 0.797850 21.720240
vt 0.000000 21.720240
vt 0.000000 0.000000
vn -0.9360 -0.3519 0.0000
vn -0.9360 -0.3520 0.0000
vn -0.9361 -0.3519 0.0000
vn -0.8852 0.4653 0.0000
vn -0.4629 -0.8864 0.0000
vn -0.4630 -0.8863 0.0000
vn -0.2410 0.9705 0.0000
vn -0.2409 0.9705 0.0000
vn -0.2411 0.9705 0.0000
vn 0.2389 -0.9710 0.0000
vn 0.2388 -0.9711 0.0000
vn 0.2389 -0.9711 0.0000
vn 0.4631 0.8863 0.0000
vn 0.4630 0.8864 0.0000
vn 0.4628 0.8865 0.0000
vn 0.4627 0.8865 0.0000
vn 0.8808 -0.4735 -0.0000
vn 0.8807 -0.4737 0.0000
vn 0.8806 -0.4739 0.0000
vn 0.8851 -0.4655 0.0000
vn 0.8850 -0.4656 0.0000
vn 0.9328 0.3605 0.0000
vn 0.9328 0.3604 0.0000
vn 0.9327 0.3605 0.0000
vn 0.9327 0.3606 0.0000
vn 0.2378 -0.9713 0.0000
s off
f 1/1/1 2/2/1 3/3/1
f 4/4/2 1/1/2 3/3/2
f 5/5/1 1/1/1 4/4/1
f 6/6/1 7/7/1 8/8/1
f 9/9/3 6/6/3 8/8/3
f 10/10/1 9/9/1 8/8/1
f 11/11/4 12/12/4 13/13/4
f 11/11/4 13/13/4 14/14/4
f 15/15/4 16/16/4 17/17/4
f 15/15/4 17/17/4 18/18/4
f 19/19/5 20/20/5 21/21/5
f 19/19/6 21/21/6 22/22/6
f 23/23/6 24/24/6 25/25/6
f 23/23/6 25/25/6 26/26/6
f 27/27/7 28/28/7 29/29/7
f 30/30/8 27/27/8 29/29/8
f 31/31/7 30/30/7 29/29/7
f 32/32/7 33/33/7 34/34/7
f 35/35/7 32/32/7 34/34/7
f 36/36/9 32/32/9 35/35/9
f 40/37/10 37/38/10 39/39/10
f 37/38/11 40/37/11 41/40/11
f 42/41/10 37/38/10 41/40/10
f 43/42/12 44/43/12 45/44/12
f 46/45/10 43/42/10 45/44/10
f 47/46/10 46/45/10 45/44/10
f 48/47/13 49/48/13 50/49/13
f 48/47/14 50/49/14 51/50/14
f 52/51/15 53/52/15 54/53/15
f 52/51/16 54/53/16 55/54/16
f 56/55/17 57/56/17 58/57/17
f 59/58/17 58/57/17 57/56/17
f 60/59/18 58/57/18 61/60/18
f 58/57/19 59/58/19 61/60/19
f 62/61/20 63/62/20 64/63/20
f 62/61/20 64/63/20 65/64/20
f 66/65/20 67/66/20 68/67/20
f 66/65/21 68/67/21 69/68/21
f 70/69/22 71/70/22 72/71/22
f 73/72/23 70/69/23 72/71/23
f 74/73/24 73/72/24 72/71/24
f 75/74/25 76/75/25 77/76/25
f 78/77/25 75/74/25 77/76/25
f 79/78/25 75/74/25 78/77/25
s 1
f 37/38/26 38/79/26 39/39/26
