# Blender v3.0.1 OBJ File: 'rockerfeller_plaza.blend'
# www.blender.org
o geometryt000010000010000110010110000110000110100000110010st51
v 1021.345703 -36.171440 484.740082
v 1021.345703 -36.171440 466.292725
v 1034.090820 -43.065548 466.292725
v 1034.090820 -43.065548 484.740082
v 1024.115112 -29.486778 484.740082
v 1024.115112 -29.486778 466.292725
v 1020.938660 -35.372078 466.292725
v 1020.938660 -35.372078 484.740082
v 1037.751343 -36.283669 466.292725
v 1025.006104 -29.389559 466.292725
v 1025.006104 -29.389559 484.740082
v 1037.751343 -36.283669 484.740082
v 1034.981812 -42.968330 466.292725
v 1038.158325 -37.083031 466.292725
v 1038.158325 -37.083031 484.740082
v 1034.981812 -42.968330 484.740082
vt 0.000000 1.500000
vt 0.000000 0.000000
vt 0.812500 0.000000
vt 0.812500 1.500000
vt 0.000000 1.500000
vt 0.000000 0.000000
vt 0.375000 0.000000
vt 0.375000 1.500000
vt 0.000000 0.000000
vt 0.812500 0.000000
vt 0.812500 1.500000
vt 0.000000 1.500000
vt 0.000000 0.000000
vt 0.375000 0.000000
vt 0.375000 1.500000
vt 0.000000 1.500000
vn -0.4758 -0.8796 0.0000
vn -0.8800 0.4750 0.0000
vn 0.4758 0.8796 0.0000
vn 0.8800 -0.4750 0.0000
s off
f 1/1/1 2/2/1 3/3/1
f 1/1/1 3/3/1 4/4/1
f 5/5/2 6/6/2 7/7/2
f 5/5/2 7/7/2 8/8/2
f 9/9/3 10/10/3 11/11/3
f 12/12/3 9/9/3 11/11/3
f 13/13/4 14/14/4 15/15/4
f 16/16/4 13/13/4 15/15/4
