# Blender v3.0.1 OBJ File: 'rockerfeller_plaza.blend'
# www.blender.org
o geometryt000010000010000110010110000110000110100000100110st41
v 732.289429 -291.419800 656.583191
v 735.372070 -285.721710 656.583191
v 745.785217 -281.703522 656.583191
v 733.670227 -304.138000 656.583191
v 727.289795 -300.692902 656.583191
v 739.404907 -278.258423 656.583191
v 732.289429 -291.419800 680.683167
v 727.289795 -300.692902 680.683167
v 733.670227 -304.138000 680.683167
v 745.785217 -281.703522 680.683167
v 739.404907 -278.258423 680.683167
v 735.372070 -285.721710 680.683167
vt 0.457530 0.454310
vt 0.446180 0.460650
vt 0.435560 0.481740
vt 0.480230 0.456790
vt 0.475990 0.444010
vt 0.431320 0.468960
vt 0.457530 0.454310
vt 0.475990 0.444010
vt 0.480230 0.456790
vt 0.435560 0.481740
vt 0.431320 0.468960
vt 0.446180 0.460650
vn 0.0000 0.0000 -1.0000
vn -0.0000 0.0000 1.0000
s off
f 1/1/1 2/2/1 3/3/1
f 1/1/1 3/3/1 4/4/1
f 1/1/1 4/4/1 5/5/1
f 3/3/1 2/2/1 6/6/1
f 7/7/2 8/8/2 9/9/2
f 10/10/2 7/7/2 9/9/2
f 11/11/2 12/12/2 10/10/2
f 10/10/2 12/12/2 7/7/2
