# Blender v3.0.1 OBJ File: 'rockerfeller_plaza.blend'
# www.blender.org
o geometryt000010000010000110010110000110000110100000000110st68_F
v 610.979004 -276.082397 107.265671
v 610.756226 -276.505188 155.709076
v 610.979004 -276.082397 155.709076
v 626.639038 -246.364685 107.265671
v 610.756226 -276.505188 105.709076
v 626.639038 -246.364685 155.709076
v 626.861816 -245.941879 155.709076
v 626.861816 -245.941879 105.709076
v 633.330383 -288.260498 107.265671
v 633.883179 -288.548401 155.709076
v 633.330383 -288.260498 155.709076
v 610.756226 -276.505188 105.709076
v 611.309021 -276.792999 107.265671
v 633.883179 -288.548401 105.709076
v 611.309021 -276.792999 155.709076
v 610.756226 -276.505188 155.709076
v 620.695618 -269.550507 256.709076
v 620.695618 -269.550507 155.709076
v 621.395386 -269.923706 155.709076
v 621.395386 -269.923706 256.709076
v 638.148315 -278.858002 256.709076
v 638.148315 -278.858002 155.709076
v 638.848206 -279.231293 155.709076
v 638.848206 -279.231293 256.709076
v 620.699524 -269.552612 256.709076
v 620.996094 -269.001495 256.709076
v 620.996094 -269.001495 158.295135
v 628.190918 -255.636383 155.709076
v 632.072632 -248.425583 158.295135
v 620.699524 -269.552612 155.709076
v 632.072632 -248.425583 107.265671
v 631.899536 -248.747177 155.709076
v 631.899536 -248.747177 105.709076
v 637.610840 -238.137589 107.265671
v 637.610840 -238.137589 256.709076
v 637.907471 -237.586487 256.709076
v 637.907471 -237.586487 105.709076
v 627.467041 -246.278992 107.265671
v 626.861816 -245.941879 155.709076
v 627.467041 -246.278992 155.709076
v 631.295044 -248.410583 107.265671
v 626.861816 -245.941879 105.709076
v 631.295044 -248.410583 155.709076
v 631.900269 -248.747589 155.709076
v 631.900269 -248.747589 105.709076
v 638.426208 -280.023102 107.265671
v 638.848206 -279.231293 155.709076
v 638.426208 -280.023102 155.709076
v 633.883179 -288.548401 105.709076
v 634.305115 -287.756500 107.265671
v 638.848206 -279.231293 105.709076
v 634.305115 -287.756500 155.709076
v 633.883179 -288.548401 155.709076
v 638.343323 -237.818878 107.265671
v 637.907471 -237.586487 256.709076
v 638.343323 -237.818878 256.709076
v 653.807800 -246.065491 107.265671
v 650.005005 -244.037689 105.709076
v 637.907471 -237.586487 105.709076
v 653.807800 -246.065491 256.709076
v 654.243591 -246.297882 256.709076
v 654.243591 -246.297882 105.709076
v 646.867432 -264.363007 256.709076
v 646.867432 -264.363007 107.265671
v 647.260193 -263.634613 256.709076
v 638.848206 -279.231293 105.709076
v 639.241028 -278.502899 107.265671
v 647.260193 -263.634613 105.709076
v 639.241028 -278.502899 256.709076
v 638.848206 -279.231293 155.709076
v 638.848206 -279.231293 256.709076
v 650.028320 -254.143188 256.709076
v 650.028320 -254.143188 113.709076
v 650.210083 -253.813980 113.709076
v 650.210083 -253.813980 256.709076
v 653.740417 -247.421585 256.709076
v 653.740417 -247.421585 113.709076
v 653.922241 -247.092285 113.709076
v 653.922241 -247.092285 256.709076
v 653.922241 -247.092285 105.709076
v 654.242188 -246.300385 105.709076
v 654.242188 -246.300385 256.709076
v 653.922241 -247.092285 113.709076
v 653.922241 -247.092285 256.709076
vt 29.599621 1.352390
vt 30.014830 43.440491
vt 29.599621 43.440491
vt 0.415210 1.352390
vt 30.014830 0.000000
vt 0.415210 43.440491
vt 0.000000 43.440491
vt 0.000000 0.000000
vt 22.112560 1.352390
vt 22.654030 43.440491
vt 22.112560 43.440491
vt 0.000000 0.000000
vt 0.541470 1.352390
vt 22.654030 0.000000
vt 0.541470 43.440491
vt 0.000000 43.440491
vt 0.000000 87.749786
vt 0.000000 0.000000
vt 0.689100 0.000000
vt 0.689100 87.749786
vt 17.184641 87.749786
vt 17.184641 0.000000
vt 17.873739 0.000000
vt 17.873739 87.749786
vt 31.540810 131.190308
vt 30.997061 131.190308
vt 30.997061 45.687271
vt 17.809731 43.440491
vt 10.694860 45.687271
vt 31.540810 43.440491
vt 10.694860 1.352390
vt 11.012170 43.440491
vt 11.012170 0.000000
vt 0.543750 1.352390
vt 0.543750 131.190308
vt 0.000000 131.190308
vt 0.000000 0.000000
vt 4.408580 1.352390
vt 5.010500 43.440491
vt 4.408580 43.440491
vt 0.601920 1.352390
vt 5.010500 0.000000
vt 0.601920 43.440491
vt 0.000000 43.440491
vt 0.000000 0.000000
vt 0.000000 0.000000
vt 8.392861 1.352390
vt 0.779530 1.352390
vt 9.172401 43.440491
vt 9.172401 0.000000
vt 0.779530 43.440491
vt 0.000000 43.440491
vt 15.655750 1.352390
vt 16.084841 131.190308
vt 15.655750 131.190308
vt 0.429100 1.352390
vt 4.173350 0.000000
vt 16.084841 0.000000
vt 0.429100 131.190308
vt 0.000000 131.190308
vt 0.000000 0.000000
vt 14.676790 131.190308
vt 14.676790 1.352390
vt 15.395820 131.190308
vt 0.000000 0.000000
vt 0.719030 1.352390
vt 15.395820 0.000000
vt 0.719030 131.190308
vt 0.000000 43.440491
vt 0.000000 131.190308
vt 0.000000 124.239799
vt 0.000000 0.000000
vt 0.326760 0.000000
vt 0.326760 124.239799
vt 6.671200 124.239799
vt 6.671200 0.000000
vt 6.997960 0.000000
vt 6.997960 124.239799
vt 0.000000 0.000000
vt 0.742130 0.000000
vt 0.742130 131.190308
vt 0.000000 6.950480
vt 0.000000 131.190308
vt 8.392861 43.440491
vn -0.8847 0.4662 0.0000
vn -0.8848 0.4660 0.0000
vn -0.4618 -0.8870 0.0000
vn -0.4619 -0.8869 0.0001
vn -0.4619 -0.8869 0.0000
vn -0.4620 -0.8869 0.0000
vn -0.4706 -0.8824 0.0000
vn -0.4706 -0.8823 0.0000
vn -0.4707 -0.8823 0.0000
vn -0.8806 0.4739 0.0000
vn -0.8805 0.4740 -0.0000
vn -0.8806 0.4738 0.0000
vn 0.4863 0.8738 -0.0000
vn 0.4865 0.8737 0.0001
vn 0.4866 0.8736 0.0000
vn 0.4865 0.8737 0.0000
vn 0.8825 -0.4703 0.0000
vn 0.8823 -0.4706 0.0000
vn 0.4704 0.8825 0.0000
vn 0.4705 0.8824 -0.0001
vn 0.4705 0.8824 -0.0000
vn 0.4706 0.8823 0.0000
vn 0.4706 0.8824 0.0000
vn 0.8802 -0.4747 0.0000
vn 0.8801 -0.4747 0.0000
vn 0.8801 -0.4747 -0.0001
vn 0.8802 -0.4746 0.0000
vn 0.8754 -0.4835 0.0000
vn 0.8755 -0.4832 0.0000
vn 0.8755 -0.4831 0.0000
vn 0.8753 -0.4836 0.0000
vn 0.9272 -0.3746 0.0000
vn 0.9270 -0.3750 0.0000
vn 0.8825 -0.4704 0.0000
vn 0.8826 -0.4702 0.0000
s off
f 1/1/1 2/2/1 3/3/1
f 4/4/1 5/5/1 1/1/1
f 2/2/1 1/1/1 5/5/1
f 6/6/1 7/7/1 4/4/1
f 7/7/2 8/8/2 4/4/2
f 8/8/1 5/5/1 4/4/1
f 9/9/3 10/10/3 11/11/3
f 12/12/4 9/9/4 13/13/4
f 12/12/5 14/14/5 9/9/5
f 10/10/6 9/9/6 14/14/6
f 15/15/3 16/16/3 13/13/3
f 16/16/3 12/12/3 13/13/3
f 17/17/7 18/18/7 19/19/7
f 17/17/8 19/19/8 20/20/8
f 21/21/7 22/22/7 23/23/7
f 21/21/9 23/23/9 24/24/9
f 25/25/10 26/26/10 27/27/10
f 28/28/11 27/27/11 29/29/11
f 30/30/11 27/27/11 28/28/11
f 25/25/12 27/27/12 30/30/12
f 29/29/10 31/31/10 32/32/10
f 32/32/11 28/28/11 29/29/11
f 33/33/11 31/31/11 34/34/11
f 33/33/11 32/32/11 31/31/11
f 34/34/10 35/35/10 36/36/10
f 34/34/11 36/36/11 37/37/11
f 37/37/11 33/33/11 34/34/11
f 38/38/13 39/39/13 40/40/13
f 41/41/14 42/42/14 38/38/14
f 39/39/15 38/38/15 42/42/15
f 43/43/16 44/44/16 41/41/16
f 44/44/16 45/45/16 41/41/16
f 45/45/16 42/42/16 41/41/16
f 49/46/17 46/47/17 50/48/17
f 47/49/17 46/47/17 51/50/17
f 52/51/18 53/52/18 50/48/18
f 54/53/19 55/54/19 56/55/19
f 57/56/20 58/57/20 54/53/20
f 58/57/21 59/58/21 54/53/21
f 55/54/22 54/53/22 59/58/22
f 60/59/21 61/60/21 57/56/21
f 61/60/23 62/61/23 57/56/23
f 62/61/21 58/57/21 57/56/21
f 63/62/24 64/63/24 65/64/24
f 66/65/25 64/63/25 67/66/25
f 66/65/26 68/67/26 64/63/26
f 65/64/27 64/63/27 68/67/27
f 67/66/24 69/68/24 70/69/24
f 70/69/25 66/65/25 67/66/25
f 69/68/25 71/70/25 70/69/25
f 72/71/28 73/72/28 74/73/28
f 72/71/29 74/73/29 75/74/29
f 76/75/30 77/76/30 78/77/30
f 76/75/31 78/77/31 79/78/31
f 80/79/32 81/80/32 82/81/32
f 80/79/33 82/81/33 83/82/33
f 83/82/32 82/81/32 84/83/32
s 1
f 46/47/34 47/49/34 48/84/34
f 49/46/17 51/50/17 46/47/17
f 53/52/35 49/46/35 50/48/35
