# Blender v3.0.1 OBJ File: 'rockerfeller_plaza.blend'
# www.blender.org
o geometryt000010000010000110010110000110000110100000110110st23_G
v 1217.014038 -149.636002 736.630066
v 1209.583374 -150.955414 736.630066
v 1231.106201 -110.912598 736.630066
v 1242.062866 -163.364609 736.630066
v 1247.985107 -171.632904 736.630066
v 1233.221802 -112.053604 736.630066
v 1248.993408 -169.789215 736.630066
v 1271.892212 -179.424011 736.630066
v 1270.776978 -181.513214 736.630066
v 1222.344604 -147.053314 736.630066
v 1236.977051 -114.085701 736.630066
v 1243.236206 -161.197006 736.630066
v 1244.524902 -158.772705 736.630066
v 1273.950195 -175.658401 736.630066
v 1273.065674 -177.267502 736.630066
v 1274.379761 -174.854004 736.630066
v 1272.544922 -178.217316 736.630066
v 1269.768799 -183.368011 736.630066
v 1245.772705 -156.471008 736.630066
v 1275.677002 -172.440704 736.630066
v 1229.735229 -145.201416 736.630066
v 1226.540894 -143.484711 736.630066
v 1241.327026 -116.432800 736.630066
v 1256.599609 -159.674713 736.630066
v 1276.742676 -170.463104 736.630066
v 1242.221924 -122.195503 736.630066
v 1248.670410 -125.672600 736.630066
v 1255.577515 -129.388611 736.630066
v 1258.136719 -156.847809 736.630066
v 1264.103027 -145.853210 736.630066
v 1267.185303 -140.166016 736.630066
v 1269.086182 -136.668701 736.630066
v 1250.885010 -121.594299 736.630066
v 1278.139282 -167.882111 736.630066
v 1257.690430 -125.267097 736.630066
v 1270.388306 -133.966705 736.630066
v 1271.148682 -132.570007 736.630066
v 1284.162109 -156.653702 736.630066
v 1271.751709 -131.452713 736.630066
v 1258.847412 -123.133003 736.630066
v 1272.330322 -130.391205 736.630066
v 1260.194336 -120.652504 736.630066
v 1273.677368 -127.910698 736.630066
v 1261.632324 -118.004402 736.630066
v 1275.106689 -125.262703 736.630066
v 1263.111572 -115.289200 736.630066
v 1276.586182 -122.547501 736.630066
v 1264.070435 -113.545998 736.630066
v 1277.536377 -120.793304 736.630066
v 1264.962769 -111.892403 736.630066
v 1278.437256 -119.139603 736.630066
v 1209.583374 -150.955414 761.630066
v 1217.014038 -149.636002 761.630066
v 1231.106201 -110.912598 761.630066
v 1233.493530 -158.667908 761.630066
v 1242.062866 -163.364609 761.630066
v 1247.985107 -171.632904 761.630066
v 1222.558716 -136.778809 761.630066
v 1233.221802 -112.053604 761.630066
v 1248.993408 -169.789215 761.630066
v 1265.367065 -175.911011 761.630066
v 1271.892212 -179.424011 761.630066
v 1270.776978 -181.513214 761.630066
v 1217.014038 -149.636002 774.630066
v 1222.344604 -147.053314 774.630066
v 1233.221802 -112.053604 774.630066
v 1242.062866 -163.364609 774.630066
v 1225.856445 -139.141113 774.630066
v 1243.236206 -161.197006 774.630066
v 1239.201660 -155.960007 774.630066
v 1236.977051 -114.085701 774.630066
v 1244.524902 -158.772705 774.630066
v 1273.950195 -175.658401 774.630066
v 1273.065674 -177.267502 774.630066
v 1270.308594 -172.661102 774.630066
v 1274.379761 -174.854004 774.630066
v 1222.344604 -147.053314 786.630066
v 1229.202881 -144.915314 786.630066
v 1226.540894 -143.484711 786.630066
v 1236.977051 -114.085701 786.630066
v 1229.735229 -145.201416 786.630066
v 1244.524902 -158.772705 786.630066
v 1229.005249 -138.976013 786.630066
v 1241.327026 -116.432800 786.630066
v 1240.378784 -150.935715 786.630066
v 1245.772705 -156.471008 786.630066
v 1254.157349 -158.359009 786.630066
v 1256.599609 -159.674713 786.630066
v 1275.677002 -172.440704 786.630066
v 1274.911621 -169.482315 786.630066
v 1276.742676 -170.463104 786.630066
v 1236.285400 -133.133316 796.630066
v 1226.540894 -143.484711 796.630066
v 1229.735229 -145.201416 796.630066
v 1242.221924 -122.195503 796.630066
v 1241.327026 -116.432800 796.630066
v 1250.885010 -121.594299 796.630066
v 1245.604492 -124.019402 796.630066
v 1247.824097 -125.216301 796.630066
v 1248.670410 -125.672600 796.630066
v 1242.221924 -122.195503 862.830078
v 1229.735229 -145.201416 862.830078
v 1248.670410 -125.672600 862.830078
v 1255.577515 -129.388611 862.830078
v 1258.136719 -156.847809 862.830078
v 1256.599609 -159.674713 862.830078
v 1264.103027 -145.853210 862.830078
v 1267.185303 -140.166016 862.830078
v 1269.086182 -136.668701 862.830078
v 1272.544922 -178.217316 768.630066
v 1243.051025 -161.539215 768.630066
v 1242.062866 -163.364609 768.630066
v 1271.892212 -179.424011 768.630066
v 1243.236206 -161.197006 768.630066
v 1268.355835 -174.730011 768.630066
v 1273.065674 -177.267502 768.630066
v 1245.622925 -156.747208 780.630066
v 1244.524902 -158.772705 780.630066
v 1274.379761 -174.854004 780.630066
v 1245.772705 -156.471008 780.630066
v 1272.088379 -170.524307 780.630066
v 1275.677002 -172.440704 780.630066
v 1248.751343 -170.231705 755.630066
v 1247.985107 -171.632904 755.630066
v 1269.768799 -183.368011 755.630066
v 1248.993408 -169.789215 755.630066
v 1265.548950 -178.699402 755.630066
v 1270.776978 -181.513214 755.630066
v 1250.515991 -122.274002 786.630066
v 1248.670410 -125.672600 786.630066
v 1257.690430 -125.267097 786.630066
v 1252.840942 -127.916298 786.630066
v 1250.885010 -121.594299 786.630066
v 1255.577515 -129.388611 786.630066
v 1255.929688 -128.701706 786.630066
v 1270.388306 -133.966705 796.630066
v 1257.690430 -125.267097 796.630066
v 1255.577515 -129.388611 796.630066
v 1262.663574 -133.207504 796.630066
v 1271.148682 -132.570007 796.630066
v 1269.086182 -136.668701 796.630066
v 1257.269409 -158.442703 791.630066
v 1256.599609 -159.674713 791.630066
v 1275.880981 -166.636307 791.630066
v 1278.139282 -167.882111 791.630066
v 1276.742676 -170.463104 791.630066
v 1258.136719 -156.847809 791.630066
v 1271.751709 -131.452713 788.630066
v 1258.847412 -123.133003 788.630066
v 1257.690430 -125.267097 788.630066
v 1259.484863 -126.240799 788.630066
v 1272.330322 -130.391205 788.630066
v 1271.148682 -132.570007 788.630066
v 1261.067871 -151.446411 798.630066
v 1258.136719 -156.847809 798.630066
v 1284.162109 -156.653702 798.630066
v 1278.139282 -167.882111 798.630066
v 1264.103027 -145.853210 798.630066
v 1260.194336 -120.652504 782.630066
v 1258.847412 -123.133003 782.630066
v 1260.403076 -123.970497 782.630066
v 1272.330322 -130.391205 782.630066
v 1273.677368 -127.910698 782.630066
v 1261.632324 -118.004402 776.630066
v 1260.194336 -120.652504 776.630066
v 1261.952881 -121.599197 776.630066
v 1273.677368 -127.910698 776.630066
v 1275.106689 -125.262703 776.630066
v 1263.111572 -115.289200 770.630066
v 1261.632324 -118.004402 770.630066
v 1263.653442 -119.093102 770.630066
v 1275.106689 -125.262703 770.630066
v 1276.586182 -122.547501 770.630066
v 1264.070435 -113.545998 764.630066
v 1263.111572 -115.289200 764.630066
v 1265.489502 -116.570099 764.630066
v 1276.586182 -122.547501 764.630066
v 1277.536377 -120.793304 764.630066
v 1264.962769 -111.892403 758.630066
v 1264.070435 -113.545998 758.630066
v 1266.955933 -115.098999 758.630066
v 1277.536377 -120.793304 758.630066
v 1278.437256 -119.139603 758.630066
vt 0.203500 0.432540
vt 0.208260 0.417530
vt 0.128550 0.461850
vt 0.220510 0.482700
vt 0.233680 0.494440
vt 0.129960 0.466090
vt 0.230000 0.496510
vt 0.240250 0.542440
vt 0.244410 0.540140
vt 0.197100 0.443340
vt 0.132460 0.473610
vt 0.216200 0.485110
vt 0.211370 0.487770
vt 0.232750 0.546670
vt 0.235950 0.544850
vt 0.231140 0.547560
vt 0.237850 0.543780
vt 0.248100 0.538060
vt 0.206790 0.490340
vt 0.226340 0.550230
vt 0.191380 0.458280
vt 0.189270 0.451880
vt 0.135350 0.482320
vt 0.209180 0.512080
vt 0.222400 0.552420
vt 0.145550 0.483990
vt 0.149830 0.496900
vt 0.154390 0.510740
vt 0.203540 0.515250
vt 0.181640 0.527530
vt 0.170310 0.533880
vt 0.163340 0.537790
vt 0.141700 0.501460
vt 0.217260 0.555300
vt 0.146220 0.515090
vt 0.158010 0.540480
vt 0.155230 0.542040
vt 0.194920 0.567700
vt 0.153000 0.543290
vt 0.141970 0.517470
vt 0.150890 0.544480
vt 0.137030 0.520250
vt 0.145950 0.547250
vt 0.131750 0.523210
vt 0.140670 0.550190
vt 0.126340 0.526250
vt 0.135260 0.553240
vt 0.122860 0.528230
vt 0.131770 0.555200
vt 0.119570 0.530070
vt 0.128470 0.557050
vt 0.208260 0.417530
vt 0.203500 0.432540
vt 0.128550 0.461850
vt 0.214690 0.465540
vt 0.220510 0.482700
vt 0.233680 0.494440
vt 0.178340 0.444020
vt 0.129960 0.466090
vt 0.230000 0.496510
vt 0.235930 0.529370
vt 0.240250 0.542440
vt 0.244410 0.540140
vt 0.203500 0.432540
vt 0.197100 0.443340
vt 0.129960 0.466090
vt 0.220510 0.482700
vt 0.181590 0.450610
vt 0.216200 0.485110
vt 0.207950 0.477100
vt 0.132460 0.473610
vt 0.211370 0.487770
vt 0.232750 0.546670
vt 0.235950 0.544850
vt 0.228450 0.539400
vt 0.231140 0.547560
vt 0.197100 0.443340
vt 0.191030 0.457210
vt 0.189270 0.451880
vt 0.132460 0.473610
vt 0.191380 0.458280
vt 0.211370 0.487770
vt 0.180290 0.456960
vt 0.135350 0.482320
vt 0.198430 0.479600
vt 0.206790 0.490340
vt 0.207560 0.507190
vt 0.209180 0.512080
vt 0.226340 0.550230
vt 0.221200 0.548760
vt 0.222400 0.552420
vt 0.167340 0.471770
vt 0.189270 0.451880
vt 0.191380 0.458280
vt 0.145550 0.483990
vt 0.135350 0.482320
vt 0.141700 0.501460
vt 0.147790 0.490760
vt 0.149260 0.495210
vt 0.149830 0.496900
vt 0.145550 0.483990
vt 0.191380 0.458280
vt 0.149830 0.496900
vt 0.154390 0.510740
vt 0.203540 0.515250
vt 0.209180 0.512080
vt 0.181640 0.527530
vt 0.170310 0.533880
vt 0.163340 0.537790
vt 0.237850 0.543780
vt 0.216880 0.484730
vt 0.220510 0.482700
vt 0.240250 0.542440
vt 0.216200 0.485110
vt 0.232830 0.535420
vt 0.235950 0.544850
vt 0.207340 0.490030
vt 0.211370 0.487770
vt 0.231140 0.547560
vt 0.206790 0.490340
vt 0.223990 0.543040
vt 0.226340 0.550230
vt 0.230880 0.496010
vt 0.233680 0.494440
vt 0.248100 0.538060
vt 0.230000 0.496510
vt 0.240950 0.529670
vt 0.244410 0.540140
vt 0.143050 0.500700
vt 0.149830 0.496900
vt 0.146220 0.515090
vt 0.152580 0.505260
vt 0.141700 0.501460
vt 0.154390 0.510740
vt 0.153030 0.511460
vt 0.158010 0.540480
vt 0.146220 0.515090
vt 0.154390 0.510740
vt 0.159090 0.524930
vt 0.155230 0.542040
vt 0.163340 0.537790
vt 0.206720 0.513460
vt 0.209180 0.512080
vt 0.215710 0.550780
vt 0.217260 0.555300
vt 0.222400 0.552420
vt 0.203540 0.515250
vt 0.153000 0.543290
vt 0.141970 0.517470
vt 0.146220 0.515090
vt 0.147420 0.518690
vt 0.150890 0.544480
vt 0.155230 0.542040
vt 0.192780 0.521280
vt 0.203540 0.515250
vt 0.194920 0.567700
vt 0.217260 0.555300
vt 0.181640 0.527530
vt 0.137030 0.520250
vt 0.141970 0.517470
vt 0.143000 0.520590
vt 0.150890 0.544480
vt 0.145950 0.547250
vt 0.131750 0.523210
vt 0.137030 0.520250
vt 0.138190 0.523770
vt 0.145950 0.547250
vt 0.140670 0.550190
vt 0.126340 0.526250
vt 0.131750 0.523210
vt 0.133090 0.527260
vt 0.140670 0.550190
vt 0.135260 0.553240
vt 0.122860 0.528230
vt 0.126340 0.526250
vt 0.127910 0.531020
vt 0.135260 0.553240
vt 0.131770 0.555200
vt 0.119570 0.530070
vt 0.122860 0.528230
vt 0.124770 0.534010
vt 0.131770 0.555200
vt 0.128470 0.557050
vn 0.0000 0.0000 -1.0000
vn 0.0000 0.0000 1.0000
vn -0.0001 0.0000 1.0000
vn 0.0001 0.0000 1.0000
vn -0.0002 0.0000 1.0000
vn -0.0004 0.0000 1.0000
s off
f 1/1/1 2/2/1 3/3/1
f 4/4/1 2/2/1 1/1/1
f 4/4/1 5/5/1 2/2/1
f 1/1/1 3/3/1 6/6/1
f 7/7/1 5/5/1 4/4/1
f 4/4/1 8/8/1 7/7/1
f 8/8/1 9/9/1 7/7/1
f 1/1/1 6/6/1 10/10/1
f 1/1/1 10/10/1 4/4/1
f 10/10/1 6/6/1 11/11/1
f 4/4/1 10/10/1 12/12/1
f 10/10/1 13/13/1 12/12/1
f 12/12/1 13/13/1 14/14/1
f 12/12/1 14/14/1 15/15/1
f 13/13/1 16/16/1 14/14/1
f 17/17/1 4/4/1 12/12/1
f 8/8/1 4/4/1 17/17/1
f 12/12/1 15/15/1 17/17/1
f 5/5/1 7/7/1 18/18/1
f 7/7/1 9/9/1 18/18/1
f 13/13/1 19/19/1 16/16/1
f 19/19/1 20/20/1 16/16/1
f 21/21/1 10/10/1 22/22/1
f 22/22/1 10/10/1 11/11/1
f 21/21/1 13/13/1 10/10/1
f 23/23/1 22/22/1 11/11/1
f 21/21/1 19/19/1 13/13/1
f 21/21/1 24/24/1 19/19/1
f 20/20/1 19/19/1 24/24/1
f 20/20/1 24/24/1 25/25/1
f 21/21/1 26/26/1 27/27/1
f 28/28/1 21/21/1 27/27/1
f 28/28/1 29/29/1 21/21/1
f 29/29/1 24/24/1 21/21/1
f 30/30/1 29/29/1 28/28/1
f 31/31/1 30/30/1 28/28/1
f 32/32/1 31/31/1 28/28/1
f 21/21/1 22/22/1 26/26/1
f 22/22/1 23/23/1 26/26/1
f 23/23/1 33/33/1 26/26/1
f 33/33/1 27/27/1 26/26/1
f 24/24/1 29/29/1 34/34/1
f 24/24/1 34/34/1 25/25/1
f 27/27/1 33/33/1 35/35/1
f 27/27/1 35/35/1 28/28/1
f 36/36/1 28/28/1 35/35/1
f 32/32/1 28/28/1 36/36/1
f 35/35/1 37/37/1 36/36/1
f 29/29/1 30/30/1 38/38/1
f 29/29/1 38/38/1 34/34/1
f 39/39/1 35/35/1 40/40/1
f 37/37/1 35/35/1 39/39/1
f 40/40/1 41/41/1 39/39/1
f 40/40/1 42/42/1 41/41/1
f 42/42/1 43/43/1 41/41/1
f 42/42/1 44/44/1 43/43/1
f 44/44/1 45/45/1 43/43/1
f 44/44/1 46/46/1 45/45/1
f 46/46/1 47/47/1 45/45/1
f 46/46/1 48/48/1 47/47/1
f 48/48/1 49/49/1 47/47/1
f 48/48/1 50/50/1 49/49/1
f 50/50/1 51/51/1 49/49/1
f 52/52/2 53/53/2 54/54/2
f 55/55/2 53/53/2 52/52/2
f 56/56/2 55/55/2 52/52/2
f 57/57/2 56/56/2 52/52/2
f 54/54/3 53/53/3 58/58/3
f 54/54/2 58/58/2 59/59/2
f 56/56/2 57/57/2 60/60/2
f 61/61/2 56/56/2 60/60/2
f 62/62/4 61/61/4 60/60/4
f 63/63/2 62/62/2 60/60/2
f 64/64/2 65/65/2 66/66/2
f 67/67/2 65/65/2 64/64/2
f 66/66/2 65/65/2 68/68/2
f 69/69/2 70/70/2 65/65/2
f 67/67/2 69/69/2 65/65/2
f 66/66/2 68/68/2 71/71/2
f 69/69/2 72/72/2 70/70/2
f 72/72/2 69/69/2 73/73/2
f 74/74/2 73/73/2 69/69/2
f 73/73/2 75/75/2 72/72/2
f 73/73/2 76/76/2 75/75/2
f 77/77/2 78/78/2 79/79/2
f 77/77/2 79/79/2 80/80/2
f 77/77/2 81/81/2 78/78/2
f 82/82/2 81/81/2 77/77/2
f 79/79/5 83/83/5 80/80/5
f 83/83/2 84/84/2 80/80/2
f 85/85/2 81/81/2 86/86/2
f 86/86/2 81/81/2 82/82/2
f 87/87/2 85/85/2 86/86/2
f 88/88/2 87/87/2 86/86/2
f 86/86/2 89/89/2 88/88/2
f 89/89/2 90/90/2 88/88/2
f 89/89/2 91/91/2 90/90/2
f 92/92/2 93/93/2 94/94/2
f 95/95/2 93/93/2 92/92/2
f 95/95/2 96/96/2 93/93/2
f 97/97/2 96/96/2 95/95/2
f 98/98/2 97/97/2 95/95/2
f 99/99/2 97/97/2 98/98/2
f 100/100/4 97/97/4 99/99/4
f 101/101/2 102/102/2 103/103/2
f 103/103/2 102/102/2 104/104/2
f 104/104/2 102/102/2 105/105/2
f 102/102/2 106/106/2 105/105/2
f 107/107/2 104/104/2 105/105/2
f 108/108/2 104/104/2 107/107/2
f 109/109/2 104/104/2 108/108/2
f 110/110/2 111/111/2 112/112/2
f 112/112/2 113/113/2 110/110/2
f 110/110/4 114/114/4 111/111/4
f 115/115/2 114/114/2 110/110/2
f 116/116/2 115/115/2 110/110/2
f 117/117/2 118/118/2 119/119/2
f 120/120/2 117/117/2 119/119/2
f 120/120/2 119/119/2 121/121/2
f 121/121/2 119/119/2 122/122/2
f 123/123/2 124/124/2 125/125/2
f 126/126/2 123/123/2 125/125/2
f 126/126/2 125/125/2 127/127/2
f 127/127/2 125/125/2 128/128/2
f 129/129/2 130/130/2 131/131/2
f 130/130/2 132/132/2 131/131/2
f 133/133/3 129/129/3 131/131/3
f 132/132/4 134/134/4 135/135/4
f 132/132/2 135/135/2 131/131/2
f 136/136/2 137/137/2 138/138/2
f 138/138/2 139/139/2 136/136/2
f 140/140/2 137/137/2 136/136/2
f 139/139/2 141/141/2 136/136/2
f 142/142/2 143/143/2 144/144/2
f 144/144/2 143/143/2 145/145/2
f 143/143/2 146/146/2 145/145/2
f 147/147/2 142/142/2 144/144/2
f 148/148/2 149/149/2 150/150/2
f 150/150/6 151/151/6 148/148/6
f 152/152/2 149/149/2 148/148/2
f 151/151/2 153/153/2 148/148/2
f 154/154/2 155/155/2 156/156/2
f 155/155/2 157/157/2 156/156/2
f 158/158/2 154/154/2 156/156/2
f 159/159/2 160/160/2 161/161/2
f 159/159/2 161/161/2 162/162/2
f 159/159/2 162/162/2 163/163/2
f 164/164/2 165/165/2 166/166/2
f 164/164/2 166/166/2 167/167/2
f 164/164/2 167/167/2 168/168/2
f 169/169/2 170/170/2 171/171/2
f 169/169/2 171/171/2 172/172/2
f 169/169/2 172/172/2 173/173/2
f 174/174/2 175/175/2 176/176/2
f 174/174/2 176/176/2 177/177/2
f 174/174/2 177/177/2 178/178/2
f 179/179/2 180/180/2 181/181/2
f 179/179/2 181/181/2 182/182/2
f 179/179/2 182/182/2 183/183/2
