# Blender v3.0.1 OBJ File: 'rockerfeller_plaza.blend'
# www.blender.org
o geometryt000010000010000110010110000110000110100000110000st100
v 880.546448 -257.384735 425.928162
v 880.382568 -257.688324 447.089600
v 880.546448 -257.384735 447.089600
v 882.448242 -253.862946 425.928162
v 880.382568 -257.688324 423.389587
v 882.448242 -253.862946 447.089600
v 882.524231 -253.722244 447.089600
v 882.524231 -253.722244 425.928162
v 883.792053 -251.374344 425.928162
v 883.792053 -251.374344 447.089600
v 883.868042 -251.233643 447.089600
v 883.868042 -251.233643 425.928162
v 884.501953 -250.059631 425.928162
v 884.501953 -250.059631 447.089600
v 884.577942 -249.918945 447.089600
v 884.577942 -249.918945 425.928162
v 885.845764 -247.571045 425.928162
v 885.845764 -247.571045 447.089600
v 885.921753 -247.430344 447.089600
v 885.921753 -247.430344 425.928162
v 886.555664 -246.256439 425.928162
v 886.555664 -246.256439 447.089600
v 886.631653 -246.115646 447.089600
v 886.631653 -246.115646 425.928162
v 887.265564 -244.941742 425.928162
v 887.265564 -244.941742 447.089600
v 887.341553 -244.801041 447.089600
v 887.341553 -244.801041 425.928162
v 887.975464 -243.627045 425.928162
v 887.975464 -243.627045 447.089600
v 888.051331 -243.486343 447.089600
v 888.051331 -243.486343 425.928162
v 894.934326 -230.739746 423.389587
v 888.685364 -242.312439 425.928162
v 888.685364 -242.312439 447.089600
v 888.761230 -242.171738 447.089600
v 888.761230 -242.171738 425.928162
v 889.395264 -240.997742 425.928162
v 889.395264 -240.997742 447.089600
v 889.471130 -240.857040 447.089600
v 889.471130 -240.857040 425.928162
v 890.739014 -238.509140 425.928162
v 890.739014 -238.509140 447.089600
v 890.814941 -238.368439 447.089600
v 890.814941 -238.368439 425.928162
v 891.448975 -237.194534 425.928162
v 891.448975 -237.194534 447.089600
v 891.524841 -237.053833 447.089600
v 891.524841 -237.053833 425.928162
v 892.792725 -234.705933 425.928162
v 892.792725 -234.705933 447.089600
v 892.868652 -234.565247 447.089600
v 892.868652 -234.565247 425.928162
v 894.770447 -231.043335 425.928162
v 894.770447 -231.043335 447.089600
v 894.934326 -230.739746 447.089600
v 883.416931 -259.327728 425.928162
v 884.103638 -259.698853 447.089600
v 883.416931 -259.327728 447.089600
v 881.069336 -258.059326 425.928162
v 884.103638 -259.698853 423.389587
v 881.069336 -258.059326 447.089600
v 880.382568 -257.688324 447.089600
v 880.382568 -257.688324 423.389587
v 888.251160 -252.008636 425.928162
v 888.598877 -251.364044 447.089600
v 888.251160 -252.008636 447.089600
v 884.451233 -259.054230 425.928162
v 888.598877 -251.364044 423.389587
v 884.451233 -259.054230 447.089600
v 884.103638 -259.698853 447.089600
v 884.103638 -259.698853 423.389587
v 892.666626 -253.558441 425.928162
v 893.211914 -253.852646 447.089600
v 892.666626 -253.558441 447.089600
v 889.144043 -251.658142 425.928162
v 893.211914 -253.852646 423.389587
v 889.144043 -251.658142 447.089600
v 888.598877 -251.364044 447.089600
v 888.598877 -251.364044 423.389587
v 902.986938 -235.733734 425.928162
v 903.259949 -235.227844 447.089600
v 902.986938 -235.733734 447.089600
v 893.484863 -253.346634 425.928162
v 903.259949 -235.227844 423.389587
v 893.484863 -253.346634 447.089600
v 893.211914 -253.852646 447.089600
v 893.211914 -253.852646 423.389587
v 895.573975 -231.084534 425.928162
v 894.934326 -230.739746 447.089600
v 895.573975 -231.084534 447.089600
v 902.620361 -234.883041 425.928162
v 894.934326 -230.739746 423.389587
v 902.620361 -234.883041 447.089600
v 903.259949 -235.227844 447.089600
v 903.259949 -235.227844 423.389587
vt 12.112580 0.999830
vt 12.250580 9.334381
vt 12.112580 9.334381
vt 10.511570 0.999830
vt 12.250580 0.000000
vt 10.511570 9.334381
vt 10.447610 9.334381
vt 10.447610 0.999830
vt 9.380280 0.999830
vt 9.380280 9.334381
vt 9.316310 9.334381
vt 9.316310 0.999830
vt 8.782650 0.999830
vt 8.718681 0.999830
vt 7.651350 0.999830
vt 7.651350 9.334381
vt 7.587380 9.334381
vt 7.587380 0.999830
vt 7.053720 0.999830
vt 7.053720 9.334381
vt 6.989750 9.334381
vt 6.989750 0.999830
vt 6.456090 0.999830
vt 6.456090 9.334381
vt 6.392120 9.334381
vt 6.392120 0.999830
vt 5.858460 0.999830
vt 5.858460 9.334381
vt 5.794490 9.334381
vt 5.794490 0.999830
vt 0.000000 0.000000
vt 5.260830 9.334381
vt 5.196860 9.334381
vt 5.260830 0.999830
vt 5.196860 0.999830
vt 4.663190 0.999830
vt 4.663190 9.334381
vt 4.599230 9.334381
vt 4.599230 0.999830
vt 3.531900 0.999830
vt 1.802970 0.999830
vt 2.870300 0.999830
vt 0.138000 0.999830
vt 1.739000 0.999830
vt 0.138000 9.334381
vt 0.000000 9.334381
vt 1.379570 0.999830
vt 1.691790 9.334381
vt 1.379570 9.334381
vt 0.312230 0.999830
vt 1.691790 0.000000
vt 0.312230 9.334381
vt 0.000000 9.334381
vt 0.000000 0.000000
vt 3.494940 0.999830
vt 3.787870 9.334381
vt 3.494940 9.334381
vt 0.292930 0.999830
vt 3.787870 0.000000
vt 0.292930 9.334381
vt 0.000000 9.334381
vt 0.000000 0.000000
vt 1.848810 0.999830
vt 2.096610 9.334381
vt 1.848810 9.334381
vt 0.247800 0.999830
vt 2.096610 0.000000
vt 0.247800 9.334381
vt 0.000000 9.334381
vt 0.000000 0.000000
vt 8.234991 0.999830
vt 8.464950 9.334381
vt 8.234991 9.334381
vt 0.229960 0.999830
vt 8.464950 0.000000
vt 0.229960 9.334381
vt 0.000000 9.334381
vt 0.000000 0.000000
vt 3.492650 0.999830
vt 3.783280 9.334381
vt 3.492650 9.334381
vt 0.290640 0.999830
vt 3.783280 0.000000
vt 0.290640 9.334381
vt 0.000000 9.334381
vt 0.000000 0.000000
vt 8.782650 9.334381
vt 8.718681 9.334381
vt 3.531900 9.334381
vt 3.467930 9.334381
vt 3.467930 0.999830
vt 2.934270 0.999830
vt 2.934270 9.334381
vt 2.870300 9.334381
vt 1.802970 9.334381
vt 1.739000 9.334381
vn -0.8799 0.4751 0.0000
vn -0.8801 0.4748 0.0000
vn -0.8797 0.4755 0.0000
vn -0.8798 0.4754 0.0000
vn -0.8799 0.4752 0.0000
vn -0.8802 0.4746 0.0000
vn -0.8798 0.4754 -0.0003
vn -0.8799 0.4751 0.0001
vn -0.8803 0.4744 0.0000
vn -0.8798 0.4753 0.0000
vn -0.8799 0.4751 -0.0001
vn -0.8800 0.4750 0.0001
vn -0.8800 0.4750 0.0000
vn -0.8799 0.4752 0.0001
vn -0.4755 -0.8797 0.0000
vn -0.4754 -0.8798 0.0000
vn -0.4753 -0.8798 0.0000
vn 0.8801 -0.4748 0.0000
vn 0.8801 -0.4747 0.0000
vn 0.8802 -0.4746 0.0000
vn 0.8802 -0.4747 0.0000
vn -0.4748 -0.8801 0.0000
vn -0.4749 -0.8801 0.0000
vn 0.8800 -0.4749 0.0000
vn 0.8801 -0.4749 0.0000
vn 0.4745 0.8803 0.0000
vn 0.4745 0.8802 -0.0000
vn 0.4744 0.8803 0.0000
vn 0.4746 0.8802 0.0000
vn -0.8802 0.4747 0.0000
vn -0.8802 0.4747 0.0001
vn -0.8798 0.4754 -0.0001
vn -0.8804 0.4743 0.0000
vn -0.8801 0.4748 0.0001
vn -0.8800 0.4749 0.0012
vn -0.8801 0.4747 0.0012
vn -0.8802 0.4745 -0.0023
vn -0.8800 0.4750 -0.0003
vn -0.8803 0.4745 -0.0024
vn -0.8799 0.4751 0.0003
vn -0.8798 0.4753 -0.0018
vn -0.8804 0.4742 -0.0012
vn -0.8800 0.4749 -0.0000
vn -0.8796 0.4756 0.0001
vn -0.8800 0.4749 0.0002
vn -0.8801 0.4747 0.0001
vn -0.8795 0.4759 0.0000
vn -0.8796 0.4758 -0.0000
vn -0.8801 0.4747 -0.0004
vn -0.8795 0.4758 0.0000
vn -0.8797 0.4755 0.0002
vn -0.8797 0.4755 0.0001
s off
f 1/1/1 2/2/1 3/3/1
f 4/4/1 5/5/1 1/1/1
f 2/2/2 1/1/2 5/5/2
f 6/6/3 7/7/3 4/4/3
f 7/7/3 8/8/3 4/4/3
f 8/8/4 5/5/4 4/4/4
f 8/8/5 9/9/5 5/5/5
f 10/10/3 11/11/3 9/9/3
f 11/11/6 12/12/6 9/9/6
f 9/9/7 12/12/7 5/5/7
f 12/12/8 13/13/8 5/5/8
f 16/14/5 17/15/5 5/5/5
f 18/16/3 19/17/3 17/15/3
f 19/17/3 20/18/3 17/15/3
f 20/18/1 21/19/1 5/5/1
f 22/20/9 23/21/9 21/19/9
f 23/21/10 24/22/10 21/19/10
f 24/22/11 25/23/11 5/5/11
f 26/24/3 27/25/3 25/23/3
f 27/25/3 28/26/3 25/23/3
f 28/26/12 29/27/12 5/5/12
f 30/28/13 31/29/13 29/27/13
f 31/29/13 32/30/13 29/27/13
f 29/27/1 33/31/1 5/5/1
f 35/32/13 36/33/13 34/34/13
f 36/33/13 37/35/13 34/34/13
f 38/36/5 33/31/5 37/35/5
f 39/37/13 40/38/13 38/36/13
f 40/38/13 41/39/13 38/36/13
f 42/40/14 33/31/14 41/39/14
f 50/41/8 33/31/8 49/42/8
f 54/43/1 33/31/1 53/44/1
f 55/45/1 56/46/1 54/43/1
f 56/46/1 33/31/1 54/43/1
f 57/47/15 58/48/15 59/49/15
f 60/50/16 61/51/16 57/47/16
f 58/48/16 57/47/16 61/51/16
f 62/52/17 63/53/17 60/50/17
f 63/53/17 64/54/17 60/50/17
f 64/54/16 61/51/16 60/50/16
f 65/55/18 66/56/18 67/57/18
f 68/58/19 69/59/19 65/55/19
f 66/56/19 65/55/19 69/59/19
f 70/60/20 71/61/20 68/58/20
f 71/61/20 72/62/20 68/58/20
f 72/62/21 69/59/21 68/58/21
f 73/63/22 74/64/22 75/65/22
f 76/66/22 77/67/22 73/63/22
f 74/64/23 73/63/23 77/67/23
f 78/68/22 79/69/22 76/66/22
f 79/69/22 80/70/22 76/66/22
f 80/70/22 77/67/22 76/66/22
f 81/71/20 82/72/20 83/73/20
f 84/74/18 85/75/18 81/71/18
f 82/72/24 81/71/24 85/75/24
f 86/76/20 87/77/20 84/74/20
f 87/77/25 88/78/25 84/74/25
f 88/78/18 85/75/18 84/74/18
f 89/79/26 90/80/26 91/81/26
f 92/82/27 93/83/27 89/79/27
f 90/80/26 89/79/26 93/83/26
f 94/84/28 95/85/28 92/82/28
f 95/85/29 96/86/29 92/82/29
f 96/86/27 93/83/27 92/82/27
s 1
f 14/87/30 15/88/9 13/13/31
f 15/88/9 16/14/32 13/13/31
f 13/13/31 16/14/32 5/5/33
f 17/15/34 20/18/34 5/5/34
f 21/19/35 24/22/35 5/5/35
f 25/23/36 28/26/36 5/5/36
f 32/30/37 33/31/38 29/27/39
f 34/34/40 33/31/38 32/30/37
f 37/35/41 33/31/38 34/34/40
f 41/39/42 33/31/42 38/36/42
f 43/89/13 44/90/43 42/40/44
f 44/90/43 45/91/45 42/40/44
f 45/91/45 33/31/1 42/40/44
f 46/92/46 33/31/1 45/91/45
f 47/93/47 48/94/48 46/92/46
f 48/94/48 49/42/49 46/92/46
f 49/42/49 33/31/1 46/92/46
f 51/95/50 52/96/3 50/41/5
f 52/96/3 53/44/51 50/41/5
f 53/44/51 33/31/52 50/41/5
