# Blender v3.0.1 OBJ File: 'rockerfeller_plaza.blend'
# www.blender.org
o geometryt000010000010000110010110000110000110100000110010st72_P
v 1240.078735 -131.222443 463.149597
v 1237.975586 -135.335434 463.149597
v 1237.975586 -135.335434 472.311523
v 1240.078735 -131.222443 472.311523
v 1237.793457 -136.449432 463.149597
v 1239.156738 -137.165237 463.149597
v 1239.156738 -137.165237 472.311523
v 1237.793457 -136.449432 472.311523
v 1241.142456 -138.207733 472.311523
v 1240.192383 -137.708939 463.149597
v 1244.282349 -139.856339 463.149597
v 1240.192383 -137.708939 472.311523
v 1244.282349 -139.856339 472.311523
v 1245.317993 -140.400040 472.311523
v 1245.317993 -140.400040 463.149597
v 1249.407959 -142.547440 463.149597
v 1249.407959 -142.547440 472.311523
v 1250.443726 -143.091141 472.311523
v 1250.443726 -143.091141 463.149597
v 1251.807007 -143.806946 463.149597
v 1251.807007 -143.806946 472.311523
v 1242.169067 -127.242439 527.311523
v 1242.169067 -127.242439 463.149597
v 1240.727783 -129.963943 463.149597
v 1240.727783 -129.963943 527.311523
v 1246.373657 -119.303741 463.149597
v 1242.770264 -126.107437 463.149597
v 1242.770264 -126.107437 527.311523
v 1246.373657 -119.303741 527.311523
v 1248.416260 -115.447342 463.149597
v 1246.974854 -118.168739 463.149597
v 1246.974854 -118.168739 527.311523
v 1248.416260 -115.447342 527.311523
v 1241.475952 -130.747635 472.311523
v 1245.645142 -132.941940 505.311523
v 1241.224854 -130.615433 472.311523
v 1245.312744 -132.766937 505.922638
v 1241.224854 -130.615433 527.311523
v 1245.645142 -132.941940 472.311523
v 1247.185547 -133.752747 472.311523
v 1250.762939 -135.635635 472.311523
v 1250.762939 -135.635635 505.311523
v 1245.645142 -132.941940 505.922638
v 1245.312744 -132.766937 527.311523
v 1246.735474 -130.829346 505.311523
v 1245.847656 -132.549438 527.311523
v 1245.847656 -132.549438 505.311523
v 1247.260132 -129.812836 527.311523
v 1246.865601 -130.577240 505.311523
v 1247.260132 -129.812836 505.311523
v 1248.345459 -125.248840 530.711548
v 1248.345459 -125.248840 527.311523
v 1246.911133 -127.974136 527.311523
v 1246.911133 -127.974136 530.711548
v 1248.338013 -129.881042 505.311523
v 1251.197388 -131.379333 505.311523
v 1248.338013 -129.881042 530.711548
v 1252.429688 -132.025146 530.711548
v 1252.429688 -132.025146 505.311523
v 1250.765869 -116.301041 527.311523
v 1250.765869 -116.301041 519.311523
v 1249.405151 -115.580536 519.311523
v 1249.405151 -115.580536 527.311523
v 1250.087402 -112.314537 463.149597
v 1249.366943 -113.675537 463.149597
v 1249.366943 -113.675537 485.311523
v 1250.087402 -112.314537 485.311523
v 1251.563232 -109.526237 463.149597
v 1250.842896 -110.887138 463.149597
v 1250.842896 -110.887138 485.311523
v 1251.563232 -109.526237 485.311523
v 1252.558838 -115.753937 519.311523
v 1252.558838 -115.753937 485.311523
v 1251.501465 -115.194740 485.311523
v 1249.836548 -114.314041 519.311523
v 1249.836548 -114.314041 485.311523
v 1252.046509 -134.828033 472.311523
v 1252.779663 -133.473938 472.311523
v 1252.779663 -133.473938 503.048370
v 1252.046509 -134.828033 503.048370
v 1253.392822 -110.098740 485.311523
v 1253.392822 -110.098740 463.149597
v 1252.030029 -109.381943 463.149597
v 1252.030029 -109.381943 485.311523
v 1255.500244 -111.207237 463.149597
v 1254.137451 -110.490440 463.149597
v 1254.137451 -110.490440 485.311523
v 1255.500244 -111.207237 485.311523
v 1257.607910 -112.315742 463.149597
v 1256.245117 -111.598938 463.149597
v 1256.245117 -111.598938 485.311523
v 1257.607910 -112.315742 485.311523
v 1259.715332 -113.424240 485.311523
v 1259.715332 -113.424240 463.149597
v 1258.352539 -112.707436 463.149597
v 1258.352539 -112.707436 485.311523
v 1261.822998 -114.532738 485.311523
v 1261.822998 -114.532738 463.149597
v 1260.460083 -113.815941 463.149597
v 1260.460083 -113.815941 485.311523
v 1263.930542 -115.641235 485.311523
v 1263.930542 -115.641235 463.149597
v 1262.567627 -114.924438 463.149597
v 1262.567627 -114.924438 485.311523
v 1266.037964 -116.749741 485.311523
v 1266.037964 -116.749741 463.149597
v 1264.675171 -116.032936 463.149597
v 1264.675171 -116.032936 485.311523
v 1252.265381 -143.671738 463.149597
v 1252.973389 -142.304245 463.149597
v 1252.973389 -142.304245 472.311523
v 1252.265381 -143.671738 472.311523
v 1253.259766 -141.751236 472.311523
v 1253.259766 -141.751236 463.149597
v 1253.967773 -140.383835 463.149597
v 1253.967773 -140.383835 472.311523
v 1254.254150 -139.830734 463.149597
v 1254.962158 -138.463333 463.149597
v 1254.962158 -138.463333 472.311523
v 1254.254150 -139.830734 472.311523
v 1255.248413 -137.910233 463.149597
v 1255.956421 -136.542831 463.149597
v 1255.956421 -136.542831 472.311523
v 1255.248413 -137.910233 472.311523
v 1256.242798 -135.989746 472.311523
v 1256.242798 -135.989746 463.149597
v 1256.950684 -134.622345 463.149597
v 1256.950684 -134.622345 472.311523
v 1262.420410 -120.931641 485.311523
v 1263.279175 -121.382637 527.311523
v 1263.279175 -121.382637 485.311523
v 1260.061401 -119.692940 485.311523
v 1260.061401 -119.692940 527.311523
v 1257.621582 -118.411736 485.311523
v 1253.736206 -116.371536 485.311523
v 1259.189453 -119.235039 527.468689
v 1253.736206 -116.371536 530.711548
v 1259.189453 -119.235039 530.711548
v 1260.061401 -119.692940 527.468689
v 1254.575195 -132.951233 525.311523
v 1254.575195 -132.951233 472.311523
v 1255.930908 -133.681335 472.311523
v 1255.930908 -133.681335 525.311523
v 1253.714600 -131.709946 525.311523
v 1254.432983 -130.347946 525.311523
v 1254.432983 -130.347946 530.711548
v 1253.714600 -131.709946 530.711548
v 1256.587769 -128.598038 525.311523
v 1257.809692 -126.293938 525.311523
v 1257.899658 -126.124336 527.311523
v 1256.587769 -128.598038 529.311523
v 1257.899658 -126.124336 525.311523
v 1258.030762 -125.877342 529.311523
v 1258.030762 -125.877342 527.311523
v 1257.899658 -126.124336 529.311523
v 1257.260254 -134.005432 463.149597
v 1257.982788 -132.645645 463.149597
v 1257.982788 -132.645645 523.746948
v 1257.260254 -134.005432 523.746948
v 1258.385864 -131.886932 463.149597
v 1259.108276 -130.527145 463.149597
v 1259.108276 -130.527145 523.746948
v 1258.385864 -131.886932 523.746948
v 1259.511475 -129.768341 523.746948
v 1259.511475 -129.768341 463.149597
v 1260.233887 -128.408539 463.149597
v 1260.233887 -128.408539 523.746948
v 1260.676880 -127.574638 525.311523
v 1260.636963 -127.649841 463.149597
v 1262.804443 -123.570335 463.149597
v 1260.636963 -127.649841 525.311523
v 1262.804443 -123.570335 527.311523
v 1260.676880 -127.574638 527.311523
v 1263.816528 -121.665237 485.311523
v 1263.207520 -122.811638 463.149597
v 1263.929932 -121.451836 463.149597
v 1263.207520 -122.811638 527.311523
v 1263.929932 -121.451836 485.311523
v 1263.816528 -121.665237 527.311523
v 1264.333008 -120.693039 463.149597
v 1265.055542 -119.333237 463.149597
v 1265.055542 -119.333237 484.536896
v 1264.333008 -120.693039 484.536896
v 1265.458618 -118.574539 484.536896
v 1265.458618 -118.574539 463.149597
v 1266.181030 -117.214737 463.149597
v 1266.181030 -117.214737 484.536896
vt 0.000000 0.000000
vt 1.000000 0.000000
vt 1.000000 0.666670
vt 0.000000 0.666670
vt 0.000000 0.000000
vt 0.333330 0.000000
vt 0.333330 0.666670
vt 0.000000 0.666670
vt 0.232290 0.666670
vt 0.000000 0.000000
vt 1.000000 0.000000
vt 0.000000 0.666670
vt 1.000000 0.666670
vt 0.000000 0.666670
vt 0.000000 0.000000
vt 1.000000 0.000000
vt 1.000000 0.666670
vt 0.000000 0.666670
vt 0.000000 0.000000
vt 0.333330 0.000000
vt 0.333330 0.666670
vt 0.000000 6.000000
vt 0.000000 0.000000
vt 0.666670 0.000000
vt 0.666670 6.000000
vt 0.000000 0.000000
vt 1.666670 0.000000
vt 1.666670 6.000000
vt 0.000000 6.000000
vt 0.000000 0.000000
vt 0.666670 0.000000
vt 0.666670 6.000000
vt 0.000000 6.000000
vt 0.061420 0.000000
vt 1.081330 3.600000
vt 0.000000 0.000000
vt 1.000000 3.666670
vt 0.000000 6.000000
vt 1.081330 0.000000
vt 1.458160 0.000000
vt 2.333330 0.000000
vt 2.333330 3.600000
vt 1.081330 3.666670
vt 1.000000 6.000000
vt 0.419050 0.000000
vt 0.000000 2.000000
vt 0.000000 0.000000
vt 0.666670 2.000000
vt 0.480450 0.000000
vt 0.666670 0.000000
vt 0.000000 0.333330
vt 0.000000 0.000000
vt 0.666670 0.000000
vt 0.666670 0.333330
vt 0.000000 0.000000
vt 0.698820 0.000000
vt 0.000000 2.666670
vt 1.000000 2.666670
vt 1.000000 0.000000
vt 0.000000 0.666670
vt 0.000000 0.000000
vt 0.333330 0.000000
vt 0.333330 0.666670
vt 0.000000 0.000000
vt 0.333330 0.000000
vt 0.333330 2.000000
vt 0.000000 2.000000
vt 0.000000 3.666670
vt 0.000000 0.000000
vt 0.258920 0.000000
vt 0.666670 3.666670
vt 0.666670 0.000000
vt 0.000000 0.000000
vt 0.333330 0.000000
vt 0.333330 3.333330
vt 0.000000 3.333330
vt 0.000000 2.000000
vt 0.000000 0.000000
vt 0.333330 0.000000
vt 0.333330 2.000000
vt 0.000000 0.000000
vt 0.333330 0.000000
vt 0.333330 2.000000
vt 0.000000 2.000000
vt 0.000000 0.000000
vt 0.333330 0.000000
vt 0.333330 2.000000
vt 0.000000 2.000000
vt 0.000000 2.000000
vt 0.000000 0.000000
vt 0.333330 0.000000
vt 0.333330 2.000000
vt 0.000000 2.000000
vt 0.000000 0.000000
vt 0.333330 0.000000
vt 0.333330 2.000000
vt 0.000000 2.000000
vt 0.000000 0.000000
vt 0.333330 0.000000
vt 0.333330 2.000000
vt 0.000000 2.000000
vt 0.000000 0.000000
vt 0.333330 0.000000
vt 0.333330 2.000000
vt 0.000000 0.000000
vt 0.333330 0.000000
vt 0.333330 0.666670
vt 0.000000 0.666670
vt 0.000000 0.666670
vt 0.000000 0.000000
vt 0.333330 0.000000
vt 0.333330 0.666670
vt 0.000000 0.000000
vt 0.333330 0.000000
vt 0.333330 0.666670
vt 0.000000 0.666670
vt 0.000000 0.000000
vt 0.333330 0.000000
vt 0.333330 0.666670
vt 0.000000 0.666670
vt 0.000000 0.666670
vt 0.000000 0.000000
vt 0.333330 0.000000
vt 0.333330 0.666670
vt 0.209980 0.000000
vt 0.000000 4.317180
vt 0.000000 0.000000
vt 0.786780 0.000000
vt 0.786780 4.317180
vt 1.383330 0.000000
vt 2.333330 0.000000
vt 1.000000 4.333330
vt 2.333330 4.666670
vt 1.000000 4.666670
vt 0.786780 4.333330
vt 0.000000 5.000000
vt 0.000000 0.000000
vt 0.333330 0.000000
vt 0.333330 5.000000
vt 0.000000 0.000000
vt 0.333330 0.000000
vt 0.333330 0.333330
vt 0.000000 0.333330
vt 0.000000 0.000000
vt 0.564580 0.000000
vt 0.606160 0.166670
vt 0.000000 0.333330
vt 0.606160 0.000000
vt 0.666670 0.333330
vt 0.666670 0.166670
vt 0.606160 0.333330
vt 0.000000 0.000000
vt 0.333330 0.000000
vt 0.333330 5.666670
vt 0.000000 5.666670
vt 0.000000 0.000000
vt 0.333330 0.000000
vt 0.333330 5.666670
vt 0.000000 5.666670
vt 0.000000 5.666670
vt 0.000000 0.000000
vt 0.333330 0.000000
vt 0.333330 5.666670
vt 0.018420 5.812970
vt 0.000000 0.000000
vt 1.000000 0.000000
vt 0.000000 5.812970
vt 1.000000 6.000000
vt 0.018420 6.000000
vt 0.000000 6.000000
vt 0.000000 0.000000
vt 0.281020 2.072440
vt 0.333330 0.000000
vt 0.333330 2.072440
vt 0.281020 6.000000
vt 0.000000 0.000000
vt 0.333330 0.000000
vt 0.333330 2.000000
vt 0.000000 2.000000
vt 0.000000 0.000000
vt 0.333330 0.000000
vt 0.333330 2.000000
vt 0.000000 2.000000
vt 0.000000 2.000000
vt 0.000000 0.000000
vt 0.333330 0.000000
vt 0.333330 2.000000
vn -0.8904 0.4553 0.0000
vn -0.8903 0.4553 0.0000
vn -0.4649 -0.8854 0.0000
vn -0.4647 -0.8855 0.0000
vn -0.8837 0.4680 0.0000
vn -0.8837 0.4681 0.0000
vn -0.4658 -0.8849 0.0000
vn -0.4661 -0.8847 0.0000
vn 0.8886 -0.4586 0.0000
vn 0.8886 -0.4587 0.0000
vn -0.8849 0.4658 0.0000
vn -0.4641 -0.8858 0.0000
vn -0.4642 -0.8857 0.0000
vn 0.4679 0.8838 0.0000
vn 0.4680 0.8837 0.0000
vn -0.8838 0.4678 0.0000
vn -0.8838 0.4679 0.0000
vn 0.4675 0.8840 0.0000
vn 0.4676 0.8839 0.0000
vn 0.8794 -0.4761 0.0000
vn 0.8793 -0.4762 0.0000
vn 0.4655 0.8850 0.0000
vn 0.4654 0.8851 0.0000
vn 0.4655 0.8851 0.0000
vn 0.8880 -0.4598 0.0000
vn 0.8880 -0.4597 0.0000
vn 0.8880 -0.4599 0.0000
vn 0.8881 -0.4597 0.0000
vn 0.4650 0.8853 0.0000
vn 0.4649 0.8854 0.0000
vn 0.4649 0.8853 0.0000
vn -0.4741 -0.8805 0.0000
vn -0.4742 -0.8804 0.0000
vn 0.8845 -0.4666 0.0000
vn 0.8845 -0.4665 0.0000
vn 0.8834 -0.4686 -0.0000
vn 0.8835 -0.4685 0.0000
vn 0.8838 -0.4678 -0.0000
vn 0.8833 -0.4688 0.0000
vn 0.8832 -0.4691 0.0000
vn 0.8830 -0.4693 0.0000
vn 0.8831 -0.4692 0.0000
vn 0.8831 -0.4691 0.0000
vn 0.8837 -0.4680 0.0000
vn -0.4642 -0.8858 -0.0000
vn -0.8839 0.4678 0.0000
vn -0.8839 0.4677 0.0000
s off
f 1/1/1 2/2/1 3/3/1
f 4/4/2 1/1/2 3/3/2
f 5/5/3 6/6/3 7/7/3
f 8/8/3 5/5/3 7/7/3
f 9/9/3 10/10/3 11/11/3
f 12/12/4 10/10/4 9/9/4
f 9/9/3 11/11/3 13/13/3
f 14/14/3 15/15/3 16/16/3
f 14/14/3 16/16/3 17/17/3
f 18/18/3 19/19/3 20/20/3
f 18/18/3 20/20/3 21/21/3
f 22/22/5 23/23/5 24/24/5
f 22/22/5 24/24/5 25/25/5
f 26/26/6 27/27/6 28/28/6
f 29/29/5 26/26/5 28/28/5
f 30/30/5 31/31/5 32/32/5
f 33/33/6 30/30/6 32/32/6
f 34/34/7 35/35/7 36/36/7
f 35/35/7 37/37/7 36/36/7
f 37/37/7 38/38/7 36/36/7
f 39/39/7 35/35/7 34/34/7
f 40/40/7 35/35/7 39/39/7
f 40/40/7 41/41/7 42/42/7
f 40/40/7 42/42/7 35/35/7
f 35/35/8 43/43/8 37/37/8
f 37/37/7 44/44/7 38/38/7
f 45/45/9 46/46/9 47/47/9
f 48/48/10 45/45/10 49/49/10
f 45/45/9 48/48/9 46/46/9
f 50/50/9 48/48/9 49/49/9
f 51/51/11 52/52/11 53/53/11
f 51/51/11 53/53/11 54/54/11
f 55/55/12 56/56/12 57/57/12
f 58/58/13 56/56/13 59/59/13
f 60/60/14 61/61/14 62/62/14
f 60/60/15 62/62/15 63/63/15
f 64/64/16 65/65/16 66/66/16
f 67/67/17 64/64/17 66/66/17
f 72/68/18 73/69/18 74/70/18
f 75/71/19 74/70/19 76/72/19
f 75/71/18 72/68/18 74/70/18
f 77/73/20 78/74/20 79/75/20
f 80/76/21 77/73/21 79/75/21
f 81/77/22 82/78/22 83/79/22
f 81/77/22 83/79/22 84/80/22
f 85/81/22 86/82/22 87/83/22
f 88/84/22 85/81/22 87/83/22
f 89/85/22 90/86/22 91/87/22
f 92/88/22 89/85/22 91/87/22
f 93/89/22 94/90/22 95/91/22
f 93/89/22 95/91/22 96/92/22
f 97/93/22 98/94/22 99/95/22
f 97/93/23 99/95/23 100/96/23
f 101/97/24 102/98/24 103/99/24
f 101/97/22 103/99/22 104/100/22
f 105/101/22 106/102/22 107/103/22
f 105/101/22 107/103/22 108/104/22
f 109/105/25 110/106/25 111/107/25
f 112/108/26 109/105/26 111/107/26
f 113/109/25 114/110/25 115/111/25
f 113/109/27 115/111/27 116/112/27
f 117/113/27 118/114/27 119/115/27
f 120/116/25 117/113/25 119/115/25
f 121/117/27 122/118/27 123/119/27
f 124/120/25 121/117/25 123/119/25
f 125/121/28 126/122/28 127/123/28
f 125/121/27 127/123/27 128/124/27
f 129/125/29 130/126/29 131/127/29
f 129/125/30 132/128/30 133/129/30
f 129/125/30 133/129/30 130/126/30
f 134/130/31 133/129/31 132/128/31
f 134/130/30 135/131/30 136/132/30
f 134/130/30 136/132/30 133/129/30
f 135/131/30 137/133/30 136/132/30
f 136/132/30 137/133/30 138/134/30
f 136/132/30 139/135/30 133/129/30
f 140/136/32 141/137/32 142/138/32
f 140/136/33 142/138/33 143/139/33
f 144/140/34 145/141/34 146/142/34
f 147/143/35 144/140/35 146/142/35
f 148/144/36 149/145/36 150/146/36
f 151/147/37 148/144/37 150/146/37
f 150/146/38 149/145/38 152/148/38
f 153/149/39 150/146/39 154/150/39
f 155/151/39 150/146/39 153/149/39
f 155/151/36 151/147/36 150/146/36
f 156/152/40 157/153/40 158/154/40
f 159/155/41 156/152/41 158/154/41
f 160/156/42 161/157/42 162/158/42
f 163/159/40 160/156/40 162/158/40
f 164/160/40 165/161/40 166/162/40
f 164/160/42 166/162/42 167/163/42
f 168/164/42 169/165/42 170/166/42
f 171/167/41 169/165/41 168/164/41
f 172/168/42 168/164/42 170/166/42
f 173/169/42 168/164/42 172/168/42
f 177/170/43 175/171/43 174/172/43
f 174/172/44 176/173/44 178/174/44
f 179/175/43 177/170/43 174/172/43
f 180/176/42 181/177/42 182/178/42
f 183/179/42 180/176/42 182/178/42
s 1
f 57/57/45 56/56/45 58/58/45
f 68/180/17 69/181/17 70/182/46
f 71/183/47 68/180/17 70/182/46
f 174/172/41 175/171/41 176/173/41
f 184/184/43 185/185/43 186/186/43
f 184/184/43 186/186/43 187/187/43
