# Blender v3.0.1 OBJ File: 'rockerfeller_plaza.blend'
# www.blender.org
o geometryt000010000010000110010110000110000110100000010100st139
v 764.712341 -193.840179 178.513443
v 764.712341 -193.840179 149.948151
v 767.428650 -195.304489 149.948151
v 767.428650 -195.304489 178.513443
v 768.161316 -195.699478 178.513443
v 768.161316 -195.699478 149.948151
v 772.235779 -197.895981 149.948151
v 772.235779 -197.895981 178.513443
v 772.968506 -198.290878 149.948151
v 775.684814 -199.755280 149.948151
v 775.684814 -199.755280 178.513443
v 772.968506 -198.290878 178.513443
v 776.417480 -200.150284 149.948151
v 780.491943 -202.346680 149.948151
v 780.491943 -202.346680 178.513443
v 776.417480 -200.150284 178.513443
v 781.224670 -202.741684 149.948151
v 783.940918 -204.206085 149.948151
v 783.940918 -204.206085 178.513443
v 781.224670 -202.741684 178.513443
v 767.452332 -188.030182 149.948151
v 765.256836 -192.105179 149.948151
v 765.256836 -192.105179 178.513443
v 767.452332 -188.030182 178.513443
v 772.354309 -189.609085 178.513443
v 772.354309 -189.609085 149.948151
v 768.279053 -187.414078 149.948151
v 768.279053 -187.414078 178.513443
v 776.225159 -171.773788 178.513443
v 776.225159 -171.773788 149.948151
v 772.563965 -178.564392 149.948151
v 772.563965 -178.564392 178.513443
v 772.729553 -179.167191 178.513443
v 772.729553 -179.167191 149.948151
v 776.803162 -181.365280 149.948151
v 776.803162 -181.365280 178.513443
v 776.791077 -182.297684 149.948151
v 773.129944 -189.088287 149.948151
v 773.129944 -189.088287 178.513443
v 776.791077 -182.297684 178.513443
v 779.459351 -173.004578 178.513443
v 779.459351 -173.004578 149.948151
v 776.743286 -171.539780 149.948151
v 776.743286 -171.539780 178.513443
v 784.264404 -175.596085 149.948151
v 780.190308 -173.398880 149.948151
v 780.190308 -173.398880 178.513443
v 784.264404 -175.596085 178.513443
v 787.711426 -177.455078 149.948151
v 784.995361 -175.990280 149.948151
v 784.995361 -175.990280 178.513443
v 787.711426 -177.455078 178.513443
v 792.516479 -180.046585 178.513443
v 792.516479 -180.046585 149.948151
v 788.442444 -177.849380 149.948151
v 788.442444 -177.849380 178.513443
v 795.963501 -181.905685 178.513443
v 795.963501 -181.905685 149.948151
v 793.247437 -180.440781 149.948151
v 793.247437 -180.440781 178.513443
v 783.576294 -194.633286 178.513443
v 783.576294 -194.633286 149.948151
v 787.240479 -187.844391 149.948151
v 787.240479 -187.844391 178.513443
v 786.861694 -197.283478 149.948151
v 784.146545 -195.816879 149.948151
v 784.146545 -195.816879 178.513443
v 786.861694 -197.283478 178.513443
v 784.554016 -203.794189 149.948151
v 787.475769 -198.357880 149.948151
v 787.475769 -198.357880 178.513443
v 784.554016 -203.794189 178.513443
v 788.541077 -187.669083 178.513443
v 788.541077 -187.669083 149.948151
v 791.258911 -189.130478 149.948151
v 791.258911 -189.130478 178.513443
v 795.069031 -184.292786 178.513443
v 792.400269 -189.246780 149.948151
v 796.059082 -182.454987 149.948151
v 792.400269 -189.246780 178.513443
v 796.059082 -182.454987 178.513443
vt 0.000000 2.000000
vt 0.000000 0.000000
vt 0.500000 0.000000
vt 0.500000 2.000000
vt 0.000000 2.000000
vt 0.000000 0.000000
vt 0.750000 0.000000
vt 0.750000 2.000000
vt 0.000000 0.000000
vt 0.500000 0.000000
vt 0.500000 2.000000
vt 0.000000 2.000000
vt 0.000000 0.000000
vt 0.750000 0.000000
vt 0.750000 2.000000
vt 0.000000 2.000000
vt 0.000000 0.000000
vt 0.500000 0.000000
vt 0.500000 2.000000
vt 0.000000 2.000000
vt 0.000000 0.000000
vt 0.750000 0.000000
vt 0.750000 2.000000
vt 0.000000 2.000000
vt 0.000000 2.000000
vt 0.000000 0.000000
vt 0.750000 0.000000
vt 0.750000 2.000000
vt 0.000000 2.000000
vt 0.000000 0.000000
vt 1.250000 0.000000
vt 1.250000 2.000000
vt 0.000000 2.000000
vt 0.000000 0.000000
vt 0.750000 0.000000
vt 0.750000 2.000000
vt 0.000000 2.000000
vt 0.000000 0.000000
vt 0.500000 0.000000
vt 0.500000 2.000000
vt 0.000000 0.000000
vt 0.750000 0.000000
vt 0.750000 2.000000
vt 0.000000 2.000000
vt 0.000000 0.000000
vt 0.500000 0.000000
vt 0.500000 2.000000
vt 0.000000 2.000000
vt 0.000000 2.000000
vt 0.000000 0.000000
vt 0.750000 0.000000
vt 0.750000 2.000000
vt 0.000000 2.000000
vt 0.000000 0.000000
vt 0.500000 0.000000
vt 0.500000 2.000000
vt 0.000000 2.000000
vt 0.000000 0.000000
vt 1.250000 0.000000
vt 1.250000 2.000000
vt 0.000000 0.000000
vt 0.500000 0.000000
vt 0.500000 2.000000
vt 0.000000 2.000000
vt 0.000000 0.000000
vt 1.000000 0.000000
vt 1.000000 2.000000
vt 0.000000 2.000000
vt 0.000000 2.000000
vt 0.000000 0.000000
vt 0.500000 0.000000
vt 0.500000 2.000000
vt 0.911770 2.000000
vt 0.000000 0.000000
vt 1.250000 0.000000
vt 0.000000 2.000000
vt 1.250000 2.000000
vt 0.000000 0.000000
vt 1.250000 0.000000
vt 1.250000 2.000000
vt 0.000000 2.000000
vn -0.4745 -0.8802 0.0000
vn -0.4746 -0.8802 0.0000
vn -0.4745 -0.8803 0.0000
vn -0.8803 0.4743 0.0000
vn -0.8804 0.4743 0.0000
vn 0.4742 0.8804 0.0000
vn -0.8802 0.4746 0.0000
vn -0.4749 -0.8801 0.0000
vn 0.4747 0.8802 0.0000
vn 0.4747 0.8801 0.0000
vn 0.8800 -0.4750 0.0000
vn 0.4752 0.8799 0.0000
vn 0.4753 0.8798 0.0000
vn 0.8809 -0.4734 0.0000
vn 0.8808 -0.4734 0.0000
vn -0.4736 -0.8808 0.0000
vn 0.8804 -0.4743 0.0000
vn 0.8804 -0.4742 0.0000
s off
f 1/1/1 2/2/1 3/3/1
f 1/1/1 3/3/1 4/4/1
f 5/5/1 6/6/1 7/7/1
f 5/5/1 7/7/1 8/8/1
f 9/9/1 10/10/1 11/11/1
f 12/12/2 9/9/2 11/11/2
f 13/13/1 14/14/1 15/15/1
f 16/16/3 13/13/3 15/15/3
f 17/17/1 18/18/1 19/19/1
f 20/20/2 17/17/2 19/19/2
f 21/21/4 22/22/4 23/23/4
f 24/24/5 21/21/5 23/23/5
f 25/25/6 26/26/6 27/27/6
f 25/25/6 27/27/6 28/28/6
f 29/29/7 30/30/7 31/31/7
f 29/29/7 31/31/7 32/32/7
f 33/33/8 34/34/8 35/35/8
f 33/33/8 35/35/8 36/36/8
f 41/37/9 42/38/9 43/39/9
f 41/37/9 43/39/9 44/40/9
f 45/41/9 46/42/9 47/43/9
f 48/44/9 45/41/9 47/43/9
f 49/45/9 50/46/9 51/47/9
f 52/48/9 49/45/9 51/47/9
f 53/49/9 54/50/9 55/51/9
f 53/49/9 55/51/9 56/52/9
f 57/53/10 58/54/10 59/55/10
f 57/53/10 59/55/10 60/56/10
f 61/57/11 62/58/11 63/59/11
f 61/57/11 63/59/11 64/60/11
f 65/61/12 66/62/12 67/63/12
f 68/64/13 65/61/13 67/63/13
f 69/65/14 70/66/14 71/67/14
f 72/68/15 69/65/15 71/67/15
f 73/69/16 74/70/16 75/71/16
f 73/69/16 75/71/16 76/72/16
f 77/73/17 78/74/17 79/75/17
f 80/76/17 78/74/17 77/73/17
f 77/73/18 79/75/18 81/77/18
s 1
f 37/78/7 38/79/7 39/80/7
f 40/81/7 37/78/7 39/80/7
