# Blender v3.0.1 OBJ File: 'rockerfeller_plaza.blend'
# www.blender.org
o geometryt000010000010000110010110000110000110100000100100st49
v 414.997498 -214.040726 612.205750
v 414.834290 -214.344727 649.690735
v 414.997498 -214.040726 649.690735
v 415.877106 -212.402817 612.205750
v 414.834290 -214.344727 611.590759
v 415.877106 -212.402817 649.690735
v 416.472595 -211.293930 649.690735
v 416.472595 -211.293930 612.205750
v 417.352203 -209.656128 612.205750
v 417.352203 -209.656128 649.690735
v 417.947693 -208.547226 649.690735
v 417.947693 -208.547226 612.205750
v 418.827301 -206.909317 612.205750
v 418.827301 -206.909317 649.690735
v 419.422791 -205.800430 649.690735
v 419.422791 -205.800430 612.205750
v 420.302307 -204.162521 612.205750
v 420.302307 -204.162521 649.690735
v 420.897888 -203.053619 649.690735
v 420.897888 -203.053619 612.205750
v 421.777405 -201.415817 612.205750
v 421.777405 -201.415817 649.690735
v 422.372894 -200.306931 649.690735
v 422.372894 -200.306931 612.205750
v 427.870117 -190.070526 611.590759
v 423.252502 -198.669022 612.205750
v 423.252502 -198.669022 649.690735
v 423.847992 -197.560120 649.690735
v 423.847992 -197.560120 612.205750
v 424.727600 -195.922226 612.205750
v 424.727600 -195.922226 649.690735
v 425.323120 -194.813324 649.690735
v 425.323120 -194.813324 612.205750
v 426.202698 -193.175522 612.205750
v 426.202698 -193.175522 649.690735
v 426.798218 -192.066620 649.690735
v 426.798218 -192.066620 612.205750
v 427.677795 -190.428726 612.205750
v 427.677795 -190.428726 649.690735
v 427.870117 -190.070526 649.690735
v 428.273315 -189.319824 612.205750
v 428.273315 -189.319824 649.690735
v 429.152802 -187.681931 612.205750
v 429.316101 -187.378021 611.590759
v 429.152802 -187.681931 649.690735
v 429.316101 -187.378021 649.690735
v 438.223297 -226.896027 612.205750
v 438.527283 -227.059128 649.690735
v 438.223297 -226.896027 649.690735
v 436.585083 -226.016922 612.205750
v 438.527283 -227.059128 611.590759
v 436.585083 -226.016922 649.690735
v 435.542419 -225.457428 649.690735
v 435.542419 -225.457428 612.205750
v 433.904297 -224.578323 612.205750
v 433.904297 -224.578323 649.690735
v 432.861603 -224.018723 649.690735
v 432.861603 -224.018723 612.205750
v 431.223389 -223.139618 612.205750
v 431.223389 -223.139618 649.690735
v 430.180695 -222.580124 649.690735
v 430.180695 -222.580124 612.205750
v 428.542603 -221.701019 612.205750
v 428.542603 -221.701019 649.690735
v 427.499817 -221.141418 649.690735
v 427.499817 -221.141418 612.205750
v 425.861694 -220.262421 612.205750
v 414.834290 -214.344727 611.590759
v 425.861694 -220.262421 649.690735
v 424.819000 -219.702820 649.690735
v 424.819000 -219.702820 612.205750
v 423.180908 -218.823730 612.205750
v 423.180908 -218.823730 649.690735
v 422.138092 -218.264221 649.690735
v 422.138092 -218.264221 612.205750
v 420.500000 -217.385117 612.205750
v 420.500000 -217.385117 649.690735
v 419.457275 -216.825531 649.690735
v 419.457275 -216.825531 612.205750
v 417.819092 -215.946426 612.205750
v 417.819092 -215.946426 649.690735
v 416.776398 -215.386917 649.690735
v 416.776398 -215.386917 612.205750
v 415.138306 -214.507828 612.205750
v 415.138306 -214.507828 649.690735
v 414.834290 -214.344727 649.690735
v 429.615906 -187.538727 612.205750
v 429.311798 -187.375717 649.690735
v 429.615906 -187.538727 649.690735
v 431.254517 -188.416931 612.205750
v 429.311798 -187.375717 611.590759
v 431.254517 -188.416931 649.690735
v 432.219604 -188.934219 649.690735
v 432.219604 -188.934219 612.205750
v 433.858215 -189.812424 612.205750
v 433.858215 -189.812424 649.690735
v 434.823181 -190.329727 649.690735
v 434.823181 -190.329727 612.205750
v 438.805481 -192.464020 611.590759
v 436.461792 -191.207916 612.205750
v 436.461792 -191.207916 649.690735
v 437.426880 -191.725220 649.690735
v 437.426880 -191.725220 612.205750
v 439.065491 -192.603424 612.205750
v 439.065491 -192.603424 649.690735
v 440.030579 -193.120728 649.690735
v 440.030579 -193.120728 612.205750
v 440.793091 -193.529419 611.590759
v 441.669098 -193.998917 612.205750
v 441.669098 -193.998917 649.690735
v 442.634216 -194.516129 649.690735
v 442.634216 -194.516129 612.205750
v 444.272797 -195.394424 612.205750
v 444.272797 -195.394424 649.690735
v 445.237915 -195.911621 649.690735
v 445.237915 -195.911621 612.205750
v 446.233887 -196.445526 611.590759
v 446.876495 -196.789917 612.205750
v 446.876495 -196.789917 649.690735
v 447.841492 -197.307129 649.690735
v 447.841492 -197.307129 612.205750
v 449.480103 -198.185425 612.205750
v 449.784180 -198.348328 611.590759
v 449.480103 -198.185425 649.690735
v 449.784180 -198.348328 649.690735
v 452.855591 -200.401718 612.205750
v 453.018921 -200.097824 649.690735
v 452.855591 -200.401718 649.690735
v 451.975403 -202.039230 612.205750
v 452.160095 -201.695724 611.590759
v 453.018921 -200.097824 611.590759
v 451.975403 -202.039230 649.690735
v 451.379517 -203.147919 649.690735
v 451.379517 -203.147919 612.205750
v 450.499298 -204.785522 612.205750
v 450.499298 -204.785522 649.690735
v 449.903381 -205.894119 649.690735
v 449.903381 -205.894119 612.205750
v 449.023193 -207.531723 612.205750
v 449.023193 -207.531723 649.690735
v 448.427307 -208.640427 649.690735
v 448.427307 -208.640427 612.205750
v 447.547180 -210.277924 612.205750
v 447.547180 -210.277924 649.690735
v 446.951202 -211.386627 649.690735
v 446.951202 -211.386627 612.205750
v 446.071106 -213.024124 612.205750
v 446.071106 -213.024124 649.690735
v 445.475098 -214.132828 649.690735
v 445.475098 -214.132828 612.205750
v 444.595001 -215.770416 612.205750
v 438.527283 -227.059128 611.590759
v 444.595001 -215.770416 649.690735
v 443.998993 -216.879028 649.690735
v 443.998993 -216.879028 612.205750
v 443.118896 -218.516617 612.205750
v 443.118896 -218.516617 649.690735
v 442.523010 -219.625320 649.690735
v 442.523010 -219.625320 612.205750
v 441.642792 -221.262817 612.205750
v 441.642792 -221.262817 649.690735
v 441.046906 -222.371521 649.690735
v 441.046906 -222.371521 612.205750
v 440.166687 -224.009018 612.205750
v 440.166687 -224.009018 649.690735
v 439.570801 -225.117722 649.690735
v 439.570801 -225.117722 612.205750
v 438.690613 -226.755325 612.205750
v 438.690613 -226.755325 649.690735
v 438.527283 -227.059128 649.690735
v 450.571106 -198.787720 612.205750
v 449.776611 -198.362427 649.690735
v 450.571106 -198.787720 649.690735
v 453.004700 -200.090225 611.590759
v 452.210205 -199.664917 612.205750
v 449.776611 -198.362427 611.590759
v 452.210205 -199.664917 649.690735
v 453.004700 -200.090225 649.690735
vt 12.105670 0.242210
vt 12.243670 15.005910
vt 12.105670 15.005910
vt 11.362030 0.242210
vt 12.243670 0.000000
vt 11.362030 15.005910
vt 10.858560 15.005910
vt 10.858560 0.242210
vt 10.114920 0.242210
vt 10.114920 15.005910
vt 9.611440 15.005910
vt 9.611440 0.242210
vt 8.867800 0.242210
vt 8.867800 15.005910
vt 8.364331 15.005910
vt 8.364331 0.242210
vt 7.620690 15.005910
vt 7.117210 15.005910
vt 7.620690 0.242210
vt 7.117210 0.242210
vt 6.373570 15.005910
vt 5.870100 15.005910
vt 6.373570 0.242210
vt 5.870100 0.242210
vt 1.222490 0.000000
vt 5.126460 0.242210
vt 5.126460 15.005910
vt 4.622980 15.005910
vt 4.622980 0.242210
vt 3.879340 0.242210
vt 3.879340 15.005910
vt 3.375870 15.005910
vt 3.375870 0.242210
vt 2.632230 0.242210
vt 2.632230 15.005910
vt 2.128760 15.005910
vt 2.128760 0.242210
vt 1.385110 0.242210
vt 1.385110 15.005910
vt 1.222490 15.005910
vt 0.881640 0.242210
vt 0.881640 15.005910
vt 0.138000 0.242210
vt 0.000000 0.000000
vt 0.138000 15.005910
vt 0.000000 15.005910
vt 10.617570 0.242210
vt 10.755570 15.005910
vt 10.617570 15.005910
vt 9.873930 0.242210
vt 10.755570 0.000000
vt 9.873930 15.005910
vt 9.400581 15.005910
vt 9.400581 0.242210
vt 8.656941 0.242210
vt 8.656941 15.005910
vt 8.183590 15.005910
vt 8.183590 0.242210
vt 7.439950 0.242210
vt 6.966600 0.242210
vt 6.222960 0.242210
vt 6.222960 15.005910
vt 5.749610 15.005910
vt 5.749610 0.242210
vt 0.000000 0.000000
vt 5.005960 15.005910
vt 4.532610 15.005910
vt 5.005960 0.242210
vt 4.532610 0.242210
vt 3.788970 0.242210
vt 3.788970 15.005910
vt 3.315620 15.005910
vt 3.315620 0.242210
vt 2.571980 0.242210
vt 2.571980 15.005910
vt 2.098630 15.005910
vt 2.098630 0.242210
vt 1.354990 0.242210
vt 1.354990 15.005910
vt 0.881640 15.005910
vt 0.881640 0.242210
vt 0.138000 0.242210
vt 0.138000 15.005910
vt 0.000000 15.005910
vt 9.152980 0.242210
vt 9.290981 15.005910
vt 9.152980 15.005910
vt 8.409340 0.242210
vt 9.290981 0.000000
vt 8.409340 15.005910
vt 7.971360 15.005910
vt 7.971360 0.242210
vt 7.227720 0.242210
vt 7.227720 15.005910
vt 6.789740 15.005910
vt 6.789740 0.242210
vt 4.982490 0.000000
vt 6.046100 0.242210
vt 6.046100 15.005910
vt 5.608120 15.005910
vt 5.608120 0.242210
vt 4.864480 0.242210
vt 4.864480 15.005910
vt 4.426500 15.005910
vt 4.426500 0.242210
vt 4.080440 0.000000
vt 3.682860 0.242210
vt 3.682860 15.005910
vt 3.244880 15.005910
vt 3.244880 0.242210
vt 2.501240 0.242210
vt 2.501240 15.005910
vt 2.063260 15.005910
vt 2.063260 0.242210
vt 1.611230 0.000000
vt 1.319620 0.242210
vt 1.319620 15.005910
vt 0.881640 15.005910
vt 0.881640 0.242210
vt 0.138000 0.242210
vt 0.000000 0.000000
vt 0.138000 15.005910
vt 0.000000 15.005910
vt 12.105680 0.242210
vt 12.243680 15.005910
vt 12.105680 15.005910
vt 11.518040 0.000000
vt 12.243680 0.000000
vt 11.362030 15.005910
vt 10.858560 15.005910
vt 11.362030 0.242210
vt 10.858560 0.242210
vt 10.114920 0.242210
vt 10.114920 15.005910
vt 9.611451 15.005910
vt 9.611451 0.242210
vt 8.867811 0.242210
vt 8.867811 15.005910
vt 8.364331 15.005910
vt 8.364331 0.242210
vt 7.620690 15.005910
vt 7.117220 15.005910
vt 7.620690 0.242210
vt 7.117220 0.242210
vt 6.373580 0.242210
vt 6.373580 15.005910
vt 5.870100 15.005910
vt 5.870100 0.242210
vt 0.000000 0.000000
vt 5.126460 15.005910
vt 4.622990 15.005910
vt 5.126460 0.242210
vt 4.622990 0.242210
vt 3.879340 15.005910
vt 3.375870 15.005910
vt 3.879340 0.242210
vt 3.375870 0.242210
vt 2.632230 0.242210
vt 2.632230 15.005910
vt 2.128760 15.005910
vt 2.128760 0.242210
vt 1.385120 0.242210
vt 1.385120 15.005910
vt 0.881640 15.005910
vt 0.881640 0.242210
vt 0.138000 0.242210
vt 0.138000 15.005910
vt 0.000000 15.005910
vt 1.104100 0.242210
vt 1.464560 15.005910
vt 1.104100 15.005910
vt 0.000000 0.000000
vt 0.360460 0.242210
vt 1.464560 0.000000
vt 0.360460 15.005910
vt 0.000000 15.005910
vt 7.439950 15.005910
vt 6.966600 15.005910
vn -0.8811 0.4730 0.0000
vn -0.8810 0.4732 -0.0001
vn -0.8810 0.4731 0.0000
vn -0.8810 0.4731 0.0001
vn -0.8810 0.4730 -0.0002
vn -0.8809 0.4733 0.0001
vn -0.8813 0.4726 0.0001
vn -0.8810 0.4732 0.0000
vn -0.8809 0.4733 0.0000
vn -0.8809 0.4733 0.0002
vn -0.8811 0.4729 -0.0005
vn -0.8811 0.4730 0.0002
vn -0.8810 0.4730 0.0000
vn -0.8810 0.4732 0.0002
vn -0.4727 -0.8812 0.0000
vn -0.4728 -0.8812 -0.0000
vn -0.4731 -0.8810 0.0000
vn -0.4729 -0.8811 -0.0001
vn -0.4729 -0.8811 0.0005
vn -0.4729 -0.8811 0.0000
vn -0.4727 -0.8812 0.0001
vn -0.4728 -0.8812 -0.0003
vn -0.4728 -0.8811 0.0000
vn -0.4724 -0.8814 0.0007
vn -0.4729 -0.8811 0.0001
vn -0.4728 -0.8812 0.0001
vn -0.4724 -0.8814 0.0002
vn -0.4730 -0.8811 0.0000
vn 0.4725 0.8813 0.0000
vn 0.4724 0.8814 0.0000
vn 0.4724 0.8814 -0.0002
vn 0.4723 0.8814 0.0002
vn 0.4723 0.8814 -0.0001
vn 0.4724 0.8814 0.0001
vn 0.4723 0.8814 0.0001
vn 0.4725 0.8813 0.0001
vn 0.4723 0.8814 0.0000
vn 0.4723 0.8814 -0.0003
vn 0.4724 0.8814 -0.0001
vn 0.4722 0.8815 0.0000
vn 0.8809 -0.4733 0.0000
vn 0.8808 -0.4734 -0.0000
vn 0.8808 -0.4735 0.0000
vn 0.8808 -0.4734 0.0001
vn 0.8808 -0.4735 0.0001
vn 0.8808 -0.4735 0.0003
vn 0.8809 -0.4734 0.0002
vn 0.8808 -0.4735 -0.0004
vn 0.8808 -0.4736 0.0000
vn 0.8811 -0.4730 0.0002
vn 0.8807 -0.4736 0.0003
vn 0.8808 -0.4735 -0.0003
vn 0.8808 -0.4734 0.0002
vn 0.8808 -0.4735 -0.0002
vn 0.8808 -0.4734 -0.0001
vn 0.4719 0.8816 0.0000
vn 0.4718 0.8817 -0.0001
vn 0.4719 0.8816 0.0001
vn 0.4720 0.8816 0.0000
vn -0.8809 0.4732 0.0000
vn -0.8810 0.4731 0.0002
vn -0.8809 0.4733 -0.0003
vn -0.8809 0.4733 -0.0005
vn -0.4730 -0.8811 0.0001
vn -0.4731 -0.8810 0.0001
vn -0.4732 -0.8810 -0.0004
vn -0.4731 -0.8810 -0.0002
vn -0.4732 -0.8810 -0.0003
vn -0.4730 -0.8811 -0.0005
vn 0.4727 0.8812 0.0004
vn 0.8808 -0.4735 -0.0001
vn 0.8808 -0.4735 0.0002
vn 0.8810 -0.4731 0.0000
vn 0.8808 -0.4736 0.0002
vn 0.8808 -0.4736 -0.0006
s off
f 1/1/1 2/2/1 3/3/1
f 4/4/2 5/5/2 1/1/2
f 2/2/1 1/1/1 5/5/1
f 6/6/3 7/7/3 4/4/3
f 7/7/3 8/8/3 4/4/3
f 4/4/3 8/8/3 5/5/3
f 8/8/4 9/9/4 5/5/4
f 10/10/3 11/11/3 9/9/3
f 11/11/3 12/12/3 9/9/3
f 5/5/5 9/9/5 12/12/5
f 5/5/6 12/12/6 13/13/6
f 14/14/3 15/15/3 13/13/3
f 15/15/3 16/16/3 13/13/3
f 5/5/7 13/13/7 16/16/7
f 18/17/8 19/18/8 17/19/8
f 19/18/8 20/20/8 17/19/8
f 22/21/3 23/22/3 21/23/3
f 23/22/3 24/24/3 21/23/3
f 21/23/9 24/24/9 25/25/9
f 5/5/3 21/23/3 25/25/3
f 24/24/9 26/26/9 25/25/9
f 27/27/3 28/28/3 26/26/3
f 28/28/3 29/29/3 26/26/3
f 26/26/10 29/29/10 25/25/10
f 29/29/11 30/30/11 25/25/11
f 31/31/3 32/32/3 30/30/3
f 32/32/3 33/33/3 30/30/3
f 30/30/6 33/33/6 25/25/6
f 33/33/4 34/34/4 25/25/4
f 35/35/3 36/36/3 34/34/3
f 36/36/3 37/37/3 34/34/3
f 34/34/12 37/37/12 25/25/12
f 37/37/4 38/38/4 25/25/4
f 39/39/13 40/40/13 38/38/13
f 40/40/3 41/41/3 38/38/3
f 38/38/3 41/41/3 25/25/3
f 40/40/8 42/42/8 41/41/8
f 43/43/14 44/44/14 41/41/14
f 41/41/3 44/44/3 25/25/3
f 45/45/1 46/46/1 43/43/1
f 46/46/13 44/44/13 43/43/13
f 47/47/15 48/48/15 49/49/15
f 50/50/16 51/51/16 47/47/16
f 48/48/17 47/47/17 51/51/17
f 52/52/16 53/53/16 50/50/16
f 53/53/16 54/54/16 50/50/16
f 54/54/18 51/51/18 50/50/18
f 54/54/19 55/55/19 51/51/19
f 56/56/20 57/57/20 55/55/20
f 57/57/20 58/58/20 55/55/20
f 55/55/21 58/58/21 51/51/21
f 58/58/22 59/59/22 51/51/22
f 62/60/21 63/61/21 51/51/21
f 64/62/20 65/63/20 63/61/20
f 65/63/23 66/64/23 63/61/23
f 63/61/24 66/64/24 51/51/24
f 66/64/25 68/65/25 51/51/25
f 69/66/20 70/67/20 67/68/20
f 70/67/20 71/69/20 67/68/20
f 72/70/26 68/65/26 71/69/26
f 73/71/16 74/72/16 72/70/16
f 74/72/16 75/73/16 72/70/16
f 76/74/27 68/65/27 75/73/27
f 77/75/20 78/76/20 76/74/20
f 78/76/20 79/77/20 76/74/20
f 79/77/28 68/65/28 76/74/28
f 80/78/20 68/65/20 79/77/20
f 81/79/16 82/80/16 80/78/16
f 82/80/23 83/81/23 80/78/23
f 83/81/20 68/65/20 80/78/20
f 84/82/26 68/65/26 83/81/26
f 85/83/15 86/84/15 84/82/15
f 86/84/16 68/65/16 84/82/16
f 87/85/29 88/86/29 89/87/29
f 90/88/30 91/89/30 87/85/30
f 88/86/30 87/85/30 91/89/30
f 92/90/30 93/91/30 90/88/30
f 93/91/30 94/92/30 90/88/30
f 90/88/31 94/92/31 91/89/31
f 91/89/32 94/92/32 95/93/32
f 96/94/29 97/95/29 95/93/29
f 97/95/29 98/96/29 95/93/29
f 99/97/30 91/89/30 95/93/30
f 100/98/33 99/97/33 98/96/33
f 101/99/30 102/100/30 100/98/30
f 102/100/30 103/101/30 100/98/30
f 103/101/34 99/97/34 100/98/34
f 104/102/35 99/97/35 103/101/35
f 105/103/30 106/104/30 104/102/30
f 106/104/30 107/105/30 104/102/30
f 107/105/34 99/97/34 104/102/34
f 108/106/30 107/105/30 109/107/30
f 108/106/36 99/97/36 107/105/36
f 110/108/37 111/109/37 109/107/37
f 111/109/30 112/110/30 109/107/30
f 108/106/34 109/107/34 112/110/34
f 108/106/31 112/110/31 113/111/31
f 114/112/37 115/113/37 113/111/37
f 115/113/30 116/114/30 113/111/30
f 113/111/38 116/114/38 117/115/38
f 108/106/39 113/111/39 117/115/39
f 116/114/39 118/116/39 117/115/39
f 119/117/30 120/118/30 118/116/30
f 120/118/30 121/119/30 118/116/30
f 118/116/30 121/119/30 117/115/30
f 122/120/36 123/121/36 121/119/36
f 121/119/30 123/121/30 117/115/30
f 124/122/40 125/123/40 122/120/40
f 125/123/37 123/121/37 122/120/37
f 126/124/41 127/125/41 128/126/41
f 130/127/42 131/128/42 126/124/42
f 127/125/43 126/124/43 131/128/43
f 132/129/42 133/130/42 129/131/42
f 133/130/42 134/132/42 129/131/42
f 134/132/44 130/127/44 129/131/44
f 134/132/45 135/133/45 130/127/45
f 136/134/42 137/135/42 135/133/42
f 137/135/43 138/136/43 135/133/43
f 135/133/46 138/136/46 130/127/46
f 138/136/47 139/137/47 130/127/47
f 140/138/42 141/139/42 139/137/42
f 141/139/42 142/140/42 139/137/42
f 139/137/43 142/140/43 130/127/43
f 144/141/42 145/142/42 143/143/42
f 145/142/43 146/144/43 143/143/43
f 146/144/48 147/145/48 130/127/48
f 148/146/43 149/147/43 147/145/43
f 149/147/43 150/148/43 147/145/43
f 150/148/45 152/149/45 130/127/45
f 153/150/43 154/151/43 151/152/43
f 154/151/49 155/153/49 151/152/49
f 157/154/42 158/155/42 156/156/42
f 158/155/42 159/157/42 156/156/42
f 159/157/50 152/149/50 156/156/50
f 160/158/51 152/149/51 159/157/51
f 161/159/42 162/160/42 160/158/42
f 162/160/42 163/161/42 160/158/42
f 163/161/52 152/149/52 160/158/52
f 164/162/53 152/149/53 163/161/53
f 165/163/43 166/164/43 164/162/43
f 166/164/42 167/165/42 164/162/42
f 167/165/54 152/149/54 164/162/54
f 168/166/55 152/149/55 167/165/55
f 169/167/42 170/168/42 168/166/42
f 170/168/43 152/149/43 168/166/43
f 171/169/56 172/170/56 173/171/56
f 174/172/57 171/169/57 175/173/57
f 174/172/58 176/174/58 171/169/58
f 172/170/59 171/169/59 176/174/59
f 177/175/59 178/176/59 175/173/59
f 178/176/56 174/172/56 175/173/56
s 1
f 5/5/60 16/16/6 17/19/61
f 5/5/60 17/19/61 20/20/62
f 5/5/60 20/20/62 21/23/63
f 60/177/16 61/178/16 59/59/64
f 61/178/16 62/60/23 59/59/64
f 59/59/64 62/60/23 51/51/65
f 67/68/66 68/65/67 66/64/68
f 71/69/69 68/65/67 67/68/66
f 75/73/28 68/65/28 72/70/28
f 99/97/70 95/93/70 98/96/70
f 129/131/45 130/127/45 126/124/45
f 142/140/71 143/143/72 130/127/71
f 143/143/72 146/144/43 130/127/71
f 147/145/73 150/148/73 130/127/73
f 151/152/74 152/149/52 150/148/74
f 155/153/75 152/149/52 151/152/74
f 156/156/71 152/149/52 155/153/75
