# Blender v3.0.1 OBJ File: 'rockerfeller_plaza.blend'
# www.blender.org
o geometryt000010000010000110010110000110000110100000100100st72_I
v 443.935394 -318.274902 613.272522
v 444.885895 -318.789703 633.771179
v 443.935394 -318.274902 633.771179
v 411.139801 -300.511719 613.272522
v 444.885895 -318.789703 611.771179
v 411.139801 -300.511719 633.771179
v 410.189301 -299.996796 633.771179
v 410.189301 -299.996796 611.771179
v 410.636597 -299.150818 613.272522
v 410.189301 -299.996796 633.771179
v 410.636597 -299.150818 633.771179
v 413.013397 -294.654297 613.272522
v 410.189301 -299.996796 611.771179
v 413.013397 -294.654297 633.771179
v 413.460602 -293.808197 633.771179
v 413.460602 -293.808197 611.771179
v 413.626892 -293.505920 751.771179
v 413.626892 -293.505920 613.272522
v 413.460602 -293.808197 633.771179
v 413.460602 -293.808197 751.771179
v 414.443604 -292.021118 613.272522
v 413.460602 -293.808197 611.771179
v 414.443604 -292.021118 751.771179
v 414.609802 -291.718811 633.771179
v 414.609802 -291.718811 611.771179
v 414.609802 -291.718811 751.771179
v 413.460602 -293.808197 751.771179
v 413.460602 -293.808197 633.771179
v 414.447510 -294.342499 633.771179
v 414.447510 -294.342499 751.771179
v 447.246582 -312.099213 751.771179
v 447.246582 -312.099213 633.771179
v 448.233582 -312.633514 633.771179
v 448.233582 -312.633514 751.771179
v 415.141998 -290.800018 751.771179
v 415.141998 -290.800018 613.272522
v 414.642517 -291.736206 633.771179
v 414.642517 -291.736206 751.771179
v 437.485901 -248.918427 613.272522
v 423.728821 -274.704895 611.771179
v 417.695312 -286.014008 611.771179
v 414.642517 -291.736206 611.771179
v 437.485901 -248.918427 631.988525
v 437.985413 -247.982224 611.771179
v 437.472900 -248.942825 611.771179
v 434.122192 -255.223328 611.771179
v 430.246002 -262.488800 611.771179
v 434.293884 -254.901520 631.988525
v 437.472900 -248.942825 633.771179
v 437.985413 -247.982224 633.771179
v 434.293884 -254.901520 633.771179
v 435.125610 -255.755524 751.771179
v 435.125610 -255.755524 633.771179
v 434.118195 -255.221222 633.771179
v 434.118195 -255.221222 751.771179
v 469.082001 -273.766602 751.771179
v 469.082001 -273.766602 633.771179
v 468.074585 -273.232300 633.771179
v 468.074585 -273.232300 751.771179
v 438.990204 -248.514923 613.272522
v 437.985107 -247.982117 633.771179
v 438.990204 -248.514923 633.771179
v 471.943604 -265.983521 613.272522
v 437.985107 -247.982117 611.771179
v 471.943604 -265.983521 633.771179
v 472.948700 -266.516296 633.771179
v 472.948700 -266.516296 611.771179
v 447.774597 -313.477600 613.272522
v 448.233582 -312.633514 633.771179
v 447.774597 -313.477600 633.771179
v 445.344910 -317.945709 613.272522
v 448.233582 -312.633514 611.771179
v 445.344910 -317.945709 633.771179
v 444.885895 -318.789703 633.771179
v 444.885895 -318.789703 611.771179
v 452.745178 -304.309814 751.771179
v 452.745178 -304.309814 613.272522
v 453.217499 -303.438507 633.771179
v 453.217499 -303.438507 751.771179
v 448.233582 -312.633514 611.771179
v 448.705902 -311.762115 613.272522
v 453.217499 -303.438507 611.771179
v 448.705902 -311.762115 751.771179
v 448.233582 -312.633514 633.771179
v 448.233582 -312.633514 751.771179
v 469.082001 -273.766602 633.771179
v 469.082001 -273.766602 751.771179
v 468.682892 -274.514404 751.771179
v 468.682892 -274.514404 631.988525
v 472.673798 -267.036011 631.988525
v 472.950592 -266.517395 633.771179
v 472.950592 -266.517395 611.771179
v 472.673798 -267.036011 613.272522
v 453.517395 -302.932220 613.272522
v 460.212799 -290.386017 611.771179
v 469.082001 -273.766602 611.771179
v 453.517395 -302.932220 751.771179
v 453.240601 -303.450806 633.771179
v 453.240601 -303.450806 611.771179
v 453.240601 -303.450806 751.771179
vt 33.343342 1.304350
vt 34.282509 19.113810
vt 33.343342 19.113810
vt 0.939170 19.113810
vt 0.000000 19.113810
vt 0.939170 1.304350
vt 0.000000 0.000000
vt 34.282509 0.000000
vt 5.250220 1.304350
vt 6.081690 19.113810
vt 5.250220 19.113810
vt 0.000000 19.113810
vt 0.000000 0.000000
vt 0.831470 1.304350
vt 2.071810 19.113810
vt 2.071810 121.633400
vt 1.772070 121.633400
vt 1.772070 1.304350
vt 2.071810 0.000000
vt 0.299740 1.304350
vt 0.299740 121.633400
vt 0.000000 19.113810
vt 0.000000 0.000000
vt 0.000000 121.633400
vt 0.000000 102.519501
vt 0.000000 0.000000
vt 0.975030 0.000000
vt 0.975030 102.519501
vt 33.379211 102.519501
vt 33.379211 0.000000
vt 34.354240 0.000000
vt 34.354240 102.519501
vt 42.163559 121.633400
vt 42.163559 1.304350
vt 43.085449 19.113810
vt 43.085449 121.633400
vt 0.921890 1.304350
vt 26.314360 0.000000
vt 37.450680 0.000000
vt 43.085449 0.000000
vt 0.921890 17.565029
vt 0.000000 0.000000
vt 0.945940 0.000000
vt 7.130500 0.000000
vt 14.284980 0.000000
vt 6.813550 17.565029
vt 0.945940 19.113810
vt 0.000000 19.113810
vt 6.813550 19.113810
vt 33.394840 102.519501
vt 33.394840 0.000000
vt 34.385502 0.000000
vt 34.385502 102.519501
vt 0.000000 102.519501
vt 0.000000 0.000000
vt 0.990660 0.000000
vt 0.990660 102.519501
vt 33.392509 1.304350
vt 34.380859 19.113810
vt 33.392509 19.113810
vt 0.988340 1.304350
vt 34.380859 0.000000
vt 0.988340 19.113810
vt 0.000000 19.113810
vt 0.000000 0.000000
vt 5.253490 1.304350
vt 6.088220 19.113810
vt 5.253490 19.113810
vt 0.834740 1.304350
vt 6.088220 0.000000
vt 0.000000 19.113810
vt 0.000000 0.000000
vt 8.225681 121.633400
vt 8.225681 1.304350
vt 9.086771 19.113810
vt 9.086771 121.633400
vt 0.000000 0.000000
vt 0.861090 1.304350
vt 9.086771 0.000000
vt 0.861090 121.633400
vt 0.000000 19.113810
vt 0.000000 121.633400
vt 29.232571 19.113810
vt 29.232571 121.633400
vt 28.496189 121.633400
vt 28.496189 17.565029
vt 35.860771 17.565029
vt 36.371540 19.113810
vt 36.371540 0.000000
vt 35.860771 1.304350
vt 0.510770 1.304350
vt 12.866090 0.000000
vt 29.232571 0.000000
vt 0.510770 121.633400
vt 0.000000 19.113810
vt 0.000000 0.000000
vt 0.000000 121.633400
vt 6.081690 0.000000
vt 0.831470 19.113810
vt 0.834740 19.113810
vn -0.4762 -0.8793 0.0000
vn -0.4764 -0.8792 0.0000
vn -0.4763 -0.8793 0.0000
vn -0.8841 0.4674 0.0000
vn -0.8841 0.4672 0.0000
vn -0.8761 0.4821 0.0000
vn -0.8761 0.4822 0.0000
vn -0.8761 0.4820 0.0000
vn -0.8762 0.4819 0.0001
vn -0.8762 0.4820 0.0000
vn -0.4761 -0.8794 0.0000
vn -0.8823 0.4707 0.0000
vn -0.8823 0.4708 0.0000
vn -0.8823 0.4707 0.0001
vn 0.4685 0.8834 0.0000
vn 0.4686 0.8834 0.0000
vn 0.4685 0.8835 0.0000
vn 0.4684 0.8835 0.0000
vn 0.4683 0.8835 0.0000
vn 0.8785 -0.4777 0.0000
vn 0.8784 -0.4778 0.0000
vn 0.8791 -0.4766 0.0000
vn 0.8792 -0.4765 0.0000
vn 0.8822 -0.4708 0.0000
vn 0.8823 -0.4708 -0.0000
vn 0.8822 -0.4709 0.0000
vn 0.8822 -0.4708 0.0001
vn 0.8821 -0.4710 0.0000
vn -0.4763 -0.8793 -0.0001
vn -0.8841 0.4673 0.0000
vn -0.8840 0.4674 0.0000
vn -0.8762 0.4819 0.0000
s off
f 1/1/1 2/2/1 3/3/1
f 6/4/2 7/5/2 4/6/2
f 7/5/3 8/7/3 4/6/3
f 8/7/3 5/8/3 4/6/3
f 9/9/4 10/10/4 11/11/4
f 15/12/5 16/13/5 12/14/5
f 19/15/6 20/16/6 17/17/6
f 18/18/7 22/19/7 19/15/7
f 21/20/6 23/21/6 24/22/6
f 24/22/8 25/23/8 21/20/8
f 25/23/9 22/19/9 21/20/9
f 23/21/10 26/24/10 24/22/10
f 27/25/11 28/26/11 29/27/11
f 27/25/11 29/27/11 30/28/11
f 31/29/11 32/30/11 33/31/11
f 31/29/11 33/31/11 34/32/11
f 35/33/12 36/34/12 37/35/12
f 37/35/13 38/36/13 35/33/13
f 36/34/12 39/37/12 40/38/12
f 36/34/12 40/38/12 41/39/12
f 41/39/12 42/40/12 36/34/12
f 37/35/12 36/34/12 42/40/12
f 43/41/12 44/42/12 39/37/12
f 44/42/13 45/43/13 39/37/13
f 39/37/12 45/43/12 46/44/12
f 47/45/12 39/37/12 46/44/12
f 40/38/14 39/37/14 47/45/14
f 48/46/12 49/47/12 43/41/12
f 49/47/12 50/48/12 43/41/12
f 43/41/12 50/48/12 44/42/12
f 48/46/12 51/49/12 49/47/12
f 52/50/15 53/51/15 54/52/15
f 52/50/15 54/52/15 55/53/15
f 56/54/16 57/55/16 58/56/16
f 56/54/17 58/56/17 59/57/17
f 60/58/18 61/59/18 62/60/18
f 63/61/18 64/62/18 60/58/18
f 61/59/19 60/58/19 64/62/19
f 65/63/19 66/64/19 63/61/19
f 66/64/18 67/65/18 63/61/18
f 67/65/18 64/62/18 63/61/18
f 68/66/20 69/67/20 70/68/20
f 71/69/20 72/70/20 68/66/20
f 69/67/20 68/66/20 72/70/20
f 74/71/21 75/72/21 71/69/21
f 75/72/20 72/70/20 71/69/20
f 76/73/22 77/74/22 78/75/22
f 78/75/22 79/76/22 76/73/22
f 80/77/23 77/74/23 81/78/23
f 80/77/23 82/79/23 77/74/23
f 77/74/22 82/79/22 78/75/22
f 81/78/23 83/80/23 84/81/23
f 84/81/23 80/77/23 81/78/23
f 83/80/23 85/82/23 84/81/23
f 86/83/24 87/84/24 88/85/24
f 88/85/24 89/86/24 86/83/24
f 90/87/25 86/83/25 89/86/25
f 91/88/24 86/83/24 90/87/24
f 92/89/24 90/87/24 93/90/24
f 91/88/26 90/87/26 92/89/26
f 93/90/24 94/91/24 95/92/24
f 93/90/27 95/92/27 96/93/27
f 92/89/24 93/90/24 96/93/24
f 94/91/26 97/94/26 98/95/26
f 99/96/28 94/91/28 98/95/28
f 99/96/24 95/92/24 94/91/24
f 97/94/26 100/97/26 98/95/26
s 1
f 4/6/29 5/8/3 1/1/3
f 2/2/3 1/1/3 5/8/3
f 12/14/30 13/98/4 9/9/4
f 10/10/31 9/9/4 13/98/4
f 14/99/30 15/12/30 12/14/30
f 16/13/30 13/98/4 12/14/30
f 17/17/32 18/18/32 19/15/32
f 21/20/32 22/19/32 18/18/32
f 73/100/20 74/71/20 71/69/20
