# Blender v3.0.1 OBJ File: 'rockerfeller_plaza.blend'
# www.blender.org
o geometryt000010000010000110010110000110000100110110010010st86
v 87.598366 -97.047012 841.919800
v 71.708328 -126.840385 841.919800
v 60.758682 -121.005188 841.919800
v 76.631607 -91.189758 841.919800
v 87.598366 -97.047012 858.219849
v 76.631607 -91.189758 858.219849
v 60.758682 -121.005188 858.219849
v 71.708328 -126.840385 858.219849
vt 0.151770 0.155060
vt 0.211030 0.122340
vt 0.203890 0.100400
vt 0.144600 0.133090
vt 0.151770 0.155060
vt 0.144600 0.133090
vt 0.203890 0.100400
vt 0.211030 0.122340
vn -0.0000 0.0000 -1.0000
vn -0.0000 0.0000 1.0000
s off
f 1/1/1 2/2/1 3/3/1
f 4/4/1 1/1/1 3/3/1
f 5/5/2 6/6/2 7/7/2
f 5/5/2 7/7/2 8/8/2
