# Blender v3.0.1 OBJ File: 'rockerfeller_plaza.blend'
# www.blender.org
o geometryt000010000010000110010110000110000110100000100100st92
v 497.093903 -315.940521 612.460388
v 496.515320 -317.002014 612.460388
v 486.287415 -310.104218 612.460388
v 473.320679 -334.135803 612.460388
v 484.127106 -339.972107 612.460388
v 496.515320 -317.002014 649.360352
v 486.287415 -310.104218 649.360352
v 473.320679 -334.135803 649.360352
v 497.093903 -315.940521 649.360352
v 484.127106 -339.972107 649.360352
vt 0.497890 0.480720
vt 0.500010 0.479530
vt 0.490710 0.459070
vt 0.538560 0.432370
vt 0.545740 0.454020
vt 0.500010 0.479530
vt 0.490710 0.459070
vt 0.538560 0.432370
vt 0.497890 0.480720
vt 0.545740 0.454020
vn 0.0000 0.0000 -1.0000
vn 0.0000 0.0000 1.0000
s off
f 1/1/1 2/2/1 3/3/1
f 4/4/1 2/2/1 5/5/1
f 3/3/1 2/2/1 4/4/1
f 6/6/2 7/7/2 8/8/2
f 9/9/2 7/7/2 6/6/2
f 6/6/2 8/8/2 10/10/2
