# Blender v3.0.1 OBJ File: 'rockerfeller_plaza.blend'
# www.blender.org
o geometryt000010000010000110010110000110000110100000100100st81
v 501.860596 -260.649109 613.249451
v 501.697510 -260.953094 637.600586
v 501.860596 -260.649109 637.600586
v 502.601318 -259.269104 613.249451
v 501.697510 -260.953094 612.400574
v 502.601318 -259.269104 637.600586
v 502.859894 -258.787506 637.600586
v 502.859894 -258.787506 613.249451
v 505.081909 -254.647522 613.249451
v 505.081909 -254.647522 637.600586
v 505.340393 -254.165817 637.600586
v 505.340393 -254.165817 613.249451
v 507.562378 -250.025818 613.249451
v 507.562378 -250.025818 637.600586
v 507.820984 -249.544128 637.600586
v 507.820984 -249.544128 613.249451
v 510.042999 -245.404221 613.249451
v 516.166504 -233.995224 612.400574
v 510.042999 -245.404221 637.600586
v 510.301514 -244.922531 637.600586
v 510.301514 -244.922531 613.249451
v 512.523560 -240.782516 613.249451
v 512.523560 -240.782516 637.600586
v 512.782104 -240.300827 637.600586
v 512.782104 -240.300827 613.249451
v 515.004089 -236.160919 613.249451
v 515.004089 -236.160919 637.600586
v 515.262695 -235.679230 637.600586
v 515.262695 -235.679230 613.249451
v 516.003418 -234.299225 613.249451
v 516.003418 -234.299225 637.600586
v 516.166504 -233.995224 637.600586
v 506.732117 -263.656494 613.249451
v 507.627197 -264.137207 637.600586
v 506.732117 -263.656494 637.600586
v 501.697510 -260.953094 612.400574
v 502.592590 -261.433716 613.249451
v 507.627197 -264.137207 612.400574
v 502.592590 -261.433716 637.600586
v 501.697510 -260.953094 637.600586
v 536.484863 -210.654922 613.249451
v 536.648804 -210.351318 637.600586
v 536.484863 -210.654922 637.600586
v 535.741211 -212.033218 613.249451
v 535.864807 -211.804321 612.400574
v 536.648804 -210.351318 612.400574
v 535.741211 -212.033218 637.600586
v 535.479126 -212.519028 637.600586
v 535.479126 -212.519028 613.249451
v 533.247925 -216.654022 613.249451
v 533.247925 -216.654022 637.600586
v 532.985840 -217.139816 637.600586
v 532.985840 -217.139816 613.249451
v 530.754700 -221.274826 613.249451
v 530.754700 -221.274826 637.600586
v 530.492554 -221.760620 637.600586
v 530.492554 -221.760620 613.249451
v 525.683472 -230.673218 612.400574
v 528.261353 -225.895630 613.249451
v 528.261353 -225.895630 637.600586
v 527.999268 -226.381424 637.600586
v 527.999268 -226.381424 613.249451
v 526.511902 -229.138123 613.249451
v 526.511902 -229.138123 637.600586
v 526.249756 -229.623825 637.600586
v 526.249756 -229.623825 613.249451
v 524.762329 -232.380524 613.249451
v 524.762329 -232.380524 637.600586
v 524.500183 -232.866318 637.600586
v 524.500183 -232.866318 613.249451
v 522.269043 -237.001328 613.249451
v 522.246216 -237.043625 612.400574
v 522.269043 -237.001328 637.600586
v 522.246216 -237.043625 637.600586
v 522.006897 -237.487122 613.249451
v 522.006897 -237.487122 637.600586
v 519.775757 -241.622116 613.249451
v 519.775757 -241.622116 637.600586
v 519.513672 -242.107925 637.600586
v 519.513672 -242.107925 613.249451
v 518.026184 -244.864624 613.249451
v 518.026184 -244.864624 637.600586
v 517.764099 -245.350327 637.600586
v 517.764099 -245.350327 613.249451
v 516.276733 -248.107025 613.249451
v 516.276733 -248.107025 637.600586
v 516.014587 -248.592819 637.600586
v 516.014587 -248.592819 613.249451
v 513.783386 -252.727829 613.249451
v 507.627197 -264.137207 612.400574
v 513.783386 -252.727829 637.600586
v 513.521301 -253.213623 637.600586
v 513.521301 -253.213623 613.249451
v 511.290100 -257.348602 613.249451
v 511.290100 -257.348602 637.600586
v 511.027985 -257.834412 637.600586
v 511.027985 -257.834412 613.249451
v 508.796814 -261.969421 613.249451
v 508.796814 -261.969421 637.600586
v 508.534698 -262.455200 637.600586
v 508.534698 -262.455200 613.249451
v 507.791016 -263.833496 613.249451
v 507.791016 -263.833496 637.600586
v 507.627197 -264.137207 637.600586
v 512.166992 -230.776718 613.249451
v 511.723389 -231.604431 637.600586
v 512.166992 -230.776718 637.600586
v 515.865906 -223.874420 613.249451
v 511.723389 -231.604431 612.400574
v 515.865906 -223.874420 637.600586
v 516.309387 -223.046722 637.600586
v 516.309387 -223.046722 612.400574
v 515.324219 -233.542023 613.249451
v 516.166504 -233.995224 637.600586
v 515.324219 -233.542023 637.600586
v 511.723389 -231.604431 612.400574
v 512.565796 -232.057617 613.249451
v 516.166504 -233.995224 612.400574
v 512.565796 -232.057617 637.600586
v 511.723389 -231.604431 637.600586
v 516.471436 -222.742218 613.249451
v 516.308228 -223.046127 637.600586
v 516.471436 -222.742218 637.600586
v 517.212280 -221.362320 613.249451
v 516.308228 -223.046127 612.400574
v 517.212280 -221.362320 637.600586
v 517.440063 -220.938019 637.600586
v 517.440063 -220.938019 613.249451
v 519.662598 -216.798325 613.249451
v 519.662598 -216.798325 637.600586
v 519.890503 -216.374023 637.600586
v 519.890503 -216.374023 613.249451
v 520.631287 -214.994125 613.249451
v 520.631287 -214.994125 637.600586
v 520.859131 -214.569824 637.600586
v 520.859131 -214.569824 613.249451
v 521.599976 -213.189926 613.249451
v 525.341064 -206.221817 612.400574
v 521.599976 -213.189926 637.600586
v 521.827759 -212.765625 637.600586
v 521.827759 -212.765625 613.249451
v 522.568604 -211.385727 613.249451
v 522.568604 -211.385727 637.600586
v 522.796509 -210.961426 637.600586
v 522.796509 -210.961426 613.249451
v 525.019043 -206.821716 613.249451
v 525.019043 -206.821716 637.600586
v 525.246826 -206.397430 637.600586
v 525.246826 -206.397430 613.249451
v 525.987671 -205.017517 613.249451
v 525.987671 -205.017517 637.600586
v 526.150879 -204.713516 637.600586
v 526.150879 -204.713516 612.400574
v 526.454895 -204.876831 613.249451
v 526.150879 -204.713623 637.600586
v 526.454895 -204.876831 637.600586
v 527.834717 -205.617828 613.249451
v 526.150879 -204.713623 612.400574
v 527.834717 -205.617828 637.600586
v 528.581909 -206.019028 637.600586
v 528.581909 -206.019028 613.249451
v 534.101196 -208.982925 613.249451
v 536.532104 -210.288330 612.400574
v 534.101196 -208.982925 637.600586
v 534.848267 -209.384125 637.600586
v 534.848267 -209.384125 613.249451
v 536.228210 -210.125122 613.249451
v 536.228210 -210.125122 637.600586
v 536.532104 -210.288330 637.600586
vt 162.636703 4.563520
vt 164.491592 135.483902
vt 162.636703 135.483902
vt 154.216293 4.563520
vt 164.491592 0.000000
vt 154.216293 135.483902
vt 151.277100 135.483902
vt 151.277100 4.563520
vt 126.015999 4.563520
vt 126.015999 135.483902
vt 123.076797 135.483902
vt 123.076797 4.563520
vt 97.815567 4.563520
vt 97.815567 135.483902
vt 94.876389 135.483902
vt 94.876389 4.563520
vt 69.615181 4.563520
vt 0.000000 0.000000
vt 69.615181 135.483902
vt 66.676010 135.483902
vt 66.676010 4.563520
vt 41.414799 4.563520
vt 41.414799 135.483902
vt 38.475620 135.483902
vt 38.475620 4.563520
vt 13.214420 4.563520
vt 13.214420 135.483902
vt 10.275240 135.483902
vt 10.275240 4.563520
vt 1.854840 4.563520
vt 1.854840 135.483902
vt 0.000000 135.483902
vt 30.723310 4.563520
vt 36.185421 135.483902
vt 30.723310 135.483902
vt 0.000000 0.000000
vt 5.462110 4.563520
vt 36.185421 0.000000
vt 5.462110 135.483902
vt 0.000000 135.483902
vt 326.726196 4.563520
vt 328.580994 135.483902
vt 326.726196 135.483902
vt 318.305786 4.563520
vt 319.704498 0.000000
vt 328.580994 0.000000
vt 318.305786 135.483902
vt 315.338287 135.483902
vt 315.338287 4.563520
vt 290.077087 135.483902
vt 287.109589 135.483902
vt 290.077087 4.563520
vt 287.109589 4.563520
vt 261.848389 4.563520
vt 261.848389 135.483902
vt 258.880798 135.483902
vt 258.880798 4.563520
vt 204.432907 0.000000
vt 233.619598 4.563520
vt 233.619598 135.483902
vt 230.652100 135.483902
vt 230.652100 4.563520
vt 213.811295 4.563520
vt 210.843796 4.563520
vt 194.003006 4.563520
vt 194.003006 135.483902
vt 191.035507 135.483902
vt 191.035507 4.563520
vt 165.516205 0.000000
vt 165.774307 135.483902
vt 165.516205 135.483902
vt 165.774307 4.563520
vt 162.806702 4.563520
vt 162.806702 135.483902
vt 137.545502 4.563520
vt 137.545502 135.483902
vt 134.578003 135.483902
vt 134.578003 4.563520
vt 117.737198 4.563520
vt 117.737198 135.483902
vt 114.769699 135.483902
vt 114.769699 4.563520
vt 97.928917 4.563520
vt 97.928917 135.483902
vt 94.961411 135.483902
vt 94.961411 4.563520
vt 69.700211 4.563520
vt 0.000000 0.000000
vt 69.700211 135.483902
vt 66.732681 135.483902
vt 66.732681 4.563520
vt 41.471481 4.563520
vt 41.471481 135.483902
vt 38.503960 135.483902
vt 38.503960 4.563520
vt 13.242760 4.563520
vt 13.242760 135.483902
vt 10.275240 135.483902
vt 10.275240 4.563520
vt 1.854840 4.563520
vt 1.854840 135.483902
vt 0.000000 135.483902
vt 47.150360 4.563520
vt 52.198730 135.483902
vt 47.150360 135.483902
vt 5.048360 4.563520
vt 52.198730 0.000000
vt 5.048360 135.483902
vt 0.000000 135.483902
vt 0.000000 0.000000
vt 21.983570 4.563520
vt 27.126341 135.483902
vt 21.983570 135.483902
vt 0.000000 0.000000
vt 5.142770 4.563520
vt 27.126341 0.000000
vt 5.142770 135.483902
vt 0.000000 135.483902
vt 110.014702 4.563520
vt 111.869499 135.483902
vt 110.014702 135.483902
vt 101.594299 4.563520
vt 111.869499 0.000000
vt 101.594299 135.483902
vt 99.005058 135.483902
vt 99.005058 4.563520
vt 73.743851 4.563520
vt 73.743851 135.483902
vt 71.154610 135.483902
vt 71.154610 4.563520
vt 62.734211 135.483902
vt 60.144970 135.483902
vt 62.734211 4.563520
vt 60.144970 4.563520
vt 51.724571 4.563520
vt 9.203600 0.000000
vt 51.724571 135.483902
vt 49.135330 135.483902
vt 49.135330 4.563520
vt 40.714920 4.563520
vt 40.714920 135.483902
vt 38.125679 135.483902
vt 38.125679 4.563520
vt 12.864480 4.563520
vt 12.864480 135.483902
vt 10.275240 135.483902
vt 10.275240 4.563520
vt 1.854840 4.563520
vt 1.854840 135.483902
vt 0.000000 135.483902
vt 0.000000 0.000000
vt 61.496361 4.563520
vt 63.351200 135.483902
vt 61.496361 135.483902
vt 53.075970 4.563520
vt 63.351200 0.000000
vt 53.075970 135.483902
vt 48.516399 135.483902
vt 48.516399 4.563520
vt 14.834800 4.563520
vt 0.000000 0.000000
vt 14.834800 135.483902
vt 10.275240 135.483902
vt 10.275240 4.563520
vt 1.854840 4.563520
vt 1.854840 135.483902
vt 0.000000 135.483902
vt 213.811295 135.483902
vt 210.843796 135.483902
vn -0.8812 0.4727 0.0000
vn -0.8811 0.4729 -0.0001
vn -0.8811 0.4729 0.0000
vn -0.8810 0.4731 0.0000
vn -0.8811 0.4729 0.0001
vn -0.8812 0.4728 -0.0000
vn -0.8811 0.4730 0.0000
vn -0.8811 0.4730 0.0001
vn -0.8811 0.4730 -0.0001
vn -0.8812 0.4728 0.0001
vn -0.4731 -0.8810 0.0000
vn -0.4731 -0.8810 0.0001
vn 0.8801 -0.4748 0.0000
vn 0.8801 -0.4748 -0.0002
vn 0.8800 -0.4749 0.0001
vn 0.8801 -0.4747 0.0000
vn 0.8802 -0.4747 0.0001
vn 0.8801 -0.4749 0.0000
vn 0.8801 -0.4748 -0.0004
vn 0.8800 -0.4750 0.0000
vn 0.8801 -0.4748 0.0001
vn 0.8801 -0.4749 -0.0002
vn 0.8801 -0.4749 -0.0001
vn 0.8799 -0.4751 -0.0001
vn 0.8804 -0.4742 0.0000
vn 0.8800 -0.4749 0.0000
vn 0.8802 -0.4746 0.0005
vn 0.8801 -0.4747 0.0003
vn 0.8799 -0.4751 -0.0005
vn 0.8801 -0.4747 -0.0003
vn 0.8798 -0.4753 0.0011
vn 0.8800 -0.4750 0.0002
vn 0.8804 -0.4743 0.0000
vn 0.8800 -0.4749 -0.0004
vn 0.8802 -0.4746 0.0000
vn -0.8814 0.4724 0.0000
vn -0.8814 0.4723 0.0000
vn -0.8815 0.4723 0.0000
vn -0.8814 0.4723 0.0001
vn -0.4738 -0.8806 0.0000
vn -0.4739 -0.8806 0.0001
vn -0.4738 -0.8807 0.0000
vn -0.8810 0.4732 0.0000
vn -0.8812 0.4728 0.0002
vn -0.8809 0.4733 0.0000
vn -0.8808 0.4734 -0.0009
vn -0.8810 0.4731 -0.0002
vn -0.8812 0.4728 -0.0006
vn -0.8810 0.4731 0.0004
vn -0.8810 0.4730 0.0001
vn -0.8810 0.4730 0.0000
vn 0.4729 0.8811 0.0000
vn 0.4731 0.8810 -0.0000
vn 0.4731 0.8810 0.0002
vn 0.4732 0.8809 0.0000
vn -0.8813 0.4726 0.0000
vn -0.8813 0.4726 -0.0011
vn -0.8817 0.4718 -0.0005
vn 0.8801 -0.4749 0.0001
vn 0.8799 -0.4751 0.0004
vn 0.8802 -0.4747 0.0000
vn 0.8800 -0.4750 0.0005
vn 0.8804 -0.4742 0.0016
vn -0.8810 0.4730 -0.0001
vn -0.8812 0.4728 0.0003
vn -0.8809 0.4733 -0.0003
s off
f 1/1/1 2/2/1 3/3/1
f 4/4/2 5/5/2 1/1/2
f 6/6/3 7/7/3 4/4/3
f 7/7/4 8/8/4 4/4/4
f 8/8/5 9/9/5 5/5/5
f 10/10/1 11/11/1 9/9/1
f 11/11/3 12/12/3 9/9/3
f 12/12/5 13/13/5 5/5/5
f 14/14/6 15/15/6 13/13/6
f 15/15/7 16/16/7 13/13/7
f 17/17/8 18/18/8 16/16/8
f 16/16/3 18/18/3 5/5/3
f 19/19/3 20/20/3 17/17/3
f 20/20/3 21/21/3 17/17/3
f 22/22/9 18/18/9 21/21/9
f 23/23/7 24/24/7 22/22/7
f 24/24/3 25/25/3 22/22/3
f 25/25/1 18/18/1 22/22/1
f 26/26/2 18/18/2 25/25/2
f 27/27/6 28/28/6 26/26/6
f 28/28/3 29/29/3 26/26/3
f 29/29/10 18/18/10 26/26/10
f 30/30/8 18/18/8 29/29/8
f 31/31/3 32/32/3 30/30/3
f 32/32/1 18/18/1 30/30/1
f 33/33/11 34/34/11 35/35/11
f 36/36/11 33/33/11 37/37/11
f 36/36/12 38/38/12 33/33/12
f 34/34/11 33/33/11 38/38/11
f 39/39/11 40/40/11 37/37/11
f 40/40/11 36/36/11 37/37/11
f 41/41/13 42/42/13 43/43/13
f 44/44/14 45/45/14 41/41/14
f 45/45/15 46/46/15 41/41/15
f 42/42/13 41/41/13 46/46/13
f 47/47/16 48/48/16 44/44/16
f 48/48/13 49/49/13 44/44/13
f 44/44/17 49/49/17 45/45/17
f 51/50/18 52/51/18 50/52/18
f 52/51/16 53/53/16 50/52/16
f 54/54/19 45/45/19 53/53/19
f 55/55/18 56/56/18 54/54/18
f 56/56/20 57/57/20 54/54/20
f 58/58/18 45/45/18 54/54/18
f 58/58/21 57/57/21 59/59/21
f 60/60/18 61/61/18 59/59/18
f 61/61/16 62/62/16 59/59/16
f 58/58/22 62/62/22 63/63/22
f 58/58/21 63/63/21 66/64/21
f 58/58/23 66/64/23 67/65/23
f 68/66/20 69/67/20 67/65/20
f 69/67/13 70/68/13 67/65/13
f 58/58/24 67/65/24 70/68/24
f 58/58/13 70/68/13 72/69/13
f 73/70/25 74/71/25 71/72/25
f 74/71/13 75/73/13 71/72/13
f 71/72/13 75/73/13 72/69/13
f 74/71/26 76/74/26 75/73/26
f 75/73/13 77/75/13 72/69/13
f 78/76/13 79/77/13 77/75/13
f 79/77/16 80/78/16 77/75/16
f 77/75/27 80/78/27 72/69/27
f 80/78/28 81/79/28 72/69/28
f 82/80/13 83/81/13 81/79/13
f 83/81/26 84/82/26 81/79/26
f 81/79/29 84/82/29 72/69/29
f 84/82/30 85/83/30 72/69/30
f 86/84/20 87/85/20 85/83/20
f 87/85/13 88/86/13 85/83/13
f 85/83/31 88/86/31 72/69/31
f 89/87/22 90/88/22 88/86/22
f 88/86/13 90/88/13 72/69/13
f 91/89/18 92/90/18 89/87/18
f 92/90/16 93/91/16 89/87/16
f 94/92/32 90/88/32 93/91/32
f 95/93/16 96/94/16 94/92/16
f 96/94/20 97/95/20 94/92/20
f 97/95/33 90/88/33 94/92/33
f 98/96/34 90/88/34 97/95/34
f 99/97/18 100/98/18 98/96/18
f 100/98/18 101/99/18 98/96/18
f 101/99/15 90/88/15 98/96/15
f 102/100/13 90/88/13 101/99/13
f 103/101/13 104/102/13 102/100/13
f 104/102/35 90/88/35 102/100/35
f 105/103/36 106/104/36 107/105/36
f 108/106/37 109/107/37 105/103/37
f 106/104/36 105/103/36 109/107/36
f 110/108/38 111/109/38 108/106/38
f 111/109/38 112/110/38 108/106/38
f 112/110/39 109/107/39 108/106/39
f 113/111/40 114/112/40 115/113/40
f 116/114/41 113/111/41 117/115/41
f 116/114/40 118/116/40 113/111/40
f 114/112/40 113/111/40 118/116/40
f 119/117/42 120/118/42 117/115/42
f 120/118/40 116/114/40 117/115/40
f 121/119/43 122/120/43 123/121/43
f 124/122/7 125/123/7 121/119/7
f 122/120/4 121/119/4 125/123/4
f 126/124/7 127/125/7 124/122/7
f 127/125/7 128/126/7 124/122/7
f 124/122/44 128/126/44 125/123/44
f 128/126/7 129/127/7 125/123/7
f 130/128/45 131/129/45 129/127/45
f 131/129/4 132/130/4 129/127/4
f 134/131/4 135/132/4 133/133/4
f 135/132/7 136/134/7 133/133/7
f 125/123/46 133/133/46 136/134/46
f 136/134/47 137/135/47 138/136/47
f 125/123/7 136/134/7 138/136/7
f 139/137/7 140/138/7 137/135/7
f 140/138/7 141/139/7 137/135/7
f 137/135/48 141/139/48 138/136/48
f 141/139/49 142/140/49 138/136/49
f 143/141/45 144/142/45 142/140/45
f 144/142/4 145/143/4 142/140/4
f 145/143/8 146/144/8 138/136/8
f 147/145/7 148/146/7 146/144/7
f 148/146/7 149/147/7 146/144/7
f 146/144/50 149/147/50 138/136/50
f 149/147/4 150/148/4 138/136/4
f 151/149/51 152/150/51 150/148/51
f 152/150/4 153/151/4 150/148/4
f 150/148/51 153/151/51 138/136/51
f 154/152/52 155/153/52 156/154/52
f 157/155/53 158/156/53 154/152/53
f 155/153/53 154/152/53 158/156/53
f 159/157/53 160/158/53 157/155/53
f 160/158/53 161/159/53 157/155/53
f 161/159/53 158/156/53 157/155/53
f 162/160/53 163/161/53 161/159/53
f 161/159/53 163/161/53 158/156/53
f 164/162/53 165/163/53 162/160/53
f 165/163/53 166/164/53 162/160/53
f 166/164/54 163/161/54 162/160/54
f 167/165/53 163/161/53 166/164/53
f 168/166/55 169/167/55 167/165/55
f 169/167/53 163/161/53 167/165/53
s 1
f 2/2/6 1/1/6 5/5/6
f 8/8/8 5/5/8 4/4/8
f 9/9/56 12/12/56 5/5/56
f 13/13/57 16/16/57 5/5/57
f 21/21/58 18/18/58 17/17/58
f 45/45/59 49/49/21 50/52/60
f 45/45/59 50/52/60 53/53/60
f 58/58/61 54/54/61 57/57/61
f 58/58/62 59/59/62 62/62/62
f 64/168/13 65/169/13 63/63/20
f 65/169/13 66/64/20 63/63/20
f 70/68/13 71/72/13 72/69/13
f 93/91/63 90/88/63 89/87/63
f 125/123/64 129/127/65 132/130/47
f 125/123/64 132/130/47 133/133/47
f 142/140/66 145/143/66 138/136/66
