# Blender v3.0.1 OBJ File: 'rockerfeller_plaza.blend'
# www.blender.org
o geometryt000010000010000110010110000110000110100000000110st40
v 722.148804 -147.942581 104.208984
v 729.723328 -145.256378 104.208984
v 719.916138 -163.522888 104.208984
v 724.966309 -142.702789 104.208984
v 715.150513 -160.958282 104.208984
v 729.723328 -145.256378 122.008987
v 724.966309 -142.702789 122.008987
v 722.148804 -147.942581 122.008987
v 719.916138 -163.522888 122.008987
v 715.150513 -160.958282 122.008987
vt 0.197660 0.450170
vt 0.190360 0.465500
vt 0.226720 0.445310
vt 0.187230 0.455970
vt 0.223570 0.435760
vt 0.190360 0.465500
vt 0.187230 0.455970
vt 0.197660 0.450170
vt 0.226720 0.445310
vt 0.223570 0.435760
vn 0.0000 0.0000 -1.0000
vn 0.0000 0.0000 1.0000
s off
f 1/1/1 2/2/1 3/3/1
f 4/4/1 2/2/1 1/1/1
f 1/1/1 3/3/1 5/5/1
f 6/6/2 7/7/2 8/8/2
f 9/9/2 8/8/2 10/10/2
f 9/9/2 6/6/2 8/8/2
