# Blender v3.0.1 OBJ File: 'rockerfeller_plaza.blend'
# www.blender.org
o geometryt000010000010000110010110000110000110100000000110st21
v 732.441101 -220.023178 107.022430
v 730.293518 -224.007187 107.022430
v 730.293518 -224.007187 124.861069
v 732.441101 -220.023178 124.861069
v 733.313477 -218.404785 107.022430
v 732.597717 -219.732788 107.022430
v 732.597717 -219.732788 124.861069
v 733.313477 -218.404785 124.861069
v 734.901794 -215.458389 124.861069
v 734.901794 -215.458389 107.022430
v 733.470093 -218.114288 107.022430
v 733.470093 -218.114288 124.861069
v 736.490112 -212.511887 107.022430
v 735.058411 -215.167877 107.022430
v 735.058411 -215.167877 124.861069
v 736.490112 -212.511887 124.861069
v 737.362488 -210.893478 107.022430
v 736.646729 -212.221481 107.022430
v 736.646729 -212.221481 124.861069
v 737.362488 -210.893478 124.861069
v 738.950806 -207.947083 107.022430
v 737.519104 -210.603088 107.022430
v 737.519104 -210.603088 124.861069
v 738.950806 -207.947083 124.861069
v 740.539124 -205.000687 124.861069
v 740.539124 -205.000687 107.022430
v 739.107422 -207.656586 107.022430
v 739.107422 -207.656586 124.861069
v 741.411499 -203.382187 107.022430
v 740.695679 -204.710190 107.022430
v 740.695679 -204.710190 124.861069
v 741.411499 -203.382187 124.861069
v 743.715698 -199.107788 124.861069
v 743.715698 -199.107788 107.022430
v 741.568115 -203.091782 107.022430
v 741.568115 -203.091782 124.861069
v 731.139893 -224.855682 124.861069
v 730.596985 -224.563080 107.022430
v 734.580994 -226.710587 107.022430
v 730.596985 -224.563080 124.861069
v 734.580994 -226.710587 124.861069
v 735.212219 -226.658890 107.022430
v 737.360840 -222.675385 107.022430
v 737.360840 -222.675385 124.861069
v 735.212219 -226.658890 124.861069
v 737.517700 -222.384583 124.861069
v 737.517700 -222.384583 107.022430
v 738.233887 -221.056778 107.022430
v 738.233887 -221.056778 124.861069
v 738.390808 -220.765884 124.861069
v 738.390808 -220.765884 107.022430
v 739.823242 -218.110291 107.022430
v 739.823242 -218.110291 124.861069
v 739.979980 -217.819382 124.861069
v 739.979980 -217.819382 107.022430
v 741.412415 -215.163788 107.022430
v 741.412415 -215.163788 124.861069
v 741.569336 -214.872986 107.022430
v 742.285522 -213.545181 107.022430
v 742.285522 -213.545181 124.861069
v 741.569336 -214.872986 124.861069
v 742.442383 -213.254288 124.861069
v 742.442383 -213.254288 107.022430
v 743.874817 -210.598679 107.022430
v 743.874817 -210.598679 124.861069
v 744.031738 -210.307785 107.022430
v 745.464111 -207.652191 107.022430
v 745.464111 -207.652191 124.861069
v 744.031738 -210.307785 124.861069
v 745.620972 -207.361389 107.022430
v 746.337219 -206.033585 107.022430
v 746.337219 -206.033585 124.861069
v 745.620972 -207.361389 124.861069
v 746.494019 -205.742691 124.861069
v 746.494019 -205.742691 107.022430
v 748.642578 -201.759277 107.022430
v 748.642578 -201.759277 124.861069
v 748.335571 -201.202286 107.022430
v 744.350220 -199.057480 107.022430
v 744.350220 -199.057480 124.861069
v 748.335571 -201.202286 124.861069
vt 0.000000 0.000000
vt 0.333330 0.000000
vt 0.333330 1.250000
vt 0.000000 1.250000
vt 0.000000 1.250000
vt 0.000000 0.000000
vt 0.666670 0.000000
vt 0.666670 1.250000
vt 0.000000 0.000000
vt 0.666670 0.000000
vt 0.666670 1.250000
vt 0.000000 1.250000
vt 0.000000 0.000000
vt 0.333330 0.000000
vt 0.333330 1.250000
vt 0.000000 1.250000
vt 0.000000 0.000000
vt 0.666670 0.000000
vt 0.666670 1.250000
vt 0.000000 1.250000
vt 0.000000 1.250000
vt 0.000000 0.000000
vt 0.666670 0.000000
vt 0.666670 1.250000
vt 0.000000 0.000000
vt 0.333330 0.000000
vt 0.333330 1.250000
vt 0.000000 1.250000
vt 0.000000 1.250000
vt 0.000000 0.000000
vt 1.000000 0.000000
vt 1.000000 1.250000
vt 0.136260 1.250000
vt 0.000000 0.000000
vt 1.000000 0.000000
vt 0.000000 1.250000
vt 1.000000 1.250000
vt 0.000000 1.250000
vt 0.000000 0.000000
vt 0.333330 0.000000
vt 0.333330 1.250000
vt 0.000000 1.250000
vt 0.000000 0.000000
vt 0.666670 0.000000
vt 0.666670 1.250000
vt 0.000000 1.250000
vt 0.000000 0.000000
vt 0.666670 0.000000
vt 0.666670 1.250000
vt 0.000000 0.000000
vt 0.333330 0.000000
vt 0.333330 1.250000
vt 0.000000 1.250000
vt 0.000000 1.250000
vt 0.000000 0.000000
vt 0.666670 0.000000
vt 0.666670 1.250000
vt 0.000000 0.000000
vt 0.666670 0.000000
vt 0.666670 1.250000
vt 0.000000 1.250000
vt 0.000000 0.000000
vt 0.333330 0.000000
vt 0.333330 1.250000
vt 0.000000 1.250000
vt 0.000000 1.250000
vt 0.000000 0.000000
vt 1.000000 0.000000
vt 1.000000 1.250000
vt 0.000000 0.000000
vt 1.000000 0.000000
vt 1.000000 1.250000
vt 0.000000 1.250000
vt 0.000000 0.000000
vt 1.000000 0.000000
vt 1.000000 1.250000
vt 0.000000 1.250000
vt 0.000000 0.000000
vt 1.000000 0.000000
vt 1.000000 1.250000
vt 0.000000 1.250000
vn -0.8803 0.4744 0.0000
vn -0.8802 0.4745 0.0000
vn -0.8803 0.4745 0.0000
vn -0.4745 -0.8803 0.0000
vn 0.8801 -0.4747 0.0000
vn 0.8801 -0.4748 0.0000
vn 0.4739 0.8806 0.0000
s off
f 5/1/1 6/2/1 7/3/1
f 8/4/1 5/1/1 7/3/1
f 9/5/2 10/6/2 11/7/2
f 9/5/3 11/7/3 12/8/3
f 13/9/2 14/10/2 15/11/2
f 16/12/3 13/9/3 15/11/3
f 17/13/3 18/14/3 19/15/3
f 20/16/1 17/13/1 19/15/1
f 21/17/3 22/18/3 23/19/3
f 24/20/3 21/17/3 23/19/3
f 25/21/2 26/22/2 27/23/2
f 25/21/3 27/23/3 28/24/3
f 29/25/3 30/26/3 31/27/3
f 32/28/3 29/25/3 31/27/3
f 33/29/3 34/30/3 35/31/3
f 33/29/3 35/31/3 36/32/3
f 37/33/4 38/34/4 39/35/4
f 40/36/4 38/34/4 37/33/4
f 37/33/4 39/35/4 41/37/4
f 46/38/5 47/39/5 48/40/5
f 46/38/5 48/40/5 49/41/5
f 50/42/5 51/43/5 52/44/5
f 50/42/5 52/44/5 53/45/5
f 54/46/5 55/47/5 56/48/5
f 54/46/6 56/48/6 57/49/6
f 58/50/6 59/51/6 60/52/6
f 61/53/5 58/50/5 60/52/5
f 62/54/5 63/55/5 64/56/5
f 62/54/6 64/56/6 65/57/6
f 66/58/5 67/59/5 68/60/5
f 69/61/5 66/58/5 68/60/5
f 70/62/5 71/63/5 72/64/5
f 73/65/6 70/62/6 72/64/6
f 74/66/5 75/67/5 76/68/5
f 74/66/5 76/68/5 77/69/5
f 78/70/7 79/71/7 80/72/7
f 81/73/7 78/70/7 80/72/7
s 1
f 1/74/3 2/75/3 3/76/3
f 4/77/3 1/74/3 3/76/3
f 42/78/5 43/79/5 44/80/5
f 45/81/5 42/78/5 44/80/5
