# Blender v3.0.1 OBJ File: 'rockerfeller_plaza.blend'
# www.blender.org
o geometryt000010000010000110010110000110000110100000100110st97
v 712.683228 -182.241913 659.066040
v 709.679443 -187.808609 659.066040
v 709.679443 -187.808609 725.858765
v 712.683228 -182.241913 725.858765
v 716.929749 -174.372101 725.858765
v 716.929749 -174.372101 659.066040
v 713.925903 -179.938812 659.066040
v 713.925903 -179.938812 725.858765
v 709.819336 -188.276001 725.858765
v 709.819336 -188.276001 659.066040
v 715.387451 -191.277206 659.066040
v 715.387451 -191.277206 725.858765
v 716.098938 -191.660706 659.066040
v 721.667114 -194.661911 659.066040
v 721.667114 -194.661911 725.858765
v 716.098938 -191.660706 725.858765
v 722.378662 -195.045410 659.066040
v 723.770630 -195.795715 659.066040
v 723.770630 -195.795715 725.858765
v 722.378662 -195.045410 725.858765
v 724.482117 -196.179214 725.858765
v 724.482117 -196.179214 659.066040
v 730.050232 -199.180405 659.066040
v 730.050232 -199.180405 725.858765
v 730.761719 -199.563904 725.858765
v 730.761719 -199.563904 659.066040
v 736.329956 -202.565109 659.066040
v 736.329956 -202.565109 725.858765
v 722.965454 -177.233215 725.858765
v 722.965454 -177.233215 659.066040
v 717.397217 -174.232101 659.066040
v 717.397217 -174.232101 725.858765
v 729.066406 -180.521515 659.066040
v 723.498230 -177.520401 659.066040
v 723.498230 -177.520401 725.858765
v 729.066406 -180.521515 725.858765
v 732.383301 -182.309204 725.858765
v 732.383301 -182.309204 659.066040
v 729.599243 -180.808716 659.066040
v 729.599243 -180.808716 725.858765
v 735.700134 -184.097015 725.858765
v 735.700134 -184.097015 659.066040
v 732.916016 -182.596405 659.066040
v 732.916016 -182.596405 725.858765
v 737.625000 -185.134415 659.066040
v 736.232910 -184.384109 659.066040
v 736.232910 -184.384109 725.858765
v 737.625000 -185.134415 725.858765
v 740.941895 -186.922104 659.066040
v 738.157837 -185.421509 659.066040
v 738.157837 -185.421509 725.858765
v 740.941895 -186.922104 725.858765
v 744.258728 -188.709808 725.858765
v 744.258728 -188.709808 659.066040
v 741.474609 -187.209305 659.066040
v 741.474609 -187.209305 725.858765
v 746.183655 -189.747314 725.858765
v 746.183655 -189.747314 659.066040
v 744.791504 -188.997009 659.066040
v 744.791504 -188.997009 725.858765
v 749.500549 -191.535004 659.066040
v 746.716309 -190.034409 659.066040
v 746.716309 -190.034409 725.858765
v 749.500549 -191.535004 725.858765
v 752.817322 -193.322708 659.066040
v 750.033203 -191.822113 659.066040
v 750.033203 -191.822113 725.858765
v 752.817322 -193.322708 725.858765
v 758.918335 -196.611008 725.858765
v 758.918335 -196.611008 659.066040
v 753.350098 -193.609802 659.066040
v 753.350098 -193.609802 725.858765
v 765.019287 -199.899216 659.066040
v 759.451111 -196.898102 659.066040
v 759.451111 -196.898102 725.858765
v 765.019287 -199.899216 725.858765
v 730.342896 -215.126205 659.066040
v 735.911743 -218.126312 659.066040
v 735.911743 -218.126312 725.858765
v 730.342896 -215.126205 725.858765
v 737.814819 -219.151611 725.858765
v 737.814819 -219.151611 659.066040
v 743.383667 -222.151611 659.066040
v 743.383667 -222.151611 725.858765
v 745.286865 -223.176910 659.066040
v 750.855530 -226.176910 659.066040
v 750.855530 -226.176910 725.858765
v 745.286865 -223.176910 725.858765
v 730.952820 -213.266708 725.858765
v 730.952820 -213.266708 659.066040
v 730.202820 -214.658905 659.066040
v 730.202820 -214.658905 725.858765
v 733.050049 -209.373413 725.858765
v 735.209595 -205.364304 659.066040
v 731.459839 -212.325409 659.066040
v 735.209595 -205.364304 725.858765
v 731.459839 -212.325409 725.858765
v 736.466614 -203.030716 725.858765
v 736.466614 -203.030716 659.066040
v 735.716614 -204.423004 659.066040
v 735.716614 -204.423004 725.858765
v 751.323120 -226.036911 659.066040
v 752.074036 -224.645203 659.066040
v 752.074036 -224.645203 725.858765
v 751.323120 -226.036911 725.858765
v 755.015747 -219.193314 725.858765
v 752.750610 -223.391205 659.066040
v 756.505249 -216.432602 659.066040
v 752.750610 -223.391205 725.858765
v 756.505249 -216.432602 725.858765
v 757.181946 -215.178604 659.066040
v 757.932861 -213.786911 659.066040
v 757.932861 -213.786911 725.858765
v 757.181946 -215.178604 725.858765
v 758.256104 -213.177307 659.066040
v 761.256836 -207.608902 659.066040
v 761.256836 -207.608902 725.858765
v 758.256104 -213.177307 725.858765
v 762.158691 -205.935104 725.858765
v 762.158691 -205.935104 659.066040
v 765.159302 -200.366608 659.066040
v 765.159302 -200.366608 725.858765
vt 0.000000 0.000000
vt 1.333330 0.000000
vt 1.333330 16.000000
vt 0.000000 16.000000
vt 0.000000 16.000000
vt 0.000000 0.000000
vt 1.333330 0.000000
vt 1.333330 16.000000
vt 0.000000 16.000000
vt 0.000000 0.000000
vt 1.333330 0.000000
vt 1.333330 16.000000
vt 0.000000 0.000000
vt 1.333330 0.000000
vt 1.333330 16.000000
vt 0.000000 16.000000
vt 0.000000 0.000000
vt 0.333330 0.000000
vt 0.333330 16.000000
vt 0.000000 16.000000
vt 0.000000 16.000000
vt 0.000000 0.000000
vt 1.333330 0.000000
vt 1.333330 16.000000
vt 0.000000 16.000000
vt 0.000000 0.000000
vt 1.333330 0.000000
vt 1.333330 16.000000
vt 0.000000 16.000000
vt 0.000000 0.000000
vt 1.333330 0.000000
vt 1.333330 16.000000
vt 0.000000 0.000000
vt 1.333330 0.000000
vt 1.333330 16.000000
vt 0.000000 16.000000
vt 0.000000 16.000000
vt 0.000000 0.000000
vt 0.666670 0.000000
vt 0.666670 16.000000
vt 0.000000 16.000000
vt 0.000000 0.000000
vt 0.666670 0.000000
vt 0.666670 16.000000
vt 0.000000 0.000000
vt 0.333330 0.000000
vt 0.333330 16.000000
vt 0.000000 16.000000
vt 0.000000 0.000000
vt 0.666670 0.000000
vt 0.666670 16.000000
vt 0.000000 16.000000
vt 0.000000 16.000000
vt 0.000000 0.000000
vt 0.666670 0.000000
vt 0.666670 16.000000
vt 0.000000 16.000000
vt 0.000000 0.000000
vt 0.333330 0.000000
vt 0.333330 16.000000
vt 0.000000 0.000000
vt 0.666670 0.000000
vt 0.666670 16.000000
vt 0.000000 16.000000
vt 0.000000 0.000000
vt 0.666670 0.000000
vt 0.666670 16.000000
vt 0.000000 16.000000
vt 0.000000 16.000000
vt 0.000000 0.000000
vt 1.333330 0.000000
vt 1.333330 16.000000
vt 0.000000 0.000000
vt 1.333330 0.000000
vt 1.333330 16.000000
vt 0.000000 16.000000
vt 0.000000 0.000000
vt 1.333330 0.000000
vt 1.333330 16.000000
vt 0.000000 16.000000
vt 0.000000 16.000000
vt 0.000000 0.000000
vt 1.333330 0.000000
vt 1.333330 16.000000
vt 0.000000 0.000000
vt 1.333330 0.000000
vt 1.333330 16.000000
vt 0.000000 16.000000
vt 0.000000 16.000000
vt 0.000000 0.000000
vt 0.333330 0.000000
vt 0.333330 16.000000
vt 0.959880 16.000000
vt 0.000000 0.000000
vt 1.666670 0.000000
vt 0.000000 16.000000
vt 1.666670 16.000000
vt 0.000000 16.000000
vt 0.000000 0.000000
vt 0.333330 0.000000
vt 0.333330 16.000000
vt 0.000000 0.000000
vt 0.333330 0.000000
vt 0.333330 16.000000
vt 0.000000 16.000000
vt 1.005460 16.000000
vt 0.000000 0.000000
vt 1.666670 0.000000
vt 1.666670 16.000000
vt 0.000000 0.000000
vt 0.333330 0.000000
vt 0.333330 16.000000
vt 0.000000 16.000000
vt 0.000000 0.000000
vt 1.333330 0.000000
vt 1.333330 16.000000
vt 0.000000 16.000000
vt 0.000000 16.000000
vt 0.000000 0.000000
vt 1.333330 0.000000
vt 1.333330 16.000000
vt 0.000000 16.000000
vn -0.8801 0.4749 0.0000
vn -0.8800 0.4749 0.0000
vn -0.4745 -0.8803 0.0000
vn 0.4745 0.8803 0.0000
vn 0.4744 0.8803 0.0000
vn -0.4743 -0.8804 0.0000
vn -0.8803 0.4743 0.0000
vn -0.8804 0.4743 0.0000
vn -0.8804 0.4742 0.0000
vn 0.8801 -0.4748 0.0000
vn 0.8800 -0.4749 0.0000
vn 0.8801 -0.4749 -0.0000
vn 0.8803 -0.4744 0.0000
s off
f 1/1/1 2/2/1 3/3/1
f 4/4/1 1/1/1 3/3/1
f 5/5/1 6/6/1 7/7/1
f 5/5/2 7/7/2 8/8/2
f 9/9/3 10/10/3 11/11/3
f 9/9/3 11/11/3 12/12/3
f 13/13/3 14/14/3 15/15/3
f 16/16/3 13/13/3 15/15/3
f 17/17/3 18/18/3 19/19/3
f 20/20/3 17/17/3 19/19/3
f 21/21/3 22/22/3 23/23/3
f 21/21/3 23/23/3 24/24/3
f 25/25/3 26/26/3 27/27/3
f 25/25/3 27/27/3 28/28/3
f 29/29/4 30/30/4 31/31/4
f 29/29/5 31/31/5 32/32/5
f 33/33/4 34/34/4 35/35/4
f 36/36/4 33/33/4 35/35/4
f 37/37/5 38/38/5 39/39/5
f 37/37/5 39/39/5 40/40/5
f 41/41/4 42/42/4 43/43/4
f 41/41/4 43/43/4 44/44/4
f 45/45/4 46/46/4 47/47/4
f 48/48/5 45/45/5 47/47/5
f 49/49/4 50/50/4 51/51/4
f 52/52/4 49/49/4 51/51/4
f 53/53/5 54/54/5 55/55/5
f 53/53/5 55/55/5 56/56/5
f 57/57/5 58/58/5 59/59/5
f 57/57/5 59/59/5 60/60/5
f 61/61/5 62/62/5 63/63/5
f 64/64/5 61/61/5 63/63/5
f 65/65/4 66/66/4 67/67/4
f 68/68/4 65/65/4 67/67/4
f 69/69/4 70/70/4 71/71/4
f 69/69/4 71/71/4 72/72/4
f 73/73/5 74/74/5 75/75/5
f 76/76/4 73/73/4 75/75/4
f 77/77/6 78/78/6 79/79/6
f 80/80/6 77/77/6 79/79/6
f 81/81/6 82/82/6 83/83/6
f 81/81/6 83/83/6 84/84/6
f 85/85/6 86/86/6 87/87/6
f 88/88/6 85/85/6 87/87/6
f 89/89/7 90/90/7 91/91/7
f 89/89/8 91/91/8 92/92/8
f 93/93/9 94/94/9 95/95/9
f 96/96/9 94/94/9 93/93/9
f 93/93/8 95/95/8 97/97/8
f 98/98/8 99/99/8 100/100/8
f 98/98/9 100/100/9 101/101/9
f 102/102/10 103/103/10 104/104/10
f 105/105/11 102/102/11 104/104/11
f 106/106/12 107/107/12 108/108/12
f 106/106/10 108/108/10 110/109/10
f 111/110/11 112/111/11 113/112/11
f 114/113/10 111/110/10 113/112/10
f 115/114/13 116/115/13 117/116/13
f 118/117/13 115/114/13 117/116/13
f 119/118/13 120/119/13 121/120/13
f 119/118/13 121/120/13 122/121/13
s 1
f 109/122/12 107/107/12 106/106/12
