# Blender v3.0.1 OBJ File: 'rockerfeller_plaza.blend'
# www.blender.org
o geometryt000010000010000110010110000110000110100000100000st8
v 495.615234 -250.483948 337.239075
v 497.959839 -251.744553 337.239075
v 490.714355 -259.533783 337.239075
v 500.444214 -259.220856 337.239075
v 508.528534 -269.118866 337.239075
v 503.014526 -254.472549 337.239075
v 510.859131 -264.817474 337.239075
v 524.668335 -266.111267 337.239075
v 522.089600 -270.859772 337.239075
v 517.166992 -216.316055 337.239075
v 505.531555 -249.502762 337.239075
v 505.681213 -249.583359 337.239075
v 521.808105 -258.261963 337.239075
v 519.085693 -224.509460 337.239075
v 519.120728 -224.943649 337.239075
v 519.295837 -224.622559 337.239075
v 522.315063 -219.087357 337.239075
v 522.683228 -226.445450 337.239075
v 524.067017 -254.096558 337.239075
v 535.362244 -233.268661 337.239075
v 543.866943 -230.682861 337.239075
v 498.879822 -244.461960 337.239075
v 514.822449 -215.055450 337.239075
v 524.083008 -277.486755 337.239075
v 526.281433 -273.431183 337.239075
v 550.298218 -229.109253 337.239075
v 535.104431 -219.804550 337.239075
v 537.443115 -215.480850 337.239075
v 546.453857 -225.912048 337.239075
v 553.116577 -223.913849 337.239075
v 519.748169 -205.972061 337.239075
v 524.901855 -214.316559 337.239075
v 495.615234 -250.483948 363.239075
v 490.714355 -259.533783 363.239075
v 497.647217 -251.576553 363.239075
v 497.959839 -251.744553 363.239075
v 500.444214 -259.220856 363.239075
v 508.528534 -269.118866 363.239075
v 499.086029 -252.352356 363.239075
v 502.407043 -255.594849 363.239075
v 503.014526 -254.472549 363.239075
v 502.905945 -260.543671 363.239075
v 508.839233 -268.545380 363.239075
v 510.859131 -264.817474 363.239075
v 497.959839 -251.744553 367.239075
v 498.879822 -244.461960 367.239075
v 495.615234 -250.483948 367.239075
v 512.229431 -225.423660 367.239075
v 516.319946 -217.878555 367.239075
v 517.166992 -216.316055 367.239075
v 514.822449 -215.055450 367.239075
v 503.014526 -254.472549 453.939087
v 517.166992 -216.316055 453.939087
v 497.959839 -251.744553 453.939087
v 505.531555 -249.502762 453.939087
v 505.681213 -249.583359 453.939087
v 520.763916 -257.700073 453.939087
v 524.668335 -266.111267 453.939087
v 506.401031 -247.899353 453.939087
v 519.085693 -224.509460 453.939087
v 519.295837 -224.622559 453.939087
v 522.315063 -219.087357 453.939087
v 520.129944 -225.071350 453.939087
v 522.683228 -226.445450 453.939087
v 521.808105 -258.261963 453.939087
v 524.067017 -254.096558 453.939087
v 535.362244 -233.268661 453.939087
v 543.866943 -230.682861 453.939087
v 534.492737 -234.872055 453.939087
v 500.444214 -259.220856 447.239075
v 510.859131 -264.817474 447.239075
v 503.014526 -254.472549 447.239075
v 523.068726 -265.251556 447.239075
v 524.668335 -266.111267 447.239075
v 522.089600 -270.859772 447.239075
v 523.425171 -265.443085 447.239075
v 519.085693 -224.509460 461.939087
v 505.531555 -249.502762 461.939087
v 521.808105 -258.261963 461.939087
v 535.362244 -233.268661 461.939087
v 511.393921 -265.105164 367.239075
v 510.859131 -264.817474 367.239075
v 508.528534 -269.118866 367.239075
v 513.921997 -266.465363 367.239075
v 522.089600 -270.859772 367.239075
v 524.083008 -277.486755 367.239075
v 522.792969 -269.564667 367.239075
v 526.281433 -273.431183 367.239075
v 524.668335 -266.111267 367.239075
v 550.298218 -229.109253 367.239075
v 529.603760 -257.003784 367.239075
v 543.866943 -230.682861 367.239075
v 543.358521 -224.246353 367.239075
v 537.443115 -215.480850 367.239075
v 535.104431 -219.804550 367.239075
v 546.453857 -225.912048 367.239075
v 553.116577 -223.913849 367.239075
v 544.572449 -229.381760 367.239075
v 519.748169 -205.972061 363.239075
v 514.822449 -215.055450 363.239075
v 515.135010 -215.223557 363.239075
v 517.166992 -216.316055 363.239075
v 524.901855 -214.316559 363.239075
v 521.168030 -218.469955 363.239075
v 537.443115 -215.480850 363.239075
v 522.315063 -219.087357 363.239075
v 524.290405 -215.444260 363.239075
v 532.692871 -218.507462 363.239075
v 535.104431 -219.804550 363.239075
v 535.416260 -219.228058 363.239075
v 535.104431 -219.804550 447.239075
v 522.315063 -219.087357 447.239075
v 523.552368 -219.753052 447.239075
v 524.901855 -214.316559 447.239075
v 543.866943 -230.682861 447.239075
v 546.453857 -225.912048 447.239075
vt 0.378260 0.485720
vt 0.379810 0.490420
vt 0.396280 0.475630
vt 0.392620 0.495250
vt 0.408060 0.511310
vt 0.383160 0.500540
vt 0.399490 0.516110
vt 0.397460 0.543910
vt 0.406920 0.538600
vt 0.309230 0.529960
vt 0.373320 0.505730
vt 0.373420 0.506030
vt 0.384080 0.538330
vt 0.323530 0.533630
vt 0.324310 0.533690
vt 0.323670 0.534060
vt 0.312640 0.540270
vt 0.325910 0.540840
vt 0.375780 0.542980
vt 0.334290 0.566240
vt 0.326880 0.583440
vt 0.366260 0.492440
vt 0.307680 0.525260
vt 0.418340 0.542470
vt 0.410260 0.546990
vt 0.321970 0.596440
vt 0.309870 0.566030
vt 0.301260 0.570850
vt 0.317380 0.588760
vt 0.311630 0.602240
vt 0.289590 0.535400
vt 0.303130 0.545600
vt 0.378260 0.485720
vt 0.396280 0.475630
vt 0.379600 0.489790
vt 0.379810 0.490420
vt 0.392620 0.495250
vt 0.408060 0.511310
vt 0.380550 0.492670
vt 0.385400 0.499290
vt 0.383160 0.500540
vt 0.394240 0.500180
vt 0.406920 0.511950
vt 0.399490 0.516110
vt 0.379810 0.490420
vt 0.366260 0.492440
vt 0.378260 0.485720
vt 0.327370 0.519790
vt 0.312340 0.528220
vt 0.309230 0.529960
vt 0.307680 0.525260
vt 0.383160 0.500540
vt 0.309230 0.529960
vt 0.379810 0.490420
vt 0.373320 0.505730
vt 0.373420 0.506030
vt 0.383390 0.536240
vt 0.397460 0.543910
vt 0.370120 0.507520
vt 0.323530 0.533630
vt 0.323670 0.534060
vt 0.312640 0.540270
vt 0.324220 0.535730
vt 0.325910 0.540840
vt 0.384080 0.538330
vt 0.375780 0.542980
vt 0.334290 0.566240
vt 0.326880 0.583440
vt 0.337490 0.564450
vt 0.392620 0.495250
vt 0.399490 0.516110
vt 0.383160 0.500540
vt 0.396400 0.540710
vt 0.397460 0.543910
vt 0.406920 0.538600
vt 0.396640 0.541420
vt 0.323530 0.533630
vt 0.373320 0.505730
vt 0.384080 0.538330
vt 0.334290 0.566240
vt 0.399850 0.517180
vt 0.399490 0.516110
vt 0.408060 0.511310
vt 0.401520 0.522240
vt 0.406920 0.538600
vt 0.418340 0.542470
vt 0.404340 0.540050
vt 0.410260 0.546990
vt 0.397460 0.543910
vt 0.321970 0.596440
vt 0.379310 0.554070
vt 0.326880 0.583440
vt 0.315330 0.582560
vt 0.301260 0.570850
vt 0.309870 0.566030
vt 0.317380 0.588760
vt 0.311630 0.602240
vt 0.324290 0.584890
vt 0.289590 0.535400
vt 0.307680 0.525260
vt 0.307890 0.525890
vt 0.309230 0.529960
vt 0.303130 0.545600
vt 0.311880 0.537970
vt 0.301260 0.570850
vt 0.312640 0.540270
vt 0.305380 0.544340
vt 0.308280 0.561200
vt 0.309870 0.566030
vt 0.308730 0.566670
vt 0.309870 0.566030
vt 0.312640 0.540270
vt 0.313450 0.542750
vt 0.303130 0.545600
vt 0.326880 0.583440
vt 0.317380 0.588760
vn 0.0000 0.0000 -1.0000
vn 0.0001 0.0000 -1.0000
vn -0.0001 0.0000 -1.0000
vn 0.0000 0.0000 1.0000
vn -0.0001 0.0000 1.0000
vn 0.0004 0.0000 1.0000
vn 0.0001 0.0000 1.0000
s off
f 1/1/1 2/2/1 3/3/1
f 2/2/1 4/4/1 3/3/1
f 4/4/1 5/5/1 3/3/1
f 2/2/1 6/6/1 4/4/1
f 4/4/1 7/7/1 5/5/1
f 4/4/1 6/6/1 7/7/1
f 7/7/1 6/6/1 8/8/1
f 7/7/1 8/8/1 9/9/1
f 2/2/1 10/10/1 6/6/1
f 11/11/1 12/12/1 6/6/1
f 10/10/2 11/11/2 6/6/2
f 6/6/1 12/12/1 13/13/1
f 6/6/1 13/13/1 8/8/1
f 14/14/1 11/11/1 10/10/1
f 12/12/1 15/15/1 13/13/1
f 14/14/1 10/10/1 16/16/1
f 10/10/1 17/17/1 16/16/1
f 13/13/1 15/15/1 16/16/1
f 13/13/1 16/16/1 18/18/1
f 18/18/1 16/16/1 17/17/1
f 13/13/1 18/18/1 19/19/1
f 13/13/1 19/19/1 8/8/1
f 20/20/1 18/18/1 17/17/1
f 20/20/1 17/17/1 21/21/1
f 19/19/1 18/18/1 20/20/1
f 8/8/1 19/19/1 20/20/1
f 21/21/1 8/8/1 20/20/1
f 22/22/1 2/2/1 1/1/1
f 22/22/1 10/10/1 2/2/1
f 23/23/1 10/10/1 22/22/1
f 9/9/1 5/5/1 7/7/1
f 9/9/1 24/24/1 5/5/1
f 24/24/1 9/9/1 25/25/1
f 8/8/1 25/25/1 9/9/1
f 8/8/1 26/26/1 25/25/1
f 21/21/1 26/26/1 8/8/1
f 27/27/1 28/28/1 29/29/1
f 28/28/1 30/30/1 29/29/1
f 21/21/1 29/29/1 26/26/1
f 26/26/1 29/29/1 30/30/1
f 10/10/1 23/23/1 31/31/1
f 10/10/1 31/31/1 32/32/1
f 17/17/1 10/10/1 32/32/1
f 31/31/1 28/28/1 32/32/1
f 28/28/1 27/27/1 32/32/1
f 17/17/1 32/32/1 27/27/1
f 21/21/1 17/17/1 27/27/1
f 21/21/1 27/27/1 29/29/1
f 11/11/1 14/14/1 12/12/1
f 12/12/3 14/14/3 15/15/3
f 14/14/1 16/16/1 15/15/1
f 33/33/4 34/34/4 35/35/4
f 35/35/4 34/34/4 36/36/4
f 34/34/4 37/37/4 36/36/4
f 38/38/4 37/37/4 34/34/4
f 37/37/4 39/39/4 36/36/4
f 37/37/4 40/40/4 39/39/4
f 40/40/4 41/41/4 39/39/4
f 42/42/4 37/37/4 38/38/4
f 43/43/5 42/42/5 38/38/5
f 44/44/4 42/42/4 43/43/4
f 45/45/4 46/46/4 47/47/4
f 45/45/4 48/48/4 46/46/4
f 48/48/4 49/49/4 46/46/4
f 50/50/4 51/51/4 46/46/4
f 49/49/6 50/50/6 46/46/6
f 52/52/4 53/53/4 54/54/4
f 55/55/4 52/52/4 56/56/4
f 52/52/7 55/55/7 53/53/7
f 57/57/4 56/56/4 52/52/4
f 58/58/4 57/57/4 52/52/4
f 55/55/4 59/59/4 53/53/4
f 59/59/4 60/60/4 53/53/4
f 60/60/4 61/61/4 53/53/4
f 61/61/4 62/62/4 53/53/4
f 63/63/4 62/62/4 61/61/4
f 63/63/4 64/64/4 62/62/4
f 58/58/4 65/65/4 57/57/4
f 58/58/4 66/66/4 65/65/4
f 64/64/4 67/67/4 62/62/4
f 68/68/4 62/62/4 67/67/4
f 69/69/4 66/66/4 58/58/4
f 68/68/4 69/69/4 58/58/4
f 68/68/4 67/67/4 69/69/4
f 70/70/4 71/71/4 72/72/4
f 72/72/4 71/71/4 73/73/4
f 74/74/4 71/71/4 75/75/4
f 73/73/4 71/71/4 76/76/4
f 76/76/4 71/71/4 74/74/4
f 77/77/4 78/78/4 79/79/4
f 77/77/4 79/79/4 80/80/4
f 81/81/5 82/82/5 83/83/5
f 84/84/4 81/81/4 83/83/4
f 85/85/4 84/84/4 83/83/4
f 85/85/4 83/83/4 86/86/4
f 87/87/4 85/85/4 88/88/4
f 88/88/4 85/85/4 86/86/4
f 89/89/4 87/87/4 88/88/4
f 90/90/4 89/89/4 88/88/4
f 90/90/4 91/91/4 89/89/4
f 90/90/4 92/92/4 91/91/4
f 93/93/4 94/94/4 95/95/4
f 96/96/4 94/94/4 93/93/4
f 97/97/4 94/94/4 96/96/4
f 90/90/4 98/98/4 92/92/4
f 90/90/4 96/96/4 98/98/4
f 97/97/4 96/96/4 90/90/4
f 99/99/4 100/100/4 101/101/4
f 99/99/4 101/101/4 102/102/4
f 102/102/4 103/103/4 99/99/4
f 104/104/4 103/103/4 102/102/4
f 103/103/4 105/105/4 99/99/4
f 106/106/4 107/107/4 104/104/4
f 107/107/4 103/103/4 104/104/4
f 103/103/4 108/108/4 105/105/4
f 108/108/4 109/109/4 110/110/4
f 105/105/4 108/108/4 110/110/4
f 111/111/4 112/112/4 113/113/4
f 114/114/4 112/112/4 111/111/4
f 111/111/4 113/113/4 115/115/4
f 111/111/4 115/115/4 116/116/4
