# Blender v3.0.1 OBJ File: 'rockerfeller_plaza.blend'
# www.blender.org
o geometryt000010000010000110010110000110000100110010110010st47
v 44.634918 -204.442169 291.777374
v 46.312683 -201.336365 291.777374
v 47.765282 -202.118973 291.777374
v 44.345398 -204.956268 291.777374
v 56.873337 -185.271469 291.777374
v 62.411331 -191.857666 291.777374
v 55.184883 -210.814972 291.777374
v 55.412292 -184.488968 291.777374
v 57.428947 -180.757477 291.777374
v 63.915695 -189.086868 291.777374
v 68.268417 -186.616272 291.777374
v 66.251778 -190.347763 291.777374
v 64.747536 -193.129562 291.777374
v 47.765282 -202.118973 324.977386
v 44.345398 -204.956268 324.977386
v 55.184883 -210.814972 324.977386
v 44.634918 -204.442169 324.977386
v 62.411331 -191.857666 324.977386
v 64.747536 -193.129562 324.977386
v 63.915695 -189.086868 324.977386
v 56.873337 -185.271469 324.977386
v 68.268417 -186.616272 324.977386
v 66.251778 -190.347763 324.977386
v 57.428947 -180.757477 324.977386
v 55.412292 -184.488968 324.977386
v 46.312683 -201.336365 324.977386
vt 0.358840 0.078790
vt 0.352650 0.082250
vt 0.353610 0.085160
vt 0.359860 0.078200
vt 0.320060 0.103910
vt 0.330290 0.114920
vt 0.367080 0.099910
vt 0.319100 0.100980
vt 0.311670 0.105130
vt 0.324770 0.118020
vt 0.318890 0.126850
vt 0.326320 0.122690
vt 0.331860 0.119600
vt 0.353610 0.085160
vt 0.359860 0.078200
vt 0.367080 0.099910
vt 0.358840 0.078790
vt 0.330290 0.114920
vt 0.331860 0.119600
vt 0.324770 0.118020
vt 0.320060 0.103910
vt 0.318890 0.126850
vt 0.326320 0.122690
vt 0.311670 0.105130
vt 0.319100 0.100980
vt 0.352650 0.082250
vn -0.0000 0.0000 -1.0000
vn -0.0000 0.0000 1.0000
s off
f 1/1/1 2/2/1 3/3/1
f 3/3/1 4/4/1 1/1/1
f 5/5/1 6/6/1 3/3/1
f 3/3/1 6/6/1 7/7/1
f 3/3/1 7/7/1 4/4/1
f 8/8/1 9/9/1 5/5/1
f 5/5/1 9/9/1 10/10/1
f 5/5/1 10/10/1 6/6/1
f 9/9/1 11/11/1 10/10/1
f 10/10/1 11/11/1 12/12/1
f 6/6/1 13/13/1 7/7/1
f 14/14/2 15/15/2 16/16/2
f 15/15/2 14/14/2 17/17/2
f 18/18/2 16/16/2 19/19/2
f 18/18/2 14/14/2 16/16/2
f 20/20/2 21/21/2 18/18/2
f 21/21/2 14/14/2 18/18/2
f 22/22/2 20/20/2 23/23/2
f 24/24/2 20/20/2 22/22/2
f 20/20/2 24/24/2 21/21/2
f 21/21/2 24/24/2 25/25/2
f 17/17/2 14/14/2 26/26/2
