# Blender v3.0.1 OBJ File: 'rockerfeller_plaza.blend'
# www.blender.org
o geometryt000010000010000110010110000110000110100000010100st122
v 780.068848 -151.935883 149.758453
v 779.905457 -152.239685 164.138794
v 780.068848 -151.935883 164.138794
v 782.546448 -147.326691 149.758453
v 779.905457 -152.239685 146.938782
v 782.546448 -147.326691 164.138794
v 783.579834 -145.404282 164.138794
v 783.579834 -145.404282 149.758453
v 785.231567 -142.331482 149.758453
v 788.666687 -135.941086 146.938782
v 785.231567 -142.331482 164.138794
v 786.264954 -140.409088 164.138794
v 786.264954 -140.409088 149.758453
v 787.916687 -137.336380 149.758453
v 787.916687 -137.336380 164.138794
v 788.666687 -135.941086 164.138794
v 788.950073 -135.413986 149.758453
v 788.950073 -135.413986 164.138794
v 790.601807 -132.341187 149.758453
v 790.601807 -132.341187 164.138794
v 791.635193 -130.418777 164.138794
v 791.635193 -130.418777 149.758453
v 794.112793 -125.809685 149.758453
v 794.276123 -125.505783 146.938782
v 794.112793 -125.809685 164.138794
v 794.276123 -125.505783 164.138794
v 783.277100 -154.054977 149.758453
v 785.112915 -155.043381 164.138794
v 783.277100 -154.054977 164.138794
v 779.905457 -152.239685 146.938782
v 781.741272 -153.228088 149.758453
v 785.112915 -155.043381 146.938782
v 781.741272 -153.228088 164.138794
v 779.905457 -152.239685 164.138794
v 799.316101 -128.611084 149.758453
v 799.479553 -128.307281 164.138794
v 799.316101 -128.611084 164.138794
v 796.837036 -133.219482 149.758453
v 797.093140 -132.743484 146.938782
v 799.479553 -128.307281 146.938782
v 796.837036 -133.219482 164.138794
v 795.803101 -135.141586 164.138794
v 795.803101 -135.141586 149.758453
v 794.150391 -138.213791 149.758453
v 794.150391 -138.213791 164.138794
v 793.116455 -140.135880 164.138794
v 793.116455 -140.135880 149.758453
v 791.463745 -143.208191 149.758453
v 791.463745 -143.208191 164.138794
v 790.429810 -145.130280 164.138794
v 790.429810 -145.130280 149.758453
v 785.100708 -155.036789 146.938782
v 788.777100 -148.202484 149.758453
v 788.777100 -148.202484 164.138794
v 787.743164 -150.124588 164.138794
v 787.743164 -150.124588 149.758453
v 785.264160 -154.732986 149.758453
v 785.264160 -154.732986 164.138794
v 785.100708 -155.036789 164.138794
v 796.109375 -126.492783 149.758453
v 794.273621 -125.504387 164.138794
v 796.109375 -126.492783 164.138794
v 797.645203 -127.319687 149.758453
v 794.273621 -125.504387 146.938782
v 797.645203 -127.319687 164.138794
v 799.481018 -128.308090 164.138794
v 799.481018 -128.308090 146.938782
vt 19.296841 1.813290
vt 19.518709 11.061090
vt 19.296841 11.061090
vt 15.931660 1.813290
vt 19.518709 0.000000
vt 15.931660 11.061090
vt 14.528100 11.061090
vt 14.528100 1.813290
vt 12.284640 1.813290
vt 7.618930 0.000000
vt 12.284640 11.061090
vt 10.881080 11.061090
vt 10.881080 1.813290
vt 8.637631 1.813290
vt 8.637631 11.061090
vt 7.618930 11.061090
vt 7.234070 1.813290
vt 7.234070 11.061090
vt 4.990610 1.813290
vt 4.990610 11.061090
vt 3.587050 11.061090
vt 3.587050 1.813290
vt 0.221860 1.813290
vt 0.000000 0.000000
vt 0.221860 11.061090
vt 0.000000 11.061090
vt 2.462530 1.813290
vt 3.803330 11.061090
vt 2.462530 11.061090
vt 0.000000 0.000000
vt 1.340800 1.813290
vt 3.803330 0.000000
vt 1.340800 11.061090
vt 0.000000 11.061090
vt 19.296841 1.813290
vt 19.518709 11.061090
vt 19.296841 11.061090
vt 15.931660 1.813290
vt 16.279230 0.000000
vt 19.518709 0.000000
vt 15.931660 11.061090
vt 14.528100 11.061090
vt 14.528100 1.813290
vt 12.284640 1.813290
vt 12.284640 11.061090
vt 10.881080 11.061090
vt 10.881080 1.813290
vt 8.637631 1.813290
vt 8.637631 11.061090
vt 7.234070 11.061090
vt 7.234070 1.813290
vt 0.000000 0.000000
vt 4.990610 1.813290
vt 4.990610 11.061090
vt 3.587050 11.061090
vt 3.587050 1.813290
vt 0.221860 1.813290
vt 0.221860 11.061090
vt 0.000000 11.061090
vt 2.462530 1.813290
vt 3.803320 11.061090
vt 2.462530 11.061090
vt 1.340800 1.813290
vt 3.803320 0.000000
vt 1.340800 11.061090
vt 0.000000 11.061090
vt 0.000000 0.000000
vn -0.8810 0.4731 -0.0000
vn -0.8808 0.4735 0.0000
vn -0.8807 0.4737 0.0000
vn -0.8808 0.4734 0.0000
vn -0.8807 0.4736 0.0000
vn -0.8810 0.4732 0.0000
vn -0.4740 -0.8805 0.0000
vn -0.4741 -0.8805 0.0000
vn 0.8805 -0.4740 0.0000
vn 0.8807 -0.4737 0.0000
vn 0.8807 -0.4738 0.0000
vn 0.8807 -0.4736 0.0000
vn 0.8808 -0.4736 0.0000
vn 0.4741 0.8805 0.0000
vn 0.4740 0.8805 0.0000
s off
f 1/1/1 2/2/1 3/3/1
f 4/4/2 5/5/2 1/1/2
f 2/2/3 1/1/3 5/5/3
f 6/6/4 7/7/4 4/4/4
f 7/7/2 8/8/2 4/4/2
f 4/4/2 8/8/2 5/5/2
f 8/8/4 9/9/4 10/10/4
f 8/8/2 10/10/2 5/5/2
f 11/11/2 12/12/2 9/9/2
f 12/12/2 13/13/2 9/9/2
f 9/9/2 13/13/2 10/10/2
f 13/13/2 14/14/2 10/10/2
f 15/15/2 16/16/2 14/14/2
f 16/16/2 17/17/2 14/14/2
f 14/14/4 17/17/4 10/10/4
f 16/16/5 18/18/5 17/17/5
f 17/17/2 19/19/2 10/10/2
f 20/20/2 21/21/2 19/19/2
f 21/21/4 22/22/4 19/19/4
f 19/19/2 22/22/2 10/10/2
f 23/23/2 24/24/2 22/22/2
f 22/22/2 24/24/2 10/10/2
f 25/25/2 26/26/2 23/23/2
f 26/26/6 24/24/6 23/23/6
f 27/27/7 28/28/7 29/29/7
f 30/30/8 27/27/8 31/31/8
f 30/30/8 32/32/8 27/27/8
f 28/28/7 27/27/7 32/32/7
f 33/33/7 34/34/7 31/31/7
f 34/34/8 30/30/8 31/31/8
f 35/35/9 36/36/9 37/37/9
f 38/38/10 39/39/10 35/35/10
f 39/39/11 40/40/11 35/35/11
f 36/36/12 35/35/12 40/40/12
f 41/41/10 42/42/10 38/38/10
f 42/42/10 43/43/10 38/38/10
f 43/43/10 39/39/10 38/38/10
f 43/43/11 44/44/11 39/39/11
f 45/45/11 46/46/11 44/44/11
f 46/46/10 47/47/10 44/44/10
f 44/44/11 47/47/11 39/39/11
f 47/47/10 48/48/10 39/39/10
f 49/49/11 50/50/11 48/48/11
f 50/50/11 51/51/11 48/48/11
f 51/51/11 52/52/11 48/48/11
f 48/48/10 52/52/10 39/39/10
f 53/53/10 52/52/10 51/51/10
f 54/54/10 55/55/10 53/53/10
f 55/55/10 56/56/10 53/53/10
f 56/56/11 52/52/11 53/53/11
f 57/57/11 52/52/11 56/56/11
f 58/58/9 59/59/9 57/57/9
f 59/59/13 52/52/13 57/57/13
f 60/60/14 61/61/14 62/62/14
f 63/63/14 64/64/14 60/60/14
f 61/61/15 60/60/15 64/64/15
f 65/65/14 66/66/14 63/63/14
f 66/66/14 67/67/14 63/63/14
f 67/67/14 64/64/14 63/63/14
