# Blender v3.0.1 OBJ File: 'rockerfeller_plaza.blend'
# www.blender.org
o geometryt000010000010000110010110000110000110100100000000st26
v 339.368835 -130.346878 888.607849
v 331.256165 -119.471985 888.607849
v 352.475555 -105.958687 888.607849
v 339.049408 -104.993088 888.607849
v 341.256592 -100.948486 888.607849
v 341.686523 -100.166382 888.607849
v 330.287170 -125.456284 888.607849
v 328.708618 -128.383377 888.607849
v 327.009552 -127.470482 888.607849
v 352.475555 -105.958687 934.507874
v 341.686523 -100.166382 934.507874
v 341.256592 -100.948486 934.507874
v 339.049408 -104.993088 934.507874
v 331.256165 -119.471985 934.507874
v 327.009552 -127.470482 934.507874
v 330.287170 -125.456284 934.507874
v 339.368835 -130.346878 934.507874
v 328.708618 -128.383377 934.507874
vt 0.211340 0.160720
vt 0.194130 0.144620
vt 0.162800 0.187710
vt 0.165310 0.160670
vt 0.157250 0.165210
vt 0.155690 0.166100
vt 0.205330 0.142530
vt 0.211160 0.139280
vt 0.210040 0.135880
vt 0.162800 0.187710
vt 0.155690 0.166100
vt 0.157250 0.165210
vt 0.165310 0.160670
vt 0.194130 0.144620
vt 0.210040 0.135880
vt 0.205330 0.142530
vt 0.211340 0.160720
vt 0.211160 0.139280
vn 0.0000 0.0000 -1.0000
vn 0.0000 0.0000 1.0000
s off
f 1/1/1 2/2/1 3/3/1
f 2/2/1 4/4/1 3/3/1
f 4/4/1 5/5/1 3/3/1
f 5/5/1 6/6/1 3/3/1
f 2/2/1 1/1/1 7/7/1
f 8/8/1 9/9/1 7/7/1
f 9/9/1 2/2/1 7/7/1
f 10/10/2 11/11/2 12/12/2
f 13/13/2 10/10/2 12/12/2
f 13/13/2 14/14/2 10/10/2
f 14/14/2 15/15/2 16/16/2
f 14/14/2 16/16/2 17/17/2
f 10/10/2 14/14/2 17/17/2
f 15/15/2 18/18/2 16/16/2
