# Blender v3.0.1 OBJ File: 'rockerfeller_plaza.blend'
# www.blender.org
o geometryt000010000010000110010110000110000100110010010110st38
v 44.964310 -56.342121 19.897030
v 51.506390 -59.996819 19.897030
v 46.907990 -68.210136 19.897030
v 40.374340 -64.555344 19.897030
v 44.964310 -56.342121 35.097031
v 40.374340 -64.555344 35.097031
v 46.907990 -68.210136 35.097031
v 51.506390 -59.996819 35.097031
vt 0.088230 0.089330
vt 0.092800 0.102430
vt 0.109210 0.092970
vt 0.104640 0.079880
vt 0.088230 0.089330
vt 0.104640 0.079880
vt 0.109210 0.092970
vt 0.092800 0.102430
vn -0.0000 0.0000 -1.0000
vn 0.0000 0.0000 1.0000
s off
f 1/1/1 2/2/1 3/3/1
f 4/4/1 1/1/1 3/3/1
f 5/5/2 6/6/2 7/7/2
f 5/5/2 7/7/2 8/8/2
