# Blender v3.0.1 OBJ File: 'rockerfeller_plaza.blend'
# www.blender.org
o geometryt000010000010000110010110000110000100110010110110st94_R
v 177.563080 -308.729553 567.975159
v 177.226776 -309.370239 618.681152
v 177.563080 -308.729553 618.681152
v 178.721878 -306.521851 567.181152
v 178.385590 -307.162537 567.975159
v 177.226776 -309.370239 567.181152
v 178.385590 -307.162537 618.681152
v 178.721878 -306.521851 618.681152
v 186.877991 -314.510651 567.975159
v 187.182480 -314.672852 618.681152
v 186.877991 -314.510651 618.681152
v 183.753983 -312.846741 567.975159
v 187.182480 -314.672852 567.181152
v 183.753983 -312.846741 618.681152
v 180.655289 -311.196350 618.681152
v 180.655289 -311.196350 567.975159
v 177.531281 -309.532440 567.975159
v 177.226776 -309.370239 567.181152
v 177.531281 -309.532440 618.681152
v 177.226776 -309.370239 618.681152
v 179.089386 -305.841736 567.975159
v 178.721878 -306.521851 618.681152
v 179.089386 -305.841736 618.681152
v 179.930786 -304.284729 567.975159
v 179.760986 -304.598938 567.181152
v 179.247986 -305.548248 567.181152
v 178.721878 -306.521851 567.181152
v 179.930786 -304.284729 618.681152
v 180.298386 -303.604645 618.681152
v 180.298386 -303.604645 567.181152
v 180.462387 -303.301147 567.975159
v 180.300583 -303.605835 618.681152
v 180.462387 -303.301147 618.681152
v 182.122391 -300.175140 567.975159
v 180.300583 -303.605835 567.181152
v 182.122391 -300.175140 618.681152
v 182.592484 -299.289734 618.681152
v 182.592484 -299.289734 567.975159
v 183.422485 -297.726746 567.975159
v 183.422485 -297.726746 618.681152
v 183.892685 -296.841431 618.681152
v 183.892685 -296.841431 567.975159
v 184.722687 -295.278442 567.975159
v 184.722687 -295.278442 618.681152
v 185.192780 -294.393036 618.681152
v 185.192780 -294.393036 567.975159
v 188.314789 -288.513947 567.181152
v 186.022781 -292.830048 567.975159
v 186.022781 -292.830048 618.681152
v 186.492889 -291.944733 618.681152
v 186.492889 -291.944733 567.975159
v 188.152985 -288.818634 567.975159
v 188.152985 -288.818634 618.681152
v 188.314789 -288.513947 618.681152
v 192.549789 -317.456940 567.975159
v 192.855988 -317.615845 618.681152
v 192.549789 -317.456940 618.681152
v 190.978790 -316.642029 567.975159
v 192.855988 -317.615845 567.181152
v 190.978790 -316.642029 618.681152
v 189.059677 -315.646545 618.681152
v 189.059677 -315.646545 567.975159
v 187.488785 -314.831635 567.975159
v 187.182480 -314.672852 567.181152
v 187.488785 -314.831635 618.681152
v 187.182480 -314.672852 618.681152
v 188.622391 -288.670227 567.975159
v 188.314789 -288.513947 618.681152
v 188.622391 -288.670227 618.681152
v 191.777878 -290.273529 567.975159
v 188.314789 -288.513947 567.181152
v 191.777878 -290.273529 618.681152
v 192.767288 -290.776245 618.681152
v 192.767288 -290.776245 567.975159
v 194.345078 -291.577850 567.975159
v 194.345078 -291.577850 618.681152
v 195.334488 -292.080536 618.681152
v 195.334488 -292.080536 567.975159
v 196.912186 -292.882233 567.975159
v 203.931885 -296.448853 567.181152
v 196.912186 -292.882233 618.681152
v 197.901581 -293.384949 618.681152
v 197.901581 -293.384949 567.975159
v 199.479385 -294.186554 567.975159
v 199.479385 -294.186554 618.681152
v 200.468781 -294.689240 618.681152
v 200.468781 -294.689240 567.975159
v 203.624390 -296.292542 567.975159
v 203.624390 -296.292542 618.681152
v 203.931885 -296.448853 618.681152
v 203.771988 -296.754547 567.975159
v 203.931885 -296.448853 618.681152
v 203.771988 -296.754547 618.681152
v 202.130981 -299.890625 567.975159
v 203.931885 -296.448853 567.181152
v 202.130981 -299.890625 618.681152
v 201.569077 -300.964447 618.681152
v 201.569077 -300.964447 567.975159
v 200.748581 -302.532532 567.975159
v 200.748581 -302.532532 618.681152
v 200.186584 -303.606354 618.681152
v 200.186584 -303.606354 567.975159
v 199.366089 -305.174438 567.975159
v 199.366089 -305.174438 618.681152
v 198.804184 -306.248352 618.681152
v 198.804184 -306.248352 567.975159
v 197.983688 -307.816345 567.975159
v 197.983688 -307.816345 618.681152
v 197.421783 -308.890228 618.681152
v 197.421783 -308.890228 567.975159
v 192.855988 -317.615845 567.181152
v 196.601288 -310.458252 567.975159
v 196.601288 -310.458252 618.681152
v 196.039383 -311.532135 618.681152
v 196.039383 -311.532135 567.975159
v 195.218887 -313.100128 567.975159
v 195.218887 -313.100128 618.681152
v 194.656982 -314.174042 618.681152
v 194.656982 -314.174042 567.975159
v 193.015976 -317.310150 567.975159
v 193.015976 -317.310150 618.681152
v 192.855988 -317.615845 618.681152
vt 13.404980 4.268840
vt 17.295200 276.881714
vt 13.404980 276.881714
vt 0.000000 0.000000
vt 3.890210 4.268840
vt 17.295200 0.000000
vt 3.890210 276.881714
vt 0.000000 276.881714
vt 58.789261 4.268840
vt 60.644100 276.881714
vt 58.789261 276.881714
vt 39.759720 4.268840
vt 60.644100 0.000000
vt 39.759720 276.881714
vt 20.884371 276.881714
vt 20.884371 4.268840
vt 1.854840 4.268840
vt 0.000000 0.000000
vt 1.854840 276.881714
vt 0.000000 276.881714
vt 13.671070 4.268840
vt 17.827370 276.881714
vt 13.671070 276.881714
vt 4.156300 4.268840
vt 6.076190 0.000000
vt 11.877570 0.000000
vt 17.827370 0.000000
vt 4.156300 276.881714
vt 0.000000 276.881714
vt 0.000000 0.000000
vt 90.015129 4.268840
vt 91.869957 276.881714
vt 90.015129 276.881714
vt 70.985588 4.268840
vt 91.869957 0.000000
vt 70.985588 276.881714
vt 65.596359 276.881714
vt 65.596359 4.268840
vt 56.081600 4.268840
vt 56.081600 276.881714
vt 50.692371 276.881714
vt 50.692371 4.268840
vt 41.177601 4.268840
vt 41.177601 276.881714
vt 35.788368 276.881714
vt 35.788368 4.268840
vt 0.000000 0.000000
vt 26.273600 4.268840
vt 26.273600 276.881714
vt 20.884371 276.881714
vt 20.884371 4.268840
vt 1.854840 4.268840
vt 1.854840 276.881714
vt 0.000000 276.881714
vt 32.507511 4.268840
vt 34.362350 276.881714
vt 32.507511 276.881714
vt 22.992741 4.268840
vt 34.362350 0.000000
vt 22.992741 276.881714
vt 11.369610 276.881714
vt 11.369610 4.268840
vt 1.854840 4.268840
vt 0.000000 0.000000
vt 1.854840 276.881714
vt 0.000000 276.881714
vt 92.324471 4.268840
vt 94.179291 276.881714
vt 92.324471 276.881714
vt 73.294922 4.268840
vt 94.179291 0.000000
vt 73.294922 276.881714
vt 67.328362 276.881714
vt 67.328362 4.268840
vt 57.813591 4.268840
vt 57.813591 276.881714
vt 51.847031 276.881714
vt 51.847031 4.268840
vt 0.000000 0.000000
vt 42.332260 276.881714
vt 36.365700 276.881714
vt 42.332260 4.268840
vt 36.365700 4.268840
vt 26.850929 4.268840
vt 26.850929 276.881714
vt 20.884371 276.881714
vt 20.884371 4.268840
vt 1.854840 4.268840
vt 1.854840 276.881714
vt 0.000000 276.881714
vt 126.584396 4.268840
vt 128.439194 276.881714
vt 126.584396 276.881714
vt 107.554901 4.268840
vt 128.439194 0.000000
vt 107.554901 276.881714
vt 101.038803 276.881714
vt 101.038803 4.268840
vt 91.523987 4.268840
vt 91.523987 276.881714
vt 85.007881 276.881714
vt 85.007881 4.268840
vt 75.493111 4.268840
vt 75.493111 276.881714
vt 68.976997 276.881714
vt 68.976997 4.268840
vt 59.462231 4.268840
vt 59.462231 276.881714
vt 52.946129 276.881714
vt 52.946129 4.268840
vt 0.000000 0.000000
vt 43.431358 4.268840
vt 43.431358 276.881714
vt 36.915249 276.881714
vt 36.915249 4.268840
vt 27.400480 4.268840
vt 27.400480 276.881714
vt 20.884371 276.881714
vt 20.884371 4.268840
vt 1.854840 4.268840
vt 1.854840 276.881714
vt 0.000000 276.881714
vn -0.8854 0.4648 0.0000
vn -0.8855 0.4647 0.0000
vn -0.4701 -0.8826 0.0000
vn -0.4702 -0.8826 0.0000
vn -0.4701 -0.8826 0.0001
vn -0.8798 0.4754 0.0000
vn -0.8797 0.4755 0.0000
vn -0.8832 0.4690 0.0000
vn -0.8832 0.4689 0.0000
vn -0.8832 0.4690 0.0001
vn -0.8832 0.4690 -0.0001
vn -0.8832 0.4691 0.0000
vn -0.8832 0.4690 0.0002
vn -0.8831 0.4691 -0.0002
vn -0.4606 -0.8876 0.0000
vn -0.4605 -0.8877 0.0001
vn -0.4602 -0.8878 -0.0000
vn -0.4605 -0.8877 0.0000
vn -0.4605 -0.8877 0.0002
vn -0.4604 -0.8877 0.0000
vn -0.4605 -0.8876 0.0000
vn 0.4529 0.8915 0.0000
vn 0.4530 0.8915 -0.0000
vn 0.4532 0.8914 0.0003
vn 0.4530 0.8915 0.0006
vn 0.4529 0.8915 -0.0003
vn 0.4527 0.8917 -0.0000
vn 0.4531 0.8914 0.0000
vn 0.8861 -0.4635 0.0000
vn 0.8861 -0.4636 -0.0001
vn 0.8860 -0.4636 0.0000
vn 0.8861 -0.4636 0.0000
vn 0.8861 -0.4634 0.0000
vn 0.8860 -0.4637 0.0000
vn 0.8860 -0.4636 0.0003
vn 0.8860 -0.4637 -0.0001
vn 0.8860 -0.4636 -0.0002
vn 0.8862 -0.4633 -0.0002
vn 0.8860 -0.4637 -0.0003
vn -0.8832 0.4689 -0.0006
vn -0.8832 0.4689 0.0006
vn 0.4528 0.8916 -0.0001
s off
f 1/1/1 2/2/1 3/3/1
f 4/4/2 1/1/2 5/5/2
f 4/4/1 6/6/1 1/1/1
f 7/7/1 8/8/1 5/5/1
f 8/8/2 4/4/2 5/5/2
f 9/9/3 10/10/3 11/11/3
f 12/12/3 13/13/3 9/9/3
f 10/10/4 9/9/4 13/13/4
f 14/14/3 15/15/3 12/12/3
f 15/15/3 16/16/3 12/12/3
f 16/16/5 13/13/5 12/12/5
f 17/17/3 18/18/3 16/16/3
f 16/16/3 18/18/3 13/13/3
f 19/19/3 20/20/3 17/17/3
f 20/20/3 18/18/3 17/17/3
f 21/21/6 22/22/6 23/23/6
f 24/24/6 25/25/6 21/21/6
f 25/25/6 26/26/6 21/21/6
f 26/26/6 27/27/6 21/21/6
f 22/22/6 21/21/6 27/27/6
f 28/28/7 29/29/7 24/24/7
f 29/29/7 30/30/7 24/24/7
f 30/30/7 25/25/7 24/24/7
f 31/31/8 32/32/8 33/33/8
f 34/34/8 35/35/8 31/31/8
f 32/32/8 31/31/8 35/35/8
f 36/36/9 37/37/9 34/34/9
f 37/37/9 38/38/9 34/34/9
f 38/38/10 35/35/10 34/34/10
f 38/38/11 39/39/11 35/35/11
f 40/40/12 41/41/12 39/39/12
f 41/41/8 42/42/8 39/39/8
f 42/42/13 43/43/13 35/35/13
f 44/44/9 45/45/9 43/43/9
f 45/45/9 46/46/9 43/43/9
f 43/43/8 47/47/8 35/35/8
f 48/48/8 47/47/8 46/46/8
f 49/49/8 50/50/8 48/48/8
f 50/50/8 51/51/8 48/48/8
f 51/51/14 47/47/14 48/48/14
f 52/52/8 47/47/8 51/51/8
f 53/53/8 54/54/8 52/52/8
f 54/54/12 47/47/12 52/52/12
f 55/55/15 56/56/15 57/57/15
f 58/58/16 59/59/16 55/55/16
f 56/56/17 55/55/17 59/59/17
f 60/60/18 61/61/18 58/58/18
f 61/61/18 62/62/18 58/58/18
f 62/62/18 59/59/18 58/58/18
f 63/63/19 64/64/19 62/62/19
f 62/62/20 64/64/20 59/59/20
f 65/65/17 66/66/17 63/63/17
f 66/66/21 64/64/21 63/63/21
f 67/67/22 68/68/22 69/69/22
f 70/70/23 71/71/23 67/67/23
f 68/68/23 67/67/23 71/71/23
f 72/72/23 73/73/23 70/70/23
f 73/73/23 74/74/23 70/70/23
f 74/74/24 71/71/24 70/70/24
f 74/74/23 75/75/23 71/71/23
f 76/76/23 77/77/23 75/75/23
f 77/77/23 78/78/23 75/75/23
f 75/75/23 78/78/23 71/71/23
f 78/78/22 80/79/22 71/71/22
f 81/80/23 82/81/23 79/82/23
f 82/81/23 83/83/23 79/82/23
f 83/83/25 80/79/25 79/82/25
f 84/84/26 80/79/26 83/83/26
f 85/85/23 86/86/23 84/84/23
f 86/86/23 87/87/23 84/84/23
f 87/87/24 80/79/24 84/84/24
f 88/88/23 80/79/23 87/87/23
f 89/89/27 90/90/27 88/88/27
f 90/90/28 80/79/28 88/88/28
f 91/91/29 92/92/29 93/93/29
f 94/94/30 95/95/30 91/91/30
f 92/92/29 91/91/29 95/95/29
f 96/96/31 97/97/31 94/94/31
f 97/97/31 98/98/31 94/94/31
f 98/98/32 95/95/32 94/94/32
f 98/98/33 99/99/33 95/95/33
f 100/100/34 101/101/34 99/99/34
f 101/101/34 102/102/34 99/99/34
f 102/102/35 103/103/35 95/95/35
f 104/104/31 105/105/31 103/103/31
f 105/105/31 106/106/31 103/103/31
f 103/103/36 106/106/36 95/95/36
f 106/106/37 107/107/37 95/95/37
f 108/108/31 109/109/31 107/107/31
f 109/109/31 110/110/31 107/107/31
f 110/110/38 111/111/38 107/107/38
f 107/107/31 111/111/31 95/95/31
f 112/112/31 111/111/31 110/110/31
f 113/113/31 114/114/31 112/112/31
f 114/114/31 115/115/31 112/112/31
f 115/115/34 111/111/34 112/112/34
f 116/116/31 111/111/31 115/115/31
f 117/117/31 118/118/31 116/116/31
f 118/118/31 119/119/31 116/116/31
f 119/119/39 111/111/39 116/116/39
f 120/120/32 111/111/32 119/119/32
f 121/121/31 122/122/31 120/120/31
f 122/122/34 111/111/34 120/120/34
s 1
f 2/2/1 1/1/1 6/6/1
f 39/39/40 42/42/40 35/35/40
f 46/46/41 47/47/41 43/43/41
f 79/82/42 80/79/42 78/78/42
f 99/99/36 102/102/36 95/95/36
