# Blender v3.0.1 OBJ File: 'rockerfeller_plaza.blend'
# www.blender.org
o geometryt000010000010000110010110000110000110100000110000st4
v 928.341064 -136.530136 425.342224
v 927.989624 -137.194641 442.982300
v 928.341064 -136.530136 442.982300
v 942.187622 -110.350044 424.182312
v 941.836243 -111.014549 425.342224
v 927.989624 -137.194641 424.182312
v 941.836243 -111.014549 442.982300
v 942.187622 -110.350044 442.982300
v 932.926025 -139.808441 425.342224
v 933.426147 -140.073242 442.982300
v 932.926025 -139.808441 442.982300
v 927.989624 -137.194641 424.182312
v 928.489624 -137.459442 425.342224
v 933.426147 -140.073242 424.182312
v 928.489624 -137.459442 442.982300
v 927.989624 -137.194641 442.982300
v 947.272949 -113.893250 425.342224
v 947.624268 -113.228745 442.982300
v 947.272949 -113.893250 442.982300
v 933.780762 -139.410446 425.342224
v 946.484375 -115.384644 424.182312
v 947.624268 -113.228745 424.182312
v 933.780762 -139.410446 442.982300
v 933.429321 -140.074936 442.982300
v 933.429321 -140.074936 424.182312
v 942.687744 -110.614845 425.342224
v 942.187622 -110.350044 442.982300
v 942.687744 -110.614845 442.982300
v 947.124146 -112.963844 425.342224
v 942.187622 -110.350044 424.182312
v 947.124146 -112.963844 442.982300
v 947.624146 -113.228645 442.982300
v 947.624146 -113.228645 424.182312
vt 11.846530 0.456840
vt 12.147210 7.404490
vt 11.846530 7.404490
vt 0.000000 0.000000
vt 0.300680 0.456840
vt 12.147210 0.000000
vt 0.300680 7.404490
vt 0.000000 7.404490
vt 2.234290 0.456840
vt 2.460610 7.404490
vt 2.234290 7.404490
vt 0.000000 0.000000
vt 0.226320 0.456840
vt 2.460610 0.000000
vt 0.226320 7.404490
vt 0.000000 7.404490
vt 11.846530 0.456840
vt 12.147210 7.404490
vt 11.846530 7.404490
vt 0.300680 0.456840
vt 11.171700 0.000000
vt 12.147210 0.000000
vt 0.300680 7.404490
vt 0.000000 7.404490
vt 0.000000 0.000000
vt 2.234290 0.456840
vt 2.460610 7.404490
vt 2.234290 7.404490
vt 0.226320 0.456840
vt 2.460610 0.000000
vt 0.226320 7.404490
vt 0.000000 7.404490
vt 0.000000 0.000000
vn -0.8840 0.4675 0.0000
vn -0.8840 0.4675 0.0001
vn -0.8840 0.4676 0.0000
vn -0.8841 0.4673 0.0000
vn -0.4678 -0.8838 0.0000
vn -0.4679 -0.8838 -0.0000
vn -0.4680 -0.8838 -0.0000
vn -0.4680 -0.8837 0.0000
vn 0.8841 -0.4673 0.0000
vn 0.8840 -0.4675 0.0000
vn 0.8840 -0.4674 -0.0000
vn 0.8839 -0.4676 0.0000
vn 0.8840 -0.4674 -0.0001
vn 0.4678 0.8838 0.0000
vn 0.4679 0.8838 -0.0000
vn 0.4680 0.8837 0.0000
vn 0.4681 0.8837 0.0000
vn 0.4680 0.8837 -0.0001
s off
f 1/1/1 2/2/1 3/3/1
f 4/4/2 1/1/2 5/5/2
f 4/4/1 6/6/1 1/1/1
f 2/2/3 1/1/3 6/6/3
f 7/7/1 8/8/1 5/5/1
f 8/8/4 4/4/4 5/5/4
f 9/9/5 10/10/5 11/11/5
f 12/12/6 9/9/6 13/13/6
f 12/12/7 14/14/7 9/9/7
f 10/10/6 9/9/6 14/14/6
f 15/15/8 16/16/8 13/13/8
f 16/16/8 12/12/8 13/13/8
f 17/17/9 18/18/9 19/19/9
f 17/17/10 20/20/10 21/21/10
f 21/21/11 22/22/11 17/17/11
f 18/18/11 17/17/11 22/22/11
f 23/23/10 24/24/10 20/20/10
f 24/24/12 25/25/12 20/20/12
f 25/25/13 21/21/13 20/20/13
f 26/26/14 27/27/14 28/28/14
f 29/29/15 30/30/15 26/26/15
f 27/27/15 26/26/15 30/30/15
f 31/31/16 32/32/16 29/29/16
f 32/32/17 33/33/17 29/29/17
f 33/33/18 30/30/18 29/29/18
