# Blender v3.0.1 OBJ File: 'rockerfeller_plaza.blend'
# www.blender.org
o geometryt000010000010000110010110000110000110100000100100st137_
v 469.195312 -62.686619 612.522278
v 469.938477 -63.089691 626.885071
v 469.195312 -62.686619 626.885071
v 453.049988 -53.929550 612.522278
v 466.633301 -61.296978 612.024719
v 469.938477 -63.089691 612.024719
v 453.049988 -53.929550 626.885071
v 452.306793 -53.526489 626.885071
v 452.306793 -53.526489 612.024719
v 452.617615 -52.975391 612.522278
v 452.306793 -53.526489 626.885071
v 452.617615 -52.975391 626.885071
v 455.437103 -47.975788 612.522278
v 452.306793 -53.526489 612.024719
v 455.437103 -47.975788 626.885071
v 455.747803 -47.424690 626.885071
v 455.747803 -47.424690 612.024719
v 456.401794 -47.777302 612.522278
v 455.747803 -47.424690 626.885071
v 456.401794 -47.777302 626.885071
v 473.222504 -56.847309 612.024719
v 472.568604 -56.494701 612.522278
v 455.747803 -47.424690 612.024719
v 472.568604 -56.494701 626.885071
v 473.222504 -56.847309 626.885071
v 470.843292 -61.437351 612.522278
v 471.191711 -60.801102 626.885071
v 470.843292 -61.437351 626.885071
v 469.943481 -63.080460 612.024719
v 470.291901 -62.444210 612.522278
v 471.191711 -60.801102 612.024719
v 470.291901 -62.444210 626.885071
v 469.943481 -63.080460 626.885071
v 472.993896 -57.292500 612.522278
v 473.222504 -56.847309 626.885071
v 472.993896 -57.292500 626.885071
v 471.420410 -60.355911 612.522278
v 473.222504 -56.847309 612.024719
v 471.420410 -60.355911 626.885071
v 471.191711 -60.801102 626.885071
v 471.191711 -60.801102 612.024719
vt 103.294296 2.674900
vt 4.545190 2.674900
vt 87.624031 0.000000
vt 107.839500 0.000000
vt 0.000000 0.000000
vt 34.260651 2.674900
vt 37.662201 79.894341
vt 34.260651 79.894341
vt 37.662201 0.000000
vt 3.401550 79.894341
vt 0.000000 79.894341
vt 3.401550 2.674900
vt 0.000000 0.000000
vt 102.743401 2.674900
vt 106.737801 79.894341
vt 102.743401 79.894341
vt 0.000000 0.000000
vt 3.994360 2.674900
vt 106.737801 0.000000
vt 3.994360 79.894341
vt 0.000000 79.894341
vt 10.071870 2.674900
vt 13.971920 79.894341
vt 10.071870 79.894341
vt 0.000000 0.000000
vt 3.900050 2.674900
vt 13.971920 0.000000
vt 3.900050 79.894341
vt 0.000000 79.894341
vt 21.206221 2.674900
vt 23.896990 79.894341
vt 21.206221 79.894341
vt 2.690770 2.674900
vt 23.896990 0.000000
vt 2.690770 79.894341
vt 0.000000 79.894341
vt 0.000000 0.000000
vt 107.839500 79.894341
vt 103.294296 79.894341
vt 4.545190 79.894341
vt 0.000000 79.894341
vn -0.4767 -0.8791 -0.0000
vn -0.4769 -0.8790 0.0001
vn -0.8710 0.4912 0.0000
vn -0.8710 0.4913 0.0000
vn -0.8709 0.4914 0.0000
vn -0.8711 0.4911 0.0000
vn -0.8710 0.4913 0.0001
vn 0.4746 0.8802 0.0000
vn 0.4747 0.8802 -0.0000
vn 0.4747 0.8802 -0.0001
vn 0.8771 -0.4804 0.0000
vn 0.8770 -0.4804 0.0000
vn 0.8771 -0.4803 -0.0000
vn 0.8771 -0.4802 0.0000
vn 0.8895 -0.4569 0.0000
vn 0.8895 -0.4569 -0.0001
vn 0.8896 -0.4568 0.0000
vn -0.4767 -0.8790 0.0000
vn -0.4768 -0.8790 0.0000
vn -0.8711 0.4912 0.0001
s off
f 1/1/1 4/2/1 5/3/1
f 5/3/1 6/4/1 1/1/1
f 9/5/2 5/3/2 4/2/2
f 10/6/3 11/7/3 12/8/3
f 11/7/4 10/6/4 14/9/4
f 15/10/5 16/11/5 13/12/5
f 16/11/6 17/13/6 13/12/6
f 17/13/7 14/9/7 13/12/7
f 18/14/8 19/15/8 20/16/8
f 21/17/9 18/14/9 22/18/9
f 21/17/10 23/19/10 18/14/10
f 19/15/8 18/14/8 23/19/8
f 24/20/8 25/21/8 22/18/8
f 25/21/8 21/17/8 22/18/8
f 26/22/11 27/23/11 28/24/11
f 29/25/12 26/22/12 30/26/12
f 29/25/13 31/27/13 26/22/13
f 27/23/13 26/22/13 31/27/13
f 32/28/11 33/29/11 30/26/11
f 33/29/14 29/25/14 30/26/14
f 34/30/15 35/31/15 36/32/15
f 37/33/16 38/34/16 34/30/16
f 35/31/17 34/30/17 38/34/17
f 39/35/15 40/36/15 37/33/15
f 40/36/15 41/37/15 37/33/15
f 41/37/16 38/34/16 37/33/16
s 1
f 1/1/18 2/38/19 3/39/19
f 2/38/19 1/1/18 6/4/18
f 7/40/19 8/41/19 4/2/18
f 8/41/19 9/5/18 4/2/18
f 13/12/20 14/9/20 10/6/20
