# Blender v3.0.1 OBJ File: 'rockerfeller_plaza.blend'
# www.blender.org
o geometryt000010000010000110010110000110000110100000000100st64_8
v 263.812958 -206.085999 97.248062
v 263.812958 -206.085999 64.898514
v 270.285248 -209.607407 64.898514
v 270.285248 -209.607407 97.248062
v 266.011322 -198.134705 97.248062
v 266.011322 -198.134705 64.898514
v 263.204987 -204.947601 64.898514
v 263.204987 -204.947601 97.248062
v 270.985718 -185.907104 214.248077
v 270.985718 -185.907104 64.898514
v 266.545959 -196.828293 64.898514
v 266.545959 -196.828293 214.248077
v 266.892120 -197.787094 97.248062
v 268.375366 -198.547394 97.248062
v 266.892120 -197.787094 214.248077
v 274.760498 -201.820297 214.248077
v 274.760498 -201.820297 97.248062
v 274.309845 -177.850601 97.248062
v 274.309845 -177.850601 64.898514
v 271.496460 -184.660507 64.898514
v 271.496460 -184.660507 97.248062
v 287.644592 -193.384201 97.248062
v 284.293091 -191.723602 97.248062
v 287.644592 -193.384201 214.248077
v 271.799255 -185.533295 214.248077
v 271.799255 -185.533295 97.248062
v 291.106140 -185.771805 97.248062
v 291.106140 -185.771805 64.898514
v 275.384308 -177.676300 64.898514
v 275.384308 -177.676300 97.248062
v 291.714325 -186.633499 214.248077
v 291.714325 -186.633499 97.248062
v 291.072174 -187.915100 97.248062
v 288.413727 -193.221100 214.248077
v 288.413727 -193.221100 97.248062
v 306.646576 -193.988098 214.248077
v 306.646576 -193.988098 64.898514
v 292.320770 -186.402893 64.898514
v 292.320770 -186.402893 214.248077
v 298.328644 -224.327194 97.248062
v 298.328644 -224.327194 64.898514
v 304.813812 -227.824707 64.898514
v 304.813812 -227.824707 97.248062
v 302.520325 -216.369904 214.248077
v 302.520325 -216.369904 97.248062
v 303.722198 -217.025299 97.248062
v 308.989197 -219.897598 214.248077
v 308.989197 -219.897598 97.248062
v 303.698914 -201.173904 97.248062
v 304.344788 -199.822296 97.248062
v 303.698914 -201.173904 214.248077
v 306.875824 -194.525696 214.248077
v 306.875824 -194.525696 97.248062
v 315.490295 -208.156693 214.248077
v 315.490295 -208.156693 97.248062
v 313.016602 -206.779999 97.248062
v 303.901337 -201.707108 214.248077
v 303.901337 -201.707108 97.248062
v 305.729004 -227.415894 64.898514
v 309.153290 -220.891693 64.898514
v 309.153290 -220.891693 97.248062
v 305.729004 -227.415894 97.248062
v 319.128662 -200.926605 97.248062
v 319.128662 -200.926605 64.898514
v 307.540649 -194.475296 64.898514
v 307.540649 -194.475296 97.248062
v 309.906433 -219.470596 214.248077
v 309.906433 -219.470596 64.898514
v 315.467468 -209.075500 64.898514
v 315.467468 -209.075500 214.248077
v 316.019928 -208.039307 97.248062
v 316.019928 -208.039307 64.898514
v 319.466248 -201.526703 64.898514
v 319.466248 -201.526703 97.248062
vt 0.000000 1.750000
vt 0.000000 0.000000
vt 0.833330 0.000000
vt 0.833330 1.750000
vt 0.000000 1.750000
vt 0.000000 0.000000
vt 0.833330 0.000000
vt 0.833330 1.750000
vt 0.000000 8.000000
vt 0.000000 0.000000
vt 1.333330 0.000000
vt 1.333330 8.000000
vt 0.000000 0.000000
vt 0.188510 0.000000
vt 0.000000 6.250000
vt 1.000000 6.250000
vt 1.000000 0.000000
vt 0.000000 2.500000
vt 0.000000 0.000000
vt 0.833330 0.000000
vt 0.833330 2.500000
vt 0.000000 0.000000
vt 0.423030 0.000000
vt 0.000000 6.250000
vt 2.000000 6.250000
vt 2.000000 0.000000
vt 0.000000 2.500000
vt 0.000000 0.000000
vt 2.000000 0.000000
vt 2.000000 2.500000
vt 0.000000 6.250000
vt 0.000000 0.000000
vt 0.162130 0.000000
vt 0.833330 6.250000
vt 0.833330 0.000000
vt 0.000000 8.000000
vt 0.000000 0.000000
vt 1.833330 0.000000
vt 1.833330 8.000000
vt 0.000000 1.500000
vt 0.000000 0.000000
vt 0.833330 0.000000
vt 0.833330 1.500000
vt 0.000000 6.250000
vt 0.000000 0.000000
vt 0.154830 0.000000
vt 0.833330 6.250000
vt 0.833330 0.000000
vt 0.000000 0.000000
vt 0.169420 0.000000
vt 0.000000 6.250000
vt 0.833330 6.250000
vt 0.833330 0.000000
vt 0.000000 6.250000
vt 0.000000 0.000000
vt 0.320180 0.000000
vt 1.500000 6.250000
vt 1.500000 0.000000
vt 0.000000 0.000000
vt 0.833330 0.000000
vt 0.833330 1.500000
vt 0.000000 1.500000
vt 0.000000 2.250000
vt 0.000000 0.000000
vt 1.500000 0.000000
vt 1.500000 2.250000
vt 0.000000 8.000000
vt 0.000000 0.000000
vt 1.333330 0.000000
vt 1.333330 8.000000
vt 0.000000 2.250000
vt 0.000000 0.000000
vt 0.833330 0.000000
vt 0.833330 2.250000
vn -0.4779 -0.8784 0.0000
vn -0.9246 0.3809 0.0000
vn -0.9264 0.3766 0.0000
vn -0.4562 -0.8899 0.0000
vn -0.4561 -0.8899 0.0000
vn -0.9242 0.3818 0.0000
vn 0.4440 0.8960 0.0000
vn 0.4578 0.8891 0.0000
vn -0.8940 0.4480 0.0000
vn -0.8941 0.4479 0.0000
vn -0.8941 0.4480 0.0000
vn 0.4679 0.8838 0.0000
vn -0.4747 -0.8802 0.0000
vn -0.4787 -0.8780 0.0000
vn -0.4788 -0.8779 0.0000
vn 0.9023 -0.4312 0.0000
vn 0.4863 0.8738 0.0000
vn 0.8855 -0.4647 0.0000
vn 0.8854 -0.4647 0.0000
vn 0.4864 0.8737 0.0000
vn 0.8818 -0.4717 0.0000
vn 0.8839 -0.4677 0.0000
s off
f 1/1/1 2/2/1 3/3/1
f 1/1/1 3/3/1 4/4/1
f 5/5/2 6/6/2 7/7/2
f 5/5/2 7/7/2 8/8/2
f 9/9/3 10/10/3 11/11/3
f 9/9/3 11/11/3 12/12/3
f 13/13/4 14/14/4 15/15/4
f 16/16/5 14/14/5 17/17/5
f 15/15/5 14/14/5 16/16/5
f 18/18/6 19/19/6 20/20/6
f 18/18/6 20/20/6 21/21/6
f 22/22/7 23/23/7 24/24/7
f 25/25/7 23/23/7 26/26/7
f 24/24/7 23/23/7 25/25/7
f 27/27/8 28/28/8 29/29/8
f 27/27/8 29/29/8 30/30/8
f 31/31/9 32/32/9 33/33/9
f 34/34/10 33/33/10 35/35/10
f 34/34/11 31/31/11 33/33/11
f 36/36/12 37/37/12 38/38/12
f 36/36/12 38/38/12 39/39/12
f 40/40/13 41/41/13 42/42/13
f 40/40/13 42/42/13 43/43/13
f 44/44/14 45/45/14 46/46/14
f 47/47/15 46/46/15 48/48/15
f 47/47/15 44/44/15 46/46/15
f 49/49/16 50/50/16 51/51/16
f 52/52/16 50/50/16 53/53/16
f 51/51/16 50/50/16 52/52/16
f 54/54/17 55/55/17 56/56/17
f 57/57/17 56/56/17 58/58/17
f 57/57/17 54/54/17 56/56/17
f 59/59/18 60/60/18 61/61/18
f 62/62/19 59/59/19 61/61/19
f 63/63/20 64/64/20 65/65/20
f 63/63/20 65/65/20 66/66/20
f 67/67/21 68/68/21 69/69/21
f 67/67/21 69/69/21 70/70/21
f 71/71/22 72/72/22 73/73/22
f 71/71/22 73/73/22 74/74/22
