# Blender v3.0.1 OBJ File: 'rockerfeller_plaza.blend'
# www.blender.org
o geometryt000010000010000110010110000110000110100100000000st115
v 419.212524 -52.148724 887.290222
v 406.940552 -74.961975 887.290222
v 401.707214 -72.136147 887.290222
v 413.970947 -49.334103 887.290222
v 419.212524 -52.148724 902.690247
v 413.970947 -49.334103 902.690247
v 401.707214 -72.136147 902.690247
v 406.940552 -74.961975 902.690247
vt 0.043670 0.323470
vt 0.089080 0.298210
vt 0.085610 0.287730
vt 0.040220 0.312980
vt 0.043670 0.323470
vt 0.040220 0.312980
vt 0.085610 0.287730
vt 0.089080 0.298210
vn 0.0000 0.0000 -1.0000
vn 0.0000 0.0000 1.0000
s off
f 1/1/1 2/2/1 3/3/1
f 4/4/1 1/1/1 3/3/1
f 5/5/2 6/6/2 7/7/2
f 5/5/2 7/7/2 8/8/2
