# Blender v3.0.1 OBJ File: 'rockerfeller_plaza.blend'
# www.blender.org
o geometryt000010000010000110010110000110000110100000100100st106
v 346.406799 -334.926910 791.125671
v 346.406799 -334.926910 787.125671
v 345.304443 -336.975220 787.125671
v 344.439117 -338.583099 791.125671
v 344.439117 -338.583099 787.125671
v 348.783325 -330.510895 791.125671
v 348.783325 -330.510895 787.125671
v 346.815674 -334.167114 787.125671
v 346.815674 -334.167114 791.125671
v 350.503998 -327.313721 791.125671
v 350.503998 -327.313721 787.125671
v 349.192200 -329.751221 787.125671
v 349.192200 -329.751221 791.125671
v 352.224640 -324.116516 791.125671
v 352.224640 -324.116516 787.125671
v 351.870331 -324.774811 787.125671
v 350.912842 -326.554016 791.125671
v 350.912842 -326.554016 787.125671
v 353.945282 -320.919312 791.125671
v 353.945282 -320.919312 787.125671
v 352.633484 -323.356812 787.125671
v 352.633484 -323.356812 791.125671
v 356.321808 -316.503418 791.125671
v 356.321808 -316.503418 787.125671
v 355.977112 -317.144012 787.125671
v 354.354156 -320.159607 791.125671
v 354.354156 -320.159607 787.125671
v 358.698395 -312.087402 787.125671
v 357.796204 -313.763794 787.125671
v 358.698395 -312.087402 791.125671
v 356.730713 -315.743622 791.125671
v 356.730713 -315.743622 787.125671
v 344.579956 -339.049408 791.125671
v 344.579956 -339.049408 787.125671
v 345.800781 -339.701416 787.125671
v 345.800781 -339.701416 791.125671
v 346.615387 -340.136505 787.125671
v 346.656494 -340.158417 787.125671
v 346.615387 -340.136505 791.125671
v 350.277893 -342.092407 791.125671
v 350.277893 -342.092407 787.125671
v 351.092529 -342.527496 787.125671
v 352.313354 -343.179504 787.125671
v 352.313354 -343.179504 791.125671
v 351.092529 -342.527496 791.125671
v 352.781311 -343.038300 791.125671
v 352.781311 -343.038300 787.125671
v 353.106293 -342.434998 787.125671
v 354.750488 -339.382904 791.125671
v 354.750488 -339.382904 787.125671
v 355.159180 -338.624115 791.125671
v 355.159180 -338.624115 787.125671
v 357.128387 -334.968719 787.125671
v 357.128387 -334.968719 791.125671
v 357.537201 -334.210022 787.125671
v 358.849915 -331.773102 787.125671
v 358.849915 -331.773102 791.125671
v 357.537201 -334.210022 791.125671
v 359.258698 -331.014404 787.125671
v 360.571503 -328.577423 787.125671
v 360.571503 -328.577423 791.125671
v 359.258698 -331.014404 791.125671
v 360.980194 -327.818695 787.125671
v 362.292999 -325.381714 787.125671
v 362.292999 -325.381714 791.125671
v 360.980194 -327.818695 791.125671
v 362.701691 -324.623016 791.125671
v 362.701691 -324.623016 787.125671
v 364.670898 -320.967621 787.125671
v 364.670898 -320.967621 791.125671
v 365.079712 -320.208923 787.125671
v 367.048889 -316.553497 787.125671
v 367.048889 -316.553497 791.125671
v 365.079712 -320.208923 791.125671
v 360.386505 -312.599121 791.125671
v 360.386505 -312.599121 787.125671
v 359.166107 -311.946320 787.125671
v 359.166107 -311.946320 791.125671
v 364.867798 -314.995819 791.125671
v 364.867798 -314.995819 787.125671
v 364.212799 -314.645508 787.125671
v 361.388794 -313.135101 787.125671
v 361.206482 -313.037598 791.125671
v 361.206482 -313.037598 787.125671
v 366.908295 -316.087006 791.125671
v 366.908295 -316.087006 787.125671
v 365.687805 -315.434296 787.125671
v 365.687805 -315.434296 791.125671
vt 0.000000 0.250000
vt 0.000000 0.000000
vt 0.105040 0.000000
vt 0.187500 0.250000
vt 0.187500 0.000000
vt 0.000000 0.250000
vt 0.000000 0.000000
vt 0.187500 0.000000
vt 0.187500 0.250000
vt 0.000000 0.250000
vt 0.000000 0.000000
vt 0.125000 0.000000
vt 0.125000 0.250000
vt 0.000000 0.250000
vt 0.000000 0.000000
vt 0.033760 0.000000
vt 0.125000 0.250000
vt 0.125000 0.000000
vt 0.000000 0.250000
vt 0.000000 0.000000
vt 0.125000 0.000000
vt 0.125000 0.250000
vt 0.000000 0.250000
vt 0.000000 0.000000
vt 0.032850 0.000000
vt 0.187500 0.250000
vt 0.187500 0.000000
vt 0.000000 0.000000
vt 0.085970 0.000000
vt 0.000000 0.250000
vt 0.187500 0.250000
vt 0.187500 0.000000
vt 0.000000 0.250000
vt 0.000000 0.000000
vt 0.062500 0.000000
vt 0.062500 0.250000
vt 0.187500 0.250000
vt 0.002100 0.000000
vt 0.187500 0.000000
vt 0.000000 0.250000
vt 0.000000 0.000000
vt 0.062500 0.000000
vt 0.062500 0.250000
vt 0.000000 0.250000
vt 0.000000 0.250000
vt 0.000000 0.000000
vt 0.030940 0.000000
vt 0.187500 0.250000
vt 0.187500 0.000000
vt 0.000000 0.250000
vt 0.000000 0.000000
vt 0.187500 0.000000
vt 0.187500 0.250000
vt 0.000000 0.000000
vt 0.125000 0.000000
vt 0.125000 0.250000
vt 0.000000 0.250000
vt 0.000000 0.000000
vt 0.125000 0.000000
vt 0.125000 0.250000
vt 0.000000 0.250000
vt 0.000000 0.000000
vt 0.125000 0.000000
vt 0.125000 0.250000
vt 0.000000 0.250000
vt 0.000000 0.250000
vt 0.000000 0.000000
vt 0.187500 0.000000
vt 0.187500 0.250000
vt 0.000000 0.000000
vt 0.187500 0.000000
vt 0.187500 0.250000
vt 0.000000 0.250000
vt 0.000000 0.250000
vt 0.000000 0.000000
vt 0.033540 0.000000
vt 0.178170 0.000000
vt 0.187500 0.250000
vt 0.187500 0.000000
vt 0.000000 0.250000
vt 0.000000 0.000000
vt 0.062500 0.000000
vt 0.062500 0.250000
vt 0.000000 0.000000
vt 0.000000 0.250000
vt 0.000000 0.000000
vt 0.062500 0.000000
vt 0.062500 0.250000
vn -0.8806 0.4739 0.0000
vn -0.8806 0.4738 0.0000
vn -0.4711 -0.8821 0.0000
vn 0.8804 -0.4742 0.0000
vn 0.8804 -0.4743 0.0000
vn 0.4716 0.8818 0.0000
vn 0.4719 0.8817 -0.0000
vn -0.4712 -0.8820 0.0000
vn 0.4717 0.8818 0.0000
s off
f 1/1/1 2/2/1 3/3/1
f 4/4/1 3/3/1 5/5/1
f 6/6/1 7/7/1 8/8/1
f 6/6/1 8/8/1 9/9/1
f 10/10/1 11/11/1 12/12/1
f 10/10/1 12/12/1 13/13/1
f 14/14/1 15/15/1 16/16/1
f 17/17/1 16/16/1 18/18/1
f 17/17/1 14/14/1 16/16/1
f 19/19/1 20/20/1 21/21/1
f 19/19/1 21/21/1 22/22/1
f 23/23/2 24/24/2 25/25/2
f 26/26/1 25/25/1 27/27/1
f 26/26/1 23/23/1 25/25/1
f 28/28/1 29/29/1 30/30/1
f 31/31/1 29/29/1 32/32/1
f 30/30/1 29/29/1 31/31/1
f 33/33/3 34/34/3 35/35/3
f 33/33/3 35/35/3 36/36/3
f 40/37/3 38/38/3 41/39/3
f 39/40/3 38/38/3 40/37/3
f 42/41/3 43/42/3 44/43/3
f 45/44/3 42/41/3 44/43/3
f 46/45/4 47/46/4 48/47/4
f 49/48/5 48/47/5 50/49/5
f 49/48/5 46/45/5 48/47/5
f 51/50/5 52/51/5 53/52/5
f 51/50/5 53/52/5 54/53/5
f 55/54/5 56/55/5 57/56/5
f 58/57/4 55/54/4 57/56/4
f 59/58/5 60/59/5 61/60/5
f 62/61/5 59/58/5 61/60/5
f 63/62/5 64/63/5 65/64/5
f 66/65/5 63/62/5 65/64/5
f 67/66/5 68/67/5 69/68/5
f 67/66/5 69/68/5 70/69/5
f 71/70/5 72/71/5 73/72/5
f 74/73/5 71/70/5 73/72/5
f 79/74/6 80/75/6 81/76/6
f 82/77/6 83/78/6 81/76/6
f 83/78/6 79/74/6 81/76/6
f 84/79/7 83/78/7 82/77/7
f 85/80/6 86/81/6 87/82/6
f 85/80/6 87/82/6 88/83/6
s 1
f 4/4/1 1/1/1 3/3/1
f 37/84/8 38/38/8 39/40/8
f 75/85/9 76/86/9 77/87/9
f 75/85/9 77/87/9 78/88/9
