# Blender v3.0.1 OBJ File: 'rockerfeller_plaza.blend'
# www.blender.org
o geometryt000010000010000110010110000110000110100000010110st145
v 1126.251709 -34.833729 186.817841
v 1121.676514 -29.791357 186.817841
v 1127.317505 -32.856148 186.817841
v 1124.359131 -38.297596 186.817841
v 1123.615356 -39.660786 186.817841
v 1123.095093 -40.643879 186.817841
v 1120.906738 -44.799545 186.817841
v 1119.063599 -48.151806 186.817841
v 1107.348877 -56.271496 186.817841
v 1117.237183 -51.503876 186.817841
v 1112.964600 -59.336597 186.817841
v 1120.906738 -44.799545 193.717834
v 1121.676514 -29.791357 193.717834
v 1107.348877 -56.271496 193.717834
v 1123.095093 -40.643879 193.717834
v 1123.615356 -39.660786 193.717834
v 1124.359131 -38.297596 193.717834
v 1126.251709 -34.833729 193.717834
v 1127.317505 -32.856148 193.717834
v 1117.237183 -51.503876 193.717834
v 1112.964600 -59.336597 193.717834
v 1119.063599 -48.151806 193.717834
vt 0.021400 0.265320
vt 0.013680 0.256210
vt 0.017460 0.267510
vt 0.028310 0.261420
vt 0.031020 0.259890
vt 0.032980 0.258820
vt 0.041240 0.254310
vt 0.047920 0.250510
vt 0.066430 0.226710
vt 0.054610 0.246750
vt 0.070220 0.237960
vt 0.041240 0.254310
vt 0.013680 0.256210
vt 0.066430 0.226710
vt 0.032980 0.258820
vt 0.031020 0.259890
vt 0.028310 0.261420
vt 0.021400 0.265320
vt 0.017460 0.267510
vt 0.054610 0.246750
vt 0.070220 0.237960
vt 0.047920 0.250510
vn -0.0000 0.0000 -1.0000
vn 0.0000 0.0000 1.0000
s off
f 1/1/1 2/2/1 3/3/1
f 1/1/1 4/4/1 2/2/1
f 5/5/1 2/2/1 4/4/1
f 5/5/1 6/6/1 2/2/1
f 6/6/1 7/7/1 2/2/1
f 7/7/1 8/8/1 9/9/1
f 2/2/1 7/7/1 9/9/1
f 8/8/1 10/10/1 9/9/1
f 10/10/1 11/11/1 9/9/1
f 12/12/2 13/13/2 14/14/2
f 15/15/2 13/13/2 12/12/2
f 16/16/2 13/13/2 15/15/2
f 17/17/2 13/13/2 16/16/2
f 18/18/2 13/13/2 17/17/2
f 19/19/2 13/13/2 18/18/2
f 20/20/2 14/14/2 21/21/2
f 20/20/2 22/22/2 14/14/2
f 22/22/2 12/12/2 14/14/2
