# Blender v3.0.1 OBJ File: 'rockerfeller_plaza.blend'
# www.blender.org
o geometryt000010000010000110010110000110000110100000110010st87_P
v 1102.722168 -62.161221 460.882996
v 1098.703247 -59.943398 460.882996
v 1101.290649 -55.261257 460.882996
v 1099.905762 -54.500309 460.882996
v 1101.847778 -50.924850 460.882996
v 1117.693481 -59.610088 460.882996
v 1108.763306 -65.487808 460.882996
v 1120.802490 -65.580017 460.882996
v 1118.033325 -70.608459 460.882996
v 1125.180908 -63.885620 460.882996
v 1123.274048 -49.552708 460.882996
v 1123.419922 -67.059288 460.882996
v 1123.819946 -48.580418 460.882996
v 1131.257202 -52.912048 460.882996
v 1124.720947 -46.948940 460.882996
v 1125.035034 -46.379040 460.882996
v 1133.134033 -49.537178 460.882996
v 1125.630249 -45.306259 460.882996
v 1126.539795 -43.674679 460.882996
v 1134.969238 -46.218319 460.882996
v 1127.440918 -42.043190 460.882996
v 1110.693970 -34.989460 460.882996
v 1111.603394 -33.346779 460.882996
v 1108.883545 -38.252518 460.882996
v 1109.189331 -37.693829 460.882996
v 1109.784546 -36.621040 460.882996
v 1107.974121 -39.895199 460.882996
v 1107.428345 -40.867489 460.882996
v 1102.722168 -62.161221 482.882996
v 1101.290649 -55.261257 482.882996
v 1098.703247 -59.943398 482.882996
v 1101.847778 -50.924850 482.882996
v 1099.905762 -54.500309 482.882996
v 1104.529419 -52.394657 482.882996
v 1108.763306 -65.487808 482.882996
v 1117.693481 -59.610088 482.882996
v 1120.802490 -65.580017 482.882996
v 1118.033325 -70.608459 482.882996
v 1125.180908 -63.885620 482.882996
v 1118.637939 -57.908070 482.882996
v 1123.274048 -49.552708 482.882996
v 1123.419922 -67.059288 482.882996
v 1131.257202 -52.912048 482.882996
v 1123.357544 -49.404160 482.882996
v 1123.366455 -49.388168 482.882996
v 1123.367188 -49.386890 482.882996
v 1123.371704 -49.378799 482.882996
v 1123.819946 -48.580418 482.882996
v 1123.980957 -48.288609 482.882996
v 1124.030762 -48.198578 482.882996
v 1124.720947 -46.948940 482.882996
v 1124.794434 -46.815559 482.882996
v 1133.134033 -49.537178 482.882996
v 1125.035034 -46.379040 482.882996
v 1125.174438 -46.127968 482.882996
v 1125.236450 -46.015949 482.882996
v 1125.630249 -45.306259 482.882996
v 1125.938110 -44.754028 482.882996
v 1126.202026 -44.280689 482.882996
v 1126.539795 -43.674679 482.882996
v 1134.969238 -46.218319 482.882996
v 1127.106201 -42.649170 482.882996
v 1127.440918 -42.043190 482.882996
v 1107.428345 -40.867489 601.882996
v 1101.847778 -50.924850 601.882996
v 1117.693481 -59.610088 601.882996
v 1110.493652 -42.547661 601.882996
v 1122.943970 -49.371758 601.882996
v 1123.274048 -49.552708 601.882996
v 1107.974121 -39.895199 604.882996
v 1107.428345 -40.867489 604.882996
v 1123.274048 -49.552708 604.882996
v 1123.819946 -48.580418 604.882996
v 1108.883545 -38.252518 583.882996
v 1107.974121 -39.895199 583.882996
v 1110.284912 -41.161789 583.882996
v 1123.819946 -48.580418 583.882996
v 1124.720947 -46.948940 583.882996
v 1107.974121 -39.895199 589.882996
v 1108.883545 -38.252518 589.882996
v 1109.624756 -40.799908 589.882996
v 1124.720947 -46.948940 589.882996
v 1109.189331 -37.693829 589.882996
v 1114.152100 -43.281399 589.882996
v 1123.819946 -48.580418 589.882996
v 1125.035034 -46.379040 589.882996
v 1108.883545 -38.252518 590.882996
v 1107.974121 -39.895199 590.882996
v 1109.514648 -40.739597 590.882996
v 1109.189331 -37.693829 590.882996
v 1124.720947 -46.948940 590.882996
v 1114.796631 -43.634670 590.882996
v 1123.819946 -48.580418 590.882996
v 1125.035034 -46.379040 590.882996
v 1112.617554 -40.302898 554.882996
v 1109.189331 -37.693829 554.882996
v 1108.883545 -38.252518 554.882996
v 1125.035034 -46.379040 554.882996
v 1109.784546 -36.621040 554.882996
v 1124.720947 -46.948940 554.882996
v 1125.630249 -45.306259 554.882996
v 1110.693970 -34.989460 525.882996
v 1109.784546 -36.621040 525.882996
v 1114.673096 -39.300518 525.882996
v 1125.630249 -45.306259 525.882996
v 1126.539795 -43.674679 525.882996
v 1111.603394 -33.346779 495.882996
v 1110.693970 -34.989460 495.882996
v 1118.007446 -38.998020 495.882996
v 1126.539795 -43.674679 495.882996
v 1127.440918 -42.043190 495.882996
vt 0.079640 0.210750
vt 0.076880 0.202700
vt 0.067540 0.208030
vt 0.066590 0.205250
vt 0.059470 0.209250
vt 0.070240 0.240980
vt 0.083770 0.222850
vt 0.080110 0.247110
vt 0.090140 0.241410
vt 0.075630 0.255970
vt 0.050160 0.252470
vt 0.081970 0.252350
vt 0.048220 0.253590
vt 0.053730 0.268480
vt 0.044960 0.255450
vt 0.043820 0.256090
vt 0.047000 0.272340
vt 0.041680 0.257320
vt 0.038420 0.259190
vt 0.040370 0.276120
vt 0.035170 0.261040
vt 0.027660 0.227460
vt 0.024380 0.229330
vt 0.034170 0.223730
vt 0.033060 0.224360
vt 0.030920 0.225590
vt 0.037450 0.221860
vt 0.039390 0.220740
vt 0.079640 0.210750
vt 0.067540 0.208030
vt 0.076880 0.202700
vt 0.059470 0.209250
vt 0.066590 0.205250
vt 0.061290 0.214620
vt 0.083770 0.222850
vt 0.070240 0.240980
vt 0.080110 0.247110
vt 0.090140 0.241410
vt 0.075630 0.255970
vt 0.066840 0.242930
vt 0.050160 0.252470
vt 0.081970 0.252350
vt 0.053730 0.268480
vt 0.049860 0.252640
vt 0.049830 0.252660
vt 0.049830 0.252660
vt 0.049810 0.252670
vt 0.048220 0.253590
vt 0.047630 0.253920
vt 0.047450 0.254030
vt 0.044960 0.255450
vt 0.044690 0.255600
vt 0.047000 0.272340
vt 0.043820 0.256090
vt 0.043320 0.256380
vt 0.043100 0.256510
vt 0.041680 0.257320
vt 0.040580 0.257950
vt 0.039630 0.258490
vt 0.038420 0.259190
vt 0.040370 0.276120
vt 0.036380 0.260360
vt 0.035170 0.261040
vt 0.039390 0.220740
vt 0.059470 0.209250
vt 0.070240 0.240980
vt 0.041480 0.226870
vt 0.049930 0.251810
vt 0.050160 0.252470
vt 0.037450 0.221860
vt 0.039390 0.220740
vt 0.050160 0.252470
vt 0.048220 0.253590
vt 0.034170 0.223730
vt 0.037450 0.221860
vt 0.039020 0.226490
vt 0.048220 0.253590
vt 0.044960 0.255450
vt 0.037450 0.221860
vt 0.034170 0.223730
vt 0.038570 0.225160
vt 0.044960 0.255450
vt 0.033060 0.224360
vt 0.041650 0.234230
vt 0.048220 0.253590
vt 0.043820 0.256090
vt 0.034170 0.223730
vt 0.037450 0.221860
vt 0.038500 0.224940
vt 0.033060 0.224360
vt 0.044960 0.255450
vt 0.042080 0.235520
vt 0.048220 0.253590
vt 0.043820 0.256090
vt 0.036710 0.231210
vt 0.033060 0.224360
vt 0.034170 0.223730
vt 0.043820 0.256090
vt 0.030920 0.225590
vt 0.044960 0.255450
vt 0.041680 0.257320
vt 0.027660 0.227460
vt 0.030920 0.225590
vt 0.034240 0.235380
vt 0.041680 0.257320
vt 0.038420 0.259190
vt 0.024380 0.229330
vt 0.027660 0.227460
vt 0.032630 0.242100
vt 0.038420 0.259190
vt 0.035170 0.261040
vn -0.0000 0.0000 -1.0000
vn 0.0000 0.0000 1.0000
vn -0.0002 0.0000 1.0000
vn 0.0015 0.0005 1.0000
vn 0.0000 -0.0047 1.0000
vn 0.0001 -0.0047 1.0000
vn -0.0031 0.0000 1.0000
vn 0.0006 0.0000 1.0000
vn -0.0001 0.0000 1.0000
vn 0.0002 0.0000 1.0000
vn -0.0001 0.0000 -1.0000
vn 0.0001 0.0000 -1.0000
vn 0.0001 0.0000 1.0000
s off
f 1/1/1 2/2/1 3/3/1
f 3/3/1 4/4/1 5/5/1
f 6/6/1 3/3/1 5/5/1
f 7/7/1 1/1/1 3/3/1
f 7/7/1 3/3/1 6/6/1
f 8/8/1 7/7/1 6/6/1
f 8/8/1 9/9/1 7/7/1
f 10/10/1 8/8/1 6/6/1
f 10/10/1 6/6/1 11/11/1
f 10/10/1 12/12/1 8/8/1
f 13/13/1 14/14/1 11/11/1
f 14/14/1 10/10/1 11/11/1
f 13/13/1 15/15/1 14/14/1
f 16/16/1 17/17/1 15/15/1
f 14/14/1 15/15/1 17/17/1
f 16/16/1 18/18/1 17/17/1
f 18/18/1 19/19/1 17/17/1
f 20/20/1 19/19/1 21/21/1
f 17/17/1 19/19/1 20/20/1
f 22/22/1 23/23/1 19/19/1
f 23/23/1 21/21/1 19/19/1
f 24/24/1 25/25/1 15/15/1
f 16/16/1 25/25/1 26/26/1
f 15/15/1 25/25/1 16/16/1
f 16/16/1 26/26/1 18/18/1
f 27/27/1 24/24/1 13/13/1
f 24/24/1 15/15/1 13/13/1
f 26/26/1 22/22/1 18/18/1
f 22/22/1 19/19/1 18/18/1
f 28/28/1 27/27/1 11/11/1
f 27/27/1 13/13/1 11/11/1
f 5/5/1 28/28/1 6/6/1
f 28/28/1 11/11/1 6/6/1
f 29/29/2 30/30/2 31/31/2
f 30/30/2 32/32/2 33/33/2
f 30/30/2 34/34/2 32/32/2
f 29/29/2 35/35/2 30/30/2
f 30/30/2 36/36/2 34/34/2
f 30/30/2 35/35/2 36/36/2
f 36/36/2 35/35/2 37/37/2
f 38/38/2 37/37/2 35/35/2
f 39/39/2 40/40/2 36/36/2
f 39/39/2 36/36/2 37/37/2
f 39/39/2 41/41/2 40/40/2
f 42/42/2 39/39/2 37/37/2
f 41/41/3 43/43/3 44/44/3
f 39/39/2 43/43/2 41/41/2
f 44/44/4 43/43/4 45/45/4
f 45/45/5 43/43/5 46/46/6
f 46/46/7 43/43/7 47/47/7
f 47/47/2 43/43/2 48/48/2
f 48/48/2 43/43/2 49/49/2
f 49/49/8 43/43/8 50/50/8
f 50/50/2 43/43/2 51/51/2
f 52/52/2 51/51/2 53/53/2
f 51/51/2 43/43/2 53/53/2
f 54/54/2 52/52/2 53/53/2
f 53/53/2 55/55/2 54/54/2
f 53/53/9 56/56/9 55/55/9
f 53/53/2 57/57/2 56/56/2
f 58/58/2 57/57/2 53/53/2
f 59/59/2 58/58/2 53/53/2
f 60/60/2 59/59/2 53/53/2
f 60/60/2 61/61/2 62/62/2
f 60/60/2 53/53/2 61/61/2
f 62/62/2 61/61/2 63/63/2
f 64/64/2 65/65/2 66/66/2
f 64/64/2 66/66/2 67/67/2
f 67/67/2 66/66/2 68/68/2
f 68/68/10 66/66/10 69/69/10
f 70/70/2 71/71/2 72/72/2
f 70/70/2 72/72/2 73/73/2
f 74/74/2 75/75/2 76/76/2
f 74/74/2 76/76/2 77/77/2
f 74/74/2 77/77/2 78/78/2
f 79/79/11 80/80/11 81/81/11
f 82/82/12 80/80/12 83/83/12
f 81/81/1 80/80/1 84/84/1
f 84/84/1 80/80/1 85/85/1
f 85/85/1 80/80/1 82/82/1
f 82/82/1 83/83/1 86/86/1
f 87/87/2 88/88/2 89/89/2
f 90/90/13 87/87/13 91/91/13
f 87/87/2 89/89/2 92/92/2
f 87/87/2 92/92/2 93/93/2
f 87/87/2 93/93/2 91/91/2
f 94/94/2 90/90/2 91/91/2
f 95/95/2 96/96/2 97/97/2
f 98/98/2 99/99/2 96/96/2
f 100/100/13 96/96/13 95/95/13
f 96/96/2 100/100/2 98/98/2
f 101/101/2 99/99/2 98/98/2
f 102/102/2 103/103/2 104/104/2
f 102/102/2 104/104/2 105/105/2
f 102/102/2 105/105/2 106/106/2
f 107/107/2 108/108/2 109/109/2
f 107/107/2 109/109/2 110/110/2
f 107/107/2 110/110/2 111/111/2
