# Blender v3.0.1 OBJ File: 'rockerfeller_plaza.blend'
# www.blender.org
o geometryt000010000010000110010110000110000110100000010100st197_
v 868.859924 -257.504364 149.288651
v 870.277893 -258.268158 149.288651
v 870.277893 -258.268158 224.706116
v 868.859924 -257.504364 224.706116
v 870.334351 -253.959885 149.288651
v 868.804138 -256.794464 149.288651
v 868.804138 -256.794464 224.706116
v 870.334351 -253.959885 224.706116
v 872.259888 -254.313187 149.288651
v 870.922607 -253.596191 149.288651
v 870.922607 -253.596191 224.706116
v 872.259888 -254.313187 224.706116
v 871.595337 -257.359955 224.706116
v 871.595337 -257.359955 149.288651
v 874.432434 -258.885559 149.288651
v 874.432434 -258.885559 224.706116
v 875.383728 -259.397156 149.288651
v 878.220703 -260.922882 149.288651
v 878.220703 -260.922882 224.706116
v 875.383728 -259.397156 224.706116
v 879.663330 -261.698669 224.706116
v 879.172119 -261.434479 149.288651
v 882.009155 -262.960175 149.288651
v 879.172119 -261.434479 224.706116
v 882.009155 -262.960175 224.706116
v 874.255005 -251.336380 224.706116
v 874.255005 -251.336380 149.288651
v 872.727539 -254.172485 149.288651
v 872.727539 -254.172485 224.706116
v 876.998108 -246.243378 224.706116
v 876.998108 -246.243378 149.288651
v 874.706787 -250.497589 149.288651
v 874.706787 -250.497589 224.706116
v 878.977417 -242.568481 149.288651
v 877.449951 -245.404480 149.288651
v 877.449951 -245.404480 224.706116
v 878.977417 -242.568481 224.706116
v 877.175110 -241.202682 149.288651
v 878.592224 -241.968292 149.288651
v 878.592224 -241.968292 224.706116
v 877.175110 -241.202682 224.706116
v 878.317017 -237.766190 149.288651
v 876.789917 -240.602478 149.288651
v 876.789917 -240.602478 224.706116
v 878.317017 -237.766190 224.706116
v 881.023010 -232.740280 224.706116
v 881.023010 -232.740280 149.288651
v 878.732300 -236.994781 149.288651
v 878.732300 -236.994781 224.706116
v 882.965454 -229.132584 149.288651
v 881.438354 -231.968887 149.288651
v 881.438354 -231.968887 224.706116
v 882.965454 -229.132584 224.706116
v 882.477234 -262.818268 224.706116
v 882.477234 -262.818268 149.288651
v 884.003418 -259.981476 149.288651
v 884.003418 -259.981476 224.706116
v 884.231812 -259.556976 149.288651
v 884.994934 -258.138580 149.288651
v 884.994934 -258.138580 224.706116
v 884.231812 -259.556976 224.706116
v 885.223328 -257.714172 149.288651
v 886.749512 -254.877380 149.288651
v 886.749512 -254.877380 224.706116
v 885.223328 -257.714172 224.706116
v 886.977905 -254.452881 224.706116
v 886.977905 -254.452881 149.288651
v 887.741028 -253.034485 149.288651
v 887.741028 -253.034485 224.706116
v 887.969421 -252.609985 224.706116
v 887.969421 -252.609985 149.288651
v 889.495605 -249.773178 149.288651
v 889.495605 -249.773178 224.706116
v 886.269104 -230.519379 224.706116
v 886.269104 -230.519379 149.288651
v 883.432739 -228.992386 149.288651
v 883.432739 -228.992386 224.706116
v 891.333008 -233.245789 224.706116
v 891.333008 -233.245789 149.288651
v 887.078491 -230.955185 149.288651
v 887.078491 -230.955185 224.706116
v 896.397034 -235.972092 224.706116
v 896.397034 -235.972092 149.288651
v 892.142517 -233.681580 149.288651
v 892.142517 -233.681580 224.706116
v 902.879150 -239.461990 224.706116
v 902.879150 -239.461990 149.288651
v 897.206421 -236.407883 149.288651
v 897.206421 -236.407883 224.706116
v 907.943115 -242.188385 149.288651
v 903.688599 -239.897781 149.288651
v 903.688599 -239.897781 224.706116
v 907.943115 -242.188385 224.706116
v 913.007019 -244.914780 224.706116
v 913.007019 -244.914780 149.288651
v 908.752502 -242.624191 149.288651
v 908.752502 -242.624191 224.706116
v 916.652832 -246.877579 224.706116
v 916.652832 -246.877579 149.288651
v 913.816528 -245.350586 149.288651
v 913.816528 -245.350586 224.706116
v 891.005005 -263.753082 224.706116
v 891.005005 -263.753082 149.288651
v 889.477417 -266.589081 149.288651
v 889.477417 -266.589081 224.706116
v 891.997803 -261.909760 149.288651
v 891.234009 -263.327759 149.288651
v 891.234009 -263.327759 224.706116
v 891.997803 -261.909760 224.706116
v 893.754395 -258.648376 149.288651
v 892.226929 -261.484467 149.288651
v 892.226929 -261.484467 224.706116
v 893.754395 -258.648376 224.706116
v 894.747314 -256.805084 224.706116
v 894.747314 -256.805084 149.288651
v 893.983521 -258.223175 149.288651
v 893.983521 -258.223175 224.706116
v 896.503906 -253.543777 149.288651
v 894.976318 -256.379761 149.288651
v 894.976318 -256.379761 224.706116
v 896.503906 -253.543777 224.706116
v 889.617615 -267.056274 149.288651
v 892.454529 -268.582367 149.288651
v 892.454529 -268.582367 224.706116
v 889.617615 -267.056274 224.706116
v 893.761353 -269.285370 149.288651
v 898.016724 -271.574371 149.288651
v 898.016724 -271.574371 224.706116
v 893.761353 -269.285370 224.706116
v 899.323486 -272.277374 224.706116
v 899.323486 -272.277374 149.288651
v 902.160400 -273.803467 149.288651
v 902.160400 -273.803467 224.706116
v 890.326538 -249.828491 149.288651
v 896.000122 -252.880890 149.288651
v 896.000122 -252.880890 224.706116
v 890.326538 -249.828491 224.706116
v 902.627686 -273.663055 149.288651
v 904.154419 -270.826569 149.288651
v 904.154419 -270.826569 224.706116
v 902.627686 -273.663055 224.706116
v 904.606934 -269.985870 224.706116
v 904.606934 -269.985870 149.288651
v 906.897034 -265.731079 149.288651
v 906.897034 -265.731079 224.706116
v 907.349487 -264.890381 224.706116
v 907.349487 -264.890381 149.288651
v 908.112915 -263.472076 149.288651
v 908.112915 -263.472076 224.706116
v 908.565430 -262.631378 224.706116
v 908.565430 -262.631378 149.288651
v 910.855408 -258.376556 149.288651
v 910.855408 -258.376556 224.706116
v 911.307922 -257.535858 224.706116
v 911.307922 -257.535858 149.288651
v 912.071289 -256.117676 149.288651
v 912.071289 -256.117676 224.706116
v 912.523804 -255.276978 224.706116
v 912.523804 -255.276978 149.288651
v 914.813904 -251.022186 149.288651
v 914.813904 -251.022186 224.706116
v 915.266296 -250.181488 224.706116
v 915.266296 -250.181488 149.288651
v 916.793091 -247.344986 149.288651
v 916.793091 -247.344986 224.706116
vt 0.000000 0.000000
vt 0.333330 0.000000
vt 0.333330 21.000000
vt 0.000000 21.000000
vt 0.000000 0.000000
vt 0.666670 0.000000
vt 0.666670 21.000000
vt 0.000000 21.000000
vt 0.000000 0.000000
vt 0.333330 0.000000
vt 0.333330 21.000000
vt 0.000000 21.000000
vt 0.000000 21.000000
vt 0.000000 0.000000
vt 0.666670 0.000000
vt 0.666670 21.000000
vt 0.000000 0.000000
vt 0.666670 0.000000
vt 0.666670 21.000000
vt 0.000000 21.000000
vt 0.115440 21.000000
vt 0.000000 0.000000
vt 0.666670 0.000000
vt 0.000000 21.000000
vt 0.666670 21.000000
vt 0.000000 21.000000
vt 0.000000 0.000000
vt 0.666670 0.000000
vt 0.666670 21.000000
vt 0.000000 21.000000
vt 0.000000 0.000000
vt 1.000000 0.000000
vt 1.000000 21.000000
vt 0.000000 0.000000
vt 0.666670 0.000000
vt 0.666670 21.000000
vt 0.000000 21.000000
vt 0.000000 0.000000
vt 0.333330 0.000000
vt 0.333330 21.000000
vt 0.000000 21.000000
vt 0.000000 0.000000
vt 0.666670 0.000000
vt 0.666670 21.000000
vt 0.000000 21.000000
vt 0.000000 21.000000
vt 0.000000 0.000000
vt 1.000000 0.000000
vt 1.000000 21.000000
vt 0.000000 0.000000
vt 0.666670 0.000000
vt 0.666670 21.000000
vt 0.000000 21.000000
vt 0.000000 21.000000
vt 0.000000 0.000000
vt 0.666670 0.000000
vt 0.666670 21.000000
vt 0.000000 0.000000
vt 0.333330 0.000000
vt 0.333330 21.000000
vt 0.000000 21.000000
vt 0.000000 0.000000
vt 0.666670 0.000000
vt 0.666670 21.000000
vt 0.000000 21.000000
vt 0.000000 21.000000
vt 0.000000 0.000000
vt 0.333330 0.000000
vt 0.333330 21.000000
vt 0.000000 21.000000
vt 0.000000 0.000000
vt 0.666670 0.000000
vt 0.666670 21.000000
vt 0.000000 21.000000
vt 0.000000 0.000000
vt 0.666670 0.000000
vt 0.666670 21.000000
vt 0.000000 21.000000
vt 0.000000 0.000000
vt 1.000000 0.000000
vt 1.000000 21.000000
vt 0.000000 21.000000
vt 0.000000 0.000000
vt 1.000000 0.000000
vt 1.000000 21.000000
vt 0.000000 21.000000
vt 0.000000 0.000000
vt 1.333330 0.000000
vt 1.333330 21.000000
vt 0.000000 0.000000
vt 1.000000 0.000000
vt 1.000000 21.000000
vt 0.000000 21.000000
vt 0.000000 21.000000
vt 0.000000 0.000000
vt 1.000000 0.000000
vt 1.000000 21.000000
vt 0.000000 21.000000
vt 0.000000 0.000000
vt 0.666670 0.000000
vt 0.666670 21.000000
vt 0.000000 21.000000
vt 0.000000 0.000000
vt 0.666670 0.000000
vt 0.666670 21.000000
vt 0.000000 0.000000
vt 0.333330 0.000000
vt 0.333330 21.000000
vt 0.000000 21.000000
vt 0.000000 0.000000
vt 0.666670 0.000000
vt 0.666670 21.000000
vt 0.000000 21.000000
vt 0.000000 21.000000
vt 0.000000 0.000000
vt 0.333330 0.000000
vt 0.333330 21.000000
vt 0.000000 0.000000
vt 0.666670 0.000000
vt 0.666670 21.000000
vt 0.000000 21.000000
vt 0.000000 0.000000
vt 1.333330 0.000000
vt 1.333330 21.000000
vt 0.000000 21.000000
vt 0.000000 0.000000
vt 0.666670 0.000000
vt 0.666670 21.000000
vt 0.000000 21.000000
vt 0.000000 21.000000
vt 0.000000 0.000000
vt 1.000000 0.000000
vt 1.000000 21.000000
vt 0.000000 21.000000
vt 0.000000 0.000000
vt 0.333330 0.000000
vt 0.333330 21.000000
vt 0.000000 21.000000
vt 0.000000 0.000000
vt 1.000000 0.000000
vt 1.000000 21.000000
vt 0.000000 21.000000
vt 0.000000 0.000000
vt 0.333330 0.000000
vt 0.333330 21.000000
vt 0.000000 21.000000
vt 0.000000 0.000000
vt 1.000000 0.000000
vt 1.000000 21.000000
vt 0.000000 21.000000
vt 0.000000 0.000000
vt 0.666670 0.000000
vt 0.666670 21.000000
vt 0.000000 0.000000
vt 0.666670 0.000000
vt 0.666670 21.000000
vt 0.000000 21.000000
vt 0.000000 0.000000
vt 1.000000 0.000000
vt 1.000000 21.000000
vt 0.000000 21.000000
vt 0.000000 21.000000
vt 0.000000 0.000000
vt 0.666670 0.000000
vt 0.666670 21.000000
vn -0.4742 -0.8804 0.0000
vn -0.4743 -0.8804 0.0000
vn -0.8800 0.4750 0.0000
vn -0.8799 0.4751 0.0000
vn 0.4725 0.8813 0.0000
vn -0.4736 -0.8808 0.0000
vn -0.4736 -0.8807 0.0000
vn -0.4737 -0.8807 0.0000
vn -0.8804 0.4741 0.0000
vn -0.8804 0.4742 0.0000
vn -0.4753 -0.8798 0.0000
vn -0.8805 0.4741 0.0000
vn 0.8806 -0.4738 0.0000
vn 0.8807 -0.4738 0.0000
vn 0.8806 -0.4739 0.0000
vn 0.4740 0.8805 0.0000
vn 0.4741 0.8805 0.0000
vn -0.8804 0.4743 0.0000
vn -0.4738 -0.8806 0.0000
vn 0.8805 -0.4740 0.0000
s off
f 1/1/1 2/2/1 3/3/1
f 4/4/2 1/1/2 3/3/2
f 5/5/3 6/6/3 7/7/3
f 8/8/4 5/5/4 7/7/4
f 9/9/5 10/10/5 11/11/5
f 12/12/5 9/9/5 11/11/5
f 13/13/6 14/14/6 15/15/6
f 13/13/7 15/15/7 16/16/7
f 17/17/8 18/18/8 19/19/8
f 20/20/7 17/17/7 19/19/7
f 21/21/7 22/22/7 23/23/7
f 24/24/8 22/22/8 21/21/8
f 21/21/7 23/23/7 25/25/7
f 26/26/9 27/27/9 28/28/9
f 26/26/10 28/28/10 29/29/10
f 30/30/10 31/31/10 32/32/10
f 30/30/10 32/32/10 33/33/10
f 34/34/10 35/35/10 36/36/10
f 37/37/10 34/34/10 36/36/10
f 38/38/11 39/39/11 40/40/11
f 41/41/11 38/38/11 40/40/11
f 42/42/12 43/43/12 44/44/12
f 45/45/12 42/42/12 44/44/12
f 46/46/12 47/47/12 48/48/12
f 46/46/12 48/48/12 49/49/12
f 50/50/12 51/51/12 52/52/12
f 53/53/12 50/50/12 52/52/12
f 54/54/13 55/55/13 56/56/13
f 54/54/14 56/56/14 57/57/14
f 58/58/15 59/59/15 60/60/15
f 61/61/14 58/58/14 60/60/14
f 62/62/14 63/63/14 64/64/14
f 65/65/13 62/62/13 64/64/13
f 66/66/15 67/67/15 68/68/15
f 66/66/14 68/68/14 69/69/14
f 70/70/14 71/71/14 72/72/14
f 70/70/14 72/72/14 73/73/14
f 74/74/16 75/75/16 76/76/16
f 74/74/16 76/76/16 77/77/16
f 78/78/16 79/79/16 80/80/16
f 78/78/17 80/80/17 81/81/17
f 82/82/16 83/83/16 84/84/16
f 82/82/16 84/84/16 85/85/16
f 86/86/16 87/87/16 88/88/16
f 86/86/16 88/88/16 89/89/16
f 90/90/17 91/91/17 92/92/17
f 93/93/17 90/90/17 92/92/17
f 94/94/17 95/95/17 96/96/17
f 94/94/17 96/96/17 97/97/17
f 98/98/16 99/99/16 100/100/16
f 98/98/16 100/100/16 101/101/16
f 102/102/10 103/103/10 104/104/10
f 102/102/10 104/104/10 105/105/10
f 106/106/18 107/107/18 108/108/18
f 109/109/10 106/106/10 108/108/10
f 110/110/10 111/111/10 112/112/10
f 113/113/9 110/110/9 112/112/9
f 114/114/10 115/115/10 116/116/10
f 114/114/10 116/116/10 117/117/10
f 118/118/10 119/119/10 120/120/10
f 121/121/18 118/118/18 120/120/18
f 134/122/19 135/123/19 136/124/19
f 137/125/19 134/122/19 136/124/19
f 138/126/15 139/127/15 140/128/15
f 141/129/15 138/126/15 140/128/15
f 142/130/15 143/131/15 144/132/15
f 142/130/20 144/132/20 145/133/20
f 146/134/20 147/135/20 148/136/20
f 146/134/15 148/136/15 149/137/15
f 150/138/15 151/139/15 152/140/15
f 150/138/15 152/140/15 153/141/15
f 154/142/20 155/143/20 156/144/20
f 154/142/15 156/144/15 157/145/15
f 158/146/15 159/147/15 160/148/15
f 158/146/20 160/148/20 161/149/20
f 162/150/15 163/151/15 164/152/15
f 162/150/20 164/152/20 165/153/20
s 1
f 122/154/8 123/155/8 124/156/8
f 125/157/8 122/154/8 124/156/8
f 126/158/8 127/159/8 128/160/8
f 129/161/8 126/158/8 128/160/8
f 130/162/8 131/163/8 132/164/8
f 130/162/8 132/164/8 133/165/8
