# Blender v3.0.1 OBJ File: 'rockerfeller_plaza.blend'
# www.blender.org
o geometryt000010000010000110010110000110000100110010110010st0
v 24.642546 -141.685074 292.819336
v 29.048466 -144.076065 292.819336
v 29.048466 -144.076065 307.875427
v 24.642546 -141.685074 307.875427
v 38.388123 -115.321259 307.875427
v 38.388123 -115.321259 292.819336
v 24.700674 -140.688263 292.819336
v 24.700674 -140.688263 307.875427
v 29.848345 -143.480164 307.875427
v 29.848345 -143.480164 292.819336
v 43.502396 -118.095062 292.819336
v 43.502396 -118.095062 307.875427
v 43.577827 -117.106262 307.875427
v 43.577827 -117.106262 292.819336
v 39.170708 -114.717361 292.819336
v 39.170708 -114.717361 307.875427
vt 0.000000 0.000000
vt 0.666670 0.000000
vt 0.666670 0.800000
vt 0.000000 0.800000
vt 0.000000 0.800000
vt 0.000000 0.000000
vt 3.833330 0.000000
vt 3.833330 0.800000
vt 0.000000 0.800000
vt 0.000000 0.000000
vt 0.666670 0.000000
vt 0.666670 0.800000
vt 0.000000 0.800000
vt 0.000000 0.000000
vt 3.833330 0.000000
vt 3.833330 0.800000
vn -0.4770 -0.8789 0.0000
vn -0.8801 0.4749 0.0000
vn 0.4765 0.8791 0.0000
vn 0.8807 -0.4737 0.0000
s off
f 1/1/1 2/2/1 3/3/1
f 4/4/1 1/1/1 3/3/1
f 5/5/2 6/6/2 7/7/2
f 5/5/2 7/7/2 8/8/2
f 13/9/3 14/10/3 15/11/3
f 13/9/3 15/11/3 16/12/3
s 1
f 9/13/4 10/14/4 11/15/4
f 9/13/4 11/15/4 12/16/4
