# Blender v3.0.1 OBJ File: 'rockerfeller_plaza.blend'
# www.blender.org
o geometryt000010000010000110010110000110000110100000110100st78
v 826.150146 -119.781509 701.167114
v 830.587646 -111.558411 701.167114
v 842.263916 -125.366608 701.167114
v 828.846252 -134.516006 701.167114
v 820.580383 -130.093811 701.167114
v 847.230408 -116.171509 701.167114
v 835.016846 -103.346611 701.167114
v 844.569397 -121.087608 701.167114
v 835.066711 -103.279411 701.167114
v 849.858154 -111.300308 701.167114
v 848.577271 -113.668907 701.167114
v 835.413330 -138.047607 701.167114
v 820.580383 -130.093811 753.967163
v 828.846252 -134.516006 753.967163
v 826.150146 -119.781509 753.967163
v 842.263916 -125.366608 753.967163
v 835.413330 -138.047607 753.967163
v 830.587646 -111.558411 753.967163
v 844.569397 -121.087608 753.967163
v 847.230408 -116.171509 753.967163
v 848.577271 -113.668907 753.967163
v 835.016846 -103.346611 753.967163
v 849.858154 -111.300308 753.967163
v 835.066711 -103.279411 753.967163
vt 0.194410 0.146490
vt 0.178030 0.155630
vt 0.199450 0.178840
vt 0.220360 0.151580
vt 0.214940 0.135030
vt 0.181140 0.189070
vt 0.161680 0.164750
vt 0.190930 0.183590
vt 0.161540 0.164850
vt 0.171440 0.194480
vt 0.176150 0.191840
vt 0.224700 0.164730
vt 0.214940 0.135030
vt 0.220360 0.151580
vt 0.194410 0.146490
vt 0.199450 0.178840
vt 0.224700 0.164730
vt 0.178030 0.155630
vt 0.190930 0.183590
vt 0.181140 0.189070
vt 0.176150 0.191840
vt 0.161680 0.164750
vt 0.171440 0.194480
vt 0.161540 0.164850
vn 0.0000 0.0000 -1.0000
vn 0.0000 0.0000 1.0000
vn 0.0007 0.0000 1.0000
s off
f 1/1/1 2/2/1 3/3/1
f 1/1/1 3/3/1 4/4/1
f 1/1/1 4/4/1 5/5/1
f 6/6/1 2/2/1 7/7/1
f 8/8/1 2/2/1 6/6/1
f 3/3/1 2/2/1 8/8/1
f 9/9/1 10/10/1 7/7/1
f 10/10/1 11/11/1 7/7/1
f 11/11/1 6/6/1 7/7/1
f 4/4/1 3/3/1 12/12/1
f 13/13/2 14/14/2 15/15/2
f 16/16/2 14/14/2 17/17/2
f 15/15/2 14/14/2 16/16/2
f 18/18/2 16/16/2 19/19/2
f 18/18/2 15/15/2 16/16/2
f 20/20/2 18/18/2 19/19/2
f 21/21/2 22/22/2 20/20/2
f 20/20/2 22/22/2 18/18/2
f 23/23/2 22/22/2 21/21/2
f 24/24/3 22/22/3 23/23/3
