# Blender v3.0.1 OBJ File: 'rockerfeller_plaza.blend'
# www.blender.org
o geometryt000010000010000110010110000110000100110010010110st0
v 250.531403 -268.689392 20.138680
v 253.281799 -270.148804 20.138680
v 253.281799 -270.148804 51.529819
v 250.531403 -268.689392 51.529819
v 253.754898 -270.399811 51.529819
v 253.754898 -270.399811 20.138680
v 255.130096 -271.129486 20.138680
v 255.130096 -271.129486 51.529819
v 255.603104 -271.380493 51.529819
v 255.603104 -271.380493 20.138680
v 256.978394 -272.110199 20.138680
v 256.978394 -272.110199 51.529819
v 257.451385 -272.361206 51.529819
v 257.451385 -272.361206 20.138680
v 260.201813 -273.820709 20.138680
v 260.201813 -273.820709 51.529819
v 260.674896 -274.071686 51.529819
v 260.674896 -274.071686 20.138680
v 262.050110 -274.801392 20.138680
v 262.050110 -274.801392 51.529819
v 262.523102 -275.052399 51.529819
v 262.523102 -275.052399 20.138680
v 263.898407 -275.782104 20.138680
v 263.898407 -275.782104 51.529819
v 264.371399 -276.033112 51.529819
v 264.371399 -276.033112 20.138680
v 267.121887 -277.492493 20.138680
v 267.121887 -277.492493 51.529819
v 251.574203 -265.342407 20.138680
v 250.360992 -268.209991 20.138680
v 250.360992 -268.209991 51.529819
v 251.574203 -265.342407 51.529819
v 252.483795 -263.192505 51.529819
v 252.483795 -263.192505 20.138680
v 251.877197 -264.626312 20.138680
v 251.877197 -264.626312 51.529819
v 254.606506 -258.175110 20.138680
v 252.786697 -262.476410 20.138680
v 252.786697 -262.476410 51.529819
v 254.606506 -258.175110 51.529819
v 256.729309 -253.157593 20.138680
v 254.909500 -257.459015 20.138680
v 254.909500 -257.459015 51.529819
v 256.729309 -253.157593 51.529819
v 257.638794 -251.007706 51.529819
v 257.638794 -251.007706 20.138680
v 257.032196 -252.441498 20.138680
v 257.032196 -252.441498 51.529819
v 259.154907 -247.424103 20.138680
v 257.941803 -250.291702 20.138680
v 257.941803 -250.291702 51.529819
v 259.154907 -247.424103 51.529819
v 262.486389 -248.803207 20.138680
v 259.736115 -247.343506 20.138680
v 259.736115 -247.343506 51.529819
v 262.486389 -248.803207 51.529819
v 270.467896 -253.139694 20.138680
v 263.630310 -249.419601 20.138680
v 263.630310 -249.419601 51.529819
v 270.467896 -253.139694 51.529819
v 267.880188 -276.796387 51.529819
v 267.880188 -276.796387 20.138680
v 269.335510 -274.043793 20.138680
v 269.335510 -274.043793 51.529819
v 268.491791 -269.744110 51.529819
v 268.491791 -269.744110 20.138680
v 269.217987 -268.367096 20.138680
v 269.217987 -268.367096 51.529819
v 269.993195 -271.501892 20.138680
v 268.617401 -270.773285 20.138680
v 268.617401 -270.773285 51.529819
v 269.993195 -271.501892 51.529819
v 270.123108 -267.874115 51.529819
v 270.123108 -267.874115 20.138680
v 271.509705 -268.581909 20.138680
v 271.509705 -268.581909 51.529819
v 277.380188 -256.651306 20.138680
v 271.819214 -253.848694 20.138680
v 271.819214 -253.848694 51.529819
v 277.380188 -256.651306 51.529819
v 272.174011 -268.533600 51.529819
v 272.174011 -268.533600 20.138680
v 273.582611 -265.756805 20.138680
v 273.582611 -265.756805 51.529819
v 273.776215 -265.375305 20.138680
v 274.480499 -263.986908 20.138680
v 274.480499 -263.986908 51.529819
v 273.776215 -265.375305 51.529819
v 274.674011 -263.605286 20.138680
v 275.378296 -262.216888 20.138680
v 275.378296 -262.216888 51.529819
v 274.674011 -263.605286 51.529819
v 275.571808 -261.835388 20.138680
v 276.276093 -260.446991 20.138680
v 276.276093 -260.446991 51.529819
v 275.571808 -261.835388 51.529819
v 276.469696 -260.065491 51.529819
v 276.469696 -260.065491 20.138680
v 277.878296 -257.288605 20.138680
v 277.878296 -257.288605 51.529819
vt 0.000000 0.000000
vt 0.666670 0.000000
vt 0.666670 9.000000
vt 0.000000 9.000000
vt 0.000000 9.000000
vt 0.000000 0.000000
vt 0.333330 0.000000
vt 0.333330 9.000000
vt 0.000000 9.000000
vt 0.000000 0.000000
vt 0.333330 0.000000
vt 0.333330 9.000000
vt 0.000000 9.000000
vt 0.000000 0.000000
vt 0.666670 0.000000
vt 0.666670 9.000000
vt 0.000000 9.000000
vt 0.000000 0.000000
vt 0.333330 0.000000
vt 0.333330 9.000000
vt 0.000000 9.000000
vt 0.000000 0.000000
vt 0.333330 0.000000
vt 0.333330 9.000000
vt 0.000000 9.000000
vt 0.000000 0.000000
vt 0.666670 0.000000
vt 0.666670 9.000000
vt 0.000000 0.000000
vt 0.666670 0.000000
vt 0.666670 9.000000
vt 0.000000 9.000000
vt 0.000000 9.000000
vt 0.000000 0.000000
vt 0.333330 0.000000
vt 0.333330 9.000000
vt 0.000000 0.000000
vt 1.000000 0.000000
vt 1.000000 9.000000
vt 0.000000 9.000000
vt 0.000000 0.000000
vt 1.000000 0.000000
vt 1.000000 9.000000
vt 0.000000 9.000000
vt 0.000000 9.000000
vt 0.000000 0.000000
vt 0.333330 0.000000
vt 0.333330 9.000000
vt 0.000000 0.000000
vt 0.666670 0.000000
vt 0.666670 9.000000
vt 0.000000 9.000000
vt 0.000000 0.000000
vt 0.666670 0.000000
vt 0.666670 9.000000
vt 0.000000 9.000000
vt 0.000000 0.000000
vt 1.666670 0.000000
vt 1.666670 9.000000
vt 0.000000 9.000000
vt 0.000000 9.000000
vt 0.000000 0.000000
vt 0.666670 0.000000
vt 0.666670 9.000000
vt 0.000000 9.000000
vt 0.000000 0.000000
vt 0.333330 0.000000
vt 0.333330 9.000000
vt 0.000000 0.000000
vt 0.333330 0.000000
vt 0.333330 9.000000
vt 0.000000 9.000000
vt 0.000000 9.000000
vt 0.000000 0.000000
vt 0.333330 0.000000
vt 0.333330 9.000000
vt 0.000000 0.000000
vt 1.333330 0.000000
vt 1.333330 9.000000
vt 0.000000 9.000000
vt 0.000000 9.000000
vt 0.000000 0.000000
vt 0.666670 0.000000
vt 0.666670 9.000000
vt 0.000000 0.000000
vt 0.333330 0.000000
vt 0.333330 9.000000
vt 0.000000 9.000000
vt 0.000000 0.000000
vt 0.333330 0.000000
vt 0.333330 9.000000
vt 0.000000 9.000000
vt 0.000000 0.000000
vt 0.333330 0.000000
vt 0.333330 9.000000
vt 0.000000 9.000000
vt 0.000000 9.000000
vt 0.000000 0.000000
vt 0.666670 0.000000
vt 0.666670 9.000000
vn -0.4687 -0.8833 0.0000
vn -0.4687 -0.8834 0.0000
vn -0.9210 0.3896 0.0000
vn -0.9210 0.3897 0.0000
vn 0.4688 0.8833 0.0000
vn 0.4779 0.8784 0.0000
vn 0.8840 -0.4674 0.0000
vn 0.8845 -0.4665 0.0000
vn 0.4680 0.8837 0.0000
vn -0.4547 -0.8907 0.0000
vn -0.4546 -0.8907 0.0000
vn 0.4501 0.8930 0.0000
vn 0.8918 -0.4524 0.0000
s off
f 1/1/1 2/2/1 3/3/1
f 4/4/1 1/1/1 3/3/1
f 5/5/2 6/6/2 7/7/2
f 5/5/2 7/7/2 8/8/2
f 9/9/2 10/10/2 11/11/2
f 9/9/2 11/11/2 12/12/2
f 13/13/1 14/14/1 15/15/1
f 13/13/1 15/15/1 16/16/1
f 17/17/1 18/18/1 19/19/1
f 17/17/2 19/19/2 20/20/2
f 21/21/2 22/22/2 23/23/2
f 21/21/2 23/23/2 24/24/2
f 25/25/2 26/26/2 27/27/2
f 25/25/2 27/27/2 28/28/2
f 29/29/3 30/30/3 31/31/3
f 32/32/3 29/29/3 31/31/3
f 33/33/3 34/34/3 35/35/3
f 33/33/3 35/35/3 36/36/3
f 37/37/3 38/38/3 39/39/3
f 40/40/4 37/37/4 39/39/4
f 41/41/3 42/42/3 43/43/3
f 44/44/3 41/41/3 43/43/3
f 45/45/3 46/46/3 47/47/3
f 45/45/4 47/47/4 48/48/4
f 49/49/3 50/50/3 51/51/3
f 52/52/3 49/49/3 51/51/3
f 53/53/5 54/54/5 55/55/5
f 56/56/5 53/53/5 55/55/5
f 57/57/6 58/58/6 59/59/6
f 60/60/6 57/57/6 59/59/6
f 61/61/7 62/62/7 63/63/7
f 61/61/7 63/63/7 64/64/7
f 65/65/8 66/66/8 67/67/8
f 65/65/8 67/67/8 68/68/8
f 69/69/9 70/70/9 71/71/9
f 72/72/9 69/69/9 71/71/9
f 73/73/10 74/74/10 75/75/10
f 73/73/11 75/75/11 76/76/11
f 77/77/12 78/78/12 79/79/12
f 80/80/12 77/77/12 79/79/12
f 81/81/13 82/82/13 83/83/13
f 81/81/13 83/83/13 84/84/13
f 85/85/13 86/86/13 87/87/13
f 88/88/13 85/85/13 87/87/13
f 89/89/13 90/90/13 91/91/13
f 92/92/13 89/89/13 91/91/13
f 93/93/13 94/94/13 95/95/13
f 96/96/13 93/93/13 95/95/13
f 97/97/13 98/98/13 99/99/13
f 97/97/13 99/99/13 100/100/13
