# Blender v3.0.1 OBJ File: 'rockerfeller_plaza.blend'
# www.blender.org
o geometryt000010000010000110010110000110000110100000100100st119_
v 399.201599 -179.193924 685.087036
v 399.201599 -179.193924 612.388611
v 399.774506 -179.502426 685.087036
v 388.984619 -173.692322 612.388611
v 394.662201 -176.749619 610.087036
v 398.584778 -178.861816 610.087036
v 399.774506 -179.502426 610.087036
v 388.984619 -173.692322 663.883301
v 388.411682 -173.383820 665.087036
v 388.411682 -173.383820 610.087036
v 389.709595 -174.082718 610.087036
v 391.414307 -175.000626 610.087036
v 391.903809 -175.264221 663.883301
v 389.709595 -174.082718 665.087036
v 391.903809 -175.264221 675.999695
v 391.414307 -175.000626 665.087036
v 394.822876 -176.836121 675.999695
v 394.662201 -176.749619 677.087036
v 391.414307 -175.000626 677.087036
v 394.822876 -176.836121 685.087036
v 394.662201 -176.749619 685.087036
v 388.796387 -172.672623 665.087036
v 388.796387 -172.672623 612.388611
v 388.399414 -173.406723 665.087036
v 394.713593 -161.731628 610.087036
v 394.316589 -162.465729 612.388611
v 388.399414 -173.406723 610.087036
v 394.316589 -162.465729 665.087036
v 394.713593 -161.731628 657.087036
v 394.713593 -161.731628 665.087036
v 391.738800 -174.400726 677.087036
v 391.738800 -174.400726 665.087036
v 391.406616 -175.014923 665.087036
v 391.406616 -175.014923 677.087036
v 396.803497 -165.038025 677.087036
v 396.803497 -165.038025 665.087036
v 396.471191 -165.652328 665.087036
v 396.471191 -165.652328 677.087036
v 394.971405 -176.178223 685.087036
v 394.971405 -176.178223 677.087036
v 394.660095 -176.753525 677.087036
v 394.660095 -176.753525 685.087036
v 400.015686 -166.854828 685.087036
v 400.015686 -166.854828 677.087036
v 399.704407 -167.430130 677.087036
v 399.704407 -167.430130 685.087036
v 394.967712 -161.257431 612.388611
v 394.713593 -161.731628 657.087036
v 394.967712 -161.257431 657.087036
v 405.928711 -140.800827 612.388611
v 394.713593 -161.731628 610.087036
v 405.928711 -140.800827 657.087036
v 406.182800 -140.326523 657.087036
v 406.182800 -140.326523 610.087036
v 395.057678 -161.916031 665.087036
v 395.057678 -161.916031 657.087036
v 395.026306 -161.899124 657.087036
v 394.713593 -161.731628 657.087036
v 394.713593 -161.731628 665.087036
v 396.862915 -162.883530 665.087036
v 396.862915 -162.883530 657.087036
v 396.518799 -162.699127 657.087036
v 396.518799 -162.699127 665.087036
v 397.284302 -165.297028 677.087036
v 397.284302 -165.297028 665.087036
v 397.237091 -165.271622 665.087036
v 396.803497 -165.038025 665.087036
v 396.803497 -165.038025 677.087036
v 399.224609 -166.342224 677.087036
v 399.224609 -166.342224 665.087036
v 398.743805 -166.083130 665.087036
v 398.743805 -166.083130 677.087036
v 397.287201 -162.098328 665.087036
v 397.287201 -162.098328 657.087036
v 396.862915 -162.883530 657.087036
v 396.862915 -162.883530 665.087036
v 407.168793 -143.812317 665.087036
v 407.168793 -143.812317 657.087036
v 406.744507 -144.597519 657.087036
v 406.744507 -144.597519 665.087036
v 399.705902 -165.452118 677.087036
v 399.705902 -165.452118 665.087036
v 399.224609 -166.342224 665.087036
v 399.224609 -166.342224 677.087036
v 408.861298 -148.522217 677.087036
v 408.861298 -148.522217 665.087036
v 408.379883 -149.412323 665.087036
v 408.379883 -149.412323 677.087036
v 408.885620 -184.383026 693.487000
v 408.885620 -184.383026 612.388611
v 409.229095 -184.566925 693.487000
v 399.774200 -179.503021 610.087036
v 400.117615 -179.687027 612.388611
v 409.229095 -184.566925 610.087036
v 400.117615 -179.687027 693.487000
v 399.774200 -179.503021 685.087036
v 399.774200 -179.503021 693.487000
v 400.260803 -178.603729 693.487000
v 400.260803 -178.603729 685.087036
v 399.774200 -179.503021 685.087036
v 399.774200 -179.503021 693.487000
v 411.791199 -157.292328 693.487000
v 411.791199 -157.292328 685.087036
v 411.304596 -158.191620 685.087036
v 411.304596 -158.191620 693.487000
v 400.521301 -167.125931 685.087036
v 400.521301 -167.125931 677.087036
v 400.279419 -166.996231 677.087036
v 400.015686 -166.854828 677.087036
v 400.015686 -166.854828 685.087036
v 402.487701 -168.180618 685.087036
v 402.487701 -168.180618 677.087036
v 401.982178 -167.909424 677.087036
v 401.982178 -167.909424 685.087036
v 402.930298 -167.362427 685.087036
v 402.930298 -167.362427 677.087036
v 402.487701 -168.180618 677.087036
v 402.487701 -168.180618 685.087036
v 410.471497 -153.421829 685.087036
v 410.471497 -153.421829 677.087036
v 410.028900 -154.239929 677.087036
v 410.028900 -154.239929 685.087036
v 406.887878 -140.705124 612.388611
v 406.182800 -140.326523 657.087036
v 406.887878 -140.705124 657.087036
v 431.716492 -154.036423 612.388611
v 422.830017 -149.264923 610.087036
v 406.182800 -140.326523 610.087036
v 431.716492 -154.036423 665.087036
v 432.421600 -154.414917 665.087036
v 432.421600 -154.414917 610.087036
v 422.953491 -149.331223 665.087036
v 422.953491 -149.331223 657.558655
v 422.830017 -149.264923 657.558655
v 422.830017 -149.264923 665.087036
v 407.809509 -144.156525 665.087036
v 407.809509 -144.156525 657.087036
v 407.168793 -143.812317 657.087036
v 407.168793 -143.812317 665.087036
v 421.593506 -151.560730 665.087036
v 421.593506 -151.560730 657.087036
v 420.952820 -151.216629 657.087036
v 420.952820 -151.216629 665.087036
v 409.807312 -149.030228 677.087036
v 409.807312 -149.030228 665.087036
v 408.861298 -148.522217 665.087036
v 408.861298 -148.522217 677.087036
v 423.897583 -156.596619 677.087036
v 423.897583 -156.596619 665.087036
v 422.951477 -156.088623 665.087036
v 422.951477 -156.088623 677.087036
v 412.065918 -179.281326 693.487000
v 412.065918 -179.281326 612.388611
v 412.550903 -178.377731 622.087036
v 412.550903 -178.377731 693.487000
v 409.713806 -183.663116 612.388611
v 411.129700 -181.025421 610.087036
v 412.550903 -178.377731 610.087036
v 409.713806 -183.663116 693.487000
v 409.228821 -184.566818 693.487000
v 409.228821 -184.566818 610.087036
v 411.245300 -153.836731 685.087036
v 411.245300 -153.836731 677.087036
v 410.471497 -153.421829 677.087036
v 410.471497 -153.421829 685.087036
v 422.245605 -159.735519 685.087036
v 422.245605 -159.735519 677.087036
v 421.471802 -159.320618 677.087036
v 421.471802 -159.320618 685.087036
v 412.626587 -157.740829 693.487000
v 412.626587 -157.740829 685.087036
v 411.791199 -157.292328 685.087036
v 411.791199 -157.292328 693.487000
v 426.606598 -165.247116 693.487000
v 426.606598 -165.247116 685.087036
v 425.771179 -164.798523 685.087036
v 425.771179 -164.798523 693.487000
v 417.459503 -181.017029 612.388611
v 417.987915 -181.301117 622.087036
v 417.459503 -181.017029 622.087036
v 412.550995 -178.377731 610.087036
v 413.079407 -178.661819 612.388611
v 417.987915 -181.301117 610.087036
v 413.079407 -178.661819 622.087036
v 412.550995 -178.377731 622.087036
v 412.550995 -178.377731 693.487000
v 412.550995 -178.377731 622.087036
v 412.766418 -177.991821 622.087036
v 412.895508 -177.760529 622.087036
v 412.895508 -177.760529 693.487000
v 413.703400 -176.313019 693.487000
v 413.703400 -176.313019 622.087036
v 414.047913 -175.695831 622.087036
v 414.047913 -175.695831 693.487000
v 414.047913 -175.695831 693.487000
v 414.047913 -175.695831 622.087036
v 414.562103 -175.971527 622.087036
v 414.562103 -175.971527 693.487000
v 418.945007 -178.321518 693.487000
v 418.945007 -178.321518 622.087036
v 419.459198 -178.597229 622.087036
v 419.459198 -178.597229 693.487000
v 419.122620 -179.222717 612.388611
v 419.462891 -178.599319 622.087036
v 419.122620 -179.222717 622.087036
v 418.328186 -180.677719 612.388611
v 418.877014 -179.672531 610.087036
v 419.462891 -178.599319 610.087036
v 418.328186 -180.677719 622.087036
v 417.987915 -181.301117 622.087036
v 417.987915 -181.301117 610.087036
v 426.162109 -166.076019 693.487000
v 426.162109 -166.076019 612.388611
v 426.606384 -165.246918 685.087036
v 426.606384 -165.246918 693.487000
v 419.898376 -177.765427 612.388611
v 425.540710 -167.235626 610.087036
v 426.606384 -165.246918 610.087036
v 419.898376 -177.765427 693.487000
v 419.454102 -178.594528 622.087036
v 419.454102 -178.594528 610.087036
v 419.454102 -178.594528 693.487000
v 421.820190 -151.139725 665.087036
v 421.820190 -151.139725 657.087036
v 421.773804 -151.226028 657.087036
v 421.593506 -151.560730 657.087036
v 421.593506 -151.560730 665.087036
v 422.833099 -149.259323 665.087036
v 422.833099 -149.259323 657.087036
v 422.606293 -149.680222 657.087036
v 422.606293 -149.680222 665.087036
v 422.409790 -159.432129 685.087036
v 422.409790 -159.432129 677.087036
v 422.341705 -159.557922 677.087036
v 422.245605 -159.735519 677.087036
v 422.245605 -159.735519 685.087036
v 423.146484 -158.070831 685.087036
v 423.146484 -158.070831 677.087036
v 422.982300 -158.374222 677.087036
v 422.982300 -158.374222 685.087036
v 423.801208 -158.422028 685.087036
v 423.801208 -158.422028 677.087036
v 423.753601 -158.396530 677.087036
v 423.146484 -158.070831 677.087036
v 423.146484 -158.070831 685.087036
v 428.838196 -161.124420 685.087036
v 428.838196 -161.124420 677.087036
v 428.183502 -160.773224 677.087036
v 428.183502 -160.773224 685.087036
v 424.099915 -156.220520 677.087036
v 424.099915 -156.220520 665.087036
v 423.897583 -156.596619 665.087036
v 423.897583 -156.596619 677.087036
v 425.087585 -154.384521 677.087036
v 425.087585 -154.384521 665.087036
v 424.885193 -154.760620 665.087036
v 424.885193 -154.760620 677.087036
v 425.744080 -154.738022 677.087036
v 425.744080 -154.738022 665.087036
v 425.087585 -154.384521 665.087036
v 425.087585 -154.384521 677.087036
v 430.779419 -157.449326 677.087036
v 430.779419 -157.449326 665.087036
v 430.122803 -157.095718 665.087036
v 430.122803 -157.095718 677.087036
v 428.508789 -161.726425 685.087036
v 428.508789 -161.726425 612.388611
v 428.835999 -161.123230 677.087036
v 428.835999 -161.123230 685.087036
v 426.927917 -164.640717 612.388611
v 427.986816 -162.688629 610.087036
v 428.835999 -161.123230 610.087036
v 426.927917 -164.640717 685.087036
v 426.600708 -165.243820 685.087036
v 426.600708 -165.243820 610.087036
v 430.583008 -157.821030 677.087036
v 430.583008 -157.821030 612.388611
v 430.779419 -157.449326 665.087036
v 430.779419 -157.449326 677.087036
v 429.034485 -160.752731 612.388611
v 430.779419 -157.449326 610.087036
v 429.034485 -160.752731 677.087036
v 428.838196 -161.124420 677.087036
v 428.838196 -161.124420 610.087036
v 431.996216 -155.200821 612.388611
v 432.424103 -154.410324 665.087036
v 431.996216 -155.200821 665.087036
v 430.779419 -157.449326 610.087036
v 431.207214 -156.658722 612.388611
v 432.424103 -154.410324 610.087036
v 431.207214 -156.658722 665.087036
v 430.779419 -157.449326 665.087036
vt 12.230290 55.886742
vt 12.230290 1.715050
vt 12.879690 55.886742
vt 0.649400 1.715050
vt 7.084930 0.000000
vt 11.531200 0.000000
vt 12.879690 0.000000
vt 0.649400 40.086658
vt 0.000000 40.983608
vt 0.000000 0.000000
vt 1.471140 0.000000
vt 3.403400 0.000000
vt 3.958230 40.086658
vt 1.471140 40.983608
vt 3.958230 49.115280
vt 3.403400 40.983608
vt 7.267050 49.115280
vt 7.084930 49.925480
vt 3.403400 49.925480
vt 7.267050 55.886742
vt 7.084930 55.886742
vt 12.413820 40.983608
vt 12.413820 1.715050
vt 13.246750 40.983608
vt 0.000000 0.000000
vt 0.832930 1.715050
vt 13.246750 0.000000
vt 0.832930 40.983608
vt 0.000000 35.022350
vt 0.000000 40.983608
vt 10.623470 8.941881
vt 10.623470 0.000000
vt 11.320470 0.000000
vt 11.320470 8.941881
vt 0.000000 8.941881
vt 0.000000 0.000000
vt 0.696990 0.000000
vt 0.696990 8.941881
vt 10.579350 5.961250
vt 10.579350 0.000000
vt 11.232220 0.000000
vt 11.232220 5.961250
vt 0.000000 5.961250
vt 0.000000 0.000000
vt 0.652870 0.000000
vt 0.652870 5.961250
vt 23.698709 1.715050
vt 24.235630 35.022350
vt 23.698709 35.022350
vt 0.536920 1.715050
vt 24.235630 0.000000
vt 0.536920 35.022350
vt 0.000000 35.022350
vt 0.000000 0.000000
vt 2.079610 0.000000
vt 2.433580 0.000000
vt 2.433580 5.961250
vt 2.044000 5.961250
vt 0.000000 5.961250
vt 0.000000 0.000000
vt 0.389590 0.000000
vt 0.389590 5.961250
vt 2.199490 8.941881
vt 2.199490 0.000000
vt 2.253000 0.000000
vt 2.744570 0.000000
vt 2.744570 8.941881
vt 0.000000 8.941881
vt 0.000000 0.000000
vt 0.545080 0.000000
vt 0.545080 8.941881
vt 20.743679 5.961250
vt 20.743679 0.000000
vt 21.634411 0.000000
vt 21.634411 5.961250
vt 0.000000 5.961250
vt 0.000000 0.000000
vt 0.890730 0.000000
vt 0.890730 5.961250
vt 19.208410 8.941881
vt 19.208410 0.000000
vt 20.218281 0.000000
vt 20.218281 8.941881
vt 0.000000 8.941881
vt 0.000000 0.000000
vt 1.009870 0.000000
vt 1.009870 8.941881
vt 10.315330 62.146049
vt 10.315330 1.715050
vt 10.704180 62.146049
vt 0.000000 0.000000
vt 0.388850 1.715050
vt 10.704180 0.000000
vt 0.388850 62.146049
vt 0.000000 55.886742
vt 0.000000 62.146049
vt 24.182320 6.259320
vt 24.182320 0.000000
vt 25.202850 0.000000
vt 25.202850 6.259320
vt 0.000000 6.259320
vt 0.000000 0.000000
vt 1.020530 0.000000
vt 1.020530 6.259320
vt 2.226970 5.961250
vt 2.226970 0.000000
vt 2.500910 0.000000
vt 2.799530 0.000000
vt 2.799530 5.961250
vt 0.000000 5.961250
vt 0.000000 0.000000
vt 0.572560 0.000000
vt 0.572560 5.961250
vt 15.818000 5.961250
vt 15.818000 0.000000
vt 16.746290 0.000000
vt 16.746290 5.961250
vt 0.000000 5.961250
vt 0.000000 0.000000
vt 0.928290 0.000000
vt 0.928290 5.961250
vt 28.923700 1.715050
vt 29.722370 35.022350
vt 28.923700 35.022350
vt 0.798670 1.715050
vt 10.864980 0.000000
vt 29.722370 0.000000
vt 0.798670 40.983608
vt 0.000000 40.983608
vt 0.000000 0.000000
vt 10.725150 40.983608
vt 10.725150 35.373810
vt 10.864980 35.373810
vt 10.864980 40.983608
vt 15.615540 5.961250
vt 15.615540 0.000000
vt 16.341370 0.000000
vt 16.341370 5.961250
vt 0.000000 5.961250
vt 0.000000 0.000000
vt 0.725830 0.000000
vt 0.725830 5.961250
vt 15.961380 8.941881
vt 15.961380 0.000000
vt 17.033051 0.000000
vt 17.033051 8.941881
vt 0.000000 8.941881
vt 0.000000 0.000000
vt 1.071670 0.000000
vt 1.071670 8.941881
vt 5.986780 62.146049
vt 5.986780 1.715050
vt 7.010310 8.941881
vt 7.010310 62.146049
vt 1.023540 1.715050
vt 4.011210 0.000000
vt 7.010310 0.000000
vt 1.023540 62.146049
vt 0.000000 62.146049
vt 0.000000 0.000000
vt 12.457160 5.961250
vt 12.457160 0.000000
vt 13.333430 0.000000
vt 13.333430 5.961250
vt 0.000000 5.961250
vt 0.000000 0.000000
vt 0.876270 0.000000
vt 0.876270 5.961250
vt 0.000000 6.259320
vt 0.000000 0.000000
vt 0.946340 0.000000
vt 0.946340 6.259320
vt 5.561970 1.715050
vt 6.160710 8.941881
vt 5.561970 8.941881
vt 0.000000 0.000000
vt 0.598730 1.715050
vt 6.160710 0.000000
vt 0.598730 8.941881
vt 0.000000 8.941881
vt 0.000000 53.204170
vt 0.000000 0.000000
vt 0.441040 0.000000
vt 0.705420 0.000000
vt 0.705420 53.204170
vt 2.359830 53.204170
vt 2.359830 0.000000
vt 3.065250 0.000000
vt 3.065250 53.204170
vt 0.000000 53.204170
vt 0.000000 0.000000
vt 0.582310 0.000000
vt 0.582310 53.204170
vt 5.545550 53.204170
vt 5.545550 0.000000
vt 6.127870 0.000000
vt 6.127870 53.204170
vt 2.363240 1.715050
vt 3.072070 8.941881
vt 2.363240 8.941881
vt 0.708830 1.715050
vt 1.851800 0.000000
vt 3.072070 0.000000
vt 0.708830 8.941881
vt 0.000000 8.941881
vt 0.000000 0.000000
vt 14.174080 62.146049
vt 14.174080 1.715050
vt 15.112860 55.886742
vt 15.112860 62.146049
vt 0.938780 1.715050
vt 12.861110 0.000000
vt 15.112860 0.000000
vt 0.938780 62.146049
vt 0.000000 8.941881
vt 0.000000 0.000000
vt 0.000000 62.146049
vt 2.229370 0.000000
vt 2.608840 0.000000
vt 2.608840 5.961250
vt 2.131630 5.961250
vt 0.000000 5.961250
vt 0.000000 0.000000
vt 0.477210 0.000000
vt 0.477210 5.961250
vt 1.544730 5.961250
vt 1.544730 0.000000
vt 1.687540 0.000000
vt 1.889040 0.000000
vt 1.889040 5.961250
vt 0.000000 5.961250
vt 0.000000 0.000000
vt 0.344310 0.000000
vt 0.344310 5.961250
vt 5.758620 0.000000
vt 6.446210 0.000000
vt 6.446210 5.961250
vt 5.704730 5.961250
vt 0.000000 5.961250
vt 0.000000 0.000000
vt 0.741490 0.000000
vt 0.741490 5.961250
vt 2.080610 8.941881
vt 2.080610 0.000000
vt 2.506810 0.000000
vt 2.506810 8.941881
vt 0.000000 8.941881
vt 0.000000 0.000000
vt 0.426200 0.000000
vt 0.426200 8.941881
vt 5.707400 8.941881
vt 5.707400 0.000000
vt 6.451570 0.000000
vt 6.451570 8.941881
vt 0.000000 8.941881
vt 0.000000 0.000000
vt 0.744160 0.000000
vt 0.744160 8.941881
vt 3.993650 55.886742
vt 3.993650 1.715050
vt 4.678470 49.925480
vt 4.678470 55.886742
vt 0.684820 1.715050
vt 2.901140 0.000000
vt 4.678470 0.000000
vt 0.684820 55.886742
vt 0.000000 55.886742
vt 0.000000 0.000000
vt 3.728440 49.925480
vt 3.728440 1.715050
vt 4.148060 40.983608
vt 4.148060 49.925480
vt 0.419620 1.715050
vt 4.148060 0.000000
vt 0.419620 49.925480
vt 0.000000 49.925480
vt 0.000000 0.000000
vt 2.551470 1.715050
vt 3.448530 40.983608
vt 2.551470 40.983608
vt 0.000000 0.000000
vt 0.897060 1.715050
vt 3.448530 0.000000
vt 0.897060 40.983608
vt 0.000000 40.983608
vt 2.044000 0.000000
vt 15.836060 6.259320
vt 15.836060 0.000000
vt 16.782400 0.000000
vt 16.782400 6.259320
vt 2.131630 0.000000
vt 5.704730 0.000000
vn -0.4742 -0.8804 0.0000
vn -0.4741 -0.8805 0.0000
vn -0.4741 -0.8804 0.0000
vn -0.4740 -0.8805 0.0000
vn -0.8796 0.4756 0.0000
vn -0.8796 0.4757 0.0000
vn -0.8795 0.4758 0.0000
vn -0.8795 0.4759 0.0000
vn -0.8796 0.4758 0.0000
vn -0.8795 0.4760 0.0000
vn -0.8813 0.4725 0.0000
vn -0.8814 0.4723 0.0000
vn -0.8815 0.4722 0.0000
vn 0.4722 0.8815 0.0000
vn 0.4723 0.8814 0.0000
vn 0.4736 0.8807 0.0000
vn 0.4743 0.8804 0.0000
vn 0.4744 0.8803 0.0000
vn -0.8798 0.4754 0.0000
vn -0.4720 -0.8816 0.0000
vn -0.4721 -0.8815 -0.0000
vn -0.4724 -0.8814 0.0000
vn -0.4723 -0.8814 0.0000
vn -0.4722 -0.8815 0.0000
vn -0.4723 -0.8815 0.0000
vn 0.4726 0.8813 0.0000
vn 0.4725 0.8813 0.0000
vn 0.4727 0.8812 0.0000
vn 0.4728 0.8812 0.0000
vn 0.4731 0.8810 0.0000
vn 0.4733 0.8809 0.0000
vn 0.4734 0.8809 0.0000
vn 0.4735 0.8808 -0.0000
vn 0.4730 0.8811 0.0000
vn 0.4732 0.8809 0.0000
vn 0.4732 0.8810 0.0000
vn 0.4730 0.8810 0.0000
vn 0.8811 -0.4729 0.0000
vn 0.8811 -0.4730 -0.0000
vn 0.8811 -0.4728 0.0000
vn -0.4735 -0.8808 0.0000
vn -0.4736 -0.8808 0.0000
vn 0.8731 -0.4875 0.0000
vn 0.8732 -0.4874 0.0000
vn -0.4726 -0.8813 0.0000
vn -0.4725 -0.8813 0.0000
vn 0.8777 -0.4791 0.0000
vn 0.8777 -0.4792 -0.0000
vn 0.8778 -0.4791 0.0000
vn 0.8814 -0.4723 0.0000
vn -0.8804 0.4743 0.0000
vn -0.8805 0.4741 -0.0000
vn -0.8803 0.4744 0.0000
vn -0.8806 0.4740 -0.0000
vn -0.8806 0.4739 0.0000
vn -0.8807 0.4737 0.0000
vn -0.8805 0.4740 0.0000
vn 0.4741 0.8804 0.0000
vn 0.4741 0.8805 0.0000
vn 0.4742 0.8804 0.0000
vn 0.8790 -0.4768 0.0000
vn 0.8790 -0.4769 0.0000
vn 0.8841 -0.4673 0.0000
vn 0.8842 -0.4671 0.0000
vn 0.8843 -0.4670 0.0000
vn 0.8842 -0.4670 0.0000
vn 0.8794 -0.4761 0.0000
vn 0.8795 -0.4759 0.0000
vn 0.8795 -0.4760 0.0000
vn 0.8794 -0.4760 0.0000
vn 0.4728 0.8811 0.0000
vn 0.4729 0.8811 0.0000
s off
f 1/1/1 2/2/1 3/3/1
f 4/4/2 5/5/2 2/2/2
f 5/5/2 6/6/2 2/2/2
f 6/6/2 7/7/2 2/2/2
f 3/3/2 2/2/2 7/7/2
f 8/8/2 9/9/2 4/4/2
f 9/9/2 10/10/2 4/4/2
f 10/10/2 11/11/2 4/4/2
f 4/4/2 11/11/2 12/12/2
f 4/4/2 12/12/2 5/5/2
f 13/13/2 14/14/2 8/8/2
f 14/14/2 9/9/2 8/8/2
f 13/13/3 15/15/3 16/16/3
f 13/13/2 16/16/2 14/14/2
f 17/17/2 18/18/2 15/15/2
f 18/18/1 19/19/1 15/15/1
f 19/19/2 16/16/2 15/15/2
f 17/17/1 20/20/1 18/18/1
f 18/18/4 20/20/4 21/21/4
f 22/22/5 23/23/5 24/24/5
f 25/25/6 23/23/6 26/26/6
f 25/25/6 27/27/6 23/23/6
f 26/26/6 28/28/6 29/29/6
f 29/29/6 25/25/6 26/26/6
f 28/28/6 30/30/6 29/29/6
f 31/31/7 32/32/7 33/33/7
f 31/31/5 33/33/5 34/34/5
f 35/35/8 36/36/8 37/37/8
f 35/35/9 37/37/9 38/38/9
f 39/39/10 40/40/10 41/41/10
f 39/39/8 41/41/8 42/42/8
f 43/43/8 44/44/8 45/45/8
f 43/43/8 45/45/8 46/46/8
f 47/47/11 48/48/11 49/49/11
f 50/50/12 51/51/12 47/47/12
f 48/48/13 47/47/13 51/51/13
f 52/52/13 53/53/13 50/50/13
f 53/53/13 54/54/13 50/50/13
f 54/54/12 51/51/12 50/50/12
f 57/55/14 58/56/14 59/57/14
f 55/58/15 57/55/15 59/57/15
f 60/59/15 61/60/15 62/61/15
f 60/59/15 62/61/15 63/62/15
f 64/63/16 65/64/16 66/65/16
f 66/65/17 67/66/17 68/67/17
f 64/63/17 66/65/17 68/67/17
f 69/68/18 70/69/18 71/70/18
f 69/68/18 71/70/18 72/71/18
f 73/72/19 74/73/19 75/74/19
f 73/72/19 75/74/19 76/75/19
f 77/76/19 78/77/19 79/78/19
f 77/76/19 79/78/19 80/79/19
f 81/80/5 82/81/5 83/82/5
f 81/80/5 83/82/5 84/83/5
f 85/84/6 86/85/6 87/86/6
f 85/84/9 87/86/9 88/87/9
f 89/88/20 90/89/20 91/90/20
f 92/91/21 90/89/21 93/92/21
f 92/91/21 94/93/21 90/89/21
f 91/90/22 90/89/22 94/93/22
f 93/92/23 95/94/23 96/95/23
f 96/95/24 92/91/24 93/92/24
f 95/94/25 97/96/25 96/95/25
f 98/97/7 99/98/7 100/99/7
f 98/97/8 100/99/8 101/100/8
f 102/101/8 103/102/8 104/103/8
f 102/101/8 104/103/8 105/104/8
f 106/105/26 107/106/26 108/107/26
f 108/107/27 109/108/27 110/109/27
f 106/105/27 108/107/27 110/109/27
f 111/110/28 112/111/28 113/112/28
f 111/110/29 113/112/29 114/113/29
f 115/114/7 116/115/7 117/116/7
f 115/114/9 117/116/9 118/117/9
f 119/118/8 120/119/8 121/120/8
f 119/118/7 121/120/7 122/121/7
f 123/122/30 124/123/30 125/124/30
f 123/122/30 126/125/30 127/126/30
f 124/123/30 123/122/30 128/127/30
f 129/128/31 130/129/31 126/125/31
f 130/129/32 131/130/32 126/125/32
f 131/130/30 127/126/30 126/125/30
f 132/131/33 133/132/33 134/133/33
f 132/131/34 134/133/34 135/134/34
f 136/135/35 137/136/35 138/137/35
f 136/135/31 138/137/31 139/138/31
f 140/139/36 141/140/36 142/141/36
f 140/139/36 142/141/36 143/142/36
f 144/143/30 145/144/30 146/145/30
f 144/143/30 146/145/30 147/146/30
f 148/147/37 149/148/37 150/149/37
f 148/147/30 150/149/30 151/150/30
f 152/151/38 153/152/38 154/153/38
f 154/153/38 155/154/38 152/151/38
f 156/155/38 157/156/38 153/152/38
f 157/156/39 158/157/39 153/152/39
f 154/153/38 153/152/38 158/157/38
f 156/155/40 159/158/40 160/159/40
f 160/159/38 161/160/38 156/155/38
f 161/160/39 157/156/39 156/155/39
f 162/161/27 163/162/27 164/163/27
f 162/161/27 164/163/27 165/164/27
f 166/165/27 167/166/27 168/167/27
f 166/165/27 168/167/27 169/168/27
f 174/169/30 175/170/30 176/171/30
f 174/169/30 176/171/30 177/172/30
f 178/173/41 179/174/41 180/175/41
f 181/176/42 178/173/42 182/177/42
f 181/176/42 183/178/42 178/173/42
f 179/174/41 178/173/41 183/178/41
f 184/179/41 185/180/41 182/177/41
f 185/180/41 181/176/41 182/177/41
f 186/181/43 187/182/43 188/183/43
f 188/183/44 189/184/44 190/185/44
f 186/181/44 188/183/44 190/185/44
f 191/186/44 192/187/44 193/188/44
f 191/186/44 193/188/44 194/189/44
f 195/190/45 196/191/45 197/192/45
f 195/190/46 197/192/46 198/193/46
f 199/194/45 200/195/45 201/196/45
f 199/194/46 201/196/46 202/197/46
f 203/198/47 204/199/47 205/200/47
f 206/201/48 207/202/48 203/198/48
f 207/202/48 208/203/48 203/198/48
f 204/199/49 203/198/49 208/203/49
f 209/204/47 210/205/47 206/201/47
f 210/205/49 211/206/49 206/201/49
f 211/206/48 207/202/48 206/201/48
f 212/207/50 213/208/50 214/209/50
f 214/209/50 215/210/50 212/207/50
f 216/211/50 217/212/50 213/208/50
f 217/212/50 218/213/50 213/208/50
f 214/209/50 213/208/50 218/213/50
f 216/211/50 219/214/50 220/215/50
f 220/215/50 221/216/50 216/211/50
f 221/216/50 217/212/50 216/211/50
f 220/215/50 219/214/50 222/217/50
f 225/218/51 226/219/51 227/220/51
f 223/221/52 225/218/52 227/220/52
f 228/222/53 229/223/53 230/224/53
f 228/222/54 230/224/54 231/225/54
f 232/226/8 233/227/8 234/228/8
f 234/228/9 235/229/9 236/230/9
f 232/226/8 234/228/8 236/230/8
f 237/231/8 238/232/8 239/233/8
f 237/231/8 239/233/8 240/234/8
f 243/235/28 244/236/28 245/237/28
f 241/238/28 243/235/28 245/237/28
f 246/239/28 247/240/28 248/241/28
f 246/239/28 248/241/28 249/242/28
f 250/243/55 251/244/55 252/245/55
f 250/243/56 252/245/56 253/246/56
f 254/247/56 255/248/56 256/249/56
f 254/247/57 256/249/57 257/250/57
f 258/251/58 259/252/58 260/253/58
f 258/251/59 260/253/59 261/254/59
f 262/255/59 263/256/59 264/257/59
f 262/255/60 264/257/60 265/258/60
f 266/259/61 267/260/61 268/261/61
f 268/261/61 269/262/61 266/259/61
f 270/263/61 271/264/61 267/260/61
f 271/264/61 272/265/61 267/260/61
f 268/261/61 267/260/61 272/265/61
f 270/263/62 273/266/62 274/267/62
f 274/267/62 275/268/62 270/263/62
f 275/268/61 271/264/61 270/263/61
f 276/269/63 277/270/63 278/271/63
f 278/271/64 279/272/64 276/269/64
f 280/273/64 281/274/64 277/270/64
f 278/271/64 277/270/64 281/274/64
f 280/273/65 282/275/65 283/276/65
f 283/276/66 284/277/66 280/273/66
f 284/277/64 281/274/64 280/273/64
f 285/278/67 286/279/67 287/280/67
f 288/281/68 285/278/68 289/282/68
f 288/281/69 290/283/69 285/278/69
f 286/279/70 285/278/70 290/283/70
f 291/284/68 292/285/68 289/282/68
f 292/285/68 288/281/68 289/282/68
s 1
f 24/24/6 23/23/6 27/27/6
f 55/58/71 56/286/71 57/55/71
f 127/126/37 128/127/37 123/122/37
f 170/287/37 171/288/34 172/289/34
f 170/287/37 172/289/34 173/290/37
f 223/221/57 224/291/57 225/218/57
f 241/238/72 242/292/72 243/235/72
