# Blender v3.0.1 OBJ File: 'rockerfeller_plaza.blend'
# www.blender.org
o geometryt000010000010000110010110000110000110100000000110st102
v 632.733093 -105.069588 106.066765
v 628.108398 -113.593582 106.066765
v 628.108398 -113.593582 159.033417
v 632.733093 -105.069588 159.033417
v 628.688416 -114.306686 106.066765
v 651.822205 -126.864883 106.066765
v 651.822205 -126.864883 159.033417
v 628.688416 -114.306686 159.033417
v 638.082397 -107.580185 159.033417
v 638.082397 -107.580185 106.066765
v 633.214111 -104.932686 106.066765
v 633.214111 -104.932686 159.033417
v 639.349915 -101.273186 106.066765
v 640.566711 -101.935585 106.066765
v 640.566711 -101.935585 159.033417
v 639.349915 -101.273186 159.033417
v 651.538513 -77.093163 106.066765
v 638.974609 -100.223885 106.066765
v 638.974609 -100.223885 159.033417
v 651.538513 -77.093163 159.033417
v 640.308899 -107.148788 159.033417
v 640.308899 -107.148788 106.066765
v 639.384888 -106.642982 106.066765
v 639.384888 -106.642982 159.033417
v 641.725891 -105.252586 106.066765
v 641.067200 -106.471382 106.066765
v 641.067200 -106.471382 159.033417
v 641.725891 -105.252586 159.033417
v 640.929810 -103.726883 106.066765
v 641.878723 -104.244385 106.066765
v 641.878723 -104.244385 159.033417
v 640.929810 -103.726883 159.033417
v 653.840210 -77.492851 106.066765
v 652.621338 -76.834427 106.066765
v 652.621338 -76.834427 159.033417
v 653.840210 -77.492851 159.033417
v 656.992004 -60.396507 159.033417
v 656.992004 -60.396507 106.066765
v 652.360718 -68.917015 106.066765
v 652.360718 -68.917015 159.033417
v 653.031311 -69.847855 106.066765
v 656.684814 -71.829353 106.066765
v 656.684814 -71.829353 159.033417
v 653.031311 -69.847855 159.033417
v 652.733826 -126.967087 106.066765
v 654.717285 -123.314781 106.066765
v 654.717285 -123.314781 159.033417
v 652.733826 -126.967087 159.033417
v 654.794434 -123.172684 106.066765
v 656.116699 -120.737785 106.066765
v 656.116699 -120.737785 159.033417
v 654.794434 -123.172684 159.033417
v 656.193909 -120.595688 106.066765
v 657.516235 -118.160782 106.066765
v 657.516235 -118.160782 159.033417
v 656.193909 -120.595688 159.033417
v 657.593384 -118.018684 106.066765
v 658.254517 -116.801285 106.066765
v 658.254517 -116.801285 159.033417
v 657.593384 -118.018684 159.033417
v 658.331726 -116.659187 106.066765
v 658.992798 -115.441689 106.066765
v 658.992798 -115.441689 159.033417
v 658.331726 -116.659187 159.033417
v 659.070007 -115.299683 159.033417
v 659.070007 -115.299683 106.066765
v 659.731079 -114.082184 106.066765
v 659.731079 -114.082184 159.033417
v 659.808289 -113.940186 159.033417
v 659.808289 -113.940186 106.066765
v 660.469482 -112.722687 106.066765
v 660.469482 -112.722687 159.033417
v 660.546631 -112.580582 159.033417
v 660.546631 -112.580582 106.066765
v 663.191284 -107.710785 106.066765
v 663.191284 -107.710785 159.033417
v 663.268433 -107.568687 159.033417
v 663.268433 -107.568687 106.066765
v 663.929626 -106.351288 106.066765
v 663.929626 -106.351288 159.033417
v 664.006714 -106.209183 106.066765
v 664.667908 -104.991684 106.066765
v 664.667908 -104.991684 159.033417
v 664.006714 -106.209183 159.033417
v 664.744995 -104.849686 106.066765
v 666.067383 -102.414787 106.066765
v 666.067383 -102.414787 159.033417
v 664.744995 -104.849686 159.033417
v 666.144531 -102.272682 159.033417
v 666.144531 -102.272682 106.066765
v 666.805725 -101.055183 106.066765
v 666.805725 -101.055183 159.033417
v 666.882812 -100.913185 106.066765
v 667.544006 -99.695694 106.066765
v 667.544006 -99.695694 159.033417
v 666.882812 -100.913185 159.033417
v 667.621094 -99.553635 106.066765
v 668.282288 -98.336174 106.066765
v 668.282288 -98.336174 159.033417
v 667.621094 -99.553635 159.033417
v 668.359375 -98.194107 106.066765
v 669.681824 -95.759193 106.066765
v 669.681824 -95.759193 159.033417
v 668.359375 -98.194107 159.033417
v 669.758911 -95.617126 159.033417
v 669.758911 -95.617126 106.066765
v 670.420105 -94.399666 106.066765
v 670.420105 -94.399666 159.033417
v 670.497192 -94.257607 106.066765
v 671.158386 -93.040146 106.066765
v 671.158386 -93.040146 159.033417
v 670.497192 -94.257607 159.033417
v 671.235474 -92.898071 106.066765
v 673.880188 -88.028244 106.066765
v 673.880188 -88.028244 159.033417
v 671.235474 -92.898071 159.033417
v 673.957275 -87.886177 106.066765
v 674.618530 -86.668716 106.066765
v 674.618530 -86.668716 159.033417
v 673.957275 -87.886177 159.033417
v 674.695618 -86.526657 106.066765
v 675.356812 -85.309196 106.066765
v 675.356812 -85.309196 159.033417
v 674.695618 -86.526657 159.033417
v 675.434021 -85.167122 106.066765
v 676.095093 -83.949661 106.066765
v 676.095093 -83.949661 159.033417
v 675.434021 -85.167122 159.033417
v 676.172302 -83.807602 106.066765
v 676.833374 -82.590141 106.066765
v 676.833374 -82.590141 159.033417
v 676.172302 -83.807602 159.033417
v 676.910583 -82.448074 159.033417
v 676.910583 -82.448074 106.066765
v 678.232910 -80.013153 106.066765
v 678.232910 -80.013153 159.033417
v 678.310120 -79.871094 159.033417
v 678.310120 -79.871094 106.066765
v 679.632385 -77.436172 106.066765
v 679.632385 -77.436172 159.033417
v 679.709473 -77.294113 159.033417
v 679.709473 -77.294113 106.066765
v 681.692993 -73.641731 106.066765
v 681.692993 -73.641731 159.033417
v 655.263794 -76.603188 159.033417
v 655.263794 -76.603188 106.066765
v 654.733032 -77.583015 106.066765
v 654.733032 -77.583015 159.033417
v 656.687988 -76.983124 106.066765
v 655.731384 -76.464317 106.066765
v 655.731384 -76.464317 159.033417
v 656.687988 -76.983124 159.033417
v 657.202515 -73.760437 159.033417
v 657.202515 -73.760437 106.066765
v 658.159119 -74.279243 106.066765
v 658.159119 -74.279243 159.033417
v 658.057800 -75.187195 159.033417
v 658.057800 -75.187195 106.066765
v 657.395691 -76.404137 106.066765
v 657.395691 -76.404137 159.033417
v 681.108643 -72.931595 106.066765
v 657.979126 -60.365490 106.066765
v 657.979126 -60.365490 159.033417
v 681.108643 -72.931595 159.033417
vt 0.000000 0.000000
vt 2.333330 0.000000
vt 2.333330 3.000000
vt 0.000000 3.000000
vt 0.000000 0.000000
vt 6.333330 0.000000
vt 6.333330 3.000000
vt 0.000000 3.000000
vt 0.000000 0.000000
vt 0.333330 0.000000
vt 0.333330 3.000000
vt 0.000000 3.000000
vt 0.000000 0.000000
vt 6.333330 0.000000
vt 6.333330 3.000000
vt 0.000000 3.000000
vt 0.000000 3.000000
vt 0.000000 0.000000
vt 0.333330 0.000000
vt 0.333330 3.000000
vt 0.000000 0.000000
vt 0.333330 0.000000
vt 0.333330 3.000000
vt 0.000000 3.000000
vt 0.000000 0.000000
vt 0.333330 0.000000
vt 0.333330 3.000000
vt 0.000000 3.000000
vt 0.000000 0.000000
vt 0.333330 0.000000
vt 0.333330 3.000000
vt 0.000000 3.000000
vt 0.000000 3.000000
vt 0.000000 0.000000
vt 2.333330 0.000000
vt 2.333330 3.000000
vt 0.000000 0.000000
vt 1.000000 0.000000
vt 1.000000 3.000000
vt 0.000000 3.000000
vt 0.000000 0.000000
vt 1.000000 0.000000
vt 1.000000 3.000000
vt 0.000000 3.000000
vt 0.000000 0.000000
vt 0.666670 0.000000
vt 0.666670 3.000000
vt 0.000000 3.000000
vt 0.000000 0.000000
vt 0.666670 0.000000
vt 0.666670 3.000000
vt 0.000000 3.000000
vt 0.000000 0.000000
vt 0.333330 0.000000
vt 0.333330 3.000000
vt 0.000000 3.000000
vt 0.000000 0.000000
vt 0.333330 0.000000
vt 0.333330 3.000000
vt 0.000000 3.000000
vt 0.000000 3.000000
vt 0.000000 0.000000
vt 0.333330 0.000000
vt 0.333330 3.000000
vt 0.000000 3.000000
vt 0.000000 0.000000
vt 0.333330 0.000000
vt 0.333330 3.000000
vt 0.000000 3.000000
vt 0.000000 0.000000
vt 1.333330 0.000000
vt 1.333330 3.000000
vt 0.000000 3.000000
vt 0.000000 0.000000
vt 0.333330 0.000000
vt 0.333330 3.000000
vt 0.000000 0.000000
vt 0.333330 0.000000
vt 0.333330 3.000000
vt 0.000000 3.000000
vt 0.000000 0.000000
vt 0.666670 0.000000
vt 0.666670 3.000000
vt 0.000000 3.000000
vt 0.000000 3.000000
vt 0.000000 0.000000
vt 0.333330 0.000000
vt 0.333330 3.000000
vt 0.000000 0.000000
vt 0.333330 0.000000
vt 0.333330 3.000000
vt 0.000000 3.000000
vt 0.000000 0.000000
vt 0.333330 0.000000
vt 0.333330 3.000000
vt 0.000000 3.000000
vt 0.000000 0.000000
vt 0.666670 0.000000
vt 0.666670 3.000000
vt 0.000000 3.000000
vt 0.000000 3.000000
vt 0.000000 0.000000
vt 0.333330 0.000000
vt 0.333330 3.000000
vt 0.000000 0.000000
vt 0.333330 0.000000
vt 0.333330 3.000000
vt 0.000000 3.000000
vt 0.000000 0.000000
vt 1.333330 0.000000
vt 1.333330 3.000000
vt 0.000000 3.000000
vt 0.000000 0.000000
vt 0.333330 0.000000
vt 0.333330 3.000000
vt 0.000000 3.000000
vt 0.000000 0.000000
vt 0.333330 0.000000
vt 0.333330 3.000000
vt 0.000000 3.000000
vt 0.000000 0.000000
vt 0.333330 0.000000
vt 0.333330 3.000000
vt 0.000000 3.000000
vt 0.000000 0.000000
vt 0.333330 0.000000
vt 0.333330 3.000000
vt 0.000000 3.000000
vt 0.000000 3.000000
vt 0.000000 0.000000
vt 0.666670 0.000000
vt 0.666670 3.000000
vt 0.000000 3.000000
vt 0.000000 0.000000
vt 0.666670 0.000000
vt 0.666670 3.000000
vt 0.000000 3.000000
vt 0.000000 0.000000
vt 1.000000 0.000000
vt 1.000000 3.000000
vt 0.000000 3.000000
vt 0.000000 0.000000
vt 0.333330 0.000000
vt 0.333330 3.000000
vt 0.000000 0.000000
vt 0.333330 0.000000
vt 0.333330 3.000000
vt 0.000000 3.000000
vt 0.000000 3.000000
vt 0.000000 0.000000
vt 0.333330 0.000000
vt 0.333330 3.000000
vt 0.000000 3.000000
vt 0.000000 0.000000
vt 0.333330 0.000000
vt 0.333330 3.000000
vt 0.000000 0.000000
vt 6.333330 0.000000
vt 6.333330 3.000000
vt 0.000000 3.000000
vt 0.000000 3.000000
vt 0.000000 0.000000
vt 1.333330 0.000000
vt 1.333330 3.000000
vn -0.8790 0.4769 0.0000
vn -0.4771 -0.8789 0.0000
vn -0.4781 -0.8783 0.0000
vn -0.8787 0.4773 0.0000
vn 0.4802 0.8772 0.0000
vn 0.4801 0.8772 0.0000
vn -0.8797 0.4755 0.0000
vn -0.8798 0.4754 0.0000
vn -0.4788 -0.8779 0.0000
vn 0.4753 0.8798 0.0000
vn -0.8786 0.4776 0.0000
vn -0.4767 -0.8790 0.0000
vn -0.4768 -0.8790 0.0000
vn 0.8788 -0.4772 0.0000
vn 0.8788 -0.4773 0.0000
vn 0.8787 -0.4773 0.0000
vn 0.8788 -0.4771 0.0000
vn 0.8787 -0.4774 0.0000
vn -0.8793 0.4763 0.0000
vn -0.8793 0.4764 0.0000
vn 0.4767 0.8791 0.0000
vn 0.4768 0.8790 0.0000
vn -0.4767 -0.8791 0.0000
vn -0.8784 0.4779 0.0000
vn 0.4774 0.8787 0.0000
vn 0.4777 0.8785 0.0000
s off
f 1/1/1 2/2/1 3/3/1
f 4/4/1 1/1/1 3/3/1
f 5/5/2 6/6/2 7/7/2
f 8/8/2 5/5/2 7/7/2
f 13/9/3 14/10/3 15/11/3
f 16/12/3 13/9/3 15/11/3
f 17/13/4 18/14/4 19/15/4
f 20/16/4 17/13/4 19/15/4
f 21/17/5 22/18/5 23/19/5
f 21/17/6 23/19/6 24/20/6
f 25/21/7 26/22/7 27/23/7
f 28/24/8 25/21/8 27/23/8
f 29/25/9 30/26/9 31/27/9
f 32/28/9 29/25/9 31/27/9
f 33/29/10 34/30/10 35/31/10
f 36/32/10 33/29/10 35/31/10
f 37/33/11 38/34/11 39/35/11
f 37/33/11 39/35/11 40/36/11
f 41/37/12 42/38/12 43/39/12
f 44/40/13 41/37/13 43/39/13
f 45/41/14 46/42/14 47/43/14
f 48/44/15 45/41/15 47/43/15
f 49/45/14 50/46/14 51/47/14
f 52/48/14 49/45/14 51/47/14
f 53/49/14 54/50/14 55/51/14
f 56/52/14 53/49/14 55/51/14
f 57/53/16 58/54/16 59/55/16
f 60/56/14 57/53/14 59/55/14
f 61/57/14 62/58/14 63/59/14
f 64/60/17 61/57/17 63/59/17
f 65/61/14 66/62/14 67/63/14
f 65/61/14 67/63/14 68/64/14
f 69/65/15 70/66/15 71/67/15
f 69/65/14 71/67/14 72/68/14
f 73/69/14 74/70/14 75/71/14
f 73/69/14 75/71/14 76/72/14
f 77/73/14 78/74/14 79/75/14
f 77/73/16 79/75/16 80/76/16
f 81/77/15 82/78/15 83/79/15
f 84/80/15 81/77/15 83/79/15
f 85/81/14 86/82/14 87/83/14
f 88/84/15 85/81/15 87/83/15
f 89/85/14 90/86/14 91/87/14
f 89/85/15 91/87/15 92/88/15
f 93/89/15 94/90/15 95/91/15
f 96/92/14 93/89/14 95/91/14
f 97/93/15 98/94/15 99/95/15
f 100/96/15 97/93/15 99/95/15
f 101/97/15 102/98/15 103/99/15
f 104/100/15 101/97/15 103/99/15
f 105/101/14 106/102/14 107/103/14
f 105/101/18 107/103/18 108/104/18
f 109/105/15 110/106/15 111/107/15
f 112/108/14 109/105/14 111/107/14
f 113/109/14 114/110/14 115/111/14
f 116/112/15 113/109/15 115/111/15
f 117/113/15 118/114/15 119/115/15
f 120/116/15 117/113/15 119/115/15
f 121/117/15 122/118/15 123/119/15
f 124/120/15 121/117/15 123/119/15
f 125/121/14 126/122/14 127/123/14
f 128/124/17 125/121/17 127/123/17
f 129/125/14 130/126/14 131/127/14
f 132/128/14 129/125/14 131/127/14
f 133/129/14 134/130/14 135/131/14
f 133/129/14 135/131/14 136/132/14
f 137/133/14 138/134/14 139/135/14
f 137/133/14 139/135/14 140/136/14
f 141/137/14 142/138/14 143/139/14
f 141/137/14 143/139/14 144/140/14
f 145/141/19 146/142/19 147/143/19
f 145/141/20 147/143/20 148/144/20
f 149/145/21 150/146/21 151/147/21
f 152/148/22 149/145/22 151/147/22
f 153/149/13 154/150/13 155/151/13
f 153/149/23 155/151/23 156/152/23
f 157/153/24 158/154/24 159/155/24
f 157/153/24 159/155/24 160/156/24
f 161/157/25 162/158/25 163/159/25
f 164/160/25 161/157/25 163/159/25
s 1
f 9/161/26 10/162/26 11/163/26
f 9/161/26 11/163/26 12/164/26
