# Blender v3.0.1 OBJ File: 'rockerfeller_plaza.blend'
# www.blender.org
o geometryt000010000010000110010110000110000110100000010110st87
v 1059.701416 -67.755028 189.502213
v 1062.333862 -69.180161 189.502213
v 1062.333862 -69.180161 227.973877
v 1059.701416 -67.755028 227.973877
v 1062.824585 -69.445839 189.502213
v 1064.140747 -70.158394 189.502213
v 1064.140747 -70.158394 227.973877
v 1062.824585 -69.445839 227.973877
v 1064.631592 -70.424080 189.502213
v 1065.947754 -71.136650 189.502213
v 1065.947754 -71.136650 227.973877
v 1064.631592 -70.424080 227.973877
v 1066.438477 -71.402328 189.502213
v 1067.754639 -72.114883 189.502213
v 1067.754639 -72.114883 227.973877
v 1066.438477 -71.402328 227.973877
v 1068.245361 -72.380569 189.502213
v 1070.877808 -73.805695 189.502213
v 1070.877808 -73.805695 227.973877
v 1068.245361 -72.380569 227.973877
v 1060.322144 -65.894478 227.973877
v 1060.322144 -65.894478 189.502213
v 1059.606201 -67.208809 189.502213
v 1059.606201 -67.208809 227.973877
v 1062.113525 -62.573387 227.973877
v 1062.113525 -62.573387 189.502213
v 1060.687988 -65.205574 189.502213
v 1060.687988 -65.205574 227.973877
v 1064.548340 -58.077335 189.502213
v 1062.410156 -62.025616 189.502213
v 1062.410156 -62.025616 227.973877
v 1064.548340 -58.077335 227.973877
v 1066.983276 -53.581287 189.502213
v 1064.844971 -57.529568 189.502213
v 1064.844971 -57.529568 227.973877
v 1066.983276 -53.581287 227.973877
v 1069.313721 -49.278126 227.973877
v 1069.418213 -49.085236 189.502213
v 1067.279907 -53.033516 189.502213
v 1069.418213 -49.085236 227.973877
v 1067.279907 -53.033516 227.973877
v 1071.140259 -45.905277 189.502213
v 1069.714844 -48.537468 189.502213
v 1069.714844 -48.537468 227.973877
v 1071.140259 -45.905277 227.973877
v 1072.511475 -71.511879 227.973877
v 1071.345215 -73.666405 189.502213
v 1072.770264 -71.033974 189.502213
v 1071.345215 -73.666405 227.973877
v 1072.770264 -71.033974 227.973877
v 1072.968872 -70.667000 227.973877
v 1072.968872 -70.667000 189.502213
v 1075.106445 -66.718346 189.502213
v 1075.106445 -66.718346 227.973877
v 1075.305176 -66.351364 189.502213
v 1076.730225 -63.718937 189.502213
v 1076.730225 -63.718937 227.973877
v 1075.305176 -66.351364 227.973877
v 1076.928833 -63.351948 227.973877
v 1076.928833 -63.351948 189.502213
v 1079.066406 -59.403297 189.502213
v 1079.066406 -59.403297 227.973877
v 1079.265137 -59.036316 189.502213
v 1080.690186 -56.403889 189.502213
v 1080.690186 -56.403889 227.973877
v 1079.265137 -59.036316 227.973877
v 1080.888794 -56.036907 227.973877
v 1080.888794 -56.036907 189.502213
v 1083.026367 -52.088257 189.502213
v 1083.026367 -52.088257 227.973877
v 1083.224976 -51.721275 189.502213
v 1084.650024 -49.088837 189.502213
v 1084.650024 -49.088837 227.973877
v 1083.224976 -51.721275 227.973877
v 1072.802124 -46.405998 227.973877
v 1072.802124 -46.405998 189.502213
v 1071.609009 -45.765388 189.502213
v 1071.609009 -45.765388 227.973877
v 1075.751099 -41.672176 189.502213
v 1073.617188 -45.622807 189.502213
v 1073.617188 -45.622807 227.973877
v 1075.751099 -41.672176 227.973877
v 1079.750000 -42.579819 189.502213
v 1077.106812 -41.174717 189.502213
v 1077.106812 -41.174717 227.973877
v 1079.750000 -42.579819 227.973877
v 1085.354614 -45.609337 189.502213
v 1081.407227 -43.469406 189.502213
v 1081.407227 -43.469406 227.973877
v 1085.354614 -45.609337 227.973877
v 1085.159668 -48.088776 189.502213
v 1085.822876 -46.747059 189.502213
v 1085.822876 -46.747059 227.973877
v 1085.159668 -48.088776 227.973877
vt 0.000000 0.000000
vt 0.666670 0.000000
vt 0.666670 12.000000
vt 0.000000 12.000000
vt 0.000000 0.000000
vt 0.333330 0.000000
vt 0.333330 12.000000
vt 0.000000 12.000000
vt 0.000000 0.000000
vt 0.333330 0.000000
vt 0.333330 12.000000
vt 0.000000 12.000000
vt 0.000000 0.000000
vt 0.333330 0.000000
vt 0.333330 12.000000
vt 0.000000 12.000000
vt 0.000000 0.000000
vt 0.666670 0.000000
vt 0.666670 12.000000
vt 0.000000 12.000000
vt 0.000000 12.000000
vt 0.000000 0.000000
vt 0.333330 0.000000
vt 0.333330 12.000000
vt 0.000000 12.000000
vt 0.000000 0.000000
vt 0.666670 0.000000
vt 0.666670 12.000000
vt 0.000000 0.000000
vt 1.000000 0.000000
vt 1.000000 12.000000
vt 0.000000 12.000000
vt 0.000000 0.000000
vt 1.000000 0.000000
vt 1.000000 12.000000
vt 0.000000 12.000000
vt 0.048860 12.000000
vt 0.000000 0.000000
vt 1.000000 0.000000
vt 0.000000 12.000000
vt 1.000000 12.000000
vt 0.000000 0.000000
vt 0.666670 0.000000
vt 0.666670 12.000000
vt 0.000000 12.000000
vt 0.000000 12.000000
vt 0.000000 0.000000
vt 0.545640 12.000000
vt 0.666670 0.000000
vt 0.666670 12.000000
vt 0.000000 12.000000
vt 0.000000 0.000000
vt 1.000000 0.000000
vt 1.000000 12.000000
vt 0.000000 12.000000
vt 0.000000 0.000000
vt 1.000000 0.000000
vt 1.000000 12.000000
vt 0.000000 12.000000
vt 0.000000 0.000000
vt 1.000000 0.000000
vt 1.000000 12.000000
vt 0.000000 0.000000
vt 0.666670 0.000000
vt 0.666670 12.000000
vt 0.000000 12.000000
vt 0.000000 12.000000
vt 0.000000 0.000000
vt 0.333330 0.000000
vt 0.333330 12.000000
vt 0.000000 0.000000
vt 1.000000 0.000000
vt 1.000000 12.000000
vt 0.000000 12.000000
vt 0.000000 0.000000
vt 0.666670 0.000000
vt 0.666670 12.000000
vt 0.000000 12.000000
vt 0.000000 0.000000
vt 1.000000 0.000000
vt 1.000000 12.000000
vt 0.000000 12.000000
vt 0.000000 0.000000
vt 0.333330 0.000000
vt 0.333330 12.000000
vt 0.000000 12.000000
vt 0.000000 0.000000
vt 0.666670 0.000000
vt 0.666670 12.000000
vt 0.000000 12.000000
vt 0.000000 0.000000
vt 0.666670 0.000000
vt 0.666670 12.000000
vt 0.000000 12.000000
vn -0.4761 -0.8794 0.0000
vn -0.8781 0.4785 0.0000
vn -0.8782 0.4783 0.0000
vn -0.8793 0.4762 0.0000
vn -0.8795 0.4759 0.0000
vn 0.8794 -0.4760 0.0000
vn 0.8794 -0.4761 0.0000
vn 0.4730 0.8811 0.0000
vn 0.4731 0.8810 0.0000
vn -0.8799 0.4752 0.0000
vn 0.4694 0.8830 0.0000
vn 0.4766 0.8791 0.0000
vn 0.8964 -0.4432 0.0000
vn 0.8965 -0.4430 0.0000
s off
f 1/1/1 2/2/1 3/3/1
f 4/4/1 1/1/1 3/3/1
f 5/5/1 6/6/1 7/7/1
f 8/8/1 5/5/1 7/7/1
f 9/9/1 10/10/1 11/11/1
f 12/12/1 9/9/1 11/11/1
f 13/13/1 14/14/1 15/15/1
f 16/16/1 13/13/1 15/15/1
f 17/17/1 18/18/1 19/19/1
f 20/20/1 17/17/1 19/19/1
f 21/21/2 22/22/2 23/23/2
f 21/21/3 23/23/3 24/24/3
f 25/25/4 26/26/4 27/27/4
f 25/25/4 27/27/4 28/28/4
f 29/29/4 30/30/4 31/31/4
f 32/32/4 29/29/4 31/31/4
f 33/33/4 34/34/4 35/35/4
f 36/36/4 33/33/4 35/35/4
f 37/37/4 38/38/4 39/39/4
f 40/40/5 38/38/5 37/37/5
f 37/37/4 39/39/4 41/41/4
f 42/42/4 43/43/4 44/44/4
f 45/45/4 42/42/4 44/44/4
f 49/46/6 47/47/6 46/48/6
f 46/48/7 48/49/7 50/50/7
f 51/51/7 52/52/7 53/53/7
f 51/51/7 53/53/7 54/54/7
f 59/55/6 60/56/6 61/57/6
f 59/55/7 61/57/7 62/58/7
f 67/59/7 68/60/7 69/61/7
f 67/59/7 69/61/7 70/62/7
f 71/63/7 72/64/7 73/65/7
f 74/66/6 71/63/6 73/65/6
f 75/67/8 76/68/8 77/69/8
f 75/67/9 77/69/9 78/70/9
f 79/71/10 80/72/10 81/73/10
f 82/74/10 79/71/10 81/73/10
f 83/75/11 84/76/11 85/77/11
f 86/78/11 83/75/11 85/77/11
f 87/79/12 88/80/12 89/81/12
f 90/82/12 87/79/12 89/81/12
f 91/83/13 92/84/13 93/85/13
f 94/86/14 91/83/14 93/85/14
s 1
f 46/48/7 47/47/7 48/49/7
f 55/87/7 56/88/7 57/89/6
f 58/90/6 55/87/7 57/89/6
f 63/91/6 64/92/6 65/93/7
f 66/94/7 63/91/6 65/93/7
