# Blender v3.0.1 OBJ File: 'rockerfeller_plaza.blend'
# www.blender.org
o geometryt000010000010000110010110000110000110100000100100st136_
v 466.633301 -61.296978 626.885071
v 453.049988 -53.929550 612.522278
v 469.195312 -62.686619 612.522278
v 453.049988 -53.929550 626.885071
v 469.195312 -62.686619 626.885071
v 455.437103 -47.975788 626.885071
v 455.437103 -47.975788 612.522278
v 452.617615 -52.975391 612.522278
v 452.617615 -52.975391 626.885071
v 472.568604 -56.494701 612.522278
v 456.401794 -47.777302 612.522278
v 456.401794 -47.777302 626.885071
v 472.568604 -56.494701 626.885071
v 470.291901 -62.444210 626.885071
v 470.291901 -62.444210 612.522278
v 470.843292 -61.437351 612.522278
v 470.843292 -61.437351 626.885071
v 471.420410 -60.355911 612.522278
v 472.993896 -57.292500 612.522278
v 472.993896 -57.292500 626.885071
v 471.420410 -60.355911 626.885071
vt 0.000000 4.000000
vt 0.000000 0.000000
vt 4.487000 4.000000
vt 5.333330 0.000000
vt 5.333330 4.000000
vt 0.000000 4.000000
vt 0.000000 0.000000
vt 1.666670 0.000000
vt 1.666670 4.000000
vt 0.000000 0.000000
vt 5.333330 0.000000
vt 5.333330 4.000000
vt 0.000000 4.000000
vt 0.000000 4.000000
vt 0.000000 0.000000
vt 0.333330 0.000000
vt 0.333330 4.000000
vt 0.000000 0.000000
vt 1.000000 0.000000
vt 1.000000 4.000000
vt 0.000000 4.000000
vn -0.4768 -0.8790 0.0000
vn -0.8710 0.4912 0.0000
vn 0.4746 0.8802 0.0000
vn 0.8771 -0.4803 0.0000
vn 0.8895 -0.4569 0.0000
s off
f 4/1/1 2/2/1 1/3/1
f 1/3/1 3/4/1 5/5/1
f 6/6/2 7/7/2 8/8/2
f 6/6/2 8/8/2 9/9/2
f 10/10/3 11/11/3 12/12/3
f 13/13/3 10/10/3 12/12/3
f 14/14/4 15/15/4 16/16/4
f 14/14/4 16/16/4 17/17/4
f 18/18/5 19/19/5 20/20/5
f 21/21/5 18/18/5 20/20/5
s 1
f 1/3/1 2/2/1 3/4/1
