# Blender v3.0.1 OBJ File: 'rockerfeller_plaza.blend'
# www.blender.org
o geometryt000010000010000110010110000110000100110010110010st126
v 99.215714 -134.055573 293.307465
v 102.643517 -137.013565 293.307465
v 98.148895 -134.511963 293.307465
v 95.272957 -139.852173 293.307465
v 101.884468 -131.238068 293.307465
v 100.992554 -130.759872 293.307465
v 103.717804 -135.013763 293.307465
v 103.801704 -127.674263 293.307465
v 105.138710 -134.519974 293.307465
v 104.918007 -123.464661 293.307465
v 102.909805 -127.196060 293.307465
v 112.898605 -120.097160 293.307465
v 104.611404 -122.502365 293.307465
v 107.470505 -117.173462 293.307465
v 103.171875 -138.173172 293.307465
v 100.701050 -142.775864 293.307465
v 102.643517 -137.013565 311.407471
v 95.272957 -139.852173 311.407471
v 100.701050 -142.775864 311.407471
v 98.148895 -134.511963 311.407471
v 103.171875 -138.173172 311.407471
v 103.717804 -135.013763 311.407471
v 99.215714 -134.055573 311.407471
v 105.138710 -134.519974 311.407471
v 101.884468 -131.238068 311.407471
v 103.801704 -127.674263 311.407471
v 112.898605 -120.097160 311.407471
v 107.470505 -117.173462 311.407471
v 104.611404 -122.502365 311.407471
v 104.918007 -123.464661 311.407471
v 102.909805 -127.196060 311.407471
v 100.992554 -130.759872 311.407471
vt 0.213400 0.190450
vt 0.217700 0.197290
vt 0.214570 0.188290
vt 0.225200 0.182370
vt 0.207430 0.195900
vt 0.206840 0.194110
vt 0.213720 0.199510
vt 0.200330 0.199850
vt 0.212360 0.202380
vt 0.192320 0.202190
vt 0.199750 0.198060
vt 0.183650 0.218360
vt 0.190660 0.201600
vt 0.180060 0.207490
vt 0.219640 0.198330
vt 0.228800 0.193240
vt 0.217700 0.197290
vt 0.225200 0.182370
vt 0.228800 0.193240
vt 0.214570 0.188290
vt 0.219640 0.198330
vt 0.213720 0.199510
vt 0.213400 0.190450
vt 0.212360 0.202380
vt 0.207430 0.195900
vt 0.200330 0.199850
vt 0.183650 0.218360
vt 0.180060 0.207490
vt 0.190660 0.201600
vt 0.192320 0.202190
vt 0.199750 0.198060
vt 0.206840 0.194110
vn 0.0000 0.0000 -1.0000
vn 0.0000 0.0000 1.0000
s off
f 1/1/1 2/2/1 3/3/1
f 2/2/1 4/4/1 3/3/1
f 5/5/1 1/1/1 6/6/1
f 7/7/1 1/1/1 5/5/1
f 1/1/1 7/7/1 2/2/1
f 8/8/1 9/9/1 5/5/1
f 5/5/1 9/9/1 7/7/1
f 10/10/1 8/8/1 11/11/1
f 10/10/1 12/12/1 8/8/1
f 12/12/1 9/9/1 8/8/1
f 10/10/1 13/13/1 12/12/1
f 13/13/1 14/14/1 12/12/1
f 2/2/1 15/15/1 16/16/1
f 2/2/1 16/16/1 4/4/1
f 17/17/2 18/18/2 19/19/2
f 18/18/2 17/17/2 20/20/2
f 17/17/2 19/19/2 21/21/2
f 17/17/2 22/22/2 23/23/2
f 17/17/2 23/23/2 20/20/2
f 22/22/2 24/24/2 25/25/2
f 22/22/2 25/25/2 23/23/2
f 26/26/2 24/24/2 27/27/2
f 25/25/2 24/24/2 26/26/2
f 27/27/2 28/28/2 29/29/2
f 30/30/2 27/27/2 29/29/2
f 26/26/2 27/27/2 30/30/2
f 31/31/2 26/26/2 30/30/2
f 23/23/2 25/25/2 32/32/2
