# Blender v3.0.1 OBJ File: 'rockerfeller_plaza.blend'
# www.blender.org
o geometryt000010000010000110010110000110000110100100000010st10
v 580.999390 -255.282684 931.345093
v 581.993042 -255.814484 952.259216
v 580.999390 -255.282684 952.259216
v 576.793579 -253.032074 931.345093
v 581.993042 -255.814484 928.659241
v 576.793579 -253.032074 952.259216
v 575.799866 -252.500275 952.259216
v 575.799866 -252.500275 928.659241
v 576.106262 -251.932983 931.345093
v 575.799866 -252.500275 952.259216
v 576.106262 -251.932983 952.259216
v 577.923828 -248.567581 928.659241
v 577.617432 -249.134872 931.345093
v 575.799866 -252.500275 928.659241
v 577.617432 -249.134872 952.259216
v 577.923828 -248.567581 952.259216
v 578.617859 -247.260574 928.659241
v 577.923828 -248.567581 928.659241
v 577.923828 -248.567581 952.259216
v 578.617859 -247.260574 952.259216
v 578.790344 -246.961578 931.345093
v 578.627808 -247.265884 952.259216
v 578.790344 -246.961578 952.259216
v 581.037476 -242.753876 931.345093
v 580.560974 -243.646179 928.659241
v 578.627808 -247.265884 928.659241
v 581.037476 -242.753876 952.259216
v 581.794067 -241.337280 952.259216
v 581.794067 -241.337280 931.345093
v 584.041260 -237.129578 931.345093
v 584.041260 -237.129578 952.259216
v 584.797852 -235.712982 952.259216
v 584.797852 -235.712982 931.345093
v 585.527344 -234.346985 928.659241
v 587.045044 -231.505280 931.345093
v 587.045044 -231.505280 952.259216
v 587.723511 -230.234879 952.259216
v 587.801575 -230.088684 931.345093
v 587.723511 -230.234879 928.659241
v 587.801575 -230.088684 952.259216
v 590.048767 -225.880981 931.345093
v 590.048767 -225.880981 952.259216
v 590.211304 -225.576675 952.259216
v 590.211304 -225.576675 928.659241
v 583.096924 -253.762482 931.345093
v 583.447510 -253.110779 952.259216
v 583.096924 -253.762482 952.259216
v 581.993042 -255.814484 928.659241
v 582.343628 -255.162781 931.345093
v 583.447510 -253.110779 928.659241
v 582.343628 -255.162781 952.259216
v 581.993042 -255.814484 952.259216
v 584.387573 -251.323578 931.345093
v 584.587402 -250.943680 952.259216
v 584.387573 -251.323578 952.259216
v 583.447510 -253.110779 928.659241
v 583.647339 -252.730881 931.345093
v 584.587402 -250.943680 928.659241
v 583.647339 -252.730881 952.259216
v 583.447510 -253.110779 952.259216
v 585.587402 -249.081375 931.345093
v 585.835205 -248.619873 952.259216
v 585.587402 -249.081375 952.259216
v 584.587402 -250.943680 928.659241
v 584.835205 -250.482285 931.345093
v 585.835205 -248.619873 928.659241
v 584.835205 -250.482285 952.259216
v 584.587402 -250.943680 952.259216
v 590.348938 -240.286774 931.345093
v 590.513245 -239.983475 952.259216
v 590.348938 -240.286774 952.259216
v 588.834290 -243.083084 931.345093
v 590.513245 -239.983475 928.659241
v 588.834290 -243.083084 952.259216
v 587.514099 -245.520279 952.259216
v 587.514099 -245.520279 931.345093
v 585.835205 -248.619873 928.659241
v 585.999512 -248.316574 931.345093
v 585.999512 -248.316574 952.259216
v 585.835205 -248.619873 952.259216
v 590.514648 -225.739273 931.345093
v 590.210571 -225.576279 952.259216
v 590.514648 -225.739273 952.259216
v 591.916016 -226.490479 931.345093
v 590.210571 -225.576279 928.659241
v 591.916016 -226.490479 952.259216
v 592.623047 -226.869385 952.259216
v 592.623047 -226.869385 931.345093
v 592.851074 -226.991684 928.659241
v 594.024475 -227.620575 931.345093
v 594.024475 -227.620575 952.259216
v 594.731445 -227.999573 952.259216
v 594.731445 -227.999573 931.345093
v 596.132874 -228.750778 931.345093
v 596.436951 -228.913773 928.659241
v 596.132874 -228.750778 952.259216
v 596.436951 -228.913773 952.259216
v 592.335205 -236.588181 931.345093
v 592.653442 -235.995071 952.259216
v 592.335205 -236.588181 952.259216
v 590.831543 -239.390381 931.345093
v 592.653442 -235.995071 928.659241
v 590.831543 -239.390381 952.259216
v 590.513245 -239.983475 952.259216
v 590.513245 -239.983475 928.659241
v 596.275208 -229.216476 931.345093
v 596.437805 -228.912170 952.259216
v 596.275208 -229.216476 952.259216
v 595.525879 -230.618973 931.345093
v 596.437805 -228.912170 928.659241
v 595.525879 -230.618973 952.259216
v 594.920288 -231.752380 952.259216
v 594.920288 -231.752380 931.345093
v 594.170959 -233.154877 931.345093
v 594.170959 -233.154877 952.259216
v 593.565369 -234.288376 952.259216
v 593.565369 -234.288376 931.345093
v 592.653442 -235.995071 928.659241
v 592.816040 -235.690781 931.345093
v 592.816040 -235.690781 952.259216
v 592.653442 -235.995071 952.259216
vt 6.389140 2.909900
vt 7.610190 25.568800
vt 6.389140 25.568800
vt 1.221050 2.909900
vt 7.610190 0.000000
vt 1.221050 25.568800
vt 0.000000 25.568800
vt 0.000000 0.000000
vt 4.143940 2.909900
vt 4.842490 25.568800
vt 4.143940 25.568800
vt 0.000000 0.000000
vt 0.698550 2.909900
vt 4.842490 0.000000
vt 0.698550 25.568800
vt 0.000000 25.568800
vt 0.000000 0.000000
vt 1.603300 0.000000
vt 1.603300 25.568800
vt 0.000000 25.568800
vt 26.266100 2.909900
vt 26.639879 25.568800
vt 26.266100 25.568800
vt 21.098021 2.909900
vt 22.193899 0.000000
vt 26.639879 0.000000
vt 21.098021 25.568800
vt 19.358021 25.568800
vt 19.358021 2.909900
vt 14.189940 2.909900
vt 14.189940 25.568800
vt 12.449940 25.568800
vt 12.449940 2.909900
vt 10.772150 0.000000
vt 7.281860 25.568800
vt 5.721410 25.568800
vt 7.281860 2.909900
vt 5.541860 2.909900
vt 5.721410 0.000000
vt 5.541860 25.568800
vt 0.373780 25.568800
vt 0.000000 25.568800
vt 0.373780 2.909900
vt 0.000000 0.000000
vt 0.000000 0.000000
vt 2.524430 2.909900
vt 0.801740 2.909900
vt 3.326160 0.000000
vt 3.326160 25.568800
vt 0.801740 25.568800
vt 0.000000 25.568800
vt 2.187780 2.909900
vt 2.652860 25.568800
vt 2.187780 25.568800
vt 0.000000 0.000000
vt 0.465080 2.909900
vt 2.652860 0.000000
vt 0.465080 25.568800
vt 0.000000 25.568800
vt 2.290170 2.909900
vt 2.857650 25.568800
vt 2.290170 25.568800
vt 0.000000 0.000000
vt 0.567480 2.909900
vt 2.857650 0.000000
vt 0.567480 25.568800
vt 0.000000 25.568800
vt 10.267650 2.909900
vt 10.641430 25.568800
vt 10.267650 25.568800
vt 6.822260 2.909900
vt 10.641430 0.000000
vt 6.822260 25.568800
vt 3.819170 25.568800
vt 3.819170 2.909900
vt 0.000000 0.000000
vt 0.373780 2.909900
vt 0.373780 25.568800
vt 0.000000 25.568800
vt 7.280040 2.909900
vt 7.653820 25.568800
vt 7.280040 25.568800
vt 7.653820 0.000000
vt 4.688260 2.909900
vt 4.407910 0.000000
vt 5.557340 2.909900
vt 2.965560 2.909900
vt 2.096480 2.909900
vt 0.373780 25.568800
vt 0.000000 25.568800
vt 0.373780 2.909900
vt 0.000000 0.000000
vt 4.174680 2.909900
vt 4.903960 25.568800
vt 4.174680 25.568800
vt 0.729290 2.909900
vt 4.903960 0.000000
vt 0.729290 25.568800
vt 0.000000 25.568800
vt 0.000000 0.000000
vt 8.326570 2.909900
vt 8.700350 25.568800
vt 8.326570 25.568800
vt 6.603870 2.909900
vt 8.700350 0.000000
vt 6.603870 25.568800
vt 5.211520 25.568800
vt 5.211520 2.909900
vt 3.488830 2.909900
vt 3.488830 25.568800
vt 2.096480 25.568800
vt 2.096480 2.909900
vt 0.000000 0.000000
vt 0.373780 2.909900
vt 0.373780 25.568800
vt 0.000000 25.568800
vt 2.524430 25.568800
vt 5.557340 25.568800
vt 4.688260 25.568800
vt 2.965560 25.568800
vt 2.096480 25.568800
vn -0.4719 -0.8817 0.0000
vn -0.4718 -0.8817 0.0000
vn -0.8799 0.4752 0.0000
vn -0.8798 0.4753 0.0000
vn -0.8832 0.4690 0.0000
vn -0.8832 0.4689 0.0000
vn -0.8821 0.4710 0.0000
vn -0.8821 0.4711 -0.0000
vn -0.8823 0.4706 0.0000
vn -0.8819 0.4713 0.0000
vn 0.8806 -0.4738 0.0000
vn 0.8807 -0.4738 0.0000
vn 0.8807 -0.4737 0.0000
vn 0.8850 -0.4656 0.0000
vn 0.8850 -0.4655 0.0000
vn 0.8851 -0.4654 0.0000
vn 0.8810 -0.4731 0.0000
vn 0.8811 -0.4730 0.0000
vn 0.8809 -0.4732 0.0000
vn 0.8793 -0.4762 0.0000
vn 0.8793 -0.4763 0.0000
vn 0.8792 -0.4765 0.0000
vn 0.8792 -0.4764 0.0000
vn 0.4724 0.8814 0.0000
vn 0.4725 0.8814 -0.0001
vn 0.8812 -0.4727 0.0000
vn 0.8811 -0.4728 -0.0000
vn 0.8812 -0.4728 0.0000
vn 0.8811 -0.4729 0.0000
vn 0.8820 -0.4712 0.0000
vn 0.8820 -0.4713 -0.0000
vn 0.8819 -0.4714 0.0000
vn 0.4725 0.8814 -0.0000
vn 0.4723 0.8814 0.0000
vn 0.4725 0.8813 0.0000
s off
f 1/1/1 2/2/1 3/3/1
f 4/4/2 5/5/2 1/1/2
f 2/2/1 1/1/1 5/5/1
f 6/6/1 7/7/1 4/4/1
f 7/7/2 8/8/2 4/4/2
f 8/8/2 5/5/2 4/4/2
f 9/9/3 10/10/3 11/11/3
f 12/12/3 9/9/3 13/13/3
f 12/12/3 14/14/3 9/9/3
f 10/10/4 9/9/4 14/14/4
f 15/15/3 16/16/3 13/13/3
f 16/16/3 12/12/3 13/13/3
f 17/17/5 18/18/5 19/19/5
f 17/17/6 19/19/6 20/20/6
f 21/21/7 22/22/7 23/23/7
f 24/24/8 25/25/8 21/21/8
f 25/25/8 26/26/8 21/21/8
f 22/22/8 21/21/8 26/26/8
f 27/27/8 28/28/8 24/24/8
f 28/28/8 29/29/8 24/24/8
f 24/24/8 29/29/8 25/25/8
f 25/25/8 29/29/8 30/30/8
f 31/31/8 32/32/8 30/30/8
f 32/32/8 33/33/8 30/30/8
f 25/25/8 30/30/8 34/34/8
f 36/35/8 37/36/8 35/37/8
f 37/36/8 38/38/8 35/37/8
f 34/34/8 35/37/8 39/39/8
f 37/36/9 40/40/9 38/38/9
f 42/41/7 43/42/7 41/43/7
f 43/42/10 44/44/10 41/43/10
f 41/43/8 44/44/8 39/39/8
f 48/45/11 45/46/11 49/47/11
f 48/45/12 50/48/12 45/46/12
f 46/49/13 45/46/13 50/48/13
f 51/50/11 52/51/11 49/47/11
f 52/51/13 48/45/13 49/47/13
f 53/52/14 54/53/14 55/54/14
f 56/55/14 53/52/14 57/56/14
f 56/55/15 58/57/15 53/52/15
f 54/53/16 53/52/16 58/57/16
f 59/58/14 60/59/14 57/56/14
f 60/59/14 56/55/14 57/56/14
f 61/60/17 62/61/17 63/62/17
f 64/63/17 61/60/17 65/64/17
f 64/63/17 66/65/17 61/60/17
f 62/61/18 61/60/18 66/65/18
f 67/66/17 68/67/17 65/64/17
f 68/67/19 64/63/19 65/64/19
f 69/68/20 70/69/20 71/70/20
f 72/71/21 73/72/21 69/68/21
f 70/69/22 69/68/22 73/72/22
f 74/73/21 75/74/21 72/71/21
f 75/74/21 76/75/21 72/71/21
f 76/75/21 77/76/21 72/71/21
f 78/77/21 77/76/21 76/75/21
f 79/78/20 80/79/20 78/77/20
f 80/79/23 77/76/23 78/77/23
f 81/80/24 82/81/24 83/82/24
f 82/81/24 81/80/24 85/83/24
f 88/84/24 89/85/24 84/86/24
f 84/86/24 89/85/24 85/83/24
f 88/84/24 90/87/24 89/85/24
f 90/87/25 93/88/25 89/85/25
f 96/89/24 97/90/24 94/91/24
f 97/90/24 95/92/24 94/91/24
f 98/93/26 99/94/26 100/95/26
f 101/96/27 102/97/27 98/93/27
f 99/94/28 98/93/28 102/97/28
f 103/98/29 104/99/29 101/96/29
f 104/99/26 105/100/26 101/96/26
f 105/100/28 102/97/28 101/96/28
f 106/101/30 107/102/30 108/103/30
f 109/104/31 110/105/31 106/101/31
f 107/102/32 106/101/32 110/105/32
f 111/106/30 112/107/30 109/104/30
f 112/107/31 113/108/31 109/104/31
f 113/108/30 110/105/30 109/104/30
f 113/108/30 114/109/30 110/105/30
f 115/110/30 116/111/30 114/109/30
f 116/111/30 117/112/30 114/109/30
f 117/112/31 118/113/31 114/109/31
f 114/109/30 118/113/30 110/105/30
f 119/114/30 118/113/30 117/112/30
f 120/115/31 121/116/31 119/114/31
f 121/116/31 118/113/31 119/114/31
s 1
f 34/34/8 30/30/8 33/33/8
f 34/34/8 33/33/8 35/37/8
f 35/37/8 38/38/8 39/39/8
f 38/38/8 41/43/8 39/39/8
f 45/46/13 46/49/13 47/117/13
f 77/76/21 73/72/21 72/71/21
f 84/86/33 85/83/33 81/80/33
f 86/118/24 87/119/24 84/86/34
f 87/119/24 88/84/34 84/86/34
f 91/120/35 92/121/35 90/87/24
f 92/121/35 93/88/24 90/87/24
f 94/91/33 95/92/24 93/88/24
f 93/88/24 95/92/24 89/85/24
