# Blender v3.0.1 OBJ File: 'rockerfeller_plaza.blend'
# www.blender.org
o geometryt000010000010000110010110000110000100110010110110st151
v 179.447784 -130.266327 566.608337
v 180.886490 -131.043030 566.608337
v 180.886490 -131.043030 600.193237
v 179.447784 -130.266327 600.193237
v 181.664581 -131.463028 600.193237
v 181.664581 -131.463028 566.608337
v 184.542084 -133.016220 566.608337
v 184.542084 -133.016220 600.193237
v 185.320190 -133.436218 600.193237
v 185.320190 -133.436218 566.608337
v 186.758987 -134.212921 566.608337
v 186.758987 -134.212921 600.193237
v 187.537079 -134.632919 600.193237
v 187.537079 -134.632919 566.608337
v 191.853287 -136.962830 566.608337
v 191.853287 -136.962830 600.193237
v 192.631378 -137.382828 566.608337
v 194.070084 -138.159424 566.608337
v 194.070084 -138.159424 600.193237
v 192.631378 -137.382828 600.193237
v 194.848190 -138.579422 600.193237
v 194.848190 -138.579422 566.608337
v 197.725677 -140.132721 566.608337
v 197.725677 -140.132721 600.193237
v 198.503784 -140.552719 566.608337
v 199.942581 -141.329330 566.608337
v 199.942581 -141.329330 600.193237
v 198.503784 -140.552719 600.193237
v 180.084076 -128.359818 566.608337
v 179.307983 -129.798828 566.608337
v 179.307983 -129.798828 600.193237
v 180.084076 -128.359818 600.193237
v 182.005280 -124.797722 566.608337
v 181.229080 -126.236824 566.608337
v 181.229080 -126.236824 600.193237
v 182.005280 -124.797722 600.193237
v 183.327087 -125.123024 600.193237
v 183.327087 -125.123024 566.608337
v 182.472183 -124.658722 566.608337
v 182.472183 -124.658722 600.193237
v 184.570389 -123.545120 566.608337
v 183.794083 -124.984024 566.608337
v 183.794083 -124.984024 600.193237
v 184.570389 -123.545120 600.193237
v 186.642990 -119.703224 600.193237
v 186.642990 -119.703224 566.608337
v 185.090378 -122.581123 566.608337
v 185.090378 -122.581123 600.193237
v 188.715683 -115.861427 566.608337
v 187.163086 -118.739227 566.608337
v 187.163086 -118.739227 600.193237
v 188.715683 -115.861427 600.193237
v 190.011978 -113.458427 566.608337
v 189.235687 -114.897423 566.608337
v 189.235687 -114.897423 600.193237
v 190.011978 -113.458427 600.193237
v 189.655579 -110.619225 600.193237
v 189.655579 -110.619225 566.608337
v 188.878586 -112.057724 566.608337
v 188.878586 -112.057724 600.193237
v 190.904388 -108.306923 566.608337
v 190.127380 -109.745522 566.608337
v 190.127380 -109.745522 600.193237
v 190.904388 -108.306923 600.193237
v 192.153290 -105.994720 566.608337
v 191.376282 -107.433220 566.608337
v 191.376282 -107.433220 600.193237
v 192.153290 -105.994720 600.193237
v 193.402084 -103.682426 600.193237
v 193.402084 -103.682426 566.608337
v 192.625076 -105.121025 566.608337
v 192.625076 -105.121025 600.193237
v 189.017776 -112.525925 566.608337
v 189.872681 -112.990227 566.608337
v 189.872681 -112.990227 600.193237
v 189.017776 -112.525925 600.193237
v 191.249283 -128.665726 566.608337
v 192.805176 -125.789627 566.608337
v 192.805176 -125.789627 600.193237
v 191.249283 -128.665726 600.193237
v 193.256989 -130.496521 566.608337
v 191.818085 -129.720123 566.608337
v 191.818085 -129.720123 600.193237
v 193.256989 -130.496521 600.193237
v 194.000076 -125.686920 566.608337
v 195.438980 -126.463425 566.608337
v 195.438980 -126.463425 600.193237
v 194.000076 -125.686920 600.193237
v 195.307983 -104.320122 566.608337
v 193.869583 -103.542923 566.608337
v 193.869583 -103.542923 600.193237
v 195.307983 -104.320122 600.193237
v 198.963577 -106.295326 600.193237
v 198.963577 -106.295326 566.608337
v 196.086685 -104.740921 566.608337
v 196.086685 -104.740921 600.193237
v 201.180679 -107.493225 600.193237
v 201.180679 -107.493225 566.608337
v 199.742279 -106.716026 566.608337
v 199.742279 -106.716026 600.193237
v 206.274689 -110.245621 600.193237
v 206.274689 -110.245621 566.608337
v 201.959381 -107.914024 566.608337
v 201.959381 -107.914024 600.193237
v 208.491882 -111.443626 600.193237
v 208.491882 -111.443626 566.608337
v 207.053391 -110.666420 566.608337
v 207.053391 -110.666420 600.193237
v 212.147385 -113.418724 566.608337
v 209.270584 -111.864326 566.608337
v 209.270584 -111.864326 600.193237
v 212.147385 -113.418724 600.193237
v 214.364578 -114.616722 600.193237
v 214.364578 -114.616722 566.608337
v 212.926086 -113.839523 566.608337
v 212.926086 -113.839523 600.193237
v 194.042282 -123.499725 600.193237
v 194.042282 -123.499725 566.608337
v 194.818390 -122.060623 566.608337
v 194.818390 -122.060623 600.193237
v 195.279877 -121.204826 600.193237
v 195.279877 -121.204826 566.608337
v 196.055878 -119.765823 566.608337
v 196.055878 -119.765823 600.193237
v 196.517380 -118.909927 600.193237
v 196.517380 -118.909927 566.608337
v 197.293381 -117.470924 566.608337
v 197.293381 -117.470924 600.193237
v 196.199387 -125.055725 566.608337
v 194.760483 -124.279327 566.608337
v 194.760483 -124.279327 600.193237
v 196.199387 -125.055725 600.193237
v 196.007889 -127.517822 600.193237
v 196.007889 -127.517822 566.608337
v 194.451889 -130.393829 566.608337
v 194.451889 -130.393829 600.193237
v 198.020981 -123.788826 600.193237
v 198.020981 -123.788826 566.608337
v 197.244980 -125.227921 566.608337
v 197.244980 -125.227921 600.193237
v 199.258484 -121.493927 566.608337
v 198.482483 -122.933022 566.608337
v 198.482483 -122.933022 600.193237
v 199.258484 -121.493927 600.193237
v 200.495987 -119.199020 600.193237
v 200.495987 -119.199020 566.608337
v 199.719986 -120.638123 566.608337
v 199.719986 -120.638123 600.193237
v 198.338989 -117.643127 600.193237
v 198.338989 -117.643127 566.608337
v 199.777878 -118.419525 566.608337
v 199.777878 -118.419525 600.193237
v 200.410187 -141.189728 566.608337
v 201.187683 -139.751419 566.608337
v 201.187683 -139.751419 600.193237
v 200.410187 -141.189728 600.193237
v 202.668488 -137.012131 566.608337
v 203.445877 -135.573822 566.608337
v 203.445877 -135.573822 600.193237
v 202.668488 -137.012131 600.193237
v 203.305984 -135.107224 600.193237
v 203.305984 -135.107224 566.608337
v 202.333984 -134.585724 566.608337
v 202.333984 -134.585724 600.193237
v 202.193878 -134.119019 566.608337
v 202.970490 -132.680328 566.608337
v 202.970490 -132.680328 600.193237
v 202.193878 -134.119019 600.193237
v 203.368576 -131.943024 600.193237
v 203.368576 -131.943024 566.608337
v 204.921982 -129.065628 566.608337
v 204.921982 -129.065628 600.193237
v 205.319977 -128.328323 600.193237
v 205.319977 -128.328323 566.608337
v 206.873383 -125.450821 566.608337
v 206.873383 -125.450821 600.193237
v 207.271378 -124.713524 600.193237
v 207.271378 -124.713524 566.608337
v 208.048080 -123.274826 566.608337
v 208.048080 -123.274826 600.193237
v 208.515976 -123.134323 566.608337
v 209.487976 -123.655823 566.608337
v 209.487976 -123.655823 600.193237
v 208.515976 -123.134323 600.193237
v 209.955780 -123.515327 600.193237
v 209.955780 -123.515327 566.608337
v 210.732086 -122.076324 566.608337
v 210.732086 -122.076324 600.193237
v 211.213181 -121.184624 566.608337
v 211.989487 -119.745720 566.608337
v 211.989487 -119.745720 600.193237
v 211.213181 -121.184624 600.193237
v 212.470581 -118.853920 600.193237
v 212.470581 -118.853920 566.608337
v 213.246887 -117.415024 566.608337
v 213.246887 -117.415024 600.193237
v 213.727982 -116.523323 566.608337
v 214.504288 -115.084320 566.608337
v 214.504288 -115.084320 600.193237
v 213.727982 -116.523323 600.193237
vt 0.000000 0.000000
vt 0.333330 0.000000
vt 0.333330 2.000000
vt 0.000000 2.000000
vt 0.000000 2.000000
vt 0.000000 0.000000
vt 0.666670 0.000000
vt 0.666670 2.000000
vt 0.000000 2.000000
vt 0.000000 0.000000
vt 0.333330 0.000000
vt 0.333330 2.000000
vt 0.000000 2.000000
vt 0.000000 0.000000
vt 1.000000 0.000000
vt 1.000000 2.000000
vt 0.000000 0.000000
vt 0.333330 0.000000
vt 0.333330 2.000000
vt 0.000000 2.000000
vt 0.000000 2.000000
vt 0.000000 0.000000
vt 0.666670 0.000000
vt 0.666670 2.000000
vt 0.000000 0.000000
vt 0.333330 0.000000
vt 0.333330 2.000000
vt 0.000000 2.000000
vt 0.000000 0.000000
vt 0.333330 0.000000
vt 0.333330 2.000000
vt 0.000000 2.000000
vt 0.000000 0.000000
vt 0.333330 0.000000
vt 0.333330 2.000000
vt 0.000000 2.000000
vt 0.000000 0.000000
vt 0.333330 0.000000
vt 0.333330 2.000000
vt 0.000000 2.000000
vt 0.000000 2.000000
vt 0.000000 0.000000
vt 0.666670 0.000000
vt 0.666670 2.000000
vt 0.000000 0.000000
vt 0.666670 0.000000
vt 0.666670 2.000000
vt 0.000000 2.000000
vt 0.000000 0.000000
vt 0.333330 0.000000
vt 0.333330 2.000000
vt 0.000000 2.000000
vt 0.000000 2.000000
vt 0.000000 0.000000
vt 0.333330 0.000000
vt 0.333330 2.000000
vt 0.000000 0.000000
vt 0.333330 0.000000
vt 0.333330 2.000000
vt 0.000000 2.000000
vt 0.000000 0.000000
vt 0.333330 0.000000
vt 0.333330 2.000000
vt 0.000000 2.000000
vt 0.000000 2.000000
vt 0.000000 0.000000
vt 0.333330 0.000000
vt 0.333330 2.000000
vt 0.000000 0.000000
vt 0.333330 0.000000
vt 0.333330 2.000000
vt 0.000000 2.000000
vt 0.000000 0.000000
vt 0.666670 0.000000
vt 0.666670 2.000000
vt 0.000000 2.000000
vt 0.000000 0.000000
vt 0.333330 0.000000
vt 0.333330 2.000000
vt 0.000000 2.000000
vt 0.000000 0.000000
vt 0.333330 0.000000
vt 0.333330 2.000000
vt 0.000000 2.000000
vt 0.000000 2.000000
vt 0.000000 0.000000
vt 0.666670 0.000000
vt 0.666670 2.000000
vt 0.000000 2.000000
vt 0.000000 0.000000
vt 1.000000 0.000000
vt 1.000000 2.000000
vt 0.000000 2.000000
vt 0.000000 0.000000
vt 0.333330 0.000000
vt 0.333330 2.000000
vt 0.000000 2.000000
vt 0.000000 0.000000
vt 0.333330 0.000000
vt 0.333330 2.000000
vt 0.000000 2.000000
vt 0.000000 0.000000
vt 0.333330 0.000000
vt 0.333330 2.000000
vt 0.000000 2.000000
vt 0.000000 0.000000
vt 0.333330 0.000000
vt 0.333330 2.000000
vt 0.000000 2.000000
vt 0.000000 0.000000
vt 0.333330 0.000000
vt 0.333330 2.000000
vt 0.000000 0.000000
vt 0.333330 0.000000
vt 0.333330 2.000000
vt 0.000000 2.000000
vt 0.000000 2.000000
vt 0.000000 0.000000
vt 0.666670 0.000000
vt 0.666670 2.000000
vt 0.000000 2.000000
vt 0.000000 0.000000
vt 0.333330 0.000000
vt 0.333330 2.000000
vt 0.000000 0.000000
vt 0.333330 0.000000
vt 0.333330 2.000000
vt 0.000000 2.000000
vt 0.000000 2.000000
vt 0.000000 0.000000
vt 0.333330 0.000000
vt 0.333330 2.000000
vt 0.000000 2.000000
vt 0.000000 0.000000
vt 0.333330 0.000000
vt 0.333330 2.000000
vt 0.000000 0.000000
vt 0.333330 0.000000
vt 0.333330 2.000000
vt 0.000000 2.000000
vt 0.000000 0.000000
vt 0.333330 0.000000
vt 0.333330 2.000000
vt 0.000000 2.000000
vt 0.000000 2.000000
vt 0.000000 0.000000
vt 0.333330 0.000000
vt 0.333330 2.000000
vt 0.000000 0.000000
vt 0.333330 0.000000
vt 0.333330 2.000000
vt 0.000000 2.000000
vt 0.000000 2.000000
vt 0.000000 0.000000
vt 0.666670 0.000000
vt 0.666670 2.000000
vt 0.000000 2.000000
vt 0.000000 0.000000
vt 0.666670 0.000000
vt 0.666670 2.000000
vt 0.000000 2.000000
vt 0.000000 0.000000
vt 0.333330 0.000000
vt 0.333330 2.000000
vt 0.000000 0.000000
vt 0.333330 0.000000
vt 0.333330 2.000000
vt 0.000000 2.000000
vt 0.000000 2.000000
vt 0.000000 0.000000
vt 0.333330 0.000000
vt 0.333330 2.000000
vt 0.000000 0.000000
vt 0.333330 0.000000
vt 0.333330 2.000000
vt 0.000000 2.000000
vt 0.000000 2.000000
vt 0.000000 0.000000
vt 0.333330 0.000000
vt 0.333330 2.000000
vt 0.000000 0.000000
vt 0.333330 0.000000
vt 0.333330 2.000000
vt 0.000000 2.000000
vt 0.000000 2.000000
vt 0.000000 0.000000
vt 0.333330 0.000000
vt 0.333330 2.000000
vt 0.000000 0.000000
vt 0.333330 0.000000
vt 0.333330 2.000000
vt 0.000000 2.000000
vt 0.000000 2.000000
vt 0.000000 0.000000
vt 0.333330 0.000000
vt 0.333330 2.000000
vt 0.000000 0.000000
vt 0.666670 0.000000
vt 0.666670 2.000000
vt 0.000000 2.000000
vn -0.4751 -0.8800 0.0000
vn -0.4750 -0.8800 0.0000
vn -0.8802 0.4747 0.0000
vn -0.8801 0.4747 0.0000
vn -0.8801 0.4748 0.0000
vn -0.8799 0.4752 0.0000
vn -0.8798 0.4753 0.0000
vn -0.4773 -0.8788 0.0000
vn 0.8795 -0.4758 0.0000
vn 0.8796 -0.4758 0.0000
vn 0.4749 0.8801 0.0000
vn -0.4749 -0.8800 0.0000
vn 0.4754 0.8798 0.0000
vn 0.4753 0.8798 0.0000
vn 0.8802 -0.4747 0.0000
vn 0.8802 -0.4746 0.0000
vn -0.8795 0.4758 0.0000
vn -0.8802 0.4746 0.0000
vn -0.4749 -0.8801 0.0000
vn 0.8797 -0.4755 0.0000
vn 0.4728 0.8812 0.0000
vn 0.8800 -0.4750 0.0000
vn 0.8800 -0.4751 0.0000
vn -0.4728 -0.8812 0.0000
vn 0.8801 -0.4748 0.0000
vn 0.4773 0.8788 0.0000
vn 0.4772 0.8788 0.0000
s off
f 1/1/1 2/2/1 3/3/1
f 4/4/1 1/1/1 3/3/1
f 5/5/2 6/6/2 7/7/2
f 5/5/2 7/7/2 8/8/2
f 9/9/2 10/10/2 11/11/2
f 9/9/2 11/11/2 12/12/2
f 13/13/2 14/14/2 15/15/2
f 13/13/2 15/15/2 16/16/2
f 17/17/2 18/18/2 19/19/2
f 20/20/2 17/17/2 19/19/2
f 21/21/2 22/22/2 23/23/2
f 21/21/2 23/23/2 24/24/2
f 25/25/2 26/26/2 27/27/2
f 28/28/2 25/25/2 27/27/2
f 29/29/3 30/30/3 31/31/3
f 32/32/3 29/29/3 31/31/3
f 33/33/4 34/34/4 35/35/4
f 36/36/4 33/33/4 35/35/4
f 41/37/5 42/38/5 43/39/5
f 44/40/5 41/37/5 43/39/5
f 45/41/5 46/42/5 47/43/5
f 45/41/5 47/43/5 48/44/5
f 49/45/5 50/46/5 51/47/5
f 52/48/5 49/45/5 51/47/5
f 53/49/5 54/50/5 55/51/5
f 56/52/5 53/49/5 55/51/5
f 57/53/6 58/54/6 59/55/6
f 57/53/7 59/55/7 60/56/7
f 61/57/6 62/58/6 63/59/6
f 64/60/6 61/57/6 63/59/6
f 65/61/7 66/62/7 67/63/7
f 68/64/7 65/61/7 67/63/7
f 69/65/6 70/66/6 71/67/6
f 69/65/6 71/67/6 72/68/6
f 73/69/8 74/70/8 75/71/8
f 76/72/8 73/69/8 75/71/8
f 77/73/9 78/74/9 79/75/9
f 80/76/10 77/73/10 79/75/10
f 81/77/11 82/78/11 83/79/11
f 84/80/11 81/77/11 83/79/11
f 85/81/12 86/82/12 87/83/12
f 88/84/12 85/81/12 87/83/12
f 93/85/13 94/86/13 95/87/13
f 93/85/13 95/87/13 96/88/13
f 101/89/13 102/90/13 103/91/13
f 101/89/13 103/91/13 104/92/13
f 105/93/14 106/94/14 107/95/14
f 105/93/14 107/95/14 108/96/14
f 113/97/14 114/98/14 115/99/14
f 113/97/14 115/99/14 116/100/14
f 117/101/15 118/102/15 119/103/15
f 117/101/15 119/103/15 120/104/15
f 121/105/16 122/106/16 123/107/16
f 121/105/15 123/107/15 124/108/15
f 125/109/16 126/110/16 127/111/16
f 125/109/15 127/111/15 128/112/15
f 129/113/11 130/114/11 131/115/11
f 132/116/11 129/113/11 131/115/11
f 133/117/17 134/118/17 135/119/17
f 133/117/17 135/119/17 136/120/17
f 137/121/18 138/122/18 139/123/18
f 137/121/18 139/123/18 140/124/18
f 141/125/18 142/126/18 143/127/18
f 144/128/18 141/125/18 143/127/18
f 145/129/18 146/130/18 147/131/18
f 145/129/18 147/131/18 148/132/18
f 149/133/19 150/134/19 151/135/19
f 149/133/19 151/135/19 152/136/19
f 153/137/20 154/138/20 155/139/20
f 156/140/20 153/137/20 155/139/20
f 157/141/20 158/142/20 159/143/20
f 160/144/20 157/141/20 159/143/20
f 161/145/21 162/146/21 163/147/21
f 161/145/21 163/147/21 164/148/21
f 165/149/22 166/150/22 167/151/22
f 168/152/22 165/149/22 167/151/22
f 169/153/23 170/154/23 171/155/23
f 169/153/23 171/155/23 172/156/23
f 173/157/22 174/158/22 175/159/22
f 173/157/22 175/159/22 176/160/22
f 177/161/23 178/162/23 179/163/23
f 177/161/22 179/163/22 180/164/22
f 181/165/24 182/166/24 183/167/24
f 184/168/24 181/165/24 183/167/24
f 185/169/25 186/170/25 187/171/25
f 185/169/25 187/171/25 188/172/25
f 189/173/25 190/174/25 191/175/25
f 192/176/25 189/173/25 191/175/25
f 193/177/25 194/178/25 195/179/25
f 193/177/25 195/179/25 196/180/25
f 197/181/25 198/182/25 199/183/25
f 200/184/25 197/181/25 199/183/25
s 1
f 37/185/26 38/186/27 39/187/27
f 37/185/26 39/187/27 40/188/26
f 89/189/13 90/190/13 91/191/13
f 92/192/13 89/189/13 91/191/13
f 97/193/13 98/194/13 99/195/13
f 97/193/13 99/195/13 100/196/13
f 109/197/13 110/198/13 111/199/13
f 112/200/13 109/197/13 111/199/13
