# Blender v3.0.1 OBJ File: 'rockerfeller_plaza.blend'
# www.blender.org
o geometryt000010000010000110010110000110000110100000100010st32
v 724.695557 -159.242554 382.040283
v 712.470398 -152.612656 382.040283
v 713.189697 -151.305252 382.040283
v 722.878296 -133.695251 382.040283
v 739.216309 -141.198654 382.040283
v 726.791870 -163.825562 382.040283
v 723.240906 -161.912949 382.040283
v 726.027893 -127.963051 382.040283
v 746.010681 -138.910156 382.040283
v 743.481262 -143.524857 382.040283
v 726.791870 -163.825562 404.440277
v 724.695557 -159.242554 404.440277
v 723.240906 -161.912949 404.440277
v 739.216309 -141.198654 404.440277
v 743.481262 -143.524857 404.440277
v 746.010681 -138.910156 404.440277
v 726.027893 -127.963051 404.440277
v 722.878296 -133.695251 404.440277
v 713.189697 -151.305252 404.440277
v 712.470398 -152.612656 404.440277
vt 0.218420 0.448570
vt 0.210240 0.424090
vt 0.207640 0.425570
vt 0.172510 0.445510
vt 0.180970 0.478260
vt 0.226100 0.452690
vt 0.223740 0.445580
vt 0.161080 0.451990
vt 0.174650 0.492010
vt 0.183850 0.486810
vt 0.226100 0.452690
vt 0.218420 0.448570
vt 0.223740 0.445580
vt 0.180970 0.478260
vt 0.183850 0.486810
vt 0.174650 0.492010
vt 0.161080 0.451990
vt 0.172510 0.445510
vt 0.207640 0.425570
vt 0.210240 0.424090
vn -0.0000 0.0000 -1.0000
vn 0.0000 0.0000 1.0000
s off
f 1/1/1 2/2/1 3/3/1
f 4/4/1 1/1/1 3/3/1
f 5/5/1 1/1/1 4/4/1
f 5/5/1 6/6/1 1/1/1
f 7/7/1 1/1/1 6/6/1
f 8/8/1 5/5/1 4/4/1
f 8/8/1 9/9/1 5/5/1
f 5/5/1 9/9/1 10/10/1
f 11/11/2 12/12/2 13/13/2
f 11/11/2 14/14/2 12/12/2
f 15/15/2 16/16/2 14/14/2
f 16/16/2 17/17/2 14/14/2
f 17/17/2 18/18/2 14/14/2
f 14/14/2 18/18/2 12/12/2
f 12/12/2 18/18/2 19/19/2
f 12/12/2 19/19/2 20/20/2
