# Blender v3.0.1 OBJ File: 'rockerfeller_plaza.blend'
# www.blender.org
o geometryt000010000010000110010110000110000110100000100100st52
v 463.819092 -205.893127 611.813965
v 464.897491 -207.890121 611.813965
v 463.914185 -209.722321 611.813965
v 459.066193 -209.534424 611.813965
v 462.906097 -211.599228 611.813965
v 458.006897 -204.828217 611.813965
v 457.049988 -213.299316 611.813965
v 451.015076 -233.753128 611.813965
v 460.889893 -215.364120 611.813965
v 444.388916 -230.199631 611.813965
v 458.857910 -203.230728 611.813965
v 463.819092 -205.893127 630.613953
v 458.857910 -203.230728 630.613953
v 458.006897 -204.828217 630.613953
v 459.066193 -209.534424 630.613953
v 463.914185 -209.722321 630.613953
v 464.897491 -207.890121 630.613953
v 444.388916 -230.199631 630.613953
v 457.049988 -213.299316 630.613953
v 451.015076 -233.753128 630.613953
v 460.889893 -215.364120 630.613953
v 462.906097 -211.599228 630.613953
vt 0.308230 0.416230
vt 0.311520 0.418350
vt 0.315170 0.416330
vt 0.316370 0.406560
vt 0.318900 0.414250
vt 0.308140 0.404540
vt 0.323860 0.402410
vt 0.363000 0.389770
vt 0.326400 0.410100
vt 0.358640 0.376500
vt 0.304960 0.406290
vt 0.308230 0.416230
vt 0.304960 0.406290
vt 0.308140 0.404540
vt 0.316370 0.406560
vt 0.315170 0.416330
vt 0.311520 0.418350
vt 0.358640 0.376500
vt 0.323860 0.402410
vt 0.363000 0.389770
vt 0.326400 0.410100
vt 0.318900 0.414250
vn -0.0001 0.0000 -1.0000
vn 0.0000 0.0000 -1.0000
vn 0.0000 0.0000 1.0000
vn 0.0001 0.0000 1.0000
s off
f 1/1/1 2/2/1 3/3/1
f 4/4/2 3/3/2 5/5/2
f 4/4/2 1/1/2 3/3/2
f 6/6/2 4/4/2 7/7/2
f 6/6/2 1/1/2 4/4/2
f 8/8/2 7/7/2 9/9/2
f 10/10/2 7/7/2 8/8/2
f 10/10/2 6/6/2 7/7/2
f 11/11/2 1/1/2 6/6/2
f 12/12/3 13/13/3 14/14/3
f 14/14/3 15/15/3 12/12/3
f 15/15/3 16/16/3 12/12/3
f 16/16/4 17/17/4 12/12/4
f 14/14/3 18/18/3 19/19/3
f 14/14/3 19/19/3 15/15/3
f 19/19/3 18/18/3 20/20/3
f 19/19/3 20/20/3 21/21/3
f 15/15/3 22/22/3 16/16/3
