# Blender v3.0.1 OBJ File: 'rockerfeller_plaza.blend'
# www.blender.org
o geometryt000010000010000110010110000110000100110010110010st92_1
v 119.784607 -280.280975 291.579315
v 119.431908 -281.259369 305.894257
v 119.784607 -280.280975 305.894257
v 130.490295 -250.589066 290.894257
v 130.137604 -251.567474 291.579315
v 119.431908 -281.259369 290.894257
v 130.137604 -251.567474 305.894257
v 130.490295 -250.589066 305.894257
v 146.824814 -296.037872 291.579315
v 147.354813 -296.323883 305.894257
v 146.824814 -296.037872 305.894257
v 119.961807 -281.545258 291.579315
v 147.354813 -296.323883 290.894257
v 119.961807 -281.545258 305.894257
v 119.431908 -281.259369 305.894257
v 119.431908 -281.259369 290.894257
v 125.668304 -272.249176 374.894287
v 125.668304 -272.249176 305.894257
v 125.697609 -272.286255 305.894257
v 125.936005 -272.587860 305.894257
v 125.936005 -272.587860 374.894287
v 126.882507 -273.785156 356.736389
v 126.882507 -273.785156 305.894257
v 127.295204 -274.307159 305.894257
v 127.295204 -274.307159 356.736389
v 128.775497 -276.179565 374.894287
v 128.775497 -276.179565 356.894287
v 129.043304 -276.518280 356.894287
v 129.043304 -276.518280 374.894287
v 126.104805 -271.688477 305.894257
v 125.667503 -272.249878 305.894257
v 125.667503 -272.249878 374.894287
v 126.199806 -271.566467 356.894287
v 126.199806 -271.566467 374.894287
v 126.199806 -271.566467 305.894257
v 126.217209 -275.996155 356.894287
v 126.217209 -275.996155 305.894257
v 125.960304 -276.398682 305.894257
v 125.960304 -276.398682 356.894287
v 127.295204 -274.307159 356.894287
v 127.295204 -274.307159 305.894257
v 127.038307 -274.709656 305.894257
v 127.038307 -274.709656 356.894287
v 125.960304 -276.398682 356.894287
v 125.960304 -276.398682 305.894257
v 126.546204 -276.765778 305.894257
v 126.546204 -276.765778 356.894287
v 129.132904 -278.386261 356.894287
v 129.132904 -278.386261 305.894257
v 129.718903 -278.753265 305.894257
v 129.718903 -278.753265 356.894287
v 126.667404 -270.581360 356.894287
v 126.667404 -270.581360 305.894257
v 126.199806 -271.566467 305.894257
v 126.199806 -271.566467 356.894287
v 134.333603 -254.430374 356.894287
v 134.333603 -254.430374 305.894257
v 133.866104 -255.415466 305.894257
v 133.866104 -255.415466 356.894287
v 126.724205 -270.885773 374.894287
v 126.724205 -270.885773 356.894287
v 126.199806 -271.566467 356.894287
v 126.199806 -271.566467 374.894287
v 133.768204 -261.742279 374.894287
v 133.768204 -261.742279 356.894287
v 133.243912 -262.422882 356.894287
v 133.243912 -262.422882 374.894287
v 127.196106 -283.245575 356.894287
v 127.196106 -283.245575 305.894257
v 127.966003 -283.675262 305.894257
v 127.966003 -283.675262 356.894287
v 138.627502 -289.624756 356.894287
v 138.627502 -289.624756 305.894257
v 139.397400 -290.054382 305.894257
v 139.397400 -290.054382 356.894287
v 127.710205 -282.330170 356.894287
v 127.710205 -282.330170 305.894257
v 127.597107 -282.531464 305.894257
v 127.196106 -283.245575 305.894257
v 127.196106 -283.245575 356.894287
v 129.718903 -278.753265 356.894287
v 129.718903 -278.753265 305.894257
v 129.204697 -279.668762 305.894257
v 129.204697 -279.668762 356.894287
v 129.042999 -276.518463 374.894287
v 129.042999 -276.518463 356.894287
v 129.471497 -276.911865 356.894287
v 129.471497 -276.911865 374.894287
v 131.720200 -278.975769 374.894287
v 131.720200 -278.975769 356.894287
v 132.148804 -279.369080 356.894287
v 132.148804 -279.369080 374.894287
v 131.125107 -250.931168 291.579315
v 130.490295 -250.589066 305.894257
v 131.125107 -250.931168 305.894257
v 162.025604 -267.582672 291.579315
v 130.490295 -250.589066 290.894257
v 162.025604 -267.582672 305.894257
v 162.660400 -267.924774 305.894257
v 162.660400 -267.924774 290.894257
v 132.148804 -279.369080 374.894287
v 132.148804 -279.369080 356.894287
v 132.866211 -279.873260 356.894287
v 132.866211 -279.873260 374.894287
v 135.363510 -281.628265 374.894287
v 135.363510 -281.628265 356.894287
v 136.080902 -282.132477 356.894287
v 136.080902 -282.132477 374.894287
v 134.235901 -260.768982 374.894287
v 134.235901 -260.768982 356.894287
v 133.768204 -261.742279 356.894287
v 133.768204 -261.742279 374.894287
v 136.686401 -255.668869 374.894287
v 136.686401 -255.668869 356.894287
v 136.218704 -256.642181 356.894287
v 136.218704 -256.642181 374.894287
v 134.834808 -254.694168 356.894287
v 134.834808 -254.694168 305.894257
v 134.333603 -254.430374 305.894257
v 134.333603 -254.430374 356.894287
v 136.686401 -255.668869 356.894287
v 136.686401 -255.668869 305.894257
v 136.185303 -255.405075 305.894257
v 136.185303 -255.405075 356.894287
v 136.080902 -282.132477 374.894287
v 136.080902 -282.132477 356.894287
v 137.097214 -282.571167 356.894287
v 137.097214 -282.571167 374.894287
v 141.300613 -284.385956 374.894287
v 141.300613 -284.385956 356.894287
v 142.316910 -284.824768 356.894287
v 142.316910 -284.824768 374.894287
v 137.052002 -255.869370 305.894257
v 136.686401 -255.668869 305.894257
v 136.686401 -255.668869 356.894287
v 137.052002 -255.869370 374.894287
v 136.686401 -255.668869 374.894287
v 158.826508 -267.813782 374.894287
v 158.826508 -267.813782 305.894257
v 158.460907 -267.613159 305.894257
v 158.460907 -267.613159 374.894287
v 139.397400 -290.054382 356.894287
v 139.397400 -290.054382 305.894257
v 139.741302 -289.438354 305.894257
v 139.741302 -289.438354 356.894287
v 141.973007 -285.440674 356.894287
v 141.973007 -285.440674 305.894257
v 142.316910 -284.824768 305.894257
v 142.316910 -284.824768 356.894287
v 142.316910 -284.824768 356.894287
v 142.316910 -284.824768 305.894257
v 143.272903 -285.347076 305.894257
v 143.272903 -285.347076 356.894287
v 147.290802 -287.542267 356.894287
v 147.290802 -287.542267 305.894257
v 148.246902 -288.064575 305.894257
v 148.246902 -288.064575 356.894287
v 142.316910 -284.824768 374.894287
v 142.316910 -284.824768 356.894287
v 142.689301 -284.147064 356.894287
v 142.689301 -284.147064 374.894287
v 143.424408 -282.809662 374.894287
v 143.424408 -282.809662 356.894287
v 143.479706 -282.708984 356.894287
v 143.796814 -282.131958 356.894287
v 143.796814 -282.131958 374.894287
v 143.796814 -282.131958 374.894287
v 143.796814 -282.131958 356.894287
v 144.752914 -282.654266 356.894287
v 144.752914 -282.654266 374.894287
v 148.770813 -284.849457 374.894287
v 148.770813 -284.849457 356.894287
v 149.726807 -285.371765 356.894287
v 149.726807 -285.371765 374.894287
v 162.248108 -268.689758 291.579315
v 162.660400 -267.924774 305.894257
v 162.248108 -268.689758 305.894257
v 147.354813 -296.323883 290.894257
v 147.767014 -295.558868 291.579315
v 162.660400 -267.924774 290.894257
v 147.767014 -295.558868 305.894257
v 147.354813 -296.323883 305.894257
v 148.246902 -288.064575 356.894287
v 148.246902 -288.064575 305.894257
v 148.583206 -287.452576 305.894257
v 148.619308 -287.386871 305.894257
v 148.619308 -287.386871 356.894287
v 149.354401 -286.049469 356.894287
v 149.354401 -286.049469 305.894257
v 149.726807 -285.371765 305.894257
v 149.726807 -285.371765 356.894287
v 149.726807 -285.371765 356.894287
v 149.726807 -285.371765 305.894257
v 150.063400 -284.722778 305.894257
v 150.063400 -284.722778 374.894287
v 149.726807 -285.371765 374.894287
v 158.495514 -268.465668 374.894287
v 158.495514 -268.465668 305.894257
v 158.613708 -268.237671 305.894257
v 158.648514 -268.170563 305.894257
v 158.829010 -267.822662 305.894257
v 158.832108 -267.816681 374.894287
v 158.832108 -267.816681 305.894257
vt 27.422220 0.595180
vt 28.325760 13.032150
vt 27.422220 13.032150
vt 0.000000 0.000000
vt 0.903540 0.595180
vt 28.325760 0.000000
vt 0.903540 13.032150
vt 0.000000 13.032150
vt 27.041880 0.595180
vt 27.565081 13.032150
vt 27.041880 13.032150
vt 0.523200 13.032150
vt 0.000000 13.032150
vt 0.523200 0.595180
vt 0.000000 0.000000
vt 0.041050 0.000000
vt 0.375120 0.000000
vt 0.375120 59.947868
vt 0.000000 59.947868
vt 1.701050 44.172119
vt 1.701050 0.000000
vt 2.279200 0.000000
vt 2.279200 44.172119
vt 4.352920 59.947868
vt 4.352920 44.309299
vt 4.728030 44.309299
vt 4.728030 59.947868
vt 0.134400 0.000000
vt 0.752640 0.000000
vt 0.752640 59.947868
vt 0.000000 44.309299
vt 0.000000 0.000000
vt 1.740840 44.309299
vt 1.740840 0.000000
vt 2.155750 0.000000
vt 2.155750 44.309299
vt 0.000000 44.309299
vt 0.000000 0.000000
vt 0.414910 0.000000
vt 0.414910 44.309299
vt 0.000000 44.309299
vt 0.000000 0.000000
vt 0.600730 0.000000
vt 0.600730 44.309299
vt 3.252600 44.309299
vt 3.252600 0.000000
vt 3.853330 0.000000
vt 3.853330 44.309299
vt 15.532640 44.309299
vt 15.532640 0.000000
vt 16.480009 0.000000
vt 16.480009 44.309299
vt 0.000000 44.309299
vt 0.000000 0.000000
vt 0.947370 0.000000
vt 0.947370 44.309299
vt 10.028030 15.638580
vt 10.028030 0.000000
vt 10.774530 0.000000
vt 10.774530 15.638580
vt 0.000000 15.638580
vt 0.000000 0.000000
vt 0.746490 0.000000
vt 0.746490 15.638580
vt 0.000000 44.309299
vt 0.000000 0.000000
vt 0.766020 0.000000
vt 0.766020 44.309299
vt 11.373500 44.309299
vt 11.373500 0.000000
vt 12.139520 0.000000
vt 12.139520 44.309299
vt 3.564080 44.309299
vt 3.564080 0.000000
vt 3.764680 0.000000
vt 4.476280 0.000000
vt 4.476280 44.309299
vt 0.000000 44.309299
vt 0.000000 0.000000
vt 0.912210 0.000000
vt 0.912210 44.309299
vt 0.000000 15.638580
vt 0.000000 0.000000
vt 0.505400 0.000000
vt 0.505400 15.638580
vt 3.157270 15.638580
vt 3.157270 0.000000
vt 3.662670 0.000000
vt 3.662670 15.638580
vt 31.122980 0.595180
vt 31.749470 13.032150
vt 31.122980 13.032150
vt 0.626490 0.595180
vt 31.749470 0.000000
vt 0.626490 13.032150
vt 0.000000 13.032150
vt 0.000000 0.000000
vt 0.000000 15.638580
vt 0.000000 0.000000
vt 0.761830 0.000000
vt 0.761830 15.638580
vt 3.413690 15.638580
vt 3.413690 0.000000
vt 4.175520 0.000000
vt 4.175520 15.638580
vt 4.915950 15.638580
vt 4.915950 0.000000
vt 5.854100 0.000000
vt 5.854100 15.638580
vt 0.000000 15.638580
vt 0.000000 0.000000
vt 0.938150 0.000000
vt 0.938150 15.638580
vt 1.817950 44.309299
vt 1.817950 0.000000
vt 2.309960 0.000000
vt 2.309960 44.309299
vt 0.000000 44.309299
vt 0.000000 0.000000
vt 0.492010 0.000000
vt 0.492010 44.309299
vt 0.000000 15.638580
vt 0.000000 0.000000
vt 0.961710 0.000000
vt 0.961710 15.638580
vt 4.939520 15.638580
vt 4.939520 0.000000
vt 5.901230 0.000000
vt 5.901230 15.638580
vt 21.577240 0.000000
vt 21.939529 0.000000
vt 21.939529 44.309299
vt 21.577240 59.947868
vt 21.939529 59.947868
vt 0.000000 59.947868
vt 0.000000 0.000000
vt 0.362290 0.000000
vt 0.362290 59.947868
vt 0.000000 44.309299
vt 0.000000 0.000000
vt 0.612900 0.000000
vt 0.612900 44.309299
vt 4.590710 44.309299
vt 4.590710 0.000000
vt 5.203610 0.000000
vt 5.203610 44.309299
vt 0.000000 44.309299
vt 0.000000 0.000000
vt 0.946490 0.000000
vt 0.946490 44.309299
vt 4.924290 44.309299
vt 4.924290 0.000000
vt 5.870790 0.000000
vt 5.870790 44.309299
vt 0.000000 15.638580
vt 0.000000 0.000000
vt 0.671810 0.000000
vt 0.671810 15.638580
vt 1.997740 15.638580
vt 1.997740 0.000000
vt 2.097500 0.000000
vt 2.669550 0.000000
vt 2.669550 15.638580
vt 0.000000 15.638580
vt 0.000000 0.000000
vt 0.946490 0.000000
vt 0.946490 15.638580
vt 4.924290 15.638580
vt 4.924290 0.000000
vt 5.870790 0.000000
vt 5.870790 15.638580
vt 27.273661 0.595180
vt 28.028641 13.032150
vt 27.273661 13.032150
vt 0.000000 0.000000
vt 0.754980 0.595180
vt 28.028641 0.000000
vt 0.754980 13.032150
vt 0.000000 13.032150
vt 0.000000 44.309299
vt 0.000000 0.000000
vt 0.606720 0.000000
vt 0.671810 0.000000
vt 0.671810 44.309299
vt 1.997740 44.309299
vt 1.997740 0.000000
vt 2.669550 0.000000
vt 2.669550 44.309299
vt 0.000000 44.309299
vt 0.000000 0.000000
vt 0.635180 0.000000
vt 0.635180 59.947868
vt 0.000000 59.947868
vt 16.546391 59.947868
vt 16.546391 0.000000
vt 16.769480 0.000000
vt 16.835150 0.000000
vt 17.175640 0.000000
vt 17.181580 59.947868
vt 27.565081 0.000000
vt 0.000000 0.000000
vt 0.000000 59.947868
vt 17.181580 0.000000
vn -0.9407 0.3391 0.0000
vn -0.9407 0.3392 0.0001
vn -0.9407 0.3392 -0.0001
vn -0.4749 -0.8800 0.0000
vn -0.4748 -0.8801 0.0000
vn -0.7845 -0.6201 0.0000
vn -0.7845 -0.6202 0.0000
vn -0.7844 -0.6202 0.0000
vn -0.7889 0.6145 0.0000
vn -0.7890 0.6143 0.0000
vn -0.8430 0.5380 0.0000
vn -0.8429 0.5380 0.0000
vn -0.5310 -0.8474 0.0000
vn -0.5309 -0.8474 0.0000
vn -0.5308 -0.8475 0.0000
vn -0.9034 0.4288 0.0000
vn -0.9034 0.4287 0.0000
vn -0.7922 0.6103 0.0000
vn -0.4873 -0.8732 0.0000
vn -0.8718 0.4898 0.0000
vn -0.8719 0.4896 0.0000
vn -0.8719 0.4897 0.0000
vn -0.6759 -0.7370 0.0000
vn -0.6763 -0.7366 0.0000
vn -0.6761 -0.7368 0.0000
vn 0.4744 0.8803 0.0000
vn -0.5750 -0.8182 0.0000
vn -0.5750 -0.8181 0.0000
vn -0.9013 0.4331 0.0000
vn -0.9014 0.4331 0.0000
vn 0.4657 0.8849 0.0000
vn 0.4658 0.8849 0.0000
vn -0.3963 -0.9181 0.0000
vn -0.3964 -0.9181 0.0000
vn 0.4809 0.8768 0.0000
vn 0.4808 0.8768 0.0000
vn 0.4811 0.8767 0.0000
vn 0.8732 -0.4874 0.0000
vn 0.8731 -0.4875 0.0000
vn -0.4795 -0.8776 0.0000
vn -0.4794 -0.8776 0.0000
vn 0.8764 -0.4816 0.0000
vn 0.8765 -0.4813 0.0000
vn 0.8803 -0.4744 0.0000
vn 0.8803 -0.4744 0.0001
vn 0.8803 -0.4743 0.0000
vn 0.8766 -0.4813 0.0000
vn 0.8877 -0.4604 0.0000
vn 0.8878 -0.4603 0.0000
vn 0.8876 -0.4605 -0.0000
vn -0.4748 -0.8801 0.0001
vn -0.4746 -0.8802 0.0000
vn -0.7846 -0.6200 0.0000
vn 0.8896 -0.4568 0.0000
s off
f 1/1/1 2/2/1 3/3/1
f 4/4/2 1/1/2 5/5/2
f 4/4/3 6/6/3 1/1/3
f 2/2/1 1/1/1 6/6/1
f 7/7/1 8/8/1 5/5/1
f 8/8/1 4/4/1 5/5/1
f 9/9/4 10/10/4 11/11/4
f 14/12/5 15/13/5 12/14/5
f 15/13/5 16/15/5 12/14/5
f 19/16/6 20/17/6 21/18/6
f 17/19/6 19/16/6 21/18/6
f 22/20/7 23/21/7 24/22/7
f 22/20/7 24/22/7 25/23/7
f 26/24/8 27/25/8 28/26/8
f 26/24/8 28/26/8 29/27/8
f 30/28/9 31/29/9 32/30/9
f 33/31/9 30/28/9 32/30/9
f 35/32/10 30/28/10 33/31/10
f 36/33/11 37/34/11 38/35/11
f 36/33/12 38/35/12 39/36/12
f 40/37/12 41/38/12 42/39/12
f 40/37/12 42/39/12 43/40/12
f 44/41/13 45/42/13 46/43/13
f 44/41/14 46/43/14 47/44/14
f 48/45/15 49/46/15 50/47/15
f 48/45/15 50/47/15 51/48/15
f 52/49/16 53/50/16 54/51/16
f 52/49/16 54/51/16 55/52/16
f 56/53/17 57/54/17 58/55/17
f 56/53/17 58/55/17 59/56/17
f 60/57/18 61/58/18 62/59/18
f 60/57/18 62/59/18 63/60/18
f 64/61/18 65/62/18 66/63/18
f 64/61/18 66/63/18 67/64/18
f 68/65/19 69/66/19 70/67/19
f 68/65/19 70/67/19 71/68/19
f 72/69/19 73/70/19 74/71/19
f 72/69/19 74/71/19 75/72/19
f 76/73/20 77/74/20 78/75/20
f 78/75/21 79/76/21 80/77/21
f 76/73/22 78/75/22 80/77/22
f 81/78/22 82/79/22 83/80/22
f 81/78/22 83/80/22 84/81/22
f 85/82/23 86/83/23 87/84/23
f 85/82/24 87/84/24 88/85/24
f 89/86/25 90/87/25 91/88/25
f 89/86/25 91/88/25 92/89/25
f 93/90/26 94/91/26 95/92/26
f 96/93/26 97/94/26 93/90/26
f 94/91/26 93/90/26 97/94/26
f 98/95/26 99/96/26 96/93/26
f 99/96/26 100/97/26 96/93/26
f 100/97/26 97/94/26 96/93/26
f 101/98/27 102/99/27 103/100/27
f 101/98/27 103/100/27 104/101/27
f 105/102/28 106/103/28 107/104/28
f 105/102/28 107/104/28 108/105/28
f 109/106/29 110/107/29 111/108/29
f 109/106/29 111/108/29 112/109/29
f 113/110/29 114/111/29 115/112/29
f 113/110/30 115/112/30 116/113/30
f 117/114/31 118/115/31 119/116/31
f 117/114/32 119/116/32 120/117/32
f 121/118/32 122/119/32 123/120/32
f 121/118/32 123/120/32 124/121/32
f 125/122/33 126/123/33 127/124/33
f 125/122/33 127/124/33 128/125/33
f 129/126/34 130/127/34 131/128/34
f 129/126/34 131/128/34 132/129/34
f 133/130/35 134/131/35 135/132/35
f 136/133/36 133/130/36 135/132/36
f 137/134/35 136/133/35 135/132/35
f 138/135/37 139/136/37 140/137/37
f 138/135/37 140/137/37 141/138/37
f 142/139/38 143/140/38 144/141/38
f 142/139/38 144/141/38 145/142/38
f 146/143/39 147/144/39 148/145/39
f 146/143/39 148/145/39 149/146/39
f 150/147/40 151/148/40 152/149/40
f 150/147/40 152/149/40 153/150/40
f 154/151/41 155/152/41 156/153/41
f 154/151/41 156/153/41 157/154/41
f 158/155/42 159/156/42 160/157/42
f 158/155/42 160/157/42 161/158/42
f 162/159/43 163/160/43 164/161/43
f 164/161/42 165/162/42 166/163/42
f 162/159/42 164/161/42 166/163/42
f 167/164/41 168/165/41 169/166/41
f 167/164/41 169/166/41 170/167/41
f 171/168/40 172/169/40 173/170/40
f 171/168/40 173/170/40 174/171/40
f 175/172/44 176/173/44 177/174/44
f 178/175/45 175/172/45 179/176/45
f 178/175/44 180/177/44 175/172/44
f 176/173/44 175/172/44 180/177/44
f 181/178/46 182/179/46 179/176/46
f 182/179/46 178/175/46 179/176/46
f 183/180/42 184/181/42 185/182/42
f 185/182/47 186/183/47 187/184/47
f 183/180/42 185/182/42 187/184/42
f 188/185/42 189/186/42 190/187/42
f 188/185/42 190/187/42 191/188/42
f 192/189/48 193/190/48 194/191/48
f 195/192/48 192/189/48 194/191/48
f 196/193/48 192/189/48 195/192/48
f 197/194/49 198/195/49 199/196/49
f 197/194/50 199/196/50 200/197/50
f 200/197/50 201/198/50 202/199/50
f 197/194/48 200/197/48 202/199/48
s 1
f 12/14/5 13/200/51 9/9/5
f 10/10/52 9/9/5 13/200/51
f 16/15/5 13/200/51 12/14/5
f 17/19/53 18/201/53 19/16/53
f 33/31/9 32/30/9 34/202/9
f 201/198/54 203/203/54 202/199/54
