# Blender v3.0.1 OBJ File: 'rockerfeller_plaza.blend'
# www.blender.org
o geometryt000010000010000110010110000110000100110010010110st75
v 16.148870 -141.564697 19.856560
v 21.601440 -144.529099 19.856560
v 21.601440 -144.529099 36.525139
v 16.148870 -141.564697 36.525139
v 23.367500 -145.489197 19.856560
v 28.820061 -148.453598 19.856560
v 28.820061 -148.453598 36.525139
v 23.367500 -145.489197 36.525139
v 20.025551 -133.713196 19.856560
v 16.319580 -140.528595 19.856560
v 16.319580 -140.528595 36.525139
v 20.025551 -133.713196 36.525139
v 25.008301 -135.289200 36.525139
v 25.008301 -135.289200 19.856560
v 20.917351 -133.068695 19.856560
v 20.917351 -133.068695 36.525139
v 27.632999 -119.701797 36.525139
v 27.632999 -119.701797 19.856560
v 24.672800 -125.156601 19.856560
v 24.672800 -125.156601 36.525139
v 24.831480 -126.327003 19.856560
v 27.556299 -127.811897 19.856560
v 27.556299 -127.811897 36.525139
v 24.831480 -126.327003 36.525139
v 28.660749 -129.566498 36.525139
v 28.660749 -129.566498 19.856560
v 25.696461 -135.019104 19.856560
v 25.696461 -135.019104 36.525139
v 33.842831 -121.994003 19.856560
v 28.390100 -119.029999 19.856560
v 28.390100 -119.029999 36.525139
v 33.842831 -121.994003 36.525139
v 36.108082 -123.225403 36.525139
v 36.108082 -123.225403 19.856560
v 34.744900 -122.484398 19.856560
v 34.744900 -122.484398 36.525139
v 42.462872 -126.679802 36.525139
v 42.462872 -126.679802 19.856560
v 37.010139 -123.715698 19.856560
v 37.010139 -123.715698 36.525139
v 29.563959 -147.803604 19.856560
v 30.302271 -146.438995 19.856560
v 30.302271 -146.438995 36.525139
v 29.563959 -147.803604 36.525139
v 31.536011 -146.057007 36.525139
v 31.536011 -146.057007 19.856560
v 32.897900 -146.800400 19.856560
v 32.897900 -146.800400 36.525139
v 33.591660 -148.496994 19.856560
v 39.044991 -151.459900 19.856560
v 39.044991 -151.459900 36.525139
v 33.591660 -148.496994 36.525139
v 37.797798 -135.993195 36.525139
v 37.797798 -135.993195 19.856560
v 38.538239 -134.629700 19.856560
v 38.538239 -134.629700 36.525139
v 39.088909 -133.615707 36.525139
v 39.088909 -133.615707 19.856560
v 41.310242 -129.525208 19.856560
v 41.310242 -129.525208 36.525139
v 41.860901 -128.511200 36.525139
v 41.860901 -128.511200 19.856560
v 42.601341 -127.147697 19.856560
v 42.601341 -127.147697 36.525139
v 39.779640 -137.466904 19.856560
v 38.417439 -136.724106 19.856560
v 38.417439 -136.724106 36.525139
v 39.779640 -137.466904 36.525139
v 40.215248 -141.827194 19.856560
v 39.139679 -141.243301 19.856560
v 39.139679 -141.243301 36.525139
v 40.215248 -141.827194 36.525139
v 39.330261 -140.168503 19.856560
v 40.070148 -138.804703 19.856560
v 40.070148 -138.804703 36.525139
v 39.330261 -140.168503 36.525139
v 40.733131 -151.568893 19.856560
v 42.095490 -152.311401 19.856560
v 42.095490 -152.311401 36.525139
v 40.733131 -151.568893 36.525139
v 44.540451 -142.431793 19.856560
v 41.815979 -140.946304 19.856560
v 41.815979 -140.946304 36.525139
v 44.540451 -142.431793 36.525139
v 42.658489 -153.408096 36.525139
v 42.658489 -153.408096 19.856560
v 41.916550 -154.770798 19.856560
v 41.916550 -154.770798 36.525139
v 41.888039 -155.544601 19.856560
v 47.340939 -158.508301 19.856560
v 47.340939 -158.508301 36.525139
v 41.888039 -155.544601 36.525139
v 49.989792 -159.947998 36.525139
v 49.989792 -159.947998 19.856560
v 55.442692 -162.911697 19.856560
v 55.442692 -162.911697 36.525139
v 46.745880 -139.706894 19.856560
v 45.266769 -142.434906 19.856560
v 45.266769 -142.434906 36.525139
v 46.745880 -139.706894 36.525139
v 49.625160 -134.396606 36.525139
v 49.625160 -134.396606 19.856560
v 47.406502 -138.488495 19.856560
v 47.406502 -138.488495 36.525139
v 51.764889 -130.450302 36.525139
v 51.764889 -130.450302 19.856560
v 50.285782 -133.178207 19.856560
v 50.285782 -133.178207 36.525139
v 57.685539 -133.275101 36.525139
v 57.685539 -133.275101 22.225140
v 52.232460 -130.311707 22.225140
v 52.232460 -130.311707 36.525139
v 60.982601 -135.066895 36.525139
v 60.982601 -135.066895 22.225140
v 59.619331 -134.326004 22.225140
v 59.619331 -134.326004 36.525139
v 68.369461 -139.081207 36.525139
v 68.369461 -139.081207 22.225140
v 64.334961 -136.888702 22.225140
v 62.916389 -136.117798 36.525139
v 62.916389 -136.117798 22.225140
v 55.910309 -162.773193 19.856560
v 58.869530 -157.317902 19.856560
v 58.869530 -157.317902 36.525139
v 55.910309 -162.773193 36.525139
v 59.244709 -156.626297 19.856560
v 61.464119 -152.534698 19.856560
v 61.464119 -152.534698 36.525139
v 59.244709 -156.626297 36.525139
v 61.839298 -151.843094 19.856560
v 62.579102 -150.479294 19.856560
v 62.579102 -150.479294 36.525139
v 61.839298 -151.843094 36.525139
v 62.954281 -149.787598 36.525139
v 62.954281 -149.787598 19.856560
v 65.173698 -145.696106 19.856560
v 65.173698 -145.696106 36.525139
v 65.548866 -145.004501 36.525139
v 65.548866 -145.004501 19.856560
v 68.508087 -139.549194 19.856560
v 68.508087 -139.549194 36.525139
vt 0.000000 0.000000
vt 1.000000 0.000000
vt 1.000000 2.500000
vt 0.000000 2.500000
vt 0.000000 0.000000
vt 1.000000 0.000000
vt 1.000000 2.500000
vt 0.000000 2.500000
vt 0.000000 0.000000
vt 1.250000 0.000000
vt 1.250000 2.500000
vt 0.000000 2.500000
vt 0.000000 2.500000
vt 0.000000 0.000000
vt 0.750000 0.000000
vt 0.750000 2.500000
vt 0.000000 2.500000
vt 0.000000 0.000000
vt 1.000000 0.000000
vt 1.000000 2.500000
vt 0.000000 0.000000
vt 0.500000 0.000000
vt 0.500000 2.500000
vt 0.000000 2.500000
vt 0.000000 2.500000
vt 0.000000 0.000000
vt 1.000000 0.000000
vt 1.000000 2.500000
vt 0.000000 0.000000
vt 1.000000 0.000000
vt 1.000000 2.500000
vt 0.000000 2.500000
vt 0.000000 2.500000
vt 0.000000 0.000000
vt 0.250000 0.000000
vt 0.250000 2.500000
vt 0.000000 2.500000
vt 0.000000 0.000000
vt 1.000000 0.000000
vt 1.000000 2.500000
vt 0.000000 0.000000
vt 0.250000 0.000000
vt 0.250000 2.500000
vt 0.000000 2.500000
vt 0.000000 2.500000
vt 0.000000 0.000000
vt 0.250000 0.000000
vt 0.250000 2.500000
vt 0.000000 0.000000
vt 1.000000 0.000000
vt 1.000000 2.500000
vt 0.000000 2.500000
vt 0.000000 2.500000
vt 0.000000 0.000000
vt 0.250000 0.000000
vt 0.250000 2.500000
vt 0.000000 2.500000
vt 0.000000 0.000000
vt 0.750000 0.000000
vt 0.750000 2.500000
vt 0.000000 2.500000
vt 0.000000 0.000000
vt 0.250000 0.000000
vt 0.250000 2.500000
vt 0.000000 0.000000
vt 0.250000 0.000000
vt 0.250000 2.500000
vt 0.000000 2.500000
vt 0.000000 0.000000
vt 0.250000 0.000000
vt 0.250000 2.500000
vt 0.000000 2.500000
vt 0.000000 0.000000
vt 0.250000 0.000000
vt 0.250000 2.500000
vt 0.000000 2.500000
vt 0.000000 0.000000
vt 0.250000 0.000000
vt 0.250000 2.500000
vt 0.000000 2.500000
vt 0.000000 0.000000
vt 0.500000 0.000000
vt 0.500000 2.500000
vt 0.000000 2.500000
vt 0.000000 2.500000
vt 0.000000 0.000000
vt 0.250000 0.000000
vt 0.250000 2.500000
vt 0.000000 0.000000
vt 1.000000 0.000000
vt 1.000000 2.500000
vt 0.000000 2.500000
vt 0.000000 2.500000
vt 0.000000 0.000000
vt 1.000000 0.000000
vt 1.000000 2.500000
vt 0.000000 0.000000
vt 0.500000 0.000000
vt 0.500000 2.500000
vt 0.000000 2.500000
vt 0.000000 2.500000
vt 0.000000 0.000000
vt 0.750000 0.000000
vt 0.750000 2.500000
vt 0.000000 2.500000
vt 0.000000 0.000000
vt 0.500000 0.000000
vt 0.500000 2.500000
vt 0.000000 2.000000
vt 0.000000 0.000000
vt 1.000000 0.000000
vt 1.000000 2.000000
vt 0.000000 2.000000
vt 0.000000 0.000000
vt 0.250000 0.000000
vt 0.250000 2.000000
vt 0.000000 2.000000
vt 0.000000 0.000000
vt 0.739860 0.000000
vt 1.000000 2.000000
vt 1.000000 0.000000
vt 0.000000 0.000000
vt 1.000000 0.000000
vt 1.000000 2.500000
vt 0.000000 2.500000
vt 0.000000 2.500000
vt 0.000000 0.000000
vt 0.750000 0.000000
vt 0.750000 2.500000
vt 0.000000 2.500000
vt 0.000000 0.000000
vt 1.000000 0.000000
vt 1.000000 2.500000
vt 0.000000 0.000000
vt 0.750000 0.000000
vt 0.750000 2.500000
vt 0.000000 2.500000
vt 0.000000 0.000000
vt 0.250000 0.000000
vt 0.250000 2.500000
vt 0.000000 2.500000
vn -0.4776 -0.8786 0.0000
vn -0.8785 0.4777 0.0000
vn 0.4770 0.8789 0.0000
vn -0.8789 0.4770 0.0000
vn -0.4785 -0.8781 0.0000
vn -0.8786 0.4776 0.0000
vn 0.4776 0.8786 0.0000
vn 0.8795 -0.4759 0.0000
vn -0.4791 -0.8777 0.0000
vn -0.4774 -0.8787 0.0000
vn 0.8788 -0.4772 0.0000
vn 0.4787 0.8780 0.0000
vn 0.4771 0.8788 0.0000
vn 0.8790 -0.4769 0.0000
vn -0.4786 -0.8781 0.0000
vn -0.8783 0.4782 0.0000
vn -0.4775 -0.8786 0.0000
vn -0.8791 0.4766 0.0000
vn -0.8791 0.4767 0.0000
vn 0.4775 0.8786 0.0000
vn 0.8790 -0.4768 0.0000
s off
f 1/1/1 2/2/1 3/3/1
f 4/4/1 1/1/1 3/3/1
f 5/5/1 6/6/1 7/7/1
f 8/8/1 5/5/1 7/7/1
f 9/9/2 10/10/2 11/11/2
f 12/12/2 9/9/2 11/11/2
f 13/13/3 14/14/3 15/15/3
f 13/13/3 15/15/3 16/16/3
f 17/17/4 18/18/4 19/19/4
f 17/17/4 19/19/4 20/20/4
f 21/21/5 22/22/5 23/23/5
f 24/24/5 21/21/5 23/23/5
f 25/25/6 26/26/6 27/27/6
f 25/25/6 27/27/6 28/28/6
f 29/29/7 30/30/7 31/31/7
f 32/32/7 29/29/7 31/31/7
f 33/33/7 34/34/7 35/35/7
f 33/33/7 35/35/7 36/36/7
f 37/37/7 38/38/7 39/39/7
f 37/37/7 39/39/7 40/40/7
f 41/41/8 42/42/8 43/43/8
f 44/44/8 41/41/8 43/43/8
f 45/45/9 46/46/9 47/47/9
f 45/45/9 47/47/9 48/48/9
f 49/49/10 50/50/10 51/51/10
f 52/52/10 49/49/10 51/51/10
f 53/53/11 54/54/11 55/55/11
f 53/53/11 55/55/11 56/56/11
f 57/57/11 58/58/11 59/59/11
f 57/57/11 59/59/11 60/60/11
f 61/61/11 62/62/11 63/63/11
f 61/61/11 63/63/11 64/64/11
f 65/65/12 66/66/12 67/67/12
f 68/68/12 65/65/12 67/67/12
f 69/69/13 70/70/13 71/71/13
f 72/72/13 69/69/13 71/71/13
f 73/73/14 74/74/14 75/75/14
f 76/76/14 73/73/14 75/75/14
f 77/77/15 78/78/15 79/79/15
f 80/80/15 77/77/15 79/79/15
f 81/81/12 82/82/12 83/83/12
f 84/84/12 81/81/12 83/83/12
f 85/85/16 86/86/16 87/87/16
f 85/85/16 87/87/16 88/88/16
f 89/89/17 90/90/17 91/91/17
f 92/92/17 89/89/17 91/91/17
f 93/93/17 94/94/17 95/95/17
f 93/93/17 95/95/17 96/96/17
f 97/97/18 98/98/18 99/99/18
f 100/100/18 97/97/18 99/99/18
f 101/101/19 102/102/19 103/103/19
f 101/101/19 103/103/19 104/104/19
f 105/105/19 106/106/19 107/107/19
f 105/105/19 107/107/19 108/108/19
f 109/109/20 110/110/20 111/111/20
f 109/109/20 111/111/20 112/112/20
f 113/113/20 114/114/20 115/115/20
f 113/113/20 115/115/20 116/116/20
f 117/117/20 118/118/20 119/119/20
f 120/120/20 119/119/20 121/121/20
f 120/120/20 117/117/20 119/119/20
f 122/122/21 123/123/21 124/124/21
f 125/125/21 122/122/21 124/124/21
f 134/126/21 135/127/21 136/128/21
f 134/126/21 136/128/21 137/129/21
f 138/130/21 139/131/21 140/132/21
f 138/130/21 140/132/21 141/133/21
s 1
f 126/134/21 127/135/21 128/136/21
f 129/137/21 126/134/21 128/136/21
f 130/138/21 131/139/21 132/140/21
f 133/141/21 130/138/21 132/140/21
