# Blender v3.0.1 OBJ File: 'rockerfeller_plaza.blend'
# www.blender.org
o geometryt000010000010000110010110000110000100110010010110st97_2
v 139.732605 -173.695801 20.864180
v 142.537292 -175.203201 20.864180
v 142.537292 -175.203201 225.156494
v 139.732605 -173.695801 225.156494
v 142.984695 -175.443695 225.156494
v 142.984695 -175.443695 20.864180
v 144.387100 -176.197403 20.864180
v 144.387100 -176.197403 225.156494
v 144.834503 -176.437897 225.156494
v 144.834503 -176.437897 20.864180
v 149.041504 -178.699097 20.864180
v 149.041504 -178.699097 225.156494
v 149.488907 -178.939499 225.156494
v 149.488907 -178.939499 20.864180
v 150.891296 -179.693298 20.864180
v 150.891296 -179.693298 225.156494
v 151.338593 -179.933701 20.864180
v 154.143295 -181.441193 20.864180
v 154.143295 -181.441193 225.156494
v 151.338593 -179.933701 225.156494
v 154.590698 -181.681595 225.156494
v 154.590698 -181.681595 20.864180
v 155.993103 -182.435394 20.864180
v 155.993103 -182.435394 225.156494
v 156.440506 -182.675797 225.156494
v 156.440506 -182.675797 20.864180
v 159.245193 -184.183304 20.864180
v 159.245193 -184.183304 225.156494
v 159.692596 -184.423706 225.156494
v 159.692596 -184.423706 20.864180
v 161.094894 -185.177505 20.864180
v 161.094894 -185.177505 225.156494
v 161.542297 -185.417892 20.864180
v 165.749405 -187.679092 20.864180
v 165.749405 -187.679092 225.156494
v 161.542297 -185.417892 225.156494
v 166.196701 -187.919601 225.156494
v 166.196701 -187.919601 20.864180
v 167.599106 -188.673294 20.864180
v 167.599106 -188.673294 225.156494
v 168.046494 -188.913696 225.156494
v 168.046494 -188.913696 20.864180
v 170.851196 -190.421204 20.864180
v 170.851196 -190.421204 225.156494
v 141.110107 -170.429504 225.156494
v 141.110107 -170.429504 20.864180
v 139.593094 -173.229095 20.864180
v 139.593094 -173.229095 225.156494
v 142.229797 -168.363098 225.156494
v 142.229797 -168.363098 20.864180
v 141.471298 -169.762894 20.864180
v 141.471298 -169.762894 225.156494
v 144.866501 -163.497101 225.156494
v 144.866501 -163.497101 20.864180
v 142.591003 -167.696503 20.864180
v 142.591003 -167.696503 225.156494
v 145.986206 -161.430695 20.864180
v 145.227707 -162.830505 20.864180
v 145.227707 -162.830505 225.156494
v 145.986206 -161.430695 225.156494
v 147.105896 -159.364304 225.156494
v 147.105896 -159.364304 20.864180
v 146.347397 -160.764099 20.864180
v 146.347397 -160.764099 225.156494
v 148.225601 -157.297897 225.156494
v 148.225601 -157.297897 20.864180
v 147.467102 -158.697693 20.864180
v 147.467102 -158.697693 225.156494
v 150.862198 -152.431900 225.156494
v 150.862198 -152.431900 20.864180
v 148.586807 -156.631302 20.864180
v 148.586807 -156.631302 225.156494
v 151.981903 -150.365494 225.156494
v 151.981903 -150.365494 20.864180
v 151.223495 -151.765305 20.864180
v 151.223495 -151.765305 225.156494
v 153.860107 -146.899307 225.156494
v 153.860107 -146.899307 20.864180
v 152.343201 -149.698898 20.864180
v 152.343201 -149.698898 225.156494
v 157.133102 -148.266800 20.864180
v 154.328400 -146.759293 20.864180
v 154.328400 -146.759293 225.156494
v 157.133102 -148.266800 225.156494
v 158.982803 -149.260895 20.864180
v 157.580505 -148.507202 20.864180
v 157.580505 -148.507202 225.156494
v 158.982803 -149.260895 225.156494
v 163.637299 -151.762604 20.864180
v 159.430206 -149.501404 20.864180
v 159.430206 -149.501404 225.156494
v 163.637299 -151.762604 225.156494
v 165.487000 -152.756805 225.156494
v 165.487000 -152.756805 20.864180
v 164.084595 -152.003006 20.864180
v 164.084595 -152.003006 225.156494
v 168.739105 -154.504700 225.156494
v 168.739105 -154.504700 20.864180
v 165.934402 -152.997192 20.864180
v 165.934402 -152.997192 225.156494
v 170.588806 -155.498901 225.156494
v 170.588806 -155.498901 20.864180
v 169.186401 -154.745102 20.864180
v 169.186401 -154.745102 225.156494
v 173.840897 -157.246796 225.156494
v 173.840897 -157.246796 20.864180
v 171.036194 -155.739304 20.864180
v 171.036194 -155.739304 225.156494
v 175.690598 -158.240906 20.864180
v 174.288193 -157.487198 20.864180
v 174.288193 -157.487198 225.156494
v 175.690598 -158.240906 225.156494
v 180.345001 -160.742599 20.864180
v 176.138000 -158.481400 20.864180
v 176.138000 -158.481400 225.156494
v 180.345001 -160.742599 225.156494
v 182.194794 -161.736801 225.156494
v 182.194794 -161.736801 20.864180
v 180.792404 -160.983002 20.864180
v 180.792404 -160.983002 225.156494
v 185.446899 -163.484695 20.864180
v 182.642105 -161.977203 20.864180
v 182.642105 -161.977203 225.156494
v 185.446899 -163.484695 225.156494
v 171.319397 -190.281204 20.864180
v 172.836395 -187.481598 20.864180
v 172.836395 -187.481598 225.156494
v 171.319397 -190.281204 225.156494
v 173.197601 -186.815002 225.156494
v 173.197601 -186.815002 20.864180
v 173.956100 -185.415207 20.864180
v 173.956100 -185.415207 225.156494
v 174.317307 -184.748596 20.864180
v 176.592804 -180.549194 20.864180
v 176.592804 -180.549194 225.156494
v 174.317307 -184.748596 225.156494
v 176.953995 -179.882599 225.156494
v 176.953995 -179.882599 20.864180
v 177.712494 -178.482803 20.864180
v 177.712494 -178.482803 225.156494
v 178.073700 -177.816193 225.156494
v 178.073700 -177.816193 20.864180
v 178.832108 -176.416397 20.864180
v 178.832108 -176.416397 225.156494
v 179.193405 -175.749695 20.864180
v 179.951797 -174.350006 20.864180
v 179.951797 -174.350006 225.156494
v 179.193405 -175.749695 225.156494
v 180.313095 -173.683304 225.156494
v 180.313095 -173.683304 20.864180
v 182.588501 -169.483994 20.864180
v 182.588501 -169.483994 225.156494
v 182.949707 -168.817307 225.156494
v 182.949707 -168.817307 20.864180
v 183.708206 -167.417496 20.864180
v 183.708206 -167.417496 225.156494
v 184.069397 -166.750900 225.156494
v 184.069397 -166.750900 20.864180
v 185.586395 -163.951294 20.864180
v 185.586395 -163.951294 225.156494
vt 0.000000 0.000000
vt 0.125000 0.000000
vt 0.125000 15.250000
vt 0.000000 15.250000
vt 0.000000 15.250000
vt 0.000000 0.000000
vt 0.062500 0.000000
vt 0.062500 15.250000
vt 0.000000 15.250000
vt 0.000000 0.000000
vt 0.187500 0.000000
vt 0.187500 15.250000
vt 0.000000 15.250000
vt 0.000000 0.000000
vt 0.062500 0.000000
vt 0.062500 15.250000
vt 0.000000 0.000000
vt 0.125000 0.000000
vt 0.125000 15.250000
vt 0.000000 15.250000
vt 0.000000 15.250000
vt 0.000000 0.000000
vt 0.062500 0.000000
vt 0.062500 15.250000
vt 0.000000 15.250000
vt 0.000000 0.000000
vt 0.125000 0.000000
vt 0.125000 15.250000
vt 0.000000 15.250000
vt 0.000000 0.000000
vt 0.062500 0.000000
vt 0.062500 15.250000
vt 0.000000 0.000000
vt 0.187500 0.000000
vt 0.187500 15.250000
vt 0.000000 15.250000
vt 0.000000 15.250000
vt 0.000000 0.000000
vt 0.062500 0.000000
vt 0.062500 15.250000
vt 0.000000 15.250000
vt 0.000000 0.000000
vt 0.125000 0.000000
vt 0.125000 15.250000
vt 0.000000 15.250000
vt 0.000000 0.000000
vt 0.125000 0.000000
vt 0.125000 15.250000
vt 0.000000 15.250000
vt 0.000000 0.000000
vt 0.062500 0.000000
vt 0.062500 15.250000
vt 0.000000 15.250000
vt 0.000000 0.000000
vt 0.187500 0.000000
vt 0.187500 15.250000
vt 0.000000 0.000000
vt 0.062500 0.000000
vt 0.062500 15.250000
vt 0.000000 15.250000
vt 0.000000 15.250000
vt 0.000000 0.000000
vt 0.062500 0.000000
vt 0.062500 15.250000
vt 0.000000 15.250000
vt 0.000000 0.000000
vt 0.062500 0.000000
vt 0.062500 15.250000
vt 0.000000 15.250000
vt 0.000000 0.000000
vt 0.187500 0.000000
vt 0.187500 15.250000
vt 0.000000 15.250000
vt 0.000000 0.000000
vt 0.062500 0.000000
vt 0.062500 15.250000
vt 0.000000 15.250000
vt 0.000000 0.000000
vt 0.125000 0.000000
vt 0.125000 15.250000
vt 0.000000 0.000000
vt 0.125000 0.000000
vt 0.125000 15.250000
vt 0.000000 15.250000
vt 0.000000 0.000000
vt 0.062500 0.000000
vt 0.062500 15.250000
vt 0.000000 15.250000
vt 0.000000 0.000000
vt 0.187500 0.000000
vt 0.187500 15.250000
vt 0.000000 15.250000
vt 0.000000 15.250000
vt 0.000000 0.000000
vt 0.062500 0.000000
vt 0.062500 15.250000
vt 0.000000 15.250000
vt 0.000000 0.000000
vt 0.125000 0.000000
vt 0.125000 15.250000
vt 0.000000 15.250000
vt 0.000000 0.000000
vt 0.062500 0.000000
vt 0.062500 15.250000
vt 0.000000 15.250000
vt 0.000000 0.000000
vt 0.125000 0.000000
vt 0.125000 15.250000
vt 0.000000 0.000000
vt 0.062500 0.000000
vt 0.062500 15.250000
vt 0.000000 15.250000
vt 0.000000 0.000000
vt 0.187500 0.000000
vt 0.187500 15.250000
vt 0.000000 15.250000
vt 0.000000 15.250000
vt 0.000000 0.000000
vt 0.062500 0.000000
vt 0.062500 15.250000
vt 0.000000 0.000000
vt 0.125000 0.000000
vt 0.125000 15.250000
vt 0.000000 15.250000
vt 0.000000 0.000000
vt 0.125000 0.000000
vt 0.125000 15.250000
vt 0.000000 15.250000
vt 0.000000 15.250000
vt 0.000000 0.000000
vt 0.062500 0.000000
vt 0.062500 15.250000
vt 0.000000 0.000000
vt 0.187500 0.000000
vt 0.187500 15.250000
vt 0.000000 15.250000
vt 0.000000 15.250000
vt 0.000000 0.000000
vt 0.062500 0.000000
vt 0.062500 15.250000
vt 0.000000 15.250000
vt 0.000000 0.000000
vt 0.062500 0.000000
vt 0.062500 15.250000
vt 0.000000 0.000000
vt 0.062500 0.000000
vt 0.062500 15.250000
vt 0.000000 15.250000
vt 0.000000 15.250000
vt 0.000000 0.000000
vt 0.187500 0.000000
vt 0.187500 15.250000
vt 0.000000 15.250000
vt 0.000000 0.000000
vt 0.062500 0.000000
vt 0.062500 15.250000
vt 0.000000 15.250000
vt 0.000000 0.000000
vt 0.125000 0.000000
vt 0.125000 15.250000
vn -0.4734 -0.8808 0.0000
vn -0.4735 -0.8808 0.0000
vn -0.4734 -0.8809 0.0000
vn -0.8792 0.4764 0.0000
vn 0.4734 0.8808 0.0000
vn 0.4735 0.8808 0.0000
vn 0.8792 -0.4764 0.0000
vn 0.8793 -0.4764 0.0000
s off
f 1/1/1 2/2/1 3/3/1
f 4/4/1 1/1/1 3/3/1
f 5/5/1 6/6/1 7/7/1
f 5/5/1 7/7/1 8/8/1
f 9/9/1 10/10/1 11/11/1
f 9/9/1 11/11/1 12/12/1
f 13/13/2 14/14/2 15/15/2
f 13/13/1 15/15/1 16/16/1
f 17/17/1 18/18/1 19/19/1
f 20/20/1 17/17/1 19/19/1
f 21/21/1 22/22/1 23/23/1
f 21/21/1 23/23/1 24/24/1
f 25/25/1 26/26/1 27/27/1
f 25/25/1 27/27/1 28/28/1
f 29/29/2 30/30/2 31/31/2
f 29/29/2 31/31/2 32/32/2
f 33/33/1 34/34/1 35/35/1
f 36/36/1 33/33/1 35/35/1
f 37/37/3 38/38/3 39/39/3
f 37/37/3 39/39/3 40/40/3
f 41/41/1 42/42/1 43/43/1
f 41/41/1 43/43/1 44/44/1
f 45/45/4 46/46/4 47/47/4
f 45/45/4 47/47/4 48/48/4
f 49/49/4 50/50/4 51/51/4
f 49/49/4 51/51/4 52/52/4
f 53/53/4 54/54/4 55/55/4
f 53/53/4 55/55/4 56/56/4
f 57/57/4 58/58/4 59/59/4
f 60/60/4 57/57/4 59/59/4
f 61/61/4 62/62/4 63/63/4
f 61/61/4 63/63/4 64/64/4
f 65/65/4 66/66/4 67/67/4
f 65/65/4 67/67/4 68/68/4
f 69/69/4 70/70/4 71/71/4
f 69/69/4 71/71/4 72/72/4
f 73/73/4 74/74/4 75/75/4
f 73/73/4 75/75/4 76/76/4
f 77/77/4 78/78/4 79/79/4
f 77/77/4 79/79/4 80/80/4
f 81/81/5 82/82/5 83/83/5
f 84/84/5 81/81/5 83/83/5
f 85/85/5 86/86/5 87/87/5
f 88/88/5 85/85/5 87/87/5
f 89/89/5 90/90/5 91/91/5
f 92/92/5 89/89/5 91/91/5
f 93/93/5 94/94/5 95/95/5
f 93/93/5 95/95/5 96/96/5
f 97/97/5 98/98/5 99/99/5
f 97/97/5 99/99/5 100/100/5
f 101/101/5 102/102/5 103/103/5
f 101/101/5 103/103/5 104/104/5
f 105/105/5 106/106/5 107/107/5
f 105/105/5 107/107/5 108/108/5
f 109/109/5 110/110/5 111/111/5
f 112/112/5 109/109/5 111/111/5
f 113/113/5 114/114/5 115/115/5
f 116/116/5 113/113/5 115/115/5
f 117/117/5 118/118/5 119/119/5
f 117/117/6 119/119/6 120/120/6
f 121/121/5 122/122/5 123/123/5
f 124/124/5 121/121/5 123/123/5
f 125/125/7 126/126/7 127/127/7
f 128/128/7 125/125/7 127/127/7
f 129/129/7 130/130/7 131/131/7
f 129/129/7 131/131/7 132/132/7
f 133/133/7 134/134/7 135/135/7
f 136/136/7 133/133/7 135/135/7
f 137/137/7 138/138/7 139/139/7
f 137/137/7 139/139/7 140/140/7
f 141/141/7 142/142/7 143/143/7
f 141/141/8 143/143/8 144/144/8
f 145/145/7 146/146/7 147/147/7
f 148/148/7 145/145/7 147/147/7
f 149/149/7 150/150/7 151/151/7
f 149/149/7 151/151/7 152/152/7
f 153/153/7 154/154/7 155/155/7
f 153/153/7 155/155/7 156/156/7
f 157/157/7 158/158/7 159/159/7
f 157/157/7 159/159/7 160/160/7
