# Blender v3.0.1 OBJ File: 'rockerfeller_plaza.blend'
# www.blender.org
o geometryt000010000010000110010110000110000110100000110110st46_8
v 1218.668213 -322.200195 735.267822
v 1212.502197 -325.115814 735.267822
v 1215.121948 -320.300018 735.267822
v 1247.090820 -343.817413 735.267822
v 1231.233521 -316.258698 735.267822
v 1241.777222 -334.582794 735.267822
v 1243.892578 -335.189819 735.267822
v 1261.612427 -304.211395 735.267822
v 1234.580200 -310.068909 735.267822
v 1261.768921 -303.921417 735.267822
v 1244.136108 -335.846802 735.267822
v 1243.256592 -294.002106 735.267822
v 1245.611694 -289.655701 735.267822
v 1269.409912 -302.521820 735.267822
v 1244.441284 -336.010315 735.267822
v 1220.435303 -310.467804 735.267822
v 1215.121948 -320.300018 775.267822
v 1212.502197 -325.115814 775.267822
v 1218.668213 -322.200195 775.267822
v 1222.544556 -324.277313 775.267822
v 1247.090820 -343.817413 775.267822
v 1241.777222 -334.582794 775.267822
v 1244.136108 -335.846802 775.267822
v 1245.611694 -289.655701 775.267822
v 1243.256592 -294.002106 775.267822
v 1269.409912 -302.521820 775.267822
v 1257.082275 -301.410217 775.267822
v 1244.441284 -336.010315 775.267822
v 1248.827881 -327.886505 775.267822
v 1261.612427 -304.211395 775.267822
v 1261.768921 -303.921417 775.267822
v 1220.435303 -310.467804 893.267822
v 1215.121948 -320.300018 893.267822
v 1231.233521 -316.258698 893.267822
v 1244.441284 -336.010315 893.267822
v 1234.580200 -310.068909 893.267822
v 1243.256592 -294.002106 893.267822
v 1261.768921 -303.921417 893.267822
vt 0.516970 0.431800
vt 0.524240 0.419300
vt 0.514640 0.424690
vt 0.547270 0.488570
vt 0.502170 0.457260
vt 0.532160 0.478080
vt 0.532590 0.482320
vt 0.470590 0.518770
vt 0.489840 0.464150
vt 0.470010 0.519090
vt 0.533710 0.482800
vt 0.457850 0.482020
vt 0.449190 0.486870
vt 0.465030 0.534520
vt 0.533910 0.483410
vt 0.495060 0.435630
vt 0.514640 0.424690
vt 0.524240 0.419300
vt 0.516970 0.431800
vt 0.519520 0.439560
vt 0.547270 0.488570
vt 0.532160 0.478080
vt 0.533710 0.482800
vt 0.449190 0.486870
vt 0.457850 0.482020
vt 0.465030 0.534520
vt 0.466930 0.509710
vt 0.533910 0.483410
vt 0.517730 0.492440
vt 0.470590 0.518770
vt 0.470010 0.519090
vt 0.495060 0.435630
vt 0.514640 0.424690
vt 0.502170 0.457260
vt 0.533910 0.483410
vt 0.489840 0.464150
vt 0.457850 0.482020
vt 0.470010 0.519090
vn 0.0000 0.0000 -1.0000
vn -0.0001 0.0000 -1.0000
vn -0.0004 0.0000 -1.0000
vn -0.0003 0.0000 -1.0000
vn -0.0000 0.0000 1.0000
s off
f 1/1/1 2/2/1 3/3/1
f 1/1/1 4/4/1 2/2/1
f 5/5/1 6/6/1 1/1/1
f 4/4/1 1/1/1 6/6/1
f 5/5/2 7/7/2 6/6/2
f 8/8/1 9/9/1 10/10/1
f 6/6/1 7/7/1 11/11/1
f 6/6/1 11/11/1 4/4/1
f 12/12/1 13/13/1 14/14/1
f 10/10/1 12/12/1 14/14/1
f 7/7/3 15/15/3 11/11/3
f 11/11/1 15/15/1 4/4/1
f 8/8/1 4/4/1 15/15/1
f 8/8/1 14/14/1 4/4/1
f 8/8/1 10/10/1 14/14/1
f 5/5/1 1/1/1 3/3/1
f 5/5/1 3/3/1 16/16/1
f 7/7/1 5/5/1 9/9/1
f 9/9/1 12/12/1 10/10/1
f 9/9/4 15/15/4 7/7/4
f 15/15/1 9/9/1 8/8/1
f 17/17/5 18/18/5 19/19/5
f 19/19/5 18/18/5 20/20/5
f 20/20/5 18/18/5 21/21/5
f 22/22/5 20/20/5 21/21/5
f 23/23/5 22/22/5 21/21/5
f 24/24/5 25/25/5 26/26/5
f 26/26/5 25/25/5 27/27/5
f 28/28/5 23/23/5 21/21/5
f 29/29/5 28/28/5 21/21/5
f 21/21/5 30/30/5 29/29/5
f 26/26/5 30/30/5 21/21/5
f 26/26/5 27/27/5 31/31/5
f 26/26/5 31/31/5 30/30/5
f 32/32/5 33/33/5 34/34/5
f 34/34/5 33/33/5 35/35/5
f 36/36/5 34/34/5 35/35/5
f 37/37/5 36/36/5 38/38/5
f 38/38/5 36/36/5 35/35/5
