# Blender v3.0.1 OBJ File: 'rockerfeller_plaza.blend'
# www.blender.org
o geometryt000010000010000110010110000110000110100000010110st98_5
v 1027.300903 -242.072067 208.461670
v 1037.476074 -247.548065 214.425598
v 1027.542969 -242.202362 209.795761
v 1027.543091 -242.202469 209.796799
v 1028.255371 -242.585770 211.061096
v 1028.257568 -242.586868 211.064972
v 1029.400635 -243.202072 212.194946
v 1029.408325 -243.206268 212.202606
v 1030.920044 -244.019867 213.141632
v 1030.937866 -244.029373 213.152664
v 1032.737427 -244.997864 213.855026
v 1032.769409 -245.015076 213.867477
v 1034.762207 -246.087570 214.300629
v 1034.811035 -246.113876 214.311249
v 1036.894409 -247.234970 214.457047
v 1036.960571 -247.270569 214.461670
v 1037.537720 -247.581177 214.421280
v 1037.537720 -247.581177 208.461670
v 1056.040894 -189.033463 208.461670
v 1056.040894 -189.033463 208.461685
v 1056.040894 -189.033463 208.461685
v 1027.300903 -242.072067 208.461670
v 1059.718262 -191.008469 213.167770
v 1058.997070 -190.621170 212.728973
v 1059.679443 -190.987671 213.152664
v 1066.277466 -194.531372 214.421616
v 1066.277466 -194.531372 208.461670
v 1061.511841 -191.971771 213.867477
v 1061.542969 -191.988571 213.874252
v 1063.554443 -193.068863 214.311249
v 1063.573120 -193.078964 214.312561
v 1065.708862 -194.225967 214.461395
v 1065.704834 -194.223877 214.461670
v 1056.040894 -189.033463 208.461670
v 1056.040894 -189.033463 208.461685
v 1056.048950 -189.037674 208.505676
v 1056.283203 -189.163574 209.796799
v 1056.306152 -189.175873 209.837540
v 1056.997925 -189.547470 211.064972
v 1057.032227 -189.565872 211.098862
v 1058.149292 -190.165771 212.202606
v 1058.189209 -190.187271 212.227371
v 1036.995239 -247.289276 191.202240
v 1037.537720 -247.581177 208.461670
v 1036.995239 -247.289276 208.461670
v 1027.843384 -242.363968 191.202240
v 1037.537720 -247.581177 189.461670
v 1027.843384 -242.363968 208.461670
v 1027.300903 -242.072067 208.461670
v 1027.300903 -242.072067 189.461670
v 1056.581177 -189.323563 191.202240
v 1056.040894 -189.033463 208.461670
v 1056.581177 -189.323563 208.461670
v 1065.737305 -194.241272 191.202240
v 1056.040894 -189.033463 189.461670
v 1065.737305 -194.241272 208.461670
v 1066.277466 -194.531372 208.461670
v 1066.277466 -194.531372 189.461670
vt 0.000000 0.000000
vt 10.039220 5.181510
vt 0.238760 1.159070
vt 0.238950 1.159970
vt 0.941660 2.258400
vt 0.943820 2.261770
vt 2.071610 3.243510
vt 2.079260 3.250160
vt 3.570810 4.065990
vt 3.588330 4.075580
vt 5.363860 4.685790
vt 5.395370 4.696620
vt 7.361560 5.072930
vt 9.530510 5.212860
vt 9.465240 5.208840
vt 10.099970 5.177760
vt 10.099970 0.000000
vt 6.468730 4.088700
vt 7.179910 3.707470
vt 6.506920 4.075580
vt 0.000000 5.178050
vt 0.000000 0.000000
vt 4.699880 4.696620
vt 2.685480 5.082160
vt 4.669150 4.702500
vt 2.667010 5.083300
vt 0.560860 5.212620
vt 10.095250 0.000000
vt 10.095250 0.000000
vt 9.856301 1.159970
vt 10.087370 0.038220
vt 9.833661 1.195360
vt 9.151431 2.261770
vt 9.117610 2.291210
vt 8.015991 3.250160
vt 7.976670 3.271670
vt 9.564801 1.512220
vt 10.099970 16.507389
vt 9.564801 16.507389
vt 0.535170 1.512220
vt 10.099970 0.000000
vt 0.535170 16.507389
vt 0.000000 16.507389
vt 0.000000 0.000000
vt 9.562440 1.512220
vt 10.095250 16.507389
vt 9.562440 16.507389
vt 10.095250 0.000000
vt 0.532810 16.507389
vt 0.000000 16.507389
vt 0.532810 1.512220
vt 0.000000 0.000000
vt 7.409770 5.082160
vt 0.000000 0.000000
vt 0.000030 0.000000
vt 0.000000 0.000000
vt 52.410820 0.000000
vt 0.564750 5.212860
vn -0.4739 -0.8806 -0.0000
vn -0.4739 -0.8806 -0.0001
vn -0.4738 -0.8806 0.0003
vn -0.4752 -0.8799 -0.0030
vn -0.4725 -0.8813 0.0005
vn 0.4744 0.8803 -0.0005
vn 0.4733 0.8809 0.0000
vn 0.4732 0.8810 0.0000
vn 0.4732 0.8810 -0.0001
vn 0.4731 0.8810 -0.0003
vn 0.4731 0.8810 -0.0014
vn -0.0700 0.9975 0.0000
vn -0.1306 0.9914 0.0000
vn 0.4732 0.8810 0.0001
vn 0.4736 0.8808 -0.0008
vn 0.4732 0.8809 0.0000
vn -0.4738 -0.8806 0.0000
vn 0.4731 0.8810 0.0000
vn -0.4621 -0.8860 -0.0385
vn -0.4619 -0.8861 -0.0386
vn -0.4620 -0.8861 -0.0385
vn -0.4755 -0.8797 0.0086
vn -0.4755 -0.8797 0.0085
vn -0.4709 -0.8822 -0.0066
vn -0.4754 -0.8798 -0.0005
vn -0.4769 -0.8789 -0.0026
vn -0.4737 -0.8807 -0.0039
vn -0.4741 -0.8805 0.0002
vn -0.4737 -0.8807 -0.0038
vn -0.4740 -0.8805 0.0001
vn -0.5894 0.5972 0.5441
vn 0.0000 0.2318 0.2318
vn 0.0000 0.0000 0.0000
vn -0.0035 0.9363 0.3512
vn 0.4730 0.8810 0.0088
vn 0.4924 0.8643 0.1030
vn 0.4922 0.8640 0.1058
vn 0.4923 0.8641 0.1043
vn 0.4482 0.8825 0.1425
vn 0.4483 0.8825 0.1419
vn 0.4483 0.8825 0.1421
vn 0.4733 0.8809 -0.0006
vn 0.4726 0.8813 0.0002
vn 0.4721 0.8815 -0.0005
s off
f 1/1/1 2/2/1 3/3/1
f 4/4/1 2/2/1 5/5/1
f 6/6/1 2/2/1 7/7/1
f 8/8/2 2/2/2 9/9/2
f 10/10/1 2/2/1 11/11/1
f 12/12/3 2/2/3 13/13/3
f 2/2/4 16/14/4 15/15/4
f 2/2/5 1/1/5 17/16/5
f 1/1/1 18/17/1 17/16/1
f 23/18/6 24/19/6 25/20/6
f 23/18/7 26/21/7 24/19/7
f 27/22/8 24/19/8 26/21/8
f 28/23/9 26/21/9 23/18/9
f 30/24/10 26/21/10 29/25/10
f 26/21/11 31/26/11 32/27/11
f 27/22/12 34/28/13 35/29/13
f 37/30/14 27/22/14 36/31/14
f 27/22/8 38/32/8 39/33/8
f 40/34/15 27/22/15 39/33/15
f 41/35/8 27/22/8 40/34/8
f 27/22/16 42/36/16 24/19/16
f 43/37/17 44/38/17 45/39/17
f 46/40/1 47/41/1 43/37/1
f 44/38/1 43/37/1 47/41/1
f 48/42/17 49/43/17 46/40/17
f 49/43/1 50/44/1 46/40/1
f 50/44/1 47/41/1 46/40/1
f 51/45/18 52/46/18 53/47/18
f 52/46/18 51/45/18 55/48/18
f 56/49/18 57/50/18 54/51/18
f 57/50/8 58/52/8 54/51/8
f 58/52/8 55/48/8 54/51/8
s 1
f 3/3/19 2/2/20 4/4/21
f 5/5/22 2/2/22 6/6/23
f 7/7/24 2/2/24 8/8/24
f 9/9/25 2/2/25 10/10/25
f 11/11/26 2/2/26 12/12/26
f 13/13/27 2/2/28 14/53/29
f 14/53/29 2/2/28 15/15/30
f 19/54/31 20/55/32 21/56/33
f 19/54/31 22/57/34 20/55/32
f 29/25/35 26/21/35 28/23/35
f 26/21/36 30/24/37 31/26/38
f 32/27/39 31/26/40 33/58/41
f 36/31/42 27/22/42 35/29/42
f 38/32/43 27/22/43 37/30/43
f 42/36/44 27/22/44 41/35/44
f 54/51/8 55/48/8 51/45/8
