# Blender v3.0.1 OBJ File: 'rockerfeller_plaza.blend'
# www.blender.org
o geometryt000010000010000110010110000110000110100100010010st6
v 1078.340210 -165.327759 1025.563965
v 1078.340210 -165.327759 1012.779358
v 1079.943848 -166.194061 1012.779358
v 1079.943848 -166.194061 1025.563965
v 1079.037598 -160.592865 1012.779358
v 1077.306519 -163.800964 1012.779358
v 1077.306519 -163.800964 1025.563965
v 1079.037598 -160.592865 1025.563965
v 1080.671631 -157.564758 1012.779358
v 1079.806152 -159.168762 1012.779358
v 1079.806152 -159.168762 1025.563965
v 1080.671631 -157.564758 1025.563965
v 1082.305664 -154.536667 1025.563965
v 1082.305664 -154.536667 1012.779358
v 1081.440063 -156.140656 1012.779358
v 1081.440063 -156.140656 1025.563965
v 1083.939575 -151.508469 1025.563965
v 1083.939575 -151.508469 1012.779358
v 1083.074097 -153.112564 1012.779358
v 1083.074097 -153.112564 1025.563965
v 1085.451782 -148.706161 1025.563965
v 1085.573608 -148.480362 1012.779358
v 1084.708008 -150.084457 1012.779358
v 1085.573608 -148.480362 1025.563965
v 1084.708008 -150.084457 1025.563965
v 1088.073120 -143.848267 1012.779358
v 1086.342041 -147.056366 1012.779358
v 1086.342041 -147.056366 1025.563965
v 1088.073120 -143.848267 1025.563965
v 1081.549072 -166.669067 1012.779358
v 1083.281494 -163.461670 1012.779358
v 1083.281494 -163.461670 1025.563965
v 1081.549072 -166.669067 1025.563965
v 1084.099121 -161.947968 1012.779358
v 1084.965332 -160.344269 1012.779358
v 1084.965332 -160.344269 1025.563965
v 1084.099121 -161.947968 1025.563965
v 1085.782959 -158.830566 1012.779358
v 1086.649292 -157.226959 1012.779358
v 1086.649292 -157.226959 1025.563965
v 1085.782959 -158.830566 1025.563965
v 1087.466797 -155.713257 1012.779358
v 1088.333130 -154.109558 1012.779358
v 1088.333130 -154.109558 1025.563965
v 1087.466797 -155.713257 1025.563965
v 1089.150757 -152.595856 1012.779358
v 1090.016968 -150.992157 1012.779358
v 1090.016968 -150.992157 1025.563965
v 1089.150757 -152.595856 1025.563965
v 1090.834595 -149.478470 1025.563965
v 1090.834595 -149.478470 1012.779358
v 1092.567017 -146.271164 1012.779358
v 1092.567017 -146.271164 1025.563965
v 1091.286011 -145.188461 1025.563965
v 1091.286011 -145.188461 1012.779358
v 1089.681641 -144.323456 1012.779358
v 1089.681641 -144.323456 1025.563965
vt 0.000000 1.000000
vt 0.000000 0.000000
vt 0.333330 0.000000
vt 0.333330 1.000000
vt 0.000000 0.000000
vt 0.666670 0.000000
vt 0.666670 1.000000
vt 0.000000 1.000000
vt 0.000000 0.000000
vt 0.333330 0.000000
vt 0.333330 1.000000
vt 0.000000 1.000000
vt 0.000000 1.000000
vt 0.000000 0.000000
vt 0.333330 0.000000
vt 0.333330 1.000000
vt 0.000000 1.000000
vt 0.000000 0.000000
vt 0.333330 0.000000
vt 0.333330 1.000000
vt 0.046920 1.000000
vt 0.000000 0.000000
vt 0.333330 0.000000
vt 0.000000 1.000000
vt 0.333330 1.000000
vt 0.000000 0.000000
vt 0.666670 0.000000
vt 0.666670 1.000000
vt 0.000000 1.000000
vt 0.000000 0.000000
vt 0.666670 0.000000
vt 0.666670 1.000000
vt 0.000000 1.000000
vt 0.000000 0.000000
vt 0.333330 0.000000
vt 0.333330 1.000000
vt 0.000000 1.000000
vt 0.000000 0.000000
vt 0.333330 0.000000
vt 0.333330 1.000000
vt 0.000000 1.000000
vt 0.000000 0.000000
vt 0.333330 0.000000
vt 0.333330 1.000000
vt 0.000000 1.000000
vt 0.000000 0.000000
vt 0.333330 0.000000
vt 0.333330 1.000000
vt 0.000000 1.000000
vt 0.000000 1.000000
vt 0.000000 0.000000
vt 0.666670 0.000000
vt 0.666670 1.000000
vt 0.000000 1.000000
vt 0.000000 0.000000
vt 0.333330 0.000000
vt 0.333330 1.000000
vn -0.4753 -0.8798 0.0000
vn -0.8800 0.4749 0.0000
vn -0.8801 0.4748 0.0000
vn -0.8801 0.4749 0.0000
vn -0.8800 0.4750 0.0000
vn -0.8802 0.4746 0.0000
vn 0.8799 -0.4752 0.0000
vn 0.8798 -0.4753 0.0000
vn 0.4746 0.8802 0.0000
vn 0.4745 0.8802 0.0000
s off
f 1/1/1 2/2/1 3/3/1
f 1/1/1 3/3/1 4/4/1
f 5/5/2 6/6/2 7/7/2
f 8/8/3 5/5/3 7/7/3
f 9/9/4 10/10/4 11/11/4
f 12/12/3 9/9/3 11/11/3
f 13/13/5 14/14/5 15/15/5
f 13/13/4 15/15/4 16/16/4
f 17/17/3 18/18/3 19/19/3
f 17/17/3 19/19/3 20/20/3
f 21/21/5 22/22/5 23/23/5
f 24/24/6 22/22/6 21/21/6
f 21/21/4 23/23/4 25/25/4
f 26/26/3 27/27/3 28/28/3
f 29/29/2 26/26/2 28/28/2
f 30/30/7 31/31/7 32/32/7
f 33/33/7 30/30/7 32/32/7
f 34/34/7 35/35/7 36/36/7
f 37/37/7 34/34/7 36/36/7
f 38/38/8 39/39/8 40/40/8
f 41/41/8 38/38/8 40/40/8
f 42/42/8 43/43/8 44/44/8
f 45/45/7 42/42/7 44/44/7
f 46/46/7 47/47/7 48/48/7
f 49/49/7 46/46/7 48/48/7
f 50/50/8 51/51/8 52/52/8
f 50/50/7 52/52/7 53/53/7
f 54/54/9 55/55/9 56/56/9
f 54/54/10 56/56/10 57/57/10
