# Blender v3.0.1 OBJ File: 'rockerfeller_plaza.blend'
# www.blender.org
o geometryt000010000010000110010110000110000110100000000100st96
v 349.242126 -97.546661 66.809166
v 353.244720 -99.681282 66.809166
v 353.244720 -99.681282 84.840614
v 349.242126 -97.546661 84.840614
v 353.695129 -99.921486 84.840614
v 353.695129 -99.921486 66.809166
v 355.029327 -100.632996 66.809166
v 355.029327 -100.632996 84.840614
v 355.479736 -100.873192 84.840614
v 355.479736 -100.873192 66.809166
v 358.148132 -102.296295 66.809166
v 358.148132 -102.296295 84.840614
v 358.598511 -102.536491 66.809166
v 359.932739 -103.248093 66.809166
v 359.932739 -103.248093 84.840614
v 358.598511 -102.536491 84.840614
v 360.383118 -103.488289 84.840614
v 360.383118 -103.488289 66.809166
v 361.717346 -104.199791 66.809166
v 361.717346 -104.199791 84.840614
v 362.167725 -104.439995 66.809166
v 363.501831 -105.151489 66.809166
v 363.501831 -105.151489 84.840614
v 362.167725 -104.439995 84.840614
v 363.952209 -105.391693 66.809166
v 366.620636 -106.814789 66.809166
v 366.620636 -106.814789 84.840614
v 363.952209 -105.391693 84.840614
v 367.071045 -107.054993 66.809166
v 368.405212 -107.766594 66.809166
v 368.405212 -107.766594 84.840614
v 367.071045 -107.054993 84.840614
v 368.855621 -108.006790 66.809166
v 372.858215 -110.141396 66.809166
v 372.858215 -110.141396 84.840614
v 368.855621 -108.006790 84.840614
v 351.233124 -93.076492 66.809166
v 349.099915 -97.079842 66.809166
v 349.099915 -97.079842 84.840614
v 351.233124 -93.076492 84.840614
v 352.346741 -90.986610 66.809166
v 351.635620 -92.321060 66.809166
v 351.635620 -92.321060 84.840614
v 352.346741 -90.986610 84.840614
v 353.460327 -88.896744 66.809166
v 352.749237 -90.231186 66.809166
v 352.749237 -90.231186 84.840614
v 353.460327 -88.896744 84.840614
v 355.996033 -84.137962 66.809166
v 353.862823 -88.141312 66.809166
v 353.862823 -88.141312 84.840614
v 355.996033 -84.137962 84.840614
v 363.137024 -87.558533 66.809166
v 356.467346 -83.998474 66.809166
v 356.467346 -83.998474 84.840614
v 363.137024 -87.558533 84.840614
v 368.731232 -94.840385 84.840614
v 368.731232 -94.840385 66.809166
v 362.058319 -91.286179 66.809166
v 362.058319 -91.286179 84.840614
v 361.843323 -90.733871 66.809166
v 363.264526 -88.064529 66.809166
v 363.264526 -88.064529 84.840614
v 361.843323 -90.733871 84.840614
v 370.737518 -92.042641 66.809166
v 369.311127 -94.709206 66.809166
v 369.311127 -94.709206 84.840614
v 370.737518 -92.042641 84.840614
v 379.658447 -96.361664 84.840614
v 379.658447 -96.361664 66.809166
v 371.653931 -92.091301 66.809166
v 371.653931 -92.091301 84.840614
v 373.325012 -109.999290 66.809166
v 375.460144 -105.996994 66.809166
v 375.460144 -105.996994 84.840614
v 373.325012 -109.999290 84.840614
v 375.863617 -105.240593 66.809166
v 376.575317 -103.906494 66.809166
v 376.575317 -103.906494 84.840614
v 375.863617 -105.240593 84.840614
v 376.978943 -103.150093 84.840614
v 376.978943 -103.150093 66.809166
v 377.690613 -101.815895 66.809166
v 377.690613 -101.815895 84.840614
v 378.094116 -101.059494 84.840614
v 378.094116 -101.059494 66.809166
v 380.229248 -97.057182 66.809166
v 380.229248 -97.057182 84.840614
vt 0.000000 0.000000
vt 0.750000 0.000000
vt 0.750000 2.000000
vt 0.000000 2.000000
vt 0.000000 2.000000
vt 0.000000 0.000000
vt 0.250000 0.000000
vt 0.250000 2.000000
vt 0.000000 2.000000
vt 0.000000 0.000000
vt 0.500000 0.000000
vt 0.500000 2.000000
vt 0.000000 0.000000
vt 0.250000 0.000000
vt 0.250000 2.000000
vt 0.000000 2.000000
vt 0.000000 2.000000
vt 0.000000 0.000000
vt 0.250000 0.000000
vt 0.250000 2.000000
vt 0.000000 0.000000
vt 0.250000 0.000000
vt 0.250000 2.000000
vt 0.000000 2.000000
vt 0.000000 0.000000
vt 0.500000 0.000000
vt 0.500000 2.000000
vt 0.000000 2.000000
vt 0.000000 0.000000
vt 0.250000 0.000000
vt 0.250000 2.000000
vt 0.000000 2.000000
vt 0.000000 0.000000
vt 0.750000 0.000000
vt 0.750000 2.000000
vt 0.000000 2.000000
vt 0.000000 0.000000
vt 0.750000 0.000000
vt 0.750000 2.000000
vt 0.000000 2.000000
vt 0.000000 0.000000
vt 0.250000 0.000000
vt 0.250000 2.000000
vt 0.000000 2.000000
vt 0.000000 0.000000
vt 0.250000 0.000000
vt 0.250000 2.000000
vt 0.000000 2.000000
vt 0.000000 0.000000
vt 0.750000 0.000000
vt 0.750000 2.000000
vt 0.000000 2.000000
vt 0.000000 2.000000
vt 0.000000 0.000000
vt 1.250000 0.000000
vt 1.250000 2.000000
vt 0.000000 0.000000
vt 0.500000 0.000000
vt 0.500000 2.000000
vt 0.000000 2.000000
vt 0.000000 0.000000
vt 0.500000 0.000000
vt 0.500000 2.000000
vt 0.000000 2.000000
vt 0.000000 2.000000
vt 0.000000 0.000000
vt 1.500000 0.000000
vt 1.500000 2.000000
vt 0.000000 0.000000
vt 0.750000 0.000000
vt 0.750000 2.000000
vt 0.000000 2.000000
vt 0.000000 0.000000
vt 0.250000 0.000000
vt 0.250000 2.000000
vt 0.000000 2.000000
vt 0.000000 2.000000
vt 0.000000 0.000000
vt 0.250000 0.000000
vt 0.250000 2.000000
vt 0.000000 2.000000
vt 0.000000 0.000000
vt 0.750000 0.000000
vt 0.750000 2.000000
vt 0.000000 0.000000
vt 1.250000 0.000000
vt 1.250000 2.000000
vt 0.000000 2.000000
vn -0.4706 -0.8824 0.0000
vn -0.4705 -0.8824 0.0000
vn -0.4706 -0.8823 0.0000
vn -0.8825 0.4703 0.0000
vn 0.4701 0.8826 0.0000
vn 0.8827 -0.4700 0.0000
vn -0.8818 0.4717 0.0000
vn 0.4707 0.8823 0.0000
vn 0.8823 -0.4707 0.0000
vn 0.8823 -0.4706 0.0000
vn 0.4709 0.8822 0.0000
s off
f 1/1/1 2/2/1 3/3/1
f 4/4/1 1/1/1 3/3/1
f 5/5/2 6/6/2 7/7/2
f 5/5/1 7/7/1 8/8/1
f 9/9/1 10/10/1 11/11/1
f 9/9/1 11/11/1 12/12/1
f 13/13/3 14/14/3 15/15/3
f 16/16/1 13/13/1 15/15/1
f 17/17/2 18/18/2 19/19/2
f 17/17/1 19/19/1 20/20/1
f 21/21/1 22/22/1 23/23/1
f 24/24/1 21/21/1 23/23/1
f 25/25/1 26/26/1 27/27/1
f 28/28/1 25/25/1 27/27/1
f 29/29/3 30/30/3 31/31/3
f 32/32/3 29/29/3 31/31/3
f 33/33/1 34/34/1 35/35/1
f 36/36/1 33/33/1 35/35/1
f 37/37/4 38/38/4 39/39/4
f 40/40/4 37/37/4 39/39/4
f 41/41/4 42/42/4 43/43/4
f 44/44/4 41/41/4 43/43/4
f 45/45/4 46/46/4 47/47/4
f 48/48/4 45/45/4 47/47/4
f 49/49/4 50/50/4 51/51/4
f 52/52/4 49/49/4 51/51/4
f 57/53/5 58/54/5 59/55/5
f 57/53/5 59/55/5 60/56/5
f 61/57/6 62/58/6 63/59/6
f 64/60/6 61/57/6 63/59/6
f 65/61/7 66/62/7 67/63/7
f 68/64/7 65/61/7 67/63/7
f 69/65/8 70/66/8 71/67/8
f 69/65/8 71/67/8 72/68/8
f 73/69/9 74/70/9 75/71/9
f 76/72/9 73/69/9 75/71/9
f 77/73/9 78/74/9 79/75/9
f 80/76/9 77/73/9 79/75/9
f 81/77/10 82/78/10 83/79/10
f 81/77/10 83/79/10 84/80/10
f 85/81/9 86/82/9 87/83/9
f 85/81/9 87/83/9 88/84/9
s 1
f 53/85/11 54/86/11 55/87/11
f 56/88/11 53/85/11 55/87/11
