# Blender v3.0.1 OBJ File: 'rockerfeller_plaza.blend'
# www.blender.org
o geometryt000010000010000110010110000110000110100000100110st45
v 690.548706 -223.319412 658.338745
v 688.305054 -227.480713 658.338745
v 688.305054 -227.480713 681.009399
v 690.548706 -223.319412 681.009399
v 688.119141 -228.552307 658.338745
v 689.506470 -229.299911 658.338745
v 689.506470 -229.299911 681.009399
v 688.119141 -228.552307 681.009399
v 689.875549 -229.498810 681.009399
v 689.875549 -229.498810 658.338745
v 694.037231 -231.741501 658.338745
v 694.037231 -231.741501 681.009399
v 694.406311 -231.940506 658.338745
v 695.793640 -232.688004 658.338745
v 695.793640 -232.688004 681.009399
v 694.406311 -231.940506 681.009399
v 696.162720 -232.886902 658.338745
v 698.937256 -234.382111 658.338745
v 698.937256 -234.382111 681.009399
v 696.162720 -232.886902 681.009399
v 699.306335 -234.581009 681.009399
v 699.306335 -234.581009 658.338745
v 703.468018 -236.823715 658.338745
v 703.468018 -236.823715 681.009399
v 703.837219 -237.022705 658.338745
v 706.611633 -238.517807 658.338745
v 706.611633 -238.517807 681.009399
v 703.837219 -237.022705 681.009399
v 706.980835 -238.716705 681.009399
v 706.980835 -238.716705 658.338745
v 708.368042 -239.464310 658.338745
v 708.368042 -239.464310 681.009399
v 708.737122 -239.663208 681.009399
v 708.737122 -239.663208 658.338745
v 712.898926 -241.905914 658.338745
v 712.898926 -241.905914 681.009399
v 713.268066 -242.104813 658.338745
v 714.655212 -242.852402 658.338745
v 714.655212 -242.852402 681.009399
v 713.268066 -242.104813 681.009399
v 692.728333 -223.324402 658.338745
v 691.341797 -222.575409 658.338745
v 691.341797 -222.575409 681.009399
v 692.728333 -223.324402 681.009399
v 697.256714 -225.770615 658.338745
v 693.097229 -223.523712 658.338745
v 693.097229 -223.523712 681.009399
v 697.256714 -225.770615 681.009399
v 699.012146 -226.718903 681.009399
v 699.012146 -226.718903 658.338745
v 697.625610 -225.969910 658.338745
v 697.625610 -225.969910 681.009399
v 702.153931 -228.416214 681.009399
v 702.153931 -228.416214 658.338745
v 699.381042 -226.918213 658.338745
v 699.381042 -226.918213 681.009399
v 706.682312 -230.862411 681.009399
v 706.682312 -230.862411 658.338745
v 702.522827 -228.615509 658.338745
v 702.522827 -228.615509 681.009399
v 709.824219 -232.559708 658.338745
v 707.051270 -231.061707 658.338745
v 707.051270 -231.061707 681.009399
v 709.824219 -232.559708 681.009399
v 711.579651 -233.507904 681.009399
v 711.579651 -233.507904 658.338745
v 710.193115 -232.759003 658.338745
v 710.193115 -232.759003 681.009399
v 714.648804 -235.166016 681.009399
v 716.107910 -235.954208 658.338745
v 711.948547 -233.707214 658.338745
v 716.107910 -235.954208 681.009399
v 711.948547 -233.707214 681.009399
v 717.863342 -236.902512 681.009399
v 717.863342 -236.902512 658.338745
v 716.476807 -236.153503 658.338745
v 716.476807 -236.153503 681.009399
v 715.578735 -241.865311 681.009399
v 715.447998 -242.107803 658.338745
v 717.691528 -237.946503 658.338745
v 715.447998 -242.107803 681.009399
v 717.691528 -237.946503 681.009399
vt 0.000000 0.000000
vt 0.187500 0.000000
vt 0.187500 1.250000
vt 0.000000 1.250000
vt 0.000000 0.000000
vt 0.062500 0.000000
vt 0.062500 1.250000
vt 0.000000 1.250000
vt 0.000000 1.250000
vt 0.000000 0.000000
vt 0.187500 0.000000
vt 0.187500 1.250000
vt 0.000000 0.000000
vt 0.062500 0.000000
vt 0.062500 1.250000
vt 0.000000 1.250000
vt 0.000000 0.000000
vt 0.125000 0.000000
vt 0.125000 1.250000
vt 0.000000 1.250000
vt 0.000000 1.250000
vt 0.000000 0.000000
vt 0.187500 0.000000
vt 0.187500 1.250000
vt 0.000000 0.000000
vt 0.125000 0.000000
vt 0.125000 1.250000
vt 0.000000 1.250000
vt 0.000000 1.250000
vt 0.000000 0.000000
vt 0.187500 0.000000
vt 0.187500 1.250000
vt 0.000000 0.000000
vt 0.062500 0.000000
vt 0.062500 1.250000
vt 0.000000 1.250000
vt 0.000000 0.000000
vt 0.187500 0.000000
vt 0.187500 1.250000
vt 0.000000 1.250000
vt 0.000000 1.250000
vt 0.000000 0.000000
vt 0.062500 0.000000
vt 0.062500 1.250000
vt 0.000000 1.250000
vt 0.000000 0.000000
vt 0.125000 0.000000
vt 0.125000 1.250000
vt 0.000000 1.250000
vt 0.000000 0.000000
vt 0.187500 0.000000
vt 0.187500 1.250000
vt 0.000000 0.000000
vt 0.125000 0.000000
vt 0.125000 1.250000
vt 0.000000 1.250000
vt 0.000000 1.250000
vt 0.000000 0.000000
vt 0.062500 0.000000
vt 0.062500 1.250000
vt 0.065770 1.250000
vt 0.000000 0.000000
vt 0.187500 0.000000
vt 0.000000 1.250000
vt 0.187500 1.250000
vt 0.000000 1.250000
vt 0.000000 0.000000
vt 0.062500 0.000000
vt 0.062500 1.250000
vt 0.010920 1.250000
vt 0.000000 0.000000
vt 0.187500 0.000000
vt 0.000000 1.250000
vt 0.187500 1.250000
vt 0.000000 1.250000
vt 0.000000 0.000000
vt 0.062500 0.000000
vt 0.062500 1.250000
vt 0.000000 0.000000
vt 0.062500 0.000000
vt 0.062500 1.250000
vt 0.000000 1.250000
vn -0.8802 0.4746 0.0000
vn -0.4744 -0.8803 0.0000
vn -0.4743 -0.8803 0.0000
vn 0.4753 0.8798 0.0000
vn 0.4752 0.8799 0.0000
vn 0.8802 -0.4746 0.0000
vn 0.8802 -0.4747 0.0000
vn -0.4745 -0.8803 0.0000
s off
f 1/1/1 2/2/1 3/3/1
f 4/4/1 1/1/1 3/3/1
f 5/5/2 6/6/2 7/7/2
f 8/8/2 5/5/2 7/7/2
f 9/9/2 10/10/2 11/11/2
f 9/9/2 11/11/2 12/12/2
f 13/13/3 14/14/3 15/15/3
f 16/16/3 13/13/3 15/15/3
f 17/17/2 18/18/2 19/19/2
f 20/20/2 17/17/2 19/19/2
f 21/21/2 22/22/2 23/23/2
f 21/21/2 23/23/2 24/24/2
f 25/25/2 26/26/2 27/27/2
f 28/28/2 25/25/2 27/27/2
f 33/29/2 34/30/2 35/31/2
f 33/29/2 35/31/2 36/32/2
f 41/33/4 42/34/4 43/35/4
f 44/36/4 41/33/4 43/35/4
f 45/37/4 46/38/4 47/39/4
f 48/40/4 45/37/4 47/39/4
f 49/41/4 50/42/4 51/43/4
f 49/41/4 51/43/4 52/44/4
f 53/45/4 54/46/4 55/47/4
f 53/45/4 55/47/4 56/48/4
f 57/49/4 58/50/4 59/51/4
f 57/49/4 59/51/4 60/52/4
f 61/53/4 62/54/4 63/55/4
f 64/56/4 61/53/4 63/55/4
f 65/57/5 66/58/5 67/59/5
f 65/57/4 67/59/4 68/60/4
f 69/61/4 70/62/4 71/63/4
f 72/64/4 70/62/4 69/61/4
f 69/61/4 71/63/4 73/65/4
f 74/66/4 75/67/4 76/68/4
f 74/66/4 76/68/4 77/69/4
f 78/70/6 79/71/6 80/72/6
f 81/73/7 79/71/7 78/70/7
f 78/70/6 80/72/6 82/74/6
s 1
f 29/75/2 30/76/2 31/77/2
f 29/75/2 31/77/2 32/78/2
f 37/79/8 38/80/8 39/81/2
f 40/82/2 37/79/8 39/81/2
