# Blender v3.0.1 OBJ File: 'rockerfeller_plaza.blend'
# www.blender.org
o geometryt000010000010000110010110000110000110100000010110st57_T
v 1008.568848 -98.959534 229.303528
v 1008.568848 -98.959534 190.003357
v 1007.349915 -101.237373 190.003357
v 1007.349915 -101.237373 229.303528
v 1009.876099 -96.516563 190.003357
v 1008.657166 -98.794426 190.003357
v 1008.657166 -98.794426 229.303528
v 1009.876099 -96.516563 229.303528
v 1010.573914 -95.212524 229.303528
v 1010.573914 -95.212524 190.003357
v 1009.964478 -96.351456 190.003357
v 1009.964478 -96.351456 229.303528
v 1011.271729 -93.908485 190.003357
v 1010.662292 -95.047417 190.003357
v 1010.662292 -95.047417 229.303528
v 1011.271729 -93.908485 229.303528
v 1011.969543 -92.604446 229.303528
v 1011.969543 -92.604446 190.003357
v 1011.360107 -93.743378 190.003357
v 1011.360107 -93.743378 229.303528
v 1013.276794 -90.161476 229.303528
v 1013.276794 -90.161476 190.003357
v 1012.057922 -92.439339 190.003357
v 1012.057922 -92.439339 229.303528
v 1014.584106 -87.718506 190.003357
v 1013.365173 -89.996368 190.003357
v 1013.365173 -89.996368 229.303528
v 1014.584106 -87.718506 229.303528
v 1015.281921 -86.414467 229.303528
v 1015.281921 -86.414467 190.003357
v 1014.672424 -87.553398 190.003357
v 1014.672424 -87.553398 229.303528
v 1015.979736 -85.110428 190.003357
v 1015.370239 -86.249359 190.003357
v 1015.370239 -86.249359 229.303528
v 1015.979736 -85.110428 229.303528
v 1016.677551 -83.806389 229.303528
v 1016.677551 -83.806389 190.003357
v 1016.068054 -84.945320 190.003357
v 1016.068054 -84.945320 229.303528
v 1017.984802 -81.363419 229.303528
v 1017.984802 -81.363419 190.003357
v 1016.765869 -83.641273 190.003357
v 1016.765869 -83.641273 229.303528
v 1019.292053 -78.920448 190.003357
v 1018.073120 -81.198311 190.003357
v 1018.073120 -81.198311 229.303528
v 1019.292053 -78.920448 229.303528
v 1007.550598 -101.733780 229.303528
v 1007.550598 -101.733780 190.003357
v 1008.692444 -102.337776 190.003357
v 1008.692444 -102.337776 229.303528
v 1009.790894 -102.920380 190.003357
v 1039.452759 -118.673279 190.003357
v 1039.452759 -118.673279 242.803528
v 1009.790894 -102.920380 242.803528
v 1019.823975 -82.402687 229.303528
v 1011.876282 -97.258240 229.303528
v 1019.823975 -82.402687 242.803528
v 1009.464905 -101.765480 242.803528
v 1009.464905 -101.765480 229.303528
v 1022.041321 -79.989594 229.303528
v 1022.041321 -79.989594 190.003357
v 1019.759583 -78.778061 190.003357
v 1019.759583 -78.778061 229.303528
v 1024.517944 -81.304588 229.303528
v 1024.517944 -81.304588 190.003357
v 1022.236206 -80.093048 190.003357
v 1022.236206 -80.093048 229.303528
v 1025.853760 -82.013817 190.003357
v 1024.712891 -81.408051 190.003357
v 1024.712891 -81.408051 229.303528
v 1025.853760 -82.013817 229.303528
v 1027.189453 -82.723038 229.303528
v 1027.189453 -82.723038 190.003357
v 1026.048584 -82.117264 190.003357
v 1026.048584 -82.117264 229.303528
v 1028.525269 -83.432266 190.003357
v 1027.384277 -82.826500 190.003357
v 1027.384277 -82.826500 229.303528
v 1028.525269 -83.432266 229.303528
v 1032.142700 -85.353027 229.303528
v 1032.142700 -85.353027 190.003357
v 1028.720093 -83.535721 190.003357
v 1028.720093 -83.535721 229.303528
v 1034.619385 -86.668030 190.003357
v 1032.337646 -85.456490 190.003357
v 1032.337646 -85.456490 229.303528
v 1034.619385 -86.668030 229.303528
v 1037.096069 -87.983025 190.003357
v 1034.814209 -86.771477 190.003357
v 1034.814209 -86.771477 229.303528
v 1037.096069 -87.983025 229.303528
v 1039.572632 -89.298019 229.303528
v 1039.572632 -89.298019 190.003357
v 1037.290894 -88.086479 190.003357
v 1037.290894 -88.086479 229.303528
v 1043.190186 -91.218788 229.303528
v 1043.190186 -91.218788 190.003357
v 1039.767456 -89.401474 190.003357
v 1039.767456 -89.401474 229.303528
v 1044.525879 -91.928009 229.303528
v 1044.525879 -91.928009 190.003357
v 1043.385010 -91.322235 190.003357
v 1043.385010 -91.322235 229.303528
v 1045.861694 -92.637238 229.303528
v 1045.861694 -92.637238 190.003357
v 1044.720825 -92.031464 190.003357
v 1044.720825 -92.031464 229.303528
v 1047.197388 -93.346458 190.003357
v 1046.056519 -92.740685 190.003357
v 1046.056519 -92.740685 229.303528
v 1047.197388 -93.346458 229.303528
v 1049.674072 -94.661461 190.003357
v 1047.392212 -93.449921 190.003357
v 1047.392212 -93.449921 229.303528
v 1049.674072 -94.661461 229.303528
v 1052.150757 -95.976448 190.003357
v 1049.868896 -94.764908 190.003357
v 1049.868896 -94.764908 229.303528
v 1052.150757 -95.976448 229.303528
v 1050.629883 -97.781258 229.303528
v 1028.088745 -85.810097 229.303528
v 1050.629883 -97.781258 242.803528
v 1020.968079 -82.028435 242.803528
v 1020.968079 -82.028435 229.303528
v 1051.364868 -98.171608 229.303528
v 1040.516235 -118.412476 190.003357
v 1052.110474 -96.780556 190.003357
v 1040.516235 -118.412476 242.803528
v 1052.110474 -96.780556 229.303528
v 1051.364868 -98.171608 242.803528
vt 0.000000 9.000000
vt 0.000000 0.000000
vt 0.666670 0.000000
vt 0.666670 9.000000
vt 0.000000 0.000000
vt 0.666670 0.000000
vt 0.666670 9.000000
vt 0.000000 9.000000
vt 0.000000 9.000000
vt 0.000000 0.000000
vt 0.333330 0.000000
vt 0.333330 9.000000
vt 0.000000 0.000000
vt 0.333330 0.000000
vt 0.333330 9.000000
vt 0.000000 9.000000
vt 0.000000 9.000000
vt 0.000000 0.000000
vt 0.333330 0.000000
vt 0.333330 9.000000
vt 0.000000 9.000000
vt 0.000000 0.000000
vt 0.666670 0.000000
vt 0.666670 9.000000
vt 0.000000 0.000000
vt 0.666670 0.000000
vt 0.666670 9.000000
vt 0.000000 9.000000
vt 0.000000 9.000000
vt 0.000000 0.000000
vt 0.333330 0.000000
vt 0.333330 9.000000
vt 0.000000 0.000000
vt 0.333330 0.000000
vt 0.333330 9.000000
vt 0.000000 9.000000
vt 0.000000 9.000000
vt 0.000000 0.000000
vt 0.333330 0.000000
vt 0.333330 9.000000
vt 0.000000 9.000000
vt 0.000000 0.000000
vt 0.666670 0.000000
vt 0.666670 9.000000
vt 0.000000 0.000000
vt 0.666670 0.000000
vt 0.666670 9.000000
vt 0.000000 9.000000
vt 0.000000 9.000000
vt 0.000000 0.000000
vt 0.333330 0.000000
vt 0.333330 9.000000
vt 0.000000 0.000000
vt 8.666670 0.000000
vt 8.666670 11.000000
vt 0.000000 11.000000
vt 0.000000 0.000000
vt 4.347600 0.000000
vt 0.000000 3.000000
vt 5.666670 3.000000
vt 5.666670 0.000000
vt 0.000000 9.000000
vt 0.000000 0.000000
vt 0.666670 0.000000
vt 0.666670 9.000000
vt 0.000000 9.000000
vt 0.000000 0.000000
vt 0.666670 0.000000
vt 0.666670 9.000000
vt 0.000000 0.000000
vt 0.333330 0.000000
vt 0.333330 9.000000
vt 0.000000 9.000000
vt 0.000000 9.000000
vt 0.000000 0.000000
vt 0.333330 0.000000
vt 0.333330 9.000000
vt 0.000000 0.000000
vt 0.333330 0.000000
vt 0.333330 9.000000
vt 0.000000 9.000000
vt 0.000000 9.000000
vt 0.000000 0.000000
vt 1.000000 0.000000
vt 1.000000 9.000000
vt 0.000000 0.000000
vt 0.666670 0.000000
vt 0.666670 9.000000
vt 0.000000 9.000000
vt 0.000000 0.000000
vt 0.666670 0.000000
vt 0.666670 9.000000
vt 0.000000 9.000000
vt 0.000000 9.000000
vt 0.000000 0.000000
vt 0.666670 0.000000
vt 0.666670 9.000000
vt 0.000000 9.000000
vt 0.000000 0.000000
vt 1.000000 0.000000
vt 1.000000 9.000000
vt 0.000000 9.000000
vt 0.000000 0.000000
vt 0.333330 0.000000
vt 0.333330 9.000000
vt 0.000000 9.000000
vt 0.000000 0.000000
vt 0.333330 0.000000
vt 0.333330 9.000000
vt 0.000000 0.000000
vt 0.333330 0.000000
vt 0.333330 9.000000
vt 0.000000 9.000000
vt 0.000000 0.000000
vt 0.666670 0.000000
vt 0.666670 9.000000
vt 0.000000 9.000000
vt 0.000000 0.000000
vt 0.666670 0.000000
vt 0.666670 9.000000
vt 0.000000 9.000000
vt 0.000000 0.000000
vt 6.586130 0.000000
vt 0.000000 3.000000
vt 8.666670 3.000000
vt 8.666670 0.000000
vt 5.926070 8.931831
vt 0.000000 0.000000
vt 6.333330 0.000000
vt 0.000000 12.000000
vt 6.333330 8.931831
vt 5.926070 12.000000
vn -0.8817 0.4718 0.0000
vn -0.8818 0.4717 0.0000
vn -0.4676 -0.8840 0.0000
vn -0.4690 -0.8832 0.0000
vn -0.8817 0.4717 0.0000
vn 0.4690 0.8832 0.0000
vn 0.4689 0.8832 0.0000
vn 0.4689 0.8833 0.0000
vn 0.8814 -0.4724 0.0000
s off
f 1/1/1 2/2/1 3/3/1
f 1/1/1 3/3/1 4/4/1
f 5/5/1 6/6/1 7/7/1
f 8/8/1 5/5/1 7/7/1
f 9/9/1 10/10/1 11/11/1
f 9/9/2 11/11/2 12/12/2
f 13/13/1 14/14/1 15/15/1
f 16/16/1 13/13/1 15/15/1
f 17/17/1 18/18/1 19/19/1
f 17/17/2 19/19/2 20/20/2
f 21/21/1 22/22/1 23/23/1
f 21/21/1 23/23/1 24/24/1
f 25/25/1 26/26/1 27/27/1
f 28/28/1 25/25/1 27/27/1
f 29/29/1 30/30/1 31/31/1
f 29/29/1 31/31/1 32/32/1
f 33/33/1 34/34/1 35/35/1
f 36/36/1 33/33/1 35/35/1
f 37/37/1 38/38/1 39/39/1
f 37/37/1 39/39/1 40/40/1
f 41/41/1 42/42/1 43/43/1
f 41/41/1 43/43/1 44/44/1
f 45/45/1 46/46/1 47/47/1
f 48/48/1 45/45/1 47/47/1
f 49/49/3 50/50/3 51/51/3
f 49/49/3 51/51/3 52/52/3
f 53/53/4 54/54/4 55/55/4
f 56/56/4 53/53/4 55/55/4
f 57/57/5 58/58/5 59/59/5
f 60/60/5 58/58/5 61/61/5
f 59/59/5 58/58/5 60/60/5
f 62/62/6 63/63/6 64/64/6
f 62/62/6 64/64/6 65/65/6
f 66/66/6 67/67/6 68/68/6
f 66/66/6 68/68/6 69/69/6
f 70/70/6 71/71/6 72/72/6
f 73/73/6 70/70/6 72/72/6
f 74/74/6 75/75/6 76/76/6
f 74/74/7 76/76/7 77/77/7
f 78/78/8 79/79/8 80/80/8
f 81/81/6 78/78/6 80/80/6
f 82/82/6 83/83/6 84/84/6
f 82/82/6 84/84/6 85/85/6
f 86/86/6 87/87/6 88/88/6
f 89/89/6 86/86/6 88/88/6
f 90/90/6 91/91/6 92/92/6
f 93/93/7 90/90/7 92/92/7
f 94/94/6 95/95/6 96/96/6
f 94/94/6 96/96/6 97/97/6
f 98/98/7 99/99/7 100/100/7
f 98/98/6 100/100/6 101/101/6
f 102/102/6 103/103/6 104/104/6
f 102/102/6 104/104/6 105/105/6
f 106/106/6 107/107/6 108/108/6
f 106/106/6 108/108/6 109/109/6
f 110/110/6 111/111/6 112/112/6
f 113/113/6 110/110/6 112/112/6
f 114/114/7 115/115/7 116/116/7
f 117/117/6 114/114/6 116/116/6
f 118/118/6 119/119/6 120/120/6
f 121/121/7 118/118/7 120/120/7
f 122/122/6 123/123/6 124/124/6
f 125/125/6 123/123/6 126/126/6
f 124/124/6 123/123/6 125/125/6
f 127/127/9 128/128/9 129/129/9
f 130/130/9 128/128/9 127/127/9
f 127/127/9 129/129/9 131/131/9
f 132/132/9 130/130/9 127/127/9
