# Blender v3.0.1 OBJ File: 'rockerfeller_plaza.blend'
# www.blender.org
o geometryt000010000010000110010110000110000110100000110100st92
v 814.485779 -203.251114 700.156921
v 811.737061 -181.833603 700.156921
v 829.951904 -191.657501 700.156921
v 802.874817 -198.668015 700.156921
v 821.622192 -207.098007 700.156921
v 813.783325 -204.547104 700.156921
v 802.874817 -198.668015 753.356934
v 813.783325 -204.547104 753.356934
v 814.485779 -203.251114 753.356934
v 811.737061 -181.833603 753.356934
v 821.622192 -207.098007 753.356934
v 829.951904 -191.657501 753.356934
vt 0.350000 0.121020
vt 0.311900 0.115990
vt 0.323990 0.152470
vt 0.345350 0.097730
vt 0.354730 0.135320
vt 0.352580 0.119580
vt 0.345350 0.097730
vt 0.352580 0.119580
vt 0.350000 0.121020
vt 0.311900 0.115990
vt 0.354730 0.135320
vt 0.323990 0.152470
vn 0.0000 0.0000 -1.0000
vn 0.0000 0.0000 1.0000
s off
f 1/1/1 2/2/1 3/3/1
f 4/4/1 2/2/1 1/1/1
f 1/1/1 3/3/1 5/5/1
f 6/6/1 4/4/1 1/1/1
f 7/7/2 8/8/2 9/9/2
f 9/9/2 10/10/2 7/7/2
f 11/11/2 12/12/2 9/9/2
f 12/12/2 10/10/2 9/9/2
