# Blender v3.0.1 OBJ File: 'rockerfeller_plaza.blend'
# www.blender.org
o geometryt000010000010000110010110000110000110100000010110st63
v 1170.252197 -208.774765 192.835571
v 1168.765747 -208.005371 188.861176
v 1174.711548 -211.082962 188.861176
v 1168.765747 -208.005371 192.835571
v 1174.711548 -211.082962 208.733154
v 1173.225098 -210.313568 204.758759
v 1171.738647 -209.544174 200.784363
v 1173.225098 -210.313568 208.733154
v 1171.843018 -209.598175 204.758759
v 1171.738647 -209.544174 204.380035
v 1170.748291 -209.031464 200.784363
v 1170.252197 -208.774765 198.983856
v 1167.767334 -205.314667 191.229996
v 1167.767334 -205.314667 188.861176
v 1167.025024 -206.715866 188.861176
v 1167.025024 -206.715866 196.809967
v 1167.569214 -205.688766 196.809967
v 1170.604736 -199.956772 192.835571
v 1171.388062 -198.477570 188.861176
v 1168.254883 -204.394272 188.861176
v 1171.388062 -198.477570 192.835571
v 1168.254883 -204.394272 208.733154
v 1169.038086 -202.915070 204.758759
v 1169.821411 -201.435974 200.784363
v 1169.038086 -202.915070 208.733154
v 1169.774414 -201.524872 204.758759
v 1169.821411 -201.435974 204.454559
v 1170.389526 -200.363174 200.784363
v 1170.604736 -199.956772 199.393890
v 1174.926147 -191.356369 194.972046
v 1174.926147 -191.356369 188.861176
v 1172.576416 -195.793976 188.861176
v 1172.576416 -195.793976 208.733154
v 1173.359741 -194.314774 200.784363
v 1174.142944 -192.835571 196.809967
v 1173.319824 -194.390076 208.733154
v 1173.359741 -194.314774 208.391846
v 1174.142944 -192.835571 200.784363
v 1174.711670 -191.761566 196.809967
v 1177.050293 -187.378372 193.859406
v 1177.050293 -187.378372 188.861176
v 1176.257568 -188.852463 188.861176
v 1176.257568 -188.852463 196.809967
v 1176.900757 -187.656372 196.809967
v 1178.492188 -184.672668 193.090561
v 1178.492188 -184.672668 188.861176
v 1177.706787 -186.150772 188.861176
v 1177.706787 -186.150772 196.809967
v 1178.322266 -184.992676 196.809967
v 1181.367432 -179.276367 189.965439
v 1181.367432 -179.276367 188.861176
v 1179.008789 -183.709167 188.861176
v 1179.008789 -183.709167 208.733154
v 1179.794922 -182.231567 200.784363
v 1180.581299 -180.753967 198.110260
v 1180.581299 -180.753967 192.835571
v 1179.555786 -182.681168 208.733154
v 1179.794922 -182.231567 206.255066
v 1180.322998 -181.239075 200.784363
v 1181.090332 -179.797073 192.835571
v 1182.897583 -176.388077 194.536697
v 1182.897583 -176.388077 188.861176
v 1182.114746 -177.867462 188.861176
v 1182.114746 -177.867462 196.809967
v 1182.773071 -176.623474 196.809967
v 1184.420044 -173.527267 195.027588
v 1184.420044 -173.527267 188.861176
v 1183.635132 -175.005569 188.861176
v 1183.635132 -175.005569 200.784363
v 1184.130737 -174.072174 200.784363
v 1185.379395 -171.723465 193.611496
v 1185.379395 -171.723465 188.861176
v 1184.895264 -172.632568 188.861176
v 1184.895264 -172.632568 200.784363
v 1185.211548 -172.038666 200.784363
v 1186.681885 -169.273972 194.529907
v 1186.681885 -169.273972 188.861176
v 1185.895508 -170.751572 188.861176
v 1185.895508 -170.751572 196.809967
v 1186.564331 -169.494766 196.809967
v 1209.859985 -180.618164 192.835571
v 1214.293945 -182.974762 188.861176
v 1187.690063 -168.835266 188.861176
v 1213.892334 -182.761368 192.835571
v 1214.293945 -182.974762 192.478348
v 1187.690063 -168.835266 212.707550
v 1192.124023 -171.191772 208.733154
v 1196.558105 -173.548370 204.758759
v 1200.991943 -175.904968 200.784363
v 1205.425903 -178.261566 196.809967
v 1191.553833 -170.888763 212.707550
v 1192.124023 -171.191772 212.200348
v 1196.021484 -173.263275 208.733154
v 1196.558105 -173.548370 208.255951
v 1200.489258 -175.637772 204.758759
v 1200.991943 -175.904968 204.311539
v 1204.956909 -178.012268 200.784363
v 1205.425903 -178.261566 200.367142
v 1209.424683 -180.386871 196.809967
v 1209.859985 -180.618164 196.422760
v 1215.682373 -196.050064 192.835571
v 1214.894531 -197.526871 188.861176
v 1220.408936 -187.189270 188.861176
v 1214.894531 -197.526871 191.701447
v 1220.408936 -187.189270 212.707550
v 1219.621216 -188.666077 208.733154
v 1218.833496 -190.142868 204.758759
v 1218.045654 -191.619675 200.784363
v 1217.257812 -193.096466 196.809967
v 1219.868652 -188.202072 212.707550
v 1219.621216 -188.666077 211.662445
v 1218.927490 -189.966370 208.733154
v 1218.833496 -190.142868 208.335617
v 1218.045654 -191.619675 204.758759
v 1217.257812 -193.096466 200.784363
v 1216.104248 -195.259171 196.809967
v 1215.682373 -196.050064 195.028290
v 1215.163086 -197.023376 192.835571
v 1220.361328 -186.199463 204.758759
v 1219.378784 -185.677277 204.758759
v 1218.883301 -185.413971 211.017029
v 1220.361328 -186.199463 216.681946
v 1218.883301 -185.413971 216.681946
vt 0.333330 0.250000
vt 0.166670 0.000000
vt 0.833330 0.000000
vt 0.166670 0.250000
vt 0.833330 1.250000
vt 0.666670 1.000000
vt 0.500000 0.750000
vt 0.666670 1.250000
vt 0.511700 1.000000
vt 0.500000 0.976180
vt 0.388940 0.750000
vt 0.333330 0.636740
vt 0.000000 0.149000
vt 0.000000 0.000000
vt 0.166670 0.000000
vt 0.166670 0.500000
vt 0.044490 0.500000
vt 0.166670 0.250000
vt 0.166670 0.000000
vt 0.333330 0.250000
vt 0.833330 1.250000
vt 0.666670 1.000000
vt 0.833330 0.000000
vt 0.500000 0.750000
vt 0.666670 1.250000
vt 0.500000 0.980870
vt 0.379130 0.750000
vt 0.333330 0.662530
vt 0.166670 0.384390
vt 0.166670 0.000000
vt 0.666670 0.000000
vt 0.666670 1.250000
vt 0.500000 0.750000
vt 0.333330 0.500000
vt 0.508480 1.250000
vt 0.500000 1.228530
vt 0.333330 0.750000
vt 0.212320 0.500000
vt 0.000000 0.314400
vt 0.000000 0.000000
vt 0.166670 0.000000
vt 0.166670 0.500000
vt 0.031430 0.500000
vt 0.000000 0.266040
vt 0.000000 0.000000
vt 0.166670 0.000000
vt 0.166670 0.500000
vt 0.036080 0.500000
vt 0.000000 0.069460
vt 0.000000 0.000000
vt 0.500000 0.000000
vt 0.500000 1.250000
vt 0.333330 0.750000
vt 0.166670 0.581790
vt 0.166670 0.250000
vt 0.384040 1.250000
vt 0.333330 1.094120
vt 0.221390 0.750000
vt 0.058730 0.250000
vt 0.000000 0.357010
vt 0.000000 0.000000
vt 0.166670 0.000000
vt 0.166670 0.500000
vt 0.026510 0.500000
vt 0.000000 0.387880
vt 0.000000 0.000000
vt 0.166670 0.000000
vt 0.166670 0.750000
vt 0.061430 0.750000
vt 0.000000 0.298810
vt 0.000000 0.000000
vt 0.166670 0.000000
vt 0.166670 0.750000
vt 0.057780 0.750000
vt 0.000000 0.356580
vt 0.000000 0.000000
vt 0.166670 0.000000
vt 0.166670 0.500000
vt 0.024900 0.500000
vt 1.166670 0.250000
vt 0.666670 0.000000
vt 3.666670 0.000000
vt 0.711950 0.250000
vt 0.666670 0.227530
vt 3.666670 1.500000
vt 3.166670 1.250000
vt 2.666670 1.000000
vt 2.166670 0.750000
vt 1.666670 0.500000
vt 3.230960 1.500000
vt 3.166670 1.468100
vt 2.727160 1.250000
vt 2.666670 1.219980
vt 2.223360 1.000000
vt 2.166670 0.971870
vt 1.719550 0.750000
vt 1.666670 0.723760
vt 1.215750 0.500000
vt 1.166670 0.475640
vt 0.333330 0.250000
vt 0.166670 0.000000
vt 1.333330 0.000000
vt 0.166670 0.178660
vt 1.333330 1.500000
vt 1.166670 1.250000
vt 1.000000 1.000000
vt 0.833330 0.750000
vt 0.666670 0.500000
vt 1.219020 1.500000
vt 1.166670 1.434260
vt 1.019920 1.250000
vt 1.000000 1.224990
vt 0.833330 1.000000
vt 0.666670 0.750000
vt 0.422590 0.500000
vt 0.333330 0.387930
vt 0.223480 0.250000
vt 0.000000 1.000000
vt 0.110800 1.000000
vt 0.166670 1.393660
vt 0.000000 1.750000
vt 0.166670 1.750000
vt 0.510020 1.000000
vn -0.4597 -0.8881 -0.0000
vn -0.4596 -0.8881 0.0000
vn -0.4598 -0.8880 0.0001
vn -0.8837 0.4681 0.0000
vn -0.8836 0.4682 0.0000
vn -0.8837 0.4680 0.0000
vn -0.8838 0.4679 0.0000
vn -0.8836 0.4682 -0.0002
vn -0.8807 0.4736 0.0000
vn -0.8807 0.4737 0.0000
vn -0.8830 0.4693 0.0000
vn -0.8831 0.4692 0.0000
vn -0.8831 0.4693 0.0000
vn -0.8828 0.4697 0.0000
vn -0.8828 0.4698 -0.0000
vn -0.8829 0.4696 0.0000
vn -0.8828 0.4697 -0.0001
vn -0.8839 0.4677 0.0000
vn -0.8839 0.4678 0.0000
vn -0.8832 0.4690 0.0000
vn -0.8832 0.4689 0.0000
vn -0.8826 0.4700 0.0000
vn -0.8827 0.4700 0.0000
vn -0.8827 0.4699 0.0000
vn 0.4693 0.8830 -0.0000
vn 0.4691 0.8831 0.0000
vn 0.4692 0.8831 0.0000
vn 0.4694 0.8830 0.0000
vn 0.8823 -0.4707 -0.0000
vn 0.8823 -0.4706 0.0000
vn 0.8824 -0.4706 0.0000
vn 0.8822 -0.4708 0.0001
vn 0.8823 -0.4706 0.0004
vn -0.8837 0.4680 -0.0002
s off
f 1/1/1 2/2/1 3/3/1
f 4/4/2 2/2/2 1/1/2
f 5/5/2 6/6/2 3/3/2
f 6/6/1 7/7/1 3/3/1
f 7/7/1 1/1/1 3/3/1
f 8/8/1 6/6/1 5/5/1
f 6/6/2 9/9/2 10/10/2
f 6/6/2 10/10/2 7/7/2
f 11/11/3 12/12/3 7/7/3
f 7/7/1 12/12/1 1/1/1
f 13/13/4 14/14/4 15/15/4
f 16/16/5 13/13/5 15/15/5
f 17/17/6 13/13/6 16/16/6
f 21/18/6 19/19/6 18/20/6
f 22/21/7 23/22/7 20/23/7
f 24/24/6 18/20/6 20/23/6
f 25/25/6 23/22/6 22/21/6
f 23/22/4 27/26/4 24/24/4
f 28/27/7 29/28/7 24/24/7
f 24/24/7 29/28/7 18/20/7
f 30/29/6 31/30/6 32/31/6
f 33/32/7 34/33/7 32/31/7
f 34/33/7 35/34/7 32/31/7
f 35/34/6 30/29/6 32/31/6
f 36/35/8 37/36/8 33/32/8
f 33/32/4 37/36/4 34/33/4
f 34/33/6 38/37/6 35/34/6
f 39/38/7 30/29/7 35/34/7
f 40/39/9 41/40/9 42/41/9
f 43/42/10 40/39/10 42/41/10
f 44/43/9 40/39/9 43/42/9
f 45/44/11 46/45/11 47/46/11
f 48/47/12 45/44/12 47/46/12
f 49/48/13 45/44/13 48/47/13
f 50/49/14 51/50/14 52/51/14
f 53/52/14 54/53/14 52/51/14
f 54/53/15 55/54/15 52/51/15
f 55/54/14 56/55/14 52/51/14
f 56/55/14 50/49/14 52/51/14
f 57/56/16 58/57/16 53/52/16
f 53/52/14 58/57/14 54/53/14
f 54/53/17 59/58/17 55/54/17
f 60/59/15 50/49/15 56/55/15
f 61/60/18 62/61/18 63/62/18
f 64/63/18 61/60/18 63/62/18
f 65/64/19 61/60/19 64/63/19
f 66/65/20 67/66/20 68/67/20
f 69/68/21 66/65/21 68/67/21
f 70/69/20 66/65/20 69/68/20
f 71/70/22 72/71/22 73/72/22
f 74/73/23 71/70/23 73/72/23
f 75/74/24 71/70/24 74/73/24
f 76/75/15 77/76/15 78/77/15
f 79/78/15 76/75/15 78/77/15
f 80/79/15 76/75/15 79/78/15
f 81/80/25 82/81/25 83/82/25
f 84/83/25 82/81/25 81/80/25
f 85/84/26 82/81/26 84/83/26
f 86/85/25 87/86/25 83/82/25
f 87/86/25 88/87/25 83/82/25
f 88/87/25 89/88/25 83/82/25
f 89/88/25 90/89/25 83/82/25
f 90/89/25 81/80/25 83/82/25
f 91/90/27 92/91/27 87/86/27
f 87/86/25 93/92/25 88/87/25
f 88/87/25 93/92/25 94/93/25
f 88/87/25 95/94/25 89/88/25
f 89/88/25 95/94/25 96/95/25
f 89/88/25 97/96/25 90/89/25
f 97/96/28 98/97/28 90/89/28
f 90/89/25 99/98/25 81/80/25
f 99/98/27 100/99/27 81/80/27
f 101/100/29 102/101/29 103/102/29
f 104/103/30 102/101/30 101/100/30
f 105/104/31 106/105/31 103/102/31
f 106/105/29 107/106/29 103/102/29
f 107/106/29 108/107/29 103/102/29
f 108/107/29 109/108/29 103/102/29
f 109/108/30 101/100/30 103/102/30
f 110/109/32 111/110/32 105/104/32
f 105/104/31 111/110/31 106/105/31
f 106/105/33 112/111/33 113/112/33
f 106/105/30 113/112/30 107/106/30
f 107/106/30 114/113/30 108/107/30
f 108/107/29 115/114/29 109/108/29
f 116/115/29 117/116/29 109/108/29
f 109/108/30 117/116/30 101/100/30
f 118/117/29 104/103/29 101/100/29
f 119/118/25 120/119/25 121/120/25
f 122/121/25 119/118/25 121/120/25
f 123/122/25 122/121/25 121/120/25
s 1
f 18/20/6 19/19/6 20/23/6
f 23/22/6 24/24/6 20/23/6
f 23/22/34 26/123/34 27/26/34
f 86/85/25 91/90/25 87/86/25
