# Blender v3.0.1 OBJ File: 'rockerfeller_plaza.blend'
# www.blender.org
o geometryt000010000010000110010110000110000110100100000000st97_C
v 493.750916 -143.775681 951.225586
v 493.881348 -144.828873 954.125610
v 493.750916 -143.775681 954.125610
v 493.881348 -144.828873 951.225586
v 494.170227 -142.804871 951.225586
v 493.750916 -143.775681 951.225586
v 493.750916 -143.775681 954.125610
v 494.170227 -142.804871 954.125610
v 493.881348 -144.828873 951.225586
v 494.515808 -145.665283 954.125610
v 493.881348 -144.828873 954.125610
v 494.232727 -145.292084 951.225586
v 494.515808 -145.665283 951.225586
v 495.015747 -142.184479 951.225586
v 494.170227 -142.804871 951.225586
v 494.170227 -142.804871 954.125610
v 495.015747 -142.184479 954.125610
v 494.515808 -145.665283 951.225586
v 495.483124 -146.086975 951.225586
v 495.483124 -146.086975 954.125610
v 494.515808 -145.665283 954.125610
v 496.069427 -142.050079 951.225586
v 495.015747 -142.184479 951.225586
v 495.015747 -142.184479 954.125610
v 496.069427 -142.050079 954.125610
v 495.483124 -146.086975 951.225586
v 496.536926 -145.952576 954.125610
v 495.483124 -146.086975 954.125610
v 496.536926 -145.952576 951.225586
v 497.036743 -142.471771 951.225586
v 496.069427 -142.050079 951.225586
v 496.069427 -142.050079 954.125610
v 497.036743 -142.471771 954.125610
v 496.536926 -145.952576 951.225586
v 497.382324 -145.332184 954.125610
v 496.536926 -145.952576 954.125610
v 497.382324 -145.332184 951.225586
v 497.671234 -143.308182 951.225586
v 497.036743 -142.471771 951.225586
v 497.036743 -142.471771 954.125610
v 497.671234 -143.308182 954.125610
v 497.382324 -145.332184 951.225586
v 497.801636 -144.361374 954.125610
v 497.382324 -145.332184 954.125610
v 497.801636 -144.361374 951.225586
v 497.775330 -144.148575 951.225586
v 497.671234 -143.308182 951.225586
v 497.671234 -143.308182 954.125610
v 497.801636 -144.361374 951.225586
v 497.801636 -144.361374 954.125610
vt 0.000000 0.000000
vt 0.424500 1.142180
vt 0.000000 1.142180
vt 0.424500 0.000000
vt 0.000000 0.000000
vt 0.422980 0.000000
vt 0.422980 1.142180
vt 0.000000 1.142180
vt 0.000000 0.000000
vt 0.419920 1.142180
vt 0.000000 1.142180
vt 0.232550 0.000000
vt 0.000000 0.000000
vt 0.419480 0.000000
vt 0.419480 1.142180
vt 0.000000 1.142180
vt 0.000000 0.000000
vt 0.422110 0.000000
vt 0.422110 1.142180
vt 0.000000 1.142180
vt 0.000000 0.000000
vt 0.424910 0.000000
vt 0.424910 1.142180
vt 0.000000 1.142180
vt 0.000000 0.000000
vt 0.424910 1.142180
vt 0.000000 1.142180
vt 0.424910 0.000000
vt 0.000000 0.000000
vt 0.422110 0.000000
vt 0.422110 1.142180
vt 0.000000 1.142180
vt 0.000000 0.000000
vt 0.419480 1.142180
vt 0.000000 1.142180
vt 0.419480 0.000000
vt 0.000000 0.000000
vt 0.419920 0.000000
vt 0.419920 1.142180
vt 0.000000 1.142180
vt 0.000000 0.000000
vt 0.422980 1.142180
vt 0.000000 1.142180
vt 0.422980 0.000000
vt 0.085780 0.000000
vt 0.424500 0.000000
vt 0.424500 1.142180
vt 0.000000 0.000000
vt 0.000000 1.142180
vt 0.419920 0.000000
vn -0.9924 -0.1229 0.0000
vn -0.9181 0.3965 0.0000
vn -0.9180 0.3965 0.0000
vn -0.7967 -0.6044 0.0000
vn -0.7968 -0.6043 0.0000
vn -0.5916 0.8063 0.0000
vn -0.5916 0.8062 0.0000
vn -0.3996 -0.9167 0.0000
vn -0.1265 0.9920 0.0000
vn 0.1265 -0.9920 0.0000
vn 0.3996 0.9167 0.0000
vn 0.5916 -0.8062 0.0000
vn 0.7967 0.6044 0.0000
vn 0.9180 -0.3965 0.0000
vn 0.9181 -0.3965 0.0000
vn 0.9924 0.1229 0.0000
vn 0.9924 0.1229 0.0001
vn 0.9924 0.1228 0.0000
s off
f 1/1/1 2/2/1 3/3/1
f 1/1/1 4/4/1 2/2/1
f 5/5/2 6/6/2 7/7/2
f 5/5/3 7/7/3 8/8/3
f 9/9/4 10/10/4 11/11/4
f 9/9/5 12/12/5 10/10/5
f 14/13/6 15/14/6 16/15/6
f 14/13/7 16/15/7 17/16/7
f 18/17/8 19/18/8 20/19/8
f 18/17/8 20/19/8 21/20/8
f 22/21/9 23/22/9 24/23/9
f 22/21/9 24/23/9 25/24/9
f 26/25/10 27/26/10 28/27/10
f 26/25/10 29/28/10 27/26/10
f 30/29/11 31/30/11 32/31/11
f 30/29/11 32/31/11 33/32/11
f 34/33/12 35/34/12 36/35/12
f 34/33/12 37/36/12 35/34/12
f 38/37/13 39/38/13 40/39/13
f 38/37/13 40/39/13 41/40/13
f 42/41/14 43/42/14 44/43/14
f 42/41/15 45/44/15 43/42/15
f 46/45/16 47/46/16 48/47/16
f 49/48/17 46/45/17 48/47/17
f 49/48/18 48/47/18 50/49/18
s 1
f 12/12/4 13/50/4 10/10/4
