# Blender v3.0.1 OBJ File: 'rockerfeller_plaza.blend'
# www.blender.org
o geometryt000010000010000110010110000110000110100100000010st144
v 546.932129 -86.746490 931.636963
v 573.744019 -101.156281 931.636963
v 566.422424 -114.775078 931.636963
v 539.610352 -100.354179 931.636963
v 546.932129 -86.746490 969.336975
v 539.610352 -100.354179 969.336975
v 566.422424 -114.775078 969.336975
v 573.744019 -101.156281 969.336975
vt 0.145050 0.079070
vt 0.162740 0.132770
vt 0.189850 0.117690
vt 0.172140 0.063990
vt 0.145050 0.079070
vt 0.172140 0.063990
vt 0.189850 0.117690
vt 0.162740 0.132770
vn 0.0000 0.0000 -1.0000
vn -0.0000 0.0000 1.0000
s off
f 1/1/1 2/2/1 3/3/1
f 4/4/1 1/1/1 3/3/1
f 5/5/2 6/6/2 7/7/2
f 5/5/2 7/7/2 8/8/2
