# Blender v3.0.1 OBJ File: 'rockerfeller_plaza.blend'
# www.blender.org
o geometryt000010000010000110010110000110000100110110010010st90_H
v 18.722343 -289.732086 843.896973
v 18.558620 -290.035767 966.528870
v 18.722343 -289.732086 966.528870
v 21.945589 -283.753571 843.896973
v 18.558620 -290.035767 843.528870
v 21.945589 -283.753571 966.528870
v 22.924980 -281.936981 966.528870
v 22.924980 -281.936981 843.896973
v 23.730789 -280.442291 843.896973
v 23.730789 -280.442291 966.528870
v 24.710178 -278.625671 966.528870
v 24.710178 -278.625671 843.896973
v 27.127621 -274.141785 843.896973
v 33.279179 -262.731781 843.528870
v 27.127621 -274.141785 966.528870
v 28.107010 -272.325287 966.528870
v 28.107010 -272.325287 843.896973
v 28.912819 -270.830566 843.896973
v 28.912819 -270.830566 966.528870
v 29.892208 -269.013977 966.528870
v 29.892208 -269.013977 843.896973
v 33.115459 -263.035492 843.896973
v 33.115459 -263.035492 966.528870
v 33.279179 -262.731781 966.528870
v 25.246769 -293.643585 843.896973
v 25.550411 -293.807373 966.528870
v 25.246769 -293.643585 966.528870
v 23.752331 -292.837463 843.896973
v 25.550411 -293.807373 843.528870
v 23.752331 -292.837463 966.528870
v 22.801739 -292.324677 966.528870
v 22.801739 -292.324677 843.896973
v 21.307289 -291.518463 843.896973
v 21.307289 -291.518463 966.528870
v 20.356699 -291.005676 966.528870
v 20.356699 -291.005676 843.896973
v 18.558620 -290.035767 843.528870
v 18.862259 -290.199585 843.896973
v 18.862259 -290.199585 966.528870
v 18.558620 -290.035767 966.528870
v 27.585251 -294.812683 843.896973
v 28.097721 -295.065887 966.528870
v 27.585251 -294.812683 966.528870
v 26.062878 -294.060577 843.896973
v 28.097721 -295.065887 843.528870
v 26.062878 -294.060577 966.528870
v 25.550411 -293.807373 966.528870
v 25.550411 -293.807373 843.528870
v 28.097721 -295.065887 843.528870
v 28.544060 -294.239075 843.528870
v 28.544060 -294.239075 966.528870
v 28.097721 -295.065887 966.528870
v 32.084671 -296.156464 843.896973
v 32.638988 -296.456665 966.528870
v 32.084671 -296.156464 966.528870
v 28.544060 -294.239075 843.528870
v 29.098389 -294.539276 843.896973
v 32.638988 -296.456665 843.528870
v 29.098389 -294.539276 966.528870
v 28.544060 -294.239075 966.528870
v 33.566208 -294.738190 843.896973
v 33.730030 -294.434479 966.528870
v 33.566208 -294.738190 966.528870
v 32.638988 -296.456665 843.528870
v 32.802811 -296.152985 843.896973
v 33.730030 -294.434479 843.528870
v 32.802811 -296.152985 966.528870
v 32.638988 -296.456665 966.528870
v 33.582829 -262.895569 843.896973
v 33.279179 -262.731781 966.528870
v 33.582829 -262.895569 966.528870
v 39.560848 -266.119781 843.896973
v 33.279179 -262.731781 843.528870
v 39.560848 -266.119781 966.528870
v 41.181610 -266.993988 966.528870
v 41.181610 -266.993988 843.896973
v 42.676109 -267.799988 843.896973
v 42.676109 -267.799988 966.528870
v 44.296871 -268.674164 966.528870
v 44.296871 -268.674164 843.896973
v 45.791382 -269.480164 843.896973
v 53.693802 -273.742371 843.528870
v 45.791382 -269.480164 966.528870
v 47.412140 -270.354370 966.528870
v 47.412140 -270.354370 843.896973
v 53.390152 -273.578583 843.896973
v 53.390152 -273.578583 966.528870
v 53.693802 -273.742371 966.528870
v 40.248428 -297.955383 843.896973
v 40.551979 -298.119263 966.528870
v 40.248428 -297.955383 966.528870
v 38.754429 -297.148376 843.896973
v 40.551979 -298.119263 843.528870
v 38.754429 -297.148376 966.528870
v 37.888008 -296.680389 966.528870
v 37.888008 -296.680389 843.896973
v 36.394001 -295.873474 843.896973
v 36.394001 -295.873474 966.528870
v 35.527588 -295.405487 966.528870
v 35.527588 -295.405487 843.896973
v 33.730030 -294.434479 843.528870
v 34.033581 -294.598480 843.896973
v 34.033581 -294.598480 966.528870
v 33.730030 -294.434479 966.528870
v 53.530090 -274.046082 843.896973
v 53.693802 -273.742371 966.528870
v 53.530090 -274.046082 966.528870
v 50.306969 -280.024689 843.896973
v 53.693802 -273.742371 843.528870
v 50.306969 -280.024689 966.528870
v 49.520710 -281.483063 966.528870
v 49.520710 -281.483063 843.896973
v 48.714931 -282.977783 843.896973
v 48.714931 -282.977783 966.528870
v 47.928669 -284.436188 966.528870
v 47.928669 -284.436188 843.896973
v 46.317112 -287.425476 843.896973
v 40.551979 -298.119263 843.528870
v 46.317112 -287.425476 966.528870
v 45.530861 -288.883972 966.528870
v 45.530861 -288.883972 843.896973
v 44.725079 -290.378571 843.896973
v 44.725079 -290.378571 966.528870
v 43.938820 -291.837067 966.528870
v 43.938820 -291.837067 843.896973
v 40.715698 -297.815674 843.896973
v 40.715698 -297.815674 966.528870
v 40.551979 -298.119263 966.528870
vt 164.915894 1.978770
vt 166.770706 661.290405
vt 164.915894 661.290405
vt 128.399399 1.978770
vt 166.770706 0.000000
vt 128.399399 661.290405
vt 117.303802 661.290405
vt 117.303802 1.978770
vt 108.174698 661.290405
vt 97.079079 661.290405
vt 108.174698 1.978770
vt 97.079079 1.978770
vt 69.691681 1.978770
vt 0.000000 0.000000
vt 69.691681 661.290405
vt 58.596088 661.290405
vt 58.596088 1.978770
vt 49.466961 661.290405
vt 38.371361 661.290405
vt 49.466961 1.978770
vt 38.371361 1.978770
vt 1.854840 1.978770
vt 1.854840 661.290405
vt 0.000000 661.290405
vt 40.856022 1.978770
vt 42.710861 661.290405
vt 40.856022 661.290405
vt 31.726891 1.978770
vt 42.710861 0.000000
vt 31.726891 661.290405
vt 25.920000 661.290405
vt 25.920000 1.978770
vt 16.790859 1.978770
vt 16.790859 661.290405
vt 10.983970 661.290405
vt 10.983970 1.978770
vt 0.000000 0.000000
vt 1.854840 1.978770
vt 1.854840 661.290405
vt 0.000000 661.290405
vt 12.202180 1.978770
vt 15.275230 661.290405
vt 12.202180 661.290405
vt 3.073050 1.978770
vt 15.275230 0.000000
vt 3.073050 661.290405
vt 0.000000 661.290405
vt 0.000000 0.000000
vt 0.000000 0.000000
vt 5.051170 0.000000
vt 5.051170 661.290405
vt 0.000000 661.290405
vt 21.647440 1.978770
vt 25.036619 661.290405
vt 21.647440 661.290405
vt 0.000000 0.000000
vt 3.389180 1.978770
vt 25.036619 0.000000
vt 3.389180 661.290405
vt 0.000000 661.290405
vt 10.498250 1.978770
vt 12.353090 661.290405
vt 10.498250 661.290405
vt 0.000000 0.000000
vt 1.854840 1.978770
vt 12.353090 0.000000
vt 1.854840 661.290405
vt 0.000000 661.290405
vt 122.847298 1.978770
vt 124.702103 661.290405
vt 122.847298 661.290405
vt 86.330757 1.978770
vt 124.702103 0.000000
vt 86.330757 661.290405
vt 76.430382 661.290405
vt 76.430382 1.978770
vt 67.301247 661.290405
vt 57.400879 661.290405
vt 67.301247 1.978770
vt 57.400879 1.978770
vt 0.000000 0.000000
vt 48.271740 661.290405
vt 38.371361 661.290405
vt 48.271740 1.978770
vt 38.371361 1.978770
vt 1.854840 1.978770
vt 1.854840 661.290405
vt 0.000000 661.290405
vt 39.830639 1.978770
vt 41.685478 661.290405
vt 39.830639 661.290405
vt 30.701509 1.978770
vt 41.685478 0.000000
vt 30.701509 661.290405
vt 25.407301 661.290405
vt 25.407301 1.978770
vt 16.278170 1.978770
vt 16.278170 661.290405
vt 10.983970 661.290405
vt 10.983970 1.978770
vt 0.000000 0.000000
vt 1.854840 1.978770
vt 1.854840 661.290405
vt 0.000000 661.290405
vt 147.036301 1.978770
vt 148.891098 661.290405
vt 147.036301 661.290405
vt 110.519798 1.978770
vt 148.891098 0.000000
vt 110.519798 661.290405
vt 101.611801 661.290405
vt 101.611801 1.978770
vt 92.482681 1.978770
vt 92.482681 661.290405
vt 83.574692 661.290405
vt 83.574692 1.978770
vt 65.316429 1.978770
vt 0.000000 0.000000
vt 65.316429 661.290405
vt 56.408459 661.290405
vt 56.408459 1.978770
vt 47.279331 1.978770
vt 47.279331 661.290405
vt 38.371361 661.290405
vt 38.371361 1.978770
vt 1.854840 1.978770
vt 1.854840 661.290405
vt 0.000000 661.290405
vn -0.8802 0.4746 0.0000
vn -0.8803 0.4744 0.0000
vn -0.8800 0.4750 -0.0005
vn -0.8800 0.4750 0.0000
vn -0.8804 0.4742 0.0000
vn -0.8802 0.4746 -0.0001
vn -0.8800 0.4750 -0.0003
vn -0.8803 0.4745 0.0001
vn -0.8803 0.4745 0.0000
vn -0.4750 -0.8800 0.0000
vn -0.4747 -0.8801 -0.0001
vn -0.4747 -0.8801 0.0000
vn -0.4748 -0.8801 0.0000
vn -0.4747 -0.8802 0.0003
vn -0.4751 -0.8799 -0.0003
vn -0.4747 -0.8802 -0.0003
vn -0.4746 -0.8802 0.0002
vn -0.4746 -0.8802 0.0000
vn -0.4430 -0.8965 0.0000
vn -0.4429 -0.8966 0.0000
vn -0.4428 -0.8966 0.0000
vn 0.8800 -0.4750 0.0000
vn -0.4762 -0.8793 0.0000
vn -0.4763 -0.8793 0.0000
vn -0.4761 -0.8794 0.0000
vn 0.8801 -0.4747 0.0000
vn 0.8801 -0.4747 0.0001
vn 0.8801 -0.4749 -0.0001
vn 0.8801 -0.4748 0.0000
vn 0.4747 0.8801 0.0000
vn 0.4747 0.8801 0.0001
vn 0.4747 0.8801 -0.0004
vn 0.4741 0.8804 0.0000
vn 0.4747 0.8802 0.0001
vn 0.4748 0.8801 0.0000
vn -0.4755 -0.8797 0.0000
vn -0.4753 -0.8798 0.0002
vn -0.4751 -0.8800 0.0000
vn -0.4752 -0.8799 0.0000
vn -0.4753 -0.8798 0.0004
vn -0.4754 -0.8797 0.0003
vn -0.4753 -0.8798 0.0000
vn -0.4749 -0.8800 0.0000
vn 0.8803 -0.4745 0.0000
vn 0.8803 -0.4744 -0.0001
vn 0.8802 -0.4746 0.0000
vn 0.8800 -0.4750 0.0002
vn 0.8804 -0.4742 -0.0001
vn 0.8801 -0.4748 -0.0004
vn 0.8802 -0.4745 0.0000
vn 0.8804 -0.4741 0.0004
vn 0.8804 -0.4743 -0.0001
vn 0.8802 -0.4747 0.0000
vn 0.8803 -0.4744 0.0000
vn -0.8804 0.4742 0.0008
vn -0.8800 0.4749 0.0001
vn -0.8802 0.4745 0.0002
vn -0.8804 0.4742 0.0004
vn 0.4749 0.8800 0.0000
vn 0.4749 0.8800 0.0001
vn 0.4748 0.8801 0.0001
vn 0.4749 0.8800 0.0002
vn 0.4747 0.8801 0.0007
vn 0.8796 -0.4757 0.0003
vn 0.8800 -0.4751 -0.0003
s off
f 1/1/1 2/2/1 3/3/1
f 4/4/2 5/5/2 1/1/2
f 2/2/1 1/1/1 5/5/1
f 6/6/1 7/7/1 4/4/1
f 7/7/1 8/8/1 4/4/1
f 8/8/3 5/5/3 4/4/3
f 10/9/1 11/10/1 9/11/1
f 11/10/1 12/12/1 9/11/1
f 9/11/4 12/12/4 5/5/4
f 13/13/5 14/14/5 12/12/5
f 12/12/6 14/14/6 5/5/6
f 15/15/1 16/16/1 13/13/1
f 16/16/1 17/17/1 13/13/1
f 19/18/1 20/19/1 18/20/1
f 20/19/1 21/21/1 18/20/1
f 21/21/7 14/14/7 18/20/7
f 22/22/8 14/14/8 21/21/8
f 23/23/9 24/24/9 22/22/9
f 25/25/10 26/26/10 27/27/10
f 28/28/11 29/29/11 25/25/11
f 26/26/12 25/25/12 29/29/12
f 30/30/13 31/31/13 28/28/13
f 31/31/13 32/32/13 28/28/13
f 32/32/14 29/29/14 28/28/14
f 32/32/15 33/33/15 29/29/15
f 34/34/13 35/35/13 33/33/13
f 35/35/13 36/36/13 33/33/13
f 36/36/16 37/37/16 33/33/16
f 33/33/17 37/37/17 29/29/17
f 38/38/18 37/37/18 36/36/18
f 39/39/13 40/40/13 38/38/13
f 40/40/13 37/37/13 38/38/13
f 41/41/19 42/42/19 43/43/19
f 44/44/20 45/45/20 41/41/20
f 42/42/19 41/41/19 45/45/19
f 46/46/19 47/47/19 44/44/19
f 47/47/19 48/48/19 44/44/19
f 48/48/21 45/45/21 44/44/21
f 49/49/22 50/50/22 51/51/22
f 49/49/22 51/51/22 52/52/22
f 53/53/23 54/54/23 55/55/23
f 56/56/24 53/53/24 57/57/24
f 56/56/25 58/58/25 53/53/25
f 54/54/23 53/53/23 58/58/23
f 59/59/23 60/60/23 57/57/23
f 60/60/23 56/56/23 57/57/23
f 61/61/26 62/62/26 63/63/26
f 64/64/27 61/61/27 65/65/27
f 64/64/28 66/66/28 61/61/28
f 62/62/26 61/61/26 66/66/26
f 67/67/29 68/68/29 65/65/29
f 68/68/29 64/64/29 65/65/29
f 69/69/30 70/70/30 71/71/30
f 72/72/31 73/73/31 69/69/31
f 70/70/30 69/69/30 73/73/30
f 74/74/30 75/75/30 72/72/30
f 75/75/30 76/76/30 72/72/30
f 76/76/32 73/73/32 72/72/32
f 78/77/30 79/78/30 77/79/30
f 79/78/30 80/80/30 77/79/30
f 77/79/33 80/80/33 73/73/33
f 80/80/34 82/81/34 73/73/34
f 83/82/30 84/83/30 81/84/30
f 84/83/30 85/85/30 81/84/30
f 86/86/35 82/81/35 85/85/35
f 87/87/30 88/88/30 86/86/30
f 88/88/30 82/81/30 86/86/30
f 89/89/36 90/90/36 91/91/36
f 92/92/37 93/93/37 89/89/37
f 90/90/38 89/89/38 93/93/38
f 94/94/39 95/95/39 92/92/39
f 95/95/39 96/96/39 92/92/39
f 96/96/39 93/93/39 92/92/39
f 96/96/40 97/97/40 93/93/40
f 98/98/39 99/99/39 97/97/39
f 99/99/39 100/100/39 97/97/39
f 100/100/41 101/101/41 97/97/41
f 97/97/15 101/101/15 93/93/15
f 102/102/42 101/101/42 100/100/42
f 103/103/42 104/104/42 102/102/42
f 104/104/43 101/101/43 102/102/43
f 105/105/44 106/106/44 107/107/44
f 108/108/45 109/109/45 105/105/45
f 106/106/29 105/105/29 109/109/29
f 110/110/46 111/111/46 108/108/46
f 111/111/46 112/112/46 108/108/46
f 112/112/47 109/109/47 108/108/47
f 112/112/48 113/113/48 109/109/48
f 114/114/46 115/115/46 113/113/46
f 115/115/46 116/116/46 113/113/46
f 117/117/49 118/118/49 116/116/49
f 116/116/46 118/118/46 109/109/46
f 119/119/50 120/120/50 117/117/50
f 120/120/50 121/121/50 117/117/50
f 122/122/51 118/118/51 121/121/51
f 123/123/50 124/124/50 122/122/50
f 124/124/50 125/125/50 122/122/50
f 126/126/52 118/118/52 125/125/52
f 127/127/53 128/128/53 126/126/53
f 128/128/54 118/118/54 126/126/54
s 1
f 8/8/55 9/11/55 5/5/55
f 17/17/56 14/14/57 13/13/56
f 18/20/58 14/14/57 17/17/56
f 24/24/9 14/14/9 22/22/9
f 76/76/59 77/79/59 73/73/59
f 81/84/60 82/81/61 80/80/62
f 85/85/63 82/81/61 81/84/60
f 113/113/64 116/116/64 109/109/64
f 121/121/45 118/118/45 117/117/45
f 125/125/65 118/118/65 122/122/65
