# Blender v3.0.1 OBJ File: 'rockerfeller_plaza.blend'
# www.blender.org
o geometryt000010000010000110010110000110000110100000110000st9
v 917.579651 -179.853134 425.382904
v 915.348572 -183.981033 425.382904
v 915.348572 -183.981033 448.050720
v 917.579651 -179.853134 448.050720
v 919.458984 -176.376144 448.050720
v 919.458984 -176.376144 425.382904
v 917.971558 -179.128036 425.382904
v 917.971558 -179.128036 448.050720
v 920.594543 -174.275040 448.050720
v 920.594543 -174.275040 425.382904
v 919.850830 -175.651031 425.382904
v 919.850830 -175.651031 448.050720
v 921.730042 -172.174042 448.050720
v 921.730042 -172.174042 425.382904
v 920.986328 -173.550034 425.382904
v 920.986328 -173.550034 448.050720
v 922.959961 -169.898544 448.050720
v 923.609375 -168.697037 425.382904
v 922.121948 -171.449036 425.382904
v 923.609375 -168.697037 448.050720
v 922.121948 -171.449036 448.050720
v 926.232361 -163.844040 425.382904
v 924.001221 -167.971939 425.382904
v 924.001221 -167.971939 448.050720
v 926.232361 -163.844040 448.050720
v 915.488037 -184.448532 448.050720
v 915.488037 -184.448532 425.382904
v 916.864136 -185.192032 425.382904
v 916.864136 -185.192032 448.050720
v 918.179443 -185.902542 425.382904
v 922.307861 -188.132843 425.382904
v 922.307861 -188.132843 448.050720
v 918.179443 -185.902542 448.050720
v 923.623047 -188.843445 425.382904
v 924.999268 -189.586838 425.382904
v 924.999268 -189.586838 448.050720
v 923.623047 -188.843445 448.050720
v 925.701355 -189.010742 448.050720
v 925.701355 -189.010742 425.382904
v 927.184631 -186.256546 425.382904
v 927.184631 -186.256546 448.050720
v 928.390564 -160.038742 448.050720
v 928.390564 -160.038742 425.382904
v 926.837280 -162.754044 425.382904
v 926.837280 -162.754044 448.050720
v 927.747559 -185.213043 448.050720
v 927.747559 -185.213043 425.382904
v 929.982239 -181.087036 425.382904
v 929.982239 -181.087036 448.050720
v 930.418579 -180.281433 425.382904
v 931.908325 -177.530746 425.382904
v 931.908325 -177.530746 448.050720
v 930.418579 -180.281433 448.050720
v 932.344666 -176.725037 448.050720
v 932.344666 -176.725037 425.382904
v 933.089539 -175.349731 425.382904
v 933.089539 -175.349731 448.050720
v 933.525940 -174.544037 425.382904
v 935.015625 -171.793335 425.382904
v 935.015625 -171.793335 448.050720
v 933.525940 -174.544037 448.050720
v 936.041565 -169.899246 448.050720
v 935.452026 -170.987732 425.382904
v 937.686646 -166.861740 425.382904
v 935.452026 -170.987732 448.050720
v 937.686646 -166.861740 448.050720
v 930.517822 -160.163544 448.050720
v 930.517822 -160.163544 425.382904
v 929.141846 -159.420044 425.382904
v 929.141846 -159.420044 448.050720
v 935.910522 -163.077240 425.382904
v 931.782349 -160.846741 425.382904
v 931.782349 -160.846741 448.050720
v 935.910522 -163.077240 448.050720
v 938.551025 -164.503937 425.382904
v 937.174927 -163.760437 425.382904
v 937.174927 -163.760437 448.050720
v 938.551025 -164.503937 448.050720
v 938.009155 -166.251633 448.050720
v 938.009155 -166.251633 425.382904
v 938.692017 -164.972336 425.382904
v 938.692017 -164.972336 448.050720
vt 0.000000 1.250000
vt 0.000000 0.000000
vt 0.500000 0.000000
vt 0.500000 1.250000
vt 0.000000 1.250000
vt 0.000000 0.000000
vt 0.250000 0.000000
vt 0.250000 1.250000
vt 0.000000 1.250000
vt 0.000000 0.000000
vt 0.250000 0.000000
vt 0.250000 1.250000
vt 0.218300 1.250000
vt 0.000000 0.000000
vt 0.500000 0.000000
vt 0.000000 1.250000
vt 0.500000 1.250000
vt 0.000000 1.250000
vt 0.000000 0.000000
vt 0.250000 0.000000
vt 0.250000 1.250000
vt 0.000000 0.000000
vt 0.750000 0.000000
vt 0.750000 1.250000
vt 0.000000 1.250000
vt 0.000000 0.000000
vt 0.250000 0.000000
vt 0.250000 1.250000
vt 0.000000 1.250000
vt 0.000000 1.250000
vt 0.000000 0.000000
vt 0.500000 0.000000
vt 0.500000 1.250000
vt 0.000000 1.250000
vt 0.000000 0.000000
vt 0.500000 0.000000
vt 0.500000 1.250000
vt 0.000000 1.250000
vt 0.000000 0.000000
vt 0.750000 0.000000
vt 0.750000 1.250000
vt 0.000000 0.000000
vt 0.500000 0.000000
vt 0.500000 1.250000
vt 0.000000 1.250000
vt 0.000000 1.250000
vt 0.000000 0.000000
vt 0.250000 0.000000
vt 0.250000 1.250000
vt 0.000000 0.000000
vt 0.500000 0.000000
vt 0.500000 1.250000
vt 0.000000 1.250000
vt 0.197860 1.250000
vt 0.000000 0.000000
vt 0.750000 0.000000
vt 0.000000 1.250000
vt 0.750000 1.250000
vt 0.000000 1.250000
vt 0.000000 0.000000
vt 0.250000 0.000000
vt 0.250000 1.250000
vt 0.000000 0.000000
vt 0.750000 0.000000
vt 0.750000 1.250000
vt 0.000000 1.250000
vt 0.000000 0.000000
vt 0.250000 0.000000
vt 0.250000 1.250000
vt 0.000000 1.250000
vt 0.000000 1.250000
vt 0.000000 0.000000
vt 0.250000 0.000000
vt 0.250000 1.250000
vt 0.000000 0.000000
vt 0.750000 0.000000
vt 0.750000 1.250000
vt 0.000000 1.250000
vt 0.000000 0.000000
vt 0.750000 0.000000
vt 0.750000 1.250000
vt 0.000000 1.250000
vn -0.8797 0.4755 0.0000
vn -0.8798 0.4754 0.0000
vn -0.8797 0.4754 0.0000
vn -0.4754 -0.8798 0.0000
vn -0.4753 -0.8798 0.0000
vn 0.8804 -0.4741 0.0000
vn -0.8680 0.4966 0.0000
vn -0.8680 0.4965 0.0000
vn 0.8793 -0.4762 0.0000
vn 0.8793 -0.4763 0.0000
vn 0.4754 0.8798 0.0000
vn 0.4753 0.8798 0.0000
vn 0.8822 -0.4709 0.0000
vn 0.8822 -0.4708 0.0000
s off
f 5/1/1 6/2/1 7/3/1
f 5/1/1 7/3/1 8/4/1
f 9/5/1 10/6/1 11/7/1
f 9/5/2 11/7/2 12/8/2
f 13/9/1 14/10/1 15/11/1
f 13/9/1 15/11/1 16/12/1
f 17/13/1 18/14/1 19/15/1
f 20/16/3 18/14/3 17/13/3
f 17/13/1 19/15/1 21/17/1
f 26/18/4 27/19/4 28/20/4
f 26/18/5 28/20/5 29/21/5
f 30/22/5 31/23/5 32/24/5
f 33/25/5 30/22/5 32/24/5
f 34/26/5 35/27/5 36/28/5
f 37/29/5 34/26/5 36/28/5
f 38/30/6 39/31/6 40/32/6
f 38/30/6 40/32/6 41/33/6
f 42/34/7 43/35/7 44/36/7
f 42/34/8 44/36/8 45/37/8
f 46/38/9 47/39/9 48/40/9
f 46/38/10 48/40/10 49/41/10
f 50/42/9 51/43/9 52/44/9
f 53/45/9 50/42/9 52/44/9
f 54/46/10 55/47/10 56/48/10
f 54/46/9 56/48/9 57/49/9
f 58/50/9 59/51/9 60/52/9
f 61/53/9 58/50/9 60/52/9
f 62/54/9 63/55/9 64/56/9
f 65/57/10 63/55/10 62/54/10
f 62/54/9 64/56/9 66/58/9
f 67/59/11 68/60/11 69/61/11
f 67/59/11 69/61/11 70/62/11
f 71/63/11 72/64/11 73/65/11
f 74/66/11 71/63/11 73/65/11
f 75/67/11 76/68/11 77/69/11
f 78/70/12 75/67/12 77/69/12
f 79/71/13 80/72/13 81/73/13
f 79/71/14 81/73/14 82/74/14
s 1
f 1/75/1 2/76/1 3/77/1
f 4/78/1 1/75/1 3/77/1
f 22/79/1 23/80/1 24/81/1
f 25/82/1 22/79/1 24/81/1
