# Blender v3.0.1 OBJ File: 'rockerfeller_plaza.blend'
# www.blender.org
o geometryt000010000010000110010110000110000110100000100100st79
v 498.006409 -189.608627 611.887756
v 483.578796 -216.499420 611.887756
v 463.819092 -205.893127 611.887756
v 472.257599 -175.785721 611.887756
v 458.857910 -203.230728 611.887756
v 457.821503 -202.676620 611.887756
v 472.257599 -175.785721 664.787720
v 457.821503 -202.676620 664.787720
v 458.857910 -203.230728 664.787720
v 463.819092 -205.893127 664.787720
v 498.006409 -189.608627 664.787720
v 483.578796 -216.499420 664.787720
vt 0.267730 0.485510
vt 0.321250 0.455810
vt 0.308230 0.416230
vt 0.250760 0.433940
vt 0.304960 0.406290
vt 0.304290 0.404210
vt 0.250760 0.433940
vt 0.304290 0.404210
vt 0.304960 0.406290
vt 0.308230 0.416230
vt 0.267730 0.485510
vt 0.321250 0.455810
vn -0.0000 0.0000 -1.0000
vn 0.0000 0.0000 1.0000
s off
f 1/1/1 2/2/1 3/3/1
f 3/3/1 4/4/1 1/1/1
f 5/5/1 4/4/1 3/3/1
f 5/5/1 6/6/1 4/4/1
f 7/7/2 8/8/2 9/9/2
f 10/10/2 7/7/2 9/9/2
f 10/10/2 11/11/2 7/7/2
f 10/10/2 12/12/2 11/11/2
