# Blender v3.0.1 OBJ File: 'rockerfeller_plaza.blend'
# www.blender.org
o geometryt000010000010000110010110000110000110100000010110st77
v 1037.766113 -123.515678 189.719971
v 1037.477173 -124.046974 211.799072
v 1037.766113 -123.515678 211.799072
v 1039.898804 -119.594879 189.719971
v 1037.477173 -124.046974 189.299072
v 1039.898804 -119.594879 211.799072
v 1040.187744 -119.063576 211.799072
v 1040.187744 -119.063576 189.299072
v 1039.362915 -125.070076 189.719971
v 1039.940918 -125.383675 211.799072
v 1039.362915 -125.070076 211.799072
v 1037.477173 -124.046974 189.299072
v 1038.055176 -124.360580 189.719971
v 1039.940918 -125.383675 189.299072
v 1038.055176 -124.360580 211.799072
v 1037.477173 -124.046974 211.799072
v 1049.943359 -130.735870 189.719971
v 1050.763306 -131.174576 211.799072
v 1049.943359 -130.735870 211.799072
v 1039.940918 -125.383675 189.299072
v 1040.760864 -125.822479 189.719971
v 1050.763306 -131.174576 189.299072
v 1040.760864 -125.822479 211.799072
v 1039.940918 -125.383675 211.799072
v 1040.350708 -118.759575 189.719971
v 1040.187744 -119.063576 211.799072
v 1040.350708 -118.759575 211.799072
v 1041.756470 -116.136978 189.719971
v 1040.187744 -119.063576 189.299072
v 1041.756470 -116.136978 211.799072
v 1041.845459 -115.970879 211.799072
v 1041.845459 -115.970879 189.719971
v 1042.548218 -114.659576 189.719971
v 1042.548218 -114.659576 211.799072
v 1042.637207 -114.493576 211.799072
v 1042.637207 -114.493576 189.719971
v 1043.340088 -113.182274 189.719971
v 1043.340088 -113.182274 211.799072
v 1043.429077 -113.016273 211.799072
v 1043.429077 -113.016273 189.719971
v 1044.834717 -110.393677 189.719971
v 1044.834717 -110.393677 211.799072
v 1044.923706 -110.227676 211.799072
v 1044.923706 -110.227676 189.719971
v 1047.734985 -104.982475 189.719971
v 1051.380859 -98.180145 189.299072
v 1047.734985 -104.982475 211.799072
v 1047.823975 -104.816475 211.799072
v 1047.823975 -104.816475 189.719971
v 1049.229614 -102.193878 189.719971
v 1049.229614 -102.193878 211.799072
v 1049.318604 -102.027779 211.799072
v 1049.318604 -102.027779 189.719971
v 1050.021362 -100.716476 189.719971
v 1050.021362 -100.716476 211.799072
v 1050.110352 -100.550476 211.799072
v 1050.110352 -100.550476 189.719971
v 1050.813232 -99.239197 189.719971
v 1050.813232 -99.239197 211.799072
v 1050.902222 -99.073174 211.799072
v 1050.902222 -99.073174 189.719971
v 1052.307861 -96.450577 189.719971
v 1052.307861 -96.450577 211.799072
v 1052.470825 -96.146500 211.799072
v 1052.470825 -96.146500 189.299072
v 1065.537231 -103.670174 189.719971
v 1065.700439 -103.366280 211.799072
v 1065.537231 -103.670174 211.799072
v 1064.129150 -106.291580 189.719971
v 1065.700439 -103.366280 189.299072
v 1064.129150 -106.291580 211.799072
v 1063.886841 -106.742577 211.799072
v 1063.886841 -106.742577 189.719971
v 1063.182861 -108.053276 189.719971
v 1063.182861 -108.053276 211.799072
v 1062.940552 -108.504379 211.799072
v 1062.940552 -108.504379 189.719971
v 1062.236572 -109.814980 189.719971
v 1062.236572 -109.814980 211.799072
v 1061.994263 -110.266075 211.799072
v 1061.994263 -110.266075 189.719971
v 1060.586182 -112.887375 189.719971
v 1060.586182 -112.887375 211.799072
v 1060.343994 -113.338478 211.799072
v 1060.343994 -113.338478 189.719971
v 1056.119873 -121.202477 189.719971
v 1056.119873 -121.202477 211.799072
v 1055.877563 -121.653481 211.799072
v 1055.877563 -121.653481 189.719971
v 1050.763306 -131.174576 189.299072
v 1054.469482 -124.274879 189.719971
v 1054.469482 -124.274879 211.799072
v 1054.227173 -124.725876 211.799072
v 1054.227173 -124.725876 189.719971
v 1053.523193 -126.036575 189.719971
v 1053.523193 -126.036575 211.799072
v 1053.280884 -126.487679 211.799072
v 1053.280884 -126.487679 189.719971
v 1052.576904 -127.798279 189.719971
v 1052.576904 -127.798279 211.799072
v 1052.334595 -128.249374 211.799072
v 1052.334595 -128.249374 189.719971
v 1050.926636 -130.870667 189.719971
v 1050.926636 -130.870667 211.799072
v 1050.763306 -131.174576 211.799072
v 1052.758301 -96.303505 189.719971
v 1052.455444 -96.138237 211.799072
v 1052.758301 -96.303505 211.799072
v 1055.370239 -97.728874 189.719971
v 1052.455444 -96.138237 189.299072
v 1055.370239 -97.728874 211.799072
v 1055.808472 -97.968086 211.799072
v 1055.808472 -97.968086 189.719971
v 1057.114502 -98.680779 189.719971
v 1057.114502 -98.680779 211.799072
v 1057.552856 -98.919975 211.799072
v 1057.552856 -98.919975 189.719971
v 1058.858765 -99.632668 189.719971
v 1058.858765 -99.632668 211.799072
v 1059.297119 -99.871864 211.799072
v 1059.297119 -99.871864 189.719971
v 1060.603027 -100.584579 189.719971
v 1065.700439 -103.366280 189.299072
v 1060.603027 -100.584579 211.799072
v 1061.041382 -100.823776 211.799072
v 1061.041382 -100.823776 189.719971
v 1062.347412 -101.536476 189.719971
v 1062.347412 -101.536476 211.799072
v 1062.785645 -101.775681 211.799072
v 1062.785645 -101.775681 189.719971
v 1065.397583 -103.200974 189.719971
v 1065.397583 -103.200974 211.799072
v 1065.700439 -103.366280 211.799072
vt 27.247650 2.262860
vt 30.498920 120.967697
vt 27.247650 120.967697
vt 3.251280 2.262860
vt 30.498920 0.000000
vt 3.251280 120.967697
vt 0.000000 120.967697
vt 0.000000 0.000000
vt 11.534340 2.262860
vt 15.069900 120.967697
vt 11.534340 120.967697
vt 0.000000 0.000000
vt 3.535550 2.262860
vt 15.069900 0.000000
vt 3.535550 120.967697
vt 0.000000 120.967697
vt 60.991261 2.262860
vt 65.990997 120.967697
vt 60.991261 120.967697
vt 0.000000 0.000000
vt 4.999730 2.262860
vt 65.990997 0.000000
vt 4.999730 120.967697
vt 0.000000 120.967697
vt 137.937103 2.262860
vt 139.791901 120.967697
vt 137.937103 120.967697
vt 121.939499 2.262860
vt 139.791901 0.000000
vt 121.939499 120.967697
vt 120.926804 120.967697
vt 120.926804 2.262860
vt 112.928001 2.262860
vt 112.928001 120.967697
vt 111.915298 120.967697
vt 111.915298 2.262860
vt 103.916496 2.262860
vt 103.916496 120.967697
vt 102.903801 120.967697
vt 102.903801 2.262860
vt 86.906227 2.262860
vt 86.906227 120.967697
vt 85.893532 120.967697
vt 85.893532 2.262860
vt 53.898380 2.262860
vt 12.405040 0.000000
vt 53.898380 120.967697
vt 52.885681 120.967697
vt 52.885681 2.262860
vt 36.888100 2.262860
vt 36.888100 120.967697
vt 35.875401 120.967697
vt 35.875401 2.262860
vt 27.876610 2.262860
vt 27.876610 120.967697
vt 26.863911 120.967697
vt 26.863911 2.262860
vt 18.865120 2.262860
vt 18.865120 120.967697
vt 17.852421 120.967697
vt 17.852421 2.262860
vt 1.854840 2.262860
vt 1.854840 120.967697
vt 0.000000 120.967697
vt 0.000000 0.000000
vt 167.855606 2.262860
vt 169.710403 120.967697
vt 167.855606 120.967697
vt 151.858002 2.262860
vt 169.710403 0.000000
vt 151.858002 120.967697
vt 149.105194 120.967697
vt 149.105194 2.262860
vt 141.106400 2.262860
vt 141.106400 120.967697
vt 138.353607 120.967697
vt 138.353607 2.262860
vt 130.354797 2.262860
vt 130.354797 120.967697
vt 127.601997 120.967697
vt 127.601997 2.262860
vt 111.604401 120.967697
vt 108.851601 120.967697
vt 111.604401 2.262860
vt 108.851601 2.262860
vt 60.858829 2.262860
vt 60.858829 120.967697
vt 58.106010 120.967697
vt 58.106010 2.262860
vt 0.000000 0.000000
vt 42.108440 2.262860
vt 42.108440 120.967697
vt 39.355621 120.967697
vt 39.355621 2.262860
vt 31.356831 2.262860
vt 31.356831 120.967697
vt 28.604019 120.967697
vt 28.604019 2.262860
vt 20.605230 2.262860
vt 20.605230 120.967697
vt 17.852421 120.967697
vt 17.852421 2.262860
vt 1.854840 2.262860
vt 1.854840 120.967697
vt 0.000000 120.967697
vt 79.268471 2.262860
vt 81.123306 120.967697
vt 79.268471 120.967697
vt 63.270889 2.262860
vt 81.123306 0.000000
vt 63.270889 120.967697
vt 60.586231 120.967697
vt 60.586231 2.262860
vt 52.587440 2.262860
vt 52.587440 120.967697
vt 49.902771 120.967697
vt 49.902771 2.262860
vt 41.903980 2.262860
vt 41.903980 120.967697
vt 39.219318 120.967697
vt 39.219318 2.262860
vt 31.220530 2.262860
vt 0.000000 0.000000
vt 31.220530 120.967697
vt 28.535870 120.967697
vt 28.535870 2.262860
vt 20.537081 2.262860
vt 20.537081 120.967697
vt 17.852421 120.967697
vt 17.852421 2.262860
vt 1.854840 2.262860
vt 1.854840 120.967697
vt 0.000000 120.967697
vn -0.8784 0.4779 0.0000
vn -0.8784 0.4779 -0.0001
vn -0.8786 0.4776 0.0000
vn -0.8785 0.4777 0.0000
vn -0.8784 0.4778 0.0000
vn -0.8785 0.4778 0.0001
vn -0.4770 -0.8789 0.0000
vn -0.4769 -0.8790 -0.0000
vn -0.4768 -0.8790 0.0000
vn -0.4718 -0.8817 0.0000
vn -0.4718 -0.8817 -0.0002
vn -0.4719 -0.8817 0.0000
vn -0.8814 0.4724 0.0000
vn -0.8813 0.4726 0.0000
vn -0.8809 0.4733 0.0000
vn -0.8819 0.4715 0.0000
vn -0.8815 0.4722 0.0006
vn -0.8810 0.4732 0.0000
vn -0.8817 0.4717 0.0000
vn -0.8814 0.4725 -0.0003
vn -0.8814 0.4724 0.0003
vn -0.8814 0.4724 -0.0001
vn -0.8814 0.4724 0.0002
vn -0.8817 0.4718 0.0000
vn -0.8813 0.4725 -0.0004
vn -0.8819 0.4714 -0.0003
vn -0.8814 0.4724 0.0001
vn -0.8818 0.4717 0.0000
vn -0.8809 0.4733 0.0001
vn -0.8814 0.4723 0.0000
vn -0.8812 0.4727 0.0000
vn -0.8815 0.4721 0.0000
vn 0.8809 -0.4733 0.0000
vn 0.8809 -0.4732 -0.0001
vn 0.8812 -0.4728 0.0000
vn 0.8810 -0.4731 0.0000
vn 0.8808 -0.4734 0.0000
vn 0.8809 -0.4732 0.0004
vn 0.8810 -0.4730 0.0000
vn 0.8808 -0.4736 0.0000
vn 0.8811 -0.4729 -0.0006
vn 0.8809 -0.4733 -0.0001
vn 0.8810 -0.4732 -0.0002
vn 0.8809 -0.4734 0.0000
vn 0.8810 -0.4732 0.0005
vn 0.8807 -0.4736 0.0000
vn 0.8808 -0.4735 0.0000
vn 0.4792 0.8777 0.0000
vn 0.4791 0.8778 -0.0000
vn 0.4789 0.8778 0.0000
vn 0.4791 0.8777 0.0000
vn 0.4790 0.8778 -0.0009
vn 0.4791 0.8777 0.0003
vn 0.4790 0.8778 0.0000
vn 0.4791 0.8778 0.0006
vn 0.4791 0.8777 -0.0004
vn 0.4792 0.8777 0.0012
vn 0.4791 0.8778 0.0001
vn 0.4788 0.8779 -0.0006
vn 0.4790 0.8778 -0.0001
vn 0.4790 0.8778 0.0009
vn -0.8808 0.4736 -0.0004
vn -0.8818 0.4716 0.0005
vn -0.8818 0.4717 -0.0023
vn -0.8808 0.4734 0.0007
vn -0.8810 0.4731 -0.0000
vn -0.8813 0.4725 0.0000
vn 0.8811 -0.4730 0.0001
vn 0.8811 -0.4729 -0.0010
vn 0.8809 -0.4733 -0.0004
vn 0.8809 -0.4732 0.0002
vn 0.8810 -0.4731 0.0056
vn 0.8810 -0.4731 0.0057
vn 0.8809 -0.4733 -0.0006
vn 0.8809 -0.4732 0.0008
vn 0.8809 -0.4733 0.0003
s off
f 1/1/1 2/2/1 3/3/1
f 4/4/2 5/5/2 1/1/2
f 2/2/3 1/1/3 5/5/3
f 6/6/4 7/7/4 4/4/4
f 7/7/5 8/8/5 4/4/5
f 8/8/6 5/5/6 4/4/6
f 9/9/7 10/10/7 11/11/7
f 12/12/8 9/9/8 13/13/8
f 12/12/8 14/14/8 9/9/8
f 10/10/9 9/9/9 14/14/9
f 15/15/9 16/16/9 13/13/9
f 16/16/7 12/12/7 13/13/7
f 17/17/10 18/18/10 19/19/10
f 20/20/11 17/17/11 21/21/11
f 20/20/10 22/22/10 17/17/10
f 18/18/10 17/17/10 22/22/10
f 23/23/10 24/24/10 21/21/10
f 24/24/12 20/20/12 21/21/12
f 25/25/13 26/26/13 27/27/13
f 28/28/13 29/29/13 25/25/13
f 26/26/14 25/25/14 29/29/14
f 30/30/15 31/31/15 28/28/15
f 31/31/16 32/32/16 28/28/16
f 32/32/17 33/33/17 29/29/17
f 34/34/18 35/35/18 33/33/18
f 35/35/19 36/36/19 33/33/19
f 29/29/20 36/36/20 37/37/20
f 38/38/19 39/39/19 37/37/19
f 39/39/18 40/40/18 37/37/18
f 29/29/21 40/40/21 41/41/21
f 42/42/19 43/43/19 41/41/19
f 43/43/18 44/44/18 41/41/18
f 44/44/22 45/45/22 46/46/22
f 29/29/23 44/44/23 46/46/23
f 47/47/18 48/48/18 45/45/18
f 48/48/19 49/49/19 45/45/19
f 49/49/13 50/50/13 46/46/13
f 51/51/15 52/52/15 50/50/15
f 52/52/24 53/53/24 50/50/24
f 53/53/25 54/54/25 46/46/25
f 55/55/18 56/56/18 54/54/18
f 56/56/19 57/57/19 54/54/19
f 54/54/26 57/57/26 46/46/26
f 57/57/27 58/58/27 46/46/27
f 59/59/28 60/60/28 58/58/28
f 60/60/18 61/61/18 58/58/18
f 58/58/29 61/61/29 46/46/29
f 61/61/30 62/62/30 46/46/30
f 63/63/31 64/64/31 62/62/31
f 64/64/32 65/65/32 62/62/32
f 66/66/33 67/67/33 68/68/33
f 69/69/34 70/70/34 66/66/34
f 67/67/35 66/66/35 70/70/35
f 71/71/36 72/72/36 69/69/36
f 72/72/37 73/73/37 69/69/37
f 73/73/38 74/74/38 70/70/38
f 75/75/39 76/76/39 74/74/39
f 76/76/40 77/77/40 74/74/40
f 74/74/41 77/77/41 70/70/41
f 77/77/42 78/78/42 70/70/42
f 79/79/39 80/80/39 78/78/39
f 80/80/33 81/81/33 78/78/33
f 83/82/35 84/83/35 82/84/35
f 84/83/39 85/85/39 82/84/39
f 85/85/43 86/86/43 70/70/43
f 87/87/36 88/88/36 86/86/36
f 88/88/44 89/89/44 86/86/44
f 86/86/43 90/90/43 70/70/43
f 91/91/45 90/90/45 89/89/45
f 92/92/36 93/93/36 91/91/36
f 93/93/37 94/94/37 91/91/37
f 95/95/43 90/90/43 94/94/43
f 96/96/39 97/97/39 95/95/39
f 97/97/33 98/98/33 95/95/33
f 99/99/36 90/90/36 98/98/36
f 100/100/39 101/101/39 99/99/39
f 101/101/46 102/102/46 99/99/46
f 102/102/47 90/90/47 99/99/47
f 103/103/43 90/90/43 102/102/43
f 104/104/33 105/105/33 103/103/33
f 105/105/47 90/90/47 103/103/47
f 106/106/48 107/107/48 108/108/48
f 109/109/49 110/110/49 106/106/49
f 107/107/50 106/106/50 110/110/50
f 111/111/51 112/112/51 109/109/51
f 112/112/51 113/113/51 109/109/51
f 113/113/52 110/110/52 109/109/52
f 113/113/53 114/114/53 110/110/53
f 115/115/54 116/116/54 114/114/54
f 116/116/49 117/117/49 114/114/49
f 114/114/55 117/117/55 110/110/55
f 117/117/56 118/118/56 110/110/56
f 119/119/49 120/120/49 118/118/49
f 120/120/54 121/121/54 118/118/54
f 118/118/57 121/121/57 110/110/57
f 122/122/58 123/123/58 121/121/58
f 121/121/49 123/123/49 110/110/49
f 124/124/54 125/125/54 122/122/54
f 125/125/49 126/126/49 122/122/49
f 126/126/59 123/123/59 122/122/59
f 127/127/60 123/123/60 126/126/60
f 128/128/49 129/129/49 127/127/49
f 129/129/49 130/130/49 127/127/49
f 130/130/61 123/123/61 127/127/61
f 131/131/60 123/123/60 130/130/60
f 132/132/49 133/133/49 131/131/49
f 133/133/48 123/123/48 131/131/48
s 1
f 28/28/25 32/32/25 29/29/25
f 29/29/62 33/33/62 36/36/62
f 29/29/63 37/37/63 40/40/63
f 29/29/64 41/41/64 44/44/64
f 45/45/65 49/49/65 46/46/65
f 50/50/66 53/53/66 46/46/66
f 62/62/67 65/65/67 46/46/67
f 73/73/68 70/70/68 69/69/68
f 78/78/69 81/81/70 70/70/71
f 81/81/70 82/84/72 70/70/71
f 82/84/72 85/85/73 70/70/71
f 89/89/74 90/90/74 86/86/74
f 94/94/75 90/90/75 91/91/75
f 98/98/76 90/90/76 95/95/76
