# Blender v3.0.1 OBJ File: 'rockerfeller_plaza.blend'
# www.blender.org
o geometryt000010000010000110010110000110000110100000110010te3
v 1148.096436 -284.841248 465.487671
v 1129.565552 -275.432526 465.487671
v 1124.802612 -284.747437 465.487671
v 1124.841553 -288.077637 465.487671
v 1141.997437 -296.769836 465.487671
v 1149.971436 -235.891541 465.447693
v 1143.872559 -247.831238 465.447693
v 1162.403320 -257.228851 465.447693
v 1168.510742 -245.300034 465.447693
v 1123.458130 -287.372345 465.627686
v 1124.841553 -288.077637 465.627686
v 1124.802612 -284.747437 465.627686
vn 0.0000 0.0000 1.0000
s off
f 1//1 2//1 3//1
f 4//1 1//1 3//1
f 5//1 1//1 4//1
f 6//1 7//1 8//1
f 9//1 6//1 8//1
f 10//1 11//1 12//1
