# Blender v3.0.1 OBJ File: 'rockerfeller_plaza.blend'
# www.blender.org
o geometryt000010000010000110010110000110000110100000000100st59
v 251.441147 -136.151703 64.853638
v 251.602463 -136.960297 70.332985
v 251.441147 -136.151703 70.332985
v 251.602463 -136.960297 64.853638
v 251.560028 -135.484207 64.853638
v 251.441147 -136.151703 64.853638
v 251.441147 -136.151703 70.332985
v 251.560028 -135.484207 70.332985
v 251.693863 -134.649902 64.853638
v 251.560028 -135.484207 64.853638
v 251.560028 -135.484207 70.332985
v 251.693863 -134.649902 70.332985
v 251.602463 -136.960297 64.853638
v 251.990646 -137.677399 64.853638
v 251.990646 -137.677399 70.332985
v 251.602463 -136.960297 70.332985
v 252.028412 -134.817703 65.051895
v 251.693863 -134.649902 70.332985
v 252.028412 -134.817703 70.332985
v 254.139221 -135.876099 64.853638
v 253.804672 -135.708405 65.051895
v 251.693863 -134.649902 64.853638
v 253.804672 -135.708405 70.332985
v 254.139221 -135.876099 70.332985
v 251.990646 -137.677399 64.853638
v 252.571274 -138.248001 64.853638
v 252.571274 -138.248001 70.332985
v 251.990646 -137.677399 70.332985
v 252.571274 -138.248001 64.853638
v 253.301651 -138.628098 64.853638
v 253.301651 -138.628098 70.332985
v 252.571274 -138.248001 70.332985
v 253.301651 -138.628098 64.853638
v 254.105286 -138.774200 64.853638
v 254.105286 -138.774200 70.332985
v 253.301651 -138.628098 70.332985
v 254.105286 -138.774200 64.853638
v 254.914520 -138.675995 70.332985
v 254.105286 -138.774200 70.332985
v 254.914520 -138.675995 64.853638
v 254.286865 -135.564301 65.051895
v 254.139221 -135.876099 70.332985
v 254.286865 -135.564301 70.332985
v 255.112183 -133.821304 65.051895
v 254.139221 -135.876099 64.853638
v 255.112183 -133.821304 70.332985
v 255.259827 -133.509506 70.332985
v 255.259827 -133.509506 64.853638
v 254.914520 -138.675995 64.853638
v 255.661987 -138.345398 64.853638
v 255.661987 -138.345398 70.332985
v 254.914520 -138.675995 70.332985
v 256.127441 -134.076706 64.853638
v 255.259827 -133.509506 64.853638
v 255.259827 -133.509506 70.332985
v 256.127441 -134.076706 70.332985
v 255.661987 -138.345398 64.853638
v 256.280518 -137.816406 64.853638
v 256.280518 -137.816406 70.332985
v 255.661987 -138.345398 70.332985
v 256.401123 -134.384399 64.853638
v 256.127441 -134.076706 64.853638
v 256.127441 -134.076706 70.332985
v 256.401123 -134.384399 70.332985
v 256.280518 -137.816406 64.853638
v 256.521423 -137.480606 70.332985
v 256.280518 -137.816406 70.332985
v 256.521423 -137.480606 64.853638
v 256.781006 -135.112793 64.853638
v 256.401123 -134.384399 64.853638
v 256.401123 -134.384399 70.332985
v 256.781006 -135.112793 70.332985
v 256.521423 -137.480606 64.853638
v 256.841980 -136.733002 64.853638
v 256.841980 -136.733002 70.332985
v 256.521423 -137.480606 70.332985
v 256.933746 -135.910400 64.853638
v 256.781006 -135.112793 64.853638
v 256.781006 -135.112793 70.332985
v 256.933746 -135.910400 70.332985
v 256.841980 -136.733002 64.853638
v 256.933746 -135.910400 70.332985
v 256.841980 -136.733002 70.332985
v 256.933746 -135.910400 64.853638
vt 0.000000 0.000000
vt 0.329810 2.158070
vt 0.000000 2.158070
vt 0.329810 0.000000
vt 0.000000 0.000000
vt 0.271210 0.000000
vt 0.271210 2.158070
vt 0.000000 2.158070
vt 0.000000 0.000000
vt 0.337950 0.000000
vt 0.337950 2.158070
vt 0.000000 2.158070
vt 0.000000 0.000000
vt 0.326190 0.000000
vt 0.326190 2.158070
vt 0.000000 2.158070
vt 0.944530 0.078080
vt 1.094230 2.158070
vt 0.944530 2.158070
vt 0.000000 0.000000
vt 0.149700 0.078080
vt 1.094230 0.000000
vt 0.149700 2.158070
vt 0.000000 2.158070
vt 0.000000 0.000000
vt 0.325630 0.000000
vt 0.325630 2.158070
vt 0.000000 2.158070
vt 0.000000 0.000000
vt 0.329350 0.000000
vt 0.329350 2.158070
vt 0.000000 2.158070
vt 0.000000 0.000000
vt 0.326720 0.000000
vt 0.326720 2.158070
vt 0.000000 2.158070
vt 0.000000 0.000000
vt 0.326070 2.158070
vt 0.000000 2.158070
vt 0.326070 0.000000
vt 0.909420 0.078080
vt 1.047420 2.158070
vt 0.909420 2.158070
vt 0.138000 0.078080
vt 1.047420 0.000000
vt 0.138000 2.158070
vt 0.000000 2.158070
vt 0.000000 0.000000
vt 0.000000 0.000000
vt 0.326930 0.000000
vt 0.326930 2.158070
vt 0.000000 2.158070
vt 0.000000 0.000000
vt 0.414640 0.000000
vt 0.414640 2.158070
vt 0.000000 2.158070
vt 0.000000 0.000000
vt 0.325550 0.000000
vt 0.325550 2.158070
vt 0.000000 2.158070
vt 0.000000 0.000000
vt 0.164720 0.000000
vt 0.164720 2.158070
vt 0.000000 2.158070
vt 0.000000 0.000000
vt 0.165330 2.158070
vt 0.000000 2.158070
vt 0.165330 0.000000
vt 0.000000 0.000000
vt 0.328580 0.000000
vt 0.328580 2.158070
vt 0.000000 2.158070
vt 0.000000 0.000000
vt 0.325360 0.000000
vt 0.325360 2.158070
vt 0.000000 2.158070
vt 0.000000 0.000000
vt 0.324830 0.000000
vt 0.324830 2.158070
vt 0.000000 2.158070
vt 0.000000 0.000000
vt 0.331090 2.158070
vt 0.000000 2.158070
vt 0.331090 0.000000
vn -0.9807 -0.1956 0.0000
vn -0.9807 -0.1957 0.0000
vn -0.9845 0.1753 0.0000
vn -0.9845 0.1754 0.0000
vn -0.9874 0.1584 0.0000
vn -0.8794 -0.4760 0.0000
vn 0.4484 0.8938 0.0000
vn 0.4483 0.8939 0.0001
vn 0.4482 0.8939 0.0001
vn 0.4483 0.8939 0.0000
vn 0.4481 0.8940 0.0000
vn -0.7009 -0.7132 0.0000
vn -0.4616 -0.8871 0.0000
vn -0.1789 -0.9839 0.0000
vn 0.1205 -0.9927 0.0000
vn -0.9038 0.4280 0.0000
vn -0.9038 0.4279 0.0001
vn -0.9038 0.4279 0.0000
vn -0.9038 0.4280 -0.0001
vn 0.4045 -0.9145 0.0000
vn 0.5472 0.8370 0.0000
vn 0.6500 -0.7600 0.0000
vn 0.7472 0.6646 0.0000
vn 0.8126 -0.5829 0.0000
vn 0.8125 -0.5829 0.0000
vn 0.8867 0.4624 0.0000
vn 0.9191 -0.3941 0.0000
vn 0.9822 0.1880 0.0000
vn 0.9821 0.1881 0.0000
vn 0.9938 -0.1108 0.0000
vn 0.9938 -0.1109 0.0000
s off
f 1/1/1 2/2/1 3/3/1
f 1/1/2 4/4/2 2/2/2
f 5/5/3 6/6/3 7/7/3
f 5/5/4 7/7/4 8/8/4
f 9/9/5 10/10/5 11/11/5
f 9/9/5 11/11/5 12/12/5
f 13/13/6 14/14/6 15/15/6
f 13/13/6 15/15/6 16/16/6
f 17/17/7 18/18/7 19/19/7
f 20/20/8 17/17/8 21/21/8
f 20/20/9 22/22/9 17/17/9
f 18/18/10 17/17/10 22/22/10
f 23/23/11 24/24/11 21/21/11
f 24/24/7 20/20/7 21/21/7
f 25/25/12 26/26/12 27/27/12
f 25/25/12 27/27/12 28/28/12
f 29/29/13 30/30/13 31/31/13
f 29/29/13 31/31/13 32/32/13
f 33/33/14 34/34/14 35/35/14
f 33/33/14 35/35/14 36/36/14
f 37/37/15 38/38/15 39/39/15
f 37/37/15 40/40/15 38/38/15
f 41/41/16 42/42/16 43/43/16
f 44/44/17 45/45/17 41/41/17
f 42/42/18 41/41/18 45/45/18
f 46/46/18 47/47/18 44/44/18
f 47/47/16 48/48/16 44/44/16
f 48/48/19 45/45/19 44/44/19
f 49/49/20 50/50/20 51/51/20
f 49/49/20 51/51/20 52/52/20
f 53/53/21 54/54/21 55/55/21
f 53/53/21 55/55/21 56/56/21
f 57/57/22 58/58/22 59/59/22
f 57/57/22 59/59/22 60/60/22
f 61/61/23 62/62/23 63/63/23
f 61/61/23 63/63/23 64/64/23
f 65/65/24 66/66/24 67/67/24
f 65/65/25 68/68/25 66/66/25
f 69/69/26 70/70/26 71/71/26
f 69/69/26 71/71/26 72/72/26
f 73/73/27 74/74/27 75/75/27
f 73/73/27 75/75/27 76/76/27
f 77/77/28 78/78/28 79/79/28
f 77/77/29 79/79/29 80/80/29
s 1
f 81/81/30 82/82/31 83/83/31
f 81/81/30 84/84/30 82/82/31
