# Blender v3.0.1 OBJ File: 'rockerfeller_plaza.blend'
# www.blender.org
o geometryt000010000010000110010110000110000100110010010110st99_2
v 154.024506 -146.595993 19.156481
v 185.750702 -163.647995 19.156481
v 171.155106 -190.584503 19.156481
v 139.428696 -173.532501 19.156481
v 154.024506 -146.595993 225.156494
v 139.428696 -173.532501 225.156494
v 171.155106 -190.584503 225.156494
v 185.750702 -163.647995 225.156494
vt 0.217790 0.307060
vt 0.238730 0.370620
vt 0.292390 0.340570
vt 0.271450 0.277010
vt 0.217790 0.307060
vt 0.271450 0.277010
vt 0.292390 0.340570
vt 0.238730 0.370620
vn 0.0000 0.0000 -1.0000
vn -0.0000 0.0000 1.0000
s off
f 1/1/1 2/2/1 3/3/1
f 4/4/1 1/1/1 3/3/1
f 5/5/2 6/6/2 7/7/2
f 5/5/2 7/7/2 8/8/2
