# Blender v3.0.1 OBJ File: 'rockerfeller_plaza.blend'
# www.blender.org
o geometryt000010000010000110010110000110000110100000000110st38
v 716.692871 -158.089188 105.720108
v 715.313721 -160.654282 105.720108
v 715.313721 -160.654282 122.008987
v 716.692871 -158.089188 122.008987
v 719.004517 -153.790192 122.008987
v 719.004517 -153.790192 105.720108
v 716.935608 -157.637787 105.720108
v 716.935608 -157.637787 122.008987
v 719.936890 -152.056183 122.008987
v 719.936890 -152.056183 105.720108
v 719.247314 -153.338684 105.720108
v 719.247314 -153.338684 122.008987
v 720.869324 -150.322189 122.008987
v 720.869324 -150.322189 105.720108
v 720.179626 -151.604782 105.720108
v 720.179626 -151.604782 122.008987
v 722.148804 -147.942581 122.008987
v 723.180908 -146.023178 105.720108
v 721.112000 -149.870789 105.720108
v 723.180908 -146.023178 122.008987
v 721.112000 -149.870789 122.008987
v 724.802917 -143.006683 122.008987
v 724.802917 -143.006683 105.720108
v 723.423584 -145.571686 105.720108
v 723.423584 -145.571686 122.008987
v 715.609802 -161.205490 122.008987
v 715.609802 -161.205490 105.720108
v 719.456787 -163.275681 105.720108
v 719.456787 -163.275681 122.008987
v 720.079285 -163.218887 105.720108
v 721.456909 -160.652985 105.720108
v 721.456909 -160.652985 122.008987
v 720.079285 -163.218887 122.008987
v 721.699890 -160.200378 122.008987
v 721.699890 -160.200378 105.720108
v 723.766418 -156.351486 105.720108
v 723.766418 -156.351486 122.008987
v 724.009399 -155.898880 105.720108
v 724.698242 -154.615891 105.720108
v 724.698242 -154.615891 122.008987
v 724.009399 -155.898880 122.008987
v 724.941223 -154.163391 105.720108
v 725.630005 -152.880386 105.720108
v 725.630005 -152.880386 122.008987
v 724.941223 -154.163391 122.008987
v 725.872986 -152.427780 122.008987
v 725.872986 -152.427780 105.720108
v 727.939514 -148.578888 105.720108
v 727.939514 -148.578888 122.008987
v 728.182495 -148.126282 122.008987
v 728.182495 -148.126282 105.720108
v 729.560120 -145.560379 105.720108
v 729.560120 -145.560379 122.008987
v 729.269409 -145.012680 105.720108
v 725.420288 -142.946487 105.720108
v 725.420288 -142.946487 122.008987
v 729.269409 -145.012680 122.008987
vt 0.000000 0.000000
vt 0.666670 0.000000
vt 0.666670 5.000000
vt 0.000000 5.000000
vt 0.000000 5.000000
vt 0.000000 0.000000
vt 1.000000 0.000000
vt 1.000000 5.000000
vt 0.000000 5.000000
vt 0.000000 0.000000
vt 0.333330 0.000000
vt 0.333330 5.000000
vt 0.000000 5.000000
vt 0.000000 0.000000
vt 0.333330 0.000000
vt 0.333330 5.000000
vt 0.498860 5.000000
vt 0.000000 0.000000
vt 1.000000 0.000000
vt 0.000000 5.000000
vt 1.000000 5.000000
vt 0.000000 5.000000
vt 0.000000 0.000000
vt 0.666670 0.000000
vt 0.666670 5.000000
vt 0.000000 0.000000
vt 0.666670 0.000000
vt 0.666670 5.000000
vt 0.000000 5.000000
vt 0.000000 5.000000
vt 0.000000 0.000000
vt 1.000000 0.000000
vt 1.000000 5.000000
vt 0.000000 0.000000
vt 0.333330 0.000000
vt 0.333330 5.000000
vt 0.000000 5.000000
vt 0.000000 0.000000
vt 0.333330 0.000000
vt 0.333330 5.000000
vt 0.000000 5.000000
vt 0.000000 5.000000
vt 0.000000 0.000000
vt 1.000000 0.000000
vt 1.000000 5.000000
vt 0.000000 5.000000
vt 0.000000 0.000000
vt 0.666670 0.000000
vt 0.666670 5.000000
vt 0.000000 0.000000
vt 1.000000 0.000000
vt 1.000000 5.000000
vt 0.000000 5.000000
vt 0.000000 5.000000
vt 0.000000 0.000000
vt 1.000000 0.000000
vt 1.000000 5.000000
vn -0.8808 0.4736 0.0000
vn -0.8807 0.4736 0.0000
vn -0.8808 0.4735 0.0000
vn 0.8810 -0.4731 0.0000
vn 0.8811 -0.4730 0.0000
vn 0.8810 -0.4730 0.0000
vn 0.8811 -0.4729 0.0000
vn 0.4730 0.8811 0.0000
vn -0.4739 -0.8806 0.0000
s off
f 1/1/1 2/2/1 3/3/1
f 4/4/1 1/1/1 3/3/1
f 5/5/1 6/6/1 7/7/1
f 5/5/2 7/7/2 8/8/2
f 9/9/1 10/10/1 11/11/1
f 9/9/1 11/11/1 12/12/1
f 13/13/2 14/14/2 15/15/2
f 13/13/2 15/15/2 16/16/2
f 17/17/2 18/18/2 19/19/2
f 20/20/2 18/18/2 17/17/2
f 17/17/3 19/19/3 21/21/3
f 22/22/2 23/23/2 24/24/2
f 22/22/2 24/24/2 25/25/2
f 30/26/4 31/27/4 32/28/4
f 33/29/5 30/26/5 32/28/5
f 34/30/4 35/31/4 36/32/4
f 34/30/6 36/32/6 37/33/6
f 38/34/6 39/35/6 40/36/6
f 41/37/6 38/34/6 40/36/6
f 42/38/7 43/39/7 44/40/7
f 45/41/6 42/38/6 44/40/6
f 46/42/4 47/43/4 48/44/4
f 46/42/4 48/44/4 49/45/4
f 50/46/4 51/47/4 52/48/4
f 50/46/5 52/48/5 53/49/5
f 54/50/8 55/51/8 56/52/8
f 57/53/8 54/50/8 56/52/8
s 1
f 26/54/9 27/55/9 28/56/9
f 26/54/9 28/56/9 29/57/9
