# Blender v3.0.1 OBJ File: 'rockerfeller_plaza.blend'
# www.blender.org
o geometryt000010000010000110010110000110000110100100000000st193
v 461.698029 -119.323486 953.281006
v 460.973511 -118.732384 953.281006
v 460.161743 -120.510582 954.281006
v 460.973511 -118.732384 953.281006
v 460.042633 -118.543289 953.281006
v 460.161743 -120.510582 954.281006
v 460.042633 -118.543289 953.281006
v 459.142426 -118.809189 953.281006
v 460.161743 -120.510582 954.281006
v 459.142426 -118.809189 953.281006
v 458.466125 -119.460884 953.281006
v 460.161743 -120.510582 954.281006
v 458.466125 -119.460884 953.281006
v 458.164032 -120.341484 953.281006
v 460.161743 -120.510582 954.281006
v 458.164032 -120.341484 953.281006
v 458.318329 -121.272285 953.281006
v 460.161743 -120.510582 954.281006
v 458.318329 -121.272285 953.281006
v 458.884216 -122.020683 953.281006
v 460.161743 -120.510582 954.281006
v 458.884216 -122.020683 953.281006
v 459.733124 -122.421585 953.281006
v 460.161743 -120.510582 954.281006
v 459.733124 -122.421585 953.281006
v 460.678345 -122.388382 953.281006
v 460.161743 -120.510582 954.281006
v 460.678345 -122.388382 953.281006
v 461.491730 -121.912689 953.281006
v 460.161743 -120.510582 954.281006
v 461.491730 -121.912689 953.281006
v 461.997437 -121.118584 953.281006
v 460.161743 -120.510582 954.281006
v 461.997437 -121.118584 953.281006
v 462.071045 -120.185089 953.281006
v 460.161743 -120.510582 954.281006
v 462.071045 -120.185089 953.281006
v 461.698029 -119.323486 953.281006
v 460.161743 -120.510582 954.281006
v 448.150146 -105.702988 888.281006
v 456.534912 -115.275589 888.281006
v 434.952515 -130.236771 888.281006
v 461.759521 -118.079285 888.281006
v 461.492523 -144.516785 888.281006
v 458.642151 -111.354286 888.281006
v 474.532928 -120.262383 888.281006
v 463.718231 -114.448288 888.281006
v 449.603210 -123.592384 946.281006
v 434.952515 -130.236771 946.281006
v 446.350647 -129.582581 946.281006
v 461.492523 -144.516785 946.281006
v 448.150146 -105.702988 946.281006
v 452.661011 -117.960983 946.281006
v 455.322021 -134.418884 946.281006
v 454.674133 -114.253586 946.281006
v 456.534912 -115.275589 946.281006
v 458.642151 -111.354286 946.281006
v 461.713531 -122.639282 946.281006
v 463.645325 -119.078789 946.281006
v 474.532928 -120.262383 946.281006
v 461.759521 -118.079285 946.281006
v 463.718231 -114.448288 946.281006
v 451.973328 -122.311882 949.281006
v 446.350647 -129.582581 949.281006
v 449.402710 -127.049088 949.281006
v 455.322021 -134.418884 949.281006
v 456.534912 -115.275589 949.281006
v 454.674133 -114.253586 949.281006
v 455.578430 -130.371475 949.281006
v 455.953430 -124.453087 949.281006
v 455.604431 -130.385483 949.281006
v 458.175049 -125.648285 949.281006
v 460.053131 -122.410385 949.281006
v 460.678345 -122.388382 949.281006
v 461.491730 -121.912689 949.281006
v 463.645325 -119.078789 949.281006
v 458.164032 -120.341484 949.281006
v 458.466125 -119.460884 949.281006
v 459.142426 -118.809189 949.281006
v 460.042633 -118.543289 949.281006
v 461.759521 -118.079285 949.281006
v 458.318329 -121.272285 949.281006
v 458.884216 -122.020683 949.281006
v 459.708618 -122.409988 949.281006
v 459.733124 -122.421585 949.281006
v 460.973511 -118.732384 949.281006
v 461.317444 -119.012886 949.281006
v 461.373627 -119.058784 949.281006
v 461.698029 -119.323486 949.281006
v 461.997437 -121.118584 949.281006
v 462.071045 -120.185089 949.281006
v 451.973328 -122.311882 952.181030
v 449.402710 -127.049088 952.181030
v 455.604431 -130.385483 952.181030
v 458.175049 -125.648285 952.181030
vt 0.152390 0.407530
vt 0.151550 0.406090
vt 0.155040 0.404410
vt 0.151550 0.406090
vt 0.151500 0.404210
vt 0.155040 0.404410
vt 0.151500 0.404210
vt 0.152270 0.402390
vt 0.155040 0.404410
vt 0.152270 0.402390
vt 0.153670 0.401020
vt 0.155040 0.404410
vt 0.153670 0.401020
vt 0.155370 0.400390
vt 0.155040 0.404410
vt 0.155370 0.400390
vt 0.157010 0.400670
vt 0.155040 0.404410
vt 0.158200 0.401800
vt 0.158660 0.403500
vt 0.155040 0.404410
vt 0.158660 0.403500
vt 0.158290 0.405410
vt 0.155040 0.404410
vt 0.158290 0.405410
vt 0.157170 0.407060
vt 0.155040 0.404410
vt 0.157170 0.407060
vt 0.155560 0.408090
vt 0.155040 0.404410
vt 0.155560 0.408090
vt 0.153840 0.408260
vt 0.155040 0.404410
vt 0.153840 0.408260
vt 0.152390 0.407530
vt 0.155040 0.404410
vt 0.131920 0.380550
vt 0.146670 0.397220
vt 0.180750 0.353370
vt 0.150110 0.407690
vt 0.198300 0.406530
vt 0.138860 0.401560
vt 0.150020 0.433380
vt 0.142880 0.411720
vt 0.164010 0.383060
vt 0.180750 0.353370
vt 0.175940 0.376360
vt 0.198300 0.406530
vt 0.131920 0.380550
vt 0.152790 0.389350
vt 0.181890 0.394330
vt 0.145400 0.393490
vt 0.146670 0.397220
vt 0.138860 0.401560
vt 0.158420 0.407490
vt 0.151330 0.411460
vt 0.150020 0.433380
vt 0.150110 0.407690
vt 0.142880 0.411720
vt 0.160920 0.387860
vt 0.175940 0.376360
vt 0.170360 0.382570
vt 0.181890 0.394330
vt 0.146670 0.397220
vt 0.145400 0.393490
vt 0.174440 0.394940
vt 0.163550 0.395830
vt 0.174460 0.394990
vt 0.165020 0.400280
vt 0.158530 0.404140
vt 0.158290 0.405410
vt 0.157170 0.407060
vt 0.151330 0.411460
vt 0.155370 0.400390
vt 0.153670 0.401020
vt 0.152270 0.402390
vt 0.151500 0.404210
vt 0.150110 0.407690
vt 0.157010 0.400670
vt 0.158200 0.401800
vt 0.158640 0.403450
vt 0.158660 0.403500
vt 0.151550 0.406090
vt 0.151950 0.406770
vt 0.152020 0.406880
vt 0.152390 0.407530
vt 0.155560 0.408090
vt 0.153840 0.408260
vt 0.160920 0.387860
vt 0.170360 0.382570
vt 0.174460 0.394990
vt 0.165020 0.400280
vt 0.157010 0.400670
vt 0.158200 0.401800
vt 0.155040 0.404410
vn 0.2956 0.3622 0.8840
vn 0.0925 0.4556 0.8853
vn -0.1308 0.4429 0.8870
vn -0.3189 0.3310 0.8881
vn -0.4326 0.1484 0.8893
vn -0.4514 -0.0748 0.8892
vn -0.1980 -0.4193 0.8860
vn 0.0164 -0.4665 0.8844
vn 0.2370 -0.4051 0.8830
vn 0.3969 -0.2528 0.8824
vn 0.4686 -0.0369 0.8826
vn 0.4307 0.1865 0.8830
vn 0.0000 0.0000 -1.0000
vn 0.0000 0.0000 1.0000
vn -0.0001 0.0000 1.0000
vn 0.0001 0.0000 1.0000
vn -0.0008 0.0000 1.0000
vn 0.0005 0.0000 1.0000
vn -0.0003 0.0000 1.0000
vn -0.0004 0.0000 1.0000
vn -0.3669 -0.2775 0.8879
s off
f 1/1/1 2/2/1 3/3/1
f 4/4/2 5/5/2 6/6/2
f 7/7/3 8/8/3 9/9/3
f 10/10/4 11/11/4 12/12/4
f 13/13/5 14/14/5 15/15/5
f 16/16/6 17/17/6 18/18/6
f 22/19/7 23/20/7 24/21/7
f 25/22/8 26/23/8 27/24/8
f 28/25/9 29/26/9 30/27/9
f 31/28/10 32/29/10 33/30/10
f 34/31/11 35/32/11 36/33/11
f 37/34/12 38/35/12 39/36/12
f 40/37/13 41/38/13 42/39/13
f 41/38/13 43/40/13 42/39/13
f 42/39/13 43/40/13 44/41/13
f 40/37/13 45/42/13 41/38/13
f 43/40/13 46/43/13 44/41/13
f 47/44/13 46/43/13 43/40/13
f 48/45/14 49/46/14 50/47/14
f 50/47/14 49/46/14 51/48/14
f 52/49/14 49/46/14 53/50/14
f 53/50/14 49/46/14 48/45/14
f 54/51/14 50/47/14 51/48/14
f 52/49/14 53/50/14 55/52/14
f 52/49/15 55/52/15 56/53/15
f 57/54/14 52/49/14 56/53/14
f 58/55/14 54/51/14 51/48/14
f 59/56/14 58/55/14 51/48/14
f 60/57/14 59/56/14 51/48/14
f 60/57/14 61/58/14 59/56/14
f 61/58/14 60/57/14 62/59/14
f 63/60/16 64/61/16 65/62/16
f 65/62/14 64/61/14 66/63/14
f 64/61/14 63/60/14 67/64/14
f 68/65/14 64/61/14 67/64/14
f 69/66/14 65/62/14 66/63/14
f 70/67/14 67/64/14 63/60/14
f 66/63/14 71/68/14 69/66/14
f 66/63/14 72/69/14 71/68/14
f 73/70/14 72/69/14 66/63/14
f 66/63/16 74/71/16 73/70/16
f 66/63/15 75/72/15 74/71/15
f 66/63/14 76/73/14 75/72/14
f 70/67/14 72/69/14 67/64/14
f 72/69/16 77/74/16 67/64/16
f 77/74/14 78/75/14 67/64/14
f 78/75/16 79/76/16 67/64/16
f 79/76/15 80/77/15 67/64/15
f 80/77/14 81/78/14 67/64/14
f 72/69/17 82/79/17 77/74/17
f 72/69/16 83/80/16 82/79/16
f 72/69/15 84/81/15 83/80/15
f 85/82/14 84/81/14 72/69/14
f 73/70/14 85/82/14 72/69/14
f 80/77/14 86/83/14 81/78/14
f 87/84/14 81/78/14 86/83/14
f 81/78/18 87/84/18 88/85/18
f 89/86/19 81/78/19 88/85/19
f 76/73/20 90/87/20 75/72/20
f 91/88/18 81/78/18 89/86/18
f 76/73/15 81/78/15 91/88/15
f 76/73/14 91/88/14 90/87/14
f 92/89/14 93/90/14 94/91/14
f 92/89/14 94/91/14 95/92/14
s 1
f 19/93/21 20/94/21 21/95/21
