# Blender v3.0.1 OBJ File: 'rockerfeller_plaza.blend'
# www.blender.org
o geometryt000010000010000110010110000110000110100000010100st40
v 812.909790 -169.582779 149.630478
v 812.746643 -169.886688 174.903625
v 812.909790 -169.582779 174.903625
v 813.656067 -168.192581 149.630478
v 812.746643 -169.886688 143.303619
v 813.656067 -168.192581 174.903625
v 814.364685 -166.872589 174.903625
v 814.364685 -166.872589 149.630478
v 815.110962 -165.482483 149.630478
v 816.728943 -162.468384 143.303619
v 815.110962 -165.482483 174.903625
v 815.819519 -164.162491 174.903625
v 815.819519 -164.162491 149.630478
v 816.565796 -162.772278 149.630478
v 816.565796 -162.772278 174.903625
v 816.728943 -162.468384 174.903625
v 827.181396 -177.644989 149.630478
v 827.485291 -177.808289 174.903625
v 827.181396 -177.644989 174.903625
v 824.401855 -176.151077 149.630478
v 827.485291 -177.808289 143.303619
v 824.401855 -176.151077 174.903625
v 823.397644 -175.611282 174.903625
v 823.397644 -175.611282 149.630478
v 820.618103 -174.117386 149.630478
v 820.618103 -174.117386 174.903625
v 819.613892 -173.577682 174.903625
v 819.613892 -173.577682 149.630478
v 812.746643 -169.886688 143.303619
v 816.834290 -172.083679 149.630478
v 816.834290 -172.083679 174.903625
v 815.830078 -171.543991 174.903625
v 815.830078 -171.543991 149.630478
v 813.050537 -170.050079 149.630478
v 813.050537 -170.050079 174.903625
v 812.746643 -169.886688 174.903625
v 817.032776 -162.631790 149.630478
v 816.728943 -162.468384 174.903625
v 817.032776 -162.631790 174.903625
v 818.546875 -163.446381 143.303619
v 818.243042 -163.282883 149.630478
v 816.728943 -162.468384 143.303619
v 818.243042 -163.282883 174.903625
v 818.546875 -163.446381 174.903625
v 818.861511 -163.304779 149.630478
v 818.546875 -163.446381 174.903625
v 818.861511 -163.304779 174.903625
v 819.777405 -162.892685 149.630478
v 818.546875 -163.446381 143.303619
v 819.777405 -162.892685 174.903625
v 820.092041 -162.751083 174.903625
v 820.092041 -162.751083 143.303619
v 820.255310 -162.447189 149.630478
v 820.092041 -162.751083 174.903625
v 820.255310 -162.447189 174.903625
v 821.748779 -159.667389 149.630478
v 820.092041 -162.751083 143.303619
v 821.748779 -159.667389 174.903625
v 822.179626 -158.865387 174.903625
v 822.179626 -158.865387 149.630478
v 823.673096 -156.085587 149.630478
v 823.673096 -156.085587 174.903625
v 824.103943 -155.283585 174.903625
v 824.103943 -155.283585 149.630478
v 825.597412 -152.503784 149.630478
v 827.684937 -148.618088 143.303619
v 825.597412 -152.503784 174.903625
v 826.028259 -151.701889 174.903625
v 826.028259 -151.701889 149.630478
v 827.521667 -148.922089 149.630478
v 827.521667 -148.922089 174.903625
v 827.684937 -148.618088 174.903625
v 829.992493 -173.136581 149.630478
v 830.261353 -172.635590 174.903625
v 829.992493 -173.136581 174.903625
v 827.485291 -177.808289 143.303619
v 827.754211 -177.307281 149.630478
v 830.261353 -172.635590 143.303619
v 827.754211 -177.307281 174.903625
v 827.485291 -177.808289 174.903625
v 827.988953 -148.781387 149.630478
v 827.684937 -148.618088 174.903625
v 827.988953 -148.781387 174.903625
v 830.769043 -150.274185 149.630478
v 827.684937 -148.618088 143.303619
v 830.769043 -150.274185 174.903625
v 831.609985 -150.725784 174.903625
v 831.609985 -150.725784 149.630478
v 835.780151 -152.964981 149.630478
v 835.780151 -152.964981 174.903625
v 836.621094 -153.416580 174.903625
v 836.621094 -153.416580 149.630478
v 839.705200 -155.072586 143.303619
v 839.401245 -154.909378 149.630478
v 839.401245 -154.909378 174.903625
v 839.705200 -155.072586 174.903625
v 839.555786 -155.383987 149.630478
v 839.719421 -155.080292 174.903625
v 839.555786 -155.383987 174.903625
v 838.059082 -158.162079 149.630478
v 838.786255 -156.812286 143.303619
v 839.719421 -155.080292 143.303619
v 838.059082 -158.162079 174.903625
v 837.647278 -158.926483 174.903625
v 837.647278 -158.926483 149.630478
v 836.150574 -161.704483 149.630478
v 836.150574 -161.704483 174.903625
v 835.738770 -162.468887 174.903625
v 835.738770 -162.468887 149.630478
v 834.242065 -165.246979 149.630478
v 834.242065 -165.246979 174.903625
v 833.830200 -166.011383 174.903625
v 833.830200 -166.011383 149.630478
v 830.261353 -172.635590 143.303619
v 832.333496 -168.789383 149.630478
v 832.333496 -168.789383 174.903625
v 831.921692 -169.553787 174.903625
v 831.921692 -169.553787 149.630478
v 830.424988 -172.331879 149.630478
v 830.424988 -172.331879 174.903625
v 830.261353 -172.635590 174.903625
vt 10.352150 8.111360
vt 10.794460 40.512821
vt 10.352150 40.512821
vt 8.329340 8.111360
vt 10.794460 0.000000
vt 8.329340 40.512821
vt 6.408630 40.512821
vt 6.408630 8.111360
vt 4.385830 8.111360
vt 0.000000 0.000000
vt 4.385830 40.512821
vt 2.465120 40.512821
vt 2.465120 8.111360
vt 0.442310 8.111360
vt 0.442310 40.512821
vt 0.000000 40.512821
vt 21.009750 8.111360
vt 21.452049 40.512821
vt 21.009750 40.512821
vt 16.964130 8.111360
vt 21.452049 0.000000
vt 16.964130 40.512821
vt 15.502470 40.512821
vt 15.502470 8.111360
vt 11.456860 8.111360
vt 11.456860 40.512821
vt 9.995201 40.512821
vt 9.995201 8.111360
vt 0.000000 0.000000
vt 5.949580 8.111360
vt 5.949580 40.512821
vt 4.487920 40.512821
vt 4.487920 8.111360
vt 0.442310 8.111360
vt 0.442310 40.512821
vt 0.000000 40.512821
vt 2.204220 8.111360
vt 2.646530 40.512821
vt 2.204220 40.512821
vt 0.000000 0.000000
vt 0.442310 8.111360
vt 2.646530 0.000000
vt 0.442310 40.512821
vt 0.000000 40.512821
vt 1.729960 8.111360
vt 2.172260 40.512821
vt 1.729960 40.512821
vt 0.442310 8.111360
vt 2.172260 0.000000
vt 0.442310 40.512821
vt 0.000000 40.512821
vt 0.000000 0.000000
vt 20.126261 8.111360
vt 20.568569 40.512821
vt 20.126261 40.512821
vt 16.080650 8.111360
vt 20.568569 0.000000
vt 16.080650 40.512821
vt 14.913480 40.512821
vt 14.913480 8.111360
vt 10.867870 8.111360
vt 10.867870 40.512821
vt 9.700700 40.512821
vt 9.700700 8.111360
vt 5.655090 8.111360
vt 0.000000 0.000000
vt 5.655090 40.512821
vt 4.487920 40.512821
vt 4.487920 8.111360
vt 0.442310 8.111360
vt 0.442310 40.512821
vt 0.000000 40.512821
vt 6.797400 8.111360
vt 7.526370 40.512821
vt 6.797400 40.512821
vt 0.000000 0.000000
vt 0.728970 8.111360
vt 7.526370 0.000000
vt 17.049391 8.111360
vt 17.491690 40.512821
vt 17.049391 40.512821
vt 13.003770 8.111360
vt 17.491690 0.000000
vt 13.003770 40.512821
vt 11.780060 40.512821
vt 11.780060 8.111360
vt 5.711630 8.111360
vt 5.711630 40.512821
vt 4.487920 40.512821
vt 4.487920 8.111360
vt 0.000000 0.000000
vt 0.442310 8.111360
vt 0.442310 40.512821
vt 0.000000 40.512821
vt 25.123079 8.111360
vt 25.565390 40.512821
vt 25.123079 40.512821
vt 21.077459 8.111360
vt 23.043060 0.000000
vt 25.565390 0.000000
vt 21.077459 40.512821
vt 19.964291 40.512821
vt 19.964291 8.111360
vt 15.918670 8.111360
vt 15.918670 40.512821
vt 14.805500 40.512821
vt 14.805500 8.111360
vt 10.759880 8.111360
vt 10.759880 40.512821
vt 9.646711 40.512821
vt 9.646711 8.111360
vt 0.000000 0.000000
vt 5.601100 8.111360
vt 5.601100 40.512821
vt 4.487920 40.512821
vt 4.487920 8.111360
vt 0.442310 8.111360
vt 0.442310 40.512821
vt 0.000000 40.512821
vt 0.728970 40.512821
vt 0.000000 40.512821
vn -0.8812 0.4728 0.0000
vn -0.8811 0.4729 -0.0000
vn -0.8810 0.4732 0.0000
vn -0.8811 0.4730 0.0000
vn -0.8810 0.4731 0.0000
vn -0.4732 -0.8810 0.0000
vn -0.4734 -0.8808 -0.0000
vn -0.4734 -0.8809 0.0000
vn -0.4735 -0.8808 0.0000
vn -0.4736 -0.8807 0.0000
vn -0.4733 -0.8809 0.0000
vn 0.4739 0.8806 -0.0000
vn 0.4738 0.8807 -0.0000
vn 0.4736 0.8807 0.0000
vn 0.4740 0.8805 0.0000
vn 0.4738 0.8806 0.0000
vn -0.4105 0.9119 0.0000
vn -0.4104 0.9119 -0.0000
vn -0.4103 0.9119 0.0000
vn -0.4103 0.9120 0.0000
vn -0.8809 0.4732 -0.0000
vn -0.8809 0.4733 0.0000
vn -0.8809 0.4734 0.0000
vn -0.8812 0.4727 0.0000
vn 0.8811 -0.4730 0.0000
vn 0.8811 -0.4729 -0.0000
vn 0.8812 -0.4727 0.0000
vn 0.4732 0.8810 0.0000
vn 0.4731 0.8810 0.0000
vn 0.4733 0.8809 0.0000
vn 0.4730 0.8810 0.0000
vn 0.8803 -0.4744 0.0000
vn 0.8804 -0.4743 -0.0000
vn 0.8803 -0.4743 0.0000
vn 0.8804 -0.4742 0.0000
vn 0.8804 -0.4741 0.0000
vn -0.8808 0.4735 0.0000
s off
f 1/1/1 2/2/1 3/3/1
f 4/4/2 5/5/2 1/1/2
f 2/2/3 1/1/3 5/5/3
f 6/6/2 7/7/2 4/4/2
f 7/7/4 8/8/4 4/4/4
f 9/9/4 10/10/4 8/8/4
f 8/8/4 10/10/4 5/5/4
f 11/11/2 12/12/2 9/9/2
f 12/12/2 13/13/2 9/9/2
f 13/13/4 10/10/4 9/9/4
f 14/14/2 10/10/2 13/13/2
f 15/15/1 16/16/1 14/14/1
f 16/16/5 10/10/5 14/14/5
f 17/17/6 18/18/6 19/19/6
f 20/20/7 21/21/7 17/17/7
f 18/18/8 17/17/8 21/21/8
f 22/22/9 23/23/9 20/20/9
f 23/23/7 24/24/7 20/20/7
f 24/24/7 21/21/7 20/20/7
f 24/24/7 25/25/7 21/21/7
f 26/26/7 27/27/7 25/25/7
f 27/27/7 28/28/7 25/25/7
f 28/28/9 29/29/9 25/25/9
f 25/25/7 29/29/7 21/21/7
f 30/30/7 29/29/7 28/28/7
f 31/31/7 32/32/7 30/30/7
f 32/32/7 33/33/7 30/30/7
f 33/33/8 29/29/8 30/30/8
f 34/34/7 29/29/7 33/33/7
f 35/35/10 36/36/10 34/34/10
f 36/36/11 29/29/11 34/34/11
f 37/37/12 38/38/12 39/39/12
f 40/40/13 37/37/13 41/41/13
f 40/40/13 42/42/13 37/37/13
f 38/38/14 37/37/14 42/42/14
f 43/43/15 44/44/15 41/41/15
f 44/44/16 40/40/16 41/41/16
f 45/45/17 46/46/17 47/47/17
f 48/48/18 49/49/18 45/45/18
f 46/46/19 45/45/19 49/49/19
f 50/50/17 51/51/17 48/48/17
f 51/51/20 52/52/20 48/48/20
f 52/52/19 49/49/19 48/48/19
f 53/53/3 54/54/3 55/55/3
f 56/56/21 57/57/21 53/53/21
f 54/54/22 53/53/22 57/57/22
f 58/58/22 59/59/22 56/56/22
f 59/59/3 60/60/3 56/56/3
f 60/60/22 57/57/22 56/56/22
f 60/60/21 61/61/21 57/57/21
f 62/62/22 63/63/22 61/61/22
f 63/63/3 64/64/3 61/61/3
f 61/61/22 64/64/22 57/57/22
f 65/65/22 66/66/22 64/64/22
f 67/67/23 68/68/23 65/65/23
f 68/68/21 69/69/21 65/65/21
f 69/69/5 66/66/5 65/65/5
f 70/70/22 66/66/22 69/69/22
f 71/71/24 72/72/24 70/70/24
f 73/73/25 74/74/25 75/75/25
f 76/76/26 73/73/26 77/77/26
f 76/76/26 78/78/26 73/73/26
f 74/74/27 73/73/27 78/78/27
f 81/79/28 82/80/28 83/81/28
f 84/82/29 85/83/29 81/79/29
f 82/80/30 81/79/30 85/83/30
f 86/84/29 87/85/29 84/82/29
f 87/85/29 88/86/29 84/82/29
f 88/86/29 85/83/29 84/82/29
f 88/86/29 89/87/29 85/83/29
f 90/88/29 91/89/29 89/87/29
f 91/89/29 92/90/29 89/87/29
f 92/90/29 93/91/29 89/87/29
f 89/87/29 93/91/29 85/83/29
f 94/92/29 93/91/29 92/90/29
f 95/93/28 96/94/28 94/92/28
f 96/94/31 93/91/31 94/92/31
f 97/95/32 98/96/32 99/97/32
f 100/98/33 101/99/33 97/95/33
f 101/99/33 102/100/33 97/95/33
f 98/96/34 97/95/34 102/100/34
f 103/101/32 104/102/32 100/98/32
f 104/102/35 105/103/35 100/98/35
f 105/103/35 101/99/35 100/98/35
f 105/103/32 106/104/32 101/99/32
f 107/105/35 108/106/35 106/104/35
f 108/106/35 109/107/35 106/104/35
f 106/104/36 109/107/36 101/99/36
f 109/107/33 110/108/33 101/99/33
f 111/109/35 112/110/35 110/108/35
f 112/110/32 113/111/32 110/108/32
f 113/111/33 114/112/33 110/108/33
f 110/108/33 114/112/33 101/99/33
f 115/113/33 114/112/33 113/111/33
f 116/114/32 117/115/32 115/113/32
f 117/115/35 118/116/35 115/113/35
f 118/116/36 114/112/36 115/113/36
f 119/117/34 114/112/34 118/116/34
f 120/118/32 121/119/32 119/117/32
f 121/119/35 114/112/35 119/117/35
s 1
f 8/8/4 5/5/4 4/4/4
f 64/64/22 66/66/22 57/57/22
f 72/72/37 66/66/37 70/70/37
f 79/120/25 80/121/25 77/77/26
f 80/121/25 76/76/26 77/77/26
