# Blender v3.0.1 OBJ File: 'rockerfeller_plaza.blend'
# www.blender.org
o geometryt000010000010000110010110000110000110100000110100st23
v 841.258667 -222.989410 699.442505
v 839.316040 -231.594101 699.442505
v 837.243042 -230.474808 699.442505
v 843.416626 -224.152206 699.442505
v 840.785828 -232.387405 699.442505
v 846.560059 -225.847412 699.442505
v 843.181641 -233.680603 699.442505
v 848.471619 -226.879807 699.442505
v 845.900330 -235.147705 699.442505
v 852.813049 -229.227310 699.442505
v 849.443115 -237.060410 699.442505
v 854.022339 -239.527206 699.442505
v 864.197449 -235.367203 699.442505
v 860.190247 -242.852509 699.442505
v 841.258667 -222.989410 706.442505
v 837.243042 -230.474808 706.442505
v 839.316040 -231.594101 706.442505
v 842.016418 -226.693314 706.442505
v 843.416626 -224.152206 706.442505
v 843.416626 -224.152206 719.942505
v 839.316040 -231.594101 719.942505
v 840.785828 -232.387405 719.942505
v 846.560059 -225.847412 719.942505
v 843.181641 -233.680603 719.942505
v 845.900330 -235.147705 719.942505
v 848.471619 -226.879807 719.942505
v 852.813049 -229.227310 719.942505
v 849.443115 -237.060410 719.942505
v 854.022339 -239.527206 719.942505
v 864.197449 -235.367203 719.942505
v 860.190247 -242.852509 719.942505
vt 0.377400 0.174520
vt 0.393680 0.170400
vt 0.392300 0.166250
vt 0.378830 0.178840
vt 0.394650 0.173340
vt 0.380920 0.185140
vt 0.396250 0.178140
vt 0.382190 0.188960
vt 0.398050 0.183590
vt 0.385080 0.197660
vt 0.400410 0.190680
vt 0.403440 0.199850
vt 0.392630 0.220460
vt 0.407530 0.212210
vt 0.377400 0.174520
vt 0.392300 0.166250
vt 0.393680 0.170400
vt 0.383900 0.175960
vt 0.378830 0.178840
vt 0.378830 0.178840
vt 0.393680 0.170400
vt 0.394650 0.173340
vt 0.380920 0.185140
vt 0.396250 0.178140
vt 0.398050 0.183590
vt 0.382190 0.188960
vt 0.385080 0.197660
vt 0.400410 0.190680
vt 0.403440 0.199850
vt 0.392630 0.220460
vt 0.407530 0.212210
vn 0.0000 0.0000 -1.0000
vn 0.0001 0.0000 -1.0000
vn 0.0000 0.0000 1.0000
s off
f 1/1/1 2/2/1 3/3/1
f 1/1/1 4/4/1 2/2/1
f 5/5/2 2/2/2 4/4/2
f 6/6/1 7/7/1 5/5/1
f 6/6/1 5/5/1 4/4/1
f 8/8/1 9/9/1 7/7/1
f 6/6/1 8/8/1 7/7/1
f 10/10/1 9/9/1 8/8/1
f 11/11/1 9/9/1 10/10/1
f 12/12/1 11/11/1 10/10/1
f 12/12/1 10/10/1 13/13/1
f 13/13/1 14/14/1 12/12/1
f 15/15/3 16/16/3 17/17/3
f 18/18/3 15/15/3 17/17/3
f 19/19/3 15/15/3 18/18/3
f 20/20/3 21/21/3 22/22/3
f 23/23/3 22/22/3 24/24/3
f 23/23/3 20/20/3 22/22/3
f 24/24/3 25/25/3 26/26/3
f 23/23/3 24/24/3 26/26/3
f 25/25/3 27/27/3 26/26/3
f 28/28/3 27/27/3 25/25/3
f 29/29/3 27/27/3 28/28/3
f 30/30/3 27/27/3 29/29/3
f 31/31/3 30/30/3 29/29/3
