# Blender v3.0.1 OBJ File: 'rockerfeller_plaza.blend'
# www.blender.org
o geometryt000010000010000110010110000110000100110110010010st2_Th
v 111.931938 -135.967499 841.093018
v 105.477654 -145.079391 841.093018
v 110.691734 -135.304596 841.093018
v 115.518234 -129.253586 841.093018
v 129.383347 -153.562393 841.093018
v 126.400337 -156.239288 841.093018
v 113.556038 -128.210495 841.093018
v 117.026535 -121.708786 841.093018
v 119.082237 -122.795288 841.093018
v 137.215347 -123.440285 841.093018
v 122.783936 -115.846786 841.093018
v 143.579346 -126.952682 841.093018
v 127.615135 -156.891388 841.093018
v 105.477654 -145.079391 865.093018
v 126.400337 -156.239288 865.093018
v 111.931938 -135.967499 865.093018
v 110.691734 -135.304596 865.093018
v 129.383347 -153.562393 865.093018
v 127.615135 -156.891388 865.093018
v 137.215347 -123.440285 865.093018
v 143.579346 -126.952682 865.093018
v 115.518234 -129.253586 865.093018
v 119.082237 -122.795288 865.093018
v 122.783936 -115.846786 865.093018
v 117.026535 -121.708786 865.093018
v 113.556038 -128.210495 865.093018
vt 0.214850 0.203200
vt 0.233480 0.189980
vt 0.214040 0.200710
vt 0.201490 0.210580
vt 0.241310 0.237960
vt 0.247130 0.231890
vt 0.200220 0.206650
vt 0.187280 0.213800
vt 0.188610 0.217920
vt 0.184020 0.254450
vt 0.174790 0.225540
vt 0.188380 0.267190
vt 0.247930 0.234320
vt 0.233480 0.189980
vt 0.247130 0.231890
vt 0.214850 0.203200
vt 0.214040 0.200710
vt 0.241310 0.237960
vt 0.247930 0.234320
vt 0.184020 0.254450
vt 0.188380 0.267190
vt 0.201490 0.210580
vt 0.188610 0.217920
vt 0.174790 0.225540
vt 0.187280 0.213800
vt 0.200220 0.206650
vn -0.0001 0.0000 -1.0000
vn 0.0000 0.0000 -1.0000
vn 0.0000 0.0000 1.0000
s off
f 1/1/1 2/2/1 3/3/1
f 4/4/2 5/5/2 1/1/2
f 1/1/2 5/5/2 6/6/2
f 1/1/2 6/6/2 2/2/2
f 7/7/2 8/8/2 4/4/2
f 8/8/2 9/9/2 4/4/2
f 9/9/2 10/10/2 4/4/2
f 4/4/2 10/10/2 5/5/2
f 11/11/2 10/10/2 9/9/2
f 10/10/2 12/12/2 5/5/2
f 13/13/1 6/6/1 5/5/1
f 14/14/3 15/15/3 16/16/3
f 17/17/3 14/14/3 16/16/3
f 18/18/3 15/15/3 19/19/3
f 16/16/3 15/15/3 18/18/3
f 20/20/3 18/18/3 21/21/3
f 22/22/3 18/18/3 20/20/3
f 16/16/3 18/18/3 22/22/3
f 23/23/3 20/20/3 24/24/3
f 23/23/3 22/22/3 20/20/3
f 25/25/3 22/22/3 23/23/3
f 26/26/3 22/22/3 25/25/3
