# Blender v3.0.1 OBJ File: 'rockerfeller_plaza.blend'
# www.blender.org
o geometryt000010000010000110010110000110000110100000000110st63
v 716.844116 -251.397583 107.675507
v 716.680725 -251.701492 129.048431
v 716.844116 -251.397583 129.048431
v 718.238586 -248.806183 107.675507
v 716.680725 -251.701492 106.748428
v 718.238586 -248.806183 129.048431
v 718.534485 -248.256287 129.048431
v 718.534485 -248.256287 107.675507
v 720.626099 -244.369080 107.675507
v 720.626099 -244.369080 129.048431
v 720.921997 -243.819290 129.048431
v 720.921997 -243.819290 107.675507
v 721.619202 -242.523483 107.675507
v 721.619202 -242.523483 129.048431
v 721.915100 -241.973679 129.048431
v 721.915100 -241.973679 107.675507
v 725.860474 -234.641281 106.748428
v 724.006836 -238.086487 107.675507
v 724.006836 -238.086487 129.048431
v 724.302612 -237.536591 129.048431
v 724.302612 -237.536591 107.675507
v 725.697144 -234.945084 107.675507
v 725.697144 -234.945084 129.048431
v 725.860474 -234.641281 129.048431
v 722.343323 -254.747177 107.675507
v 722.822510 -255.004990 129.048431
v 722.343323 -254.747177 129.048431
v 716.680725 -251.701492 106.748428
v 717.159912 -251.959183 107.675507
v 722.822510 -255.004990 106.748428
v 717.159912 -251.959183 129.048431
v 716.680725 -251.701492 129.048431
v 722.822510 -255.004990 106.748428
v 723.120239 -254.468582 106.748428
v 723.120239 -254.468582 129.048431
v 722.822510 -255.004990 129.048431
v 733.896790 -234.449982 107.675507
v 734.060303 -234.146179 129.048431
v 733.896790 -234.449982 129.048431
v 732.502197 -237.041382 107.675507
v 734.060303 -234.146179 106.748428
v 732.502197 -237.041382 129.048431
v 732.380981 -237.266586 129.048431
v 732.380981 -237.266586 107.675507
v 732.118286 -237.754684 106.748428
v 730.289185 -241.153687 107.675507
v 730.289185 -241.153687 129.048431
v 730.167969 -241.378891 129.048431
v 730.167969 -241.378891 107.675507
v 729.470703 -242.674591 107.675507
v 729.470703 -242.674591 129.048431
v 729.349487 -242.899780 129.048431
v 729.349487 -242.899780 107.675507
v 728.652222 -244.195480 107.675507
v 728.652222 -244.195480 129.048431
v 728.531006 -244.420792 129.048431
v 728.531006 -244.420792 107.675507
v 727.833801 -245.716492 107.675507
v 727.833801 -245.716492 129.048431
v 727.712585 -245.941681 129.048431
v 727.712585 -245.941681 107.675507
v 727.015320 -247.237381 107.675507
v 723.122986 -254.470078 106.748428
v 727.015320 -247.237381 129.048431
v 726.894104 -247.462585 129.048431
v 726.894104 -247.462585 107.675507
v 724.802185 -251.349686 107.675507
v 724.802185 -251.349686 129.048431
v 724.681030 -251.574890 129.048431
v 724.681030 -251.574890 107.675507
v 723.286499 -254.166290 107.675507
v 723.286499 -254.166290 129.048431
v 723.122986 -254.470078 129.048431
v 726.480713 -234.978287 106.748428
v 725.860474 -234.641281 106.748428
v 725.860474 -234.641281 129.048431
v 726.480713 -234.978287 129.048431
v 726.797791 -234.842392 107.675507
v 726.480713 -234.978287 129.048431
v 726.797791 -234.842392 129.048431
v 727.868713 -234.383682 107.675507
v 726.480713 -234.978287 106.748428
v 727.868713 -234.383682 129.048431
v 728.185913 -234.247787 129.048431
v 728.185913 -234.247787 106.748428
v 728.489502 -234.411591 107.675507
v 728.185913 -234.247787 129.048431
v 728.489502 -234.411591 129.048431
v 729.453796 -234.931686 107.675507
v 728.185913 -234.247787 106.748428
v 729.453796 -234.931686 129.048431
v 729.757385 -235.095490 129.048431
v 729.757385 -235.095490 106.748428
v 730.089600 -234.480377 107.675507
v 729.757385 -235.095490 129.048431
v 730.089600 -234.480377 129.048431
v 730.788696 -233.185684 107.675507
v 729.757385 -235.095490 106.748428
v 730.788696 -233.185684 129.048431
v 731.120911 -232.570480 129.048431
v 731.120911 -232.570480 106.748428
v 731.942139 -233.010681 107.675507
v 731.120911 -232.570480 129.048431
v 731.942139 -233.010681 129.048431
v 733.238892 -233.705887 107.675507
v 731.120911 -232.570480 106.748428
v 733.238892 -233.705887 129.048431
v 734.060120 -234.146088 129.048431
v 734.060120 -234.146088 106.748428
vt 21.142370 1.030090
vt 21.525700 24.777781
vt 21.142370 24.777781
vt 17.872570 1.030090
vt 21.525700 0.000000
vt 17.872570 24.777781
vt 17.178780 24.777781
vt 17.178780 1.030090
vt 12.274090 1.030090
vt 12.274090 24.777781
vt 11.580300 24.777781
vt 11.580300 1.030090
vt 9.945401 1.030090
vt 9.945401 24.777781
vt 9.251610 24.777781
vt 9.251610 1.030090
vt 0.000000 0.000000
vt 4.346920 1.030090
vt 4.346920 24.777781
vt 3.653130 24.777781
vt 3.653130 1.030090
vt 0.383330 1.030090
vt 0.383330 24.777781
vt 0.000000 24.777781
vt 0.000000 0.000000
vt 7.144180 1.030090
vt 0.604590 1.030090
vt 0.000000 0.000000
vt 0.681590 0.000000
vt 0.681590 24.777781
vt 0.000000 24.777781
vt 25.261110 1.030090
vt 25.644440 24.777781
vt 25.261110 24.777781
vt 21.991310 1.030090
vt 25.644440 0.000000
vt 21.991310 24.777781
vt 21.707140 24.777781
vt 21.707140 1.030090
vt 21.091221 0.000000
vt 16.802450 1.030090
vt 16.802450 24.777781
vt 16.518280 24.777781
vt 16.518280 1.030090
vt 14.883380 1.030090
vt 14.883380 24.777781
vt 14.599210 24.777781
vt 14.599210 1.030090
vt 12.964310 1.030090
vt 12.680130 1.030090
vt 11.045240 1.030090
vt 11.045240 24.777781
vt 10.761060 24.777781
vt 10.761060 1.030090
vt 0.000000 0.000000
vt 9.126171 24.777781
vt 8.841991 24.777781
vt 9.126171 1.030090
vt 8.841991 1.030090
vt 3.937300 1.030090
vt 3.937300 24.777781
vt 3.653130 24.777781
vt 3.653130 1.030090
vt 0.383330 1.030090
vt 0.383330 24.777781
vt 0.000000 24.777781
vt 0.000000 0.000000
vt 0.784210 0.000000
vt 0.784210 24.777781
vt 0.000000 24.777781
vt 1.677780 1.030090
vt 2.061110 24.777781
vt 1.677780 24.777781
vt 0.383330 1.030090
vt 2.061110 0.000000
vt 0.383330 24.777781
vt 0.000000 24.777781
vt 0.000000 0.000000
vt 1.600680 1.030090
vt 1.984010 24.777781
vt 1.600680 24.777781
vt 0.383330 1.030090
vt 1.984010 0.000000
vt 0.383330 24.777781
vt 0.000000 24.777781
vt 0.000000 0.000000
vt 0.776770 1.030090
vt 3.188450 0.000000
vt 2.411670 1.030090
vt 3.188450 24.777781
vt 0.776770 24.777781
vt 0.000000 24.777781
vt 0.000000 0.000000
vt 2.670140 1.030090
vt 3.705380 24.777781
vt 2.670140 24.777781
vt 1.035240 1.030090
vt 3.705380 0.000000
vt 1.035240 24.777781
vt 0.000000 24.777781
vt 0.000000 0.000000
vt 7.748780 24.777781
vt 7.144180 24.777781
vt 7.748780 0.000000
vt 0.604590 24.777781
vt 0.000000 24.777781
vt 12.964310 24.777781
vt 12.680130 24.777781
vt 2.411670 24.777781
vn -0.8808 0.4735 0.0000
vn -0.8806 0.4738 -0.0002
vn -0.8808 0.4736 0.0000
vn -0.8806 0.4739 0.0000
vn -0.8806 0.4738 0.0000
vn -0.8806 0.4738 0.0002
vn -0.8806 0.4739 0.0002
vn -0.8807 0.4737 0.0000
vn -0.8807 0.4736 0.0000
vn -0.8807 0.4736 -0.0005
vn -0.4737 -0.8807 0.0000
vn 0.8743 -0.4854 0.0000
vn 0.8744 -0.4853 0.0000
vn 0.8806 -0.4739 0.0000
vn 0.8805 -0.4741 0.0000
vn 0.8806 -0.4738 0.0000
vn 0.8807 -0.4738 0.0004
vn 0.8806 -0.4738 -0.0008
vn 0.8809 -0.4734 -0.0000
vn 0.8806 -0.4739 -0.0003
vn 0.8806 -0.4739 -0.0001
vn 0.8804 -0.4742 -0.0006
vn 0.8806 -0.4739 0.0001
vn 0.8805 -0.4740 -0.0000
vn 0.4774 0.8787 0.0000
vn -0.3940 0.9191 0.0000
vn -0.3938 0.9192 -0.0001
vn -0.3939 0.9192 0.0000
vn -0.3938 0.9192 0.0000
vn 0.4749 0.8801 0.0000
vn 0.4747 0.8801 0.0000
vn 0.4745 0.8802 0.0000
vn 0.4749 0.8800 0.0000
vn 0.4748 0.8801 -0.0000
vn -0.8799 0.4752 0.0001
vn -0.8799 0.4752 0.0000
vn -0.8799 0.4751 0.0000
vn 0.4724 0.8814 0.0000
vn 0.4725 0.8813 -0.0001
vn 0.4725 0.8813 0.0000
vn 0.4725 0.8814 0.0000
vn -0.8806 0.4738 -0.0006
vn -0.4734 -0.8808 -0.0000
vn -0.4736 -0.8808 0.0000
vn -0.4737 -0.8807 0.0001
vn -0.4736 -0.8807 0.0000
vn 0.8807 -0.4737 0.0000
vn 0.8807 -0.4736 0.0007
vn 0.8807 -0.4736 0.0001
vn 0.8806 -0.4739 0.0010
vn 0.8804 -0.4742 -0.0021
vn 0.8806 -0.4739 -0.0004
vn -0.8798 0.4753 0.0000
s off
f 1/1/1 2/2/1 3/3/1
f 4/4/2 5/5/2 1/1/2
f 2/2/3 1/1/3 5/5/3
f 6/6/4 7/7/4 4/4/4
f 7/7/4 8/8/4 4/4/4
f 8/8/5 5/5/5 4/4/5
f 8/8/4 9/9/4 5/5/4
f 10/10/4 11/11/4 9/9/4
f 11/11/4 12/12/4 9/9/4
f 12/12/6 13/13/6 5/5/6
f 14/14/4 15/15/4 13/13/4
f 15/15/4 16/16/4 13/13/4
f 13/13/5 17/17/5 5/5/5
f 18/18/7 17/17/7 16/16/7
f 19/19/8 20/20/8 18/18/8
f 20/20/9 21/21/9 18/18/9
f 21/21/10 17/17/10 18/18/10
f 22/22/7 17/17/7 21/21/7
f 23/23/1 24/24/1 22/22/1
f 24/24/1 17/17/1 22/22/1
f 28/25/11 25/26/11 29/27/11
f 33/28/12 34/29/12 35/30/12
f 33/28/13 35/30/13 36/31/13
f 37/32/14 38/33/14 39/34/14
f 40/35/14 41/36/14 37/32/14
f 38/33/15 37/32/15 41/36/15
f 42/37/15 43/38/15 40/35/15
f 43/38/16 44/39/16 40/35/16
f 44/39/17 45/40/17 40/35/17
f 40/35/14 45/40/14 41/36/14
f 44/39/14 46/41/14 45/40/14
f 47/42/15 48/43/15 46/41/15
f 48/43/16 49/44/16 46/41/16
f 46/41/18 49/44/18 45/40/18
f 49/44/14 50/45/14 45/40/14
f 51/46/15 52/47/15 50/45/15
f 52/47/14 53/48/14 50/45/14
f 50/45/19 53/48/19 45/40/19
f 53/48/20 54/49/20 45/40/20
f 57/50/21 58/51/21 45/40/21
f 59/52/15 60/53/15 58/51/15
f 60/53/14 61/54/14 58/51/14
f 61/54/21 63/55/21 45/40/21
f 64/56/16 65/57/16 62/58/16
f 65/57/15 66/59/15 62/58/15
f 66/59/22 63/55/22 62/58/22
f 67/60/23 63/55/23 66/59/23
f 68/61/16 69/62/16 67/60/16
f 69/62/16 70/63/16 67/60/16
f 70/63/24 63/55/24 67/60/24
f 71/64/14 63/55/14 70/63/14
f 72/65/15 73/66/15 71/64/15
f 73/66/14 63/55/14 71/64/14
f 74/67/25 75/68/25 76/69/25
f 74/67/25 76/69/25 77/70/25
f 78/71/26 79/72/26 80/73/26
f 81/74/27 82/75/27 78/71/27
f 79/72/28 78/71/28 82/75/28
f 83/76/29 84/77/29 81/74/29
f 84/77/29 85/78/29 81/74/29
f 85/78/29 82/75/29 81/74/29
f 86/79/30 87/80/30 88/81/30
f 89/82/31 90/83/31 86/79/31
f 87/80/32 86/79/32 90/83/32
f 91/84/30 92/85/30 89/82/30
f 92/85/33 93/86/33 89/82/33
f 93/86/34 90/83/34 89/82/34
f 97/87/35 98/88/35 94/89/35
f 95/90/36 94/89/36 98/88/36
f 99/91/36 100/92/36 97/87/36
f 100/92/37 101/93/37 97/87/37
f 101/93/36 98/88/36 97/87/36
f 102/94/38 103/95/38 104/96/38
f 105/97/39 106/98/39 102/94/39
f 103/95/40 102/94/40 106/98/40
f 107/99/38 108/100/38 105/97/38
f 108/100/41 109/101/41 105/97/41
f 109/101/40 106/98/40 105/97/40
s 1
f 9/9/42 12/12/42 5/5/42
f 16/16/7 17/17/7 13/13/7
f 25/26/11 26/102/43 27/103/44
f 28/25/45 30/104/11 25/26/11
f 26/102/43 25/26/11 30/104/11
f 31/105/46 32/106/46 29/27/11
f 32/106/46 28/25/11 29/27/11
f 55/107/14 56/108/47 54/49/48
f 56/108/47 57/50/49 54/49/48
f 54/49/48 57/50/49 45/40/50
f 58/51/51 61/54/51 45/40/51
f 62/58/52 63/55/52 61/54/52
f 94/89/53 95/90/53 96/109/53
