# Blender v3.0.1 OBJ File: 'rockerfeller_plaza.blend'
# www.blender.org
o geometryt000010000010000110010110000110000110100000010100st163
v 926.061523 -303.766266 181.033905
v 923.351501 -302.314056 149.397324
v 928.771423 -305.218475 149.397324
v 923.351501 -302.314056 181.033905
v 928.771423 -305.218475 228.488754
v 926.139038 -303.807861 183.488754
v 926.139038 -303.807861 228.488754
v 926.061523 -303.766266 183.488754
v 924.424316 -299.009369 183.488754
v 924.424316 -299.009369 149.397324
v 922.962830 -301.714355 149.397324
v 922.962830 -301.714355 183.488754
v 927.821716 -292.720978 149.397324
v 924.898804 -298.130981 149.397324
v 924.898804 -298.130981 183.488754
v 927.821716 -292.720978 183.488754
v 929.757690 -289.137573 149.397324
v 928.296326 -291.842560 149.397324
v 928.296326 -291.842560 183.488754
v 929.757690 -289.137573 183.488754
v 927.278931 -301.722961 183.488754
v 927.006836 -302.220673 183.488754
v 927.278931 -301.722961 228.488754
v 926.541504 -303.071777 228.488754
v 926.541504 -303.071777 183.488754
v 928.588623 -299.333679 183.488754
v 927.860901 -300.687866 183.488754
v 927.860901 -300.687866 228.488754
v 928.588623 -299.333679 228.488754
v 931.241211 -294.397278 228.488754
v 931.241211 -294.397278 183.488754
v 929.976196 -296.751465 183.488754
v 929.058228 -298.459656 228.488754
v 929.058228 -298.459656 183.488754
v 932.438599 -292.169067 183.488754
v 931.748413 -293.453461 183.488754
v 932.438599 -292.169067 192.099106
v 931.710938 -293.523254 183.488754
v 931.710938 -293.523254 204.488754
v 932.203613 -292.606384 204.488754
v 929.627136 -305.679565 149.397324
v 930.982117 -306.405670 149.397324
v 930.982117 -306.405670 233.488800
v 929.627136 -305.679565 233.488800
v 932.288940 -307.105865 149.397324
v 936.354004 -309.284058 149.397324
v 936.354004 -309.284058 233.488800
v 932.288940 -307.105865 233.488800
v 937.660828 -309.984283 233.488800
v 937.660828 -309.984283 149.397324
v 940.370850 -311.436371 149.397324
v 940.370850 -311.436371 233.488800
v 941.677612 -312.136566 149.397324
v 945.742615 -314.314758 149.397324
v 945.742615 -314.314758 233.488800
v 941.677612 -312.136566 233.488800
v 947.049500 -315.014984 233.488800
v 947.049500 -315.014984 149.397324
v 948.404541 -315.740967 149.397324
v 948.404541 -315.740967 233.488800
v 930.570618 -303.199463 228.488754
v 929.840637 -304.552368 228.488754
v 929.840637 -304.552368 233.488800
v 930.570618 -303.199463 233.488800
v 933.182739 -290.585358 181.033905
v 935.892700 -292.037567 149.397324
v 930.472717 -289.133179 149.397324
v 933.260254 -290.626984 183.488754
v 935.892700 -292.037567 228.488754
v 930.472717 -289.133179 181.033905
v 933.182739 -290.585358 183.488754
v 933.260254 -290.626984 228.488754
v 931.746582 -301.022980 228.488754
v 931.090515 -302.236359 228.488754
v 931.015503 -302.375275 230.058136
v 931.746582 -301.022980 231.988800
v 931.015503 -302.375275 231.988800
v 932.590820 -299.461761 235.488800
v 933.502014 -297.776672 228.488754
v 932.039612 -300.481171 228.488754
v 933.502014 -297.776672 235.209396
v 932.039612 -300.481171 235.242294
v 932.206604 -300.172272 235.488800
v 935.007019 -294.993256 228.488754
v 935.257446 -294.530273 231.988800
v 935.257446 -294.530273 228.488754
v 934.917114 -295.159454 228.488754
v 933.795044 -297.234772 228.488754
v 934.526245 -295.882477 231.988800
v 933.795044 -297.234772 235.119598
v 934.526245 -295.882477 234.895386
v 936.281494 -292.636169 228.488754
v 935.550415 -293.988373 228.488754
v 935.550415 -293.988373 231.988800
v 936.281494 -292.636169 231.988800
v 932.866821 -291.362457 195.488754
v 932.372009 -292.287567 195.488754
v 932.141846 -292.717957 207.671936
v 932.866821 -291.362457 228.488754
v 932.141846 -292.717957 228.488754
v 938.104919 -293.221771 149.397324
v 936.749939 -292.495758 149.397324
v 936.749939 -292.495758 233.488800
v 938.104919 -293.221771 233.488800
v 943.476807 -296.100159 149.397324
v 939.411743 -293.921967 149.397324
v 939.411743 -293.921967 233.488800
v 943.476807 -296.100159 233.488800
v 947.493652 -298.252472 233.488800
v 947.493652 -298.252472 149.397324
v 944.783630 -296.800385 149.397324
v 944.783630 -296.800385 233.488800
v 952.865417 -301.130859 233.488800
v 952.865417 -301.130859 149.397324
v 948.800415 -298.952667 149.397324
v 948.800415 -298.952667 233.488800
v 955.527222 -302.557068 149.397324
v 954.172241 -301.831055 149.397324
v 954.172241 -301.831055 233.488800
v 955.527222 -302.557068 233.488800
v 949.116943 -315.168060 149.397324
v 949.862793 -313.823883 149.397324
v 949.862793 -313.823883 233.488800
v 949.116943 -315.168060 233.488800
v 950.473816 -312.704376 232.702194
v 950.473816 -312.704376 149.397324
v 951.910339 -309.986084 149.397324
v 951.910339 -309.986084 232.702194
v 952.482727 -308.931763 233.488800
v 952.482727 -308.931763 149.397324
v 953.966919 -306.239258 149.397324
v 953.966919 -306.239258 233.488800
v 954.726929 -304.824982 149.397324
v 955.441101 -303.463684 149.397324
v 955.441101 -303.463684 233.488800
v 954.726929 -304.824982 233.488800
vt 0.666670 3.333330
vt 0.000000 0.000000
vt 1.333330 0.000000
vt 0.000000 3.333330
vt 1.333330 8.333331
vt 0.685740 3.591990
vt 0.685740 8.333331
vt 0.000000 3.333330
vt 0.000000 0.000000
vt 0.666670 0.000000
vt 0.666670 3.333330
vt 0.000000 0.000000
vt 1.333330 0.000000
vt 1.333330 3.333330
vt 0.000000 3.333330
vt 0.000000 0.000000
vt 0.666670 0.000000
vt 0.666670 3.333330
vt 0.000000 3.333330
vt 0.000000 0.000000
vt 0.123000 0.000000
vt 0.000000 5.000000
vt 0.333330 5.000000
vt 0.333330 0.000000
vt 0.000000 0.000000
vt 0.333330 0.000000
vt 0.333330 5.000000
vt 0.000000 5.000000
vt 0.000000 5.000000
vt 0.000000 0.000000
vt 0.579510 0.000000
vt 1.000000 5.000000
vt 1.000000 0.000000
vt 0.000000 0.000000
vt 0.316160 0.000000
vt 0.000000 0.956710
vt 0.333330 0.000000
vt 0.333330 2.333330
vt 0.107640 2.333330
vt 0.000000 0.000000
vt 0.333330 0.000000
vt 0.333330 8.666670
vt 0.000000 8.666670
vt 0.000000 0.000000
vt 1.000000 0.000000
vt 1.000000 8.666670
vt 0.000000 8.666670
vt 0.000000 8.666670
vt 0.000000 0.000000
vt 0.666670 0.000000
vt 0.666670 8.666670
vt 0.000000 0.000000
vt 1.000000 0.000000
vt 1.000000 8.666670
vt 0.000000 8.666670
vt 0.000000 0.000000
vt 0.333330 0.000000
vt 0.333330 0.333330
vt 0.000000 0.333330
vt 0.666670 3.333330
vt 0.000000 0.000000
vt 1.333330 0.000000
vt 1.333330 3.333330
vt 0.000000 0.000000
vt 0.299110 0.000000
vt 0.333330 0.149460
vt 0.000000 0.333330
vt 0.333330 0.333330
vt 0.415390 0.666670
vt 0.000000 0.000000
vt 0.666670 0.000000
vt 0.000000 0.640060
vt 0.666670 0.643200
vt 0.590540 0.666670
vt 0.114120 0.000000
vt 0.000000 0.333330
vt 0.000000 0.000000
vt 0.155110 0.000000
vt 0.666670 0.000000
vt 0.333330 0.333330
vt 0.666670 0.631500
vt 0.333330 0.610150
vt 0.000000 0.000000
vt 0.333330 0.000000
vt 0.333330 0.333330
vt 0.000000 0.333330
vt 0.000000 1.333330
vt 0.227480 1.333330
vt 0.333330 2.687020
vt 0.000000 5.000000
vt 0.333330 5.000000
vt 0.000000 0.000000
vt 1.000000 0.000000
vt 1.000000 8.666670
vt 0.000000 8.666670
vt 0.000000 8.666670
vt 0.000000 0.000000
vt 0.666670 0.000000
vt 0.666670 8.666670
vt 0.000000 8.666670
vt 0.000000 0.000000
vt 1.000000 0.000000
vt 1.000000 8.666670
vt 0.000000 0.000000
vt 0.333330 0.000000
vt 0.333330 8.666670
vt 0.000000 8.666670
vt 0.000000 7.333330
vt 0.000000 0.000000
vt 0.666670 0.000000
vt 0.666670 7.333330
vt 0.000000 8.666670
vt 0.000000 0.000000
vt 0.666670 0.000000
vt 0.666670 8.666670
vt 0.000000 0.000000
vt 0.333330 0.000000
vt 0.333330 8.666670
vt 0.000000 8.666670
vt 0.666670 3.591990
vt 0.000000 8.666670
vt 0.000000 0.000000
vt 0.333330 0.000000
vt 0.333330 8.666670
vt 0.647590 3.591990
vt 0.000000 8.333331
vt 0.666670 3.591990
vt 0.647590 8.333331
vt 0.000000 0.000000
vt 0.333330 0.000000
vt 0.333330 8.666670
vt 0.000000 8.666670
vt 0.000000 0.000000
vt 0.333330 0.000000
vt 0.333330 8.666670
vt 0.000000 8.666670
vn -0.4723 -0.8814 0.0000
vn -0.8798 0.4753 0.0000
vn -0.8798 0.4754 0.0000
vn -0.8775 0.4796 0.0000
vn -0.8774 0.4797 0.0000
vn -0.8809 0.4733 0.0000
vn -0.8809 0.4734 0.0000
vn -0.8805 0.4741 -0.0001
vn -0.4723 -0.8815 0.0000
vn -0.8800 0.4749 0.0000
vn -0.8801 0.4748 0.0000
vn 0.4723 0.8814 -0.0000
vn -0.8796 0.4757 0.0001
vn -0.8797 0.4756 0.0000
vn -0.8796 0.4756 -0.0000
vn -0.8796 0.4757 0.0000
vn -0.8797 0.4755 0.0000
vn -0.8797 0.4756 -0.0002
vn -0.8818 0.4716 0.0000
vn -0.8818 0.4717 0.0000
vn 0.8744 -0.4852 0.0000
vn 0.8842 -0.4672 0.0000
vn 0.8841 -0.4672 0.0000
vn 0.8758 -0.4828 0.0000
vn 0.8758 -0.4827 0.0000
vn 0.8855 -0.4646 0.0000
vn 0.8856 -0.4645 0.0000
vn -0.4718 -0.8817 -0.0000
vn -0.4724 -0.8814 -0.0000
vn -0.4722 -0.8815 0.0000
vn 0.4722 0.8815 -0.0000
vn 0.4725 0.8813 -0.0000
vn 0.4723 0.8815 0.0000
s off
f 1/1/1 2/2/1 3/3/1
f 4/4/1 2/2/1 1/1/1
f 5/5/1 6/6/1 3/3/1
f 7/7/1 6/6/1 5/5/1
f 9/8/2 10/9/2 11/10/2
f 9/8/3 11/10/3 12/11/3
f 13/12/2 14/13/2 15/14/2
f 16/15/2 13/12/2 15/14/2
f 17/16/2 18/17/2 19/18/2
f 20/19/2 17/16/2 19/18/2
f 21/20/4 22/21/4 23/22/4
f 24/23/5 22/21/5 25/24/5
f 23/22/5 22/21/5 24/23/5
f 26/25/6 27/26/6 28/27/6
f 29/28/7 26/25/7 28/27/7
f 30/29/7 31/30/7 32/31/7
f 33/32/6 32/31/6 34/33/6
f 33/32/7 30/29/7 32/31/7
f 35/34/6 36/35/6 37/36/6
f 37/36/8 36/35/8 38/37/8
f 39/38/6 37/36/6 38/37/6
f 40/39/6 37/36/6 39/38/6
f 41/40/1 42/41/1 43/42/1
f 44/43/1 41/40/1 43/42/1
f 45/44/1 46/45/1 47/46/1
f 48/47/1 45/44/1 47/46/1
f 49/48/9 50/49/9 51/50/9
f 49/48/1 51/50/1 52/51/1
f 53/52/1 54/53/1 55/54/1
f 56/55/1 53/52/1 55/54/1
f 61/56/10 62/57/10 63/58/10
f 64/59/11 61/56/11 63/58/11
f 65/60/12 66/61/12 67/62/12
f 65/60/12 67/62/12 70/63/12
f 73/64/13 74/65/13 75/66/13
f 76/67/14 73/64/14 75/66/14
f 77/68/14 76/67/14 75/66/14
f 78/69/15 79/70/15 80/71/15
f 81/72/16 79/70/16 78/69/16
f 78/69/17 80/71/17 82/73/17
f 83/74/18 78/69/18 82/73/18
f 84/75/16 85/76/16 86/77/16
f 84/75/17 87/78/17 85/76/17
f 88/79/14 89/80/14 87/78/14
f 87/78/16 89/80/16 85/76/16
f 88/79/14 90/81/14 89/80/14
f 89/80/14 90/81/14 91/82/14
f 92/83/15 93/84/15 94/85/15
f 95/86/14 92/83/14 94/85/14
f 96/87/19 97/88/19 98/89/19
f 99/90/19 96/87/19 98/89/19
f 100/91/20 99/90/20 98/89/20
f 105/92/12 106/93/12 107/94/12
f 108/95/12 105/92/12 107/94/12
f 109/96/12 110/97/12 111/98/12
f 109/96/12 111/98/12 112/99/12
f 113/100/12 114/101/12 115/102/12
f 113/100/12 115/102/12 116/103/12
f 121/104/21 122/105/21 123/106/21
f 124/107/21 121/104/21 123/106/21
f 125/108/22 126/109/22 127/110/22
f 125/108/23 127/110/23 128/111/23
f 129/112/24 130/113/24 131/114/24
f 129/112/25 131/114/25 132/115/25
f 133/116/26 134/117/26 135/118/26
f 136/119/27 133/116/27 135/118/27
s 1
f 6/6/28 1/1/29 3/3/29
f 6/6/28 8/120/28 1/1/29
f 57/121/1 58/122/30 59/123/30
f 57/121/1 59/123/30 60/124/1
f 68/125/31 66/61/12 65/60/31
f 69/126/12 66/61/12 68/125/31
f 71/127/32 68/125/31 65/60/31
f 72/128/12 69/126/12 68/125/31
f 101/129/12 102/130/12 103/131/12
f 104/132/12 101/129/12 103/131/12
f 117/133/33 118/134/33 119/135/12
f 120/136/12 117/133/33 119/135/12
