# Blender v3.0.1 OBJ File: 'rockerfeller_plaza.blend'
# www.blender.org
o geometryt000010000010000110010110000110000110100100010010st36
v 1180.359009 -89.409271 1041.549316
v 1180.359009 -89.409271 1013.189270
v 1183.520264 -91.118134 1013.189270
v 1183.520264 -91.118134 1041.549316
v 1185.803711 -92.352539 1013.189270
v 1188.965088 -94.061401 1013.189270
v 1188.965088 -94.061401 1041.549316
v 1185.803711 -92.352539 1041.549316
v 1191.248535 -95.295799 1041.549316
v 1191.248535 -95.295799 1013.189270
v 1194.409790 -97.004662 1013.189270
v 1194.409790 -97.004662 1041.549316
v 1196.693237 -98.239075 1013.189270
v 1199.854492 -99.947929 1013.189270
v 1199.854492 -99.947929 1041.549316
v 1196.693237 -98.239075 1041.549316
v 1181.334961 -86.885612 1013.189270
v 1180.478516 -88.465134 1013.189270
v 1180.478516 -88.465134 1041.549316
v 1181.334961 -86.885612 1041.549316
v 1182.976685 -83.839546 1013.189270
v 1182.125610 -85.421944 1013.189270
v 1182.125610 -85.421944 1041.549316
v 1182.976685 -83.839546 1041.549316
v 1186.182007 -84.692085 1041.549316
v 1186.182007 -84.692085 1013.189270
v 1184.601929 -83.836723 1013.189270
v 1184.601929 -83.836723 1041.549316
v 1187.718994 -73.038849 1041.549316
v 1187.718994 -73.038849 1013.189270
v 1186.864990 -74.619629 1013.189270
v 1186.864990 -74.619629 1041.549316
v 1189.144287 -70.400993 1041.549316
v 1189.144287 -70.400993 1013.189270
v 1188.290161 -71.981781 1013.189270
v 1188.290161 -71.981781 1041.549316
v 1190.569458 -67.763145 1013.189270
v 1189.715332 -69.343925 1013.189270
v 1189.715332 -69.343925 1041.549316
v 1190.569458 -67.763145 1041.549316
v 1187.779785 -75.506500 1013.189270
v 1189.360474 -76.361053 1013.189270
v 1189.360474 -76.361053 1041.549316
v 1187.779785 -75.506500 1041.549316
v 1189.172729 -82.169304 1013.189270
v 1188.317871 -83.749626 1013.189270
v 1188.317871 -83.749626 1041.549316
v 1189.172729 -82.169304 1041.549316
v 1190.071655 -77.627983 1013.189270
v 1189.220581 -79.210381 1013.189270
v 1189.220581 -79.210381 1041.549316
v 1190.071655 -77.627983 1041.549316
v 1194.198242 -69.332474 1041.549316
v 1194.198242 -69.332474 1013.189270
v 1191.036987 -67.623665 1013.189270
v 1191.036987 -67.623665 1041.549316
v 1197.333862 -71.027420 1041.549316
v 1197.333862 -71.027420 1013.189270
v 1195.753174 -70.173019 1013.189270
v 1195.753174 -70.173019 1041.549316
v 1203.630615 -74.431175 1041.549316
v 1203.630615 -74.431175 1013.189270
v 1198.888794 -71.867973 1013.189270
v 1198.888794 -71.867973 1041.549316
v 1206.766235 -76.126122 1041.549316
v 1206.766235 -76.126122 1013.189270
v 1205.185669 -75.271721 1013.189270
v 1205.185669 -75.271721 1041.549316
v 1210.961792 -78.394035 1041.549316
v 1211.482544 -78.675476 1013.189270
v 1208.321289 -76.966675 1013.189270
v 1211.482544 -78.675476 1041.549316
v 1208.321289 -76.966675 1041.549316
v 1198.149902 -90.952171 1013.189270
v 1199.004761 -89.371773 1013.189270
v 1199.004761 -89.371773 1041.549316
v 1198.149902 -90.952171 1041.549316
v 1199.958252 -87.608810 1041.549316
v 1199.958252 -87.608810 1013.189270
v 1200.812988 -86.028412 1013.189270
v 1200.812988 -86.028412 1041.549316
v 1199.871460 -92.271233 1041.549316
v 1199.871460 -92.271233 1013.189270
v 1198.289551 -91.419220 1013.189270
v 1198.289551 -91.419220 1041.549316
v 1203.068604 -93.993233 1041.549316
v 1203.068604 -93.993233 1013.189270
v 1201.486572 -93.141212 1013.189270
v 1201.486572 -93.141212 1041.549316
v 1200.321777 -99.808395 1041.549316
v 1200.321777 -99.808395 1013.189270
v 1201.175293 -98.227264 1013.189270
v 1201.175293 -98.227264 1041.549316
v 1202.354980 -96.041565 1041.549316
v 1202.354980 -96.041565 1013.189270
v 1203.208496 -94.460426 1013.189270
v 1203.208496 -94.460426 1041.549316
v 1202.473877 -85.382271 1013.189270
v 1203.329102 -83.802101 1013.189270
v 1203.329102 -83.802101 1041.549316
v 1202.473877 -85.382271 1041.549316
v 1204.847534 -83.465523 1013.189270
v 1206.426758 -84.322472 1013.189270
v 1206.426758 -84.322472 1041.549316
v 1204.847534 -83.465523 1041.549316
v 1206.947266 -85.848862 1013.189270
v 1206.105225 -87.436119 1013.189270
v 1206.105225 -87.436119 1041.549316
v 1206.947266 -85.848862 1041.549316
v 1206.448242 -88.480721 1013.189270
v 1208.188843 -85.336861 1013.189270
v 1208.188843 -85.336861 1041.549316
v 1206.448242 -88.480721 1041.549316
v 1209.879761 -82.282715 1041.549316
v 1209.879761 -82.282715 1013.189270
v 1211.620239 -79.138855 1013.189270
v 1211.620239 -79.138855 1041.549316
vt 0.000000 2.000000
vt 0.000000 0.000000
vt 0.666670 0.000000
vt 0.666670 2.000000
vt 0.000000 0.000000
vt 0.666670 0.000000
vt 0.666670 2.000000
vt 0.000000 2.000000
vt 0.000000 2.000000
vt 0.000000 0.000000
vt 0.666670 0.000000
vt 0.666670 2.000000
vt 0.000000 0.000000
vt 0.666670 0.000000
vt 0.666670 2.000000
vt 0.000000 2.000000
vt 0.000000 0.000000
vt 0.333330 0.000000
vt 0.333330 2.000000
vt 0.000000 2.000000
vt 0.000000 2.000000
vt 0.000000 0.000000
vt 0.333330 0.000000
vt 0.333330 2.000000
vt 0.000000 2.000000
vt 0.000000 0.000000
vt 0.333330 0.000000
vt 0.333330 2.000000
vt 0.000000 2.000000
vt 0.000000 0.000000
vt 0.333330 0.000000
vt 0.333330 2.000000
vt 0.000000 0.000000
vt 0.333330 0.000000
vt 0.333330 2.000000
vt 0.000000 2.000000
vt 0.000000 0.000000
vt 0.333330 0.000000
vt 0.333330 2.000000
vt 0.000000 2.000000
vt 0.000000 0.000000
vt 0.333330 0.000000
vt 0.333330 2.000000
vt 0.000000 2.000000
vt 0.000000 0.000000
vt 0.333330 0.000000
vt 0.333330 2.000000
vt 0.000000 2.000000
vt 0.000000 2.250000
vt 0.000000 0.000000
vt 0.666670 0.000000
vt 0.666670 2.250000
vt 0.000000 2.250000
vt 0.000000 0.000000
vt 0.333330 0.000000
vt 0.333330 2.250000
vt 0.000000 2.250000
vt 0.000000 0.000000
vt 1.000000 0.000000
vt 1.000000 2.250000
vt 0.000000 2.250000
vt 0.000000 0.000000
vt 0.333330 0.000000
vt 0.333330 2.250000
vt 0.109800 2.250000
vt 0.000000 0.000000
vt 0.666670 0.000000
vt 0.000000 2.250000
vt 0.666670 2.250000
vt 0.000000 0.000000
vt 0.333330 0.000000
vt 0.333330 2.000000
vt 0.000000 2.000000
vt 0.000000 2.000000
vt 0.000000 0.000000
vt 0.333330 0.000000
vt 0.333330 2.000000
vt 0.000000 2.000000
vt 0.000000 0.000000
vt 0.333330 0.000000
vt 0.333330 2.000000
vt 0.000000 2.000000
vt 0.000000 0.000000
vt 0.333330 0.000000
vt 0.333330 2.000000
vt 0.000000 2.000000
vt 0.000000 0.000000
vt 0.333330 0.000000
vt 0.333330 2.000000
vt 0.000000 2.000000
vt 0.000000 0.000000
vt 0.333330 0.000000
vt 0.333330 2.000000
vt 0.000000 0.000000
vt 0.333330 0.000000
vt 0.333330 2.000000
vt 0.000000 2.000000
vt 0.000000 0.000000
vt 0.333330 0.000000
vt 0.333330 2.000000
vt 0.000000 2.000000
vt 0.000000 0.000000
vt 0.333330 0.000000
vt 0.333330 2.250000
vt 0.000000 2.250000
vt 0.000000 0.000000
vt 0.666670 0.000000
vt 0.666670 2.250000
vt 0.000000 2.250000
vt 0.000000 2.250000
vt 0.000000 0.000000
vt 0.666670 0.000000
vt 0.666670 2.250000
vt 0.000000 0.000000
vt 0.333330 0.000000
vt 0.333330 2.000000
vt 0.000000 2.000000
vn -0.4755 -0.8797 0.0000
vn -0.4756 -0.8797 0.0000
vn -0.8807 0.4737 0.0000
vn -0.8807 0.4736 0.0000
vn 0.4760 0.8794 0.0000
vn 0.4761 0.8794 0.0000
vn -0.8798 0.4753 0.0000
vn -0.8798 0.4754 0.0000
vn -0.8795 0.4759 0.0000
vn -0.8796 0.4756 0.0000
vn 0.4755 0.8797 0.0000
vn 0.4754 0.8797 0.0000
vn 0.4756 0.8797 0.0000
vn 0.8796 -0.4757 0.0000
vn 0.8795 -0.4759 0.0000
vn 0.4742 0.8804 0.0000
vn 0.8799 -0.4751 0.0000
vn 0.8800 -0.4750 0.0000
vn 0.8794 -0.4760 0.0000
vn -0.4769 -0.8789 0.0000
vn -0.8834 0.4687 0.0000
vn 0.8749 -0.4843 0.0000
vn 0.8748 -0.4844 0.0000
vn -0.8791 0.4767 0.0000
s off
f 1/1/1 2/2/1 3/3/1
f 1/1/1 3/3/1 4/4/1
f 5/5/1 6/6/1 7/7/1
f 8/8/1 5/5/1 7/7/1
f 9/9/2 10/10/2 11/11/2
f 9/9/1 11/11/1 12/12/1
f 13/13/2 14/14/2 15/15/2
f 16/16/1 13/13/1 15/15/1
f 21/17/3 22/18/3 23/19/3
f 24/20/4 21/17/4 23/19/4
f 25/21/5 26/22/5 27/23/5
f 25/21/6 27/23/6 28/24/6
f 29/25/7 30/26/7 31/27/7
f 29/25/7 31/27/7 32/28/7
f 33/29/7 34/30/7 35/31/7
f 33/29/8 35/31/8 36/32/8
f 37/33/7 38/34/7 39/35/7
f 40/36/8 37/33/8 39/35/8
f 41/37/2 42/38/2 43/39/2
f 44/40/2 41/37/2 43/39/2
f 45/41/9 46/42/9 47/43/9
f 48/44/10 45/41/10 47/43/10
f 49/45/4 50/46/4 51/47/4
f 52/48/3 49/45/3 51/47/3
f 53/49/11 54/50/11 55/51/11
f 53/49/11 55/51/11 56/52/11
f 57/53/12 58/54/12 59/55/12
f 57/53/13 59/55/13 60/56/13
f 61/57/11 62/58/11 63/59/11
f 61/57/11 63/59/11 64/60/11
f 65/61/13 66/62/13 67/63/13
f 65/61/11 67/63/11 68/64/11
f 69/65/11 70/66/11 71/67/11
f 72/68/11 70/66/11 69/65/11
f 69/65/11 71/67/11 73/69/11
f 74/70/14 75/71/14 76/72/14
f 77/73/15 74/70/15 76/72/15
f 78/74/14 79/75/14 80/76/14
f 78/74/14 80/76/14 81/77/14
f 82/78/16 83/79/16 84/80/16
f 82/78/16 84/80/16 85/81/16
f 86/82/16 87/83/16 88/84/16
f 86/82/16 88/84/16 89/85/16
f 90/86/17 91/87/17 92/88/17
f 90/86/18 92/88/18 93/89/18
f 94/90/18 95/91/18 96/92/18
f 94/90/18 96/92/18 97/93/18
f 98/94/15 99/95/15 100/96/15
f 101/97/19 98/94/19 100/96/19
f 102/98/20 103/99/20 104/100/20
f 105/101/20 102/98/20 104/100/20
f 106/102/21 107/103/21 108/104/21
f 109/105/21 106/102/21 108/104/21
f 110/106/22 111/107/22 112/108/22
f 113/109/23 110/106/23 112/108/23
f 114/110/22 115/111/22 116/112/22
f 114/110/22 116/112/22 117/113/22
s 1
f 17/114/24 18/115/24 19/116/24
f 20/117/24 17/114/24 19/116/24
