# Blender v3.0.1 OBJ File: 'rockerfeller_plaza.blend'
# www.blender.org
o geometryt000010000010000110010110000110000100110010110010st128
v 172.333008 -248.827866 291.688477
v 172.817413 -249.088776 305.706818
v 172.333008 -248.827866 305.706818
v 159.463608 -241.893875 291.688477
v 172.817413 -249.088776 291.206818
v 159.463608 -241.893875 305.706818
v 158.979202 -241.632874 305.706818
v 158.979202 -241.632874 291.206818
v 159.360611 -240.924667 291.688477
v 158.979202 -241.632874 305.706818
v 159.360611 -240.924667 305.706818
v 161.250702 -237.414276 291.688477
v 158.979202 -241.632874 291.206818
v 161.250702 -237.414276 305.706818
v 161.632004 -236.706070 305.706818
v 161.632004 -236.706070 291.206818
v 162.116409 -236.967072 291.688477
v 161.632004 -236.706070 305.706818
v 162.116409 -236.967072 305.706818
v 175.470200 -244.161972 291.206818
v 174.985809 -243.901062 291.688477
v 161.632004 -236.706070 291.206818
v 174.985809 -243.901062 305.706818
v 175.470200 -244.161972 305.706818
v 175.088806 -244.870270 291.688477
v 175.470200 -244.161972 305.706818
v 175.088806 -244.870270 305.706818
v 172.817413 -249.088776 291.206818
v 173.198700 -248.380569 291.688477
v 175.470200 -244.161972 291.206818
v 173.198700 -248.380569 305.706818
v 172.817413 -249.088776 305.706818
vt 17.762020 0.564010
vt 18.406210 16.978920
vt 17.762020 16.978920
vt 0.644190 0.564010
vt 18.406210 0.000000
vt 0.644190 16.978920
vt 0.000000 16.978920
vt 0.000000 0.000000
vt 5.610360 0.564010
vt 6.552220 16.978920
vt 5.610360 16.978920
vt 6.552220 0.000000
vt 0.941860 16.978920
vt 0.000000 16.978920
vt 0.941860 0.564010
vt 0.000000 0.000000
vt 17.762020 0.564010
vt 18.406200 16.978920
vt 17.762020 16.978920
vt 0.000000 0.000000
vt 18.406200 0.000000
vt 0.000000 16.978920
vt 0.644190 0.564010
vt 5.610360 0.564010
vt 6.552220 16.978920
vt 5.610360 16.978920
vt 0.000000 0.000000
vt 0.941860 0.564010
vt 6.552220 0.000000
vt 0.941860 16.978920
vt 0.000000 16.978920
vt 0.644190 16.978920
vn -0.4742 -0.8804 0.0000
vn -0.4743 -0.8803 -0.0002
vn -0.4743 -0.8803 0.0000
vn -0.8804 0.4742 0.0000
vn -0.8805 0.4741 0.0000
vn 0.4743 0.8803 0.0000
vn 0.4743 0.8804 -0.0000
vn 0.4742 0.8804 0.0000
vn 0.8805 -0.4741 0.0000
vn 0.8805 -0.4741 -0.0003
vn 0.8805 -0.4740 0.0000
vn -0.8805 0.4741 0.0002
vn 0.4743 0.8804 -0.0001
s off
f 1/1/1 2/2/1 3/3/1
f 4/4/2 5/5/2 1/1/2
f 2/2/1 1/1/1 5/5/1
f 6/6/3 7/7/3 4/4/3
f 7/7/3 8/8/3 4/4/3
f 8/8/3 5/5/3 4/4/3
f 9/9/4 10/10/4 11/11/4
f 10/10/4 9/9/4 13/12/4
f 14/13/5 15/14/5 12/15/5
f 15/14/5 16/16/5 12/15/5
f 16/16/5 13/12/5 12/15/5
f 17/17/6 18/18/6 19/19/6
f 20/20/7 22/21/7 17/17/7
f 18/18/6 17/17/6 22/21/6
f 24/22/8 20/20/8 21/23/8
f 25/24/9 26/25/9 27/26/9
f 28/27/10 25/24/10 29/28/10
f 28/27/9 30/29/9 25/24/9
f 26/25/9 25/24/9 30/29/9
f 31/30/9 32/31/9 29/28/9
f 32/31/11 28/27/11 29/28/11
s 1
f 12/15/12 13/12/12 9/9/12
f 20/20/13 17/17/13 21/23/13
f 23/32/8 24/22/8 21/23/8
