# Blender v3.0.1 OBJ File: 'rockerfeller_plaza.blend'
# www.blender.org
o geometryt000010000010000110010110000110000110100000010110st142
v 1137.727417 -301.875671 188.823441
v 1130.238770 -295.324158 188.823441
v 1131.287842 -293.357880 188.823441
v 1129.181274 -297.290558 188.823441
v 1132.527100 -291.045258 188.823441
v 1134.402100 -287.514984 188.823441
v 1144.542847 -289.139282 188.823441
v 1137.608154 -281.593170 188.823441
v 1143.448486 -270.655670 188.823441
v 1151.986206 -275.251984 188.823441
v 1137.727417 -301.875671 216.923447
v 1130.238770 -295.324158 216.923447
v 1129.181274 -297.290558 216.923447
v 1144.542847 -289.139282 216.923447
v 1132.527100 -291.045258 216.923447
v 1131.287842 -293.357880 216.923447
v 1151.986206 -275.251984 216.923447
v 1137.608154 -281.593170 216.923447
v 1134.402100 -287.514984 216.923447
v 1143.448486 -270.655670 216.923447
vt 0.503720 0.282140
vt 0.494180 0.267200
vt 0.490260 0.269360
vt 0.498090 0.265030
vt 0.485660 0.271920
vt 0.478640 0.275780
vt 0.478370 0.296180
vt 0.466840 0.282380
vt 0.445080 0.294410
vt 0.450730 0.311510
vt 0.503720 0.282140
vt 0.494180 0.267200
vt 0.498090 0.265030
vt 0.478370 0.296180
vt 0.485660 0.271920
vt 0.490260 0.269360
vt 0.450730 0.311510
vt 0.466840 0.282380
vt 0.478640 0.275780
vt 0.445080 0.294410
vn 0.0000 0.0000 -1.0000
vn 0.0000 0.0000 1.0000
s off
f 1/1/1 2/2/1 3/3/1
f 4/4/1 2/2/1 1/1/1
f 5/5/1 1/1/1 3/3/1
f 6/6/1 7/7/1 5/5/1
f 5/5/1 7/7/1 1/1/1
f 6/6/1 8/8/1 7/7/1
f 9/9/1 10/10/1 8/8/1
f 7/7/1 8/8/1 10/10/1
f 11/11/2 12/12/2 13/13/2
f 11/11/2 14/14/2 15/15/2
f 11/11/2 15/15/2 16/16/2
f 11/11/2 16/16/2 12/12/2
f 14/14/2 17/17/2 18/18/2
f 14/14/2 18/18/2 19/19/2
f 19/19/2 15/15/2 14/14/2
f 17/17/2 20/20/2 18/18/2
