# Blender v3.0.1 OBJ File: 'rockerfeller_plaza.blend'
# www.blender.org
o geometryt000010000010000110010110000110000110100000010110st121
v 1185.587891 -295.327576 189.105377
v 1185.426758 -295.632568 257.578583
v 1185.587891 -295.327576 257.578583
v 1186.365723 -293.855469 189.105377
v 1185.426758 -295.632568 188.578568
v 1186.365723 -293.855469 257.578583
v 1186.556641 -293.494263 257.578583
v 1186.556641 -293.494263 189.105377
v 1187.334473 -292.022278 189.105377
v 1187.334473 -292.022278 257.578583
v 1187.525391 -291.661072 257.578583
v 1187.525391 -291.661072 189.105377
v 1188.303223 -290.188965 189.105377
v 1188.303223 -290.188965 257.578583
v 1188.494019 -289.827759 257.578583
v 1188.494019 -289.827759 189.105377
v 1189.271973 -288.355682 189.105377
v 1189.271973 -288.355682 257.578583
v 1189.462891 -287.994476 257.578583
v 1189.462891 -287.994476 189.105377
v 1192.339233 -282.550873 188.578568
v 1190.240601 -286.522461 189.105377
v 1190.240601 -286.522461 257.578583
v 1190.431519 -286.161163 257.578583
v 1190.431519 -286.161163 189.105377
v 1191.209351 -284.689178 189.105377
v 1191.209351 -284.689178 257.578583
v 1191.400269 -284.327972 257.578583
v 1191.400269 -284.327972 189.105377
v 1192.178101 -282.855865 189.105377
v 1192.178101 -282.855865 257.578583
v 1192.339233 -282.550873 257.578583
v 1188.724609 -297.378174 257.578583
v 1188.724609 -297.378174 189.105377
v 1189.079346 -297.565979 193.578568
v 1189.079346 -297.565979 257.578583
v 1185.426758 -295.632568 188.578568
v 1185.781494 -295.820374 189.105377
v 1189.079346 -297.565979 188.578568
v 1185.781494 -295.820374 257.578583
v 1185.426758 -295.632568 257.578583
v 1189.079346 -297.565979 257.578583
v 1189.079346 -297.565979 193.578568
v 1189.317139 -297.703156 193.578568
v 1189.998779 -298.096558 193.578568
v 1189.998779 -298.096558 257.578583
v 1191.440796 -298.928772 257.578583
v 1191.440796 -298.928772 193.578568
v 1192.360107 -299.459381 193.578568
v 1192.360107 -299.459381 257.578583
v 1193.038818 -282.921967 257.578583
v 1193.038818 -282.921967 189.105377
v 1192.339233 -282.550873 257.578583
v 1196.680054 -284.853668 188.578568
v 1195.980469 -284.482574 189.105377
v 1192.339233 -282.550873 188.578568
v 1195.980469 -284.482574 257.578583
v 1196.680054 -284.853668 193.578568
v 1196.680054 -284.853668 257.578583
v 1197.274536 -285.177856 257.578583
v 1197.274536 -285.177856 193.578568
v 1196.680054 -284.853668 193.578568
v 1196.680054 -284.853668 257.578583
v 1199.330811 -286.299164 257.578583
v 1199.330811 -286.299164 193.578568
v 1199.138794 -286.194458 193.578568
v 1198.736328 -285.974976 193.578568
v 1198.736328 -285.974976 257.578583
vt 16.056440 0.585340
vt 16.439779 76.666656
vt 16.056440 76.666656
vt 14.206510 0.585340
vt 16.439779 0.000000
vt 14.206510 76.666656
vt 13.752580 76.666656
vt 13.752580 0.585340
vt 11.902650 0.585340
vt 11.902650 76.666656
vt 11.448720 76.666656
vt 11.448720 0.585340
vt 9.598791 0.585340
vt 9.598791 76.666656
vt 9.144850 76.666656
vt 9.144850 0.585340
vt 7.294920 0.585340
vt 7.294920 76.666656
vt 6.840990 76.666656
vt 6.840990 0.585340
vt 0.000000 0.000000
vt 4.991060 0.585340
vt 4.991060 76.666656
vt 4.537130 76.666656
vt 4.537130 0.585340
vt 2.687200 0.585340
vt 2.687200 76.666656
vt 2.233260 76.666656
vt 2.233260 0.585340
vt 0.383330 0.585340
vt 0.383330 76.666656
vt 0.000000 76.666656
vt 4.145920 76.666656
vt 4.145920 0.585340
vt 4.591980 5.555560
vt 4.591980 76.666656
vt 0.000000 0.000000
vt 0.446060 0.585340
vt 4.591980 0.000000
vt 0.446060 76.666656
vt 0.000000 76.666656
vt 0.304980 0.000000
vt 1.179410 0.000000
vt 1.179410 71.111107
vt 0.000000 71.111107
vt 3.029340 71.111107
vt 3.029340 0.000000
vt 4.208760 0.000000
vt 4.208760 71.111107
vt 4.579810 76.666656
vt 4.579810 0.585340
vt 5.459750 76.666656
vt 0.000000 0.000000
vt 0.879940 0.585340
vt 5.459750 0.000000
vt 0.879940 76.666656
vt 0.000000 5.555560
vt 0.000000 76.666656
vt 2.602360 71.111107
vt 2.602360 0.000000
vt 3.354800 0.000000
vt 3.354800 71.111107
vt 0.000000 71.111107
vt 0.000000 0.000000
vt 0.243100 0.000000
vt 0.752430 0.000000
vt 0.752430 71.111107
vt 0.000000 0.000000
vn -0.8842 0.4671 0.0000
vn -0.8841 0.4672 -0.0001
vn -0.8841 0.4672 0.0000
vn -0.8843 0.4670 0.0000
vn -0.8840 0.4674 0.0000
vn -0.8840 0.4674 -0.0006
vn -0.8841 0.4673 0.0000
vn -0.8842 0.4670 0.0001
vn -0.8845 0.4666 0.0000
vn -0.8842 0.4671 -0.0006
vn -0.8842 0.4672 0.0001
vn -0.8842 0.4670 -0.0006
vn -0.8841 0.4674 0.0000
vn -0.8841 0.4673 0.0001
vn -0.8843 0.4669 0.0000
vn -0.4679 -0.8838 0.0000
vn -0.4678 -0.8838 -0.0001
vn -0.4678 -0.8838 0.0000
vn -0.4680 -0.8837 0.0000
vn -0.4999 -0.8661 0.0000
vn -0.4998 -0.8661 0.0000
vn 0.4685 0.8835 0.0000
vn 0.4686 0.8834 0.0001
vn 0.4687 0.8834 -0.0001
vn 0.4686 0.8834 0.0000
vn 0.4687 0.8834 0.0000
vn 0.4788 0.8779 0.0000
vn 0.4790 0.8778 0.0000
vn 0.4789 0.8779 0.0000
vn 0.4786 0.8780 0.0000
vn -0.8839 0.4676 -0.0005
vn -0.8840 0.4675 0.0017
vn -0.4677 -0.8839 0.0000
vn -0.5001 -0.8660 0.0000
s off
f 1/1/1 2/2/1 3/3/1
f 4/4/2 5/5/2 1/1/2
f 2/2/3 1/1/3 5/5/3
f 6/6/4 7/7/4 4/4/4
f 7/7/5 8/8/5 4/4/5
f 8/8/6 5/5/6 4/4/6
f 8/8/7 9/9/7 5/5/7
f 10/10/5 11/11/5 9/9/5
f 11/11/5 12/12/5 9/9/5
f 9/9/2 12/12/2 5/5/2
f 12/12/8 13/13/8 5/5/8
f 14/14/5 15/15/5 13/13/5
f 15/15/9 16/16/9 13/13/9
f 16/16/10 17/17/10 5/5/10
f 18/18/4 19/19/4 17/17/4
f 19/19/5 20/20/5 17/17/5
f 17/17/11 21/21/11 5/5/11
f 22/22/12 21/21/12 20/20/12
f 23/23/13 24/24/13 22/22/13
f 24/24/13 25/25/13 22/22/13
f 25/25/7 21/21/7 22/22/7
f 26/26/7 21/21/7 25/25/7
f 27/27/5 28/28/5 26/26/5
f 28/28/4 29/29/4 26/26/4
f 29/29/14 21/21/14 26/26/14
f 30/30/11 21/21/11 29/29/11
f 31/31/1 32/32/1 30/30/1
f 32/32/15 21/21/15 30/30/15
f 33/33/16 34/34/16 35/35/16
f 35/35/16 36/36/16 33/33/16
f 37/37/17 34/34/17 38/38/17
f 37/37/18 39/39/18 34/34/18
f 35/35/16 34/34/16 39/39/16
f 38/38/19 40/40/19 41/41/19
f 44/42/20 45/43/20 46/44/20
f 42/45/21 44/42/21 46/44/21
f 47/46/20 48/47/20 49/48/20
f 47/46/21 49/48/21 50/49/21
f 51/50/22 52/51/22 53/52/22
f 54/53/23 52/51/23 55/54/23
f 54/53/24 56/55/24 52/51/24
f 55/54/25 57/56/25 58/57/25
f 58/57/25 54/53/25 55/54/25
f 57/56/26 59/58/26 58/57/26
f 60/59/27 61/60/27 62/61/27
f 60/59/27 62/61/27 63/62/27
f 64/63/28 65/64/28 66/65/28
f 66/65/29 67/66/29 68/67/29
f 64/63/30 66/65/30 68/67/30
s 1
f 13/13/31 16/16/31 5/5/31
f 20/20/32 21/21/32 17/17/32
f 41/41/33 37/37/33 38/38/33
f 42/45/34 43/68/34 44/42/34
f 53/52/25 52/51/25 56/55/25
