# Blender v3.0.1 OBJ File: 'rockerfeller_plaza.blend'
# www.blender.org
o geometryt000010000010000110010110000110000110100000110010st50_4
v 1201.448486 -133.347443 462.967407
v 1196.037354 -147.044434 462.967407
v 1193.933594 -147.624237 462.967407
v 1206.742432 -154.313141 462.967407
v 1202.858521 -134.085846 462.967407
v 1207.436279 -153.006042 462.967407
v 1199.136597 -145.698044 462.967407
v 1207.204834 -130.371140 462.967407
v 1212.259766 -152.549835 462.967407
v 1205.064331 -129.252747 462.967407
v 1208.211426 -120.456139 462.967407
v 1209.239136 -120.988136 462.967407
v 1209.375122 -121.064240 462.967407
v 1210.938477 -155.063339 462.967407
v 1217.676880 -160.246841 462.967407
v 1218.362183 -158.939835 462.967407
v 1201.028809 -145.076340 462.967407
v 1211.219238 -125.705643 462.967407
v 1217.660034 -153.763245 462.967407
v 1210.225342 -125.184341 462.967407
v 1211.744995 -122.313240 462.967407
v 1216.974609 -155.070236 462.967407
v 1219.658691 -156.471039 462.967407
v 1207.025024 -143.118744 462.967407
v 1216.603760 -124.865341 462.967407
v 1222.449951 -151.175842 462.967407
v 1226.966919 -133.203842 462.967407
v 1228.156128 -130.947235 462.967407
v 1230.518066 -135.837845 462.967407
v 1230.831787 -135.234634 462.967407
v 1193.933594 -147.624237 505.967407
v 1196.037354 -147.044434 505.967407
v 1201.448486 -133.347443 505.967407
v 1206.742432 -154.313141 505.967407
v 1196.482056 -146.199341 505.967407
v 1206.692871 -152.617233 505.967407
v 1202.766602 -134.037735 505.967407
v 1202.858521 -134.085846 505.967407
v 1206.787720 -154.227844 505.967407
v 1207.436279 -153.006042 505.967407
v 1202.858521 -134.085846 508.967407
v 1196.037354 -147.044434 508.967407
v 1199.136597 -145.698044 508.967407
v 1207.436279 -153.006042 508.967407
v 1200.067505 -143.929535 508.967407
v 1210.745605 -151.759232 508.967407
v 1207.204834 -130.371140 508.967407
v 1205.064331 -129.252747 508.967407
v 1201.448486 -133.347443 508.967407
v 1208.211426 -120.456139 508.967407
v 1206.957764 -130.242142 508.967407
v 1205.561768 -128.307938 508.967407
v 1209.239136 -120.988136 508.967407
v 1209.375122 -121.064240 508.967407
v 1206.742432 -154.313141 508.967407
v 1210.938477 -155.063339 508.967407
v 1217.676880 -160.246841 508.967407
v 1212.259766 -152.549835 508.967407
v 1211.091064 -154.773239 508.967407
v 1217.505737 -158.492538 508.967407
v 1218.362183 -158.939835 508.967407
v 1207.204834 -130.371140 514.967407
v 1199.136597 -145.698044 514.967407
v 1201.028809 -145.076340 514.967407
v 1212.259766 -152.549835 514.967407
v 1201.584595 -144.019745 514.967407
v 1216.752808 -153.289444 514.967407
v 1211.219238 -125.705643 514.967407
v 1210.225342 -125.184341 514.967407
v 1205.064331 -129.252747 514.967407
v 1209.375122 -121.064240 514.967407
v 1211.165039 -125.677139 514.967407
v 1210.308228 -125.027740 514.967407
v 1211.744995 -122.313240 514.967407
v 1210.938477 -155.063339 514.967407
v 1216.974609 -155.070236 514.967407
v 1218.362183 -158.939835 514.967407
v 1217.660034 -153.763245 514.967407
v 1217.011963 -154.999039 514.967407
v 1219.512329 -156.394638 514.967407
v 1219.658691 -156.471039 514.967407
v 1211.219238 -125.705643 517.967407
v 1201.028809 -145.076340 517.967407
v 1207.025024 -143.118744 517.967407
v 1217.660034 -153.763245 517.967407
v 1208.214722 -140.851532 517.967407
v 1220.534180 -150.175140 517.967407
v 1216.603760 -124.865341 517.967407
v 1211.744995 -122.313240 517.967407
v 1210.225342 -125.184341 517.967407
v 1216.974609 -155.070236 517.967407
v 1219.658691 -156.471039 517.967407
v 1222.449951 -151.175842 517.967407
v 1207.025024 -143.118744 525.767395
v 1226.966919 -133.203842 525.767395
v 1216.603760 -124.865341 525.767395
v 1222.449951 -151.175842 525.767395
v 1228.156128 -130.947235 525.767395
v 1230.518066 -135.837845 525.767395
v 1230.831787 -135.234634 525.767395
vt 0.177790 0.408050
vt 0.204430 0.396820
vt 0.206160 0.392570
vt 0.214250 0.418230
vt 0.178680 0.410880
vt 0.211660 0.419660
vt 0.201000 0.403100
vt 0.170540 0.419720
vt 0.209290 0.429390
vt 0.169180 0.415440
vt 0.152180 0.421990
vt 0.152820 0.424050
vt 0.152910 0.424320
vt 0.214290 0.426670
vt 0.221580 0.440130
vt 0.218980 0.441540
vt 0.199260 0.406930
vt 0.160770 0.427930
vt 0.209780 0.440240
vt 0.160140 0.425940
vt 0.154430 0.429070
vt 0.212380 0.438830
vt 0.214070 0.444210
vt 0.193790 0.419060
vt 0.157530 0.438800
vt 0.203550 0.449960
vt 0.169410 0.459490
vt 0.164930 0.461940
vt 0.173070 0.466580
vt 0.171880 0.467230
vt 0.206160 0.392570
vt 0.204430 0.396820
vt 0.177790 0.408050
vt 0.214250 0.418230
vt 0.202750 0.397740
vt 0.211180 0.418170
vt 0.178620 0.410690
vt 0.178680 0.410880
vt 0.214090 0.418320
vt 0.211660 0.419660
vt 0.178680 0.410880
vt 0.204430 0.396820
vt 0.201000 0.403100
vt 0.211660 0.419660
vt 0.197480 0.405020
vt 0.208330 0.426360
vt 0.170540 0.419720
vt 0.169180 0.415440
vt 0.177790 0.408050
vt 0.152180 0.421990
vt 0.170380 0.419230
vt 0.167310 0.416460
vt 0.152820 0.424050
vt 0.152910 0.424320
vt 0.214250 0.418230
vt 0.214290 0.426670
vt 0.221580 0.440130
vt 0.209290 0.429390
vt 0.213710 0.426980
vt 0.218440 0.439820
vt 0.218980 0.441540
vt 0.170540 0.419720
vt 0.201000 0.403100
vt 0.199260 0.406930
vt 0.209290 0.429390
vt 0.197160 0.408080
vt 0.209210 0.438430
vt 0.160770 0.427930
vt 0.160140 0.425940
vt 0.169180 0.415440
vt 0.152910 0.424320
vt 0.160740 0.427820
vt 0.159830 0.426110
vt 0.154430 0.429070
vt 0.214290 0.426670
vt 0.212380 0.438830
vt 0.218980 0.441540
vt 0.209780 0.440240
vt 0.212240 0.438910
vt 0.213980 0.443920
vt 0.214070 0.444210
vt 0.160770 0.427930
vt 0.199260 0.406930
vt 0.193790 0.419060
vt 0.209780 0.440240
vt 0.189290 0.421510
vt 0.202340 0.446120
vt 0.157530 0.438800
vt 0.154430 0.429070
vt 0.160140 0.425940
vt 0.212380 0.438830
vt 0.214070 0.444210
vt 0.203550 0.449960
vt 0.193790 0.419060
vt 0.169410 0.459490
vt 0.157530 0.438800
vt 0.203550 0.449960
vt 0.164930 0.461940
vt 0.173070 0.466580
vt 0.171880 0.467230
vn -0.0000 0.0000 -1.0000
vn 0.0002 0.0000 -1.0000
vn 0.0001 0.0000 -1.0000
vn 0.0000 0.0000 1.0000
vn -0.0004 0.0000 1.0000
vn 0.0015 0.0000 1.0000
vn -0.0001 0.0000 1.0000
vn 0.0002 0.0000 1.0000
vn 0.0059 0.0000 1.0000
vn 0.0001 0.0000 1.0000
vn -0.0006 0.0000 1.0000
s off
f 1/1/1 2/2/1 3/3/1
f 2/2/1 4/4/1 3/3/1
f 1/1/1 5/5/1 2/2/1
f 2/2/1 6/6/1 4/4/1
f 2/2/1 5/5/1 7/7/1
f 6/6/1 2/2/1 7/7/1
f 8/8/1 7/7/1 5/5/1
f 6/6/1 7/7/1 9/9/1
f 1/1/1 10/10/1 5/5/1
f 1/1/1 11/11/1 10/10/1
f 5/5/1 10/10/1 8/8/1
f 11/11/1 12/12/1 10/10/1
f 10/10/2 12/12/2 13/13/2
f 6/6/1 14/14/1 4/4/1
f 14/14/1 15/15/1 4/4/1
f 6/6/1 9/9/1 14/14/1
f 15/15/1 14/14/1 16/16/1
f 7/7/1 8/8/1 17/17/1
f 9/9/1 7/7/1 17/17/1
f 18/18/1 17/17/1 8/8/1
f 17/17/1 19/19/1 9/9/1
f 10/10/1 20/20/1 8/8/1
f 13/13/1 20/20/1 10/10/1
f 20/20/1 18/18/1 8/8/1
f 13/13/1 21/21/1 20/20/1
f 9/9/1 22/22/1 14/14/1
f 22/22/1 16/16/1 14/14/1
f 9/9/1 19/19/1 22/22/1
f 22/22/1 23/23/1 16/16/1
f 17/17/1 18/18/1 24/24/1
f 19/19/1 17/17/1 24/24/1
f 25/25/1 24/24/1 18/18/1
f 24/24/1 26/26/1 19/19/1
f 20/20/3 21/21/3 18/18/3
f 21/21/1 25/25/1 18/18/1
f 22/22/3 19/19/3 23/23/3
f 26/26/1 23/23/1 19/19/1
f 24/24/1 25/25/1 27/27/1
f 24/24/1 27/27/1 26/26/1
f 27/27/1 25/25/1 28/28/1
f 26/26/1 27/27/1 29/29/1
f 27/27/1 30/30/1 29/29/1
f 31/31/4 32/32/4 33/33/4
f 34/34/4 32/32/4 31/31/4
f 32/32/4 35/35/4 33/33/4
f 36/36/4 32/32/4 34/34/4
f 33/33/4 35/35/4 37/37/4
f 35/35/5 38/38/5 37/37/5
f 39/39/6 36/36/6 34/34/6
f 40/40/7 36/36/7 39/39/7
f 41/41/4 42/42/4 43/43/4
f 42/42/4 44/44/4 43/43/4
f 43/43/8 45/45/8 41/41/8
f 44/44/4 46/46/4 43/43/4
f 45/45/4 47/47/4 41/41/4
f 41/41/4 48/48/4 49/49/4
f 48/48/4 50/50/4 49/49/4
f 51/51/4 48/48/4 41/41/4
f 47/47/4 51/51/4 41/41/4
f 52/52/9 53/53/9 48/48/9
f 53/53/7 50/50/7 48/48/7
f 54/54/4 53/53/4 52/52/4
f 44/44/4 55/55/4 56/56/4
f 55/55/4 57/57/4 56/56/4
f 44/44/4 58/58/4 46/46/4
f 44/44/10 56/56/10 59/59/10
f 44/44/4 59/59/4 58/58/4
f 60/60/4 56/56/4 57/57/4
f 61/61/4 60/60/4 57/57/4
f 62/62/4 63/63/4 64/64/4
f 63/63/4 65/65/4 64/64/4
f 64/64/4 66/66/4 62/62/4
f 67/67/4 64/64/4 65/65/4
f 66/66/4 68/68/4 62/62/4
f 62/62/4 69/69/4 70/70/4
f 69/69/4 71/71/4 70/70/4
f 62/62/4 72/72/4 69/69/4
f 62/62/11 68/68/11 72/72/11
f 73/73/4 71/71/4 69/69/4
f 74/74/4 71/71/4 73/73/4
f 65/65/4 75/75/4 76/76/4
f 75/75/4 77/77/4 76/76/4
f 78/78/4 67/67/4 65/65/4
f 65/65/5 76/76/5 79/79/5
f 65/65/4 79/79/4 78/78/4
f 80/80/4 76/76/4 77/77/4
f 81/81/4 80/80/4 77/77/4
f 82/82/4 83/83/4 84/84/4
f 83/83/4 85/85/4 84/84/4
f 82/82/4 84/84/4 86/86/4
f 84/84/4 85/85/4 87/87/4
f 82/82/4 86/86/4 88/88/4
f 89/89/4 90/90/4 82/82/4
f 89/89/4 82/82/4 88/88/4
f 85/85/4 91/91/4 92/92/4
f 85/85/4 92/92/4 93/93/4
f 87/87/4 85/85/4 93/93/4
f 94/94/4 95/95/4 96/96/4
f 97/97/4 95/95/4 94/94/4
f 95/95/4 98/98/4 96/96/4
f 99/99/4 95/95/4 97/97/4
f 99/99/4 100/100/4 95/95/4
