# Blender v3.0.1 OBJ File: 'rockerfeller_plaza.blend'
# www.blender.org
o geometryt000010000010000110010110000110000110100000100110st13
v 706.158630 -324.718323 656.569702
v 705.994629 -325.021820 675.006836
v 706.158630 -324.718323 675.006836
v 710.219910 -317.201202 656.569702
v 705.994629 -325.021820 656.306824
v 710.219910 -317.201202 675.006836
v 711.332397 -315.142120 675.006836
v 711.332397 -315.142120 656.569702
v 712.144714 -313.638702 656.569702
v 712.144714 -313.638702 675.006836
v 713.257202 -311.579498 675.006836
v 713.257202 -311.579498 656.569702
v 719.407349 -300.196411 656.306824
v 714.069519 -310.076111 656.569702
v 714.069519 -310.076111 675.006836
v 715.182007 -308.016998 675.006836
v 715.182007 -308.016998 656.569702
v 719.243347 -300.499908 656.569702
v 719.243347 -300.499908 675.006836
v 719.407349 -300.196411 675.006836
v 712.300903 -328.433319 656.569702
v 712.604431 -328.597504 675.006836
v 712.300903 -328.433319 675.006836
v 710.798035 -327.620300 656.569702
v 712.604431 -328.597504 656.306824
v 710.798035 -327.620300 675.006836
v 707.801025 -325.999023 675.006836
v 707.801025 -325.999023 656.569702
v 706.298035 -325.186005 656.569702
v 705.994629 -325.021820 656.306824
v 706.298035 -325.186005 675.006836
v 705.994629 -325.021820 675.006836
v 725.853149 -304.075500 656.569702
v 726.017151 -303.772003 675.006836
v 725.853149 -304.075500 675.006836
v 721.791870 -311.592621 656.569702
v 726.017151 -303.772003 656.306824
v 721.791870 -311.592621 675.006836
v 720.679321 -313.651703 675.006836
v 720.679321 -313.651703 656.569702
v 719.867065 -315.155121 656.569702
v 719.867065 -315.155121 675.006836
v 718.754517 -317.214294 675.006836
v 718.754517 -317.214294 656.569702
v 717.942261 -318.717712 656.569702
v 712.604431 -328.597504 656.306824
v 717.942261 -318.717712 675.006836
v 716.829712 -320.776917 675.006836
v 716.829712 -320.776917 656.569702
v 712.768433 -328.293915 656.569702
v 712.768433 -328.293915 675.006836
v 712.604431 -328.597504 675.006836
v 719.710938 -300.360199 656.569702
v 719.407349 -300.196411 675.006836
v 719.710938 -300.360199 675.006836
v 721.214844 -301.171722 656.569702
v 719.407349 -300.196411 656.306824
v 721.214844 -301.171722 675.006836
v 723.903748 -302.622620 675.006836
v 723.903748 -302.622620 656.569702
v 725.711243 -303.597900 656.306824
v 725.407532 -303.434113 656.569702
v 725.407532 -303.434113 675.006836
v 725.711243 -303.597900 675.006836
v 726.017151 -303.772003 656.306824
v 725.711243 -303.597900 656.306824
v 725.711243 -303.597900 675.006836
v 726.017151 -303.772003 675.006836
vt 30.197300 0.284780
vt 30.571079 20.260019
vt 30.197300 20.260019
vt 20.940491 0.284780
vt 30.571079 0.000000
vt 20.940491 20.260019
vt 18.404770 20.260019
vt 18.404770 0.284780
vt 16.553410 20.260019
vt 14.017680 20.260019
vt 16.553410 0.284780
vt 14.017680 0.284780
vt 0.000000 0.000000
vt 12.166320 20.260019
vt 9.630591 20.260019
vt 12.166320 0.284780
vt 9.630591 0.284780
vt 0.373780 0.284780
vt 0.373780 20.260019
vt 0.000000 20.260019
vt 7.768140 0.284780
vt 8.141921 20.260019
vt 7.768140 20.260019
vt 5.916780 0.284780
vt 8.141921 0.000000
vt 5.916780 20.260019
vt 2.225140 20.260019
vt 2.225140 0.284780
vt 0.373780 0.284780
vt 0.000000 0.000000
vt 0.373780 20.260019
vt 0.000000 20.260019
vt 30.197309 0.284780
vt 30.571091 20.260019
vt 30.197309 20.260019
vt 20.940500 0.284780
vt 30.571091 0.000000
vt 20.940500 20.260019
vt 18.404770 20.260019
vt 18.404770 0.284780
vt 0.373780 0.284780
vt 0.000000 0.000000
vt 9.630591 0.284780
vt 0.373780 20.260019
vt 0.000000 20.260019
vt 7.386840 0.284780
vt 7.760620 20.260019
vt 7.386840 20.260019
vt 5.535470 0.284780
vt 7.760620 0.000000
vt 5.535470 20.260019
vt 2.225140 20.260019
vt 2.225140 0.284780
vt 0.000000 0.000000
vt 0.373780 20.260019
vt 0.000000 20.260019
vt 0.373780 0.284780
vt 0.000000 0.000000
vt 0.381370 0.000000
vt 0.381370 20.260019
vt 0.000000 20.260019
vt 16.553410 0.284780
vt 16.553410 20.260019
vt 14.017680 20.260019
vt 14.017680 0.284780
vt 12.166320 0.284780
vt 12.166320 20.260019
vt 9.630591 20.260019
vn -0.8799 0.4751 0.0000
vn -0.8799 0.4752 -0.0001
vn -0.8798 0.4753 -0.0000
vn -0.8798 0.4754 0.0000
vn -0.8801 0.4748 0.0001
vn -0.8800 0.4749 -0.0004
vn -0.8799 0.4752 0.0000
vn -0.8797 0.4755 0.0000
vn -0.4758 -0.8795 0.0000
vn -0.4761 -0.8794 -0.0000
vn -0.4757 -0.8796 0.0000
vn -0.4758 -0.8796 0.0000
vn -0.4757 -0.8796 0.0003
vn -0.4761 -0.8794 -0.0003
vn -0.4756 -0.8797 -0.0002
vn 0.8797 -0.4756 0.0000
vn 0.8799 -0.4752 0.0002
vn 0.8801 -0.4748 -0.0000
vn 0.8798 -0.4754 0.0000
vn 0.8801 -0.4749 -0.0008
vn 0.8797 -0.4755 0.0000
vn 0.8799 -0.4751 0.0000
vn 0.4748 0.8801 0.0000
vn 0.4750 0.8800 -0.0000
vn 0.4749 0.8801 0.0000
vn 0.4750 0.8800 -0.0003
vn 0.4748 0.8801 0.0001
vn 0.4747 0.8802 0.0000
vn 0.4746 0.8802 0.0000
vn 0.4943 0.8693 0.0000
vn 0.4946 0.8691 0.0000
vn -0.8799 0.4751 -0.0016
vn -0.8797 0.4756 -0.0000
vn -0.8798 0.4753 0.0003
vn -0.8800 0.4751 0.0011
vn 0.8799 -0.4751 0.0012
vn 0.8798 -0.4754 0.0004
vn 0.8798 -0.4753 0.0000
vn 0.8798 -0.4754 0.0001
vn 0.8799 -0.4751 -0.0007
vn 0.8797 -0.4755 0.0005
vn 0.4747 0.8801 0.0001
s off
f 1/1/1 2/2/1 3/3/1
f 4/4/2 5/5/2 1/1/2
f 2/2/3 1/1/3 5/5/3
f 6/6/3 7/7/3 4/4/3
f 7/7/4 8/8/4 4/4/4
f 8/8/5 5/5/5 4/4/5
f 10/9/3 11/10/3 9/11/3
f 11/10/4 12/12/4 9/11/4
f 9/11/4 13/13/4 5/5/4
f 15/14/3 16/15/3 14/16/3
f 16/15/3 17/17/3 14/16/3
f 17/17/6 13/13/6 14/16/6
f 18/18/7 13/13/7 17/17/7
f 19/19/1 20/20/1 18/18/1
f 20/20/8 13/13/8 18/18/8
f 21/21/9 22/22/9 23/23/9
f 24/24/10 25/25/10 21/21/10
f 22/22/11 21/21/11 25/25/11
f 26/26/9 27/27/9 24/24/9
f 27/27/12 28/28/12 24/24/12
f 28/28/13 25/25/13 24/24/13
f 29/29/14 30/30/14 28/28/14
f 28/28/15 30/30/15 25/25/15
f 31/31/10 32/32/10 29/29/10
f 32/32/9 30/30/9 29/29/9
f 33/33/16 34/34/16 35/35/16
f 36/36/17 37/37/17 33/33/17
f 34/34/18 33/33/18 37/37/18
f 38/38/19 39/39/19 36/36/19
f 39/39/19 40/40/19 36/36/19
f 40/40/20 37/37/20 36/36/20
f 50/41/19 46/42/19 49/43/19
f 51/44/21 52/45/21 50/41/21
f 52/45/22 46/42/22 50/41/22
f 53/46/23 54/47/23 55/48/23
f 56/49/24 57/50/24 53/46/24
f 54/47/24 53/46/24 57/50/24
f 58/51/25 59/52/25 56/49/25
f 59/52/25 60/53/25 56/49/25
f 60/53/26 61/54/26 56/49/26
f 61/54/27 57/50/27 56/49/27
f 63/55/28 64/56/28 62/57/28
f 64/56/29 61/54/29 62/57/29
f 65/58/30 66/59/30 67/60/30
f 65/58/31 67/60/31 68/61/31
s 1
f 8/8/32 9/11/32 5/5/32
f 12/12/33 13/13/34 9/11/33
f 14/16/35 13/13/34 12/12/33
f 40/40/36 41/62/21 37/37/37
f 42/63/38 43/64/38 41/62/21
f 43/64/38 44/65/39 41/62/21
f 41/62/21 44/65/39 37/37/37
f 45/66/40 46/42/39 44/65/39
f 44/65/39 46/42/39 37/37/37
f 47/67/19 48/68/19 45/66/40
f 48/68/19 49/43/41 45/66/40
f 49/43/41 46/42/39 45/66/40
f 62/57/42 61/54/42 60/53/42
