# Blender v3.0.1 OBJ File: 'rockerfeller_plaza.blend'
# www.blender.org
o geometryt000010000010000110010110000110000110100100000000st197
v 459.843323 -199.532272 888.760742
v 464.737610 -202.170471 888.760742
v 464.737610 -202.170471 904.603149
v 459.843323 -199.532272 904.603149
v 460.927917 -196.513885 904.603149
v 460.927917 -196.513885 888.760742
v 459.612732 -198.963074 888.760742
v 459.612732 -198.963074 904.603149
v 463.256927 -192.195084 904.603149
v 463.256927 -192.195084 888.760742
v 461.277039 -195.865173 888.760742
v 461.277039 -195.865173 904.603149
v 465.369019 -188.280075 888.760742
v 463.389130 -191.950073 888.760742
v 463.389130 -191.950073 904.603149
v 465.369019 -188.280075 904.603149
v 467.481018 -184.364975 888.760742
v 465.501129 -188.035080 888.760742
v 465.501129 -188.035080 904.603149
v 467.481018 -184.364975 904.603149
v 469.593140 -180.449875 904.603149
v 469.593140 -180.449875 888.760742
v 467.613220 -184.119980 888.760742
v 467.613220 -184.119980 904.603149
v 471.705231 -176.534775 888.760742
v 469.725342 -180.204880 888.760742
v 469.725342 -180.204880 904.603149
v 471.705231 -176.534775 904.603149
v 473.817230 -172.619675 888.760742
v 471.837341 -176.289780 888.760742
v 471.837341 -176.289780 904.603149
v 473.817230 -172.619675 904.603149
v 465.317230 -202.090973 888.760742
v 467.296326 -198.420471 888.760742
v 467.296326 -198.420471 904.603149
v 465.317230 -202.090973 904.603149
v 467.443848 -198.146973 888.760742
v 469.422913 -194.476471 888.760742
v 469.422913 -194.476471 904.603149
v 467.443848 -198.146973 904.603149
v 469.570312 -194.202881 904.603149
v 469.570312 -194.202881 888.760742
v 471.549438 -190.532379 888.760742
v 471.549438 -190.532379 904.603149
v 471.696930 -190.258881 904.603149
v 471.696930 -190.258881 888.760742
v 472.356628 -189.035385 888.760742
v 472.356628 -189.035385 904.603149
v 472.504028 -188.761871 904.603149
v 472.504028 -188.761871 888.760742
v 473.163727 -187.538376 888.760742
v 473.163727 -187.538376 904.603149
v 473.311218 -187.264877 888.760742
v 475.290344 -183.594284 888.760742
v 475.290344 -183.594284 904.603149
v 473.311218 -187.264877 904.603149
v 475.437836 -183.320786 904.603149
v 475.437836 -183.320786 888.760742
v 477.416809 -179.650284 888.760742
v 477.416809 -179.650284 904.603149
v 477.564331 -179.376785 888.760742
v 479.543427 -175.706284 888.760742
v 479.543427 -175.706284 904.603149
v 477.564331 -179.376785 904.603149
v 479.291321 -175.178375 904.603149
v 479.291321 -175.178375 888.760742
v 474.396912 -172.540283 888.760742
v 474.396912 -172.540283 904.603149
vt 0.000000 0.000000
vt 0.666670 0.000000
vt 0.666670 1.000000
vt 0.000000 1.000000
vt 0.000000 1.000000
vt 0.000000 0.000000
vt 0.333330 0.000000
vt 0.333330 1.000000
vt 0.000000 1.000000
vt 0.000000 0.000000
vt 0.500000 0.000000
vt 0.500000 1.000000
vt 0.000000 0.000000
vt 0.500000 0.000000
vt 0.500000 1.000000
vt 0.000000 1.000000
vt 0.000000 0.000000
vt 0.500000 0.000000
vt 0.500000 1.000000
vt 0.000000 1.000000
vt 0.000000 1.000000
vt 0.000000 0.000000
vt 0.500000 0.000000
vt 0.500000 1.000000
vt 0.000000 0.000000
vt 0.500000 0.000000
vt 0.500000 1.000000
vt 0.000000 1.000000
vt 0.000000 0.000000
vt 0.500000 0.000000
vt 0.500000 1.000000
vt 0.000000 1.000000
vt 0.000000 0.000000
vt 0.500000 0.000000
vt 0.500000 1.000000
vt 0.000000 1.000000
vt 0.000000 0.000000
vt 0.500000 0.000000
vt 0.500000 1.000000
vt 0.000000 1.000000
vt 0.000000 1.000000
vt 0.000000 0.000000
vt 0.500000 0.000000
vt 0.500000 1.000000
vt 0.000000 1.000000
vt 0.000000 0.000000
vt 0.166670 0.000000
vt 0.166670 1.000000
vt 0.000000 1.000000
vt 0.000000 0.000000
vt 0.166670 0.000000
vt 0.166670 1.000000
vt 0.000000 0.000000
vt 0.500000 0.000000
vt 0.500000 1.000000
vt 0.000000 1.000000
vt 0.000000 1.000000
vt 0.000000 0.000000
vt 0.500000 0.000000
vt 0.500000 1.000000
vt 0.000000 0.000000
vt 0.500000 0.000000
vt 0.500000 1.000000
vt 0.000000 1.000000
vt 0.000000 1.000000
vt 0.000000 0.000000
vt 0.666670 0.000000
vt 0.666670 1.000000
vn -0.4745 -0.8803 0.0000
vn -0.8810 0.4731 0.0000
vn -0.8801 0.4748 0.0000
vn 0.8802 -0.4746 0.0000
vn 0.4745 0.8803 0.0000
s off
f 1/1/1 2/2/1 3/3/1
f 4/4/1 1/1/1 3/3/1
f 5/5/2 6/6/2 7/7/2
f 5/5/2 7/7/2 8/8/2
f 9/9/3 10/10/3 11/11/3
f 9/9/3 11/11/3 12/12/3
f 13/13/3 14/14/3 15/15/3
f 16/16/3 13/13/3 15/15/3
f 17/17/3 18/18/3 19/19/3
f 20/20/3 17/17/3 19/19/3
f 21/21/3 22/22/3 23/23/3
f 21/21/3 23/23/3 24/24/3
f 25/25/3 26/26/3 27/27/3
f 28/28/3 25/25/3 27/27/3
f 29/29/3 30/30/3 31/31/3
f 32/32/3 29/29/3 31/31/3
f 33/33/4 34/34/4 35/35/4
f 36/36/4 33/33/4 35/35/4
f 37/37/4 38/38/4 39/39/4
f 40/40/4 37/37/4 39/39/4
f 41/41/4 42/42/4 43/43/4
f 41/41/4 43/43/4 44/44/4
f 45/45/4 46/46/4 47/47/4
f 45/45/4 47/47/4 48/48/4
f 49/49/4 50/50/4 51/51/4
f 49/49/4 51/51/4 52/52/4
f 53/53/4 54/54/4 55/55/4
f 56/56/4 53/53/4 55/55/4
f 57/57/4 58/58/4 59/59/4
f 57/57/4 59/59/4 60/60/4
f 61/61/4 62/62/4 63/63/4
f 64/64/4 61/61/4 63/63/4
f 65/65/5 66/66/5 67/67/5
f 65/65/5 67/67/5 68/68/5
