# Blender v3.0.1 OBJ File: 'rockerfeller_plaza.blend'
# www.blender.org
o geometryt000010000010000110010110000110000110100000100110st138
v 722.498657 -220.612701 658.089233
v 702.871704 -200.446609 658.089233
v 729.989746 -215.063110 658.089233
v 698.872253 -207.876114 658.089233
v 725.990234 -222.492706 658.089233
v 702.871704 -200.446609 682.589233
v 698.872253 -207.876114 682.589233
v 722.498657 -220.612701 682.589233
v 729.989746 -215.063110 682.589233
v 725.990234 -222.492706 682.589233
vt 0.331800 0.436240
vt 0.301350 0.397150
vt 0.319320 0.451470
vt 0.316140 0.388920
vt 0.334110 0.443230
vt 0.301350 0.397150
vt 0.316140 0.388920
vt 0.331800 0.436240
vt 0.319320 0.451470
vt 0.334110 0.443230
vn 0.0000 0.0000 -1.0000
vn 0.0000 0.0000 1.0000
s off
f 1/1/1 2/2/1 3/3/1
f 4/4/1 2/2/1 1/1/1
f 1/1/1 3/3/1 5/5/1
f 6/6/2 7/7/2 8/8/2
f 9/9/2 8/8/2 10/10/2
f 9/9/2 6/6/2 8/8/2
