# Blender v3.0.1 OBJ File: 'rockerfeller_plaza.blend'
# www.blender.org
o geometryt000010000010000110010110000110000100110110010010st93_M
v 86.419960 -70.628296 843.123840
v 85.689995 -71.909409 843.123840
v 85.689995 -71.909409 887.254028
v 86.419960 -70.628296 887.254028
v 85.999947 -72.824905 862.254028
v 89.460594 -74.694199 862.254028
v 93.783844 -77.029427 874.754028
v 85.999947 -72.824905 887.254028
v 93.783844 -77.029427 862.254028
v 94.581253 -77.460144 887.254028
v 115.838234 -88.942223 874.754028
v 115.838234 -88.942223 887.254028
v 92.175499 -60.033039 942.254089
v 92.175499 -60.033039 843.123840
v 87.259354 -69.108368 843.123840
v 87.259354 -69.108368 942.254089
v 88.343506 -72.253944 957.254089
v 88.343506 -72.253944 887.254028
v 89.159317 -72.693848 887.254028
v 90.939156 -73.653572 957.254089
v 90.939156 -73.653572 887.254028
v 89.583527 -67.873024 984.254089
v 89.583527 -67.873024 942.254089
v 88.531433 -69.825928 942.254089
v 88.184875 -70.469193 984.254089
v 88.184875 -70.469193 942.254089
v 88.917458 -71.255905 984.254089
v 88.917458 -71.255905 957.254089
v 91.189964 -72.476196 957.254089
v 91.515533 -72.651016 984.254089
v 91.515533 -72.651016 957.254089
v 91.503105 -64.345856 984.254089
v 91.503105 -64.345856 942.254089
v 90.368935 -66.427879 942.254089
v 90.092407 -66.935493 984.254089
v 90.092407 -66.935493 942.254089
v 94.794456 -65.297203 984.254089
v 94.794456 -65.297203 942.254089
v 92.822540 -64.237373 942.254089
v 92.196907 -63.901119 984.254089
v 92.196907 -63.901119 942.254089
v 92.803314 -74.659698 972.254089
v 92.803314 -74.659698 887.254028
v 99.248596 -78.141373 887.254028
v 112.262733 -85.171516 972.254089
v 112.262733 -85.171516 887.254028
v 111.971939 -83.660599 972.254089
v 92.777557 -73.339577 984.254089
v 92.777557 -73.339577 972.254089
v 113.777840 -84.631645 984.254089
v 113.777840 -84.631645 972.254089
v 113.777840 -84.631645 887.254028
v 115.059235 -85.320648 887.254028
v 117.451736 -86.607132 887.254028
v 117.451736 -86.607132 984.254089
v 96.930534 -61.366310 862.254028
v 96.358879 -61.058861 862.254028
v 96.930534 -61.366310 942.254089
v 93.034790 -59.271118 942.254089
v 93.034790 -59.271118 862.254028
v 98.191040 -59.872459 877.166626
v 98.191040 -59.872459 862.254028
v 97.485916 -61.167408 862.254028
v 97.485916 -61.167408 893.023254
v 97.968193 -60.281700 893.023254
v 101.597633 -60.544941 874.839539
v 101.597633 -60.544941 862.254028
v 99.002426 -59.144501 862.254028
v 99.002426 -59.144501 941.554077
v 100.300026 -59.844719 889.704041
v 99.897354 -59.627430 941.554077
v 100.300026 -59.844719 925.754028
v 101.218796 -60.340508 889.704041
v 106.849068 -52.830090 984.254089
v 106.849068 -52.830090 862.254028
v 106.404953 -53.650101 862.254028
v 102.635948 -60.609329 984.254089
v 102.635948 -60.609329 862.254028
v 120.264633 -59.558571 843.123840
v 108.579880 -53.268299 843.123840
v 108.579880 -53.268299 984.254089
v 120.264633 -59.558571 984.254089
v 116.795937 -88.693268 843.123840
v 117.499733 -87.397629 843.123840
v 117.499733 -87.397629 887.254028
v 116.795937 -88.693268 887.254028
v 118.315033 -85.895493 984.254089
v 118.315033 -85.895493 843.123840
v 127.453835 -69.046127 843.123840
v 127.453835 -69.046127 984.254089
v 127.336433 -67.807793 862.254028
v 126.677834 -67.453598 862.254028
v 127.336433 -67.807793 984.254089
v 119.544838 -63.617550 984.254089
v 119.544838 -63.617550 862.254028
v 119.164536 -62.864300 984.254089
v 119.164536 -62.864300 862.254028
v 119.197136 -62.804359 862.254028
v 120.571533 -60.272640 984.254089
v 120.571533 -60.272640 862.254028
vt 0.000000 0.000000
vt 0.166670 0.000000
vt 0.166670 2.750000
vt 0.000000 2.750000
vt 0.000000 0.000000
vt 0.444590 0.000000
vt 1.000000 0.750000
vt 0.000000 1.500000
vt 1.000000 0.000000
vt 1.102440 1.500000
vt 3.833330 0.750000
vt 3.833330 1.500000
vt 0.000000 6.750000
vt 0.000000 0.000000
vt 1.166670 0.000000
vt 1.166670 6.750000
vt 0.000000 5.250000
vt 0.000000 0.000000
vt 0.104770 0.000000
vt 0.333330 5.250000
vt 0.333330 0.000000
vt 0.000000 3.500000
vt 0.000000 0.000000
vt 0.250740 0.000000
vt 0.333330 3.500000
vt 0.333330 0.000000
vt 0.000000 2.250000
vt 0.000000 0.000000
vt 0.291560 0.000000
vt 0.333330 2.250000
vt 0.333330 0.000000
vt 0.000000 3.500000
vt 0.000000 0.000000
vt 0.267990 0.000000
vt 0.333330 3.500000
vt 0.333330 0.000000
vt 0.000000 3.500000
vt 0.000000 0.000000
vt 0.253050 0.000000
vt 0.333330 3.500000
vt 0.333330 0.000000
vt 0.000000 6.500000
vt 0.000000 0.000000
vt 0.828040 0.000000
vt 2.500000 6.500000
vt 2.500000 0.000000
vt 2.463390 7.010310
vt 0.000000 8.000000
vt 0.000000 7.010310
vt 2.695160 8.000000
vt 2.695160 7.010310
vt 2.695160 0.000000
vt 2.859610 0.000000
vt 3.166670 0.000000
vt 3.166670 8.000000
vt 0.000000 0.000000
vt 0.073370 0.000000
vt 0.000000 5.500000
vt 0.500000 5.500000
vt 0.500000 0.000000
vt 0.000000 1.211650
vt 0.000000 0.000000
vt 0.166670 0.000000
vt 0.166670 2.500000
vt 0.052670 2.500000
vt 0.000000 1.031600
vt 0.000000 0.000000
vt 0.333330 0.000000
vt 0.333330 6.500000
vt 0.166670 2.250000
vt 0.218390 6.500000
vt 0.166670 5.204920
vt 0.048660 2.250000
vt 0.000000 10.000000
vt 0.000000 0.000000
vt 0.105410 0.000000
vt 1.000000 10.000000
vt 1.000000 0.000000
vt 0.000000 0.000000
vt 1.500000 0.000000
vt 1.500000 11.750000
vt 0.000000 11.750000
vt 0.000000 0.000000
vt 0.166670 0.000000
vt 0.166670 2.750000
vt 0.000000 2.750000
vt 0.000000 11.750000
vt 0.000000 0.000000
vt 2.166670 0.000000
vt 2.166670 11.750000
vt 0.000000 0.000000
vt 0.084530 0.000000
vt 0.000000 10.000000
vt 1.000000 10.000000
vt 1.000000 0.000000
vt 0.333330 10.000000
vt 0.007710 0.000000
vt 0.333330 0.000000
vt 0.000000 10.000000
vt 0.000000 0.000000
vn -0.8689 0.4951 0.0000
vn -0.4753 -0.8798 -0.0000
vn -0.8793 0.4763 0.0000
vn -0.4746 -0.8802 0.0000
vn -0.8804 0.4743 0.0000
vn -0.4731 -0.8810 0.0000
vn -0.8782 0.4784 0.0000
vn 0.4734 0.8808 0.0000
vn -0.4736 -0.8807 0.0000
vn -0.4736 -0.8808 0.0000
vn 0.4737 0.8807 0.0000
vn -0.8782 0.4782 0.0000
vn 0.4749 0.8800 0.0000
vn -0.8793 0.4762 0.0000
vn 0.4740 0.8805 0.0000
vn 0.8787 -0.4773 0.0000
vn 0.8790 -0.4768 0.0000
vn 0.4736 0.8807 0.0000
vn 0.8788 -0.4771 0.0000
vn 0.8789 -0.4770 0.0000
s off
f 1/1/1 2/2/1 3/3/1
f 4/4/1 1/1/1 3/3/1
f 5/5/2 6/6/2 7/7/2
f 8/8/2 5/5/2 7/7/2
f 7/7/2 6/6/2 9/9/2
f 10/10/2 7/7/2 11/11/2
f 8/8/2 7/7/2 10/10/2
f 12/12/2 10/10/2 11/11/2
f 13/13/3 14/14/3 15/15/3
f 13/13/3 15/15/3 16/16/3
f 17/17/4 18/18/4 19/19/4
f 20/20/4 19/19/4 21/21/4
f 20/20/4 17/17/4 19/19/4
f 22/22/5 23/23/5 24/24/5
f 25/25/5 24/24/5 26/26/5
f 25/25/5 22/22/5 24/24/5
f 27/27/6 28/28/6 29/29/6
f 30/30/6 29/29/6 31/31/6
f 30/30/6 27/27/6 29/29/6
f 32/32/7 33/33/7 34/34/7
f 35/35/7 34/34/7 36/36/7
f 35/35/7 32/32/7 34/34/7
f 37/37/8 38/38/8 39/39/8
f 40/40/8 39/39/8 41/41/8
f 40/40/8 37/37/8 39/39/8
f 42/42/2 43/43/2 44/44/2
f 45/45/2 44/44/2 46/46/2
f 45/45/2 42/42/2 44/44/2
f 47/47/9 48/48/9 49/49/9
f 50/50/9 47/47/9 51/51/9
f 47/47/9 50/50/9 48/48/9
f 52/52/10 53/53/10 51/51/10
f 53/53/9 54/54/9 51/51/9
f 55/55/9 50/50/9 51/51/9
f 56/56/11 57/57/11 58/58/11
f 59/59/11 57/57/11 60/60/11
f 58/58/11 57/57/11 59/59/11
f 61/61/12 62/62/12 63/63/12
f 64/64/12 61/61/12 63/63/12
f 65/65/12 61/61/12 64/64/12
f 66/66/13 67/67/13 68/68/13
f 69/69/13 70/70/13 68/68/13
f 70/70/13 66/66/13 68/68/13
f 71/71/13 72/72/13 69/69/13
f 69/69/13 72/72/13 70/70/13
f 73/73/13 66/66/13 70/70/13
f 74/74/14 75/75/14 76/76/14
f 77/77/14 76/76/14 78/78/14
f 77/77/14 74/74/14 76/76/14
f 79/79/15 80/80/15 81/81/15
f 82/82/15 79/79/15 81/81/15
f 83/83/16 84/84/16 85/85/16
f 86/86/16 83/83/16 85/85/16
f 87/87/17 88/88/17 89/89/17
f 87/87/17 89/89/17 90/90/17
f 91/91/18 92/92/18 93/93/18
f 94/94/18 92/92/18 95/95/18
f 93/93/18 92/92/18 94/94/18
f 99/96/19 98/97/19 100/98/19
f 99/96/19 96/99/19 98/97/19
s 1
f 54/54/9 55/55/9 51/51/9
f 96/99/20 97/100/20 98/97/20
