# Blender v3.0.1 OBJ File: 'rockerfeller_plaza.blend'
# www.blender.org
o geometryt000010000010000110010110000110000110100000110010st9
v 1067.897583 -35.234341 466.075470
v 1067.731445 -35.536659 482.316742
v 1067.897583 -35.234341 482.316742
v 1068.727661 -33.724461 466.075470
v 1067.731445 -35.536659 465.316742
v 1068.727661 -33.724461 482.316742
v 1069.229980 -32.810848 482.316742
v 1069.229980 -32.810848 466.075470
v 1070.059937 -31.300980 466.075470
v 1071.558472 -28.575169 465.316742
v 1070.059937 -31.300980 482.316742
v 1070.562256 -30.387369 482.316742
v 1070.562256 -30.387369 466.075470
v 1071.392334 -28.877499 466.075470
v 1071.392334 -28.877499 482.316742
v 1071.558472 -28.575169 482.316742
v 1091.745972 -48.730679 466.075470
v 1092.048340 -48.896809 482.316742
v 1091.745972 -48.730679 482.316742
v 1090.235840 -47.901009 466.075470
v 1092.048340 -48.896809 465.316742
v 1090.235840 -47.901009 482.316742
v 1089.052368 -47.250759 482.316742
v 1089.052368 -47.250759 466.075470
v 1084.522095 -44.761749 466.075470
v 1084.522095 -44.761749 482.316742
v 1083.338501 -44.111488 482.316742
v 1083.338501 -44.111488 466.075470
v 1081.828491 -43.281830 466.075470
v 1081.828491 -43.281830 482.316742
v 1080.644897 -42.631569 482.316742
v 1080.644897 -42.631569 466.075470
v 1079.134766 -41.801899 466.075470
v 1067.731445 -35.536659 465.316742
v 1079.134766 -41.801899 482.316742
v 1077.951294 -41.151649 482.316742
v 1077.951294 -41.151649 466.075470
v 1076.441162 -40.321980 466.075470
v 1076.441162 -40.321980 482.316742
v 1075.257690 -39.671719 482.316742
v 1075.257690 -39.671719 466.075470
v 1070.727417 -37.182720 466.075470
v 1070.727417 -37.182720 482.316742
v 1069.543823 -36.532459 482.316742
v 1069.543823 -36.532459 466.075470
v 1068.033691 -35.702789 466.075470
v 1068.033691 -35.702789 482.316742
v 1067.731445 -35.536659 482.316742
v 1071.860718 -28.741638 466.075470
v 1071.558472 -28.575169 482.316742
v 1071.860718 -28.741638 482.316742
v 1073.369873 -29.573019 466.075470
v 1071.558472 -28.575169 465.316742
v 1073.369873 -29.573019 482.316742
v 1074.876221 -30.402889 482.316742
v 1074.876221 -30.402889 466.075470
v 1079.403687 -32.897038 466.075470
v 1079.403687 -32.897038 482.316742
v 1080.910034 -33.726910 482.316742
v 1080.910034 -33.726910 466.075470
v 1083.928345 -35.389679 466.075470
v 1083.928345 -35.389679 482.316742
v 1085.434814 -36.219540 482.316742
v 1085.434814 -36.219540 466.075470
v 1097.804565 -43.034050 465.316742
v 1088.453003 -37.882309 466.075470
v 1088.453003 -37.882309 482.316742
v 1089.959473 -38.712177 482.316742
v 1089.959473 -38.712177 466.075470
v 1094.486938 -41.206329 466.075470
v 1094.486938 -41.206329 482.316742
v 1095.993286 -42.036198 482.316742
v 1095.993286 -42.036198 466.075470
v 1097.502441 -42.867580 466.075470
v 1097.502441 -42.867580 482.316742
v 1097.804565 -43.034050 482.316742
v 1093.669556 -49.824341 466.075470
v 1093.969116 -49.995659 482.316742
v 1093.669556 -49.824341 482.316742
v 1092.347778 -49.068130 466.075470
v 1093.969116 -49.995659 465.316742
v 1092.347778 -49.068130 482.316742
v 1092.048340 -48.896809 482.316742
v 1092.048340 -48.896809 465.316742
v 1097.638062 -43.336220 466.075470
v 1097.804565 -43.034050 482.316742
v 1097.638062 -43.336220 482.316742
v 1096.806641 -44.845329 466.075470
v 1097.804565 -43.034050 465.316742
v 1096.806641 -44.845329 482.316742
v 1096.302612 -45.760300 482.316742
v 1096.302612 -45.760300 466.075470
v 1095.471069 -47.269409 466.075470
v 1095.471069 -47.269409 482.316742
v 1094.967041 -48.184380 482.316742
v 1094.967041 -48.184380 466.075470
v 1093.969116 -49.995659 465.316742
v 1094.135498 -49.693489 466.075470
v 1094.135498 -49.693489 482.316742
v 1093.969116 -49.995659 482.316742
vt 8.443490 0.843020
vt 8.826821 18.888889
vt 8.443490 18.888889
vt 6.529040 0.843020
vt 8.826821 0.000000
vt 6.529040 18.888889
vt 5.370630 18.888889
vt 5.370630 0.843020
vt 3.456190 0.843020
vt 0.000000 0.000000
vt 3.456190 18.888889
vt 2.297780 18.888889
vt 2.297780 0.843020
vt 0.383330 0.843020
vt 0.383330 18.888889
vt 0.000000 18.888889
vt 30.444901 0.843020
vt 30.828230 18.888889
vt 30.444901 18.888889
vt 28.530460 0.843020
vt 30.828230 0.000000
vt 28.530460 18.888889
vt 27.030010 18.888889
vt 27.030010 0.843020
vt 21.286680 0.843020
vt 21.286680 18.888889
vt 19.786230 18.888889
vt 19.786230 0.843020
vt 17.871790 0.843020
vt 17.871790 18.888889
vt 16.371340 18.888889
vt 16.371340 0.843020
vt 14.456890 0.843020
vt 0.000000 0.000000
vt 14.456890 18.888889
vt 12.956450 18.888889
vt 12.956450 0.843020
vt 11.042000 0.843020
vt 11.042000 18.888889
vt 9.541550 18.888889
vt 9.541550 0.843020
vt 3.798230 0.843020
vt 3.798230 18.888889
vt 2.297780 18.888889
vt 2.297780 0.843020
vt 0.383330 0.843020
vt 0.383330 18.888889
vt 0.000000 18.888889
vt 32.911411 0.843020
vt 33.294739 18.888889
vt 32.911411 18.888889
vt 30.996969 0.843020
vt 33.294739 0.000000
vt 30.996969 18.888889
vt 29.086010 18.888889
vt 29.086010 0.843020
vt 23.342680 0.843020
vt 23.342680 18.888889
vt 21.431730 18.888889
vt 21.431730 0.843020
vt 17.602850 0.843020
vt 17.602850 18.888889
vt 15.691900 18.888889
vt 15.691900 0.843020
vt 0.000000 0.000000
vt 11.863010 0.843020
vt 11.863010 18.888889
vt 9.952060 18.888889
vt 9.952060 0.843020
vt 4.208730 0.843020
vt 4.208730 18.888889
vt 2.297780 18.888889
vt 2.297780 0.843020
vt 0.383330 0.843020
vt 0.383330 18.888889
vt 0.000000 18.888889
vt 2.075380 0.843020
vt 2.458710 18.888889
vt 2.075380 18.888889
vt 0.383330 0.843020
vt 2.458710 0.000000
vt 0.383330 18.888889
vt 0.000000 18.888889
vt 0.000000 0.000000
vt 8.448110 0.843020
vt 8.831440 18.888889
vt 8.448110 18.888889
vt 6.533660 0.843020
vt 8.831440 0.000000
vt 6.533660 18.888889
vt 5.372940 18.888889
vt 5.372940 0.843020
vt 3.458500 0.843020
vt 3.458500 18.888889
vt 2.297780 18.888889
vt 2.297780 0.843020
vt 0.000000 0.000000
vt 0.383330 0.843020
vt 0.383330 18.888889
vt 0.000000 18.888889
vn -0.8760 0.4823 0.0000
vn -0.8763 0.4818 -0.0001
vn -0.8765 0.4814 0.0000
vn -0.8763 0.4817 0.0000
vn -0.8762 0.4819 0.0000
vn -0.8762 0.4819 -0.0002
vn -0.8763 0.4817 -0.0002
vn -0.8763 0.4818 0.0000
vn -0.8763 0.4817 0.0002
vn -0.8763 0.4817 0.0001
vn -0.4816 -0.8764 0.0000
vn -0.4815 -0.8765 0.0000
vn -0.4815 -0.8764 0.0000
vn -0.4816 -0.8764 -0.0001
vn -0.4813 -0.8765 0.0003
vn -0.4815 -0.8764 -0.0003
vn -0.4814 -0.8765 0.0000
vn -0.4814 -0.8765 0.0007
vn -0.4814 -0.8765 -0.0003
vn -0.4817 -0.8763 0.0003
vn -0.4815 -0.8764 -0.0002
vn -0.4814 -0.8765 0.0003
vn -0.4815 -0.8765 -0.0001
vn 0.4826 0.8758 0.0000
vn 0.4825 0.8759 -0.0000
vn 0.4824 0.8760 0.0000
vn 0.4825 0.8759 -0.0001
vn 0.4826 0.8759 -0.0000
vn 0.4824 0.8760 -0.0002
vn 0.4824 0.8760 -0.0006
vn 0.4826 0.8759 0.0003
vn 0.4826 0.8758 -0.0003
vn 0.4823 0.8760 0.0000
vn 0.4829 0.8757 0.0000
vn -0.4963 -0.8682 0.0000
vn -0.4966 -0.8680 -0.0001
vn -0.4965 -0.8680 0.0000
vn -0.4966 -0.8680 0.0000
vn -0.4967 -0.8679 0.0000
vn 0.8759 -0.4825 0.0000
vn 0.8759 -0.4826 0.0000
vn 0.8760 -0.4824 0.0000
vn 0.8758 -0.4826 0.0002
vn 0.8759 -0.4825 -0.0003
vn 0.8758 -0.4826 -0.0002
vn 0.8759 -0.4826 0.0001
vn 0.8758 -0.4826 0.0001
vn 0.8760 -0.4823 0.0000
s off
f 1/1/1 2/2/1 3/3/1
f 4/4/2 5/5/2 1/1/2
f 2/2/3 1/1/3 5/5/3
f 6/6/4 7/7/4 4/4/4
f 7/7/5 8/8/5 4/4/5
f 8/8/6 5/5/6 4/4/6
f 9/9/7 10/10/7 8/8/7
f 8/8/8 10/10/8 5/5/8
f 11/11/4 12/12/4 9/9/4
f 12/12/5 13/13/5 9/9/5
f 13/13/9 10/10/9 9/9/9
f 14/14/10 10/10/10 13/13/10
f 15/15/4 16/16/4 14/14/4
f 16/16/4 10/10/4 14/14/4
f 17/17/11 18/18/11 19/19/11
f 20/20/12 21/21/12 17/17/12
f 18/18/12 17/17/12 21/21/12
f 22/22/13 23/23/13 20/20/13
f 23/23/11 24/24/11 20/20/11
f 24/24/14 21/21/14 20/20/14
f 24/24/13 25/25/13 21/21/13
f 26/26/13 27/27/13 25/25/13
f 27/27/13 28/28/13 25/25/13
f 25/25/15 28/28/15 21/21/15
f 28/28/16 29/29/16 21/21/16
f 30/30/13 31/31/13 29/29/13
f 31/31/17 32/32/17 29/29/17
f 29/29/18 32/32/18 21/21/18
f 33/33/19 34/34/19 32/32/19
f 32/32/13 34/34/13 21/21/13
f 35/35/13 36/36/13 33/33/13
f 36/36/11 37/37/11 33/33/11
f 37/37/20 34/34/20 33/33/20
f 38/38/21 34/34/21 37/37/21
f 39/39/13 40/40/13 38/38/13
f 40/40/11 41/41/11 38/38/11
f 41/41/22 34/34/22 38/38/22
f 42/42/13 34/34/13 41/41/13
f 43/43/13 44/44/13 42/42/13
f 44/44/13 45/45/13 42/42/13
f 45/45/14 34/34/14 42/42/14
f 46/46/23 34/34/23 45/45/23
f 47/47/11 48/48/11 46/46/11
f 48/48/13 34/34/13 46/46/13
f 49/49/24 50/50/24 51/51/24
f 52/52/25 53/53/25 49/49/25
f 50/50/26 49/49/26 53/53/26
f 54/54/25 55/55/25 52/52/25
f 55/55/25 56/56/25 52/52/25
f 56/56/27 53/53/27 52/52/27
f 56/56/28 57/57/28 53/53/28
f 58/58/25 59/59/25 57/57/25
f 59/59/25 60/60/25 57/57/25
f 57/57/29 60/60/29 53/53/29
f 60/60/28 61/61/28 53/53/28
f 62/62/25 63/63/25 61/61/25
f 63/63/25 64/64/25 61/61/25
f 64/64/30 65/65/30 61/61/30
f 61/61/25 65/65/25 53/53/25
f 66/66/31 65/65/31 64/64/31
f 67/67/25 68/68/25 66/66/25
f 68/68/25 69/69/25 66/66/25
f 69/69/32 65/65/32 66/66/32
f 70/70/27 65/65/27 69/69/27
f 71/71/25 72/72/25 70/70/25
f 72/72/25 73/73/25 70/70/25
f 73/73/25 65/65/25 70/70/25
f 74/74/25 65/65/25 73/73/25
f 75/75/33 76/76/33 74/74/33
f 76/76/34 65/65/34 74/74/34
f 77/77/35 78/78/35 79/79/35
f 80/80/36 81/81/36 77/77/36
f 78/78/37 77/77/37 81/81/37
f 82/82/38 83/83/38 80/80/38
f 83/83/39 84/84/39 80/80/39
f 84/84/37 81/81/37 80/80/37
f 85/85/40 86/86/40 87/87/40
f 88/88/40 89/89/40 85/85/40
f 86/86/41 85/85/41 89/89/41
f 90/90/42 91/91/42 88/88/42
f 91/91/41 92/92/41 88/88/41
f 92/92/43 89/89/43 88/88/43
f 92/92/44 93/93/44 89/89/44
f 94/94/41 95/95/41 93/93/41
f 95/95/42 96/96/42 93/93/42
f 96/96/45 97/97/45 93/93/45
f 93/93/46 97/97/46 89/89/46
f 98/98/47 97/97/47 96/96/47
f 99/99/40 100/100/40 98/98/40
f 100/100/48 97/97/48 98/98/48
