# Blender v3.0.1 OBJ File: 'rockerfeller_plaza.blend'
# www.blender.org
o geometryt000010000010000110010110000110000110100000000110st37
v 747.468811 -242.405289 106.192841
v 750.221191 -243.883087 106.192841
v 748.362183 -247.346481 106.192841
v 740.248108 -262.417999 106.192841
v 741.599121 -247.236588 106.192841
v 739.776978 -263.278412 106.192841
v 734.493225 -260.442291 106.192841
v 744.888611 -241.202988 106.192841
v 747.468811 -242.405289 126.392845
v 744.888611 -241.202988 126.392845
v 741.599121 -247.236588 126.392845
v 748.362183 -247.346481 126.392845
v 750.221191 -243.883087 126.392845
v 734.493225 -260.442291 126.392845
v 740.248108 -262.417999 126.392845
v 739.776978 -263.278412 126.392845
vt 0.361510 0.498990
vt 0.363320 0.504500
vt 0.370210 0.500670
vt 0.400220 0.483960
vt 0.372160 0.487040
vt 0.401940 0.482990
vt 0.398460 0.472410
vt 0.360140 0.493820
vt 0.361510 0.498990
vt 0.360140 0.493820
vt 0.372160 0.487040
vt 0.370210 0.500670
vt 0.363320 0.504500
vt 0.398460 0.472410
vt 0.400220 0.483960
vt 0.401940 0.482990
vn -0.0000 0.0000 -1.0000
vn 0.0000 0.0000 1.0000
s off
f 1/1/1 2/2/1 3/3/1
f 4/4/1 5/5/1 3/3/1
f 5/5/1 1/1/1 3/3/1
f 6/6/1 7/7/1 4/4/1
f 4/4/1 7/7/1 5/5/1
f 5/5/1 8/8/1 1/1/1
f 9/9/2 10/10/2 11/11/2
f 12/12/2 9/9/2 11/11/2
f 13/13/2 9/9/2 12/12/2
f 14/14/2 15/15/2 11/11/2
f 15/15/2 12/12/2 11/11/2
f 14/14/2 16/16/2 15/15/2
