# Blender v3.0.1 OBJ File: 'rockerfeller_plaza.blend'
# www.blender.org
o geometryt000010000010000110010110000110000100110010110110st74_B
v 61.204453 -247.730026 585.189331
v 61.204453 -247.730026 566.552612
v 109.788879 -273.035736 566.552612
v 109.788879 -273.035736 585.189331
v 85.413071 -199.574524 566.552612
v 60.726112 -246.716324 566.552612
v 60.726112 -246.716324 585.189331
v 85.413071 -199.574524 585.189331
v 81.016502 -229.652817 585.189331
v 82.555016 -234.089020 585.189331
v 82.555016 -234.089020 733.189331
v 81.016502 -229.652817 733.189331
v 85.991341 -227.814529 585.189331
v 85.932922 -227.826324 585.189331
v 85.991341 -227.814529 733.189331
v 81.388924 -228.744431 733.189331
v 81.388924 -228.744431 585.189331
v 82.031532 -249.117020 733.189331
v 82.031532 -249.117020 720.189331
v 87.569839 -252.036118 720.189331
v 87.569839 -252.036118 733.189331
v 85.056923 -241.299026 733.189331
v 85.056923 -241.299026 720.189331
v 81.387497 -248.211121 720.189331
v 81.387497 -248.211121 733.189331
v 112.909683 -213.164917 585.189331
v 112.909683 -213.164917 566.552612
v 86.548424 -199.402328 566.552612
v 86.548424 -199.402328 585.189331
v 96.185616 -220.158417 733.189331
v 96.185616 -220.158417 720.189331
v 93.248253 -225.687119 720.189331
v 93.248253 -225.687119 733.189331
v 100.190117 -221.014130 733.189331
v 100.190117 -221.014130 720.189331
v 97.422211 -219.552124 720.189331
v 97.422211 -219.552124 733.189331
v 106.609581 -211.028122 697.189331
v 106.609581 -211.028122 585.189331
v 106.102753 -211.948730 585.189331
v 101.325676 -220.625717 697.189331
v 101.325676 -220.625717 585.189331
v 104.039894 -223.036224 733.189331
v 104.039894 -223.036224 720.189331
v 101.267891 -221.582031 720.189331
v 101.267891 -221.582031 733.189331
v 144.661087 -230.728729 585.189331
v 139.389587 -227.861618 585.189331
v 144.661087 -230.728729 697.189331
v 107.537781 -210.538223 697.189331
v 107.537781 -210.538223 585.189331
v 111.018387 -272.568237 585.189331
v 111.018387 -272.568237 566.552612
v 113.799782 -266.959442 566.552612
v 113.799782 -266.959442 585.189331
v 116.203186 -208.872025 566.552612
v 114.024780 -213.031525 566.552612
v 114.024780 -213.031525 585.189331
v 116.203186 -208.872025 585.189331
v 144.456985 -222.877426 585.189331
v 147.664780 -224.548721 566.552612
v 117.127884 -208.638519 566.552612
v 147.664780 -224.548721 585.189331
v 117.127884 -208.638519 585.189331
v 125.037384 -247.423019 566.552612
v 133.361481 -251.770126 566.552612
v 133.361481 -251.770126 697.189331
v 125.037384 -247.423019 697.189331
v 134.522079 -251.270416 697.189331
v 134.522079 -251.270416 566.552612
v 144.711990 -231.872116 566.552612
v 144.711990 -231.872116 697.189331
v 145.656677 -230.046524 585.189331
v 145.656677 -230.046524 566.552612
v 147.791183 -225.864319 566.552612
v 147.791183 -225.864319 585.189331
vt 0.000000 1.250000
vt 0.000000 0.000000
vt 5.833330 0.000000
vt 5.833330 1.250000
vt 0.000000 0.000000
vt 5.666670 0.000000
vt 5.666670 1.250000
vt 0.000000 1.250000
vt 0.000000 0.000000
vt 0.500000 0.000000
vt 0.500000 11.500000
vt 0.000000 11.500000
vt 0.500000 11.500000
vt 0.006350 0.000000
vt 0.500000 0.000000
vt 0.000000 1.000000
vt 0.000000 0.000000
vt 0.666670 0.000000
vt 0.666670 1.000000
vt 0.000000 1.000000
vt 0.000000 0.000000
vt 0.833330 0.000000
vt 0.833330 1.000000
vt 0.000000 1.250000
vt 0.000000 0.000000
vt 3.166670 0.000000
vt 3.166670 1.250000
vt 0.000000 1.000000
vt 0.000000 0.000000
vt 0.666670 0.000000
vt 0.666670 1.000000
vt 0.000000 1.000000
vt 0.000000 0.000000
vt 0.333330 0.000000
vt 0.333330 1.000000
vt 0.000000 9.250000
vt 0.000000 0.000000
vt 0.111910 0.000000
vt 1.166670 9.250000
vt 0.000000 1.000000
vt 0.000000 0.000000
vt 0.333330 0.000000
vt 0.333330 1.000000
vt 0.000000 0.000000
vt 0.639010 0.000000
vt 0.000000 9.250000
vt 4.500000 9.250000
vt 4.500000 0.000000
vt 0.000000 0.000000
vt 0.500000 0.000000
vt 0.500000 1.250000
vt 0.000000 1.250000
vt 0.385170 1.250000
vt 0.000000 0.000000
vt 3.666670 0.000000
vt 0.000000 1.250000
vt 3.666670 1.250000
vt 0.000000 0.000000
vt 1.000000 0.000000
vt 1.000000 10.750000
vt 0.000000 10.750000
vt 0.000000 10.750000
vt 0.000000 0.000000
vt 2.333330 0.000000
vt 2.333330 10.750000
vt 0.000000 1.250000
vt 0.000000 0.000000
vt 0.500000 0.000000
vt 0.500000 1.250000
vt 0.000000 0.000000
vt 0.000000 11.500000
vt 1.166670 0.000000
vt 0.000000 1.250000
vt 0.000000 0.000000
vt 0.666670 0.000000
vt 0.666670 1.250000
vn -0.4620 -0.8869 0.0000
vn -0.8859 0.4639 0.0000
vn -0.9448 -0.3277 0.0000
vn -0.1980 0.9802 0.0000
vn -0.4663 -0.8846 0.0000
vn -0.8833 0.4689 0.0000
vn 0.4628 0.8865 0.0000
vn -0.8831 0.4692 0.0000
vn 0.4670 0.8842 0.0000
vn -0.8760 0.4823 0.0000
vn 0.4646 0.8855 0.0000
vn 0.4778 0.8785 0.0000
vn 0.4621 0.8868 -0.0000
vn -0.4629 -0.8864 0.0000
vn 0.8853 -0.4650 0.0000
vn 0.8907 -0.4546 0.0000
vn -0.1984 0.9801 0.0000
vn -0.1983 0.9801 0.0000
vn 0.8959 -0.4443 0.0000
s off
f 1/1/1 2/2/1 3/3/1
f 1/1/1 3/3/1 4/4/1
f 5/5/2 6/6/2 7/7/2
f 8/8/2 5/5/2 7/7/2
f 9/9/3 10/10/3 11/11/3
f 12/12/3 9/9/3 11/11/3
f 16/13/4 14/14/4 17/15/4
f 18/16/5 19/17/5 20/18/5
f 18/16/5 20/18/5 21/19/5
f 22/20/6 23/21/6 24/22/6
f 22/20/6 24/22/6 25/23/6
f 26/24/7 27/25/7 28/26/7
f 26/24/7 28/26/7 29/27/7
f 30/28/8 31/29/8 32/30/8
f 30/28/8 32/30/8 33/31/8
f 34/32/9 35/33/9 36/34/9
f 34/32/9 36/34/9 37/35/9
f 38/36/10 39/37/10 40/38/10
f 41/39/10 38/36/10 40/38/10
f 43/40/11 44/41/11 45/42/11
f 43/40/11 45/42/11 46/43/11
f 47/44/12 48/45/12 49/46/12
f 50/47/12 48/45/12 51/48/12
f 49/46/12 48/45/12 50/47/12
f 56/49/2 57/50/2 58/51/2
f 59/52/2 56/49/2 58/51/2
f 60/53/13 61/54/13 62/55/13
f 63/56/13 61/54/13 60/53/13
f 60/53/13 62/55/13 64/57/13
f 65/58/14 66/59/14 67/60/14
f 68/61/14 65/58/14 67/60/14
f 69/62/15 70/63/15 71/64/15
f 69/62/15 71/64/15 72/65/15
f 73/66/16 74/67/16 75/68/16
f 73/66/16 75/68/16 76/69/16
s 1
f 13/70/17 14/14/18 15/71/4
f 15/71/4 14/14/18 16/13/4
f 41/39/10 40/38/10 42/72/10
f 52/73/19 53/74/19 54/75/19
f 52/73/19 54/75/19 55/76/19
