# Blender v3.0.1 OBJ File: 'rockerfeller_plaza.blend'
# www.blender.org
o geometryt000010000010000110010110000110000110100000100110st5
v 586.094116 -297.296509 656.074768
v 582.661926 -295.449005 656.074768
v 588.240173 -285.103394 656.074768
v 615.001648 -299.546906 656.074768
v 607.943848 -312.607605 656.074768
v 584.623108 -300.022522 656.074768
v 586.094116 -297.296509 705.274780
v 584.623108 -300.022522 705.274780
v 607.943848 -312.607605 705.274780
v 615.001648 -299.546906 705.274780
v 588.240173 -285.103394 705.274780
v 582.661926 -295.449005 705.274780
vt 0.514700 0.159520
vt 0.512430 0.152640
vt 0.491830 0.164130
vt 0.509610 0.217730
vt 0.535620 0.203190
vt 0.520130 0.156490
vt 0.514700 0.159520
vt 0.520130 0.156490
vt 0.535620 0.203190
vt 0.509610 0.217730
vt 0.491830 0.164130
vt 0.512430 0.152640
vn 0.0000 0.0000 -1.0000
vn 0.0000 0.0000 1.0000
s off
f 1/1/1 2/2/1 3/3/1
f 4/4/1 1/1/1 3/3/1
f 5/5/1 1/1/1 4/4/1
f 6/6/1 1/1/1 5/5/1
f 7/7/2 8/8/2 9/9/2
f 7/7/2 9/9/2 10/10/2
f 11/11/2 7/7/2 10/10/2
f 11/11/2 12/12/2 7/7/2
