# Blender v3.0.1 OBJ File: 'rockerfeller_plaza.blend'
# www.blender.org
o geometryt000010000010000110010110000110000110100000110100st47
v 952.111267 -145.579605 700.576904
v 954.806946 -147.042313 700.576904
v 954.806946 -147.042313 711.922058
v 952.111267 -145.579605 711.922058
v 955.865234 -147.616501 711.922058
v 955.865234 -147.616501 700.576904
v 959.908752 -149.810608 700.576904
v 959.908752 -149.810608 711.922058
v 960.967041 -150.384811 700.576904
v 963.662659 -151.847504 700.576904
v 963.662659 -151.847504 711.922058
v 960.967041 -150.384811 711.922058
v 955.247314 -139.084808 700.576904
v 952.319763 -144.475006 700.576904
v 952.319763 -144.475006 711.922058
v 955.247314 -139.084808 711.922058
v 956.216736 -137.299805 711.922058
v 956.216736 -137.299805 700.576904
v 955.484863 -138.647415 700.576904
v 955.484863 -138.647415 711.922058
v 957.918152 -134.167313 700.576904
v 956.454346 -136.862411 700.576904
v 956.454346 -136.862411 711.922058
v 957.918152 -134.167313 711.922058
v 958.887573 -132.382416 700.576904
v 958.155640 -133.729904 700.576904
v 958.155640 -133.729904 711.922058
v 958.887573 -132.382416 711.922058
v 959.857056 -130.597412 700.576904
v 959.125122 -131.945007 700.576904
v 959.125122 -131.945007 711.922058
v 959.857056 -130.597412 711.922058
v 961.558350 -127.464905 700.576904
v 960.094543 -130.160004 700.576904
v 960.094543 -130.160004 711.922058
v 961.558350 -127.464905 711.922058
v 962.527710 -125.679909 711.922058
v 962.527710 -125.679909 700.576904
v 961.795959 -127.027512 700.576904
v 961.795959 -127.027512 711.922058
v 965.692871 -119.852310 711.922058
v 965.692871 -119.852310 700.576904
v 962.765381 -125.242508 700.576904
v 962.765381 -125.242508 711.922058
v 965.255432 -149.665512 711.922058
v 964.431641 -151.171402 700.576904
v 966.639648 -147.135406 700.576904
v 964.431641 -151.171402 711.922058
v 966.639648 -147.135406 711.922058
v 968.854431 -121.180107 700.576904
v 966.160522 -119.714111 700.576904
v 966.160522 -119.714111 711.922058
v 968.854431 -121.180107 711.922058
v 973.999512 -123.980011 711.922058
v 973.999512 -123.980011 700.576904
v 969.958618 -121.781006 700.576904
v 969.958618 -121.781006 711.922058
v 977.797668 -126.046906 711.922058
v 977.797668 -126.046906 700.576904
v 975.103760 -124.580910 700.576904
v 975.103760 -124.580910 711.922058
v 969.471436 -141.967010 711.922058
v 967.264648 -145.988602 700.576904
v 970.215332 -140.611115 700.576904
v 967.264648 -145.988602 711.922058
v 970.215332 -140.611115 711.922058
v 973.376038 -134.851013 711.922058
v 971.019775 -139.145309 700.576904
v 973.970459 -133.767807 700.576904
v 971.019775 -139.145309 711.922058
v 973.970459 -133.767807 711.922058
v 975.662476 -130.681213 711.922058
v 975.295837 -131.354614 700.576904
v 976.029053 -130.007812 700.576904
v 975.295837 -131.354614 711.922058
v 976.029053 -130.007812 711.922058
vt 0.000000 0.000000
vt 0.500000 0.000000
vt 0.500000 1.000000
vt 0.000000 1.000000
vt 0.000000 1.000000
vt 0.000000 0.000000
vt 0.750000 0.000000
vt 0.750000 1.000000
vt 0.000000 0.000000
vt 0.500000 0.000000
vt 0.500000 1.000000
vt 0.000000 1.000000
vt 0.000000 0.000000
vt 1.000000 0.000000
vt 1.000000 1.000000
vt 0.000000 1.000000
vt 0.000000 1.000000
vt 0.000000 0.000000
vt 0.250000 0.000000
vt 0.250000 1.000000
vt 0.000000 0.000000
vt 0.500000 0.000000
vt 0.500000 1.000000
vt 0.000000 1.000000
vt 0.000000 0.000000
vt 0.250000 0.000000
vt 0.250000 1.000000
vt 0.000000 1.000000
vt 0.000000 0.000000
vt 0.250000 0.000000
vt 0.250000 1.000000
vt 0.000000 1.000000
vt 0.000000 0.000000
vt 0.500000 0.000000
vt 0.500000 1.000000
vt 0.000000 1.000000
vt 0.000000 1.000000
vt 0.000000 0.000000
vt 0.250000 0.000000
vt 0.250000 1.000000
vt 0.000000 1.000000
vt 0.000000 0.000000
vt 1.000000 0.000000
vt 1.000000 1.000000
vt 0.279840 1.000000
vt 0.000000 0.000000
vt 0.750000 0.000000
vt 0.000000 1.000000
vt 0.750000 1.000000
vt 0.000000 0.000000
vt 0.500000 0.000000
vt 0.500000 1.000000
vt 0.000000 1.000000
vt 0.000000 1.000000
vt 0.000000 0.000000
vt 0.750000 0.000000
vt 0.750000 1.000000
vt 0.000000 1.000000
vt 0.000000 0.000000
vt 0.500000 0.000000
vt 0.500000 1.000000
vt 0.747860 1.000000
vt 0.000000 0.000000
vt 1.000000 0.000000
vt 0.000000 1.000000
vt 1.000000 1.000000
vt 0.798570 1.000000
vt 0.000000 0.000000
vt 1.000000 0.000000
vt 0.000000 1.000000
vt 1.000000 1.000000
vt 0.125000 1.000000
vt 0.000000 0.000000
vt 0.250000 0.000000
vt 0.000000 1.000000
vt 0.250000 1.000000
vn -0.4769 -0.8789 0.0000
vn -0.4769 -0.8790 0.0000
vn -0.4770 -0.8789 0.0000
vn -0.8787 0.4773 0.0000
vn -0.8788 0.4773 0.0000
vn -0.8788 0.4772 0.0000
vn 0.8773 -0.4800 0.0000
vn 0.8773 -0.4799 0.0000
vn 0.4780 0.8784 0.0000
vn 0.8767 -0.4811 -0.0000
vn 0.8767 -0.4810 0.0000
vn 0.8783 -0.4781 -0.0000
vn 0.8782 -0.4782 0.0000
s off
f 1/1/1 2/2/1 3/3/1
f 4/4/2 1/1/2 3/3/2
f 5/5/1 6/6/1 7/7/1
f 5/5/1 7/7/1 8/8/1
f 9/9/2 10/10/2 11/11/2
f 12/12/3 9/9/3 11/11/3
f 13/13/4 14/14/4 15/15/4
f 16/16/5 13/13/5 15/15/5
f 17/17/6 18/18/6 19/19/6
f 17/17/6 19/19/6 20/20/6
f 21/21/4 22/22/4 23/23/4
f 24/24/6 21/21/6 23/23/6
f 25/25/4 26/26/4 27/27/4
f 28/28/5 25/25/5 27/27/5
f 29/29/4 30/30/4 31/31/4
f 32/32/6 29/29/6 31/31/6
f 33/33/4 34/34/4 35/35/4
f 36/36/4 33/33/4 35/35/4
f 37/37/6 38/38/6 39/39/6
f 37/37/6 39/39/6 40/40/6
f 41/41/5 42/42/5 43/43/5
f 41/41/5 43/43/5 44/44/5
f 45/45/7 46/46/7 47/47/7
f 48/48/8 46/46/8 45/45/8
f 45/45/7 47/47/7 49/49/7
f 50/50/9 51/51/9 52/52/9
f 53/53/9 50/50/9 52/52/9
f 54/54/9 55/55/9 56/56/9
f 54/54/9 56/56/9 57/57/9
f 58/58/9 59/59/9 60/60/9
f 58/58/9 60/60/9 61/61/9
f 62/62/10 63/63/10 64/64/10
f 65/65/10 63/63/10 62/62/10
f 62/62/11 64/64/11 66/66/11
f 67/67/10 68/68/10 69/69/10
f 70/70/11 68/68/11 67/67/11
f 67/67/10 69/69/10 71/71/10
f 72/72/12 73/73/12 74/74/12
f 75/75/13 73/73/13 72/72/13
f 72/72/13 74/74/13 76/76/13
