# Blender v3.0.1 OBJ File: 'rockerfeller_plaza.blend'
# www.blender.org
o geometryt000010000010000110010110000110000100110010010110st87_N
v 180.746597 -315.395905 38.923420
v 180.746597 -315.395905 33.923420
v 181.295898 -315.669708 33.923420
v 181.295898 -315.669708 38.923420
v 186.921799 -318.474701 38.923420
v 186.921799 -318.474701 33.923420
v 187.471207 -318.748596 33.923420
v 187.471207 -318.748596 38.923420
v 180.890594 -315.075012 33.923420
v 180.746597 -315.395905 33.923420
v 180.746597 -315.395905 38.923420
v 181.322601 -314.112396 38.923420
v 181.322601 -314.112396 33.923420
v 187.471207 -318.748596 38.923420
v 187.471207 -318.748596 33.923420
v 187.792099 -318.622009 33.923420
v 187.792099 -318.622009 38.923420
v 189.209000 -318.063110 38.923420
v 189.209000 -318.063110 33.923420
v 189.529907 -317.936493 33.923420
v 189.529907 -317.936493 38.923420
v 189.529907 -317.936493 38.923420
v 189.529907 -317.936493 33.923420
v 189.815903 -317.314301 33.923420
v 189.815903 -317.314301 38.923420
v 206.222702 -281.613586 38.923420
v 206.222702 -281.613586 33.923420
v 206.508606 -280.991394 33.923420
v 206.508606 -280.991394 38.923420
v 205.193207 -280.313385 38.923420
v 205.193207 -280.313385 33.923420
v 204.886597 -280.155304 33.923420
v 204.886597 -280.155304 38.923420
v 206.508606 -280.991394 38.923420
v 206.508606 -280.991394 33.923420
v 206.201904 -280.833313 33.923420
v 206.201904 -280.833313 38.923420
vt 0.000000 4.344050
vt 0.000000 0.000000
vt 0.533280 0.000000
vt 0.533280 4.344050
vt 5.995000 4.344050
vt 5.995000 0.000000
vt 6.528280 0.000000
vt 6.528280 4.344050
vt 0.916670 0.000000
vt 1.222220 0.000000
vt 1.222220 4.344050
vt 0.000000 4.344050
vt 0.000000 0.000000
vt 0.000000 4.344050
vt 0.000000 0.000000
vt 0.299740 0.000000
vt 0.299740 4.344050
vt 1.623090 4.344050
vt 1.623090 0.000000
vt 1.922830 0.000000
vt 1.922830 4.344050
vt 0.000000 4.344050
vt 0.000000 0.000000
vt 0.594910 0.000000
vt 0.594910 4.344050
vt 34.730659 4.344050
vt 34.730659 0.000000
vt 35.325569 0.000000
vt 35.325569 4.344050
vt 0.000000 4.344050
vt 0.000000 0.000000
vt 0.299740 0.000000
vt 0.299740 4.344050
vt 1.285690 4.344050
vt 1.285690 0.000000
vt 1.585430 0.000000
vt 1.585430 4.344050
vn -0.4461 -0.8950 0.0000
vn -0.4464 -0.8948 -0.0000
vn -0.4462 -0.8950 0.0000
vn -0.4462 -0.8949 0.0000
vn -0.9123 0.4095 0.0000
vn -0.9123 0.4094 0.0000
vn 0.3670 -0.9302 0.0000
vn 0.9086 -0.4177 0.0000
vn 0.9086 -0.4176 0.0000
vn 0.9087 -0.4175 0.0000
vn 0.4582 0.8889 0.0000
vn 0.4580 0.8890 0.0000
vn 0.4582 0.8888 0.0000
vn 0.4583 0.8888 0.0000
s off
f 1/1/1 2/2/1 3/3/1
f 1/1/2 3/3/2 4/4/2
f 5/5/3 6/6/3 7/7/3
f 5/5/4 7/7/4 8/8/4
f 9/9/5 10/10/5 11/11/5
f 11/11/6 12/12/6 9/9/6
f 12/12/5 13/13/5 9/9/5
f 14/14/7 15/15/7 16/16/7
f 14/14/7 16/16/7 17/17/7
f 18/18/7 19/19/7 20/20/7
f 18/18/7 20/20/7 21/21/7
f 22/22/8 23/23/8 24/24/8
f 22/22/9 24/24/9 25/25/9
f 26/26/9 27/27/9 28/28/9
f 26/26/10 28/28/10 29/29/10
f 34/30/11 35/31/11 36/32/11
f 34/30/11 36/32/11 37/33/11
s 1
f 30/34/12 31/35/13 32/36/13
f 30/34/12 32/36/13 33/37/14
