# Blender v3.0.1 OBJ File: 'rockerfeller_plaza.blend'
# www.blender.org
o geometryt000010000010000110010110000110000110100100000000st110
v 465.786316 -108.447189 888.714050
v 464.228943 -111.342682 888.714050
v 464.228943 -111.342682 905.104370
v 465.786316 -108.447189 905.104370
v 467.888428 -104.538788 905.104370
v 467.888428 -104.538788 888.714050
v 466.331024 -107.434288 888.714050
v 466.331024 -107.434288 905.104370
v 469.211823 -102.078087 888.714050
v 468.433136 -103.525887 888.714050
v 468.433136 -103.525887 905.104370
v 469.211823 -102.078087 905.104370
v 472.092529 -96.721977 905.104370
v 472.092529 -96.721977 888.714050
v 469.756531 -101.065285 888.714050
v 469.756531 -101.065285 905.104370
v 473.416016 -94.261353 888.714050
v 472.637329 -95.709114 888.714050
v 472.637329 -95.709114 905.104370
v 473.416016 -94.261353 905.104370
v 475.518127 -90.352966 905.104370
v 475.518127 -90.352966 888.714050
v 473.960724 -93.248482 888.714050
v 473.960724 -93.248482 905.104370
v 477.620117 -86.444572 905.104370
v 477.620117 -86.444572 888.714050
v 476.062836 -89.340096 888.714050
v 476.062836 -89.340096 905.104370
v 464.950012 -112.122589 905.104370
v 464.950012 -112.122589 888.714050
v 467.845123 -113.680885 888.714050
v 467.845123 -113.680885 905.104370
v 468.893036 -113.853088 888.714050
v 470.450317 -110.957588 888.714050
v 470.450317 -110.957588 905.104370
v 468.893036 -113.853088 905.104370
v 470.995117 -109.944687 905.104370
v 470.995117 -109.944687 888.714050
v 472.552429 -107.049187 888.714050
v 472.552429 -107.049187 905.104370
v 473.097229 -106.036285 905.104370
v 473.097229 -106.036285 888.714050
v 473.875824 -104.588585 888.714050
v 473.875824 -104.588585 905.104370
v 474.420624 -103.575684 888.714050
v 476.756622 -99.232407 888.714050
v 476.756622 -99.232407 905.104370
v 474.420624 -103.575684 905.104370
v 477.301331 -98.219543 888.714050
v 478.080017 -96.771782 888.714050
v 478.080017 -96.771782 905.104370
v 477.301331 -98.219543 905.104370
v 478.624817 -95.758919 905.104370
v 478.624817 -95.758919 888.714050
v 480.182129 -92.863388 888.714050
v 480.182129 -92.863388 905.104370
v 480.726837 -91.850525 905.104370
v 480.726837 -91.850525 888.714050
v 482.284241 -88.954994 888.714050
v 482.284241 -88.954994 905.104370
v 481.563110 -88.175079 905.104370
v 481.563110 -88.175079 888.714050
v 478.668152 -86.616814 888.714050
v 478.668152 -86.616814 905.104370
vt 0.000000 0.000000
vt 0.666670 0.000000
vt 0.666670 5.000000
vt 0.000000 5.000000
vt 0.000000 5.000000
vt 0.000000 0.000000
vt 0.666670 0.000000
vt 0.666670 5.000000
vt 0.000000 0.000000
vt 0.333330 0.000000
vt 0.333330 5.000000
vt 0.000000 5.000000
vt 0.000000 5.000000
vt 0.000000 0.000000
vt 1.000000 0.000000
vt 1.000000 5.000000
vt 0.000000 0.000000
vt 0.333330 0.000000
vt 0.333330 5.000000
vt 0.000000 5.000000
vt 0.000000 5.000000
vt 0.000000 0.000000
vt 0.666670 0.000000
vt 0.666670 5.000000
vt 0.000000 5.000000
vt 0.000000 0.000000
vt 0.666670 0.000000
vt 0.666670 5.000000
vt 0.000000 5.000000
vt 0.000000 0.000000
vt 0.666670 0.000000
vt 0.666670 5.000000
vt 0.000000 0.000000
vt 0.666670 0.000000
vt 0.666670 5.000000
vt 0.000000 5.000000
vt 0.000000 5.000000
vt 0.000000 0.000000
vt 0.666670 0.000000
vt 0.666670 5.000000
vt 0.000000 5.000000
vt 0.000000 0.000000
vt 0.333330 0.000000
vt 0.333330 5.000000
vt 0.000000 0.000000
vt 1.000000 0.000000
vt 1.000000 5.000000
vt 0.000000 5.000000
vt 0.000000 0.000000
vt 0.333330 0.000000
vt 0.333330 5.000000
vt 0.000000 5.000000
vt 0.000000 5.000000
vt 0.000000 0.000000
vt 0.666670 0.000000
vt 0.666670 5.000000
vt 0.000000 5.000000
vt 0.000000 0.000000
vt 0.666670 0.000000
vt 0.666670 5.000000
vt 0.000000 5.000000
vt 0.000000 0.000000
vt 0.666670 0.000000
vt 0.666670 5.000000
vn -0.8807 0.4737 0.0000
vn -0.4739 -0.8806 0.0000
vn -0.4740 -0.8805 0.0000
vn 0.8807 -0.4737 0.0000
vn 0.8807 -0.4736 0.0000
vn 0.4740 0.8805 0.0000
s off
f 1/1/1 2/2/1 3/3/1
f 4/4/1 1/1/1 3/3/1
f 5/5/1 6/6/1 7/7/1
f 5/5/1 7/7/1 8/8/1
f 9/9/1 10/10/1 11/11/1
f 12/12/1 9/9/1 11/11/1
f 13/13/1 14/14/1 15/15/1
f 13/13/1 15/15/1 16/16/1
f 17/17/1 18/18/1 19/19/1
f 20/20/1 17/17/1 19/19/1
f 21/21/1 22/22/1 23/23/1
f 21/21/1 23/23/1 24/24/1
f 25/25/1 26/26/1 27/27/1
f 25/25/1 27/27/1 28/28/1
f 29/29/2 30/30/2 31/31/2
f 29/29/3 31/31/3 32/32/3
f 33/33/4 34/34/4 35/35/4
f 36/36/4 33/33/4 35/35/4
f 37/37/4 38/38/4 39/39/4
f 37/37/4 39/39/4 40/40/4
f 41/41/5 42/42/5 43/43/5
f 41/41/4 43/43/4 44/44/4
f 45/45/4 46/46/4 47/47/4
f 48/48/4 45/45/4 47/47/4
f 49/49/4 50/50/4 51/51/4
f 52/52/4 49/49/4 51/51/4
f 53/53/4 54/54/4 55/55/4
f 53/53/4 55/55/4 56/56/4
f 57/57/4 58/58/4 59/59/4
f 57/57/4 59/59/4 60/60/4
f 61/61/6 62/62/6 63/63/6
f 61/61/6 63/63/6 64/64/6
