# Blender v3.0.1 OBJ File: 'rockerfeller_plaza.blend'
# www.blender.org
o geometryt000010000010000110010110000110000110100000010100st115
v 785.416748 -155.206680 149.781754
v 787.034973 -156.076385 149.781754
v 787.034973 -156.076385 182.043945
v 785.416748 -155.206680 182.043945
v 788.211487 -156.708679 149.781754
v 789.829712 -157.578384 149.781754
v 789.829712 -157.578384 182.043945
v 788.211487 -156.708679 182.043945
v 791.006226 -158.210785 149.781754
v 792.624451 -159.080490 149.781754
v 792.624451 -159.080490 182.043945
v 791.006226 -158.210785 182.043945
v 793.800964 -159.712784 182.043945
v 793.800964 -159.712784 149.781754
v 795.419189 -160.582489 149.781754
v 795.419189 -160.582489 182.043945
v 796.595703 -161.214783 182.043945
v 796.595703 -161.214783 149.781754
v 798.213928 -162.084488 149.781754
v 798.213928 -162.084488 182.043945
v 786.145630 -153.121078 149.781754
v 785.276184 -154.739487 149.781754
v 785.276184 -154.739487 182.043945
v 786.145630 -153.121078 182.043945
v 787.653137 -150.314880 182.043945
v 787.653137 -150.314880 149.781754
v 786.783691 -151.933289 149.781754
v 786.783691 -151.933289 182.043945
v 789.160706 -147.508789 182.043945
v 789.160706 -147.508789 149.781754
v 788.291260 -149.127182 149.781754
v 788.291260 -149.127182 182.043945
v 792.407166 -141.465881 182.043945
v 792.407166 -141.465881 149.781754
v 789.798828 -146.320984 149.781754
v 789.798828 -146.320984 182.043945
v 793.914734 -138.659790 182.043945
v 793.914734 -138.659790 149.781754
v 793.045288 -140.278091 149.781754
v 793.045288 -140.278091 182.043945
v 795.422302 -135.853592 182.043945
v 795.422302 -135.853592 149.781754
v 794.552856 -137.471985 149.781754
v 794.552856 -137.471985 182.043945
v 796.929871 -133.047379 182.043945
v 796.929871 -133.047379 149.781754
v 796.060425 -134.665787 149.781754
v 796.060425 -134.665787 182.043945
v 800.103027 -130.516586 149.781754
v 799.233276 -132.134781 149.781754
v 799.233276 -132.134781 182.043945
v 800.103027 -130.516586 182.043945
v 798.681274 -161.943985 182.043945
v 798.681274 -161.943985 149.781754
v 799.551941 -160.326279 149.781754
v 799.551941 -160.326279 182.043945
v 800.412476 -158.727386 182.043945
v 800.412476 -158.727386 149.781754
v 801.283142 -157.109680 149.781754
v 801.283142 -157.109680 182.043945
v 802.143677 -155.510681 182.043945
v 802.143677 -155.510681 149.781754
v 803.014343 -153.892990 149.781754
v 803.014343 -153.892990 182.043945
v 802.096863 -153.008087 149.781754
v 800.478699 -152.138290 149.781754
v 800.478699 -152.138290 182.043945
v 802.096863 -153.008087 182.043945
v 799.560791 -151.253189 149.781754
v 800.429688 -149.634583 149.781754
v 800.429688 -149.634583 182.043945
v 799.560791 -151.253189 182.043945
v 800.921326 -148.718781 149.781754
v 801.790222 -147.100082 149.781754
v 801.790222 -147.100082 182.043945
v 800.921326 -148.718781 182.043945
v 802.281799 -146.184387 149.781754
v 803.150696 -144.565689 149.781754
v 803.150696 -144.565689 182.043945
v 802.281799 -146.184387 182.043945
v 802.754944 -130.191879 149.781754
v 801.136963 -129.321686 149.781754
v 801.136963 -129.321686 182.043945
v 802.754944 -130.191879 182.043945
v 805.447815 -131.640182 182.043945
v 805.447815 -131.640182 149.781754
v 803.829834 -130.769989 149.781754
v 803.829834 -130.769989 182.043945
v 808.140686 -133.088486 182.043945
v 808.140686 -133.088486 149.781754
v 806.522766 -132.218292 149.781754
v 806.522766 -132.218292 182.043945
v 810.833618 -134.536789 149.781754
v 809.215637 -133.666580 149.781754
v 809.215637 -133.666580 182.043945
v 810.833618 -134.536789 182.043945
v 804.327759 -144.808884 149.781754
v 805.944397 -145.681488 149.781754
v 805.944397 -145.681488 182.043945
v 804.327759 -144.808884 182.043945
v 807.121765 -145.924881 182.043945
v 807.121765 -145.924881 149.781754
v 807.992554 -144.307281 149.781754
v 807.992554 -144.307281 182.043945
v 809.526428 -141.457886 182.043945
v 809.526428 -141.457886 149.781754
v 810.397217 -139.840179 149.781754
v 810.397217 -139.840179 182.043945
v 809.634277 -137.509979 182.043945
v 809.634277 -137.509979 149.781754
v 810.500854 -135.890091 149.781754
v 810.500854 -135.890091 182.043945
v 810.256592 -139.373581 182.043945
v 810.256592 -139.373581 149.781754
v 809.301880 -138.862579 149.781754
v 809.301880 -138.862579 182.043945
vt 0.000000 0.000000
vt 0.333330 0.000000
vt 0.333330 8.000000
vt 0.000000 8.000000
vt 0.000000 0.000000
vt 0.333330 0.000000
vt 0.333330 8.000000
vt 0.000000 8.000000
vt 0.000000 0.000000
vt 0.333330 0.000000
vt 0.333330 8.000000
vt 0.000000 8.000000
vt 0.000000 8.000000
vt 0.000000 0.000000
vt 0.333330 0.000000
vt 0.333330 8.000000
vt 0.000000 8.000000
vt 0.000000 0.000000
vt 0.333330 0.000000
vt 0.333330 8.000000
vt 0.000000 0.000000
vt 0.333330 0.000000
vt 0.333330 8.000000
vt 0.000000 8.000000
vt 0.000000 8.000000
vt 0.000000 0.000000
vt 0.333330 0.000000
vt 0.333330 8.000000
vt 0.000000 8.000000
vt 0.000000 0.000000
vt 0.333330 0.000000
vt 0.333330 8.000000
vt 0.000000 8.000000
vt 0.000000 0.000000
vt 1.000000 0.000000
vt 1.000000 8.000000
vt 0.000000 8.000000
vt 0.000000 0.000000
vt 0.333330 0.000000
vt 0.333330 8.000000
vt 0.000000 8.000000
vt 0.000000 0.000000
vt 0.333330 0.000000
vt 0.333330 8.000000
vt 0.000000 8.000000
vt 0.000000 0.000000
vt 0.333330 0.000000
vt 0.333330 8.000000
vt 0.000000 0.000000
vt 0.333330 0.000000
vt 0.333330 8.000000
vt 0.000000 8.000000
vt 0.000000 8.000000
vt 0.000000 0.000000
vt 0.333330 0.000000
vt 0.333330 8.000000
vt 0.000000 8.000000
vt 0.000000 0.000000
vt 0.333330 0.000000
vt 0.333330 8.000000
vt 0.000000 0.000000
vt 0.333330 0.000000
vt 0.333330 8.000000
vt 0.000000 8.000000
vt 0.000000 0.000000
vt 0.333330 0.000000
vt 0.333330 8.000000
vt 0.000000 8.000000
vt 0.000000 0.000000
vt 0.333330 0.000000
vt 0.333330 8.000000
vt 0.000000 8.000000
vt 0.000000 0.000000
vt 0.333330 0.000000
vt 0.333330 8.000000
vt 0.000000 8.000000
vt 0.000000 0.000000
vt 0.333330 0.000000
vt 0.333330 8.000000
vt 0.000000 8.000000
vt 0.000000 8.000000
vt 0.000000 0.000000
vt 0.333330 0.000000
vt 0.333330 8.000000
vt 0.000000 8.000000
vt 0.000000 0.000000
vt 0.333330 0.000000
vt 0.333330 8.000000
vt 0.000000 0.000000
vt 0.333330 0.000000
vt 0.333330 8.000000
vt 0.000000 8.000000
vt 0.000000 8.000000
vt 0.000000 0.000000
vt 0.333330 0.000000
vt 0.333330 8.000000
vt 0.000000 8.000000
vt 0.000000 0.000000
vt 0.333330 0.000000
vt 0.333330 8.000000
vt 0.000000 8.000000
vt 0.000000 0.000000
vt 0.333330 0.000000
vt 0.333330 8.000000
vt 0.000000 8.000000
vt 0.000000 0.000000
vt 0.333330 0.000000
vt 0.333330 8.000000
vt 0.000000 8.000000
vt 0.000000 0.000000
vt 0.333330 0.000000
vt 0.333330 8.000000
vt 0.000000 0.000000
vt 0.333330 0.000000
vt 0.333330 8.000000
vt 0.000000 8.000000
vn -0.4734 -0.8808 0.0000
vn -0.4734 -0.8809 0.0000
vn -0.8809 0.4733 0.0000
vn -0.8809 0.4732 0.0000
vn -0.8808 0.4734 0.0000
vn -0.8808 0.4735 0.0000
vn 0.8806 -0.4739 0.0000
vn 0.4734 0.8808 0.0000
vn 0.4735 0.8808 0.0000
vn 0.8811 -0.4730 0.0000
vn 0.8811 -0.4729 0.0000
vn 0.4737 0.8807 0.0000
vn 0.4736 0.8807 0.0000
vn 0.8805 -0.4740 0.0000
vn 0.8805 -0.4741 0.0000
vn 0.8818 -0.4717 0.0000
vn 0.4719 0.8817 0.0000
vn -0.4750 -0.8800 0.0000
s off
f 1/1/1 2/2/1 3/3/1
f 4/4/1 1/1/1 3/3/1
f 5/5/1 6/6/1 7/7/1
f 8/8/2 5/5/2 7/7/2
f 9/9/2 10/10/2 11/11/2
f 12/12/1 9/9/1 11/11/1
f 13/13/1 14/14/1 15/15/1
f 13/13/1 15/15/1 16/16/1
f 17/17/1 18/18/1 19/19/1
f 17/17/2 19/19/2 20/20/2
f 21/21/3 22/22/3 23/23/3
f 24/24/4 21/21/4 23/23/4
f 25/25/3 26/26/3 27/27/3
f 25/25/4 27/27/4 28/28/4
f 29/29/3 30/30/3 31/31/3
f 29/29/4 31/31/4 32/32/4
f 33/33/3 34/34/3 35/35/3
f 33/33/3 35/35/3 36/36/3
f 37/37/3 38/38/3 39/39/3
f 37/37/4 39/39/4 40/40/4
f 41/41/3 42/42/3 43/43/3
f 41/41/4 43/43/4 44/44/4
f 45/45/3 46/46/3 47/47/3
f 45/45/4 47/47/4 48/48/4
f 49/49/5 50/50/5 51/51/5
f 52/52/6 49/49/6 51/51/6
f 57/53/7 58/54/7 59/55/7
f 57/53/7 59/55/7 60/56/7
f 61/57/7 62/58/7 63/59/7
f 61/57/7 63/59/7 64/60/7
f 65/61/8 66/62/8 67/63/8
f 68/64/9 65/61/9 67/63/9
f 69/65/10 70/66/10 71/67/10
f 72/68/10 69/65/10 71/67/10
f 73/69/11 74/70/11 75/71/11
f 76/72/10 73/69/10 75/71/10
f 77/73/10 78/74/10 79/75/10
f 80/76/11 77/73/11 79/75/11
f 81/77/12 82/78/12 83/79/12
f 84/80/13 81/77/13 83/79/13
f 85/81/13 86/82/13 87/83/13
f 85/81/12 87/83/12 88/84/12
f 89/85/12 90/86/12 91/87/12
f 89/85/12 91/87/12 92/88/12
f 93/89/12 94/90/12 95/91/12
f 96/92/12 93/89/12 95/91/12
f 101/93/14 102/94/14 103/95/14
f 101/93/15 103/95/15 104/96/15
f 105/97/7 106/98/7 107/99/7
f 105/97/14 107/99/14 108/100/14
f 109/101/16 110/102/16 111/103/16
f 109/101/16 111/103/16 112/104/16
f 113/105/17 114/106/17 115/107/17
f 113/105/17 115/107/17 116/108/17
s 1
f 53/109/14 54/110/7 55/111/7
f 53/109/14 55/111/7 56/112/14
f 97/113/18 98/114/18 99/115/18
f 100/116/18 97/113/18 99/115/18
