# Blender v3.0.1 OBJ File: 'rockerfeller_plaza.blend'
# www.blender.org
o geometryt000010000010000110010110000110000110100100000000st183
v 497.830750 -115.628487 888.503540
v 491.616425 -120.652283 888.503540
v 482.730133 -115.870583 888.503540
v 495.145020 -120.622383 888.503540
v 493.944214 -121.901985 888.503540
v 492.266724 -125.030083 888.503540
v 489.939148 -123.791489 888.503540
v 494.026917 -94.878189 888.503540
v 501.913025 -108.031487 888.503540
v 505.631714 -101.115982 888.503540
v 503.722839 -104.668686 888.503540
v 494.343323 -122.108284 888.503540
v 492.266724 -125.030083 934.903564
v 491.616425 -120.652283 934.903564
v 489.939148 -123.791489 934.903564
v 493.944214 -121.901985 934.903564
v 494.343323 -122.108284 934.903564
v 495.145020 -120.622383 934.903564
v 497.830750 -115.628487 934.903564
v 501.913025 -108.031487 934.903564
v 482.730133 -115.870583 934.903564
v 503.722839 -104.668686 934.903564
v 494.026917 -94.878189 934.903564
v 505.631714 -101.115982 934.903564
vt 0.134180 0.480440
vt 0.145300 0.467800
vt 0.139420 0.450000
vt 0.144120 0.474910
vt 0.146830 0.472460
vt 0.153060 0.469010
vt 0.151550 0.464350
vt 0.097640 0.473260
vt 0.119060 0.488850
vt 0.105300 0.496510
vt 0.112370 0.492580
vt 0.147080 0.473260
vt 0.153060 0.469010
vt 0.145300 0.467800
vt 0.151550 0.464350
vt 0.146830 0.472460
vt 0.147080 0.473260
vt 0.144120 0.474910
vt 0.134180 0.480440
vt 0.119060 0.488850
vt 0.139420 0.450000
vt 0.112370 0.492580
vt 0.097640 0.473260
vt 0.105300 0.496510
vn 0.0000 0.0000 -1.0000
vn -0.0001 0.0000 -1.0000
vn -0.0001 0.0000 1.0000
vn 0.0000 0.0000 1.0000
s off
f 1/1/1 2/2/1 3/3/1
f 4/4/1 2/2/1 1/1/1
f 5/5/1 2/2/1 4/4/1
f 6/6/1 2/2/1 5/5/1
f 7/7/2 2/2/2 6/6/2
f 8/8/1 9/9/1 3/3/1
f 9/9/1 1/1/1 3/3/1
f 10/10/1 11/11/1 8/8/1
f 11/11/1 9/9/1 8/8/1
f 12/12/1 5/5/1 4/4/1
f 13/13/3 14/14/3 15/15/3
f 14/14/4 13/13/4 16/16/4
f 17/17/4 18/18/4 16/16/4
f 16/16/4 18/18/4 14/14/4
f 18/18/4 19/19/4 14/14/4
f 19/19/4 20/20/4 21/21/4
f 14/14/4 19/19/4 21/21/4
f 20/20/4 22/22/4 23/23/4
f 21/21/4 20/20/4 23/23/4
f 22/22/4 24/24/4 23/23/4
