# Blender v3.0.1 OBJ File: 'rockerfeller_plaza.blend'
# www.blender.org
o geometryt000010000010000110010110000110000100110010110010st59_M
v 289.361511 -320.802277 291.538239
v 272.967407 -351.401367 291.538239
v 251.985901 -354.042664 291.538239
v 334.895905 -397.812164 291.538239
v 280.537292 -301.664368 291.538239
v 340.769409 -387.441162 291.538239
v 321.827301 -323.545471 291.538239
v 315.787415 -334.850983 291.538239
v 381.924622 -370.010468 291.538239
v 365.530792 -400.609772 291.538239
v 251.985901 -354.042664 331.538239
v 272.967407 -351.401367 331.538239
v 286.162720 -326.772766 331.538239
v 334.895905 -397.812164 331.538239
v 289.361511 -320.802277 331.538239
v 280.537292 -301.664368 331.538239
v 286.197113 -358.433472 331.538239
v 321.827301 -323.545471 331.538239
v 340.769409 -387.441162 331.538239
v 310.631104 -332.109772 331.538239
v 315.787415 -334.850983 331.538239
v 272.967407 -351.401367 496.538208
v 315.787415 -334.850983 496.538208
v 289.361511 -320.802277 496.538208
v 340.769409 -387.441162 496.538208
v 381.924622 -370.010468 496.538208
v 365.530792 -400.609772 496.538208
vt 0.492760 0.569360
vt 0.553650 0.535600
vt 0.565130 0.493250
vt 0.618410 0.659340
vt 0.460740 0.552020
vt 0.597670 0.671420
vt 0.487430 0.634740
vt 0.509920 0.622300
vt 0.552870 0.754780
vt 0.613760 0.721020
vt 0.565130 0.493250
vt 0.553650 0.535600
vt 0.504640 0.562780
vt 0.618410 0.659340
vt 0.492760 0.569360
vt 0.460740 0.552020
vt 0.562240 0.562100
vt 0.487430 0.634740
vt 0.597670 0.671420
vt 0.506570 0.611970
vt 0.509920 0.622300
vt 0.553650 0.535600
vt 0.509920 0.622300
vt 0.492760 0.569360
vt 0.597670 0.671420
vt 0.552870 0.754780
vt 0.613760 0.721020
vn -0.0000 0.0000 -1.0000
vn -0.0000 0.0000 1.0000
s off
f 1/1/1 2/2/1 3/3/1
f 2/2/1 4/4/1 3/3/1
f 5/5/1 1/1/1 3/3/1
f 2/2/1 6/6/1 4/4/1
f 5/5/1 7/7/1 1/1/1
f 1/1/1 7/7/1 8/8/1
f 1/1/1 8/8/1 2/2/1
f 2/2/1 8/8/1 6/6/1
f 6/6/1 8/8/1 9/9/1
f 10/10/1 6/6/1 9/9/1
f 11/11/2 12/12/2 13/13/2
f 14/14/2 12/12/2 11/11/2
f 11/11/2 15/15/2 16/16/2
f 11/11/2 13/13/2 15/15/2
f 12/12/2 14/14/2 17/17/2
f 16/16/2 15/15/2 18/18/2
f 17/17/2 14/14/2 19/19/2
f 18/18/2 15/15/2 20/20/2
f 18/18/2 20/20/2 21/21/2
f 22/22/2 23/23/2 24/24/2
f 22/22/2 25/25/2 23/23/2
f 23/23/2 25/25/2 26/26/2
f 26/26/2 25/25/2 27/27/2
