# Blender v3.0.1 OBJ File: 'rockerfeller_plaza.blend'
# www.blender.org
o geometryt000010000010000110010110000110000110100100000000st30_B
v 417.693237 -210.873474 889.413574
v 420.215729 -212.232681 889.413574
v 420.215729 -212.232681 953.595581
v 417.693237 -210.873474 953.595581
v 420.411011 -212.337875 889.413574
v 421.672241 -213.017471 889.413574
v 421.672241 -213.017471 953.595581
v 420.411011 -212.337875 953.595581
v 421.867432 -213.122681 889.413574
v 424.389923 -214.481781 889.413574
v 424.389923 -214.481781 953.595581
v 421.867432 -213.122681 953.595581
v 424.585236 -214.586975 953.595581
v 424.585236 -214.586975 889.413574
v 425.846436 -215.266571 889.413574
v 425.846436 -215.266571 953.595581
v 426.041626 -215.371780 953.595581
v 426.041626 -215.371780 889.413574
v 427.302917 -216.051376 889.413574
v 427.302917 -216.051376 953.595581
v 427.498108 -216.156570 889.413574
v 433.804443 -219.554581 889.413574
v 433.804443 -219.554581 953.595581
v 427.498108 -216.156570 953.595581
v 433.999634 -219.659775 889.413574
v 435.260925 -220.339279 889.413574
v 435.260925 -220.339279 953.595581
v 433.999634 -219.659775 953.595581
v 435.456116 -220.444473 953.595581
v 435.456116 -220.444473 889.413574
v 436.717346 -221.124084 889.413574
v 436.717346 -221.124084 953.595581
v 436.912628 -221.229279 889.413574
v 439.435120 -222.588470 889.413574
v 439.435120 -222.588470 953.595581
v 436.912628 -221.229279 953.595581
v 439.630310 -222.693680 953.595581
v 439.630310 -222.693680 889.413574
v 440.891541 -223.373276 889.413574
v 440.891541 -223.373276 953.595581
v 441.086823 -223.478485 889.413574
v 443.609314 -224.837677 889.413574
v 443.609314 -224.837677 953.595581
v 441.086823 -223.478485 953.595581
v 425.274109 -196.087585 953.595581
v 425.274109 -196.087585 889.413574
v 417.794312 -209.959183 889.413574
v 417.794312 -209.959183 953.595581
v 430.369446 -197.868271 889.413574
v 426.587036 -195.826981 889.413574
v 426.587036 -195.826981 953.595581
v 430.369446 -197.868271 953.595581
v 432.801819 -195.532883 953.595581
v 432.801819 -195.532883 889.413574
v 431.442139 -198.055084 889.413574
v 431.442139 -198.055084 953.595581
v 433.632751 -193.991577 889.413574
v 432.952820 -195.252777 889.413574
v 432.952820 -195.252777 953.595581
v 433.632751 -193.991577 953.595581
v 435.143433 -191.189285 889.413574
v 433.783752 -193.711472 889.413574
v 433.783752 -193.711472 953.595581
v 435.143433 -191.189285 953.595581
v 435.974335 -189.648071 889.413574
v 435.294434 -190.909180 889.413574
v 435.294434 -190.909180 953.595581
v 435.974335 -189.648071 953.595581
v 436.632935 -188.426285 953.595581
v 438.844727 -184.323471 889.413574
v 436.125336 -189.367874 889.413574
v 438.844727 -184.323471 953.595581
v 436.125336 -189.367874 953.595581
v 440.355408 -181.521072 889.413574
v 438.995728 -184.043274 889.413574
v 438.995728 -184.043274 953.595581
v 440.355408 -181.521072 953.595581
v 442.546021 -177.457581 889.413574
v 440.506531 -181.240982 889.413574
v 440.506531 -181.240982 953.595581
v 442.546021 -177.457581 953.595581
v 444.056824 -174.655273 953.595581
v 444.056824 -174.655273 889.413574
v 442.697021 -177.177475 889.413574
v 442.697021 -177.177475 953.595581
v 446.927246 -169.330673 953.595581
v 446.927246 -169.330673 889.413574
v 444.207825 -174.375183 889.413574
v 444.207825 -174.375183 953.595581
v 447.758118 -167.789474 953.595581
v 447.758118 -167.789474 889.413574
v 447.078247 -169.050583 889.413574
v 447.078247 -169.050583 953.595581
v 449.268829 -164.987076 953.595581
v 449.268829 -164.987076 889.413574
v 447.909119 -167.509277 889.413574
v 447.909119 -167.509277 953.595581
v 450.099731 -163.445877 889.413574
v 449.419830 -164.706985 889.413574
v 449.419830 -164.706985 953.595581
v 450.099731 -163.445877 953.595581
v 451.610413 -160.643478 889.413574
v 450.250732 -163.165680 889.413574
v 450.250732 -163.165680 953.595581
v 451.610413 -160.643478 953.595581
v 444.258240 -224.361282 889.413574
v 452.419128 -209.229279 889.413574
v 452.419128 -209.229279 953.595581
v 444.258240 -224.361282 953.595581
v 446.833252 -204.253876 889.413574
v 452.958435 -192.907379 889.413574
v 452.958435 -192.907379 953.595581
v 446.833252 -204.253876 953.595581
v 452.083252 -208.221771 953.595581
v 452.083252 -208.221771 889.413574
v 447.039612 -205.500671 889.413574
v 447.039612 -205.500671 953.595581
v 467.410217 -168.772476 889.413574
v 452.278229 -160.611679 889.413574
v 452.278229 -160.611679 953.595581
v 467.410217 -168.772476 953.595581
v 453.913818 -191.135574 953.595581
v 453.913818 -191.135574 889.413574
v 459.348938 -181.044678 889.413574
v 459.348938 -181.044678 953.595581
v 460.133728 -180.315079 953.595581
v 460.133728 -180.315079 889.413574
v 461.148132 -180.858475 889.413574
v 461.148132 -180.858475 953.595581
v 461.622009 -180.706879 953.595581
v 461.622009 -180.706879 889.413574
v 467.745422 -169.359375 889.413574
v 467.745422 -169.359375 953.595581
vt 0.000000 0.000000
vt 0.500000 0.000000
vt 0.500000 4.500000
vt 0.000000 4.500000
vt 0.000000 0.000000
vt 0.250000 0.000000
vt 0.250000 4.500000
vt 0.000000 4.500000
vt 0.000000 0.000000
vt 0.500000 0.000000
vt 0.500000 4.500000
vt 0.000000 4.500000
vt 0.000000 4.500000
vt 0.000000 0.000000
vt 0.250000 0.000000
vt 0.250000 4.500000
vt 0.000000 4.500000
vt 0.000000 0.000000
vt 0.250000 0.000000
vt 0.250000 4.500000
vt 0.000000 0.000000
vt 1.250000 0.000000
vt 1.250000 4.500000
vt 0.000000 4.500000
vt 0.000000 4.500000
vt 0.000000 0.000000
vt 0.250000 0.000000
vt 0.250000 4.500000
vt 0.000000 0.000000
vt 0.500000 0.000000
vt 0.500000 4.500000
vt 0.000000 4.500000
vt 0.000000 4.500000
vt 0.000000 0.000000
vt 0.250000 0.000000
vt 0.250000 4.500000
vt 0.000000 0.000000
vt 0.500000 0.000000
vt 0.500000 4.500000
vt 0.000000 4.500000
vt 0.000000 4.500000
vt 0.000000 0.000000
vt 2.750000 0.000000
vt 2.750000 4.500000
vt 0.000000 0.000000
vt 0.750000 0.000000
vt 0.750000 4.500000
vt 0.000000 4.500000
vt 0.000000 4.500000
vt 0.000000 0.000000
vt 0.500000 0.000000
vt 0.500000 4.500000
vt 0.000000 0.000000
vt 0.250000 0.000000
vt 0.250000 4.500000
vt 0.000000 4.500000
vt 0.000000 0.000000
vt 0.500000 0.000000
vt 0.500000 4.500000
vt 0.000000 4.500000
vt 0.000000 0.000000
vt 0.250000 0.000000
vt 0.250000 4.500000
vt 0.000000 4.500000
vt 0.813330 4.500000
vt 0.000000 0.000000
vt 1.000000 0.000000
vt 0.000000 4.500000
vt 1.000000 4.500000
vt 0.000000 0.000000
vt 0.500000 0.000000
vt 0.500000 4.500000
vt 0.000000 4.500000
vt 0.000000 0.000000
vt 0.750000 0.000000
vt 0.750000 4.500000
vt 0.000000 4.500000
vt 0.000000 4.500000
vt 0.000000 0.000000
vt 0.500000 0.000000
vt 0.500000 4.500000
vt 0.000000 4.500000
vt 0.000000 0.000000
vt 1.000000 0.000000
vt 1.000000 4.500000
vt 0.000000 4.500000
vt 0.000000 0.000000
vt 0.250000 0.000000
vt 0.250000 4.500000
vt 0.000000 4.500000
vt 0.000000 0.000000
vt 0.500000 0.000000
vt 0.500000 4.500000
vt 0.000000 0.000000
vt 0.250000 0.000000
vt 0.250000 4.500000
vt 0.000000 4.500000
vt 0.000000 0.000000
vt 0.500000 0.000000
vt 0.500000 4.500000
vt 0.000000 4.500000
vt 0.000000 0.000000
vt 3.000000 0.000000
vt 3.000000 4.500000
vt 0.000000 4.500000
vt 0.000000 0.000000
vt 2.250000 0.000000
vt 2.250000 4.500000
vt 0.000000 4.500000
vt 0.000000 4.500000
vt 0.000000 0.000000
vt 1.000000 0.000000
vt 1.000000 4.500000
vt 0.000000 0.000000
vt 3.000000 0.000000
vt 3.000000 4.500000
vt 0.000000 4.500000
vt 0.000000 4.500000
vt 0.000000 0.000000
vt 2.000000 0.000000
vt 2.000000 4.500000
vt 0.000000 4.500000
vt 0.000000 0.000000
vt 0.250000 0.000000
vt 0.250000 4.500000
vt 0.000000 4.500000
vt 0.000000 0.000000
vt 2.250000 0.000000
vt 2.250000 4.500000
vt 0.000000 0.000000
vt 0.250000 0.000000
vt 0.250000 4.500000
vt 0.000000 4.500000
vn -0.4743 -0.8803 0.0000
vn -0.4744 -0.8803 0.0000
vn -0.4743 -0.8804 0.0000
vn -0.8802 0.4746 0.0000
vn 0.4749 0.8800 0.0000
vn -0.8802 0.4745 0.0000
vn -0.8803 0.4745 0.0000
vn 0.8802 -0.4747 0.0000
vn 0.8800 -0.4750 0.0000
vn 0.4748 0.8801 0.0000
vn 0.4747 0.8802 0.0000
vn 0.8804 -0.4742 0.0000
vn -0.4722 -0.8815 0.0000
vn 0.8800 -0.4749 0.0000
s off
f 1/1/1 2/2/1 3/3/1
f 4/4/2 1/1/2 3/3/2
f 5/5/2 6/6/2 7/7/2
f 8/8/2 5/5/2 7/7/2
f 9/9/3 10/10/3 11/11/3
f 12/12/1 9/9/1 11/11/1
f 13/13/2 14/14/2 15/15/2
f 13/13/2 15/15/2 16/16/2
f 17/17/1 18/18/1 19/19/1
f 17/17/2 19/19/2 20/20/2
f 21/21/1 22/22/1 23/23/1
f 24/24/1 21/21/1 23/23/1
f 29/25/2 30/26/2 31/27/2
f 29/25/2 31/27/2 32/28/2
f 33/29/2 34/30/2 35/31/2
f 36/32/2 33/29/2 35/31/2
f 37/33/2 38/34/2 39/35/2
f 37/33/2 39/35/2 40/36/2
f 41/37/2 42/38/2 43/39/2
f 44/40/2 41/37/2 43/39/2
f 45/41/4 46/42/4 47/43/4
f 45/41/4 47/43/4 48/44/4
f 49/45/5 50/46/5 51/47/5
f 52/48/5 49/45/5 51/47/5
f 53/49/6 54/50/6 55/51/6
f 53/49/6 55/51/6 56/52/6
f 57/53/6 58/54/6 59/55/6
f 60/56/4 57/53/4 59/55/4
f 61/57/6 62/58/6 63/59/6
f 64/60/6 61/57/6 63/59/6
f 65/61/4 66/62/4 67/63/4
f 68/64/6 65/61/6 67/63/6
f 69/65/6 70/66/6 71/67/6
f 72/68/6 70/66/6 69/65/6
f 69/65/4 71/67/4 73/69/4
f 74/70/6 75/71/6 76/72/6
f 77/73/6 74/70/6 76/72/6
f 78/74/7 79/75/7 80/76/7
f 81/77/7 78/74/7 80/76/7
f 82/78/4 83/79/4 84/80/4
f 82/78/4 84/80/4 85/81/4
f 86/82/6 87/83/6 88/84/6
f 86/82/6 88/84/6 89/85/6
f 90/86/6 91/87/6 92/88/6
f 90/86/4 92/88/4 93/89/4
f 94/90/6 95/91/6 96/92/6
f 94/90/6 96/92/6 97/93/6
f 98/94/4 99/95/4 100/96/4
f 101/97/4 98/94/4 100/96/4
f 102/98/6 103/99/6 104/100/6
f 105/101/6 102/98/6 104/100/6
f 106/102/8 107/103/8 108/104/8
f 109/105/8 106/102/8 108/104/8
f 110/106/9 111/107/9 112/108/9
f 113/109/9 110/106/9 112/108/9
f 114/110/10 115/111/10 116/112/10
f 114/110/10 116/112/10 117/113/10
f 118/114/11 119/115/11 120/116/11
f 121/117/11 118/114/11 120/116/11
f 122/118/12 123/119/12 124/120/12
f 122/118/12 124/120/12 125/121/12
f 126/122/13 127/123/13 128/124/13
f 126/122/13 128/124/13 129/125/13
f 130/126/14 131/127/14 132/128/14
f 130/126/14 132/128/14 133/129/14
s 1
f 25/130/3 26/131/3 27/132/3
f 28/133/3 25/130/3 27/132/3
