# Blender v3.0.1 OBJ File: 'rockerfeller_plaza.blend'
# www.blender.org
o geometryt000010000010000110010110000110000110100000010110st122
v 1176.855957 -322.879364 189.105377
v 1178.327026 -323.658966 189.105377
v 1178.327026 -323.658966 193.578568
v 1176.855957 -322.879364 193.578568
v 1182.660645 -309.565063 193.578568
v 1188.737183 -298.206055 189.105377
v 1176.171509 -321.695282 189.105377
v 1188.737183 -298.206055 193.578568
v 1176.171509 -321.695282 193.578568
v 1180.050781 -324.573181 189.105377
v 1193.285400 -331.600159 189.105377
v 1193.285400 -331.600159 257.578583
v 1180.050781 -324.573181 257.578583
v 1192.054199 -300.041260 257.578583
v 1192.054199 -300.041260 193.578568
v 1191.417603 -301.252380 193.578568
v 1179.659912 -323.621368 257.578583
v 1179.659912 -323.621368 193.578568
v 1194.238159 -331.491272 189.105377
v 1222.515137 -278.642883 189.105377
v 1222.515137 -278.642883 257.578583
v 1194.238159 -331.491272 257.578583
v 1204.893066 -269.515381 193.578568
v 1204.893066 -269.515381 189.105377
v 1197.033691 -284.193085 189.105377
v 1197.033691 -284.193085 193.578568
v 1207.456055 -270.898682 257.578583
v 1207.456055 -270.898682 193.578568
v 1207.197632 -271.388580 193.578568
v 1199.687012 -285.624176 257.578583
v 1199.687012 -285.624176 193.578568
v 1207.263916 -269.931061 189.105377
v 1205.795044 -269.147369 189.105377
v 1205.795044 -269.147369 193.578568
v 1207.263916 -269.931061 193.578568
v 1221.909424 -277.706573 257.578583
v 1221.909424 -277.706573 189.105377
v 1208.674072 -270.681183 189.105377
v 1208.674072 -270.681183 257.578583
vt 0.000000 0.000000
vt 0.166670 0.000000
vt 0.166670 0.250000
vt 0.000000 0.250000
vt 1.289560 0.250000
vt 0.000000 0.000000
vt 2.666670 0.000000
vt 0.000000 0.250000
vt 2.666670 0.250000
vt 0.000000 0.000000
vt 1.500000 0.000000
vt 1.500000 4.500000
vt 0.000000 4.500000
vt 0.000000 4.250000
vt 0.000000 0.000000
vt 0.136960 0.000000
vt 2.666670 4.250000
vt 2.666670 0.000000
vt 0.000000 0.000000
vt 6.000000 0.000000
vt 6.000000 4.500000
vt 0.000000 4.500000
vt 0.000000 0.250000
vt 0.000000 0.000000
vt 1.666670 0.000000
vt 1.666670 0.250000
vt 0.000000 4.250000
vt 0.000000 0.000000
vt 0.055450 0.000000
vt 1.666670 4.250000
vt 1.666670 0.000000
vt 0.000000 0.000000
vt 0.166670 0.000000
vt 0.166670 0.250000
vt 0.000000 0.250000
vt 0.000000 4.500000
vt 0.000000 0.000000
vt 1.500000 0.000000
vt 1.500000 4.500000
vn -0.4683 -0.8836 0.0000
vn -0.4682 -0.8836 0.0000
vn -0.8818 0.4717 0.0000
vn -0.4690 -0.8832 0.0000
vn -0.8851 0.4653 0.0000
vn -0.8852 0.4653 0.0000
vn 0.8817 -0.4718 0.0000
vn -0.8816 0.4720 0.0000
vn -0.8846 0.4664 0.0000
vn -0.8844 0.4666 0.0000
vn -0.8845 0.4666 -0.0000
vn 0.4707 0.8823 0.0000
vn 0.4688 0.8833 0.0000
s off
f 1/1/1 2/2/1 3/3/1
f 4/4/2 1/1/2 3/3/2
f 5/5/3 6/6/3 7/7/3
f 8/8/3 6/6/3 5/5/3
f 5/5/3 7/7/3 9/9/3
f 10/10/4 11/11/4 12/12/4
f 13/13/4 10/10/4 12/12/4
f 14/14/5 15/15/5 16/16/5
f 17/17/6 16/16/6 18/18/6
f 17/17/6 14/14/6 16/16/6
f 19/19/7 20/20/7 21/21/7
f 22/22/7 19/19/7 21/21/7
f 23/23/8 24/24/8 25/25/8
f 23/23/8 25/25/8 26/26/8
f 27/27/9 28/28/9 29/29/9
f 30/30/10 29/29/10 31/31/10
f 30/30/11 27/27/11 29/29/11
f 32/32/12 33/33/12 34/34/12
f 35/35/12 32/32/12 34/34/12
f 36/36/13 37/37/13 38/38/13
f 36/36/13 38/38/13 39/39/13
