# Blender v3.0.1 OBJ File: 'rockerfeller_plaza.blend'
# www.blender.org
o geometryt000010000010000110010110000110000110100000010110st149
v 1037.340942 -157.663269 223.249039
v 1037.340942 -157.663269 190.098358
v 1050.435547 -164.688065 190.098358
v 1050.435547 -164.688065 223.249039
v 1050.478149 -131.705673 190.098358
v 1037.003662 -156.798264 190.098358
v 1037.003662 -156.798264 223.249039
v 1050.478149 -131.705673 223.249039
v 1064.480469 -138.533371 190.098358
v 1051.385742 -131.508469 190.098358
v 1051.385742 -131.508469 223.249039
v 1064.480469 -138.533371 223.249039
v 1056.469482 -154.944473 223.249039
v 1051.343140 -164.490875 190.098358
v 1064.817749 -139.398376 190.098358
v 1051.343140 -164.490875 223.249039
v 1064.817749 -139.398376 223.249039
vt 0.000000 3.666670
vt 0.000000 0.000000
vt 3.000000 0.000000
vt 3.000000 3.666670
vt 0.000000 0.000000
vt 5.750000 0.000000
vt 5.750000 3.666670
vt 0.000000 3.666670
vt 2.187570 3.666670
vt 0.000000 0.000000
vt 5.750000 0.000000
vt 0.000000 3.666670
vt 5.750000 3.666670
vt 0.000000 0.000000
vt 3.000000 0.000000
vt 3.000000 3.666670
vt 0.000000 3.666670
vn -0.4727 -0.8812 0.0000
vn -0.8810 0.4731 0.0000
vn 0.8810 -0.4731 0.0000
vn 0.4727 0.8812 0.0000
s off
f 1/1/1 2/2/1 3/3/1
f 1/1/1 3/3/1 4/4/1
f 5/5/2 6/6/2 7/7/2
f 8/8/2 5/5/2 7/7/2
f 13/9/3 14/10/3 15/11/3
f 16/12/3 14/10/3 13/9/3
f 13/9/3 15/11/3 17/13/3
s 1
f 9/14/4 10/15/4 11/16/4
f 12/17/4 9/14/4 11/16/4
