# Blender v3.0.1 OBJ File: 'rockerfeller_plaza.blend'
# www.blender.org
o geometryt000010000010000110010110000110000100110010110010st111
v 202.330704 -258.616882 290.582092
v 229.370712 -273.247284 290.582092
v 218.362000 -293.603058 290.582092
v 187.685211 -285.687256 290.582092
v 216.254501 -297.502167 290.582092
v 214.725311 -300.317657 290.582092
v 187.685211 -285.687256 359.082092
v 214.725311 -300.317657 359.082092
v 216.254501 -297.502167 359.082092
v 218.362000 -293.603058 359.082092
v 202.330704 -258.616882 359.082092
v 229.370712 -273.247284 359.082092
vt 0.407280 0.395390
vt 0.425300 0.449550
vt 0.465840 0.426890
vt 0.461190 0.365240
vt 0.473610 0.422550
vt 0.479220 0.419400
vt 0.461190 0.365240
vt 0.479220 0.419400
vt 0.473610 0.422550
vt 0.465840 0.426890
vt 0.407280 0.395390
vt 0.425300 0.449550
vn -0.0000 0.0000 -1.0000
vn -0.0000 0.0000 1.0000
s off
f 1/1/1 2/2/1 3/3/1
f 3/3/1 4/4/1 1/1/1
f 5/5/1 4/4/1 3/3/1
f 5/5/1 6/6/1 4/4/1
f 7/7/2 8/8/2 9/9/2
f 10/10/2 7/7/2 9/9/2
f 11/11/2 7/7/2 10/10/2
f 12/12/2 11/11/2 10/10/2
