# Blender v3.0.1 OBJ File: 'rockerfeller_plaza.blend'
# www.blender.org
o geometryt000010000010000110010110000110000110100000010100st57
v 847.632690 -248.133392 150.882355
v 835.256348 -271.126862 150.882355
v 835.256348 -271.126862 173.639069
v 847.632690 -248.133392 173.639069
v 835.243835 -272.121277 150.882355
v 840.991577 -275.216461 150.882355
v 840.991577 -275.216461 173.639069
v 835.243835 -272.121277 173.639069
v 841.816772 -274.654175 173.639069
v 841.816772 -274.654175 150.882355
v 854.188599 -251.658279 150.882355
v 854.188599 -251.658279 173.639069
v 854.205444 -250.661392 173.639069
v 854.205444 -250.661392 150.882355
v 848.453613 -247.573578 150.882355
v 848.453613 -247.573578 173.639069
vt 0.000000 0.000000
vt 1.250000 0.000000
vt 1.250000 1.500000
vt 0.000000 1.500000
vt 0.000000 0.000000
vt 0.312500 0.000000
vt 0.312500 1.500000
vt 0.000000 1.500000
vt 0.000000 1.500000
vt 0.000000 0.000000
vt 1.250000 0.000000
vt 1.250000 1.500000
vt 0.000000 1.500000
vt 0.000000 0.000000
vt 0.312500 0.000000
vt 0.312500 1.500000
vn -0.8805 0.4740 0.0000
vn -0.4741 -0.8805 0.0000
vn 0.8806 -0.4738 0.0000
vn 0.4730 0.8811 0.0000
s off
f 1/1/1 2/2/1 3/3/1
f 4/4/1 1/1/1 3/3/1
f 5/5/2 6/6/2 7/7/2
f 8/8/2 5/5/2 7/7/2
f 9/9/3 10/10/3 11/11/3
f 9/9/3 11/11/3 12/12/3
s 1
f 13/13/4 14/14/4 15/15/4
f 13/13/4 15/15/4 16/16/4
