# Blender v3.0.1 OBJ File: 'rockerfeller_plaza.blend'
# www.blender.org
o geometryt000010000010000110010110000110000110100000110000st131
v 887.041931 -226.479843 424.305756
v 875.523071 -247.830734 424.305756
v 872.821472 -246.374542 424.305756
v 879.056152 -222.165436 424.305756
v 869.764160 -252.050232 424.305756
v 867.674255 -250.919937 424.305756
v 864.471436 -249.192139 424.305756
v 864.471436 -249.192139 450.005768
v 872.821472 -246.374542 450.005768
v 879.056152 -222.165436 450.005768
v 887.041931 -226.479843 450.005768
v 867.674255 -250.919937 450.005768
v 869.764160 -252.050232 450.005768
v 875.523071 -247.830734 450.005768
vt 0.368190 0.273190
vt 0.410710 0.249470
vt 0.408920 0.244060
vt 0.362880 0.257200
vt 0.420220 0.237760
vt 0.418820 0.233580
vt 0.416700 0.227160
vt 0.416700 0.227160
vt 0.408920 0.244060
vt 0.362880 0.257200
vt 0.368190 0.273190
vt 0.418820 0.233580
vt 0.420220 0.237760
vt 0.410710 0.249470
vn -0.0000 0.0000 -1.0000
vn 0.0000 0.0000 1.0000
s off
f 1/1/1 2/2/1 3/3/1
f 3/3/1 4/4/1 1/1/1
f 5/5/1 6/6/1 3/3/1
f 6/6/1 7/7/1 3/3/1
f 3/3/1 7/7/1 4/4/1
f 8/8/2 9/9/2 10/10/2
f 9/9/2 11/11/2 10/10/2
f 9/9/2 8/8/2 12/12/2
f 13/13/2 9/9/2 12/12/2
f 9/9/2 14/14/2 11/11/2
