# Blender v3.0.1 OBJ File: 'rockerfeller_plaza.blend'
# www.blender.org
o geometryt000010000010000110010110000110000100110110010010st41_T
v 164.829147 -56.251938 887.705811
v 164.829147 -56.251938 855.705811
v 165.610443 -56.670811 855.705811
v 165.610443 -56.670811 887.705811
v 194.392151 -72.101753 887.705811
v 194.392151 -72.101753 855.705811
v 195.173340 -72.520622 855.705811
v 195.173340 -72.520622 887.705811
v 165.113342 -55.724358 887.705811
v 165.113342 -55.724358 855.705811
v 164.829147 -56.251938 855.705811
v 164.829147 -56.251938 887.705811
v 166.134949 -53.827641 887.705811
v 166.134949 -53.827641 855.705811
v 165.850845 -54.355228 855.705811
v 165.850845 -54.355228 887.705811
v 166.932846 -54.254780 887.705811
v 166.932846 -54.254780 855.705811
v 166.134949 -53.827641 855.705811
v 166.134949 -53.827641 887.705811
v 196.521347 -70.095833 887.705811
v 196.521347 -70.095833 855.705811
v 195.723541 -69.668709 855.705811
v 195.723541 -69.668709 887.705811
v 195.173340 -72.520622 887.705811
v 195.173340 -72.520622 855.705811
v 195.469543 -71.987823 855.705811
v 195.469543 -71.987823 887.705811
v 196.225143 -70.628639 887.705811
v 196.225143 -70.628639 855.705811
v 196.521347 -70.095833 855.705811
v 196.521347 -70.095833 887.705811
vt 0.000000 27.801910
vt 0.000000 0.000000
vt 0.770180 0.000000
vt 0.770180 27.801910
vt 29.143141 27.801910
vt 29.143141 0.000000
vt 29.913309 0.000000
vt 29.913309 27.801910
vt 1.871730 27.801910
vt 1.871730 0.000000
vt 2.392370 0.000000
vt 2.392370 27.801910
vt 0.000000 27.801910
vt 0.000000 0.000000
vt 0.520640 0.000000
vt 0.520640 27.801910
vt 29.159189 27.801910
vt 29.159189 0.000000
vt 29.945431 0.000000
vt 29.945431 27.801910
vt 0.000000 27.801910
vt 0.000000 0.000000
vt 0.786240 0.000000
vt 0.786240 27.801910
vt 0.000000 27.801910
vt 0.000000 0.000000
vt 0.529620 0.000000
vt 0.529620 27.801910
vt 1.880720 27.801910
vt 1.880720 0.000000
vt 2.410340 0.000000
vt 2.410340 27.801910
vn -0.4725 -0.8813 0.0000
vn -0.4726 -0.8813 0.0000
vn -0.8804 0.4742 0.0000
vn -0.8804 0.4743 0.0000
vn -0.8804 0.4741 0.0000
vn -0.8805 0.4741 0.0000
vn 0.4720 0.8816 0.0000
vn 0.8740 -0.4859 0.0000
s off
f 1/1/1 2/2/1 3/3/1
f 1/1/1 3/3/1 4/4/1
f 5/5/2 6/6/2 7/7/2
f 5/5/2 7/7/2 8/8/2
f 9/9/3 10/10/3 11/11/3
f 9/9/4 11/11/4 12/12/4
f 13/13/5 14/14/5 15/15/5
f 13/13/6 15/15/6 16/16/6
f 17/17/7 18/18/7 19/19/7
f 17/17/7 19/19/7 20/20/7
f 21/21/7 22/22/7 23/23/7
f 21/21/7 23/23/7 24/24/7
f 25/25/8 26/26/8 27/27/8
f 25/25/8 27/27/8 28/28/8
f 29/29/8 30/30/8 31/31/8
f 29/29/8 31/31/8 32/32/8
