# Blender v3.0.1 OBJ File: 'rockerfeller_plaza.blend'
# www.blender.org
o geometryt000010000010000110010110000110000110100100000000st117_
v 537.778320 -349.956787 1032.832397
v 537.778320 -349.956787 1029.032349
v 537.537964 -350.401184 1029.032349
v 537.537964 -350.401184 1032.832397
v 540.257141 -345.373566 1032.832397
v 540.257141 -345.373566 1029.032349
v 540.016846 -345.817993 1029.032349
v 540.016846 -345.817993 1032.832397
v 537.537964 -350.401184 1032.832397
v 537.537964 -350.401184 1029.032349
v 538.132324 -350.719269 1029.032349
v 538.132324 -350.719269 1032.832397
v 543.663635 -353.679779 1032.832397
v 543.663635 -353.679779 1029.032349
v 544.257935 -353.997864 1029.032349
v 544.257935 -353.997864 1032.832397
v 540.851440 -345.691681 1032.832397
v 540.851440 -345.691681 1029.032349
v 540.257141 -345.373566 1029.032349
v 540.257141 -345.373566 1032.832397
v 546.977173 -348.970276 1032.832397
v 546.977173 -348.970276 1029.032349
v 546.382812 -348.652191 1029.032349
v 546.382812 -348.652191 1032.832397
v 544.257935 -353.997864 1032.832397
v 544.257935 -353.997864 1029.032349
v 544.344238 -353.838379 1029.032349
v 544.498291 -353.553467 1029.032349
v 544.498291 -353.553467 1032.832397
v 546.736694 -349.414673 1032.832397
v 546.736694 -349.414673 1029.032349
v 546.977173 -348.970276 1029.032349
v 546.977173 -348.970276 1032.832397
vt 2.688650 1.960790
vt 2.688650 0.000000
vt 2.949360 0.000000
vt 2.949360 1.960790
vt 0.000000 1.960790
vt 0.000000 0.000000
vt 0.260710 0.000000
vt 0.260710 1.960790
vt 0.000000 1.960790
vt 0.000000 0.000000
vt 0.347830 0.000000
vt 0.347830 1.960790
vt 3.585070 1.960790
vt 3.585070 0.000000
vt 3.932900 0.000000
vt 3.932900 1.960790
vt 3.585070 1.960790
vt 3.585070 0.000000
vt 3.932900 0.000000
vt 3.932900 1.960790
vt 0.000000 1.960790
vt 0.000000 0.000000
vt 0.347830 0.000000
vt 0.347830 1.960790
vt 0.000000 1.960790
vt 0.000000 0.000000
vt 0.093570 0.000000
vt 0.260710 0.000000
vt 0.260710 1.960790
vt 2.688650 1.960790
vt 2.688650 0.000000
vt 2.949360 0.000000
vt 2.949360 1.960790
vn -0.8796 0.4757 0.0000
vn -0.8797 0.4756 0.0000
vn -0.4719 -0.8817 0.0000
vn -0.4718 -0.8817 0.0000
vn 0.4719 0.8816 0.0000
vn 0.4719 0.8817 0.0000
vn 0.4718 0.8817 0.0000
vn 0.8797 -0.4756 0.0000
vn 0.8796 -0.4756 0.0000
vn 0.8795 -0.4758 0.0000
vn 0.8794 -0.4760 0.0000
s off
f 1/1/1 2/2/1 3/3/1
f 1/1/1 3/3/1 4/4/1
f 5/5/2 6/6/2 7/7/2
f 5/5/2 7/7/2 8/8/2
f 9/9/3 10/10/3 11/11/3
f 9/9/3 11/11/3 12/12/3
f 13/13/4 14/14/4 15/15/4
f 13/13/3 15/15/3 16/16/3
f 17/17/5 18/18/5 19/19/5
f 17/17/6 19/19/6 20/20/6
f 21/21/7 22/22/7 23/23/7
f 21/21/7 23/23/7 24/24/7
f 25/25/8 26/26/8 27/27/8
f 27/27/9 28/28/9 29/29/9
f 25/25/10 27/27/10 29/29/10
f 30/30/10 31/31/10 32/32/10
f 30/30/11 32/32/11 33/33/11
