# Blender v3.0.1 OBJ File: 'rockerfeller_plaza.blend'
# www.blender.org
o geometryt000010000010000110010110000110000100110010110110st135
v 48.090904 -150.749817 565.323853
v 48.389782 -150.922119 584.327698
v 48.090904 -150.749817 584.327698
v 46.819061 -150.016525 565.323853
v 48.389782 -150.922119 564.827698
v 46.819061 -150.016525 584.327698
v 46.648842 -149.918320 584.327698
v 46.648842 -149.918320 565.323853
v 44.105164 -148.451721 565.323853
v 44.105164 -148.451721 584.327698
v 43.934944 -148.353531 584.327698
v 43.934944 -148.353531 565.323853
v 41.391262 -146.886917 565.323853
v 41.391262 -146.886917 584.327698
v 41.221043 -146.788727 584.327698
v 41.221043 -146.788727 565.323853
v 39.949203 -146.055420 565.323853
v 39.949203 -146.055420 584.327698
v 39.778984 -145.957230 584.327698
v 39.778984 -145.957230 565.323853
v 37.235294 -144.490631 565.323853
v 37.235294 -144.490631 584.327698
v 37.065075 -144.392426 584.327698
v 37.065075 -144.392426 565.323853
v 33.249554 -142.192429 565.323853
v 21.924843 -135.662720 564.827698
v 33.249554 -142.192429 584.327698
v 33.079334 -142.094330 584.327698
v 33.079334 -142.094330 565.323853
v 30.535656 -140.627625 565.323853
v 30.535656 -140.627625 584.327698
v 30.365433 -140.529526 584.327698
v 30.365433 -140.529526 565.323853
v 29.093594 -139.796219 565.323853
v 29.093594 -139.796219 584.327698
v 28.923363 -139.698029 584.327698
v 28.923363 -139.698029 565.323853
v 26.379684 -138.231323 565.323853
v 26.379684 -138.231323 584.327698
v 26.209465 -138.133224 584.327698
v 26.209465 -138.133224 565.323853
v 23.665783 -136.666519 565.323853
v 23.665783 -136.666519 584.327698
v 23.495564 -136.568420 584.327698
v 23.495564 -136.568420 565.323853
v 22.223724 -135.835129 565.323853
v 22.223724 -135.835129 584.327698
v 21.924843 -135.662720 584.327698
v 22.436234 -134.719528 565.323853
v 21.924843 -135.662720 584.327698
v 22.436234 -134.719528 584.327698
v 28.034374 -124.394722 565.323853
v 21.924843 -135.662720 564.827698
v 28.034374 -124.394722 584.327698
v 28.545765 -123.451523 584.327698
v 28.545765 -123.451523 564.827698
v 28.848995 -123.616020 565.323853
v 28.545765 -123.451523 584.327698
v 28.848995 -123.616020 584.327698
v 30.139343 -124.316322 565.323853
v 28.545765 -123.451523 564.827698
v 30.139343 -124.316322 584.327698
v 30.402122 -124.458923 584.327698
v 30.402122 -124.458923 565.323853
v 32.982822 -125.859421 565.323853
v 32.982822 -125.859421 584.327698
v 33.245594 -126.002022 584.327698
v 33.245594 -126.002022 565.323853
v 35.826294 -127.402527 565.323853
v 35.826294 -127.402527 584.327698
v 36.089066 -127.545120 584.327698
v 36.089066 -127.545120 565.323853
v 37.379414 -128.245331 565.323853
v 37.379414 -128.245331 584.327698
v 37.642193 -128.387924 584.327698
v 37.642193 -128.387924 565.323853
v 40.222893 -129.788422 565.323853
v 40.222893 -129.788422 584.327698
v 40.485664 -129.931030 584.327698
v 40.485664 -129.931030 565.323853
v 52.162792 -136.268021 564.827698
v 43.066364 -131.331528 565.323853
v 43.066364 -131.331528 584.327698
v 43.329144 -131.474121 584.327698
v 43.329144 -131.474121 565.323853
v 44.619492 -132.174423 565.323853
v 44.619492 -132.174423 584.327698
v 44.882263 -132.317017 584.327698
v 44.882263 -132.317017 565.323853
v 47.462963 -133.717529 565.323853
v 47.462963 -133.717529 584.327698
v 47.725742 -133.860123 584.327698
v 47.725742 -133.860123 565.323853
v 50.306442 -135.260620 565.323853
v 50.306442 -135.260620 584.327698
v 50.569214 -135.403229 584.327698
v 50.569214 -135.403229 565.323853
v 51.859562 -136.103424 565.323853
v 51.859562 -136.103424 584.327698
v 52.162792 -136.268021 584.327698
v 51.923542 -137.197220 565.323853
v 52.162792 -136.268021 584.327698
v 51.923542 -137.197220 584.327698
v 48.629032 -149.992920 565.323853
v 52.162792 -136.268021 564.827698
v 48.629032 -149.992920 584.327698
v 48.389782 -150.922119 584.327698
v 48.389782 -150.922119 564.827698
vt 30.325310 0.580280
vt 30.671700 22.807020
vt 30.325310 22.807020
vt 28.851311 0.580280
vt 30.671700 0.000000
vt 28.851311 22.807020
vt 28.654030 22.807020
vt 28.654030 0.580280
vt 25.706011 0.580280
vt 25.706011 22.807020
vt 25.508730 22.807020
vt 25.508730 0.580280
vt 22.560720 0.580280
vt 22.560720 22.807020
vt 22.363440 22.807020
vt 22.363440 0.580280
vt 20.889429 0.580280
vt 20.889429 22.807020
vt 20.692150 22.807020
vt 20.692150 0.580280
vt 17.744141 0.580280
vt 17.744141 22.807020
vt 17.546860 22.807020
vt 17.546860 0.580280
vt 13.124840 0.580280
vt 0.000000 0.000000
vt 13.124840 22.807020
vt 12.927560 22.807020
vt 12.927560 0.580280
vt 9.979540 0.580280
vt 9.979540 22.807020
vt 9.782271 22.807020
vt 9.782271 0.580280
vt 8.308260 0.580280
vt 8.308260 22.807020
vt 8.110980 22.807020
vt 8.110980 0.580280
vt 5.162970 0.580280
vt 5.162970 22.807020
vt 4.965690 22.807020
vt 4.965690 0.580280
vt 2.017670 0.580280
vt 2.017670 22.807020
vt 1.820390 22.807020
vt 1.820390 0.580280
vt 0.346390 22.807020
vt 0.000000 22.807020
vt 0.346390 0.580280
vt 12.869270 0.580280
vt 13.946490 22.807020
vt 12.869270 22.807020
vt 1.077210 0.580280
vt 13.946490 0.000000
vt 1.077210 22.807020
vt 0.000000 22.807020
vt 0.000000 0.000000
vt 26.632080 0.580280
vt 26.978460 22.807020
vt 26.632080 22.807020
vt 25.158070 0.580280
vt 26.978460 0.000000
vt 25.158070 22.807020
vt 24.857901 22.807020
vt 24.857901 0.580280
vt 21.909880 22.807020
vt 21.609711 22.807020
vt 21.909880 0.580280
vt 21.609711 0.580280
vt 18.661690 22.807020
vt 18.361521 22.807020
vt 18.661690 0.580280
vt 18.361521 0.580280
vt 16.887510 0.580280
vt 16.887510 22.807020
vt 16.587330 22.807020
vt 16.587330 0.580280
vt 13.639320 22.807020
vt 13.339140 22.807020
vt 13.639320 0.580280
vt 13.339140 0.580280
vt 0.000000 0.000000
vt 10.391130 0.580280
vt 10.391130 22.807020
vt 10.090950 22.807020
vt 10.090950 0.580280
vt 5.368760 0.580280
vt 8.316770 0.580280
vt 5.368760 22.807020
vt 5.068580 22.807020
vt 5.068580 0.580280
vt 2.120570 22.807020
vt 1.820390 22.807020
vt 2.120570 0.580280
vt 1.820390 0.580280
vt 0.346390 0.580280
vt 0.346390 22.807020
vt 0.000000 22.807020
vt 14.229460 0.580280
vt 15.192850 22.807020
vt 14.229460 22.807020
vt 0.963390 0.580280
vt 15.192850 0.000000
vt 0.963390 22.807020
vt 0.000000 22.807020
vt 0.000000 0.000000
vt 8.616950 0.580280
vt 8.616950 22.807020
vt 8.316770 22.807020
vn -0.4995 -0.8663 0.0000
vn -0.4994 -0.8664 -0.0000
vn -0.4997 -0.8662 0.0000
vn -0.4994 -0.8664 0.0002
vn -0.4994 -0.8663 -0.0003
vn -0.4994 -0.8663 0.0002
vn -0.4996 -0.8663 0.0000
vn -0.4993 -0.8664 0.0000
vn -0.4997 -0.8662 0.0002
vn -0.4999 -0.8661 0.0003
vn -0.4996 -0.8662 0.0000
vn -0.4993 -0.8665 0.0000
vn -0.8791 0.4766 0.0000
vn -0.8791 0.4767 -0.0000
vn 0.4768 0.8790 0.0000
vn 0.4769 0.8789 -0.0002
vn 0.4770 0.8789 0.0000
vn 0.4772 0.8788 0.0000
vn 0.4747 0.8802 0.0003
vn 0.4767 0.8791 -0.0001
vn 0.4769 0.8789 0.0000
vn 0.4771 0.8788 -0.0021
vn 0.4771 0.8789 -0.0001
vn 0.4770 0.8789 0.0001
vn 0.4772 0.8788 0.0004
vn 0.4768 0.8790 -0.0001
vn 0.4771 0.8789 0.0000
vn 0.9684 -0.2493 0.0000
vn 0.9684 -0.2494 0.0000
vn -0.4994 -0.8664 -0.0005
vn -0.5004 -0.8658 -0.0008
vn -0.5003 -0.8658 0.0006
vn -0.4966 -0.8680 -0.0016
vn -0.5003 -0.8659 -0.0031
vn -0.4970 -0.8678 0.0034
vn -0.4969 -0.8678 -0.0008
vn -0.4965 -0.8680 -0.0002
vn -0.4987 -0.8668 -0.0016
vn -0.4987 -0.8667 -0.0016
vn -0.4996 -0.8663 -0.0003
vn -0.4995 -0.8663 0.0001
vn -0.4995 -0.8663 0.0002
vn 0.4769 0.8790 0.0000
vn 0.4772 0.8788 0.0002
vn 0.4770 0.8789 -0.0001
vn 0.4772 0.8788 0.0012
vn 0.4770 0.8789 -0.0002
vn 0.4772 0.8788 -0.0007
vn 0.4764 0.8792 0.0001
vn 0.4754 0.8797 -0.0005
vn 0.4773 0.8787 0.0005
s off
f 1/1/1 2/2/1 3/3/1
f 4/4/2 5/5/2 1/1/2
f 2/2/2 1/1/2 5/5/2
f 6/6/3 7/7/3 4/4/3
f 7/7/1 8/8/1 4/4/1
f 8/8/2 9/9/2 5/5/2
f 10/10/3 11/11/3 9/9/3
f 11/11/2 12/12/2 9/9/2
f 12/12/4 13/13/4 5/5/4
f 14/14/3 15/15/3 13/13/3
f 15/15/3 16/16/3 13/13/3
f 16/16/5 17/17/5 5/5/5
f 18/18/3 19/19/3 17/17/3
f 19/19/2 20/20/2 17/17/2
f 20/20/6 21/21/6 5/5/6
f 22/22/2 23/23/2 21/21/2
f 23/23/1 24/24/1 21/21/1
f 25/25/7 26/26/7 24/24/7
f 24/24/1 26/26/1 5/5/1
f 27/27/7 28/28/7 25/25/7
f 28/28/8 29/29/8 25/25/8
f 30/30/9 26/26/9 29/29/9
f 31/31/8 32/32/8 30/30/8
f 32/32/7 33/33/7 30/30/7
f 34/34/10 26/26/10 33/33/10
f 35/35/3 36/36/3 34/34/3
f 36/36/11 37/37/11 34/34/11
f 38/38/4 26/26/4 37/37/4
f 39/39/8 40/40/8 38/38/8
f 40/40/8 41/41/8 38/38/8
f 42/42/4 26/26/4 41/41/4
f 43/43/3 44/44/3 42/42/3
f 44/44/8 45/45/8 42/42/8
f 47/46/2 48/47/2 46/48/2
f 48/47/12 26/26/12 46/48/12
f 49/49/13 50/50/13 51/51/13
f 52/52/14 53/53/14 49/49/14
f 50/50/13 49/49/13 53/53/13
f 54/54/13 55/55/13 52/52/13
f 55/55/13 56/56/13 52/52/13
f 56/56/13 53/53/13 52/52/13
f 57/57/15 58/58/15 59/59/15
f 60/60/16 61/61/16 57/57/16
f 58/58/15 57/57/15 61/61/15
f 62/62/17 63/63/17 60/60/17
f 63/63/17 64/64/17 60/60/17
f 66/65/17 67/66/17 65/67/17
f 67/66/17 68/68/17 65/67/17
f 65/67/18 68/68/18 61/61/18
f 70/69/17 71/70/17 69/71/17
f 71/70/17 72/72/17 69/71/17
f 69/71/19 72/72/19 61/61/19
f 72/72/20 73/73/20 61/61/20
f 74/74/21 75/75/21 73/73/21
f 75/75/21 76/76/21 73/73/21
f 78/77/17 79/78/17 77/79/17
f 79/78/17 80/80/17 77/79/17
f 80/80/22 81/81/22 77/79/22
f 77/79/23 81/81/23 61/61/23
f 82/82/17 81/81/17 80/80/17
f 83/83/21 84/84/21 82/82/21
f 84/84/21 85/85/21 82/82/21
f 90/86/24 81/81/24 89/87/24
f 91/88/21 92/89/21 90/86/21
f 92/89/21 93/90/21 90/86/21
f 95/91/17 96/92/17 94/93/17
f 96/92/17 97/94/17 94/93/17
f 97/94/25 81/81/25 94/93/25
f 98/95/26 81/81/26 97/94/26
f 99/96/27 100/97/27 98/95/27
f 100/97/27 81/81/27 98/95/27
f 101/98/28 102/99/28 103/100/28
f 104/101/29 105/102/29 101/98/29
f 102/99/28 101/98/28 105/102/28
f 106/103/29 107/104/29 104/101/29
f 107/104/28 108/105/28 104/101/28
f 108/105/28 105/102/28 104/101/28
s 1
f 8/8/30 5/5/30 4/4/30
f 9/9/31 12/12/31 5/5/31
f 13/13/32 16/16/32 5/5/32
f 17/17/33 20/20/33 5/5/33
f 21/21/34 24/24/34 5/5/34
f 29/29/35 26/26/35 25/25/35
f 33/33/36 26/26/36 30/30/36
f 37/37/37 26/26/37 34/34/37
f 41/41/38 26/26/38 38/38/39
f 45/45/40 26/26/41 42/42/40
f 46/48/42 26/26/41 45/45/40
f 64/64/43 61/61/43 60/60/44
f 64/64/43 65/67/15 61/61/43
f 68/68/45 69/71/45 61/61/45
f 73/73/46 76/76/45 61/61/24
f 76/76/45 77/79/47 61/61/24
f 85/85/48 81/81/49 82/82/48
f 86/106/20 81/81/49 85/85/48
f 87/107/17 88/108/17 86/106/20
f 88/108/17 89/87/50 86/106/20
f 89/87/50 81/81/49 86/106/20
f 93/90/51 81/81/15 90/86/51
f 94/93/15 81/81/15 93/90/51
