# Blender v3.0.1 OBJ File: 'rockerfeller_plaza.blend'
# www.blender.org
o geometryt000010000010000110010110000110000110100100010010st38
v 1187.439697 -85.372841 1009.649292
v 1180.055542 -89.245216 1009.649292
v 1181.757935 -86.105530 1009.649292
v 1197.985718 -91.255630 1009.649292
v 1200.157959 -100.111961 1009.649292
v 1183.344360 -83.155952 1009.649292
v 1186.700928 -74.923164 1009.649292
v 1190.733398 -67.459610 1009.649292
v 1190.439331 -76.944389 1009.649292
v 1190.050903 -80.546074 1009.649292
v 1188.852905 -79.893974 1009.649292
v 1200.977173 -85.724960 1009.649292
v 1203.814697 -82.905045 1009.649292
v 1210.963257 -78.391479 1009.649292
v 1203.372314 -94.156822 1009.649292
v 1201.988281 -86.279335 1009.649292
v 1207.459595 -84.882950 1009.649292
v 1206.281128 -88.782555 1009.649292
v 1205.592773 -88.402046 1009.649292
v 1211.787354 -78.837021 1009.649292
v 1187.439697 -85.372841 1041.549316
v 1181.757935 -86.105530 1041.549316
v 1180.055542 -89.245216 1041.549316
v 1197.985718 -91.255630 1041.549316
v 1200.157959 -100.111961 1041.549316
v 1183.344360 -83.155952 1041.549316
v 1190.439331 -76.944389 1041.549316
v 1190.733398 -67.459610 1041.549316
v 1186.700928 -74.923164 1041.549316
v 1190.050903 -80.546074 1041.549316
v 1188.852905 -79.893974 1041.549316
v 1200.977173 -85.724960 1041.549316
v 1203.814697 -82.905045 1041.549316
v 1210.963257 -78.391479 1041.549316
v 1203.372314 -94.156822 1041.549316
v 1201.988281 -86.279335 1041.549316
v 1207.459595 -84.882950 1041.549316
v 1206.281128 -88.782555 1041.549316
v 1205.592773 -88.402046 1041.549316
v 1211.787354 -78.837021 1041.549316
vt 0.096980 0.367950
vt 0.106380 0.352980
vt 0.100120 0.356480
vt 0.104340 0.389060
vt 0.119760 0.393230
vt 0.094250 0.359750
vt 0.078200 0.366710
vt 0.063340 0.375010
vt 0.080690 0.374190
vt 0.087370 0.373330
vt 0.086570 0.370930
vt 0.093320 0.395220
vt 0.087290 0.401010
vt 0.076800 0.415520
vt 0.107900 0.399850
vt 0.094010 0.397250
vt 0.089730 0.408310
vt 0.097200 0.405840
vt 0.096720 0.404460
vt 0.077350 0.417170
vt 0.096980 0.367950
vt 0.100120 0.356480
vt 0.106380 0.352980
vt 0.104340 0.389060
vt 0.119760 0.393230
vt 0.094250 0.359750
vt 0.080690 0.374190
vt 0.063340 0.375010
vt 0.078200 0.366710
vt 0.087370 0.373330
vt 0.086570 0.370930
vt 0.093320 0.395220
vt 0.087290 0.401010
vt 0.076800 0.415520
vt 0.107900 0.399850
vt 0.094010 0.397250
vt 0.089730 0.408310
vt 0.097200 0.405840
vt 0.096720 0.404460
vt 0.077350 0.417170
vn 0.0000 0.0000 -1.0000
vn -0.0001 0.0000 -1.0000
vn 0.0000 0.0000 1.0000
vn -0.0001 0.0000 1.0000
vn 0.0002 0.0000 1.0000
vn 0.0001 0.0000 1.0000
s off
f 1/1/1 2/2/1 3/3/1
f 1/1/1 4/4/1 2/2/1
f 2/2/1 4/4/1 5/5/1
f 3/3/1 6/6/1 1/1/1
f 7/7/1 8/8/1 9/9/1
f 1/1/1 10/10/1 4/4/1
f 11/11/1 9/9/1 10/10/1
f 10/10/1 9/9/1 12/12/1
f 10/10/1 12/12/1 4/4/1
f 9/9/1 8/8/1 13/13/1
f 12/12/1 9/9/1 13/13/1
f 8/8/1 14/14/1 13/13/1
f 4/4/1 15/15/1 5/5/1
f 12/12/1 13/13/1 16/16/1
f 13/13/1 14/14/1 17/17/1
f 17/17/2 18/18/2 19/19/2
f 17/17/1 20/20/1 18/18/1
f 14/14/1 20/20/1 17/17/1
f 21/21/3 22/22/3 23/23/3
f 21/21/3 23/23/3 24/24/3
f 24/24/3 23/23/3 25/25/3
f 21/21/3 26/26/3 22/22/3
f 27/27/3 28/28/3 29/29/3
f 30/30/3 21/21/3 24/24/3
f 30/30/3 27/27/3 31/31/3
f 32/32/3 27/27/3 30/30/3
f 32/32/3 30/30/3 24/24/3
f 33/33/3 28/28/3 27/27/3
f 33/33/3 27/27/3 32/32/3
f 34/34/3 28/28/3 33/33/3
f 24/24/3 25/25/3 35/35/3
f 33/33/4 32/32/4 36/36/4
f 34/34/3 33/33/3 37/37/3
f 38/38/5 37/37/5 39/39/5
f 38/38/6 40/40/6 37/37/6
f 40/40/3 34/34/3 37/37/3
