# Blender v3.0.1 OBJ File: 'rockerfeller_plaza.blend'
# www.blender.org
o geometryt000010000010000110010110000110000100110010110110st111_
v 133.963989 -161.057220 566.121338
v 135.213089 -161.729828 566.121338
v 135.213089 -161.729828 589.232056
v 133.963989 -161.057220 589.232056
v 135.948380 -162.125824 566.121338
v 137.197479 -162.798325 566.121338
v 137.197479 -162.798325 589.232056
v 135.948380 -162.125824 589.232056
v 137.932877 -163.194321 589.232056
v 137.932877 -163.194321 566.121338
v 141.679977 -165.212021 566.121338
v 141.679977 -165.212021 589.232056
v 142.415390 -165.608017 566.121338
v 143.664383 -166.280518 566.121338
v 143.664383 -166.280518 589.232056
v 142.415390 -165.608017 589.232056
v 144.399780 -166.676529 566.121338
v 145.648788 -167.349121 566.121338
v 145.648788 -167.349121 589.232056
v 144.399780 -166.676529 589.232056
v 146.693176 -133.231628 581.528442
v 146.693176 -133.231628 566.121338
v 145.444489 -132.558319 566.121338
v 145.444489 -132.558319 581.528442
v 149.100388 -134.529526 566.121338
v 147.851685 -133.856216 566.121338
v 147.851685 -133.856216 581.528442
v 149.100388 -134.529526 581.528442
v 155.253677 -137.847122 566.121338
v 150.258987 -135.154129 566.121338
v 150.258987 -135.154129 581.528442
v 155.253677 -137.847122 581.528442
v 160.158188 -140.491623 581.528442
v 160.158188 -140.491623 566.121338
v 156.412186 -138.471817 566.121338
v 156.412186 -138.471817 581.528442
v 166.311478 -143.809219 566.121338
v 161.316788 -141.116226 566.121338
v 161.316788 -141.116226 581.528442
v 166.311478 -143.809219 581.528442
v 169.967377 -145.780426 581.528442
v 171.215988 -146.453629 566.121338
v 167.469986 -144.433929 566.121338
v 171.215988 -146.453629 589.232056
v 167.469986 -144.433929 581.528442
v 169.967377 -145.780426 589.232056
v 177.369278 -149.771317 566.121338
v 172.374588 -147.078323 566.121338
v 172.374588 -147.078323 589.232056
v 177.369278 -149.771317 589.232056
v 179.776489 -151.069229 589.232056
v 179.776489 -151.069229 566.121338
v 178.527786 -150.396027 566.121338
v 178.527786 -150.396027 589.232056
v 182.183685 -152.367126 589.232056
v 182.183685 -152.367126 566.121338
v 180.934982 -151.693924 566.121338
v 180.934982 -151.693924 589.232056
v 146.426880 -166.629425 566.121338
v 147.097977 -165.379623 566.121338
v 147.097977 -165.379623 589.232056
v 146.426880 -166.629425 589.232056
v 147.875977 -164.660126 589.232056
v 147.875977 -164.660126 566.121338
v 149.124481 -165.333527 566.121338
v 149.124481 -165.333527 589.232056
v 149.992188 -165.801620 589.232056
v 149.992188 -165.801620 566.121338
v 151.240784 -166.475021 566.121338
v 151.240784 -166.475021 589.232056
v 152.108490 -166.943024 566.121338
v 157.102783 -169.636917 566.121338
v 157.102783 -169.636917 589.232056
v 152.108490 -166.943024 589.232056
v 157.970490 -170.104919 589.232056
v 157.970490 -170.104919 566.121338
v 159.218979 -170.778320 566.121338
v 159.218979 -170.778320 589.232056
v 160.086685 -171.246429 566.121338
v 165.080978 -173.940231 566.121338
v 165.080978 -173.940231 589.232056
v 160.086685 -171.246429 589.232056
v 165.948685 -174.408218 589.232056
v 165.948685 -174.408218 566.121338
v 167.197281 -175.081726 566.121338
v 167.197281 -175.081726 589.232056
v 168.064987 -175.549728 566.121338
v 169.313477 -176.223221 566.121338
v 169.313477 -176.223221 589.232056
v 168.064987 -175.549728 589.232056
v 169.780380 -176.083023 566.121338
v 170.451385 -174.833130 566.121338
v 170.451385 -174.833130 589.232056
v 169.780380 -176.083023 589.232056
v 171.079590 -173.662720 589.232056
v 171.079590 -173.662720 566.121338
v 171.750580 -172.412827 566.121338
v 171.750580 -172.412827 589.232056
v 172.378876 -171.242523 566.121338
v 175.062881 -166.242920 566.121338
v 175.062881 -166.242920 589.232056
v 172.378876 -171.242523 589.232056
v 175.691177 -165.072617 566.121338
v 176.362183 -163.822723 566.121338
v 176.362183 -163.822723 589.232056
v 175.691177 -165.072617 589.232056
v 176.990479 -162.652328 589.232056
v 176.990479 -162.652328 566.121338
v 179.674484 -157.652817 566.121338
v 179.674484 -157.652817 589.232056
v 180.302780 -156.482422 589.232056
v 180.302780 -156.482422 566.121338
v 180.973785 -155.232529 566.121338
v 180.973785 -155.232529 589.232056
v 181.601990 -154.062225 566.121338
v 182.272980 -152.812317 566.121338
v 182.272980 -152.812317 589.232056
v 181.601990 -154.062225 589.232056
vt 0.000000 0.000000
vt 0.333330 0.000000
vt 0.333330 1.500000
vt 0.000000 1.500000
vt 0.000000 0.000000
vt 0.333330 0.000000
vt 0.333330 1.500000
vt 0.000000 1.500000
vt 0.000000 1.500000
vt 0.000000 0.000000
vt 1.000000 0.000000
vt 1.000000 1.500000
vt 0.000000 0.000000
vt 0.333330 0.000000
vt 0.333330 1.500000
vt 0.000000 1.500000
vt 0.000000 1.000000
vt 0.000000 0.000000
vt 0.333330 0.000000
vt 0.333330 1.000000
vt 0.000000 0.000000
vt 0.333330 0.000000
vt 0.333330 1.000000
vt 0.000000 1.000000
vt 0.000000 1.000000
vt 0.000000 0.000000
vt 1.000000 0.000000
vt 1.000000 1.000000
vt 0.333330 1.000000
vt 0.000000 0.000000
vt 1.000000 0.000000
vt 0.000000 1.500000
vt 1.000000 1.000000
vt 0.333330 1.500000
vt 0.000000 0.000000
vt 1.333330 0.000000
vt 1.333330 1.500000
vt 0.000000 1.500000
vt 0.000000 1.500000
vt 0.000000 0.000000
vt 0.333330 0.000000
vt 0.333330 1.500000
vt 0.000000 1.500000
vt 0.000000 0.000000
vt 0.333330 0.000000
vt 0.333330 1.500000
vt 0.000000 0.000000
vt 0.333330 0.000000
vt 0.333330 1.500000
vt 0.000000 1.500000
vt 0.000000 1.500000
vt 0.000000 0.000000
vt 0.333330 0.000000
vt 0.333330 1.500000
vt 0.000000 0.000000
vt 1.333330 0.000000
vt 1.333330 1.500000
vt 0.000000 1.500000
vt 0.000000 0.000000
vt 1.333330 0.000000
vt 1.333330 1.500000
vt 0.000000 1.500000
vt 0.000000 0.000000
vt 0.333330 0.000000
vt 0.333330 1.500000
vt 0.000000 1.500000
vt 0.000000 1.500000
vt 0.000000 0.000000
vt 0.333330 0.000000
vt 0.333330 1.500000
vt 0.000000 0.000000
vt 1.333330 0.000000
vt 1.333330 1.500000
vt 0.000000 1.500000
vt 0.000000 0.000000
vt 0.333330 0.000000
vt 0.333330 1.500000
vt 0.000000 1.500000
vt 0.000000 1.500000
vt 0.000000 0.000000
vt 1.333330 0.000000
vt 1.333330 1.500000
vt 0.000000 1.500000
vt 0.000000 0.000000
vt 0.333330 0.000000
vt 0.333330 1.500000
vt 0.000000 0.000000
vt 0.333330 0.000000
vt 0.333330 1.500000
vt 0.000000 1.500000
vt 0.000000 0.000000
vt 0.333330 0.000000
vt 0.333330 1.500000
vt 0.000000 1.500000
vt 0.000000 0.000000
vt 1.333330 0.000000
vt 1.333330 1.000000
vt 0.000000 1.000000
vt 0.000000 0.000000
vt 1.333330 0.000000
vt 1.333330 1.000000
vt 0.000000 1.000000
vt 0.000000 1.500000
vt 0.000000 0.000000
vt 0.333330 0.000000
vt 0.333330 1.500000
vt 0.000000 1.500000
vt 0.000000 0.000000
vt 0.333330 0.000000
vt 0.333330 1.500000
vt 0.000000 1.500000
vt 0.000000 0.000000
vt 0.333330 0.000000
vt 0.333330 1.500000
vt 0.000000 0.000000
vt 0.333330 0.000000
vt 0.333330 1.500000
vt 0.000000 1.500000
vn -0.4741 -0.8805 0.0000
vn -0.4740 -0.8805 0.0000
vn 0.4746 0.8802 0.0000
vn 0.4745 0.8802 0.0000
vn 0.8810 -0.4731 0.0000
vn -0.4747 -0.8802 0.0000
vn -0.4747 -0.8801 0.0000
vn 0.8811 -0.4730 0.0000
vn -0.4748 -0.8801 0.0000
s off
f 1/1/1 2/2/1 3/3/1
f 4/4/1 1/1/1 3/3/1
f 5/5/1 6/6/1 7/7/1
f 8/8/2 5/5/2 7/7/2
f 9/9/1 10/10/1 11/11/1
f 9/9/1 11/11/1 12/12/1
f 17/13/1 18/14/1 19/15/1
f 20/16/1 17/13/1 19/15/1
f 21/17/3 22/18/3 23/19/3
f 21/17/3 23/19/3 24/20/3
f 25/21/3 26/22/3 27/23/3
f 28/24/3 25/21/3 27/23/3
f 33/25/3 34/26/3 35/27/3
f 33/25/3 35/27/3 36/28/3
f 41/29/3 42/30/3 43/31/3
f 44/32/3 42/30/3 41/29/3
f 41/29/3 43/31/3 45/33/3
f 46/34/3 44/32/3 41/29/3
f 47/35/3 48/36/3 49/37/3
f 50/38/3 47/35/3 49/37/3
f 51/39/4 52/40/4 53/41/4
f 51/39/3 53/41/3 54/42/3
f 55/43/4 56/44/4 57/45/4
f 55/43/3 57/45/3 58/46/3
f 59/47/5 60/48/5 61/49/5
f 62/50/5 59/47/5 61/49/5
f 67/51/6 68/52/6 69/53/6
f 67/51/6 69/53/6 70/54/6
f 71/55/7 72/56/7 73/57/7
f 74/58/7 71/55/7 73/57/7
f 79/59/7 80/60/7 81/61/7
f 82/62/7 79/59/7 81/61/7
f 91/63/8 92/64/8 93/65/8
f 94/66/8 91/63/8 93/65/8
f 95/67/8 96/68/8 97/69/8
f 95/67/8 97/69/8 98/70/8
f 99/71/8 100/72/8 101/73/8
f 102/74/8 99/71/8 101/73/8
f 103/75/8 104/76/8 105/77/8
f 106/78/8 103/75/8 105/77/8
f 107/79/8 108/80/8 109/81/8
f 107/79/8 109/81/8 110/82/8
f 111/83/8 112/84/8 113/85/8
f 111/83/8 113/85/8 114/86/8
f 115/87/8 116/88/8 117/89/8
f 118/90/8 115/87/8 117/89/8
s 1
f 13/91/1 14/92/1 15/93/1
f 16/94/1 13/91/1 15/93/1
f 29/95/3 30/96/3 31/97/3
f 32/98/3 29/95/3 31/97/3
f 37/99/3 38/100/3 39/101/3
f 40/102/3 37/99/3 39/101/3
f 63/103/7 64/104/7 65/105/7
f 63/103/7 65/105/7 66/106/7
f 75/107/7 76/108/7 77/109/7
f 75/107/7 77/109/7 78/110/7
f 83/111/7 84/112/7 85/113/7
f 83/111/7 85/113/7 86/114/7
f 87/115/9 88/116/9 89/117/9
f 90/118/9 87/115/9 89/117/9
