# Blender v3.0.1 OBJ File: 'rockerfeller_plaza.blend'
# www.blender.org
o geometryt000010000010000110010110000110000100110010110010st4_Th
v 313.128601 -158.023163 292.140381
v 314.018616 -169.248276 292.140381
v 292.066895 -157.334763 292.140381
v 322.898102 -163.316574 292.140381
v 316.980408 -174.232162 292.140381
v 312.605408 -171.862564 292.140381
v 302.408905 -150.853271 292.140381
v 297.133392 -147.994568 292.140381
v 305.533020 -145.088272 292.140381
v 316.823120 -151.207962 292.140381
v 278.209106 -119.048363 292.140381
v 293.274414 -138.435867 292.140381
v 331.286804 -147.831573 292.140381
v 290.960297 -142.714874 292.140381
v 292.710297 -143.660477 292.140381
v 289.093903 -149.198074 292.140381
v 289.569702 -149.458969 292.140381
v 283.126617 -160.202972 292.140381
v 288.835297 -163.300873 292.140381
v 275.950012 -187.053665 292.140381
v 249.198608 -172.542267 292.140381
v 326.592499 -156.501373 292.140381
v 314.018616 -169.248276 364.440399
v 312.605408 -171.862564 364.440399
v 316.980408 -174.232162 364.440399
v 322.898102 -163.316574 364.440399
v 313.128601 -158.023163 364.440399
v 316.823120 -151.207962 364.440399
v 302.408905 -150.853271 364.440399
v 292.066895 -157.334763 364.440399
v 331.286804 -147.831573 364.440399
v 326.592499 -156.501373 364.440399
v 305.533020 -145.088272 364.440399
v 278.209106 -119.048363 364.440399
v 249.198608 -172.542267 364.440399
v 283.126617 -160.202972 364.440399
v 289.093903 -149.198074 364.440399
v 290.960297 -142.714874 364.440399
v 293.274414 -138.435867 364.440399
v 275.950012 -187.053665 364.440399
v 288.835297 -163.300873 364.440399
v 292.710297 -143.660477 364.440399
v 289.569702 -149.458969 364.440399
v 297.133392 -147.994568 364.440399
vt 0.189000 0.621070
vt 0.209140 0.622600
vt 0.194440 0.578640
vt 0.195530 0.640640
vt 0.217270 0.628460
vt 0.214350 0.619690
vt 0.179360 0.599630
vt 0.175840 0.589070
vt 0.167880 0.606070
vt 0.175420 0.628680
vt 0.129180 0.551600
vt 0.159670 0.581510
vt 0.164680 0.657910
vt 0.168190 0.576750
vt 0.169360 0.580250
vt 0.180580 0.572830
vt 0.180910 0.573790
vt 0.202510 0.560550
vt 0.206330 0.571980
vt 0.253650 0.545460
vt 0.235750 0.491870
vt 0.181950 0.648250
vt 0.209140 0.622600
vt 0.214350 0.619690
vt 0.217270 0.628460
vt 0.195530 0.640640
vt 0.189000 0.621070
vt 0.175420 0.628680
vt 0.179360 0.599630
vt 0.194440 0.578640
vt 0.164680 0.657910
vt 0.181950 0.648250
vt 0.167880 0.606070
vt 0.129180 0.551600
vt 0.235750 0.491870
vt 0.202510 0.560550
vt 0.180580 0.572830
vt 0.168190 0.576750
vt 0.159670 0.581510
vt 0.253650 0.545460
vt 0.206330 0.571980
vt 0.169360 0.580250
vt 0.180910 0.573790
vt 0.175840 0.589070
vn 0.0000 0.0000 -1.0000
vn -0.0000 0.0000 1.0000
s off
f 1/1/1 2/2/1 3/3/1
f 4/4/1 2/2/1 1/1/1
f 5/5/1 2/2/1 4/4/1
f 6/6/1 2/2/1 5/5/1
f 7/7/1 3/3/1 8/8/1
f 7/7/1 1/1/1 3/3/1
f 9/9/1 10/10/1 7/7/1
f 10/10/1 1/1/1 7/7/1
f 11/11/1 9/9/1 12/12/1
f 11/11/1 13/13/1 9/9/1
f 9/9/1 13/13/1 10/10/1
f 12/12/1 14/14/1 11/11/1
f 15/15/1 16/16/1 14/14/1
f 14/14/1 16/16/1 11/11/1
f 15/15/1 17/17/1 16/16/1
f 16/16/1 18/18/1 11/11/1
f 18/18/1 19/19/1 20/20/1
f 18/18/1 20/20/1 21/21/1
f 11/11/1 18/18/1 21/21/1
f 13/13/1 22/22/1 10/10/1
f 23/23/2 24/24/2 25/25/2
f 23/23/2 25/25/2 26/26/2
f 27/27/2 23/23/2 26/26/2
f 27/27/2 28/28/2 29/29/2
f 27/27/2 29/29/2 30/30/2
f 27/27/2 30/30/2 23/23/2
f 31/31/2 28/28/2 32/32/2
f 28/28/2 31/31/2 33/33/2
f 29/29/2 28/28/2 33/33/2
f 33/33/2 31/31/2 34/34/2
f 34/34/2 35/35/2 36/36/2
f 34/34/2 36/36/2 37/37/2
f 38/38/2 34/34/2 37/37/2
f 39/39/2 34/34/2 38/38/2
f 34/34/2 39/39/2 33/33/2
f 36/36/2 35/35/2 40/40/2
f 41/41/2 36/36/2 40/40/2
f 42/42/2 37/37/2 43/43/2
f 42/42/2 38/38/2 37/37/2
f 30/30/2 29/29/2 44/44/2
