# Blender v3.0.1 OBJ File: 'rockerfeller_plaza.blend'
# www.blender.org
o geometryt000010000010000110010110000110000100110010010110st28_N
v 99.578629 -241.210602 19.939150
v 99.285439 -241.753998 43.167480
v 99.578629 -241.210602 43.167480
v 101.107903 -238.376099 19.939150
v 99.285439 -241.753998 16.867491
v 101.107903 -238.376099 43.167480
v 101.401100 -237.832596 43.167480
v 101.401100 -237.832596 16.867491
v 130.819794 -258.785400 19.939150
v 131.123398 -258.949310 43.167480
v 130.819794 -258.785400 43.167480
v 129.402893 -258.020111 19.939150
v 131.123398 -258.949310 16.867491
v 129.402893 -258.020111 43.167480
v 128.971893 -257.787292 43.167480
v 128.971893 -257.787292 19.939150
v 124.721199 -255.491592 19.939150
v 124.721199 -255.491592 43.167480
v 124.290298 -255.258804 43.167480
v 124.290298 -255.258804 19.939150
v 122.873299 -254.493607 19.939150
v 122.873299 -254.493607 43.167480
v 122.442398 -254.260803 43.167480
v 122.442398 -254.260803 19.939150
v 119.608597 -252.730301 19.939150
v 119.608597 -252.730301 43.167480
v 119.177597 -252.497498 43.167480
v 119.177597 -252.497498 19.939150
v 116.343803 -250.966995 19.939150
v 116.343803 -250.966995 43.167480
v 115.912903 -250.734299 43.167480
v 115.912903 -250.734299 19.939150
v 114.495903 -249.968994 19.939150
v 99.285439 -241.753998 16.867491
v 114.495903 -249.968994 43.167480
v 114.065002 -249.736298 43.167480
v 114.065002 -249.736298 19.939150
v 111.231201 -248.205704 19.939150
v 111.231201 -248.205704 43.167480
v 110.800201 -247.973007 43.167480
v 110.800201 -247.973007 19.939150
v 107.966400 -246.442505 19.939150
v 107.966400 -246.442505 43.167480
v 107.535500 -246.209702 43.167480
v 107.535500 -246.209702 19.939150
v 106.118500 -245.444504 19.939150
v 106.118500 -245.444504 43.167480
v 105.687599 -245.211700 43.167480
v 105.687599 -245.211700 19.939150
v 101.436798 -242.915894 19.939150
v 101.436798 -242.915894 43.167480
v 101.005898 -242.683197 43.167480
v 101.005898 -242.683197 19.939150
v 99.588997 -241.917892 19.939150
v 99.588997 -241.917892 43.167480
v 99.285439 -241.753998 43.167480
v 100.339401 -237.267593 16.867491
v 101.401100 -237.832596 43.167480
v 100.339401 -237.267593 43.167480
v 101.401100 -237.832596 16.867491
v 100.503304 -236.964005 19.939150
v 100.339401 -237.267593 43.167480
v 100.503304 -236.964005 43.167480
v 101.268600 -235.547104 19.939150
v 100.339401 -237.267593 16.867491
v 101.268600 -235.547104 43.167480
v 101.580399 -234.969803 43.167480
v 101.580399 -234.969803 19.939150
v 103.876297 -230.719101 19.939150
v 103.876297 -230.719101 43.167480
v 104.188202 -230.141693 43.167480
v 104.188202 -230.141693 19.939150
v 104.953400 -228.724792 19.939150
v 104.953400 -228.724792 43.167480
v 105.265297 -228.147507 43.167480
v 105.265297 -228.147507 19.939150
v 106.030602 -226.730606 19.939150
v 106.030602 -226.730606 43.167480
v 106.342400 -226.153198 43.167480
v 106.342400 -226.153198 19.939150
v 112.033600 -215.616104 16.867491
v 107.107697 -224.736298 19.939150
v 107.107697 -224.736298 43.167480
v 107.419502 -224.158905 43.167480
v 107.419502 -224.158905 19.939150
v 108.184799 -222.742004 19.939150
v 108.184799 -222.742004 43.167480
v 108.496597 -222.164703 43.167480
v 108.496597 -222.164703 19.939150
v 110.792503 -217.914001 19.939150
v 110.792503 -217.914001 43.167480
v 111.104301 -217.336594 43.167480
v 111.104301 -217.336594 19.939150
v 111.869598 -215.919693 19.939150
v 111.869598 -215.919693 43.167480
v 112.033600 -215.616104 43.167480
v 112.504799 -214.755798 16.867491
v 112.033600 -215.616104 16.867491
v 112.033600 -215.616104 43.167480
v 112.504799 -214.755798 43.167480
v 112.808296 -214.919907 19.939150
v 112.504799 -214.755798 43.167480
v 112.808296 -214.919907 43.167480
v 114.224998 -215.685501 19.939150
v 112.504799 -214.755798 16.867491
v 114.224998 -215.685501 43.167480
v 114.705399 -215.945099 43.167480
v 114.705399 -215.945099 19.939150
v 118.955597 -218.242096 19.939150
v 118.955597 -218.242096 43.167480
v 119.435997 -218.501694 43.167480
v 119.435997 -218.501694 19.939150
v 120.852699 -219.267395 19.939150
v 120.852699 -219.267395 43.167480
v 121.333099 -219.526993 43.167480
v 121.333099 -219.526993 19.939150
v 122.749802 -220.292694 19.939150
v 122.749802 -220.292694 43.167480
v 123.230202 -220.552307 43.167480
v 123.230202 -220.552307 19.939150
v 124.647003 -221.317902 19.939150
v 124.647003 -221.317902 43.167480
v 125.127403 -221.577606 43.167480
v 125.127403 -221.577606 19.939150
v 135.372406 -227.114395 16.867491
v 126.544098 -222.343201 19.939150
v 126.544098 -222.343201 43.167480
v 127.024498 -222.602905 43.167480
v 127.024498 -222.602905 19.939150
v 128.441193 -223.368500 19.939150
v 128.441193 -223.368500 43.167480
v 128.921600 -223.628098 43.167480
v 128.921600 -223.628098 19.939150
v 133.171799 -225.925095 19.939150
v 133.171799 -225.925095 43.167480
v 133.652206 -226.184692 43.167480
v 133.652206 -226.184692 19.939150
v 135.068893 -226.950394 19.939150
v 135.068893 -226.950394 43.167480
v 135.372406 -227.114395 43.167480
v 137.711395 -246.740295 19.939150
v 137.875305 -246.436600 43.167480
v 137.711395 -246.740295 43.167480
v 136.946701 -248.157501 19.939150
v 137.875305 -246.436600 16.867491
v 136.946701 -248.157501 43.167480
v 136.678894 -248.653702 43.167480
v 136.678894 -248.653702 19.939150
v 135.914200 -250.070908 19.939150
v 135.914200 -250.070908 43.167480
v 135.646393 -250.567200 43.167480
v 135.646393 -250.567200 19.939150
v 133.352203 -254.818802 19.939150
v 131.123398 -258.949310 16.867491
v 133.352203 -254.818802 43.167480
v 133.084396 -255.315002 43.167480
v 133.084396 -255.315002 19.939150
v 132.319702 -256.732208 19.939150
v 132.319702 -256.732208 43.167480
v 132.051895 -257.228485 43.167480
v 132.051895 -257.228485 19.939150
v 131.287201 -258.645691 19.939150
v 131.287201 -258.645691 43.167480
v 131.123398 -258.949310 43.167480
v 135.676102 -227.278107 19.939150
v 135.372406 -227.114395 43.167480
v 135.676102 -227.278107 43.167480
v 137.093704 -228.042007 19.939150
v 135.372406 -227.114395 16.867491
v 137.093704 -228.042007 43.167480
v 138.257706 -228.669296 43.167480
v 138.257706 -228.669296 19.939150
v 142.510605 -230.961304 19.939150
v 142.510605 -230.961304 43.167480
v 143.674606 -231.588501 43.167480
v 143.674606 -231.588501 19.939150
v 145.395905 -232.516205 16.867491
v 145.092194 -232.352493 19.939150
v 145.092194 -232.352493 43.167480
v 145.395905 -232.516205 43.167480
v 144.942703 -233.367004 19.939150
v 145.106796 -233.063507 43.167480
v 144.942703 -233.367004 43.167480
v 144.176697 -234.783493 19.939150
v 145.106796 -233.063507 16.867491
v 144.176697 -234.783493 43.167480
v 143.918198 -235.261505 43.167480
v 143.918198 -235.261505 19.939150
v 141.620300 -239.511093 19.939150
v 141.620300 -239.511093 43.167480
v 141.361801 -239.989105 43.167480
v 141.361801 -239.989105 19.939150
v 139.063797 -244.238693 19.939150
v 137.875305 -246.436600 16.867491
v 139.063797 -244.238693 43.167480
v 138.805405 -244.716599 43.167480
v 138.805405 -244.716599 19.939150
v 138.039398 -246.133194 19.939150
v 138.039398 -246.133194 43.167480
v 137.875305 -246.436600 43.167480
v 145.106796 -233.063507 16.867491
v 145.395905 -232.516205 43.167480
v 145.106796 -233.063507 43.167480
v 145.395905 -232.516205 16.867491
vt 2.468300 1.975340
vt 2.865390 16.913179
vt 2.468300 16.913179
vt 0.397090 1.975340
vt 2.865390 0.000000
vt 0.397090 16.913179
vt 0.000000 16.913179
vt 0.000000 0.000000
vt 22.012421 1.975340
vt 23.269890 0.000000
vt 23.048031 1.975340
vt 23.269890 16.913179
vt 22.012421 16.913179
vt 21.697460 16.913179
vt 21.697460 1.975340
vt 18.590630 16.913179
vt 18.275669 16.913179
vt 18.590630 1.975340
vt 18.275669 1.975340
vt 17.240061 1.975340
vt 17.240061 16.913179
vt 16.925100 16.913179
vt 16.925100 1.975340
vt 14.853890 16.913179
vt 14.538930 16.913179
vt 14.853890 1.975340
vt 14.538930 1.975340
vt 12.467710 1.975340
vt 12.467710 16.913179
vt 12.152750 16.913179
vt 12.152750 1.975340
vt 11.117140 1.975340
vt 0.000000 0.000000
vt 11.117140 16.913179
vt 10.802180 16.913179
vt 10.802180 1.975340
vt 8.730960 16.913179
vt 8.416001 16.913179
vt 8.730960 1.975340
vt 8.416001 1.975340
vt 6.344790 16.913179
vt 6.029830 16.913179
vt 6.344790 1.975340
vt 6.029830 1.975340
vt 4.994220 16.913179
vt 4.679260 16.913179
vt 4.994220 1.975340
vt 4.679260 1.975340
vt 1.572430 1.975340
vt 1.572430 16.913179
vt 1.257470 16.913179
vt 1.257470 1.975340
vt 0.221860 1.975340
vt 0.000000 16.913179
vt 0.000000 0.000000
vt 0.773450 16.913179
vt 0.000000 16.913179
vt 0.773450 0.000000
vt 15.603040 1.975340
vt 15.824900 16.913179
vt 15.603040 16.913179
vt 14.567430 1.975340
vt 15.824900 0.000000
vt 14.567430 16.913179
vt 14.145450 16.913179
vt 14.145450 1.975340
vt 11.038630 1.975340
vt 11.038630 16.913179
vt 10.616640 16.913179
vt 10.616640 1.975340
vt 9.581030 1.975340
vt 9.581030 16.913179
vt 9.159050 16.913179
vt 9.159050 1.975340
vt 8.123440 1.975340
vt 8.123440 16.913179
vt 7.701460 16.913179
vt 7.701460 1.975340
vt 0.000000 0.000000
vt 6.665850 1.975340
vt 6.665850 16.913179
vt 6.243870 16.913179
vt 6.243870 1.975340
vt 5.208260 1.975340
vt 5.208260 16.913179
vt 4.786280 16.913179
vt 4.786280 1.975340
vt 1.679460 1.975340
vt 1.679460 16.913179
vt 1.257470 16.913179
vt 1.257470 1.975340
vt 0.221860 1.975340
vt 0.221860 16.913179
vt 0.000000 16.913179
vt 0.000000 0.000000
vt 0.630810 0.000000
vt 0.630810 16.913179
vt 0.000000 16.913179
vt 16.494200 1.975340
vt 16.716070 16.913179
vt 16.494200 16.913179
vt 15.458600 1.975340
vt 16.716070 0.000000
vt 15.458600 16.913179
vt 15.107420 16.913179
vt 15.107420 1.975340
vt 12.000590 1.975340
vt 12.000590 16.913179
vt 11.649410 16.913179
vt 11.649410 1.975340
vt 10.613810 1.975340
vt 10.613810 16.913179
vt 10.262630 16.913179
vt 10.262630 1.975340
vt 9.227021 1.975340
vt 9.227021 16.913179
vt 8.875841 16.913179
vt 8.875841 1.975340
vt 7.840230 1.975340
vt 7.840230 16.913179
vt 7.489050 16.913179
vt 7.489050 1.975340
vt 0.000000 0.000000
vt 6.453440 1.975340
vt 6.453440 16.913179
vt 6.102260 16.913179
vt 6.102260 1.975340
vt 5.066660 1.975340
vt 5.066660 16.913179
vt 4.715480 16.913179
vt 4.715480 1.975340
vt 1.608650 1.975340
vt 1.608650 16.913179
vt 1.257470 16.913179
vt 1.257470 1.975340
vt 0.221860 1.975340
vt 0.221860 16.913179
vt 0.000000 16.913179
vt 8.921621 1.975340
vt 9.143490 16.913179
vt 8.921621 16.913179
vt 7.886010 1.975340
vt 9.143490 0.000000
vt 7.886010 16.913179
vt 7.523390 16.913179
vt 7.523390 1.975340
vt 6.487780 1.975340
vt 6.487780 16.913179
vt 6.125160 16.913179
vt 6.125160 1.975340
vt 3.018330 1.975340
vt 0.000000 0.000000
vt 3.018330 16.913179
vt 2.655710 16.913179
vt 2.655710 1.975340
vt 1.620100 1.975340
vt 1.620100 16.913179
vt 1.257470 16.913179
vt 1.257470 1.975340
vt 0.221860 1.975340
vt 0.221860 16.913179
vt 0.000000 16.913179
vt 7.100590 1.975340
vt 7.322450 16.913179
vt 7.100590 16.913179
vt 6.064980 1.975340
vt 7.322450 0.000000
vt 6.064980 16.913179
vt 5.214640 16.913179
vt 5.214640 1.975340
vt 2.107810 1.975340
vt 2.107810 16.913179
vt 1.257470 16.913179
vt 1.257470 1.975340
vt 0.000000 0.000000
vt 0.000000 16.913179
vt 0.221860 1.975340
vt 9.555061 1.975340
vt 9.776921 16.913179
vt 9.555061 16.913179
vt 8.519451 1.975340
vt 9.776921 0.000000
vt 8.519451 16.913179
vt 8.170010 16.913179
vt 8.170010 1.975340
vt 5.063180 1.975340
vt 5.063180 16.913179
vt 4.713740 16.913179
vt 4.713740 1.975340
vt 1.606920 1.975340
vt 0.000000 0.000000
vt 1.606920 16.913179
vt 1.257470 16.913179
vt 1.257470 1.975340
vt 0.221860 1.975340
vt 0.221860 16.913179
vt 0.000000 16.913179
vt 23.048031 16.913179
vt 0.221860 16.913179
vt 0.221860 16.913179
vt 0.000000 0.000000
vt 0.398080 16.913179
vt 0.000000 16.913179
vt 0.398080 0.000000
vn -0.8801 0.4749 0.0000
vn -0.8801 0.4748 0.0000
vn -0.4752 -0.8799 -0.0000
vn -0.4754 -0.8798 0.0000
vn -0.4750 -0.8800 -0.0000
vn -0.4753 -0.8798 0.0000
vn -0.4751 -0.8799 0.0001
vn -0.4752 -0.8799 0.0002
vn -0.4755 -0.8797 0.0000
vn -0.4751 -0.8799 0.0000
vn -0.4698 -0.8828 0.0000
vn -0.8800 0.4751 0.0000
vn -0.8799 0.4752 -0.0000
vn -0.8798 0.4753 0.0000
vn -0.8798 0.4753 -0.0002
vn -0.8799 0.4752 0.0001
vn -0.8798 0.4754 0.0000
vn -0.8798 0.4754 -0.0004
vn -0.8799 0.4752 -0.0004
vn -0.8799 0.4751 0.0000
vn -0.8799 0.4751 -0.0002
vn -0.8799 0.4751 -0.0001
vn -0.8771 0.4804 0.0000
vn 0.4756 0.8796 0.0000
vn 0.4754 0.8798 0.0000
vn 0.4754 0.8798 0.0001
vn 0.4755 0.8797 0.0000
vn 0.4754 0.8798 0.0003
vn 0.4755 0.8797 -0.0002
vn 0.4756 0.8797 0.0000
vn 0.4755 0.8797 0.0003
vn 0.4754 0.8797 0.0000
vn 0.4754 0.8798 -0.0002
vn 0.4755 0.8797 0.0001
vn 0.4754 0.8798 -0.0001
vn 0.8800 -0.4749 0.0000
vn 0.8801 -0.4749 0.0000
vn 0.8802 -0.4747 -0.0000
vn 0.8800 -0.4750 0.0000
vn 0.8800 -0.4750 -0.0001
vn 0.8801 -0.4749 -0.0001
vn 0.8800 -0.4749 0.0002
vn 0.8801 -0.4748 0.0000
vn 0.4741 0.8805 -0.0000
vn 0.4744 0.8803 0.0000
vn 0.4745 0.8803 0.0000
vn 0.4743 0.8803 0.0000
vn 0.4743 0.8803 -0.0001
vn 0.8797 -0.4756 0.0000
vn 0.8796 -0.4757 -0.0000
vn 0.8796 -0.4756 0.0000
vn 0.8796 -0.4757 -0.0001
vn -0.4751 -0.8800 0.0000
vn -0.4752 -0.8799 -0.0001
vn -0.4751 -0.8799 -0.0003
vn -0.4752 -0.8799 -0.0007
vn -0.4753 -0.8798 0.0002
vn -0.4752 -0.8799 0.0001
vn -0.4752 -0.8799 -0.0002
vn 0.8842 -0.4671 0.0000
s off
f 1/1/1 2/2/1 3/3/1
f 4/4/2 5/5/2 1/1/2
f 2/2/2 1/1/2 5/5/2
f 6/6/2 7/7/2 4/4/2
f 7/7/2 8/8/2 4/4/2
f 8/8/2 5/5/2 4/4/2
f 12/9/3 13/10/3 9/11/3
f 10/12/4 9/11/4 13/10/4
f 14/13/5 15/14/5 12/9/5
f 15/14/6 16/15/6 12/9/6
f 18/16/6 19/17/6 17/18/6
f 19/17/6 20/19/6 17/18/6
f 17/18/7 20/19/7 13/10/7
f 20/19/8 21/20/8 13/10/8
f 22/21/6 23/22/6 21/20/6
f 23/22/6 24/23/6 21/20/6
f 26/24/3 27/25/3 25/26/3
f 27/25/6 28/27/6 25/26/6
f 25/26/3 28/27/3 13/10/3
f 28/27/3 29/28/3 13/10/3
f 30/29/3 31/30/3 29/28/3
f 31/30/3 32/31/3 29/28/3
f 33/32/3 34/33/3 32/31/3
f 32/31/3 34/33/3 13/10/3
f 35/34/3 36/35/3 33/32/3
f 36/35/3 37/36/3 33/32/3
f 39/37/9 40/38/9 38/39/9
f 40/38/9 41/40/9 38/39/9
f 43/41/6 44/42/6 42/43/6
f 44/42/6 45/44/6 42/43/6
f 47/45/6 48/46/6 46/47/6
f 48/46/6 49/48/6 46/47/6
f 50/49/3 34/33/3 49/48/3
f 51/50/3 52/51/3 50/49/3
f 52/51/3 53/52/3 50/49/3
f 53/52/3 34/33/3 50/49/3
f 54/53/3 34/33/3 53/52/3
f 56/54/10 34/33/10 54/53/10
f 57/55/11 58/56/11 59/57/11
f 57/55/11 60/58/11 58/56/11
f 61/59/12 62/60/12 63/61/12
f 64/62/13 65/63/13 61/59/13
f 62/60/12 61/59/12 65/63/12
f 66/64/13 67/65/13 64/62/13
f 67/65/13 68/66/13 64/62/13
f 68/66/13 65/63/13 64/62/13
f 68/66/13 69/67/13 65/63/13
f 70/68/14 71/69/14 69/67/14
f 71/69/14 72/70/14 69/67/14
f 69/67/15 72/70/15 65/63/15
f 72/70/16 73/71/16 65/63/16
f 74/72/14 75/73/14 73/71/14
f 75/73/17 76/74/17 73/71/17
f 73/71/18 76/74/18 65/63/18
f 76/74/13 77/75/13 65/63/13
f 78/76/13 79/77/13 77/75/13
f 79/77/13 80/78/13 77/75/13
f 80/78/19 81/79/19 77/75/19
f 77/75/13 81/79/13 65/63/13
f 82/80/16 81/79/16 80/78/16
f 83/81/20 84/82/20 82/80/20
f 84/82/13 85/83/13 82/80/13
f 85/83/21 81/79/21 82/80/21
f 86/84/13 81/79/13 85/83/13
f 87/85/13 88/86/13 86/84/13
f 88/86/13 89/87/13 86/84/13
f 89/87/13 81/79/13 86/84/13
f 90/88/13 81/79/13 89/87/13
f 91/89/13 92/90/13 90/88/13
f 92/90/20 93/91/20 90/88/20
f 93/91/22 81/79/22 90/88/22
f 94/92/13 81/79/13 93/91/13
f 95/93/14 96/94/14 94/92/14
f 96/94/14 81/79/14 94/92/14
f 97/95/23 98/96/23 99/97/23
f 97/95/23 99/97/23 100/98/23
f 101/99/24 102/100/24 103/101/24
f 104/102/25 105/103/25 101/99/25
f 102/100/24 101/99/24 105/103/24
f 106/104/25 107/105/25 104/102/25
f 107/105/25 108/106/25 104/102/25
f 108/106/26 105/103/26 104/102/26
f 108/106/27 109/107/27 105/103/27
f 110/108/25 111/109/25 109/107/25
f 111/109/25 112/110/25 109/107/25
f 109/107/25 112/110/25 105/103/25
f 112/110/27 113/111/27 105/103/27
f 114/112/25 115/113/25 113/111/25
f 115/113/25 116/114/25 113/111/25
f 113/111/28 116/114/28 105/103/28
f 116/114/29 117/115/29 105/103/29
f 118/116/25 119/117/25 117/115/25
f 119/117/25 120/118/25 117/115/25
f 117/115/28 120/118/28 105/103/28
f 120/118/28 121/119/28 105/103/28
f 122/120/27 123/121/27 121/119/27
f 123/121/30 124/122/30 121/119/30
f 124/122/31 125/123/31 121/119/31
f 121/119/32 125/123/32 105/103/32
f 126/124/33 125/123/33 124/122/33
f 127/125/27 128/126/27 126/124/27
f 128/126/30 129/127/30 126/124/30
f 129/127/34 125/123/34 126/124/34
f 130/128/25 125/123/25 129/127/25
f 131/129/25 132/130/25 130/128/25
f 132/130/25 133/131/25 130/128/25
f 133/131/25 125/123/25 130/128/25
f 134/132/27 125/123/27 133/131/27
f 135/133/25 136/134/25 134/132/25
f 136/134/25 137/135/25 134/132/25
f 137/135/35 125/123/35 134/132/35
f 138/136/27 125/123/27 137/135/27
f 139/137/25 140/138/25 138/136/25
f 140/138/25 125/123/25 138/136/25
f 141/139/36 142/140/36 143/141/36
f 144/142/37 145/143/37 141/139/37
f 142/140/38 141/139/38 145/143/38
f 146/144/36 147/145/36 144/142/36
f 147/145/39 148/146/39 144/142/39
f 148/146/40 145/143/40 144/142/40
f 148/146/37 149/147/37 145/143/37
f 150/148/36 151/149/36 149/147/36
f 151/149/36 152/150/36 149/147/36
f 149/147/41 152/150/41 145/143/41
f 153/151/37 154/152/37 152/150/37
f 152/150/37 154/152/37 145/143/37
f 155/153/39 156/154/39 153/151/39
f 156/154/36 157/155/36 153/151/36
f 157/155/42 154/152/42 153/151/42
f 158/156/37 154/152/37 157/155/37
f 159/157/36 160/158/36 158/156/36
f 160/158/36 161/159/36 158/156/36
f 161/159/36 154/152/36 158/156/36
f 162/160/37 154/152/37 161/159/37
f 163/161/43 164/162/43 162/160/43
f 164/162/43 154/152/43 162/160/43
f 165/163/44 166/164/44 167/165/44
f 168/166/45 169/167/45 165/163/45
f 166/164/46 165/163/46 169/167/46
f 170/168/45 171/169/45 168/166/45
f 171/169/45 172/170/45 168/166/45
f 172/170/45 169/167/45 168/166/45
f 172/170/45 173/171/45 169/167/45
f 174/172/45 175/173/45 173/171/45
f 175/173/47 176/174/47 173/171/47
f 176/174/48 177/175/48 173/171/48
f 173/171/45 177/175/45 169/167/45
f 180/176/46 177/175/46 178/177/46
f 181/178/49 182/179/49 183/180/49
f 184/181/50 185/182/50 181/178/50
f 182/179/49 181/178/49 185/182/49
f 186/183/51 187/184/51 184/181/51
f 187/184/50 188/185/50 184/181/50
f 188/185/50 185/182/50 184/181/50
f 188/185/51 189/186/51 185/182/51
f 190/187/50 191/188/50 189/186/50
f 191/188/50 192/189/50 189/186/50
f 189/186/52 192/189/52 185/182/52
f 193/190/50 194/191/50 192/189/50
f 192/189/50 194/191/50 185/182/50
f 195/192/51 196/193/51 193/190/51
f 196/193/49 197/194/49 193/190/49
f 197/194/49 194/191/49 193/190/49
f 198/195/50 194/191/50 197/194/50
f 199/196/50 200/197/50 198/195/50
f 200/197/50 194/191/50 198/195/50
s 1
f 9/11/53 10/12/53 11/198/53
f 16/15/3 13/10/3 12/9/54
f 16/15/3 17/18/3 13/10/3
f 21/20/55 24/23/3 13/10/54
f 24/23/3 25/26/3 13/10/54
f 29/28/56 32/31/56 13/10/56
f 37/36/57 34/33/3 33/32/3
f 38/39/3 34/33/3 37/36/57
f 41/40/8 34/33/3 38/39/3
f 42/43/58 34/33/3 41/40/8
f 45/44/10 34/33/3 42/43/58
f 46/47/57 34/33/3 45/44/10
f 49/48/59 34/33/3 46/47/57
f 55/199/4 56/54/4 54/53/4
f 178/177/45 177/175/45 176/174/45
f 179/200/46 180/176/46 178/177/46
f 201/201/60 202/202/60 203/203/60
f 201/201/60 204/204/60 202/202/60
