# Blender v3.0.1 OBJ File: 'rockerfeller_plaza.blend'
# www.blender.org
o geometryt000010000010000110010110000110000110100000100100st120_
v 396.803497 -165.038025 610.087036
v 389.699097 -174.102219 610.087036
v 388.399414 -173.406723 610.087036
v 394.713593 -161.731628 610.087036
v 391.406616 -175.014923 610.087036
v 396.862915 -162.883530 610.087036
v 399.224609 -166.342224 610.087036
v 408.861298 -148.522217 610.087036
v 407.168793 -143.812317 610.087036
v 421.593506 -151.560730 610.087036
v 423.897583 -156.596619 610.087036
v 425.087585 -154.384521 610.087036
v 422.833099 -149.259323 610.087036
v 432.424103 -154.410324 610.087036
v 430.779419 -157.449326 610.087036
v 394.660095 -176.753525 610.087036
v 400.015686 -166.854828 610.087036
v 410.471497 -153.421829 610.087036
v 402.487701 -168.180618 610.087036
v 422.245605 -159.735519 610.087036
v 423.146484 -158.070831 610.087036
v 428.838196 -161.124420 610.087036
v 406.182800 -140.326523 610.087036
v 398.584778 -178.861816 610.087036
v 399.774200 -179.503021 610.087036
v 411.791199 -157.292328 610.087036
v 426.606598 -165.247116 610.087036
v 427.986816 -162.688629 610.087036
v 411.129700 -181.025421 610.087036
v 409.229095 -184.566925 610.087036
v 412.550995 -178.377731 610.087036
v 414.047913 -175.695831 610.087036
v 425.540710 -167.235626 610.087036
v 419.459198 -178.597229 610.087036
v 418.872314 -179.669922 610.087036
v 417.987915 -181.301117 610.087036
v 388.399414 -173.406723 665.087036
v 389.699097 -174.102219 665.087036
v 396.803497 -165.038025 665.087036
v 394.713593 -161.731628 665.087036
v 391.406616 -175.014923 665.087036
v 392.373199 -173.228027 665.087036
v 396.862915 -162.883530 665.087036
v 397.237091 -165.271622 665.087036
v 399.224609 -166.342224 665.087036
v 400.950592 -163.150528 665.087036
v 408.861298 -148.522217 665.087036
v 407.168793 -143.812317 665.087036
v 421.593506 -151.560730 665.087036
v 411.554291 -149.968430 665.087036
v 423.897583 -156.596619 665.087036
v 425.087585 -154.384521 665.087036
v 422.833099 -149.259323 665.087036
v 424.110718 -156.200424 665.087036
v 432.424103 -154.410324 665.087036
v 426.106995 -154.933426 665.087036
v 430.779419 -157.449326 665.087036
v 391.406616 -175.014923 677.087036
v 394.660095 -176.753525 677.087036
v 399.224609 -166.342224 677.087036
v 396.803497 -165.038025 677.087036
v 395.231293 -175.697723 677.087036
v 400.015686 -166.854828 677.087036
v 410.471497 -153.421829 677.087036
v 408.861298 -148.522217 677.087036
v 400.279419 -166.996231 677.087036
v 403.339294 -166.606323 677.087036
v 402.487701 -168.180618 677.087036
v 423.897583 -156.596619 677.087036
v 411.727417 -154.095322 677.087036
v 423.146484 -158.070831 677.087036
v 422.245605 -159.735519 677.087036
v 422.341705 -159.557922 677.087036
v 423.753601 -158.396530 677.087036
v 428.838196 -161.124420 677.087036
v 430.779419 -157.449326 677.087036
v 425.087585 -154.384521 677.087036
v 394.660095 -176.753525 685.087036
v 398.584778 -178.861816 685.087036
v 402.487701 -168.180618 685.087036
v 400.015686 -166.854828 685.087036
v 399.774200 -179.503021 685.087036
v 400.984497 -177.266022 685.087036
v 411.791199 -157.292328 685.087036
v 410.471497 -153.421829 685.087036
v 422.245605 -159.735519 685.087036
v 413.283386 -158.093521 685.087036
v 426.606598 -165.247116 685.087036
v 427.986816 -162.688629 685.087036
v 423.146484 -158.070831 685.087036
v 428.838196 -161.124420 685.087036
v 398.361877 -160.109528 657.087036
v 394.713593 -161.731628 657.087036
v 395.026306 -161.899124 657.087036
v 407.168793 -143.812317 657.087036
v 406.182800 -140.326523 657.087036
v 396.862915 -162.883530 657.087036
v 422.833099 -149.259323 657.087036
v 409.266907 -144.939331 657.087036
v 421.593506 -151.560730 657.087036
v 421.773804 -151.226028 657.087036
v 411.129700 -181.025421 693.487000
v 399.774200 -179.503021 693.487000
v 409.229095 -184.566925 693.487000
v 412.550995 -178.377731 693.487000
v 414.047913 -175.695831 693.487000
v 411.791199 -157.292328 693.487000
v 425.540710 -167.235626 693.487000
v 426.606598 -165.247116 693.487000
v 419.459198 -178.597229 693.487000
v 418.872314 -179.669922 622.087036
v 412.766418 -177.991821 622.087036
v 412.550995 -178.377731 622.087036
v 417.987915 -181.301117 622.087036
v 414.047913 -175.695831 622.087036
v 414.826477 -176.113327 622.087036
v 419.459198 -178.597229 622.087036
vt 0.255200 0.282110
vt 0.273950 0.267580
vt 0.273100 0.264980
vt 0.249850 0.277980
vt 0.275070 0.271000
vt 0.251260 0.282280
vt 0.256800 0.286960
vt 0.221310 0.306800
vt 0.213280 0.303500
vt 0.222790 0.332390
vt 0.231220 0.336920
vt 0.226820 0.339370
vt 0.218210 0.334940
vt 0.224530 0.354150
vt 0.230590 0.350770
vt 0.277200 0.277520
vt 0.257480 0.288540
vt 0.229720 0.309930
vt 0.259110 0.293490
vt 0.237460 0.333510
vt 0.234140 0.335370
vt 0.237890 0.346770
vt 0.207250 0.301590
vt 0.279790 0.285380
vt 0.280570 0.287760
vt 0.236340 0.312500
vt 0.246100 0.342180
vt 0.241010 0.345020
vt 0.279730 0.310610
vt 0.286780 0.306700
vt 0.274460 0.313540
vt 0.269110 0.316620
vt 0.250060 0.339980
vt 0.272670 0.327460
vt 0.274810 0.326250
vt 0.278050 0.324430
vt 0.273100 0.264980
vt 0.273950 0.267580
vt 0.255200 0.282110
vt 0.249850 0.277980
vt 0.275070 0.271000
vt 0.271510 0.272990
vt 0.251260 0.282280
vt 0.255480 0.282980
vt 0.256800 0.286960
vt 0.250440 0.290510
vt 0.221310 0.306800
vt 0.213280 0.303500
vt 0.222790 0.332390
vt 0.223090 0.312190
vt 0.231220 0.336920
vt 0.226820 0.339370
vt 0.218210 0.334940
vt 0.230430 0.337360
vt 0.224530 0.354150
vt 0.227490 0.341410
vt 0.230590 0.350770
vt 0.275070 0.271000
vt 0.277200 0.277520
vt 0.256800 0.286960
vt 0.255200 0.282110
vt 0.275090 0.278690
vt 0.257480 0.288540
vt 0.229720 0.309930
vt 0.221310 0.306800
vt 0.257660 0.289070
vt 0.255970 0.295250
vt 0.259110 0.293490
vt 0.231220 0.336920
vt 0.230540 0.312450
vt 0.234140 0.335370
vt 0.237460 0.333510
vt 0.237110 0.333710
vt 0.234540 0.336580
vt 0.237890 0.346770
vt 0.230590 0.350770
vt 0.226820 0.339370
vt 0.277200 0.277520
vt 0.279790 0.285380
vt 0.259110 0.293490
vt 0.257480 0.288540
vt 0.280570 0.287760
vt 0.276120 0.290250
vt 0.236340 0.312500
vt 0.229720 0.309930
vt 0.237460 0.333510
vt 0.237320 0.315490
vt 0.246100 0.342180
vt 0.241010 0.345020
vt 0.234140 0.335370
vt 0.237890 0.346770
vt 0.245730 0.285370
vt 0.249850 0.277980
vt 0.250050 0.278600
vt 0.213280 0.303500
vt 0.207250 0.301590
vt 0.251260 0.282280
vt 0.218210 0.334940
vt 0.214660 0.307700
vt 0.222790 0.332390
vt 0.222130 0.332760
vt 0.279730 0.310610
vt 0.280570 0.287760
vt 0.286780 0.306700
vt 0.274460 0.313540
vt 0.269110 0.316620
vt 0.236340 0.312500
vt 0.250060 0.339980
vt 0.246100 0.342180
vt 0.272670 0.327460
vt 0.274810 0.326250
vt 0.273690 0.313980
vt 0.274460 0.313540
vt 0.278050 0.324430
vt 0.269110 0.316620
vt 0.269620 0.318180
vt 0.272670 0.327460
vn 0.0000 0.0000 -1.0000
vn -0.0001 0.0000 -1.0000
vn 0.0000 0.0000 1.0000
vn 0.0001 0.0000 1.0000
vn -0.0001 0.0000 1.0000
vn 0.0002 0.0000 1.0000
s off
f 1/1/1 2/2/1 3/3/1
f 1/1/1 3/3/1 4/4/1
f 5/5/1 2/2/1 1/1/1
f 6/6/1 1/1/1 4/4/1
f 7/7/1 1/1/1 6/6/1
f 7/7/1 6/6/1 8/8/1
f 6/6/1 9/9/1 8/8/1
f 9/9/1 10/10/1 8/8/1
f 11/11/1 8/8/1 10/10/1
f 12/12/1 10/10/1 13/13/1
f 12/12/1 11/11/1 10/10/1
f 12/12/1 13/13/1 14/14/1
f 14/14/1 15/15/1 12/12/1
f 16/16/1 5/5/1 7/7/1
f 7/7/1 5/5/1 1/1/1
f 17/17/1 16/16/1 7/7/1
f 17/17/2 7/7/2 18/18/2
f 7/7/1 8/8/1 18/18/1
f 19/19/1 17/17/1 18/18/1
f 8/8/1 11/11/1 18/18/1
f 20/20/1 18/18/1 21/21/1
f 21/21/1 18/18/1 11/11/1
f 11/11/1 22/22/1 21/21/1
f 11/11/1 12/12/1 15/15/1
f 22/22/1 11/11/1 15/15/1
f 6/6/1 4/4/1 9/9/1
f 4/4/1 23/23/1 9/9/1
f 23/23/1 13/13/1 9/9/1
f 13/13/1 10/10/1 9/9/1
f 24/24/1 16/16/1 19/19/1
f 16/16/1 17/17/1 19/19/1
f 25/25/1 24/24/1 19/19/1
f 26/26/1 25/25/1 19/19/1
f 19/19/1 18/18/1 26/26/1
f 18/18/1 20/20/1 26/26/1
f 27/27/1 26/26/1 20/20/1
f 21/21/1 28/28/1 20/20/1
f 20/20/1 28/28/1 27/27/1
f 21/21/1 22/22/1 28/28/1
f 25/25/1 29/29/1 30/30/1
f 25/25/1 31/31/1 29/29/1
f 26/26/1 32/32/1 25/25/1
f 25/25/1 32/32/1 31/31/1
f 26/26/1 33/33/1 32/32/1
f 26/26/1 27/27/1 33/33/1
f 32/32/1 33/33/1 34/34/1
f 35/35/1 31/31/1 32/32/1
f 36/36/1 31/31/1 35/35/1
f 32/32/1 34/34/1 35/35/1
f 37/37/3 38/38/3 39/39/3
f 40/40/3 37/37/3 39/39/3
f 38/38/3 41/41/3 42/42/3
f 38/38/3 42/42/3 39/39/3
f 40/40/4 39/39/4 43/43/4
f 39/39/3 44/44/3 43/43/3
f 44/44/3 45/45/3 43/43/3
f 43/43/3 45/45/3 46/46/3
f 43/43/3 46/46/3 47/47/3
f 48/48/3 43/43/3 47/47/3
f 49/49/3 48/48/3 47/47/3
f 50/50/3 49/49/3 47/47/3
f 51/51/3 49/49/3 50/50/3
f 52/52/3 53/53/3 49/49/3
f 54/54/3 49/49/3 51/51/3
f 52/52/3 49/49/3 54/54/3
f 55/55/3 53/53/3 52/52/3
f 56/56/3 55/55/3 52/52/3
f 57/57/3 55/55/3 56/56/3
f 58/58/3 59/59/3 60/60/3
f 58/58/3 60/60/3 61/61/3
f 59/59/3 62/62/3 60/60/3
f 62/62/4 63/63/4 60/60/4
f 60/60/5 63/63/5 64/64/5
f 65/65/3 60/60/3 64/64/3
f 63/63/5 66/66/5 67/67/5
f 63/63/3 67/67/3 64/64/3
f 66/66/3 68/68/3 67/67/3
f 69/69/3 65/65/3 64/64/3
f 70/70/3 71/71/3 64/64/3
f 71/71/3 69/69/3 64/64/3
f 72/72/6 73/73/6 70/70/6
f 70/70/3 73/73/3 71/71/3
f 71/71/3 74/74/3 69/69/3
f 74/74/3 75/75/3 69/69/3
f 76/76/3 77/77/3 69/69/3
f 75/75/3 76/76/3 69/69/3
f 78/78/3 79/79/3 80/80/3
f 78/78/3 80/80/3 81/81/3
f 79/79/3 82/82/3 80/80/3
f 82/82/3 83/83/3 80/80/3
f 83/83/3 84/84/3 80/80/3
f 85/85/3 80/80/3 84/84/3
f 86/86/3 85/85/3 84/84/3
f 84/84/3 87/87/3 86/86/3
f 87/87/3 88/88/3 86/86/3
f 89/89/3 90/90/3 86/86/3
f 89/89/3 86/86/3 88/88/3
f 91/91/3 90/90/3 89/89/3
f 92/92/4 93/93/4 94/94/4
f 95/95/3 93/93/3 92/92/3
f 95/95/3 96/96/3 93/93/3
f 92/92/3 94/94/3 97/97/3
f 98/98/3 96/96/3 95/95/3
f 99/99/3 98/98/3 95/95/3
f 100/100/3 101/101/3 99/99/3
f 101/101/3 98/98/3 99/99/3
f 102/102/3 103/103/3 104/104/3
f 102/102/3 105/105/3 103/103/3
f 106/106/3 107/107/3 103/103/3
f 105/105/3 106/106/3 103/103/3
f 108/108/3 107/107/3 106/106/3
f 109/109/3 107/107/3 108/108/3
f 110/110/3 108/108/3 106/106/3
f 111/111/3 112/112/3 113/113/3
f 113/113/3 114/114/3 111/111/3
f 111/111/3 115/115/3 112/112/3
f 116/116/3 115/115/3 111/111/3
f 117/117/5 116/116/5 111/111/5
