# Blender v3.0.1 OBJ File: 'rockerfeller_plaza.blend'
# www.blender.org
o geometryt000010000010000110010110000110000110100100000000st211
v 364.804138 -121.469788 888.730591
v 344.550842 -133.117874 888.730591
v 357.683289 -108.762688 888.730591
v 354.206299 -136.525284 888.730591
v 348.783875 -139.230484 888.730591
v 342.947479 -136.089676 888.730591
v 365.250641 -120.665283 888.730591
v 368.515015 -114.598885 888.730591
v 356.133911 -137.490982 888.730591
v 351.765808 -140.839081 888.730591
v 344.550842 -133.117874 955.030579
v 342.947479 -136.089676 955.030579
v 348.783875 -139.230484 955.030579
v 354.206299 -136.525284 955.030579
v 351.765808 -140.839081 955.030579
v 364.804138 -121.469788 955.030579
v 356.133911 -137.490982 955.030579
v 365.250641 -120.665283 955.030579
v 357.683289 -108.762688 955.030579
v 368.515015 -114.598885 955.030579
vt 0.187100 0.212190
vt 0.214740 0.171100
vt 0.166250 0.198140
vt 0.217870 0.190480
vt 0.224510 0.179490
vt 0.220650 0.167800
vt 0.185500 0.213110
vt 0.173420 0.219830
vt 0.219010 0.194340
vt 0.226490 0.185460
vt 0.214740 0.171100
vt 0.220650 0.167800
vt 0.224510 0.179490
vt 0.217870 0.190480
vt 0.226490 0.185460
vt 0.187100 0.212190
vt 0.219010 0.194340
vt 0.185500 0.213110
vt 0.166250 0.198140
vt 0.173420 0.219830
vn 0.0000 0.0000 -1.0000
vn 0.0000 0.0000 1.0000
s off
f 1/1/1 2/2/1 3/3/1
f 4/4/1 2/2/1 1/1/1
f 5/5/1 2/2/1 4/4/1
f 6/6/1 2/2/1 5/5/1
f 7/7/1 3/3/1 8/8/1
f 7/7/1 1/1/1 3/3/1
f 9/9/1 4/4/1 1/1/1
f 10/10/1 5/5/1 4/4/1
f 11/11/2 12/12/2 13/13/2
f 14/14/2 13/13/2 15/15/2
f 11/11/2 13/13/2 14/14/2
f 16/16/2 14/14/2 17/17/2
f 16/16/2 11/11/2 14/14/2
f 18/18/2 19/19/2 16/16/2
f 19/19/2 11/11/2 16/16/2
f 20/20/2 19/19/2 18/18/2
