# Blender v3.0.1 OBJ File: 'rockerfeller_plaza.blend'
# www.blender.org
o geometryt000010000010000110010110000110000110100000000110st72_A
v 563.855652 -68.397537 133.609055
v 563.855652 -68.397537 107.959854
v 602.386475 -99.874344 107.959854
v 602.386475 -99.874344 133.609055
v 574.768677 -46.684799 193.609070
v 574.768677 -46.684799 107.959854
v 563.636292 -67.282356 107.959854
v 563.636292 -67.282356 193.609070
v 563.608582 -68.105026 193.609070
v 563.608582 -68.105026 133.609055
v 571.210999 -72.239685 133.609055
v 586.747986 -80.689613 193.609070
v 586.747986 -80.689613 133.609055
v 575.725281 -44.890049 133.609055
v 575.725281 -44.890049 107.959854
v 575.279724 -45.732349 107.959854
v 575.279724 -45.732349 133.609055
v 577.039246 -45.591309 193.609070
v 577.039246 -45.591309 133.609055
v 576.729187 -45.663300 133.609055
v 575.613831 -45.922287 193.609070
v 575.613831 -45.922287 133.609055
v 580.319763 -36.438610 193.609070
v 580.319763 -36.438610 107.959854
v 576.122986 -44.150688 107.959854
v 576.122986 -44.150688 193.609070
v 576.190063 -44.749187 193.609070
v 576.190063 -44.749187 133.609055
v 576.435913 -44.882149 133.609055
v 577.231140 -45.312180 193.609070
v 577.231140 -45.312180 133.609055
v 582.407227 -32.693089 107.959854
v 580.979126 -35.247658 107.959854
v 580.979126 -35.247658 193.609070
v 582.407227 -32.693089 193.609070
v 587.203064 -23.727388 133.609055
v 587.203064 -23.727388 107.959854
v 583.075195 -31.476578 107.959854
v 583.075195 -31.476578 133.609055
v 600.012207 -41.003040 193.609070
v 600.012207 -41.003040 133.609055
v 594.523071 -38.106537 133.609055
v 583.187439 -32.125038 193.609070
v 583.187439 -32.125038 133.609055
v 586.675659 -82.635612 193.609070
v 586.675659 -82.635612 133.609055
v 586.852295 -82.575233 133.609055
v 588.060364 -82.162392 193.609070
v 588.060364 -82.162392 133.609055
v 586.832458 -81.274895 133.609055
v 586.660339 -81.556068 133.609055
v 586.832458 -81.274895 193.609070
v 586.068604 -82.523056 193.609070
v 586.068604 -82.523056 133.609055
v 615.112000 -48.593620 107.959854
v 588.128601 -23.890429 107.959854
v 588.128601 -23.890429 133.609055
v 615.112000 -48.593620 133.609055
v 589.852966 -82.380348 133.609055
v 595.110962 -85.239883 133.609055
v 589.852966 -82.380348 193.609070
v 606.564819 -91.469025 193.609070
v 606.564819 -91.469025 133.609055
v 602.297791 -40.569588 133.609055
v 602.012207 -40.661728 133.609055
v 602.297791 -40.569588 193.609070
v 600.905090 -41.018768 193.609070
v 600.905090 -41.018768 133.609055
v 615.401123 -49.013138 133.609055
v 611.203613 -46.831219 133.609055
v 615.401123 -49.013138 193.609070
v 602.417114 -42.263920 193.609070
v 602.417114 -42.263920 133.609055
v 602.176392 -41.750107 193.609070
v 602.176392 -41.750107 133.609055
v 602.294922 -41.505909 133.609055
v 602.682800 -40.707157 193.609070
v 602.682800 -40.707157 133.609055
v 603.141785 -100.022583 107.959854
v 607.326538 -92.303955 107.959854
v 607.326538 -92.303955 133.609055
v 603.141785 -100.022583 133.609055
v 614.287598 -78.128548 133.609055
v 611.049683 -76.405724 133.609055
v 614.287598 -78.128548 193.609070
v 608.444580 -75.019554 133.609055
v 606.403625 -73.933586 133.609055
v 603.952820 -72.629501 193.609070
v 603.952820 -72.629501 133.609055
v 603.631226 -71.737976 133.609055
v 604.221008 -70.634323 133.609055
v 603.631226 -71.737976 193.609070
v 605.700195 -67.866074 193.609070
v 605.700195 -67.866074 133.609055
v 606.221924 -66.914085 107.959854
v 610.397217 -59.190357 107.959854
v 610.397217 -59.190357 117.476425
v 610.397217 -59.190357 131.751297
v 606.221924 -66.914085 193.609070
v 610.839478 -58.372269 117.476425
v 611.093140 -57.903069 126.230347
v 611.093140 -57.903069 131.751297
v 610.397217 -59.190357 193.609070
v 616.911377 -73.166763 133.609055
v 616.911377 -73.166763 107.959854
v 606.598633 -67.626724 107.959854
v 606.598633 -67.626724 133.609055
v 607.690613 -91.636078 193.609070
v 607.690613 -91.636078 107.959854
v 614.721008 -78.802132 107.959854
v 614.721008 -78.802132 193.609070
v 612.893127 -54.569298 107.959854
v 610.806885 -58.431938 116.360443
v 610.806885 -58.431938 107.959854
v 612.893127 -54.569298 116.975555
v 613.450928 -53.536587 116.975555
v 613.588501 -53.281750 121.492432
v 611.502319 -57.144398 121.483406
v 613.588501 -53.281750 130.499115
v 612.893127 -54.569298 130.499115
v 612.893127 -54.569298 193.609070
v 611.502319 -57.144398 135.006958
v 610.806885 -58.431938 193.609070
v 610.806885 -58.431938 135.006958
v 610.955200 -58.157307 121.483406
v 613.369812 -53.682190 114.376686
v 613.369812 -53.682190 107.959854
v 615.463318 -49.823479 107.959854
v 615.463318 -49.823479 193.609070
v 614.067627 -52.395958 133.654617
v 614.067627 -52.395958 120.807236
v 613.369812 -53.682190 193.609070
v 613.369812 -53.682190 133.654617
v 613.566406 -53.319759 120.807236
v 615.697998 -76.836662 107.959854
v 617.091003 -74.262756 107.959854
v 617.091003 -74.262756 133.609055
v 615.697998 -76.836662 133.609055
vt 0.000000 1.250000
vt 0.000000 0.000000
vt 5.666670 0.000000
vt 5.666670 1.250000
vt 0.000000 4.750000
vt 0.000000 0.000000
vt 2.666670 0.000000
vt 2.666670 4.750000
vt 0.000000 3.750000
vt 0.000000 0.000000
vt 0.985650 0.000000
vt 3.000000 3.750000
vt 3.000000 0.000000
vt 0.000000 1.250000
vt 0.000000 0.000000
vt 0.166670 0.000000
vt 0.166670 1.250000
vt 0.000000 3.750000
vt 0.000000 0.000000
vt 0.036250 0.000000
vt 0.166670 3.750000
vt 0.166670 0.000000
vt 0.000000 4.750000
vt 0.000000 0.000000
vt 1.000000 0.000000
vt 1.000000 4.750000
vt 0.000000 3.750000
vt 0.000000 0.000000
vt 0.039360 0.000000
vt 0.166670 3.750000
vt 0.166670 0.000000
vt 0.000000 1.250000
vt 0.000000 0.000000
vt 1.000000 0.000000
vt 1.000000 1.250000
vt 0.000000 3.750000
vt 0.000000 0.000000
vt 0.706890 0.000000
vt 2.166670 3.750000
vt 2.166670 0.000000
vt 0.000000 3.750000
vt 0.000000 0.000000
vt 0.021260 0.000000
vt 0.166670 3.750000
vt 0.166670 0.000000
vt 0.000000 0.000000
vt 0.037540 0.000000
vt 0.000000 3.750000
vt 0.166670 3.750000
vt 0.166670 0.000000
vt 0.000000 0.000000
vt 4.166670 0.000000
vt 4.166670 1.250000
vt 0.000000 1.250000
vt 0.000000 0.000000
vt 0.681690 0.000000
vt 0.000000 3.750000
vt 2.166670 3.750000
vt 2.166670 0.000000
vt 0.166670 3.750000
vt 0.034190 0.000000
vt 0.166670 0.000000
vt 0.000000 3.750000
vt 0.000000 0.000000
vt 0.538810 0.000000
vt 0.000000 3.750000
vt 0.000000 3.750000
vt 0.000000 0.000000
vt 0.039020 0.000000
vt 0.166670 3.750000
vt 0.166670 0.000000
vt 0.000000 0.000000
vt 1.000000 0.000000
vt 1.000000 1.250000
vt 0.000000 1.250000
vt 0.000000 0.000000
vt 0.417730 0.000000
vt 0.000000 3.750000
vt 0.753820 0.000000
vt 1.017140 0.000000
vt 1.333330 3.750000
vt 1.333330 0.000000
vt 0.000000 0.000000
vt 0.142520 0.000000
vt 0.000000 3.750000
vt 0.500000 3.750000
vt 0.500000 0.000000
vt 0.000000 0.000000
vt 1.000000 0.000000
vt 1.000000 0.500000
vt 1.000000 1.250000
vt 0.000000 4.500000
vt 1.105920 0.500000
vt 1.166670 0.959930
vt 1.166670 1.250000
vt 1.000000 4.500000
vt 0.000000 1.250000
vt 0.000000 0.000000
vt 1.333330 0.000000
vt 1.333330 1.250000
vt 0.000000 5.250000
vt 0.000000 0.000000
vt 1.666670 0.000000
vt 1.666670 5.250000
vt 0.500000 0.000000
vt 0.000000 0.465890
vt 0.000000 0.000000
vt 0.500000 0.500000
vt 0.666670 0.750500
vt 0.166670 0.750000
vt 0.500000 1.250000
vt 0.000000 4.750000
vt 0.166670 1.500000
vt 0.500000 4.750000
vt 0.000000 1.500000
vt 0.035550 0.750000
vt 0.000000 0.374600
vt 0.000000 0.000000
vt 0.500000 0.000000
vt 0.500000 5.000000
vt 0.166670 1.500000
vt 0.166670 0.750000
vt 0.000000 5.000000
vt 0.000000 1.500000
vt 0.046960 0.750000
vt 0.000000 0.000000
vt 0.333330 0.000000
vt 0.333330 1.250000
vt 0.000000 1.250000
vt 0.000000 0.000000
vt 0.333330 0.000000
vt 0.333330 4.750000
vt 0.000000 4.750000
vt 0.000000 0.000000
vt 1.666670 3.750000
vt 1.666670 0.000000
vt 0.633680 0.500000
vt 0.666670 1.250000
vn -0.6327 -0.7744 0.0000
vn -0.8797 0.4755 0.0000
vn -0.4778 -0.8785 0.0000
vn -0.8839 0.4676 0.0000
vn -0.8840 0.4676 0.0000
vn -0.2262 0.9741 0.0000
vn -0.8784 0.4780 0.0000
vn -0.4757 -0.8796 0.0000
vn -0.4756 -0.8796 0.0000
vn -0.8826 0.4701 0.0000
vn -0.8826 0.4702 0.0000
vn 0.4667 0.8844 0.0000
vn 0.3234 -0.9463 0.0000
vn -0.8529 0.5221 0.0000
vn -0.8529 0.5220 0.0000
vn 0.6753 0.7376 0.0000
vn -0.3070 0.9517 0.0000
vn -0.3069 0.9517 -0.0000
vn 0.4612 0.8873 0.0000
vn 0.8997 -0.4365 0.0000
vn 0.8996 -0.4367 0.0000
vn 0.8995 -0.4369 -0.0000
vn 0.8791 -0.4766 0.0000
vn 0.4697 0.8828 0.0000
vn 0.8819 -0.4714 0.0000
vn 0.8820 -0.4713 0.0000
vn 0.8797 -0.4755 0.0000
vn 0.8797 -0.4756 0.0000
vn 0.4732 0.8809 0.0000
vn 0.8770 -0.4804 0.0000
vn 0.8799 -0.4752 0.0000
vn 0.8790 -0.4769 0.0000
vn 0.8789 -0.4769 0.0000
vn 0.8795 -0.4759 0.0000
vn 0.8794 -0.4760 0.0000
vn -0.8729 0.4880 0.0000
vn -0.8530 0.5220 0.0000
vn -0.3072 0.9516 0.0000
s off
f 1/1/1 2/2/1 3/3/1
f 1/1/1 3/3/1 4/4/1
f 5/5/2 6/6/2 7/7/2
f 5/5/2 7/7/2 8/8/2
f 9/9/3 10/10/3 11/11/3
f 12/12/3 11/11/3 13/13/3
f 12/12/3 9/9/3 11/11/3
f 14/14/4 15/15/4 16/16/4
f 14/14/5 16/16/5 17/17/5
f 18/18/6 19/19/6 20/20/6
f 21/21/6 20/20/6 22/22/6
f 21/21/6 18/18/6 20/20/6
f 23/23/7 24/24/7 25/25/7
f 23/23/7 25/25/7 26/26/7
f 27/27/8 28/28/8 29/29/8
f 30/30/9 29/29/9 31/31/9
f 30/30/8 27/27/8 29/29/8
f 36/32/10 37/33/10 38/34/10
f 36/32/11 38/34/11 39/35/11
f 40/36/12 41/37/12 42/38/12
f 43/39/12 42/38/12 44/40/12
f 43/39/12 40/36/12 42/38/12
f 45/41/13 46/42/13 47/43/13
f 48/44/13 47/43/13 49/45/13
f 48/44/13 45/41/13 47/43/13
f 50/46/14 51/47/14 52/48/14
f 53/49/15 51/47/15 54/50/15
f 55/51/16 56/52/16 57/53/16
f 58/54/16 55/51/16 57/53/16
f 59/55/3 60/56/3 61/57/3
f 62/58/3 60/56/3 63/59/3
f 61/57/3 60/56/3 62/58/3
f 67/60/17 65/61/17 68/62/17
f 66/63/18 65/61/18 67/60/18
f 69/64/19 70/65/19 71/66/19
f 74/67/20 75/68/20 76/69/20
f 77/70/21 76/69/21 78/71/21
f 77/70/22 74/67/22 76/69/22
f 79/72/23 80/73/23 81/74/23
f 82/75/23 79/72/23 81/74/23
f 83/76/24 84/77/24 85/78/24
f 86/79/24 85/78/24 84/77/24
f 86/79/24 87/80/24 88/81/24
f 88/81/24 85/78/24 86/79/24
f 88/81/24 87/80/24 89/82/24
f 90/83/25 91/84/25 92/85/25
f 93/86/26 91/84/26 94/87/26
f 92/85/26 91/84/26 93/86/26
f 95/88/27 96/89/27 97/90/27
f 97/90/27 98/91/27 95/88/27
f 98/91/27 99/92/27 95/88/27
f 100/93/27 101/94/27 97/90/27
f 101/94/28 98/91/28 97/90/28
f 101/94/28 102/95/28 98/91/28
f 98/91/27 103/96/27 99/92/27
f 104/97/29 105/98/29 106/99/29
f 104/97/29 106/99/29 107/100/29
f 108/101/30 109/102/30 110/103/30
f 108/101/30 110/103/30 111/104/30
f 112/105/31 113/106/31 114/107/31
f 113/106/31 112/105/31 115/108/31
f 115/108/31 117/109/31 118/110/31
f 115/108/31 118/110/31 113/106/31
f 118/110/31 117/109/31 120/111/31
f 123/112/31 122/113/31 121/114/31
f 124/115/31 122/113/31 123/112/31
f 113/106/31 118/110/31 125/116/31
f 126/117/32 127/118/32 128/119/32
f 129/120/32 130/121/32 128/119/32
f 130/121/32 131/122/32 128/119/32
f 131/122/32 126/117/32 128/119/32
f 129/120/32 132/123/32 130/121/32
f 132/123/33 133/124/33 130/121/33
f 131/122/32 134/125/32 126/117/32
f 135/126/34 136/127/34 137/128/34
f 138/129/35 135/126/35 137/128/35
s 1
f 32/130/36 33/131/36 34/132/36
f 35/133/36 32/130/36 34/132/36
f 52/48/37 51/47/37 53/49/37
f 64/134/38 65/61/38 66/63/38
f 72/135/19 70/65/19 73/136/19
f 71/66/19 70/65/19 72/135/19
f 116/137/31 117/109/31 115/108/31
f 117/109/31 119/138/31 120/111/31
f 120/111/31 121/114/31 122/113/31
f 122/113/31 118/110/31 120/111/31
