# Blender v3.0.1 OBJ File: 'rockerfeller_plaza.blend'
# www.blender.org
o geometryt000010000010000110010110000110000110100000010100st183
v 791.169983 -111.274185 147.808273
v 799.919983 -95.018341 147.808273
v 806.461060 -98.539177 147.808273
v 793.265869 -123.062584 147.808273
v 786.724976 -119.552788 147.808273
v 791.169983 -111.274185 166.208282
v 786.724976 -119.552788 166.208282
v 793.265869 -123.062584 166.208282
v 806.461060 -98.539177 166.208282
v 799.919983 -95.018341 166.208282
vt 0.188020 0.089140
vt 0.155660 0.107160
vt 0.159980 0.120260
vt 0.208810 0.093080
vt 0.204500 0.079980
vt 0.188020 0.089140
vt 0.204500 0.079980
vt 0.208810 0.093080
vt 0.159980 0.120260
vt 0.155660 0.107160
vn 0.0000 0.0000 -1.0000
vn 0.0000 0.0000 1.0000
s off
f 1/1/1 2/2/1 3/3/1
f 4/4/1 1/1/1 3/3/1
f 5/5/1 1/1/1 4/4/1
f 6/6/2 7/7/2 8/8/2
f 9/9/2 6/6/2 8/8/2
f 10/10/2 6/6/2 9/9/2
