# Blender v3.0.1 OBJ File: 'rockerfeller_plaza.blend'
# www.blender.org
o geometryt000010000010000110010110000110000110100000110100st33_W
v 1051.614990 -255.758011 879.861450
v 1051.459839 -256.032104 879.845703
v 1051.614990 -255.758011 884.241516
v 1050.879517 -257.057404 884.241516
v 1050.879517 -257.057404 879.786926
v 1050.808594 -257.688904 880.347900
v 1050.808472 -257.688202 884.241516
v 1050.808472 -257.688202 880.346741
v 1051.205933 -259.018402 880.328857
v 1051.225830 -259.085022 880.327942
v 1051.225830 -259.085022 884.241516
v 1051.625244 -259.584900 879.936218
v 1051.875000 -259.725708 879.921936
v 1051.625244 -259.584900 884.241516
v 1052.876709 -260.290314 884.241516
v 1052.876709 -260.290314 879.864868
v 1052.117432 -255.365707 884.241516
v 1053.505737 -254.981705 880.701843
v 1052.218140 -255.337906 880.638550
v 1053.505737 -254.981705 884.241516
v 1052.213013 -255.339310 880.638306
v 1052.117432 -255.365707 880.468628
v 1053.508911 -260.364410 884.241516
v 1053.508911 -260.364410 880.411621
v 1053.685791 -260.313599 880.712402
v 1053.702393 -260.308807 880.740845
v 1054.940918 -259.953094 880.666748
v 1054.940918 -259.953094 884.241516
v 1055.421021 -255.746902 884.241516
v 1055.421021 -255.746902 880.403015
v 1055.225830 -255.641205 880.397705
v 1054.141602 -255.054001 884.241516
v 1054.141602 -255.054001 880.368652
v 1055.438843 -259.555603 880.400940
v 1055.545898 -259.361206 880.394653
v 1055.438843 -259.555603 884.241516
v 1056.139404 -258.282806 884.241516
v 1056.139404 -258.282806 880.359741
v 1056.212402 -257.648407 880.914917
v 1056.187500 -257.559601 881.066040
v 1056.212402 -257.648407 884.241516
v 1055.817627 -256.243408 884.241516
v 1055.817627 -256.243408 880.982239
v 1086.827148 -276.640015 884.241516
v 1086.827148 -276.640015 880.802917
v 1086.874512 -276.796509 880.802002
v 1087.250488 -278.037323 884.241516
v 1087.231689 -277.975311 880.795044
v 1087.250488 -278.037323 880.687744
v 1087.632446 -274.710114 884.241516
v 1087.632446 -274.710114 880.414734
v 1087.518555 -274.911316 880.403198
v 1086.896973 -276.009521 884.241516
v 1086.896973 -276.009521 880.340210
v 1087.651611 -278.536102 880.101318
v 1087.877075 -278.662506 880.090027
v 1087.651611 -278.536102 884.241516
v 1088.893677 -279.231995 884.241516
v 1088.893677 -279.231995 880.039062
v 1089.523438 -273.924316 884.241516
v 1089.523438 -273.924316 880.746521
v 1089.417725 -273.954224 880.924744
v 1089.412598 -273.955597 880.933228
v 1088.134277 -274.316223 880.884766
v 1088.134277 -274.316223 884.241516
v 1089.526611 -279.307007 880.510437
v 1089.607422 -279.284302 880.504761
v 1089.526611 -279.307007 884.241516
v 1089.693970 -279.259918 880.498657
v 1090.957886 -278.903503 880.409302
v 1090.957886 -278.903503 884.241516
v 1091.438354 -274.687897 880.229126
v 1090.193115 -274.013519 880.195740
v 1090.158813 -273.994995 884.241516
v 1091.438354 -274.687897 884.241516
v 1090.158813 -273.994995 880.194824
v 1091.456299 -278.507721 884.241516
v 1091.456299 -278.507721 879.848022
v 1091.502686 -278.423401 879.845337
v 1092.156860 -277.234894 884.241516
v 1092.156860 -277.234894 879.806824
v 1092.189209 -276.452911 880.611511
v 1092.230347 -276.600403 884.241516
v 1092.230347 -276.600403 880.361206
v 1092.177979 -276.412903 880.608948
v 1091.834473 -275.184509 880.527039
v 1091.834473 -275.184509 884.241516
vt 0.000000 0.005130
vt 0.070310 0.004250
vt 0.000000 0.250000
vt 0.333330 0.250000
vt 0.333330 0.000960
vt 0.333330 0.031210
vt 0.333330 0.250000
vt 0.317450 0.031260
vt 0.000000 0.250000
vt 0.000000 0.005040
vt 0.066530 0.004230
vt 0.000000 0.250000
vt 0.333330 0.250000
vt 0.333330 0.000980
vt 0.333330 0.250000
vt 0.000000 0.047170
vt 0.309140 0.043540
vt 0.000000 0.250000
vt 0.333330 0.033810
vt 0.310370 0.043530
vt 0.000000 0.250000
vt 0.000000 0.032090
vt 0.041180 0.049200
vt 0.045060 0.050820
vt 0.333330 0.046600
vt 0.333330 0.250000
vt 0.000000 0.250000
vt 0.000000 0.002740
vt 0.050860 0.002400
vt 0.333330 0.250000
vt 0.333330 0.000530
vt 0.000000 0.003270
vt 0.050910 0.002870
vt 0.000000 0.250000
vt 0.333330 0.250000
vt 0.333330 0.000630
vt 0.333330 0.250000
vt 0.021070 0.046000
vt 0.333330 0.040610
vt 0.000000 0.250000
vt 0.000000 0.041610
vt 0.037340 0.041550
vt 0.333330 0.250000
vt 0.318530 0.041130
vt 0.333330 0.034620
vt 0.000000 0.250000
vt 0.000000 0.005850
vt 0.051630 0.005120
vt 0.333330 0.250000
vt 0.333330 0.001100
vt 0.000000 0.004580
vt 0.060520 0.003910
vt 0.000000 0.250000
vt 0.333330 0.250000
vt 0.333330 0.000890
vt 0.333330 0.043040
vt 0.333330 0.250000
vt 0.026580 0.046030
vt 0.000000 0.250000
vt 0.000000 0.250000
vt 0.018800 0.036890
vt 0.038940 0.036540
vt 0.333330 0.031450
vt 0.333330 0.250000
vt 0.000000 0.002620
vt 0.324440 0.000560
vt 0.333330 0.250000
vt 0.000000 0.250000
vt 0.333330 0.000500
vt 0.000000 0.250000
vt 0.000000 0.002870
vt 0.022070 0.002710
vt 0.333330 0.250000
vt 0.333330 0.000550
vt 0.034710 0.045810
vt 0.000000 0.250000
vt 0.000000 0.031730
vt 0.044130 0.045660
vt 0.333330 0.041060
vt 0.333330 0.250000
vt 0.000160 0.032330
vt 0.000000 0.032260
vt 0.000000 0.036290
vt 0.000000 0.250000
vt 0.000000 0.034520
vt 0.025370 0.045510
vt 0.000000 0.037220
vn -0.8699 0.4932 0.0000
vn -0.8703 0.4925 0.0000
vn -0.9581 -0.2866 0.0000
vn -0.9582 -0.2862 0.0000
vn -0.4915 -0.8709 0.0000
vn -0.4910 -0.8712 0.0000
vn -0.2666 0.9638 -0.0000
vn -0.2664 0.9639 -0.0000
vn 0.2760 -0.9612 0.0000
vn 0.2769 -0.9609 -0.0001
vn 0.2761 -0.9611 0.0000
vn 0.4767 0.8790 0.0000
vn 0.4762 0.8793 0.0000
vn 0.8757 -0.4828 0.0000
vn 0.8761 -0.4821 0.0000
vn 0.8761 -0.4822 0.0000
vn 0.9627 0.2705 0.0000
vn -0.9572 -0.2895 0.0000
vn -0.9570 -0.2900 0.0000
vn -0.9570 -0.2899 0.0000
vn -0.9569 -0.2905 0.0000
vn -0.8704 0.4923 0.0000
vn -0.8702 0.4926 -0.0000
vn -0.4890 -0.8723 0.0000
vn -0.4887 -0.8724 0.0000
vn -0.4888 -0.8724 0.0000
vn -0.2715 0.9624 0.0000
vn 0.2713 -0.9625 0.0000
vn 0.2714 -0.9625 0.0000
vn 0.4727 0.8812 0.0000
vn 0.8760 -0.4823 0.0000
vn 0.8760 -0.4822 0.0000
vn 0.9629 0.2698 -0.0000
vn 0.9633 0.2686 0.0001
vn 0.9631 0.2693 0.0000
vn 0.9631 0.2692 0.0000
vn -0.9756 -0.2196 -0.0000
vn -0.9581 -0.2863 0.0000
vn -0.9840 -0.1781 -0.0000
vn -0.2783 0.9605 -0.0001
vn 0.9629 0.2699 -0.0000
vn 0.9628 0.2701 -0.0000
vn 0.9627 0.2706 0.0000
vn -0.2710 0.9626 -0.0000
vn -0.2713 0.9625 0.0000
vn -0.2698 0.9629 -0.0001
vn -0.2642 0.9645 -0.0003
vn 0.2711 -0.9625 0.0000
s off
f 1/1/1 2/2/1 3/3/1
f 4/4/2 2/2/2 5/5/2
f 3/3/2 2/2/2 4/4/2
f 10/6/3 11/7/3 9/8/3
f 9/8/4 11/7/4 7/9/4
f 12/10/5 13/11/5 14/12/5
f 15/13/6 13/11/6 16/14/6
f 14/12/6 13/11/6 15/13/6
f 17/15/7 18/16/7 19/17/7
f 20/18/7 18/16/7 17/15/7
f 22/19/8 17/15/8 21/20/8
f 23/21/9 24/22/9 25/23/9
f 26/24/10 23/21/10 25/23/10
f 27/25/11 28/26/11 26/24/11
f 28/26/11 23/21/11 26/24/11
f 29/27/12 30/28/12 31/29/12
f 32/30/13 31/29/13 33/31/13
f 32/30/13 29/27/13 31/29/13
f 34/32/14 35/33/14 36/34/14
f 37/35/15 35/33/15 38/36/15
f 36/34/16 35/33/16 37/35/16
f 42/37/17 40/38/17 43/39/17
f 44/40/18 45/41/18 46/42/18
f 47/43/19 46/42/19 48/44/19
f 47/43/20 44/40/20 46/42/20
f 49/45/21 47/43/21 48/44/21
f 50/46/22 51/47/22 52/48/22
f 53/49/2 52/48/2 54/50/2
f 53/49/23 50/46/23 52/48/23
f 55/51/24 56/52/24 57/53/24
f 58/54/25 56/52/25 59/55/25
f 57/53/26 56/52/26 58/54/26
f 64/56/27 65/57/27 63/58/27
f 65/57/27 60/59/27 63/58/27
f 68/60/28 67/61/28 69/62/28
f 70/63/29 71/64/29 69/62/29
f 71/64/29 68/60/29 69/62/29
f 72/65/13 73/66/13 74/67/13
f 72/65/13 74/67/13 75/68/13
f 74/67/30 73/66/30 76/69/30
f 77/70/31 78/71/31 79/72/31
f 80/73/16 79/72/16 81/74/16
f 80/73/32 77/70/32 79/72/32
f 82/75/33 83/76/33 84/77/33
f 83/76/34 82/75/34 85/78/34
f 86/79/35 87/80/35 85/78/35
f 87/80/36 83/76/36 85/78/36
s 1
f 6/81/37 7/9/38 8/82/39
f 7/9/38 6/81/37 9/8/38
f 17/15/40 19/17/40 21/20/40
f 39/83/41 40/38/42 41/84/17
f 41/84/17 40/38/42 42/37/43
f 60/59/44 61/85/45 62/86/46
f 63/58/47 60/59/44 62/86/46
f 66/87/48 67/61/48 68/60/48
