# Blender v3.0.1 OBJ File: 'rockerfeller_plaza.blend'
# www.blender.org
o geometryt000010000010000110010110000110000110100100010010st14
v 1096.928223 -148.238861 1011.898254
v 1105.359863 -145.853058 1011.898254
v 1091.310547 -171.763657 1011.898254
v 1099.828857 -142.875870 1011.898254
v 1085.821899 -168.796967 1011.898254
v 1105.359863 -145.853058 1027.898193
v 1099.828857 -142.875870 1027.898193
v 1096.928223 -148.238861 1027.898193
v 1091.310547 -171.763657 1027.898193
v 1085.821899 -168.796967 1027.898193
vt 0.240150 0.184050
vt 0.233130 0.201100
vt 0.284740 0.172180
vt 0.229470 0.190020
vt 0.281090 0.161180
vt 0.233130 0.201100
vt 0.229470 0.190020
vt 0.240150 0.184050
vt 0.284740 0.172180
vt 0.281090 0.161180
vn 0.0000 0.0000 -1.0000
vn -0.0000 0.0000 1.0000
s off
f 1/1/1 2/2/1 3/3/1
f 4/4/1 2/2/1 1/1/1
f 1/1/1 3/3/1 5/5/1
f 6/6/2 7/7/2 8/8/2
f 9/9/2 8/8/2 10/10/2
f 9/9/2 6/6/2 8/8/2
