# Blender v3.0.1 OBJ File: 'rockerfeller_plaza.blend'
# www.blender.org
o geometryt000010000010000110010110000110000100110010110110st87
v 176.191788 -240.392929 566.457336
v 175.687790 -241.342422 566.457336
v 171.919388 -238.155319 566.457336
v 159.538986 -261.857635 566.457336
v 163.811188 -264.084137 566.457336
v 175.687790 -241.342422 581.557373
v 171.919388 -238.155319 581.557373
v 159.538986 -261.857635 581.557373
v 176.191788 -240.392929 581.557373
v 163.811188 -264.084137 581.557373
vt 0.383420 0.336700
vt 0.385310 0.335670
vt 0.380710 0.328150
vt 0.427770 0.302640
vt 0.430470 0.311200
vt 0.385310 0.335670
vt 0.380710 0.328150
vt 0.427770 0.302640
vt 0.383420 0.336700
vt 0.430470 0.311200
vn 0.0000 0.0000 -1.0000
vn 0.0000 0.0000 1.0000
s off
f 1/1/1 2/2/1 3/3/1
f 4/4/1 2/2/1 5/5/1
f 3/3/1 2/2/1 4/4/1
f 6/6/2 7/7/2 8/8/2
f 9/9/2 7/7/2 6/6/2
f 6/6/2 8/8/2 10/10/2
