# Blender v3.0.1 OBJ File: 'rockerfeller_plaza.blend'
# www.blender.org
o geometryt000010000010000110010110000110000100110010110110st110
v 166.476685 -178.577118 565.327148
v 151.947586 -205.535019 565.327148
v 146.264282 -202.470016 565.327148
v 160.793488 -175.512131 565.327148
v 166.476685 -178.577118 588.727173
v 160.793488 -175.512131 588.727173
v 146.264282 -202.470016 588.727173
v 151.947586 -205.535019 588.727173
vt 0.274030 0.318570
vt 0.327710 0.288650
vt 0.323940 0.277270
vt 0.270260 0.307180
vt 0.274030 0.318570
vt 0.270260 0.307180
vt 0.323940 0.277270
vt 0.327710 0.288650
vn -0.0000 0.0000 -1.0000
vn 0.0000 0.0000 1.0000
s off
f 1/1/1 2/2/1 3/3/1
f 4/4/1 1/1/1 3/3/1
f 5/5/2 6/6/2 7/7/2
f 5/5/2 7/7/2 8/8/2
