# Blender v3.0.1 OBJ File: 'rockerfeller_plaza.blend'
# www.blender.org
o tree1Plane_005.194_tree1Plane.038
v 876.517212 26.111942 1054.548218
v 876.517212 27.516043 1054.804443
v 874.517212 27.516043 1054.804443
v 874.517212 26.071236 1054.565674
v 876.517212 26.111942 1054.548218
v 874.517212 27.516043 1054.804443
vt 0.999914 0.291470
vt 0.999914 1.004940
vt 0.000159 1.004940
vt 0.000086 0.272920
vt 0.999914 0.291470
vt 0.000159 1.004940
vn 0.0000 -0.1795 0.9838
vn 0.0120 -0.1630 0.9865
s off
f 1/1/1 2/2/1 3/3/1
f 4/4/2 5/5/2 6/6/2
