# Blender v3.0.1 OBJ File: 'rockerfeller_plaza.blend'
# www.blender.org
o tree1Plane_004.207_tree1Plane.043
v 1222.292603 22.366796 615.725525
v 1222.292603 23.770897 615.981750
v 1220.292603 23.770897 615.981750
v 1220.292603 22.326090 615.743042
v 1222.292603 22.366796 615.725525
v 1220.292603 23.770897 615.981750
vt 0.999914 0.291470
vt 0.999914 1.004940
vt 0.000159 1.004940
vt 0.000086 0.272920
vt 0.999914 0.291470
vt 0.000159 1.004940
vn 0.0000 -0.1795 0.9838
vn 0.0120 -0.1630 0.9866
s off
f 1/1/1 2/2/1 3/3/1
f 4/4/2 5/5/2 6/6/2
