# Blender v3.0.1 OBJ File: 'rockerfeller_plaza.blend'
# www.blender.org
o tree1Plane_005.043_tree1Plane.014
v 82.651054 18.127558 591.917542
v 82.651054 19.531658 592.173767
v 80.651054 19.531658 592.173767
v 80.651054 18.086851 591.935059
v 82.651054 18.127558 591.917542
v 80.651054 19.531658 592.173767
vt 0.999914 0.291470
vt 0.999914 1.004940
vt 0.000159 1.004940
vt 0.000086 0.272920
vt 0.999914 0.291470
vt 0.000159 1.004940
vn 0.0000 -0.1795 0.9838
vn 0.0120 -0.1630 0.9866
s off
f 1/1/1 2/2/1 3/3/1
f 4/4/2 5/5/2 6/6/2
