# Blender v3.0.1 OBJ File: 'rockerfeller_plaza.blend'
# www.blender.org
o tree0Plane_003.144_tree0Plane.018
v 623.409912 20.994198 214.982391
v 623.409912 22.398298 215.238632
v 621.409912 22.398298 215.238632
v 621.409912 20.953491 214.999893
v 623.409912 20.994198 214.982391
v 621.409912 22.398298 215.238632
vt 0.999914 0.291470
vt 0.999914 1.004940
vt 0.000159 1.004940
vt 0.000086 0.272920
vt 0.999914 0.291470
vt 0.000159 1.004940
vn 0.0000 -0.1795 0.9838
vn 0.0120 -0.1630 0.9865
s off
f 1/1/1 2/2/1 3/3/1
f 4/4/2 5/5/2 6/6/2
