# Blender v3.0.1 OBJ File: 'rockerfeller_plaza.blend'
# www.blender.org
o tree1Plane_004.167_tree1Plane.025
v 930.278320 28.644571 560.819031
v 930.278320 30.048672 561.075256
v 928.278320 30.048672 561.075256
v 928.278320 28.603865 560.836548
v 930.278320 28.644571 560.819031
v 928.278320 30.048672 561.075256
vt 0.999914 0.291470
vt 0.999914 1.004940
vt 0.000159 1.004940
vt 0.000086 0.272920
vt 0.999914 0.291470
vt 0.000159 1.004940
vn 0.0000 -0.1795 0.9838
vn 0.0120 -0.1630 0.9866
s off
f 1/1/1 2/2/1 3/3/1
f 4/4/2 5/5/2 6/6/2
